<svg xmlns="http://www.w3.org/2000/svg" viewBox="0 0 180 60"><g transform="translate(0,20)"><path class="area" fill="rgba(0, 0, 0, 0.2)" d="M0,37.06946666666666C1.0169491525423728,37.008911111111104,2.0338983050847457,36.94835555555555,3.0508474576271185,36.882799999999996C4.067796610169491,36.81724444444444,5.084745762711864,36.74482222222222,6.101694915254237,36.67613333333333C7.11864406779661,36.60744444444445,8.135593220338983,36.55213333333334,9.152542372881356,36.470666666666666C10.169491525423728,36.3892,11.186440677966102,36.26297777777777,12.203389830508474,36.18733333333333C13.220338983050846,36.111688888888885,14.23728813559322,36.055511111111116,15.254237288135592,36.0168C16.271186440677965,35.97808888888889,17.28813559322034,35.99622222222222,18.305084745762713,35.95506666666667C19.322033898305087,35.91391111111111,20.338983050847457,35.84982222222222,21.35593220338983,35.76C22.372881355932204,35.67017777777777,23.389830508474574,35.53722222222222,24.406779661016948,35.416133333333335C25.423728813559322,35.29504444444444,26.440677966101696,35.14233333333333,27.45762711864407,35.03346666666667C28.47457627118644,34.924600000000005,29.491525423728813,34.83235555555556,30.508474576271183,34.762933333333336C31.525423728813557,34.693511111111114,32.54237288135593,34.68295555555556,33.559322033898304,34.616933333333336C34.57627118644068,34.55091111111111,35.59322033898305,34.44913333333333,36.610169491525426,34.3668C37.6271186440678,34.28446666666667,38.644067796610166,34.260333333333335,39.66101694915254,34.122933333333336C40.67796610169491,33.985533333333336,41.69491525423729,33.76815555555556,42.71186440677966,33.5424C43.728813559322035,33.31664444444444,44.7457627118644,33.05771111111111,45.762711864406775,32.7684C46.77966101694915,32.47908888888889,47.79661016949152,32.122844444444446,48.813559322033896,31.806533333333334C49.83050847457627,31.490222222222222,50.847457627118644,31.214355555555557,51.86440677966102,30.870533333333334C52.88135593220339,30.526711111111112,53.898305084745765,30.06237777777778,54.91525423728814,29.7436C55.93220338983051,29.42482222222222,56.94915254237288,29.196555555555555,57.96610169491525,28.957866666666668C58.983050847457626,28.71917777777778,59.99999999999999,28.5728,61.01694915254237,28.311466666666668C62.03389830508474,28.050133333333335,63.05084745762712,27.75302222222222,64.0677966101695,27.389866666666663C65.08474576271186,27.02671111111111,66.10169491525424,26.550266666666666,67.11864406779661,26.132533333333335C68.13559322033899,25.7148,69.15254237288136,25.298555555555556,70.16949152542374,24.883466666666667C71.1864406779661,24.46837777777778,72.20338983050848,24.00435555555556,73.22033898305085,23.642000000000003C74.23728813559322,23.279644444444447,75.2542372881356,23.006444444444444,76.27118644067797,22.709333333333333C77.28813559322033,22.412222222222223,78.30508474576271,22.084488888888888,79.32203389830508,21.859333333333332C80.33898305084746,21.634177777777776,81.35593220338983,21.471733333333333,82.37288135593221,21.3584C83.38983050847457,21.245066666666666,84.40677966101696,21.29871111111111,85.42372881355932,21.179333333333332C86.4406779661017,21.059955555555554,87.45762711864407,20.776422222222227,88.47457627118645,20.489333333333335C89.49152542372882,20.202244444444446,90.50847457627118,19.860088888888882,91.52542372881355,19.456799999999998C92.54237288135593,19.053511111111106,93.55932203389831,18.471311111111113,94.57627118644069,18.0696C95.59322033898306,17.667888888888893,96.61016949152543,17.346622222222223,97.62711864406779,17.046533333333333C98.64406779661016,16.746444444444442,99.66101694915254,16.419999999999998,100.6779661016949,16.269066666666667C101.69491525423729,16.118133333333336,102.71186440677965,16.1936,103.72881355932203,16.04266666666667C104.7457627118644,15.891733333333338,105.76271186440678,15.620266666666666,106.77966101694915,15.2896C107.79661016949153,14.958933333333333,108.8135593220339,14.498444444444447,109.83050847457628,14.058666666666667C110.84745762711864,13.61888888888889,111.86440677966102,13.182955555555553,112.88135593220339,12.650933333333331C113.89830508474576,12.118911111111109,114.91525423728814,11.436755555555555,115.9322033898305,10.866533333333335C116.94915254237289,10.29631111111111,117.96610169491525,9.670466666666666,118.98305084745763,9.229599999999998C120,8.788733333333335,121.01694915254237,8.449844444444444,122.03389830508473,8.221333333333334C123.05084745762711,7.99282222222222,124.0677966101695,7.915777777777777,125.08474576271188,7.858533333333333C126.10169491525424,7.801288888888889,127.11864406779662,7.8299111111111115,128.135593220339,7.772666666666668C129.15254237288136,7.715422222222225,130.16949152542372,7.026866666666665,131.1864406779661,6.628933333333333C132.20338983050846,6.230999999999998,133.22033898305085,5.741777777777778,134.23728813559322,5.385066666666667C135.25423728813558,5.028355555555556,136.27118644067798,4.744022222222221,137.28813559322035,4.488666666666665C138.3050847457627,4.233311111111109,139.3220338983051,3.8529333333333327,140.33898305084747,3.8529333333333327C141.35593220338984,3.8529333333333327,142.3728813559322,3.853155555555555,143.38983050847457,3.8535999999999992C144.40677966101694,3.8540444444444435,145.42372881355934,4.047199999999999,146.4406779661017,4.434399999999998C147.45762711864407,4.821599999999994,148.47457627118644,7.189111111111113,149.4915254237288,7.476133333333332C150.50847457627117,7.763155555555555,151.52542372881356,7.722333333333332,152.54237288135593,7.906666666666666C153.5593220338983,8.091,154.5762711864407,8.422200000000002,155.59322033898306,8.582133333333335C156.61016949152543,8.742066666666666,157.6271186440678,8.676844444444445,158.64406779661016,8.866266666666665C159.66101694915253,9.055688888888886,160.67796610169492,9.355777777777778,161.6949152542373,9.756533333333334C162.71186440677965,10.157288888888889,163.72881355932205,10.740799999999995,164.74576271186442,11.270799999999998C165.76271186440678,11.800799999999995,166.77966101694915,12.522777777777778,167.79661016949152,12.936533333333333C168.81355932203388,13.350288888888892,169.83050847457628,13.366955555555556,170.84745762711864,13.753333333333334C171.864406779661,14.139711111111112,172.8813559322034,14.803088888888889,173.89830508474577,15.2548C174.91525423728814,15.70651111111111,175.93220338983053,16.4636,176.9491525423729,16.4636C177.96610169491527,16.4636,178.98305084745763,16.461,180,16.4584L180,40C178.98305084745763,40,177.96610169491527,40,176.9491525423729,40C175.93220338983053,40,174.91525423728814,40,173.89830508474577,40C172.8813559322034,40,171.864406779661,40,170.84745762711864,40C169.83050847457628,40,168.81355932203388,40,167.79661016949152,40C166.77966101694915,40,165.76271186440678,40,164.74576271186442,40C163.72881355932205,40,162.71186440677965,40,161.6949152542373,40C160.67796610169492,40,159.66101694915253,40,158.64406779661016,40C157.6271186440678,40,156.61016949152543,40,155.59322033898306,40C154.5762711864407,40,153.5593220338983,40,152.54237288135593,40C151.52542372881356,40,150.50847457627117,40,149.4915254237288,40C148.47457627118644,40,147.45762711864407,40,146.4406779661017,40C145.42372881355934,40,144.40677966101694,40,143.38983050847457,40C142.3728813559322,40,141.35593220338984,40,140.33898305084747,40C139.3220338983051,40,138.3050847457627,40,137.28813559322035,40C136.27118644067798,40,135.25423728813558,40,134.23728813559322,40C133.22033898305085,40,132.20338983050846,40,131.1864406779661,40C130.16949152542372,40,129.15254237288136,40,128.135593220339,40C127.11864406779662,40,126.10169491525424,40,125.08474576271188,40C124.0677966101695,40,123.05084745762711,40,122.03389830508473,40C121.01694915254237,40,120,40,118.98305084745763,40C117.96610169491525,40,116.94915254237289,40,115.9322033898305,40C114.91525423728814,40,113.89830508474576,40,112.88135593220339,40C111.86440677966102,40,110.84745762711864,40,109.83050847457628,40C108.8135593220339,40,107.79661016949153,40,106.77966101694915,40C105.76271186440678,40,104.7457627118644,40,103.72881355932203,40C102.71186440677965,40,101.69491525423729,40,100.6779661016949,40C99.66101694915254,40,98.64406779661016,40,97.62711864406779,40C96.61016949152543,40,95.59322033898306,40,94.57627118644069,40C93.55932203389831,40,92.54237288135593,40,91.52542372881355,40C90.50847457627118,40,89.49152542372882,40,88.47457627118645,40C87.45762711864407,40,86.4406779661017,40,85.42372881355932,40C84.40677966101696,40,83.38983050847457,40,82.37288135593221,40C81.35593220338983,40,80.33898305084746,40,79.32203389830508,40C78.30508474576271,40,77.28813559322033,40,76.27118644067797,40C75.2542372881356,40,74.23728813559322,40,73.22033898305085,40C72.20338983050848,40,71.1864406779661,40,70.16949152542374,40C69.15254237288136,40,68.13559322033899,40,67.11864406779661,40C66.10169491525424,40,65.08474576271186,40,64.0677966101695,40C63.05084745762712,40,62.03389830508474,40,61.01694915254237,40C59.99999999999999,40,58.983050847457626,40,57.96610169491525,40C56.94915254237288,40,55.93220338983051,40,54.91525423728814,40C53.898305084745765,40,52.88135593220339,40,51.86440677966102,40C50.847457627118644,40,49.83050847457627,40,48.813559322033896,40C47.79661016949152,40,46.77966101694915,40,45.762711864406775,40C44.7457627118644,40,43.728813559322035,40,42.71186440677966,40C41.69491525423729,40,40.67796610169491,40,39.66101694915254,40C38.644067796610166,40,37.6271186440678,40,36.610169491525426,40C35.59322033898305,40,34.57627118644068,40,33.559322033898304,40C32.54237288135593,40,31.525423728813557,40,30.508474576271183,40C29.491525423728813,40,28.47457627118644,40,27.45762711864407,40C26.440677966101696,40,25.423728813559322,40,24.406779661016948,40C23.389830508474574,40,22.372881355932204,40,21.35593220338983,40C20.338983050847457,40,19.322033898305087,40,18.305084745762713,40C17.28813559322034,40,16.271186440677965,40,15.254237288135592,40C14.23728813559322,40,13.220338983050846,40,12.203389830508474,40C11.186440677966102,40,10.169491525423728,40,9.152542372881356,40C8.135593220338983,40,7.11864406779661,40,6.101694915254237,40C5.084745762711864,40,4.067796610169491,40,3.0508474576271185,40C2.0338983050847457,40,1.0169491525423728,40,0,40Z"></path><path class="line" stroke="black" fill="none" d="M0,37.06946666666666C1.0169491525423728,37.008911111111104,2.0338983050847457,36.94835555555555,3.0508474576271185,36.882799999999996C4.067796610169491,36.81724444444444,5.084745762711864,36.74482222222222,6.101694915254237,36.67613333333333C7.11864406779661,36.60744444444445,8.135593220338983,36.55213333333334,9.152542372881356,36.470666666666666C10.169491525423728,36.3892,11.186440677966102,36.26297777777777,12.203389830508474,36.18733333333333C13.220338983050846,36.111688888888885,14.23728813559322,36.055511111111116,15.254237288135592,36.0168C16.271186440677965,35.97808888888889,17.28813559322034,35.99622222222222,18.305084745762713,35.95506666666667C19.322033898305087,35.91391111111111,20.338983050847457,35.84982222222222,21.35593220338983,35.76C22.372881355932204,35.67017777777777,23.389830508474574,35.53722222222222,24.406779661016948,35.416133333333335C25.423728813559322,35.29504444444444,26.440677966101696,35.14233333333333,27.45762711864407,35.03346666666667C28.47457627118644,34.924600000000005,29.491525423728813,34.83235555555556,30.508474576271183,34.762933333333336C31.525423728813557,34.693511111111114,32.54237288135593,34.68295555555556,33.559322033898304,34.616933333333336C34.57627118644068,34.55091111111111,35.59322033898305,34.44913333333333,36.610169491525426,34.3668C37.6271186440678,34.28446666666667,38.644067796610166,34.260333333333335,39.66101694915254,34.122933333333336C40.67796610169491,33.985533333333336,41.69491525423729,33.76815555555556,42.71186440677966,33.5424C43.728813559322035,33.31664444444444,44.7457627118644,33.05771111111111,45.762711864406775,32.7684C46.77966101694915,32.47908888888889,47.79661016949152,32.122844444444446,48.813559322033896,31.806533333333334C49.83050847457627,31.490222222222222,50.847457627118644,31.214355555555557,51.86440677966102,30.870533333333334C52.88135593220339,30.526711111111112,53.898305084745765,30.06237777777778,54.91525423728814,29.7436C55.93220338983051,29.42482222222222,56.94915254237288,29.196555555555555,57.96610169491525,28.957866666666668C58.983050847457626,28.71917777777778,59.99999999999999,28.5728,61.01694915254237,28.311466666666668C62.03389830508474,28.050133333333335,63.05084745762712,27.75302222222222,64.0677966101695,27.389866666666663C65.08474576271186,27.02671111111111,66.10169491525424,26.550266666666666,67.11864406779661,26.132533333333335C68.13559322033899,25.7148,69.15254237288136,25.298555555555556,70.16949152542374,24.883466666666667C71.1864406779661,24.46837777777778,72.20338983050848,24.00435555555556,73.22033898305085,23.642000000000003C74.23728813559322,23.279644444444447,75.2542372881356,23.006444444444444,76.27118644067797,22.709333333333333C77.28813559322033,22.412222222222223,78.30508474576271,22.084488888888888,79.32203389830508,21.859333333333332C80.33898305084746,21.634177777777776,81.35593220338983,21.471733333333333,82.37288135593221,21.3584C83.38983050847457,21.245066666666666,84.40677966101696,21.29871111111111,85.42372881355932,21.179333333333332C86.4406779661017,21.059955555555554,87.45762711864407,20.776422222222227,88.47457627118645,20.489333333333335C89.49152542372882,20.202244444444446,90.50847457627118,19.860088888888882,91.52542372881355,19.456799999999998C92.54237288135593,19.053511111111106,93.55932203389831,18.471311111111113,94.57627118644069,18.0696C95.59322033898306,17.667888888888893,96.61016949152543,17.346622222222223,97.62711864406779,17.046533333333333C98.64406779661016,16.746444444444442,99.66101694915254,16.419999999999998,100.6779661016949,16.269066666666667C101.69491525423729,16.118133333333336,102.71186440677965,16.1936,103.72881355932203,16.04266666666667C104.7457627118644,15.891733333333338,105.76271186440678,15.620266666666666,106.77966101694915,15.2896C107.79661016949153,14.958933333333333,108.8135593220339,14.498444444444447,109.83050847457628,14.058666666666667C110.84745762711864,13.61888888888889,111.86440677966102,13.182955555555553,112.88135593220339,12.650933333333331C113.89830508474576,12.118911111111109,114.91525423728814,11.436755555555555,115.9322033898305,10.866533333333335C116.94915254237289,10.29631111111111,117.96610169491525,9.670466666666666,118.98305084745763,9.229599999999998C120,8.788733333333335,121.01694915254237,8.449844444444444,122.03389830508473,8.221333333333334C123.05084745762711,7.99282222222222,124.0677966101695,7.915777777777777,125.08474576271188,7.858533333333333C126.10169491525424,7.801288888888889,127.11864406779662,7.8299111111111115,128.135593220339,7.772666666666668C129.15254237288136,7.715422222222225,130.16949152542372,7.026866666666665,131.1864406779661,6.628933333333333C132.20338983050846,6.230999999999998,133.22033898305085,5.741777777777778,134.23728813559322,5.385066666666667C135.25423728813558,5.028355555555556,136.27118644067798,4.744022222222221,137.28813559322035,4.488666666666665C138.3050847457627,4.233311111111109,139.3220338983051,3.8529333333333327,140.33898305084747,3.8529333333333327C141.35593220338984,3.8529333333333327,142.3728813559322,3.853155555555555,143.38983050847457,3.8535999999999992C144.40677966101694,3.8540444444444435,145.42372881355934,4.047199999999999,146.4406779661017,4.434399999999998C147.45762711864407,4.821599999999994,148.47457627118644,7.189111111111113,149.4915254237288,7.476133333333332C150.50847457627117,7.763155555555555,151.52542372881356,7.722333333333332,152.54237288135593,7.906666666666666C153.5593220338983,8.091,154.5762711864407,8.422200000000002,155.59322033898306,8.582133333333335C156.61016949152543,8.742066666666666,157.6271186440678,8.676844444444445,158.64406779661016,8.866266666666665C159.66101694915253,9.055688888888886,160.67796610169492,9.355777777777778,161.6949152542373,9.756533333333334C162.71186440677965,10.157288888888889,163.72881355932205,10.740799999999995,164.74576271186442,11.270799999999998C165.76271186440678,11.800799999999995,166.77966101694915,12.522777777777778,167.79661016949152,12.936533333333333C168.81355932203388,13.350288888888892,169.83050847457628,13.366955555555556,170.84745762711864,13.753333333333334C171.864406779661,14.139711111111112,172.8813559322034,14.803088888888889,173.89830508474577,15.2548C174.91525423728814,15.70651111111111,175.93220338983053,16.4636,176.9491525423729,16.4636C177.96610169491527,16.4636,178.98305084745763,16.461,180,16.4584"></path><path class="axis-ceiling" stroke-width="1" stroke="black" fill="none" d="M175,0L180,0"></path><text class="axis-ceiling-label" font-family="sans-serif" text-anchor="end" font-size="10px" x="170" y="2.5">300000</text></g></svg>