<svg xmlns="http://www.w3.org/2000/svg" viewBox="0 0 180 60"><g transform="translate(0,20)"><path class="area" fill="rgba(0, 0, 0, 0.2)" d="M0,30.35780154924382C1.0169491525423728,31.658059756547402,2.0338983050847457,32.95831796385098,3.0508474576271185,33.876798229435636C4.067796610169491,34.79527849502029,5.084745762711864,35.86868314275175,6.101694915254237,35.86868314275175C7.11864406779661,35.86868314275175,8.135593220338983,33.74277634329276,9.152542372881356,32.90298782736998C10.169491525423728,32.06319931144719,11.186440677966102,30.829952047215052,12.203389830508474,30.829952047215052C13.220338983050846,30.829952047215052,14.23728813559322,31.072175089143,15.254237288135592,31.412762818148284C16.271186440677965,31.75335054715357,17.28813559322034,32.47510143858355,18.305084745762713,32.87347842124677C19.322033898305087,33.271855403909996,20.338983050847457,33.18332718554039,21.35593220338983,33.80302471412763C22.372881355932204,34.42272224271487,23.389830508474574,37.93434157137588,24.406779661016948,37.93434157137588C25.423728813559322,37.93434157137588,26.440677966101696,37.67613426779786,27.45762711864407,37.15971966064183C28.47457627118644,36.64330505348579,29.491525423728813,32.68904463297676,30.508474576271183,32.68904463297676C31.525423728813557,32.68904463297676,32.54237288135593,32.745604328046234,33.559322033898304,32.858723718185175C34.57627118644068,32.971843108324116,35.59322033898305,33.06774867822452,36.610169491525426,33.47104389524161C37.6271186440678,33.874339112258696,38.644067796610166,34.9981556621173,39.66101694915254,35.278495020287714C40.67796610169491,35.55883437845813,41.69491525423729,35.418664699372925,42.71186440677966,35.69900405754334C43.728813559322035,35.97934341571376,44.7457627118644,37.941718922906674,45.762711864406775,37.941718922906674C46.77966101694915,37.941718922906674,47.79661016949152,37.50153694823558,48.813559322033896,36.6211729988934C49.83050847457627,35.74080904955122,50.847457627118644,28.469199557358913,51.86440677966102,28.469199557358913C52.88135593220339,28.469199557358913,53.898305084745765,32.755440796753966,54.91525423728814,32.755440796753966C55.93220338983051,32.755440796753966,56.94915254237288,31.375876060494285,57.96610169491525,31.375876060494285C58.983050847457626,31.375876060494285,59.99999999999999,33.17594983400959,61.01694915254237,33.17594983400959C62.03389830508474,33.17594983400959,63.05084745762712,32.408705274806344,64.0677966101695,32.408705274806344C65.08474576271186,32.408705274806344,66.10169491525424,36.27689659412272,67.11864406779661,37.09332349686463C68.13559322033899,37.909750399606544,69.15254237288136,38.3179638509775,70.16949152542374,38.3179638509775C71.1864406779661,38.3179638509775,72.20338983050848,30.15861305791221,73.22033898305085,30.15861305791221C74.23728813559322,30.15861305791221,75.2542372881356,32.98905692856265,76.27118644067797,33.69236444116562C77.28813559322033,34.3956719537686,78.30508474576271,34.747325710070086,79.32203389830508,34.747325710070086C80.33898305084746,34.747325710070086,81.35593220338983,33.726792081642685,82.37288135593221,33.70711914422722C83.38983050847457,33.68744620681176,84.40677966101696,33.677609738104024,85.42372881355932,33.677609738104024C86.4406779661017,33.677609738104024,87.45762711864407,40,88.47457627118645,40C89.49152542372882,40,90.50847457627118,30.903725562523054,91.52542372881355,30.903725562523054C92.54237288135593,30.903725562523054,93.55932203389831,33.62596827738842,94.57627118644069,33.62596827738842C95.59322033898306,33.62596827738842,96.61016949152543,30.084839542604204,97.62711864406779,30.084839542604204C98.64406779661016,30.084839542604204,99.66101694915254,30.593876798229438,100.6779661016949,30.593876798229438C101.69491525423729,30.593876798229438,102.71186440677965,26.226484691995573,103.72881355932203,26.226484691995573C104.7457627118644,26.226484691995573,105.76271186440678,32.118529447928196,106.77966101694915,33.19070453707119C107.79661016949153,34.262879626214186,108.8135593220339,34.79896717078569,109.83050847457628,34.79896717078569C110.84745762711864,34.79896717078569,111.86440677966102,27.581458256485924,112.88135593220339,27.547030616008854C113.89830508474576,27.512602975531784,114.91525423728814,27.52981679577032,115.9322033898305,27.49538915529325C116.94915254237289,27.46096151481618,117.96610169491525,18.546661748432314,118.98305084745763,18.546661748432314C120,18.546661748432314,121.01694915254237,27.335546538792574,122.03389830508473,29.996311324234597C123.05084745762711,32.65707610967666,124.0677966101695,34.51125046108447,125.08474576271188,34.51125046108447C126.10169491525424,34.51125046108447,127.11864406779662,29.54383376367884,128.135593220339,29.273330874216157C129.15254237288136,29.002827984753477,130.16949152542372,29.138079429484815,131.1864406779661,28.867576540022135C132.20338983050846,28.59707365055945,133.22033898305085,22.545186278126156,134.23728813559322,21.438583548506088C135.25423728813558,20.33198081888602,136.27118644067798,20.885282183696056,137.28813559322035,19.778679454075988C138.3050847457627,18.67207672445592,139.3220338983051,8.774130087298683,140.33898305084747,6.683880486905203C141.35593220338984,4.5936308865117415,142.3728813559322,3.548506086315011,143.38983050847457,3.548506086315011C144.40677966101694,3.548506086315011,145.42372881355934,4.634206319931126,146.4406779661017,6.646993729251198C147.45762711864407,8.659781138571253,148.47457627118644,13.552194762080415,149.4915254237288,15.625230542235338C150.50847457627117,17.698266322390282,151.52542372881356,18.05237919586868,152.54237288135593,19.085208410180744C153.5593220338983,20.118037624492807,154.5762711864407,21.822205828107712,155.59322033898306,21.822205828107712C156.61016949152543,21.822205828107712,157.6271186440678,21.416451493913684,158.64406779661016,21.416451493913684C159.66101694915253,21.416451493913684,160.67796610169492,22.52305422353375,161.6949152542373,22.52305422353375C162.71186440677965,22.52305422353375,163.72881355932205,20.265584655108817,164.74576271186442,20.265584655108817C165.76271186440678,20.265584655108817,166.77966101694915,24.57887618345014,167.79661016949152,25.87974917004795C168.81355932203388,27.180622156645775,169.83050847457628,26.93471043895242,170.84745762711864,28.070822574695686C171.864406779661,29.206934710438954,172.8813559322034,31.577523669002833,173.89830508474577,32.696421984507566C174.91525423728814,33.8153203000123,175.93220338983053,34.78421246772409,176.9491525423729,34.78421246772409C177.96610169491527,34.78421246772409,178.98305084745763,27.808926595352272,180,20.833640722980455L180,40C178.98305084745763,40,177.96610169491527,40,176.9491525423729,40C175.93220338983053,40,174.91525423728814,40,173.89830508474577,40C172.8813559322034,40,171.864406779661,40,170.84745762711864,40C169.83050847457628,40,168.81355932203388,40,167.79661016949152,40C166.77966101694915,40,165.76271186440678,40,164.74576271186442,40C163.72881355932205,40,162.71186440677965,40,161.6949152542373,40C160.67796610169492,40,159.66101694915253,40,158.64406779661016,40C157.6271186440678,40,156.61016949152543,40,155.59322033898306,40C154.5762711864407,40,153.5593220338983,40,152.54237288135593,40C151.52542372881356,40,150.50847457627117,40,149.4915254237288,40C148.47457627118644,40,147.45762711864407,40,146.4406779661017,40C145.42372881355934,40,144.40677966101694,40,143.38983050847457,40C142.3728813559322,40,141.35593220338984,40,140.33898305084747,40C139.3220338983051,40,138.3050847457627,40,137.28813559322035,40C136.27118644067798,40,135.25423728813558,40,134.23728813559322,40C133.22033898305085,40,132.20338983050846,40,131.1864406779661,40C130.16949152542372,40,129.15254237288136,40,128.135593220339,40C127.11864406779662,40,126.10169491525424,40,125.08474576271188,40C124.0677966101695,40,123.05084745762711,40,122.03389830508473,40C121.01694915254237,40,120,40,118.98305084745763,40C117.96610169491525,40,116.94915254237289,40,115.9322033898305,40C114.91525423728814,40,113.89830508474576,40,112.88135593220339,40C111.86440677966102,40,110.84745762711864,40,109.83050847457628,40C108.8135593220339,40,107.79661016949153,40,106.77966101694915,40C105.76271186440678,40,104.7457627118644,40,103.72881355932203,40C102.71186440677965,40,101.69491525423729,40,100.6779661016949,40C99.66101694915254,40,98.64406779661016,40,97.62711864406779,40C96.61016949152543,40,95.59322033898306,40,94.57627118644069,40C93.55932203389831,40,92.54237288135593,40,91.52542372881355,40C90.50847457627118,40,89.49152542372882,40,88.47457627118645,40C87.45762711864407,40,86.4406779661017,40,85.42372881355932,40C84.40677966101696,40,83.38983050847457,40,82.37288135593221,40C81.35593220338983,40,80.33898305084746,40,79.32203389830508,40C78.30508474576271,40,77.28813559322033,40,76.27118644067797,40C75.2542372881356,40,74.23728813559322,40,73.22033898305085,40C72.20338983050848,40,71.1864406779661,40,70.16949152542374,40C69.15254237288136,40,68.13559322033899,40,67.11864406779661,40C66.10169491525424,40,65.08474576271186,40,64.0677966101695,40C63.05084745762712,40,62.03389830508474,40,61.01694915254237,40C59.99999999999999,40,58.983050847457626,40,57.96610169491525,40C56.94915254237288,40,55.93220338983051,40,54.91525423728814,40C53.898305084745765,40,52.88135593220339,40,51.86440677966102,40C50.847457627118644,40,49.83050847457627,40,48.813559322033896,40C47.79661016949152,40,46.77966101694915,40,45.762711864406775,40C44.7457627118644,40,43.728813559322035,40,42.71186440677966,40C41.69491525423729,40,40.67796610169491,40,39.66101694915254,40C38.644067796610166,40,37.6271186440678,40,36.610169491525426,40C35.59322033898305,40,34.57627118644068,40,33.559322033898304,40C32.54237288135593,40,31.525423728813557,40,30.508474576271183,40C29.491525423728813,40,28.47457627118644,40,27.45762711864407,40C26.440677966101696,40,25.423728813559322,40,24.406779661016948,40C23.389830508474574,40,22.372881355932204,40,21.35593220338983,40C20.338983050847457,40,19.322033898305087,40,18.305084745762713,40C17.28813559322034,40,16.271186440677965,40,15.254237288135592,40C14.23728813559322,40,13.220338983050846,40,12.203389830508474,40C11.186440677966102,40,10.169491525423728,40,9.152542372881356,40C8.135593220338983,40,7.11864406779661,40,6.101694915254237,40C5.084745762711864,40,4.067796610169491,40,3.0508474576271185,40C2.0338983050847457,40,1.0169491525423728,40,0,40Z"></path><path class="line" stroke="black" fill="none" d="M0,30.35780154924382C1.0169491525423728,31.658059756547402,2.0338983050847457,32.95831796385098,3.0508474576271185,33.876798229435636C4.067796610169491,34.79527849502029,5.084745762711864,35.86868314275175,6.101694915254237,35.86868314275175C7.11864406779661,35.86868314275175,8.135593220338983,33.74277634329276,9.152542372881356,32.90298782736998C10.169491525423728,32.06319931144719,11.186440677966102,30.829952047215052,12.203389830508474,30.829952047215052C13.220338983050846,30.829952047215052,14.23728813559322,31.072175089143,15.254237288135592,31.412762818148284C16.271186440677965,31.75335054715357,17.28813559322034,32.47510143858355,18.305084745762713,32.87347842124677C19.322033898305087,33.271855403909996,20.338983050847457,33.18332718554039,21.35593220338983,33.80302471412763C22.372881355932204,34.42272224271487,23.389830508474574,37.93434157137588,24.406779661016948,37.93434157137588C25.423728813559322,37.93434157137588,26.440677966101696,37.67613426779786,27.45762711864407,37.15971966064183C28.47457627118644,36.64330505348579,29.491525423728813,32.68904463297676,30.508474576271183,32.68904463297676C31.525423728813557,32.68904463297676,32.54237288135593,32.745604328046234,33.559322033898304,32.858723718185175C34.57627118644068,32.971843108324116,35.59322033898305,33.06774867822452,36.610169491525426,33.47104389524161C37.6271186440678,33.874339112258696,38.644067796610166,34.9981556621173,39.66101694915254,35.278495020287714C40.67796610169491,35.55883437845813,41.69491525423729,35.418664699372925,42.71186440677966,35.69900405754334C43.728813559322035,35.97934341571376,44.7457627118644,37.941718922906674,45.762711864406775,37.941718922906674C46.77966101694915,37.941718922906674,47.79661016949152,37.50153694823558,48.813559322033896,36.6211729988934C49.83050847457627,35.74080904955122,50.847457627118644,28.469199557358913,51.86440677966102,28.469199557358913C52.88135593220339,28.469199557358913,53.898305084745765,32.755440796753966,54.91525423728814,32.755440796753966C55.93220338983051,32.755440796753966,56.94915254237288,31.375876060494285,57.96610169491525,31.375876060494285C58.983050847457626,31.375876060494285,59.99999999999999,33.17594983400959,61.01694915254237,33.17594983400959C62.03389830508474,33.17594983400959,63.05084745762712,32.408705274806344,64.0677966101695,32.408705274806344C65.08474576271186,32.408705274806344,66.10169491525424,36.27689659412272,67.11864406779661,37.09332349686463C68.13559322033899,37.909750399606544,69.15254237288136,38.3179638509775,70.16949152542374,38.3179638509775C71.1864406779661,38.3179638509775,72.20338983050848,30.15861305791221,73.22033898305085,30.15861305791221C74.23728813559322,30.15861305791221,75.2542372881356,32.98905692856265,76.27118644067797,33.69236444116562C77.28813559322033,34.3956719537686,78.30508474576271,34.747325710070086,79.32203389830508,34.747325710070086C80.33898305084746,34.747325710070086,81.35593220338983,33.726792081642685,82.37288135593221,33.70711914422722C83.38983050847457,33.68744620681176,84.40677966101696,33.677609738104024,85.42372881355932,33.677609738104024C86.4406779661017,33.677609738104024,87.45762711864407,40,88.47457627118645,40C89.49152542372882,40,90.50847457627118,30.903725562523054,91.52542372881355,30.903725562523054C92.54237288135593,30.903725562523054,93.55932203389831,33.62596827738842,94.57627118644069,33.62596827738842C95.59322033898306,33.62596827738842,96.61016949152543,30.084839542604204,97.62711864406779,30.084839542604204C98.64406779661016,30.084839542604204,99.66101694915254,30.593876798229438,100.6779661016949,30.593876798229438C101.69491525423729,30.593876798229438,102.71186440677965,26.226484691995573,103.72881355932203,26.226484691995573C104.7457627118644,26.226484691995573,105.76271186440678,32.118529447928196,106.77966101694915,33.19070453707119C107.79661016949153,34.262879626214186,108.8135593220339,34.79896717078569,109.83050847457628,34.79896717078569C110.84745762711864,34.79896717078569,111.86440677966102,27.581458256485924,112.88135593220339,27.547030616008854C113.89830508474576,27.512602975531784,114.91525423728814,27.52981679577032,115.9322033898305,27.49538915529325C116.94915254237289,27.46096151481618,117.96610169491525,18.546661748432314,118.98305084745763,18.546661748432314C120,18.546661748432314,121.01694915254237,27.335546538792574,122.03389830508473,29.996311324234597C123.05084745762711,32.65707610967666,124.0677966101695,34.51125046108447,125.08474576271188,34.51125046108447C126.10169491525424,34.51125046108447,127.11864406779662,29.54383376367884,128.135593220339,29.273330874216157C129.15254237288136,29.002827984753477,130.16949152542372,29.138079429484815,131.1864406779661,28.867576540022135C132.20338983050846,28.59707365055945,133.22033898305085,22.545186278126156,134.23728813559322,21.438583548506088C135.25423728813558,20.33198081888602,136.27118644067798,20.885282183696056,137.28813559322035,19.778679454075988C138.3050847457627,18.67207672445592,139.3220338983051,8.774130087298683,140.33898305084747,6.683880486905203C141.35593220338984,4.5936308865117415,142.3728813559322,3.548506086315011,143.38983050847457,3.548506086315011C144.40677966101694,3.548506086315011,145.42372881355934,4.634206319931126,146.4406779661017,6.646993729251198C147.45762711864407,8.659781138571253,148.47457627118644,13.552194762080415,149.4915254237288,15.625230542235338C150.50847457627117,17.698266322390282,151.52542372881356,18.05237919586868,152.54237288135593,19.085208410180744C153.5593220338983,20.118037624492807,154.5762711864407,21.822205828107712,155.59322033898306,21.822205828107712C156.61016949152543,21.822205828107712,157.6271186440678,21.416451493913684,158.64406779661016,21.416451493913684C159.66101694915253,21.416451493913684,160.67796610169492,22.52305422353375,161.6949152542373,22.52305422353375C162.71186440677965,22.52305422353375,163.72881355932205,20.265584655108817,164.74576271186442,20.265584655108817C165.76271186440678,20.265584655108817,166.77966101694915,24.57887618345014,167.79661016949152,25.87974917004795C168.81355932203388,27.180622156645775,169.83050847457628,26.93471043895242,170.84745762711864,28.070822574695686C171.864406779661,29.206934710438954,172.8813559322034,31.577523669002833,173.89830508474577,32.696421984507566C174.91525423728814,33.8153203000123,175.93220338983053,34.78421246772409,176.9491525423729,34.78421246772409C177.96610169491527,34.78421246772409,178.98305084745763,27.808926595352272,180,20.833640722980455"></path><path class="axis-ceiling" stroke-width="1" stroke="black" fill="none" d="M175,0L180,0"></path><text class="axis-ceiling-label" font-family="sans-serif" text-anchor="end" font-size="10px" x="170" y="2.5">5000</text></g></svg>