<svg xmlns="http://www.w3.org/2000/svg" viewBox="0 0 180 60"><g transform="translate(0,20)"><path class="area" fill="rgba(0, 0, 0, 0.2)" d="M0,39.944959999999995C1.0169491525423728,39.94404333333333,2.0338983050847457,39.943126666666664,3.0508474576271185,39.94112C4.067796610169491,39.93911333333333,5.084745762711864,39.935353333333325,6.101694915254237,39.932919999999996C7.11864406779661,39.93048666666666,8.135593220338983,39.92895333333334,9.152542372881356,39.926520000000004C10.169491525423728,39.924086666666675,11.186440677966102,39.920613333333336,12.203389830508474,39.91832C13.220338983050846,39.91602666666667,14.23728813559322,39.91416666666667,15.254237288135592,39.91276C16.271186440677965,39.91135333333333,17.28813559322034,39.91153333333334,18.305084745762713,39.90988C19.322033898305087,39.908226666666664,20.338983050847457,39.90593333333333,21.35593220338983,39.90284C22.372881355932204,39.899746666666665,23.389830508474574,39.89539333333333,24.406779661016948,39.89132C25.423728813559322,39.88724666666667,26.440677966101696,39.88260666666667,27.45762711864407,39.8784C28.47457627118644,39.87419333333333,29.491525423728813,39.8707,30.508474576271183,39.86608C31.525423728813557,39.861459999999994,32.54237288135593,39.855686666666664,33.559322033898304,39.85068C34.57627118644068,39.84567333333333,35.59322033898305,39.84244,36.610169491525426,39.836040000000004C37.6271186440678,39.829640000000005,38.644067796610166,39.82352,39.66101694915254,39.81228C40.67796610169491,39.80104,41.69491525423729,39.792033333333336,42.71186440677966,39.7686C43.728813559322035,39.74516666666667,44.7457627118644,39.71614,45.762711864406775,39.67168C46.77966101694915,39.62722,47.79661016949152,39.56906,48.813559322033896,39.50184C49.83050847457627,39.43462,50.847457627118644,39.36125333333334,51.86440677966102,39.26836C52.88135593220339,39.175466666666665,53.898305084745765,39.050313333333335,54.91525423728814,38.94448C55.93220338983051,38.83864666666666,56.94915254237288,38.722853333333326,57.96610169491525,38.633359999999996C58.983050847457626,38.543866666666666,59.99999999999999,38.48305333333334,61.01694915254237,38.407520000000005C62.03389830508474,38.33198666666667,63.05084745762712,38.299593333333334,64.0677966101695,38.18016C65.08474576271186,38.06072666666667,66.10169491525424,37.88995333333333,67.11864406779661,37.69092C68.13559322033899,37.491886666666666,69.15254237288136,37.235266666666675,70.16949152542374,36.985960000000006C71.1864406779661,36.736653333333344,72.20338983050848,36.475706666666674,73.22033898305085,36.195080000000004C74.23728813559322,35.914453333333334,75.2542372881356,35.59876,76.27118644067797,35.3022C77.28813559322033,35.00564,78.30508474576271,34.6471,79.32203389830508,34.41572C80.33898305084746,34.18434,81.35593220338983,34.16399333333333,82.37288135593221,33.91392C83.38983050847457,33.663846666666664,84.40677966101696,33.30822666666667,85.42372881355932,32.91528C86.4406779661017,32.522333333333336,87.45762711864407,32.03534666666667,88.47457627118645,31.55624C89.49152542372882,31.077133333333332,90.50847457627118,30.56143333333333,91.52542372881355,30.04064C92.54237288135593,29.519846666666663,93.55932203389831,28.977100000000004,94.57627118644069,28.43148C95.59322033898306,27.885860000000005,96.61016949152543,27.275253333333332,97.62711864406779,26.76692C98.64406779661016,26.258586666666663,99.66101694915254,25.796439999999997,100.6779661016949,25.38148C101.69491525423729,24.96652,102.71186440677965,24.712873333333338,103.72881355932203,24.277160000000002C104.7457627118644,23.84144666666667,105.76271186440678,23.326613333333334,106.77966101694915,22.767200000000003C107.79661016949153,22.207786666666667,108.8135593220339,21.569560000000006,109.83050847457628,20.920680000000004C110.84745762711864,20.271800000000006,111.86440677966102,19.57888666666667,112.88135593220339,18.873920000000002C113.89830508474576,18.168953333333334,114.91525423728814,17.353693333333332,115.9322033898305,16.69088C116.94915254237289,16.028066666666664,117.96610169491525,15.419913333333335,118.98305084745763,14.89704C120,14.37416666666667,121.01694915254237,13.908293333333331,122.03389830508473,13.553639999999998C123.05084745762711,13.198986666666661,124.0677966101695,13.10156,125.08474576271188,12.769119999999997C126.10169491525424,12.436679999999999,127.11864406779662,12.0708,128.135593220339,11.559C129.15254237288136,11.0472,130.16949152542372,10.314959999999996,131.1864406779661,9.698319999999999C132.20338983050846,9.081679999999995,133.22033898305085,8.463379999999999,134.23728813559322,7.859159999999998C135.25423728813558,7.254939999999999,136.27118644067798,6.58742,137.28813559322035,6.0729999999999995C138.3050847457627,5.558579999999999,139.3220338983051,5.113613333333333,140.33898305084747,4.772639999999999C141.35593220338984,4.431666666666668,142.3728813559322,4.08825333333333,143.38983050847457,4.0271599999999985C144.40677966101694,3.966066666666667,145.42372881355934,3.996613333333333,146.4406779661017,3.9355200000000012C147.45762711864407,3.8744266666666705,148.47457627118644,3.5394599999999987,149.4915254237288,3.27356C150.50847457627117,3.0076599999999987,151.52542372881356,2.6621399999999986,152.54237288135593,2.340119999999999C153.5593220338983,2.018099999999999,154.5762711864407,1.644833333333335,155.59322033898306,1.3414400000000004C156.61016949152543,1.0380466666666686,157.6271186440678,0.519759999999998,158.64406779661016,0.519759999999998C159.66101694915253,0.519759999999998,160.67796610169492,1.4837599999999984,161.6949152542373,1.4837599999999984C162.71186440677965,1.4837599999999984,163.72881355932205,1.3646400000000014,164.74576271186442,1.3646400000000014C165.76271186440678,1.3646400000000014,166.77966101694915,2.5228933333333323,167.79661016949152,2.6108399999999987C168.81355932203388,2.698786666666666,169.83050847457628,2.7427599999999996,170.84745762711864,2.7427599999999996C171.864406779661,2.7427599999999996,172.8813559322034,2.5060733333333327,173.89830508474577,2.352479999999999C174.91525423728814,2.1988866666666653,175.93220338983053,2.1035733333333337,176.9491525423729,1.8211999999999984C177.96610169491527,1.5388266666666657,178.98305084745763,1.0985333333333334,180,0.658240000000001L180,40C178.98305084745763,40,177.96610169491527,40,176.9491525423729,40C175.93220338983053,40,174.91525423728814,40,173.89830508474577,40C172.8813559322034,40,171.864406779661,40,170.84745762711864,40C169.83050847457628,40,168.81355932203388,40,167.79661016949152,40C166.77966101694915,40,165.76271186440678,40,164.74576271186442,40C163.72881355932205,40,162.71186440677965,40,161.6949152542373,40C160.67796610169492,40,159.66101694915253,40,158.64406779661016,40C157.6271186440678,40,156.61016949152543,40,155.59322033898306,40C154.5762711864407,40,153.5593220338983,40,152.54237288135593,40C151.52542372881356,40,150.50847457627117,40,149.4915254237288,40C148.47457627118644,40,147.45762711864407,40,146.4406779661017,40C145.42372881355934,40,144.40677966101694,40,143.38983050847457,40C142.3728813559322,40,141.35593220338984,40,140.33898305084747,40C139.3220338983051,40,138.3050847457627,40,137.28813559322035,40C136.27118644067798,40,135.25423728813558,40,134.23728813559322,40C133.22033898305085,40,132.20338983050846,40,131.1864406779661,40C130.16949152542372,40,129.15254237288136,40,128.135593220339,40C127.11864406779662,40,126.10169491525424,40,125.08474576271188,40C124.0677966101695,40,123.05084745762711,40,122.03389830508473,40C121.01694915254237,40,120,40,118.98305084745763,40C117.96610169491525,40,116.94915254237289,40,115.9322033898305,40C114.91525423728814,40,113.89830508474576,40,112.88135593220339,40C111.86440677966102,40,110.84745762711864,40,109.83050847457628,40C108.8135593220339,40,107.79661016949153,40,106.77966101694915,40C105.76271186440678,40,104.7457627118644,40,103.72881355932203,40C102.71186440677965,40,101.69491525423729,40,100.6779661016949,40C99.66101694915254,40,98.64406779661016,40,97.62711864406779,40C96.61016949152543,40,95.59322033898306,40,94.57627118644069,40C93.55932203389831,40,92.54237288135593,40,91.52542372881355,40C90.50847457627118,40,89.49152542372882,40,88.47457627118645,40C87.45762711864407,40,86.4406779661017,40,85.42372881355932,40C84.40677966101696,40,83.38983050847457,40,82.37288135593221,40C81.35593220338983,40,80.33898305084746,40,79.32203389830508,40C78.30508474576271,40,77.28813559322033,40,76.27118644067797,40C75.2542372881356,40,74.23728813559322,40,73.22033898305085,40C72.20338983050848,40,71.1864406779661,40,70.16949152542374,40C69.15254237288136,40,68.13559322033899,40,67.11864406779661,40C66.10169491525424,40,65.08474576271186,40,64.0677966101695,40C63.05084745762712,40,62.03389830508474,40,61.01694915254237,40C59.99999999999999,40,58.983050847457626,40,57.96610169491525,40C56.94915254237288,40,55.93220338983051,40,54.91525423728814,40C53.898305084745765,40,52.88135593220339,40,51.86440677966102,40C50.847457627118644,40,49.83050847457627,40,48.813559322033896,40C47.79661016949152,40,46.77966101694915,40,45.762711864406775,40C44.7457627118644,40,43.728813559322035,40,42.71186440677966,40C41.69491525423729,40,40.67796610169491,40,39.66101694915254,40C38.644067796610166,40,37.6271186440678,40,36.610169491525426,40C35.59322033898305,40,34.57627118644068,40,33.559322033898304,40C32.54237288135593,40,31.525423728813557,40,30.508474576271183,40C29.491525423728813,40,28.47457627118644,40,27.45762711864407,40C26.440677966101696,40,25.423728813559322,40,24.406779661016948,40C23.389830508474574,40,22.372881355932204,40,21.35593220338983,40C20.338983050847457,40,19.322033898305087,40,18.305084745762713,40C17.28813559322034,40,16.271186440677965,40,15.254237288135592,40C14.23728813559322,40,13.220338983050846,40,12.203389830508474,40C11.186440677966102,40,10.169491525423728,40,9.152542372881356,40C8.135593220338983,40,7.11864406779661,40,6.101694915254237,40C5.084745762711864,40,4.067796610169491,40,3.0508474576271185,40C2.0338983050847457,40,1.0169491525423728,40,0,40Z"></path><path class="line" stroke="black" fill="none" d="M0,39.944959999999995C1.0169491525423728,39.94404333333333,2.0338983050847457,39.943126666666664,3.0508474576271185,39.94112C4.067796610169491,39.93911333333333,5.084745762711864,39.935353333333325,6.101694915254237,39.932919999999996C7.11864406779661,39.93048666666666,8.135593220338983,39.92895333333334,9.152542372881356,39.926520000000004C10.169491525423728,39.924086666666675,11.186440677966102,39.920613333333336,12.203389830508474,39.91832C13.220338983050846,39.91602666666667,14.23728813559322,39.91416666666667,15.254237288135592,39.91276C16.271186440677965,39.91135333333333,17.28813559322034,39.91153333333334,18.305084745762713,39.90988C19.322033898305087,39.908226666666664,20.338983050847457,39.90593333333333,21.35593220338983,39.90284C22.372881355932204,39.899746666666665,23.389830508474574,39.89539333333333,24.406779661016948,39.89132C25.423728813559322,39.88724666666667,26.440677966101696,39.88260666666667,27.45762711864407,39.8784C28.47457627118644,39.87419333333333,29.491525423728813,39.8707,30.508474576271183,39.86608C31.525423728813557,39.861459999999994,32.54237288135593,39.855686666666664,33.559322033898304,39.85068C34.57627118644068,39.84567333333333,35.59322033898305,39.84244,36.610169491525426,39.836040000000004C37.6271186440678,39.829640000000005,38.644067796610166,39.82352,39.66101694915254,39.81228C40.67796610169491,39.80104,41.69491525423729,39.792033333333336,42.71186440677966,39.7686C43.728813559322035,39.74516666666667,44.7457627118644,39.71614,45.762711864406775,39.67168C46.77966101694915,39.62722,47.79661016949152,39.56906,48.813559322033896,39.50184C49.83050847457627,39.43462,50.847457627118644,39.36125333333334,51.86440677966102,39.26836C52.88135593220339,39.175466666666665,53.898305084745765,39.050313333333335,54.91525423728814,38.94448C55.93220338983051,38.83864666666666,56.94915254237288,38.722853333333326,57.96610169491525,38.633359999999996C58.983050847457626,38.543866666666666,59.99999999999999,38.48305333333334,61.01694915254237,38.407520000000005C62.03389830508474,38.33198666666667,63.05084745762712,38.299593333333334,64.0677966101695,38.18016C65.08474576271186,38.06072666666667,66.10169491525424,37.88995333333333,67.11864406779661,37.69092C68.13559322033899,37.491886666666666,69.15254237288136,37.235266666666675,70.16949152542374,36.985960000000006C71.1864406779661,36.736653333333344,72.20338983050848,36.475706666666674,73.22033898305085,36.195080000000004C74.23728813559322,35.914453333333334,75.2542372881356,35.59876,76.27118644067797,35.3022C77.28813559322033,35.00564,78.30508474576271,34.6471,79.32203389830508,34.41572C80.33898305084746,34.18434,81.35593220338983,34.16399333333333,82.37288135593221,33.91392C83.38983050847457,33.663846666666664,84.40677966101696,33.30822666666667,85.42372881355932,32.91528C86.4406779661017,32.522333333333336,87.45762711864407,32.03534666666667,88.47457627118645,31.55624C89.49152542372882,31.077133333333332,90.50847457627118,30.56143333333333,91.52542372881355,30.04064C92.54237288135593,29.519846666666663,93.55932203389831,28.977100000000004,94.57627118644069,28.43148C95.59322033898306,27.885860000000005,96.61016949152543,27.275253333333332,97.62711864406779,26.76692C98.64406779661016,26.258586666666663,99.66101694915254,25.796439999999997,100.6779661016949,25.38148C101.69491525423729,24.96652,102.71186440677965,24.712873333333338,103.72881355932203,24.277160000000002C104.7457627118644,23.84144666666667,105.76271186440678,23.326613333333334,106.77966101694915,22.767200000000003C107.79661016949153,22.207786666666667,108.8135593220339,21.569560000000006,109.83050847457628,20.920680000000004C110.84745762711864,20.271800000000006,111.86440677966102,19.57888666666667,112.88135593220339,18.873920000000002C113.89830508474576,18.168953333333334,114.91525423728814,17.353693333333332,115.9322033898305,16.69088C116.94915254237289,16.028066666666664,117.96610169491525,15.419913333333335,118.98305084745763,14.89704C120,14.37416666666667,121.01694915254237,13.908293333333331,122.03389830508473,13.553639999999998C123.05084745762711,13.198986666666661,124.0677966101695,13.10156,125.08474576271188,12.769119999999997C126.10169491525424,12.436679999999999,127.11864406779662,12.0708,128.135593220339,11.559C129.15254237288136,11.0472,130.16949152542372,10.314959999999996,131.1864406779661,9.698319999999999C132.20338983050846,9.081679999999995,133.22033898305085,8.463379999999999,134.23728813559322,7.859159999999998C135.25423728813558,7.254939999999999,136.27118644067798,6.58742,137.28813559322035,6.0729999999999995C138.3050847457627,5.558579999999999,139.3220338983051,5.113613333333333,140.33898305084747,4.772639999999999C141.35593220338984,4.431666666666668,142.3728813559322,4.08825333333333,143.38983050847457,4.0271599999999985C144.40677966101694,3.966066666666667,145.42372881355934,3.996613333333333,146.4406779661017,3.9355200000000012C147.45762711864407,3.8744266666666705,148.47457627118644,3.5394599999999987,149.4915254237288,3.27356C150.50847457627117,3.0076599999999987,151.52542372881356,2.6621399999999986,152.54237288135593,2.340119999999999C153.5593220338983,2.018099999999999,154.5762711864407,1.644833333333335,155.59322033898306,1.3414400000000004C156.61016949152543,1.0380466666666686,157.6271186440678,0.519759999999998,158.64406779661016,0.519759999999998C159.66101694915253,0.519759999999998,160.67796610169492,1.4837599999999984,161.6949152542373,1.4837599999999984C162.71186440677965,1.4837599999999984,163.72881355932205,1.3646400000000014,164.74576271186442,1.3646400000000014C165.76271186440678,1.3646400000000014,166.77966101694915,2.5228933333333323,167.79661016949152,2.6108399999999987C168.81355932203388,2.698786666666666,169.83050847457628,2.7427599999999996,170.84745762711864,2.7427599999999996C171.864406779661,2.7427599999999996,172.8813559322034,2.5060733333333327,173.89830508474577,2.352479999999999C174.91525423728814,2.1988866666666653,175.93220338983053,2.1035733333333337,176.9491525423729,1.8211999999999984C177.96610169491527,1.5388266666666657,178.98305084745763,1.0985333333333334,180,0.658240000000001"></path><path class="axis-ceiling" stroke-width="1" stroke="black" fill="none" d="M175,0L180,0"></path><text class="axis-ceiling-label" font-family="sans-serif" text-anchor="end" font-size="10px" x="170" y="2.5">1000000</text></g></svg>