<svg xmlns="http://www.w3.org/2000/svg" viewBox="0 0 180 60"><g transform="translate(0,20)"><path class="area" fill="rgba(0, 0, 0, 0.2)" d="M0,39.83088C1.0169491525423728,39.83385333333333,2.0338983050847457,39.83682666666667,3.0508474576271185,39.83936C4.067796610169491,39.84189333333333,5.084745762711864,39.84370666666667,6.101694915254237,39.84608C7.11864406779661,39.84845333333333,8.135593220338983,39.8512,9.152542372881356,39.8536C10.169491525423728,39.856,11.186440677966102,39.85834666666666,12.203389830508474,39.860479999999995C13.220338983050846,39.86261333333333,14.23728813559322,39.86501333333333,15.254237288135592,39.8664C16.271186440677965,39.86778666666667,17.28813559322034,39.86792,18.305084745762713,39.8688C19.322033898305087,39.86968,20.338983050847457,39.870826666666666,21.35593220338983,39.87168C22.372881355932204,39.87253333333333,23.389830508474574,39.87338666666666,24.406779661016948,39.87392C25.423728813559322,39.874453333333335,26.440677966101696,39.87477333333333,27.45762711864407,39.87488C28.47457627118644,39.874986666666665,29.491525423728813,39.87504,30.508474576271183,39.87504C31.525423728813557,39.87504,32.54237288135593,39.87421333333333,33.559322033898304,39.87392C34.57627118644068,39.87362666666667,35.59322033898305,39.87338666666667,36.610169491525426,39.87328C37.6271186440678,39.873173333333334,38.644067796610166,39.87322666666667,39.66101694915254,39.87312C40.67796610169491,39.87301333333333,41.69491525423729,39.87168,42.71186440677966,39.87088C43.728813559322035,39.87008,44.7457627118644,39.869306666666674,45.762711864406775,39.868320000000004C46.77966101694915,39.867333333333335,47.79661016949152,39.86613333333333,48.813559322033896,39.864959999999996C49.83050847457627,39.86378666666666,50.847457627118644,39.86248,51.86440677966102,39.86128C52.88135593220339,39.86008,53.898305084745765,39.85898666666667,54.91525423728814,39.85776C55.93220338983051,39.85653333333333,56.94915254237288,39.855333333333334,57.96610169491525,39.85392C58.983050847457626,39.85250666666667,59.99999999999999,39.8508,61.01694915254237,39.84928C62.03389830508474,39.84776,63.05084745762712,39.8464,64.0677966101695,39.8448C65.08474576271186,39.8432,66.10169491525424,39.841680000000004,67.11864406779661,39.83968C68.13559322033899,39.83768,69.15254237288136,39.83533333333333,70.16949152542374,39.8328C71.1864406779661,39.83026666666667,72.20338983050848,39.82749333333334,73.22033898305085,39.82448C74.23728813559322,39.821466666666666,75.2542372881356,39.81848,76.27118644067797,39.81472C77.28813559322033,39.81096,78.30508474576271,39.806293333333336,79.32203389830508,39.80192C80.33898305084746,39.79754666666667,81.35593220338983,39.793440000000004,82.37288135593221,39.78848C83.38983050847457,39.78352,84.40677966101696,39.778,85.42372881355932,39.77216C86.4406779661017,39.76632,87.45762711864407,39.760133333333336,88.47457627118645,39.753440000000005C89.49152542372882,39.746746666666674,90.50847457627118,39.73938666666667,91.52542372881355,39.732C92.54237288135593,39.72461333333333,93.55932203389831,39.71685333333333,94.57627118644069,39.70912C95.59322033898306,39.701386666666664,96.61016949152543,39.69354666666667,97.62711864406779,39.6856C98.64406779661016,39.67765333333333,99.66101694915254,39.67021333333333,100.6779661016949,39.66144C101.69491525423729,39.65266666666667,102.71186440677965,39.64290666666667,103.72881355932203,39.632960000000004C104.7457627118644,39.62301333333334,105.76271186440678,39.612719999999996,106.77966101694915,39.60176C107.79661016949153,39.590799999999994,108.8135593220339,39.579413333333335,109.83050847457628,39.5672C110.84745762711864,39.554986666666665,111.86440677966102,39.54224,112.88135593220339,39.52848C113.89830508474576,39.514720000000004,114.91525423728814,39.50125333333333,115.9322033898305,39.48464C116.94915254237289,39.46802666666667,117.96610169491525,39.450880000000005,118.98305084745763,39.4288C120,39.40672,121.01694915254237,39.385866666666665,122.03389830508473,39.35216C123.05084745762711,39.31845333333333,124.0677966101695,39.28336,125.08474576271188,39.22656C126.10169491525424,39.169760000000004,127.11864406779662,39.10413333333334,128.135593220339,39.01136C129.15254237288136,38.91858666666667,130.16949152542372,38.81314666666667,131.1864406779661,38.669920000000005C132.20338983050846,38.526693333333334,133.22033898305085,38.352853333333336,134.23728813559322,38.152C135.25423728813558,37.951146666666666,136.27118644067798,37.71314666666667,137.28813559322035,37.4648C138.3050847457627,37.21645333333333,139.3220338983051,36.94701333333334,140.33898305084747,36.66192C141.35593220338984,36.37682666666667,142.3728813559322,36.094159999999995,143.38983050847457,35.754239999999996C144.40677966101694,35.41432,145.42372881355934,35.05064,146.4406779661017,34.6224C147.45762711864407,34.194160000000004,148.47457627118644,33.71712,149.4915254237288,33.1848C150.50847457627117,32.652480000000004,151.52542372881356,32.06808,152.54237288135593,31.42848C153.5593220338983,30.78888,154.5762711864407,30.095760000000006,155.59322033898306,29.3472C156.61016949152543,28.598640000000003,157.6271186440678,27.76677333333333,158.64406779661016,26.93712C159.66101694915253,26.107466666666664,160.67796610169492,25.298666666666666,161.6949152542373,24.36928C162.71186440677965,23.439893333333334,163.72881355932205,22.446480000000005,164.74576271186442,21.360799999999998C165.76271186440678,20.27512,166.77966101694915,19.100933333333327,167.79661016949152,17.8552C168.81355932203388,16.609466666666663,169.83050847457628,15.287253333333336,170.84745762711864,13.886400000000002C171.864406779661,12.485546666666668,172.8813559322034,11.002346666666668,173.89830508474577,9.45008C174.91525423728814,7.897813333333333,175.93220338983053,6.11837333333334,176.9491525423729,4.572799999999999C177.96610169491527,3.0272266666666736,178.98305084745763,1.6019333333333363,180,0.17663999999999902L180,40C178.98305084745763,40,177.96610169491527,40,176.9491525423729,40C175.93220338983053,40,174.91525423728814,40,173.89830508474577,40C172.8813559322034,40,171.864406779661,40,170.84745762711864,40C169.83050847457628,40,168.81355932203388,40,167.79661016949152,40C166.77966101694915,40,165.76271186440678,40,164.74576271186442,40C163.72881355932205,40,162.71186440677965,40,161.6949152542373,40C160.67796610169492,40,159.66101694915253,40,158.64406779661016,40C157.6271186440678,40,156.61016949152543,40,155.59322033898306,40C154.5762711864407,40,153.5593220338983,40,152.54237288135593,40C151.52542372881356,40,150.50847457627117,40,149.4915254237288,40C148.47457627118644,40,147.45762711864407,40,146.4406779661017,40C145.42372881355934,40,144.40677966101694,40,143.38983050847457,40C142.3728813559322,40,141.35593220338984,40,140.33898305084747,40C139.3220338983051,40,138.3050847457627,40,137.28813559322035,40C136.27118644067798,40,135.25423728813558,40,134.23728813559322,40C133.22033898305085,40,132.20338983050846,40,131.1864406779661,40C130.16949152542372,40,129.15254237288136,40,128.135593220339,40C127.11864406779662,40,126.10169491525424,40,125.08474576271188,40C124.0677966101695,40,123.05084745762711,40,122.03389830508473,40C121.01694915254237,40,120,40,118.98305084745763,40C117.96610169491525,40,116.94915254237289,40,115.9322033898305,40C114.91525423728814,40,113.89830508474576,40,112.88135593220339,40C111.86440677966102,40,110.84745762711864,40,109.83050847457628,40C108.8135593220339,40,107.79661016949153,40,106.77966101694915,40C105.76271186440678,40,104.7457627118644,40,103.72881355932203,40C102.71186440677965,40,101.69491525423729,40,100.6779661016949,40C99.66101694915254,40,98.64406779661016,40,97.62711864406779,40C96.61016949152543,40,95.59322033898306,40,94.57627118644069,40C93.55932203389831,40,92.54237288135593,40,91.52542372881355,40C90.50847457627118,40,89.49152542372882,40,88.47457627118645,40C87.45762711864407,40,86.4406779661017,40,85.42372881355932,40C84.40677966101696,40,83.38983050847457,40,82.37288135593221,40C81.35593220338983,40,80.33898305084746,40,79.32203389830508,40C78.30508474576271,40,77.28813559322033,40,76.27118644067797,40C75.2542372881356,40,74.23728813559322,40,73.22033898305085,40C72.20338983050848,40,71.1864406779661,40,70.16949152542374,40C69.15254237288136,40,68.13559322033899,40,67.11864406779661,40C66.10169491525424,40,65.08474576271186,40,64.0677966101695,40C63.05084745762712,40,62.03389830508474,40,61.01694915254237,40C59.99999999999999,40,58.983050847457626,40,57.96610169491525,40C56.94915254237288,40,55.93220338983051,40,54.91525423728814,40C53.898305084745765,40,52.88135593220339,40,51.86440677966102,40C50.847457627118644,40,49.83050847457627,40,48.813559322033896,40C47.79661016949152,40,46.77966101694915,40,45.762711864406775,40C44.7457627118644,40,43.728813559322035,40,42.71186440677966,40C41.69491525423729,40,40.67796610169491,40,39.66101694915254,40C38.644067796610166,40,37.6271186440678,40,36.610169491525426,40C35.59322033898305,40,34.57627118644068,40,33.559322033898304,40C32.54237288135593,40,31.525423728813557,40,30.508474576271183,40C29.491525423728813,40,28.47457627118644,40,27.45762711864407,40C26.440677966101696,40,25.423728813559322,40,24.406779661016948,40C23.389830508474574,40,22.372881355932204,40,21.35593220338983,40C20.338983050847457,40,19.322033898305087,40,18.305084745762713,40C17.28813559322034,40,16.271186440677965,40,15.254237288135592,40C14.23728813559322,40,13.220338983050846,40,12.203389830508474,40C11.186440677966102,40,10.169491525423728,40,9.152542372881356,40C8.135593220338983,40,7.11864406779661,40,6.101694915254237,40C5.084745762711864,40,4.067796610169491,40,3.0508474576271185,40C2.0338983050847457,40,1.0169491525423728,40,0,40Z"></path><path class="line" stroke="black" fill="none" d="M0,39.83088C1.0169491525423728,39.83385333333333,2.0338983050847457,39.83682666666667,3.0508474576271185,39.83936C4.067796610169491,39.84189333333333,5.084745762711864,39.84370666666667,6.101694915254237,39.84608C7.11864406779661,39.84845333333333,8.135593220338983,39.8512,9.152542372881356,39.8536C10.169491525423728,39.856,11.186440677966102,39.85834666666666,12.203389830508474,39.860479999999995C13.220338983050846,39.86261333333333,14.23728813559322,39.86501333333333,15.254237288135592,39.8664C16.271186440677965,39.86778666666667,17.28813559322034,39.86792,18.305084745762713,39.8688C19.322033898305087,39.86968,20.338983050847457,39.870826666666666,21.35593220338983,39.87168C22.372881355932204,39.87253333333333,23.389830508474574,39.87338666666666,24.406779661016948,39.87392C25.423728813559322,39.874453333333335,26.440677966101696,39.87477333333333,27.45762711864407,39.87488C28.47457627118644,39.874986666666665,29.491525423728813,39.87504,30.508474576271183,39.87504C31.525423728813557,39.87504,32.54237288135593,39.87421333333333,33.559322033898304,39.87392C34.57627118644068,39.87362666666667,35.59322033898305,39.87338666666667,36.610169491525426,39.87328C37.6271186440678,39.873173333333334,38.644067796610166,39.87322666666667,39.66101694915254,39.87312C40.67796610169491,39.87301333333333,41.69491525423729,39.87168,42.71186440677966,39.87088C43.728813559322035,39.87008,44.7457627118644,39.869306666666674,45.762711864406775,39.868320000000004C46.77966101694915,39.867333333333335,47.79661016949152,39.86613333333333,48.813559322033896,39.864959999999996C49.83050847457627,39.86378666666666,50.847457627118644,39.86248,51.86440677966102,39.86128C52.88135593220339,39.86008,53.898305084745765,39.85898666666667,54.91525423728814,39.85776C55.93220338983051,39.85653333333333,56.94915254237288,39.855333333333334,57.96610169491525,39.85392C58.983050847457626,39.85250666666667,59.99999999999999,39.8508,61.01694915254237,39.84928C62.03389830508474,39.84776,63.05084745762712,39.8464,64.0677966101695,39.8448C65.08474576271186,39.8432,66.10169491525424,39.841680000000004,67.11864406779661,39.83968C68.13559322033899,39.83768,69.15254237288136,39.83533333333333,70.16949152542374,39.8328C71.1864406779661,39.83026666666667,72.20338983050848,39.82749333333334,73.22033898305085,39.82448C74.23728813559322,39.821466666666666,75.2542372881356,39.81848,76.27118644067797,39.81472C77.28813559322033,39.81096,78.30508474576271,39.806293333333336,79.32203389830508,39.80192C80.33898305084746,39.79754666666667,81.35593220338983,39.793440000000004,82.37288135593221,39.78848C83.38983050847457,39.78352,84.40677966101696,39.778,85.42372881355932,39.77216C86.4406779661017,39.76632,87.45762711864407,39.760133333333336,88.47457627118645,39.753440000000005C89.49152542372882,39.746746666666674,90.50847457627118,39.73938666666667,91.52542372881355,39.732C92.54237288135593,39.72461333333333,93.55932203389831,39.71685333333333,94.57627118644069,39.70912C95.59322033898306,39.701386666666664,96.61016949152543,39.69354666666667,97.62711864406779,39.6856C98.64406779661016,39.67765333333333,99.66101694915254,39.67021333333333,100.6779661016949,39.66144C101.69491525423729,39.65266666666667,102.71186440677965,39.64290666666667,103.72881355932203,39.632960000000004C104.7457627118644,39.62301333333334,105.76271186440678,39.612719999999996,106.77966101694915,39.60176C107.79661016949153,39.590799999999994,108.8135593220339,39.579413333333335,109.83050847457628,39.5672C110.84745762711864,39.554986666666665,111.86440677966102,39.54224,112.88135593220339,39.52848C113.89830508474576,39.514720000000004,114.91525423728814,39.50125333333333,115.9322033898305,39.48464C116.94915254237289,39.46802666666667,117.96610169491525,39.450880000000005,118.98305084745763,39.4288C120,39.40672,121.01694915254237,39.385866666666665,122.03389830508473,39.35216C123.05084745762711,39.31845333333333,124.0677966101695,39.28336,125.08474576271188,39.22656C126.10169491525424,39.169760000000004,127.11864406779662,39.10413333333334,128.135593220339,39.01136C129.15254237288136,38.91858666666667,130.16949152542372,38.81314666666667,131.1864406779661,38.669920000000005C132.20338983050846,38.526693333333334,133.22033898305085,38.352853333333336,134.23728813559322,38.152C135.25423728813558,37.951146666666666,136.27118644067798,37.71314666666667,137.28813559322035,37.4648C138.3050847457627,37.21645333333333,139.3220338983051,36.94701333333334,140.33898305084747,36.66192C141.35593220338984,36.37682666666667,142.3728813559322,36.094159999999995,143.38983050847457,35.754239999999996C144.40677966101694,35.41432,145.42372881355934,35.05064,146.4406779661017,34.6224C147.45762711864407,34.194160000000004,148.47457627118644,33.71712,149.4915254237288,33.1848C150.50847457627117,32.652480000000004,151.52542372881356,32.06808,152.54237288135593,31.42848C153.5593220338983,30.78888,154.5762711864407,30.095760000000006,155.59322033898306,29.3472C156.61016949152543,28.598640000000003,157.6271186440678,27.76677333333333,158.64406779661016,26.93712C159.66101694915253,26.107466666666664,160.67796610169492,25.298666666666666,161.6949152542373,24.36928C162.71186440677965,23.439893333333334,163.72881355932205,22.446480000000005,164.74576271186442,21.360799999999998C165.76271186440678,20.27512,166.77966101694915,19.100933333333327,167.79661016949152,17.8552C168.81355932203388,16.609466666666663,169.83050847457628,15.287253333333336,170.84745762711864,13.886400000000002C171.864406779661,12.485546666666668,172.8813559322034,11.002346666666668,173.89830508474577,9.45008C174.91525423728814,7.897813333333333,175.93220338983053,6.11837333333334,176.9491525423729,4.572799999999999C177.96610169491527,3.0272266666666736,178.98305084745763,1.6019333333333363,180,0.17663999999999902"></path><path class="axis-ceiling" stroke-width="1" stroke="black" fill="none" d="M175,0L180,0"></path><text class="axis-ceiling-label" font-family="sans-serif" text-anchor="end" font-size="10px" x="170" y="2.5">250000</text></g></svg>