<svg xmlns="http://www.w3.org/2000/svg" viewBox="0 0 180 60"><g transform="translate(0,20)"><path class="area" fill="rgba(0, 0, 0, 0.2)" d="M0,18.19352C1.0169491525423728,18.229126666666666,2.0338983050847457,18.264733333333332,3.0508474576271185,18.3324C4.067796610169491,18.400066666666667,5.084745762711864,18.50191333333333,6.101694915254237,18.59952C7.11864406779661,18.697126666666666,8.135593220338983,18.814966666666667,9.152542372881356,18.91804C10.169491525423728,19.021113333333336,11.186440677966102,19.10788666666667,12.203389830508474,19.21796C13.220338983050846,19.328033333333334,14.23728813559322,19.459786666666666,15.254237288135592,19.57848C16.271186440677965,19.697173333333332,17.28813559322034,19.81317333333333,18.305084745762713,19.93012C19.322033898305087,20.047066666666666,20.338983050847457,20.166573333333336,21.35593220338983,20.280160000000002C22.372881355932204,20.39374666666667,23.389830508474574,20.5048,24.406779661016948,20.611639999999998C25.423728813559322,20.718479999999996,26.440677966101696,20.817179999999997,27.45762711864407,20.9212C28.47457627118644,21.025219999999997,29.491525423728813,21.115746666666666,30.508474576271183,21.23576C31.525423728813557,21.35577333333333,32.54237288135593,21.514819999999997,33.559322033898304,21.64128C34.57627118644068,21.76774,35.59322033898305,21.874433333333332,36.610169491525426,21.99452C37.6271186440678,22.114606666666667,38.644067796610166,22.235553333333336,39.66101694915254,22.361800000000002C40.67796610169491,22.48804666666667,41.69491525423729,22.60956,42.71186440677966,22.752C43.728813559322035,22.89444,44.7457627118644,23.050886666666663,45.762711864406775,23.21644C46.77966101694915,23.381993333333334,47.79661016949152,23.558720000000005,48.813559322033896,23.745320000000003C49.83050847457627,23.93192,50.847457627118644,24.15045333333333,51.86440677966102,24.336039999999997C52.88135593220339,24.521626666666663,53.898305084745765,24.698,54.91525423728814,24.85884C55.93220338983051,25.01968,56.94915254237288,25.171453333333336,57.96610169491525,25.301080000000002C58.983050847457626,25.43070666666667,59.99999999999999,25.537740000000003,61.01694915254237,25.6366C62.03389830508474,25.735460000000003,63.05084745762712,25.830260000000003,64.0677966101695,25.894240000000003C65.08474576271186,25.958220000000004,66.10169491525424,25.999386666666666,67.11864406779661,26.02048C68.13559322033899,26.041573333333332,69.15254237288136,26.05212,70.16949152542374,26.05212C71.1864406779661,26.05212,72.20338983050848,25.99366666666667,73.22033898305085,25.943360000000002C74.23728813559322,25.893053333333334,75.2542372881356,25.818166666666666,76.27118644067797,25.75028C77.28813559322033,25.682393333333334,78.30508474576271,25.603666666666665,79.32203389830508,25.53604C80.33898305084746,25.468413333333334,81.35593220338983,25.40398,82.37288135593221,25.34452C83.38983050847457,25.285059999999998,84.40677966101696,25.22514,85.42372881355932,25.17928C86.4406779661017,25.133419999999997,87.45762711864407,25.10888,88.47457627118645,25.06936C89.49152542372882,25.02984,90.50847457627118,24.97481333333333,91.52542372881355,24.942159999999998C92.54237288135593,24.909506666666665,93.55932203389831,24.873440000000002,94.57627118644069,24.873440000000002C95.59322033898306,24.873440000000002,96.61016949152543,24.875373333333336,97.62711864406779,24.87924C98.64406779661016,24.883106666666663,99.66101694915254,24.923573333333334,100.6779661016949,24.9574C101.69491525423729,24.991226666666666,102.71186440677965,25.036939999999998,103.72881355932203,25.082199999999997C104.7457627118644,25.127459999999996,105.76271186440678,25.174113333333334,106.77966101694915,25.22896C107.79661016949153,25.283806666666667,108.8135593220339,25.347113333333333,109.83050847457628,25.41128C110.84745762711864,25.475446666666667,111.86440677966102,25.536813333333335,112.88135593220339,25.613960000000002C113.89830508474576,25.69110666666667,114.91525423728814,25.778980000000004,115.9322033898305,25.874160000000003C116.94915254237289,25.969340000000003,117.96610169491525,26.072686666666662,118.98305084745763,26.185039999999997C120,26.29739333333333,121.01694915254237,26.42274666666667,122.03389830508473,26.548280000000002C123.05084745762711,26.673813333333335,124.0677966101695,26.79928,125.08474576271188,26.93824C126.10169491525424,27.077199999999998,127.11864406779662,27.22556,128.135593220339,27.38204C129.15254237288136,27.53852,130.16949152542372,27.704486666666664,131.1864406779661,27.877119999999998C132.20338983050846,28.04975333333333,133.22033898305085,28.23714,134.23728813559322,28.41784C135.25423728813558,28.598540000000003,136.27118644067798,28.781746666666663,137.28813559322035,28.961319999999997C138.3050847457627,29.14089333333333,139.3220338983051,29.318733333333334,140.33898305084747,29.49528C141.35593220338984,29.671826666666668,142.3728813559322,29.849153333333337,143.38983050847457,30.0206C144.40677966101694,30.19204666666667,145.42372881355934,30.36066,146.4406779661017,30.52396C147.45762711864407,30.68726,148.47457627118644,30.847533333333335,149.4915254237288,31.0004C150.50847457627117,31.153266666666667,151.52542372881356,31.303193333333333,152.54237288135593,31.44116C153.5593220338983,31.579126666666667,154.5762711864407,31.702793333333332,155.59322033898306,31.8282C156.61016949152543,31.953606666666666,157.6271186440678,32.07688,158.64406779661016,32.1936C159.66101694915253,32.310320000000004,160.67796610169492,32.422760000000004,161.6949152542373,32.52852C162.71186440677965,32.63428,163.72881355932205,32.73475333333333,164.74576271186442,32.82816C165.76271186440678,32.92156666666666,166.77966101694915,33.00607333333333,167.79661016949152,33.08896C168.81355932203388,33.17184666666667,169.83050847457628,33.24837333333333,170.84745762711864,33.32548C171.864406779661,33.402586666666664,172.8813559322034,33.48106666666666,173.89830508474577,33.5516C174.91525423728814,33.62213333333334,175.93220338983053,33.68629333333333,176.9491525423729,33.74868C177.96610169491527,33.81106666666667,178.98305084745763,33.86849333333333,180,33.92592L180,40C178.98305084745763,40,177.96610169491527,40,176.9491525423729,40C175.93220338983053,40,174.91525423728814,40,173.89830508474577,40C172.8813559322034,40,171.864406779661,40,170.84745762711864,40C169.83050847457628,40,168.81355932203388,40,167.79661016949152,40C166.77966101694915,40,165.76271186440678,40,164.74576271186442,40C163.72881355932205,40,162.71186440677965,40,161.6949152542373,40C160.67796610169492,40,159.66101694915253,40,158.64406779661016,40C157.6271186440678,40,156.61016949152543,40,155.59322033898306,40C154.5762711864407,40,153.5593220338983,40,152.54237288135593,40C151.52542372881356,40,150.50847457627117,40,149.4915254237288,40C148.47457627118644,40,147.45762711864407,40,146.4406779661017,40C145.42372881355934,40,144.40677966101694,40,143.38983050847457,40C142.3728813559322,40,141.35593220338984,40,140.33898305084747,40C139.3220338983051,40,138.3050847457627,40,137.28813559322035,40C136.27118644067798,40,135.25423728813558,40,134.23728813559322,40C133.22033898305085,40,132.20338983050846,40,131.1864406779661,40C130.16949152542372,40,129.15254237288136,40,128.135593220339,40C127.11864406779662,40,126.10169491525424,40,125.08474576271188,40C124.0677966101695,40,123.05084745762711,40,122.03389830508473,40C121.01694915254237,40,120,40,118.98305084745763,40C117.96610169491525,40,116.94915254237289,40,115.9322033898305,40C114.91525423728814,40,113.89830508474576,40,112.88135593220339,40C111.86440677966102,40,110.84745762711864,40,109.83050847457628,40C108.8135593220339,40,107.79661016949153,40,106.77966101694915,40C105.76271186440678,40,104.7457627118644,40,103.72881355932203,40C102.71186440677965,40,101.69491525423729,40,100.6779661016949,40C99.66101694915254,40,98.64406779661016,40,97.62711864406779,40C96.61016949152543,40,95.59322033898306,40,94.57627118644069,40C93.55932203389831,40,92.54237288135593,40,91.52542372881355,40C90.50847457627118,40,89.49152542372882,40,88.47457627118645,40C87.45762711864407,40,86.4406779661017,40,85.42372881355932,40C84.40677966101696,40,83.38983050847457,40,82.37288135593221,40C81.35593220338983,40,80.33898305084746,40,79.32203389830508,40C78.30508474576271,40,77.28813559322033,40,76.27118644067797,40C75.2542372881356,40,74.23728813559322,40,73.22033898305085,40C72.20338983050848,40,71.1864406779661,40,70.16949152542374,40C69.15254237288136,40,68.13559322033899,40,67.11864406779661,40C66.10169491525424,40,65.08474576271186,40,64.0677966101695,40C63.05084745762712,40,62.03389830508474,40,61.01694915254237,40C59.99999999999999,40,58.983050847457626,40,57.96610169491525,40C56.94915254237288,40,55.93220338983051,40,54.91525423728814,40C53.898305084745765,40,52.88135593220339,40,51.86440677966102,40C50.847457627118644,40,49.83050847457627,40,48.813559322033896,40C47.79661016949152,40,46.77966101694915,40,45.762711864406775,40C44.7457627118644,40,43.728813559322035,40,42.71186440677966,40C41.69491525423729,40,40.67796610169491,40,39.66101694915254,40C38.644067796610166,40,37.6271186440678,40,36.610169491525426,40C35.59322033898305,40,34.57627118644068,40,33.559322033898304,40C32.54237288135593,40,31.525423728813557,40,30.508474576271183,40C29.491525423728813,40,28.47457627118644,40,27.45762711864407,40C26.440677966101696,40,25.423728813559322,40,24.406779661016948,40C23.389830508474574,40,22.372881355932204,40,21.35593220338983,40C20.338983050847457,40,19.322033898305087,40,18.305084745762713,40C17.28813559322034,40,16.271186440677965,40,15.254237288135592,40C14.23728813559322,40,13.220338983050846,40,12.203389830508474,40C11.186440677966102,40,10.169491525423728,40,9.152542372881356,40C8.135593220338983,40,7.11864406779661,40,6.101694915254237,40C5.084745762711864,40,4.067796610169491,40,3.0508474576271185,40C2.0338983050847457,40,1.0169491525423728,40,0,40Z"></path><path class="line" stroke="black" fill="none" d="M0,18.19352C1.0169491525423728,18.229126666666666,2.0338983050847457,18.264733333333332,3.0508474576271185,18.3324C4.067796610169491,18.400066666666667,5.084745762711864,18.50191333333333,6.101694915254237,18.59952C7.11864406779661,18.697126666666666,8.135593220338983,18.814966666666667,9.152542372881356,18.91804C10.169491525423728,19.021113333333336,11.186440677966102,19.10788666666667,12.203389830508474,19.21796C13.220338983050846,19.328033333333334,14.23728813559322,19.459786666666666,15.254237288135592,19.57848C16.271186440677965,19.697173333333332,17.28813559322034,19.81317333333333,18.305084745762713,19.93012C19.322033898305087,20.047066666666666,20.338983050847457,20.166573333333336,21.35593220338983,20.280160000000002C22.372881355932204,20.39374666666667,23.389830508474574,20.5048,24.406779661016948,20.611639999999998C25.423728813559322,20.718479999999996,26.440677966101696,20.817179999999997,27.45762711864407,20.9212C28.47457627118644,21.025219999999997,29.491525423728813,21.115746666666666,30.508474576271183,21.23576C31.525423728813557,21.35577333333333,32.54237288135593,21.514819999999997,33.559322033898304,21.64128C34.57627118644068,21.76774,35.59322033898305,21.874433333333332,36.610169491525426,21.99452C37.6271186440678,22.114606666666667,38.644067796610166,22.235553333333336,39.66101694915254,22.361800000000002C40.67796610169491,22.48804666666667,41.69491525423729,22.60956,42.71186440677966,22.752C43.728813559322035,22.89444,44.7457627118644,23.050886666666663,45.762711864406775,23.21644C46.77966101694915,23.381993333333334,47.79661016949152,23.558720000000005,48.813559322033896,23.745320000000003C49.83050847457627,23.93192,50.847457627118644,24.15045333333333,51.86440677966102,24.336039999999997C52.88135593220339,24.521626666666663,53.898305084745765,24.698,54.91525423728814,24.85884C55.93220338983051,25.01968,56.94915254237288,25.171453333333336,57.96610169491525,25.301080000000002C58.983050847457626,25.43070666666667,59.99999999999999,25.537740000000003,61.01694915254237,25.6366C62.03389830508474,25.735460000000003,63.05084745762712,25.830260000000003,64.0677966101695,25.894240000000003C65.08474576271186,25.958220000000004,66.10169491525424,25.999386666666666,67.11864406779661,26.02048C68.13559322033899,26.041573333333332,69.15254237288136,26.05212,70.16949152542374,26.05212C71.1864406779661,26.05212,72.20338983050848,25.99366666666667,73.22033898305085,25.943360000000002C74.23728813559322,25.893053333333334,75.2542372881356,25.818166666666666,76.27118644067797,25.75028C77.28813559322033,25.682393333333334,78.30508474576271,25.603666666666665,79.32203389830508,25.53604C80.33898305084746,25.468413333333334,81.35593220338983,25.40398,82.37288135593221,25.34452C83.38983050847457,25.285059999999998,84.40677966101696,25.22514,85.42372881355932,25.17928C86.4406779661017,25.133419999999997,87.45762711864407,25.10888,88.47457627118645,25.06936C89.49152542372882,25.02984,90.50847457627118,24.97481333333333,91.52542372881355,24.942159999999998C92.54237288135593,24.909506666666665,93.55932203389831,24.873440000000002,94.57627118644069,24.873440000000002C95.59322033898306,24.873440000000002,96.61016949152543,24.875373333333336,97.62711864406779,24.87924C98.64406779661016,24.883106666666663,99.66101694915254,24.923573333333334,100.6779661016949,24.9574C101.69491525423729,24.991226666666666,102.71186440677965,25.036939999999998,103.72881355932203,25.082199999999997C104.7457627118644,25.127459999999996,105.76271186440678,25.174113333333334,106.77966101694915,25.22896C107.79661016949153,25.283806666666667,108.8135593220339,25.347113333333333,109.83050847457628,25.41128C110.84745762711864,25.475446666666667,111.86440677966102,25.536813333333335,112.88135593220339,25.613960000000002C113.89830508474576,25.69110666666667,114.91525423728814,25.778980000000004,115.9322033898305,25.874160000000003C116.94915254237289,25.969340000000003,117.96610169491525,26.072686666666662,118.98305084745763,26.185039999999997C120,26.29739333333333,121.01694915254237,26.42274666666667,122.03389830508473,26.548280000000002C123.05084745762711,26.673813333333335,124.0677966101695,26.79928,125.08474576271188,26.93824C126.10169491525424,27.077199999999998,127.11864406779662,27.22556,128.135593220339,27.38204C129.15254237288136,27.53852,130.16949152542372,27.704486666666664,131.1864406779661,27.877119999999998C132.20338983050846,28.04975333333333,133.22033898305085,28.23714,134.23728813559322,28.41784C135.25423728813558,28.598540000000003,136.27118644067798,28.781746666666663,137.28813559322035,28.961319999999997C138.3050847457627,29.14089333333333,139.3220338983051,29.318733333333334,140.33898305084747,29.49528C141.35593220338984,29.671826666666668,142.3728813559322,29.849153333333337,143.38983050847457,30.0206C144.40677966101694,30.19204666666667,145.42372881355934,30.36066,146.4406779661017,30.52396C147.45762711864407,30.68726,148.47457627118644,30.847533333333335,149.4915254237288,31.0004C150.50847457627117,31.153266666666667,151.52542372881356,31.303193333333333,152.54237288135593,31.44116C153.5593220338983,31.579126666666667,154.5762711864407,31.702793333333332,155.59322033898306,31.8282C156.61016949152543,31.953606666666666,157.6271186440678,32.07688,158.64406779661016,32.1936C159.66101694915253,32.310320000000004,160.67796610169492,32.422760000000004,161.6949152542373,32.52852C162.71186440677965,32.63428,163.72881355932205,32.73475333333333,164.74576271186442,32.82816C165.76271186440678,32.92156666666666,166.77966101694915,33.00607333333333,167.79661016949152,33.08896C168.81355932203388,33.17184666666667,169.83050847457628,33.24837333333333,170.84745762711864,33.32548C171.864406779661,33.402586666666664,172.8813559322034,33.48106666666666,173.89830508474577,33.5516C174.91525423728814,33.62213333333334,175.93220338983053,33.68629333333333,176.9491525423729,33.74868C177.96610169491527,33.81106666666667,178.98305084745763,33.86849333333333,180,33.92592"></path><path class="axis-ceiling" stroke-width="1" stroke="black" fill="none" d="M175,0L180,0"></path><text class="axis-ceiling-label" font-family="sans-serif" text-anchor="end" font-size="10px" x="170" y="2.5">1000000</text></g></svg>