<svg xmlns="http://www.w3.org/2000/svg" viewBox="0 0 180 60"><g transform="translate(0,20)"><path class="area" fill="rgba(0, 0, 0, 0.2)" d="M0,40C1.0169491525423728,39.95057823465454,2.0338983050847457,39.901156469309086,3.0508474576271185,39.901156469309086C4.067796610169491,39.901156469309086,5.084745762711864,39.93674014035781,6.101694915254237,39.93674014035781C7.11864406779661,39.93674014035781,8.135593220338983,39.8451451352509,9.152542372881356,39.79835919739053C10.169491525423728,39.75157325953017,11.186440677966102,39.744983690817435,12.203389830508474,39.65602451319561C13.220338983050846,39.56706533557379,14.23728813559322,39.38453428223123,15.254237288135592,39.26460413165958C16.271186440677965,39.144673981087934,17.28813559322034,39.04187670916939,18.305084745762713,38.93644360976574C19.322033898305087,38.8310105103621,20.338983050847457,38.74666403083918,21.35593220338983,38.63200553523772C22.372881355932204,38.517347039636256,23.389830508474574,38.355902606174425,24.406779661016948,38.24849263615696C25.423728813559322,38.141082666139496,26.440677966101696,38.10418108134823,27.45762711864407,37.987545715132946C28.47457627118644,37.87091034891767,29.491525423728813,37.72264505288129,30.508474576271183,37.548680438865276C31.525423728813557,37.37471582484926,32.54237288135593,37.12365325689433,33.559322033898304,36.943758031036865C34.57627118644068,36.7638628051794,35.59322033898305,36.631412474053576,36.610169491525426,36.469309083720475C37.6271186440678,36.307205693387374,38.644067796610166,36.19452406839972,39.66101694915254,35.97113768903825C40.67796610169491,35.74775130967678,41.69491525423729,35.34644657507166,42.71186440677966,35.128990807551645C43.728813559322035,34.91153504003163,44.7457627118644,34.79489967381635,45.762711864406775,34.66640308391816C46.77966101694915,34.53790649401997,47.79661016949152,34.470692893150144,48.813559322033896,34.3580112681625C49.83050847457627,34.245329643174856,50.847457627118644,34.16230107739449,51.86440677966102,33.99031333399229C52.88135593220339,33.81832559059009,53.898305084745765,33.56133241079371,54.91525423728814,33.32608480774933C55.93220338983051,33.090837204704954,56.94915254237288,32.74883858851438,57.96610169491525,32.57882771572601C58.983050847457626,32.40881684293763,59.99999999999999,32.30601957101908,61.01694915254237,32.30601957101908C62.03389830508474,32.30601957101908,63.05084745762712,32.88721953148166,64.0677966101695,32.88721953148166C65.08474576271186,32.88721953148166,66.10169491525424,32.7363184079602,67.11864406779661,32.55115152713255C68.13559322033899,32.365984646304895,69.15254237288136,32.17752298112089,70.16949152542374,31.776218246515768C71.1864406779661,31.37491351191065,72.20338983050848,30.71859246812296,73.22033898305085,30.143323119501826C74.23728813559322,29.56805377088069,75.2542372881356,29.036934532634838,76.27118644067797,28.32460215478897C77.28813559322033,27.6122697769431,78.30508474576271,26.748377318704488,79.32203389830508,25.86932885242661C80.33898305084746,24.990280386148722,81.35593220338983,24.21271127804685,82.37288135593221,23.05031135712167C83.38983050847457,21.887911436196497,84.40677966101696,19.965734242693816,85.42372881355932,18.89492932687556C86.4406779661017,17.824124411057298,87.45762711864407,17.28773351784126,88.47457627118645,16.62548186221212C89.49152542372882,15.963230206582983,90.50847457627118,15.446608019505119,91.52542372881355,14.92141939310072C92.54237288135593,14.396230766696315,93.55932203389831,14.056209021119574,94.57627118644069,13.474350103785708C95.59322033898306,12.892491186451851,96.61016949152543,11.973905307897597,97.62711864406779,11.430265889097559C98.64406779661016,10.886626470297516,99.66101694915254,10.63095120424368,100.6779661016949,10.212513590985468C101.69491525423729,9.794075977727255,102.71186440677965,8.919640209548284,103.72881355932203,8.919640209548284C104.7457627118644,8.919640209548284,105.76271186440678,9.74201838489671,106.77966101694915,9.74201838489671C107.79661016949153,9.74201838489671,108.8135593220339,9.469210240189781,109.83050847457628,9.469210240189781C110.84745762711864,9.469210240189781,111.86440677966102,9.674804784026886,112.88135593220339,10.085993871701096C113.89830508474576,10.497182959375305,114.91525423728814,12.304701657276533,115.9322033898305,13.229218147672235C116.94915254237289,14.153734638067942,117.96610169491525,15.079569042206188,118.98305084745763,15.633092814075319C120,16.186616585944446,121.01694915254237,16.550360778887022,122.03389830508473,16.550360778887022C123.05084745762711,16.550360778887022,124.0677966101695,16.10029323580772,125.08474576271188,15.933577147375706C126.10169491525424,15.766861058943695,127.11864406779662,15.550064248294948,128.135593220339,15.550064248294948C129.15254237288136,15.550064248294948,130.16949152542372,15.6528615202135,131.1864406779661,15.858456064050607C132.20338983050846,16.064050607887715,133.22033898305085,17.020855984975785,134.23728813559322,17.020855984975785C135.25423728813558,17.020855984975785,136.27118644067798,15.376758591150208,137.28813559322035,14.589305129979241C138.3050847457627,13.801851668808274,139.3220338983051,12.943230865539853,140.33898305084747,12.296135217949985C141.35593220338984,11.649039570360124,142.3728813559322,11.251688576982632,143.38983050847457,10.70673124444005C144.40677966101694,10.161773911897463,145.42372881355934,9.740041514282897,146.4406779661017,9.026391222694476C147.45762711864407,8.312740931106063,148.47457627118644,7.02118546341142,149.4915254237288,6.424829494909559C150.50847457627117,5.8284735264076915,151.52542372881356,5.707225462093506,152.54237288135593,5.448255411683305C153.5593220338983,5.189285361273104,154.5762711864407,4.871009192448352,155.59322033898306,4.871009192448352C156.61016949152543,4.871009192448352,157.6271186440678,7.4528022140950885,158.64406779661016,7.69793417020856C159.66101694915253,7.943066126322035,160.67796610169492,7.888372706006395,161.6949152542373,8.065632104378771C162.71186440677965,8.242891502751148,163.72881355932205,8.297584923066788,164.74576271186442,8.76149056044282C165.76271186440678,9.225396197818847,166.77966101694915,11.187769760469184,167.79661016949152,12.521498467925273C168.81355932203388,13.855227175381376,169.83050847457628,15.344469704457842,170.84745762711864,16.7638628051794C171.864406779661,18.183255905900957,172.8813559322034,19.659319297551974,173.89830508474577,21.03785707225462C174.91525423728814,22.416394846957267,175.93220338983053,25.035089453395276,176.9491525423729,25.035089453395276C177.96610169491527,25.035089453395276,178.98305084745763,24.691113966590887,180,24.347138479786498L180,40C178.98305084745763,40,177.96610169491527,40,176.9491525423729,40C175.93220338983053,40,174.91525423728814,40,173.89830508474577,40C172.8813559322034,40,171.864406779661,40,170.84745762711864,40C169.83050847457628,40,168.81355932203388,40,167.79661016949152,40C166.77966101694915,40,165.76271186440678,40,164.74576271186442,40C163.72881355932205,40,162.71186440677965,40,161.6949152542373,40C160.67796610169492,40,159.66101694915253,40,158.64406779661016,40C157.6271186440678,40,156.61016949152543,40,155.59322033898306,40C154.5762711864407,40,153.5593220338983,40,152.54237288135593,40C151.52542372881356,40,150.50847457627117,40,149.4915254237288,40C148.47457627118644,40,147.45762711864407,40,146.4406779661017,40C145.42372881355934,40,144.40677966101694,40,143.38983050847457,40C142.3728813559322,40,141.35593220338984,40,140.33898305084747,40C139.3220338983051,40,138.3050847457627,40,137.28813559322035,40C136.27118644067798,40,135.25423728813558,40,134.23728813559322,40C133.22033898305085,40,132.20338983050846,40,131.1864406779661,40C130.16949152542372,40,129.15254237288136,40,128.135593220339,40C127.11864406779662,40,126.10169491525424,40,125.08474576271188,40C124.0677966101695,40,123.05084745762711,40,122.03389830508473,40C121.01694915254237,40,120,40,118.98305084745763,40C117.96610169491525,40,116.94915254237289,40,115.9322033898305,40C114.91525423728814,40,113.89830508474576,40,112.88135593220339,40C111.86440677966102,40,110.84745762711864,40,109.83050847457628,40C108.8135593220339,40,107.79661016949153,40,106.77966101694915,40C105.76271186440678,40,104.7457627118644,40,103.72881355932203,40C102.71186440677965,40,101.69491525423729,40,100.6779661016949,40C99.66101694915254,40,98.64406779661016,40,97.62711864406779,40C96.61016949152543,40,95.59322033898306,40,94.57627118644069,40C93.55932203389831,40,92.54237288135593,40,91.52542372881355,40C90.50847457627118,40,89.49152542372882,40,88.47457627118645,40C87.45762711864407,40,86.4406779661017,40,85.42372881355932,40C84.40677966101696,40,83.38983050847457,40,82.37288135593221,40C81.35593220338983,40,80.33898305084746,40,79.32203389830508,40C78.30508474576271,40,77.28813559322033,40,76.27118644067797,40C75.2542372881356,40,74.23728813559322,40,73.22033898305085,40C72.20338983050848,40,71.1864406779661,40,70.16949152542374,40C69.15254237288136,40,68.13559322033899,40,67.11864406779661,40C66.10169491525424,40,65.08474576271186,40,64.0677966101695,40C63.05084745762712,40,62.03389830508474,40,61.01694915254237,40C59.99999999999999,40,58.983050847457626,40,57.96610169491525,40C56.94915254237288,40,55.93220338983051,40,54.91525423728814,40C53.898305084745765,40,52.88135593220339,40,51.86440677966102,40C50.847457627118644,40,49.83050847457627,40,48.813559322033896,40C47.79661016949152,40,46.77966101694915,40,45.762711864406775,40C44.7457627118644,40,43.728813559322035,40,42.71186440677966,40C41.69491525423729,40,40.67796610169491,40,39.66101694915254,40C38.644067796610166,40,37.6271186440678,40,36.610169491525426,40C35.59322033898305,40,34.57627118644068,40,33.559322033898304,40C32.54237288135593,40,31.525423728813557,40,30.508474576271183,40C29.491525423728813,40,28.47457627118644,40,27.45762711864407,40C26.440677966101696,40,25.423728813559322,40,24.406779661016948,40C23.389830508474574,40,22.372881355932204,40,21.35593220338983,40C20.338983050847457,40,19.322033898305087,40,18.305084745762713,40C17.28813559322034,40,16.271186440677965,40,15.254237288135592,40C14.23728813559322,40,13.220338983050846,40,12.203389830508474,40C11.186440677966102,40,10.169491525423728,40,9.152542372881356,40C8.135593220338983,40,7.11864406779661,40,6.101694915254237,40C5.084745762711864,40,4.067796610169491,40,3.0508474576271185,40C2.0338983050847457,40,1.0169491525423728,40,0,40Z"></path><path class="line" stroke="black" fill="none" d="M0,40C1.0169491525423728,39.95057823465454,2.0338983050847457,39.901156469309086,3.0508474576271185,39.901156469309086C4.067796610169491,39.901156469309086,5.084745762711864,39.93674014035781,6.101694915254237,39.93674014035781C7.11864406779661,39.93674014035781,8.135593220338983,39.8451451352509,9.152542372881356,39.79835919739053C10.169491525423728,39.75157325953017,11.186440677966102,39.744983690817435,12.203389830508474,39.65602451319561C13.220338983050846,39.56706533557379,14.23728813559322,39.38453428223123,15.254237288135592,39.26460413165958C16.271186440677965,39.144673981087934,17.28813559322034,39.04187670916939,18.305084745762713,38.93644360976574C19.322033898305087,38.8310105103621,20.338983050847457,38.74666403083918,21.35593220338983,38.63200553523772C22.372881355932204,38.517347039636256,23.389830508474574,38.355902606174425,24.406779661016948,38.24849263615696C25.423728813559322,38.141082666139496,26.440677966101696,38.10418108134823,27.45762711864407,37.987545715132946C28.47457627118644,37.87091034891767,29.491525423728813,37.72264505288129,30.508474576271183,37.548680438865276C31.525423728813557,37.37471582484926,32.54237288135593,37.12365325689433,33.559322033898304,36.943758031036865C34.57627118644068,36.7638628051794,35.59322033898305,36.631412474053576,36.610169491525426,36.469309083720475C37.6271186440678,36.307205693387374,38.644067796610166,36.19452406839972,39.66101694915254,35.97113768903825C40.67796610169491,35.74775130967678,41.69491525423729,35.34644657507166,42.71186440677966,35.128990807551645C43.728813559322035,34.91153504003163,44.7457627118644,34.79489967381635,45.762711864406775,34.66640308391816C46.77966101694915,34.53790649401997,47.79661016949152,34.470692893150144,48.813559322033896,34.3580112681625C49.83050847457627,34.245329643174856,50.847457627118644,34.16230107739449,51.86440677966102,33.99031333399229C52.88135593220339,33.81832559059009,53.898305084745765,33.56133241079371,54.91525423728814,33.32608480774933C55.93220338983051,33.090837204704954,56.94915254237288,32.74883858851438,57.96610169491525,32.57882771572601C58.983050847457626,32.40881684293763,59.99999999999999,32.30601957101908,61.01694915254237,32.30601957101908C62.03389830508474,32.30601957101908,63.05084745762712,32.88721953148166,64.0677966101695,32.88721953148166C65.08474576271186,32.88721953148166,66.10169491525424,32.7363184079602,67.11864406779661,32.55115152713255C68.13559322033899,32.365984646304895,69.15254237288136,32.17752298112089,70.16949152542374,31.776218246515768C71.1864406779661,31.37491351191065,72.20338983050848,30.71859246812296,73.22033898305085,30.143323119501826C74.23728813559322,29.56805377088069,75.2542372881356,29.036934532634838,76.27118644067797,28.32460215478897C77.28813559322033,27.6122697769431,78.30508474576271,26.748377318704488,79.32203389830508,25.86932885242661C80.33898305084746,24.990280386148722,81.35593220338983,24.21271127804685,82.37288135593221,23.05031135712167C83.38983050847457,21.887911436196497,84.40677966101696,19.965734242693816,85.42372881355932,18.89492932687556C86.4406779661017,17.824124411057298,87.45762711864407,17.28773351784126,88.47457627118645,16.62548186221212C89.49152542372882,15.963230206582983,90.50847457627118,15.446608019505119,91.52542372881355,14.92141939310072C92.54237288135593,14.396230766696315,93.55932203389831,14.056209021119574,94.57627118644069,13.474350103785708C95.59322033898306,12.892491186451851,96.61016949152543,11.973905307897597,97.62711864406779,11.430265889097559C98.64406779661016,10.886626470297516,99.66101694915254,10.63095120424368,100.6779661016949,10.212513590985468C101.69491525423729,9.794075977727255,102.71186440677965,8.919640209548284,103.72881355932203,8.919640209548284C104.7457627118644,8.919640209548284,105.76271186440678,9.74201838489671,106.77966101694915,9.74201838489671C107.79661016949153,9.74201838489671,108.8135593220339,9.469210240189781,109.83050847457628,9.469210240189781C110.84745762711864,9.469210240189781,111.86440677966102,9.674804784026886,112.88135593220339,10.085993871701096C113.89830508474576,10.497182959375305,114.91525423728814,12.304701657276533,115.9322033898305,13.229218147672235C116.94915254237289,14.153734638067942,117.96610169491525,15.079569042206188,118.98305084745763,15.633092814075319C120,16.186616585944446,121.01694915254237,16.550360778887022,122.03389830508473,16.550360778887022C123.05084745762711,16.550360778887022,124.0677966101695,16.10029323580772,125.08474576271188,15.933577147375706C126.10169491525424,15.766861058943695,127.11864406779662,15.550064248294948,128.135593220339,15.550064248294948C129.15254237288136,15.550064248294948,130.16949152542372,15.6528615202135,131.1864406779661,15.858456064050607C132.20338983050846,16.064050607887715,133.22033898305085,17.020855984975785,134.23728813559322,17.020855984975785C135.25423728813558,17.020855984975785,136.27118644067798,15.376758591150208,137.28813559322035,14.589305129979241C138.3050847457627,13.801851668808274,139.3220338983051,12.943230865539853,140.33898305084747,12.296135217949985C141.35593220338984,11.649039570360124,142.3728813559322,11.251688576982632,143.38983050847457,10.70673124444005C144.40677966101694,10.161773911897463,145.42372881355934,9.740041514282897,146.4406779661017,9.026391222694476C147.45762711864407,8.312740931106063,148.47457627118644,7.02118546341142,149.4915254237288,6.424829494909559C150.50847457627117,5.8284735264076915,151.52542372881356,5.707225462093506,152.54237288135593,5.448255411683305C153.5593220338983,5.189285361273104,154.5762711864407,4.871009192448352,155.59322033898306,4.871009192448352C156.61016949152543,4.871009192448352,157.6271186440678,7.4528022140950885,158.64406779661016,7.69793417020856C159.66101694915253,7.943066126322035,160.67796610169492,7.888372706006395,161.6949152542373,8.065632104378771C162.71186440677965,8.242891502751148,163.72881355932205,8.297584923066788,164.74576271186442,8.76149056044282C165.76271186440678,9.225396197818847,166.77966101694915,11.187769760469184,167.79661016949152,12.521498467925273C168.81355932203388,13.855227175381376,169.83050847457628,15.344469704457842,170.84745762711864,16.7638628051794C171.864406779661,18.183255905900957,172.8813559322034,19.659319297551974,173.89830508474577,21.03785707225462C174.91525423728814,22.416394846957267,175.93220338983053,25.035089453395276,176.9491525423729,25.035089453395276C177.96610169491527,25.035089453395276,178.98305084745763,24.691113966590887,180,24.347138479786498"></path><path class="axis-ceiling" stroke-width="1" stroke="black" fill="none" d="M175,0L180,0"></path><text class="axis-ceiling-label" font-family="sans-serif" text-anchor="end" font-size="10px" x="170" y="2.5">10000</text></g></svg>