<svg xmlns="http://www.w3.org/2000/svg" viewBox="0 0 180 60"><g transform="translate(0,20)"><path class="area" fill="rgba(0, 0, 0, 0.2)" d="M0,33.10289914250715C1.0169491525423728,33.42364230298081,2.0338983050847457,33.74438546345447,3.0508474576271185,33.74438546345447C4.067796610169491,33.74438546345447,5.084745762711864,32.58966244725739,6.101694915254237,32.15945283789302C7.11864406779661,31.729243228528656,8.135593220338983,31.163127807268275,9.152542372881356,31.163127807268275C10.169491525423728,31.163127807268275,11.186440677966102,32.279910167415274,12.203389830508474,32.279910167415274C13.220338983050846,32.279910167415274,14.23728813559322,31.353205389955082,15.254237288135592,31.353205389955082C16.271186440677965,31.353205389955082,17.28813559322034,32.538178848509595,18.305084745762713,32.538178848509595C19.322033898305087,32.538178848509595,20.338983050847457,31.842384646794606,21.35593220338983,31.842384646794606C22.372881355932204,31.842384646794606,23.389830508474574,32.35688035933034,24.406779661016948,32.35688035933034C25.423728813559322,32.35688035933034,26.440677966101696,31.55978630733633,27.45762711864407,31.292364230298084C28.47457627118644,31.024942153259836,29.491525423728813,30.752347897100858,30.508474576271183,30.752347897100858C31.525423728813557,30.752347897100858,32.54237288135593,31.243772968558595,33.559322033898304,31.243772968558595C34.57627118644068,31.243772968558595,35.59322033898305,30.61719069007758,36.610169491525426,30.61719069007758C37.6271186440678,30.61719069007758,38.644067796610166,31.415679869334422,39.66101694915254,31.415679869334422C40.67796610169491,31.415679869334422,41.69491525423729,31.1472029399755,42.71186440677966,31.1472029399755C43.728813559322035,31.1472029399755,44.7457627118644,31.71253572886893,45.762711864406775,31.71253572886893C46.77966101694915,31.71253572886893,47.79661016949152,30.93177487409827,48.813559322033896,30.62760310330747C49.83050847457627,30.323431332516673,50.847457627118644,29.88750510412413,51.86440677966102,29.88750510412413C52.88135593220339,29.88750510412413,53.898305084745765,30.496325030624742,54.91525423728814,30.496325030624742C55.93220338983051,30.496325030624742,56.94915254237288,30.47931128351708,57.96610169491525,30.445283789301758C58.983050847457626,30.411256295086435,59.99999999999999,30.193752552062065,61.01694915254237,30.193752552062065C62.03389830508474,30.193752552062065,63.05084745762712,30.423029808084934,64.0677966101695,30.58534095549204C65.08474576271186,30.747652102899146,66.10169491525424,31.167619436504697,67.11864406779661,31.167619436504697C68.13559322033899,31.167619436504697,69.15254237288136,30.075302844698516,70.16949152542374,29.65884034299714C71.1864406779661,29.242377841295767,72.20338983050848,28.668844426296445,73.22033898305085,28.668844426296445C74.23728813559322,28.668844426296445,75.2542372881356,29.220089832584726,76.27118644067797,29.220089832584726C77.28813559322033,29.220089832584726,78.30508474576271,28.423233973050223,79.32203389830508,28.423233973050223C80.33898305084746,28.423233973050223,81.35593220338983,28.658159793112837,82.37288135593221,28.739485504287465C83.38983050847457,28.820811215462093,84.40677966101696,28.796719749557642,85.42372881355932,28.911188240098C86.4406779661017,29.025656730638357,87.45762711864407,30.034299714169048,88.47457627118645,30.034299714169048C89.49152542372882,30.034299714169048,90.50847457627118,27.361099768613037,91.52542372881355,26.40567578603512C92.54237288135593,25.450251803457185,93.55932203389831,24.301755818701515,94.57627118644069,24.301755818701515C95.59322033898306,24.301755818701515,96.61016949152543,24.541241322988974,97.62711864406779,24.541241322988974C98.64406779661016,24.541241322988974,99.66101694915254,23.714781543487142,100.6779661016949,23.714781543487142C101.69491525423729,23.714781543487142,102.71186440677965,23.80948005988839,103.72881355932203,23.870967741935484C104.7457627118644,23.932455423982578,105.76271186440678,23.941881039880222,106.77966101694915,24.083707635769702C107.79661016949153,24.225534231659182,108.8135593220339,27.20600244997958,109.83050847457628,27.20600244997958C110.84745762711864,27.20600244997958,111.86440677966102,21.06196406696611,112.88135593220339,19.293385055124542C113.89830508474576,17.524806043282975,114.91525423728814,16.594528378930175,115.9322033898305,16.594528378930175C116.94915254237289,16.594528378930175,117.96610169491525,17.020620661494487,118.98305084745763,17.020620661494487C120,17.020620661494487,121.01694915254237,16.518068599428336,122.03389830508473,16.290935075541036C123.05084745762711,16.063801551653732,124.0677966101695,15.657819518170681,125.08474576271188,15.657819518170681C126.10169491525424,15.657819518170681,127.11864406779662,16.287600381107936,128.135593220339,17.547162106982444C129.15254237288136,18.806723832856946,130.16949152542372,22.949775418538195,131.1864406779661,24.358513679052678C132.20338983050846,25.76725193956717,133.22033898305085,26.47162106982442,134.23728813559322,26.47162106982442C135.25423728813558,26.47162106982442,136.27118644067798,16.19933306111338,137.28813559322035,13.02919559003675C138.3050847457627,9.85905811896012,139.3220338983051,9.304478018238747,140.33898305084747,7.450796243364639C141.35593220338984,5.597114468490549,142.3728813559322,1.9071049407921592,143.38983050847457,1.9071049407921592C144.40677966101694,1.9071049407921592,145.42372881355934,3.4697155301483438,146.4406779661017,5.402613311555737C147.45762711864407,7.335511092963113,148.47457627118644,10.839662447257396,149.4915254237288,13.504491629236423C150.50847457627117,16.169320811215474,151.52542372881356,21.39158840342997,152.54237288135593,21.39158840342997C153.5593220338983,21.39158840342997,154.5762711864407,10.250306247447938,155.59322033898306,10.250306247447938C156.61016949152543,10.250306247447938,157.6271186440678,10.856472029399754,158.64406779661016,10.856472029399754C159.66101694915253,10.856472029399754,160.67796610169492,10.60351163740302,161.6949152542373,10.097590853409555C162.71186440677965,9.59167006941609,163.72881355932205,5.897917517354023,164.74576271186442,5.897917517354023C165.76271186440678,5.897917517354023,166.77966101694915,6.418334013883218,167.79661016949152,7.459167006941607C168.81355932203388,8.500000000000007,169.83050847457628,9.588607594936708,170.84745762711864,13.84748877092691C171.864406779661,18.106369946917113,172.8813559322034,39.661698652511234,173.89830508474577,39.661698652511234C174.91525423728814,39.661698652511234,175.93220338983053,20.47407104940792,176.9491525423729,20.47407104940792C177.96610169491527,20.47407104940792,178.98305084745763,30.23703552470396,180,40L180,40C178.98305084745763,40,177.96610169491527,40,176.9491525423729,40C175.93220338983053,40,174.91525423728814,40,173.89830508474577,40C172.8813559322034,40,171.864406779661,40,170.84745762711864,40C169.83050847457628,40,168.81355932203388,40,167.79661016949152,40C166.77966101694915,40,165.76271186440678,40,164.74576271186442,40C163.72881355932205,40,162.71186440677965,40,161.6949152542373,40C160.67796610169492,40,159.66101694915253,40,158.64406779661016,40C157.6271186440678,40,156.61016949152543,40,155.59322033898306,40C154.5762711864407,40,153.5593220338983,40,152.54237288135593,40C151.52542372881356,40,150.50847457627117,40,149.4915254237288,40C148.47457627118644,40,147.45762711864407,40,146.4406779661017,40C145.42372881355934,40,144.40677966101694,40,143.38983050847457,40C142.3728813559322,40,141.35593220338984,40,140.33898305084747,40C139.3220338983051,40,138.3050847457627,40,137.28813559322035,40C136.27118644067798,40,135.25423728813558,40,134.23728813559322,40C133.22033898305085,40,132.20338983050846,40,131.1864406779661,40C130.16949152542372,40,129.15254237288136,40,128.135593220339,40C127.11864406779662,40,126.10169491525424,40,125.08474576271188,40C124.0677966101695,40,123.05084745762711,40,122.03389830508473,40C121.01694915254237,40,120,40,118.98305084745763,40C117.96610169491525,40,116.94915254237289,40,115.9322033898305,40C114.91525423728814,40,113.89830508474576,40,112.88135593220339,40C111.86440677966102,40,110.84745762711864,40,109.83050847457628,40C108.8135593220339,40,107.79661016949153,40,106.77966101694915,40C105.76271186440678,40,104.7457627118644,40,103.72881355932203,40C102.71186440677965,40,101.69491525423729,40,100.6779661016949,40C99.66101694915254,40,98.64406779661016,40,97.62711864406779,40C96.61016949152543,40,95.59322033898306,40,94.57627118644069,40C93.55932203389831,40,92.54237288135593,40,91.52542372881355,40C90.50847457627118,40,89.49152542372882,40,88.47457627118645,40C87.45762711864407,40,86.4406779661017,40,85.42372881355932,40C84.40677966101696,40,83.38983050847457,40,82.37288135593221,40C81.35593220338983,40,80.33898305084746,40,79.32203389830508,40C78.30508474576271,40,77.28813559322033,40,76.27118644067797,40C75.2542372881356,40,74.23728813559322,40,73.22033898305085,40C72.20338983050848,40,71.1864406779661,40,70.16949152542374,40C69.15254237288136,40,68.13559322033899,40,67.11864406779661,40C66.10169491525424,40,65.08474576271186,40,64.0677966101695,40C63.05084745762712,40,62.03389830508474,40,61.01694915254237,40C59.99999999999999,40,58.983050847457626,40,57.96610169491525,40C56.94915254237288,40,55.93220338983051,40,54.91525423728814,40C53.898305084745765,40,52.88135593220339,40,51.86440677966102,40C50.847457627118644,40,49.83050847457627,40,48.813559322033896,40C47.79661016949152,40,46.77966101694915,40,45.762711864406775,40C44.7457627118644,40,43.728813559322035,40,42.71186440677966,40C41.69491525423729,40,40.67796610169491,40,39.66101694915254,40C38.644067796610166,40,37.6271186440678,40,36.610169491525426,40C35.59322033898305,40,34.57627118644068,40,33.559322033898304,40C32.54237288135593,40,31.525423728813557,40,30.508474576271183,40C29.491525423728813,40,28.47457627118644,40,27.45762711864407,40C26.440677966101696,40,25.423728813559322,40,24.406779661016948,40C23.389830508474574,40,22.372881355932204,40,21.35593220338983,40C20.338983050847457,40,19.322033898305087,40,18.305084745762713,40C17.28813559322034,40,16.271186440677965,40,15.254237288135592,40C14.23728813559322,40,13.220338983050846,40,12.203389830508474,40C11.186440677966102,40,10.169491525423728,40,9.152542372881356,40C8.135593220338983,40,7.11864406779661,40,6.101694915254237,40C5.084745762711864,40,4.067796610169491,40,3.0508474576271185,40C2.0338983050847457,40,1.0169491525423728,40,0,40Z"></path><path class="line" stroke="black" fill="none" d="M0,33.10289914250715C1.0169491525423728,33.42364230298081,2.0338983050847457,33.74438546345447,3.0508474576271185,33.74438546345447C4.067796610169491,33.74438546345447,5.084745762711864,32.58966244725739,6.101694915254237,32.15945283789302C7.11864406779661,31.729243228528656,8.135593220338983,31.163127807268275,9.152542372881356,31.163127807268275C10.169491525423728,31.163127807268275,11.186440677966102,32.279910167415274,12.203389830508474,32.279910167415274C13.220338983050846,32.279910167415274,14.23728813559322,31.353205389955082,15.254237288135592,31.353205389955082C16.271186440677965,31.353205389955082,17.28813559322034,32.538178848509595,18.305084745762713,32.538178848509595C19.322033898305087,32.538178848509595,20.338983050847457,31.842384646794606,21.35593220338983,31.842384646794606C22.372881355932204,31.842384646794606,23.389830508474574,32.35688035933034,24.406779661016948,32.35688035933034C25.423728813559322,32.35688035933034,26.440677966101696,31.55978630733633,27.45762711864407,31.292364230298084C28.47457627118644,31.024942153259836,29.491525423728813,30.752347897100858,30.508474576271183,30.752347897100858C31.525423728813557,30.752347897100858,32.54237288135593,31.243772968558595,33.559322033898304,31.243772968558595C34.57627118644068,31.243772968558595,35.59322033898305,30.61719069007758,36.610169491525426,30.61719069007758C37.6271186440678,30.61719069007758,38.644067796610166,31.415679869334422,39.66101694915254,31.415679869334422C40.67796610169491,31.415679869334422,41.69491525423729,31.1472029399755,42.71186440677966,31.1472029399755C43.728813559322035,31.1472029399755,44.7457627118644,31.71253572886893,45.762711864406775,31.71253572886893C46.77966101694915,31.71253572886893,47.79661016949152,30.93177487409827,48.813559322033896,30.62760310330747C49.83050847457627,30.323431332516673,50.847457627118644,29.88750510412413,51.86440677966102,29.88750510412413C52.88135593220339,29.88750510412413,53.898305084745765,30.496325030624742,54.91525423728814,30.496325030624742C55.93220338983051,30.496325030624742,56.94915254237288,30.47931128351708,57.96610169491525,30.445283789301758C58.983050847457626,30.411256295086435,59.99999999999999,30.193752552062065,61.01694915254237,30.193752552062065C62.03389830508474,30.193752552062065,63.05084745762712,30.423029808084934,64.0677966101695,30.58534095549204C65.08474576271186,30.747652102899146,66.10169491525424,31.167619436504697,67.11864406779661,31.167619436504697C68.13559322033899,31.167619436504697,69.15254237288136,30.075302844698516,70.16949152542374,29.65884034299714C71.1864406779661,29.242377841295767,72.20338983050848,28.668844426296445,73.22033898305085,28.668844426296445C74.23728813559322,28.668844426296445,75.2542372881356,29.220089832584726,76.27118644067797,29.220089832584726C77.28813559322033,29.220089832584726,78.30508474576271,28.423233973050223,79.32203389830508,28.423233973050223C80.33898305084746,28.423233973050223,81.35593220338983,28.658159793112837,82.37288135593221,28.739485504287465C83.38983050847457,28.820811215462093,84.40677966101696,28.796719749557642,85.42372881355932,28.911188240098C86.4406779661017,29.025656730638357,87.45762711864407,30.034299714169048,88.47457627118645,30.034299714169048C89.49152542372882,30.034299714169048,90.50847457627118,27.361099768613037,91.52542372881355,26.40567578603512C92.54237288135593,25.450251803457185,93.55932203389831,24.301755818701515,94.57627118644069,24.301755818701515C95.59322033898306,24.301755818701515,96.61016949152543,24.541241322988974,97.62711864406779,24.541241322988974C98.64406779661016,24.541241322988974,99.66101694915254,23.714781543487142,100.6779661016949,23.714781543487142C101.69491525423729,23.714781543487142,102.71186440677965,23.80948005988839,103.72881355932203,23.870967741935484C104.7457627118644,23.932455423982578,105.76271186440678,23.941881039880222,106.77966101694915,24.083707635769702C107.79661016949153,24.225534231659182,108.8135593220339,27.20600244997958,109.83050847457628,27.20600244997958C110.84745762711864,27.20600244997958,111.86440677966102,21.06196406696611,112.88135593220339,19.293385055124542C113.89830508474576,17.524806043282975,114.91525423728814,16.594528378930175,115.9322033898305,16.594528378930175C116.94915254237289,16.594528378930175,117.96610169491525,17.020620661494487,118.98305084745763,17.020620661494487C120,17.020620661494487,121.01694915254237,16.518068599428336,122.03389830508473,16.290935075541036C123.05084745762711,16.063801551653732,124.0677966101695,15.657819518170681,125.08474576271188,15.657819518170681C126.10169491525424,15.657819518170681,127.11864406779662,16.287600381107936,128.135593220339,17.547162106982444C129.15254237288136,18.806723832856946,130.16949152542372,22.949775418538195,131.1864406779661,24.358513679052678C132.20338983050846,25.76725193956717,133.22033898305085,26.47162106982442,134.23728813559322,26.47162106982442C135.25423728813558,26.47162106982442,136.27118644067798,16.19933306111338,137.28813559322035,13.02919559003675C138.3050847457627,9.85905811896012,139.3220338983051,9.304478018238747,140.33898305084747,7.450796243364639C141.35593220338984,5.597114468490549,142.3728813559322,1.9071049407921592,143.38983050847457,1.9071049407921592C144.40677966101694,1.9071049407921592,145.42372881355934,3.4697155301483438,146.4406779661017,5.402613311555737C147.45762711864407,7.335511092963113,148.47457627118644,10.839662447257396,149.4915254237288,13.504491629236423C150.50847457627117,16.169320811215474,151.52542372881356,21.39158840342997,152.54237288135593,21.39158840342997C153.5593220338983,21.39158840342997,154.5762711864407,10.250306247447938,155.59322033898306,10.250306247447938C156.61016949152543,10.250306247447938,157.6271186440678,10.856472029399754,158.64406779661016,10.856472029399754C159.66101694915253,10.856472029399754,160.67796610169492,10.60351163740302,161.6949152542373,10.097590853409555C162.71186440677965,9.59167006941609,163.72881355932205,5.897917517354023,164.74576271186442,5.897917517354023C165.76271186440678,5.897917517354023,166.77966101694915,6.418334013883218,167.79661016949152,7.459167006941607C168.81355932203388,8.500000000000007,169.83050847457628,9.588607594936708,170.84745762711864,13.84748877092691C171.864406779661,18.106369946917113,172.8813559322034,39.661698652511234,173.89830508474577,39.661698652511234C174.91525423728814,39.661698652511234,175.93220338983053,20.47407104940792,176.9491525423729,20.47407104940792C177.96610169491527,20.47407104940792,178.98305084745763,30.23703552470396,180,40"></path><path class="axis-ceiling" stroke-width="1" stroke="black" fill="none" d="M175,0L180,0"></path><text class="axis-ceiling-label" font-family="sans-serif" text-anchor="end" font-size="10px" x="170" y="2.5">150000</text></g></svg>