<svg xmlns="http://www.w3.org/2000/svg" viewBox="0 0 180 60"><g transform="translate(0,20)"><path class="area" fill="rgba(0, 0, 0, 0.2)" d="M0,20.613893376413568C1.0169491525423728,19.14253759164906,2.0338983050847457,17.671181806884555,3.0508474576271185,17.671181806884555C4.067796610169491,17.671181806884555,5.084745762711864,21.6494759951949,6.101694915254237,22.368584565676652C7.11864406779661,23.087693136158403,8.135593220338983,23.44724742139928,9.152542372881356,23.44724742139928C10.169491525423728,23.44724742139928,11.186440677966102,18.58415144360217,12.203389830508474,18.56095439294147C13.220338983050846,18.537757342280766,14.23728813559322,18.549355867611116,15.254237288135592,18.526158816950414C16.271186440677965,18.50296176628971,17.28813559322034,12.496582577358023,18.305084745762713,12.496582577358023C19.322033898305087,12.496582577358023,20.338983050847457,18.418458224597156,21.35593220338983,20.21125885423139C22.372881355932204,22.00405948386562,23.389830508474574,23.253386355163414,24.406779661016948,23.253386355163414C25.423728813559322,23.253386355163414,26.440677966101696,19.906383331262166,27.45762711864407,19.724120790356654C28.47457627118644,19.541858249451142,29.491525423728813,19.632989519903898,30.508474576271183,19.450726978998386C31.525423728813557,19.268464438092874,32.54237288135593,15.18744045399942,33.559322033898304,14.445134832856965C34.57627118644068,13.70282921171451,35.59322033898305,14.073982022285737,36.610169491525426,13.331676401143282C37.6271186440678,12.589370780000829,38.644067796610166,5.908620189718732,39.66101694915254,4.503541692556232C40.67796610169491,3.098463195393729,41.69491525423729,2.395923946812477,42.71186440677966,2.395923946812477C43.728813559322035,2.395923946812477,44.7457627118644,3.1233171782444833,45.762711864406775,4.47868770970548C46.77966101694915,5.834058241166479,47.79661016949152,9.131353299366221,48.813559322033896,10.528147135578475C49.83050847457627,11.924940971790729,50.847457627118644,12.16353920715795,51.86440677966102,12.859450726979C52.88135593220339,13.555362246800051,53.898305084745765,14.703616254504785,54.91525423728814,14.703616254504785C55.93220338983051,14.703616254504785,56.94915254237288,14.430222443146512,57.96610169491525,14.430222443146512C58.983050847457626,14.430222443146512,59.99999999999999,15.175841928669067,61.01694915254237,15.175841928669067C62.03389830508474,15.175841928669067,63.05084745762712,13.654778178203056,64.0677966101695,13.654778178203056C65.08474576271186,13.654778178203056,66.10169491525424,16.561037239550966,67.11864406779661,17.437554368087483C68.13559322033899,18.314071496624003,69.15254237288136,18.14837827761899,70.16949152542374,18.913880949422147C71.1864406779661,19.679383621225302,72.20338983050848,21.276666252433614,73.22033898305085,22.03057039890642C74.23728813559322,22.784474545379226,75.2542372881356,22.499482208690605,76.27118644067797,23.437305828258978C77.28813559322033,24.37512944782735,78.30508474576271,31.427032848680668,79.32203389830508,33.851124642723995C80.33898305084746,36.27521643676734,81.35593220338983,37.98185659251895,82.37288135593221,37.98185659251895C83.38983050847457,37.98185659251895,84.40677966101696,30.27215111221573,85.42372881355932,30.27215111221573C86.4406779661017,30.27215111221573,87.45762711864407,33.175096309183544,88.47457627118645,33.175096309183544C89.49152542372882,33.175096309183544,90.50847457627118,30.25226792593513,91.52542372881355,30.25226792593513C92.54237288135593,30.25226792593513,93.55932203389831,35.19323971666459,94.57627118644069,35.75991052566174C95.59322033898306,36.326581334658876,96.61016949152543,36.15426038689367,97.62711864406779,36.60991673915745C98.64406779661016,37.06557309142123,99.66101694915254,38.49384863924443,100.6779661016949,38.49384863924443C101.69491525423729,38.49384863924443,102.71186440677965,36.038275133590155,103.72881355932203,36.038275133590155C104.7457627118644,36.038275133590155,105.76271186440678,36.66956629799925,106.77966101694915,36.66956629799925C107.79661016949153,36.66956629799925,108.8135593220339,35.24294768236609,109.83050847457628,35.24294768236609C110.84745762711864,35.24294768236609,111.86440677966102,36.11283708214241,112.88135593220339,36.11283708214241C113.89830508474576,36.11283708214241,114.91525423728814,34.53709456940474,115.9322033898305,34.53709456940474C116.94915254237289,34.53709456940474,117.96610169491525,40,118.98305084745763,40C120,40,121.01694915254237,36.013421150739404,122.03389830508473,36.013421150739404C123.05084745762711,36.013421150739404,124.0677966101695,37.88575452549605,125.08474576271188,38.38946191127128C126.10169491525424,38.89316929704652,127.11864406779662,39.145022989934134,128.135593220339,39.145022989934134C129.15254237288136,39.145022989934134,130.16949152542372,36.76649683111719,131.1864406779661,35.859326457064746C132.20338983050846,34.9521560830123,133.22033898305085,33.702000745619486,134.23728813559322,33.702000745619486C135.25423728813558,33.702000745619486,136.27118644067798,33.899175676235444,137.28813559322035,34.16428482664347C138.3050847457627,34.42939397705149,139.3220338983051,35.2926556480676,140.33898305084747,35.2926556480676C141.35593220338984,35.2926556480676,142.3728813559322,35.05571434489043,143.38983050847457,34.5818317385361C144.40677966101694,34.107949132181766,145.42372881355934,31.330930781657763,146.4406779661017,31.330930781657763C147.45762711864407,31.330930781657763,148.47457627118644,31.47508388219212,149.4915254237288,31.47508388219212C150.50847457627117,31.47508388219212,151.52542372881356,31.33590157822791,152.54237288135593,31.057536970299495C153.5593220338983,30.779172362371078,154.5762711864407,29.780042251770844,155.59322033898306,29.780042251770844C156.61016949152543,29.780042251770844,157.6271186440678,31.036825317923864,158.64406779661016,31.405492730210014C159.66101694915253,31.774160142496168,160.67796610169492,31.601010728635927,161.6949152542373,31.992046725487757C162.71186440677965,32.38308272233959,163.72881355932205,35.2926556480676,164.74576271186442,35.2926556480676C165.76271186440678,35.2926556480676,166.77966101694915,29.108984714800542,167.79661016949152,28.920094445134833C168.81355932203388,28.73120417546912,169.83050847457628,28.7800836750756,170.84745762711864,28.636759040636264C171.864406779661,28.49343440619693,172.8813559322034,28.066774367259022,173.89830508474577,28.06014663849882C174.91525423728814,28.05351890973862,175.93220338983053,28.05683277411872,176.9491525423729,28.05020504535852C177.96610169491527,28.04357731659832,178.98305084745763,25.956671223230188,180,23.86976512986206L180,40C178.98305084745763,40,177.96610169491527,40,176.9491525423729,40C175.93220338983053,40,174.91525423728814,40,173.89830508474577,40C172.8813559322034,40,171.864406779661,40,170.84745762711864,40C169.83050847457628,40,168.81355932203388,40,167.79661016949152,40C166.77966101694915,40,165.76271186440678,40,164.74576271186442,40C163.72881355932205,40,162.71186440677965,40,161.6949152542373,40C160.67796610169492,40,159.66101694915253,40,158.64406779661016,40C157.6271186440678,40,156.61016949152543,40,155.59322033898306,40C154.5762711864407,40,153.5593220338983,40,152.54237288135593,40C151.52542372881356,40,150.50847457627117,40,149.4915254237288,40C148.47457627118644,40,147.45762711864407,40,146.4406779661017,40C145.42372881355934,40,144.40677966101694,40,143.38983050847457,40C142.3728813559322,40,141.35593220338984,40,140.33898305084747,40C139.3220338983051,40,138.3050847457627,40,137.28813559322035,40C136.27118644067798,40,135.25423728813558,40,134.23728813559322,40C133.22033898305085,40,132.20338983050846,40,131.1864406779661,40C130.16949152542372,40,129.15254237288136,40,128.135593220339,40C127.11864406779662,40,126.10169491525424,40,125.08474576271188,40C124.0677966101695,40,123.05084745762711,40,122.03389830508473,40C121.01694915254237,40,120,40,118.98305084745763,40C117.96610169491525,40,116.94915254237289,40,115.9322033898305,40C114.91525423728814,40,113.89830508474576,40,112.88135593220339,40C111.86440677966102,40,110.84745762711864,40,109.83050847457628,40C108.8135593220339,40,107.79661016949153,40,106.77966101694915,40C105.76271186440678,40,104.7457627118644,40,103.72881355932203,40C102.71186440677965,40,101.69491525423729,40,100.6779661016949,40C99.66101694915254,40,98.64406779661016,40,97.62711864406779,40C96.61016949152543,40,95.59322033898306,40,94.57627118644069,40C93.55932203389831,40,92.54237288135593,40,91.52542372881355,40C90.50847457627118,40,89.49152542372882,40,88.47457627118645,40C87.45762711864407,40,86.4406779661017,40,85.42372881355932,40C84.40677966101696,40,83.38983050847457,40,82.37288135593221,40C81.35593220338983,40,80.33898305084746,40,79.32203389830508,40C78.30508474576271,40,77.28813559322033,40,76.27118644067797,40C75.2542372881356,40,74.23728813559322,40,73.22033898305085,40C72.20338983050848,40,71.1864406779661,40,70.16949152542374,40C69.15254237288136,40,68.13559322033899,40,67.11864406779661,40C66.10169491525424,40,65.08474576271186,40,64.0677966101695,40C63.05084745762712,40,62.03389830508474,40,61.01694915254237,40C59.99999999999999,40,58.983050847457626,40,57.96610169491525,40C56.94915254237288,40,55.93220338983051,40,54.91525423728814,40C53.898305084745765,40,52.88135593220339,40,51.86440677966102,40C50.847457627118644,40,49.83050847457627,40,48.813559322033896,40C47.79661016949152,40,46.77966101694915,40,45.762711864406775,40C44.7457627118644,40,43.728813559322035,40,42.71186440677966,40C41.69491525423729,40,40.67796610169491,40,39.66101694915254,40C38.644067796610166,40,37.6271186440678,40,36.610169491525426,40C35.59322033898305,40,34.57627118644068,40,33.559322033898304,40C32.54237288135593,40,31.525423728813557,40,30.508474576271183,40C29.491525423728813,40,28.47457627118644,40,27.45762711864407,40C26.440677966101696,40,25.423728813559322,40,24.406779661016948,40C23.389830508474574,40,22.372881355932204,40,21.35593220338983,40C20.338983050847457,40,19.322033898305087,40,18.305084745762713,40C17.28813559322034,40,16.271186440677965,40,15.254237288135592,40C14.23728813559322,40,13.220338983050846,40,12.203389830508474,40C11.186440677966102,40,10.169491525423728,40,9.152542372881356,40C8.135593220338983,40,7.11864406779661,40,6.101694915254237,40C5.084745762711864,40,4.067796610169491,40,3.0508474576271185,40C2.0338983050847457,40,1.0169491525423728,40,0,40Z"></path><path class="line" stroke="black" fill="none" d="M0,20.613893376413568C1.0169491525423728,19.14253759164906,2.0338983050847457,17.671181806884555,3.0508474576271185,17.671181806884555C4.067796610169491,17.671181806884555,5.084745762711864,21.6494759951949,6.101694915254237,22.368584565676652C7.11864406779661,23.087693136158403,8.135593220338983,23.44724742139928,9.152542372881356,23.44724742139928C10.169491525423728,23.44724742139928,11.186440677966102,18.58415144360217,12.203389830508474,18.56095439294147C13.220338983050846,18.537757342280766,14.23728813559322,18.549355867611116,15.254237288135592,18.526158816950414C16.271186440677965,18.50296176628971,17.28813559322034,12.496582577358023,18.305084745762713,12.496582577358023C19.322033898305087,12.496582577358023,20.338983050847457,18.418458224597156,21.35593220338983,20.21125885423139C22.372881355932204,22.00405948386562,23.389830508474574,23.253386355163414,24.406779661016948,23.253386355163414C25.423728813559322,23.253386355163414,26.440677966101696,19.906383331262166,27.45762711864407,19.724120790356654C28.47457627118644,19.541858249451142,29.491525423728813,19.632989519903898,30.508474576271183,19.450726978998386C31.525423728813557,19.268464438092874,32.54237288135593,15.18744045399942,33.559322033898304,14.445134832856965C34.57627118644068,13.70282921171451,35.59322033898305,14.073982022285737,36.610169491525426,13.331676401143282C37.6271186440678,12.589370780000829,38.644067796610166,5.908620189718732,39.66101694915254,4.503541692556232C40.67796610169491,3.098463195393729,41.69491525423729,2.395923946812477,42.71186440677966,2.395923946812477C43.728813559322035,2.395923946812477,44.7457627118644,3.1233171782444833,45.762711864406775,4.47868770970548C46.77966101694915,5.834058241166479,47.79661016949152,9.131353299366221,48.813559322033896,10.528147135578475C49.83050847457627,11.924940971790729,50.847457627118644,12.16353920715795,51.86440677966102,12.859450726979C52.88135593220339,13.555362246800051,53.898305084745765,14.703616254504785,54.91525423728814,14.703616254504785C55.93220338983051,14.703616254504785,56.94915254237288,14.430222443146512,57.96610169491525,14.430222443146512C58.983050847457626,14.430222443146512,59.99999999999999,15.175841928669067,61.01694915254237,15.175841928669067C62.03389830508474,15.175841928669067,63.05084745762712,13.654778178203056,64.0677966101695,13.654778178203056C65.08474576271186,13.654778178203056,66.10169491525424,16.561037239550966,67.11864406779661,17.437554368087483C68.13559322033899,18.314071496624003,69.15254237288136,18.14837827761899,70.16949152542374,18.913880949422147C71.1864406779661,19.679383621225302,72.20338983050848,21.276666252433614,73.22033898305085,22.03057039890642C74.23728813559322,22.784474545379226,75.2542372881356,22.499482208690605,76.27118644067797,23.437305828258978C77.28813559322033,24.37512944782735,78.30508474576271,31.427032848680668,79.32203389830508,33.851124642723995C80.33898305084746,36.27521643676734,81.35593220338983,37.98185659251895,82.37288135593221,37.98185659251895C83.38983050847457,37.98185659251895,84.40677966101696,30.27215111221573,85.42372881355932,30.27215111221573C86.4406779661017,30.27215111221573,87.45762711864407,33.175096309183544,88.47457627118645,33.175096309183544C89.49152542372882,33.175096309183544,90.50847457627118,30.25226792593513,91.52542372881355,30.25226792593513C92.54237288135593,30.25226792593513,93.55932203389831,35.19323971666459,94.57627118644069,35.75991052566174C95.59322033898306,36.326581334658876,96.61016949152543,36.15426038689367,97.62711864406779,36.60991673915745C98.64406779661016,37.06557309142123,99.66101694915254,38.49384863924443,100.6779661016949,38.49384863924443C101.69491525423729,38.49384863924443,102.71186440677965,36.038275133590155,103.72881355932203,36.038275133590155C104.7457627118644,36.038275133590155,105.76271186440678,36.66956629799925,106.77966101694915,36.66956629799925C107.79661016949153,36.66956629799925,108.8135593220339,35.24294768236609,109.83050847457628,35.24294768236609C110.84745762711864,35.24294768236609,111.86440677966102,36.11283708214241,112.88135593220339,36.11283708214241C113.89830508474576,36.11283708214241,114.91525423728814,34.53709456940474,115.9322033898305,34.53709456940474C116.94915254237289,34.53709456940474,117.96610169491525,40,118.98305084745763,40C120,40,121.01694915254237,36.013421150739404,122.03389830508473,36.013421150739404C123.05084745762711,36.013421150739404,124.0677966101695,37.88575452549605,125.08474576271188,38.38946191127128C126.10169491525424,38.89316929704652,127.11864406779662,39.145022989934134,128.135593220339,39.145022989934134C129.15254237288136,39.145022989934134,130.16949152542372,36.76649683111719,131.1864406779661,35.859326457064746C132.20338983050846,34.9521560830123,133.22033898305085,33.702000745619486,134.23728813559322,33.702000745619486C135.25423728813558,33.702000745619486,136.27118644067798,33.899175676235444,137.28813559322035,34.16428482664347C138.3050847457627,34.42939397705149,139.3220338983051,35.2926556480676,140.33898305084747,35.2926556480676C141.35593220338984,35.2926556480676,142.3728813559322,35.05571434489043,143.38983050847457,34.5818317385361C144.40677966101694,34.107949132181766,145.42372881355934,31.330930781657763,146.4406779661017,31.330930781657763C147.45762711864407,31.330930781657763,148.47457627118644,31.47508388219212,149.4915254237288,31.47508388219212C150.50847457627117,31.47508388219212,151.52542372881356,31.33590157822791,152.54237288135593,31.057536970299495C153.5593220338983,30.779172362371078,154.5762711864407,29.780042251770844,155.59322033898306,29.780042251770844C156.61016949152543,29.780042251770844,157.6271186440678,31.036825317923864,158.64406779661016,31.405492730210014C159.66101694915253,31.774160142496168,160.67796610169492,31.601010728635927,161.6949152542373,31.992046725487757C162.71186440677965,32.38308272233959,163.72881355932205,35.2926556480676,164.74576271186442,35.2926556480676C165.76271186440678,35.2926556480676,166.77966101694915,29.108984714800542,167.79661016949152,28.920094445134833C168.81355932203388,28.73120417546912,169.83050847457628,28.7800836750756,170.84745762711864,28.636759040636264C171.864406779661,28.49343440619693,172.8813559322034,28.066774367259022,173.89830508474577,28.06014663849882C174.91525423728814,28.05351890973862,175.93220338983053,28.05683277411872,176.9491525423729,28.05020504535852C177.96610169491527,28.04357731659832,178.98305084745763,25.956671223230188,180,23.86976512986206"></path><path class="axis-ceiling" stroke-width="1" stroke="black" fill="none" d="M175,0L180,0"></path><text class="axis-ceiling-label" font-family="sans-serif" text-anchor="end" font-size="10px" x="170" y="2.5">5000</text></g></svg>