<svg xmlns="http://www.w3.org/2000/svg" viewBox="0 0 180 60"><g transform="translate(0,20)"><path class="area" fill="rgba(0, 0, 0, 0.2)" d="M0,20.299850074962514C1.0169491525423728,20.38980509745127,2.0338983050847457,20.47976011994003,3.0508474576271185,20.839580209895054C4.067796610169491,21.19940029985008,5.084745762711864,27.10644677661169,6.101694915254237,27.10644677661169C7.11864406779661,27.10644677661169,8.135593220338983,23.898050974512746,9.152542372881356,23.898050974512746C10.169491525423728,23.898050974512746,11.186440677966102,26.146926536731634,12.203389830508474,26.146926536731634C13.220338983050846,26.146926536731634,14.23728813559322,23.35832083958021,15.254237288135592,23.35832083958021C16.271186440677965,23.35832083958021,17.28813559322034,23.67816091954023,18.305084745762713,24.317841079460266C19.322033898305087,24.957521239380302,20.338983050847457,30.37481259370315,21.35593220338983,30.37481259370315C22.372881355932204,30.37481259370315,23.389830508474574,22.398800599700145,24.406779661016948,22.038980509745127C25.423728813559322,21.679160419790108,26.440677966101696,21.499250374812597,27.45762711864407,21.499250374812597C28.47457627118644,21.499250374812597,29.491525423728813,26.956521739130434,30.508474576271183,26.956521739130434C31.525423728813557,26.956521739130434,32.54237288135593,15.892053973013493,33.559322033898304,15.892053973013493C34.57627118644068,15.892053973013493,35.59322033898305,28.425787106446776,36.610169491525426,28.425787106446776C37.6271186440678,28.425787106446776,38.644067796610166,24.677661169415295,39.66101694915254,24.677661169415295C40.67796610169491,24.677661169415295,41.69491525423729,28.15592203898051,42.71186440677966,28.15592203898051C43.728813559322035,28.15592203898051,44.7457627118644,20.659670164917546,45.762711864406775,20.59970014992504C46.77966101694915,20.539730134932537,47.79661016949152,20.509745127436283,48.813559322033896,20.509745127436283C49.83050847457627,20.509745127436283,50.847457627118644,21.649175412293854,51.86440677966102,22.338830584707647C52.88135593220339,23.02848575712144,53.898305084745765,24.647676161919037,54.91525423728814,24.647676161919037C55.93220338983051,24.647676161919037,56.94915254237288,16.0119940029985,57.96610169491525,16.0119940029985C58.983050847457626,16.0119940029985,59.99999999999999,18.590704647676162,61.01694915254237,18.590704647676162C62.03389830508474,18.590704647676162,63.05084745762712,16.701649175412292,64.0677966101695,16.701649175412292C65.08474576271186,16.701649175412292,66.10169491525424,20.569715142428784,67.11864406779661,20.569715142428784C68.13559322033899,20.569715142428784,69.15254237288136,19.54022988505747,70.16949152542374,17.481259370314845C71.1864406779661,15.422288855572228,72.20338983050848,3.568215892053974,73.22033898305085,3.568215892053974C74.23728813559322,3.568215892053974,75.2542372881356,33.253373313343324,76.27118644067797,33.253373313343324C77.28813559322033,33.253373313343324,78.30508474576271,9.535232383808093,79.32203389830508,9.535232383808093C80.33898305084746,9.535232383808093,81.35593220338983,30.164917541229386,82.37288135593221,30.164917541229386C83.38983050847457,30.164917541229386,84.40677966101696,15.142428785607196,85.42372881355932,15.142428785607196C86.4406779661017,15.142428785607196,87.45762711864407,16.62168915542229,88.47457627118645,16.821589205397302C89.49152542372882,17.021489255372312,90.50847457627118,17.12143928035982,91.52542372881355,17.12143928035982C92.54237288135593,17.12143928035982,93.55932203389831,12.563718140929536,94.57627118644069,12.563718140929536C95.59322033898306,12.563718140929536,96.61016949152543,18.560719640179908,97.62711864406779,18.560719640179908C98.64406779661016,18.560719640179908,99.66101694915254,17.481259370314845,100.6779661016949,17.481259370314845C101.69491525423729,17.481259370314845,102.71186440677965,40,103.72881355932203,40C104.7457627118644,40,105.76271186440678,2.2188905547226367,106.77966101694915,2.2188905547226367C107.79661016949153,2.2188905547226367,108.8135593220339,12.183908045976999,109.83050847457628,14.302848575712144C110.84745762711864,16.421789105447278,111.86440677966102,17.481259370314845,112.88135593220339,17.481259370314845C113.89830508474576,17.481259370314845,114.91525423728814,13.403298350824588,115.9322033898305,13.403298350824588C116.94915254237289,13.403298350824588,117.96610169491525,14.872563718140928,118.98305084745763,14.872563718140928C120,14.872563718140928,121.01694915254237,13.103448275862068,122.03389830508473,13.103448275862068C123.05084745762711,13.103448275862068,124.0677966101695,17.93103448275862,125.08474576271188,17.93103448275862C126.10169491525424,17.93103448275862,127.11864406779662,15.53223388305847,128.135593220339,15.53223388305847C129.15254237288136,15.53223388305847,130.16949152542372,18.23088455772114,131.1864406779661,18.23088455772114C132.20338983050846,18.23088455772114,133.22033898305085,16.226886556721638,134.23728813559322,15.53223388305847C135.25423728813558,14.837581209395301,136.27118644067798,14.062968515742128,137.28813559322035,14.062968515742128C138.3050847457627,14.062968515742128,139.3220338983051,18.11094452773613,140.33898305084747,18.11094452773613C141.35593220338984,18.11094452773613,142.3728813559322,13.153423288355816,143.38983050847457,12.773613193403296C144.40677966101694,12.393803098450773,145.42372881355934,12.203898050974512,146.4406779661017,12.203898050974512C147.45762711864407,12.203898050974512,148.47457627118644,12.723638180909552,149.4915254237288,13.343328335832085C150.50847457627117,13.963018490754624,151.52542372881356,15.922038980509745,152.54237288135593,15.922038980509745C153.5593220338983,15.922038980509745,154.5762711864407,15.482258870564717,155.59322033898306,15.442278860569715C156.61016949152543,15.402298850574715,157.6271186440678,15.422288855572214,158.64406779661016,15.382308845577214C159.66101694915253,15.342328835582212,160.67796610169492,15.06246876561719,161.6949152542373,14.872563718140928C162.71186440677965,14.682658670664665,163.72881355932205,14.24287856071964,164.74576271186442,14.24287856071964C165.76271186440678,14.24287856071964,166.77966101694915,14.482758620689653,167.79661016949152,14.482758620689653C168.81355932203388,14.482758620689653,169.83050847457628,13.883058470764617,170.84745762711864,13.883058470764617C171.864406779661,13.883058470764617,172.8813559322034,14.952523738130937,173.89830508474577,15.832083958020991C174.91525423728814,16.711644177911047,175.93220338983053,19.160419790104946,176.9491525423729,19.160419790104946C177.96610169491527,19.160419790104946,178.98305084745763,9.985007496251875,180,0.8095952023988007L180,40C178.98305084745763,40,177.96610169491527,40,176.9491525423729,40C175.93220338983053,40,174.91525423728814,40,173.89830508474577,40C172.8813559322034,40,171.864406779661,40,170.84745762711864,40C169.83050847457628,40,168.81355932203388,40,167.79661016949152,40C166.77966101694915,40,165.76271186440678,40,164.74576271186442,40C163.72881355932205,40,162.71186440677965,40,161.6949152542373,40C160.67796610169492,40,159.66101694915253,40,158.64406779661016,40C157.6271186440678,40,156.61016949152543,40,155.59322033898306,40C154.5762711864407,40,153.5593220338983,40,152.54237288135593,40C151.52542372881356,40,150.50847457627117,40,149.4915254237288,40C148.47457627118644,40,147.45762711864407,40,146.4406779661017,40C145.42372881355934,40,144.40677966101694,40,143.38983050847457,40C142.3728813559322,40,141.35593220338984,40,140.33898305084747,40C139.3220338983051,40,138.3050847457627,40,137.28813559322035,40C136.27118644067798,40,135.25423728813558,40,134.23728813559322,40C133.22033898305085,40,132.20338983050846,40,131.1864406779661,40C130.16949152542372,40,129.15254237288136,40,128.135593220339,40C127.11864406779662,40,126.10169491525424,40,125.08474576271188,40C124.0677966101695,40,123.05084745762711,40,122.03389830508473,40C121.01694915254237,40,120,40,118.98305084745763,40C117.96610169491525,40,116.94915254237289,40,115.9322033898305,40C114.91525423728814,40,113.89830508474576,40,112.88135593220339,40C111.86440677966102,40,110.84745762711864,40,109.83050847457628,40C108.8135593220339,40,107.79661016949153,40,106.77966101694915,40C105.76271186440678,40,104.7457627118644,40,103.72881355932203,40C102.71186440677965,40,101.69491525423729,40,100.6779661016949,40C99.66101694915254,40,98.64406779661016,40,97.62711864406779,40C96.61016949152543,40,95.59322033898306,40,94.57627118644069,40C93.55932203389831,40,92.54237288135593,40,91.52542372881355,40C90.50847457627118,40,89.49152542372882,40,88.47457627118645,40C87.45762711864407,40,86.4406779661017,40,85.42372881355932,40C84.40677966101696,40,83.38983050847457,40,82.37288135593221,40C81.35593220338983,40,80.33898305084746,40,79.32203389830508,40C78.30508474576271,40,77.28813559322033,40,76.27118644067797,40C75.2542372881356,40,74.23728813559322,40,73.22033898305085,40C72.20338983050848,40,71.1864406779661,40,70.16949152542374,40C69.15254237288136,40,68.13559322033899,40,67.11864406779661,40C66.10169491525424,40,65.08474576271186,40,64.0677966101695,40C63.05084745762712,40,62.03389830508474,40,61.01694915254237,40C59.99999999999999,40,58.983050847457626,40,57.96610169491525,40C56.94915254237288,40,55.93220338983051,40,54.91525423728814,40C53.898305084745765,40,52.88135593220339,40,51.86440677966102,40C50.847457627118644,40,49.83050847457627,40,48.813559322033896,40C47.79661016949152,40,46.77966101694915,40,45.762711864406775,40C44.7457627118644,40,43.728813559322035,40,42.71186440677966,40C41.69491525423729,40,40.67796610169491,40,39.66101694915254,40C38.644067796610166,40,37.6271186440678,40,36.610169491525426,40C35.59322033898305,40,34.57627118644068,40,33.559322033898304,40C32.54237288135593,40,31.525423728813557,40,30.508474576271183,40C29.491525423728813,40,28.47457627118644,40,27.45762711864407,40C26.440677966101696,40,25.423728813559322,40,24.406779661016948,40C23.389830508474574,40,22.372881355932204,40,21.35593220338983,40C20.338983050847457,40,19.322033898305087,40,18.305084745762713,40C17.28813559322034,40,16.271186440677965,40,15.254237288135592,40C14.23728813559322,40,13.220338983050846,40,12.203389830508474,40C11.186440677966102,40,10.169491525423728,40,9.152542372881356,40C8.135593220338983,40,7.11864406779661,40,6.101694915254237,40C5.084745762711864,40,4.067796610169491,40,3.0508474576271185,40C2.0338983050847457,40,1.0169491525423728,40,0,40Z"></path><path class="line" stroke="black" fill="none" d="M0,20.299850074962514C1.0169491525423728,20.38980509745127,2.0338983050847457,20.47976011994003,3.0508474576271185,20.839580209895054C4.067796610169491,21.19940029985008,5.084745762711864,27.10644677661169,6.101694915254237,27.10644677661169C7.11864406779661,27.10644677661169,8.135593220338983,23.898050974512746,9.152542372881356,23.898050974512746C10.169491525423728,23.898050974512746,11.186440677966102,26.146926536731634,12.203389830508474,26.146926536731634C13.220338983050846,26.146926536731634,14.23728813559322,23.35832083958021,15.254237288135592,23.35832083958021C16.271186440677965,23.35832083958021,17.28813559322034,23.67816091954023,18.305084745762713,24.317841079460266C19.322033898305087,24.957521239380302,20.338983050847457,30.37481259370315,21.35593220338983,30.37481259370315C22.372881355932204,30.37481259370315,23.389830508474574,22.398800599700145,24.406779661016948,22.038980509745127C25.423728813559322,21.679160419790108,26.440677966101696,21.499250374812597,27.45762711864407,21.499250374812597C28.47457627118644,21.499250374812597,29.491525423728813,26.956521739130434,30.508474576271183,26.956521739130434C31.525423728813557,26.956521739130434,32.54237288135593,15.892053973013493,33.559322033898304,15.892053973013493C34.57627118644068,15.892053973013493,35.59322033898305,28.425787106446776,36.610169491525426,28.425787106446776C37.6271186440678,28.425787106446776,38.644067796610166,24.677661169415295,39.66101694915254,24.677661169415295C40.67796610169491,24.677661169415295,41.69491525423729,28.15592203898051,42.71186440677966,28.15592203898051C43.728813559322035,28.15592203898051,44.7457627118644,20.659670164917546,45.762711864406775,20.59970014992504C46.77966101694915,20.539730134932537,47.79661016949152,20.509745127436283,48.813559322033896,20.509745127436283C49.83050847457627,20.509745127436283,50.847457627118644,21.649175412293854,51.86440677966102,22.338830584707647C52.88135593220339,23.02848575712144,53.898305084745765,24.647676161919037,54.91525423728814,24.647676161919037C55.93220338983051,24.647676161919037,56.94915254237288,16.0119940029985,57.96610169491525,16.0119940029985C58.983050847457626,16.0119940029985,59.99999999999999,18.590704647676162,61.01694915254237,18.590704647676162C62.03389830508474,18.590704647676162,63.05084745762712,16.701649175412292,64.0677966101695,16.701649175412292C65.08474576271186,16.701649175412292,66.10169491525424,20.569715142428784,67.11864406779661,20.569715142428784C68.13559322033899,20.569715142428784,69.15254237288136,19.54022988505747,70.16949152542374,17.481259370314845C71.1864406779661,15.422288855572228,72.20338983050848,3.568215892053974,73.22033898305085,3.568215892053974C74.23728813559322,3.568215892053974,75.2542372881356,33.253373313343324,76.27118644067797,33.253373313343324C77.28813559322033,33.253373313343324,78.30508474576271,9.535232383808093,79.32203389830508,9.535232383808093C80.33898305084746,9.535232383808093,81.35593220338983,30.164917541229386,82.37288135593221,30.164917541229386C83.38983050847457,30.164917541229386,84.40677966101696,15.142428785607196,85.42372881355932,15.142428785607196C86.4406779661017,15.142428785607196,87.45762711864407,16.62168915542229,88.47457627118645,16.821589205397302C89.49152542372882,17.021489255372312,90.50847457627118,17.12143928035982,91.52542372881355,17.12143928035982C92.54237288135593,17.12143928035982,93.55932203389831,12.563718140929536,94.57627118644069,12.563718140929536C95.59322033898306,12.563718140929536,96.61016949152543,18.560719640179908,97.62711864406779,18.560719640179908C98.64406779661016,18.560719640179908,99.66101694915254,17.481259370314845,100.6779661016949,17.481259370314845C101.69491525423729,17.481259370314845,102.71186440677965,40,103.72881355932203,40C104.7457627118644,40,105.76271186440678,2.2188905547226367,106.77966101694915,2.2188905547226367C107.79661016949153,2.2188905547226367,108.8135593220339,12.183908045976999,109.83050847457628,14.302848575712144C110.84745762711864,16.421789105447278,111.86440677966102,17.481259370314845,112.88135593220339,17.481259370314845C113.89830508474576,17.481259370314845,114.91525423728814,13.403298350824588,115.9322033898305,13.403298350824588C116.94915254237289,13.403298350824588,117.96610169491525,14.872563718140928,118.98305084745763,14.872563718140928C120,14.872563718140928,121.01694915254237,13.103448275862068,122.03389830508473,13.103448275862068C123.05084745762711,13.103448275862068,124.0677966101695,17.93103448275862,125.08474576271188,17.93103448275862C126.10169491525424,17.93103448275862,127.11864406779662,15.53223388305847,128.135593220339,15.53223388305847C129.15254237288136,15.53223388305847,130.16949152542372,18.23088455772114,131.1864406779661,18.23088455772114C132.20338983050846,18.23088455772114,133.22033898305085,16.226886556721638,134.23728813559322,15.53223388305847C135.25423728813558,14.837581209395301,136.27118644067798,14.062968515742128,137.28813559322035,14.062968515742128C138.3050847457627,14.062968515742128,139.3220338983051,18.11094452773613,140.33898305084747,18.11094452773613C141.35593220338984,18.11094452773613,142.3728813559322,13.153423288355816,143.38983050847457,12.773613193403296C144.40677966101694,12.393803098450773,145.42372881355934,12.203898050974512,146.4406779661017,12.203898050974512C147.45762711864407,12.203898050974512,148.47457627118644,12.723638180909552,149.4915254237288,13.343328335832085C150.50847457627117,13.963018490754624,151.52542372881356,15.922038980509745,152.54237288135593,15.922038980509745C153.5593220338983,15.922038980509745,154.5762711864407,15.482258870564717,155.59322033898306,15.442278860569715C156.61016949152543,15.402298850574715,157.6271186440678,15.422288855572214,158.64406779661016,15.382308845577214C159.66101694915253,15.342328835582212,160.67796610169492,15.06246876561719,161.6949152542373,14.872563718140928C162.71186440677965,14.682658670664665,163.72881355932205,14.24287856071964,164.74576271186442,14.24287856071964C165.76271186440678,14.24287856071964,166.77966101694915,14.482758620689653,167.79661016949152,14.482758620689653C168.81355932203388,14.482758620689653,169.83050847457628,13.883058470764617,170.84745762711864,13.883058470764617C171.864406779661,13.883058470764617,172.8813559322034,14.952523738130937,173.89830508474577,15.832083958020991C174.91525423728814,16.711644177911047,175.93220338983053,19.160419790104946,176.9491525423729,19.160419790104946C177.96610169491527,19.160419790104946,178.98305084745763,9.985007496251875,180,0.8095952023988007"></path><path class="axis-ceiling" stroke-width="1" stroke="black" fill="none" d="M175,0L180,0"></path><text class="axis-ceiling-label" font-family="sans-serif" text-anchor="end" font-size="10px" x="170" y="2.5">500</text></g></svg>