<svg xmlns="http://www.w3.org/2000/svg" viewBox="0 0 180 60"><g transform="translate(0,20)"><path class="area" fill="rgba(0, 0, 0, 0.2)" d="M0,15.588785046728972C1.0169491525423728,15.532710280373832,2.0338983050847457,15.476635514018692,3.0508474576271185,15.252336448598133C4.067796610169491,15.028037383177573,5.084745762711864,14.548286604361373,6.101694915254237,14.24299065420561C7.11864406779661,13.937694704049846,8.135593220338983,13.73208722741433,9.152542372881356,13.420560747663552C10.169491525423728,13.109034267912774,11.186440677966102,12.772585669781932,12.203389830508474,12.373831775700936C13.220338983050846,11.975077881619939,14.23728813559322,11.376947040498441,15.254237288135592,11.028037383177569C16.271186440677965,10.679127725856697,17.28813559322034,10.554517133956384,18.305084745762713,10.2803738317757C19.322033898305087,10.006230529595015,20.338983050847457,9.66355140186916,21.35593220338983,9.383177570093459C22.372881355932204,9.102803738317757,23.389830508474574,8.80373831775701,24.406779661016948,8.598130841121495C25.423728813559322,8.392523364485982,26.440677966101696,8.448598130841122,27.45762711864407,8.149532710280374C28.47457627118644,7.850467289719627,29.491525423728813,7.140186915887849,30.508474576271183,6.5794392523364476C31.525423728813557,6.018691588785045,32.54237288135593,5.333333333333333,33.559322033898304,4.785046728971962C34.57627118644068,4.2367601246105915,35.59322033898305,3.781931464174455,36.610169491525426,3.2897196261682238C37.6271186440678,2.797507788161994,38.644067796610166,2.261682242990654,39.66101694915254,1.8317757009345792C40.67796610169491,1.4018691588785037,41.69491525423729,0.8598130841121483,42.71186440677966,0.7102803738317753C43.728813559322035,0.5607476635514027,44.7457627118644,0.604361370716512,45.762711864406775,0.48598130841121634C46.77966101694915,0.36760124610592043,47.79661016949152,0,48.813559322033896,0C49.83050847457627,0,50.847457627118644,0.0685358255451692,51.86440677966102,0.1869158878504651C52.88135593220339,0.305295950155761,53.898305084745765,0.5046728971962607,54.91525423728814,0.7102803738317753C55.93220338983051,0.9158878504672894,56.94915254237288,1.239875389408099,57.96610169491525,1.4205607476635507C58.983050847457626,1.6012461059190024,59.99999999999999,1.5451713395638622,61.01694915254237,1.7943925233644853C62.03389830508474,2.0436137071651097,63.05084745762712,4.41121495327103,64.0677966101695,4.560747663551403C65.08474576271186,4.710280373831776,66.10169491525424,4.635514018691589,67.11864406779661,4.785046728971962C68.13559322033899,4.934579439252335,69.15254237288136,6.8411214953271,70.16949152542374,7.364485981308411C71.1864406779661,7.887850467289719,72.20338983050848,7.626168224299065,73.22033898305085,8.149532710280374C74.23728813559322,8.672897196261683,75.2542372881356,10.043613707165111,76.27118644067797,10.542056074766357C77.28813559322033,11.040498442367603,78.30508474576271,10.86604361370717,79.32203389830508,11.289719626168226C80.33898305084746,11.713395638629285,81.35593220338983,13.08411214953271,82.37288135593221,13.08411214953271C83.38983050847457,13.08411214953271,84.40677966101696,13.009345794392523,85.42372881355932,13.009345794392523C86.4406779661017,13.009345794392523,87.45762711864407,14.404984423676012,88.47457627118645,14.57943925233645C89.49152542372882,14.753894080996885,90.50847457627118,14.666666666666668,91.52542372881355,14.841121495327103C92.54237288135593,15.015576323987542,93.55932203389831,16.436137071651086,94.57627118644069,16.785046728971963C95.59322033898306,17.133956386292834,96.61016949152543,16.9595015576324,97.62711864406779,17.30841121495327C98.64406779661016,17.657320872274145,99.66101694915254,19.738317757009348,100.6779661016949,19.962616822429908C101.69491525423729,20.186915887850468,102.71186440677965,20.205607476635514,103.72881355932203,20.299065420560748C104.7457627118644,20.39252336448598,105.76271186440678,20.523364485981304,106.77966101694915,20.523364485981304C107.79661016949153,20.523364485981304,108.8135593220339,20.33644859813084,109.83050847457628,20.33644859813084C110.84745762711864,20.33644859813084,111.86440677966102,22.02492211838006,112.88135593220339,22.542056074766354C113.89830508474576,23.059190031152646,114.91525423728814,22.8411214953271,115.9322033898305,23.439252336448597C116.94915254237289,24.037383177570096,117.96610169491525,28.859813084112147,118.98305084745763,30.429906542056074C120,31.999999999999986,121.01694915254237,32.06230529595016,122.03389830508473,32.85981308411215C123.05084745762711,33.65732087227415,124.0677966101695,34.654205607476634,125.08474576271188,35.21495327102804C126.10169491525424,35.77570093457943,127.11864406779662,35.875389408099686,128.135593220339,36.22429906542056C129.15254237288136,36.573208722741434,130.16949152542372,36.6791277258567,131.1864406779661,37.30841121495327C132.20338983050846,37.93769470404984,133.22033898305085,40,134.23728813559322,40C135.25423728813558,40,136.27118644067798,39.875389408099686,137.28813559322035,39.626168224299064C138.3050847457627,39.37694704049844,139.3220338983051,34.85358255451713,140.33898305084747,34.654205607476634C141.35593220338984,34.454828660436135,142.3728813559322,34.467289719626166,143.38983050847457,34.35514018691589C144.40677966101694,34.242990654205606,145.42372881355934,34.161993769470406,146.4406779661017,33.981308411214954C147.45762711864407,33.8006230529595,148.47457627118644,33.271028037383175,149.4915254237288,33.271028037383175C150.50847457627117,33.271028037383175,151.52542372881356,33.42056074766355,152.54237288135593,33.42056074766355C153.5593220338983,33.42056074766355,154.5762711864407,30.280373831775698,155.59322033898306,30.280373831775698C156.61016949152543,30.280373831775698,157.6271186440678,31.02803738317757,158.64406779661016,31.02803738317757C159.66101694915253,31.02803738317757,160.67796610169492,30.635514018691588,161.6949152542373,30.205607476635514C162.71186440677965,29.77570093457944,163.72881355932205,28.934579439252335,164.74576271186442,28.44859813084112C165.76271186440678,27.962616822429908,166.77966101694915,27.28971962616822,167.79661016949152,27.28971962616822C168.81355932203388,27.28971962616822,169.83050847457628,27.77570093457944,170.84745762711864,27.77570093457944C171.864406779661,27.77570093457944,172.8813559322034,27.67601246105919,173.89830508474577,27.476635514018692C174.91525423728814,27.277258566978194,175.93220338983053,26.641744548286606,176.9491525423729,26.35514018691589C177.96610169491527,26.068535825545176,178.98305084745763,25.91277258566978,180,25.75700934579439L180,40C178.98305084745763,40,177.96610169491527,40,176.9491525423729,40C175.93220338983053,40,174.91525423728814,40,173.89830508474577,40C172.8813559322034,40,171.864406779661,40,170.84745762711864,40C169.83050847457628,40,168.81355932203388,40,167.79661016949152,40C166.77966101694915,40,165.76271186440678,40,164.74576271186442,40C163.72881355932205,40,162.71186440677965,40,161.6949152542373,40C160.67796610169492,40,159.66101694915253,40,158.64406779661016,40C157.6271186440678,40,156.61016949152543,40,155.59322033898306,40C154.5762711864407,40,153.5593220338983,40,152.54237288135593,40C151.52542372881356,40,150.50847457627117,40,149.4915254237288,40C148.47457627118644,40,147.45762711864407,40,146.4406779661017,40C145.42372881355934,40,144.40677966101694,40,143.38983050847457,40C142.3728813559322,40,141.35593220338984,40,140.33898305084747,40C139.3220338983051,40,138.3050847457627,40,137.28813559322035,40C136.27118644067798,40,135.25423728813558,40,134.23728813559322,40C133.22033898305085,40,132.20338983050846,40,131.1864406779661,40C130.16949152542372,40,129.15254237288136,40,128.135593220339,40C127.11864406779662,40,126.10169491525424,40,125.08474576271188,40C124.0677966101695,40,123.05084745762711,40,122.03389830508473,40C121.01694915254237,40,120,40,118.98305084745763,40C117.96610169491525,40,116.94915254237289,40,115.9322033898305,40C114.91525423728814,40,113.89830508474576,40,112.88135593220339,40C111.86440677966102,40,110.84745762711864,40,109.83050847457628,40C108.8135593220339,40,107.79661016949153,40,106.77966101694915,40C105.76271186440678,40,104.7457627118644,40,103.72881355932203,40C102.71186440677965,40,101.69491525423729,40,100.6779661016949,40C99.66101694915254,40,98.64406779661016,40,97.62711864406779,40C96.61016949152543,40,95.59322033898306,40,94.57627118644069,40C93.55932203389831,40,92.54237288135593,40,91.52542372881355,40C90.50847457627118,40,89.49152542372882,40,88.47457627118645,40C87.45762711864407,40,86.4406779661017,40,85.42372881355932,40C84.40677966101696,40,83.38983050847457,40,82.37288135593221,40C81.35593220338983,40,80.33898305084746,40,79.32203389830508,40C78.30508474576271,40,77.28813559322033,40,76.27118644067797,40C75.2542372881356,40,74.23728813559322,40,73.22033898305085,40C72.20338983050848,40,71.1864406779661,40,70.16949152542374,40C69.15254237288136,40,68.13559322033899,40,67.11864406779661,40C66.10169491525424,40,65.08474576271186,40,64.0677966101695,40C63.05084745762712,40,62.03389830508474,40,61.01694915254237,40C59.99999999999999,40,58.983050847457626,40,57.96610169491525,40C56.94915254237288,40,55.93220338983051,40,54.91525423728814,40C53.898305084745765,40,52.88135593220339,40,51.86440677966102,40C50.847457627118644,40,49.83050847457627,40,48.813559322033896,40C47.79661016949152,40,46.77966101694915,40,45.762711864406775,40C44.7457627118644,40,43.728813559322035,40,42.71186440677966,40C41.69491525423729,40,40.67796610169491,40,39.66101694915254,40C38.644067796610166,40,37.6271186440678,40,36.610169491525426,40C35.59322033898305,40,34.57627118644068,40,33.559322033898304,40C32.54237288135593,40,31.525423728813557,40,30.508474576271183,40C29.491525423728813,40,28.47457627118644,40,27.45762711864407,40C26.440677966101696,40,25.423728813559322,40,24.406779661016948,40C23.389830508474574,40,22.372881355932204,40,21.35593220338983,40C20.338983050847457,40,19.322033898305087,40,18.305084745762713,40C17.28813559322034,40,16.271186440677965,40,15.254237288135592,40C14.23728813559322,40,13.220338983050846,40,12.203389830508474,40C11.186440677966102,40,10.169491525423728,40,9.152542372881356,40C8.135593220338983,40,7.11864406779661,40,6.101694915254237,40C5.084745762711864,40,4.067796610169491,40,3.0508474576271185,40C2.0338983050847457,40,1.0169491525423728,40,0,40Z"></path><path class="line" stroke="black" fill="none" d="M0,15.588785046728972C1.0169491525423728,15.532710280373832,2.0338983050847457,15.476635514018692,3.0508474576271185,15.252336448598133C4.067796610169491,15.028037383177573,5.084745762711864,14.548286604361373,6.101694915254237,14.24299065420561C7.11864406779661,13.937694704049846,8.135593220338983,13.73208722741433,9.152542372881356,13.420560747663552C10.169491525423728,13.109034267912774,11.186440677966102,12.772585669781932,12.203389830508474,12.373831775700936C13.220338983050846,11.975077881619939,14.23728813559322,11.376947040498441,15.254237288135592,11.028037383177569C16.271186440677965,10.679127725856697,17.28813559322034,10.554517133956384,18.305084745762713,10.2803738317757C19.322033898305087,10.006230529595015,20.338983050847457,9.66355140186916,21.35593220338983,9.383177570093459C22.372881355932204,9.102803738317757,23.389830508474574,8.80373831775701,24.406779661016948,8.598130841121495C25.423728813559322,8.392523364485982,26.440677966101696,8.448598130841122,27.45762711864407,8.149532710280374C28.47457627118644,7.850467289719627,29.491525423728813,7.140186915887849,30.508474576271183,6.5794392523364476C31.525423728813557,6.018691588785045,32.54237288135593,5.333333333333333,33.559322033898304,4.785046728971962C34.57627118644068,4.2367601246105915,35.59322033898305,3.781931464174455,36.610169491525426,3.2897196261682238C37.6271186440678,2.797507788161994,38.644067796610166,2.261682242990654,39.66101694915254,1.8317757009345792C40.67796610169491,1.4018691588785037,41.69491525423729,0.8598130841121483,42.71186440677966,0.7102803738317753C43.728813559322035,0.5607476635514027,44.7457627118644,0.604361370716512,45.762711864406775,0.48598130841121634C46.77966101694915,0.36760124610592043,47.79661016949152,0,48.813559322033896,0C49.83050847457627,0,50.847457627118644,0.0685358255451692,51.86440677966102,0.1869158878504651C52.88135593220339,0.305295950155761,53.898305084745765,0.5046728971962607,54.91525423728814,0.7102803738317753C55.93220338983051,0.9158878504672894,56.94915254237288,1.239875389408099,57.96610169491525,1.4205607476635507C58.983050847457626,1.6012461059190024,59.99999999999999,1.5451713395638622,61.01694915254237,1.7943925233644853C62.03389830508474,2.0436137071651097,63.05084745762712,4.41121495327103,64.0677966101695,4.560747663551403C65.08474576271186,4.710280373831776,66.10169491525424,4.635514018691589,67.11864406779661,4.785046728971962C68.13559322033899,4.934579439252335,69.15254237288136,6.8411214953271,70.16949152542374,7.364485981308411C71.1864406779661,7.887850467289719,72.20338983050848,7.626168224299065,73.22033898305085,8.149532710280374C74.23728813559322,8.672897196261683,75.2542372881356,10.043613707165111,76.27118644067797,10.542056074766357C77.28813559322033,11.040498442367603,78.30508474576271,10.86604361370717,79.32203389830508,11.289719626168226C80.33898305084746,11.713395638629285,81.35593220338983,13.08411214953271,82.37288135593221,13.08411214953271C83.38983050847457,13.08411214953271,84.40677966101696,13.009345794392523,85.42372881355932,13.009345794392523C86.4406779661017,13.009345794392523,87.45762711864407,14.404984423676012,88.47457627118645,14.57943925233645C89.49152542372882,14.753894080996885,90.50847457627118,14.666666666666668,91.52542372881355,14.841121495327103C92.54237288135593,15.015576323987542,93.55932203389831,16.436137071651086,94.57627118644069,16.785046728971963C95.59322033898306,17.133956386292834,96.61016949152543,16.9595015576324,97.62711864406779,17.30841121495327C98.64406779661016,17.657320872274145,99.66101694915254,19.738317757009348,100.6779661016949,19.962616822429908C101.69491525423729,20.186915887850468,102.71186440677965,20.205607476635514,103.72881355932203,20.299065420560748C104.7457627118644,20.39252336448598,105.76271186440678,20.523364485981304,106.77966101694915,20.523364485981304C107.79661016949153,20.523364485981304,108.8135593220339,20.33644859813084,109.83050847457628,20.33644859813084C110.84745762711864,20.33644859813084,111.86440677966102,22.02492211838006,112.88135593220339,22.542056074766354C113.89830508474576,23.059190031152646,114.91525423728814,22.8411214953271,115.9322033898305,23.439252336448597C116.94915254237289,24.037383177570096,117.96610169491525,28.859813084112147,118.98305084745763,30.429906542056074C120,31.999999999999986,121.01694915254237,32.06230529595016,122.03389830508473,32.85981308411215C123.05084745762711,33.65732087227415,124.0677966101695,34.654205607476634,125.08474576271188,35.21495327102804C126.10169491525424,35.77570093457943,127.11864406779662,35.875389408099686,128.135593220339,36.22429906542056C129.15254237288136,36.573208722741434,130.16949152542372,36.6791277258567,131.1864406779661,37.30841121495327C132.20338983050846,37.93769470404984,133.22033898305085,40,134.23728813559322,40C135.25423728813558,40,136.27118644067798,39.875389408099686,137.28813559322035,39.626168224299064C138.3050847457627,39.37694704049844,139.3220338983051,34.85358255451713,140.33898305084747,34.654205607476634C141.35593220338984,34.454828660436135,142.3728813559322,34.467289719626166,143.38983050847457,34.35514018691589C144.40677966101694,34.242990654205606,145.42372881355934,34.161993769470406,146.4406779661017,33.981308411214954C147.45762711864407,33.8006230529595,148.47457627118644,33.271028037383175,149.4915254237288,33.271028037383175C150.50847457627117,33.271028037383175,151.52542372881356,33.42056074766355,152.54237288135593,33.42056074766355C153.5593220338983,33.42056074766355,154.5762711864407,30.280373831775698,155.59322033898306,30.280373831775698C156.61016949152543,30.280373831775698,157.6271186440678,31.02803738317757,158.64406779661016,31.02803738317757C159.66101694915253,31.02803738317757,160.67796610169492,30.635514018691588,161.6949152542373,30.205607476635514C162.71186440677965,29.77570093457944,163.72881355932205,28.934579439252335,164.74576271186442,28.44859813084112C165.76271186440678,27.962616822429908,166.77966101694915,27.28971962616822,167.79661016949152,27.28971962616822C168.81355932203388,27.28971962616822,169.83050847457628,27.77570093457944,170.84745762711864,27.77570093457944C171.864406779661,27.77570093457944,172.8813559322034,27.67601246105919,173.89830508474577,27.476635514018692C174.91525423728814,27.277258566978194,175.93220338983053,26.641744548286606,176.9491525423729,26.35514018691589C177.96610169491527,26.068535825545176,178.98305084745763,25.91277258566978,180,25.75700934579439"></path><path class="axis-ceiling" stroke-width="1" stroke="black" fill="none" d="M175,-5.570093457943921L180,-5.570093457943921"></path><text class="axis-ceiling-label" font-family="sans-serif" text-anchor="end" font-size="10px" x="170" y="-3.070093457943921">760</text></g></svg>