<svg xmlns="http://www.w3.org/2000/svg" viewBox="0 0 180 60"><g transform="translate(0,20)"><path class="area" fill="rgba(0, 0, 0, 0.2)" d="M0,40C1.0169491525423728,40,2.0338983050847457,40,3.0508474576271185,40C4.067796610169491,40,5.084745762711864,40,6.101694915254237,40C7.11864406779661,40,8.135593220338983,40,9.152542372881356,40C10.169491525423728,40,11.186440677966102,40,12.203389830508474,40C13.220338983050846,40,14.23728813559322,40,15.254237288135592,40C16.271186440677965,40,17.28813559322034,40,18.305084745762713,40C19.322033898305087,40,20.338983050847457,40,21.35593220338983,40C22.372881355932204,40,23.389830508474574,40,24.406779661016948,40C25.423728813559322,40,26.440677966101696,40,27.45762711864407,40C28.47457627118644,40,29.491525423728813,40,30.508474576271183,40C31.525423728813557,40,32.54237288135593,40,33.559322033898304,40C34.57627118644068,40,35.59322033898305,40,36.610169491525426,40C37.6271186440678,40,38.644067796610166,40,39.66101694915254,40C40.67796610169491,40,41.69491525423729,40,42.71186440677966,40C43.728813559322035,40,44.7457627118644,40,45.762711864406775,40C46.77966101694915,40,47.79661016949152,40,48.813559322033896,40C49.83050847457627,40,50.847457627118644,39.96273333333333,51.86440677966102,39.9424C52.88135593220339,39.922066666666666,53.898305084745765,39.89373333333334,54.91525423728814,39.878C55.93220338983051,39.86226666666667,56.94915254237288,39.848,57.96610169491525,39.848C58.983050847457626,39.848,59.99999999999999,39.8552,61.01694915254237,39.8552C62.03389830508474,39.8552,63.05084745762712,39.811933333333336,64.0677966101695,39.763600000000004C65.08474576271186,39.71526666666667,66.10169491525424,39.68706666666667,67.11864406779661,39.5652C68.13559322033899,39.44333333333333,69.15254237288136,39.242666666666665,70.16949152542374,39.032399999999996C71.1864406779661,38.822133333333326,72.20338983050848,38.53126666666666,73.22033898305085,38.303599999999996C74.23728813559322,38.07593333333333,75.2542372881356,37.923199999999994,76.27118644067797,37.666399999999996C77.28813559322033,37.4096,78.30508474576271,36.7628,79.32203389830508,36.7628C80.33898305084746,36.7628,81.35593220338983,36.80546666666667,82.37288135593221,36.8908C83.38983050847457,36.97613333333333,84.40677966101696,37.7428,85.42372881355932,37.7428C86.4406779661017,37.7428,87.45762711864407,37.738,88.47457627118645,37.7284C89.49152542372882,37.7188,90.50847457627118,35.9052,91.52542372881355,35.1092C92.54237288135593,34.313199999999995,93.55932203389831,33.4552,94.57627118644069,32.9524C95.59322033898306,32.449600000000004,96.61016949152543,32.40566666666666,97.62711864406779,32.0924C98.64406779661016,31.77913333333333,99.66101694915254,31.0728,100.6779661016949,31.0728C101.69491525423729,31.0728,102.71186440677965,31.094266666666666,103.72881355932203,31.1372C104.7457627118644,31.180133333333334,105.76271186440678,34.983200000000004,106.77966101694915,34.983200000000004C107.79661016949153,34.983200000000004,108.8135593220339,31.444266666666667,109.83050847457628,30.0156C110.84745762711864,28.586933333333338,111.86440677966102,27.272866666666665,112.88135593220339,26.4112C113.89830508474576,25.549533333333336,114.91525423728814,25.26246666666667,115.9322033898305,24.8456C116.94915254237289,24.428733333333334,117.96610169491525,24.158266666666666,118.98305084745763,23.91C120,23.661733333333334,121.01694915254237,23.355999999999998,122.03389830508473,23.355999999999998C123.05084745762711,23.355999999999998,124.0677966101695,25.21393333333333,125.08474576271188,26.1476C126.10169491525424,27.081266666666664,127.11864406779662,28.958,128.135593220339,28.958C129.15254237288136,28.958,130.16949152542372,26.13933333333333,131.1864406779661,24.9024C132.20338983050846,23.66546666666666,133.22033898305085,22.431133333333335,134.23728813559322,21.5364C135.25423728813558,20.641666666666666,136.27118644067798,20.094866666666665,137.28813559322035,19.534C138.3050847457627,18.973133333333333,139.3220338983051,18.1712,140.33898305084747,18.1712C141.35593220338984,18.1712,142.3728813559322,20.66373333333334,143.38983050847457,22.0632C144.40677966101694,23.46266666666667,145.42372881355934,24.885866666666658,146.4406779661017,26.568C147.45762711864407,28.25013333333333,148.47457627118644,32.156000000000006,149.4915254237288,32.156000000000006C150.50847457627117,32.156000000000006,151.52542372881356,29.693866666666672,152.54237288135593,27.900400000000005C153.5593220338983,26.106933333333338,154.5762711864407,21.395200000000003,155.59322033898306,21.395200000000003C156.61016949152543,21.395200000000003,157.6271186440678,21.485866666666666,158.64406779661016,21.61C159.66101694915253,21.734133333333332,160.67796610169492,21.786666666666665,161.6949152542373,22.14C162.71186440677965,22.493333333333336,163.72881355932205,25.263466666666655,164.74576271186442,26.997999999999998C165.76271186440678,28.732533333333322,166.77966101694915,30.53273333333334,167.79661016949152,32.5472C168.81355932203388,34.561666666666675,169.83050847457628,39.0848,170.84745762711864,39.0848C171.864406779661,39.0848,172.8813559322034,34.784866666666666,173.89830508474577,33.382C174.91525423728814,31.97913333333333,175.93220338983053,31.102800000000002,176.9491525423729,30.6676C177.96610169491527,30.232400000000002,178.98305084745763,30.1236,180,30.0148L180,40C178.98305084745763,40,177.96610169491527,40,176.9491525423729,40C175.93220338983053,40,174.91525423728814,40,173.89830508474577,40C172.8813559322034,40,171.864406779661,40,170.84745762711864,40C169.83050847457628,40,168.81355932203388,40,167.79661016949152,40C166.77966101694915,40,165.76271186440678,40,164.74576271186442,40C163.72881355932205,40,162.71186440677965,40,161.6949152542373,40C160.67796610169492,40,159.66101694915253,40,158.64406779661016,40C157.6271186440678,40,156.61016949152543,40,155.59322033898306,40C154.5762711864407,40,153.5593220338983,40,152.54237288135593,40C151.52542372881356,40,150.50847457627117,40,149.4915254237288,40C148.47457627118644,40,147.45762711864407,40,146.4406779661017,40C145.42372881355934,40,144.40677966101694,40,143.38983050847457,40C142.3728813559322,40,141.35593220338984,40,140.33898305084747,40C139.3220338983051,40,138.3050847457627,40,137.28813559322035,40C136.27118644067798,40,135.25423728813558,40,134.23728813559322,40C133.22033898305085,40,132.20338983050846,40,131.1864406779661,40C130.16949152542372,40,129.15254237288136,40,128.135593220339,40C127.11864406779662,40,126.10169491525424,40,125.08474576271188,40C124.0677966101695,40,123.05084745762711,40,122.03389830508473,40C121.01694915254237,40,120,40,118.98305084745763,40C117.96610169491525,40,116.94915254237289,40,115.9322033898305,40C114.91525423728814,40,113.89830508474576,40,112.88135593220339,40C111.86440677966102,40,110.84745762711864,40,109.83050847457628,40C108.8135593220339,40,107.79661016949153,40,106.77966101694915,40C105.76271186440678,40,104.7457627118644,40,103.72881355932203,40C102.71186440677965,40,101.69491525423729,40,100.6779661016949,40C99.66101694915254,40,98.64406779661016,40,97.62711864406779,40C96.61016949152543,40,95.59322033898306,40,94.57627118644069,40C93.55932203389831,40,92.54237288135593,40,91.52542372881355,40C90.50847457627118,40,89.49152542372882,40,88.47457627118645,40C87.45762711864407,40,86.4406779661017,40,85.42372881355932,40C84.40677966101696,40,83.38983050847457,40,82.37288135593221,40C81.35593220338983,40,80.33898305084746,40,79.32203389830508,40C78.30508474576271,40,77.28813559322033,40,76.27118644067797,40C75.2542372881356,40,74.23728813559322,40,73.22033898305085,40C72.20338983050848,40,71.1864406779661,40,70.16949152542374,40C69.15254237288136,40,68.13559322033899,40,67.11864406779661,40C66.10169491525424,40,65.08474576271186,40,64.0677966101695,40C63.05084745762712,40,62.03389830508474,40,61.01694915254237,40C59.99999999999999,40,58.983050847457626,40,57.96610169491525,40C56.94915254237288,40,55.93220338983051,40,54.91525423728814,40C53.898305084745765,40,52.88135593220339,40,51.86440677966102,40C50.847457627118644,40,49.83050847457627,40,48.813559322033896,40C47.79661016949152,40,46.77966101694915,40,45.762711864406775,40C44.7457627118644,40,43.728813559322035,40,42.71186440677966,40C41.69491525423729,40,40.67796610169491,40,39.66101694915254,40C38.644067796610166,40,37.6271186440678,40,36.610169491525426,40C35.59322033898305,40,34.57627118644068,40,33.559322033898304,40C32.54237288135593,40,31.525423728813557,40,30.508474576271183,40C29.491525423728813,40,28.47457627118644,40,27.45762711864407,40C26.440677966101696,40,25.423728813559322,40,24.406779661016948,40C23.389830508474574,40,22.372881355932204,40,21.35593220338983,40C20.338983050847457,40,19.322033898305087,40,18.305084745762713,40C17.28813559322034,40,16.271186440677965,40,15.254237288135592,40C14.23728813559322,40,13.220338983050846,40,12.203389830508474,40C11.186440677966102,40,10.169491525423728,40,9.152542372881356,40C8.135593220338983,40,7.11864406779661,40,6.101694915254237,40C5.084745762711864,40,4.067796610169491,40,3.0508474576271185,40C2.0338983050847457,40,1.0169491525423728,40,0,40Z"></path><path class="line" stroke="black" fill="none" d="M0,40C1.0169491525423728,40,2.0338983050847457,40,3.0508474576271185,40C4.067796610169491,40,5.084745762711864,40,6.101694915254237,40C7.11864406779661,40,8.135593220338983,40,9.152542372881356,40C10.169491525423728,40,11.186440677966102,40,12.203389830508474,40C13.220338983050846,40,14.23728813559322,40,15.254237288135592,40C16.271186440677965,40,17.28813559322034,40,18.305084745762713,40C19.322033898305087,40,20.338983050847457,40,21.35593220338983,40C22.372881355932204,40,23.389830508474574,40,24.406779661016948,40C25.423728813559322,40,26.440677966101696,40,27.45762711864407,40C28.47457627118644,40,29.491525423728813,40,30.508474576271183,40C31.525423728813557,40,32.54237288135593,40,33.559322033898304,40C34.57627118644068,40,35.59322033898305,40,36.610169491525426,40C37.6271186440678,40,38.644067796610166,40,39.66101694915254,40C40.67796610169491,40,41.69491525423729,40,42.71186440677966,40C43.728813559322035,40,44.7457627118644,40,45.762711864406775,40C46.77966101694915,40,47.79661016949152,40,48.813559322033896,40C49.83050847457627,40,50.847457627118644,39.96273333333333,51.86440677966102,39.9424C52.88135593220339,39.922066666666666,53.898305084745765,39.89373333333334,54.91525423728814,39.878C55.93220338983051,39.86226666666667,56.94915254237288,39.848,57.96610169491525,39.848C58.983050847457626,39.848,59.99999999999999,39.8552,61.01694915254237,39.8552C62.03389830508474,39.8552,63.05084745762712,39.811933333333336,64.0677966101695,39.763600000000004C65.08474576271186,39.71526666666667,66.10169491525424,39.68706666666667,67.11864406779661,39.5652C68.13559322033899,39.44333333333333,69.15254237288136,39.242666666666665,70.16949152542374,39.032399999999996C71.1864406779661,38.822133333333326,72.20338983050848,38.53126666666666,73.22033898305085,38.303599999999996C74.23728813559322,38.07593333333333,75.2542372881356,37.923199999999994,76.27118644067797,37.666399999999996C77.28813559322033,37.4096,78.30508474576271,36.7628,79.32203389830508,36.7628C80.33898305084746,36.7628,81.35593220338983,36.80546666666667,82.37288135593221,36.8908C83.38983050847457,36.97613333333333,84.40677966101696,37.7428,85.42372881355932,37.7428C86.4406779661017,37.7428,87.45762711864407,37.738,88.47457627118645,37.7284C89.49152542372882,37.7188,90.50847457627118,35.9052,91.52542372881355,35.1092C92.54237288135593,34.313199999999995,93.55932203389831,33.4552,94.57627118644069,32.9524C95.59322033898306,32.449600000000004,96.61016949152543,32.40566666666666,97.62711864406779,32.0924C98.64406779661016,31.77913333333333,99.66101694915254,31.0728,100.6779661016949,31.0728C101.69491525423729,31.0728,102.71186440677965,31.094266666666666,103.72881355932203,31.1372C104.7457627118644,31.180133333333334,105.76271186440678,34.983200000000004,106.77966101694915,34.983200000000004C107.79661016949153,34.983200000000004,108.8135593220339,31.444266666666667,109.83050847457628,30.0156C110.84745762711864,28.586933333333338,111.86440677966102,27.272866666666665,112.88135593220339,26.4112C113.89830508474576,25.549533333333336,114.91525423728814,25.26246666666667,115.9322033898305,24.8456C116.94915254237289,24.428733333333334,117.96610169491525,24.158266666666666,118.98305084745763,23.91C120,23.661733333333334,121.01694915254237,23.355999999999998,122.03389830508473,23.355999999999998C123.05084745762711,23.355999999999998,124.0677966101695,25.21393333333333,125.08474576271188,26.1476C126.10169491525424,27.081266666666664,127.11864406779662,28.958,128.135593220339,28.958C129.15254237288136,28.958,130.16949152542372,26.13933333333333,131.1864406779661,24.9024C132.20338983050846,23.66546666666666,133.22033898305085,22.431133333333335,134.23728813559322,21.5364C135.25423728813558,20.641666666666666,136.27118644067798,20.094866666666665,137.28813559322035,19.534C138.3050847457627,18.973133333333333,139.3220338983051,18.1712,140.33898305084747,18.1712C141.35593220338984,18.1712,142.3728813559322,20.66373333333334,143.38983050847457,22.0632C144.40677966101694,23.46266666666667,145.42372881355934,24.885866666666658,146.4406779661017,26.568C147.45762711864407,28.25013333333333,148.47457627118644,32.156000000000006,149.4915254237288,32.156000000000006C150.50847457627117,32.156000000000006,151.52542372881356,29.693866666666672,152.54237288135593,27.900400000000005C153.5593220338983,26.106933333333338,154.5762711864407,21.395200000000003,155.59322033898306,21.395200000000003C156.61016949152543,21.395200000000003,157.6271186440678,21.485866666666666,158.64406779661016,21.61C159.66101694915253,21.734133333333332,160.67796610169492,21.786666666666665,161.6949152542373,22.14C162.71186440677965,22.493333333333336,163.72881355932205,25.263466666666655,164.74576271186442,26.997999999999998C165.76271186440678,28.732533333333322,166.77966101694915,30.53273333333334,167.79661016949152,32.5472C168.81355932203388,34.561666666666675,169.83050847457628,39.0848,170.84745762711864,39.0848C171.864406779661,39.0848,172.8813559322034,34.784866666666666,173.89830508474577,33.382C174.91525423728814,31.97913333333333,175.93220338983053,31.102800000000002,176.9491525423729,30.6676C177.96610169491527,30.232400000000002,178.98305084745763,30.1236,180,30.0148"></path><path class="axis-ceiling" stroke-width="1" stroke="black" fill="none" d="M175,0L180,0"></path><text class="axis-ceiling-label" font-family="sans-serif" text-anchor="end" font-size="10px" x="170" y="2.5">100000</text></g></svg>