<svg xmlns="http://www.w3.org/2000/svg" viewBox="0 0 180 60"><g transform="translate(0,20)"><path class="area" fill="rgba(0, 0, 0, 0.2)" d="M0,11.370351502801835C1.0169491525423728,11.485821022244865,2.0338983050847457,11.601290541687897,3.0508474576271185,11.614875191034134C4.067796610169491,11.628459840380371,5.084745762711864,11.63525216505349,6.101694915254237,11.63525216505349C7.11864406779661,11.63525216505349,8.135593220338983,11.451859398879268,9.152542372881356,11.451859398879268C10.169491525423728,11.451859398879268,11.186440677966102,11.981660723382577,12.203389830508474,11.981660723382577C13.220338983050846,11.981660723382577,14.23728813559322,11.73034471047716,15.254237288135592,11.512990320937341C16.271186440677965,11.295635931397522,17.28813559322034,10.745457632874853,18.305084745762713,10.677534386143659C19.322033898305087,10.609611139412465,20.338983050847457,10.575649516046868,21.35593220338983,10.575649516046868C22.372881355932204,10.575649516046868,23.389830508474574,10.983188996434027,24.406779661016948,10.983188996434027C25.423728813559322,10.983188996434027,26.440677966101696,10.962812022414669,27.45762711864407,10.922058074375954C28.47457627118644,10.88130412633724,29.491525423728813,8.741721854304636,30.508474576271183,8.741721854304636C31.525423728813557,8.741721854304636,32.54237288135593,8.81643742570895,33.559322033898304,8.965868568517577C34.57627118644068,9.115299711326204,35.59322033898305,10.20886398369842,36.610169491525426,10.20886398369842C37.6271186440678,10.20886398369842,38.644067796610166,6.887417218543046,39.66101694915254,6.887417218543046C40.67796610169491,6.887417218543046,41.69491525423729,7.437595517065714,42.71186440677966,7.437595517065714C43.728813559322035,7.437595517065714,44.7457627118644,7.2066564781796565,45.762711864406775,6.9281711665817625C46.77966101694915,6.649685854983868,47.79661016949152,5.766683647478348,48.813559322033896,5.766683647478348C49.83050847457627,5.766683647478348,50.847457627118644,5.868568517575139,51.86440677966102,5.868568517575139C52.88135593220339,5.868568517575139,53.898305084745765,5.5221599592460535,54.91525423728814,5.5221599592460535C55.93220338983051,5.5221599592460535,56.94915254237288,7.294956698930211,57.96610169491525,7.294956698930211C58.983050847457626,7.294956698930211,59.99999999999999,6.204788588894546,61.01694915254237,5.21650534895568C62.03389830508474,4.2282221090168095,63.05084745762712,2.1667515707250806,64.0677966101695,1.3652572592969925C65.08474576271186,0.5637629478689081,66.10169491525424,0.2716929869247759,67.11864406779661,0.16301579215486584C68.13559322033899,0.054338597384955264,69.15254237288136,0,70.16949152542374,0C71.1864406779661,0,72.20338983050848,0.09509254542367174,73.22033898305085,0.2852776362710152C74.23728813559322,0.4754627271183587,75.2542372881356,0.6520631686194605,76.27118644067797,1.3856342333163507C77.28813559322033,2.1192052980132408,78.30508474576271,6.520631686194602,79.32203389830508,6.520631686194602C80.33898305084746,6.520631686194602,81.35593220338983,4.000679232467311,82.37288135593221,3.260315843097299C83.38983050847457,2.5199524537272904,84.40677966101696,2.0784513499745305,85.42372881355932,2.0784513499745305C86.4406779661017,2.0784513499745305,87.45762711864407,2.183732382407877,88.47457627118645,2.2822210901681084C89.49152542372882,2.380709797928339,90.50847457627118,2.6693835965359147,91.52542372881355,2.6693835965359147C92.54237288135593,2.6693835965359147,93.55932203389831,1.7524197656647988,94.57627118644069,1.7524197656647988C95.59322033898306,1.7524197656647988,96.61016949152543,11.961283749363218,97.62711864406779,11.961283749363218C98.64406779661016,11.961283749363218,99.66101694915254,7.254202750891494,100.6779661016949,7.254202750891494C101.69491525423729,7.254202750891494,102.71186440677965,13.163525216505349,103.72881355932203,13.163525216505349C104.7457627118644,13.163525216505349,105.76271186440678,4.971981660723381,106.77966101694915,4.971981660723381C107.79661016949153,4.971981660723381,108.8135593220339,11.411105450840552,109.83050847457628,11.411105450840552C110.84745762711864,11.411105450840552,111.86440677966102,5.5221599592460535,112.88135593220339,5.5221599592460535C113.89830508474576,5.5221599592460535,114.91525423728814,7.865511971472239,115.9322033898305,8.884360672440144C116.94915254237289,9.903209373408053,117.96610169491525,10.898284938020037,118.98305084745763,11.63525216505349C120,12.372219392086938,121.01694915254237,12.888436067244017,122.03389830508473,13.306164034640858C123.05084745762711,13.723892002037704,124.0677966101695,14.14161996943454,125.08474576271188,14.14161996943454C126.10169491525424,14.14161996943454,127.11864406779662,12.368823229750383,128.135593220339,12.368823229750383C129.15254237288136,12.368823229750383,130.16949152542372,13.132959755476314,131.1864406779661,13.6729495669893C132.20338983050846,14.212939378502293,133.22033898305085,15.608762098828324,134.23728813559322,15.608762098828324C135.25423728813558,15.608762098828324,136.27118644067798,9.882832399388693,137.28813559322035,9.882832399388693C138.3050847457627,9.882832399388693,139.3220338983051,12.239769060961116,140.33898305084747,12.389200203769741C141.35593220338984,12.538631346578367,142.3728813559322,12.463915775174053,143.38983050847457,12.613346917982678C144.40677966101694,12.762778060791304,145.42372881355934,22.638818135506877,146.4406779661017,22.638818135506877C147.45762711864407,22.638818135506877,148.47457627118644,15.751400916963831,149.4915254237288,15.751400916963831C150.50847457627117,15.751400916963831,151.52542372881356,40,152.54237288135593,40C153.5593220338983,40,154.5762711864407,28.357955510273396,155.59322033898306,24.8191543555782C156.61016949152543,21.280353200883035,157.6271186440678,20.200373577857018,158.64406779661016,18.76719307182883C159.66101694915253,17.33401256580063,160.67796610169492,16.220071319409065,161.6949152542373,16.220071319409065C162.71186440677965,16.220071319409065,163.72881355932205,16.43063338427577,164.74576271186442,16.851757514009172C165.76271186440678,17.272881643742572,166.77966101694915,32.82730514518594,167.79661016949152,32.82730514518594C168.81355932203388,32.82730514518594,169.83050847457628,13.958227203260316,170.84745762711864,13.958227203260316C171.864406779661,13.958227203260316,172.8813559322034,19.91509594158601,173.89830508474577,21.395822720326034C174.91525423728814,22.87654949906606,175.93220338983053,23.61691288843607,176.9491525423729,23.61691288843607C177.96610169491527,23.61691288843607,178.98305084745763,17.63627101375446,180,11.65562913907285L180,40C178.98305084745763,40,177.96610169491527,40,176.9491525423729,40C175.93220338983053,40,174.91525423728814,40,173.89830508474577,40C172.8813559322034,40,171.864406779661,40,170.84745762711864,40C169.83050847457628,40,168.81355932203388,40,167.79661016949152,40C166.77966101694915,40,165.76271186440678,40,164.74576271186442,40C163.72881355932205,40,162.71186440677965,40,161.6949152542373,40C160.67796610169492,40,159.66101694915253,40,158.64406779661016,40C157.6271186440678,40,156.61016949152543,40,155.59322033898306,40C154.5762711864407,40,153.5593220338983,40,152.54237288135593,40C151.52542372881356,40,150.50847457627117,40,149.4915254237288,40C148.47457627118644,40,147.45762711864407,40,146.4406779661017,40C145.42372881355934,40,144.40677966101694,40,143.38983050847457,40C142.3728813559322,40,141.35593220338984,40,140.33898305084747,40C139.3220338983051,40,138.3050847457627,40,137.28813559322035,40C136.27118644067798,40,135.25423728813558,40,134.23728813559322,40C133.22033898305085,40,132.20338983050846,40,131.1864406779661,40C130.16949152542372,40,129.15254237288136,40,128.135593220339,40C127.11864406779662,40,126.10169491525424,40,125.08474576271188,40C124.0677966101695,40,123.05084745762711,40,122.03389830508473,40C121.01694915254237,40,120,40,118.98305084745763,40C117.96610169491525,40,116.94915254237289,40,115.9322033898305,40C114.91525423728814,40,113.89830508474576,40,112.88135593220339,40C111.86440677966102,40,110.84745762711864,40,109.83050847457628,40C108.8135593220339,40,107.79661016949153,40,106.77966101694915,40C105.76271186440678,40,104.7457627118644,40,103.72881355932203,40C102.71186440677965,40,101.69491525423729,40,100.6779661016949,40C99.66101694915254,40,98.64406779661016,40,97.62711864406779,40C96.61016949152543,40,95.59322033898306,40,94.57627118644069,40C93.55932203389831,40,92.54237288135593,40,91.52542372881355,40C90.50847457627118,40,89.49152542372882,40,88.47457627118645,40C87.45762711864407,40,86.4406779661017,40,85.42372881355932,40C84.40677966101696,40,83.38983050847457,40,82.37288135593221,40C81.35593220338983,40,80.33898305084746,40,79.32203389830508,40C78.30508474576271,40,77.28813559322033,40,76.27118644067797,40C75.2542372881356,40,74.23728813559322,40,73.22033898305085,40C72.20338983050848,40,71.1864406779661,40,70.16949152542374,40C69.15254237288136,40,68.13559322033899,40,67.11864406779661,40C66.10169491525424,40,65.08474576271186,40,64.0677966101695,40C63.05084745762712,40,62.03389830508474,40,61.01694915254237,40C59.99999999999999,40,58.983050847457626,40,57.96610169491525,40C56.94915254237288,40,55.93220338983051,40,54.91525423728814,40C53.898305084745765,40,52.88135593220339,40,51.86440677966102,40C50.847457627118644,40,49.83050847457627,40,48.813559322033896,40C47.79661016949152,40,46.77966101694915,40,45.762711864406775,40C44.7457627118644,40,43.728813559322035,40,42.71186440677966,40C41.69491525423729,40,40.67796610169491,40,39.66101694915254,40C38.644067796610166,40,37.6271186440678,40,36.610169491525426,40C35.59322033898305,40,34.57627118644068,40,33.559322033898304,40C32.54237288135593,40,31.525423728813557,40,30.508474576271183,40C29.491525423728813,40,28.47457627118644,40,27.45762711864407,40C26.440677966101696,40,25.423728813559322,40,24.406779661016948,40C23.389830508474574,40,22.372881355932204,40,21.35593220338983,40C20.338983050847457,40,19.322033898305087,40,18.305084745762713,40C17.28813559322034,40,16.271186440677965,40,15.254237288135592,40C14.23728813559322,40,13.220338983050846,40,12.203389830508474,40C11.186440677966102,40,10.169491525423728,40,9.152542372881356,40C8.135593220338983,40,7.11864406779661,40,6.101694915254237,40C5.084745762711864,40,4.067796610169491,40,3.0508474576271185,40C2.0338983050847457,40,1.0169491525423728,40,0,40Z"></path><path class="line" stroke="black" fill="none" d="M0,11.370351502801835C1.0169491525423728,11.485821022244865,2.0338983050847457,11.601290541687897,3.0508474576271185,11.614875191034134C4.067796610169491,11.628459840380371,5.084745762711864,11.63525216505349,6.101694915254237,11.63525216505349C7.11864406779661,11.63525216505349,8.135593220338983,11.451859398879268,9.152542372881356,11.451859398879268C10.169491525423728,11.451859398879268,11.186440677966102,11.981660723382577,12.203389830508474,11.981660723382577C13.220338983050846,11.981660723382577,14.23728813559322,11.73034471047716,15.254237288135592,11.512990320937341C16.271186440677965,11.295635931397522,17.28813559322034,10.745457632874853,18.305084745762713,10.677534386143659C19.322033898305087,10.609611139412465,20.338983050847457,10.575649516046868,21.35593220338983,10.575649516046868C22.372881355932204,10.575649516046868,23.389830508474574,10.983188996434027,24.406779661016948,10.983188996434027C25.423728813559322,10.983188996434027,26.440677966101696,10.962812022414669,27.45762711864407,10.922058074375954C28.47457627118644,10.88130412633724,29.491525423728813,8.741721854304636,30.508474576271183,8.741721854304636C31.525423728813557,8.741721854304636,32.54237288135593,8.81643742570895,33.559322033898304,8.965868568517577C34.57627118644068,9.115299711326204,35.59322033898305,10.20886398369842,36.610169491525426,10.20886398369842C37.6271186440678,10.20886398369842,38.644067796610166,6.887417218543046,39.66101694915254,6.887417218543046C40.67796610169491,6.887417218543046,41.69491525423729,7.437595517065714,42.71186440677966,7.437595517065714C43.728813559322035,7.437595517065714,44.7457627118644,7.2066564781796565,45.762711864406775,6.9281711665817625C46.77966101694915,6.649685854983868,47.79661016949152,5.766683647478348,48.813559322033896,5.766683647478348C49.83050847457627,5.766683647478348,50.847457627118644,5.868568517575139,51.86440677966102,5.868568517575139C52.88135593220339,5.868568517575139,53.898305084745765,5.5221599592460535,54.91525423728814,5.5221599592460535C55.93220338983051,5.5221599592460535,56.94915254237288,7.294956698930211,57.96610169491525,7.294956698930211C58.983050847457626,7.294956698930211,59.99999999999999,6.204788588894546,61.01694915254237,5.21650534895568C62.03389830508474,4.2282221090168095,63.05084745762712,2.1667515707250806,64.0677966101695,1.3652572592969925C65.08474576271186,0.5637629478689081,66.10169491525424,0.2716929869247759,67.11864406779661,0.16301579215486584C68.13559322033899,0.054338597384955264,69.15254237288136,0,70.16949152542374,0C71.1864406779661,0,72.20338983050848,0.09509254542367174,73.22033898305085,0.2852776362710152C74.23728813559322,0.4754627271183587,75.2542372881356,0.6520631686194605,76.27118644067797,1.3856342333163507C77.28813559322033,2.1192052980132408,78.30508474576271,6.520631686194602,79.32203389830508,6.520631686194602C80.33898305084746,6.520631686194602,81.35593220338983,4.000679232467311,82.37288135593221,3.260315843097299C83.38983050847457,2.5199524537272904,84.40677966101696,2.0784513499745305,85.42372881355932,2.0784513499745305C86.4406779661017,2.0784513499745305,87.45762711864407,2.183732382407877,88.47457627118645,2.2822210901681084C89.49152542372882,2.380709797928339,90.50847457627118,2.6693835965359147,91.52542372881355,2.6693835965359147C92.54237288135593,2.6693835965359147,93.55932203389831,1.7524197656647988,94.57627118644069,1.7524197656647988C95.59322033898306,1.7524197656647988,96.61016949152543,11.961283749363218,97.62711864406779,11.961283749363218C98.64406779661016,11.961283749363218,99.66101694915254,7.254202750891494,100.6779661016949,7.254202750891494C101.69491525423729,7.254202750891494,102.71186440677965,13.163525216505349,103.72881355932203,13.163525216505349C104.7457627118644,13.163525216505349,105.76271186440678,4.971981660723381,106.77966101694915,4.971981660723381C107.79661016949153,4.971981660723381,108.8135593220339,11.411105450840552,109.83050847457628,11.411105450840552C110.84745762711864,11.411105450840552,111.86440677966102,5.5221599592460535,112.88135593220339,5.5221599592460535C113.89830508474576,5.5221599592460535,114.91525423728814,7.865511971472239,115.9322033898305,8.884360672440144C116.94915254237289,9.903209373408053,117.96610169491525,10.898284938020037,118.98305084745763,11.63525216505349C120,12.372219392086938,121.01694915254237,12.888436067244017,122.03389830508473,13.306164034640858C123.05084745762711,13.723892002037704,124.0677966101695,14.14161996943454,125.08474576271188,14.14161996943454C126.10169491525424,14.14161996943454,127.11864406779662,12.368823229750383,128.135593220339,12.368823229750383C129.15254237288136,12.368823229750383,130.16949152542372,13.132959755476314,131.1864406779661,13.6729495669893C132.20338983050846,14.212939378502293,133.22033898305085,15.608762098828324,134.23728813559322,15.608762098828324C135.25423728813558,15.608762098828324,136.27118644067798,9.882832399388693,137.28813559322035,9.882832399388693C138.3050847457627,9.882832399388693,139.3220338983051,12.239769060961116,140.33898305084747,12.389200203769741C141.35593220338984,12.538631346578367,142.3728813559322,12.463915775174053,143.38983050847457,12.613346917982678C144.40677966101694,12.762778060791304,145.42372881355934,22.638818135506877,146.4406779661017,22.638818135506877C147.45762711864407,22.638818135506877,148.47457627118644,15.751400916963831,149.4915254237288,15.751400916963831C150.50847457627117,15.751400916963831,151.52542372881356,40,152.54237288135593,40C153.5593220338983,40,154.5762711864407,28.357955510273396,155.59322033898306,24.8191543555782C156.61016949152543,21.280353200883035,157.6271186440678,20.200373577857018,158.64406779661016,18.76719307182883C159.66101694915253,17.33401256580063,160.67796610169492,16.220071319409065,161.6949152542373,16.220071319409065C162.71186440677965,16.220071319409065,163.72881355932205,16.43063338427577,164.74576271186442,16.851757514009172C165.76271186440678,17.272881643742572,166.77966101694915,32.82730514518594,167.79661016949152,32.82730514518594C168.81355932203388,32.82730514518594,169.83050847457628,13.958227203260316,170.84745762711864,13.958227203260316C171.864406779661,13.958227203260316,172.8813559322034,19.91509594158601,173.89830508474577,21.395822720326034C174.91525423728814,22.87654949906606,175.93220338983053,23.61691288843607,176.9491525423729,23.61691288843607C177.96610169491527,23.61691288843607,178.98305084745763,17.63627101375446,180,11.65562913907285"></path><path class="axis-ceiling" stroke-width="1" stroke="black" fill="none" d="M175,-3.4233316352521648L180,-3.4233316352521648"></path><text class="axis-ceiling-label" font-family="sans-serif" text-anchor="end" font-size="10px" x="170" y="-0.9233316352521648">760</text></g></svg>