<svg xmlns="http://www.w3.org/2000/svg" viewBox="0 0 180 60"><g transform="translate(0,20)"><path class="area" fill="rgba(0, 0, 0, 0.2)" d="M0,17.09828393135725C1.0169491525423728,17.050019500780028,2.0338983050847457,17.001755070202805,3.0508474576271185,16.946177847113884C4.067796610169491,16.890600624024962,5.084745762711864,16.84964898595944,6.101694915254237,16.764820592823714C7.11864406779661,16.679992199687987,8.135593220338983,16.55323712948518,9.152542372881356,16.43720748829953C10.169491525423728,16.321177847113884,11.186440677966102,16.152496099843994,12.203389830508474,16.068642745709827C13.220338983050846,15.984789391575662,14.23728813559322,15.934087363494541,15.254237288135592,15.934087363494541C16.271186440677965,15.934087363494541,17.28813559322034,16.2207488299532,18.305084745762713,16.2207488299532C19.322033898305087,16.2207488299532,20.338983050847457,16.146320852834116,21.35593220338983,16.054992199687987C22.372881355932204,15.963663546541861,23.389830508474574,15.870709828393137,24.406779661016948,15.672776911076443C25.423728813559322,15.47484399375975,26.440677966101696,15.151131045241808,27.45762711864407,14.86739469578783C28.47457627118644,14.583658346333852,29.491525423728813,14.321697867914718,30.508474576271183,13.970358814352576C31.525423728813557,13.619019760790433,32.54237288135593,13.192927717108685,33.559322033898304,12.759360374414976C34.57627118644068,12.325793031721268,35.59322033898305,11.942277691107645,36.610169491525426,11.368954758190327C37.6271186440678,10.795631825273011,38.644067796610166,9.84756890275611,39.66101694915254,9.319422776911077C40.67796610169491,8.791276651066042,41.69491525423729,8.526716068642747,42.71186440677966,8.200078003120126C43.728813559322035,7.873439937597505,44.7457627118644,7.618629745189806,45.762711864406775,7.35959438377535C46.77966101694915,7.100559022360892,47.79661016949152,6.932852314092563,48.813559322033896,6.645865834633384C49.83050847457627,6.3588793551742055,50.847457627118644,5.905811232449296,51.86440677966102,5.637675507020279C52.88135593220339,5.3695397815912616,53.898305084745765,5.243434737389493,54.91525423728814,5.03705148205928C55.93220338983051,4.830668226729068,56.94915254237288,4.399375975039002,57.96610169491525,4.399375975039002C58.983050847457626,4.399375975039002,59.99999999999999,4.804992199687987,61.01694915254237,4.804992199687987C62.03389830508474,4.804992199687987,63.05084745762712,4.670436817472701,64.0677966101695,4.670436817472701C65.08474576271186,4.670436817472701,66.10169491525424,4.771840873634947,67.11864406779661,4.974648985959438C68.13559322033899,5.17745709828393,69.15254237288136,6.068967758710347,70.16949152542374,6.524960998439937C71.1864406779661,6.980954238169525,72.20338983050848,7.437597503900156,73.22033898305085,7.710608424336973C74.23728813559322,7.983619344773791,75.2542372881356,8.163026521060841,76.27118644067797,8.163026521060841C77.28813559322033,8.163026521060841,78.30508474576271,7.9410426417056685,79.32203389830508,7.858814352574104C80.33898305084746,7.776586063442538,81.35593220338983,7.66965678627145,82.37288135593221,7.66965678627145C83.38983050847457,7.66965678627145,84.40677966101696,7.720358814352573,85.42372881355932,7.821762870514819C86.4406779661017,7.923166926677065,87.45762711864407,8.395085803432139,88.47457627118645,8.395085803432139C89.49152542372882,8.395085803432139,90.50847457627118,7.5841783671346805,91.52542372881355,7.195787831513258C92.54237288135593,6.807397295891831,93.55932203389831,6.3839053562142505,94.57627118644069,6.064742589703589C95.59322033898306,5.745579823192932,96.61016949152543,5.549596983879352,97.62711864406779,5.280811232449296C98.64406779661016,5.012025481019238,99.66101694915254,4.804017160686428,100.6779661016949,4.452028081123247C101.69491525423729,4.100039001560065,102.71186440677965,3.463013520540824,103.72881355932203,3.1688767550702046C104.7457627118644,2.8747399895995867,105.76271186440678,2.8149375975039006,106.77966101694915,2.6872074882995323C107.79661016949153,2.5594773790951635,108.8135593220339,2.4024960998439937,109.83050847457628,2.4024960998439937C110.84745762711864,2.4024960998439937,111.86440677966102,3.6758970358814334,112.88135593220339,3.796801872074882C113.89830508474576,3.9177067082683306,114.91525423728814,3.8907306292251693,115.9322033898305,3.978159126365055C116.94915254237289,4.065587623504941,117.96610169491525,4.0925637025481025,118.98305084745763,4.321372854914198C120,4.550182007280291,121.01694915254237,5.518070722828918,122.03389830508473,6.175897035881435C123.05084745762711,6.83372334893396,124.0677966101695,7.568252730109198,125.08474576271188,8.268330733229327C126.10169491525424,8.96840873634945,127.11864406779662,9.6964378575143,128.135593220339,10.376365054602186C129.15254237288136,11.056292251690069,130.16949152542372,11.033541341653669,131.1864406779661,12.347893915756632C132.20338983050846,13.662246489859609,133.22033898305085,17.245514820592824,134.23728813559322,18.88260530421217C135.25423728813558,20.519695787831516,136.27118644067798,20.953913156526262,137.28813559322035,22.170436817472698C138.3050847457627,23.386960478419134,139.3220338983051,25.10205408216328,140.33898305084747,26.181747269890792C141.35593220338984,27.261440457618292,142.3728813559322,27.706058242329696,143.38983050847457,28.64859594383775C144.40677966101694,29.591133645345817,145.42372881355934,30.778731149245964,146.4406779661017,31.836973478939157C147.45762711864407,32.895215808632344,148.47457627118644,34.093213728549145,149.4915254237288,34.99804992199688C150.50847457627117,35.90288611544462,151.52542372881356,37.265990639625585,152.54237288135593,37.265990639625585C153.5593220338983,37.265990639625585,154.5762711864407,32.61700468018721,155.59322033898306,32.61700468018721C156.61016949152543,32.61700468018721,157.6271186440678,34.29504680187207,158.64406779661016,34.85374414976599C159.66101694915253,35.412441497659906,160.67796610169492,35.42251690067603,161.6949152542373,35.969188767550705C162.71186440677965,36.51586063442538,163.72881355932205,37.61017940717628,164.74576271186442,38.13377535101404C165.76271186440678,38.657371294851785,166.77966101694915,39.11076443057723,167.79661016949152,39.11076443057723C168.81355932203388,39.11076443057723,169.83050847457628,38.55304212168487,170.84745762711864,38.55304212168487C171.864406779661,38.55304212168487,172.8813559322034,38.626495059802394,173.89830508474577,38.77340093603744C174.91525423728814,38.920306812272486,175.93220338983053,40,176.9491525423729,40C177.96610169491527,40,178.98305084745763,38.26150546021841,180,36.52301092043682L180,40C178.98305084745763,40,177.96610169491527,40,176.9491525423729,40C175.93220338983053,40,174.91525423728814,40,173.89830508474577,40C172.8813559322034,40,171.864406779661,40,170.84745762711864,40C169.83050847457628,40,168.81355932203388,40,167.79661016949152,40C166.77966101694915,40,165.76271186440678,40,164.74576271186442,40C163.72881355932205,40,162.71186440677965,40,161.6949152542373,40C160.67796610169492,40,159.66101694915253,40,158.64406779661016,40C157.6271186440678,40,156.61016949152543,40,155.59322033898306,40C154.5762711864407,40,153.5593220338983,40,152.54237288135593,40C151.52542372881356,40,150.50847457627117,40,149.4915254237288,40C148.47457627118644,40,147.45762711864407,40,146.4406779661017,40C145.42372881355934,40,144.40677966101694,40,143.38983050847457,40C142.3728813559322,40,141.35593220338984,40,140.33898305084747,40C139.3220338983051,40,138.3050847457627,40,137.28813559322035,40C136.27118644067798,40,135.25423728813558,40,134.23728813559322,40C133.22033898305085,40,132.20338983050846,40,131.1864406779661,40C130.16949152542372,40,129.15254237288136,40,128.135593220339,40C127.11864406779662,40,126.10169491525424,40,125.08474576271188,40C124.0677966101695,40,123.05084745762711,40,122.03389830508473,40C121.01694915254237,40,120,40,118.98305084745763,40C117.96610169491525,40,116.94915254237289,40,115.9322033898305,40C114.91525423728814,40,113.89830508474576,40,112.88135593220339,40C111.86440677966102,40,110.84745762711864,40,109.83050847457628,40C108.8135593220339,40,107.79661016949153,40,106.77966101694915,40C105.76271186440678,40,104.7457627118644,40,103.72881355932203,40C102.71186440677965,40,101.69491525423729,40,100.6779661016949,40C99.66101694915254,40,98.64406779661016,40,97.62711864406779,40C96.61016949152543,40,95.59322033898306,40,94.57627118644069,40C93.55932203389831,40,92.54237288135593,40,91.52542372881355,40C90.50847457627118,40,89.49152542372882,40,88.47457627118645,40C87.45762711864407,40,86.4406779661017,40,85.42372881355932,40C84.40677966101696,40,83.38983050847457,40,82.37288135593221,40C81.35593220338983,40,80.33898305084746,40,79.32203389830508,40C78.30508474576271,40,77.28813559322033,40,76.27118644067797,40C75.2542372881356,40,74.23728813559322,40,73.22033898305085,40C72.20338983050848,40,71.1864406779661,40,70.16949152542374,40C69.15254237288136,40,68.13559322033899,40,67.11864406779661,40C66.10169491525424,40,65.08474576271186,40,64.0677966101695,40C63.05084745762712,40,62.03389830508474,40,61.01694915254237,40C59.99999999999999,40,58.983050847457626,40,57.96610169491525,40C56.94915254237288,40,55.93220338983051,40,54.91525423728814,40C53.898305084745765,40,52.88135593220339,40,51.86440677966102,40C50.847457627118644,40,49.83050847457627,40,48.813559322033896,40C47.79661016949152,40,46.77966101694915,40,45.762711864406775,40C44.7457627118644,40,43.728813559322035,40,42.71186440677966,40C41.69491525423729,40,40.67796610169491,40,39.66101694915254,40C38.644067796610166,40,37.6271186440678,40,36.610169491525426,40C35.59322033898305,40,34.57627118644068,40,33.559322033898304,40C32.54237288135593,40,31.525423728813557,40,30.508474576271183,40C29.491525423728813,40,28.47457627118644,40,27.45762711864407,40C26.440677966101696,40,25.423728813559322,40,24.406779661016948,40C23.389830508474574,40,22.372881355932204,40,21.35593220338983,40C20.338983050847457,40,19.322033898305087,40,18.305084745762713,40C17.28813559322034,40,16.271186440677965,40,15.254237288135592,40C14.23728813559322,40,13.220338983050846,40,12.203389830508474,40C11.186440677966102,40,10.169491525423728,40,9.152542372881356,40C8.135593220338983,40,7.11864406779661,40,6.101694915254237,40C5.084745762711864,40,4.067796610169491,40,3.0508474576271185,40C2.0338983050847457,40,1.0169491525423728,40,0,40Z"></path><path class="line" stroke="black" fill="none" d="M0,17.09828393135725C1.0169491525423728,17.050019500780028,2.0338983050847457,17.001755070202805,3.0508474576271185,16.946177847113884C4.067796610169491,16.890600624024962,5.084745762711864,16.84964898595944,6.101694915254237,16.764820592823714C7.11864406779661,16.679992199687987,8.135593220338983,16.55323712948518,9.152542372881356,16.43720748829953C10.169491525423728,16.321177847113884,11.186440677966102,16.152496099843994,12.203389830508474,16.068642745709827C13.220338983050846,15.984789391575662,14.23728813559322,15.934087363494541,15.254237288135592,15.934087363494541C16.271186440677965,15.934087363494541,17.28813559322034,16.2207488299532,18.305084745762713,16.2207488299532C19.322033898305087,16.2207488299532,20.338983050847457,16.146320852834116,21.35593220338983,16.054992199687987C22.372881355932204,15.963663546541861,23.389830508474574,15.870709828393137,24.406779661016948,15.672776911076443C25.423728813559322,15.47484399375975,26.440677966101696,15.151131045241808,27.45762711864407,14.86739469578783C28.47457627118644,14.583658346333852,29.491525423728813,14.321697867914718,30.508474576271183,13.970358814352576C31.525423728813557,13.619019760790433,32.54237288135593,13.192927717108685,33.559322033898304,12.759360374414976C34.57627118644068,12.325793031721268,35.59322033898305,11.942277691107645,36.610169491525426,11.368954758190327C37.6271186440678,10.795631825273011,38.644067796610166,9.84756890275611,39.66101694915254,9.319422776911077C40.67796610169491,8.791276651066042,41.69491525423729,8.526716068642747,42.71186440677966,8.200078003120126C43.728813559322035,7.873439937597505,44.7457627118644,7.618629745189806,45.762711864406775,7.35959438377535C46.77966101694915,7.100559022360892,47.79661016949152,6.932852314092563,48.813559322033896,6.645865834633384C49.83050847457627,6.3588793551742055,50.847457627118644,5.905811232449296,51.86440677966102,5.637675507020279C52.88135593220339,5.3695397815912616,53.898305084745765,5.243434737389493,54.91525423728814,5.03705148205928C55.93220338983051,4.830668226729068,56.94915254237288,4.399375975039002,57.96610169491525,4.399375975039002C58.983050847457626,4.399375975039002,59.99999999999999,4.804992199687987,61.01694915254237,4.804992199687987C62.03389830508474,4.804992199687987,63.05084745762712,4.670436817472701,64.0677966101695,4.670436817472701C65.08474576271186,4.670436817472701,66.10169491525424,4.771840873634947,67.11864406779661,4.974648985959438C68.13559322033899,5.17745709828393,69.15254237288136,6.068967758710347,70.16949152542374,6.524960998439937C71.1864406779661,6.980954238169525,72.20338983050848,7.437597503900156,73.22033898305085,7.710608424336973C74.23728813559322,7.983619344773791,75.2542372881356,8.163026521060841,76.27118644067797,8.163026521060841C77.28813559322033,8.163026521060841,78.30508474576271,7.9410426417056685,79.32203389830508,7.858814352574104C80.33898305084746,7.776586063442538,81.35593220338983,7.66965678627145,82.37288135593221,7.66965678627145C83.38983050847457,7.66965678627145,84.40677966101696,7.720358814352573,85.42372881355932,7.821762870514819C86.4406779661017,7.923166926677065,87.45762711864407,8.395085803432139,88.47457627118645,8.395085803432139C89.49152542372882,8.395085803432139,90.50847457627118,7.5841783671346805,91.52542372881355,7.195787831513258C92.54237288135593,6.807397295891831,93.55932203389831,6.3839053562142505,94.57627118644069,6.064742589703589C95.59322033898306,5.745579823192932,96.61016949152543,5.549596983879352,97.62711864406779,5.280811232449296C98.64406779661016,5.012025481019238,99.66101694915254,4.804017160686428,100.6779661016949,4.452028081123247C101.69491525423729,4.100039001560065,102.71186440677965,3.463013520540824,103.72881355932203,3.1688767550702046C104.7457627118644,2.8747399895995867,105.76271186440678,2.8149375975039006,106.77966101694915,2.6872074882995323C107.79661016949153,2.5594773790951635,108.8135593220339,2.4024960998439937,109.83050847457628,2.4024960998439937C110.84745762711864,2.4024960998439937,111.86440677966102,3.6758970358814334,112.88135593220339,3.796801872074882C113.89830508474576,3.9177067082683306,114.91525423728814,3.8907306292251693,115.9322033898305,3.978159126365055C116.94915254237289,4.065587623504941,117.96610169491525,4.0925637025481025,118.98305084745763,4.321372854914198C120,4.550182007280291,121.01694915254237,5.518070722828918,122.03389830508473,6.175897035881435C123.05084745762711,6.83372334893396,124.0677966101695,7.568252730109198,125.08474576271188,8.268330733229327C126.10169491525424,8.96840873634945,127.11864406779662,9.6964378575143,128.135593220339,10.376365054602186C129.15254237288136,11.056292251690069,130.16949152542372,11.033541341653669,131.1864406779661,12.347893915756632C132.20338983050846,13.662246489859609,133.22033898305085,17.245514820592824,134.23728813559322,18.88260530421217C135.25423728813558,20.519695787831516,136.27118644067798,20.953913156526262,137.28813559322035,22.170436817472698C138.3050847457627,23.386960478419134,139.3220338983051,25.10205408216328,140.33898305084747,26.181747269890792C141.35593220338984,27.261440457618292,142.3728813559322,27.706058242329696,143.38983050847457,28.64859594383775C144.40677966101694,29.591133645345817,145.42372881355934,30.778731149245964,146.4406779661017,31.836973478939157C147.45762711864407,32.895215808632344,148.47457627118644,34.093213728549145,149.4915254237288,34.99804992199688C150.50847457627117,35.90288611544462,151.52542372881356,37.265990639625585,152.54237288135593,37.265990639625585C153.5593220338983,37.265990639625585,154.5762711864407,32.61700468018721,155.59322033898306,32.61700468018721C156.61016949152543,32.61700468018721,157.6271186440678,34.29504680187207,158.64406779661016,34.85374414976599C159.66101694915253,35.412441497659906,160.67796610169492,35.42251690067603,161.6949152542373,35.969188767550705C162.71186440677965,36.51586063442538,163.72881355932205,37.61017940717628,164.74576271186442,38.13377535101404C165.76271186440678,38.657371294851785,166.77966101694915,39.11076443057723,167.79661016949152,39.11076443057723C168.81355932203388,39.11076443057723,169.83050847457628,38.55304212168487,170.84745762711864,38.55304212168487C171.864406779661,38.55304212168487,172.8813559322034,38.626495059802394,173.89830508474577,38.77340093603744C174.91525423728814,38.920306812272486,175.93220338983053,40,176.9491525423729,40C177.96610169491527,40,178.98305084745763,38.26150546021841,180,36.52301092043682"></path><path class="axis-ceiling" stroke-width="1" stroke="black" fill="none" d="M175,0L180,0"></path><text class="axis-ceiling-label" font-family="sans-serif" text-anchor="end" font-size="10px" x="170" y="2.5">10000</text></g></svg>