<svg xmlns="http://www.w3.org/2000/svg" viewBox="0 0 180 60"><g transform="translate(0,20)"><path class="area" fill="rgba(0, 0, 0, 0.2)" d="M0,33.5828C1.0169491525423728,33.47,2.0338983050847457,33.35719999999999,3.0508474576271185,33.239999999999995C4.067796610169491,33.1228,5.084745762711864,32.99419999999999,6.101694915254237,32.879599999999996C7.11864406779661,32.76499999999999,8.135593220338983,32.65586666666667,9.152542372881356,32.5524C10.169491525423728,32.448933333333336,11.186440677966102,32.35393333333333,12.203389830508474,32.2588C13.220338983050846,32.16366666666667,14.23728813559322,32.072066666666665,15.254237288135592,31.9816C16.271186440677965,31.891133333333332,17.28813559322034,31.79913333333333,18.305084745762713,31.715999999999998C19.322033898305087,31.632866666666665,20.338983050847457,31.556066666666663,21.35593220338983,31.482799999999997C22.372881355932204,31.409533333333332,23.389830508474574,31.33993333333333,24.406779661016948,31.2764C25.423728813559322,31.212866666666667,26.440677966101696,31.1582,27.45762711864407,31.1016C28.47457627118644,31.045,29.491525423728813,30.992066666666666,30.508474576271183,30.936799999999998C31.525423728813557,30.88153333333333,32.54237288135593,30.82293333333333,33.559322033898304,30.77C34.57627118644068,30.717066666666668,35.59322033898305,30.6668,36.610169491525426,30.6192C37.6271186440678,30.5716,38.644067796610166,30.526266666666668,39.66101694915254,30.4844C40.67796610169491,30.442533333333333,41.69491525423729,30.404333333333334,42.71186440677966,30.368C43.728813559322035,30.331666666666667,44.7457627118644,30.300266666666666,45.762711864406775,30.2664C46.77966101694915,30.232533333333333,47.79661016949152,30.199333333333332,48.813559322033896,30.1648C49.83050847457627,30.130266666666667,50.847457627118644,30.099866666666667,51.86440677966102,30.0592C52.88135593220339,30.018533333333334,53.898305084745765,29.967066666666668,54.91525423728814,29.9208C55.93220338983051,29.874533333333332,56.94915254237288,29.83073333333333,57.96610169491525,29.781599999999997C58.983050847457626,29.732466666666664,59.99999999999999,29.680533333333333,61.01694915254237,29.626C62.03389830508474,29.57146666666667,63.05084745762712,29.515866666666668,64.0677966101695,29.4544C65.08474576271186,29.392933333333332,66.10169491525424,29.324,67.11864406779661,29.2572C68.13559322033899,29.1904,69.15254237288136,29.119333333333334,70.16949152542374,29.0536C71.1864406779661,28.987866666666665,72.20338983050848,28.9242,73.22033898305085,28.8628C74.23728813559322,28.8014,75.2542372881356,28.743133333333336,76.27118644067797,28.685200000000002C77.28813559322033,28.627266666666667,78.30508474576271,28.567533333333333,79.32203389830508,28.5152C80.33898305084746,28.462866666666667,81.35593220338983,28.418533333333336,82.37288135593221,28.3712C83.38983050847457,28.323866666666667,84.40677966101696,28.276200000000003,85.42372881355932,28.2312C86.4406779661017,28.1862,87.45762711864407,28.1408,88.47457627118645,28.1012C89.49152542372882,28.0616,90.50847457627118,28.039,91.52542372881355,27.9936C92.54237288135593,27.9482,93.55932203389831,27.879333333333335,94.57627118644069,27.8288C95.59322033898306,27.778266666666667,96.61016949152543,27.741133333333334,97.62711864406779,27.6904C98.64406779661016,27.639666666666667,99.66101694915254,27.585133333333335,100.6779661016949,27.5244C101.69491525423729,27.463666666666665,102.71186440677965,27.401799999999998,103.72881355932203,27.325999999999997C104.7457627118644,27.250199999999996,105.76271186440678,27.15566666666667,106.77966101694915,27.0696C107.79661016949153,26.983533333333334,108.8135593220339,26.902999999999995,109.83050847457628,26.809599999999996C110.84745762711864,26.716199999999997,111.86440677966102,26.613666666666667,112.88135593220339,26.5092C113.89830508474576,26.404733333333333,114.91525423728814,26.299533333333333,115.9322033898305,26.1828C116.94915254237289,26.066066666666668,117.96610169491525,25.948333333333338,118.98305084745763,25.8088C120,25.66926666666667,121.01694915254237,25.500799999999998,122.03389830508473,25.345599999999997C123.05084745762711,25.190399999999997,124.0677966101695,25.022866666666665,125.08474576271188,24.877599999999997C126.10169491525424,24.732333333333333,127.11864406779662,24.6136,128.135593220339,24.474C129.15254237288136,24.334400000000002,130.16949152542372,24.19233333333333,131.1864406779661,24.04C132.20338983050846,23.887666666666664,133.22033898305085,23.727933333333333,134.23728813559322,23.56C135.25423728813558,23.392066666666665,136.27118644067798,23.21813333333333,137.28813559322035,23.032399999999996C138.3050847457627,22.84666666666666,139.3220338983051,22.6566,140.33898305084747,22.4456C141.35593220338984,22.2346,142.3728813559322,22.026866666666663,143.38983050847457,21.766399999999997C144.40677966101694,21.50593333333333,145.42372881355934,21.21333333333334,146.4406779661017,20.882800000000003C147.45762711864407,20.55226666666667,148.47457627118644,20.1674,149.4915254237288,19.7832C150.50847457627117,19.398999999999997,151.52542372881356,18.992066666666663,152.54237288135593,18.577599999999997C153.5593220338983,18.16313333333333,154.5762711864407,17.722933333333334,155.59322033898306,17.2964C156.61016949152543,16.869866666666667,157.6271186440678,16.44233333333333,158.64406779661016,16.0184C159.66101694915253,15.594466666666666,160.67796610169492,15.1542,161.6949152542373,14.7528C162.71186440677965,14.351400000000002,163.72881355932205,13.969333333333338,164.74576271186442,13.610000000000003C165.76271186440678,13.250666666666671,166.77966101694915,12.909733333333332,167.79661016949152,12.596799999999998C168.81355932203388,12.283866666666663,169.83050847457628,12.004466666666666,170.84745762711864,11.732399999999998C171.864406779661,11.460333333333331,172.8813559322034,11.202799999999998,173.89830508474577,10.964399999999998C174.91525423728814,10.725999999999997,175.93220338983053,10.506066666666664,176.9491525423729,10.301999999999998C177.96610169491527,10.097933333333334,178.98305084745763,9.918966666666668,180,9.740000000000002L180,40C178.98305084745763,40,177.96610169491527,40,176.9491525423729,40C175.93220338983053,40,174.91525423728814,40,173.89830508474577,40C172.8813559322034,40,171.864406779661,40,170.84745762711864,40C169.83050847457628,40,168.81355932203388,40,167.79661016949152,40C166.77966101694915,40,165.76271186440678,40,164.74576271186442,40C163.72881355932205,40,162.71186440677965,40,161.6949152542373,40C160.67796610169492,40,159.66101694915253,40,158.64406779661016,40C157.6271186440678,40,156.61016949152543,40,155.59322033898306,40C154.5762711864407,40,153.5593220338983,40,152.54237288135593,40C151.52542372881356,40,150.50847457627117,40,149.4915254237288,40C148.47457627118644,40,147.45762711864407,40,146.4406779661017,40C145.42372881355934,40,144.40677966101694,40,143.38983050847457,40C142.3728813559322,40,141.35593220338984,40,140.33898305084747,40C139.3220338983051,40,138.3050847457627,40,137.28813559322035,40C136.27118644067798,40,135.25423728813558,40,134.23728813559322,40C133.22033898305085,40,132.20338983050846,40,131.1864406779661,40C130.16949152542372,40,129.15254237288136,40,128.135593220339,40C127.11864406779662,40,126.10169491525424,40,125.08474576271188,40C124.0677966101695,40,123.05084745762711,40,122.03389830508473,40C121.01694915254237,40,120,40,118.98305084745763,40C117.96610169491525,40,116.94915254237289,40,115.9322033898305,40C114.91525423728814,40,113.89830508474576,40,112.88135593220339,40C111.86440677966102,40,110.84745762711864,40,109.83050847457628,40C108.8135593220339,40,107.79661016949153,40,106.77966101694915,40C105.76271186440678,40,104.7457627118644,40,103.72881355932203,40C102.71186440677965,40,101.69491525423729,40,100.6779661016949,40C99.66101694915254,40,98.64406779661016,40,97.62711864406779,40C96.61016949152543,40,95.59322033898306,40,94.57627118644069,40C93.55932203389831,40,92.54237288135593,40,91.52542372881355,40C90.50847457627118,40,89.49152542372882,40,88.47457627118645,40C87.45762711864407,40,86.4406779661017,40,85.42372881355932,40C84.40677966101696,40,83.38983050847457,40,82.37288135593221,40C81.35593220338983,40,80.33898305084746,40,79.32203389830508,40C78.30508474576271,40,77.28813559322033,40,76.27118644067797,40C75.2542372881356,40,74.23728813559322,40,73.22033898305085,40C72.20338983050848,40,71.1864406779661,40,70.16949152542374,40C69.15254237288136,40,68.13559322033899,40,67.11864406779661,40C66.10169491525424,40,65.08474576271186,40,64.0677966101695,40C63.05084745762712,40,62.03389830508474,40,61.01694915254237,40C59.99999999999999,40,58.983050847457626,40,57.96610169491525,40C56.94915254237288,40,55.93220338983051,40,54.91525423728814,40C53.898305084745765,40,52.88135593220339,40,51.86440677966102,40C50.847457627118644,40,49.83050847457627,40,48.813559322033896,40C47.79661016949152,40,46.77966101694915,40,45.762711864406775,40C44.7457627118644,40,43.728813559322035,40,42.71186440677966,40C41.69491525423729,40,40.67796610169491,40,39.66101694915254,40C38.644067796610166,40,37.6271186440678,40,36.610169491525426,40C35.59322033898305,40,34.57627118644068,40,33.559322033898304,40C32.54237288135593,40,31.525423728813557,40,30.508474576271183,40C29.491525423728813,40,28.47457627118644,40,27.45762711864407,40C26.440677966101696,40,25.423728813559322,40,24.406779661016948,40C23.389830508474574,40,22.372881355932204,40,21.35593220338983,40C20.338983050847457,40,19.322033898305087,40,18.305084745762713,40C17.28813559322034,40,16.271186440677965,40,15.254237288135592,40C14.23728813559322,40,13.220338983050846,40,12.203389830508474,40C11.186440677966102,40,10.169491525423728,40,9.152542372881356,40C8.135593220338983,40,7.11864406779661,40,6.101694915254237,40C5.084745762711864,40,4.067796610169491,40,3.0508474576271185,40C2.0338983050847457,40,1.0169491525423728,40,0,40Z"></path><path class="line" stroke="black" fill="none" d="M0,33.5828C1.0169491525423728,33.47,2.0338983050847457,33.35719999999999,3.0508474576271185,33.239999999999995C4.067796610169491,33.1228,5.084745762711864,32.99419999999999,6.101694915254237,32.879599999999996C7.11864406779661,32.76499999999999,8.135593220338983,32.65586666666667,9.152542372881356,32.5524C10.169491525423728,32.448933333333336,11.186440677966102,32.35393333333333,12.203389830508474,32.2588C13.220338983050846,32.16366666666667,14.23728813559322,32.072066666666665,15.254237288135592,31.9816C16.271186440677965,31.891133333333332,17.28813559322034,31.79913333333333,18.305084745762713,31.715999999999998C19.322033898305087,31.632866666666665,20.338983050847457,31.556066666666663,21.35593220338983,31.482799999999997C22.372881355932204,31.409533333333332,23.389830508474574,31.33993333333333,24.406779661016948,31.2764C25.423728813559322,31.212866666666667,26.440677966101696,31.1582,27.45762711864407,31.1016C28.47457627118644,31.045,29.491525423728813,30.992066666666666,30.508474576271183,30.936799999999998C31.525423728813557,30.88153333333333,32.54237288135593,30.82293333333333,33.559322033898304,30.77C34.57627118644068,30.717066666666668,35.59322033898305,30.6668,36.610169491525426,30.6192C37.6271186440678,30.5716,38.644067796610166,30.526266666666668,39.66101694915254,30.4844C40.67796610169491,30.442533333333333,41.69491525423729,30.404333333333334,42.71186440677966,30.368C43.728813559322035,30.331666666666667,44.7457627118644,30.300266666666666,45.762711864406775,30.2664C46.77966101694915,30.232533333333333,47.79661016949152,30.199333333333332,48.813559322033896,30.1648C49.83050847457627,30.130266666666667,50.847457627118644,30.099866666666667,51.86440677966102,30.0592C52.88135593220339,30.018533333333334,53.898305084745765,29.967066666666668,54.91525423728814,29.9208C55.93220338983051,29.874533333333332,56.94915254237288,29.83073333333333,57.96610169491525,29.781599999999997C58.983050847457626,29.732466666666664,59.99999999999999,29.680533333333333,61.01694915254237,29.626C62.03389830508474,29.57146666666667,63.05084745762712,29.515866666666668,64.0677966101695,29.4544C65.08474576271186,29.392933333333332,66.10169491525424,29.324,67.11864406779661,29.2572C68.13559322033899,29.1904,69.15254237288136,29.119333333333334,70.16949152542374,29.0536C71.1864406779661,28.987866666666665,72.20338983050848,28.9242,73.22033898305085,28.8628C74.23728813559322,28.8014,75.2542372881356,28.743133333333336,76.27118644067797,28.685200000000002C77.28813559322033,28.627266666666667,78.30508474576271,28.567533333333333,79.32203389830508,28.5152C80.33898305084746,28.462866666666667,81.35593220338983,28.418533333333336,82.37288135593221,28.3712C83.38983050847457,28.323866666666667,84.40677966101696,28.276200000000003,85.42372881355932,28.2312C86.4406779661017,28.1862,87.45762711864407,28.1408,88.47457627118645,28.1012C89.49152542372882,28.0616,90.50847457627118,28.039,91.52542372881355,27.9936C92.54237288135593,27.9482,93.55932203389831,27.879333333333335,94.57627118644069,27.8288C95.59322033898306,27.778266666666667,96.61016949152543,27.741133333333334,97.62711864406779,27.6904C98.64406779661016,27.639666666666667,99.66101694915254,27.585133333333335,100.6779661016949,27.5244C101.69491525423729,27.463666666666665,102.71186440677965,27.401799999999998,103.72881355932203,27.325999999999997C104.7457627118644,27.250199999999996,105.76271186440678,27.15566666666667,106.77966101694915,27.0696C107.79661016949153,26.983533333333334,108.8135593220339,26.902999999999995,109.83050847457628,26.809599999999996C110.84745762711864,26.716199999999997,111.86440677966102,26.613666666666667,112.88135593220339,26.5092C113.89830508474576,26.404733333333333,114.91525423728814,26.299533333333333,115.9322033898305,26.1828C116.94915254237289,26.066066666666668,117.96610169491525,25.948333333333338,118.98305084745763,25.8088C120,25.66926666666667,121.01694915254237,25.500799999999998,122.03389830508473,25.345599999999997C123.05084745762711,25.190399999999997,124.0677966101695,25.022866666666665,125.08474576271188,24.877599999999997C126.10169491525424,24.732333333333333,127.11864406779662,24.6136,128.135593220339,24.474C129.15254237288136,24.334400000000002,130.16949152542372,24.19233333333333,131.1864406779661,24.04C132.20338983050846,23.887666666666664,133.22033898305085,23.727933333333333,134.23728813559322,23.56C135.25423728813558,23.392066666666665,136.27118644067798,23.21813333333333,137.28813559322035,23.032399999999996C138.3050847457627,22.84666666666666,139.3220338983051,22.6566,140.33898305084747,22.4456C141.35593220338984,22.2346,142.3728813559322,22.026866666666663,143.38983050847457,21.766399999999997C144.40677966101694,21.50593333333333,145.42372881355934,21.21333333333334,146.4406779661017,20.882800000000003C147.45762711864407,20.55226666666667,148.47457627118644,20.1674,149.4915254237288,19.7832C150.50847457627117,19.398999999999997,151.52542372881356,18.992066666666663,152.54237288135593,18.577599999999997C153.5593220338983,18.16313333333333,154.5762711864407,17.722933333333334,155.59322033898306,17.2964C156.61016949152543,16.869866666666667,157.6271186440678,16.44233333333333,158.64406779661016,16.0184C159.66101694915253,15.594466666666666,160.67796610169492,15.1542,161.6949152542373,14.7528C162.71186440677965,14.351400000000002,163.72881355932205,13.969333333333338,164.74576271186442,13.610000000000003C165.76271186440678,13.250666666666671,166.77966101694915,12.909733333333332,167.79661016949152,12.596799999999998C168.81355932203388,12.283866666666663,169.83050847457628,12.004466666666666,170.84745762711864,11.732399999999998C171.864406779661,11.460333333333331,172.8813559322034,11.202799999999998,173.89830508474577,10.964399999999998C174.91525423728814,10.725999999999997,175.93220338983053,10.506066666666664,176.9491525423729,10.301999999999998C177.96610169491527,10.097933333333334,178.98305084745763,9.918966666666668,180,9.740000000000002"></path><path class="axis-ceiling" stroke-width="1" stroke="black" fill="none" d="M175,0L180,0"></path><text class="axis-ceiling-label" font-family="sans-serif" text-anchor="end" font-size="10px" x="170" y="2.5">100000</text></g></svg>