<svg xmlns="http://www.w3.org/2000/svg" viewBox="0 0 180 60"><g transform="translate(0,20)"><path class="area" fill="rgba(0, 0, 0, 0.2)" d="M0,24.0809968847352C1.0169491525423728,25.88785046728972,2.0338983050847457,27.69470404984424,3.0508474576271185,27.69470404984424C4.067796610169491,27.69470404984424,5.084745762711864,19.90654205607477,6.101694915254237,19.844236760124613C7.11864406779661,19.781931464174455,8.135593220338983,19.75077881619938,9.152542372881356,19.75077881619938C10.169491525423728,19.75077881619938,11.186440677966102,20.934579439252335,12.203389830508474,21.651090342679126C13.220338983050846,22.367601246105917,14.23728813559322,24.049844236760123,15.254237288135592,24.049844236760123C16.271186440677965,24.049844236760123,17.28813559322034,15.077881619937695,18.305084745762713,15.077881619937695C19.322033898305087,15.077881619937695,20.338983050847457,17.757009345794394,21.35593220338983,17.757009345794394C22.372881355932204,17.757009345794394,23.389830508474574,15.825545171339567,24.406779661016948,15.825545171339567C25.423728813559322,15.825545171339567,26.440677966101696,19.781931464174455,27.45762711864407,19.781931464174455C28.47457627118644,19.781931464174455,29.491525423728813,18.7331256490135,30.508474576271183,16.635514018691588C31.525423728813557,14.53790238836967,32.54237288135593,2.149532710280373,33.559322033898304,2.149532710280373C34.57627118644068,2.149532710280373,35.59322033898305,32.99065420560748,36.610169491525426,32.99065420560748C37.6271186440678,32.99065420560748,38.644067796610166,8.348909657320874,39.66101694915254,8.348909657320874C40.67796610169491,8.348909657320874,41.69491525423729,29.781931464174455,42.71186440677966,29.781931464174455C43.728813559322035,29.781931464174455,44.7457627118644,14.174454828660433,45.762711864406775,14.174454828660433C46.77966101694915,14.174454828660433,47.79661016949152,15.69055036344756,48.813559322033896,15.919003115264797C49.83050847457627,16.147455867082034,50.847457627118644,16.261682242990652,51.86440677966102,16.261682242990652C52.88135593220339,16.261682242990652,53.898305084745765,11.464174454828662,54.91525423728814,11.464174454828662C55.93220338983051,11.464174454828662,56.94915254237288,17.725856697819317,57.96610169491525,17.725856697819317C58.983050847457626,17.725856697819317,59.99999999999999,16.60436137071651,61.01694915254237,16.60436137071651C62.03389830508474,16.60436137071651,63.05084745762712,40,64.0677966101695,40C65.08474576271186,40,66.10169491525424,0.778816199376946,67.11864406779661,0.778816199376946C68.13559322033899,0.778816199376946,69.15254237288136,11.100726895119404,70.16949152542374,13.302180685358254C71.1864406779661,15.503634475597092,72.20338983050848,16.60436137071651,73.22033898305085,16.60436137071651C74.23728813559322,16.60436137071651,75.2542372881356,12.36760124610592,76.27118644067797,12.36760124610592C77.28813559322033,12.36760124610592,78.30508474576271,13.894080996884735,79.32203389830508,13.894080996884735C80.33898305084746,13.894080996884735,81.35593220338983,12.118380062305295,82.37288135593221,12.118380062305295C83.38983050847457,12.118380062305295,84.40677966101696,17.07165109034268,85.42372881355932,17.07165109034268C86.4406779661017,17.07165109034268,87.45762711864407,14.57943925233645,88.47457627118645,14.57943925233645C89.49152542372882,14.57943925233645,90.50847457627118,17.38317757009346,91.52542372881355,17.38317757009346C92.54237288135593,17.38317757009346,93.55932203389831,15.30114226375909,94.57627118644069,14.57943925233645C95.59322033898306,13.85773624091382,96.61016949152543,13.05295950155763,97.62711864406779,13.05295950155763C98.64406779661016,13.05295950155763,99.66101694915254,17.28971962616822,100.6779661016949,17.28971962616822C101.69491525423729,17.28971962616822,102.71186440677965,12.06645898234684,103.72881355932203,11.713395638629285C104.7457627118644,11.360332294911732,105.76271186440678,11.183800623052957,106.77966101694915,11.183800623052957C107.79661016949153,11.183800623052957,108.8135593220339,11.728971962616821,109.83050847457628,12.36760124610592C110.84745762711864,13.006230529595017,111.86440677966102,15.015576323987538,112.88135593220339,15.015576323987538C113.89830508474576,15.015576323987538,114.91525423728814,14.485981308411215,115.9322033898305,14.485981308411215C116.94915254237289,14.485981308411215,117.96610169491525,14.517133956386292,118.98305084745763,14.517133956386292C120,14.517133956386292,121.01694915254237,14.08618899273105,122.03389830508473,13.862928348909659C123.05084745762711,13.639667705088264,124.0677966101695,13.177570093457941,125.08474576271188,13.177570093457941C126.10169491525424,13.177570093457941,127.11864406779662,13.64485981308411,128.135593220339,13.64485981308411C129.15254237288136,13.64485981308411,130.16949152542372,12.83489096573209,131.1864406779661,12.83489096573209C132.20338983050846,12.83489096573209,133.22033898305085,13.97196261682243,134.23728813559322,14.922118380062305C135.25423728813558,15.87227414330218,136.27118644067798,18.53582554517134,137.28813559322035,18.53582554517134C138.3050847457627,18.53582554517134,139.3220338983051,17.814122533748712,140.33898305084747,16.94704049844237C141.35593220338984,16.079958463136037,142.3728813559322,13.894080996884734,143.38983050847457,13.333333333333336C144.40677966101694,12.772585669781932,145.42372881355934,13.052959501557634,146.4406779661017,12.49221183800623C147.45762711864407,11.931464174454833,148.47457627118644,9.740394600207676,149.4915254237288,9.158878504672895C150.50847457627117,8.577362409138109,151.52542372881356,8.286604361370715,152.54237288135593,8.286604361370715C153.5593220338983,8.286604361370715,154.5762711864407,13.977154724818272,155.59322033898306,14.26791277258567C156.61016949152543,14.558670820353065,157.6271186440678,14.704049844236762,158.64406779661016,14.704049844236762C159.66101694915253,14.704049844236762,160.67796610169492,7.788161993769469,161.6949152542373,7.788161993769469C162.71186440677965,7.788161993769469,163.72881355932205,11.806853582554515,164.74576271186442,11.806853582554515C165.76271186440678,11.806853582554515,166.77966101694915,5.202492211838008,167.79661016949152,5.202492211838008C168.81355932203388,5.202492211838008,169.83050847457628,7.788161993769469,170.84745762711864,7.788161993769469C171.864406779661,7.788161993769469,172.8813559322034,5.2647975077881615,173.89830508474577,5.2647975077881615C174.91525423728814,5.2647975077881615,175.93220338983053,8.701973001038414,176.9491525423729,10.155763239875387C177.96610169491527,11.609553478712346,178.98305084745763,12.798546209761158,180,13.98753894080997L180,40C178.98305084745763,40,177.96610169491527,40,176.9491525423729,40C175.93220338983053,40,174.91525423728814,40,173.89830508474577,40C172.8813559322034,40,171.864406779661,40,170.84745762711864,40C169.83050847457628,40,168.81355932203388,40,167.79661016949152,40C166.77966101694915,40,165.76271186440678,40,164.74576271186442,40C163.72881355932205,40,162.71186440677965,40,161.6949152542373,40C160.67796610169492,40,159.66101694915253,40,158.64406779661016,40C157.6271186440678,40,156.61016949152543,40,155.59322033898306,40C154.5762711864407,40,153.5593220338983,40,152.54237288135593,40C151.52542372881356,40,150.50847457627117,40,149.4915254237288,40C148.47457627118644,40,147.45762711864407,40,146.4406779661017,40C145.42372881355934,40,144.40677966101694,40,143.38983050847457,40C142.3728813559322,40,141.35593220338984,40,140.33898305084747,40C139.3220338983051,40,138.3050847457627,40,137.28813559322035,40C136.27118644067798,40,135.25423728813558,40,134.23728813559322,40C133.22033898305085,40,132.20338983050846,40,131.1864406779661,40C130.16949152542372,40,129.15254237288136,40,128.135593220339,40C127.11864406779662,40,126.10169491525424,40,125.08474576271188,40C124.0677966101695,40,123.05084745762711,40,122.03389830508473,40C121.01694915254237,40,120,40,118.98305084745763,40C117.96610169491525,40,116.94915254237289,40,115.9322033898305,40C114.91525423728814,40,113.89830508474576,40,112.88135593220339,40C111.86440677966102,40,110.84745762711864,40,109.83050847457628,40C108.8135593220339,40,107.79661016949153,40,106.77966101694915,40C105.76271186440678,40,104.7457627118644,40,103.72881355932203,40C102.71186440677965,40,101.69491525423729,40,100.6779661016949,40C99.66101694915254,40,98.64406779661016,40,97.62711864406779,40C96.61016949152543,40,95.59322033898306,40,94.57627118644069,40C93.55932203389831,40,92.54237288135593,40,91.52542372881355,40C90.50847457627118,40,89.49152542372882,40,88.47457627118645,40C87.45762711864407,40,86.4406779661017,40,85.42372881355932,40C84.40677966101696,40,83.38983050847457,40,82.37288135593221,40C81.35593220338983,40,80.33898305084746,40,79.32203389830508,40C78.30508474576271,40,77.28813559322033,40,76.27118644067797,40C75.2542372881356,40,74.23728813559322,40,73.22033898305085,40C72.20338983050848,40,71.1864406779661,40,70.16949152542374,40C69.15254237288136,40,68.13559322033899,40,67.11864406779661,40C66.10169491525424,40,65.08474576271186,40,64.0677966101695,40C63.05084745762712,40,62.03389830508474,40,61.01694915254237,40C59.99999999999999,40,58.983050847457626,40,57.96610169491525,40C56.94915254237288,40,55.93220338983051,40,54.91525423728814,40C53.898305084745765,40,52.88135593220339,40,51.86440677966102,40C50.847457627118644,40,49.83050847457627,40,48.813559322033896,40C47.79661016949152,40,46.77966101694915,40,45.762711864406775,40C44.7457627118644,40,43.728813559322035,40,42.71186440677966,40C41.69491525423729,40,40.67796610169491,40,39.66101694915254,40C38.644067796610166,40,37.6271186440678,40,36.610169491525426,40C35.59322033898305,40,34.57627118644068,40,33.559322033898304,40C32.54237288135593,40,31.525423728813557,40,30.508474576271183,40C29.491525423728813,40,28.47457627118644,40,27.45762711864407,40C26.440677966101696,40,25.423728813559322,40,24.406779661016948,40C23.389830508474574,40,22.372881355932204,40,21.35593220338983,40C20.338983050847457,40,19.322033898305087,40,18.305084745762713,40C17.28813559322034,40,16.271186440677965,40,15.254237288135592,40C14.23728813559322,40,13.220338983050846,40,12.203389830508474,40C11.186440677966102,40,10.169491525423728,40,9.152542372881356,40C8.135593220338983,40,7.11864406779661,40,6.101694915254237,40C5.084745762711864,40,4.067796610169491,40,3.0508474576271185,40C2.0338983050847457,40,1.0169491525423728,40,0,40Z"></path><path class="line" stroke="black" fill="none" d="M0,24.0809968847352C1.0169491525423728,25.88785046728972,2.0338983050847457,27.69470404984424,3.0508474576271185,27.69470404984424C4.067796610169491,27.69470404984424,5.084745762711864,19.90654205607477,6.101694915254237,19.844236760124613C7.11864406779661,19.781931464174455,8.135593220338983,19.75077881619938,9.152542372881356,19.75077881619938C10.169491525423728,19.75077881619938,11.186440677966102,20.934579439252335,12.203389830508474,21.651090342679126C13.220338983050846,22.367601246105917,14.23728813559322,24.049844236760123,15.254237288135592,24.049844236760123C16.271186440677965,24.049844236760123,17.28813559322034,15.077881619937695,18.305084745762713,15.077881619937695C19.322033898305087,15.077881619937695,20.338983050847457,17.757009345794394,21.35593220338983,17.757009345794394C22.372881355932204,17.757009345794394,23.389830508474574,15.825545171339567,24.406779661016948,15.825545171339567C25.423728813559322,15.825545171339567,26.440677966101696,19.781931464174455,27.45762711864407,19.781931464174455C28.47457627118644,19.781931464174455,29.491525423728813,18.7331256490135,30.508474576271183,16.635514018691588C31.525423728813557,14.53790238836967,32.54237288135593,2.149532710280373,33.559322033898304,2.149532710280373C34.57627118644068,2.149532710280373,35.59322033898305,32.99065420560748,36.610169491525426,32.99065420560748C37.6271186440678,32.99065420560748,38.644067796610166,8.348909657320874,39.66101694915254,8.348909657320874C40.67796610169491,8.348909657320874,41.69491525423729,29.781931464174455,42.71186440677966,29.781931464174455C43.728813559322035,29.781931464174455,44.7457627118644,14.174454828660433,45.762711864406775,14.174454828660433C46.77966101694915,14.174454828660433,47.79661016949152,15.69055036344756,48.813559322033896,15.919003115264797C49.83050847457627,16.147455867082034,50.847457627118644,16.261682242990652,51.86440677966102,16.261682242990652C52.88135593220339,16.261682242990652,53.898305084745765,11.464174454828662,54.91525423728814,11.464174454828662C55.93220338983051,11.464174454828662,56.94915254237288,17.725856697819317,57.96610169491525,17.725856697819317C58.983050847457626,17.725856697819317,59.99999999999999,16.60436137071651,61.01694915254237,16.60436137071651C62.03389830508474,16.60436137071651,63.05084745762712,40,64.0677966101695,40C65.08474576271186,40,66.10169491525424,0.778816199376946,67.11864406779661,0.778816199376946C68.13559322033899,0.778816199376946,69.15254237288136,11.100726895119404,70.16949152542374,13.302180685358254C71.1864406779661,15.503634475597092,72.20338983050848,16.60436137071651,73.22033898305085,16.60436137071651C74.23728813559322,16.60436137071651,75.2542372881356,12.36760124610592,76.27118644067797,12.36760124610592C77.28813559322033,12.36760124610592,78.30508474576271,13.894080996884735,79.32203389830508,13.894080996884735C80.33898305084746,13.894080996884735,81.35593220338983,12.118380062305295,82.37288135593221,12.118380062305295C83.38983050847457,12.118380062305295,84.40677966101696,17.07165109034268,85.42372881355932,17.07165109034268C86.4406779661017,17.07165109034268,87.45762711864407,14.57943925233645,88.47457627118645,14.57943925233645C89.49152542372882,14.57943925233645,90.50847457627118,17.38317757009346,91.52542372881355,17.38317757009346C92.54237288135593,17.38317757009346,93.55932203389831,15.30114226375909,94.57627118644069,14.57943925233645C95.59322033898306,13.85773624091382,96.61016949152543,13.05295950155763,97.62711864406779,13.05295950155763C98.64406779661016,13.05295950155763,99.66101694915254,17.28971962616822,100.6779661016949,17.28971962616822C101.69491525423729,17.28971962616822,102.71186440677965,12.06645898234684,103.72881355932203,11.713395638629285C104.7457627118644,11.360332294911732,105.76271186440678,11.183800623052957,106.77966101694915,11.183800623052957C107.79661016949153,11.183800623052957,108.8135593220339,11.728971962616821,109.83050847457628,12.36760124610592C110.84745762711864,13.006230529595017,111.86440677966102,15.015576323987538,112.88135593220339,15.015576323987538C113.89830508474576,15.015576323987538,114.91525423728814,14.485981308411215,115.9322033898305,14.485981308411215C116.94915254237289,14.485981308411215,117.96610169491525,14.517133956386292,118.98305084745763,14.517133956386292C120,14.517133956386292,121.01694915254237,14.08618899273105,122.03389830508473,13.862928348909659C123.05084745762711,13.639667705088264,124.0677966101695,13.177570093457941,125.08474576271188,13.177570093457941C126.10169491525424,13.177570093457941,127.11864406779662,13.64485981308411,128.135593220339,13.64485981308411C129.15254237288136,13.64485981308411,130.16949152542372,12.83489096573209,131.1864406779661,12.83489096573209C132.20338983050846,12.83489096573209,133.22033898305085,13.97196261682243,134.23728813559322,14.922118380062305C135.25423728813558,15.87227414330218,136.27118644067798,18.53582554517134,137.28813559322035,18.53582554517134C138.3050847457627,18.53582554517134,139.3220338983051,17.814122533748712,140.33898305084747,16.94704049844237C141.35593220338984,16.079958463136037,142.3728813559322,13.894080996884734,143.38983050847457,13.333333333333336C144.40677966101694,12.772585669781932,145.42372881355934,13.052959501557634,146.4406779661017,12.49221183800623C147.45762711864407,11.931464174454833,148.47457627118644,9.740394600207676,149.4915254237288,9.158878504672895C150.50847457627117,8.577362409138109,151.52542372881356,8.286604361370715,152.54237288135593,8.286604361370715C153.5593220338983,8.286604361370715,154.5762711864407,13.977154724818272,155.59322033898306,14.26791277258567C156.61016949152543,14.558670820353065,157.6271186440678,14.704049844236762,158.64406779661016,14.704049844236762C159.66101694915253,14.704049844236762,160.67796610169492,7.788161993769469,161.6949152542373,7.788161993769469C162.71186440677965,7.788161993769469,163.72881355932205,11.806853582554515,164.74576271186442,11.806853582554515C165.76271186440678,11.806853582554515,166.77966101694915,5.202492211838008,167.79661016949152,5.202492211838008C168.81355932203388,5.202492211838008,169.83050847457628,7.788161993769469,170.84745762711864,7.788161993769469C171.864406779661,7.788161993769469,172.8813559322034,5.2647975077881615,173.89830508474577,5.2647975077881615C174.91525423728814,5.2647975077881615,175.93220338983053,8.701973001038414,176.9491525423729,10.155763239875387C177.96610169491527,11.609553478712346,178.98305084745763,12.798546209761158,180,13.98753894080997"></path><path class="axis-ceiling" stroke-width="1" stroke="black" fill="none" d="M175,0L180,0"></path><text class="axis-ceiling-label" font-family="sans-serif" text-anchor="end" font-size="10px" x="170" y="2.5">450</text></g></svg>