<svg xmlns="http://www.w3.org/2000/svg" viewBox="0 0 180 60"><g transform="translate(0,20)"><path class="area" fill="rgba(0, 0, 0, 0.2)" d="M0,4.51117183732519C1.0169491525423728,4.112736430370251,2.0338983050847457,3.7143010234153127,3.0508474576271185,3.2914322456196743C4.067796610169491,2.868563467824036,5.084745762711864,2.1719980710496736,6.101694915254237,1.9739591705513604C7.11864406779661,1.775920270053047,8.135593220338983,1.6769008198038904,9.152542372881356,1.6769008198038904C10.169491525423728,1.6769008198038904,11.186440677966102,1.7090499919627078,12.203389830508474,1.7733483362803426C13.220338983050846,1.8376466805979774,14.23728813559322,2.2704817017628454,15.254237288135592,2.507635428387718C16.271186440677965,2.7447891550125902,17.28813559322034,3.1962706960295773,18.305084745762713,3.1962706960295773C19.322033898305087,3.1962706960295773,20.338983050847457,3.16412152387076,21.35593220338983,3.16412152387076C22.372881355932204,3.16412152387076,23.389830508474574,3.4092053796281414,24.406779661016948,3.640572255264427C25.423728813559322,3.871939130900713,26.440677966101696,4.211541552805016,27.45762711864407,4.552322777688476C28.47457627118644,4.893104002571934,29.491525423728813,5.26764185822215,30.508474576271183,5.68525960456518C31.525423728813557,6.102877350908212,32.54237288135593,6.564003643572845,33.559322033898304,7.058029255746665C34.57627118644068,7.552054867920485,35.59322033898305,8.174355677007982,36.610169491525426,8.649413277608101C37.6271186440678,9.124470878208218,38.644067796610166,9.344371215774528,39.66101694915254,9.908374859347372C40.67796610169491,10.472378502920218,41.69491525423729,11.357552376359642,42.71186440677966,12.03343513904517C43.728813559322035,12.709317901730698,44.7457627118644,13.27289288967476,45.762711864406775,13.963671435460538C46.77966101694915,14.65444998124632,47.79661016949152,14.942399399882124,48.813559322033896,16.17810641375985C49.83050847457627,17.413813427637574,50.847457627118644,20.41901087713658,51.86440677966102,21.377913518726892C52.88135593220339,22.336816160317206,53.898305084745765,22.064512672132025,54.91525423728814,22.816267481112362C55.93220338983051,23.5680222900927,56.94915254237288,25.072496383218134,57.96610169491525,25.888442372608907C58.983050847457626,26.70438836199968,59.99999999999999,27.19948561324546,61.01694915254237,27.711943417457C62.03389830508474,28.224401221668543,63.05084745762712,28.575791673364414,64.0677966101695,28.963189197878158C65.08474576271186,29.350586722391903,66.10169491525424,29.489363982210797,67.11864406779661,30.036328564539467C68.13559322033899,30.583293146868137,69.15254237288136,32.244976691850184,70.16949152542374,32.244976691850184C71.1864406779661,32.244976691850184,72.20338983050848,32.13952740716926,73.22033898305085,32.13952740716926C74.23728813559322,32.13952740716926,75.2542372881356,33.61903230991802,76.27118644067797,33.61903230991802C77.28813559322033,33.61903230991802,78.30508474576271,32.70085195306221,79.32203389830508,32.70085195306221C80.33898305084746,32.70085195306221,81.35593220338983,33.480255050099125,82.37288135593221,33.89808712425655C83.38983050847457,34.31591919841397,84.40677966101696,34.61662112200611,85.42372881355932,35.20784439800675C86.4406779661017,35.79906767400739,87.45762711864407,36.74221722123988,88.47457627118645,37.445426780260405C89.49152542372882,38.14863633928092,90.50847457627118,39.42710175212988,91.52542372881355,39.42710175212988C92.54237288135593,39.42710175212988,93.55932203389831,39.13261533515512,94.57627118644069,39.13261533515512C95.59322033898306,39.13261533515512,96.61016949152543,39.13432995767026,97.62711864406779,39.13775920270053C98.64406779661016,39.1411884477308,99.66101694915254,39.4483202057547,100.6779661016949,39.4483202057547C101.69491525423729,39.4483202057547,102.71186440677965,38.802121845362485,103.72881355932203,38.802121845362485C104.7457627118644,38.802121845362485,105.76271186440678,39.113968815303004,106.77966101694915,39.113968815303004C107.79661016949153,39.113968815303004,108.8135593220339,38.77082998446124,109.83050847457628,38.53785565021701C110.84745762711864,38.304881315972786,111.86440677966102,37.907624711996995,112.88135593220339,37.71612280983764C113.89830508474576,37.52462090767829,114.91525423728814,37.38884423726089,115.9322033898305,37.38884423726089C116.94915254237289,37.38884423726089,117.96610169491525,38.005465359267,118.98305084745763,38.005465359267C120,38.005465359267,121.01694915254237,37.78685098858704,122.03389830508473,37.78685098858704C123.05084745762711,37.78685098858704,124.0677966101695,38.65102073621604,125.08474576271188,38.65102073621604C126.10169491525424,38.65102073621604,127.11864406779662,38.22654449981247,128.135593220339,38.06461983603923C129.15254237288136,37.902695172265986,130.16949152542372,37.924127953705195,131.1864406779661,37.6794727535766C132.20338983050846,37.434817553448,133.22033898305085,36.59668863526764,134.23728813559322,36.59668863526764C135.25423728813558,36.59668863526764,136.27118644067798,36.98440765150298,137.28813559322035,36.98440765150298C138.3050847457627,36.98440765150298,139.3220338983051,36.08037293039704,140.33898305084747,36.08037293039704C141.35593220338984,36.08037293039704,142.3728813559322,36.58125703263141,143.38983050847457,36.58125703263141C144.40677966101694,36.58125703263141,145.42372881355934,35.79510260944114,146.4406779661017,35.686224079729946C147.45762711864407,35.577345550018755,148.47457627118644,35.52290628516316,149.4915254237288,35.52290628516316C150.50847457627117,35.52290628516316,151.52542372881356,35.920805872582115,152.54237288135593,36.063655360874456C153.5593220338983,36.2065048491668,154.5762711864407,36.38000321491722,155.59322033898306,36.38000321491722C156.61016949152543,36.38000321491722,157.6271186440678,35.795531265069926,158.64406779661016,35.795531265069926C159.66101694915253,35.795531265069926,160.67796610169492,36.40958045330333,161.6949152542373,36.40958045330333C162.71186440677965,36.40958045330333,163.72881355932205,36.03086320527246,164.74576271186442,36.03086320527246C165.76271186440678,36.03086320527246,166.77966101694915,37.61399560627981,167.79661016949152,38.127632213470505C168.81355932203388,38.64126882066121,169.83050847457628,39.07281787493972,170.84745762711864,39.112682848416654C171.864406779661,39.152547821893585,172.8813559322034,39.17248030863205,173.89830508474577,39.17248030863205C174.91525423728814,39.17248030863205,175.93220338983053,37.97588812088088,176.9491525423729,37.97588812088088C177.96610169491527,37.97588812088088,178.98305084745763,38.98794406044044,180,40L180,40C178.98305084745763,40,177.96610169491527,40,176.9491525423729,40C175.93220338983053,40,174.91525423728814,40,173.89830508474577,40C172.8813559322034,40,171.864406779661,40,170.84745762711864,40C169.83050847457628,40,168.81355932203388,40,167.79661016949152,40C166.77966101694915,40,165.76271186440678,40,164.74576271186442,40C163.72881355932205,40,162.71186440677965,40,161.6949152542373,40C160.67796610169492,40,159.66101694915253,40,158.64406779661016,40C157.6271186440678,40,156.61016949152543,40,155.59322033898306,40C154.5762711864407,40,153.5593220338983,40,152.54237288135593,40C151.52542372881356,40,150.50847457627117,40,149.4915254237288,40C148.47457627118644,40,147.45762711864407,40,146.4406779661017,40C145.42372881355934,40,144.40677966101694,40,143.38983050847457,40C142.3728813559322,40,141.35593220338984,40,140.33898305084747,40C139.3220338983051,40,138.3050847457627,40,137.28813559322035,40C136.27118644067798,40,135.25423728813558,40,134.23728813559322,40C133.22033898305085,40,132.20338983050846,40,131.1864406779661,40C130.16949152542372,40,129.15254237288136,40,128.135593220339,40C127.11864406779662,40,126.10169491525424,40,125.08474576271188,40C124.0677966101695,40,123.05084745762711,40,122.03389830508473,40C121.01694915254237,40,120,40,118.98305084745763,40C117.96610169491525,40,116.94915254237289,40,115.9322033898305,40C114.91525423728814,40,113.89830508474576,40,112.88135593220339,40C111.86440677966102,40,110.84745762711864,40,109.83050847457628,40C108.8135593220339,40,107.79661016949153,40,106.77966101694915,40C105.76271186440678,40,104.7457627118644,40,103.72881355932203,40C102.71186440677965,40,101.69491525423729,40,100.6779661016949,40C99.66101694915254,40,98.64406779661016,40,97.62711864406779,40C96.61016949152543,40,95.59322033898306,40,94.57627118644069,40C93.55932203389831,40,92.54237288135593,40,91.52542372881355,40C90.50847457627118,40,89.49152542372882,40,88.47457627118645,40C87.45762711864407,40,86.4406779661017,40,85.42372881355932,40C84.40677966101696,40,83.38983050847457,40,82.37288135593221,40C81.35593220338983,40,80.33898305084746,40,79.32203389830508,40C78.30508474576271,40,77.28813559322033,40,76.27118644067797,40C75.2542372881356,40,74.23728813559322,40,73.22033898305085,40C72.20338983050848,40,71.1864406779661,40,70.16949152542374,40C69.15254237288136,40,68.13559322033899,40,67.11864406779661,40C66.10169491525424,40,65.08474576271186,40,64.0677966101695,40C63.05084745762712,40,62.03389830508474,40,61.01694915254237,40C59.99999999999999,40,58.983050847457626,40,57.96610169491525,40C56.94915254237288,40,55.93220338983051,40,54.91525423728814,40C53.898305084745765,40,52.88135593220339,40,51.86440677966102,40C50.847457627118644,40,49.83050847457627,40,48.813559322033896,40C47.79661016949152,40,46.77966101694915,40,45.762711864406775,40C44.7457627118644,40,43.728813559322035,40,42.71186440677966,40C41.69491525423729,40,40.67796610169491,40,39.66101694915254,40C38.644067796610166,40,37.6271186440678,40,36.610169491525426,40C35.59322033898305,40,34.57627118644068,40,33.559322033898304,40C32.54237288135593,40,31.525423728813557,40,30.508474576271183,40C29.491525423728813,40,28.47457627118644,40,27.45762711864407,40C26.440677966101696,40,25.423728813559322,40,24.406779661016948,40C23.389830508474574,40,22.372881355932204,40,21.35593220338983,40C20.338983050847457,40,19.322033898305087,40,18.305084745762713,40C17.28813559322034,40,16.271186440677965,40,15.254237288135592,40C14.23728813559322,40,13.220338983050846,40,12.203389830508474,40C11.186440677966102,40,10.169491525423728,40,9.152542372881356,40C8.135593220338983,40,7.11864406779661,40,6.101694915254237,40C5.084745762711864,40,4.067796610169491,40,3.0508474576271185,40C2.0338983050847457,40,1.0169491525423728,40,0,40Z"></path><path class="line" stroke="black" fill="none" d="M0,4.51117183732519C1.0169491525423728,4.112736430370251,2.0338983050847457,3.7143010234153127,3.0508474576271185,3.2914322456196743C4.067796610169491,2.868563467824036,5.084745762711864,2.1719980710496736,6.101694915254237,1.9739591705513604C7.11864406779661,1.775920270053047,8.135593220338983,1.6769008198038904,9.152542372881356,1.6769008198038904C10.169491525423728,1.6769008198038904,11.186440677966102,1.7090499919627078,12.203389830508474,1.7733483362803426C13.220338983050846,1.8376466805979774,14.23728813559322,2.2704817017628454,15.254237288135592,2.507635428387718C16.271186440677965,2.7447891550125902,17.28813559322034,3.1962706960295773,18.305084745762713,3.1962706960295773C19.322033898305087,3.1962706960295773,20.338983050847457,3.16412152387076,21.35593220338983,3.16412152387076C22.372881355932204,3.16412152387076,23.389830508474574,3.4092053796281414,24.406779661016948,3.640572255264427C25.423728813559322,3.871939130900713,26.440677966101696,4.211541552805016,27.45762711864407,4.552322777688476C28.47457627118644,4.893104002571934,29.491525423728813,5.26764185822215,30.508474576271183,5.68525960456518C31.525423728813557,6.102877350908212,32.54237288135593,6.564003643572845,33.559322033898304,7.058029255746665C34.57627118644068,7.552054867920485,35.59322033898305,8.174355677007982,36.610169491525426,8.649413277608101C37.6271186440678,9.124470878208218,38.644067796610166,9.344371215774528,39.66101694915254,9.908374859347372C40.67796610169491,10.472378502920218,41.69491525423729,11.357552376359642,42.71186440677966,12.03343513904517C43.728813559322035,12.709317901730698,44.7457627118644,13.27289288967476,45.762711864406775,13.963671435460538C46.77966101694915,14.65444998124632,47.79661016949152,14.942399399882124,48.813559322033896,16.17810641375985C49.83050847457627,17.413813427637574,50.847457627118644,20.41901087713658,51.86440677966102,21.377913518726892C52.88135593220339,22.336816160317206,53.898305084745765,22.064512672132025,54.91525423728814,22.816267481112362C55.93220338983051,23.5680222900927,56.94915254237288,25.072496383218134,57.96610169491525,25.888442372608907C58.983050847457626,26.70438836199968,59.99999999999999,27.19948561324546,61.01694915254237,27.711943417457C62.03389830508474,28.224401221668543,63.05084745762712,28.575791673364414,64.0677966101695,28.963189197878158C65.08474576271186,29.350586722391903,66.10169491525424,29.489363982210797,67.11864406779661,30.036328564539467C68.13559322033899,30.583293146868137,69.15254237288136,32.244976691850184,70.16949152542374,32.244976691850184C71.1864406779661,32.244976691850184,72.20338983050848,32.13952740716926,73.22033898305085,32.13952740716926C74.23728813559322,32.13952740716926,75.2542372881356,33.61903230991802,76.27118644067797,33.61903230991802C77.28813559322033,33.61903230991802,78.30508474576271,32.70085195306221,79.32203389830508,32.70085195306221C80.33898305084746,32.70085195306221,81.35593220338983,33.480255050099125,82.37288135593221,33.89808712425655C83.38983050847457,34.31591919841397,84.40677966101696,34.61662112200611,85.42372881355932,35.20784439800675C86.4406779661017,35.79906767400739,87.45762711864407,36.74221722123988,88.47457627118645,37.445426780260405C89.49152542372882,38.14863633928092,90.50847457627118,39.42710175212988,91.52542372881355,39.42710175212988C92.54237288135593,39.42710175212988,93.55932203389831,39.13261533515512,94.57627118644069,39.13261533515512C95.59322033898306,39.13261533515512,96.61016949152543,39.13432995767026,97.62711864406779,39.13775920270053C98.64406779661016,39.1411884477308,99.66101694915254,39.4483202057547,100.6779661016949,39.4483202057547C101.69491525423729,39.4483202057547,102.71186440677965,38.802121845362485,103.72881355932203,38.802121845362485C104.7457627118644,38.802121845362485,105.76271186440678,39.113968815303004,106.77966101694915,39.113968815303004C107.79661016949153,39.113968815303004,108.8135593220339,38.77082998446124,109.83050847457628,38.53785565021701C110.84745762711864,38.304881315972786,111.86440677966102,37.907624711996995,112.88135593220339,37.71612280983764C113.89830508474576,37.52462090767829,114.91525423728814,37.38884423726089,115.9322033898305,37.38884423726089C116.94915254237289,37.38884423726089,117.96610169491525,38.005465359267,118.98305084745763,38.005465359267C120,38.005465359267,121.01694915254237,37.78685098858704,122.03389830508473,37.78685098858704C123.05084745762711,37.78685098858704,124.0677966101695,38.65102073621604,125.08474576271188,38.65102073621604C126.10169491525424,38.65102073621604,127.11864406779662,38.22654449981247,128.135593220339,38.06461983603923C129.15254237288136,37.902695172265986,130.16949152542372,37.924127953705195,131.1864406779661,37.6794727535766C132.20338983050846,37.434817553448,133.22033898305085,36.59668863526764,134.23728813559322,36.59668863526764C135.25423728813558,36.59668863526764,136.27118644067798,36.98440765150298,137.28813559322035,36.98440765150298C138.3050847457627,36.98440765150298,139.3220338983051,36.08037293039704,140.33898305084747,36.08037293039704C141.35593220338984,36.08037293039704,142.3728813559322,36.58125703263141,143.38983050847457,36.58125703263141C144.40677966101694,36.58125703263141,145.42372881355934,35.79510260944114,146.4406779661017,35.686224079729946C147.45762711864407,35.577345550018755,148.47457627118644,35.52290628516316,149.4915254237288,35.52290628516316C150.50847457627117,35.52290628516316,151.52542372881356,35.920805872582115,152.54237288135593,36.063655360874456C153.5593220338983,36.2065048491668,154.5762711864407,36.38000321491722,155.59322033898306,36.38000321491722C156.61016949152543,36.38000321491722,157.6271186440678,35.795531265069926,158.64406779661016,35.795531265069926C159.66101694915253,35.795531265069926,160.67796610169492,36.40958045330333,161.6949152542373,36.40958045330333C162.71186440677965,36.40958045330333,163.72881355932205,36.03086320527246,164.74576271186442,36.03086320527246C165.76271186440678,36.03086320527246,166.77966101694915,37.61399560627981,167.79661016949152,38.127632213470505C168.81355932203388,38.64126882066121,169.83050847457628,39.07281787493972,170.84745762711864,39.112682848416654C171.864406779661,39.152547821893585,172.8813559322034,39.17248030863205,173.89830508474577,39.17248030863205C174.91525423728814,39.17248030863205,175.93220338983053,37.97588812088088,176.9491525423729,37.97588812088088C177.96610169491527,37.97588812088088,178.98305084745763,38.98794406044044,180,40"></path><path class="axis-ceiling" stroke-width="1" stroke="black" fill="none" d="M175,0L180,0"></path><text class="axis-ceiling-label" font-family="sans-serif" text-anchor="end" font-size="10px" x="170" y="2.5">45000</text></g></svg>