<svg xmlns="http://www.w3.org/2000/svg" viewBox="0 0 180 60"><g transform="translate(0,20)"><path class="area" fill="rgba(0, 0, 0, 0.2)" d="M0,39.9486C1.0169491525423728,39.947093333333335,2.0338983050847457,39.945586666666664,3.0508474576271185,39.94392C4.067796610169491,39.94225333333333,5.084745762711864,39.94044,6.101694915254237,39.9386C7.11864406779661,39.93676,8.135593220338983,39.93482,9.152542372881356,39.932880000000004C10.169491525423728,39.93094000000001,11.186440677966102,39.92894666666667,12.203389830508474,39.92696C13.220338983050846,39.924973333333334,14.23728813559322,39.92314666666667,15.254237288135592,39.92096C16.271186440677965,39.918773333333334,17.28813559322034,39.91632666666667,18.305084745762713,39.91384C19.322033898305087,39.91135333333333,20.338983050847457,39.90878,21.35593220338983,39.90604C22.372881355932204,39.903299999999994,23.389830508474574,39.90044666666666,24.406779661016948,39.8974C25.423728813559322,39.89435333333333,26.440677966101696,39.891193333333334,27.45762711864407,39.88776C28.47457627118644,39.88432666666667,29.491525423728813,39.88095333333334,30.508474576271183,39.8768C31.525423728813557,39.87264666666667,32.54237288135593,39.868359999999996,33.559322033898304,39.86284C34.57627118644068,39.85732,35.59322033898305,39.852106666666664,36.610169491525426,39.84368C37.6271186440678,39.835253333333334,38.644067796610166,39.826480000000004,39.66101694915254,39.81228C40.67796610169491,39.79808,41.69491525423729,39.78167333333333,42.71186440677966,39.75848C43.728813559322035,39.73528666666667,44.7457627118644,39.70892666666667,45.762711864406775,39.673120000000004C46.77966101694915,39.63731333333334,47.79661016949152,39.59385333333333,48.813559322033896,39.543639999999996C49.83050847457627,39.493426666666664,50.847457627118644,39.43392,51.86440677966102,39.37184C52.88135593220339,39.30976,53.898305084745765,39.24242666666667,54.91525423728814,39.17116C55.93220338983051,39.099893333333334,56.94915254237288,39.02922,57.96610169491525,38.94424C58.983050847457626,38.85926,59.99999999999999,38.768339999999995,61.01694915254237,38.66128C62.03389830508474,38.55422,63.05084745762712,38.43495333333334,64.0677966101695,38.301880000000004C65.08474576271186,38.168806666666676,66.10169491525424,38.02273333333334,67.11864406779661,37.862840000000006C68.13559322033899,37.70294666666667,69.15254237288136,37.52966,70.16949152542374,37.34252C71.1864406779661,37.15538,72.20338983050848,36.94741333333334,73.22033898305085,36.74C74.23728813559322,36.53258666666667,75.2542372881356,36.33038666666666,76.27118644067797,36.09804C77.28813559322033,35.86569333333333,78.30508474576271,35.61734,79.32203389830508,35.34592C80.33898305084746,35.0745,81.35593220338983,34.780953333333336,82.37288135593221,34.46952C83.38983050847457,34.15808666666667,84.40677966101696,33.827533333333335,85.42372881355932,33.47732C86.4406779661017,33.12710666666666,87.45762711864407,32.75630666666667,88.47457627118645,32.36824C89.49152542372882,31.980173333333337,90.50847457627118,31.56724,91.52542372881355,31.148920000000004C92.54237288135593,30.730600000000003,93.55932203389831,30.302866666666674,94.57627118644069,29.858320000000003C95.59322033898306,29.41377333333334,96.61016949152543,28.952706666666664,97.62711864406779,28.48164C98.64406779661016,28.01057333333333,99.66101694915254,27.526766666666663,100.6779661016949,27.03192C101.69491525423729,26.537073333333332,102.71186440677965,26.031660000000002,103.72881355932203,25.51256C104.7457627118644,24.993460000000002,105.76271186440678,24.462733333333336,106.77966101694915,23.917320000000004C107.79661016949153,23.371906666666668,108.8135593220339,22.802233333333334,109.83050847457628,22.24008C110.84745762711864,21.677926666666668,111.86440677966102,21.108633333333334,112.88135593220339,20.5444C113.89830508474576,19.980166666666666,114.91525423728814,19.410299999999996,115.9322033898305,18.85468C116.94915254237289,18.299059999999997,117.96610169491525,17.75154,118.98305084745763,17.210679999999996C120,16.669819999999998,121.01694915254237,16.143579999999996,122.03389830508473,15.60952C123.05084745762711,15.075459999999996,124.0677966101695,14.535773333333335,125.08474576271188,14.006319999999999C126.10169491525424,13.476866666666668,127.11864406779662,12.947860000000002,128.135593220339,12.4328C129.15254237288136,11.917740000000002,130.16949152542372,11.409826666666666,131.1864406779661,10.91596C132.20338983050846,10.422093333333331,133.22033898305085,9.937479999999997,134.23728813559322,9.469599999999998C135.25423728813558,9.001719999999999,136.27118644067798,8.54582,137.28813559322035,8.108680000000001C138.3050847457627,7.671540000000002,139.3220338983051,7.254353333333336,140.33898305084747,6.846760000000001C141.35593220338984,6.439166666666669,142.3728813559322,6.035593333333331,143.38983050847457,5.663119999999999C144.40677966101694,5.290646666666664,145.42372881355934,4.942300000000001,146.4406779661017,4.6119200000000005C147.45762711864407,4.281540000000002,148.47457627118644,3.9682399999999998,149.4915254237288,3.6808400000000008C150.50847457627117,3.393439999999999,151.52542372881356,3.098046666666668,152.54237288135593,2.887520000000001C153.5593220338983,2.6769933333333342,154.5762711864407,2.5593800000000004,155.59322033898306,2.41768C156.61016949152543,2.2759800000000006,157.6271186440678,2.1322533333333338,158.64406779661016,2.0373200000000002C159.66101694915253,1.942386666666666,160.67796610169492,1.892259999999999,161.6949152542373,1.8480799999999986C162.71186440677965,1.8038999999999983,163.72881355932205,1.7722399999999983,164.74576271186442,1.7722399999999983C165.76271186440678,1.7722399999999983,166.77966101694915,1.7728266666666654,167.79661016949152,1.774C168.81355932203388,1.7751733333333346,169.83050847457628,1.7968533333333332,170.84745762711864,1.8425599999999998C171.864406779661,1.8882666666666663,172.8813559322034,1.9809666666666643,173.89830508474577,2.048519999999998C174.91525423728814,2.1160733333333317,175.93220338983053,2.1660866666666676,176.9491525423729,2.247880000000002C177.96610169491527,2.3296733333333357,178.98305084745763,2.4344766666666686,180,2.5392800000000015L180,40C178.98305084745763,40,177.96610169491527,40,176.9491525423729,40C175.93220338983053,40,174.91525423728814,40,173.89830508474577,40C172.8813559322034,40,171.864406779661,40,170.84745762711864,40C169.83050847457628,40,168.81355932203388,40,167.79661016949152,40C166.77966101694915,40,165.76271186440678,40,164.74576271186442,40C163.72881355932205,40,162.71186440677965,40,161.6949152542373,40C160.67796610169492,40,159.66101694915253,40,158.64406779661016,40C157.6271186440678,40,156.61016949152543,40,155.59322033898306,40C154.5762711864407,40,153.5593220338983,40,152.54237288135593,40C151.52542372881356,40,150.50847457627117,40,149.4915254237288,40C148.47457627118644,40,147.45762711864407,40,146.4406779661017,40C145.42372881355934,40,144.40677966101694,40,143.38983050847457,40C142.3728813559322,40,141.35593220338984,40,140.33898305084747,40C139.3220338983051,40,138.3050847457627,40,137.28813559322035,40C136.27118644067798,40,135.25423728813558,40,134.23728813559322,40C133.22033898305085,40,132.20338983050846,40,131.1864406779661,40C130.16949152542372,40,129.15254237288136,40,128.135593220339,40C127.11864406779662,40,126.10169491525424,40,125.08474576271188,40C124.0677966101695,40,123.05084745762711,40,122.03389830508473,40C121.01694915254237,40,120,40,118.98305084745763,40C117.96610169491525,40,116.94915254237289,40,115.9322033898305,40C114.91525423728814,40,113.89830508474576,40,112.88135593220339,40C111.86440677966102,40,110.84745762711864,40,109.83050847457628,40C108.8135593220339,40,107.79661016949153,40,106.77966101694915,40C105.76271186440678,40,104.7457627118644,40,103.72881355932203,40C102.71186440677965,40,101.69491525423729,40,100.6779661016949,40C99.66101694915254,40,98.64406779661016,40,97.62711864406779,40C96.61016949152543,40,95.59322033898306,40,94.57627118644069,40C93.55932203389831,40,92.54237288135593,40,91.52542372881355,40C90.50847457627118,40,89.49152542372882,40,88.47457627118645,40C87.45762711864407,40,86.4406779661017,40,85.42372881355932,40C84.40677966101696,40,83.38983050847457,40,82.37288135593221,40C81.35593220338983,40,80.33898305084746,40,79.32203389830508,40C78.30508474576271,40,77.28813559322033,40,76.27118644067797,40C75.2542372881356,40,74.23728813559322,40,73.22033898305085,40C72.20338983050848,40,71.1864406779661,40,70.16949152542374,40C69.15254237288136,40,68.13559322033899,40,67.11864406779661,40C66.10169491525424,40,65.08474576271186,40,64.0677966101695,40C63.05084745762712,40,62.03389830508474,40,61.01694915254237,40C59.99999999999999,40,58.983050847457626,40,57.96610169491525,40C56.94915254237288,40,55.93220338983051,40,54.91525423728814,40C53.898305084745765,40,52.88135593220339,40,51.86440677966102,40C50.847457627118644,40,49.83050847457627,40,48.813559322033896,40C47.79661016949152,40,46.77966101694915,40,45.762711864406775,40C44.7457627118644,40,43.728813559322035,40,42.71186440677966,40C41.69491525423729,40,40.67796610169491,40,39.66101694915254,40C38.644067796610166,40,37.6271186440678,40,36.610169491525426,40C35.59322033898305,40,34.57627118644068,40,33.559322033898304,40C32.54237288135593,40,31.525423728813557,40,30.508474576271183,40C29.491525423728813,40,28.47457627118644,40,27.45762711864407,40C26.440677966101696,40,25.423728813559322,40,24.406779661016948,40C23.389830508474574,40,22.372881355932204,40,21.35593220338983,40C20.338983050847457,40,19.322033898305087,40,18.305084745762713,40C17.28813559322034,40,16.271186440677965,40,15.254237288135592,40C14.23728813559322,40,13.220338983050846,40,12.203389830508474,40C11.186440677966102,40,10.169491525423728,40,9.152542372881356,40C8.135593220338983,40,7.11864406779661,40,6.101694915254237,40C5.084745762711864,40,4.067796610169491,40,3.0508474576271185,40C2.0338983050847457,40,1.0169491525423728,40,0,40Z"></path><path class="line" stroke="black" fill="none" d="M0,39.9486C1.0169491525423728,39.947093333333335,2.0338983050847457,39.945586666666664,3.0508474576271185,39.94392C4.067796610169491,39.94225333333333,5.084745762711864,39.94044,6.101694915254237,39.9386C7.11864406779661,39.93676,8.135593220338983,39.93482,9.152542372881356,39.932880000000004C10.169491525423728,39.93094000000001,11.186440677966102,39.92894666666667,12.203389830508474,39.92696C13.220338983050846,39.924973333333334,14.23728813559322,39.92314666666667,15.254237288135592,39.92096C16.271186440677965,39.918773333333334,17.28813559322034,39.91632666666667,18.305084745762713,39.91384C19.322033898305087,39.91135333333333,20.338983050847457,39.90878,21.35593220338983,39.90604C22.372881355932204,39.903299999999994,23.389830508474574,39.90044666666666,24.406779661016948,39.8974C25.423728813559322,39.89435333333333,26.440677966101696,39.891193333333334,27.45762711864407,39.88776C28.47457627118644,39.88432666666667,29.491525423728813,39.88095333333334,30.508474576271183,39.8768C31.525423728813557,39.87264666666667,32.54237288135593,39.868359999999996,33.559322033898304,39.86284C34.57627118644068,39.85732,35.59322033898305,39.852106666666664,36.610169491525426,39.84368C37.6271186440678,39.835253333333334,38.644067796610166,39.826480000000004,39.66101694915254,39.81228C40.67796610169491,39.79808,41.69491525423729,39.78167333333333,42.71186440677966,39.75848C43.728813559322035,39.73528666666667,44.7457627118644,39.70892666666667,45.762711864406775,39.673120000000004C46.77966101694915,39.63731333333334,47.79661016949152,39.59385333333333,48.813559322033896,39.543639999999996C49.83050847457627,39.493426666666664,50.847457627118644,39.43392,51.86440677966102,39.37184C52.88135593220339,39.30976,53.898305084745765,39.24242666666667,54.91525423728814,39.17116C55.93220338983051,39.099893333333334,56.94915254237288,39.02922,57.96610169491525,38.94424C58.983050847457626,38.85926,59.99999999999999,38.768339999999995,61.01694915254237,38.66128C62.03389830508474,38.55422,63.05084745762712,38.43495333333334,64.0677966101695,38.301880000000004C65.08474576271186,38.168806666666676,66.10169491525424,38.02273333333334,67.11864406779661,37.862840000000006C68.13559322033899,37.70294666666667,69.15254237288136,37.52966,70.16949152542374,37.34252C71.1864406779661,37.15538,72.20338983050848,36.94741333333334,73.22033898305085,36.74C74.23728813559322,36.53258666666667,75.2542372881356,36.33038666666666,76.27118644067797,36.09804C77.28813559322033,35.86569333333333,78.30508474576271,35.61734,79.32203389830508,35.34592C80.33898305084746,35.0745,81.35593220338983,34.780953333333336,82.37288135593221,34.46952C83.38983050847457,34.15808666666667,84.40677966101696,33.827533333333335,85.42372881355932,33.47732C86.4406779661017,33.12710666666666,87.45762711864407,32.75630666666667,88.47457627118645,32.36824C89.49152542372882,31.980173333333337,90.50847457627118,31.56724,91.52542372881355,31.148920000000004C92.54237288135593,30.730600000000003,93.55932203389831,30.302866666666674,94.57627118644069,29.858320000000003C95.59322033898306,29.41377333333334,96.61016949152543,28.952706666666664,97.62711864406779,28.48164C98.64406779661016,28.01057333333333,99.66101694915254,27.526766666666663,100.6779661016949,27.03192C101.69491525423729,26.537073333333332,102.71186440677965,26.031660000000002,103.72881355932203,25.51256C104.7457627118644,24.993460000000002,105.76271186440678,24.462733333333336,106.77966101694915,23.917320000000004C107.79661016949153,23.371906666666668,108.8135593220339,22.802233333333334,109.83050847457628,22.24008C110.84745762711864,21.677926666666668,111.86440677966102,21.108633333333334,112.88135593220339,20.5444C113.89830508474576,19.980166666666666,114.91525423728814,19.410299999999996,115.9322033898305,18.85468C116.94915254237289,18.299059999999997,117.96610169491525,17.75154,118.98305084745763,17.210679999999996C120,16.669819999999998,121.01694915254237,16.143579999999996,122.03389830508473,15.60952C123.05084745762711,15.075459999999996,124.0677966101695,14.535773333333335,125.08474576271188,14.006319999999999C126.10169491525424,13.476866666666668,127.11864406779662,12.947860000000002,128.135593220339,12.4328C129.15254237288136,11.917740000000002,130.16949152542372,11.409826666666666,131.1864406779661,10.91596C132.20338983050846,10.422093333333331,133.22033898305085,9.937479999999997,134.23728813559322,9.469599999999998C135.25423728813558,9.001719999999999,136.27118644067798,8.54582,137.28813559322035,8.108680000000001C138.3050847457627,7.671540000000002,139.3220338983051,7.254353333333336,140.33898305084747,6.846760000000001C141.35593220338984,6.439166666666669,142.3728813559322,6.035593333333331,143.38983050847457,5.663119999999999C144.40677966101694,5.290646666666664,145.42372881355934,4.942300000000001,146.4406779661017,4.6119200000000005C147.45762711864407,4.281540000000002,148.47457627118644,3.9682399999999998,149.4915254237288,3.6808400000000008C150.50847457627117,3.393439999999999,151.52542372881356,3.098046666666668,152.54237288135593,2.887520000000001C153.5593220338983,2.6769933333333342,154.5762711864407,2.5593800000000004,155.59322033898306,2.41768C156.61016949152543,2.2759800000000006,157.6271186440678,2.1322533333333338,158.64406779661016,2.0373200000000002C159.66101694915253,1.942386666666666,160.67796610169492,1.892259999999999,161.6949152542373,1.8480799999999986C162.71186440677965,1.8038999999999983,163.72881355932205,1.7722399999999983,164.74576271186442,1.7722399999999983C165.76271186440678,1.7722399999999983,166.77966101694915,1.7728266666666654,167.79661016949152,1.774C168.81355932203388,1.7751733333333346,169.83050847457628,1.7968533333333332,170.84745762711864,1.8425599999999998C171.864406779661,1.8882666666666663,172.8813559322034,1.9809666666666643,173.89830508474577,2.048519999999998C174.91525423728814,2.1160733333333317,175.93220338983053,2.1660866666666676,176.9491525423729,2.247880000000002C177.96610169491527,2.3296733333333357,178.98305084745763,2.4344766666666686,180,2.5392800000000015"></path><path class="axis-ceiling" stroke-width="1" stroke="black" fill="none" d="M175,0L180,0"></path><text class="axis-ceiling-label" font-family="sans-serif" text-anchor="end" font-size="10px" x="170" y="2.5">1000000</text></g></svg>