<svg xmlns="http://www.w3.org/2000/svg" viewBox="0 0 180 60"><g transform="translate(0,20)"><path class="area" fill="rgba(0, 0, 0, 0.2)" d="M0,32.55541485210695C1.0169491525423728,32.08810781315955,2.0338983050847457,31.62080077421215,3.0508474576271185,31.62080077421215C4.067796610169491,31.62080077421215,5.084745762711864,32.815887821601756,6.101694915254237,32.815887821601756C7.11864406779661,32.815887821601756,8.135593220338983,32.114155110109024,9.152542372881356,32.114155110109024C10.169491525423728,32.114155110109024,11.186440677966102,32.633041974240975,12.203389830508474,32.633041974240975C13.220338983050846,32.633041974240975,14.23728813559322,31.828938924407925,15.254237288135592,31.559234435967916C16.271186440677965,31.289529947527907,17.28813559322034,31.014815043600912,18.305084745762713,31.014815043600912C19.322033898305087,31.014815043600912,20.338983050847457,31.510434361841227,21.35593220338983,31.510434361841227C22.372881355932204,31.510434361841227,23.389830508474574,30.878710195509157,24.406779661016948,30.878710195509157C25.423728813559322,30.878710195509157,26.440677966101696,31.68380846485674,27.45762711864407,31.68380846485674C28.47457627118644,31.68380846485674,29.491525423728813,31.413040121073603,30.508474576271183,31.413040121073603C31.525423728813557,31.413040121073603,32.54237288135593,31.983197949161443,33.559322033898304,31.983197949161443C34.57627118644068,31.983197949161443,35.59322033898305,31.195567498189728,36.610169491525426,30.888799662311722C37.6271186440678,30.582031826433717,38.644067796610166,30.142590933893402,39.66101694915254,30.142590933893402C40.67796610169491,30.142590933893402,41.69491525423729,30.756607056449536,42.71186440677966,30.756607056449536C43.728813559322035,30.756607056449536,44.7457627118644,30.739448099302315,45.762711864406775,30.705130185007874C46.77966101694915,30.670812270713434,47.79661016949152,30.451658070029136,48.813559322033896,30.451658070029136C49.83050847457627,30.451658070029136,50.847457627118644,30.68268626905931,51.86440677966102,30.846382720243795C52.88135593220339,31.01007917142828,53.898305084745765,31.433836777136037,54.91525423728814,31.433836777136037C55.93220338983051,31.433836777136037,56.94915254237288,30.331819913312945,57.96610169491525,29.91176864234899C58.983050847457626,29.491717371385032,59.99999999999999,28.913529151352297,61.01694915254237,28.913529151352297C62.03389830508474,28.913529151352297,63.05084745762712,29.46947936292224,64.0677966101695,29.46947936292224C65.08474576271186,29.46947936292224,66.10169491525424,28.665822445975024,67.11864406779661,28.665822445975024C68.13559322033899,28.665822445975024,69.15254237288136,28.90275332626384,70.16949152542374,28.984773141427556C71.1864406779661,29.066792956591268,72.20338983050848,29.042495873270806,73.22033898305085,29.157941336957304C74.23728813559322,29.273386800643802,75.2542372881356,30.290432508673852,76.27118644067797,30.290432508673852C77.28813559322033,30.290432508673852,78.30508474576271,27.594554433359754,79.32203389830508,26.631044671629034C80.33898305084746,25.66753490989831,81.35593220338983,24.509373938289528,82.37288135593221,24.509373938289528C83.38983050847457,24.509373938289528,84.40677966101696,24.75069751160803,85.42372881355932,24.75069751160803C86.4406779661017,24.75069751160803,87.45762711864407,23.917184009224655,88.47457627118645,23.917184009224655C89.49152542372882,23.917184009224655,90.50847457627118,24.012690764706086,91.52542372881355,24.07470323583614C92.54237288135593,24.136715706966193,93.55932203389831,24.146221769225754,94.57627118644069,24.289258836004983C95.59322033898306,24.432295902784208,96.61016949152543,27.43799610834852,97.62711864406779,27.43799610834852C98.64406779661016,27.43799610834852,99.66101694915254,21.24169077500146,100.6779661016949,19.45805149746219C101.69491525423729,17.674412219922914,102.71186440677965,16.73616044311291,103.72881355932203,16.73616044311291C104.7457627118644,16.73616044311291,105.76271186440678,17.165889365907894,106.77966101694915,17.165889365907894C107.79661016949153,17.165889365907894,108.8135593220339,16.65901377177901,109.83050847457628,16.42997601177791C110.84745762711864,16.200938251776815,111.86440677966102,15.79166280590131,112.88135593220339,15.79166280590131C113.89830508474576,15.79166280590131,114.91525423728814,16.426750127834232,115.9322033898305,17.696924771700075C116.94915254237289,18.967099415565926,117.96610169491525,23.145305480914075,118.98305084745763,24.56620440436112C120,25.98710332780815,121.01694915254237,26.697552789531667,122.03389830508473,26.697552789531667C123.05084745762711,26.697552789531667,124.0677966101695,16.33759218649728,125.08474576271188,13.140398019169988C126.10169491525424,9.943203851842728,127.11864406779662,9.383856166757614,128.135593220339,7.514387785567944C129.15254237288136,5.6449194043782835,130.16949152542372,1.9235877320319972,131.1864406779661,1.9235877320319972C132.20338983050846,1.9235877320319972,133.22033898305085,3.4993634026898395,134.23728813559322,5.448723888356963C135.25423728813558,7.398084374024087,136.27118644067798,10.932177505979897,137.28813559322035,13.619750646034738C138.3050847457627,16.30732378608958,139.3220338983051,21.574162728686,140.33898305084747,21.574162728686C141.35593220338984,21.574162728686,142.3728813559322,10.337791230400182,143.38983050847457,10.337791230400182C144.40677966101694,10.337791230400182,145.42372881355934,10.94913055564135,146.4406779661017,10.94913055564135C147.45762711864407,10.94913055564135,148.47457627118644,10.694011180776476,149.4915254237288,10.18377243104673C150.50847457627117,9.673533681316979,151.52542372881356,5.94825544882684,152.54237288135593,5.94825544882684C153.5593220338983,5.94825544882684,154.5762711864407,6.4731136300460195,155.59322033898306,7.522829992484379C156.61016949152543,8.572546354922729,157.6271186440678,9.670445069030485,158.64406779661016,13.9656752221227C159.66101694915253,18.260905375214953,160.67796610169492,40,161.6949152542373,40C162.71186440677965,40,163.72881355932205,24.973832590350494,164.74576271186442,20.648814487650704C165.76271186440678,16.323796384950953,166.77966101694915,14.049891383801256,167.79661016949152,14.049891383801256C168.81355932203388,14.049891383801256,169.83050847457628,17.627568266911013,170.84745762711864,18.88604050200245C171.864406779661,20.14451273709389,172.8813559322034,20.425061686450945,173.89830508474577,21.6007247943499C174.91525423728814,22.776387902248857,175.93220338983053,24.6336047880354,176.9491525423729,25.94001914939618C177.96610169491527,27.246433510756944,178.98305084745763,28.342822236635744,180,29.439210962514544L180,40C178.98305084745763,40,177.96610169491527,40,176.9491525423729,40C175.93220338983053,40,174.91525423728814,40,173.89830508474577,40C172.8813559322034,40,171.864406779661,40,170.84745762711864,40C169.83050847457628,40,168.81355932203388,40,167.79661016949152,40C166.77966101694915,40,165.76271186440678,40,164.74576271186442,40C163.72881355932205,40,162.71186440677965,40,161.6949152542373,40C160.67796610169492,40,159.66101694915253,40,158.64406779661016,40C157.6271186440678,40,156.61016949152543,40,155.59322033898306,40C154.5762711864407,40,153.5593220338983,40,152.54237288135593,40C151.52542372881356,40,150.50847457627117,40,149.4915254237288,40C148.47457627118644,40,147.45762711864407,40,146.4406779661017,40C145.42372881355934,40,144.40677966101694,40,143.38983050847457,40C142.3728813559322,40,141.35593220338984,40,140.33898305084747,40C139.3220338983051,40,138.3050847457627,40,137.28813559322035,40C136.27118644067798,40,135.25423728813558,40,134.23728813559322,40C133.22033898305085,40,132.20338983050846,40,131.1864406779661,40C130.16949152542372,40,129.15254237288136,40,128.135593220339,40C127.11864406779662,40,126.10169491525424,40,125.08474576271188,40C124.0677966101695,40,123.05084745762711,40,122.03389830508473,40C121.01694915254237,40,120,40,118.98305084745763,40C117.96610169491525,40,116.94915254237289,40,115.9322033898305,40C114.91525423728814,40,113.89830508474576,40,112.88135593220339,40C111.86440677966102,40,110.84745762711864,40,109.83050847457628,40C108.8135593220339,40,107.79661016949153,40,106.77966101694915,40C105.76271186440678,40,104.7457627118644,40,103.72881355932203,40C102.71186440677965,40,101.69491525423729,40,100.6779661016949,40C99.66101694915254,40,98.64406779661016,40,97.62711864406779,40C96.61016949152543,40,95.59322033898306,40,94.57627118644069,40C93.55932203389831,40,92.54237288135593,40,91.52542372881355,40C90.50847457627118,40,89.49152542372882,40,88.47457627118645,40C87.45762711864407,40,86.4406779661017,40,85.42372881355932,40C84.40677966101696,40,83.38983050847457,40,82.37288135593221,40C81.35593220338983,40,80.33898305084746,40,79.32203389830508,40C78.30508474576271,40,77.28813559322033,40,76.27118644067797,40C75.2542372881356,40,74.23728813559322,40,73.22033898305085,40C72.20338983050848,40,71.1864406779661,40,70.16949152542374,40C69.15254237288136,40,68.13559322033899,40,67.11864406779661,40C66.10169491525424,40,65.08474576271186,40,64.0677966101695,40C63.05084745762712,40,62.03389830508474,40,61.01694915254237,40C59.99999999999999,40,58.983050847457626,40,57.96610169491525,40C56.94915254237288,40,55.93220338983051,40,54.91525423728814,40C53.898305084745765,40,52.88135593220339,40,51.86440677966102,40C50.847457627118644,40,49.83050847457627,40,48.813559322033896,40C47.79661016949152,40,46.77966101694915,40,45.762711864406775,40C44.7457627118644,40,43.728813559322035,40,42.71186440677966,40C41.69491525423729,40,40.67796610169491,40,39.66101694915254,40C38.644067796610166,40,37.6271186440678,40,36.610169491525426,40C35.59322033898305,40,34.57627118644068,40,33.559322033898304,40C32.54237288135593,40,31.525423728813557,40,30.508474576271183,40C29.491525423728813,40,28.47457627118644,40,27.45762711864407,40C26.440677966101696,40,25.423728813559322,40,24.406779661016948,40C23.389830508474574,40,22.372881355932204,40,21.35593220338983,40C20.338983050847457,40,19.322033898305087,40,18.305084745762713,40C17.28813559322034,40,16.271186440677965,40,15.254237288135592,40C14.23728813559322,40,13.220338983050846,40,12.203389830508474,40C11.186440677966102,40,10.169491525423728,40,9.152542372881356,40C8.135593220338983,40,7.11864406779661,40,6.101694915254237,40C5.084745762711864,40,4.067796610169491,40,3.0508474576271185,40C2.0338983050847457,40,1.0169491525423728,40,0,40Z"></path><path class="line" stroke="black" fill="none" d="M0,32.55541485210695C1.0169491525423728,32.08810781315955,2.0338983050847457,31.62080077421215,3.0508474576271185,31.62080077421215C4.067796610169491,31.62080077421215,5.084745762711864,32.815887821601756,6.101694915254237,32.815887821601756C7.11864406779661,32.815887821601756,8.135593220338983,32.114155110109024,9.152542372881356,32.114155110109024C10.169491525423728,32.114155110109024,11.186440677966102,32.633041974240975,12.203389830508474,32.633041974240975C13.220338983050846,32.633041974240975,14.23728813559322,31.828938924407925,15.254237288135592,31.559234435967916C16.271186440677965,31.289529947527907,17.28813559322034,31.014815043600912,18.305084745762713,31.014815043600912C19.322033898305087,31.014815043600912,20.338983050847457,31.510434361841227,21.35593220338983,31.510434361841227C22.372881355932204,31.510434361841227,23.389830508474574,30.878710195509157,24.406779661016948,30.878710195509157C25.423728813559322,30.878710195509157,26.440677966101696,31.68380846485674,27.45762711864407,31.68380846485674C28.47457627118644,31.68380846485674,29.491525423728813,31.413040121073603,30.508474576271183,31.413040121073603C31.525423728813557,31.413040121073603,32.54237288135593,31.983197949161443,33.559322033898304,31.983197949161443C34.57627118644068,31.983197949161443,35.59322033898305,31.195567498189728,36.610169491525426,30.888799662311722C37.6271186440678,30.582031826433717,38.644067796610166,30.142590933893402,39.66101694915254,30.142590933893402C40.67796610169491,30.142590933893402,41.69491525423729,30.756607056449536,42.71186440677966,30.756607056449536C43.728813559322035,30.756607056449536,44.7457627118644,30.739448099302315,45.762711864406775,30.705130185007874C46.77966101694915,30.670812270713434,47.79661016949152,30.451658070029136,48.813559322033896,30.451658070029136C49.83050847457627,30.451658070029136,50.847457627118644,30.68268626905931,51.86440677966102,30.846382720243795C52.88135593220339,31.01007917142828,53.898305084745765,31.433836777136037,54.91525423728814,31.433836777136037C55.93220338983051,31.433836777136037,56.94915254237288,30.331819913312945,57.96610169491525,29.91176864234899C58.983050847457626,29.491717371385032,59.99999999999999,28.913529151352297,61.01694915254237,28.913529151352297C62.03389830508474,28.913529151352297,63.05084745762712,29.46947936292224,64.0677966101695,29.46947936292224C65.08474576271186,29.46947936292224,66.10169491525424,28.665822445975024,67.11864406779661,28.665822445975024C68.13559322033899,28.665822445975024,69.15254237288136,28.90275332626384,70.16949152542374,28.984773141427556C71.1864406779661,29.066792956591268,72.20338983050848,29.042495873270806,73.22033898305085,29.157941336957304C74.23728813559322,29.273386800643802,75.2542372881356,30.290432508673852,76.27118644067797,30.290432508673852C77.28813559322033,30.290432508673852,78.30508474576271,27.594554433359754,79.32203389830508,26.631044671629034C80.33898305084746,25.66753490989831,81.35593220338983,24.509373938289528,82.37288135593221,24.509373938289528C83.38983050847457,24.509373938289528,84.40677966101696,24.75069751160803,85.42372881355932,24.75069751160803C86.4406779661017,24.75069751160803,87.45762711864407,23.917184009224655,88.47457627118645,23.917184009224655C89.49152542372882,23.917184009224655,90.50847457627118,24.012690764706086,91.52542372881355,24.07470323583614C92.54237288135593,24.136715706966193,93.55932203389831,24.146221769225754,94.57627118644069,24.289258836004983C95.59322033898306,24.432295902784208,96.61016949152543,27.43799610834852,97.62711864406779,27.43799610834852C98.64406779661016,27.43799610834852,99.66101694915254,21.24169077500146,100.6779661016949,19.45805149746219C101.69491525423729,17.674412219922914,102.71186440677965,16.73616044311291,103.72881355932203,16.73616044311291C104.7457627118644,16.73616044311291,105.76271186440678,17.165889365907894,106.77966101694915,17.165889365907894C107.79661016949153,17.165889365907894,108.8135593220339,16.65901377177901,109.83050847457628,16.42997601177791C110.84745762711864,16.200938251776815,111.86440677966102,15.79166280590131,112.88135593220339,15.79166280590131C113.89830508474576,15.79166280590131,114.91525423728814,16.426750127834232,115.9322033898305,17.696924771700075C116.94915254237289,18.967099415565926,117.96610169491525,23.145305480914075,118.98305084745763,24.56620440436112C120,25.98710332780815,121.01694915254237,26.697552789531667,122.03389830508473,26.697552789531667C123.05084745762711,26.697552789531667,124.0677966101695,16.33759218649728,125.08474576271188,13.140398019169988C126.10169491525424,9.943203851842728,127.11864406779662,9.383856166757614,128.135593220339,7.514387785567944C129.15254237288136,5.6449194043782835,130.16949152542372,1.9235877320319972,131.1864406779661,1.9235877320319972C132.20338983050846,1.9235877320319972,133.22033898305085,3.4993634026898395,134.23728813559322,5.448723888356963C135.25423728813558,7.398084374024087,136.27118644067798,10.932177505979897,137.28813559322035,13.619750646034738C138.3050847457627,16.30732378608958,139.3220338983051,21.574162728686,140.33898305084747,21.574162728686C141.35593220338984,21.574162728686,142.3728813559322,10.337791230400182,143.38983050847457,10.337791230400182C144.40677966101694,10.337791230400182,145.42372881355934,10.94913055564135,146.4406779661017,10.94913055564135C147.45762711864407,10.94913055564135,148.47457627118644,10.694011180776476,149.4915254237288,10.18377243104673C150.50847457627117,9.673533681316979,151.52542372881356,5.94825544882684,152.54237288135593,5.94825544882684C153.5593220338983,5.94825544882684,154.5762711864407,6.4731136300460195,155.59322033898306,7.522829992484379C156.61016949152543,8.572546354922729,157.6271186440678,9.670445069030485,158.64406779661016,13.9656752221227C159.66101694915253,18.260905375214953,160.67796610169492,40,161.6949152542373,40C162.71186440677965,40,163.72881355932205,24.973832590350494,164.74576271186442,20.648814487650704C165.76271186440678,16.323796384950953,166.77966101694915,14.049891383801256,167.79661016949152,14.049891383801256C168.81355932203388,14.049891383801256,169.83050847457628,17.627568266911013,170.84745762711864,18.88604050200245C171.864406779661,20.14451273709389,172.8813559322034,20.425061686450945,173.89830508474577,21.6007247943499C174.91525423728814,22.776387902248857,175.93220338983053,24.6336047880354,176.9491525423729,25.94001914939618C177.96610169491527,27.246433510756944,178.98305084745763,28.342822236635744,180,29.439210962514544"></path><path class="axis-ceiling" stroke-width="1" stroke="black" fill="none" d="M175,0L180,0"></path><text class="axis-ceiling-label" font-family="sans-serif" text-anchor="end" font-size="10px" x="170" y="2.5">150000</text></g></svg>