<svg xmlns="http://www.w3.org/2000/svg" viewBox="0 0 180 60"><g transform="translate(0,20)"><path class="area" fill="rgba(0, 0, 0, 0.2)" d="M0,35.38666666666667C1.0169491525423728,35.13333333333333,2.0338983050847457,34.879999999999995,3.0508474576271185,34.69333333333333C4.067796610169491,34.50666666666666,5.084745762711864,34.266666666666666,6.101694915254237,34.266666666666666C7.11864406779661,34.266666666666666,8.135593220338983,34.50666666666667,9.152542372881356,34.50666666666667C10.169491525423728,34.50666666666667,11.186440677966102,33.76888888888889,12.203389830508474,33.36C13.220338983050846,32.95111111111111,14.23728813559322,32.266666666666666,15.254237288135592,32.053333333333335C16.271186440677965,31.84,17.28813559322034,31.94666666666667,18.305084745762713,31.733333333333334C19.322033898305087,31.52,20.338983050847457,31.079999999999995,21.35593220338983,30.746666666666663C22.372881355932204,30.41333333333333,23.389830508474574,30.235555555555557,24.406779661016948,29.733333333333334C25.423728813559322,29.23111111111111,26.440677966101696,28.408888888888892,27.45762711864407,27.733333333333334C28.47457627118644,27.05777777777778,29.491525423728813,26.137777777777778,30.508474576271183,25.68C31.525423728813557,25.22222222222222,32.54237288135593,25.195555555555558,33.559322033898304,24.986666666666668C34.57627118644068,24.77777777777778,35.59322033898305,24.75555555555556,36.610169491525426,24.42666666666667C37.6271186440678,24.09777777777778,38.644067796610166,23.01333333333333,39.66101694915254,23.01333333333333C40.67796610169491,23.01333333333333,41.69491525423729,23.813333333333333,42.71186440677966,23.813333333333333C43.728813559322035,23.813333333333333,44.7457627118644,23.724444444444444,45.762711864406775,23.546666666666667C46.77966101694915,23.36888888888889,47.79661016949152,22.444444444444443,48.813559322033896,21.946666666666665C49.83050847457627,21.448888888888888,50.847457627118644,20.96,51.86440677966102,20.560000000000002C52.88135593220339,20.160000000000004,53.898305084745765,19.93777777777778,54.91525423728814,19.546666666666667C55.93220338983051,19.155555555555555,56.94915254237288,18.62666666666667,57.96610169491525,18.213333333333335C58.983050847457626,17.8,59.99999999999999,17.453333333333333,61.01694915254237,17.066666666666666C62.03389830508474,16.68,63.05084745762712,15.893333333333333,64.0677966101695,15.893333333333333C65.08474576271186,15.893333333333333,66.10169491525424,17.364444444444445,67.11864406779661,18.106666666666666C68.13559322033899,18.84888888888889,69.15254237288136,19.795555555555552,70.16949152542374,20.346666666666664C71.1864406779661,20.897777777777772,72.20338983050848,21.106666666666666,73.22033898305085,21.413333333333334C74.23728813559322,21.720000000000002,75.2542372881356,21.693333333333335,76.27118644067797,22.186666666666667C77.28813559322033,22.68,78.30508474576271,23.706666666666667,79.32203389830508,24.37333333333333C80.33898305084746,25.04,81.35593220338983,25.54222222222222,82.37288135593221,26.186666666666667C83.38983050847457,26.83111111111111,84.40677966101696,27.795555555555556,85.42372881355932,28.24C86.4406779661017,28.684444444444445,87.45762711864407,28.906666666666666,88.47457627118645,28.906666666666666C89.49152542372882,28.906666666666666,90.50847457627118,28.799999999999997,91.52542372881355,28.799999999999997C92.54237288135593,28.799999999999997,93.55932203389831,29.542222222222225,94.57627118644069,29.893333333333338C95.59322033898306,30.244444444444447,96.61016949152543,30.52888888888889,97.62711864406779,30.906666666666666C98.64406779661016,31.284444444444446,99.66101694915254,31.791111111111114,100.6779661016949,32.160000000000004C101.69491525423729,32.52888888888889,102.71186440677965,33.10222222222223,103.72881355932203,33.120000000000005C104.7457627118644,33.13777777777778,105.76271186440678,33.14666666666667,106.77966101694915,33.14666666666667C107.79661016949153,33.14666666666667,108.8135593220339,33.04888888888889,109.83050847457628,32.85333333333333C110.84745762711864,32.657777777777774,111.86440677966102,30.728888888888886,112.88135593220339,30.69333333333333C113.89830508474576,30.657777777777778,114.91525423728814,30.675555555555555,115.9322033898305,30.64C116.94915254237289,30.604444444444447,117.96610169491525,29.95555555555556,118.98305084745763,29.6C120,29.244444444444447,121.01694915254237,28.97333333333333,122.03389830508473,28.506666666666668C123.05084745762711,28.04,124.0677966101695,27.08444444444444,125.08474576271188,26.799999999999997C126.10169491525424,26.515555555555554,127.11864406779662,26.373333333333335,128.135593220339,26.373333333333335C129.15254237288136,26.373333333333335,130.16949152542372,26.99111111111111,131.1864406779661,27.279999999999998C132.20338983050846,27.56888888888889,133.22033898305085,27.88888888888889,134.23728813559322,28.106666666666666C135.25423728813558,28.324444444444442,136.27118644067798,28.266666666666666,137.28813559322035,28.586666666666666C138.3050847457627,28.906666666666666,139.3220338983051,30.151111111111103,140.33898305084747,30.346666666666664C141.35593220338984,30.54222222222222,142.3728813559322,30.484444444444446,143.38983050847457,30.64C144.40677966101694,30.795555555555556,145.42372881355934,30.919999999999998,146.4406779661017,31.28C147.45762711864407,31.64,148.47457627118644,32.800000000000004,149.4915254237288,32.800000000000004C150.50847457627117,32.800000000000004,151.52542372881356,28.96,152.54237288135593,28.96C153.5593220338983,28.96,154.5762711864407,30.773333333333333,155.59322033898306,30.773333333333333C156.61016949152543,30.773333333333333,157.6271186440678,29.519999999999996,158.64406779661016,28.826666666666668C159.66101694915253,28.133333333333333,160.67796610169492,27.626666666666665,161.6949152542373,26.613333333333333C162.71186440677965,25.6,163.72881355932205,22.924444444444443,164.74576271186442,22.746666666666666C165.76271186440678,22.568888888888893,166.77966101694915,22.657777777777778,167.79661016949152,22.480000000000004C168.81355932203388,22.302222222222227,169.83050847457628,20.555555555555557,170.84745762711864,19.813333333333333C171.864406779661,19.071111111111108,172.8813559322034,18.857777777777777,173.89830508474577,18.026666666666667C174.91525423728814,17.195555555555558,175.93220338983053,16.34666666666668,176.9491525423729,14.826666666666668C177.96610169491527,13.30666666666667,178.98305084745763,11.10666666666667,180,8.906666666666666L180,40C178.98305084745763,40,177.96610169491527,40,176.9491525423729,40C175.93220338983053,40,174.91525423728814,40,173.89830508474577,40C172.8813559322034,40,171.864406779661,40,170.84745762711864,40C169.83050847457628,40,168.81355932203388,40,167.79661016949152,40C166.77966101694915,40,165.76271186440678,40,164.74576271186442,40C163.72881355932205,40,162.71186440677965,40,161.6949152542373,40C160.67796610169492,40,159.66101694915253,40,158.64406779661016,40C157.6271186440678,40,156.61016949152543,40,155.59322033898306,40C154.5762711864407,40,153.5593220338983,40,152.54237288135593,40C151.52542372881356,40,150.50847457627117,40,149.4915254237288,40C148.47457627118644,40,147.45762711864407,40,146.4406779661017,40C145.42372881355934,40,144.40677966101694,40,143.38983050847457,40C142.3728813559322,40,141.35593220338984,40,140.33898305084747,40C139.3220338983051,40,138.3050847457627,40,137.28813559322035,40C136.27118644067798,40,135.25423728813558,40,134.23728813559322,40C133.22033898305085,40,132.20338983050846,40,131.1864406779661,40C130.16949152542372,40,129.15254237288136,40,128.135593220339,40C127.11864406779662,40,126.10169491525424,40,125.08474576271188,40C124.0677966101695,40,123.05084745762711,40,122.03389830508473,40C121.01694915254237,40,120,40,118.98305084745763,40C117.96610169491525,40,116.94915254237289,40,115.9322033898305,40C114.91525423728814,40,113.89830508474576,40,112.88135593220339,40C111.86440677966102,40,110.84745762711864,40,109.83050847457628,40C108.8135593220339,40,107.79661016949153,40,106.77966101694915,40C105.76271186440678,40,104.7457627118644,40,103.72881355932203,40C102.71186440677965,40,101.69491525423729,40,100.6779661016949,40C99.66101694915254,40,98.64406779661016,40,97.62711864406779,40C96.61016949152543,40,95.59322033898306,40,94.57627118644069,40C93.55932203389831,40,92.54237288135593,40,91.52542372881355,40C90.50847457627118,40,89.49152542372882,40,88.47457627118645,40C87.45762711864407,40,86.4406779661017,40,85.42372881355932,40C84.40677966101696,40,83.38983050847457,40,82.37288135593221,40C81.35593220338983,40,80.33898305084746,40,79.32203389830508,40C78.30508474576271,40,77.28813559322033,40,76.27118644067797,40C75.2542372881356,40,74.23728813559322,40,73.22033898305085,40C72.20338983050848,40,71.1864406779661,40,70.16949152542374,40C69.15254237288136,40,68.13559322033899,40,67.11864406779661,40C66.10169491525424,40,65.08474576271186,40,64.0677966101695,40C63.05084745762712,40,62.03389830508474,40,61.01694915254237,40C59.99999999999999,40,58.983050847457626,40,57.96610169491525,40C56.94915254237288,40,55.93220338983051,40,54.91525423728814,40C53.898305084745765,40,52.88135593220339,40,51.86440677966102,40C50.847457627118644,40,49.83050847457627,40,48.813559322033896,40C47.79661016949152,40,46.77966101694915,40,45.762711864406775,40C44.7457627118644,40,43.728813559322035,40,42.71186440677966,40C41.69491525423729,40,40.67796610169491,40,39.66101694915254,40C38.644067796610166,40,37.6271186440678,40,36.610169491525426,40C35.59322033898305,40,34.57627118644068,40,33.559322033898304,40C32.54237288135593,40,31.525423728813557,40,30.508474576271183,40C29.491525423728813,40,28.47457627118644,40,27.45762711864407,40C26.440677966101696,40,25.423728813559322,40,24.406779661016948,40C23.389830508474574,40,22.372881355932204,40,21.35593220338983,40C20.338983050847457,40,19.322033898305087,40,18.305084745762713,40C17.28813559322034,40,16.271186440677965,40,15.254237288135592,40C14.23728813559322,40,13.220338983050846,40,12.203389830508474,40C11.186440677966102,40,10.169491525423728,40,9.152542372881356,40C8.135593220338983,40,7.11864406779661,40,6.101694915254237,40C5.084745762711864,40,4.067796610169491,40,3.0508474576271185,40C2.0338983050847457,40,1.0169491525423728,40,0,40Z"></path><path class="line" stroke="black" fill="none" d="M0,35.38666666666667C1.0169491525423728,35.13333333333333,2.0338983050847457,34.879999999999995,3.0508474576271185,34.69333333333333C4.067796610169491,34.50666666666666,5.084745762711864,34.266666666666666,6.101694915254237,34.266666666666666C7.11864406779661,34.266666666666666,8.135593220338983,34.50666666666667,9.152542372881356,34.50666666666667C10.169491525423728,34.50666666666667,11.186440677966102,33.76888888888889,12.203389830508474,33.36C13.220338983050846,32.95111111111111,14.23728813559322,32.266666666666666,15.254237288135592,32.053333333333335C16.271186440677965,31.84,17.28813559322034,31.94666666666667,18.305084745762713,31.733333333333334C19.322033898305087,31.52,20.338983050847457,31.079999999999995,21.35593220338983,30.746666666666663C22.372881355932204,30.41333333333333,23.389830508474574,30.235555555555557,24.406779661016948,29.733333333333334C25.423728813559322,29.23111111111111,26.440677966101696,28.408888888888892,27.45762711864407,27.733333333333334C28.47457627118644,27.05777777777778,29.491525423728813,26.137777777777778,30.508474576271183,25.68C31.525423728813557,25.22222222222222,32.54237288135593,25.195555555555558,33.559322033898304,24.986666666666668C34.57627118644068,24.77777777777778,35.59322033898305,24.75555555555556,36.610169491525426,24.42666666666667C37.6271186440678,24.09777777777778,38.644067796610166,23.01333333333333,39.66101694915254,23.01333333333333C40.67796610169491,23.01333333333333,41.69491525423729,23.813333333333333,42.71186440677966,23.813333333333333C43.728813559322035,23.813333333333333,44.7457627118644,23.724444444444444,45.762711864406775,23.546666666666667C46.77966101694915,23.36888888888889,47.79661016949152,22.444444444444443,48.813559322033896,21.946666666666665C49.83050847457627,21.448888888888888,50.847457627118644,20.96,51.86440677966102,20.560000000000002C52.88135593220339,20.160000000000004,53.898305084745765,19.93777777777778,54.91525423728814,19.546666666666667C55.93220338983051,19.155555555555555,56.94915254237288,18.62666666666667,57.96610169491525,18.213333333333335C58.983050847457626,17.8,59.99999999999999,17.453333333333333,61.01694915254237,17.066666666666666C62.03389830508474,16.68,63.05084745762712,15.893333333333333,64.0677966101695,15.893333333333333C65.08474576271186,15.893333333333333,66.10169491525424,17.364444444444445,67.11864406779661,18.106666666666666C68.13559322033899,18.84888888888889,69.15254237288136,19.795555555555552,70.16949152542374,20.346666666666664C71.1864406779661,20.897777777777772,72.20338983050848,21.106666666666666,73.22033898305085,21.413333333333334C74.23728813559322,21.720000000000002,75.2542372881356,21.693333333333335,76.27118644067797,22.186666666666667C77.28813559322033,22.68,78.30508474576271,23.706666666666667,79.32203389830508,24.37333333333333C80.33898305084746,25.04,81.35593220338983,25.54222222222222,82.37288135593221,26.186666666666667C83.38983050847457,26.83111111111111,84.40677966101696,27.795555555555556,85.42372881355932,28.24C86.4406779661017,28.684444444444445,87.45762711864407,28.906666666666666,88.47457627118645,28.906666666666666C89.49152542372882,28.906666666666666,90.50847457627118,28.799999999999997,91.52542372881355,28.799999999999997C92.54237288135593,28.799999999999997,93.55932203389831,29.542222222222225,94.57627118644069,29.893333333333338C95.59322033898306,30.244444444444447,96.61016949152543,30.52888888888889,97.62711864406779,30.906666666666666C98.64406779661016,31.284444444444446,99.66101694915254,31.791111111111114,100.6779661016949,32.160000000000004C101.69491525423729,32.52888888888889,102.71186440677965,33.10222222222223,103.72881355932203,33.120000000000005C104.7457627118644,33.13777777777778,105.76271186440678,33.14666666666667,106.77966101694915,33.14666666666667C107.79661016949153,33.14666666666667,108.8135593220339,33.04888888888889,109.83050847457628,32.85333333333333C110.84745762711864,32.657777777777774,111.86440677966102,30.728888888888886,112.88135593220339,30.69333333333333C113.89830508474576,30.657777777777778,114.91525423728814,30.675555555555555,115.9322033898305,30.64C116.94915254237289,30.604444444444447,117.96610169491525,29.95555555555556,118.98305084745763,29.6C120,29.244444444444447,121.01694915254237,28.97333333333333,122.03389830508473,28.506666666666668C123.05084745762711,28.04,124.0677966101695,27.08444444444444,125.08474576271188,26.799999999999997C126.10169491525424,26.515555555555554,127.11864406779662,26.373333333333335,128.135593220339,26.373333333333335C129.15254237288136,26.373333333333335,130.16949152542372,26.99111111111111,131.1864406779661,27.279999999999998C132.20338983050846,27.56888888888889,133.22033898305085,27.88888888888889,134.23728813559322,28.106666666666666C135.25423728813558,28.324444444444442,136.27118644067798,28.266666666666666,137.28813559322035,28.586666666666666C138.3050847457627,28.906666666666666,139.3220338983051,30.151111111111103,140.33898305084747,30.346666666666664C141.35593220338984,30.54222222222222,142.3728813559322,30.484444444444446,143.38983050847457,30.64C144.40677966101694,30.795555555555556,145.42372881355934,30.919999999999998,146.4406779661017,31.28C147.45762711864407,31.64,148.47457627118644,32.800000000000004,149.4915254237288,32.800000000000004C150.50847457627117,32.800000000000004,151.52542372881356,28.96,152.54237288135593,28.96C153.5593220338983,28.96,154.5762711864407,30.773333333333333,155.59322033898306,30.773333333333333C156.61016949152543,30.773333333333333,157.6271186440678,29.519999999999996,158.64406779661016,28.826666666666668C159.66101694915253,28.133333333333333,160.67796610169492,27.626666666666665,161.6949152542373,26.613333333333333C162.71186440677965,25.6,163.72881355932205,22.924444444444443,164.74576271186442,22.746666666666666C165.76271186440678,22.568888888888893,166.77966101694915,22.657777777777778,167.79661016949152,22.480000000000004C168.81355932203388,22.302222222222227,169.83050847457628,20.555555555555557,170.84745762711864,19.813333333333333C171.864406779661,19.071111111111108,172.8813559322034,18.857777777777777,173.89830508474577,18.026666666666667C174.91525423728814,17.195555555555558,175.93220338983053,16.34666666666668,176.9491525423729,14.826666666666668C177.96610169491527,13.30666666666667,178.98305084745763,11.10666666666667,180,8.906666666666666"></path><path class="axis-ceiling" stroke-width="1" stroke="black" fill="none" d="M175,0L180,0"></path><text class="axis-ceiling-label" font-family="sans-serif" text-anchor="end" font-size="10px" x="170" y="2.5">1500</text></g></svg>