<svg xmlns="http://www.w3.org/2000/svg" viewBox="0 0 180 60"><g transform="translate(0,20)"><path class="area" fill="rgba(0, 0, 0, 0.2)" d="M0,25.640891902464467C1.0169491525423728,25.363856652323204,2.0338983050847457,25.08682140218194,3.0508474576271185,24.72682227148259C4.067796610169491,24.36682314078324,5.084745762711864,23.904789846568438,6.101694915254237,23.480897118268356C7.11864406779661,23.057004389968274,8.135593220338983,22.620615464858524,9.152542372881356,22.183465901682098C10.169491525423728,21.74631633850567,11.186440677966102,21.302103707567262,12.203389830508474,20.857999739209806C13.220338983050846,20.41389577085235,14.23728813559322,19.849176337636372,15.254237288135592,19.51884209153736C16.271186440677965,19.188507845438345,17.28813559322034,19.28250097796323,18.305084745762713,18.875994262615727C19.322033898305087,18.469487547268223,20.338983050847457,17.716673186421524,21.35593220338983,17.07980179945234C22.372881355932204,16.442930412483157,23.389830508474574,15.70685008910332,24.406779661016948,15.054765940800628C25.423728813559322,14.402681792497937,26.440677966101696,13.799495805624375,27.45762711864407,13.167296909636196C28.47457627118644,12.53509801364802,29.491525423728813,11.878667362107183,30.508474576271183,11.26157256487156C31.525423728813557,10.644477767635935,32.54237288135593,9.957838918589994,33.559322033898304,9.464728126222454C34.57627118644068,8.971617333854914,35.59322033898305,8.730277741556918,36.610169491525426,8.30290781066632C37.6271186440678,7.875537879775721,38.644067796610166,7.3327682879123754,39.66101694915254,6.900508540878865C40.67796610169491,6.468248793845353,41.69491525423729,6.097057417307779,42.71186440677966,5.709349328465252C43.728813559322035,5.321641239622726,44.7457627118644,4.969574477332984,45.762711864406775,4.574260007823705C46.77966101694915,4.178945538314425,47.79661016949152,3.7662450558525653,48.813559322033896,3.33746251140957C49.83050847457627,2.908679966966575,50.847457627118644,2.202373190768029,51.86440677966102,2.0015647411657334C52.88135593220339,1.8007562915634374,53.898305084745765,1.7003520667622896,54.91525423728814,1.7003520667622896C55.93220338983051,1.7003520667622896,56.94915254237288,1.7329508410483758,57.96610169491525,1.7981483896205486C58.983050847457626,1.8633459381927213,59.99999999999999,2.302234102664407,61.01694915254237,2.5427043943147742C62.03389830508474,2.7831746859651423,63.05084745762712,3.240970139522754,64.0677966101695,3.240970139522754C65.08474576271186,3.240970139522754,66.10169491525424,3.2083713652366663,67.11864406779661,3.2083713652366663C68.13559322033899,3.2083713652366663,69.15254237288136,3.456882687877602,70.16949152542374,3.6914852001564746C71.1864406779661,3.926087712435346,72.20338983050848,4.270439431477378,73.22033898305085,4.615986438909898C74.23728813559322,4.961533446342418,75.2542372881356,5.341200504194377,76.27118644067797,5.7647672447515985C77.28813559322033,6.18833398530882,78.30508474576271,6.6564523840570295,79.32203389830508,7.157386882253229C80.33898305084746,7.658321380449431,81.35593220338983,8.288781675142348,82.37288135593221,8.770374233928804C83.38983050847457,9.251966792715258,84.40677966101696,9.47505107141305,85.42372881355932,10.046942234971965C86.4406779661017,10.618833398530883,87.45762711864407,11.516386317207804,88.47457627118645,12.201721215282305C89.49152542372882,12.8870561133568,90.50847457627118,13.45851262659191,91.52542372881355,14.158951623418957C92.54237288135593,14.859390620246014,93.55932203389831,15.151366975268383,94.57627118644069,16.404355196244623C95.59322033898306,17.657343417220847,96.61016949152543,20.704568174903294,97.62711864406779,21.676880949276306C98.64406779661016,22.649193723649326,99.66101694915254,22.373082105446173,100.6779661016949,23.135350110835834C101.69491525423729,23.897618116225498,102.71186440677965,25.42313209023341,103.72881355932203,26.250488981614293C104.7457627118644,27.077845872995173,105.76271186440678,27.579866997000916,106.77966101694915,28.09949145912114C107.79661016949153,28.619115921241367,108.8135593220339,28.97542052418829,109.83050847457628,29.368235754335636C110.84745762711864,29.76105098448298,111.86440677966102,29.901769026817924,112.88135593220339,30.456382840005215C113.89830508474576,31.010996653192507,114.91525423728814,32.69591863345938,115.9322033898305,32.69591863345938C116.94915254237289,32.69591863345938,117.96610169491525,32.58899465380102,118.98305084745763,32.58899465380102C120,32.58899465380102,121.01694915254237,34.089190246446734,122.03389830508473,34.089190246446734C123.05084745762711,34.089190246446734,124.0677966101695,33.158169252836096,125.08474576271188,33.158169252836096C126.10169491525424,33.158169252836096,127.11864406779662,33.948472204111795,128.135593220339,34.37214760724997C129.15254237288136,34.79582301038815,130.16949152542372,35.100730212544015,131.1864406779661,35.70022167166515C132.20338983050846,36.29971313078629,133.22033898305085,37.256052505759115,134.23728813559322,37.96909636197679C135.25423728813558,38.68214021819446,136.27118644067798,39.97848480897118,137.28813559322035,39.97848480897118C138.3050847457627,39.97848480897118,139.3220338983051,39.679880036510625,140.33898305084747,39.679880036510625C141.35593220338984,39.679880036510625,142.3728813559322,39.68161863780588,143.38983050847457,39.6850958403964C144.40677966101694,39.68857304298692,145.42372881355934,40,146.4406779661017,40C147.45762711864407,40,148.47457627118644,39.34476463684965,149.4915254237288,39.34476463684965C150.50847457627117,39.34476463684965,151.52542372881356,39.660972747424694,152.54237288135593,39.660972747424694C153.5593220338983,39.660972747424694,154.5762711864407,39.3130351632112,155.59322033898306,39.07680271221802C156.61016949152543,38.84057026122484,157.6271186440678,38.437758073629766,158.64406779661016,38.24357804146564C159.66101694915253,38.04939800930151,160.67796610169492,37.91172251923327,161.6949152542373,37.91172251923327C162.71186440677965,37.91172251923327,163.72881355932205,38.53696701004042,164.74576271186442,38.53696701004042C165.76271186440678,38.53696701004042,166.77966101694915,38.31464336940931,167.79661016949152,38.31464336940931C168.81355932203388,38.31464336940931,169.83050847457628,39.19155039770504,170.84745762711864,39.19155039770504C171.864406779661,39.19155039770504,172.8813559322034,38.761137914547746,173.89830508474577,38.596948754726824C174.91525423728814,38.4327595949059,175.93220338983053,38.41309166775329,176.9491525423729,38.2064154387795C177.96610169491527,37.99973920980571,178.98305084745763,37.678315295344895,180,37.35689138088408L180,40C178.98305084745763,40,177.96610169491527,40,176.9491525423729,40C175.93220338983053,40,174.91525423728814,40,173.89830508474577,40C172.8813559322034,40,171.864406779661,40,170.84745762711864,40C169.83050847457628,40,168.81355932203388,40,167.79661016949152,40C166.77966101694915,40,165.76271186440678,40,164.74576271186442,40C163.72881355932205,40,162.71186440677965,40,161.6949152542373,40C160.67796610169492,40,159.66101694915253,40,158.64406779661016,40C157.6271186440678,40,156.61016949152543,40,155.59322033898306,40C154.5762711864407,40,153.5593220338983,40,152.54237288135593,40C151.52542372881356,40,150.50847457627117,40,149.4915254237288,40C148.47457627118644,40,147.45762711864407,40,146.4406779661017,40C145.42372881355934,40,144.40677966101694,40,143.38983050847457,40C142.3728813559322,40,141.35593220338984,40,140.33898305084747,40C139.3220338983051,40,138.3050847457627,40,137.28813559322035,40C136.27118644067798,40,135.25423728813558,40,134.23728813559322,40C133.22033898305085,40,132.20338983050846,40,131.1864406779661,40C130.16949152542372,40,129.15254237288136,40,128.135593220339,40C127.11864406779662,40,126.10169491525424,40,125.08474576271188,40C124.0677966101695,40,123.05084745762711,40,122.03389830508473,40C121.01694915254237,40,120,40,118.98305084745763,40C117.96610169491525,40,116.94915254237289,40,115.9322033898305,40C114.91525423728814,40,113.89830508474576,40,112.88135593220339,40C111.86440677966102,40,110.84745762711864,40,109.83050847457628,40C108.8135593220339,40,107.79661016949153,40,106.77966101694915,40C105.76271186440678,40,104.7457627118644,40,103.72881355932203,40C102.71186440677965,40,101.69491525423729,40,100.6779661016949,40C99.66101694915254,40,98.64406779661016,40,97.62711864406779,40C96.61016949152543,40,95.59322033898306,40,94.57627118644069,40C93.55932203389831,40,92.54237288135593,40,91.52542372881355,40C90.50847457627118,40,89.49152542372882,40,88.47457627118645,40C87.45762711864407,40,86.4406779661017,40,85.42372881355932,40C84.40677966101696,40,83.38983050847457,40,82.37288135593221,40C81.35593220338983,40,80.33898305084746,40,79.32203389830508,40C78.30508474576271,40,77.28813559322033,40,76.27118644067797,40C75.2542372881356,40,74.23728813559322,40,73.22033898305085,40C72.20338983050848,40,71.1864406779661,40,70.16949152542374,40C69.15254237288136,40,68.13559322033899,40,67.11864406779661,40C66.10169491525424,40,65.08474576271186,40,64.0677966101695,40C63.05084745762712,40,62.03389830508474,40,61.01694915254237,40C59.99999999999999,40,58.983050847457626,40,57.96610169491525,40C56.94915254237288,40,55.93220338983051,40,54.91525423728814,40C53.898305084745765,40,52.88135593220339,40,51.86440677966102,40C50.847457627118644,40,49.83050847457627,40,48.813559322033896,40C47.79661016949152,40,46.77966101694915,40,45.762711864406775,40C44.7457627118644,40,43.728813559322035,40,42.71186440677966,40C41.69491525423729,40,40.67796610169491,40,39.66101694915254,40C38.644067796610166,40,37.6271186440678,40,36.610169491525426,40C35.59322033898305,40,34.57627118644068,40,33.559322033898304,40C32.54237288135593,40,31.525423728813557,40,30.508474576271183,40C29.491525423728813,40,28.47457627118644,40,27.45762711864407,40C26.440677966101696,40,25.423728813559322,40,24.406779661016948,40C23.389830508474574,40,22.372881355932204,40,21.35593220338983,40C20.338983050847457,40,19.322033898305087,40,18.305084745762713,40C17.28813559322034,40,16.271186440677965,40,15.254237288135592,40C14.23728813559322,40,13.220338983050846,40,12.203389830508474,40C11.186440677966102,40,10.169491525423728,40,9.152542372881356,40C8.135593220338983,40,7.11864406779661,40,6.101694915254237,40C5.084745762711864,40,4.067796610169491,40,3.0508474576271185,40C2.0338983050847457,40,1.0169491525423728,40,0,40Z"></path><path class="line" stroke="black" fill="none" d="M0,25.640891902464467C1.0169491525423728,25.363856652323204,2.0338983050847457,25.08682140218194,3.0508474576271185,24.72682227148259C4.067796610169491,24.36682314078324,5.084745762711864,23.904789846568438,6.101694915254237,23.480897118268356C7.11864406779661,23.057004389968274,8.135593220338983,22.620615464858524,9.152542372881356,22.183465901682098C10.169491525423728,21.74631633850567,11.186440677966102,21.302103707567262,12.203389830508474,20.857999739209806C13.220338983050846,20.41389577085235,14.23728813559322,19.849176337636372,15.254237288135592,19.51884209153736C16.271186440677965,19.188507845438345,17.28813559322034,19.28250097796323,18.305084745762713,18.875994262615727C19.322033898305087,18.469487547268223,20.338983050847457,17.716673186421524,21.35593220338983,17.07980179945234C22.372881355932204,16.442930412483157,23.389830508474574,15.70685008910332,24.406779661016948,15.054765940800628C25.423728813559322,14.402681792497937,26.440677966101696,13.799495805624375,27.45762711864407,13.167296909636196C28.47457627118644,12.53509801364802,29.491525423728813,11.878667362107183,30.508474576271183,11.26157256487156C31.525423728813557,10.644477767635935,32.54237288135593,9.957838918589994,33.559322033898304,9.464728126222454C34.57627118644068,8.971617333854914,35.59322033898305,8.730277741556918,36.610169491525426,8.30290781066632C37.6271186440678,7.875537879775721,38.644067796610166,7.3327682879123754,39.66101694915254,6.900508540878865C40.67796610169491,6.468248793845353,41.69491525423729,6.097057417307779,42.71186440677966,5.709349328465252C43.728813559322035,5.321641239622726,44.7457627118644,4.969574477332984,45.762711864406775,4.574260007823705C46.77966101694915,4.178945538314425,47.79661016949152,3.7662450558525653,48.813559322033896,3.33746251140957C49.83050847457627,2.908679966966575,50.847457627118644,2.202373190768029,51.86440677966102,2.0015647411657334C52.88135593220339,1.8007562915634374,53.898305084745765,1.7003520667622896,54.91525423728814,1.7003520667622896C55.93220338983051,1.7003520667622896,56.94915254237288,1.7329508410483758,57.96610169491525,1.7981483896205486C58.983050847457626,1.8633459381927213,59.99999999999999,2.302234102664407,61.01694915254237,2.5427043943147742C62.03389830508474,2.7831746859651423,63.05084745762712,3.240970139522754,64.0677966101695,3.240970139522754C65.08474576271186,3.240970139522754,66.10169491525424,3.2083713652366663,67.11864406779661,3.2083713652366663C68.13559322033899,3.2083713652366663,69.15254237288136,3.456882687877602,70.16949152542374,3.6914852001564746C71.1864406779661,3.926087712435346,72.20338983050848,4.270439431477378,73.22033898305085,4.615986438909898C74.23728813559322,4.961533446342418,75.2542372881356,5.341200504194377,76.27118644067797,5.7647672447515985C77.28813559322033,6.18833398530882,78.30508474576271,6.6564523840570295,79.32203389830508,7.157386882253229C80.33898305084746,7.658321380449431,81.35593220338983,8.288781675142348,82.37288135593221,8.770374233928804C83.38983050847457,9.251966792715258,84.40677966101696,9.47505107141305,85.42372881355932,10.046942234971965C86.4406779661017,10.618833398530883,87.45762711864407,11.516386317207804,88.47457627118645,12.201721215282305C89.49152542372882,12.8870561133568,90.50847457627118,13.45851262659191,91.52542372881355,14.158951623418957C92.54237288135593,14.859390620246014,93.55932203389831,15.151366975268383,94.57627118644069,16.404355196244623C95.59322033898306,17.657343417220847,96.61016949152543,20.704568174903294,97.62711864406779,21.676880949276306C98.64406779661016,22.649193723649326,99.66101694915254,22.373082105446173,100.6779661016949,23.135350110835834C101.69491525423729,23.897618116225498,102.71186440677965,25.42313209023341,103.72881355932203,26.250488981614293C104.7457627118644,27.077845872995173,105.76271186440678,27.579866997000916,106.77966101694915,28.09949145912114C107.79661016949153,28.619115921241367,108.8135593220339,28.97542052418829,109.83050847457628,29.368235754335636C110.84745762711864,29.76105098448298,111.86440677966102,29.901769026817924,112.88135593220339,30.456382840005215C113.89830508474576,31.010996653192507,114.91525423728814,32.69591863345938,115.9322033898305,32.69591863345938C116.94915254237289,32.69591863345938,117.96610169491525,32.58899465380102,118.98305084745763,32.58899465380102C120,32.58899465380102,121.01694915254237,34.089190246446734,122.03389830508473,34.089190246446734C123.05084745762711,34.089190246446734,124.0677966101695,33.158169252836096,125.08474576271188,33.158169252836096C126.10169491525424,33.158169252836096,127.11864406779662,33.948472204111795,128.135593220339,34.37214760724997C129.15254237288136,34.79582301038815,130.16949152542372,35.100730212544015,131.1864406779661,35.70022167166515C132.20338983050846,36.29971313078629,133.22033898305085,37.256052505759115,134.23728813559322,37.96909636197679C135.25423728813558,38.68214021819446,136.27118644067798,39.97848480897118,137.28813559322035,39.97848480897118C138.3050847457627,39.97848480897118,139.3220338983051,39.679880036510625,140.33898305084747,39.679880036510625C141.35593220338984,39.679880036510625,142.3728813559322,39.68161863780588,143.38983050847457,39.6850958403964C144.40677966101694,39.68857304298692,145.42372881355934,40,146.4406779661017,40C147.45762711864407,40,148.47457627118644,39.34476463684965,149.4915254237288,39.34476463684965C150.50847457627117,39.34476463684965,151.52542372881356,39.660972747424694,152.54237288135593,39.660972747424694C153.5593220338983,39.660972747424694,154.5762711864407,39.3130351632112,155.59322033898306,39.07680271221802C156.61016949152543,38.84057026122484,157.6271186440678,38.437758073629766,158.64406779661016,38.24357804146564C159.66101694915253,38.04939800930151,160.67796610169492,37.91172251923327,161.6949152542373,37.91172251923327C162.71186440677965,37.91172251923327,163.72881355932205,38.53696701004042,164.74576271186442,38.53696701004042C165.76271186440678,38.53696701004042,166.77966101694915,38.31464336940931,167.79661016949152,38.31464336940931C168.81355932203388,38.31464336940931,169.83050847457628,39.19155039770504,170.84745762711864,39.19155039770504C171.864406779661,39.19155039770504,172.8813559322034,38.761137914547746,173.89830508474577,38.596948754726824C174.91525423728814,38.4327595949059,175.93220338983053,38.41309166775329,176.9491525423729,38.2064154387795C177.96610169491527,37.99973920980571,178.98305084745763,37.678315295344895,180,37.35689138088408"></path><path class="axis-ceiling" stroke-width="1" stroke="black" fill="none" d="M175,0L180,0"></path><text class="axis-ceiling-label" font-family="sans-serif" text-anchor="end" font-size="10px" x="170" y="2.5">45000</text></g></svg>