<svg xmlns="http://www.w3.org/2000/svg" viewBox="0 0 180 60"><g transform="translate(0,20)"><path class="area" fill="rgba(0, 0, 0, 0.2)" d="M0,10.788126919140225C1.0169491525423728,10.962128966223132,2.0338983050847457,11.136131013306038,3.0508474576271185,11.136131013306038C4.067796610169491,11.136131013306038,5.084745762711864,10.685772773797337,6.101694915254237,10.685772773797337C7.11864406779661,10.685772773797337,8.135593220338983,11.354486523370865,9.152542372881356,11.50460593654043C10.169491525423728,11.654725349709997,11.186440677966102,11.72978505629478,12.203389830508474,11.72978505629478C13.220338983050846,11.72978505629478,14.23728813559322,10.931422722620265,15.254237288135592,10.931422722620265C16.271186440677965,10.931422722620265,17.28813559322034,11.078130330945072,18.305084745762713,11.156601842374618C19.322033898305087,11.235073353804164,20.338983050847457,11.38860457181849,21.35593220338983,11.402251791197543C22.372881355932204,11.415899010576595,23.389830508474574,11.422722620266121,24.406779661016948,11.422722620266121C25.423728813559322,11.422722620266121,26.440677966101696,11.238485158648924,27.45762711864407,11.238485158648924C28.47457627118644,11.238485158648924,29.491525423728813,11.791197543500513,30.508474576271183,11.791197543500513C31.525423728813557,11.791197543500513,32.54237288135593,11.518253155919481,33.559322033898304,11.299897645854657C34.57627118644068,11.081542135789832,35.59322033898305,10.562947799385869,36.610169491525426,10.481064483111563C37.6271186440678,10.399181166837257,38.644067796610166,10.358239508700105,39.66101694915254,10.358239508700105C40.67796610169491,10.358239508700105,41.69491525423729,10.767656090071647,42.71186440677966,10.767656090071647C43.728813559322035,10.767656090071647,44.7457627118644,10.74718526100307,45.762711864406775,10.706243602865918C46.77966101694915,10.665301944728766,47.79661016949152,8.536335721596725,48.813559322033896,8.536335721596725C49.83050847457627,8.536335721596725,50.847457627118644,8.631866257250085,51.86440677966102,8.822927328556807C52.88135593220339,9.013988399863528,53.898305084745765,9.969293756397132,54.91525423728814,9.969293756397132C55.93220338983051,9.969293756397132,56.94915254237288,6.673490276356193,57.96610169491525,6.673490276356193C58.983050847457626,6.673490276356193,59.99999999999999,7.226202661207779,61.01694915254237,7.226202661207779C62.03389830508474,7.226202661207779,63.05084745762712,7.007847151142954,64.0677966101695,6.734902763561923C65.08474576271186,6.461958375980893,66.10169491525424,5.588536335721597,67.11864406779661,5.588536335721597C68.13559322033899,5.588536335721597,69.15254237288136,5.670419651995906,70.16949152542374,5.670419651995906C71.1864406779661,5.670419651995906,72.20338983050848,5.240532241555784,73.22033898305085,5.240532241555784C74.23728813559322,5.240532241555784,75.2542372881356,7.103377686796315,76.27118644067797,7.103377686796315C77.28813559322033,7.103377686796315,78.30508474576271,6.073012623677923,79.32203389830508,5.11770726714432C80.33898305084746,4.162401910610713,81.35593220338983,2.224496758785399,82.37288135593221,1.3715455475946792C83.38983050847457,0.5185943364039629,84.40677966101696,0,85.42372881355932,0C86.4406779661017,0,87.45762711864407,0,88.47457627118645,0C89.49152542372882,0,90.50847457627118,0.020470829068576592,91.52542372881355,0.06141248720572978C92.54237288135593,0.10235414534288353,93.55932203389831,0.45035823950869835,94.57627118644069,1.2282497441146356C95.59322033898306,2.006141248720562,96.61016949152543,6.407369498464686,97.62711864406779,6.407369498464686C98.64406779661016,6.407369498464686,99.66101694915254,3.7495735243944033,100.6779661016949,2.988741044012282C101.69491525423729,2.2279085636301565,102.71186440677965,1.8423746161719556,103.72881355932203,1.8423746161719556C104.7457627118644,1.8423746161719556,105.76271186440678,1.9617877857386552,106.77966101694915,2.067553735926304C107.79661016949153,2.1733196861139534,108.8135593220339,2.4769703172978508,109.83050847457628,2.4769703172978508C110.84745762711864,2.4769703172978508,111.86440677966102,1.5762538382804525,112.88135593220339,1.5762538382804525C113.89830508474576,1.5762538382804525,114.91525423728814,11.750255885363359,115.9322033898305,11.750255885363359C116.94915254237289,11.750255885363359,117.96610169491525,6.980552712384851,118.98305084745763,6.980552712384851C120,6.980552712384851,121.01694915254237,12.958034800409415,122.03389830508473,12.958034800409415C123.05084745762711,12.958034800409415,124.0677966101695,4.52405322415558,125.08474576271188,4.52405322415558C126.10169491525424,4.52405322415558,127.11864406779662,11.177072671443193,128.135593220339,11.177072671443193C129.15254237288136,11.177072671443193,130.16949152542372,5.383828045035823,131.1864406779661,5.383828045035823C132.20338983050846,5.383828045035823,133.22033898305085,7.720914363698396,134.23728813559322,8.741044012282497C135.25423728813558,9.761173660866598,136.27118644067798,10.774479699761175,137.28813559322035,11.50460593654043C138.3050847457627,12.234732173319687,139.3220338983051,12.71579665643125,140.33898305084747,13.121801432958033C141.35593220338984,13.527806209484813,142.3728813559322,13.940634595701127,143.38983050847457,13.940634595701127C144.40677966101694,13.940634595701127,145.42372881355934,12.139201637666325,146.4406779661017,12.139201637666325C147.45762711864407,12.139201637666325,148.47457627118644,12.934152166496082,149.4915254237288,13.46980552712385C150.50847457627117,14.005458887751622,151.52542372881356,15.353121801432955,152.54237288135593,15.353121801432955C153.5593220338983,15.353121801432955,154.5762711864407,9.68270214943705,155.59322033898306,9.68270214943705C156.61016949152543,9.68270214943705,157.6271186440678,11.927669737291026,158.64406779661016,12.118730808597746C159.66101694915253,12.309791879904468,160.67796610169492,12.214261344251108,161.6949152542373,12.40532241555783C162.71186440677965,12.596383486864552,163.72881355932205,22.49744114636643,164.74576271186442,22.49744114636643C165.76271186440678,22.49744114636643,166.77966101694915,15.516888433981574,167.79661016949152,15.516888433981574C168.81355932203388,15.516888433981574,169.83050847457628,40,170.84745762711864,40C171.864406779661,40,172.8813559322034,28.280450358239506,173.89830508474577,24.72876151484135C174.91525423728814,21.17707267144319,175.93220338983053,21.02695325827364,176.9491525423729,18.689866939611054C177.96610169491527,16.35278062094849,178.98305084745763,13.529512111907204,180,10.706243602865918L180,40C178.98305084745763,40,177.96610169491527,40,176.9491525423729,40C175.93220338983053,40,174.91525423728814,40,173.89830508474577,40C172.8813559322034,40,171.864406779661,40,170.84745762711864,40C169.83050847457628,40,168.81355932203388,40,167.79661016949152,40C166.77966101694915,40,165.76271186440678,40,164.74576271186442,40C163.72881355932205,40,162.71186440677965,40,161.6949152542373,40C160.67796610169492,40,159.66101694915253,40,158.64406779661016,40C157.6271186440678,40,156.61016949152543,40,155.59322033898306,40C154.5762711864407,40,153.5593220338983,40,152.54237288135593,40C151.52542372881356,40,150.50847457627117,40,149.4915254237288,40C148.47457627118644,40,147.45762711864407,40,146.4406779661017,40C145.42372881355934,40,144.40677966101694,40,143.38983050847457,40C142.3728813559322,40,141.35593220338984,40,140.33898305084747,40C139.3220338983051,40,138.3050847457627,40,137.28813559322035,40C136.27118644067798,40,135.25423728813558,40,134.23728813559322,40C133.22033898305085,40,132.20338983050846,40,131.1864406779661,40C130.16949152542372,40,129.15254237288136,40,128.135593220339,40C127.11864406779662,40,126.10169491525424,40,125.08474576271188,40C124.0677966101695,40,123.05084745762711,40,122.03389830508473,40C121.01694915254237,40,120,40,118.98305084745763,40C117.96610169491525,40,116.94915254237289,40,115.9322033898305,40C114.91525423728814,40,113.89830508474576,40,112.88135593220339,40C111.86440677966102,40,110.84745762711864,40,109.83050847457628,40C108.8135593220339,40,107.79661016949153,40,106.77966101694915,40C105.76271186440678,40,104.7457627118644,40,103.72881355932203,40C102.71186440677965,40,101.69491525423729,40,100.6779661016949,40C99.66101694915254,40,98.64406779661016,40,97.62711864406779,40C96.61016949152543,40,95.59322033898306,40,94.57627118644069,40C93.55932203389831,40,92.54237288135593,40,91.52542372881355,40C90.50847457627118,40,89.49152542372882,40,88.47457627118645,40C87.45762711864407,40,86.4406779661017,40,85.42372881355932,40C84.40677966101696,40,83.38983050847457,40,82.37288135593221,40C81.35593220338983,40,80.33898305084746,40,79.32203389830508,40C78.30508474576271,40,77.28813559322033,40,76.27118644067797,40C75.2542372881356,40,74.23728813559322,40,73.22033898305085,40C72.20338983050848,40,71.1864406779661,40,70.16949152542374,40C69.15254237288136,40,68.13559322033899,40,67.11864406779661,40C66.10169491525424,40,65.08474576271186,40,64.0677966101695,40C63.05084745762712,40,62.03389830508474,40,61.01694915254237,40C59.99999999999999,40,58.983050847457626,40,57.96610169491525,40C56.94915254237288,40,55.93220338983051,40,54.91525423728814,40C53.898305084745765,40,52.88135593220339,40,51.86440677966102,40C50.847457627118644,40,49.83050847457627,40,48.813559322033896,40C47.79661016949152,40,46.77966101694915,40,45.762711864406775,40C44.7457627118644,40,43.728813559322035,40,42.71186440677966,40C41.69491525423729,40,40.67796610169491,40,39.66101694915254,40C38.644067796610166,40,37.6271186440678,40,36.610169491525426,40C35.59322033898305,40,34.57627118644068,40,33.559322033898304,40C32.54237288135593,40,31.525423728813557,40,30.508474576271183,40C29.491525423728813,40,28.47457627118644,40,27.45762711864407,40C26.440677966101696,40,25.423728813559322,40,24.406779661016948,40C23.389830508474574,40,22.372881355932204,40,21.35593220338983,40C20.338983050847457,40,19.322033898305087,40,18.305084745762713,40C17.28813559322034,40,16.271186440677965,40,15.254237288135592,40C14.23728813559322,40,13.220338983050846,40,12.203389830508474,40C11.186440677966102,40,10.169491525423728,40,9.152542372881356,40C8.135593220338983,40,7.11864406779661,40,6.101694915254237,40C5.084745762711864,40,4.067796610169491,40,3.0508474576271185,40C2.0338983050847457,40,1.0169491525423728,40,0,40Z"></path><path class="line" stroke="black" fill="none" d="M0,10.788126919140225C1.0169491525423728,10.962128966223132,2.0338983050847457,11.136131013306038,3.0508474576271185,11.136131013306038C4.067796610169491,11.136131013306038,5.084745762711864,10.685772773797337,6.101694915254237,10.685772773797337C7.11864406779661,10.685772773797337,8.135593220338983,11.354486523370865,9.152542372881356,11.50460593654043C10.169491525423728,11.654725349709997,11.186440677966102,11.72978505629478,12.203389830508474,11.72978505629478C13.220338983050846,11.72978505629478,14.23728813559322,10.931422722620265,15.254237288135592,10.931422722620265C16.271186440677965,10.931422722620265,17.28813559322034,11.078130330945072,18.305084745762713,11.156601842374618C19.322033898305087,11.235073353804164,20.338983050847457,11.38860457181849,21.35593220338983,11.402251791197543C22.372881355932204,11.415899010576595,23.389830508474574,11.422722620266121,24.406779661016948,11.422722620266121C25.423728813559322,11.422722620266121,26.440677966101696,11.238485158648924,27.45762711864407,11.238485158648924C28.47457627118644,11.238485158648924,29.491525423728813,11.791197543500513,30.508474576271183,11.791197543500513C31.525423728813557,11.791197543500513,32.54237288135593,11.518253155919481,33.559322033898304,11.299897645854657C34.57627118644068,11.081542135789832,35.59322033898305,10.562947799385869,36.610169491525426,10.481064483111563C37.6271186440678,10.399181166837257,38.644067796610166,10.358239508700105,39.66101694915254,10.358239508700105C40.67796610169491,10.358239508700105,41.69491525423729,10.767656090071647,42.71186440677966,10.767656090071647C43.728813559322035,10.767656090071647,44.7457627118644,10.74718526100307,45.762711864406775,10.706243602865918C46.77966101694915,10.665301944728766,47.79661016949152,8.536335721596725,48.813559322033896,8.536335721596725C49.83050847457627,8.536335721596725,50.847457627118644,8.631866257250085,51.86440677966102,8.822927328556807C52.88135593220339,9.013988399863528,53.898305084745765,9.969293756397132,54.91525423728814,9.969293756397132C55.93220338983051,9.969293756397132,56.94915254237288,6.673490276356193,57.96610169491525,6.673490276356193C58.983050847457626,6.673490276356193,59.99999999999999,7.226202661207779,61.01694915254237,7.226202661207779C62.03389830508474,7.226202661207779,63.05084745762712,7.007847151142954,64.0677966101695,6.734902763561923C65.08474576271186,6.461958375980893,66.10169491525424,5.588536335721597,67.11864406779661,5.588536335721597C68.13559322033899,5.588536335721597,69.15254237288136,5.670419651995906,70.16949152542374,5.670419651995906C71.1864406779661,5.670419651995906,72.20338983050848,5.240532241555784,73.22033898305085,5.240532241555784C74.23728813559322,5.240532241555784,75.2542372881356,7.103377686796315,76.27118644067797,7.103377686796315C77.28813559322033,7.103377686796315,78.30508474576271,6.073012623677923,79.32203389830508,5.11770726714432C80.33898305084746,4.162401910610713,81.35593220338983,2.224496758785399,82.37288135593221,1.3715455475946792C83.38983050847457,0.5185943364039629,84.40677966101696,0,85.42372881355932,0C86.4406779661017,0,87.45762711864407,0,88.47457627118645,0C89.49152542372882,0,90.50847457627118,0.020470829068576592,91.52542372881355,0.06141248720572978C92.54237288135593,0.10235414534288353,93.55932203389831,0.45035823950869835,94.57627118644069,1.2282497441146356C95.59322033898306,2.006141248720562,96.61016949152543,6.407369498464686,97.62711864406779,6.407369498464686C98.64406779661016,6.407369498464686,99.66101694915254,3.7495735243944033,100.6779661016949,2.988741044012282C101.69491525423729,2.2279085636301565,102.71186440677965,1.8423746161719556,103.72881355932203,1.8423746161719556C104.7457627118644,1.8423746161719556,105.76271186440678,1.9617877857386552,106.77966101694915,2.067553735926304C107.79661016949153,2.1733196861139534,108.8135593220339,2.4769703172978508,109.83050847457628,2.4769703172978508C110.84745762711864,2.4769703172978508,111.86440677966102,1.5762538382804525,112.88135593220339,1.5762538382804525C113.89830508474576,1.5762538382804525,114.91525423728814,11.750255885363359,115.9322033898305,11.750255885363359C116.94915254237289,11.750255885363359,117.96610169491525,6.980552712384851,118.98305084745763,6.980552712384851C120,6.980552712384851,121.01694915254237,12.958034800409415,122.03389830508473,12.958034800409415C123.05084745762711,12.958034800409415,124.0677966101695,4.52405322415558,125.08474576271188,4.52405322415558C126.10169491525424,4.52405322415558,127.11864406779662,11.177072671443193,128.135593220339,11.177072671443193C129.15254237288136,11.177072671443193,130.16949152542372,5.383828045035823,131.1864406779661,5.383828045035823C132.20338983050846,5.383828045035823,133.22033898305085,7.720914363698396,134.23728813559322,8.741044012282497C135.25423728813558,9.761173660866598,136.27118644067798,10.774479699761175,137.28813559322035,11.50460593654043C138.3050847457627,12.234732173319687,139.3220338983051,12.71579665643125,140.33898305084747,13.121801432958033C141.35593220338984,13.527806209484813,142.3728813559322,13.940634595701127,143.38983050847457,13.940634595701127C144.40677966101694,13.940634595701127,145.42372881355934,12.139201637666325,146.4406779661017,12.139201637666325C147.45762711864407,12.139201637666325,148.47457627118644,12.934152166496082,149.4915254237288,13.46980552712385C150.50847457627117,14.005458887751622,151.52542372881356,15.353121801432955,152.54237288135593,15.353121801432955C153.5593220338983,15.353121801432955,154.5762711864407,9.68270214943705,155.59322033898306,9.68270214943705C156.61016949152543,9.68270214943705,157.6271186440678,11.927669737291026,158.64406779661016,12.118730808597746C159.66101694915253,12.309791879904468,160.67796610169492,12.214261344251108,161.6949152542373,12.40532241555783C162.71186440677965,12.596383486864552,163.72881355932205,22.49744114636643,164.74576271186442,22.49744114636643C165.76271186440678,22.49744114636643,166.77966101694915,15.516888433981574,167.79661016949152,15.516888433981574C168.81355932203388,15.516888433981574,169.83050847457628,40,170.84745762711864,40C171.864406779661,40,172.8813559322034,28.280450358239506,173.89830508474577,24.72876151484135C174.91525423728814,21.17707267144319,175.93220338983053,21.02695325827364,176.9491525423729,18.689866939611054C177.96610169491527,16.35278062094849,178.98305084745763,13.529512111907204,180,10.706243602865918"></path><path class="axis-ceiling" stroke-width="1" stroke="black" fill="none" d="M175,-3.5005117707267175L180,-3.5005117707267175"></path><text class="axis-ceiling-label" font-family="sans-serif" text-anchor="end" font-size="10px" x="170" y="-1.0005117707267175">750</text></g></svg>