<svg xmlns="http://www.w3.org/2000/svg" viewBox="0 0 180 60"><g transform="translate(0,20)"><path class="area" fill="rgba(0, 0, 0, 0.2)" d="M0,38.018C1.0169491525423728,38.032333333333334,2.0338983050847457,38.04666666666667,3.0508474576271185,38.064C4.067796610169491,38.08133333333333,5.084745762711864,38.10466666666667,6.101694915254237,38.122C7.11864406779661,38.13933333333333,8.135593220338983,38.147,9.152542372881356,38.168C10.169491525423728,38.189,11.186440677966102,38.22066666666667,12.203389830508474,38.248000000000005C13.220338983050846,38.275333333333336,14.23728813559322,38.30766666666667,15.254237288135592,38.332C16.271186440677965,38.35633333333333,17.28813559322034,38.373666666666665,18.305084745762713,38.394C19.322033898305087,38.41433333333333,20.338983050847457,38.434,21.35593220338983,38.454C22.372881355932204,38.474000000000004,23.389830508474574,38.497,24.406779661016948,38.513999999999996C25.423728813559322,38.531,26.440677966101696,38.544666666666664,27.45762711864407,38.556C28.47457627118644,38.56733333333333,29.491525423728813,38.582,30.508474576271183,38.582C31.525423728813557,38.582,32.54237288135593,38.57866666666667,33.559322033898304,38.572C34.57627118644068,38.565333333333335,35.59322033898305,38.55366666666667,36.610169491525426,38.542C37.6271186440678,38.53033333333334,38.644067796610166,38.517,39.66101694915254,38.502C40.67796610169491,38.487,41.69491525423729,38.471,42.71186440677966,38.452C43.728813559322035,38.433,44.7457627118644,38.413,45.762711864406775,38.388C46.77966101694915,38.363,47.79661016949152,38.33033333333333,48.813559322033896,38.302C49.83050847457627,38.27366666666667,50.847457627118644,38.25233333333334,51.86440677966102,38.218C52.88135593220339,38.18366666666667,53.898305084745765,38.14233333333334,54.91525423728814,38.096000000000004C55.93220338983051,38.04966666666667,56.94915254237288,37.998999999999995,57.96610169491525,37.94C58.983050847457626,37.881,59.99999999999999,37.81066666666666,61.01694915254237,37.742C62.03389830508474,37.67333333333333,63.05084745762712,37.60133333333333,64.0677966101695,37.528C65.08474576271186,37.45466666666667,66.10169491525424,37.38066666666666,67.11864406779661,37.302C68.13559322033899,37.22333333333333,69.15254237288136,37.14033333333333,70.16949152542374,37.056C71.1864406779661,36.971666666666664,72.20338983050848,36.88533333333333,73.22033898305085,36.796C74.23728813559322,36.70666666666667,75.2542372881356,36.61666666666667,76.27118644067797,36.52C77.28813559322033,36.42333333333334,78.30508474576271,36.31766666666667,79.32203389830508,36.216C80.33898305084746,36.114333333333335,81.35593220338983,36.01866666666667,82.37288135593221,35.910000000000004C83.38983050847457,35.80133333333334,84.40677966101696,35.68233333333333,85.42372881355932,35.564C86.4406779661017,35.44566666666667,87.45762711864407,35.32233333333334,88.47457627118645,35.2C89.49152542372882,35.07766666666667,90.50847457627118,34.958666666666666,91.52542372881355,34.83C92.54237288135593,34.70133333333333,93.55932203389831,34.56833333333333,94.57627118644069,34.428C95.59322033898306,34.28766666666667,96.61016949152543,34.138333333333335,97.62711864406779,33.988C98.64406779661016,33.837666666666664,99.66101694915254,33.68966666666666,100.6779661016949,33.525999999999996C101.69491525423729,33.36233333333333,102.71186440677965,33.181666666666665,103.72881355932203,33.006C104.7457627118644,32.830333333333336,105.76271186440678,32.653333333333336,106.77966101694915,32.472C107.79661016949153,32.29066666666667,108.8135593220339,32.10633333333333,109.83050847457628,31.918C110.84745762711864,31.729666666666667,111.86440677966102,31.53933333333333,112.88135593220339,31.342C113.89830508474576,31.144666666666666,114.91525423728814,30.94833333333333,115.9322033898305,30.733999999999998C116.94915254237289,30.519666666666666,117.96610169491525,30.290000000000006,118.98305084745763,30.056000000000004C120,29.822000000000006,121.01694915254237,29.57933333333333,122.03389830508473,29.33C123.05084745762711,29.080666666666662,124.0677966101695,28.833,125.08474576271188,28.56C126.10169491525424,28.287,127.11864406779662,27.98166666666667,128.135593220339,27.692C129.15254237288136,27.402333333333335,130.16949152542372,27.11433333333333,131.1864406779661,26.822C132.20338983050846,26.529666666666664,133.22033898305085,26.245666666666665,134.23728813559322,25.938C135.25423728813558,25.630333333333333,136.27118644067798,25.298333333333336,137.28813559322035,24.976000000000003C138.3050847457627,24.65366666666667,139.3220338983051,24.34433333333334,140.33898305084747,24.004000000000005C141.35593220338984,23.66366666666667,142.3728813559322,23.309666666666665,143.38983050847457,22.934C144.40677966101694,22.558333333333334,145.42372881355934,22.15866666666667,146.4406779661017,21.75C147.45762711864407,21.341333333333335,148.47457627118644,20.91133333333333,149.4915254237288,20.482C150.50847457627117,20.052666666666664,151.52542372881356,19.621333333333336,152.54237288135593,19.174000000000003C153.5593220338983,18.72666666666667,154.5762711864407,18.254,155.59322033898306,17.798C156.61016949152543,17.342,157.6271186440678,16.891333333333332,158.64406779661016,16.438000000000002C159.66101694915253,15.984666666666667,160.67796610169492,15.507666666666667,161.6949152542373,15.078C162.71186440677965,14.648333333333332,163.72881355932205,14.240000000000004,164.74576271186442,13.860000000000001C165.76271186440678,13.480000000000002,166.77966101694915,13.127999999999997,167.79661016949152,12.797999999999998C168.81355932203388,12.467999999999996,169.83050847457628,12.172666666666668,170.84745762711864,11.880000000000003C171.864406779661,11.587333333333337,172.8813559322034,11.28566666666667,173.89830508474577,11.042000000000002C174.91525423728814,10.798333333333334,175.93220338983053,10.647,176.9491525423729,10.418C177.96610169491527,10.189,178.98305084745763,9.9285,180,9.668000000000001L180,40C178.98305084745763,40,177.96610169491527,40,176.9491525423729,40C175.93220338983053,40,174.91525423728814,40,173.89830508474577,40C172.8813559322034,40,171.864406779661,40,170.84745762711864,40C169.83050847457628,40,168.81355932203388,40,167.79661016949152,40C166.77966101694915,40,165.76271186440678,40,164.74576271186442,40C163.72881355932205,40,162.71186440677965,40,161.6949152542373,40C160.67796610169492,40,159.66101694915253,40,158.64406779661016,40C157.6271186440678,40,156.61016949152543,40,155.59322033898306,40C154.5762711864407,40,153.5593220338983,40,152.54237288135593,40C151.52542372881356,40,150.50847457627117,40,149.4915254237288,40C148.47457627118644,40,147.45762711864407,40,146.4406779661017,40C145.42372881355934,40,144.40677966101694,40,143.38983050847457,40C142.3728813559322,40,141.35593220338984,40,140.33898305084747,40C139.3220338983051,40,138.3050847457627,40,137.28813559322035,40C136.27118644067798,40,135.25423728813558,40,134.23728813559322,40C133.22033898305085,40,132.20338983050846,40,131.1864406779661,40C130.16949152542372,40,129.15254237288136,40,128.135593220339,40C127.11864406779662,40,126.10169491525424,40,125.08474576271188,40C124.0677966101695,40,123.05084745762711,40,122.03389830508473,40C121.01694915254237,40,120,40,118.98305084745763,40C117.96610169491525,40,116.94915254237289,40,115.9322033898305,40C114.91525423728814,40,113.89830508474576,40,112.88135593220339,40C111.86440677966102,40,110.84745762711864,40,109.83050847457628,40C108.8135593220339,40,107.79661016949153,40,106.77966101694915,40C105.76271186440678,40,104.7457627118644,40,103.72881355932203,40C102.71186440677965,40,101.69491525423729,40,100.6779661016949,40C99.66101694915254,40,98.64406779661016,40,97.62711864406779,40C96.61016949152543,40,95.59322033898306,40,94.57627118644069,40C93.55932203389831,40,92.54237288135593,40,91.52542372881355,40C90.50847457627118,40,89.49152542372882,40,88.47457627118645,40C87.45762711864407,40,86.4406779661017,40,85.42372881355932,40C84.40677966101696,40,83.38983050847457,40,82.37288135593221,40C81.35593220338983,40,80.33898305084746,40,79.32203389830508,40C78.30508474576271,40,77.28813559322033,40,76.27118644067797,40C75.2542372881356,40,74.23728813559322,40,73.22033898305085,40C72.20338983050848,40,71.1864406779661,40,70.16949152542374,40C69.15254237288136,40,68.13559322033899,40,67.11864406779661,40C66.10169491525424,40,65.08474576271186,40,64.0677966101695,40C63.05084745762712,40,62.03389830508474,40,61.01694915254237,40C59.99999999999999,40,58.983050847457626,40,57.96610169491525,40C56.94915254237288,40,55.93220338983051,40,54.91525423728814,40C53.898305084745765,40,52.88135593220339,40,51.86440677966102,40C50.847457627118644,40,49.83050847457627,40,48.813559322033896,40C47.79661016949152,40,46.77966101694915,40,45.762711864406775,40C44.7457627118644,40,43.728813559322035,40,42.71186440677966,40C41.69491525423729,40,40.67796610169491,40,39.66101694915254,40C38.644067796610166,40,37.6271186440678,40,36.610169491525426,40C35.59322033898305,40,34.57627118644068,40,33.559322033898304,40C32.54237288135593,40,31.525423728813557,40,30.508474576271183,40C29.491525423728813,40,28.47457627118644,40,27.45762711864407,40C26.440677966101696,40,25.423728813559322,40,24.406779661016948,40C23.389830508474574,40,22.372881355932204,40,21.35593220338983,40C20.338983050847457,40,19.322033898305087,40,18.305084745762713,40C17.28813559322034,40,16.271186440677965,40,15.254237288135592,40C14.23728813559322,40,13.220338983050846,40,12.203389830508474,40C11.186440677966102,40,10.169491525423728,40,9.152542372881356,40C8.135593220338983,40,7.11864406779661,40,6.101694915254237,40C5.084745762711864,40,4.067796610169491,40,3.0508474576271185,40C2.0338983050847457,40,1.0169491525423728,40,0,40Z"></path><path class="line" stroke="black" fill="none" d="M0,38.018C1.0169491525423728,38.032333333333334,2.0338983050847457,38.04666666666667,3.0508474576271185,38.064C4.067796610169491,38.08133333333333,5.084745762711864,38.10466666666667,6.101694915254237,38.122C7.11864406779661,38.13933333333333,8.135593220338983,38.147,9.152542372881356,38.168C10.169491525423728,38.189,11.186440677966102,38.22066666666667,12.203389830508474,38.248000000000005C13.220338983050846,38.275333333333336,14.23728813559322,38.30766666666667,15.254237288135592,38.332C16.271186440677965,38.35633333333333,17.28813559322034,38.373666666666665,18.305084745762713,38.394C19.322033898305087,38.41433333333333,20.338983050847457,38.434,21.35593220338983,38.454C22.372881355932204,38.474000000000004,23.389830508474574,38.497,24.406779661016948,38.513999999999996C25.423728813559322,38.531,26.440677966101696,38.544666666666664,27.45762711864407,38.556C28.47457627118644,38.56733333333333,29.491525423728813,38.582,30.508474576271183,38.582C31.525423728813557,38.582,32.54237288135593,38.57866666666667,33.559322033898304,38.572C34.57627118644068,38.565333333333335,35.59322033898305,38.55366666666667,36.610169491525426,38.542C37.6271186440678,38.53033333333334,38.644067796610166,38.517,39.66101694915254,38.502C40.67796610169491,38.487,41.69491525423729,38.471,42.71186440677966,38.452C43.728813559322035,38.433,44.7457627118644,38.413,45.762711864406775,38.388C46.77966101694915,38.363,47.79661016949152,38.33033333333333,48.813559322033896,38.302C49.83050847457627,38.27366666666667,50.847457627118644,38.25233333333334,51.86440677966102,38.218C52.88135593220339,38.18366666666667,53.898305084745765,38.14233333333334,54.91525423728814,38.096000000000004C55.93220338983051,38.04966666666667,56.94915254237288,37.998999999999995,57.96610169491525,37.94C58.983050847457626,37.881,59.99999999999999,37.81066666666666,61.01694915254237,37.742C62.03389830508474,37.67333333333333,63.05084745762712,37.60133333333333,64.0677966101695,37.528C65.08474576271186,37.45466666666667,66.10169491525424,37.38066666666666,67.11864406779661,37.302C68.13559322033899,37.22333333333333,69.15254237288136,37.14033333333333,70.16949152542374,37.056C71.1864406779661,36.971666666666664,72.20338983050848,36.88533333333333,73.22033898305085,36.796C74.23728813559322,36.70666666666667,75.2542372881356,36.61666666666667,76.27118644067797,36.52C77.28813559322033,36.42333333333334,78.30508474576271,36.31766666666667,79.32203389830508,36.216C80.33898305084746,36.114333333333335,81.35593220338983,36.01866666666667,82.37288135593221,35.910000000000004C83.38983050847457,35.80133333333334,84.40677966101696,35.68233333333333,85.42372881355932,35.564C86.4406779661017,35.44566666666667,87.45762711864407,35.32233333333334,88.47457627118645,35.2C89.49152542372882,35.07766666666667,90.50847457627118,34.958666666666666,91.52542372881355,34.83C92.54237288135593,34.70133333333333,93.55932203389831,34.56833333333333,94.57627118644069,34.428C95.59322033898306,34.28766666666667,96.61016949152543,34.138333333333335,97.62711864406779,33.988C98.64406779661016,33.837666666666664,99.66101694915254,33.68966666666666,100.6779661016949,33.525999999999996C101.69491525423729,33.36233333333333,102.71186440677965,33.181666666666665,103.72881355932203,33.006C104.7457627118644,32.830333333333336,105.76271186440678,32.653333333333336,106.77966101694915,32.472C107.79661016949153,32.29066666666667,108.8135593220339,32.10633333333333,109.83050847457628,31.918C110.84745762711864,31.729666666666667,111.86440677966102,31.53933333333333,112.88135593220339,31.342C113.89830508474576,31.144666666666666,114.91525423728814,30.94833333333333,115.9322033898305,30.733999999999998C116.94915254237289,30.519666666666666,117.96610169491525,30.290000000000006,118.98305084745763,30.056000000000004C120,29.822000000000006,121.01694915254237,29.57933333333333,122.03389830508473,29.33C123.05084745762711,29.080666666666662,124.0677966101695,28.833,125.08474576271188,28.56C126.10169491525424,28.287,127.11864406779662,27.98166666666667,128.135593220339,27.692C129.15254237288136,27.402333333333335,130.16949152542372,27.11433333333333,131.1864406779661,26.822C132.20338983050846,26.529666666666664,133.22033898305085,26.245666666666665,134.23728813559322,25.938C135.25423728813558,25.630333333333333,136.27118644067798,25.298333333333336,137.28813559322035,24.976000000000003C138.3050847457627,24.65366666666667,139.3220338983051,24.34433333333334,140.33898305084747,24.004000000000005C141.35593220338984,23.66366666666667,142.3728813559322,23.309666666666665,143.38983050847457,22.934C144.40677966101694,22.558333333333334,145.42372881355934,22.15866666666667,146.4406779661017,21.75C147.45762711864407,21.341333333333335,148.47457627118644,20.91133333333333,149.4915254237288,20.482C150.50847457627117,20.052666666666664,151.52542372881356,19.621333333333336,152.54237288135593,19.174000000000003C153.5593220338983,18.72666666666667,154.5762711864407,18.254,155.59322033898306,17.798C156.61016949152543,17.342,157.6271186440678,16.891333333333332,158.64406779661016,16.438000000000002C159.66101694915253,15.984666666666667,160.67796610169492,15.507666666666667,161.6949152542373,15.078C162.71186440677965,14.648333333333332,163.72881355932205,14.240000000000004,164.74576271186442,13.860000000000001C165.76271186440678,13.480000000000002,166.77966101694915,13.127999999999997,167.79661016949152,12.797999999999998C168.81355932203388,12.467999999999996,169.83050847457628,12.172666666666668,170.84745762711864,11.880000000000003C171.864406779661,11.587333333333337,172.8813559322034,11.28566666666667,173.89830508474577,11.042000000000002C174.91525423728814,10.798333333333334,175.93220338983053,10.647,176.9491525423729,10.418C177.96610169491527,10.189,178.98305084745763,9.9285,180,9.668000000000001"></path><path class="axis-ceiling" stroke-width="1" stroke="black" fill="none" d="M175,0L180,0"></path><text class="axis-ceiling-label" font-family="sans-serif" text-anchor="end" font-size="10px" x="170" y="2.5">20000</text></g></svg>