<svg xmlns="http://www.w3.org/2000/svg" viewBox="0 0 180 60"><g transform="translate(0,20)"><path class="area" fill="rgba(0, 0, 0, 0.2)" d="M0,39.992000000000004C1.0169491525423728,39.962,2.0338983050847457,39.932,3.0508474576271185,39.932C4.067796610169491,39.932,5.084745762711864,39.996,6.101694915254237,39.996C7.11864406779661,39.996,8.135593220338983,39.958000000000006,9.152542372881356,39.944C10.169491525423728,39.93,11.186440677966102,39.912,12.203389830508474,39.912C13.220338983050846,39.912,14.23728813559322,39.940000000000005,15.254237288135592,39.940000000000005C16.271186440677965,39.940000000000005,17.28813559322034,39.902666666666676,18.305084745762713,39.864000000000004C19.322033898305087,39.82533333333334,20.338983050847457,39.791333333333334,21.35593220338983,39.708C22.372881355932204,39.62466666666666,23.389830508474574,39.44799999999999,24.406779661016948,39.364C25.423728813559322,39.279999999999994,26.440677966101696,39.31066666666666,27.45762711864407,39.204C28.47457627118644,39.09733333333334,29.491525423728813,38.408,30.508474576271183,38.408C31.525423728813557,38.408,32.54237288135593,38.448,33.559322033898304,38.528000000000006C34.57627118644068,38.60800000000001,35.59322033898305,39.022666666666666,36.610169491525426,39.036C37.6271186440678,39.04933333333334,38.644067796610166,39.056000000000004,39.66101694915254,39.056000000000004C40.67796610169491,39.056000000000004,41.69491525423729,37.64133333333333,42.71186440677966,37.108C43.728813559322035,36.574666666666666,44.7457627118644,36.252,45.762711864406775,35.856C46.77966101694915,35.46,47.79661016949152,35.028,48.813559322033896,34.732C49.83050847457627,34.436,50.847457627118644,34.08,51.86440677966102,34.08C52.88135593220339,34.08,53.898305084745765,35.436,54.91525423728814,35.436C55.93220338983051,35.436,56.94915254237288,35.42,57.96610169491525,35.388000000000005C58.983050847457626,35.35600000000001,59.99999999999999,32.571999999999996,61.01694915254237,31.419999999999998C62.03389830508474,30.267999999999994,63.05084745762712,28.990666666666666,64.0677966101695,28.476C65.08474576271186,27.961333333333332,66.10169491525424,27.908,67.11864406779661,27.704C68.13559322033899,27.5,69.15254237288136,27.507333333333335,70.16949152542374,27.252000000000002C71.1864406779661,26.99666666666667,72.20338983050848,26.172,73.22033898305085,26.172C74.23728813559322,26.172,75.2542372881356,27.15666666666667,76.27118644067797,27.800000000000004C77.28813559322033,28.44333333333334,78.30508474576271,30.032,79.32203389830508,30.032C80.33898305084746,30.032,81.35593220338983,24.967333333333336,82.37288135593221,23.520000000000003C83.38983050847457,22.072666666666677,84.40677966101696,22.041333333333334,85.42372881355932,21.348000000000003C86.4406779661017,20.654666666666667,87.45762711864407,19.645333333333333,88.47457627118645,19.36C89.49152542372882,19.07466666666667,90.50847457627118,19.217333333333332,91.52542372881355,18.932000000000002C92.54237288135593,18.64666666666667,93.55932203389831,17.548,94.57627118644069,17.548C95.59322033898306,17.548,96.61016949152543,21.208666666666666,97.62711864406779,22.296C98.64406779661016,23.383333333333336,99.66101694915254,24.072,100.6779661016949,24.072C101.69491525423729,24.072,102.71186440677965,18.16933333333334,103.72881355932203,16.996000000000002C104.7457627118644,15.822666666666668,105.76271186440678,15.236,106.77966101694915,15.236C107.79661016949153,15.236,108.8135593220339,16.692,109.83050847457628,16.692C110.84745762711864,16.692,111.86440677966102,15.608,112.88135593220339,15.196000000000002C113.89830508474576,14.784000000000002,114.91525423728814,14.220000000000002,115.9322033898305,14.220000000000002C116.94915254237289,14.220000000000002,117.96610169491525,19.650666666666666,118.98305084745763,21.208C120,22.765333333333317,121.01694915254237,23.564,122.03389830508473,23.564C123.05084745762711,23.564,124.0677966101695,17.73200000000001,125.08474576271188,16.58C126.10169491525424,15.427999999999999,127.11864406779662,14.851999999999999,128.135593220339,14.851999999999999C129.15254237288136,14.851999999999999,130.16949152542372,15.512,131.1864406779661,15.512C132.20338983050846,15.512,133.22033898305085,13.443999999999999,134.23728813559322,13.443999999999999C135.25423728813558,13.443999999999999,136.27118644067798,19.6,137.28813559322035,19.6C138.3050847457627,19.6,139.3220338983051,18.136000000000003,140.33898305084747,18.136000000000003C141.35593220338984,18.136000000000003,142.3728813559322,22.32,143.38983050847457,22.32C144.40677966101694,22.32,145.42372881355934,13.352,146.4406779661017,13.352C147.45762711864407,13.352,148.47457627118644,13.451333333333334,149.4915254237288,13.636C150.50847457627117,13.820666666666666,151.52542372881356,14.46,152.54237288135593,14.46C153.5593220338983,14.46,154.5762711864407,14.404,155.59322033898306,14.404C156.61016949152543,14.404,157.6271186440678,15.856666666666676,158.64406779661016,16.996000000000002C159.66101694915253,18.13533333333334,160.67796610169492,19.857333333333337,161.6949152542373,21.240000000000002C162.71186440677965,22.622666666666667,163.72881355932205,25.291999999999998,164.74576271186442,25.291999999999998C165.76271186440678,25.291999999999998,166.77966101694915,22.43666666666666,167.79661016949152,20.860000000000003C168.81355932203388,19.28333333333333,169.83050847457628,15.832,170.84745762711864,15.832C171.864406779661,15.832,172.8813559322034,21.99866666666667,173.89830508474577,22.5C174.91525423728814,23.00133333333333,175.93220338983053,23.251999999999995,176.9491525423729,23.251999999999995C177.96610169491527,23.251999999999995,178.98305084745763,21.267999999999997,180,19.284L180,40C178.98305084745763,40,177.96610169491527,40,176.9491525423729,40C175.93220338983053,40,174.91525423728814,40,173.89830508474577,40C172.8813559322034,40,171.864406779661,40,170.84745762711864,40C169.83050847457628,40,168.81355932203388,40,167.79661016949152,40C166.77966101694915,40,165.76271186440678,40,164.74576271186442,40C163.72881355932205,40,162.71186440677965,40,161.6949152542373,40C160.67796610169492,40,159.66101694915253,40,158.64406779661016,40C157.6271186440678,40,156.61016949152543,40,155.59322033898306,40C154.5762711864407,40,153.5593220338983,40,152.54237288135593,40C151.52542372881356,40,150.50847457627117,40,149.4915254237288,40C148.47457627118644,40,147.45762711864407,40,146.4406779661017,40C145.42372881355934,40,144.40677966101694,40,143.38983050847457,40C142.3728813559322,40,141.35593220338984,40,140.33898305084747,40C139.3220338983051,40,138.3050847457627,40,137.28813559322035,40C136.27118644067798,40,135.25423728813558,40,134.23728813559322,40C133.22033898305085,40,132.20338983050846,40,131.1864406779661,40C130.16949152542372,40,129.15254237288136,40,128.135593220339,40C127.11864406779662,40,126.10169491525424,40,125.08474576271188,40C124.0677966101695,40,123.05084745762711,40,122.03389830508473,40C121.01694915254237,40,120,40,118.98305084745763,40C117.96610169491525,40,116.94915254237289,40,115.9322033898305,40C114.91525423728814,40,113.89830508474576,40,112.88135593220339,40C111.86440677966102,40,110.84745762711864,40,109.83050847457628,40C108.8135593220339,40,107.79661016949153,40,106.77966101694915,40C105.76271186440678,40,104.7457627118644,40,103.72881355932203,40C102.71186440677965,40,101.69491525423729,40,100.6779661016949,40C99.66101694915254,40,98.64406779661016,40,97.62711864406779,40C96.61016949152543,40,95.59322033898306,40,94.57627118644069,40C93.55932203389831,40,92.54237288135593,40,91.52542372881355,40C90.50847457627118,40,89.49152542372882,40,88.47457627118645,40C87.45762711864407,40,86.4406779661017,40,85.42372881355932,40C84.40677966101696,40,83.38983050847457,40,82.37288135593221,40C81.35593220338983,40,80.33898305084746,40,79.32203389830508,40C78.30508474576271,40,77.28813559322033,40,76.27118644067797,40C75.2542372881356,40,74.23728813559322,40,73.22033898305085,40C72.20338983050848,40,71.1864406779661,40,70.16949152542374,40C69.15254237288136,40,68.13559322033899,40,67.11864406779661,40C66.10169491525424,40,65.08474576271186,40,64.0677966101695,40C63.05084745762712,40,62.03389830508474,40,61.01694915254237,40C59.99999999999999,40,58.983050847457626,40,57.96610169491525,40C56.94915254237288,40,55.93220338983051,40,54.91525423728814,40C53.898305084745765,40,52.88135593220339,40,51.86440677966102,40C50.847457627118644,40,49.83050847457627,40,48.813559322033896,40C47.79661016949152,40,46.77966101694915,40,45.762711864406775,40C44.7457627118644,40,43.728813559322035,40,42.71186440677966,40C41.69491525423729,40,40.67796610169491,40,39.66101694915254,40C38.644067796610166,40,37.6271186440678,40,36.610169491525426,40C35.59322033898305,40,34.57627118644068,40,33.559322033898304,40C32.54237288135593,40,31.525423728813557,40,30.508474576271183,40C29.491525423728813,40,28.47457627118644,40,27.45762711864407,40C26.440677966101696,40,25.423728813559322,40,24.406779661016948,40C23.389830508474574,40,22.372881355932204,40,21.35593220338983,40C20.338983050847457,40,19.322033898305087,40,18.305084745762713,40C17.28813559322034,40,16.271186440677965,40,15.254237288135592,40C14.23728813559322,40,13.220338983050846,40,12.203389830508474,40C11.186440677966102,40,10.169491525423728,40,9.152542372881356,40C8.135593220338983,40,7.11864406779661,40,6.101694915254237,40C5.084745762711864,40,4.067796610169491,40,3.0508474576271185,40C2.0338983050847457,40,1.0169491525423728,40,0,40Z"></path><path class="line" stroke="black" fill="none" d="M0,39.992000000000004C1.0169491525423728,39.962,2.0338983050847457,39.932,3.0508474576271185,39.932C4.067796610169491,39.932,5.084745762711864,39.996,6.101694915254237,39.996C7.11864406779661,39.996,8.135593220338983,39.958000000000006,9.152542372881356,39.944C10.169491525423728,39.93,11.186440677966102,39.912,12.203389830508474,39.912C13.220338983050846,39.912,14.23728813559322,39.940000000000005,15.254237288135592,39.940000000000005C16.271186440677965,39.940000000000005,17.28813559322034,39.902666666666676,18.305084745762713,39.864000000000004C19.322033898305087,39.82533333333334,20.338983050847457,39.791333333333334,21.35593220338983,39.708C22.372881355932204,39.62466666666666,23.389830508474574,39.44799999999999,24.406779661016948,39.364C25.423728813559322,39.279999999999994,26.440677966101696,39.31066666666666,27.45762711864407,39.204C28.47457627118644,39.09733333333334,29.491525423728813,38.408,30.508474576271183,38.408C31.525423728813557,38.408,32.54237288135593,38.448,33.559322033898304,38.528000000000006C34.57627118644068,38.60800000000001,35.59322033898305,39.022666666666666,36.610169491525426,39.036C37.6271186440678,39.04933333333334,38.644067796610166,39.056000000000004,39.66101694915254,39.056000000000004C40.67796610169491,39.056000000000004,41.69491525423729,37.64133333333333,42.71186440677966,37.108C43.728813559322035,36.574666666666666,44.7457627118644,36.252,45.762711864406775,35.856C46.77966101694915,35.46,47.79661016949152,35.028,48.813559322033896,34.732C49.83050847457627,34.436,50.847457627118644,34.08,51.86440677966102,34.08C52.88135593220339,34.08,53.898305084745765,35.436,54.91525423728814,35.436C55.93220338983051,35.436,56.94915254237288,35.42,57.96610169491525,35.388000000000005C58.983050847457626,35.35600000000001,59.99999999999999,32.571999999999996,61.01694915254237,31.419999999999998C62.03389830508474,30.267999999999994,63.05084745762712,28.990666666666666,64.0677966101695,28.476C65.08474576271186,27.961333333333332,66.10169491525424,27.908,67.11864406779661,27.704C68.13559322033899,27.5,69.15254237288136,27.507333333333335,70.16949152542374,27.252000000000002C71.1864406779661,26.99666666666667,72.20338983050848,26.172,73.22033898305085,26.172C74.23728813559322,26.172,75.2542372881356,27.15666666666667,76.27118644067797,27.800000000000004C77.28813559322033,28.44333333333334,78.30508474576271,30.032,79.32203389830508,30.032C80.33898305084746,30.032,81.35593220338983,24.967333333333336,82.37288135593221,23.520000000000003C83.38983050847457,22.072666666666677,84.40677966101696,22.041333333333334,85.42372881355932,21.348000000000003C86.4406779661017,20.654666666666667,87.45762711864407,19.645333333333333,88.47457627118645,19.36C89.49152542372882,19.07466666666667,90.50847457627118,19.217333333333332,91.52542372881355,18.932000000000002C92.54237288135593,18.64666666666667,93.55932203389831,17.548,94.57627118644069,17.548C95.59322033898306,17.548,96.61016949152543,21.208666666666666,97.62711864406779,22.296C98.64406779661016,23.383333333333336,99.66101694915254,24.072,100.6779661016949,24.072C101.69491525423729,24.072,102.71186440677965,18.16933333333334,103.72881355932203,16.996000000000002C104.7457627118644,15.822666666666668,105.76271186440678,15.236,106.77966101694915,15.236C107.79661016949153,15.236,108.8135593220339,16.692,109.83050847457628,16.692C110.84745762711864,16.692,111.86440677966102,15.608,112.88135593220339,15.196000000000002C113.89830508474576,14.784000000000002,114.91525423728814,14.220000000000002,115.9322033898305,14.220000000000002C116.94915254237289,14.220000000000002,117.96610169491525,19.650666666666666,118.98305084745763,21.208C120,22.765333333333317,121.01694915254237,23.564,122.03389830508473,23.564C123.05084745762711,23.564,124.0677966101695,17.73200000000001,125.08474576271188,16.58C126.10169491525424,15.427999999999999,127.11864406779662,14.851999999999999,128.135593220339,14.851999999999999C129.15254237288136,14.851999999999999,130.16949152542372,15.512,131.1864406779661,15.512C132.20338983050846,15.512,133.22033898305085,13.443999999999999,134.23728813559322,13.443999999999999C135.25423728813558,13.443999999999999,136.27118644067798,19.6,137.28813559322035,19.6C138.3050847457627,19.6,139.3220338983051,18.136000000000003,140.33898305084747,18.136000000000003C141.35593220338984,18.136000000000003,142.3728813559322,22.32,143.38983050847457,22.32C144.40677966101694,22.32,145.42372881355934,13.352,146.4406779661017,13.352C147.45762711864407,13.352,148.47457627118644,13.451333333333334,149.4915254237288,13.636C150.50847457627117,13.820666666666666,151.52542372881356,14.46,152.54237288135593,14.46C153.5593220338983,14.46,154.5762711864407,14.404,155.59322033898306,14.404C156.61016949152543,14.404,157.6271186440678,15.856666666666676,158.64406779661016,16.996000000000002C159.66101694915253,18.13533333333334,160.67796610169492,19.857333333333337,161.6949152542373,21.240000000000002C162.71186440677965,22.622666666666667,163.72881355932205,25.291999999999998,164.74576271186442,25.291999999999998C165.76271186440678,25.291999999999998,166.77966101694915,22.43666666666666,167.79661016949152,20.860000000000003C168.81355932203388,19.28333333333333,169.83050847457628,15.832,170.84745762711864,15.832C171.864406779661,15.832,172.8813559322034,21.99866666666667,173.89830508474577,22.5C174.91525423728814,23.00133333333333,175.93220338983053,23.251999999999995,176.9491525423729,23.251999999999995C177.96610169491527,23.251999999999995,178.98305084745763,21.267999999999997,180,19.284"></path><path class="axis-ceiling" stroke-width="1" stroke="black" fill="none" d="M175,0L180,0"></path><text class="axis-ceiling-label" font-family="sans-serif" text-anchor="end" font-size="10px" x="170" y="2.5">10000</text></g></svg>