<svg xmlns="http://www.w3.org/2000/svg" viewBox="0 0 180 60"><g transform="translate(0,20)"><path class="area" fill="rgba(0, 0, 0, 0.2)" d="M0,36.05866666666667C1.0169491525423728,36.14644444444444,2.0338983050847457,36.234222222222215,3.0508474576271185,36.30933333333333C4.067796610169491,36.38444444444444,5.084745762711864,36.447111111111106,6.101694915254237,36.50933333333333C7.11864406779661,36.571555555555555,8.135593220338983,36.63644444444445,9.152542372881356,36.68266666666667C10.169491525423728,36.72888888888889,11.186440677966102,36.76177777777777,12.203389830508474,36.78666666666666C13.220338983050846,36.81155555555555,14.23728813559322,36.80488888888889,15.254237288135592,36.832C16.271186440677965,36.85911111111111,17.28813559322034,36.89955555555555,18.305084745762713,36.94933333333333C19.322033898305087,36.999111111111105,20.338983050847457,37.07555555555556,21.35593220338983,37.13066666666667C22.372881355932204,37.18577777777778,23.389830508474574,37.23555555555556,24.406779661016948,37.28C25.423728813559322,37.324444444444445,26.440677966101696,37.36,27.45762711864407,37.397333333333336C28.47457627118644,37.434666666666665,29.491525423728813,37.47377777777778,30.508474576271183,37.504C31.525423728813557,37.53422222222222,32.54237288135593,37.56088888888888,33.559322033898304,37.57866666666666C34.57627118644068,37.596444444444444,35.59322033898305,37.59155555555555,36.610169491525426,37.61066666666667C37.6271186440678,37.629777777777775,38.644067796610166,37.663111111111114,39.66101694915254,37.693333333333335C40.67796610169491,37.723555555555556,41.69491525423729,37.766222222222225,42.71186440677966,37.792C43.728813559322035,37.81777777777778,44.7457627118644,37.830666666666666,45.762711864406775,37.848C46.77966101694915,37.86533333333333,47.79661016949152,37.88444444444445,48.813559322033896,37.896C49.83050847457627,37.907555555555554,50.847457627118644,37.912444444444446,51.86440677966102,37.91733333333333C52.88135593220339,37.92222222222222,53.898305084745765,37.92,54.91525423728814,37.925333333333334C55.93220338983051,37.93066666666667,56.94915254237288,37.949333333333335,57.96610169491525,37.949333333333335C58.983050847457626,37.949333333333335,59.99999999999999,37.946666666666665,61.01694915254237,37.94133333333333C62.03389830508474,37.936,63.05084745762712,37.92088888888889,64.0677966101695,37.909333333333336C65.08474576271186,37.89777777777778,66.10169491525424,37.884,67.11864406779661,37.872C68.13559322033899,37.86,69.15254237288136,37.846666666666664,70.16949152542374,37.83733333333333C71.1864406779661,37.828,72.20338983050848,37.81955555555556,73.22033898305085,37.816C74.23728813559322,37.812444444444445,75.2542372881356,37.81422222222223,76.27118644067797,37.81066666666667C77.28813559322033,37.80711111111111,78.30508474576271,37.775555555555556,79.32203389830508,37.74666666666667C80.33898305084746,37.717777777777776,81.35593220338983,37.68311111111111,82.37288135593221,37.63733333333333C83.38983050847457,37.59155555555555,84.40677966101696,37.525333333333336,85.42372881355932,37.472C86.4406779661017,37.41866666666667,87.45762711864407,37.3688888888889,88.47457627118645,37.31733333333334C89.49152542372882,37.265777777777785,90.50847457627118,37.22622222222222,91.52542372881355,37.16266666666667C92.54237288135593,37.09911111111111,93.55932203389831,37.00266666666667,94.57627118644069,36.936C95.59322033898306,36.86933333333334,96.61016949152543,36.80577777777778,97.62711864406779,36.76266666666667C98.64406779661016,36.71955555555556,99.66101694915254,36.73422222222222,100.6779661016949,36.67733333333334C101.69491525423729,36.62044444444445,102.71186440677965,36.406666666666666,103.72881355932203,36.25333333333333C104.7457627118644,36.099999999999994,105.76271186440678,35.928,106.77966101694915,35.757333333333335C107.79661016949153,35.586666666666666,108.8135593220339,35.41422222222223,109.83050847457628,35.22933333333334C110.84745762711864,35.044444444444444,111.86440677966102,34.85644444444444,112.88135593220339,34.647999999999996C113.89830508474576,34.43955555555555,114.91525423728814,34.21244444444444,115.9322033898305,33.97866666666667C116.94915254237289,33.744888888888894,117.96610169491525,33.42311111111111,118.98305084745763,33.245333333333335C120,33.06755555555556,121.01694915254237,33.13422222222222,122.03389830508473,32.912C123.05084745762711,32.68977777777777,124.0677966101695,31.997777777777777,125.08474576271188,31.538666666666664C126.10169491525424,31.079555555555554,127.11864406779662,30.604444444444447,128.135593220339,30.157333333333334C129.15254237288136,29.710222222222225,130.16949152542372,29.297333333333334,131.1864406779661,28.856C132.20338983050846,28.414666666666665,133.22033898305085,27.99022222222222,134.23728813559322,27.50933333333333C135.25423728813558,27.028444444444442,136.27118644067798,26.426222222222222,137.28813559322035,25.970666666666666C138.3050847457627,25.51511111111111,139.3220338983051,25.083999999999996,140.33898305084747,24.775999999999996C141.35593220338984,24.468,142.3728813559322,24.122666666666667,143.38983050847457,24.122666666666667C144.40677966101694,24.122666666666667,145.42372881355934,25.042666666666666,146.4406779661017,25.042666666666666C147.45762711864407,25.042666666666666,148.47457627118644,23.195111111111103,149.4915254237288,22.27733333333333C150.50847457627117,21.35955555555555,151.52542372881356,20.355999999999998,152.54237288135593,19.535999999999998C153.5593220338983,18.715999999999998,154.5762711864407,18.169777777777778,155.59322033898306,17.35733333333333C156.61016949152543,16.544888888888888,157.6271186440678,15.446666666666665,158.64406779661016,14.661333333333335C159.66101694915253,13.875999999999998,160.67796610169492,13.093333333333335,161.6949152542373,12.645333333333335C162.71186440677965,12.197333333333335,163.72881355932205,12.421333333333335,164.74576271186442,11.973333333333333C165.76271186440678,11.525333333333336,166.77966101694915,7.837333333333331,167.79661016949152,7.538666666666667C168.81355932203388,7.24,169.83050847457628,7.3146666666666675,170.84745762711864,7.090666666666667C171.864406779661,6.866666666666667,172.8813559322034,6.491555555555557,173.89830508474577,6.194666666666668C174.91525423728814,5.89777777777778,175.93220338983053,5.396444444444449,176.9491525423729,5.309333333333335C177.96610169491527,5.222222222222221,178.98305084745763,5.200444444444443,180,5.178666666666665L180,40C178.98305084745763,40,177.96610169491527,40,176.9491525423729,40C175.93220338983053,40,174.91525423728814,40,173.89830508474577,40C172.8813559322034,40,171.864406779661,40,170.84745762711864,40C169.83050847457628,40,168.81355932203388,40,167.79661016949152,40C166.77966101694915,40,165.76271186440678,40,164.74576271186442,40C163.72881355932205,40,162.71186440677965,40,161.6949152542373,40C160.67796610169492,40,159.66101694915253,40,158.64406779661016,40C157.6271186440678,40,156.61016949152543,40,155.59322033898306,40C154.5762711864407,40,153.5593220338983,40,152.54237288135593,40C151.52542372881356,40,150.50847457627117,40,149.4915254237288,40C148.47457627118644,40,147.45762711864407,40,146.4406779661017,40C145.42372881355934,40,144.40677966101694,40,143.38983050847457,40C142.3728813559322,40,141.35593220338984,40,140.33898305084747,40C139.3220338983051,40,138.3050847457627,40,137.28813559322035,40C136.27118644067798,40,135.25423728813558,40,134.23728813559322,40C133.22033898305085,40,132.20338983050846,40,131.1864406779661,40C130.16949152542372,40,129.15254237288136,40,128.135593220339,40C127.11864406779662,40,126.10169491525424,40,125.08474576271188,40C124.0677966101695,40,123.05084745762711,40,122.03389830508473,40C121.01694915254237,40,120,40,118.98305084745763,40C117.96610169491525,40,116.94915254237289,40,115.9322033898305,40C114.91525423728814,40,113.89830508474576,40,112.88135593220339,40C111.86440677966102,40,110.84745762711864,40,109.83050847457628,40C108.8135593220339,40,107.79661016949153,40,106.77966101694915,40C105.76271186440678,40,104.7457627118644,40,103.72881355932203,40C102.71186440677965,40,101.69491525423729,40,100.6779661016949,40C99.66101694915254,40,98.64406779661016,40,97.62711864406779,40C96.61016949152543,40,95.59322033898306,40,94.57627118644069,40C93.55932203389831,40,92.54237288135593,40,91.52542372881355,40C90.50847457627118,40,89.49152542372882,40,88.47457627118645,40C87.45762711864407,40,86.4406779661017,40,85.42372881355932,40C84.40677966101696,40,83.38983050847457,40,82.37288135593221,40C81.35593220338983,40,80.33898305084746,40,79.32203389830508,40C78.30508474576271,40,77.28813559322033,40,76.27118644067797,40C75.2542372881356,40,74.23728813559322,40,73.22033898305085,40C72.20338983050848,40,71.1864406779661,40,70.16949152542374,40C69.15254237288136,40,68.13559322033899,40,67.11864406779661,40C66.10169491525424,40,65.08474576271186,40,64.0677966101695,40C63.05084745762712,40,62.03389830508474,40,61.01694915254237,40C59.99999999999999,40,58.983050847457626,40,57.96610169491525,40C56.94915254237288,40,55.93220338983051,40,54.91525423728814,40C53.898305084745765,40,52.88135593220339,40,51.86440677966102,40C50.847457627118644,40,49.83050847457627,40,48.813559322033896,40C47.79661016949152,40,46.77966101694915,40,45.762711864406775,40C44.7457627118644,40,43.728813559322035,40,42.71186440677966,40C41.69491525423729,40,40.67796610169491,40,39.66101694915254,40C38.644067796610166,40,37.6271186440678,40,36.610169491525426,40C35.59322033898305,40,34.57627118644068,40,33.559322033898304,40C32.54237288135593,40,31.525423728813557,40,30.508474576271183,40C29.491525423728813,40,28.47457627118644,40,27.45762711864407,40C26.440677966101696,40,25.423728813559322,40,24.406779661016948,40C23.389830508474574,40,22.372881355932204,40,21.35593220338983,40C20.338983050847457,40,19.322033898305087,40,18.305084745762713,40C17.28813559322034,40,16.271186440677965,40,15.254237288135592,40C14.23728813559322,40,13.220338983050846,40,12.203389830508474,40C11.186440677966102,40,10.169491525423728,40,9.152542372881356,40C8.135593220338983,40,7.11864406779661,40,6.101694915254237,40C5.084745762711864,40,4.067796610169491,40,3.0508474576271185,40C2.0338983050847457,40,1.0169491525423728,40,0,40Z"></path><path class="line" stroke="black" fill="none" d="M0,36.05866666666667C1.0169491525423728,36.14644444444444,2.0338983050847457,36.234222222222215,3.0508474576271185,36.30933333333333C4.067796610169491,36.38444444444444,5.084745762711864,36.447111111111106,6.101694915254237,36.50933333333333C7.11864406779661,36.571555555555555,8.135593220338983,36.63644444444445,9.152542372881356,36.68266666666667C10.169491525423728,36.72888888888889,11.186440677966102,36.76177777777777,12.203389830508474,36.78666666666666C13.220338983050846,36.81155555555555,14.23728813559322,36.80488888888889,15.254237288135592,36.832C16.271186440677965,36.85911111111111,17.28813559322034,36.89955555555555,18.305084745762713,36.94933333333333C19.322033898305087,36.999111111111105,20.338983050847457,37.07555555555556,21.35593220338983,37.13066666666667C22.372881355932204,37.18577777777778,23.389830508474574,37.23555555555556,24.406779661016948,37.28C25.423728813559322,37.324444444444445,26.440677966101696,37.36,27.45762711864407,37.397333333333336C28.47457627118644,37.434666666666665,29.491525423728813,37.47377777777778,30.508474576271183,37.504C31.525423728813557,37.53422222222222,32.54237288135593,37.56088888888888,33.559322033898304,37.57866666666666C34.57627118644068,37.596444444444444,35.59322033898305,37.59155555555555,36.610169491525426,37.61066666666667C37.6271186440678,37.629777777777775,38.644067796610166,37.663111111111114,39.66101694915254,37.693333333333335C40.67796610169491,37.723555555555556,41.69491525423729,37.766222222222225,42.71186440677966,37.792C43.728813559322035,37.81777777777778,44.7457627118644,37.830666666666666,45.762711864406775,37.848C46.77966101694915,37.86533333333333,47.79661016949152,37.88444444444445,48.813559322033896,37.896C49.83050847457627,37.907555555555554,50.847457627118644,37.912444444444446,51.86440677966102,37.91733333333333C52.88135593220339,37.92222222222222,53.898305084745765,37.92,54.91525423728814,37.925333333333334C55.93220338983051,37.93066666666667,56.94915254237288,37.949333333333335,57.96610169491525,37.949333333333335C58.983050847457626,37.949333333333335,59.99999999999999,37.946666666666665,61.01694915254237,37.94133333333333C62.03389830508474,37.936,63.05084745762712,37.92088888888889,64.0677966101695,37.909333333333336C65.08474576271186,37.89777777777778,66.10169491525424,37.884,67.11864406779661,37.872C68.13559322033899,37.86,69.15254237288136,37.846666666666664,70.16949152542374,37.83733333333333C71.1864406779661,37.828,72.20338983050848,37.81955555555556,73.22033898305085,37.816C74.23728813559322,37.812444444444445,75.2542372881356,37.81422222222223,76.27118644067797,37.81066666666667C77.28813559322033,37.80711111111111,78.30508474576271,37.775555555555556,79.32203389830508,37.74666666666667C80.33898305084746,37.717777777777776,81.35593220338983,37.68311111111111,82.37288135593221,37.63733333333333C83.38983050847457,37.59155555555555,84.40677966101696,37.525333333333336,85.42372881355932,37.472C86.4406779661017,37.41866666666667,87.45762711864407,37.3688888888889,88.47457627118645,37.31733333333334C89.49152542372882,37.265777777777785,90.50847457627118,37.22622222222222,91.52542372881355,37.16266666666667C92.54237288135593,37.09911111111111,93.55932203389831,37.00266666666667,94.57627118644069,36.936C95.59322033898306,36.86933333333334,96.61016949152543,36.80577777777778,97.62711864406779,36.76266666666667C98.64406779661016,36.71955555555556,99.66101694915254,36.73422222222222,100.6779661016949,36.67733333333334C101.69491525423729,36.62044444444445,102.71186440677965,36.406666666666666,103.72881355932203,36.25333333333333C104.7457627118644,36.099999999999994,105.76271186440678,35.928,106.77966101694915,35.757333333333335C107.79661016949153,35.586666666666666,108.8135593220339,35.41422222222223,109.83050847457628,35.22933333333334C110.84745762711864,35.044444444444444,111.86440677966102,34.85644444444444,112.88135593220339,34.647999999999996C113.89830508474576,34.43955555555555,114.91525423728814,34.21244444444444,115.9322033898305,33.97866666666667C116.94915254237289,33.744888888888894,117.96610169491525,33.42311111111111,118.98305084745763,33.245333333333335C120,33.06755555555556,121.01694915254237,33.13422222222222,122.03389830508473,32.912C123.05084745762711,32.68977777777777,124.0677966101695,31.997777777777777,125.08474576271188,31.538666666666664C126.10169491525424,31.079555555555554,127.11864406779662,30.604444444444447,128.135593220339,30.157333333333334C129.15254237288136,29.710222222222225,130.16949152542372,29.297333333333334,131.1864406779661,28.856C132.20338983050846,28.414666666666665,133.22033898305085,27.99022222222222,134.23728813559322,27.50933333333333C135.25423728813558,27.028444444444442,136.27118644067798,26.426222222222222,137.28813559322035,25.970666666666666C138.3050847457627,25.51511111111111,139.3220338983051,25.083999999999996,140.33898305084747,24.775999999999996C141.35593220338984,24.468,142.3728813559322,24.122666666666667,143.38983050847457,24.122666666666667C144.40677966101694,24.122666666666667,145.42372881355934,25.042666666666666,146.4406779661017,25.042666666666666C147.45762711864407,25.042666666666666,148.47457627118644,23.195111111111103,149.4915254237288,22.27733333333333C150.50847457627117,21.35955555555555,151.52542372881356,20.355999999999998,152.54237288135593,19.535999999999998C153.5593220338983,18.715999999999998,154.5762711864407,18.169777777777778,155.59322033898306,17.35733333333333C156.61016949152543,16.544888888888888,157.6271186440678,15.446666666666665,158.64406779661016,14.661333333333335C159.66101694915253,13.875999999999998,160.67796610169492,13.093333333333335,161.6949152542373,12.645333333333335C162.71186440677965,12.197333333333335,163.72881355932205,12.421333333333335,164.74576271186442,11.973333333333333C165.76271186440678,11.525333333333336,166.77966101694915,7.837333333333331,167.79661016949152,7.538666666666667C168.81355932203388,7.24,169.83050847457628,7.3146666666666675,170.84745762711864,7.090666666666667C171.864406779661,6.866666666666667,172.8813559322034,6.491555555555557,173.89830508474577,6.194666666666668C174.91525423728814,5.89777777777778,175.93220338983053,5.396444444444449,176.9491525423729,5.309333333333335C177.96610169491527,5.222222222222221,178.98305084745763,5.200444444444443,180,5.178666666666665"></path><path class="axis-ceiling" stroke-width="1" stroke="black" fill="none" d="M175,0L180,0"></path><text class="axis-ceiling-label" font-family="sans-serif" text-anchor="end" font-size="10px" x="170" y="2.5">15000</text></g></svg>