<svg xmlns="http://www.w3.org/2000/svg" viewBox="0 0 180 60"><g transform="translate(0,20)"><path class="area" fill="rgba(0, 0, 0, 0.2)" d="M0,17.384C1.0169491525423728,17.349,2.0338983050847457,17.314000000000004,3.0508474576271185,17.208000000000002C4.067796610169491,17.102,5.084745762711864,16.854,6.101694915254237,16.747999999999998C7.11864406779661,16.641999999999996,8.135593220338983,16.625999999999998,9.152542372881356,16.572C10.169491525423728,16.518,11.186440677966102,16.424,12.203389830508474,16.424C13.220338983050846,16.424,14.23728813559322,16.560000000000002,15.254237288135592,16.560000000000002C16.271186440677965,16.560000000000002,17.28813559322034,16.188,18.305084745762713,16.188C19.322033898305087,16.188,20.338983050847457,16.487333333333332,21.35593220338983,16.631999999999998C22.372881355932204,16.776666666666664,23.389830508474574,16.80666666666667,24.406779661016948,17.056C25.423728813559322,17.305333333333333,26.440677966101696,17.917333333333335,27.45762711864407,18.128C28.47457627118644,18.338666666666665,29.491525423728813,18.233333333333334,30.508474576271183,18.444C31.525423728813557,18.654666666666664,32.54237288135593,19.189999999999998,33.559322033898304,19.592C34.57627118644068,19.994,35.59322033898305,20.639999999999993,36.610169491525426,20.855999999999998C37.6271186440678,21.072000000000003,38.644067796610166,21.09266666666667,39.66101694915254,21.180000000000003C40.67796610169491,21.267333333333337,41.69491525423729,21.306666666666665,42.71186440677966,21.38C43.728813559322035,21.45333333333333,44.7457627118644,21.56533333333333,45.762711864406775,21.619999999999997C46.77966101694915,21.674666666666663,47.79661016949152,21.64933333333333,48.813559322033896,21.708C49.83050847457627,21.766666666666666,50.847457627118644,22.172,51.86440677966102,22.172C52.88135593220339,22.172,53.898305084745765,21.966666666666665,54.91525423728814,21.924C55.93220338983051,21.881333333333334,56.94915254237288,21.86,57.96610169491525,21.86C58.983050847457626,21.86,59.99999999999999,22.18666666666667,61.01694915254237,22.400000000000002C62.03389830508474,22.613333333333337,63.05084745762712,22.916,64.0677966101695,23.14C65.08474576271186,23.364,66.10169491525424,23.634666666666664,67.11864406779661,23.744C68.13559322033899,23.853333333333335,69.15254237288136,23.824666666666666,70.16949152542374,23.908C71.1864406779661,23.991333333333333,72.20338983050848,24.020000000000003,73.22033898305085,24.244000000000003C74.23728813559322,24.468000000000004,75.2542372881356,24.99266666666667,76.27118644067797,25.28C77.28813559322033,25.567333333333334,78.30508474576271,25.790666666666667,79.32203389830508,25.968C80.33898305084746,26.145333333333333,81.35593220338983,26.233333333333334,82.37288135593221,26.344C83.38983050847457,26.454666666666668,84.40677966101696,26.5,85.42372881355932,26.631999999999998C86.4406779661017,26.764,87.45762711864407,26.973333333333333,88.47457627118645,27.136C89.49152542372882,27.298666666666666,90.50847457627118,27.445999999999998,91.52542372881355,27.607999999999997C92.54237288135593,27.77,93.55932203389831,28.028,94.57627118644069,28.108C95.59322033898306,28.188000000000002,96.61016949152543,28.160000000000004,97.62711864406779,28.228C98.64406779661016,28.296000000000003,99.66101694915254,28.357333333333333,100.6779661016949,28.516C101.69491525423729,28.674666666666663,102.71186440677965,29.020666666666667,103.72881355932203,29.18C104.7457627118644,29.339333333333332,105.76271186440678,29.40066666666667,106.77966101694915,29.472C107.79661016949153,29.543333333333333,108.8135593220339,29.517333333333333,109.83050847457628,29.607999999999997C110.84745762711864,29.69866666666666,111.86440677966102,30.85066666666667,112.88135593220339,31.080000000000002C113.89830508474576,31.309333333333335,114.91525423728814,31.424,115.9322033898305,31.424C116.94915254237289,31.424,117.96610169491525,31.217333333333332,118.98305084745763,31.172C120,31.12666666666667,121.01694915254237,31.13266666666667,122.03389830508473,31.104000000000003C123.05084745762711,31.075333333333337,124.0677966101695,31.041333333333334,125.08474576271188,31C126.10169491525424,30.958666666666666,127.11864406779662,30.858666666666664,128.135593220339,30.855999999999998C129.15254237288136,30.85333333333333,130.16949152542372,30.854666666666667,131.1864406779661,30.852C132.20338983050846,30.849333333333334,133.22033898305085,29.761333333333333,134.23728813559322,29.716C135.25423728813558,29.67066666666667,136.27118644067798,29.648000000000003,137.28813559322035,29.648000000000003C138.3050847457627,29.648000000000003,139.3220338983051,29.941333333333336,140.33898305084747,29.952C141.35593220338984,29.962666666666667,142.3728813559322,29.962,143.38983050847457,29.968C144.40677966101694,29.974,145.42372881355934,29.974666666666668,146.4406779661017,29.988C147.45762711864407,30.00133333333333,148.47457627118644,30.101333333333333,149.4915254237288,30.104C150.50847457627117,30.106666666666666,151.52542372881356,30.108,152.54237288135593,30.108C153.5593220338983,30.108,154.5762711864407,29.992,155.59322033898306,29.992C156.61016949152543,29.992,157.6271186440678,30.028000000000002,158.64406779661016,30.028000000000002C159.66101694915253,30.028000000000002,160.67796610169492,30.000000000000004,161.6949152542373,29.976000000000003C162.71186440677965,29.952,163.72881355932205,29.91466666666667,164.74576271186442,29.884C165.76271186440678,29.853333333333335,166.77966101694915,29.823333333333334,167.79661016949152,29.792C168.81355932203388,29.76066666666667,169.83050847457628,29.723333333333333,170.84745762711864,29.695999999999998C171.864406779661,29.668666666666663,172.8813559322034,29.665333333333333,173.89830508474577,29.628C174.91525423728814,29.590666666666667,175.93220338983053,29.518666666666668,176.9491525423729,29.472C177.96610169491527,29.425333333333334,178.98305084745763,29.386666666666667,180,29.348L180,40C178.98305084745763,40,177.96610169491527,40,176.9491525423729,40C175.93220338983053,40,174.91525423728814,40,173.89830508474577,40C172.8813559322034,40,171.864406779661,40,170.84745762711864,40C169.83050847457628,40,168.81355932203388,40,167.79661016949152,40C166.77966101694915,40,165.76271186440678,40,164.74576271186442,40C163.72881355932205,40,162.71186440677965,40,161.6949152542373,40C160.67796610169492,40,159.66101694915253,40,158.64406779661016,40C157.6271186440678,40,156.61016949152543,40,155.59322033898306,40C154.5762711864407,40,153.5593220338983,40,152.54237288135593,40C151.52542372881356,40,150.50847457627117,40,149.4915254237288,40C148.47457627118644,40,147.45762711864407,40,146.4406779661017,40C145.42372881355934,40,144.40677966101694,40,143.38983050847457,40C142.3728813559322,40,141.35593220338984,40,140.33898305084747,40C139.3220338983051,40,138.3050847457627,40,137.28813559322035,40C136.27118644067798,40,135.25423728813558,40,134.23728813559322,40C133.22033898305085,40,132.20338983050846,40,131.1864406779661,40C130.16949152542372,40,129.15254237288136,40,128.135593220339,40C127.11864406779662,40,126.10169491525424,40,125.08474576271188,40C124.0677966101695,40,123.05084745762711,40,122.03389830508473,40C121.01694915254237,40,120,40,118.98305084745763,40C117.96610169491525,40,116.94915254237289,40,115.9322033898305,40C114.91525423728814,40,113.89830508474576,40,112.88135593220339,40C111.86440677966102,40,110.84745762711864,40,109.83050847457628,40C108.8135593220339,40,107.79661016949153,40,106.77966101694915,40C105.76271186440678,40,104.7457627118644,40,103.72881355932203,40C102.71186440677965,40,101.69491525423729,40,100.6779661016949,40C99.66101694915254,40,98.64406779661016,40,97.62711864406779,40C96.61016949152543,40,95.59322033898306,40,94.57627118644069,40C93.55932203389831,40,92.54237288135593,40,91.52542372881355,40C90.50847457627118,40,89.49152542372882,40,88.47457627118645,40C87.45762711864407,40,86.4406779661017,40,85.42372881355932,40C84.40677966101696,40,83.38983050847457,40,82.37288135593221,40C81.35593220338983,40,80.33898305084746,40,79.32203389830508,40C78.30508474576271,40,77.28813559322033,40,76.27118644067797,40C75.2542372881356,40,74.23728813559322,40,73.22033898305085,40C72.20338983050848,40,71.1864406779661,40,70.16949152542374,40C69.15254237288136,40,68.13559322033899,40,67.11864406779661,40C66.10169491525424,40,65.08474576271186,40,64.0677966101695,40C63.05084745762712,40,62.03389830508474,40,61.01694915254237,40C59.99999999999999,40,58.983050847457626,40,57.96610169491525,40C56.94915254237288,40,55.93220338983051,40,54.91525423728814,40C53.898305084745765,40,52.88135593220339,40,51.86440677966102,40C50.847457627118644,40,49.83050847457627,40,48.813559322033896,40C47.79661016949152,40,46.77966101694915,40,45.762711864406775,40C44.7457627118644,40,43.728813559322035,40,42.71186440677966,40C41.69491525423729,40,40.67796610169491,40,39.66101694915254,40C38.644067796610166,40,37.6271186440678,40,36.610169491525426,40C35.59322033898305,40,34.57627118644068,40,33.559322033898304,40C32.54237288135593,40,31.525423728813557,40,30.508474576271183,40C29.491525423728813,40,28.47457627118644,40,27.45762711864407,40C26.440677966101696,40,25.423728813559322,40,24.406779661016948,40C23.389830508474574,40,22.372881355932204,40,21.35593220338983,40C20.338983050847457,40,19.322033898305087,40,18.305084745762713,40C17.28813559322034,40,16.271186440677965,40,15.254237288135592,40C14.23728813559322,40,13.220338983050846,40,12.203389830508474,40C11.186440677966102,40,10.169491525423728,40,9.152542372881356,40C8.135593220338983,40,7.11864406779661,40,6.101694915254237,40C5.084745762711864,40,4.067796610169491,40,3.0508474576271185,40C2.0338983050847457,40,1.0169491525423728,40,0,40Z"></path><path class="line" stroke="black" fill="none" d="M0,17.384C1.0169491525423728,17.349,2.0338983050847457,17.314000000000004,3.0508474576271185,17.208000000000002C4.067796610169491,17.102,5.084745762711864,16.854,6.101694915254237,16.747999999999998C7.11864406779661,16.641999999999996,8.135593220338983,16.625999999999998,9.152542372881356,16.572C10.169491525423728,16.518,11.186440677966102,16.424,12.203389830508474,16.424C13.220338983050846,16.424,14.23728813559322,16.560000000000002,15.254237288135592,16.560000000000002C16.271186440677965,16.560000000000002,17.28813559322034,16.188,18.305084745762713,16.188C19.322033898305087,16.188,20.338983050847457,16.487333333333332,21.35593220338983,16.631999999999998C22.372881355932204,16.776666666666664,23.389830508474574,16.80666666666667,24.406779661016948,17.056C25.423728813559322,17.305333333333333,26.440677966101696,17.917333333333335,27.45762711864407,18.128C28.47457627118644,18.338666666666665,29.491525423728813,18.233333333333334,30.508474576271183,18.444C31.525423728813557,18.654666666666664,32.54237288135593,19.189999999999998,33.559322033898304,19.592C34.57627118644068,19.994,35.59322033898305,20.639999999999993,36.610169491525426,20.855999999999998C37.6271186440678,21.072000000000003,38.644067796610166,21.09266666666667,39.66101694915254,21.180000000000003C40.67796610169491,21.267333333333337,41.69491525423729,21.306666666666665,42.71186440677966,21.38C43.728813559322035,21.45333333333333,44.7457627118644,21.56533333333333,45.762711864406775,21.619999999999997C46.77966101694915,21.674666666666663,47.79661016949152,21.64933333333333,48.813559322033896,21.708C49.83050847457627,21.766666666666666,50.847457627118644,22.172,51.86440677966102,22.172C52.88135593220339,22.172,53.898305084745765,21.966666666666665,54.91525423728814,21.924C55.93220338983051,21.881333333333334,56.94915254237288,21.86,57.96610169491525,21.86C58.983050847457626,21.86,59.99999999999999,22.18666666666667,61.01694915254237,22.400000000000002C62.03389830508474,22.613333333333337,63.05084745762712,22.916,64.0677966101695,23.14C65.08474576271186,23.364,66.10169491525424,23.634666666666664,67.11864406779661,23.744C68.13559322033899,23.853333333333335,69.15254237288136,23.824666666666666,70.16949152542374,23.908C71.1864406779661,23.991333333333333,72.20338983050848,24.020000000000003,73.22033898305085,24.244000000000003C74.23728813559322,24.468000000000004,75.2542372881356,24.99266666666667,76.27118644067797,25.28C77.28813559322033,25.567333333333334,78.30508474576271,25.790666666666667,79.32203389830508,25.968C80.33898305084746,26.145333333333333,81.35593220338983,26.233333333333334,82.37288135593221,26.344C83.38983050847457,26.454666666666668,84.40677966101696,26.5,85.42372881355932,26.631999999999998C86.4406779661017,26.764,87.45762711864407,26.973333333333333,88.47457627118645,27.136C89.49152542372882,27.298666666666666,90.50847457627118,27.445999999999998,91.52542372881355,27.607999999999997C92.54237288135593,27.77,93.55932203389831,28.028,94.57627118644069,28.108C95.59322033898306,28.188000000000002,96.61016949152543,28.160000000000004,97.62711864406779,28.228C98.64406779661016,28.296000000000003,99.66101694915254,28.357333333333333,100.6779661016949,28.516C101.69491525423729,28.674666666666663,102.71186440677965,29.020666666666667,103.72881355932203,29.18C104.7457627118644,29.339333333333332,105.76271186440678,29.40066666666667,106.77966101694915,29.472C107.79661016949153,29.543333333333333,108.8135593220339,29.517333333333333,109.83050847457628,29.607999999999997C110.84745762711864,29.69866666666666,111.86440677966102,30.85066666666667,112.88135593220339,31.080000000000002C113.89830508474576,31.309333333333335,114.91525423728814,31.424,115.9322033898305,31.424C116.94915254237289,31.424,117.96610169491525,31.217333333333332,118.98305084745763,31.172C120,31.12666666666667,121.01694915254237,31.13266666666667,122.03389830508473,31.104000000000003C123.05084745762711,31.075333333333337,124.0677966101695,31.041333333333334,125.08474576271188,31C126.10169491525424,30.958666666666666,127.11864406779662,30.858666666666664,128.135593220339,30.855999999999998C129.15254237288136,30.85333333333333,130.16949152542372,30.854666666666667,131.1864406779661,30.852C132.20338983050846,30.849333333333334,133.22033898305085,29.761333333333333,134.23728813559322,29.716C135.25423728813558,29.67066666666667,136.27118644067798,29.648000000000003,137.28813559322035,29.648000000000003C138.3050847457627,29.648000000000003,139.3220338983051,29.941333333333336,140.33898305084747,29.952C141.35593220338984,29.962666666666667,142.3728813559322,29.962,143.38983050847457,29.968C144.40677966101694,29.974,145.42372881355934,29.974666666666668,146.4406779661017,29.988C147.45762711864407,30.00133333333333,148.47457627118644,30.101333333333333,149.4915254237288,30.104C150.50847457627117,30.106666666666666,151.52542372881356,30.108,152.54237288135593,30.108C153.5593220338983,30.108,154.5762711864407,29.992,155.59322033898306,29.992C156.61016949152543,29.992,157.6271186440678,30.028000000000002,158.64406779661016,30.028000000000002C159.66101694915253,30.028000000000002,160.67796610169492,30.000000000000004,161.6949152542373,29.976000000000003C162.71186440677965,29.952,163.72881355932205,29.91466666666667,164.74576271186442,29.884C165.76271186440678,29.853333333333335,166.77966101694915,29.823333333333334,167.79661016949152,29.792C168.81355932203388,29.76066666666667,169.83050847457628,29.723333333333333,170.84745762711864,29.695999999999998C171.864406779661,29.668666666666663,172.8813559322034,29.665333333333333,173.89830508474577,29.628C174.91525423728814,29.590666666666667,175.93220338983053,29.518666666666668,176.9491525423729,29.472C177.96610169491527,29.425333333333334,178.98305084745763,29.386666666666667,180,29.348"></path><path class="axis-ceiling" stroke-width="1" stroke="black" fill="none" d="M175,0L180,0"></path><text class="axis-ceiling-label" font-family="sans-serif" text-anchor="end" font-size="10px" x="170" y="2.5">10000</text></g></svg>