<svg xmlns="http://www.w3.org/2000/svg" viewBox="0 0 180 60"><g transform="translate(0,20)"><path class="area" fill="rgba(0, 0, 0, 0.2)" d="M0,36.64C1.0344827586206897,37.2,2.068965517241379,37.76,3.103448275862069,37.76C4.137931034482759,37.76,5.172413793103448,37.38666666666667,6.206896551724138,37.120000000000005C7.241379310344827,36.85333333333334,8.275862068965516,36.160000000000004,9.310344827586206,36.160000000000004C10.344827586206897,36.160000000000004,11.379310344827585,37.599999999999994,12.413793103448276,37.599999999999994C13.448275862068966,37.599999999999994,14.482758620689655,37.12,15.517241379310345,36.96C16.551724137931036,36.800000000000004,17.586206896551722,36.85333333333333,18.620689655172413,36.64C19.655172413793103,36.42666666666667,20.689655172413794,35.52,21.724137931034484,35.52C22.758620689655174,35.52,23.79310344827586,36.29333333333334,24.82758620689655,36.64C25.862068965517242,36.986666666666665,26.896551724137932,37.38666666666666,27.931034482758623,37.599999999999994C28.965517241379313,37.813333333333325,30,37.92,31.03448275862069,37.92C32.06896551724138,37.92,33.103448275862064,34.24,34.137931034482754,34.24C35.172413793103445,34.24,36.206896551724135,36.96,37.241379310344826,36.96C38.275862068965516,36.96,39.310344827586206,33.120000000000005,40.3448275862069,33.120000000000005C41.37931034482759,33.120000000000005,42.41379310344828,33.17333333333334,43.44827586206897,33.28C44.48275862068966,33.38666666666666,45.51724137931035,37.44,46.55172413793104,37.44C47.58620689655173,37.44,48.62068965517241,34.08,49.6551724137931,34.08C50.689655172413794,34.08,51.72413793103448,34.4,52.75862068965517,34.4C53.79310344827586,34.4,54.827586206896555,33.226666666666674,55.862068965517246,31.840000000000003C56.896551724137936,30.453333333333337,57.93103448275862,26.080000000000002,58.96551724137931,26.080000000000002C60,26.080000000000002,61.03448275862069,31.840000000000003,62.06896551724138,31.840000000000003C63.10344827586207,31.840000000000003,64.13793103448276,24.48,65.17241379310344,24.48C66.20689655172413,24.48,67.24137931034483,31.893333333333334,68.27586206896551,32.32C69.3103448275862,32.74666666666667,70.34482758620689,32.96,71.37931034482759,32.96C72.41379310344827,32.96,73.44827586206897,26.4,74.48275862068965,26.4C75.51724137931033,26.4,76.55172413793103,31.520000000000003,77.58620689655172,31.520000000000003C78.62068965517241,31.520000000000003,79.6551724137931,27.680000000000003,80.6896551724138,27.36C81.72413793103448,27.039999999999996,82.75862068965517,27.2,83.79310344827586,26.879999999999995C84.82758620689656,26.55999999999999,85.86206896551724,21.92,86.89655172413794,21.92C87.93103448275862,21.92,88.96551724137932,25.546666666666667,90,27.04C91.0344827586207,28.53333333333334,92.06896551724138,30.880000000000003,93.10344827586208,30.880000000000003C94.13793103448276,30.880000000000003,95.17241379310344,19.36,96.20689655172413,19.36C97.24137931034483,19.36,98.27586206896551,23.360000000000003,99.3103448275862,23.360000000000003C100.3448275862069,23.360000000000003,101.37931034482759,17.65333333333334,102.41379310344828,17.12C103.44827586206897,16.586666666666666,104.48275862068965,16.56,105.51724137931033,16.32C106.55172413793103,16.08,107.58620689655172,15.68,108.62068965517241,15.68C109.65517241379311,15.68,110.6896551724138,21.306666666666665,111.72413793103449,23.680000000000003C112.75862068965517,26.05333333333333,113.79310344827587,29.92,114.82758620689656,29.92C115.86206896551724,29.92,116.89655172413794,18.239999999999995,117.93103448275862,17.919999999999998C118.96551724137932,17.6,120,17.759999999999998,121.0344827586207,17.44C122.06896551724138,17.120000000000005,123.10344827586208,4.96,124.13793103448276,4.96C125.17241379310344,4.96,126.20689655172414,7.679999999999998,127.24137931034483,7.679999999999998C128.27586206896552,7.679999999999998,129.3103448275862,6.240000000000001,130.3448275862069,6.240000000000001C131.3793103448276,6.240000000000001,132.41379310344828,13.86666666666665,133.44827586206898,16.96C134.48275862068965,20.053333333333295,135.51724137931035,24.8,136.55172413793102,24.8C137.58620689655172,24.8,138.6206896551724,24,139.6551724137931,22.400000000000002C140.6896551724138,20.80000000000002,141.72413793103448,13.920000000000003,142.75862068965517,11.680000000000001C143.79310344827587,9.44,144.82758620689654,9.84,145.86206896551724,8.319999999999999C146.89655172413794,6.799999999999998,147.9310344827586,2.559999999999998,148.9655172413793,2.559999999999998C150,2.559999999999998,151.0344827586207,3.466666666666665,152.0689655172414,5.28C153.10344827586206,7.093333333333302,154.13793103448276,12.29333333333335,155.17241379310343,15.2C156.20689655172413,18.1066666666667,157.24137931034483,22.720000000000002,158.27586206896552,22.720000000000002C159.31034482758622,22.720000000000002,160.3448275862069,10.826666666666664,161.3793103448276,8.479999999999999C162.41379310344828,6.133333333333333,163.44827586206895,4.96,164.48275862068965,4.96C165.51724137931035,4.96,166.55172413793102,8.799999999999999,167.58620689655172,8.799999999999999C168.6206896551724,8.799999999999999,169.6551724137931,6.026666666666672,170.6896551724138,5.6000000000000005C171.7241379310345,5.173333333333334,172.75862068965517,4.96,173.79310344827587,4.96C174.82758620689657,4.96,175.86206896551724,9.919999999999998,176.89655172413794,12.799999999999997C177.93103448275863,15.679999999999996,178.9655172413793,18.96,180,22.240000000000002L180,40C178.9655172413793,40,177.93103448275863,40,176.89655172413794,40C175.86206896551724,40,174.82758620689657,40,173.79310344827587,40C172.75862068965517,40,171.7241379310345,40,170.6896551724138,40C169.6551724137931,40,168.6206896551724,40,167.58620689655172,40C166.55172413793102,40,165.51724137931035,40,164.48275862068965,40C163.44827586206895,40,162.41379310344828,40,161.3793103448276,40C160.3448275862069,40,159.31034482758622,40,158.27586206896552,40C157.24137931034483,40,156.20689655172413,40,155.17241379310343,40C154.13793103448276,40,153.10344827586206,40,152.0689655172414,40C151.0344827586207,40,150,40,148.9655172413793,40C147.9310344827586,40,146.89655172413794,40,145.86206896551724,40C144.82758620689654,40,143.79310344827587,40,142.75862068965517,40C141.72413793103448,40,140.6896551724138,40,139.6551724137931,40C138.6206896551724,40,137.58620689655172,40,136.55172413793102,40C135.51724137931035,40,134.48275862068965,40,133.44827586206898,40C132.41379310344828,40,131.3793103448276,40,130.3448275862069,40C129.3103448275862,40,128.27586206896552,40,127.24137931034483,40C126.20689655172414,40,125.17241379310344,40,124.13793103448276,40C123.10344827586208,40,122.06896551724138,40,121.0344827586207,40C120,40,118.96551724137932,40,117.93103448275862,40C116.89655172413794,40,115.86206896551724,40,114.82758620689656,40C113.79310344827587,40,112.75862068965517,40,111.72413793103449,40C110.6896551724138,40,109.65517241379311,40,108.62068965517241,40C107.58620689655172,40,106.55172413793103,40,105.51724137931033,40C104.48275862068965,40,103.44827586206897,40,102.41379310344828,40C101.37931034482759,40,100.3448275862069,40,99.3103448275862,40C98.27586206896551,40,97.24137931034483,40,96.20689655172413,40C95.17241379310344,40,94.13793103448276,40,93.10344827586208,40C92.06896551724138,40,91.0344827586207,40,90,40C88.96551724137932,40,87.93103448275862,40,86.89655172413794,40C85.86206896551724,40,84.82758620689656,40,83.79310344827586,40C82.75862068965517,40,81.72413793103448,40,80.6896551724138,40C79.6551724137931,40,78.62068965517241,40,77.58620689655172,40C76.55172413793103,40,75.51724137931033,40,74.48275862068965,40C73.44827586206897,40,72.41379310344827,40,71.37931034482759,40C70.34482758620689,40,69.3103448275862,40,68.27586206896551,40C67.24137931034483,40,66.20689655172413,40,65.17241379310344,40C64.13793103448276,40,63.10344827586207,40,62.06896551724138,40C61.03448275862069,40,60,40,58.96551724137931,40C57.93103448275862,40,56.896551724137936,40,55.862068965517246,40C54.827586206896555,40,53.79310344827586,40,52.75862068965517,40C51.72413793103448,40,50.689655172413794,40,49.6551724137931,40C48.62068965517241,40,47.58620689655173,40,46.55172413793104,40C45.51724137931035,40,44.48275862068966,40,43.44827586206897,40C42.41379310344828,40,41.37931034482759,40,40.3448275862069,40C39.310344827586206,40,38.275862068965516,40,37.241379310344826,40C36.206896551724135,40,35.172413793103445,40,34.137931034482754,40C33.103448275862064,40,32.06896551724138,40,31.03448275862069,40C30,40,28.965517241379313,40,27.931034482758623,40C26.896551724137932,40,25.862068965517242,40,24.82758620689655,40C23.79310344827586,40,22.758620689655174,40,21.724137931034484,40C20.689655172413794,40,19.655172413793103,40,18.620689655172413,40C17.586206896551722,40,16.551724137931036,40,15.517241379310345,40C14.482758620689655,40,13.448275862068966,40,12.413793103448276,40C11.379310344827585,40,10.344827586206897,40,9.310344827586206,40C8.275862068965516,40,7.241379310344827,40,6.206896551724138,40C5.172413793103448,40,4.137931034482759,40,3.103448275862069,40C2.068965517241379,40,1.0344827586206897,40,0,40Z"></path><path class="line" stroke="black" fill="none" d="M0,36.64C1.0344827586206897,37.2,2.068965517241379,37.76,3.103448275862069,37.76C4.137931034482759,37.76,5.172413793103448,37.38666666666667,6.206896551724138,37.120000000000005C7.241379310344827,36.85333333333334,8.275862068965516,36.160000000000004,9.310344827586206,36.160000000000004C10.344827586206897,36.160000000000004,11.379310344827585,37.599999999999994,12.413793103448276,37.599999999999994C13.448275862068966,37.599999999999994,14.482758620689655,37.12,15.517241379310345,36.96C16.551724137931036,36.800000000000004,17.586206896551722,36.85333333333333,18.620689655172413,36.64C19.655172413793103,36.42666666666667,20.689655172413794,35.52,21.724137931034484,35.52C22.758620689655174,35.52,23.79310344827586,36.29333333333334,24.82758620689655,36.64C25.862068965517242,36.986666666666665,26.896551724137932,37.38666666666666,27.931034482758623,37.599999999999994C28.965517241379313,37.813333333333325,30,37.92,31.03448275862069,37.92C32.06896551724138,37.92,33.103448275862064,34.24,34.137931034482754,34.24C35.172413793103445,34.24,36.206896551724135,36.96,37.241379310344826,36.96C38.275862068965516,36.96,39.310344827586206,33.120000000000005,40.3448275862069,33.120000000000005C41.37931034482759,33.120000000000005,42.41379310344828,33.17333333333334,43.44827586206897,33.28C44.48275862068966,33.38666666666666,45.51724137931035,37.44,46.55172413793104,37.44C47.58620689655173,37.44,48.62068965517241,34.08,49.6551724137931,34.08C50.689655172413794,34.08,51.72413793103448,34.4,52.75862068965517,34.4C53.79310344827586,34.4,54.827586206896555,33.226666666666674,55.862068965517246,31.840000000000003C56.896551724137936,30.453333333333337,57.93103448275862,26.080000000000002,58.96551724137931,26.080000000000002C60,26.080000000000002,61.03448275862069,31.840000000000003,62.06896551724138,31.840000000000003C63.10344827586207,31.840000000000003,64.13793103448276,24.48,65.17241379310344,24.48C66.20689655172413,24.48,67.24137931034483,31.893333333333334,68.27586206896551,32.32C69.3103448275862,32.74666666666667,70.34482758620689,32.96,71.37931034482759,32.96C72.41379310344827,32.96,73.44827586206897,26.4,74.48275862068965,26.4C75.51724137931033,26.4,76.55172413793103,31.520000000000003,77.58620689655172,31.520000000000003C78.62068965517241,31.520000000000003,79.6551724137931,27.680000000000003,80.6896551724138,27.36C81.72413793103448,27.039999999999996,82.75862068965517,27.2,83.79310344827586,26.879999999999995C84.82758620689656,26.55999999999999,85.86206896551724,21.92,86.89655172413794,21.92C87.93103448275862,21.92,88.96551724137932,25.546666666666667,90,27.04C91.0344827586207,28.53333333333334,92.06896551724138,30.880000000000003,93.10344827586208,30.880000000000003C94.13793103448276,30.880000000000003,95.17241379310344,19.36,96.20689655172413,19.36C97.24137931034483,19.36,98.27586206896551,23.360000000000003,99.3103448275862,23.360000000000003C100.3448275862069,23.360000000000003,101.37931034482759,17.65333333333334,102.41379310344828,17.12C103.44827586206897,16.586666666666666,104.48275862068965,16.56,105.51724137931033,16.32C106.55172413793103,16.08,107.58620689655172,15.68,108.62068965517241,15.68C109.65517241379311,15.68,110.6896551724138,21.306666666666665,111.72413793103449,23.680000000000003C112.75862068965517,26.05333333333333,113.79310344827587,29.92,114.82758620689656,29.92C115.86206896551724,29.92,116.89655172413794,18.239999999999995,117.93103448275862,17.919999999999998C118.96551724137932,17.6,120,17.759999999999998,121.0344827586207,17.44C122.06896551724138,17.120000000000005,123.10344827586208,4.96,124.13793103448276,4.96C125.17241379310344,4.96,126.20689655172414,7.679999999999998,127.24137931034483,7.679999999999998C128.27586206896552,7.679999999999998,129.3103448275862,6.240000000000001,130.3448275862069,6.240000000000001C131.3793103448276,6.240000000000001,132.41379310344828,13.86666666666665,133.44827586206898,16.96C134.48275862068965,20.053333333333295,135.51724137931035,24.8,136.55172413793102,24.8C137.58620689655172,24.8,138.6206896551724,24,139.6551724137931,22.400000000000002C140.6896551724138,20.80000000000002,141.72413793103448,13.920000000000003,142.75862068965517,11.680000000000001C143.79310344827587,9.44,144.82758620689654,9.84,145.86206896551724,8.319999999999999C146.89655172413794,6.799999999999998,147.9310344827586,2.559999999999998,148.9655172413793,2.559999999999998C150,2.559999999999998,151.0344827586207,3.466666666666665,152.0689655172414,5.28C153.10344827586206,7.093333333333302,154.13793103448276,12.29333333333335,155.17241379310343,15.2C156.20689655172413,18.1066666666667,157.24137931034483,22.720000000000002,158.27586206896552,22.720000000000002C159.31034482758622,22.720000000000002,160.3448275862069,10.826666666666664,161.3793103448276,8.479999999999999C162.41379310344828,6.133333333333333,163.44827586206895,4.96,164.48275862068965,4.96C165.51724137931035,4.96,166.55172413793102,8.799999999999999,167.58620689655172,8.799999999999999C168.6206896551724,8.799999999999999,169.6551724137931,6.026666666666672,170.6896551724138,5.6000000000000005C171.7241379310345,5.173333333333334,172.75862068965517,4.96,173.79310344827587,4.96C174.82758620689657,4.96,175.86206896551724,9.919999999999998,176.89655172413794,12.799999999999997C177.93103448275863,15.679999999999996,178.9655172413793,18.96,180,22.240000000000002"></path><path class="axis-ceiling" stroke-width="1" stroke="black" fill="none" d="M175,0L180,0"></path><text class="axis-ceiling-label" font-family="sans-serif" text-anchor="end" font-size="10px" x="170" y="2.5">250</text></g></svg>