<svg xmlns="http://www.w3.org/2000/svg" viewBox="0 0 180 60"><g transform="translate(0,20)"><path class="area" fill="rgba(0, 0, 0, 0.2)" d="M0,23.4C1.0344827586206897,23.48333333333333,2.068965517241379,23.566666666666666,3.103448275862069,23.9C4.137931034482759,24.23333333333333,5.172413793103448,26,6.206896551724138,26C7.241379310344827,26,8.275862068965516,23.34,9.310344827586206,23.34C10.344827586206897,23.34,11.379310344827585,25.623333333333328,12.413793103448276,27.199999999999996C13.448275862068966,28.776666666666664,14.482758620689655,32.800000000000004,15.517241379310345,32.800000000000004C16.551724137931036,32.800000000000004,17.586206896551722,14.32,18.620689655172413,14.32C19.655172413793103,14.32,20.689655172413794,19.64,21.724137931034484,19.64C22.758620689655174,19.64,23.79310344827586,19.16,24.82758620689655,19.16C25.862068965517242,19.16,26.896551724137932,21.200000000000003,27.931034482758623,21.200000000000003C28.965517241379313,21.200000000000003,30,20.2,31.03448275862069,20.2C32.06896551724138,20.2,33.103448275862064,22.07666666666667,34.137931034482754,23.94C35.172413793103445,25.803333333333335,36.206896551724135,31.38,37.241379310344826,31.38C38.275862068965516,31.38,39.310344827586206,15.54,40.3448275862069,15.54C41.37931034482759,15.54,42.41379310344828,17.43,43.44827586206897,18.3C44.48275862068966,19.17,45.51724137931035,20.76,46.55172413793104,20.76C47.58620689655173,20.76,48.62068965517241,20.49333333333334,49.6551724137931,20.300000000000004C50.689655172413794,20.10666666666667,51.72413793103448,19.6,52.75862068965517,19.6C53.79310344827586,19.6,54.827586206896555,21.36666666666666,55.862068965517246,23.42C56.896551724137936,25.473333333333333,57.93103448275862,31.92,58.96551724137931,31.92C60,31.92,61.03448275862069,13.613333333333333,62.06896551724138,13.36C63.10344827586207,13.106666666666667,64.13793103448276,12.98,65.17241379310344,12.98C66.20689655172413,12.98,67.24137931034483,13.620000000000001,68.27586206896551,14.900000000000002C69.3103448275862,16.18000000000001,70.34482758620689,30.14,71.37931034482759,30.14C72.41379310344827,30.14,73.44827586206897,17.94,74.48275862068965,17.94C75.51724137931033,17.94,76.55172413793103,22.52666666666667,77.58620689655172,23.66C78.62068965517241,24.793333333333333,79.6551724137931,25.36,80.6896551724138,25.36C81.72413793103448,25.36,82.75862068965517,19.51666666666666,83.79310344827586,16.38C84.82758620689656,13.243333333333325,85.86206896551724,8.82,86.89655172413794,6.539999999999999C87.93103448275862,4.260000000000009,88.96551724137932,2.7,90,2.7C91.0344827586207,2.7,92.06896551724138,5.08,93.10344827586208,5.08C94.13793103448276,5.08,95.17241379310344,3.540000000000001,96.20689655172413,3.540000000000001C97.24137931034483,3.540000000000001,98.27586206896551,7.9533333333333305,99.3103448275862,11.579999999999998C100.3448275862069,15.206666666666667,101.37931034482759,25.300000000000004,102.41379310344828,25.300000000000004C103.44827586206897,25.300000000000004,104.48275862068965,2.42,105.51724137931033,2.42C106.55172413793103,2.42,107.58620689655172,5.049999999999999,108.62068965517241,6.419999999999999C109.65517241379311,7.789999999999999,110.6896551724138,9.423333333333332,111.72413793103449,10.64C112.75862068965517,11.856666666666664,113.79310344827587,13.09333333333333,114.82758620689656,13.719999999999999C115.86206896551724,14.346666666666668,116.89655172413794,14.033333333333333,117.93103448275862,14.660000000000002C118.96551724137932,15.286666666666674,120,21.583333333333332,121.0344827586207,24.340000000000003C122.06896551724138,27.09666666666666,123.10344827586208,31.200000000000003,124.13793103448276,31.200000000000003C125.17241379310344,31.200000000000003,126.20689655172414,8.68,127.24137931034483,8.68C128.27586206896552,8.68,129.3103448275862,11.710000000000008,130.3448275862069,13.36C131.3793103448276,15.010000000000007,132.41379310344828,17.27333333333333,133.44827586206898,18.580000000000002C134.48275862068965,19.88666666666665,135.51724137931035,21.200000000000003,136.55172413793102,21.200000000000003C137.58620689655172,21.200000000000003,138.6206896551724,19.64,139.6551724137931,19.64C140.6896551724138,19.64,141.72413793103448,22.37,142.75862068965517,24.86C143.79310344827587,27.349999999999998,144.82758620689654,34.58,145.86206896551724,34.58C146.89655172413794,34.58,147.9310344827586,16.44,148.9655172413793,16.44C150,16.44,151.0344827586207,17.033333333333335,152.0689655172414,18.22C153.10344827586206,19.40666666666664,154.13793103448276,23.386666666666674,155.17241379310343,23.919999999999998C156.20689655172413,24.453333333333333,157.24137931034483,24.186666666666664,158.27586206896552,24.72C159.31034482758622,25.253333333333327,160.3448275862069,29.1,161.3793103448276,29.1C162.41379310344828,29.1,163.44827586206895,28.759999999999998,164.48275862068965,28.759999999999998C165.51724137931035,28.759999999999998,166.55172413793102,35.72,167.58620689655172,35.72C168.6206896551724,35.72,169.6551724137931,21.7,170.6896551724138,21.7C171.7241379310345,21.7,172.75862068965517,24.22,173.79310344827587,25C174.82758620689657,25.78,175.86206896551724,26.38,176.89655172413794,26.38C177.93103448275863,26.38,178.9655172413793,25.979999999999997,180,25.58L180,40C178.9655172413793,40,177.93103448275863,40,176.89655172413794,40C175.86206896551724,40,174.82758620689657,40,173.79310344827587,40C172.75862068965517,40,171.7241379310345,40,170.6896551724138,40C169.6551724137931,40,168.6206896551724,40,167.58620689655172,40C166.55172413793102,40,165.51724137931035,40,164.48275862068965,40C163.44827586206895,40,162.41379310344828,40,161.3793103448276,40C160.3448275862069,40,159.31034482758622,40,158.27586206896552,40C157.24137931034483,40,156.20689655172413,40,155.17241379310343,40C154.13793103448276,40,153.10344827586206,40,152.0689655172414,40C151.0344827586207,40,150,40,148.9655172413793,40C147.9310344827586,40,146.89655172413794,40,145.86206896551724,40C144.82758620689654,40,143.79310344827587,40,142.75862068965517,40C141.72413793103448,40,140.6896551724138,40,139.6551724137931,40C138.6206896551724,40,137.58620689655172,40,136.55172413793102,40C135.51724137931035,40,134.48275862068965,40,133.44827586206898,40C132.41379310344828,40,131.3793103448276,40,130.3448275862069,40C129.3103448275862,40,128.27586206896552,40,127.24137931034483,40C126.20689655172414,40,125.17241379310344,40,124.13793103448276,40C123.10344827586208,40,122.06896551724138,40,121.0344827586207,40C120,40,118.96551724137932,40,117.93103448275862,40C116.89655172413794,40,115.86206896551724,40,114.82758620689656,40C113.79310344827587,40,112.75862068965517,40,111.72413793103449,40C110.6896551724138,40,109.65517241379311,40,108.62068965517241,40C107.58620689655172,40,106.55172413793103,40,105.51724137931033,40C104.48275862068965,40,103.44827586206897,40,102.41379310344828,40C101.37931034482759,40,100.3448275862069,40,99.3103448275862,40C98.27586206896551,40,97.24137931034483,40,96.20689655172413,40C95.17241379310344,40,94.13793103448276,40,93.10344827586208,40C92.06896551724138,40,91.0344827586207,40,90,40C88.96551724137932,40,87.93103448275862,40,86.89655172413794,40C85.86206896551724,40,84.82758620689656,40,83.79310344827586,40C82.75862068965517,40,81.72413793103448,40,80.6896551724138,40C79.6551724137931,40,78.62068965517241,40,77.58620689655172,40C76.55172413793103,40,75.51724137931033,40,74.48275862068965,40C73.44827586206897,40,72.41379310344827,40,71.37931034482759,40C70.34482758620689,40,69.3103448275862,40,68.27586206896551,40C67.24137931034483,40,66.20689655172413,40,65.17241379310344,40C64.13793103448276,40,63.10344827586207,40,62.06896551724138,40C61.03448275862069,40,60,40,58.96551724137931,40C57.93103448275862,40,56.896551724137936,40,55.862068965517246,40C54.827586206896555,40,53.79310344827586,40,52.75862068965517,40C51.72413793103448,40,50.689655172413794,40,49.6551724137931,40C48.62068965517241,40,47.58620689655173,40,46.55172413793104,40C45.51724137931035,40,44.48275862068966,40,43.44827586206897,40C42.41379310344828,40,41.37931034482759,40,40.3448275862069,40C39.310344827586206,40,38.275862068965516,40,37.241379310344826,40C36.206896551724135,40,35.172413793103445,40,34.137931034482754,40C33.103448275862064,40,32.06896551724138,40,31.03448275862069,40C30,40,28.965517241379313,40,27.931034482758623,40C26.896551724137932,40,25.862068965517242,40,24.82758620689655,40C23.79310344827586,40,22.758620689655174,40,21.724137931034484,40C20.689655172413794,40,19.655172413793103,40,18.620689655172413,40C17.586206896551722,40,16.551724137931036,40,15.517241379310345,40C14.482758620689655,40,13.448275862068966,40,12.413793103448276,40C11.379310344827585,40,10.344827586206897,40,9.310344827586206,40C8.275862068965516,40,7.241379310344827,40,6.206896551724138,40C5.172413793103448,40,4.137931034482759,40,3.103448275862069,40C2.068965517241379,40,1.0344827586206897,40,0,40Z"></path><path class="line" stroke="black" fill="none" d="M0,23.4C1.0344827586206897,23.48333333333333,2.068965517241379,23.566666666666666,3.103448275862069,23.9C4.137931034482759,24.23333333333333,5.172413793103448,26,6.206896551724138,26C7.241379310344827,26,8.275862068965516,23.34,9.310344827586206,23.34C10.344827586206897,23.34,11.379310344827585,25.623333333333328,12.413793103448276,27.199999999999996C13.448275862068966,28.776666666666664,14.482758620689655,32.800000000000004,15.517241379310345,32.800000000000004C16.551724137931036,32.800000000000004,17.586206896551722,14.32,18.620689655172413,14.32C19.655172413793103,14.32,20.689655172413794,19.64,21.724137931034484,19.64C22.758620689655174,19.64,23.79310344827586,19.16,24.82758620689655,19.16C25.862068965517242,19.16,26.896551724137932,21.200000000000003,27.931034482758623,21.200000000000003C28.965517241379313,21.200000000000003,30,20.2,31.03448275862069,20.2C32.06896551724138,20.2,33.103448275862064,22.07666666666667,34.137931034482754,23.94C35.172413793103445,25.803333333333335,36.206896551724135,31.38,37.241379310344826,31.38C38.275862068965516,31.38,39.310344827586206,15.54,40.3448275862069,15.54C41.37931034482759,15.54,42.41379310344828,17.43,43.44827586206897,18.3C44.48275862068966,19.17,45.51724137931035,20.76,46.55172413793104,20.76C47.58620689655173,20.76,48.62068965517241,20.49333333333334,49.6551724137931,20.300000000000004C50.689655172413794,20.10666666666667,51.72413793103448,19.6,52.75862068965517,19.6C53.79310344827586,19.6,54.827586206896555,21.36666666666666,55.862068965517246,23.42C56.896551724137936,25.473333333333333,57.93103448275862,31.92,58.96551724137931,31.92C60,31.92,61.03448275862069,13.613333333333333,62.06896551724138,13.36C63.10344827586207,13.106666666666667,64.13793103448276,12.98,65.17241379310344,12.98C66.20689655172413,12.98,67.24137931034483,13.620000000000001,68.27586206896551,14.900000000000002C69.3103448275862,16.18000000000001,70.34482758620689,30.14,71.37931034482759,30.14C72.41379310344827,30.14,73.44827586206897,17.94,74.48275862068965,17.94C75.51724137931033,17.94,76.55172413793103,22.52666666666667,77.58620689655172,23.66C78.62068965517241,24.793333333333333,79.6551724137931,25.36,80.6896551724138,25.36C81.72413793103448,25.36,82.75862068965517,19.51666666666666,83.79310344827586,16.38C84.82758620689656,13.243333333333325,85.86206896551724,8.82,86.89655172413794,6.539999999999999C87.93103448275862,4.260000000000009,88.96551724137932,2.7,90,2.7C91.0344827586207,2.7,92.06896551724138,5.08,93.10344827586208,5.08C94.13793103448276,5.08,95.17241379310344,3.540000000000001,96.20689655172413,3.540000000000001C97.24137931034483,3.540000000000001,98.27586206896551,7.9533333333333305,99.3103448275862,11.579999999999998C100.3448275862069,15.206666666666667,101.37931034482759,25.300000000000004,102.41379310344828,25.300000000000004C103.44827586206897,25.300000000000004,104.48275862068965,2.42,105.51724137931033,2.42C106.55172413793103,2.42,107.58620689655172,5.049999999999999,108.62068965517241,6.419999999999999C109.65517241379311,7.789999999999999,110.6896551724138,9.423333333333332,111.72413793103449,10.64C112.75862068965517,11.856666666666664,113.79310344827587,13.09333333333333,114.82758620689656,13.719999999999999C115.86206896551724,14.346666666666668,116.89655172413794,14.033333333333333,117.93103448275862,14.660000000000002C118.96551724137932,15.286666666666674,120,21.583333333333332,121.0344827586207,24.340000000000003C122.06896551724138,27.09666666666666,123.10344827586208,31.200000000000003,124.13793103448276,31.200000000000003C125.17241379310344,31.200000000000003,126.20689655172414,8.68,127.24137931034483,8.68C128.27586206896552,8.68,129.3103448275862,11.710000000000008,130.3448275862069,13.36C131.3793103448276,15.010000000000007,132.41379310344828,17.27333333333333,133.44827586206898,18.580000000000002C134.48275862068965,19.88666666666665,135.51724137931035,21.200000000000003,136.55172413793102,21.200000000000003C137.58620689655172,21.200000000000003,138.6206896551724,19.64,139.6551724137931,19.64C140.6896551724138,19.64,141.72413793103448,22.37,142.75862068965517,24.86C143.79310344827587,27.349999999999998,144.82758620689654,34.58,145.86206896551724,34.58C146.89655172413794,34.58,147.9310344827586,16.44,148.9655172413793,16.44C150,16.44,151.0344827586207,17.033333333333335,152.0689655172414,18.22C153.10344827586206,19.40666666666664,154.13793103448276,23.386666666666674,155.17241379310343,23.919999999999998C156.20689655172413,24.453333333333333,157.24137931034483,24.186666666666664,158.27586206896552,24.72C159.31034482758622,25.253333333333327,160.3448275862069,29.1,161.3793103448276,29.1C162.41379310344828,29.1,163.44827586206895,28.759999999999998,164.48275862068965,28.759999999999998C165.51724137931035,28.759999999999998,166.55172413793102,35.72,167.58620689655172,35.72C168.6206896551724,35.72,169.6551724137931,21.7,170.6896551724138,21.7C171.7241379310345,21.7,172.75862068965517,24.22,173.79310344827587,25C174.82758620689657,25.78,175.86206896551724,26.38,176.89655172413794,26.38C177.93103448275863,26.38,178.9655172413793,25.979999999999997,180,25.58"></path><path class="axis-ceiling" stroke-width="1" stroke="black" fill="none" d="M175,0L180,0"></path><text class="axis-ceiling-label" font-family="sans-serif" text-anchor="end" font-size="10px" x="170" y="2.5">2000</text></g></svg>