<svg xmlns="http://www.w3.org/2000/svg" viewBox="0 0 180 60"><g transform="translate(0,20)"><path class="area" fill="rgba(0, 0, 0, 0.2)" d="M0,19.16C1.0169491525423728,20.18,2.0338983050847457,21.200000000000003,3.0508474576271185,21.200000000000003C4.067796610169491,21.200000000000003,5.084745762711864,20.2,6.101694915254237,20.2C7.11864406779661,20.2,8.135593220338983,22.076666666666668,9.152542372881356,23.94C10.169491525423728,25.803333333333335,11.186440677966102,31.38,12.203389830508474,31.38C13.220338983050846,31.38,14.23728813559322,15.54,15.254237288135592,15.54C16.271186440677965,15.54,17.28813559322034,17.43,18.305084745762713,18.3C19.322033898305087,19.17,20.338983050847457,20.76,21.35593220338983,20.76C22.372881355932204,20.76,23.389830508474574,20.493333333333336,24.406779661016948,20.300000000000004C25.423728813559322,20.10666666666667,26.440677966101696,19.6,27.45762711864407,19.6C28.47457627118644,19.6,29.491525423728813,21.366666666666674,30.508474576271183,23.42C31.525423728813557,25.473333333333336,32.54237288135593,31.92,33.559322033898304,31.92C34.57627118644068,31.92,35.59322033898305,13.613333333333333,36.610169491525426,13.36C37.6271186440678,13.106666666666667,38.644067796610166,12.98,39.66101694915254,12.98C40.67796610169491,12.98,41.69491525423729,13.620000000000001,42.71186440677966,14.900000000000002C43.728813559322035,16.18,44.7457627118644,30.14,45.762711864406775,30.14C46.77966101694915,30.14,47.79661016949152,17.94,48.813559322033896,17.94C49.83050847457627,17.94,50.847457627118644,22.526666666666667,51.86440677966102,23.66C52.88135593220339,24.793333333333333,53.898305084745765,25.36,54.91525423728814,25.36C55.93220338983051,25.36,56.94915254237288,19.516666666666666,57.96610169491525,16.38C58.983050847457626,13.243333333333332,59.99999999999999,8.819999999999999,61.01694915254237,6.539999999999999C62.03389830508474,4.259999999999989,63.05084745762712,2.7,64.0677966101695,2.7C65.08474576271186,2.7,66.10169491525424,5.08,67.11864406779661,5.08C68.13559322033899,5.08,69.15254237288136,3.540000000000001,70.16949152542374,3.540000000000001C71.1864406779661,3.540000000000001,72.20338983050848,7.953333333333331,73.22033898305085,11.579999999999998C74.23728813559322,15.206666666666665,75.2542372881356,25.300000000000004,76.27118644067797,25.300000000000004C77.28813559322033,25.300000000000004,78.30508474576271,2.42,79.32203389830508,2.42C80.33898305084746,2.42,81.35593220338983,5.049999999999995,82.37288135593221,6.419999999999999C83.38983050847457,7.7899999999999965,84.40677966101696,9.423333333333336,85.42372881355932,10.64C86.4406779661017,11.856666666666671,87.45762711864407,13.093333333333325,88.47457627118645,13.719999999999999C89.49152542372882,14.346666666666668,90.50847457627118,14.033333333333333,91.52542372881355,14.660000000000002C92.54237288135593,15.28666666666668,93.55932203389831,21.583333333333325,94.57627118644069,24.340000000000003C95.59322033898306,27.096666666666646,96.61016949152543,31.200000000000003,97.62711864406779,31.200000000000003C98.64406779661016,31.200000000000003,99.66101694915254,8.68,100.6779661016949,8.68C101.69491525423729,8.68,102.71186440677965,11.709999999999994,103.72881355932203,13.36C104.7457627118644,15.009999999999996,105.76271186440678,17.273333333333337,106.77966101694915,18.580000000000002C107.79661016949153,19.886666666666674,108.8135593220339,21.200000000000003,109.83050847457628,21.200000000000003C110.84745762711864,21.200000000000003,111.86440677966102,19.64,112.88135593220339,19.64C113.89830508474576,19.64,114.91525423728814,22.370000000000008,115.9322033898305,24.86C116.94915254237289,27.35,117.96610169491525,34.58,118.98305084745763,34.58C120,34.58,121.01694915254237,16.44,122.03389830508473,16.44C123.05084745762711,16.44,124.0677966101695,17.033333333333335,125.08474576271188,18.22C126.10169491525424,19.406666666666652,127.11864406779662,23.386666666666663,128.135593220339,23.919999999999998C129.15254237288136,24.453333333333333,130.16949152542372,24.186666666666664,131.1864406779661,24.72C132.20338983050846,25.253333333333337,133.22033898305085,29.1,134.23728813559322,29.1C135.25423728813558,29.1,136.27118644067798,28.759999999999998,137.28813559322035,28.759999999999998C138.3050847457627,28.759999999999998,139.3220338983051,35.72,140.33898305084747,35.72C141.35593220338984,35.72,142.3728813559322,21.7,143.38983050847457,21.7C144.40677966101694,21.7,145.42372881355934,24.22,146.4406779661017,25C147.45762711864407,25.779999999999994,148.47457627118644,26.38,149.4915254237288,26.38C150.50847457627117,26.38,151.52542372881356,25.58,152.54237288135593,25.58C153.5593220338983,25.58,154.5762711864407,27.729999999999997,155.59322033898306,28.479999999999997C156.61016949152543,29.22999999999999,157.6271186440678,29.013333333333332,158.64406779661016,30.08C159.66101694915253,31.146666666666675,160.67796610169492,34.89333333333334,161.6949152542373,35.2C162.71186440677965,35.50666666666667,163.72881355932205,35.66,164.74576271186442,35.66C165.76271186440678,35.66,166.77966101694915,20.48,167.79661016949152,20.48C168.81355932203388,20.48,169.83050847457628,22.82,170.84745762711864,24.32C171.864406779661,25.82,172.8813559322034,27.516666666666666,173.89830508474577,29.48C174.91525423728814,31.443333333333335,175.93220338983053,36.1,176.9491525423729,36.1C177.96610169491527,36.1,178.98305084745763,32.65,180,29.2L180,40C178.98305084745763,40,177.96610169491527,40,176.9491525423729,40C175.93220338983053,40,174.91525423728814,40,173.89830508474577,40C172.8813559322034,40,171.864406779661,40,170.84745762711864,40C169.83050847457628,40,168.81355932203388,40,167.79661016949152,40C166.77966101694915,40,165.76271186440678,40,164.74576271186442,40C163.72881355932205,40,162.71186440677965,40,161.6949152542373,40C160.67796610169492,40,159.66101694915253,40,158.64406779661016,40C157.6271186440678,40,156.61016949152543,40,155.59322033898306,40C154.5762711864407,40,153.5593220338983,40,152.54237288135593,40C151.52542372881356,40,150.50847457627117,40,149.4915254237288,40C148.47457627118644,40,147.45762711864407,40,146.4406779661017,40C145.42372881355934,40,144.40677966101694,40,143.38983050847457,40C142.3728813559322,40,141.35593220338984,40,140.33898305084747,40C139.3220338983051,40,138.3050847457627,40,137.28813559322035,40C136.27118644067798,40,135.25423728813558,40,134.23728813559322,40C133.22033898305085,40,132.20338983050846,40,131.1864406779661,40C130.16949152542372,40,129.15254237288136,40,128.135593220339,40C127.11864406779662,40,126.10169491525424,40,125.08474576271188,40C124.0677966101695,40,123.05084745762711,40,122.03389830508473,40C121.01694915254237,40,120,40,118.98305084745763,40C117.96610169491525,40,116.94915254237289,40,115.9322033898305,40C114.91525423728814,40,113.89830508474576,40,112.88135593220339,40C111.86440677966102,40,110.84745762711864,40,109.83050847457628,40C108.8135593220339,40,107.79661016949153,40,106.77966101694915,40C105.76271186440678,40,104.7457627118644,40,103.72881355932203,40C102.71186440677965,40,101.69491525423729,40,100.6779661016949,40C99.66101694915254,40,98.64406779661016,40,97.62711864406779,40C96.61016949152543,40,95.59322033898306,40,94.57627118644069,40C93.55932203389831,40,92.54237288135593,40,91.52542372881355,40C90.50847457627118,40,89.49152542372882,40,88.47457627118645,40C87.45762711864407,40,86.4406779661017,40,85.42372881355932,40C84.40677966101696,40,83.38983050847457,40,82.37288135593221,40C81.35593220338983,40,80.33898305084746,40,79.32203389830508,40C78.30508474576271,40,77.28813559322033,40,76.27118644067797,40C75.2542372881356,40,74.23728813559322,40,73.22033898305085,40C72.20338983050848,40,71.1864406779661,40,70.16949152542374,40C69.15254237288136,40,68.13559322033899,40,67.11864406779661,40C66.10169491525424,40,65.08474576271186,40,64.0677966101695,40C63.05084745762712,40,62.03389830508474,40,61.01694915254237,40C59.99999999999999,40,58.983050847457626,40,57.96610169491525,40C56.94915254237288,40,55.93220338983051,40,54.91525423728814,40C53.898305084745765,40,52.88135593220339,40,51.86440677966102,40C50.847457627118644,40,49.83050847457627,40,48.813559322033896,40C47.79661016949152,40,46.77966101694915,40,45.762711864406775,40C44.7457627118644,40,43.728813559322035,40,42.71186440677966,40C41.69491525423729,40,40.67796610169491,40,39.66101694915254,40C38.644067796610166,40,37.6271186440678,40,36.610169491525426,40C35.59322033898305,40,34.57627118644068,40,33.559322033898304,40C32.54237288135593,40,31.525423728813557,40,30.508474576271183,40C29.491525423728813,40,28.47457627118644,40,27.45762711864407,40C26.440677966101696,40,25.423728813559322,40,24.406779661016948,40C23.389830508474574,40,22.372881355932204,40,21.35593220338983,40C20.338983050847457,40,19.322033898305087,40,18.305084745762713,40C17.28813559322034,40,16.271186440677965,40,15.254237288135592,40C14.23728813559322,40,13.220338983050846,40,12.203389830508474,40C11.186440677966102,40,10.169491525423728,40,9.152542372881356,40C8.135593220338983,40,7.11864406779661,40,6.101694915254237,40C5.084745762711864,40,4.067796610169491,40,3.0508474576271185,40C2.0338983050847457,40,1.0169491525423728,40,0,40Z"></path><path class="line" stroke="black" fill="none" d="M0,19.16C1.0169491525423728,20.18,2.0338983050847457,21.200000000000003,3.0508474576271185,21.200000000000003C4.067796610169491,21.200000000000003,5.084745762711864,20.2,6.101694915254237,20.2C7.11864406779661,20.2,8.135593220338983,22.076666666666668,9.152542372881356,23.94C10.169491525423728,25.803333333333335,11.186440677966102,31.38,12.203389830508474,31.38C13.220338983050846,31.38,14.23728813559322,15.54,15.254237288135592,15.54C16.271186440677965,15.54,17.28813559322034,17.43,18.305084745762713,18.3C19.322033898305087,19.17,20.338983050847457,20.76,21.35593220338983,20.76C22.372881355932204,20.76,23.389830508474574,20.493333333333336,24.406779661016948,20.300000000000004C25.423728813559322,20.10666666666667,26.440677966101696,19.6,27.45762711864407,19.6C28.47457627118644,19.6,29.491525423728813,21.366666666666674,30.508474576271183,23.42C31.525423728813557,25.473333333333336,32.54237288135593,31.92,33.559322033898304,31.92C34.57627118644068,31.92,35.59322033898305,13.613333333333333,36.610169491525426,13.36C37.6271186440678,13.106666666666667,38.644067796610166,12.98,39.66101694915254,12.98C40.67796610169491,12.98,41.69491525423729,13.620000000000001,42.71186440677966,14.900000000000002C43.728813559322035,16.18,44.7457627118644,30.14,45.762711864406775,30.14C46.77966101694915,30.14,47.79661016949152,17.94,48.813559322033896,17.94C49.83050847457627,17.94,50.847457627118644,22.526666666666667,51.86440677966102,23.66C52.88135593220339,24.793333333333333,53.898305084745765,25.36,54.91525423728814,25.36C55.93220338983051,25.36,56.94915254237288,19.516666666666666,57.96610169491525,16.38C58.983050847457626,13.243333333333332,59.99999999999999,8.819999999999999,61.01694915254237,6.539999999999999C62.03389830508474,4.259999999999989,63.05084745762712,2.7,64.0677966101695,2.7C65.08474576271186,2.7,66.10169491525424,5.08,67.11864406779661,5.08C68.13559322033899,5.08,69.15254237288136,3.540000000000001,70.16949152542374,3.540000000000001C71.1864406779661,3.540000000000001,72.20338983050848,7.953333333333331,73.22033898305085,11.579999999999998C74.23728813559322,15.206666666666665,75.2542372881356,25.300000000000004,76.27118644067797,25.300000000000004C77.28813559322033,25.300000000000004,78.30508474576271,2.42,79.32203389830508,2.42C80.33898305084746,2.42,81.35593220338983,5.049999999999995,82.37288135593221,6.419999999999999C83.38983050847457,7.7899999999999965,84.40677966101696,9.423333333333336,85.42372881355932,10.64C86.4406779661017,11.856666666666671,87.45762711864407,13.093333333333325,88.47457627118645,13.719999999999999C89.49152542372882,14.346666666666668,90.50847457627118,14.033333333333333,91.52542372881355,14.660000000000002C92.54237288135593,15.28666666666668,93.55932203389831,21.583333333333325,94.57627118644069,24.340000000000003C95.59322033898306,27.096666666666646,96.61016949152543,31.200000000000003,97.62711864406779,31.200000000000003C98.64406779661016,31.200000000000003,99.66101694915254,8.68,100.6779661016949,8.68C101.69491525423729,8.68,102.71186440677965,11.709999999999994,103.72881355932203,13.36C104.7457627118644,15.009999999999996,105.76271186440678,17.273333333333337,106.77966101694915,18.580000000000002C107.79661016949153,19.886666666666674,108.8135593220339,21.200000000000003,109.83050847457628,21.200000000000003C110.84745762711864,21.200000000000003,111.86440677966102,19.64,112.88135593220339,19.64C113.89830508474576,19.64,114.91525423728814,22.370000000000008,115.9322033898305,24.86C116.94915254237289,27.35,117.96610169491525,34.58,118.98305084745763,34.58C120,34.58,121.01694915254237,16.44,122.03389830508473,16.44C123.05084745762711,16.44,124.0677966101695,17.033333333333335,125.08474576271188,18.22C126.10169491525424,19.406666666666652,127.11864406779662,23.386666666666663,128.135593220339,23.919999999999998C129.15254237288136,24.453333333333333,130.16949152542372,24.186666666666664,131.1864406779661,24.72C132.20338983050846,25.253333333333337,133.22033898305085,29.1,134.23728813559322,29.1C135.25423728813558,29.1,136.27118644067798,28.759999999999998,137.28813559322035,28.759999999999998C138.3050847457627,28.759999999999998,139.3220338983051,35.72,140.33898305084747,35.72C141.35593220338984,35.72,142.3728813559322,21.7,143.38983050847457,21.7C144.40677966101694,21.7,145.42372881355934,24.22,146.4406779661017,25C147.45762711864407,25.779999999999994,148.47457627118644,26.38,149.4915254237288,26.38C150.50847457627117,26.38,151.52542372881356,25.58,152.54237288135593,25.58C153.5593220338983,25.58,154.5762711864407,27.729999999999997,155.59322033898306,28.479999999999997C156.61016949152543,29.22999999999999,157.6271186440678,29.013333333333332,158.64406779661016,30.08C159.66101694915253,31.146666666666675,160.67796610169492,34.89333333333334,161.6949152542373,35.2C162.71186440677965,35.50666666666667,163.72881355932205,35.66,164.74576271186442,35.66C165.76271186440678,35.66,166.77966101694915,20.48,167.79661016949152,20.48C168.81355932203388,20.48,169.83050847457628,22.82,170.84745762711864,24.32C171.864406779661,25.82,172.8813559322034,27.516666666666666,173.89830508474577,29.48C174.91525423728814,31.443333333333335,175.93220338983053,36.1,176.9491525423729,36.1C177.96610169491527,36.1,178.98305084745763,32.65,180,29.2"></path><path class="axis-ceiling" stroke-width="1" stroke="black" fill="none" d="M175,0L180,0"></path><text class="axis-ceiling-label" font-family="sans-serif" text-anchor="end" font-size="10px" x="170" y="2.5">2000</text></g></svg>