<svg xmlns="http://www.w3.org/2000/svg" viewBox="0 0 180 60"><g transform="translate(0,20)"><path class="area" fill="rgba(0, 0, 0, 0.2)" d="M0,11.085714285714285C1.0169491525423728,11,2.0338983050847457,10.914285714285715,3.0508474576271185,10.742857142857144C4.067796610169491,10.571428571428573,5.084745762711864,10.20952380952381,6.101694915254237,10.057142857142857C7.11864406779661,9.904761904761903,8.135593220338983,9.828571428571426,9.152542372881356,9.828571428571426C10.169491525423728,9.828571428571426,11.186440677966102,9.999999999999998,12.203389830508474,10.057142857142857C13.220338983050846,10.114285714285716,14.23728813559322,10.171428571428574,15.254237288135592,10.171428571428574C16.271186440677965,10.171428571428574,17.28813559322034,10.171428571428574,18.305084745762713,10.171428571428574C19.322033898305087,10.171428571428574,20.338983050847457,9.40952380952381,21.35593220338983,9.142857142857142C22.372881355932204,8.876190476190475,23.389830508474574,8.838095238095239,24.406779661016948,8.571428571428573C25.423728813559322,8.304761904761907,26.440677966101696,7.980952380952384,27.45762711864407,7.5428571428571445C28.47457627118644,7.104761904761906,29.491525423728813,6.01904761904762,30.508474576271183,5.942857142857143C31.525423728813557,5.866666666666666,32.54237288135593,5.904761904761904,33.559322033898304,5.828571428571427C34.57627118644068,5.752380952380951,35.59322033898305,5.371428571428569,36.610169491525426,5.371428571428569C37.6271186440678,5.371428571428569,38.644067796610166,5.485714285714285,39.66101694915254,5.485714285714285C40.67796610169491,5.485714285714285,41.69491525423729,4.780952380952382,42.71186440677966,4.571428571428573C43.728813559322035,4.361904761904764,44.7457627118644,4.323809523809526,45.762711864406775,4.22857142857143C46.77966101694915,4.133333333333335,47.79661016949152,3.999999999999999,48.813559322033896,3.999999999999999C49.83050847457627,3.999999999999999,50.847457627118644,3.999999999999999,51.86440677966102,3.999999999999999C52.88135593220339,3.999999999999999,53.898305084745765,3.885714285714288,54.91525423728814,3.885714285714288C55.93220338983051,3.885714285714288,56.94915254237288,3.999999999999999,57.96610169491525,3.999999999999999C58.983050847457626,3.999999999999999,59.99999999999999,3.314285714285714,61.01694915254237,3.314285714285714C62.03389830508474,3.314285714285714,63.05084745762712,4.266666666666665,64.0677966101695,4.685714285714284C65.08474576271186,5.104761904761902,66.10169491525424,5.447619047619047,67.11864406779661,5.828571428571427C68.13559322033899,6.20952380952381,69.15254237288136,6.438095238095235,70.16949152542374,6.971428571428571C71.1864406779661,7.504761904761904,72.20338983050848,8.952380952380956,73.22033898305085,9.02857142857143C74.23728813559322,9.104761904761904,75.2542372881356,9.142857142857142,76.27118644067797,9.142857142857142C77.28813559322033,9.142857142857142,78.30508474576271,8.799999999999999,79.32203389830508,8.799999999999999C80.33898305084746,8.799999999999999,81.35593220338983,9.485714285714286,82.37288135593221,9.714285714285715C83.38983050847457,9.942857142857143,84.40677966101696,10.171428571428574,85.42372881355932,10.171428571428574C86.4406779661017,10.171428571428574,87.45762711864407,9.828571428571431,88.47457627118645,9.714285714285715C89.49152542372882,9.600000000000001,90.50847457627118,9.638095238095234,91.52542372881355,9.485714285714284C92.54237288135593,9.333333333333332,93.55932203389831,8.799999999999999,94.57627118644069,8.799999999999999C95.59322033898306,8.799999999999999,96.61016949152543,10.114285714285716,97.62711864406779,10.514285714285716C98.64406779661016,10.914285714285718,99.66101694915254,11.047619047619051,100.6779661016949,11.200000000000001C101.69491525423729,11.352380952380951,102.71186440677965,11.314285714285713,103.72881355932203,11.428571428571427C104.7457627118644,11.542857142857141,105.76271186440678,11.58095238095238,106.77966101694915,11.885714285714286C107.79661016949153,12.190476190476193,108.8135593220339,13.428571428571429,109.83050847457628,14.171428571428573C110.84745762711864,14.914285714285713,111.86440677966102,15.714285714285714,112.88135593220339,16.34285714285714C113.89830508474576,16.97142857142857,114.91525423728814,17.942857142857143,115.9322033898305,17.942857142857143C116.94915254237289,17.942857142857143,117.96610169491525,15.80952380952381,118.98305084745763,15.428571428571427C120,15.047619047619047,121.01694915254237,15.16190476190476,122.03389830508473,14.857142857142858C123.05084745762711,14.552380952380952,124.0677966101695,13.980952380952381,125.08474576271188,13.599999999999998C126.10169491525424,13.219047619047618,127.11864406779662,12.99047619047619,128.135593220339,12.571428571428571C129.15254237288136,12.152380952380954,130.16949152542372,11.466666666666665,131.1864406779661,11.085714285714285C132.20338983050846,10.704761904761902,133.22033898305085,10.57142857142857,134.23728813559322,10.285714285714285C135.25423728813558,10,136.27118644067798,9.371428571428574,137.28813559322035,9.371428571428574C138.3050847457627,9.371428571428574,139.3220338983051,10.780952380952378,140.33898305084747,11.428571428571427C141.35593220338984,12.07619047619047,142.3728813559322,12.761904761904763,143.38983050847457,13.257142857142856C144.40677966101694,13.752380952380955,145.42372881355934,13.790476190476184,146.4406779661017,14.399999999999999C147.45762711864407,15.009523809523808,148.47457627118644,16.285714285714285,149.4915254237288,16.91428571428571C150.50847457627117,17.542857142857144,151.52542372881356,17.77142857142857,152.54237288135593,18.17142857142857C153.5593220338983,18.571428571428573,154.5762711864407,18.857142857142858,155.59322033898306,19.314285714285717C156.61016949152543,19.771428571428572,157.6271186440678,20.51428571428572,158.64406779661016,20.914285714285718C159.66101694915253,21.31428571428572,160.67796610169492,21.46666666666667,161.6949152542373,21.714285714285715C162.71186440677965,21.961904761904762,163.72881355932205,22.133333333333333,164.74576271186442,22.400000000000002C165.76271186440678,22.666666666666668,166.77966101694915,23.23809523809524,167.79661016949152,23.314285714285713C168.81355932203388,23.390476190476186,169.83050847457628,23.35238095238095,170.84745762711864,23.428571428571423C171.864406779661,23.504761904761896,172.8813559322034,24.114285714285714,173.89830508474577,24.114285714285714C174.91525423728814,24.114285714285714,175.93220338983053,24.114285714285714,176.9491525423729,24.114285714285714C177.96610169491527,24.114285714285714,178.98305084745763,25.142857142857146,180,26.171428571428574L180,40C178.98305084745763,40,177.96610169491527,40,176.9491525423729,40C175.93220338983053,40,174.91525423728814,40,173.89830508474577,40C172.8813559322034,40,171.864406779661,40,170.84745762711864,40C169.83050847457628,40,168.81355932203388,40,167.79661016949152,40C166.77966101694915,40,165.76271186440678,40,164.74576271186442,40C163.72881355932205,40,162.71186440677965,40,161.6949152542373,40C160.67796610169492,40,159.66101694915253,40,158.64406779661016,40C157.6271186440678,40,156.61016949152543,40,155.59322033898306,40C154.5762711864407,40,153.5593220338983,40,152.54237288135593,40C151.52542372881356,40,150.50847457627117,40,149.4915254237288,40C148.47457627118644,40,147.45762711864407,40,146.4406779661017,40C145.42372881355934,40,144.40677966101694,40,143.38983050847457,40C142.3728813559322,40,141.35593220338984,40,140.33898305084747,40C139.3220338983051,40,138.3050847457627,40,137.28813559322035,40C136.27118644067798,40,135.25423728813558,40,134.23728813559322,40C133.22033898305085,40,132.20338983050846,40,131.1864406779661,40C130.16949152542372,40,129.15254237288136,40,128.135593220339,40C127.11864406779662,40,126.10169491525424,40,125.08474576271188,40C124.0677966101695,40,123.05084745762711,40,122.03389830508473,40C121.01694915254237,40,120,40,118.98305084745763,40C117.96610169491525,40,116.94915254237289,40,115.9322033898305,40C114.91525423728814,40,113.89830508474576,40,112.88135593220339,40C111.86440677966102,40,110.84745762711864,40,109.83050847457628,40C108.8135593220339,40,107.79661016949153,40,106.77966101694915,40C105.76271186440678,40,104.7457627118644,40,103.72881355932203,40C102.71186440677965,40,101.69491525423729,40,100.6779661016949,40C99.66101694915254,40,98.64406779661016,40,97.62711864406779,40C96.61016949152543,40,95.59322033898306,40,94.57627118644069,40C93.55932203389831,40,92.54237288135593,40,91.52542372881355,40C90.50847457627118,40,89.49152542372882,40,88.47457627118645,40C87.45762711864407,40,86.4406779661017,40,85.42372881355932,40C84.40677966101696,40,83.38983050847457,40,82.37288135593221,40C81.35593220338983,40,80.33898305084746,40,79.32203389830508,40C78.30508474576271,40,77.28813559322033,40,76.27118644067797,40C75.2542372881356,40,74.23728813559322,40,73.22033898305085,40C72.20338983050848,40,71.1864406779661,40,70.16949152542374,40C69.15254237288136,40,68.13559322033899,40,67.11864406779661,40C66.10169491525424,40,65.08474576271186,40,64.0677966101695,40C63.05084745762712,40,62.03389830508474,40,61.01694915254237,40C59.99999999999999,40,58.983050847457626,40,57.96610169491525,40C56.94915254237288,40,55.93220338983051,40,54.91525423728814,40C53.898305084745765,40,52.88135593220339,40,51.86440677966102,40C50.847457627118644,40,49.83050847457627,40,48.813559322033896,40C47.79661016949152,40,46.77966101694915,40,45.762711864406775,40C44.7457627118644,40,43.728813559322035,40,42.71186440677966,40C41.69491525423729,40,40.67796610169491,40,39.66101694915254,40C38.644067796610166,40,37.6271186440678,40,36.610169491525426,40C35.59322033898305,40,34.57627118644068,40,33.559322033898304,40C32.54237288135593,40,31.525423728813557,40,30.508474576271183,40C29.491525423728813,40,28.47457627118644,40,27.45762711864407,40C26.440677966101696,40,25.423728813559322,40,24.406779661016948,40C23.389830508474574,40,22.372881355932204,40,21.35593220338983,40C20.338983050847457,40,19.322033898305087,40,18.305084745762713,40C17.28813559322034,40,16.271186440677965,40,15.254237288135592,40C14.23728813559322,40,13.220338983050846,40,12.203389830508474,40C11.186440677966102,40,10.169491525423728,40,9.152542372881356,40C8.135593220338983,40,7.11864406779661,40,6.101694915254237,40C5.084745762711864,40,4.067796610169491,40,3.0508474576271185,40C2.0338983050847457,40,1.0169491525423728,40,0,40Z"></path><path class="line" stroke="black" fill="none" d="M0,11.085714285714285C1.0169491525423728,11,2.0338983050847457,10.914285714285715,3.0508474576271185,10.742857142857144C4.067796610169491,10.571428571428573,5.084745762711864,10.20952380952381,6.101694915254237,10.057142857142857C7.11864406779661,9.904761904761903,8.135593220338983,9.828571428571426,9.152542372881356,9.828571428571426C10.169491525423728,9.828571428571426,11.186440677966102,9.999999999999998,12.203389830508474,10.057142857142857C13.220338983050846,10.114285714285716,14.23728813559322,10.171428571428574,15.254237288135592,10.171428571428574C16.271186440677965,10.171428571428574,17.28813559322034,10.171428571428574,18.305084745762713,10.171428571428574C19.322033898305087,10.171428571428574,20.338983050847457,9.40952380952381,21.35593220338983,9.142857142857142C22.372881355932204,8.876190476190475,23.389830508474574,8.838095238095239,24.406779661016948,8.571428571428573C25.423728813559322,8.304761904761907,26.440677966101696,7.980952380952384,27.45762711864407,7.5428571428571445C28.47457627118644,7.104761904761906,29.491525423728813,6.01904761904762,30.508474576271183,5.942857142857143C31.525423728813557,5.866666666666666,32.54237288135593,5.904761904761904,33.559322033898304,5.828571428571427C34.57627118644068,5.752380952380951,35.59322033898305,5.371428571428569,36.610169491525426,5.371428571428569C37.6271186440678,5.371428571428569,38.644067796610166,5.485714285714285,39.66101694915254,5.485714285714285C40.67796610169491,5.485714285714285,41.69491525423729,4.780952380952382,42.71186440677966,4.571428571428573C43.728813559322035,4.361904761904764,44.7457627118644,4.323809523809526,45.762711864406775,4.22857142857143C46.77966101694915,4.133333333333335,47.79661016949152,3.999999999999999,48.813559322033896,3.999999999999999C49.83050847457627,3.999999999999999,50.847457627118644,3.999999999999999,51.86440677966102,3.999999999999999C52.88135593220339,3.999999999999999,53.898305084745765,3.885714285714288,54.91525423728814,3.885714285714288C55.93220338983051,3.885714285714288,56.94915254237288,3.999999999999999,57.96610169491525,3.999999999999999C58.983050847457626,3.999999999999999,59.99999999999999,3.314285714285714,61.01694915254237,3.314285714285714C62.03389830508474,3.314285714285714,63.05084745762712,4.266666666666665,64.0677966101695,4.685714285714284C65.08474576271186,5.104761904761902,66.10169491525424,5.447619047619047,67.11864406779661,5.828571428571427C68.13559322033899,6.20952380952381,69.15254237288136,6.438095238095235,70.16949152542374,6.971428571428571C71.1864406779661,7.504761904761904,72.20338983050848,8.952380952380956,73.22033898305085,9.02857142857143C74.23728813559322,9.104761904761904,75.2542372881356,9.142857142857142,76.27118644067797,9.142857142857142C77.28813559322033,9.142857142857142,78.30508474576271,8.799999999999999,79.32203389830508,8.799999999999999C80.33898305084746,8.799999999999999,81.35593220338983,9.485714285714286,82.37288135593221,9.714285714285715C83.38983050847457,9.942857142857143,84.40677966101696,10.171428571428574,85.42372881355932,10.171428571428574C86.4406779661017,10.171428571428574,87.45762711864407,9.828571428571431,88.47457627118645,9.714285714285715C89.49152542372882,9.600000000000001,90.50847457627118,9.638095238095234,91.52542372881355,9.485714285714284C92.54237288135593,9.333333333333332,93.55932203389831,8.799999999999999,94.57627118644069,8.799999999999999C95.59322033898306,8.799999999999999,96.61016949152543,10.114285714285716,97.62711864406779,10.514285714285716C98.64406779661016,10.914285714285718,99.66101694915254,11.047619047619051,100.6779661016949,11.200000000000001C101.69491525423729,11.352380952380951,102.71186440677965,11.314285714285713,103.72881355932203,11.428571428571427C104.7457627118644,11.542857142857141,105.76271186440678,11.58095238095238,106.77966101694915,11.885714285714286C107.79661016949153,12.190476190476193,108.8135593220339,13.428571428571429,109.83050847457628,14.171428571428573C110.84745762711864,14.914285714285713,111.86440677966102,15.714285714285714,112.88135593220339,16.34285714285714C113.89830508474576,16.97142857142857,114.91525423728814,17.942857142857143,115.9322033898305,17.942857142857143C116.94915254237289,17.942857142857143,117.96610169491525,15.80952380952381,118.98305084745763,15.428571428571427C120,15.047619047619047,121.01694915254237,15.16190476190476,122.03389830508473,14.857142857142858C123.05084745762711,14.552380952380952,124.0677966101695,13.980952380952381,125.08474576271188,13.599999999999998C126.10169491525424,13.219047619047618,127.11864406779662,12.99047619047619,128.135593220339,12.571428571428571C129.15254237288136,12.152380952380954,130.16949152542372,11.466666666666665,131.1864406779661,11.085714285714285C132.20338983050846,10.704761904761902,133.22033898305085,10.57142857142857,134.23728813559322,10.285714285714285C135.25423728813558,10,136.27118644067798,9.371428571428574,137.28813559322035,9.371428571428574C138.3050847457627,9.371428571428574,139.3220338983051,10.780952380952378,140.33898305084747,11.428571428571427C141.35593220338984,12.07619047619047,142.3728813559322,12.761904761904763,143.38983050847457,13.257142857142856C144.40677966101694,13.752380952380955,145.42372881355934,13.790476190476184,146.4406779661017,14.399999999999999C147.45762711864407,15.009523809523808,148.47457627118644,16.285714285714285,149.4915254237288,16.91428571428571C150.50847457627117,17.542857142857144,151.52542372881356,17.77142857142857,152.54237288135593,18.17142857142857C153.5593220338983,18.571428571428573,154.5762711864407,18.857142857142858,155.59322033898306,19.314285714285717C156.61016949152543,19.771428571428572,157.6271186440678,20.51428571428572,158.64406779661016,20.914285714285718C159.66101694915253,21.31428571428572,160.67796610169492,21.46666666666667,161.6949152542373,21.714285714285715C162.71186440677965,21.961904761904762,163.72881355932205,22.133333333333333,164.74576271186442,22.400000000000002C165.76271186440678,22.666666666666668,166.77966101694915,23.23809523809524,167.79661016949152,23.314285714285713C168.81355932203388,23.390476190476186,169.83050847457628,23.35238095238095,170.84745762711864,23.428571428571423C171.864406779661,23.504761904761896,172.8813559322034,24.114285714285714,173.89830508474577,24.114285714285714C174.91525423728814,24.114285714285714,175.93220338983053,24.114285714285714,176.9491525423729,24.114285714285714C177.96610169491527,24.114285714285714,178.98305084745763,25.142857142857146,180,26.171428571428574"></path><path class="axis-ceiling" stroke-width="1" stroke="black" fill="none" d="M175,0L180,0"></path><text class="axis-ceiling-label" font-family="sans-serif" text-anchor="end" font-size="10px" x="170" y="2.5">350</text></g></svg>