<svg xmlns="http://www.w3.org/2000/svg" viewBox="0 0 180 60"><g transform="translate(0,20)"><path class="area" fill="rgba(0, 0, 0, 0.2)" d="M0,24.68C1.0169491525423728,26.02,2.0338983050847457,27.36,3.0508474576271185,27.36C4.067796610169491,27.36,5.084745762711864,25.28,6.101694915254237,25.28C7.11864406779661,25.28,8.135593220338983,26.666666666666664,9.152542372881356,27.759999999999998C10.169491525423728,28.85333333333333,11.186440677966102,31.840000000000003,12.203389830508474,31.840000000000003C13.220338983050846,31.840000000000003,14.23728813559322,25.973333333333336,15.254237288135592,25.28C16.271186440677965,24.586666666666666,17.28813559322034,24.24,18.305084745762713,24.24C19.322033898305087,24.24,20.338983050847457,24.32,21.35593220338983,24.32C22.372881355932204,24.32,23.389830508474574,21.6,24.406779661016948,21.6C25.423728813559322,21.6,26.440677966101696,23.680000000000003,27.45762711864407,23.680000000000003C28.47457627118644,23.680000000000003,29.491525423728813,22.880000000000003,30.508474576271183,22.880000000000003C31.525423728813557,22.880000000000003,32.54237288135593,29.6,33.559322033898304,29.6C34.57627118644068,29.6,35.59322033898305,25.94666666666667,36.610169491525426,24.36C37.6271186440678,22.773333333333333,38.644067796610166,20.08,39.66101694915254,20.08C40.67796610169491,20.08,41.69491525423729,21.240000000000002,42.71186440677966,21.240000000000002C43.728813559322035,21.240000000000002,44.7457627118644,20.36,45.762711864406775,20.36C46.77966101694915,20.36,47.79661016949152,23.793333333333333,48.813559322033896,25.2C49.83050847457627,26.606666666666666,50.847457627118644,27.486666666666665,51.86440677966102,28.799999999999997C52.88135593220339,30.11333333333333,53.898305084745765,33.08,54.91525423728814,33.08C55.93220338983051,33.08,56.94915254237288,28.266666666666666,57.96610169491525,25.72C58.983050847457626,23.173333333333332,59.99999999999999,17.799999999999997,61.01694915254237,17.799999999999997C62.03389830508474,17.799999999999997,63.05084745762712,21.799999999999997,64.0677966101695,21.799999999999997C65.08474576271186,21.799999999999997,66.10169491525424,16.400000000000002,67.11864406779661,16.400000000000002C68.13559322033899,16.400000000000002,69.15254237288136,17.493333333333336,70.16949152542374,19.68C71.1864406779661,21.866666666666653,72.20338983050848,30.2,73.22033898305085,30.2C74.23728813559322,30.2,75.2542372881356,26.173333333333332,76.27118644067797,25.72C77.28813559322033,25.266666666666666,78.30508474576271,25.493333333333332,79.32203389830508,25.04C80.33898305084746,24.586666666666662,81.35593220338983,18.56,82.37288135593221,18.56C83.38983050847457,18.56,84.40677966101696,27.080000000000002,85.42372881355932,27.080000000000002C86.4406779661017,27.080000000000002,87.45762711864407,26.973333333333336,88.47457627118645,26.76C89.49152542372882,26.54666666666667,90.50847457627118,20.96,91.52542372881355,20.96C92.54237288135593,20.96,93.55932203389831,22.379999999999992,94.57627118644069,23.159999999999997C95.59322033898306,23.93999999999999,96.61016949152543,25.64,97.62711864406779,25.64C98.64406779661016,25.64,99.66101694915254,22.56,100.6779661016949,21.76C101.69491525423729,20.96,102.71186440677965,21.15333333333334,103.72881355932203,20.560000000000002C104.7457627118644,19.96666666666667,105.76271186440678,18.2,106.77966101694915,18.2C107.79661016949153,18.2,108.8135593220339,21.44,109.83050847457628,21.44C110.84745762711864,21.44,111.86440677966102,18.279999999999998,112.88135593220339,18.279999999999998C113.89830508474576,18.279999999999998,114.91525423728814,21.30666666666667,115.9322033898305,23.08C116.94915254237289,24.853333333333335,117.96610169491525,28.919999999999998,118.98305084745763,28.919999999999998C120,28.919999999999998,121.01694915254237,24.433333333333326,122.03389830508473,22.64C123.05084745762711,20.84666666666665,124.0677966101695,18.986666666666668,125.08474576271188,18.159999999999997C126.10169491525424,17.333333333333332,127.11864406779662,17.226666666666667,128.135593220339,16.92C129.15254237288136,16.613333333333337,130.16949152542372,16.32,131.1864406779661,16.32C132.20338983050846,16.32,133.22033898305085,17.959999999999997,134.23728813559322,19.04C135.25423728813558,20.12,136.27118644067798,21.640000000000004,137.28813559322035,22.800000000000004C138.3050847457627,23.960000000000004,139.3220338983051,26,140.33898305084747,26C141.35593220338984,26,142.3728813559322,21.453333333333326,143.38983050847457,20.52C144.40677966101694,19.586666666666666,145.42372881355934,20.05333333333333,146.4406779661017,19.119999999999997C147.45762711864407,18.18666666666667,148.47457627118644,14.693333333333332,149.4915254237288,14.32C150.50847457627117,13.946666666666665,151.52542372881356,13.759999999999998,152.54237288135593,13.759999999999998C153.5593220338983,13.759999999999998,154.5762711864407,15.99333333333332,155.59322033898306,17.599999999999998C156.61016949152543,19.20666666666666,157.6271186440678,22.840000000000003,158.64406779661016,23.4C159.66101694915253,23.959999999999997,160.67796610169492,23.68,161.6949152542373,24.24C162.71186440677965,24.799999999999997,163.72881355932205,33.48,164.74576271186442,33.48C165.76271186440678,33.48,166.77966101694915,21.173333333333314,167.79661016949152,19.52C168.81355932203388,17.866666666666667,169.83050847457628,18.12666666666667,170.84745762711864,17.040000000000003C171.864406779661,15.953333333333337,172.8813559322034,12.999999999999998,173.89830508474577,12.999999999999998C174.91525423728814,12.999999999999998,175.93220338983053,17.53333333333333,176.9491525423729,18.96C177.96610169491527,20.386666666666656,178.98305084745763,20.973333333333326,180,21.559999999999995L180,40C178.98305084745763,40,177.96610169491527,40,176.9491525423729,40C175.93220338983053,40,174.91525423728814,40,173.89830508474577,40C172.8813559322034,40,171.864406779661,40,170.84745762711864,40C169.83050847457628,40,168.81355932203388,40,167.79661016949152,40C166.77966101694915,40,165.76271186440678,40,164.74576271186442,40C163.72881355932205,40,162.71186440677965,40,161.6949152542373,40C160.67796610169492,40,159.66101694915253,40,158.64406779661016,40C157.6271186440678,40,156.61016949152543,40,155.59322033898306,40C154.5762711864407,40,153.5593220338983,40,152.54237288135593,40C151.52542372881356,40,150.50847457627117,40,149.4915254237288,40C148.47457627118644,40,147.45762711864407,40,146.4406779661017,40C145.42372881355934,40,144.40677966101694,40,143.38983050847457,40C142.3728813559322,40,141.35593220338984,40,140.33898305084747,40C139.3220338983051,40,138.3050847457627,40,137.28813559322035,40C136.27118644067798,40,135.25423728813558,40,134.23728813559322,40C133.22033898305085,40,132.20338983050846,40,131.1864406779661,40C130.16949152542372,40,129.15254237288136,40,128.135593220339,40C127.11864406779662,40,126.10169491525424,40,125.08474576271188,40C124.0677966101695,40,123.05084745762711,40,122.03389830508473,40C121.01694915254237,40,120,40,118.98305084745763,40C117.96610169491525,40,116.94915254237289,40,115.9322033898305,40C114.91525423728814,40,113.89830508474576,40,112.88135593220339,40C111.86440677966102,40,110.84745762711864,40,109.83050847457628,40C108.8135593220339,40,107.79661016949153,40,106.77966101694915,40C105.76271186440678,40,104.7457627118644,40,103.72881355932203,40C102.71186440677965,40,101.69491525423729,40,100.6779661016949,40C99.66101694915254,40,98.64406779661016,40,97.62711864406779,40C96.61016949152543,40,95.59322033898306,40,94.57627118644069,40C93.55932203389831,40,92.54237288135593,40,91.52542372881355,40C90.50847457627118,40,89.49152542372882,40,88.47457627118645,40C87.45762711864407,40,86.4406779661017,40,85.42372881355932,40C84.40677966101696,40,83.38983050847457,40,82.37288135593221,40C81.35593220338983,40,80.33898305084746,40,79.32203389830508,40C78.30508474576271,40,77.28813559322033,40,76.27118644067797,40C75.2542372881356,40,74.23728813559322,40,73.22033898305085,40C72.20338983050848,40,71.1864406779661,40,70.16949152542374,40C69.15254237288136,40,68.13559322033899,40,67.11864406779661,40C66.10169491525424,40,65.08474576271186,40,64.0677966101695,40C63.05084745762712,40,62.03389830508474,40,61.01694915254237,40C59.99999999999999,40,58.983050847457626,40,57.96610169491525,40C56.94915254237288,40,55.93220338983051,40,54.91525423728814,40C53.898305084745765,40,52.88135593220339,40,51.86440677966102,40C50.847457627118644,40,49.83050847457627,40,48.813559322033896,40C47.79661016949152,40,46.77966101694915,40,45.762711864406775,40C44.7457627118644,40,43.728813559322035,40,42.71186440677966,40C41.69491525423729,40,40.67796610169491,40,39.66101694915254,40C38.644067796610166,40,37.6271186440678,40,36.610169491525426,40C35.59322033898305,40,34.57627118644068,40,33.559322033898304,40C32.54237288135593,40,31.525423728813557,40,30.508474576271183,40C29.491525423728813,40,28.47457627118644,40,27.45762711864407,40C26.440677966101696,40,25.423728813559322,40,24.406779661016948,40C23.389830508474574,40,22.372881355932204,40,21.35593220338983,40C20.338983050847457,40,19.322033898305087,40,18.305084745762713,40C17.28813559322034,40,16.271186440677965,40,15.254237288135592,40C14.23728813559322,40,13.220338983050846,40,12.203389830508474,40C11.186440677966102,40,10.169491525423728,40,9.152542372881356,40C8.135593220338983,40,7.11864406779661,40,6.101694915254237,40C5.084745762711864,40,4.067796610169491,40,3.0508474576271185,40C2.0338983050847457,40,1.0169491525423728,40,0,40Z"></path><path class="line" stroke="black" fill="none" d="M0,24.68C1.0169491525423728,26.02,2.0338983050847457,27.36,3.0508474576271185,27.36C4.067796610169491,27.36,5.084745762711864,25.28,6.101694915254237,25.28C7.11864406779661,25.28,8.135593220338983,26.666666666666664,9.152542372881356,27.759999999999998C10.169491525423728,28.85333333333333,11.186440677966102,31.840000000000003,12.203389830508474,31.840000000000003C13.220338983050846,31.840000000000003,14.23728813559322,25.973333333333336,15.254237288135592,25.28C16.271186440677965,24.586666666666666,17.28813559322034,24.24,18.305084745762713,24.24C19.322033898305087,24.24,20.338983050847457,24.32,21.35593220338983,24.32C22.372881355932204,24.32,23.389830508474574,21.6,24.406779661016948,21.6C25.423728813559322,21.6,26.440677966101696,23.680000000000003,27.45762711864407,23.680000000000003C28.47457627118644,23.680000000000003,29.491525423728813,22.880000000000003,30.508474576271183,22.880000000000003C31.525423728813557,22.880000000000003,32.54237288135593,29.6,33.559322033898304,29.6C34.57627118644068,29.6,35.59322033898305,25.94666666666667,36.610169491525426,24.36C37.6271186440678,22.773333333333333,38.644067796610166,20.08,39.66101694915254,20.08C40.67796610169491,20.08,41.69491525423729,21.240000000000002,42.71186440677966,21.240000000000002C43.728813559322035,21.240000000000002,44.7457627118644,20.36,45.762711864406775,20.36C46.77966101694915,20.36,47.79661016949152,23.793333333333333,48.813559322033896,25.2C49.83050847457627,26.606666666666666,50.847457627118644,27.486666666666665,51.86440677966102,28.799999999999997C52.88135593220339,30.11333333333333,53.898305084745765,33.08,54.91525423728814,33.08C55.93220338983051,33.08,56.94915254237288,28.266666666666666,57.96610169491525,25.72C58.983050847457626,23.173333333333332,59.99999999999999,17.799999999999997,61.01694915254237,17.799999999999997C62.03389830508474,17.799999999999997,63.05084745762712,21.799999999999997,64.0677966101695,21.799999999999997C65.08474576271186,21.799999999999997,66.10169491525424,16.400000000000002,67.11864406779661,16.400000000000002C68.13559322033899,16.400000000000002,69.15254237288136,17.493333333333336,70.16949152542374,19.68C71.1864406779661,21.866666666666653,72.20338983050848,30.2,73.22033898305085,30.2C74.23728813559322,30.2,75.2542372881356,26.173333333333332,76.27118644067797,25.72C77.28813559322033,25.266666666666666,78.30508474576271,25.493333333333332,79.32203389830508,25.04C80.33898305084746,24.586666666666662,81.35593220338983,18.56,82.37288135593221,18.56C83.38983050847457,18.56,84.40677966101696,27.080000000000002,85.42372881355932,27.080000000000002C86.4406779661017,27.080000000000002,87.45762711864407,26.973333333333336,88.47457627118645,26.76C89.49152542372882,26.54666666666667,90.50847457627118,20.96,91.52542372881355,20.96C92.54237288135593,20.96,93.55932203389831,22.379999999999992,94.57627118644069,23.159999999999997C95.59322033898306,23.93999999999999,96.61016949152543,25.64,97.62711864406779,25.64C98.64406779661016,25.64,99.66101694915254,22.56,100.6779661016949,21.76C101.69491525423729,20.96,102.71186440677965,21.15333333333334,103.72881355932203,20.560000000000002C104.7457627118644,19.96666666666667,105.76271186440678,18.2,106.77966101694915,18.2C107.79661016949153,18.2,108.8135593220339,21.44,109.83050847457628,21.44C110.84745762711864,21.44,111.86440677966102,18.279999999999998,112.88135593220339,18.279999999999998C113.89830508474576,18.279999999999998,114.91525423728814,21.30666666666667,115.9322033898305,23.08C116.94915254237289,24.853333333333335,117.96610169491525,28.919999999999998,118.98305084745763,28.919999999999998C120,28.919999999999998,121.01694915254237,24.433333333333326,122.03389830508473,22.64C123.05084745762711,20.84666666666665,124.0677966101695,18.986666666666668,125.08474576271188,18.159999999999997C126.10169491525424,17.333333333333332,127.11864406779662,17.226666666666667,128.135593220339,16.92C129.15254237288136,16.613333333333337,130.16949152542372,16.32,131.1864406779661,16.32C132.20338983050846,16.32,133.22033898305085,17.959999999999997,134.23728813559322,19.04C135.25423728813558,20.12,136.27118644067798,21.640000000000004,137.28813559322035,22.800000000000004C138.3050847457627,23.960000000000004,139.3220338983051,26,140.33898305084747,26C141.35593220338984,26,142.3728813559322,21.453333333333326,143.38983050847457,20.52C144.40677966101694,19.586666666666666,145.42372881355934,20.05333333333333,146.4406779661017,19.119999999999997C147.45762711864407,18.18666666666667,148.47457627118644,14.693333333333332,149.4915254237288,14.32C150.50847457627117,13.946666666666665,151.52542372881356,13.759999999999998,152.54237288135593,13.759999999999998C153.5593220338983,13.759999999999998,154.5762711864407,15.99333333333332,155.59322033898306,17.599999999999998C156.61016949152543,19.20666666666666,157.6271186440678,22.840000000000003,158.64406779661016,23.4C159.66101694915253,23.959999999999997,160.67796610169492,23.68,161.6949152542373,24.24C162.71186440677965,24.799999999999997,163.72881355932205,33.48,164.74576271186442,33.48C165.76271186440678,33.48,166.77966101694915,21.173333333333314,167.79661016949152,19.52C168.81355932203388,17.866666666666667,169.83050847457628,18.12666666666667,170.84745762711864,17.040000000000003C171.864406779661,15.953333333333337,172.8813559322034,12.999999999999998,173.89830508474577,12.999999999999998C174.91525423728814,12.999999999999998,175.93220338983053,17.53333333333333,176.9491525423729,18.96C177.96610169491527,20.386666666666656,178.98305084745763,20.973333333333326,180,21.559999999999995"></path><path class="axis-ceiling" stroke-width="1" stroke="black" fill="none" d="M175,0L180,0"></path><text class="axis-ceiling-label" font-family="sans-serif" text-anchor="end" font-size="10px" x="170" y="2.5">1000</text></g></svg>