<svg xmlns="http://www.w3.org/2000/svg" viewBox="0 0 180 60"><g transform="translate(0,20)"><path class="area" fill="rgba(0, 0, 0, 0.2)" d="M0,26.996000000000002C1.0344827586206897,28.256,2.068965517241379,29.516,3.103448275862069,29.516C4.137931034482759,29.516,5.172413793103448,24.792,6.206896551724138,24.792C7.241379310344827,24.792,8.275862068965516,24.868,9.310344827586206,25.019999999999996C10.344827586206897,25.171999999999993,11.379310344827585,26.54,12.413793103448276,26.54C13.448275862068966,26.54,14.482758620689655,22.968000000000004,15.517241379310345,22.968000000000004C16.551724137931036,22.968000000000004,17.586206896551722,26.624,18.620689655172413,26.624C19.655172413793103,26.624,20.689655172413794,26.430666666666667,21.724137931034484,26.044C22.758620689655174,25.657333333333334,23.79310344827586,25.003999999999998,24.82758620689655,24.224C25.862068965517242,23.444,26.896551724137932,22.413333333333334,27.931034482758623,21.364C28.965517241379313,20.314666666666668,30,17.928,31.03448275862069,17.928C32.06896551724138,17.928,33.103448275862064,21.136,34.137931034482754,21.136C35.172413793103445,21.136,36.206896551724135,19.548000000000002,37.241379310344826,19.548000000000002C38.275862068965516,19.548000000000002,39.310344827586206,21.22,40.3448275862069,21.22C41.37931034482759,21.22,42.41379310344828,19.636,43.44827586206897,19.636C44.48275862068966,19.636,45.51724137931035,21.036,46.55172413793104,21.036C47.58620689655173,21.036,48.62068965517241,13.584,49.6551724137931,13.584C50.689655172413794,13.584,51.72413793103448,16.56933333333334,52.75862068965517,18.252000000000002C53.79310344827586,19.934666666666672,54.827586206896555,23.680000000000003,55.862068965517246,23.680000000000003C56.896551724137936,23.680000000000003,57.93103448275862,23.308,58.96551724137931,23.308C60,23.308,61.03448275862069,26.872,62.06896551724138,26.872C63.10344827586207,26.872,64.13793103448276,21.064,65.17241379310344,21.064C66.20689655172413,21.064,67.24137931034483,21.68,68.27586206896551,21.68C69.3103448275862,21.68,70.34482758620689,17.024,71.37931034482759,17.024C72.41379310344827,17.024,73.44827586206897,19.401333333333334,74.48275862068965,20.252C75.51724137931033,21.102666666666664,76.55172413793103,21.61,77.58620689655172,22.128C78.62068965517241,22.646,79.6551724137931,22.538666666666668,80.6896551724138,23.360000000000003C81.72413793103448,24.181333333333335,82.75862068965517,28.759999999999998,83.79310344827586,28.759999999999998C84.82758620689656,28.759999999999998,85.86206896551724,23.631999999999998,86.89655172413794,23.631999999999998C87.93103448275862,23.631999999999998,88.96551724137932,25.252,90,25.252C91.0344827586207,25.252,92.06896551724138,23.768,93.10344827586208,23.768C94.13793103448276,23.768,95.17241379310344,23.93466666666667,96.20689655172413,24.268C97.24137931034483,24.601333333333336,98.27586206896551,26.968,99.3103448275862,26.968C100.3448275862069,26.968,101.37931034482759,25.903999999999996,102.41379310344828,25.903999999999996C103.44827586206897,25.903999999999996,104.48275862068965,27.18,105.51724137931033,27.18C106.55172413793103,27.18,107.58620689655172,26.872666666666667,108.62068965517241,26.46C109.65517241379311,26.047333333333334,110.6896551724138,25.116666666666664,111.72413793103449,24.703999999999997C112.75862068965517,24.291333333333334,113.79310344827587,23.984,114.82758620689656,23.984C115.86206896551724,23.984,116.89655172413794,25.084000000000007,117.93103448275862,25.316000000000003C118.96551724137932,25.548,120,25.432000000000002,121.0344827586207,25.663999999999998C122.06896551724138,25.895999999999994,123.10344827586208,26.490666666666662,124.13793103448276,27.275999999999996C125.17241379310344,28.06133333333333,126.20689655172414,30.375999999999998,127.24137931034483,30.375999999999998C128.27586206896552,30.375999999999998,129.3103448275862,28.915999999999997,130.3448275862069,28.26C131.3793103448276,27.604,132.41379310344828,27.056000000000008,133.44827586206898,26.44C134.48275862068965,25.824000000000005,135.51724137931035,24.564,136.55172413793102,24.564C137.58620689655172,24.564,138.6206896551724,26.040666666666663,139.6551724137931,26.624C140.6896551724138,27.207333333333327,141.72413793103448,28.064,142.75862068965517,28.064C143.79310344827587,28.064,144.82758620689654,27.576,145.86206896551724,27.576C146.89655172413794,27.576,147.9310344827586,30.704,148.9655172413793,30.704C150,30.704,151.0344827586207,29.78400000000001,152.0689655172414,29.16C153.10344827586206,28.536,154.13793103448276,26.959999999999997,155.17241379310343,26.959999999999997C156.20689655172413,26.959999999999997,157.24137931034483,27.130666666666663,158.27586206896552,27.272C159.31034482758622,27.41333333333333,160.3448275862069,27.450666666666667,161.3793103448276,27.808C162.41379310344828,28.165333333333333,163.44827586206895,29.41466666666667,164.48275862068965,29.508000000000003C165.51724137931035,29.601333333333336,166.55172413793102,29.55466666666667,167.58620689655172,29.648000000000003C168.6206896551724,29.741333333333337,169.6551724137931,32.02333333333333,170.6896551724138,32.984C171.7241379310345,33.94466666666666,172.75862068965517,35.412,173.79310344827587,35.412C174.82758620689657,35.412,175.86206896551724,32.5,176.89655172413794,31.756C177.93103448275863,31.012,178.9655172413793,30.826,180,30.64L180,40C178.9655172413793,40,177.93103448275863,40,176.89655172413794,40C175.86206896551724,40,174.82758620689657,40,173.79310344827587,40C172.75862068965517,40,171.7241379310345,40,170.6896551724138,40C169.6551724137931,40,168.6206896551724,40,167.58620689655172,40C166.55172413793102,40,165.51724137931035,40,164.48275862068965,40C163.44827586206895,40,162.41379310344828,40,161.3793103448276,40C160.3448275862069,40,159.31034482758622,40,158.27586206896552,40C157.24137931034483,40,156.20689655172413,40,155.17241379310343,40C154.13793103448276,40,153.10344827586206,40,152.0689655172414,40C151.0344827586207,40,150,40,148.9655172413793,40C147.9310344827586,40,146.89655172413794,40,145.86206896551724,40C144.82758620689654,40,143.79310344827587,40,142.75862068965517,40C141.72413793103448,40,140.6896551724138,40,139.6551724137931,40C138.6206896551724,40,137.58620689655172,40,136.55172413793102,40C135.51724137931035,40,134.48275862068965,40,133.44827586206898,40C132.41379310344828,40,131.3793103448276,40,130.3448275862069,40C129.3103448275862,40,128.27586206896552,40,127.24137931034483,40C126.20689655172414,40,125.17241379310344,40,124.13793103448276,40C123.10344827586208,40,122.06896551724138,40,121.0344827586207,40C120,40,118.96551724137932,40,117.93103448275862,40C116.89655172413794,40,115.86206896551724,40,114.82758620689656,40C113.79310344827587,40,112.75862068965517,40,111.72413793103449,40C110.6896551724138,40,109.65517241379311,40,108.62068965517241,40C107.58620689655172,40,106.55172413793103,40,105.51724137931033,40C104.48275862068965,40,103.44827586206897,40,102.41379310344828,40C101.37931034482759,40,100.3448275862069,40,99.3103448275862,40C98.27586206896551,40,97.24137931034483,40,96.20689655172413,40C95.17241379310344,40,94.13793103448276,40,93.10344827586208,40C92.06896551724138,40,91.0344827586207,40,90,40C88.96551724137932,40,87.93103448275862,40,86.89655172413794,40C85.86206896551724,40,84.82758620689656,40,83.79310344827586,40C82.75862068965517,40,81.72413793103448,40,80.6896551724138,40C79.6551724137931,40,78.62068965517241,40,77.58620689655172,40C76.55172413793103,40,75.51724137931033,40,74.48275862068965,40C73.44827586206897,40,72.41379310344827,40,71.37931034482759,40C70.34482758620689,40,69.3103448275862,40,68.27586206896551,40C67.24137931034483,40,66.20689655172413,40,65.17241379310344,40C64.13793103448276,40,63.10344827586207,40,62.06896551724138,40C61.03448275862069,40,60,40,58.96551724137931,40C57.93103448275862,40,56.896551724137936,40,55.862068965517246,40C54.827586206896555,40,53.79310344827586,40,52.75862068965517,40C51.72413793103448,40,50.689655172413794,40,49.6551724137931,40C48.62068965517241,40,47.58620689655173,40,46.55172413793104,40C45.51724137931035,40,44.48275862068966,40,43.44827586206897,40C42.41379310344828,40,41.37931034482759,40,40.3448275862069,40C39.310344827586206,40,38.275862068965516,40,37.241379310344826,40C36.206896551724135,40,35.172413793103445,40,34.137931034482754,40C33.103448275862064,40,32.06896551724138,40,31.03448275862069,40C30,40,28.965517241379313,40,27.931034482758623,40C26.896551724137932,40,25.862068965517242,40,24.82758620689655,40C23.79310344827586,40,22.758620689655174,40,21.724137931034484,40C20.689655172413794,40,19.655172413793103,40,18.620689655172413,40C17.586206896551722,40,16.551724137931036,40,15.517241379310345,40C14.482758620689655,40,13.448275862068966,40,12.413793103448276,40C11.379310344827585,40,10.344827586206897,40,9.310344827586206,40C8.275862068965516,40,7.241379310344827,40,6.206896551724138,40C5.172413793103448,40,4.137931034482759,40,3.103448275862069,40C2.068965517241379,40,1.0344827586206897,40,0,40Z"></path><path class="line" stroke="black" fill="none" d="M0,26.996000000000002C1.0344827586206897,28.256,2.068965517241379,29.516,3.103448275862069,29.516C4.137931034482759,29.516,5.172413793103448,24.792,6.206896551724138,24.792C7.241379310344827,24.792,8.275862068965516,24.868,9.310344827586206,25.019999999999996C10.344827586206897,25.171999999999993,11.379310344827585,26.54,12.413793103448276,26.54C13.448275862068966,26.54,14.482758620689655,22.968000000000004,15.517241379310345,22.968000000000004C16.551724137931036,22.968000000000004,17.586206896551722,26.624,18.620689655172413,26.624C19.655172413793103,26.624,20.689655172413794,26.430666666666667,21.724137931034484,26.044C22.758620689655174,25.657333333333334,23.79310344827586,25.003999999999998,24.82758620689655,24.224C25.862068965517242,23.444,26.896551724137932,22.413333333333334,27.931034482758623,21.364C28.965517241379313,20.314666666666668,30,17.928,31.03448275862069,17.928C32.06896551724138,17.928,33.103448275862064,21.136,34.137931034482754,21.136C35.172413793103445,21.136,36.206896551724135,19.548000000000002,37.241379310344826,19.548000000000002C38.275862068965516,19.548000000000002,39.310344827586206,21.22,40.3448275862069,21.22C41.37931034482759,21.22,42.41379310344828,19.636,43.44827586206897,19.636C44.48275862068966,19.636,45.51724137931035,21.036,46.55172413793104,21.036C47.58620689655173,21.036,48.62068965517241,13.584,49.6551724137931,13.584C50.689655172413794,13.584,51.72413793103448,16.56933333333334,52.75862068965517,18.252000000000002C53.79310344827586,19.934666666666672,54.827586206896555,23.680000000000003,55.862068965517246,23.680000000000003C56.896551724137936,23.680000000000003,57.93103448275862,23.308,58.96551724137931,23.308C60,23.308,61.03448275862069,26.872,62.06896551724138,26.872C63.10344827586207,26.872,64.13793103448276,21.064,65.17241379310344,21.064C66.20689655172413,21.064,67.24137931034483,21.68,68.27586206896551,21.68C69.3103448275862,21.68,70.34482758620689,17.024,71.37931034482759,17.024C72.41379310344827,17.024,73.44827586206897,19.401333333333334,74.48275862068965,20.252C75.51724137931033,21.102666666666664,76.55172413793103,21.61,77.58620689655172,22.128C78.62068965517241,22.646,79.6551724137931,22.538666666666668,80.6896551724138,23.360000000000003C81.72413793103448,24.181333333333335,82.75862068965517,28.759999999999998,83.79310344827586,28.759999999999998C84.82758620689656,28.759999999999998,85.86206896551724,23.631999999999998,86.89655172413794,23.631999999999998C87.93103448275862,23.631999999999998,88.96551724137932,25.252,90,25.252C91.0344827586207,25.252,92.06896551724138,23.768,93.10344827586208,23.768C94.13793103448276,23.768,95.17241379310344,23.93466666666667,96.20689655172413,24.268C97.24137931034483,24.601333333333336,98.27586206896551,26.968,99.3103448275862,26.968C100.3448275862069,26.968,101.37931034482759,25.903999999999996,102.41379310344828,25.903999999999996C103.44827586206897,25.903999999999996,104.48275862068965,27.18,105.51724137931033,27.18C106.55172413793103,27.18,107.58620689655172,26.872666666666667,108.62068965517241,26.46C109.65517241379311,26.047333333333334,110.6896551724138,25.116666666666664,111.72413793103449,24.703999999999997C112.75862068965517,24.291333333333334,113.79310344827587,23.984,114.82758620689656,23.984C115.86206896551724,23.984,116.89655172413794,25.084000000000007,117.93103448275862,25.316000000000003C118.96551724137932,25.548,120,25.432000000000002,121.0344827586207,25.663999999999998C122.06896551724138,25.895999999999994,123.10344827586208,26.490666666666662,124.13793103448276,27.275999999999996C125.17241379310344,28.06133333333333,126.20689655172414,30.375999999999998,127.24137931034483,30.375999999999998C128.27586206896552,30.375999999999998,129.3103448275862,28.915999999999997,130.3448275862069,28.26C131.3793103448276,27.604,132.41379310344828,27.056000000000008,133.44827586206898,26.44C134.48275862068965,25.824000000000005,135.51724137931035,24.564,136.55172413793102,24.564C137.58620689655172,24.564,138.6206896551724,26.040666666666663,139.6551724137931,26.624C140.6896551724138,27.207333333333327,141.72413793103448,28.064,142.75862068965517,28.064C143.79310344827587,28.064,144.82758620689654,27.576,145.86206896551724,27.576C146.89655172413794,27.576,147.9310344827586,30.704,148.9655172413793,30.704C150,30.704,151.0344827586207,29.78400000000001,152.0689655172414,29.16C153.10344827586206,28.536,154.13793103448276,26.959999999999997,155.17241379310343,26.959999999999997C156.20689655172413,26.959999999999997,157.24137931034483,27.130666666666663,158.27586206896552,27.272C159.31034482758622,27.41333333333333,160.3448275862069,27.450666666666667,161.3793103448276,27.808C162.41379310344828,28.165333333333333,163.44827586206895,29.41466666666667,164.48275862068965,29.508000000000003C165.51724137931035,29.601333333333336,166.55172413793102,29.55466666666667,167.58620689655172,29.648000000000003C168.6206896551724,29.741333333333337,169.6551724137931,32.02333333333333,170.6896551724138,32.984C171.7241379310345,33.94466666666666,172.75862068965517,35.412,173.79310344827587,35.412C174.82758620689657,35.412,175.86206896551724,32.5,176.89655172413794,31.756C177.93103448275863,31.012,178.9655172413793,30.826,180,30.64"></path><path class="axis-ceiling" stroke-width="1" stroke="black" fill="none" d="M175,0L180,0"></path><text class="axis-ceiling-label" font-family="sans-serif" text-anchor="end" font-size="10px" x="170" y="2.5">10000</text></g></svg>