<svg xmlns="http://www.w3.org/2000/svg" viewBox="0 0 180 60"><g transform="translate(0,20)"><path class="area" fill="rgba(0, 0, 0, 0.2)" d="M0,32.96C1.0344827586206897,33.28,2.068965517241379,33.6,3.103448275862069,33.6C4.137931034482759,33.6,5.172413793103448,33.120000000000005,6.206896551724138,33.120000000000005C7.241379310344827,33.120000000000005,8.275862068965516,34.56,9.310344827586206,34.56C10.344827586206897,34.56,11.379310344827585,34.08,12.413793103448276,34.08C13.448275862068966,34.08,14.482758620689655,35.84,15.517241379310345,36.160000000000004C16.551724137931036,36.480000000000004,17.586206896551722,36.64,18.620689655172413,36.64C19.655172413793103,36.64,20.689655172413794,33.6,21.724137931034484,33.6C22.758620689655174,33.6,23.79310344827586,35.2,24.82758620689655,35.2C25.862068965517242,35.2,26.896551724137932,30.72,27.931034482758623,30.72C28.965517241379313,30.72,30,33.28,31.03448275862069,33.28C32.06896551724138,33.28,33.103448275862064,30.240000000000002,34.137931034482754,30.240000000000002C35.172413793103445,30.240000000000002,36.206896551724135,32.18666666666667,37.241379310344826,32.96C38.275862068965516,33.733333333333334,39.310344827586206,34.88,40.3448275862069,34.88C41.37931034482759,34.88,42.41379310344828,33.2,43.44827586206897,32.32C44.48275862068966,31.44,45.51724137931035,30.293333333333337,46.55172413793104,29.6C47.58620689655173,28.90666666666667,48.62068965517241,28.159999999999997,49.6551724137931,28.159999999999997C50.689655172413794,28.159999999999997,51.72413793103448,30.4,52.75862068965517,30.4C53.79310344827586,30.4,54.827586206896555,25.92,55.862068965517246,25.92C56.896551724137936,25.92,57.93103448275862,30.4,58.96551724137931,30.4C60,30.4,61.03448275862069,27.893333333333334,62.06896551724138,27.68C63.10344827586207,27.466666666666665,64.13793103448276,27.36,65.17241379310344,27.36C66.20689655172413,27.36,67.24137931034483,29.439999999999998,68.27586206896551,29.439999999999998C69.3103448275862,29.439999999999998,70.34482758620689,23.040000000000003,71.37931034482759,23.040000000000003C72.41379310344827,23.040000000000003,73.44827586206897,25.6,74.48275862068965,25.6C75.51724137931033,25.6,76.55172413793103,22.560000000000002,77.58620689655172,22.560000000000002C78.62068965517241,22.560000000000002,79.6551724137931,25.86666666666666,80.6896551724138,27.199999999999996C81.72413793103448,28.533333333333324,82.75862068965517,29.54666666666667,83.79310344827586,30.560000000000002C84.82758620689656,31.573333333333338,85.86206896551724,33.28,86.89655172413794,33.28C87.93103448275862,33.28,88.96551724137932,29.279999999999998,90,28.32C91.0344827586207,27.359999999999996,92.06896551724138,27.78666666666667,93.10344827586208,26.879999999999995C94.13793103448276,25.97333333333333,95.17241379310344,23.519999999999996,96.20689655172413,22.880000000000003C97.24137931034483,22.240000000000002,98.27586206896551,21.92,99.3103448275862,21.92C100.3448275862069,21.92,101.37931034482759,27.253333333333327,102.41379310344828,28C103.44827586206897,28.746666666666666,104.48275862068965,29.119999999999997,105.51724137931033,29.119999999999997C106.55172413793103,29.119999999999997,107.58620689655172,28.37333333333333,108.62068965517241,28.159999999999997C109.65517241379311,27.946666666666662,110.6896551724138,28.05333333333333,111.72413793103449,27.839999999999996C112.75862068965517,27.626666666666665,113.79310344827587,26.879999999999995,114.82758620689656,26.879999999999995C115.86206896551724,26.879999999999995,116.89655172413794,27.893333333333334,117.93103448275862,28C118.96551724137932,28.106666666666666,120,28.159999999999997,121.0344827586207,28.159999999999997C122.06896551724138,28.159999999999997,123.10344827586208,27.519999999999996,124.13793103448276,27.519999999999996C125.17241379310344,27.519999999999996,126.20689655172414,31.520000000000003,127.24137931034483,31.520000000000003C128.27586206896552,31.520000000000003,129.3103448275862,28.266666666666662,130.3448275862069,27.199999999999996C131.3793103448276,26.13333333333332,132.41379310344828,26.506666666666664,133.44827586206898,25.12C134.48275862068965,23.733333333333363,135.51724137931035,15.84,136.55172413793102,15.84C137.58620689655172,15.84,138.6206896551724,21.28,139.6551724137931,21.28C140.6896551724138,21.28,141.72413793103448,20.64,142.75862068965517,20.64C143.79310344827587,20.64,144.82758620689654,21.173333333333336,145.86206896551724,22.240000000000002C146.89655172413794,23.30666666666667,147.9310344827586,27.199999999999996,148.9655172413793,27.199999999999996C150,27.199999999999996,151.0344827586207,21.386666666666677,152.0689655172414,20.96C153.10344827586206,20.533333333333335,154.13793103448276,20.746666666666666,155.17241379310343,20.32C156.20689655172413,19.893333333333324,157.24137931034483,16.533333333333335,158.27586206896552,16.32C159.31034482758622,16.106666666666666,160.3448275862069,16,161.3793103448276,16C162.41379310344828,16,163.44827586206895,18.69333333333333,164.48275862068965,19.52C165.51724137931035,20.346666666666668,166.55172413793102,20.74666666666667,167.58620689655172,20.96C168.6206896551724,21.173333333333336,169.6551724137931,21.28,170.6896551724138,21.28C171.7241379310345,21.28,172.75862068965517,15.68,173.79310344827587,15.68C174.82758620689657,15.68,175.86206896551724,17.28,176.89655172413794,17.28C177.93103448275863,17.28,178.9655172413793,9.919999999999998,180,2.559999999999998L180,40C178.9655172413793,40,177.93103448275863,40,176.89655172413794,40C175.86206896551724,40,174.82758620689657,40,173.79310344827587,40C172.75862068965517,40,171.7241379310345,40,170.6896551724138,40C169.6551724137931,40,168.6206896551724,40,167.58620689655172,40C166.55172413793102,40,165.51724137931035,40,164.48275862068965,40C163.44827586206895,40,162.41379310344828,40,161.3793103448276,40C160.3448275862069,40,159.31034482758622,40,158.27586206896552,40C157.24137931034483,40,156.20689655172413,40,155.17241379310343,40C154.13793103448276,40,153.10344827586206,40,152.0689655172414,40C151.0344827586207,40,150,40,148.9655172413793,40C147.9310344827586,40,146.89655172413794,40,145.86206896551724,40C144.82758620689654,40,143.79310344827587,40,142.75862068965517,40C141.72413793103448,40,140.6896551724138,40,139.6551724137931,40C138.6206896551724,40,137.58620689655172,40,136.55172413793102,40C135.51724137931035,40,134.48275862068965,40,133.44827586206898,40C132.41379310344828,40,131.3793103448276,40,130.3448275862069,40C129.3103448275862,40,128.27586206896552,40,127.24137931034483,40C126.20689655172414,40,125.17241379310344,40,124.13793103448276,40C123.10344827586208,40,122.06896551724138,40,121.0344827586207,40C120,40,118.96551724137932,40,117.93103448275862,40C116.89655172413794,40,115.86206896551724,40,114.82758620689656,40C113.79310344827587,40,112.75862068965517,40,111.72413793103449,40C110.6896551724138,40,109.65517241379311,40,108.62068965517241,40C107.58620689655172,40,106.55172413793103,40,105.51724137931033,40C104.48275862068965,40,103.44827586206897,40,102.41379310344828,40C101.37931034482759,40,100.3448275862069,40,99.3103448275862,40C98.27586206896551,40,97.24137931034483,40,96.20689655172413,40C95.17241379310344,40,94.13793103448276,40,93.10344827586208,40C92.06896551724138,40,91.0344827586207,40,90,40C88.96551724137932,40,87.93103448275862,40,86.89655172413794,40C85.86206896551724,40,84.82758620689656,40,83.79310344827586,40C82.75862068965517,40,81.72413793103448,40,80.6896551724138,40C79.6551724137931,40,78.62068965517241,40,77.58620689655172,40C76.55172413793103,40,75.51724137931033,40,74.48275862068965,40C73.44827586206897,40,72.41379310344827,40,71.37931034482759,40C70.34482758620689,40,69.3103448275862,40,68.27586206896551,40C67.24137931034483,40,66.20689655172413,40,65.17241379310344,40C64.13793103448276,40,63.10344827586207,40,62.06896551724138,40C61.03448275862069,40,60,40,58.96551724137931,40C57.93103448275862,40,56.896551724137936,40,55.862068965517246,40C54.827586206896555,40,53.79310344827586,40,52.75862068965517,40C51.72413793103448,40,50.689655172413794,40,49.6551724137931,40C48.62068965517241,40,47.58620689655173,40,46.55172413793104,40C45.51724137931035,40,44.48275862068966,40,43.44827586206897,40C42.41379310344828,40,41.37931034482759,40,40.3448275862069,40C39.310344827586206,40,38.275862068965516,40,37.241379310344826,40C36.206896551724135,40,35.172413793103445,40,34.137931034482754,40C33.103448275862064,40,32.06896551724138,40,31.03448275862069,40C30,40,28.965517241379313,40,27.931034482758623,40C26.896551724137932,40,25.862068965517242,40,24.82758620689655,40C23.79310344827586,40,22.758620689655174,40,21.724137931034484,40C20.689655172413794,40,19.655172413793103,40,18.620689655172413,40C17.586206896551722,40,16.551724137931036,40,15.517241379310345,40C14.482758620689655,40,13.448275862068966,40,12.413793103448276,40C11.379310344827585,40,10.344827586206897,40,9.310344827586206,40C8.275862068965516,40,7.241379310344827,40,6.206896551724138,40C5.172413793103448,40,4.137931034482759,40,3.103448275862069,40C2.068965517241379,40,1.0344827586206897,40,0,40Z"></path><path class="line" stroke="black" fill="none" d="M0,32.96C1.0344827586206897,33.28,2.068965517241379,33.6,3.103448275862069,33.6C4.137931034482759,33.6,5.172413793103448,33.120000000000005,6.206896551724138,33.120000000000005C7.241379310344827,33.120000000000005,8.275862068965516,34.56,9.310344827586206,34.56C10.344827586206897,34.56,11.379310344827585,34.08,12.413793103448276,34.08C13.448275862068966,34.08,14.482758620689655,35.84,15.517241379310345,36.160000000000004C16.551724137931036,36.480000000000004,17.586206896551722,36.64,18.620689655172413,36.64C19.655172413793103,36.64,20.689655172413794,33.6,21.724137931034484,33.6C22.758620689655174,33.6,23.79310344827586,35.2,24.82758620689655,35.2C25.862068965517242,35.2,26.896551724137932,30.72,27.931034482758623,30.72C28.965517241379313,30.72,30,33.28,31.03448275862069,33.28C32.06896551724138,33.28,33.103448275862064,30.240000000000002,34.137931034482754,30.240000000000002C35.172413793103445,30.240000000000002,36.206896551724135,32.18666666666667,37.241379310344826,32.96C38.275862068965516,33.733333333333334,39.310344827586206,34.88,40.3448275862069,34.88C41.37931034482759,34.88,42.41379310344828,33.2,43.44827586206897,32.32C44.48275862068966,31.44,45.51724137931035,30.293333333333337,46.55172413793104,29.6C47.58620689655173,28.90666666666667,48.62068965517241,28.159999999999997,49.6551724137931,28.159999999999997C50.689655172413794,28.159999999999997,51.72413793103448,30.4,52.75862068965517,30.4C53.79310344827586,30.4,54.827586206896555,25.92,55.862068965517246,25.92C56.896551724137936,25.92,57.93103448275862,30.4,58.96551724137931,30.4C60,30.4,61.03448275862069,27.893333333333334,62.06896551724138,27.68C63.10344827586207,27.466666666666665,64.13793103448276,27.36,65.17241379310344,27.36C66.20689655172413,27.36,67.24137931034483,29.439999999999998,68.27586206896551,29.439999999999998C69.3103448275862,29.439999999999998,70.34482758620689,23.040000000000003,71.37931034482759,23.040000000000003C72.41379310344827,23.040000000000003,73.44827586206897,25.6,74.48275862068965,25.6C75.51724137931033,25.6,76.55172413793103,22.560000000000002,77.58620689655172,22.560000000000002C78.62068965517241,22.560000000000002,79.6551724137931,25.86666666666666,80.6896551724138,27.199999999999996C81.72413793103448,28.533333333333324,82.75862068965517,29.54666666666667,83.79310344827586,30.560000000000002C84.82758620689656,31.573333333333338,85.86206896551724,33.28,86.89655172413794,33.28C87.93103448275862,33.28,88.96551724137932,29.279999999999998,90,28.32C91.0344827586207,27.359999999999996,92.06896551724138,27.78666666666667,93.10344827586208,26.879999999999995C94.13793103448276,25.97333333333333,95.17241379310344,23.519999999999996,96.20689655172413,22.880000000000003C97.24137931034483,22.240000000000002,98.27586206896551,21.92,99.3103448275862,21.92C100.3448275862069,21.92,101.37931034482759,27.253333333333327,102.41379310344828,28C103.44827586206897,28.746666666666666,104.48275862068965,29.119999999999997,105.51724137931033,29.119999999999997C106.55172413793103,29.119999999999997,107.58620689655172,28.37333333333333,108.62068965517241,28.159999999999997C109.65517241379311,27.946666666666662,110.6896551724138,28.05333333333333,111.72413793103449,27.839999999999996C112.75862068965517,27.626666666666665,113.79310344827587,26.879999999999995,114.82758620689656,26.879999999999995C115.86206896551724,26.879999999999995,116.89655172413794,27.893333333333334,117.93103448275862,28C118.96551724137932,28.106666666666666,120,28.159999999999997,121.0344827586207,28.159999999999997C122.06896551724138,28.159999999999997,123.10344827586208,27.519999999999996,124.13793103448276,27.519999999999996C125.17241379310344,27.519999999999996,126.20689655172414,31.520000000000003,127.24137931034483,31.520000000000003C128.27586206896552,31.520000000000003,129.3103448275862,28.266666666666662,130.3448275862069,27.199999999999996C131.3793103448276,26.13333333333332,132.41379310344828,26.506666666666664,133.44827586206898,25.12C134.48275862068965,23.733333333333363,135.51724137931035,15.84,136.55172413793102,15.84C137.58620689655172,15.84,138.6206896551724,21.28,139.6551724137931,21.28C140.6896551724138,21.28,141.72413793103448,20.64,142.75862068965517,20.64C143.79310344827587,20.64,144.82758620689654,21.173333333333336,145.86206896551724,22.240000000000002C146.89655172413794,23.30666666666667,147.9310344827586,27.199999999999996,148.9655172413793,27.199999999999996C150,27.199999999999996,151.0344827586207,21.386666666666677,152.0689655172414,20.96C153.10344827586206,20.533333333333335,154.13793103448276,20.746666666666666,155.17241379310343,20.32C156.20689655172413,19.893333333333324,157.24137931034483,16.533333333333335,158.27586206896552,16.32C159.31034482758622,16.106666666666666,160.3448275862069,16,161.3793103448276,16C162.41379310344828,16,163.44827586206895,18.69333333333333,164.48275862068965,19.52C165.51724137931035,20.346666666666668,166.55172413793102,20.74666666666667,167.58620689655172,20.96C168.6206896551724,21.173333333333336,169.6551724137931,21.28,170.6896551724138,21.28C171.7241379310345,21.28,172.75862068965517,15.68,173.79310344827587,15.68C174.82758620689657,15.68,175.86206896551724,17.28,176.89655172413794,17.28C177.93103448275863,17.28,178.9655172413793,9.919999999999998,180,2.559999999999998"></path><path class="axis-ceiling" stroke-width="1" stroke="black" fill="none" d="M175,0L180,0"></path><text class="axis-ceiling-label" font-family="sans-serif" text-anchor="end" font-size="10px" x="170" y="2.5">250</text></g></svg>