<svg xmlns="http://www.w3.org/2000/svg" viewBox="0 0 180 60"><g transform="translate(0,20)"><path class="area" fill="rgba(0, 0, 0, 0.2)" d="M0,12.026666666666666C1.0169491525423728,9.573333333333334,2.0338983050847457,7.120000000000002,3.0508474576271185,7.120000000000002C4.067796610169491,7.120000000000002,5.084745762711864,13.786666666666667,6.101694915254237,13.786666666666667C7.11864406779661,13.786666666666667,8.135593220338983,10.96,9.152542372881356,9.226666666666667C10.169491525423728,7.493333333333333,11.186440677966102,3.3866666666666667,12.203389830508474,3.3866666666666667C13.220338983050846,3.3866666666666667,14.23728813559322,5.946666666666669,15.254237288135592,7.120000000000002C16.271186440677965,8.293333333333337,17.28813559322034,9.653333333333336,18.305084745762713,10.42666666666667C19.322033898305087,11.200000000000003,20.338983050847457,11.386666666666668,21.35593220338983,11.760000000000002C22.372881355932204,12.133333333333335,23.389830508474574,12.062222222222223,24.406779661016948,12.666666666666666C25.423728813559322,13.271111111111109,26.440677966101696,23.946666666666665,27.45762711864407,23.946666666666665C28.47457627118644,23.946666666666665,29.491525423728813,15.946666666666658,30.508474576271183,14.399999999999999C31.525423728813557,12.853333333333333,32.54237288135593,13.000000000000002,33.559322033898304,12.080000000000002C34.57627118644068,11.160000000000002,35.59322033898305,8.879999999999999,36.610169491525426,8.879999999999999C37.6271186440678,8.879999999999999,38.644067796610166,12.462222222222218,39.66101694915254,12.799999999999997C40.67796610169491,13.137777777777776,41.69491525423729,13.306666666666667,42.71186440677966,13.306666666666667C43.728813559322035,13.306666666666667,44.7457627118644,13.146666666666667,45.762711864406775,13.146666666666667C46.77966101694915,13.146666666666667,47.79661016949152,23.866666666666667,48.813559322033896,23.866666666666667C49.83050847457627,23.866666666666667,50.847457627118644,21.12,51.86440677966102,19.52C52.88135593220339,17.919999999999998,53.898305084745765,14.266666666666667,54.91525423728814,14.266666666666667C55.93220338983051,14.266666666666667,56.94915254237288,14.542222222222222,57.96610169491525,15.093333333333332C58.983050847457626,15.644444444444442,59.99999999999999,16.368888888888893,61.01694915254237,17.706666666666667C62.03389830508474,19.044444444444448,63.05084745762712,23.120000000000005,64.0677966101695,23.120000000000005C65.08474576271186,23.120000000000005,66.10169491525424,21.573333333333334,67.11864406779661,21.573333333333334C68.13559322033899,21.573333333333334,69.15254237288136,28.72,70.16949152542374,28.72C71.1864406779661,28.72,72.20338983050848,26.06222222222222,73.22033898305085,25.12C74.23728813559322,24.17777777777778,75.2542372881356,23.066666666666666,76.27118644067797,23.066666666666666C77.28813559322033,23.066666666666666,78.30508474576271,23.226666666666667,79.32203389830508,23.546666666666667C80.33898305084746,23.866666666666667,81.35593220338983,27.013333333333332,82.37288135593221,27.119999999999997C83.38983050847457,27.226666666666663,84.40677966101696,27.279999999999998,85.42372881355932,27.279999999999998C86.4406779661017,27.279999999999998,87.45762711864407,27.173333333333332,88.47457627118645,27.173333333333332C89.49152542372882,27.173333333333332,90.50847457627118,32.88,91.52542372881355,32.88C92.54237288135593,32.88,93.55932203389831,29.942222222222224,94.57627118644069,29.093333333333334C95.59322033898306,28.244444444444454,96.61016949152543,28.115555555555556,97.62711864406779,27.786666666666665C98.64406779661016,27.457777777777775,99.66101694915254,27.119999999999997,100.6779661016949,27.119999999999997C101.69491525423729,27.119999999999997,102.71186440677965,27.208888888888886,103.72881355932203,27.386666666666667C104.7457627118644,27.564444444444444,105.76271186440678,29.013333333333335,106.77966101694915,29.013333333333335C107.79661016949153,29.013333333333335,108.8135593220339,28.613333333333337,109.83050847457628,28.613333333333337C110.84745762711864,28.613333333333337,111.86440677966102,33.333333333333336,112.88135593220339,33.333333333333336C113.89830508474576,33.333333333333336,114.91525423728814,31.76888888888889,115.9322033898305,30.64C116.94915254237289,29.51111111111111,117.96610169491525,27.431111111111115,118.98305084745763,26.559999999999995C120,25.688888888888886,121.01694915254237,25.25333333333333,122.03389830508473,25.25333333333333C123.05084745762711,25.25333333333333,124.0677966101695,28.106666666666666,125.08474576271188,28.106666666666666C126.10169491525424,28.106666666666666,127.11864406779662,28.08,128.135593220339,28.026666666666667C129.15254237288136,27.973333333333336,130.16949152542372,27.386666666666667,131.1864406779661,27.386666666666667C132.20338983050846,27.386666666666667,133.22033898305085,32.61333333333334,134.23728813559322,32.61333333333334C135.25423728813558,32.61333333333334,136.27118644067798,29.986666666666668,137.28813559322035,28.88C138.3050847457627,27.77333333333333,139.3220338983051,26.662222222222223,140.33898305084747,25.973333333333333C141.35593220338984,25.28444444444445,142.3728813559322,24.74666666666667,143.38983050847457,24.74666666666667C144.40677966101694,24.74666666666667,145.42372881355934,25.493333333333332,146.4406779661017,25.493333333333332C147.45762711864407,25.493333333333332,148.47457627118644,25.2,149.4915254237288,25.2C150.50847457627117,25.2,151.52542372881356,25.262222222222224,152.54237288135593,25.38666666666667C153.5593220338983,25.511111111111116,154.5762711864407,31.28,155.59322033898306,31.28C156.61016949152543,31.28,157.6271186440678,25.035555555555554,158.64406779661016,22.96C159.66101694915253,20.88444444444443,160.67796610169492,19.92,161.6949152542373,18.826666666666668C162.71186440677965,17.733333333333334,163.72881355932205,17.43111111111112,164.74576271186442,16.400000000000002C165.76271186440678,15.368888888888893,166.77966101694915,12.639999999999997,167.79661016949152,12.639999999999997C168.81355932203388,12.639999999999997,169.83050847457628,13.062222222222221,170.84745762711864,13.386666666666667C171.864406779661,13.711111111111112,172.8813559322034,13.786666666666667,173.89830508474577,14.586666666666668C174.91525423728814,15.386666666666668,175.93220338983053,22.293333333333333,176.9491525423729,22.293333333333333C177.96610169491527,22.293333333333333,178.98305084745763,13.453333333333333,180,4.6133333333333315L180,40C178.98305084745763,40,177.96610169491527,40,176.9491525423729,40C175.93220338983053,40,174.91525423728814,40,173.89830508474577,40C172.8813559322034,40,171.864406779661,40,170.84745762711864,40C169.83050847457628,40,168.81355932203388,40,167.79661016949152,40C166.77966101694915,40,165.76271186440678,40,164.74576271186442,40C163.72881355932205,40,162.71186440677965,40,161.6949152542373,40C160.67796610169492,40,159.66101694915253,40,158.64406779661016,40C157.6271186440678,40,156.61016949152543,40,155.59322033898306,40C154.5762711864407,40,153.5593220338983,40,152.54237288135593,40C151.52542372881356,40,150.50847457627117,40,149.4915254237288,40C148.47457627118644,40,147.45762711864407,40,146.4406779661017,40C145.42372881355934,40,144.40677966101694,40,143.38983050847457,40C142.3728813559322,40,141.35593220338984,40,140.33898305084747,40C139.3220338983051,40,138.3050847457627,40,137.28813559322035,40C136.27118644067798,40,135.25423728813558,40,134.23728813559322,40C133.22033898305085,40,132.20338983050846,40,131.1864406779661,40C130.16949152542372,40,129.15254237288136,40,128.135593220339,40C127.11864406779662,40,126.10169491525424,40,125.08474576271188,40C124.0677966101695,40,123.05084745762711,40,122.03389830508473,40C121.01694915254237,40,120,40,118.98305084745763,40C117.96610169491525,40,116.94915254237289,40,115.9322033898305,40C114.91525423728814,40,113.89830508474576,40,112.88135593220339,40C111.86440677966102,40,110.84745762711864,40,109.83050847457628,40C108.8135593220339,40,107.79661016949153,40,106.77966101694915,40C105.76271186440678,40,104.7457627118644,40,103.72881355932203,40C102.71186440677965,40,101.69491525423729,40,100.6779661016949,40C99.66101694915254,40,98.64406779661016,40,97.62711864406779,40C96.61016949152543,40,95.59322033898306,40,94.57627118644069,40C93.55932203389831,40,92.54237288135593,40,91.52542372881355,40C90.50847457627118,40,89.49152542372882,40,88.47457627118645,40C87.45762711864407,40,86.4406779661017,40,85.42372881355932,40C84.40677966101696,40,83.38983050847457,40,82.37288135593221,40C81.35593220338983,40,80.33898305084746,40,79.32203389830508,40C78.30508474576271,40,77.28813559322033,40,76.27118644067797,40C75.2542372881356,40,74.23728813559322,40,73.22033898305085,40C72.20338983050848,40,71.1864406779661,40,70.16949152542374,40C69.15254237288136,40,68.13559322033899,40,67.11864406779661,40C66.10169491525424,40,65.08474576271186,40,64.0677966101695,40C63.05084745762712,40,62.03389830508474,40,61.01694915254237,40C59.99999999999999,40,58.983050847457626,40,57.96610169491525,40C56.94915254237288,40,55.93220338983051,40,54.91525423728814,40C53.898305084745765,40,52.88135593220339,40,51.86440677966102,40C50.847457627118644,40,49.83050847457627,40,48.813559322033896,40C47.79661016949152,40,46.77966101694915,40,45.762711864406775,40C44.7457627118644,40,43.728813559322035,40,42.71186440677966,40C41.69491525423729,40,40.67796610169491,40,39.66101694915254,40C38.644067796610166,40,37.6271186440678,40,36.610169491525426,40C35.59322033898305,40,34.57627118644068,40,33.559322033898304,40C32.54237288135593,40,31.525423728813557,40,30.508474576271183,40C29.491525423728813,40,28.47457627118644,40,27.45762711864407,40C26.440677966101696,40,25.423728813559322,40,24.406779661016948,40C23.389830508474574,40,22.372881355932204,40,21.35593220338983,40C20.338983050847457,40,19.322033898305087,40,18.305084745762713,40C17.28813559322034,40,16.271186440677965,40,15.254237288135592,40C14.23728813559322,40,13.220338983050846,40,12.203389830508474,40C11.186440677966102,40,10.169491525423728,40,9.152542372881356,40C8.135593220338983,40,7.11864406779661,40,6.101694915254237,40C5.084745762711864,40,4.067796610169491,40,3.0508474576271185,40C2.0338983050847457,40,1.0169491525423728,40,0,40Z"></path><path class="line" stroke="black" fill="none" d="M0,12.026666666666666C1.0169491525423728,9.573333333333334,2.0338983050847457,7.120000000000002,3.0508474576271185,7.120000000000002C4.067796610169491,7.120000000000002,5.084745762711864,13.786666666666667,6.101694915254237,13.786666666666667C7.11864406779661,13.786666666666667,8.135593220338983,10.96,9.152542372881356,9.226666666666667C10.169491525423728,7.493333333333333,11.186440677966102,3.3866666666666667,12.203389830508474,3.3866666666666667C13.220338983050846,3.3866666666666667,14.23728813559322,5.946666666666669,15.254237288135592,7.120000000000002C16.271186440677965,8.293333333333337,17.28813559322034,9.653333333333336,18.305084745762713,10.42666666666667C19.322033898305087,11.200000000000003,20.338983050847457,11.386666666666668,21.35593220338983,11.760000000000002C22.372881355932204,12.133333333333335,23.389830508474574,12.062222222222223,24.406779661016948,12.666666666666666C25.423728813559322,13.271111111111109,26.440677966101696,23.946666666666665,27.45762711864407,23.946666666666665C28.47457627118644,23.946666666666665,29.491525423728813,15.946666666666658,30.508474576271183,14.399999999999999C31.525423728813557,12.853333333333333,32.54237288135593,13.000000000000002,33.559322033898304,12.080000000000002C34.57627118644068,11.160000000000002,35.59322033898305,8.879999999999999,36.610169491525426,8.879999999999999C37.6271186440678,8.879999999999999,38.644067796610166,12.462222222222218,39.66101694915254,12.799999999999997C40.67796610169491,13.137777777777776,41.69491525423729,13.306666666666667,42.71186440677966,13.306666666666667C43.728813559322035,13.306666666666667,44.7457627118644,13.146666666666667,45.762711864406775,13.146666666666667C46.77966101694915,13.146666666666667,47.79661016949152,23.866666666666667,48.813559322033896,23.866666666666667C49.83050847457627,23.866666666666667,50.847457627118644,21.12,51.86440677966102,19.52C52.88135593220339,17.919999999999998,53.898305084745765,14.266666666666667,54.91525423728814,14.266666666666667C55.93220338983051,14.266666666666667,56.94915254237288,14.542222222222222,57.96610169491525,15.093333333333332C58.983050847457626,15.644444444444442,59.99999999999999,16.368888888888893,61.01694915254237,17.706666666666667C62.03389830508474,19.044444444444448,63.05084745762712,23.120000000000005,64.0677966101695,23.120000000000005C65.08474576271186,23.120000000000005,66.10169491525424,21.573333333333334,67.11864406779661,21.573333333333334C68.13559322033899,21.573333333333334,69.15254237288136,28.72,70.16949152542374,28.72C71.1864406779661,28.72,72.20338983050848,26.06222222222222,73.22033898305085,25.12C74.23728813559322,24.17777777777778,75.2542372881356,23.066666666666666,76.27118644067797,23.066666666666666C77.28813559322033,23.066666666666666,78.30508474576271,23.226666666666667,79.32203389830508,23.546666666666667C80.33898305084746,23.866666666666667,81.35593220338983,27.013333333333332,82.37288135593221,27.119999999999997C83.38983050847457,27.226666666666663,84.40677966101696,27.279999999999998,85.42372881355932,27.279999999999998C86.4406779661017,27.279999999999998,87.45762711864407,27.173333333333332,88.47457627118645,27.173333333333332C89.49152542372882,27.173333333333332,90.50847457627118,32.88,91.52542372881355,32.88C92.54237288135593,32.88,93.55932203389831,29.942222222222224,94.57627118644069,29.093333333333334C95.59322033898306,28.244444444444454,96.61016949152543,28.115555555555556,97.62711864406779,27.786666666666665C98.64406779661016,27.457777777777775,99.66101694915254,27.119999999999997,100.6779661016949,27.119999999999997C101.69491525423729,27.119999999999997,102.71186440677965,27.208888888888886,103.72881355932203,27.386666666666667C104.7457627118644,27.564444444444444,105.76271186440678,29.013333333333335,106.77966101694915,29.013333333333335C107.79661016949153,29.013333333333335,108.8135593220339,28.613333333333337,109.83050847457628,28.613333333333337C110.84745762711864,28.613333333333337,111.86440677966102,33.333333333333336,112.88135593220339,33.333333333333336C113.89830508474576,33.333333333333336,114.91525423728814,31.76888888888889,115.9322033898305,30.64C116.94915254237289,29.51111111111111,117.96610169491525,27.431111111111115,118.98305084745763,26.559999999999995C120,25.688888888888886,121.01694915254237,25.25333333333333,122.03389830508473,25.25333333333333C123.05084745762711,25.25333333333333,124.0677966101695,28.106666666666666,125.08474576271188,28.106666666666666C126.10169491525424,28.106666666666666,127.11864406779662,28.08,128.135593220339,28.026666666666667C129.15254237288136,27.973333333333336,130.16949152542372,27.386666666666667,131.1864406779661,27.386666666666667C132.20338983050846,27.386666666666667,133.22033898305085,32.61333333333334,134.23728813559322,32.61333333333334C135.25423728813558,32.61333333333334,136.27118644067798,29.986666666666668,137.28813559322035,28.88C138.3050847457627,27.77333333333333,139.3220338983051,26.662222222222223,140.33898305084747,25.973333333333333C141.35593220338984,25.28444444444445,142.3728813559322,24.74666666666667,143.38983050847457,24.74666666666667C144.40677966101694,24.74666666666667,145.42372881355934,25.493333333333332,146.4406779661017,25.493333333333332C147.45762711864407,25.493333333333332,148.47457627118644,25.2,149.4915254237288,25.2C150.50847457627117,25.2,151.52542372881356,25.262222222222224,152.54237288135593,25.38666666666667C153.5593220338983,25.511111111111116,154.5762711864407,31.28,155.59322033898306,31.28C156.61016949152543,31.28,157.6271186440678,25.035555555555554,158.64406779661016,22.96C159.66101694915253,20.88444444444443,160.67796610169492,19.92,161.6949152542373,18.826666666666668C162.71186440677965,17.733333333333334,163.72881355932205,17.43111111111112,164.74576271186442,16.400000000000002C165.76271186440678,15.368888888888893,166.77966101694915,12.639999999999997,167.79661016949152,12.639999999999997C168.81355932203388,12.639999999999997,169.83050847457628,13.062222222222221,170.84745762711864,13.386666666666667C171.864406779661,13.711111111111112,172.8813559322034,13.786666666666667,173.89830508474577,14.586666666666668C174.91525423728814,15.386666666666668,175.93220338983053,22.293333333333333,176.9491525423729,22.293333333333333C177.96610169491527,22.293333333333333,178.98305084745763,13.453333333333333,180,4.6133333333333315"></path><path class="axis-ceiling" stroke-width="1" stroke="black" fill="none" d="M175,0L180,0"></path><text class="axis-ceiling-label" font-family="sans-serif" text-anchor="end" font-size="10px" x="170" y="2.5">1500</text></g></svg>