<svg xmlns="http://www.w3.org/2000/svg" viewBox="0 0 480 160"><g transform="translate(10,10)"><rect class="bar" x="0.15328223925359907" width="13.174941686104631" y="102.21238938053098" height="37.78761061946902" fill="rgb(164,173,192)"></rect><rect class="bar" x="15.481506164611814" width="13.174941686104631" y="112.7433628318584" height="27.256637168141594" fill="rgb(164,173,192)"></rect><rect class="bar" x="30.809730089970028" width="13.174941686104631" y="120.17699115044248" height="19.823008849557525" fill="rgb(164,173,192)"></rect><rect class="bar" x="46.13795401532824" width="13.174941686104631" y="110.26548672566372" height="29.73451327433628" fill="rgb(164,173,192)"></rect><rect class="bar" x="61.46617794068646" width="13.174941686104631" y="99.73451327433628" height="40.26548672566372" fill="rgb(164,173,192)"></rect><rect class="bar" x="76.79440186604467" width="13.174941686104631" y="94.15929203539822" height="45.840707964601776" fill="rgb(164,173,192)"></rect><rect class="bar" x="92.12262579140288" width="13.174941686104631" y="102.83185840707965" height="37.16814159292035" fill="rgb(164,173,192)"></rect><rect class="bar" x="107.4508497167611" width="13.174941686104631" y="85.48672566371683" height="54.513274336283175" fill="rgb(164,173,192)"></rect><rect class="bar" x="122.77907364211931" width="13.174941686104631" y="102.83185840707965" height="37.16814159292035" fill="rgb(164,173,192)"></rect><rect class="bar" x="138.10729756747753" width="13.174941686104631" y="92.30088495575221" height="47.69911504424779" fill="rgb(164,173,192)"></rect><rect class="bar" x="153.43552149283573" width="13.174941686104631" y="91.06194690265487" height="48.93805309734513" fill="rgb(164,173,192)"></rect><rect class="bar" x="168.76374541819396" width="13.174941686104631" y="99.11504424778761" height="40.88495575221239" fill="rgb(164,173,192)"></rect><rect class="bar" x="184.09196934355217" width="13.174941686104631" y="74.3362831858407" height="65.6637168141593" fill="rgb(164,173,192)"></rect><rect class="bar" x="199.4201932689104" width="13.174941686104631" y="84.24778761061947" height="55.75221238938053" fill="rgb(164,173,192)"></rect><rect class="bar" x="214.7484171942686" width="13.174941686104631" y="72.4778761061947" height="67.5221238938053" fill="rgb(164,173,192)"></rect><rect class="bar" x="230.07664111962683" width="13.174941686104631" y="90.4424778761062" height="49.557522123893804" fill="rgb(164,173,192)"></rect><rect class="bar" x="245.40486504498503" width="13.174941686104631" y="103.45132743362831" height="36.54867256637169" fill="rgb(164,173,192)"></rect><rect class="bar" x="260.73308897034326" width="13.174941686104631" y="113.98230088495575" height="26.017699115044252" fill="rgb(164,173,192)"></rect><rect class="bar" x="276.06131289570146" width="13.174941686104631" y="94.77876106194691" height="45.22123893805309" fill="rgb(164,173,192)"></rect><rect class="bar" x="291.38953682105966" width="13.174941686104631" y="89.20353982300885" height="50.79646017699115" fill="rgb(164,173,192)"></rect><rect class="bar" x="306.71776074641787" width="13.174941686104631" y="73.71681415929204" height="66.28318584070796" fill="rgb(164,173,192)"></rect><rect class="bar" x="322.0459846717761" width="13.174941686104631" y="70" height="70" fill="rgb(164,173,192)"></rect><rect class="bar" x="337.3742085971343" width="13.174941686104631" y="93.53982300884957" height="46.46017699115043" fill="rgb(164,173,192)"></rect><rect class="bar" x="352.70243252249253" width="13.174941686104631" y="97.87610619469027" height="42.123893805309734" fill="rgb(164,173,192)"></rect><rect class="bar" x="368.03065644785073" width="13.174941686104631" y="94.15929203539822" height="45.840707964601776" fill="rgb(164,173,192)"></rect><rect class="bar" x="383.35888037320893" width="13.174941686104631" y="92.92035398230087" height="47.07964601769913" fill="rgb(164,173,192)"></rect><rect class="bar" x="398.6871042985672" width="13.174941686104631" y="89.20353982300885" height="50.79646017699115" fill="rgb(164,173,192)"></rect><rect class="bar" x="414.0153282239254" width="13.174941686104631" y="93.53982300884957" height="46.46017699115043" fill="rgb(164,173,192)"></rect><rect class="bar" x="429.3435521492836" width="13.174941686104631" y="94.15929203539822" height="45.840707964601776" fill="rgb(164,173,192)"></rect><rect class="bar" x="444.6717760746418" width="13.174941686104631" y="91.68141592920354" height="48.31858407079646" fill="rgb(164,173,192)"></rect></g></svg>