<svg xmlns="http://www.w3.org/2000/svg" viewBox="0 0 180 60"><g transform="translate(0,20)"><path class="area" fill="rgba(0, 0, 0, 0.2)" d="M0,35.403999999999996C1.0169491525423728,35.361,2.0338983050847457,35.318,3.0508474576271185,35.28C4.067796610169491,35.242000000000004,5.084745762711864,35.211333333333336,6.101694915254237,35.176C7.11864406779661,35.14066666666667,8.135593220338983,35.10466666666667,9.152542372881356,35.068C10.169491525423728,35.03133333333333,11.186440677966102,34.98733333333334,12.203389830508474,34.956C13.220338983050846,34.92466666666667,14.23728813559322,34.90466666666667,15.254237288135592,34.88C16.271186440677965,34.855333333333334,17.28813559322034,34.855333333333334,18.305084745762713,34.808C19.322033898305087,34.760666666666665,20.338983050847457,34.668000000000006,21.35593220338983,34.596000000000004C22.372881355932204,34.524,23.389830508474574,34.452,24.406779661016948,34.376C25.423728813559322,34.3,26.440677966101696,34.233333333333334,27.45762711864407,34.14C28.47457627118644,34.04666666666667,29.491525423728813,33.92266666666667,30.508474576271183,33.816C31.525423728813557,33.70933333333333,32.54237288135593,33.616,33.559322033898304,33.5C34.57627118644068,33.384,35.59322033898305,33.23333333333334,36.610169491525426,33.120000000000005C37.6271186440678,33.006666666666675,38.644067796610166,32.925333333333334,39.66101694915254,32.82C40.67796610169491,32.714666666666666,41.69491525423729,32.632,42.71186440677966,32.488C43.728813559322035,32.344,44.7457627118644,32.10999999999999,45.762711864406775,31.955999999999996C46.77966101694915,31.801999999999996,47.79661016949152,31.698666666666668,48.813559322033896,31.564C49.83050847457627,31.429333333333332,50.847457627118644,31.284666666666663,51.86440677966102,31.147999999999996C52.88135593220339,31.01133333333333,53.898305084745765,30.876666666666665,54.91525423728814,30.744C55.93220338983051,30.611333333333334,56.94915254237288,30.439333333333334,57.96610169491525,30.352C58.983050847457626,30.264666666666667,59.99999999999999,30.297333333333334,61.01694915254237,30.220000000000002C62.03389830508474,30.142666666666667,63.05084745762712,30.00133333333333,64.0677966101695,29.887999999999998C65.08474576271186,29.774666666666665,66.10169491525424,29.683333333333334,67.11864406779661,29.54C68.13559322033899,29.396666666666665,69.15254237288136,29.183999999999997,70.16949152542374,29.028C71.1864406779661,28.872,72.20338983050848,28.769333333333336,73.22033898305085,28.604000000000003C74.23728813559322,28.43866666666667,75.2542372881356,28.166000000000004,76.27118644067797,28.036C77.28813559322033,27.906,78.30508474576271,27.91,79.32203389830508,27.823999999999998C80.33898305084746,27.737999999999996,81.35593220338983,27.64533333333333,82.37288135593221,27.519999999999996C83.38983050847457,27.394666666666662,84.40677966101696,27.228,85.42372881355932,27.072000000000003C86.4406779661017,26.916000000000004,87.45762711864407,26.768000000000004,88.47457627118645,26.584000000000003C89.49152542372882,26.400000000000002,90.50847457627118,26.16933333333333,91.52542372881355,25.968C92.54237288135593,25.766666666666666,93.55932203389831,25.572666666666674,94.57627118644069,25.376000000000005C95.59322033898306,25.17933333333334,96.61016949152543,25.00533333333333,97.62711864406779,24.787999999999997C98.64406779661016,24.57066666666666,99.66101694915254,24.268666666666665,100.6779661016949,24.072C101.69491525423729,23.875333333333334,102.71186440677965,23.770000000000003,103.72881355932203,23.608000000000004C104.7457627118644,23.446000000000005,105.76271186440678,23.278000000000002,106.77966101694915,23.1C107.79661016949153,22.922,108.8135593220339,22.721333333333334,109.83050847457628,22.54C110.84745762711864,22.358666666666664,111.86440677966102,22.155333333333335,112.88135593220339,22.012C113.89830508474576,21.868666666666666,114.91525423728814,21.812,115.9322033898305,21.68C116.94915254237289,21.548,117.96610169491525,21.345333333333333,118.98305084745763,21.22C120,21.094666666666665,121.01694915254237,21.014666666666667,122.03389830508473,20.928C123.05084745762711,20.841333333333335,124.0677966101695,20.797333333333338,125.08474576271188,20.700000000000003C126.10169491525424,20.602666666666668,127.11864406779662,20.45133333333333,128.135593220339,20.343999999999998C129.15254237288136,20.236666666666665,130.16949152542372,20.144000000000005,131.1864406779661,20.056000000000004C132.20338983050846,19.968000000000004,133.22033898305085,19.816,134.23728813559322,19.816C135.25423728813558,19.816,136.27118644067798,20.064,137.28813559322035,20.064C138.3050847457627,20.064,139.3220338983051,19.990666666666666,140.33898305084747,19.844C141.35593220338984,19.697333333333336,142.3728813559322,19.340666666666667,143.38983050847457,19.108C144.40677966101694,18.875333333333334,145.42372881355934,18.448,146.4406779661017,18.448C147.45762711864407,18.448,148.47457627118644,18.650666666666666,149.4915254237288,18.887999999999998C150.50847457627117,19.12533333333333,151.52542372881356,19.561333333333334,152.54237288135593,19.872C153.5593220338983,20.182666666666666,154.5762711864407,20.751999999999995,155.59322033898306,20.751999999999995C156.61016949152543,20.751999999999995,157.6271186440678,20.22266666666666,158.64406779661016,19.971999999999998C159.66101694915253,19.72133333333333,160.67796610169492,19.42533333333333,161.6949152542373,19.247999999999998C162.71186440677965,19.070666666666664,163.72881355932205,19.009333333333334,164.74576271186442,18.908C165.76271186440678,18.80666666666667,166.77966101694915,18.81866666666667,167.79661016949152,18.64C168.81355932203388,18.461333333333332,169.83050847457628,17.950666666666663,170.84745762711864,17.471999999999998C171.864406779661,16.993333333333332,172.8813559322034,16.290666666666667,173.89830508474577,15.768C174.91525423728814,15.245333333333335,175.93220338983053,14.416000000000004,176.9491525423729,14.336000000000002C177.96610169491527,14.256000000000002,178.98305084745763,14.236,180,14.216000000000001L180,40C178.98305084745763,40,177.96610169491527,40,176.9491525423729,40C175.93220338983053,40,174.91525423728814,40,173.89830508474577,40C172.8813559322034,40,171.864406779661,40,170.84745762711864,40C169.83050847457628,40,168.81355932203388,40,167.79661016949152,40C166.77966101694915,40,165.76271186440678,40,164.74576271186442,40C163.72881355932205,40,162.71186440677965,40,161.6949152542373,40C160.67796610169492,40,159.66101694915253,40,158.64406779661016,40C157.6271186440678,40,156.61016949152543,40,155.59322033898306,40C154.5762711864407,40,153.5593220338983,40,152.54237288135593,40C151.52542372881356,40,150.50847457627117,40,149.4915254237288,40C148.47457627118644,40,147.45762711864407,40,146.4406779661017,40C145.42372881355934,40,144.40677966101694,40,143.38983050847457,40C142.3728813559322,40,141.35593220338984,40,140.33898305084747,40C139.3220338983051,40,138.3050847457627,40,137.28813559322035,40C136.27118644067798,40,135.25423728813558,40,134.23728813559322,40C133.22033898305085,40,132.20338983050846,40,131.1864406779661,40C130.16949152542372,40,129.15254237288136,40,128.135593220339,40C127.11864406779662,40,126.10169491525424,40,125.08474576271188,40C124.0677966101695,40,123.05084745762711,40,122.03389830508473,40C121.01694915254237,40,120,40,118.98305084745763,40C117.96610169491525,40,116.94915254237289,40,115.9322033898305,40C114.91525423728814,40,113.89830508474576,40,112.88135593220339,40C111.86440677966102,40,110.84745762711864,40,109.83050847457628,40C108.8135593220339,40,107.79661016949153,40,106.77966101694915,40C105.76271186440678,40,104.7457627118644,40,103.72881355932203,40C102.71186440677965,40,101.69491525423729,40,100.6779661016949,40C99.66101694915254,40,98.64406779661016,40,97.62711864406779,40C96.61016949152543,40,95.59322033898306,40,94.57627118644069,40C93.55932203389831,40,92.54237288135593,40,91.52542372881355,40C90.50847457627118,40,89.49152542372882,40,88.47457627118645,40C87.45762711864407,40,86.4406779661017,40,85.42372881355932,40C84.40677966101696,40,83.38983050847457,40,82.37288135593221,40C81.35593220338983,40,80.33898305084746,40,79.32203389830508,40C78.30508474576271,40,77.28813559322033,40,76.27118644067797,40C75.2542372881356,40,74.23728813559322,40,73.22033898305085,40C72.20338983050848,40,71.1864406779661,40,70.16949152542374,40C69.15254237288136,40,68.13559322033899,40,67.11864406779661,40C66.10169491525424,40,65.08474576271186,40,64.0677966101695,40C63.05084745762712,40,62.03389830508474,40,61.01694915254237,40C59.99999999999999,40,58.983050847457626,40,57.96610169491525,40C56.94915254237288,40,55.93220338983051,40,54.91525423728814,40C53.898305084745765,40,52.88135593220339,40,51.86440677966102,40C50.847457627118644,40,49.83050847457627,40,48.813559322033896,40C47.79661016949152,40,46.77966101694915,40,45.762711864406775,40C44.7457627118644,40,43.728813559322035,40,42.71186440677966,40C41.69491525423729,40,40.67796610169491,40,39.66101694915254,40C38.644067796610166,40,37.6271186440678,40,36.610169491525426,40C35.59322033898305,40,34.57627118644068,40,33.559322033898304,40C32.54237288135593,40,31.525423728813557,40,30.508474576271183,40C29.491525423728813,40,28.47457627118644,40,27.45762711864407,40C26.440677966101696,40,25.423728813559322,40,24.406779661016948,40C23.389830508474574,40,22.372881355932204,40,21.35593220338983,40C20.338983050847457,40,19.322033898305087,40,18.305084745762713,40C17.28813559322034,40,16.271186440677965,40,15.254237288135592,40C14.23728813559322,40,13.220338983050846,40,12.203389830508474,40C11.186440677966102,40,10.169491525423728,40,9.152542372881356,40C8.135593220338983,40,7.11864406779661,40,6.101694915254237,40C5.084745762711864,40,4.067796610169491,40,3.0508474576271185,40C2.0338983050847457,40,1.0169491525423728,40,0,40Z"></path><path class="line" stroke="black" fill="none" d="M0,35.403999999999996C1.0169491525423728,35.361,2.0338983050847457,35.318,3.0508474576271185,35.28C4.067796610169491,35.242000000000004,5.084745762711864,35.211333333333336,6.101694915254237,35.176C7.11864406779661,35.14066666666667,8.135593220338983,35.10466666666667,9.152542372881356,35.068C10.169491525423728,35.03133333333333,11.186440677966102,34.98733333333334,12.203389830508474,34.956C13.220338983050846,34.92466666666667,14.23728813559322,34.90466666666667,15.254237288135592,34.88C16.271186440677965,34.855333333333334,17.28813559322034,34.855333333333334,18.305084745762713,34.808C19.322033898305087,34.760666666666665,20.338983050847457,34.668000000000006,21.35593220338983,34.596000000000004C22.372881355932204,34.524,23.389830508474574,34.452,24.406779661016948,34.376C25.423728813559322,34.3,26.440677966101696,34.233333333333334,27.45762711864407,34.14C28.47457627118644,34.04666666666667,29.491525423728813,33.92266666666667,30.508474576271183,33.816C31.525423728813557,33.70933333333333,32.54237288135593,33.616,33.559322033898304,33.5C34.57627118644068,33.384,35.59322033898305,33.23333333333334,36.610169491525426,33.120000000000005C37.6271186440678,33.006666666666675,38.644067796610166,32.925333333333334,39.66101694915254,32.82C40.67796610169491,32.714666666666666,41.69491525423729,32.632,42.71186440677966,32.488C43.728813559322035,32.344,44.7457627118644,32.10999999999999,45.762711864406775,31.955999999999996C46.77966101694915,31.801999999999996,47.79661016949152,31.698666666666668,48.813559322033896,31.564C49.83050847457627,31.429333333333332,50.847457627118644,31.284666666666663,51.86440677966102,31.147999999999996C52.88135593220339,31.01133333333333,53.898305084745765,30.876666666666665,54.91525423728814,30.744C55.93220338983051,30.611333333333334,56.94915254237288,30.439333333333334,57.96610169491525,30.352C58.983050847457626,30.264666666666667,59.99999999999999,30.297333333333334,61.01694915254237,30.220000000000002C62.03389830508474,30.142666666666667,63.05084745762712,30.00133333333333,64.0677966101695,29.887999999999998C65.08474576271186,29.774666666666665,66.10169491525424,29.683333333333334,67.11864406779661,29.54C68.13559322033899,29.396666666666665,69.15254237288136,29.183999999999997,70.16949152542374,29.028C71.1864406779661,28.872,72.20338983050848,28.769333333333336,73.22033898305085,28.604000000000003C74.23728813559322,28.43866666666667,75.2542372881356,28.166000000000004,76.27118644067797,28.036C77.28813559322033,27.906,78.30508474576271,27.91,79.32203389830508,27.823999999999998C80.33898305084746,27.737999999999996,81.35593220338983,27.64533333333333,82.37288135593221,27.519999999999996C83.38983050847457,27.394666666666662,84.40677966101696,27.228,85.42372881355932,27.072000000000003C86.4406779661017,26.916000000000004,87.45762711864407,26.768000000000004,88.47457627118645,26.584000000000003C89.49152542372882,26.400000000000002,90.50847457627118,26.16933333333333,91.52542372881355,25.968C92.54237288135593,25.766666666666666,93.55932203389831,25.572666666666674,94.57627118644069,25.376000000000005C95.59322033898306,25.17933333333334,96.61016949152543,25.00533333333333,97.62711864406779,24.787999999999997C98.64406779661016,24.57066666666666,99.66101694915254,24.268666666666665,100.6779661016949,24.072C101.69491525423729,23.875333333333334,102.71186440677965,23.770000000000003,103.72881355932203,23.608000000000004C104.7457627118644,23.446000000000005,105.76271186440678,23.278000000000002,106.77966101694915,23.1C107.79661016949153,22.922,108.8135593220339,22.721333333333334,109.83050847457628,22.54C110.84745762711864,22.358666666666664,111.86440677966102,22.155333333333335,112.88135593220339,22.012C113.89830508474576,21.868666666666666,114.91525423728814,21.812,115.9322033898305,21.68C116.94915254237289,21.548,117.96610169491525,21.345333333333333,118.98305084745763,21.22C120,21.094666666666665,121.01694915254237,21.014666666666667,122.03389830508473,20.928C123.05084745762711,20.841333333333335,124.0677966101695,20.797333333333338,125.08474576271188,20.700000000000003C126.10169491525424,20.602666666666668,127.11864406779662,20.45133333333333,128.135593220339,20.343999999999998C129.15254237288136,20.236666666666665,130.16949152542372,20.144000000000005,131.1864406779661,20.056000000000004C132.20338983050846,19.968000000000004,133.22033898305085,19.816,134.23728813559322,19.816C135.25423728813558,19.816,136.27118644067798,20.064,137.28813559322035,20.064C138.3050847457627,20.064,139.3220338983051,19.990666666666666,140.33898305084747,19.844C141.35593220338984,19.697333333333336,142.3728813559322,19.340666666666667,143.38983050847457,19.108C144.40677966101694,18.875333333333334,145.42372881355934,18.448,146.4406779661017,18.448C147.45762711864407,18.448,148.47457627118644,18.650666666666666,149.4915254237288,18.887999999999998C150.50847457627117,19.12533333333333,151.52542372881356,19.561333333333334,152.54237288135593,19.872C153.5593220338983,20.182666666666666,154.5762711864407,20.751999999999995,155.59322033898306,20.751999999999995C156.61016949152543,20.751999999999995,157.6271186440678,20.22266666666666,158.64406779661016,19.971999999999998C159.66101694915253,19.72133333333333,160.67796610169492,19.42533333333333,161.6949152542373,19.247999999999998C162.71186440677965,19.070666666666664,163.72881355932205,19.009333333333334,164.74576271186442,18.908C165.76271186440678,18.80666666666667,166.77966101694915,18.81866666666667,167.79661016949152,18.64C168.81355932203388,18.461333333333332,169.83050847457628,17.950666666666663,170.84745762711864,17.471999999999998C171.864406779661,16.993333333333332,172.8813559322034,16.290666666666667,173.89830508474577,15.768C174.91525423728814,15.245333333333335,175.93220338983053,14.416000000000004,176.9491525423729,14.336000000000002C177.96610169491527,14.256000000000002,178.98305084745763,14.236,180,14.216000000000001"></path><path class="axis-ceiling" stroke-width="1" stroke="black" fill="none" d="M175,0L180,0"></path><text class="axis-ceiling-label" font-family="sans-serif" text-anchor="end" font-size="10px" x="170" y="2.5">10000</text></g></svg>