<svg xmlns="http://www.w3.org/2000/svg" viewBox="0 0 180 60"><g transform="translate(0,20)"><path class="area" fill="rgba(0, 0, 0, 0.2)" d="M0,15.970589333333333C1.0169491525423728,15.957536666666666,2.0338983050847457,15.944484,3.0508474576271185,15.931605333333332C4.067796610169491,15.918726666666664,5.084745762711864,15.905997777777776,6.101694915254237,15.893317333333332C7.11864406779661,15.880636888888889,8.135593220338983,15.86810977777778,9.152542372881356,15.855522666666669C10.169491525423728,15.842935555555558,11.186440677966102,15.830338222222224,12.203389830508474,15.817794666666668C13.220338983050846,15.805251111111112,14.23728813559322,15.792757333333332,15.254237288135592,15.780261333333332C16.271186440677965,15.767765333333331,17.28813559322034,15.755289333333332,18.305084745762713,15.742818666666665C19.322033898305087,15.730348,20.338983050847457,15.71790177777778,21.35593220338983,15.705437333333334C22.372881355932204,15.692972888888889,23.389830508474574,15.680543999999998,24.406779661016948,15.668031999999998C25.423728813559322,15.655519999999997,26.440677966101696,15.642994666666667,27.45762711864407,15.630365333333334C28.47457627118644,15.617736,29.491525423728813,15.605021333333331,30.508474576271183,15.592255999999999C31.525423728813557,15.579490666666665,32.54237288135593,15.566712,33.559322033898304,15.553773333333334C34.57627118644068,15.540834666666667,35.59322033898305,15.527742222222225,36.610169491525426,15.514624000000001C37.6271186440678,15.50150577777778,38.644067796610166,15.488363111111111,39.66101694915254,15.475064C40.67796610169491,15.461764888888888,41.69491525423729,15.44849511111111,42.71186440677966,15.434829333333333C43.728813559322035,15.421163555555555,44.7457627118644,15.40737422222222,45.762711864406775,15.393069333333331C46.77966101694915,15.378764444444442,47.79661016949152,15.364119555555556,48.813559322033896,15.349C49.83050847457627,15.333880444444445,50.847457627118644,15.318367555555554,51.86440677966102,15.302351999999999C52.88135593220339,15.286336444444444,53.898305084745765,15.269916000000002,54.91525423728814,15.252906666666668C55.93220338983051,15.235897333333336,56.94915254237288,15.218408444444444,57.96610169491525,15.200296C58.983050847457626,15.182183555555556,59.99999999999999,15.163379111111109,61.01694915254237,15.144231999999999C62.03389830508474,15.125084888888887,63.05084745762712,15.106086666666668,64.0677966101695,15.085413333333335C65.08474576271186,15.064740000000002,66.10169491525424,15.04335911111111,67.11864406779661,15.020191999999998C68.13559322033899,14.997024888888886,69.15254237288136,14.972562222222221,70.16949152542374,14.946410666666665C71.1864406779661,14.920259111111111,72.20338983050848,14.892703111111112,73.22033898305085,14.863282666666668C74.23728813559322,14.833862222222225,75.2542372881356,14.802931555555555,76.27118644067797,14.769888C77.28813559322033,14.736844444444445,78.30508474576271,14.701930222222224,79.32203389830508,14.665021333333335C80.33898305084746,14.628112444444445,81.35593220338983,14.588588444444444,82.37288135593221,14.548434666666665C83.38983050847457,14.508280888888887,84.40677966101696,14.468300888888887,85.42372881355932,14.424098666666666C86.4406779661017,14.379896444444444,87.45762711864407,14.333270222222222,88.47457627118645,14.283221333333334C89.49152542372882,14.233172444444445,90.50847457627118,14.180107111111111,91.52542372881355,14.123805333333333C92.54237288135593,14.067503555555556,93.55932203389831,14.008253333333334,94.57627118644069,13.945410666666668C95.59322033898306,13.882568000000001,96.61016949152543,13.816504,97.62711864406779,13.746749333333334C98.64406779661016,13.676994666666667,99.66101694915254,13.603442222222222,100.6779661016949,13.526882666666666C101.69491525423729,13.450323111111109,102.71186440677965,13.369701777777774,103.72881355932203,13.287391999999997C104.7457627118644,13.20508222222222,105.76271186440678,13.11699688888889,106.77966101694915,13.033024000000001C107.79661016949153,12.949051111111112,108.8135593220339,12.870396,109.83050847457628,12.783554666666666C110.84745762711864,12.696713333333332,111.86440677966102,12.608118666666662,112.88135593220339,12.511975999999997C113.89830508474576,12.415833333333332,114.91525423728814,12.314289333333335,115.9322033898305,12.206698666666668C116.94915254237289,12.099108000000001,117.96610169491525,11.985587999999998,118.98305084745763,11.866431999999998C120,11.747275999999998,121.01694915254237,11.62115822222222,122.03389830508473,11.491762666666666C123.05084745762711,11.36236711111111,124.0677966101695,11.227158222222224,125.08474576271188,11.090058666666668C126.10169491525424,10.952959111111113,127.11864406779662,10.817701333333336,128.135593220339,10.669165333333336C129.15254237288136,10.520629333333336,130.16949152542372,10.359245777777778,131.1864406779661,10.198842666666668C132.20338983050846,10.038439555555556,133.22033898305085,9.873753333333333,134.23728813559322,9.706746666666666C135.25423728813558,9.539739999999998,136.27118644067798,9.368452444444443,137.28813559322035,9.196802666666667C138.3050847457627,9.02515288888889,139.3220338983051,8.851520444444446,140.33898305084747,8.676848000000001C141.35593220338984,8.502175555555558,142.3728813559322,8.326143555555555,143.38983050847457,8.148768C144.40677966101694,7.971392444444444,145.42372881355934,7.792151111111111,146.4406779661017,7.6125946666666655C147.45762711864407,7.433038222222222,148.47457627118644,7.252743111111111,149.4915254237288,7.0714293333333345C150.50847457627117,6.890115555555556,151.52542372881356,6.709498666666666,152.54237288135593,6.524711999999999C153.5593220338983,6.3399253333333325,154.5762711864407,6.1504022222222225,155.59322033898306,5.962709333333334C156.61016949152543,5.7750164444444465,157.6271186440678,5.587388888888889,158.64406779661016,5.398554666666668C159.66101694915253,5.209720444444446,160.67796610169492,5.019654666666669,161.6949152542373,4.829704000000001C162.71186440677965,4.639753333333334,163.72881355932205,4.449687555555555,164.74576271186442,4.258850666666665C165.76271186440678,4.068013777777776,166.77966101694915,3.875956444444442,167.79661016949152,3.6846826666666654C168.81355932203388,3.493408888888887,169.83050847457628,3.302460444444443,170.84745762711864,3.1112079999999986C171.864406779661,2.9199555555555543,172.8813559322034,2.7282102222222204,173.89830508474577,2.5371679999999985C174.91525423728814,2.3461257777777766,175.93220338983053,2.1535991111111126,176.9491525423729,1.9649546666666673C177.96610169491527,1.776310222222224,178.98305084745763,1.5908057777777784,180,1.405301333333333L180,40C178.98305084745763,40,177.96610169491527,40,176.9491525423729,40C175.93220338983053,40,174.91525423728814,40,173.89830508474577,40C172.8813559322034,40,171.864406779661,40,170.84745762711864,40C169.83050847457628,40,168.81355932203388,40,167.79661016949152,40C166.77966101694915,40,165.76271186440678,40,164.74576271186442,40C163.72881355932205,40,162.71186440677965,40,161.6949152542373,40C160.67796610169492,40,159.66101694915253,40,158.64406779661016,40C157.6271186440678,40,156.61016949152543,40,155.59322033898306,40C154.5762711864407,40,153.5593220338983,40,152.54237288135593,40C151.52542372881356,40,150.50847457627117,40,149.4915254237288,40C148.47457627118644,40,147.45762711864407,40,146.4406779661017,40C145.42372881355934,40,144.40677966101694,40,143.38983050847457,40C142.3728813559322,40,141.35593220338984,40,140.33898305084747,40C139.3220338983051,40,138.3050847457627,40,137.28813559322035,40C136.27118644067798,40,135.25423728813558,40,134.23728813559322,40C133.22033898305085,40,132.20338983050846,40,131.1864406779661,40C130.16949152542372,40,129.15254237288136,40,128.135593220339,40C127.11864406779662,40,126.10169491525424,40,125.08474576271188,40C124.0677966101695,40,123.05084745762711,40,122.03389830508473,40C121.01694915254237,40,120,40,118.98305084745763,40C117.96610169491525,40,116.94915254237289,40,115.9322033898305,40C114.91525423728814,40,113.89830508474576,40,112.88135593220339,40C111.86440677966102,40,110.84745762711864,40,109.83050847457628,40C108.8135593220339,40,107.79661016949153,40,106.77966101694915,40C105.76271186440678,40,104.7457627118644,40,103.72881355932203,40C102.71186440677965,40,101.69491525423729,40,100.6779661016949,40C99.66101694915254,40,98.64406779661016,40,97.62711864406779,40C96.61016949152543,40,95.59322033898306,40,94.57627118644069,40C93.55932203389831,40,92.54237288135593,40,91.52542372881355,40C90.50847457627118,40,89.49152542372882,40,88.47457627118645,40C87.45762711864407,40,86.4406779661017,40,85.42372881355932,40C84.40677966101696,40,83.38983050847457,40,82.37288135593221,40C81.35593220338983,40,80.33898305084746,40,79.32203389830508,40C78.30508474576271,40,77.28813559322033,40,76.27118644067797,40C75.2542372881356,40,74.23728813559322,40,73.22033898305085,40C72.20338983050848,40,71.1864406779661,40,70.16949152542374,40C69.15254237288136,40,68.13559322033899,40,67.11864406779661,40C66.10169491525424,40,65.08474576271186,40,64.0677966101695,40C63.05084745762712,40,62.03389830508474,40,61.01694915254237,40C59.99999999999999,40,58.983050847457626,40,57.96610169491525,40C56.94915254237288,40,55.93220338983051,40,54.91525423728814,40C53.898305084745765,40,52.88135593220339,40,51.86440677966102,40C50.847457627118644,40,49.83050847457627,40,48.813559322033896,40C47.79661016949152,40,46.77966101694915,40,45.762711864406775,40C44.7457627118644,40,43.728813559322035,40,42.71186440677966,40C41.69491525423729,40,40.67796610169491,40,39.66101694915254,40C38.644067796610166,40,37.6271186440678,40,36.610169491525426,40C35.59322033898305,40,34.57627118644068,40,33.559322033898304,40C32.54237288135593,40,31.525423728813557,40,30.508474576271183,40C29.491525423728813,40,28.47457627118644,40,27.45762711864407,40C26.440677966101696,40,25.423728813559322,40,24.406779661016948,40C23.389830508474574,40,22.372881355932204,40,21.35593220338983,40C20.338983050847457,40,19.322033898305087,40,18.305084745762713,40C17.28813559322034,40,16.271186440677965,40,15.254237288135592,40C14.23728813559322,40,13.220338983050846,40,12.203389830508474,40C11.186440677966102,40,10.169491525423728,40,9.152542372881356,40C8.135593220338983,40,7.11864406779661,40,6.101694915254237,40C5.084745762711864,40,4.067796610169491,40,3.0508474576271185,40C2.0338983050847457,40,1.0169491525423728,40,0,40Z"></path><path class="line" stroke="black" fill="none" d="M0,15.970589333333333C1.0169491525423728,15.957536666666666,2.0338983050847457,15.944484,3.0508474576271185,15.931605333333332C4.067796610169491,15.918726666666664,5.084745762711864,15.905997777777776,6.101694915254237,15.893317333333332C7.11864406779661,15.880636888888889,8.135593220338983,15.86810977777778,9.152542372881356,15.855522666666669C10.169491525423728,15.842935555555558,11.186440677966102,15.830338222222224,12.203389830508474,15.817794666666668C13.220338983050846,15.805251111111112,14.23728813559322,15.792757333333332,15.254237288135592,15.780261333333332C16.271186440677965,15.767765333333331,17.28813559322034,15.755289333333332,18.305084745762713,15.742818666666665C19.322033898305087,15.730348,20.338983050847457,15.71790177777778,21.35593220338983,15.705437333333334C22.372881355932204,15.692972888888889,23.389830508474574,15.680543999999998,24.406779661016948,15.668031999999998C25.423728813559322,15.655519999999997,26.440677966101696,15.642994666666667,27.45762711864407,15.630365333333334C28.47457627118644,15.617736,29.491525423728813,15.605021333333331,30.508474576271183,15.592255999999999C31.525423728813557,15.579490666666665,32.54237288135593,15.566712,33.559322033898304,15.553773333333334C34.57627118644068,15.540834666666667,35.59322033898305,15.527742222222225,36.610169491525426,15.514624000000001C37.6271186440678,15.50150577777778,38.644067796610166,15.488363111111111,39.66101694915254,15.475064C40.67796610169491,15.461764888888888,41.69491525423729,15.44849511111111,42.71186440677966,15.434829333333333C43.728813559322035,15.421163555555555,44.7457627118644,15.40737422222222,45.762711864406775,15.393069333333331C46.77966101694915,15.378764444444442,47.79661016949152,15.364119555555556,48.813559322033896,15.349C49.83050847457627,15.333880444444445,50.847457627118644,15.318367555555554,51.86440677966102,15.302351999999999C52.88135593220339,15.286336444444444,53.898305084745765,15.269916000000002,54.91525423728814,15.252906666666668C55.93220338983051,15.235897333333336,56.94915254237288,15.218408444444444,57.96610169491525,15.200296C58.983050847457626,15.182183555555556,59.99999999999999,15.163379111111109,61.01694915254237,15.144231999999999C62.03389830508474,15.125084888888887,63.05084745762712,15.106086666666668,64.0677966101695,15.085413333333335C65.08474576271186,15.064740000000002,66.10169491525424,15.04335911111111,67.11864406779661,15.020191999999998C68.13559322033899,14.997024888888886,69.15254237288136,14.972562222222221,70.16949152542374,14.946410666666665C71.1864406779661,14.920259111111111,72.20338983050848,14.892703111111112,73.22033898305085,14.863282666666668C74.23728813559322,14.833862222222225,75.2542372881356,14.802931555555555,76.27118644067797,14.769888C77.28813559322033,14.736844444444445,78.30508474576271,14.701930222222224,79.32203389830508,14.665021333333335C80.33898305084746,14.628112444444445,81.35593220338983,14.588588444444444,82.37288135593221,14.548434666666665C83.38983050847457,14.508280888888887,84.40677966101696,14.468300888888887,85.42372881355932,14.424098666666666C86.4406779661017,14.379896444444444,87.45762711864407,14.333270222222222,88.47457627118645,14.283221333333334C89.49152542372882,14.233172444444445,90.50847457627118,14.180107111111111,91.52542372881355,14.123805333333333C92.54237288135593,14.067503555555556,93.55932203389831,14.008253333333334,94.57627118644069,13.945410666666668C95.59322033898306,13.882568000000001,96.61016949152543,13.816504,97.62711864406779,13.746749333333334C98.64406779661016,13.676994666666667,99.66101694915254,13.603442222222222,100.6779661016949,13.526882666666666C101.69491525423729,13.450323111111109,102.71186440677965,13.369701777777774,103.72881355932203,13.287391999999997C104.7457627118644,13.20508222222222,105.76271186440678,13.11699688888889,106.77966101694915,13.033024000000001C107.79661016949153,12.949051111111112,108.8135593220339,12.870396,109.83050847457628,12.783554666666666C110.84745762711864,12.696713333333332,111.86440677966102,12.608118666666662,112.88135593220339,12.511975999999997C113.89830508474576,12.415833333333332,114.91525423728814,12.314289333333335,115.9322033898305,12.206698666666668C116.94915254237289,12.099108000000001,117.96610169491525,11.985587999999998,118.98305084745763,11.866431999999998C120,11.747275999999998,121.01694915254237,11.62115822222222,122.03389830508473,11.491762666666666C123.05084745762711,11.36236711111111,124.0677966101695,11.227158222222224,125.08474576271188,11.090058666666668C126.10169491525424,10.952959111111113,127.11864406779662,10.817701333333336,128.135593220339,10.669165333333336C129.15254237288136,10.520629333333336,130.16949152542372,10.359245777777778,131.1864406779661,10.198842666666668C132.20338983050846,10.038439555555556,133.22033898305085,9.873753333333333,134.23728813559322,9.706746666666666C135.25423728813558,9.539739999999998,136.27118644067798,9.368452444444443,137.28813559322035,9.196802666666667C138.3050847457627,9.02515288888889,139.3220338983051,8.851520444444446,140.33898305084747,8.676848000000001C141.35593220338984,8.502175555555558,142.3728813559322,8.326143555555555,143.38983050847457,8.148768C144.40677966101694,7.971392444444444,145.42372881355934,7.792151111111111,146.4406779661017,7.6125946666666655C147.45762711864407,7.433038222222222,148.47457627118644,7.252743111111111,149.4915254237288,7.0714293333333345C150.50847457627117,6.890115555555556,151.52542372881356,6.709498666666666,152.54237288135593,6.524711999999999C153.5593220338983,6.3399253333333325,154.5762711864407,6.1504022222222225,155.59322033898306,5.962709333333334C156.61016949152543,5.7750164444444465,157.6271186440678,5.587388888888889,158.64406779661016,5.398554666666668C159.66101694915253,5.209720444444446,160.67796610169492,5.019654666666669,161.6949152542373,4.829704000000001C162.71186440677965,4.639753333333334,163.72881355932205,4.449687555555555,164.74576271186442,4.258850666666665C165.76271186440678,4.068013777777776,166.77966101694915,3.875956444444442,167.79661016949152,3.6846826666666654C168.81355932203388,3.493408888888887,169.83050847457628,3.302460444444443,170.84745762711864,3.1112079999999986C171.864406779661,2.9199555555555543,172.8813559322034,2.7282102222222204,173.89830508474577,2.5371679999999985C174.91525423728814,2.3461257777777766,175.93220338983053,2.1535991111111126,176.9491525423729,1.9649546666666673C177.96610169491527,1.776310222222224,178.98305084745763,1.5908057777777784,180,1.405301333333333"></path><path class="axis-ceiling" stroke-width="1" stroke="black" fill="none" d="M175,0L180,0"></path><text class="axis-ceiling-label" font-family="sans-serif" text-anchor="end" font-size="10px" x="170" y="2.5">15000000</text></g></svg>