<svg xmlns="http://www.w3.org/2000/svg" viewBox="0 0 180 60"><g transform="translate(0,20)"><path class="area" fill="rgba(0, 0, 0, 0.2)" d="M0,17.799999999999997C1.0169491525423728,17.593999999999998,2.0338983050847457,17.387999999999998,3.0508474576271185,17.387999999999998C4.067796610169491,17.387999999999998,5.084745762711864,19.196,6.101694915254237,19.82C7.11864406779661,20.444,8.135593220338983,20.428666666666665,9.152542372881356,21.131999999999998C10.169491525423728,21.83533333333333,11.186440677966102,22.738,12.203389830508474,24.04C13.220338983050846,25.342,14.23728813559322,28.944000000000003,15.254237288135592,28.944000000000003C16.271186440677965,28.944000000000003,17.28813559322034,24.900000000000002,18.305084745762713,24.588C19.322033898305087,24.276,20.338983050847457,24.306666666666665,21.35593220338983,24.119999999999997C22.372881355932204,23.93333333333333,23.389830508474574,23.468,24.406779661016948,23.468C25.423728813559322,23.468,26.440677966101696,25.360000000000007,27.45762711864407,25.864000000000004C28.47457627118644,26.368,29.491525423728813,26.116000000000003,30.508474576271183,26.619999999999997C31.525423728813557,27.123999999999995,32.54237288135593,28.272666666666666,33.559322033898304,29.308C34.57627118644068,30.343333333333334,35.59322033898305,32.832,36.610169491525426,32.832C37.6271186440678,32.832,38.644067796610166,31.263333333333335,39.66101694915254,30.704C40.67796610169491,30.144666666666666,41.69491525423729,29.476,42.71186440677966,29.476C43.728813559322035,29.476,44.7457627118644,29.549333333333333,45.762711864406775,29.695999999999998C46.77966101694915,29.842666666666663,47.79661016949152,30.314,48.813559322033896,30.512C49.83050847457627,30.71,50.847457627118644,30.636,51.86440677966102,30.884C52.88135593220339,31.132,53.898305084745765,32.768,54.91525423728814,33.476C55.93220338983051,34.184,56.94915254237288,35.132,57.96610169491525,35.132C58.983050847457626,35.132,59.99999999999999,34.166,61.01694915254237,33.72C62.03389830508474,33.274,63.05084745762712,32.456,64.0677966101695,32.456C65.08474576271186,32.456,66.10169491525424,32.838,67.11864406779661,33.228C68.13559322033899,33.618,69.15254237288136,34.796,70.16949152542374,34.796C71.1864406779661,34.796,72.20338983050848,34.55733333333333,73.22033898305085,34.552C74.23728813559322,34.54666666666667,75.2542372881356,34.544000000000004,76.27118644067797,34.544000000000004C77.28813559322033,34.544000000000004,78.30508474576271,36.14,79.32203389830508,36.14C80.33898305084746,36.14,81.35593220338983,35.089333333333336,82.37288135593221,34.768C83.38983050847457,34.446666666666665,84.40677966101696,34.36933333333333,85.42372881355932,34.211999999999996C86.4406779661017,34.05466666666666,87.45762711864407,33.824,88.47457627118645,33.824C89.49152542372882,33.824,90.50847457627118,34.604000000000006,91.52542372881355,34.788000000000004C92.54237288135593,34.972,93.55932203389831,34.88333333333333,94.57627118644069,35.064C95.59322033898306,35.24466666666667,96.61016949152543,35.54266666666667,97.62711864406779,35.872C98.64406779661016,36.20133333333333,99.66101694915254,37.04,100.6779661016949,37.04C101.69491525423729,37.04,102.71186440677965,35.668,103.72881355932203,35.668C104.7457627118644,35.668,105.76271186440678,36.316,106.77966101694915,36.316C107.79661016949153,36.316,108.8135593220339,35.696,109.83050847457628,35.696C110.84745762711864,35.696,111.86440677966102,35.775999999999996,112.88135593220339,35.775999999999996C113.89830508474576,35.775999999999996,114.91525423728814,35.144000000000005,115.9322033898305,35.144000000000005C116.94915254237289,35.144000000000005,117.96610169491525,35.66,118.98305084745763,36.004C120,36.348,121.01694915254237,37.208,122.03389830508473,37.208C123.05084745762711,37.208,124.0677966101695,36.812000000000005,125.08474576271188,36.448C126.10169491525424,36.084,127.11864406779662,35.024,128.135593220339,35.024C129.15254237288136,35.024,130.16949152542372,35.264,131.1864406779661,35.32C132.20338983050846,35.376,133.22033898305085,35.348,134.23728813559322,35.403999999999996C135.25423728813558,35.459999999999994,136.27118644067798,35.784000000000006,137.28813559322035,35.784000000000006C138.3050847457627,35.784000000000006,139.3220338983051,35.739999999999995,140.33898305084747,35.739999999999995C141.35593220338984,35.739999999999995,142.3728813559322,37.599999999999994,143.38983050847457,37.599999999999994C144.40677966101694,37.599999999999994,145.42372881355934,35.965333333333334,146.4406779661017,35.488C147.45762711864407,35.01066666666667,148.47457627118644,34.74400000000001,149.4915254237288,34.736000000000004C150.50847457627117,34.728,151.52542372881356,34.724,152.54237288135593,34.724C153.5593220338983,34.724,154.5762711864407,34.916,155.59322033898306,34.916C156.61016949152543,34.916,157.6271186440678,34.72,158.64406779661016,34.72C159.66101694915253,34.72,160.67796610169492,35.62733333333333,161.6949152542373,36.044C162.71186440677965,36.46066666666666,163.72881355932205,37.22,164.74576271186442,37.22C165.76271186440678,37.22,166.77966101694915,36.023999999999994,167.79661016949152,35.464C168.81355932203388,34.903999999999996,169.83050847457628,33.86,170.84745762711864,33.86C171.864406779661,33.86,172.8813559322034,33.95666666666666,173.89830508474577,34.004C174.91525423728814,34.05133333333333,175.93220338983053,34.050666666666665,176.9491525423729,34.144C177.96610169491527,34.23733333333333,178.98305084745763,34.44866666666667,180,34.660000000000004L180,40C178.98305084745763,40,177.96610169491527,40,176.9491525423729,40C175.93220338983053,40,174.91525423728814,40,173.89830508474577,40C172.8813559322034,40,171.864406779661,40,170.84745762711864,40C169.83050847457628,40,168.81355932203388,40,167.79661016949152,40C166.77966101694915,40,165.76271186440678,40,164.74576271186442,40C163.72881355932205,40,162.71186440677965,40,161.6949152542373,40C160.67796610169492,40,159.66101694915253,40,158.64406779661016,40C157.6271186440678,40,156.61016949152543,40,155.59322033898306,40C154.5762711864407,40,153.5593220338983,40,152.54237288135593,40C151.52542372881356,40,150.50847457627117,40,149.4915254237288,40C148.47457627118644,40,147.45762711864407,40,146.4406779661017,40C145.42372881355934,40,144.40677966101694,40,143.38983050847457,40C142.3728813559322,40,141.35593220338984,40,140.33898305084747,40C139.3220338983051,40,138.3050847457627,40,137.28813559322035,40C136.27118644067798,40,135.25423728813558,40,134.23728813559322,40C133.22033898305085,40,132.20338983050846,40,131.1864406779661,40C130.16949152542372,40,129.15254237288136,40,128.135593220339,40C127.11864406779662,40,126.10169491525424,40,125.08474576271188,40C124.0677966101695,40,123.05084745762711,40,122.03389830508473,40C121.01694915254237,40,120,40,118.98305084745763,40C117.96610169491525,40,116.94915254237289,40,115.9322033898305,40C114.91525423728814,40,113.89830508474576,40,112.88135593220339,40C111.86440677966102,40,110.84745762711864,40,109.83050847457628,40C108.8135593220339,40,107.79661016949153,40,106.77966101694915,40C105.76271186440678,40,104.7457627118644,40,103.72881355932203,40C102.71186440677965,40,101.69491525423729,40,100.6779661016949,40C99.66101694915254,40,98.64406779661016,40,97.62711864406779,40C96.61016949152543,40,95.59322033898306,40,94.57627118644069,40C93.55932203389831,40,92.54237288135593,40,91.52542372881355,40C90.50847457627118,40,89.49152542372882,40,88.47457627118645,40C87.45762711864407,40,86.4406779661017,40,85.42372881355932,40C84.40677966101696,40,83.38983050847457,40,82.37288135593221,40C81.35593220338983,40,80.33898305084746,40,79.32203389830508,40C78.30508474576271,40,77.28813559322033,40,76.27118644067797,40C75.2542372881356,40,74.23728813559322,40,73.22033898305085,40C72.20338983050848,40,71.1864406779661,40,70.16949152542374,40C69.15254237288136,40,68.13559322033899,40,67.11864406779661,40C66.10169491525424,40,65.08474576271186,40,64.0677966101695,40C63.05084745762712,40,62.03389830508474,40,61.01694915254237,40C59.99999999999999,40,58.983050847457626,40,57.96610169491525,40C56.94915254237288,40,55.93220338983051,40,54.91525423728814,40C53.898305084745765,40,52.88135593220339,40,51.86440677966102,40C50.847457627118644,40,49.83050847457627,40,48.813559322033896,40C47.79661016949152,40,46.77966101694915,40,45.762711864406775,40C44.7457627118644,40,43.728813559322035,40,42.71186440677966,40C41.69491525423729,40,40.67796610169491,40,39.66101694915254,40C38.644067796610166,40,37.6271186440678,40,36.610169491525426,40C35.59322033898305,40,34.57627118644068,40,33.559322033898304,40C32.54237288135593,40,31.525423728813557,40,30.508474576271183,40C29.491525423728813,40,28.47457627118644,40,27.45762711864407,40C26.440677966101696,40,25.423728813559322,40,24.406779661016948,40C23.389830508474574,40,22.372881355932204,40,21.35593220338983,40C20.338983050847457,40,19.322033898305087,40,18.305084745762713,40C17.28813559322034,40,16.271186440677965,40,15.254237288135592,40C14.23728813559322,40,13.220338983050846,40,12.203389830508474,40C11.186440677966102,40,10.169491525423728,40,9.152542372881356,40C8.135593220338983,40,7.11864406779661,40,6.101694915254237,40C5.084745762711864,40,4.067796610169491,40,3.0508474576271185,40C2.0338983050847457,40,1.0169491525423728,40,0,40Z"></path><path class="line" stroke="black" fill="none" d="M0,17.799999999999997C1.0169491525423728,17.593999999999998,2.0338983050847457,17.387999999999998,3.0508474576271185,17.387999999999998C4.067796610169491,17.387999999999998,5.084745762711864,19.196,6.101694915254237,19.82C7.11864406779661,20.444,8.135593220338983,20.428666666666665,9.152542372881356,21.131999999999998C10.169491525423728,21.83533333333333,11.186440677966102,22.738,12.203389830508474,24.04C13.220338983050846,25.342,14.23728813559322,28.944000000000003,15.254237288135592,28.944000000000003C16.271186440677965,28.944000000000003,17.28813559322034,24.900000000000002,18.305084745762713,24.588C19.322033898305087,24.276,20.338983050847457,24.306666666666665,21.35593220338983,24.119999999999997C22.372881355932204,23.93333333333333,23.389830508474574,23.468,24.406779661016948,23.468C25.423728813559322,23.468,26.440677966101696,25.360000000000007,27.45762711864407,25.864000000000004C28.47457627118644,26.368,29.491525423728813,26.116000000000003,30.508474576271183,26.619999999999997C31.525423728813557,27.123999999999995,32.54237288135593,28.272666666666666,33.559322033898304,29.308C34.57627118644068,30.343333333333334,35.59322033898305,32.832,36.610169491525426,32.832C37.6271186440678,32.832,38.644067796610166,31.263333333333335,39.66101694915254,30.704C40.67796610169491,30.144666666666666,41.69491525423729,29.476,42.71186440677966,29.476C43.728813559322035,29.476,44.7457627118644,29.549333333333333,45.762711864406775,29.695999999999998C46.77966101694915,29.842666666666663,47.79661016949152,30.314,48.813559322033896,30.512C49.83050847457627,30.71,50.847457627118644,30.636,51.86440677966102,30.884C52.88135593220339,31.132,53.898305084745765,32.768,54.91525423728814,33.476C55.93220338983051,34.184,56.94915254237288,35.132,57.96610169491525,35.132C58.983050847457626,35.132,59.99999999999999,34.166,61.01694915254237,33.72C62.03389830508474,33.274,63.05084745762712,32.456,64.0677966101695,32.456C65.08474576271186,32.456,66.10169491525424,32.838,67.11864406779661,33.228C68.13559322033899,33.618,69.15254237288136,34.796,70.16949152542374,34.796C71.1864406779661,34.796,72.20338983050848,34.55733333333333,73.22033898305085,34.552C74.23728813559322,34.54666666666667,75.2542372881356,34.544000000000004,76.27118644067797,34.544000000000004C77.28813559322033,34.544000000000004,78.30508474576271,36.14,79.32203389830508,36.14C80.33898305084746,36.14,81.35593220338983,35.089333333333336,82.37288135593221,34.768C83.38983050847457,34.446666666666665,84.40677966101696,34.36933333333333,85.42372881355932,34.211999999999996C86.4406779661017,34.05466666666666,87.45762711864407,33.824,88.47457627118645,33.824C89.49152542372882,33.824,90.50847457627118,34.604000000000006,91.52542372881355,34.788000000000004C92.54237288135593,34.972,93.55932203389831,34.88333333333333,94.57627118644069,35.064C95.59322033898306,35.24466666666667,96.61016949152543,35.54266666666667,97.62711864406779,35.872C98.64406779661016,36.20133333333333,99.66101694915254,37.04,100.6779661016949,37.04C101.69491525423729,37.04,102.71186440677965,35.668,103.72881355932203,35.668C104.7457627118644,35.668,105.76271186440678,36.316,106.77966101694915,36.316C107.79661016949153,36.316,108.8135593220339,35.696,109.83050847457628,35.696C110.84745762711864,35.696,111.86440677966102,35.775999999999996,112.88135593220339,35.775999999999996C113.89830508474576,35.775999999999996,114.91525423728814,35.144000000000005,115.9322033898305,35.144000000000005C116.94915254237289,35.144000000000005,117.96610169491525,35.66,118.98305084745763,36.004C120,36.348,121.01694915254237,37.208,122.03389830508473,37.208C123.05084745762711,37.208,124.0677966101695,36.812000000000005,125.08474576271188,36.448C126.10169491525424,36.084,127.11864406779662,35.024,128.135593220339,35.024C129.15254237288136,35.024,130.16949152542372,35.264,131.1864406779661,35.32C132.20338983050846,35.376,133.22033898305085,35.348,134.23728813559322,35.403999999999996C135.25423728813558,35.459999999999994,136.27118644067798,35.784000000000006,137.28813559322035,35.784000000000006C138.3050847457627,35.784000000000006,139.3220338983051,35.739999999999995,140.33898305084747,35.739999999999995C141.35593220338984,35.739999999999995,142.3728813559322,37.599999999999994,143.38983050847457,37.599999999999994C144.40677966101694,37.599999999999994,145.42372881355934,35.965333333333334,146.4406779661017,35.488C147.45762711864407,35.01066666666667,148.47457627118644,34.74400000000001,149.4915254237288,34.736000000000004C150.50847457627117,34.728,151.52542372881356,34.724,152.54237288135593,34.724C153.5593220338983,34.724,154.5762711864407,34.916,155.59322033898306,34.916C156.61016949152543,34.916,157.6271186440678,34.72,158.64406779661016,34.72C159.66101694915253,34.72,160.67796610169492,35.62733333333333,161.6949152542373,36.044C162.71186440677965,36.46066666666666,163.72881355932205,37.22,164.74576271186442,37.22C165.76271186440678,37.22,166.77966101694915,36.023999999999994,167.79661016949152,35.464C168.81355932203388,34.903999999999996,169.83050847457628,33.86,170.84745762711864,33.86C171.864406779661,33.86,172.8813559322034,33.95666666666666,173.89830508474577,34.004C174.91525423728814,34.05133333333333,175.93220338983053,34.050666666666665,176.9491525423729,34.144C177.96610169491527,34.23733333333333,178.98305084745763,34.44866666666667,180,34.660000000000004"></path><path class="axis-ceiling" stroke-width="1" stroke="black" fill="none" d="M175,0L180,0"></path><text class="axis-ceiling-label" font-family="sans-serif" text-anchor="end" font-size="10px" x="170" y="2.5">10000</text></g></svg>