<svg xmlns="http://www.w3.org/2000/svg" viewBox="0 0 180 60"><g transform="translate(0,20)"><path class="area" fill="rgba(0, 0, 0, 0.2)" d="M0,37.93444883123394C1.0169491525423728,37.92713751540599,2.0338983050847457,37.91982619957803,3.0508474576271185,37.891834304693866C4.067796610169491,37.8638424098097,5.084745762711864,37.802427356854885,6.101694915254237,37.766497461928935C7.11864406779661,37.730567567002986,8.135593220338983,37.7080069353053,9.152542372881356,37.67625493513818C10.169491525423728,37.644502934971065,11.186440677966102,37.61525767165925,12.203389830508474,37.57598546092624C13.220338983050846,37.53671325019323,14.23728813559322,37.47864051304548,15.254237288135592,37.440621670740114C16.271186440677965,37.40260282843475,17.28813559322034,37.38213114411648,18.305084745762713,37.347872407094066C19.322033898305087,37.31361367007165,20.338983050847457,37.27058135405569,21.35593220338983,37.235069248605626C22.372881355932204,37.19955714315556,23.389830508474574,37.18200998516848,24.406779661016948,37.134799774393684C25.423728813559322,37.08758956361889,26.440677966101696,37.02283219485701,27.45762711864407,36.95180798395688C28.47457627118644,36.880783773056756,29.491525423728813,36.79221240416953,30.508474576271183,36.708654508992915C31.525423728813557,36.6250966138163,32.54237288135593,36.541120929163796,33.559322033898304,36.45046061289716C34.57627118644068,36.359800296630524,35.59322033898305,36.29504292786865,36.610169491525426,36.16469261139312C37.6271186440678,36.03434229491759,38.644067796610166,35.82586534645193,39.66101694915254,35.668358714044C40.67796610169491,35.51085208163607,41.69491525423729,35.333291554385745,42.71186440677966,35.21965281694554C43.728813559322035,35.106014079505336,44.7457627118644,35.13233481648597,45.762711864406775,34.98652628940277C46.77966101694915,34.840717762319564,47.79661016949152,34.56873681351966,48.813559322033896,34.34480165444632C49.83050847457627,34.12086649537298,50.847457627118644,33.878548599360784,51.86440677966102,33.642915334962716C52.88135593220339,33.40728207056465,53.898305084745765,33.190031543105434,54.91525423728814,32.93100206805791C55.93220338983051,32.67197259301038,56.94915254237288,32.38411564412692,57.96610169491525,32.08873848467757C58.983050847457626,31.79336132522822,59.99999999999999,31.460383112949383,61.01694915254237,31.158739111361786C62.03389830508474,30.857095109774185,63.05084745762712,30.52328131854359,64.0677966101695,30.278874475151973C65.08474576271186,30.034467631760357,66.10169491525424,29.94631405234902,67.11864406779661,29.692298051012095C68.13559322033899,29.438282049675166,69.15254237288136,29.134966890184035,70.16949152542374,28.75477846713041C71.1864406779661,28.37459004407679,72.20338983050848,27.88326962043826,73.22033898305085,27.411167512690355C74.23728813559322,26.93906540494245,75.2542372881356,26.436464665455077,76.27118644067797,25.922165820642977C77.28813559322033,25.407866975830878,78.30508474576271,24.884376762549348,79.32203389830508,24.325374443817758C80.33898305084746,23.766372125086164,81.35593220338983,23.077855068830814,82.37288135593221,22.56815190825343C83.38983050847457,22.058448747676046,84.40677966101696,21.60765390319818,85.42372881355932,21.267155480353452C86.4406779661017,20.92665705750872,87.45762711864407,20.859810741367426,88.47457627118645,20.525161371185057C89.49152542372882,20.19051200100269,90.50847457627118,19.703369472122993,91.52542372881355,19.25925925925926C92.54237288135593,18.81514904639552,93.55932203389831,18.32842430699171,94.57627118644069,17.86050009400263C95.59322033898306,17.39257588101356,96.61016949152543,16.919638194313887,97.62711864406779,16.45171398132481C98.64406779661016,15.983789768335736,99.66101694915254,15.5321593449061,100.6779661016949,15.052954816068183C101.69491525423729,14.573750287230263,102.71186440677965,13.974640178813898,103.72881355932203,13.5764868082973C104.7457627118644,13.178333437780704,105.76271186440678,12.959411752417958,106.77966101694915,12.664034592968605C107.79661016949153,12.36865743351925,108.8135593220339,12.107539011092308,109.83050847457628,11.804223851601176C110.84745762711864,11.500908692110045,111.86440677966102,11.170855006162396,112.88135593220339,10.84414363602181C113.89830508474576,10.517432265881224,114.91525423728814,10.191974264168287,115.9322033898305,9.843955630757662C116.94915254237289,9.495936997347037,117.96610169491525,9.09653025840279,118.98305084745763,8.75603183555806C120,8.415533412713334,121.01694915254237,8.093835516283344,122.03389830508473,7.800965093689292C123.05084745762711,7.508094671095234,124.0677966101695,7.221491090639429,125.08474576271188,6.9988092999937335C126.10169491525424,6.776127509348041,127.11864406779662,6.624887719078355,128.135593220339,6.464874349815126C129.15254237288136,6.304860980551898,130.16949152542372,6.228823295941173,131.1864406779661,6.038729084414363C132.20338983050846,5.84863487288755,133.22033898305085,5.53487497649934,134.23728813559322,5.324309080654257C135.25423728813558,5.113743184809174,136.27118644067798,4.947462973407699,137.28813559322035,4.775333709343861C138.3050847457627,4.6032044452800225,139.3220338983051,4.486223392032754,140.33898305084747,4.291533496271227C141.35593220338984,4.096843600509702,142.3728813559322,3.848258862359257,143.38983050847457,3.607194334774708C144.40677966101694,3.3661298071901573,145.42372881355934,3.0548766476572458,146.4406779661017,2.845146330763928C147.45762711864407,2.635416013870612,148.47457627118644,2.501305592112136,149.4915254237288,2.348812433414804C150.50847457627117,2.196319274717471,151.52542372881356,2.052181905537799,152.54237288135593,1.9301873785799328C153.5593220338983,1.8081928516220664,154.5762711864407,1.7112656932171881,155.59322033898306,1.6168452716676063C156.61016949152543,1.5224248501180253,157.6271186440678,1.4468049549831812,158.64406779661016,1.3636648492824444C159.66101694915253,1.2805247435817069,160.67796610169492,1.1961312694533237,161.6949152542373,1.1180046374631836C162.71186440677965,1.0398780054730434,163.72881355932205,0.9797163209458741,164.74576271186442,0.894905057341604C165.76271186440678,0.8100937937373346,166.77966101694915,0.6855925299241725,167.79661016949152,0.6091370558375653C168.81355932203388,0.5326815817509573,169.83050847457628,0.4808756867414517,170.84745762711864,0.43617221282195917C171.864406779661,0.39146873890246664,172.8813559322034,0.39313989680599776,173.89830508474577,0.34091621232061C174.91525423728814,0.2886925278352222,175.93220338983053,0.1796494746297344,176.9491525423729,0.12283010590963261C177.96610169491527,0.06601073718953136,178.98305084745763,0.03300536859476568,180,0L180,40C178.98305084745763,40,177.96610169491527,40,176.9491525423729,40C175.93220338983053,40,174.91525423728814,40,173.89830508474577,40C172.8813559322034,40,171.864406779661,40,170.84745762711864,40C169.83050847457628,40,168.81355932203388,40,167.79661016949152,40C166.77966101694915,40,165.76271186440678,40,164.74576271186442,40C163.72881355932205,40,162.71186440677965,40,161.6949152542373,40C160.67796610169492,40,159.66101694915253,40,158.64406779661016,40C157.6271186440678,40,156.61016949152543,40,155.59322033898306,40C154.5762711864407,40,153.5593220338983,40,152.54237288135593,40C151.52542372881356,40,150.50847457627117,40,149.4915254237288,40C148.47457627118644,40,147.45762711864407,40,146.4406779661017,40C145.42372881355934,40,144.40677966101694,40,143.38983050847457,40C142.3728813559322,40,141.35593220338984,40,140.33898305084747,40C139.3220338983051,40,138.3050847457627,40,137.28813559322035,40C136.27118644067798,40,135.25423728813558,40,134.23728813559322,40C133.22033898305085,40,132.20338983050846,40,131.1864406779661,40C130.16949152542372,40,129.15254237288136,40,128.135593220339,40C127.11864406779662,40,126.10169491525424,40,125.08474576271188,40C124.0677966101695,40,123.05084745762711,40,122.03389830508473,40C121.01694915254237,40,120,40,118.98305084745763,40C117.96610169491525,40,116.94915254237289,40,115.9322033898305,40C114.91525423728814,40,113.89830508474576,40,112.88135593220339,40C111.86440677966102,40,110.84745762711864,40,109.83050847457628,40C108.8135593220339,40,107.79661016949153,40,106.77966101694915,40C105.76271186440678,40,104.7457627118644,40,103.72881355932203,40C102.71186440677965,40,101.69491525423729,40,100.6779661016949,40C99.66101694915254,40,98.64406779661016,40,97.62711864406779,40C96.61016949152543,40,95.59322033898306,40,94.57627118644069,40C93.55932203389831,40,92.54237288135593,40,91.52542372881355,40C90.50847457627118,40,89.49152542372882,40,88.47457627118645,40C87.45762711864407,40,86.4406779661017,40,85.42372881355932,40C84.40677966101696,40,83.38983050847457,40,82.37288135593221,40C81.35593220338983,40,80.33898305084746,40,79.32203389830508,40C78.30508474576271,40,77.28813559322033,40,76.27118644067797,40C75.2542372881356,40,74.23728813559322,40,73.22033898305085,40C72.20338983050848,40,71.1864406779661,40,70.16949152542374,40C69.15254237288136,40,68.13559322033899,40,67.11864406779661,40C66.10169491525424,40,65.08474576271186,40,64.0677966101695,40C63.05084745762712,40,62.03389830508474,40,61.01694915254237,40C59.99999999999999,40,58.983050847457626,40,57.96610169491525,40C56.94915254237288,40,55.93220338983051,40,54.91525423728814,40C53.898305084745765,40,52.88135593220339,40,51.86440677966102,40C50.847457627118644,40,49.83050847457627,40,48.813559322033896,40C47.79661016949152,40,46.77966101694915,40,45.762711864406775,40C44.7457627118644,40,43.728813559322035,40,42.71186440677966,40C41.69491525423729,40,40.67796610169491,40,39.66101694915254,40C38.644067796610166,40,37.6271186440678,40,36.610169491525426,40C35.59322033898305,40,34.57627118644068,40,33.559322033898304,40C32.54237288135593,40,31.525423728813557,40,30.508474576271183,40C29.491525423728813,40,28.47457627118644,40,27.45762711864407,40C26.440677966101696,40,25.423728813559322,40,24.406779661016948,40C23.389830508474574,40,22.372881355932204,40,21.35593220338983,40C20.338983050847457,40,19.322033898305087,40,18.305084745762713,40C17.28813559322034,40,16.271186440677965,40,15.254237288135592,40C14.23728813559322,40,13.220338983050846,40,12.203389830508474,40C11.186440677966102,40,10.169491525423728,40,9.152542372881356,40C8.135593220338983,40,7.11864406779661,40,6.101694915254237,40C5.084745762711864,40,4.067796610169491,40,3.0508474576271185,40C2.0338983050847457,40,1.0169491525423728,40,0,40Z"></path><path class="line" stroke="black" fill="none" d="M0,37.93444883123394C1.0169491525423728,37.92713751540599,2.0338983050847457,37.91982619957803,3.0508474576271185,37.891834304693866C4.067796610169491,37.8638424098097,5.084745762711864,37.802427356854885,6.101694915254237,37.766497461928935C7.11864406779661,37.730567567002986,8.135593220338983,37.7080069353053,9.152542372881356,37.67625493513818C10.169491525423728,37.644502934971065,11.186440677966102,37.61525767165925,12.203389830508474,37.57598546092624C13.220338983050846,37.53671325019323,14.23728813559322,37.47864051304548,15.254237288135592,37.440621670740114C16.271186440677965,37.40260282843475,17.28813559322034,37.38213114411648,18.305084745762713,37.347872407094066C19.322033898305087,37.31361367007165,20.338983050847457,37.27058135405569,21.35593220338983,37.235069248605626C22.372881355932204,37.19955714315556,23.389830508474574,37.18200998516848,24.406779661016948,37.134799774393684C25.423728813559322,37.08758956361889,26.440677966101696,37.02283219485701,27.45762711864407,36.95180798395688C28.47457627118644,36.880783773056756,29.491525423728813,36.79221240416953,30.508474576271183,36.708654508992915C31.525423728813557,36.6250966138163,32.54237288135593,36.541120929163796,33.559322033898304,36.45046061289716C34.57627118644068,36.359800296630524,35.59322033898305,36.29504292786865,36.610169491525426,36.16469261139312C37.6271186440678,36.03434229491759,38.644067796610166,35.82586534645193,39.66101694915254,35.668358714044C40.67796610169491,35.51085208163607,41.69491525423729,35.333291554385745,42.71186440677966,35.21965281694554C43.728813559322035,35.106014079505336,44.7457627118644,35.13233481648597,45.762711864406775,34.98652628940277C46.77966101694915,34.840717762319564,47.79661016949152,34.56873681351966,48.813559322033896,34.34480165444632C49.83050847457627,34.12086649537298,50.847457627118644,33.878548599360784,51.86440677966102,33.642915334962716C52.88135593220339,33.40728207056465,53.898305084745765,33.190031543105434,54.91525423728814,32.93100206805791C55.93220338983051,32.67197259301038,56.94915254237288,32.38411564412692,57.96610169491525,32.08873848467757C58.983050847457626,31.79336132522822,59.99999999999999,31.460383112949383,61.01694915254237,31.158739111361786C62.03389830508474,30.857095109774185,63.05084745762712,30.52328131854359,64.0677966101695,30.278874475151973C65.08474576271186,30.034467631760357,66.10169491525424,29.94631405234902,67.11864406779661,29.692298051012095C68.13559322033899,29.438282049675166,69.15254237288136,29.134966890184035,70.16949152542374,28.75477846713041C71.1864406779661,28.37459004407679,72.20338983050848,27.88326962043826,73.22033898305085,27.411167512690355C74.23728813559322,26.93906540494245,75.2542372881356,26.436464665455077,76.27118644067797,25.922165820642977C77.28813559322033,25.407866975830878,78.30508474576271,24.884376762549348,79.32203389830508,24.325374443817758C80.33898305084746,23.766372125086164,81.35593220338983,23.077855068830814,82.37288135593221,22.56815190825343C83.38983050847457,22.058448747676046,84.40677966101696,21.60765390319818,85.42372881355932,21.267155480353452C86.4406779661017,20.92665705750872,87.45762711864407,20.859810741367426,88.47457627118645,20.525161371185057C89.49152542372882,20.19051200100269,90.50847457627118,19.703369472122993,91.52542372881355,19.25925925925926C92.54237288135593,18.81514904639552,93.55932203389831,18.32842430699171,94.57627118644069,17.86050009400263C95.59322033898306,17.39257588101356,96.61016949152543,16.919638194313887,97.62711864406779,16.45171398132481C98.64406779661016,15.983789768335736,99.66101694915254,15.5321593449061,100.6779661016949,15.052954816068183C101.69491525423729,14.573750287230263,102.71186440677965,13.974640178813898,103.72881355932203,13.5764868082973C104.7457627118644,13.178333437780704,105.76271186440678,12.959411752417958,106.77966101694915,12.664034592968605C107.79661016949153,12.36865743351925,108.8135593220339,12.107539011092308,109.83050847457628,11.804223851601176C110.84745762711864,11.500908692110045,111.86440677966102,11.170855006162396,112.88135593220339,10.84414363602181C113.89830508474576,10.517432265881224,114.91525423728814,10.191974264168287,115.9322033898305,9.843955630757662C116.94915254237289,9.495936997347037,117.96610169491525,9.09653025840279,118.98305084745763,8.75603183555806C120,8.415533412713334,121.01694915254237,8.093835516283344,122.03389830508473,7.800965093689292C123.05084745762711,7.508094671095234,124.0677966101695,7.221491090639429,125.08474576271188,6.9988092999937335C126.10169491525424,6.776127509348041,127.11864406779662,6.624887719078355,128.135593220339,6.464874349815126C129.15254237288136,6.304860980551898,130.16949152542372,6.228823295941173,131.1864406779661,6.038729084414363C132.20338983050846,5.84863487288755,133.22033898305085,5.53487497649934,134.23728813559322,5.324309080654257C135.25423728813558,5.113743184809174,136.27118644067798,4.947462973407699,137.28813559322035,4.775333709343861C138.3050847457627,4.6032044452800225,139.3220338983051,4.486223392032754,140.33898305084747,4.291533496271227C141.35593220338984,4.096843600509702,142.3728813559322,3.848258862359257,143.38983050847457,3.607194334774708C144.40677966101694,3.3661298071901573,145.42372881355934,3.0548766476572458,146.4406779661017,2.845146330763928C147.45762711864407,2.635416013870612,148.47457627118644,2.501305592112136,149.4915254237288,2.348812433414804C150.50847457627117,2.196319274717471,151.52542372881356,2.052181905537799,152.54237288135593,1.9301873785799328C153.5593220338983,1.8081928516220664,154.5762711864407,1.7112656932171881,155.59322033898306,1.6168452716676063C156.61016949152543,1.5224248501180253,157.6271186440678,1.4468049549831812,158.64406779661016,1.3636648492824444C159.66101694915253,1.2805247435817069,160.67796610169492,1.1961312694533237,161.6949152542373,1.1180046374631836C162.71186440677965,1.0398780054730434,163.72881355932205,0.9797163209458741,164.74576271186442,0.894905057341604C165.76271186440678,0.8100937937373346,166.77966101694915,0.6855925299241725,167.79661016949152,0.6091370558375653C168.81355932203388,0.5326815817509573,169.83050847457628,0.4808756867414517,170.84745762711864,0.43617221282195917C171.864406779661,0.39146873890246664,172.8813559322034,0.39313989680599776,173.89830508474577,0.34091621232061C174.91525423728814,0.2886925278352222,175.93220338983053,0.1796494746297344,176.9491525423729,0.12283010590963261C177.96610169491527,0.06601073718953136,178.98305084745763,0.03300536859476568,180,0"></path><path class="axis-ceiling" stroke-width="1" stroke="black" fill="none" d="M175,-11.989722378893273L180,-11.989722378893273"></path><text class="axis-ceiling-label" font-family="sans-serif" text-anchor="end" font-size="10px" x="170" y="-9.489722378893273">20740</text></g></svg>