<svg xmlns="http://www.w3.org/2000/svg" viewBox="0 0 180 60"><g transform="translate(0,20)"><path class="area" fill="rgba(0, 0, 0, 0.2)" d="M0,4.92C1.0169491525423728,5.042222222222222,2.0338983050847457,5.164444444444444,3.0508474576271185,5.653333333333332C4.067796610169491,6.1422222222222205,5.084745762711864,7.713333333333335,6.101694915254237,8.373333333333335C7.11864406779661,9.033333333333335,8.135593220338983,8.786666666666667,9.152542372881356,9.613333333333332C10.169491525423728,10.439999999999996,11.186440677966102,15.893333333333334,12.203389830508474,18.253333333333334C13.220338983050846,20.613333333333333,14.23728813559322,23.773333333333333,15.254237288135592,23.773333333333333C16.271186440677965,23.773333333333333,17.28813559322034,20.553333333333335,18.305084745762713,19.066666666666666C19.322033898305087,17.580000000000002,20.338983050847457,14.853333333333332,21.35593220338983,14.853333333333332C22.372881355932204,14.853333333333332,23.389830508474574,16.126666666666665,24.406779661016948,17.426666666666666C25.423728813559322,18.726666666666667,26.440677966101696,22.653333333333336,27.45762711864407,22.653333333333336C28.47457627118644,22.653333333333336,29.491525423728813,21.857777777777784,30.508474576271183,21.840000000000003C31.525423728813557,21.822222222222223,32.54237288135593,21.813333333333333,33.559322033898304,21.813333333333333C34.57627118644068,21.813333333333333,35.59322033898305,27.133333333333333,36.610169491525426,27.133333333333333C37.6271186440678,27.133333333333333,38.644067796610166,23.631111111111114,39.66101694915254,22.560000000000002C40.67796610169491,21.48888888888889,41.69491525423729,21.231111111111115,42.71186440677966,20.70666666666667C43.728813559322035,20.182222222222226,44.7457627118644,19.41333333333333,45.762711864406775,19.41333333333333C46.77966101694915,19.41333333333333,47.79661016949152,22.013333333333332,48.813559322033896,22.626666666666665C49.83050847457627,23.24,50.847457627118644,22.944444444444443,51.86440677966102,23.546666666666667C52.88135593220339,24.14888888888889,53.898305084745765,25.142222222222223,54.91525423728814,26.240000000000002C55.93220338983051,27.337777777777777,56.94915254237288,30.133333333333333,57.96610169491525,30.133333333333333C58.983050847457626,30.133333333333333,59.99999999999999,25.560000000000002,61.01694915254237,25.560000000000002C62.03389830508474,25.560000000000002,63.05084745762712,27.720000000000002,64.0677966101695,27.720000000000002C65.08474576271186,27.720000000000002,66.10169491525424,25.653333333333332,67.11864406779661,25.653333333333332C68.13559322033899,25.653333333333332,69.15254237288136,25.92,70.16949152542374,25.92C71.1864406779661,25.92,72.20338983050848,23.813333333333333,73.22033898305085,23.813333333333333C74.23728813559322,23.813333333333333,75.2542372881356,25.533333333333335,76.27118644067797,26.68C77.28813559322033,27.826666666666664,78.30508474576271,30.69333333333333,79.32203389830508,30.69333333333333C80.33898305084746,30.69333333333333,81.35593220338983,29.373333333333335,82.37288135593221,28.159999999999997C83.38983050847457,26.946666666666665,84.40677966101696,23.41333333333333,85.42372881355932,23.41333333333333C86.4406779661017,23.41333333333333,87.45762711864407,24.21333333333333,88.47457627118645,24.4C89.49152542372882,24.586666666666666,90.50847457627118,24.493333333333332,91.52542372881355,24.68C92.54237288135593,24.86666666666667,93.55932203389831,25.94666666666667,94.57627118644069,25.94666666666667C95.59322033898306,25.94666666666667,96.61016949152543,25.8,97.62711864406779,25.8C98.64406779661016,25.8,99.66101694915254,32,100.6779661016949,32C101.69491525423729,32,102.71186440677965,26.551111111111112,103.72881355932203,24.96C104.7457627118644,23.368888888888897,105.76271186440678,22.48,106.77966101694915,22.453333333333333C107.79661016949153,22.426666666666666,108.8135593220339,22.413333333333334,109.83050847457628,22.413333333333334C110.84745762711864,22.413333333333334,111.86440677966102,23.053333333333335,112.88135593220339,23.053333333333335C113.89830508474576,23.053333333333335,114.91525423728814,22.400000000000002,115.9322033898305,22.400000000000002C116.94915254237289,22.400000000000002,117.96610169491525,25.42444444444444,118.98305084745763,26.813333333333333C120,28.202222222222215,121.01694915254237,30.733333333333334,122.03389830508473,30.733333333333334C123.05084745762711,30.733333333333334,124.0677966101695,26.746666666666673,125.08474576271188,24.88C126.10169491525424,23.013333333333343,127.11864406779662,19.53333333333333,128.135593220339,19.53333333333333C129.15254237288136,19.53333333333333,130.16949152542372,19.855555555555554,131.1864406779661,20.013333333333332C132.20338983050846,20.17111111111111,133.22033898305085,20.48,134.23728813559322,20.48C135.25423728813558,20.48,136.27118644067798,19.773333333333333,137.28813559322035,19.773333333333333C138.3050847457627,19.773333333333333,139.3220338983051,23.535555555555547,140.33898305084747,25.08C141.35593220338984,26.624444444444432,142.3728813559322,29.04,143.38983050847457,29.04C144.40677966101694,29.04,145.42372881355934,22.39555555555556,146.4406779661017,19.96C147.45762711864407,17.524444444444462,148.47457627118644,14.426666666666668,149.4915254237288,14.426666666666668C150.50847457627117,14.426666666666668,151.52542372881356,14.44,152.54237288135593,14.44C153.5593220338983,14.44,154.5762711864407,13.333333333333332,155.59322033898306,12.986666666666666C156.61016949152543,12.640000000000002,157.6271186440678,12.360000000000003,158.64406779661016,12.360000000000003C159.66101694915253,12.360000000000003,160.67796610169492,14.582222222222224,161.6949152542373,16.200000000000003C162.71186440677965,17.81777777777778,163.72881355932205,22.06666666666667,164.74576271186442,22.06666666666667C165.76271186440678,22.06666666666667,166.77966101694915,15.502222222222208,167.79661016949152,12.173333333333334C168.81355932203388,8.844444444444429,169.83050847457628,2.0933333333333337,170.84745762711864,2.0933333333333337C171.864406779661,2.0933333333333337,172.8813559322034,5.253333333333332,173.89830508474577,5.253333333333332C174.91525423728814,5.253333333333332,175.93220338983053,3.2399999999999984,176.9491525423729,3.2399999999999984C177.96610169491527,3.2399999999999984,178.98305084745763,13.819999999999997,180,24.4L180,40C178.98305084745763,40,177.96610169491527,40,176.9491525423729,40C175.93220338983053,40,174.91525423728814,40,173.89830508474577,40C172.8813559322034,40,171.864406779661,40,170.84745762711864,40C169.83050847457628,40,168.81355932203388,40,167.79661016949152,40C166.77966101694915,40,165.76271186440678,40,164.74576271186442,40C163.72881355932205,40,162.71186440677965,40,161.6949152542373,40C160.67796610169492,40,159.66101694915253,40,158.64406779661016,40C157.6271186440678,40,156.61016949152543,40,155.59322033898306,40C154.5762711864407,40,153.5593220338983,40,152.54237288135593,40C151.52542372881356,40,150.50847457627117,40,149.4915254237288,40C148.47457627118644,40,147.45762711864407,40,146.4406779661017,40C145.42372881355934,40,144.40677966101694,40,143.38983050847457,40C142.3728813559322,40,141.35593220338984,40,140.33898305084747,40C139.3220338983051,40,138.3050847457627,40,137.28813559322035,40C136.27118644067798,40,135.25423728813558,40,134.23728813559322,40C133.22033898305085,40,132.20338983050846,40,131.1864406779661,40C130.16949152542372,40,129.15254237288136,40,128.135593220339,40C127.11864406779662,40,126.10169491525424,40,125.08474576271188,40C124.0677966101695,40,123.05084745762711,40,122.03389830508473,40C121.01694915254237,40,120,40,118.98305084745763,40C117.96610169491525,40,116.94915254237289,40,115.9322033898305,40C114.91525423728814,40,113.89830508474576,40,112.88135593220339,40C111.86440677966102,40,110.84745762711864,40,109.83050847457628,40C108.8135593220339,40,107.79661016949153,40,106.77966101694915,40C105.76271186440678,40,104.7457627118644,40,103.72881355932203,40C102.71186440677965,40,101.69491525423729,40,100.6779661016949,40C99.66101694915254,40,98.64406779661016,40,97.62711864406779,40C96.61016949152543,40,95.59322033898306,40,94.57627118644069,40C93.55932203389831,40,92.54237288135593,40,91.52542372881355,40C90.50847457627118,40,89.49152542372882,40,88.47457627118645,40C87.45762711864407,40,86.4406779661017,40,85.42372881355932,40C84.40677966101696,40,83.38983050847457,40,82.37288135593221,40C81.35593220338983,40,80.33898305084746,40,79.32203389830508,40C78.30508474576271,40,77.28813559322033,40,76.27118644067797,40C75.2542372881356,40,74.23728813559322,40,73.22033898305085,40C72.20338983050848,40,71.1864406779661,40,70.16949152542374,40C69.15254237288136,40,68.13559322033899,40,67.11864406779661,40C66.10169491525424,40,65.08474576271186,40,64.0677966101695,40C63.05084745762712,40,62.03389830508474,40,61.01694915254237,40C59.99999999999999,40,58.983050847457626,40,57.96610169491525,40C56.94915254237288,40,55.93220338983051,40,54.91525423728814,40C53.898305084745765,40,52.88135593220339,40,51.86440677966102,40C50.847457627118644,40,49.83050847457627,40,48.813559322033896,40C47.79661016949152,40,46.77966101694915,40,45.762711864406775,40C44.7457627118644,40,43.728813559322035,40,42.71186440677966,40C41.69491525423729,40,40.67796610169491,40,39.66101694915254,40C38.644067796610166,40,37.6271186440678,40,36.610169491525426,40C35.59322033898305,40,34.57627118644068,40,33.559322033898304,40C32.54237288135593,40,31.525423728813557,40,30.508474576271183,40C29.491525423728813,40,28.47457627118644,40,27.45762711864407,40C26.440677966101696,40,25.423728813559322,40,24.406779661016948,40C23.389830508474574,40,22.372881355932204,40,21.35593220338983,40C20.338983050847457,40,19.322033898305087,40,18.305084745762713,40C17.28813559322034,40,16.271186440677965,40,15.254237288135592,40C14.23728813559322,40,13.220338983050846,40,12.203389830508474,40C11.186440677966102,40,10.169491525423728,40,9.152542372881356,40C8.135593220338983,40,7.11864406779661,40,6.101694915254237,40C5.084745762711864,40,4.067796610169491,40,3.0508474576271185,40C2.0338983050847457,40,1.0169491525423728,40,0,40Z"></path><path class="line" stroke="black" fill="none" d="M0,4.92C1.0169491525423728,5.042222222222222,2.0338983050847457,5.164444444444444,3.0508474576271185,5.653333333333332C4.067796610169491,6.1422222222222205,5.084745762711864,7.713333333333335,6.101694915254237,8.373333333333335C7.11864406779661,9.033333333333335,8.135593220338983,8.786666666666667,9.152542372881356,9.613333333333332C10.169491525423728,10.439999999999996,11.186440677966102,15.893333333333334,12.203389830508474,18.253333333333334C13.220338983050846,20.613333333333333,14.23728813559322,23.773333333333333,15.254237288135592,23.773333333333333C16.271186440677965,23.773333333333333,17.28813559322034,20.553333333333335,18.305084745762713,19.066666666666666C19.322033898305087,17.580000000000002,20.338983050847457,14.853333333333332,21.35593220338983,14.853333333333332C22.372881355932204,14.853333333333332,23.389830508474574,16.126666666666665,24.406779661016948,17.426666666666666C25.423728813559322,18.726666666666667,26.440677966101696,22.653333333333336,27.45762711864407,22.653333333333336C28.47457627118644,22.653333333333336,29.491525423728813,21.857777777777784,30.508474576271183,21.840000000000003C31.525423728813557,21.822222222222223,32.54237288135593,21.813333333333333,33.559322033898304,21.813333333333333C34.57627118644068,21.813333333333333,35.59322033898305,27.133333333333333,36.610169491525426,27.133333333333333C37.6271186440678,27.133333333333333,38.644067796610166,23.631111111111114,39.66101694915254,22.560000000000002C40.67796610169491,21.48888888888889,41.69491525423729,21.231111111111115,42.71186440677966,20.70666666666667C43.728813559322035,20.182222222222226,44.7457627118644,19.41333333333333,45.762711864406775,19.41333333333333C46.77966101694915,19.41333333333333,47.79661016949152,22.013333333333332,48.813559322033896,22.626666666666665C49.83050847457627,23.24,50.847457627118644,22.944444444444443,51.86440677966102,23.546666666666667C52.88135593220339,24.14888888888889,53.898305084745765,25.142222222222223,54.91525423728814,26.240000000000002C55.93220338983051,27.337777777777777,56.94915254237288,30.133333333333333,57.96610169491525,30.133333333333333C58.983050847457626,30.133333333333333,59.99999999999999,25.560000000000002,61.01694915254237,25.560000000000002C62.03389830508474,25.560000000000002,63.05084745762712,27.720000000000002,64.0677966101695,27.720000000000002C65.08474576271186,27.720000000000002,66.10169491525424,25.653333333333332,67.11864406779661,25.653333333333332C68.13559322033899,25.653333333333332,69.15254237288136,25.92,70.16949152542374,25.92C71.1864406779661,25.92,72.20338983050848,23.813333333333333,73.22033898305085,23.813333333333333C74.23728813559322,23.813333333333333,75.2542372881356,25.533333333333335,76.27118644067797,26.68C77.28813559322033,27.826666666666664,78.30508474576271,30.69333333333333,79.32203389830508,30.69333333333333C80.33898305084746,30.69333333333333,81.35593220338983,29.373333333333335,82.37288135593221,28.159999999999997C83.38983050847457,26.946666666666665,84.40677966101696,23.41333333333333,85.42372881355932,23.41333333333333C86.4406779661017,23.41333333333333,87.45762711864407,24.21333333333333,88.47457627118645,24.4C89.49152542372882,24.586666666666666,90.50847457627118,24.493333333333332,91.52542372881355,24.68C92.54237288135593,24.86666666666667,93.55932203389831,25.94666666666667,94.57627118644069,25.94666666666667C95.59322033898306,25.94666666666667,96.61016949152543,25.8,97.62711864406779,25.8C98.64406779661016,25.8,99.66101694915254,32,100.6779661016949,32C101.69491525423729,32,102.71186440677965,26.551111111111112,103.72881355932203,24.96C104.7457627118644,23.368888888888897,105.76271186440678,22.48,106.77966101694915,22.453333333333333C107.79661016949153,22.426666666666666,108.8135593220339,22.413333333333334,109.83050847457628,22.413333333333334C110.84745762711864,22.413333333333334,111.86440677966102,23.053333333333335,112.88135593220339,23.053333333333335C113.89830508474576,23.053333333333335,114.91525423728814,22.400000000000002,115.9322033898305,22.400000000000002C116.94915254237289,22.400000000000002,117.96610169491525,25.42444444444444,118.98305084745763,26.813333333333333C120,28.202222222222215,121.01694915254237,30.733333333333334,122.03389830508473,30.733333333333334C123.05084745762711,30.733333333333334,124.0677966101695,26.746666666666673,125.08474576271188,24.88C126.10169491525424,23.013333333333343,127.11864406779662,19.53333333333333,128.135593220339,19.53333333333333C129.15254237288136,19.53333333333333,130.16949152542372,19.855555555555554,131.1864406779661,20.013333333333332C132.20338983050846,20.17111111111111,133.22033898305085,20.48,134.23728813559322,20.48C135.25423728813558,20.48,136.27118644067798,19.773333333333333,137.28813559322035,19.773333333333333C138.3050847457627,19.773333333333333,139.3220338983051,23.535555555555547,140.33898305084747,25.08C141.35593220338984,26.624444444444432,142.3728813559322,29.04,143.38983050847457,29.04C144.40677966101694,29.04,145.42372881355934,22.39555555555556,146.4406779661017,19.96C147.45762711864407,17.524444444444462,148.47457627118644,14.426666666666668,149.4915254237288,14.426666666666668C150.50847457627117,14.426666666666668,151.52542372881356,14.44,152.54237288135593,14.44C153.5593220338983,14.44,154.5762711864407,13.333333333333332,155.59322033898306,12.986666666666666C156.61016949152543,12.640000000000002,157.6271186440678,12.360000000000003,158.64406779661016,12.360000000000003C159.66101694915253,12.360000000000003,160.67796610169492,14.582222222222224,161.6949152542373,16.200000000000003C162.71186440677965,17.81777777777778,163.72881355932205,22.06666666666667,164.74576271186442,22.06666666666667C165.76271186440678,22.06666666666667,166.77966101694915,15.502222222222208,167.79661016949152,12.173333333333334C168.81355932203388,8.844444444444429,169.83050847457628,2.0933333333333337,170.84745762711864,2.0933333333333337C171.864406779661,2.0933333333333337,172.8813559322034,5.253333333333332,173.89830508474577,5.253333333333332C174.91525423728814,5.253333333333332,175.93220338983053,3.2399999999999984,176.9491525423729,3.2399999999999984C177.96610169491527,3.2399999999999984,178.98305084745763,13.819999999999997,180,24.4"></path><path class="axis-ceiling" stroke-width="1" stroke="black" fill="none" d="M175,0L180,0"></path><text class="axis-ceiling-label" font-family="sans-serif" text-anchor="end" font-size="10px" x="170" y="2.5">3000</text></g></svg>