<svg xmlns="http://www.w3.org/2000/svg" viewBox="0 0 180 60"><g transform="translate(0,20)"><path class="area" fill="rgba(0, 0, 0, 0.2)" d="M0,38.54176C1.0169491525423728,37.98056,2.0338983050847457,37.419360000000005,3.0508474576271185,37.27248C4.067796610169491,37.1256,5.084745762711864,37.05216,6.101694915254237,37.05216C7.11864406779661,37.05216,8.135593220338983,37.217999999999996,9.152542372881356,37.30864C10.169491525423728,37.39928,11.186440677966102,37.596,12.203389830508474,37.596C13.220338983050846,37.596,14.23728813559322,37.542559999999995,15.254237288135592,37.542559999999995C16.271186440677965,37.542559999999995,17.28813559322034,37.65850666666667,18.305084745762713,37.85568C19.322033898305087,38.05285333333333,20.338983050847457,38.7256,21.35593220338983,38.7256C22.372881355932204,38.7256,23.389830508474574,37.68026666666667,24.406779661016948,37.54576C25.423728813559322,37.411253333333335,26.440677966101696,37.344,27.45762711864407,37.344C28.47457627118644,37.344,29.491525423728813,37.4696,30.508474576271183,37.51632C31.525423728813557,37.56304,32.54237288135593,37.623999999999995,33.559322033898304,37.62432C34.57627118644068,37.62464,35.59322033898305,37.62448,36.610169491525426,37.6248C37.6271186440678,37.62512,38.644067796610166,37.71424,39.66101694915254,37.893119999999996C40.67796610169491,38.071999999999996,41.69491525423729,38.75072,42.71186440677966,38.75072C43.728813559322035,38.75072,44.7457627118644,37.740053333333336,45.762711864406775,37.53728C46.77966101694915,37.33450666666667,47.79661016949152,37.23312,48.813559322033896,37.23312C49.83050847457627,37.23312,50.847457627118644,37.29136,51.86440677966102,37.33056C52.88135593220339,37.36976,53.898305084745765,37.46832,54.91525423728814,37.46832C55.93220338983051,37.46832,56.94915254237288,37.34384,57.96610169491525,37.34384C58.983050847457626,37.34384,59.99999999999999,37.53341333333333,61.01694915254237,37.720639999999996C62.03389830508474,37.90786666666666,63.05084745762712,38.4672,64.0677966101695,38.4672C65.08474576271186,38.4672,66.10169491525424,37.264266666666664,67.11864406779661,36.89696C68.13559322033899,36.529653333333336,69.15254237288136,36.274133333333346,70.16949152542374,36.263360000000006C71.1864406779661,36.252586666666666,72.20338983050848,36.2472,73.22033898305085,36.2472C74.23728813559322,36.2472,75.2542372881356,36.29376,76.27118644067797,36.29376C77.28813559322033,36.29376,78.30508474576271,36.01424,79.32203389830508,36.01424C80.33898305084746,36.01424,81.35593220338983,36.09978666666667,82.37288135593221,36.27088C83.38983050847457,36.44197333333333,84.40677966101696,37.30944,85.42372881355932,37.30944C86.4406779661017,37.30944,87.45762711864407,34.98216,88.47457627118645,34.20848C89.49152542372882,33.43480000000001,90.50847457627118,32.897333333333336,91.52542372881355,32.66736C92.54237288135593,32.43738666666667,93.55932203389831,32.43669333333334,94.57627118644069,32.3224C95.59322033898306,32.208106666666666,96.61016949152543,32.16936,97.62711864406779,31.9816C98.64406779661016,31.79384,99.66101694915254,31.19584,100.6779661016949,31.19584C101.69491525423729,31.19584,102.71186440677965,31.246506666666665,103.72881355932203,31.347839999999998C104.7457627118644,31.44917333333333,105.76271186440678,34.05584,106.77966101694915,34.05584C107.79661016949153,34.05584,108.8135593220339,28.790293333333334,109.83050847457628,27.26096C110.84745762711864,25.731626666666674,111.86440677966102,25.23130666666667,112.88135593220339,24.87984C113.89830508474576,24.528373333333334,114.91525423728814,24.587786666666666,115.9322033898305,24.35264C116.94915254237289,24.117493333333336,117.96610169491525,23.812640000000005,118.98305084745763,23.468960000000003C120,23.125280000000004,121.01694915254237,22.29056,122.03389830508473,22.29056C123.05084745762711,22.29056,124.0677966101695,22.562133333333332,125.08474576271188,23.105279999999997C126.10169491525424,23.64842666666666,127.11864406779662,26.798293333333323,128.135593220339,27.80672C129.15254237288136,28.815146666666667,130.16949152542372,29.319360000000003,131.1864406779661,29.319360000000003C132.20338983050846,29.319360000000003,133.22033898305085,18.779626666666665,134.23728813559322,15.592959999999998C135.25423728813558,12.40629333333333,136.27118644067798,11.150186666666665,137.28813559322035,10.199359999999999C138.3050847457627,9.248533333333333,139.3220338983051,9.165893333333333,140.33898305084747,8.773119999999999C141.35593220338984,8.380346666666668,142.3728813559322,7.842720000000001,143.38983050847457,7.842720000000001C144.40677966101694,7.842720000000001,145.42372881355934,9.766079999999985,146.4406779661017,11.75008C147.45762711864407,13.734079999999997,148.47457627118644,19.74672,149.4915254237288,19.74672C150.50847457627117,19.74672,151.52542372881356,9.967679999999998,152.54237288135593,8.559679999999998C153.5593220338983,7.151679999999999,154.5762711864407,7.423680000000007,155.59322033898306,6.44768C156.61016949152543,5.471680000000002,157.6271186440678,2.7036799999999994,158.64406779661016,2.7036799999999994C159.66101694915253,2.7036799999999994,160.67796610169492,4.567999999999999,161.6949152542373,4.567999999999999C162.71186440677965,4.567999999999999,163.72881355932205,4.429919999999998,164.74576271186442,4.429919999999998C165.76271186440678,4.429919999999998,166.77966101694915,6.148853333333353,167.79661016949152,8.352C168.81355932203388,10.55514666666667,169.83050847457628,17.648799999999998,170.84745762711864,17.648799999999998C171.864406779661,17.648799999999998,172.8813559322034,9.083226666666665,173.89830508474577,6.229439999999999C174.91525423728814,3.3756533333333336,175.93220338983053,0.5260800000000021,176.9491525423729,0.5260800000000021C177.96610169491527,0.5260800000000021,178.98305084745763,1.1636000000000002,180,1.8011199999999983L180,40C178.98305084745763,40,177.96610169491527,40,176.9491525423729,40C175.93220338983053,40,174.91525423728814,40,173.89830508474577,40C172.8813559322034,40,171.864406779661,40,170.84745762711864,40C169.83050847457628,40,168.81355932203388,40,167.79661016949152,40C166.77966101694915,40,165.76271186440678,40,164.74576271186442,40C163.72881355932205,40,162.71186440677965,40,161.6949152542373,40C160.67796610169492,40,159.66101694915253,40,158.64406779661016,40C157.6271186440678,40,156.61016949152543,40,155.59322033898306,40C154.5762711864407,40,153.5593220338983,40,152.54237288135593,40C151.52542372881356,40,150.50847457627117,40,149.4915254237288,40C148.47457627118644,40,147.45762711864407,40,146.4406779661017,40C145.42372881355934,40,144.40677966101694,40,143.38983050847457,40C142.3728813559322,40,141.35593220338984,40,140.33898305084747,40C139.3220338983051,40,138.3050847457627,40,137.28813559322035,40C136.27118644067798,40,135.25423728813558,40,134.23728813559322,40C133.22033898305085,40,132.20338983050846,40,131.1864406779661,40C130.16949152542372,40,129.15254237288136,40,128.135593220339,40C127.11864406779662,40,126.10169491525424,40,125.08474576271188,40C124.0677966101695,40,123.05084745762711,40,122.03389830508473,40C121.01694915254237,40,120,40,118.98305084745763,40C117.96610169491525,40,116.94915254237289,40,115.9322033898305,40C114.91525423728814,40,113.89830508474576,40,112.88135593220339,40C111.86440677966102,40,110.84745762711864,40,109.83050847457628,40C108.8135593220339,40,107.79661016949153,40,106.77966101694915,40C105.76271186440678,40,104.7457627118644,40,103.72881355932203,40C102.71186440677965,40,101.69491525423729,40,100.6779661016949,40C99.66101694915254,40,98.64406779661016,40,97.62711864406779,40C96.61016949152543,40,95.59322033898306,40,94.57627118644069,40C93.55932203389831,40,92.54237288135593,40,91.52542372881355,40C90.50847457627118,40,89.49152542372882,40,88.47457627118645,40C87.45762711864407,40,86.4406779661017,40,85.42372881355932,40C84.40677966101696,40,83.38983050847457,40,82.37288135593221,40C81.35593220338983,40,80.33898305084746,40,79.32203389830508,40C78.30508474576271,40,77.28813559322033,40,76.27118644067797,40C75.2542372881356,40,74.23728813559322,40,73.22033898305085,40C72.20338983050848,40,71.1864406779661,40,70.16949152542374,40C69.15254237288136,40,68.13559322033899,40,67.11864406779661,40C66.10169491525424,40,65.08474576271186,40,64.0677966101695,40C63.05084745762712,40,62.03389830508474,40,61.01694915254237,40C59.99999999999999,40,58.983050847457626,40,57.96610169491525,40C56.94915254237288,40,55.93220338983051,40,54.91525423728814,40C53.898305084745765,40,52.88135593220339,40,51.86440677966102,40C50.847457627118644,40,49.83050847457627,40,48.813559322033896,40C47.79661016949152,40,46.77966101694915,40,45.762711864406775,40C44.7457627118644,40,43.728813559322035,40,42.71186440677966,40C41.69491525423729,40,40.67796610169491,40,39.66101694915254,40C38.644067796610166,40,37.6271186440678,40,36.610169491525426,40C35.59322033898305,40,34.57627118644068,40,33.559322033898304,40C32.54237288135593,40,31.525423728813557,40,30.508474576271183,40C29.491525423728813,40,28.47457627118644,40,27.45762711864407,40C26.440677966101696,40,25.423728813559322,40,24.406779661016948,40C23.389830508474574,40,22.372881355932204,40,21.35593220338983,40C20.338983050847457,40,19.322033898305087,40,18.305084745762713,40C17.28813559322034,40,16.271186440677965,40,15.254237288135592,40C14.23728813559322,40,13.220338983050846,40,12.203389830508474,40C11.186440677966102,40,10.169491525423728,40,9.152542372881356,40C8.135593220338983,40,7.11864406779661,40,6.101694915254237,40C5.084745762711864,40,4.067796610169491,40,3.0508474576271185,40C2.0338983050847457,40,1.0169491525423728,40,0,40Z"></path><path class="line" stroke="black" fill="none" d="M0,38.54176C1.0169491525423728,37.98056,2.0338983050847457,37.419360000000005,3.0508474576271185,37.27248C4.067796610169491,37.1256,5.084745762711864,37.05216,6.101694915254237,37.05216C7.11864406779661,37.05216,8.135593220338983,37.217999999999996,9.152542372881356,37.30864C10.169491525423728,37.39928,11.186440677966102,37.596,12.203389830508474,37.596C13.220338983050846,37.596,14.23728813559322,37.542559999999995,15.254237288135592,37.542559999999995C16.271186440677965,37.542559999999995,17.28813559322034,37.65850666666667,18.305084745762713,37.85568C19.322033898305087,38.05285333333333,20.338983050847457,38.7256,21.35593220338983,38.7256C22.372881355932204,38.7256,23.389830508474574,37.68026666666667,24.406779661016948,37.54576C25.423728813559322,37.411253333333335,26.440677966101696,37.344,27.45762711864407,37.344C28.47457627118644,37.344,29.491525423728813,37.4696,30.508474576271183,37.51632C31.525423728813557,37.56304,32.54237288135593,37.623999999999995,33.559322033898304,37.62432C34.57627118644068,37.62464,35.59322033898305,37.62448,36.610169491525426,37.6248C37.6271186440678,37.62512,38.644067796610166,37.71424,39.66101694915254,37.893119999999996C40.67796610169491,38.071999999999996,41.69491525423729,38.75072,42.71186440677966,38.75072C43.728813559322035,38.75072,44.7457627118644,37.740053333333336,45.762711864406775,37.53728C46.77966101694915,37.33450666666667,47.79661016949152,37.23312,48.813559322033896,37.23312C49.83050847457627,37.23312,50.847457627118644,37.29136,51.86440677966102,37.33056C52.88135593220339,37.36976,53.898305084745765,37.46832,54.91525423728814,37.46832C55.93220338983051,37.46832,56.94915254237288,37.34384,57.96610169491525,37.34384C58.983050847457626,37.34384,59.99999999999999,37.53341333333333,61.01694915254237,37.720639999999996C62.03389830508474,37.90786666666666,63.05084745762712,38.4672,64.0677966101695,38.4672C65.08474576271186,38.4672,66.10169491525424,37.264266666666664,67.11864406779661,36.89696C68.13559322033899,36.529653333333336,69.15254237288136,36.274133333333346,70.16949152542374,36.263360000000006C71.1864406779661,36.252586666666666,72.20338983050848,36.2472,73.22033898305085,36.2472C74.23728813559322,36.2472,75.2542372881356,36.29376,76.27118644067797,36.29376C77.28813559322033,36.29376,78.30508474576271,36.01424,79.32203389830508,36.01424C80.33898305084746,36.01424,81.35593220338983,36.09978666666667,82.37288135593221,36.27088C83.38983050847457,36.44197333333333,84.40677966101696,37.30944,85.42372881355932,37.30944C86.4406779661017,37.30944,87.45762711864407,34.98216,88.47457627118645,34.20848C89.49152542372882,33.43480000000001,90.50847457627118,32.897333333333336,91.52542372881355,32.66736C92.54237288135593,32.43738666666667,93.55932203389831,32.43669333333334,94.57627118644069,32.3224C95.59322033898306,32.208106666666666,96.61016949152543,32.16936,97.62711864406779,31.9816C98.64406779661016,31.79384,99.66101694915254,31.19584,100.6779661016949,31.19584C101.69491525423729,31.19584,102.71186440677965,31.246506666666665,103.72881355932203,31.347839999999998C104.7457627118644,31.44917333333333,105.76271186440678,34.05584,106.77966101694915,34.05584C107.79661016949153,34.05584,108.8135593220339,28.790293333333334,109.83050847457628,27.26096C110.84745762711864,25.731626666666674,111.86440677966102,25.23130666666667,112.88135593220339,24.87984C113.89830508474576,24.528373333333334,114.91525423728814,24.587786666666666,115.9322033898305,24.35264C116.94915254237289,24.117493333333336,117.96610169491525,23.812640000000005,118.98305084745763,23.468960000000003C120,23.125280000000004,121.01694915254237,22.29056,122.03389830508473,22.29056C123.05084745762711,22.29056,124.0677966101695,22.562133333333332,125.08474576271188,23.105279999999997C126.10169491525424,23.64842666666666,127.11864406779662,26.798293333333323,128.135593220339,27.80672C129.15254237288136,28.815146666666667,130.16949152542372,29.319360000000003,131.1864406779661,29.319360000000003C132.20338983050846,29.319360000000003,133.22033898305085,18.779626666666665,134.23728813559322,15.592959999999998C135.25423728813558,12.40629333333333,136.27118644067798,11.150186666666665,137.28813559322035,10.199359999999999C138.3050847457627,9.248533333333333,139.3220338983051,9.165893333333333,140.33898305084747,8.773119999999999C141.35593220338984,8.380346666666668,142.3728813559322,7.842720000000001,143.38983050847457,7.842720000000001C144.40677966101694,7.842720000000001,145.42372881355934,9.766079999999985,146.4406779661017,11.75008C147.45762711864407,13.734079999999997,148.47457627118644,19.74672,149.4915254237288,19.74672C150.50847457627117,19.74672,151.52542372881356,9.967679999999998,152.54237288135593,8.559679999999998C153.5593220338983,7.151679999999999,154.5762711864407,7.423680000000007,155.59322033898306,6.44768C156.61016949152543,5.471680000000002,157.6271186440678,2.7036799999999994,158.64406779661016,2.7036799999999994C159.66101694915253,2.7036799999999994,160.67796610169492,4.567999999999999,161.6949152542373,4.567999999999999C162.71186440677965,4.567999999999999,163.72881355932205,4.429919999999998,164.74576271186442,4.429919999999998C165.76271186440678,4.429919999999998,166.77966101694915,6.148853333333353,167.79661016949152,8.352C168.81355932203388,10.55514666666667,169.83050847457628,17.648799999999998,170.84745762711864,17.648799999999998C171.864406779661,17.648799999999998,172.8813559322034,9.083226666666665,173.89830508474577,6.229439999999999C174.91525423728814,3.3756533333333336,175.93220338983053,0.5260800000000021,176.9491525423729,0.5260800000000021C177.96610169491527,0.5260800000000021,178.98305084745763,1.1636000000000002,180,1.8011199999999983"></path><path class="axis-ceiling" stroke-width="1" stroke="black" fill="none" d="M175,0L180,0"></path><text class="axis-ceiling-label" font-family="sans-serif" text-anchor="end" font-size="10px" x="170" y="2.5">250000</text></g></svg>