<svg xmlns="http://www.w3.org/2000/svg" viewBox="0 0 180 60"><g transform="translate(0,20)"><path class="area" fill="rgba(0, 0, 0, 0.2)" d="M0,8.919999999999998C1.0169491525423728,9.243333333333332,2.0338983050847457,9.566666666666666,3.0508474576271185,9.76C4.067796610169491,9.953333333333333,5.084745762711864,9.946666666666667,6.101694915254237,10.08C7.11864406779661,10.213333333333333,8.135593220338983,10.24,9.152542372881356,10.56C10.169491525423728,10.88,11.186440677966102,11.786666666666669,12.203389830508474,12.280000000000001C13.220338983050846,12.773333333333333,14.23728813559322,13.040000000000001,15.254237288135592,13.52C16.271186440677965,14,17.28813559322034,14.653333333333332,18.305084745762713,15.16C19.322033898305087,15.666666666666668,20.338983050847457,16.186666666666667,21.35593220338983,16.560000000000002C22.372881355932204,16.933333333333337,23.389830508474574,17.120000000000005,24.406779661016948,17.400000000000002C25.423728813559322,17.680000000000003,26.440677966101696,17.986666666666665,27.45762711864407,18.24C28.47457627118644,18.493333333333332,29.491525423728813,18.726666666666667,30.508474576271183,18.919999999999998C31.525423728813557,19.113333333333333,32.54237288135593,19.4,33.559322033898304,19.4C34.57627118644068,19.4,35.59322033898305,19.22,36.610169491525426,19.119999999999997C37.6271186440678,19.019999999999996,38.644067796610166,18.899999999999995,39.66101694915254,18.799999999999997C40.67796610169491,18.699999999999996,41.69491525423729,18.52,42.71186440677966,18.52C43.728813559322035,18.52,44.7457627118644,18.566666666666666,45.762711864406775,18.599999999999998C46.77966101694915,18.633333333333333,47.79661016949152,18.72,48.813559322033896,18.72C49.83050847457627,18.72,50.847457627118644,18.659999999999997,51.86440677966102,18.599999999999998C52.88135593220339,18.54,53.898305084745765,18.36,54.91525423728814,18.36C55.93220338983051,18.36,56.94915254237288,19.373333333333335,57.96610169491525,19.64C58.983050847457626,19.906666666666666,59.99999999999999,19.926666666666666,61.01694915254237,20.04C62.03389830508474,20.153333333333332,63.05084745762712,20.32,64.0677966101695,20.32C65.08474576271186,20.32,66.10169491525424,20.159999999999997,67.11864406779661,20.08C68.13559322033899,19.999999999999996,69.15254237288136,19.84,70.16949152542374,19.84C71.1864406779661,19.84,72.20338983050848,20.493333333333332,73.22033898305085,21C74.23728813559322,21.506666666666668,75.2542372881356,22.85333333333334,76.27118644067797,22.880000000000003C77.28813559322033,22.906666666666666,78.30508474576271,22.919999999999998,79.32203389830508,22.919999999999998C80.33898305084746,22.919999999999998,81.35593220338983,22.906666666666666,82.37288135593221,22.880000000000003C83.38983050847457,22.85333333333334,84.40677966101696,22.666666666666668,85.42372881355932,22.64C86.4406779661017,22.613333333333333,87.45762711864407,22.599999999999998,88.47457627118645,22.599999999999998C89.49152542372882,22.599999999999998,90.50847457627118,22.68,91.52542372881355,22.68C92.54237288135593,22.68,93.55932203389831,22.05333333333334,94.57627118644069,21.520000000000003C95.59322033898306,20.98666666666667,96.61016949152543,19.96,97.62711864406779,19.48C98.64406779661016,18.999999999999996,99.66101694915254,18.64,100.6779661016949,18.64C101.69491525423729,18.64,102.71186440677965,18.706666666666663,103.72881355932203,18.799999999999997C104.7457627118644,18.89333333333333,105.76271186440678,19.05333333333333,106.77966101694915,19.2C107.79661016949153,19.346666666666668,108.8135593220339,19.599999999999998,109.83050847457628,19.68C110.84745762711864,19.76,111.86440677966102,19.753333333333334,112.88135593220339,19.8C113.89830508474576,19.846666666666668,114.91525423728814,19.873333333333335,115.9322033898305,19.96C116.94915254237289,20.046666666666667,117.96610169491525,20.26666666666667,118.98305084745763,20.32C120,20.37333333333333,121.01694915254237,20.4,122.03389830508473,20.4C123.05084745762711,20.4,124.0677966101695,20.2,125.08474576271188,20.04C126.10169491525424,19.88,127.11864406779662,19.57333333333333,128.135593220339,19.439999999999998C129.15254237288136,19.306666666666665,130.16949152542372,19.24,131.1864406779661,19.24C132.20338983050846,19.24,133.22033898305085,19.24,134.23728813559322,19.24C135.25423728813558,19.24,136.27118644067798,19.24,137.28813559322035,19.24C138.3050847457627,19.24,139.3220338983051,19.113333333333333,140.33898305084747,19C141.35593220338984,18.886666666666667,142.3728813559322,18.673333333333332,143.38983050847457,18.56C144.40677966101694,18.446666666666665,145.42372881355934,18.32,146.4406779661017,18.32C147.45762711864407,18.32,148.47457627118644,18.653333333333332,149.4915254237288,18.68C150.50847457627117,18.706666666666667,151.52542372881356,18.72,152.54237288135593,18.72C153.5593220338983,18.72,154.5762711864407,18.479999999999997,155.59322033898306,18.479999999999997C156.61016949152543,18.479999999999997,157.6271186440678,18.599999999999998,158.64406779661016,18.599999999999998C159.66101694915253,18.599999999999998,160.67796610169492,18.2,161.6949152542373,18.2C162.71186440677965,18.2,163.72881355932205,18.72,164.74576271186442,18.72C165.76271186440678,18.72,166.77966101694915,18.28666666666666,167.79661016949152,18.08C168.81355932203388,17.87333333333333,169.83050847457628,17.640000000000004,170.84745762711864,17.480000000000004C171.864406779661,17.320000000000004,172.8813559322034,17.273333333333333,173.89830508474577,17.12C174.91525423728814,16.96666666666667,175.93220338983053,16.560000000000002,176.9491525423729,16.560000000000002C177.96610169491527,16.560000000000002,178.98305084745763,17.32,180,18.08L180,40C178.98305084745763,40,177.96610169491527,40,176.9491525423729,40C175.93220338983053,40,174.91525423728814,40,173.89830508474577,40C172.8813559322034,40,171.864406779661,40,170.84745762711864,40C169.83050847457628,40,168.81355932203388,40,167.79661016949152,40C166.77966101694915,40,165.76271186440678,40,164.74576271186442,40C163.72881355932205,40,162.71186440677965,40,161.6949152542373,40C160.67796610169492,40,159.66101694915253,40,158.64406779661016,40C157.6271186440678,40,156.61016949152543,40,155.59322033898306,40C154.5762711864407,40,153.5593220338983,40,152.54237288135593,40C151.52542372881356,40,150.50847457627117,40,149.4915254237288,40C148.47457627118644,40,147.45762711864407,40,146.4406779661017,40C145.42372881355934,40,144.40677966101694,40,143.38983050847457,40C142.3728813559322,40,141.35593220338984,40,140.33898305084747,40C139.3220338983051,40,138.3050847457627,40,137.28813559322035,40C136.27118644067798,40,135.25423728813558,40,134.23728813559322,40C133.22033898305085,40,132.20338983050846,40,131.1864406779661,40C130.16949152542372,40,129.15254237288136,40,128.135593220339,40C127.11864406779662,40,126.10169491525424,40,125.08474576271188,40C124.0677966101695,40,123.05084745762711,40,122.03389830508473,40C121.01694915254237,40,120,40,118.98305084745763,40C117.96610169491525,40,116.94915254237289,40,115.9322033898305,40C114.91525423728814,40,113.89830508474576,40,112.88135593220339,40C111.86440677966102,40,110.84745762711864,40,109.83050847457628,40C108.8135593220339,40,107.79661016949153,40,106.77966101694915,40C105.76271186440678,40,104.7457627118644,40,103.72881355932203,40C102.71186440677965,40,101.69491525423729,40,100.6779661016949,40C99.66101694915254,40,98.64406779661016,40,97.62711864406779,40C96.61016949152543,40,95.59322033898306,40,94.57627118644069,40C93.55932203389831,40,92.54237288135593,40,91.52542372881355,40C90.50847457627118,40,89.49152542372882,40,88.47457627118645,40C87.45762711864407,40,86.4406779661017,40,85.42372881355932,40C84.40677966101696,40,83.38983050847457,40,82.37288135593221,40C81.35593220338983,40,80.33898305084746,40,79.32203389830508,40C78.30508474576271,40,77.28813559322033,40,76.27118644067797,40C75.2542372881356,40,74.23728813559322,40,73.22033898305085,40C72.20338983050848,40,71.1864406779661,40,70.16949152542374,40C69.15254237288136,40,68.13559322033899,40,67.11864406779661,40C66.10169491525424,40,65.08474576271186,40,64.0677966101695,40C63.05084745762712,40,62.03389830508474,40,61.01694915254237,40C59.99999999999999,40,58.983050847457626,40,57.96610169491525,40C56.94915254237288,40,55.93220338983051,40,54.91525423728814,40C53.898305084745765,40,52.88135593220339,40,51.86440677966102,40C50.847457627118644,40,49.83050847457627,40,48.813559322033896,40C47.79661016949152,40,46.77966101694915,40,45.762711864406775,40C44.7457627118644,40,43.728813559322035,40,42.71186440677966,40C41.69491525423729,40,40.67796610169491,40,39.66101694915254,40C38.644067796610166,40,37.6271186440678,40,36.610169491525426,40C35.59322033898305,40,34.57627118644068,40,33.559322033898304,40C32.54237288135593,40,31.525423728813557,40,30.508474576271183,40C29.491525423728813,40,28.47457627118644,40,27.45762711864407,40C26.440677966101696,40,25.423728813559322,40,24.406779661016948,40C23.389830508474574,40,22.372881355932204,40,21.35593220338983,40C20.338983050847457,40,19.322033898305087,40,18.305084745762713,40C17.28813559322034,40,16.271186440677965,40,15.254237288135592,40C14.23728813559322,40,13.220338983050846,40,12.203389830508474,40C11.186440677966102,40,10.169491525423728,40,9.152542372881356,40C8.135593220338983,40,7.11864406779661,40,6.101694915254237,40C5.084745762711864,40,4.067796610169491,40,3.0508474576271185,40C2.0338983050847457,40,1.0169491525423728,40,0,40Z"></path><path class="line" stroke="black" fill="none" d="M0,8.919999999999998C1.0169491525423728,9.243333333333332,2.0338983050847457,9.566666666666666,3.0508474576271185,9.76C4.067796610169491,9.953333333333333,5.084745762711864,9.946666666666667,6.101694915254237,10.08C7.11864406779661,10.213333333333333,8.135593220338983,10.24,9.152542372881356,10.56C10.169491525423728,10.88,11.186440677966102,11.786666666666669,12.203389830508474,12.280000000000001C13.220338983050846,12.773333333333333,14.23728813559322,13.040000000000001,15.254237288135592,13.52C16.271186440677965,14,17.28813559322034,14.653333333333332,18.305084745762713,15.16C19.322033898305087,15.666666666666668,20.338983050847457,16.186666666666667,21.35593220338983,16.560000000000002C22.372881355932204,16.933333333333337,23.389830508474574,17.120000000000005,24.406779661016948,17.400000000000002C25.423728813559322,17.680000000000003,26.440677966101696,17.986666666666665,27.45762711864407,18.24C28.47457627118644,18.493333333333332,29.491525423728813,18.726666666666667,30.508474576271183,18.919999999999998C31.525423728813557,19.113333333333333,32.54237288135593,19.4,33.559322033898304,19.4C34.57627118644068,19.4,35.59322033898305,19.22,36.610169491525426,19.119999999999997C37.6271186440678,19.019999999999996,38.644067796610166,18.899999999999995,39.66101694915254,18.799999999999997C40.67796610169491,18.699999999999996,41.69491525423729,18.52,42.71186440677966,18.52C43.728813559322035,18.52,44.7457627118644,18.566666666666666,45.762711864406775,18.599999999999998C46.77966101694915,18.633333333333333,47.79661016949152,18.72,48.813559322033896,18.72C49.83050847457627,18.72,50.847457627118644,18.659999999999997,51.86440677966102,18.599999999999998C52.88135593220339,18.54,53.898305084745765,18.36,54.91525423728814,18.36C55.93220338983051,18.36,56.94915254237288,19.373333333333335,57.96610169491525,19.64C58.983050847457626,19.906666666666666,59.99999999999999,19.926666666666666,61.01694915254237,20.04C62.03389830508474,20.153333333333332,63.05084745762712,20.32,64.0677966101695,20.32C65.08474576271186,20.32,66.10169491525424,20.159999999999997,67.11864406779661,20.08C68.13559322033899,19.999999999999996,69.15254237288136,19.84,70.16949152542374,19.84C71.1864406779661,19.84,72.20338983050848,20.493333333333332,73.22033898305085,21C74.23728813559322,21.506666666666668,75.2542372881356,22.85333333333334,76.27118644067797,22.880000000000003C77.28813559322033,22.906666666666666,78.30508474576271,22.919999999999998,79.32203389830508,22.919999999999998C80.33898305084746,22.919999999999998,81.35593220338983,22.906666666666666,82.37288135593221,22.880000000000003C83.38983050847457,22.85333333333334,84.40677966101696,22.666666666666668,85.42372881355932,22.64C86.4406779661017,22.613333333333333,87.45762711864407,22.599999999999998,88.47457627118645,22.599999999999998C89.49152542372882,22.599999999999998,90.50847457627118,22.68,91.52542372881355,22.68C92.54237288135593,22.68,93.55932203389831,22.05333333333334,94.57627118644069,21.520000000000003C95.59322033898306,20.98666666666667,96.61016949152543,19.96,97.62711864406779,19.48C98.64406779661016,18.999999999999996,99.66101694915254,18.64,100.6779661016949,18.64C101.69491525423729,18.64,102.71186440677965,18.706666666666663,103.72881355932203,18.799999999999997C104.7457627118644,18.89333333333333,105.76271186440678,19.05333333333333,106.77966101694915,19.2C107.79661016949153,19.346666666666668,108.8135593220339,19.599999999999998,109.83050847457628,19.68C110.84745762711864,19.76,111.86440677966102,19.753333333333334,112.88135593220339,19.8C113.89830508474576,19.846666666666668,114.91525423728814,19.873333333333335,115.9322033898305,19.96C116.94915254237289,20.046666666666667,117.96610169491525,20.26666666666667,118.98305084745763,20.32C120,20.37333333333333,121.01694915254237,20.4,122.03389830508473,20.4C123.05084745762711,20.4,124.0677966101695,20.2,125.08474576271188,20.04C126.10169491525424,19.88,127.11864406779662,19.57333333333333,128.135593220339,19.439999999999998C129.15254237288136,19.306666666666665,130.16949152542372,19.24,131.1864406779661,19.24C132.20338983050846,19.24,133.22033898305085,19.24,134.23728813559322,19.24C135.25423728813558,19.24,136.27118644067798,19.24,137.28813559322035,19.24C138.3050847457627,19.24,139.3220338983051,19.113333333333333,140.33898305084747,19C141.35593220338984,18.886666666666667,142.3728813559322,18.673333333333332,143.38983050847457,18.56C144.40677966101694,18.446666666666665,145.42372881355934,18.32,146.4406779661017,18.32C147.45762711864407,18.32,148.47457627118644,18.653333333333332,149.4915254237288,18.68C150.50847457627117,18.706666666666667,151.52542372881356,18.72,152.54237288135593,18.72C153.5593220338983,18.72,154.5762711864407,18.479999999999997,155.59322033898306,18.479999999999997C156.61016949152543,18.479999999999997,157.6271186440678,18.599999999999998,158.64406779661016,18.599999999999998C159.66101694915253,18.599999999999998,160.67796610169492,18.2,161.6949152542373,18.2C162.71186440677965,18.2,163.72881355932205,18.72,164.74576271186442,18.72C165.76271186440678,18.72,166.77966101694915,18.28666666666666,167.79661016949152,18.08C168.81355932203388,17.87333333333333,169.83050847457628,17.640000000000004,170.84745762711864,17.480000000000004C171.864406779661,17.320000000000004,172.8813559322034,17.273333333333333,173.89830508474577,17.12C174.91525423728814,16.96666666666667,175.93220338983053,16.560000000000002,176.9491525423729,16.560000000000002C177.96610169491527,16.560000000000002,178.98305084745763,17.32,180,18.08"></path><path class="axis-ceiling" stroke-width="1" stroke="black" fill="none" d="M175,0L180,0"></path><text class="axis-ceiling-label" font-family="sans-serif" text-anchor="end" font-size="10px" x="170" y="2.5">1000</text></g></svg>