<svg xmlns="http://www.w3.org/2000/svg" viewBox="0 0 180 60"><g transform="translate(0,20)"><path class="area" fill="rgba(0, 0, 0, 0.2)" d="M0,21.374C1.0169491525423728,17.83973333333333,2.0338983050847457,14.305466666666666,3.0508474576271185,11.857866666666666C4.067796610169491,9.410266666666667,5.084745762711864,6.688399999999999,6.101694915254237,6.688399999999999C7.11864406779661,6.688399999999999,8.135593220338983,7.810688888888889,9.152542372881356,8.1676C10.169491525423728,8.524511111111112,11.186440677966102,8.581599999999998,12.203389830508474,8.829866666666666C13.220338983050846,9.078133333333334,14.23728813559322,9.105644444444444,15.254237288135592,9.657200000000001C16.271186440677965,10.208755555555559,17.28813559322034,10.593600000000002,18.305084745762713,12.466400000000002C19.322033898305087,14.3392,20.338983050847457,21.617733333333334,21.35593220338983,21.617733333333334C22.372881355932204,21.617733333333334,23.389830508474574,14.159622222222222,24.406779661016948,11.658666666666665C25.423728813559322,9.157711111111107,26.440677966101696,6.612,27.45762711864407,6.612C28.47457627118644,6.612,29.491525423728813,7.0652,30.508474576271183,7.971599999999999C31.525423728813557,8.878,32.54237288135593,17.488933333333332,33.559322033898304,17.488933333333332C34.57627118644068,17.488933333333332,35.59322033898305,15.517733333333332,36.610169491525426,15.517733333333332C37.6271186440678,15.517733333333332,38.644067796610166,15.751244444444444,39.66101694915254,16.21826666666667C40.67796610169491,16.685288888888895,41.69491525423729,21.517200000000003,42.71186440677966,21.517200000000003C43.728813559322035,21.517200000000003,44.7457627118644,19.90253333333333,45.762711864406775,17.8384C46.77966101694915,15.774266666666666,47.79661016949152,11.117511111111112,48.813559322033896,9.1324C49.83050847457627,7.147288888888889,50.847457627118644,6.416088888888886,51.86440677966102,5.9277333333333315C52.88135593220339,5.439377777777777,53.898305084745765,5.1952,54.91525423728814,5.1952C55.93220338983051,5.1952,56.94915254237288,5.540222222222222,57.96610169491525,6.230266666666666C58.983050847457626,6.92031111111111,59.99999999999999,7.43448888888889,61.01694915254237,9.842933333333335C62.03389830508474,12.251377777777792,63.05084745762712,21.191066666666668,64.0677966101695,21.191066666666668C65.08474576271186,21.191066666666668,66.10169491525424,14.468355555555554,67.11864406779661,12.192266666666667C68.13559322033899,9.916177777777769,69.15254237288136,7.534533333333333,70.16949152542374,7.534533333333333C71.1864406779661,7.534533333333333,72.20338983050848,9.403333333333332,73.22033898305085,10.538266666666667C74.23728813559322,11.673200000000001,75.2542372881356,13.43708888888889,76.27118644067797,14.344133333333335C77.28813559322033,15.25117777777778,78.30508474576271,15.169066666666673,79.32203389830508,15.980533333333335C80.33898305084746,16.792,81.35593220338983,17.341333333333324,82.37288135593221,19.212933333333332C83.38983050847457,21.084533333333333,84.40677966101696,27.210133333333335,85.42372881355932,27.210133333333335C86.4406779661017,27.210133333333335,87.45762711864407,21.193377777777787,88.47457627118645,19.659599999999998C89.49152542372882,18.125822222222222,90.50847457627118,17.358933333333333,91.52542372881355,17.358933333333333C92.54237288135593,17.358933333333333,93.55932203389831,19.098733333333325,94.57627118644069,20.011466666666667C95.59322033898306,20.924199999999995,96.61016949152543,22.335155555555566,97.62711864406779,22.835333333333338C98.64406779661016,23.335511111111114,99.66101694915254,23.120600000000003,100.6779661016949,23.5856C101.69491525423729,24.0506,102.71186440677965,24.401844444444443,103.72881355932203,25.625333333333337C104.7457627118644,26.848822222222225,105.76271186440678,30.92653333333333,106.77966101694915,30.92653333333333C107.79661016949153,30.92653333333333,108.8135593220339,26.411555555555555,109.83050847457628,25.03933333333333C110.84745762711864,23.667111111111115,111.86440677966102,22.6932,112.88135593220339,22.6932C113.89830508474576,22.6932,114.91525423728814,24.338333333333335,115.9322033898305,25.011733333333332C116.94915254237289,25.685133333333333,117.96610169491525,26.29664444444444,118.98305084745763,26.733599999999996C120,27.17055555555555,121.01694915254237,27.233466666666672,122.03389830508473,27.633466666666667C123.05084745762711,28.03346666666667,124.0677966101695,28.248644444444437,125.08474576271188,29.1336C126.10169491525424,30.018555555555555,127.11864406779662,32.9432,128.135593220339,32.9432C129.15254237288136,32.9432,130.16949152542372,29.375222222222224,131.1864406779661,28.3228C132.20338983050846,27.27037777777777,133.22033898305085,26.628666666666668,134.23728813559322,26.628666666666668C135.25423728813558,26.628666666666668,136.27118644067798,28.00988888888889,137.28813559322035,28.550133333333335C138.3050847457627,29.09037777777778,139.3220338983051,29.539222222222225,140.33898305084747,29.870133333333335C141.35593220338984,30.201044444444445,142.3728813559322,30.27064444444445,143.38983050847457,30.535600000000002C144.40677966101694,30.800555555555558,145.42372881355934,30.843688888888888,146.4406779661017,31.459866666666663C147.45762711864407,32.076044444444435,148.47457627118644,34.363688888888895,149.4915254237288,34.92466666666667C150.50847457627117,35.485644444444446,151.52542372881356,35.766133333333336,152.54237288135593,35.766133333333336C153.5593220338983,35.766133333333336,154.5762711864407,31.359111111111115,155.59322033898306,30.688C156.61016949152543,30.01688888888889,157.6271186440678,29.681333333333335,158.64406779661016,29.681333333333335C159.66101694915253,29.681333333333335,160.67796610169492,30.63471111111111,161.6949152542373,31.482799999999997C162.71186440677965,32.330888888888886,163.72881355932205,34.76986666666667,164.74576271186442,34.76986666666667C165.76271186440678,34.76986666666667,166.77966101694915,33.84693333333333,167.79661016949152,33.84693333333333C168.81355932203388,33.84693333333333,169.83050847457628,33.9604,170.84745762711864,34.187333333333335C171.864406779661,34.41426666666667,172.8813559322034,39.297333333333334,173.89830508474577,39.297333333333334C174.91525423728814,39.297333333333334,175.93220338983053,38.806133333333335,176.9491525423729,38.806133333333335C177.96610169491527,38.806133333333335,178.98305084745763,38.86246666666666,180,38.9188L180,40C178.98305084745763,40,177.96610169491527,40,176.9491525423729,40C175.93220338983053,40,174.91525423728814,40,173.89830508474577,40C172.8813559322034,40,171.864406779661,40,170.84745762711864,40C169.83050847457628,40,168.81355932203388,40,167.79661016949152,40C166.77966101694915,40,165.76271186440678,40,164.74576271186442,40C163.72881355932205,40,162.71186440677965,40,161.6949152542373,40C160.67796610169492,40,159.66101694915253,40,158.64406779661016,40C157.6271186440678,40,156.61016949152543,40,155.59322033898306,40C154.5762711864407,40,153.5593220338983,40,152.54237288135593,40C151.52542372881356,40,150.50847457627117,40,149.4915254237288,40C148.47457627118644,40,147.45762711864407,40,146.4406779661017,40C145.42372881355934,40,144.40677966101694,40,143.38983050847457,40C142.3728813559322,40,141.35593220338984,40,140.33898305084747,40C139.3220338983051,40,138.3050847457627,40,137.28813559322035,40C136.27118644067798,40,135.25423728813558,40,134.23728813559322,40C133.22033898305085,40,132.20338983050846,40,131.1864406779661,40C130.16949152542372,40,129.15254237288136,40,128.135593220339,40C127.11864406779662,40,126.10169491525424,40,125.08474576271188,40C124.0677966101695,40,123.05084745762711,40,122.03389830508473,40C121.01694915254237,40,120,40,118.98305084745763,40C117.96610169491525,40,116.94915254237289,40,115.9322033898305,40C114.91525423728814,40,113.89830508474576,40,112.88135593220339,40C111.86440677966102,40,110.84745762711864,40,109.83050847457628,40C108.8135593220339,40,107.79661016949153,40,106.77966101694915,40C105.76271186440678,40,104.7457627118644,40,103.72881355932203,40C102.71186440677965,40,101.69491525423729,40,100.6779661016949,40C99.66101694915254,40,98.64406779661016,40,97.62711864406779,40C96.61016949152543,40,95.59322033898306,40,94.57627118644069,40C93.55932203389831,40,92.54237288135593,40,91.52542372881355,40C90.50847457627118,40,89.49152542372882,40,88.47457627118645,40C87.45762711864407,40,86.4406779661017,40,85.42372881355932,40C84.40677966101696,40,83.38983050847457,40,82.37288135593221,40C81.35593220338983,40,80.33898305084746,40,79.32203389830508,40C78.30508474576271,40,77.28813559322033,40,76.27118644067797,40C75.2542372881356,40,74.23728813559322,40,73.22033898305085,40C72.20338983050848,40,71.1864406779661,40,70.16949152542374,40C69.15254237288136,40,68.13559322033899,40,67.11864406779661,40C66.10169491525424,40,65.08474576271186,40,64.0677966101695,40C63.05084745762712,40,62.03389830508474,40,61.01694915254237,40C59.99999999999999,40,58.983050847457626,40,57.96610169491525,40C56.94915254237288,40,55.93220338983051,40,54.91525423728814,40C53.898305084745765,40,52.88135593220339,40,51.86440677966102,40C50.847457627118644,40,49.83050847457627,40,48.813559322033896,40C47.79661016949152,40,46.77966101694915,40,45.762711864406775,40C44.7457627118644,40,43.728813559322035,40,42.71186440677966,40C41.69491525423729,40,40.67796610169491,40,39.66101694915254,40C38.644067796610166,40,37.6271186440678,40,36.610169491525426,40C35.59322033898305,40,34.57627118644068,40,33.559322033898304,40C32.54237288135593,40,31.525423728813557,40,30.508474576271183,40C29.491525423728813,40,28.47457627118644,40,27.45762711864407,40C26.440677966101696,40,25.423728813559322,40,24.406779661016948,40C23.389830508474574,40,22.372881355932204,40,21.35593220338983,40C20.338983050847457,40,19.322033898305087,40,18.305084745762713,40C17.28813559322034,40,16.271186440677965,40,15.254237288135592,40C14.23728813559322,40,13.220338983050846,40,12.203389830508474,40C11.186440677966102,40,10.169491525423728,40,9.152542372881356,40C8.135593220338983,40,7.11864406779661,40,6.101694915254237,40C5.084745762711864,40,4.067796610169491,40,3.0508474576271185,40C2.0338983050847457,40,1.0169491525423728,40,0,40Z"></path><path class="line" stroke="black" fill="none" d="M0,21.374C1.0169491525423728,17.83973333333333,2.0338983050847457,14.305466666666666,3.0508474576271185,11.857866666666666C4.067796610169491,9.410266666666667,5.084745762711864,6.688399999999999,6.101694915254237,6.688399999999999C7.11864406779661,6.688399999999999,8.135593220338983,7.810688888888889,9.152542372881356,8.1676C10.169491525423728,8.524511111111112,11.186440677966102,8.581599999999998,12.203389830508474,8.829866666666666C13.220338983050846,9.078133333333334,14.23728813559322,9.105644444444444,15.254237288135592,9.657200000000001C16.271186440677965,10.208755555555559,17.28813559322034,10.593600000000002,18.305084745762713,12.466400000000002C19.322033898305087,14.3392,20.338983050847457,21.617733333333334,21.35593220338983,21.617733333333334C22.372881355932204,21.617733333333334,23.389830508474574,14.159622222222222,24.406779661016948,11.658666666666665C25.423728813559322,9.157711111111107,26.440677966101696,6.612,27.45762711864407,6.612C28.47457627118644,6.612,29.491525423728813,7.0652,30.508474576271183,7.971599999999999C31.525423728813557,8.878,32.54237288135593,17.488933333333332,33.559322033898304,17.488933333333332C34.57627118644068,17.488933333333332,35.59322033898305,15.517733333333332,36.610169491525426,15.517733333333332C37.6271186440678,15.517733333333332,38.644067796610166,15.751244444444444,39.66101694915254,16.21826666666667C40.67796610169491,16.685288888888895,41.69491525423729,21.517200000000003,42.71186440677966,21.517200000000003C43.728813559322035,21.517200000000003,44.7457627118644,19.90253333333333,45.762711864406775,17.8384C46.77966101694915,15.774266666666666,47.79661016949152,11.117511111111112,48.813559322033896,9.1324C49.83050847457627,7.147288888888889,50.847457627118644,6.416088888888886,51.86440677966102,5.9277333333333315C52.88135593220339,5.439377777777777,53.898305084745765,5.1952,54.91525423728814,5.1952C55.93220338983051,5.1952,56.94915254237288,5.540222222222222,57.96610169491525,6.230266666666666C58.983050847457626,6.92031111111111,59.99999999999999,7.43448888888889,61.01694915254237,9.842933333333335C62.03389830508474,12.251377777777792,63.05084745762712,21.191066666666668,64.0677966101695,21.191066666666668C65.08474576271186,21.191066666666668,66.10169491525424,14.468355555555554,67.11864406779661,12.192266666666667C68.13559322033899,9.916177777777769,69.15254237288136,7.534533333333333,70.16949152542374,7.534533333333333C71.1864406779661,7.534533333333333,72.20338983050848,9.403333333333332,73.22033898305085,10.538266666666667C74.23728813559322,11.673200000000001,75.2542372881356,13.43708888888889,76.27118644067797,14.344133333333335C77.28813559322033,15.25117777777778,78.30508474576271,15.169066666666673,79.32203389830508,15.980533333333335C80.33898305084746,16.792,81.35593220338983,17.341333333333324,82.37288135593221,19.212933333333332C83.38983050847457,21.084533333333333,84.40677966101696,27.210133333333335,85.42372881355932,27.210133333333335C86.4406779661017,27.210133333333335,87.45762711864407,21.193377777777787,88.47457627118645,19.659599999999998C89.49152542372882,18.125822222222222,90.50847457627118,17.358933333333333,91.52542372881355,17.358933333333333C92.54237288135593,17.358933333333333,93.55932203389831,19.098733333333325,94.57627118644069,20.011466666666667C95.59322033898306,20.924199999999995,96.61016949152543,22.335155555555566,97.62711864406779,22.835333333333338C98.64406779661016,23.335511111111114,99.66101694915254,23.120600000000003,100.6779661016949,23.5856C101.69491525423729,24.0506,102.71186440677965,24.401844444444443,103.72881355932203,25.625333333333337C104.7457627118644,26.848822222222225,105.76271186440678,30.92653333333333,106.77966101694915,30.92653333333333C107.79661016949153,30.92653333333333,108.8135593220339,26.411555555555555,109.83050847457628,25.03933333333333C110.84745762711864,23.667111111111115,111.86440677966102,22.6932,112.88135593220339,22.6932C113.89830508474576,22.6932,114.91525423728814,24.338333333333335,115.9322033898305,25.011733333333332C116.94915254237289,25.685133333333333,117.96610169491525,26.29664444444444,118.98305084745763,26.733599999999996C120,27.17055555555555,121.01694915254237,27.233466666666672,122.03389830508473,27.633466666666667C123.05084745762711,28.03346666666667,124.0677966101695,28.248644444444437,125.08474576271188,29.1336C126.10169491525424,30.018555555555555,127.11864406779662,32.9432,128.135593220339,32.9432C129.15254237288136,32.9432,130.16949152542372,29.375222222222224,131.1864406779661,28.3228C132.20338983050846,27.27037777777777,133.22033898305085,26.628666666666668,134.23728813559322,26.628666666666668C135.25423728813558,26.628666666666668,136.27118644067798,28.00988888888889,137.28813559322035,28.550133333333335C138.3050847457627,29.09037777777778,139.3220338983051,29.539222222222225,140.33898305084747,29.870133333333335C141.35593220338984,30.201044444444445,142.3728813559322,30.27064444444445,143.38983050847457,30.535600000000002C144.40677966101694,30.800555555555558,145.42372881355934,30.843688888888888,146.4406779661017,31.459866666666663C147.45762711864407,32.076044444444435,148.47457627118644,34.363688888888895,149.4915254237288,34.92466666666667C150.50847457627117,35.485644444444446,151.52542372881356,35.766133333333336,152.54237288135593,35.766133333333336C153.5593220338983,35.766133333333336,154.5762711864407,31.359111111111115,155.59322033898306,30.688C156.61016949152543,30.01688888888889,157.6271186440678,29.681333333333335,158.64406779661016,29.681333333333335C159.66101694915253,29.681333333333335,160.67796610169492,30.63471111111111,161.6949152542373,31.482799999999997C162.71186440677965,32.330888888888886,163.72881355932205,34.76986666666667,164.74576271186442,34.76986666666667C165.76271186440678,34.76986666666667,166.77966101694915,33.84693333333333,167.79661016949152,33.84693333333333C168.81355932203388,33.84693333333333,169.83050847457628,33.9604,170.84745762711864,34.187333333333335C171.864406779661,34.41426666666667,172.8813559322034,39.297333333333334,173.89830508474577,39.297333333333334C174.91525423728814,39.297333333333334,175.93220338983053,38.806133333333335,176.9491525423729,38.806133333333335C177.96610169491527,38.806133333333335,178.98305084745763,38.86246666666666,180,38.9188"></path><path class="axis-ceiling" stroke-width="1" stroke="black" fill="none" d="M175,0L180,0"></path><text class="axis-ceiling-label" font-family="sans-serif" text-anchor="end" font-size="10px" x="170" y="2.5">300000</text></g></svg>