<svg xmlns="http://www.w3.org/2000/svg" viewBox="0 0 180 60"><g transform="translate(0,20)"><path class="area" fill="rgba(0, 0, 0, 0.2)" d="M0,39.6752C1.0169491525423728,39.70133333333333,2.0338983050847457,39.727466666666665,3.0508474576271185,39.7328C4.067796610169491,39.73813333333333,5.084745762711864,39.73546666666667,6.101694915254237,39.7408C7.11864406779661,39.74613333333333,8.135593220338983,39.8144,9.152542372881356,39.8144C10.169491525423728,39.8144,11.186440677966102,39.7648,12.203389830508474,39.7648C13.220338983050846,39.7648,14.23728813559322,39.9152,15.254237288135592,39.9152C16.271186440677965,39.9152,17.28813559322034,39.812799999999996,18.305084745762713,39.812799999999996C19.322033898305087,39.812799999999996,20.338983050847457,39.872,21.35593220338983,39.872C22.372881355932204,39.872,23.389830508474574,39.80426666666666,24.406779661016948,39.8032C25.423728813559322,39.80213333333333,26.440677966101696,39.80266666666667,27.45762711864407,39.8016C28.47457627118644,39.800533333333334,29.491525423728813,39.792,30.508474576271183,39.792C31.525423728813557,39.792,32.54237288135593,39.8768,33.559322033898304,39.8768C34.57627118644068,39.8768,35.59322033898305,39.87253333333334,36.610169491525426,39.864000000000004C37.6271186440678,39.85546666666667,38.644067796610166,39.7824,39.66101694915254,39.7824C40.67796610169491,39.7824,41.69491525423729,39.8016,42.71186440677966,39.8016C43.728813559322035,39.8016,44.7457627118644,39.7968,45.762711864406775,39.7904C46.77966101694915,39.784,47.79661016949152,39.7632,48.813559322033896,39.7632C49.83050847457627,39.7632,50.847457627118644,39.77786666666667,51.86440677966102,39.7856C52.88135593220339,39.79333333333334,53.898305084745765,39.793600000000005,54.91525423728814,39.8096C55.93220338983051,39.8256,56.94915254237288,39.8992,57.96610169491525,39.8992C58.983050847457626,39.8992,59.99999999999999,39.828266666666664,61.01694915254237,39.808C62.03389830508474,39.787733333333335,63.05084745762712,39.79066666666667,64.0677966101695,39.7776C65.08474576271186,39.76453333333333,66.10169491525424,39.7296,67.11864406779661,39.7296C68.13559322033899,39.7296,69.15254237288136,39.76,70.16949152542374,39.76C71.1864406779661,39.76,72.20338983050848,39.7568,73.22033898305085,39.7568C74.23728813559322,39.7568,75.2542372881356,39.78293333333333,76.27118644067797,39.8016C77.28813559322033,39.82026666666667,78.30508474576271,39.8688,79.32203389830508,39.8688C80.33898305084746,39.8688,81.35593220338983,39.7888,82.37288135593221,39.7632C83.38983050847457,39.7376,84.40677966101696,39.727466666666665,85.42372881355932,39.715199999999996C86.4406779661017,39.70293333333333,87.45762711864407,39.6896,88.47457627118645,39.6896C89.49152542372882,39.6896,90.50847457627118,39.7008,91.52542372881355,39.7008C92.54237288135593,39.7008,93.55932203389831,39.672,94.57627118644069,39.672C95.59322033898306,39.672,96.61016949152543,39.687200000000004,97.62711864406779,39.7008C98.64406779661016,39.714400000000005,99.66101694915254,39.7536,100.6779661016949,39.7536C101.69491525423729,39.7536,102.71186440677965,39.601066666666675,103.72881355932203,39.5904C104.7457627118644,39.57973333333333,105.76271186440678,39.58506666666667,106.77966101694915,39.5744C107.79661016949153,39.563733333333325,108.8135593220339,39.52373333333333,109.83050847457628,39.5184C110.84745762711864,39.51306666666667,111.86440677966102,39.51573333333333,112.88135593220339,39.5104C113.89830508474576,39.505066666666664,114.91525423728814,39.48,115.9322033898305,39.48C116.94915254237289,39.48,117.96610169491525,39.544,118.98305084745763,39.5728C120,39.6016,121.01694915254237,39.6528,122.03389830508473,39.6528C123.05084745762711,39.6528,124.0677966101695,39.4504,125.08474576271188,39.3776C126.10169491525424,39.3048,127.11864406779662,39.24693333333333,128.135593220339,39.216C129.15254237288136,39.18506666666667,130.16949152542372,39.1696,131.1864406779661,39.1696C132.20338983050846,39.1696,133.22033898305085,39.2,134.23728813559322,39.2C135.25423728813558,39.2,136.27118644067798,39.15466666666667,137.28813559322035,39.1392C138.3050847457627,39.123733333333334,139.3220338983051,39.12853333333334,140.33898305084747,39.1072C141.35593220338984,39.08586666666666,142.3728813559322,38.93306666666666,143.38983050847457,38.742399999999996C144.40677966101694,38.55173333333333,145.42372881355934,38.458133333333336,146.4406779661017,37.9632C147.45762711864407,37.46826666666667,148.47457627118644,36.62746666666666,149.4915254237288,35.772800000000004C150.50847457627117,34.91813333333334,151.52542372881356,33.7888,152.54237288135593,32.8352C153.5593220338983,31.8816,154.5762711864407,31.119200000000006,155.59322033898306,30.051199999999998C156.61016949152543,28.9832,157.6271186440678,26.4272,158.64406779661016,26.4272C159.66101694915253,26.4272,160.67796610169492,26.549866666666667,161.6949152542373,26.7952C162.71186440677965,27.040533333333336,163.72881355932205,29.62773333333333,164.74576271186442,29.6928C165.76271186440678,29.757866666666665,166.77966101694915,29.790399999999998,167.79661016949152,29.790399999999998C168.81355932203388,29.790399999999998,169.83050847457628,22.13146666666667,170.84745762711864,18.803200000000004C171.864406779661,15.474933333333336,172.8813559322034,12.167733333333333,173.89830508474577,9.820799999999998C174.91525423728814,7.473866666666664,175.93220338983053,4.721600000000001,176.9491525423729,4.721600000000001C177.96610169491527,4.721600000000001,178.98305084745763,22.268,180,39.8144L180,40C178.98305084745763,40,177.96610169491527,40,176.9491525423729,40C175.93220338983053,40,174.91525423728814,40,173.89830508474577,40C172.8813559322034,40,171.864406779661,40,170.84745762711864,40C169.83050847457628,40,168.81355932203388,40,167.79661016949152,40C166.77966101694915,40,165.76271186440678,40,164.74576271186442,40C163.72881355932205,40,162.71186440677965,40,161.6949152542373,40C160.67796610169492,40,159.66101694915253,40,158.64406779661016,40C157.6271186440678,40,156.61016949152543,40,155.59322033898306,40C154.5762711864407,40,153.5593220338983,40,152.54237288135593,40C151.52542372881356,40,150.50847457627117,40,149.4915254237288,40C148.47457627118644,40,147.45762711864407,40,146.4406779661017,40C145.42372881355934,40,144.40677966101694,40,143.38983050847457,40C142.3728813559322,40,141.35593220338984,40,140.33898305084747,40C139.3220338983051,40,138.3050847457627,40,137.28813559322035,40C136.27118644067798,40,135.25423728813558,40,134.23728813559322,40C133.22033898305085,40,132.20338983050846,40,131.1864406779661,40C130.16949152542372,40,129.15254237288136,40,128.135593220339,40C127.11864406779662,40,126.10169491525424,40,125.08474576271188,40C124.0677966101695,40,123.05084745762711,40,122.03389830508473,40C121.01694915254237,40,120,40,118.98305084745763,40C117.96610169491525,40,116.94915254237289,40,115.9322033898305,40C114.91525423728814,40,113.89830508474576,40,112.88135593220339,40C111.86440677966102,40,110.84745762711864,40,109.83050847457628,40C108.8135593220339,40,107.79661016949153,40,106.77966101694915,40C105.76271186440678,40,104.7457627118644,40,103.72881355932203,40C102.71186440677965,40,101.69491525423729,40,100.6779661016949,40C99.66101694915254,40,98.64406779661016,40,97.62711864406779,40C96.61016949152543,40,95.59322033898306,40,94.57627118644069,40C93.55932203389831,40,92.54237288135593,40,91.52542372881355,40C90.50847457627118,40,89.49152542372882,40,88.47457627118645,40C87.45762711864407,40,86.4406779661017,40,85.42372881355932,40C84.40677966101696,40,83.38983050847457,40,82.37288135593221,40C81.35593220338983,40,80.33898305084746,40,79.32203389830508,40C78.30508474576271,40,77.28813559322033,40,76.27118644067797,40C75.2542372881356,40,74.23728813559322,40,73.22033898305085,40C72.20338983050848,40,71.1864406779661,40,70.16949152542374,40C69.15254237288136,40,68.13559322033899,40,67.11864406779661,40C66.10169491525424,40,65.08474576271186,40,64.0677966101695,40C63.05084745762712,40,62.03389830508474,40,61.01694915254237,40C59.99999999999999,40,58.983050847457626,40,57.96610169491525,40C56.94915254237288,40,55.93220338983051,40,54.91525423728814,40C53.898305084745765,40,52.88135593220339,40,51.86440677966102,40C50.847457627118644,40,49.83050847457627,40,48.813559322033896,40C47.79661016949152,40,46.77966101694915,40,45.762711864406775,40C44.7457627118644,40,43.728813559322035,40,42.71186440677966,40C41.69491525423729,40,40.67796610169491,40,39.66101694915254,40C38.644067796610166,40,37.6271186440678,40,36.610169491525426,40C35.59322033898305,40,34.57627118644068,40,33.559322033898304,40C32.54237288135593,40,31.525423728813557,40,30.508474576271183,40C29.491525423728813,40,28.47457627118644,40,27.45762711864407,40C26.440677966101696,40,25.423728813559322,40,24.406779661016948,40C23.389830508474574,40,22.372881355932204,40,21.35593220338983,40C20.338983050847457,40,19.322033898305087,40,18.305084745762713,40C17.28813559322034,40,16.271186440677965,40,15.254237288135592,40C14.23728813559322,40,13.220338983050846,40,12.203389830508474,40C11.186440677966102,40,10.169491525423728,40,9.152542372881356,40C8.135593220338983,40,7.11864406779661,40,6.101694915254237,40C5.084745762711864,40,4.067796610169491,40,3.0508474576271185,40C2.0338983050847457,40,1.0169491525423728,40,0,40Z"></path><path class="line" stroke="black" fill="none" d="M0,39.6752C1.0169491525423728,39.70133333333333,2.0338983050847457,39.727466666666665,3.0508474576271185,39.7328C4.067796610169491,39.73813333333333,5.084745762711864,39.73546666666667,6.101694915254237,39.7408C7.11864406779661,39.74613333333333,8.135593220338983,39.8144,9.152542372881356,39.8144C10.169491525423728,39.8144,11.186440677966102,39.7648,12.203389830508474,39.7648C13.220338983050846,39.7648,14.23728813559322,39.9152,15.254237288135592,39.9152C16.271186440677965,39.9152,17.28813559322034,39.812799999999996,18.305084745762713,39.812799999999996C19.322033898305087,39.812799999999996,20.338983050847457,39.872,21.35593220338983,39.872C22.372881355932204,39.872,23.389830508474574,39.80426666666666,24.406779661016948,39.8032C25.423728813559322,39.80213333333333,26.440677966101696,39.80266666666667,27.45762711864407,39.8016C28.47457627118644,39.800533333333334,29.491525423728813,39.792,30.508474576271183,39.792C31.525423728813557,39.792,32.54237288135593,39.8768,33.559322033898304,39.8768C34.57627118644068,39.8768,35.59322033898305,39.87253333333334,36.610169491525426,39.864000000000004C37.6271186440678,39.85546666666667,38.644067796610166,39.7824,39.66101694915254,39.7824C40.67796610169491,39.7824,41.69491525423729,39.8016,42.71186440677966,39.8016C43.728813559322035,39.8016,44.7457627118644,39.7968,45.762711864406775,39.7904C46.77966101694915,39.784,47.79661016949152,39.7632,48.813559322033896,39.7632C49.83050847457627,39.7632,50.847457627118644,39.77786666666667,51.86440677966102,39.7856C52.88135593220339,39.79333333333334,53.898305084745765,39.793600000000005,54.91525423728814,39.8096C55.93220338983051,39.8256,56.94915254237288,39.8992,57.96610169491525,39.8992C58.983050847457626,39.8992,59.99999999999999,39.828266666666664,61.01694915254237,39.808C62.03389830508474,39.787733333333335,63.05084745762712,39.79066666666667,64.0677966101695,39.7776C65.08474576271186,39.76453333333333,66.10169491525424,39.7296,67.11864406779661,39.7296C68.13559322033899,39.7296,69.15254237288136,39.76,70.16949152542374,39.76C71.1864406779661,39.76,72.20338983050848,39.7568,73.22033898305085,39.7568C74.23728813559322,39.7568,75.2542372881356,39.78293333333333,76.27118644067797,39.8016C77.28813559322033,39.82026666666667,78.30508474576271,39.8688,79.32203389830508,39.8688C80.33898305084746,39.8688,81.35593220338983,39.7888,82.37288135593221,39.7632C83.38983050847457,39.7376,84.40677966101696,39.727466666666665,85.42372881355932,39.715199999999996C86.4406779661017,39.70293333333333,87.45762711864407,39.6896,88.47457627118645,39.6896C89.49152542372882,39.6896,90.50847457627118,39.7008,91.52542372881355,39.7008C92.54237288135593,39.7008,93.55932203389831,39.672,94.57627118644069,39.672C95.59322033898306,39.672,96.61016949152543,39.687200000000004,97.62711864406779,39.7008C98.64406779661016,39.714400000000005,99.66101694915254,39.7536,100.6779661016949,39.7536C101.69491525423729,39.7536,102.71186440677965,39.601066666666675,103.72881355932203,39.5904C104.7457627118644,39.57973333333333,105.76271186440678,39.58506666666667,106.77966101694915,39.5744C107.79661016949153,39.563733333333325,108.8135593220339,39.52373333333333,109.83050847457628,39.5184C110.84745762711864,39.51306666666667,111.86440677966102,39.51573333333333,112.88135593220339,39.5104C113.89830508474576,39.505066666666664,114.91525423728814,39.48,115.9322033898305,39.48C116.94915254237289,39.48,117.96610169491525,39.544,118.98305084745763,39.5728C120,39.6016,121.01694915254237,39.6528,122.03389830508473,39.6528C123.05084745762711,39.6528,124.0677966101695,39.4504,125.08474576271188,39.3776C126.10169491525424,39.3048,127.11864406779662,39.24693333333333,128.135593220339,39.216C129.15254237288136,39.18506666666667,130.16949152542372,39.1696,131.1864406779661,39.1696C132.20338983050846,39.1696,133.22033898305085,39.2,134.23728813559322,39.2C135.25423728813558,39.2,136.27118644067798,39.15466666666667,137.28813559322035,39.1392C138.3050847457627,39.123733333333334,139.3220338983051,39.12853333333334,140.33898305084747,39.1072C141.35593220338984,39.08586666666666,142.3728813559322,38.93306666666666,143.38983050847457,38.742399999999996C144.40677966101694,38.55173333333333,145.42372881355934,38.458133333333336,146.4406779661017,37.9632C147.45762711864407,37.46826666666667,148.47457627118644,36.62746666666666,149.4915254237288,35.772800000000004C150.50847457627117,34.91813333333334,151.52542372881356,33.7888,152.54237288135593,32.8352C153.5593220338983,31.8816,154.5762711864407,31.119200000000006,155.59322033898306,30.051199999999998C156.61016949152543,28.9832,157.6271186440678,26.4272,158.64406779661016,26.4272C159.66101694915253,26.4272,160.67796610169492,26.549866666666667,161.6949152542373,26.7952C162.71186440677965,27.040533333333336,163.72881355932205,29.62773333333333,164.74576271186442,29.6928C165.76271186440678,29.757866666666665,166.77966101694915,29.790399999999998,167.79661016949152,29.790399999999998C168.81355932203388,29.790399999999998,169.83050847457628,22.13146666666667,170.84745762711864,18.803200000000004C171.864406779661,15.474933333333336,172.8813559322034,12.167733333333333,173.89830508474577,9.820799999999998C174.91525423728814,7.473866666666664,175.93220338983053,4.721600000000001,176.9491525423729,4.721600000000001C177.96610169491527,4.721600000000001,178.98305084745763,22.268,180,39.8144"></path><path class="axis-ceiling" stroke-width="1" stroke="black" fill="none" d="M175,0L180,0"></path><text class="axis-ceiling-label" font-family="sans-serif" text-anchor="end" font-size="10px" x="170" y="2.5">25000</text></g></svg>