<svg xmlns="http://www.w3.org/2000/svg" viewBox="0 0 180 60"><g transform="translate(0,20)"><path class="area" fill="rgba(0, 0, 0, 0.2)" d="M0,31.547520000000002C1.0169491525423728,31.178866666666668,2.0338983050847457,30.810213333333333,3.0508474576271185,30.43504C4.067796610169491,30.059866666666668,5.084745762711864,29.688933333333335,6.101694915254237,29.296480000000003C7.11864406779661,28.90402666666667,8.135593220338983,28.49504,9.152542372881356,28.08032C10.169491525423728,27.6656,11.186440677966102,27.216426666666667,12.203389830508474,26.80816C13.220338983050846,26.399893333333335,14.23728813559322,25.97576,15.254237288135592,25.63072C16.271186440677965,25.28568,17.28813559322034,24.73792,18.305084745762713,24.73792C19.322033898305087,24.73792,20.338983050847457,25.032,21.35593220338983,25.032C22.372881355932204,25.032,23.389830508474574,24.263360000000002,24.406779661016948,23.705280000000002C25.423728813559322,23.1472,26.440677966101696,22.370400000000004,27.45762711864407,21.68352C28.47457627118644,20.996640000000003,29.491525423728813,20.27792,30.508474576271183,19.584000000000003C31.525423728813557,18.89008,32.54237288135593,18.134346666666662,33.559322033898304,17.519999999999996C34.57627118644068,16.90565333333333,35.59322033898305,16.360186666666667,36.610169491525426,15.897920000000001C37.6271186440678,15.435653333333336,38.644067796610166,15.432586666666666,39.66101694915254,14.7464C40.67796610169491,14.060213333333332,41.69491525423729,12.492826666666666,42.71186440677966,11.7808C43.728813559322035,11.068773333333334,44.7457627118644,10.870453333333332,45.762711864406775,10.474239999999998C46.77966101694915,10.078026666666664,47.79661016949152,9.682106666666664,48.813559322033896,9.403519999999999C49.83050847457627,9.124933333333333,50.847457627118644,8.984106666666667,51.86440677966102,8.80272C52.88135593220339,8.621333333333334,53.898305084745765,8.477359999999997,54.91525423728814,8.315199999999997C55.93220338983051,8.153039999999997,56.94915254237288,7.960613333333334,57.96610169491525,7.829760000000001C58.983050847457626,7.698906666666669,59.99999999999999,7.635519999999999,61.01694915254237,7.530079999999999C62.03389830508474,7.424639999999998,63.05084745762712,7.405493333333333,64.0677966101695,7.197119999999999C65.08474576271186,6.988746666666666,66.10169491525424,6.365813333333334,67.11864406779661,6.279840000000001C68.13559322033899,6.1938666666666675,69.15254237288136,6.219333333333335,70.16949152542374,6.150880000000001C71.1864406779661,6.0824266666666675,72.20338983050848,5.9361066666666655,73.22033898305085,5.869119999999999C74.23728813559322,5.802133333333332,75.2542372881356,5.802159999999999,76.27118644067797,5.7489599999999985C77.28813559322033,5.695759999999998,78.30508474576271,5.549919999999999,79.32203389830508,5.549919999999999C80.33898305084746,5.549919999999999,81.35593220338983,5.591840000000001,82.37288135593221,5.591840000000001C83.38983050847457,5.591840000000001,84.40677966101696,5.565493333333332,85.42372881355932,5.557599999999998C86.4406779661017,5.549706666666665,87.45762711864407,5.5522666666666645,88.47457627118645,5.544479999999998C89.49152542372882,5.536693333333332,90.50847457627118,5.51088,91.52542372881355,5.51088C92.54237288135593,5.51088,93.55932203389831,6.5805066666666665,94.57627118644069,6.995360000000002C95.59322033898306,7.41021333333333,96.61016949152543,7.7253599999999985,97.62711864406779,7.999999999999998C98.64406779661016,8.27464,99.66101694915254,8.643200000000002,100.6779661016949,8.643200000000002C101.69491525423729,8.643200000000002,102.71186440677965,8.625919999999997,103.72881355932203,8.625919999999997C104.7457627118644,8.625919999999997,105.76271186440678,9.436693333333332,106.77966101694915,9.68528C107.79661016949153,9.933866666666669,108.8135593220339,10.117440000000002,109.83050847457628,10.117440000000002C110.84745762711864,10.117440000000002,111.86440677966102,10.00064,112.88135593220339,9.767039999999998C113.89830508474576,9.533439999999995,114.91525423728814,8.27613333333333,115.9322033898305,7.65952C116.94915254237289,7.042906666666665,117.96610169491525,6.5148800000000024,118.98305084745763,6.067360000000002C120,5.619840000000004,121.01694915254237,5.011626666666669,122.03389830508473,4.974400000000001C123.05084745762711,4.937173333333333,124.0677966101695,4.955786666666667,125.08474576271188,4.9185599999999985C126.10169491525424,4.88133333333333,127.11864406779662,4.133333333333332,128.135593220339,3.9507199999999987C129.15254237288136,3.7681066666666663,130.16949152542372,3.6768,131.1864406779661,3.6768C132.20338983050846,3.6768,133.22033898305085,4.073919999999999,134.23728813559322,4.46704C135.25423728813558,4.8601600000000005,136.27118644067798,5.495520000000001,137.28813559322035,6.035520000000001C138.3050847457627,6.575520000000001,139.3220338983051,7.160746666666662,140.33898305084747,7.707039999999998C141.35593220338984,8.253333333333329,142.3728813559322,8.873600000000003,143.38983050847457,9.313280000000002C144.40677966101694,9.752960000000005,145.42372881355934,9.959786666666663,146.4406779661017,10.345119999999998C147.45762711864407,10.73045333333333,148.47457627118644,11.131226666666668,149.4915254237288,11.62528C150.50847457627117,12.119333333333335,151.52542372881356,12.758080000000001,152.54237288135593,13.309440000000002C153.5593220338983,13.860800000000003,154.5762711864407,14.420186666666666,155.59322033898306,14.933440000000001C156.61016949152543,15.44669333333333,157.6271186440678,15.929066666666666,158.64406779661016,16.388959999999997C159.66101694915253,16.848853333333334,160.67796610169492,17.292293333333333,161.6949152542373,17.692800000000002C162.71186440677965,18.09330666666667,163.72881355932205,18.502613333333333,164.74576271186442,18.792C165.76271186440678,19.081386666666667,166.77966101694915,19.16922666666667,167.79661016949152,19.42912C168.81355932203388,19.689013333333335,169.83050847457628,20.04525333333333,170.84745762711864,20.35136C171.864406779661,20.657466666666668,172.8813559322034,20.970506666666665,173.89830508474577,21.26576C174.91525423728814,21.561013333333335,175.93220338983053,21.844693333333336,176.9491525423729,22.122880000000002C177.96610169491527,22.40106666666667,178.98305084745763,22.667973333333332,180,22.93488L180,40C178.98305084745763,40,177.96610169491527,40,176.9491525423729,40C175.93220338983053,40,174.91525423728814,40,173.89830508474577,40C172.8813559322034,40,171.864406779661,40,170.84745762711864,40C169.83050847457628,40,168.81355932203388,40,167.79661016949152,40C166.77966101694915,40,165.76271186440678,40,164.74576271186442,40C163.72881355932205,40,162.71186440677965,40,161.6949152542373,40C160.67796610169492,40,159.66101694915253,40,158.64406779661016,40C157.6271186440678,40,156.61016949152543,40,155.59322033898306,40C154.5762711864407,40,153.5593220338983,40,152.54237288135593,40C151.52542372881356,40,150.50847457627117,40,149.4915254237288,40C148.47457627118644,40,147.45762711864407,40,146.4406779661017,40C145.42372881355934,40,144.40677966101694,40,143.38983050847457,40C142.3728813559322,40,141.35593220338984,40,140.33898305084747,40C139.3220338983051,40,138.3050847457627,40,137.28813559322035,40C136.27118644067798,40,135.25423728813558,40,134.23728813559322,40C133.22033898305085,40,132.20338983050846,40,131.1864406779661,40C130.16949152542372,40,129.15254237288136,40,128.135593220339,40C127.11864406779662,40,126.10169491525424,40,125.08474576271188,40C124.0677966101695,40,123.05084745762711,40,122.03389830508473,40C121.01694915254237,40,120,40,118.98305084745763,40C117.96610169491525,40,116.94915254237289,40,115.9322033898305,40C114.91525423728814,40,113.89830508474576,40,112.88135593220339,40C111.86440677966102,40,110.84745762711864,40,109.83050847457628,40C108.8135593220339,40,107.79661016949153,40,106.77966101694915,40C105.76271186440678,40,104.7457627118644,40,103.72881355932203,40C102.71186440677965,40,101.69491525423729,40,100.6779661016949,40C99.66101694915254,40,98.64406779661016,40,97.62711864406779,40C96.61016949152543,40,95.59322033898306,40,94.57627118644069,40C93.55932203389831,40,92.54237288135593,40,91.52542372881355,40C90.50847457627118,40,89.49152542372882,40,88.47457627118645,40C87.45762711864407,40,86.4406779661017,40,85.42372881355932,40C84.40677966101696,40,83.38983050847457,40,82.37288135593221,40C81.35593220338983,40,80.33898305084746,40,79.32203389830508,40C78.30508474576271,40,77.28813559322033,40,76.27118644067797,40C75.2542372881356,40,74.23728813559322,40,73.22033898305085,40C72.20338983050848,40,71.1864406779661,40,70.16949152542374,40C69.15254237288136,40,68.13559322033899,40,67.11864406779661,40C66.10169491525424,40,65.08474576271186,40,64.0677966101695,40C63.05084745762712,40,62.03389830508474,40,61.01694915254237,40C59.99999999999999,40,58.983050847457626,40,57.96610169491525,40C56.94915254237288,40,55.93220338983051,40,54.91525423728814,40C53.898305084745765,40,52.88135593220339,40,51.86440677966102,40C50.847457627118644,40,49.83050847457627,40,48.813559322033896,40C47.79661016949152,40,46.77966101694915,40,45.762711864406775,40C44.7457627118644,40,43.728813559322035,40,42.71186440677966,40C41.69491525423729,40,40.67796610169491,40,39.66101694915254,40C38.644067796610166,40,37.6271186440678,40,36.610169491525426,40C35.59322033898305,40,34.57627118644068,40,33.559322033898304,40C32.54237288135593,40,31.525423728813557,40,30.508474576271183,40C29.491525423728813,40,28.47457627118644,40,27.45762711864407,40C26.440677966101696,40,25.423728813559322,40,24.406779661016948,40C23.389830508474574,40,22.372881355932204,40,21.35593220338983,40C20.338983050847457,40,19.322033898305087,40,18.305084745762713,40C17.28813559322034,40,16.271186440677965,40,15.254237288135592,40C14.23728813559322,40,13.220338983050846,40,12.203389830508474,40C11.186440677966102,40,10.169491525423728,40,9.152542372881356,40C8.135593220338983,40,7.11864406779661,40,6.101694915254237,40C5.084745762711864,40,4.067796610169491,40,3.0508474576271185,40C2.0338983050847457,40,1.0169491525423728,40,0,40Z"></path><path class="line" stroke="black" fill="none" d="M0,31.547520000000002C1.0169491525423728,31.178866666666668,2.0338983050847457,30.810213333333333,3.0508474576271185,30.43504C4.067796610169491,30.059866666666668,5.084745762711864,29.688933333333335,6.101694915254237,29.296480000000003C7.11864406779661,28.90402666666667,8.135593220338983,28.49504,9.152542372881356,28.08032C10.169491525423728,27.6656,11.186440677966102,27.216426666666667,12.203389830508474,26.80816C13.220338983050846,26.399893333333335,14.23728813559322,25.97576,15.254237288135592,25.63072C16.271186440677965,25.28568,17.28813559322034,24.73792,18.305084745762713,24.73792C19.322033898305087,24.73792,20.338983050847457,25.032,21.35593220338983,25.032C22.372881355932204,25.032,23.389830508474574,24.263360000000002,24.406779661016948,23.705280000000002C25.423728813559322,23.1472,26.440677966101696,22.370400000000004,27.45762711864407,21.68352C28.47457627118644,20.996640000000003,29.491525423728813,20.27792,30.508474576271183,19.584000000000003C31.525423728813557,18.89008,32.54237288135593,18.134346666666662,33.559322033898304,17.519999999999996C34.57627118644068,16.90565333333333,35.59322033898305,16.360186666666667,36.610169491525426,15.897920000000001C37.6271186440678,15.435653333333336,38.644067796610166,15.432586666666666,39.66101694915254,14.7464C40.67796610169491,14.060213333333332,41.69491525423729,12.492826666666666,42.71186440677966,11.7808C43.728813559322035,11.068773333333334,44.7457627118644,10.870453333333332,45.762711864406775,10.474239999999998C46.77966101694915,10.078026666666664,47.79661016949152,9.682106666666664,48.813559322033896,9.403519999999999C49.83050847457627,9.124933333333333,50.847457627118644,8.984106666666667,51.86440677966102,8.80272C52.88135593220339,8.621333333333334,53.898305084745765,8.477359999999997,54.91525423728814,8.315199999999997C55.93220338983051,8.153039999999997,56.94915254237288,7.960613333333334,57.96610169491525,7.829760000000001C58.983050847457626,7.698906666666669,59.99999999999999,7.635519999999999,61.01694915254237,7.530079999999999C62.03389830508474,7.424639999999998,63.05084745762712,7.405493333333333,64.0677966101695,7.197119999999999C65.08474576271186,6.988746666666666,66.10169491525424,6.365813333333334,67.11864406779661,6.279840000000001C68.13559322033899,6.1938666666666675,69.15254237288136,6.219333333333335,70.16949152542374,6.150880000000001C71.1864406779661,6.0824266666666675,72.20338983050848,5.9361066666666655,73.22033898305085,5.869119999999999C74.23728813559322,5.802133333333332,75.2542372881356,5.802159999999999,76.27118644067797,5.7489599999999985C77.28813559322033,5.695759999999998,78.30508474576271,5.549919999999999,79.32203389830508,5.549919999999999C80.33898305084746,5.549919999999999,81.35593220338983,5.591840000000001,82.37288135593221,5.591840000000001C83.38983050847457,5.591840000000001,84.40677966101696,5.565493333333332,85.42372881355932,5.557599999999998C86.4406779661017,5.549706666666665,87.45762711864407,5.5522666666666645,88.47457627118645,5.544479999999998C89.49152542372882,5.536693333333332,90.50847457627118,5.51088,91.52542372881355,5.51088C92.54237288135593,5.51088,93.55932203389831,6.5805066666666665,94.57627118644069,6.995360000000002C95.59322033898306,7.41021333333333,96.61016949152543,7.7253599999999985,97.62711864406779,7.999999999999998C98.64406779661016,8.27464,99.66101694915254,8.643200000000002,100.6779661016949,8.643200000000002C101.69491525423729,8.643200000000002,102.71186440677965,8.625919999999997,103.72881355932203,8.625919999999997C104.7457627118644,8.625919999999997,105.76271186440678,9.436693333333332,106.77966101694915,9.68528C107.79661016949153,9.933866666666669,108.8135593220339,10.117440000000002,109.83050847457628,10.117440000000002C110.84745762711864,10.117440000000002,111.86440677966102,10.00064,112.88135593220339,9.767039999999998C113.89830508474576,9.533439999999995,114.91525423728814,8.27613333333333,115.9322033898305,7.65952C116.94915254237289,7.042906666666665,117.96610169491525,6.5148800000000024,118.98305084745763,6.067360000000002C120,5.619840000000004,121.01694915254237,5.011626666666669,122.03389830508473,4.974400000000001C123.05084745762711,4.937173333333333,124.0677966101695,4.955786666666667,125.08474576271188,4.9185599999999985C126.10169491525424,4.88133333333333,127.11864406779662,4.133333333333332,128.135593220339,3.9507199999999987C129.15254237288136,3.7681066666666663,130.16949152542372,3.6768,131.1864406779661,3.6768C132.20338983050846,3.6768,133.22033898305085,4.073919999999999,134.23728813559322,4.46704C135.25423728813558,4.8601600000000005,136.27118644067798,5.495520000000001,137.28813559322035,6.035520000000001C138.3050847457627,6.575520000000001,139.3220338983051,7.160746666666662,140.33898305084747,7.707039999999998C141.35593220338984,8.253333333333329,142.3728813559322,8.873600000000003,143.38983050847457,9.313280000000002C144.40677966101694,9.752960000000005,145.42372881355934,9.959786666666663,146.4406779661017,10.345119999999998C147.45762711864407,10.73045333333333,148.47457627118644,11.131226666666668,149.4915254237288,11.62528C150.50847457627117,12.119333333333335,151.52542372881356,12.758080000000001,152.54237288135593,13.309440000000002C153.5593220338983,13.860800000000003,154.5762711864407,14.420186666666666,155.59322033898306,14.933440000000001C156.61016949152543,15.44669333333333,157.6271186440678,15.929066666666666,158.64406779661016,16.388959999999997C159.66101694915253,16.848853333333334,160.67796610169492,17.292293333333333,161.6949152542373,17.692800000000002C162.71186440677965,18.09330666666667,163.72881355932205,18.502613333333333,164.74576271186442,18.792C165.76271186440678,19.081386666666667,166.77966101694915,19.16922666666667,167.79661016949152,19.42912C168.81355932203388,19.689013333333335,169.83050847457628,20.04525333333333,170.84745762711864,20.35136C171.864406779661,20.657466666666668,172.8813559322034,20.970506666666665,173.89830508474577,21.26576C174.91525423728814,21.561013333333335,175.93220338983053,21.844693333333336,176.9491525423729,22.122880000000002C177.96610169491527,22.40106666666667,178.98305084745763,22.667973333333332,180,22.93488"></path><path class="axis-ceiling" stroke-width="1" stroke="black" fill="none" d="M175,0L180,0"></path><text class="axis-ceiling-label" font-family="sans-serif" text-anchor="end" font-size="10px" x="170" y="2.5">250000</text></g></svg>