<svg xmlns="http://www.w3.org/2000/svg" viewBox="0 0 180 60"><g transform="translate(0,20)"><path class="area" fill="rgba(0, 0, 0, 0.2)" d="M0,21.856C1.0169491525423728,22.372000000000003,2.0338983050847457,22.888000000000005,3.0508474576271185,23.440000000000005C4.067796610169491,23.992000000000004,5.084745762711864,24.86933333333333,6.101694915254237,25.168C7.11864406779661,25.46666666666667,8.135593220338983,25.317333333333334,9.152542372881356,25.616000000000003C10.169491525423728,25.914666666666673,11.186440677966102,27.289999999999996,12.203389830508474,28.491999999999997C13.220338983050846,29.694,14.23728813559322,32.828,15.254237288135592,32.828C16.271186440677965,32.828,17.28813559322034,30.256666666666668,18.305084745762713,29.428C19.322033898305087,28.599333333333334,20.338983050847457,27.856,21.35593220338983,27.856C22.372881355932204,27.856,23.389830508474574,28.381999999999998,24.406779661016948,28.676C25.423728813559322,28.97,26.440677966101696,29.619999999999997,27.45762711864407,29.619999999999997C28.47457627118644,29.619999999999997,29.491525423728813,29.392,30.508474576271183,29.392C31.525423728813557,29.392,32.54237288135593,30.996000000000002,33.559322033898304,31.912000000000003C34.57627118644068,32.828,35.59322033898305,34.888,36.610169491525426,34.888C37.6271186440678,34.888,38.644067796610166,33.10666666666666,39.66101694915254,32.464C40.67796610169491,31.82133333333333,41.69491525423729,31.032000000000004,42.71186440677966,31.032000000000004C43.728813559322035,31.032000000000004,44.7457627118644,31.612666666666666,45.762711864406775,31.816C46.77966101694915,32.019333333333336,47.79661016949152,32.252,48.813559322033896,32.252C49.83050847457627,32.252,50.847457627118644,32.224,51.86440677966102,32.224C52.88135593220339,32.224,53.898305084745765,33.779999999999994,54.91525423728814,34.452C55.93220338983051,35.123999999999995,56.94915254237288,36.256,57.96610169491525,36.256C58.983050847457626,36.256,59.99999999999999,34.84333333333333,61.01694915254237,34.327999999999996C62.03389830508474,33.81266666666666,63.05084745762712,33.164,64.0677966101695,33.164C65.08474576271186,33.164,66.10169491525424,33.784,67.11864406779661,33.784C68.13559322033899,33.784,69.15254237288136,33.508,70.16949152542374,33.508C71.1864406779661,33.508,72.20338983050848,33.71,73.22033898305085,33.92C74.23728813559322,34.13,75.2542372881356,34.333333333333336,76.27118644067797,34.768C77.28813559322033,35.202666666666666,78.30508474576271,36.528,79.32203389830508,36.528C80.33898305084746,36.528,81.35593220338983,34.85933333333334,82.37288135593221,34.252C83.38983050847457,33.64466666666667,84.40677966101696,32.884,85.42372881355932,32.884C86.4406779661017,32.884,87.45762711864407,33.296,88.47457627118645,33.296C89.49152542372882,33.296,90.50847457627118,33.164,91.52542372881355,33.164C92.54237288135593,33.164,93.55932203389831,33.26533333333334,94.57627118644069,33.468C95.59322033898306,33.67066666666667,96.61016949152543,34.44733333333333,97.62711864406779,34.868C98.64406779661016,35.28866666666667,99.66101694915254,35.992000000000004,100.6779661016949,35.992000000000004C101.69491525423729,35.992000000000004,102.71186440677965,35.022,103.72881355932203,34.476C104.7457627118644,33.93,105.76271186440678,32.716,106.77966101694915,32.716C107.79661016949153,32.716,108.8135593220339,32.984,109.83050847457628,32.984C110.84745762711864,32.984,111.86440677966102,32.95333333333333,112.88135593220339,32.892C113.89830508474576,32.83066666666667,114.91525423728814,32.476,115.9322033898305,32.476C116.94915254237289,32.476,117.96610169491525,33.492666666666665,118.98305084745763,34.06C120,34.62733333333333,121.01694915254237,35.88,122.03389830508473,35.88C123.05084745762711,35.88,124.0677966101695,34.094,125.08474576271188,33.32C126.10169491525424,32.54600000000001,127.11864406779662,31.38266666666667,128.135593220339,31.236C129.15254237288136,31.089333333333332,130.16949152542372,31.073999999999998,131.1864406779661,31.016C132.20338983050846,30.958,133.22033898305085,30.973333333333333,134.23728813559322,30.887999999999998C135.25423728813558,30.802666666666664,136.27118644067798,30.168,137.28813559322035,30.168C138.3050847457627,30.168,139.3220338983051,31.23733333333333,140.33898305084747,31.872C141.35593220338984,32.50666666666666,142.3728813559322,33.976,143.38983050847457,33.976C144.40677966101694,33.976,145.42372881355934,31.581333333333337,146.4406779661017,30.456C147.45762711864407,29.330666666666673,148.47457627118644,27.821333333333328,149.4915254237288,27.224C150.50847457627117,26.626666666666665,151.52542372881356,26.392,152.54237288135593,26.328C153.5593220338983,26.264,154.5762711864407,26.296,155.59322033898306,26.232C156.61016949152543,26.168,157.6271186440678,24.455999999999996,158.64406779661016,24.455999999999996C159.66101694915253,24.455999999999996,160.67796610169492,26.55,161.6949152542373,27.588C162.71186440677965,28.626,163.72881355932205,30.684,164.74576271186442,30.684C165.76271186440678,30.684,166.77966101694915,26.71066666666666,167.79661016949152,24.968C168.81355932203388,23.225333333333325,169.83050847457628,21.320666666666668,170.84745762711864,20.228C171.864406779661,19.135333333333335,172.8813559322034,18.412000000000003,173.89830508474577,18.412000000000003C174.91525423728814,18.412000000000003,175.93220338983053,20.146666666666636,176.9491525423729,23.007999999999996C177.96610169491527,25.869333333333326,178.98305084745763,30.724666666666664,180,35.58L180,40C178.98305084745763,40,177.96610169491527,40,176.9491525423729,40C175.93220338983053,40,174.91525423728814,40,173.89830508474577,40C172.8813559322034,40,171.864406779661,40,170.84745762711864,40C169.83050847457628,40,168.81355932203388,40,167.79661016949152,40C166.77966101694915,40,165.76271186440678,40,164.74576271186442,40C163.72881355932205,40,162.71186440677965,40,161.6949152542373,40C160.67796610169492,40,159.66101694915253,40,158.64406779661016,40C157.6271186440678,40,156.61016949152543,40,155.59322033898306,40C154.5762711864407,40,153.5593220338983,40,152.54237288135593,40C151.52542372881356,40,150.50847457627117,40,149.4915254237288,40C148.47457627118644,40,147.45762711864407,40,146.4406779661017,40C145.42372881355934,40,144.40677966101694,40,143.38983050847457,40C142.3728813559322,40,141.35593220338984,40,140.33898305084747,40C139.3220338983051,40,138.3050847457627,40,137.28813559322035,40C136.27118644067798,40,135.25423728813558,40,134.23728813559322,40C133.22033898305085,40,132.20338983050846,40,131.1864406779661,40C130.16949152542372,40,129.15254237288136,40,128.135593220339,40C127.11864406779662,40,126.10169491525424,40,125.08474576271188,40C124.0677966101695,40,123.05084745762711,40,122.03389830508473,40C121.01694915254237,40,120,40,118.98305084745763,40C117.96610169491525,40,116.94915254237289,40,115.9322033898305,40C114.91525423728814,40,113.89830508474576,40,112.88135593220339,40C111.86440677966102,40,110.84745762711864,40,109.83050847457628,40C108.8135593220339,40,107.79661016949153,40,106.77966101694915,40C105.76271186440678,40,104.7457627118644,40,103.72881355932203,40C102.71186440677965,40,101.69491525423729,40,100.6779661016949,40C99.66101694915254,40,98.64406779661016,40,97.62711864406779,40C96.61016949152543,40,95.59322033898306,40,94.57627118644069,40C93.55932203389831,40,92.54237288135593,40,91.52542372881355,40C90.50847457627118,40,89.49152542372882,40,88.47457627118645,40C87.45762711864407,40,86.4406779661017,40,85.42372881355932,40C84.40677966101696,40,83.38983050847457,40,82.37288135593221,40C81.35593220338983,40,80.33898305084746,40,79.32203389830508,40C78.30508474576271,40,77.28813559322033,40,76.27118644067797,40C75.2542372881356,40,74.23728813559322,40,73.22033898305085,40C72.20338983050848,40,71.1864406779661,40,70.16949152542374,40C69.15254237288136,40,68.13559322033899,40,67.11864406779661,40C66.10169491525424,40,65.08474576271186,40,64.0677966101695,40C63.05084745762712,40,62.03389830508474,40,61.01694915254237,40C59.99999999999999,40,58.983050847457626,40,57.96610169491525,40C56.94915254237288,40,55.93220338983051,40,54.91525423728814,40C53.898305084745765,40,52.88135593220339,40,51.86440677966102,40C50.847457627118644,40,49.83050847457627,40,48.813559322033896,40C47.79661016949152,40,46.77966101694915,40,45.762711864406775,40C44.7457627118644,40,43.728813559322035,40,42.71186440677966,40C41.69491525423729,40,40.67796610169491,40,39.66101694915254,40C38.644067796610166,40,37.6271186440678,40,36.610169491525426,40C35.59322033898305,40,34.57627118644068,40,33.559322033898304,40C32.54237288135593,40,31.525423728813557,40,30.508474576271183,40C29.491525423728813,40,28.47457627118644,40,27.45762711864407,40C26.440677966101696,40,25.423728813559322,40,24.406779661016948,40C23.389830508474574,40,22.372881355932204,40,21.35593220338983,40C20.338983050847457,40,19.322033898305087,40,18.305084745762713,40C17.28813559322034,40,16.271186440677965,40,15.254237288135592,40C14.23728813559322,40,13.220338983050846,40,12.203389830508474,40C11.186440677966102,40,10.169491525423728,40,9.152542372881356,40C8.135593220338983,40,7.11864406779661,40,6.101694915254237,40C5.084745762711864,40,4.067796610169491,40,3.0508474576271185,40C2.0338983050847457,40,1.0169491525423728,40,0,40Z"></path><path class="line" stroke="black" fill="none" d="M0,21.856C1.0169491525423728,22.372000000000003,2.0338983050847457,22.888000000000005,3.0508474576271185,23.440000000000005C4.067796610169491,23.992000000000004,5.084745762711864,24.86933333333333,6.101694915254237,25.168C7.11864406779661,25.46666666666667,8.135593220338983,25.317333333333334,9.152542372881356,25.616000000000003C10.169491525423728,25.914666666666673,11.186440677966102,27.289999999999996,12.203389830508474,28.491999999999997C13.220338983050846,29.694,14.23728813559322,32.828,15.254237288135592,32.828C16.271186440677965,32.828,17.28813559322034,30.256666666666668,18.305084745762713,29.428C19.322033898305087,28.599333333333334,20.338983050847457,27.856,21.35593220338983,27.856C22.372881355932204,27.856,23.389830508474574,28.381999999999998,24.406779661016948,28.676C25.423728813559322,28.97,26.440677966101696,29.619999999999997,27.45762711864407,29.619999999999997C28.47457627118644,29.619999999999997,29.491525423728813,29.392,30.508474576271183,29.392C31.525423728813557,29.392,32.54237288135593,30.996000000000002,33.559322033898304,31.912000000000003C34.57627118644068,32.828,35.59322033898305,34.888,36.610169491525426,34.888C37.6271186440678,34.888,38.644067796610166,33.10666666666666,39.66101694915254,32.464C40.67796610169491,31.82133333333333,41.69491525423729,31.032000000000004,42.71186440677966,31.032000000000004C43.728813559322035,31.032000000000004,44.7457627118644,31.612666666666666,45.762711864406775,31.816C46.77966101694915,32.019333333333336,47.79661016949152,32.252,48.813559322033896,32.252C49.83050847457627,32.252,50.847457627118644,32.224,51.86440677966102,32.224C52.88135593220339,32.224,53.898305084745765,33.779999999999994,54.91525423728814,34.452C55.93220338983051,35.123999999999995,56.94915254237288,36.256,57.96610169491525,36.256C58.983050847457626,36.256,59.99999999999999,34.84333333333333,61.01694915254237,34.327999999999996C62.03389830508474,33.81266666666666,63.05084745762712,33.164,64.0677966101695,33.164C65.08474576271186,33.164,66.10169491525424,33.784,67.11864406779661,33.784C68.13559322033899,33.784,69.15254237288136,33.508,70.16949152542374,33.508C71.1864406779661,33.508,72.20338983050848,33.71,73.22033898305085,33.92C74.23728813559322,34.13,75.2542372881356,34.333333333333336,76.27118644067797,34.768C77.28813559322033,35.202666666666666,78.30508474576271,36.528,79.32203389830508,36.528C80.33898305084746,36.528,81.35593220338983,34.85933333333334,82.37288135593221,34.252C83.38983050847457,33.64466666666667,84.40677966101696,32.884,85.42372881355932,32.884C86.4406779661017,32.884,87.45762711864407,33.296,88.47457627118645,33.296C89.49152542372882,33.296,90.50847457627118,33.164,91.52542372881355,33.164C92.54237288135593,33.164,93.55932203389831,33.26533333333334,94.57627118644069,33.468C95.59322033898306,33.67066666666667,96.61016949152543,34.44733333333333,97.62711864406779,34.868C98.64406779661016,35.28866666666667,99.66101694915254,35.992000000000004,100.6779661016949,35.992000000000004C101.69491525423729,35.992000000000004,102.71186440677965,35.022,103.72881355932203,34.476C104.7457627118644,33.93,105.76271186440678,32.716,106.77966101694915,32.716C107.79661016949153,32.716,108.8135593220339,32.984,109.83050847457628,32.984C110.84745762711864,32.984,111.86440677966102,32.95333333333333,112.88135593220339,32.892C113.89830508474576,32.83066666666667,114.91525423728814,32.476,115.9322033898305,32.476C116.94915254237289,32.476,117.96610169491525,33.492666666666665,118.98305084745763,34.06C120,34.62733333333333,121.01694915254237,35.88,122.03389830508473,35.88C123.05084745762711,35.88,124.0677966101695,34.094,125.08474576271188,33.32C126.10169491525424,32.54600000000001,127.11864406779662,31.38266666666667,128.135593220339,31.236C129.15254237288136,31.089333333333332,130.16949152542372,31.073999999999998,131.1864406779661,31.016C132.20338983050846,30.958,133.22033898305085,30.973333333333333,134.23728813559322,30.887999999999998C135.25423728813558,30.802666666666664,136.27118644067798,30.168,137.28813559322035,30.168C138.3050847457627,30.168,139.3220338983051,31.23733333333333,140.33898305084747,31.872C141.35593220338984,32.50666666666666,142.3728813559322,33.976,143.38983050847457,33.976C144.40677966101694,33.976,145.42372881355934,31.581333333333337,146.4406779661017,30.456C147.45762711864407,29.330666666666673,148.47457627118644,27.821333333333328,149.4915254237288,27.224C150.50847457627117,26.626666666666665,151.52542372881356,26.392,152.54237288135593,26.328C153.5593220338983,26.264,154.5762711864407,26.296,155.59322033898306,26.232C156.61016949152543,26.168,157.6271186440678,24.455999999999996,158.64406779661016,24.455999999999996C159.66101694915253,24.455999999999996,160.67796610169492,26.55,161.6949152542373,27.588C162.71186440677965,28.626,163.72881355932205,30.684,164.74576271186442,30.684C165.76271186440678,30.684,166.77966101694915,26.71066666666666,167.79661016949152,24.968C168.81355932203388,23.225333333333325,169.83050847457628,21.320666666666668,170.84745762711864,20.228C171.864406779661,19.135333333333335,172.8813559322034,18.412000000000003,173.89830508474577,18.412000000000003C174.91525423728814,18.412000000000003,175.93220338983053,20.146666666666636,176.9491525423729,23.007999999999996C177.96610169491527,25.869333333333326,178.98305084745763,30.724666666666664,180,35.58"></path><path class="axis-ceiling" stroke-width="1" stroke="black" fill="none" d="M175,0L180,0"></path><text class="axis-ceiling-label" font-family="sans-serif" text-anchor="end" font-size="10px" x="170" y="2.5">10000</text></g></svg>