<svg xmlns="http://www.w3.org/2000/svg" viewBox="0 0 180 60"><g transform="translate(0,20)"><path class="area" fill="rgba(0, 0, 0, 0.2)" d="M0,24.644106666666666C1.0169491525423728,24.64333111111111,2.0338983050847457,24.642555555555557,3.0508474576271185,24.64176C4.067796610169491,24.640964444444446,5.084745762711864,24.640171851851854,6.101694915254237,24.639333333333333C7.11864406779661,24.638494814814813,8.135593220338983,24.63764296296296,9.152542372881356,24.636728888888886C10.169491525423728,24.63581481481481,11.186440677966102,24.634854814814815,12.203389830508474,24.633848888888892C13.220338983050846,24.632842962962968,14.23728813559322,24.631786666666667,15.254237288135592,24.630693333333333C16.271186440677965,24.6296,17.28813559322034,24.62846962962963,18.305084745762713,24.62728888888889C19.322033898305087,24.626108148148152,20.338983050847457,24.624896296296296,21.35593220338983,24.62360888888889C22.372881355932204,24.62232148148148,23.389830508474574,24.621034074074075,24.406779661016948,24.619564444444446C25.423728813559322,24.618094814814818,26.440677966101696,24.616567407407405,27.45762711864407,24.61479111111111C28.47457627118644,24.613014814814814,29.491525423728813,24.61132444444445,30.508474576271183,24.60890666666667C31.525423728813557,24.60648888888889,32.54237288135593,24.603997037037033,33.559322033898304,24.60028444444444C34.57627118644068,24.59657185185185,35.59322033898305,24.592392592592592,36.610169491525426,24.58663111111111C37.6271186440678,24.58086962962963,38.644067796610166,24.574367407407408,39.66101694915254,24.565715555555556C40.67796610169491,24.557063703703705,41.69491525423729,24.54668148148148,42.71186440677966,24.53472C43.728813559322035,24.52275851851852,44.7457627118644,24.508734814814815,45.762711864406775,24.493946666666666C46.77966101694915,24.479158518518517,47.79661016949152,24.463056296296298,48.813559322033896,24.445991111111113C49.83050847457627,24.428925925925927,50.847457627118644,24.411946666666665,51.86440677966102,24.391555555555556C52.88135593220339,24.371164444444446,53.898305084745765,24.34932592592593,54.91525423728814,24.323644444444447C55.93220338983051,24.297962962962966,56.94915254237288,24.26954222222222,57.96610169491525,24.237466666666666C58.983050847457626,24.205391111111112,59.99999999999999,24.170293333333337,61.01694915254237,24.131191111111114C62.03389830508474,24.09208888888889,63.05084745762712,24.04931703703704,64.0677966101695,24.002853333333334C65.08474576271186,23.95638962962963,66.10169491525424,23.90563703703704,67.11864406779661,23.852408888888892C68.13559322033899,23.799180740740745,69.15254237288136,23.74525777777778,70.16949152542374,23.683484444444446C71.1864406779661,23.621711111111114,72.20338983050848,23.55498370370371,73.22033898305085,23.481768888888894C74.23728813559322,23.40855407407408,75.2542372881356,23.329173333333333,76.27118644067797,23.244195555555557C77.28813559322033,23.15921777777778,78.30508474576271,23.068551111111116,79.32203389830508,22.971902222222226C80.33898305084746,22.875253333333337,81.35593220338983,22.772915555555556,82.37288135593221,22.664302222222222C83.38983050847457,22.555688888888888,84.40677966101696,22.44007259259259,85.42372881355932,22.32022222222222C86.4406779661017,22.20037185185185,87.45762711864407,22.07524888888889,88.47457627118645,21.9452C89.49152542372882,21.81515111111111,90.50847457627118,21.681456296296293,91.52542372881355,21.539928888888888C92.54237288135593,21.39840148148148,93.55932203389831,21.250380740740738,94.57627118644069,21.096035555555552C95.59322033898306,20.941690370370367,96.61016949152543,20.78151111111111,97.62711864406779,20.613857777777778C98.64406779661016,20.446204444444444,99.66101694915254,20.27145925925926,100.6779661016949,20.090115555555556C101.69491525423729,19.908771851851853,102.71186440677965,19.720325925925923,103.72881355932203,19.525795555555554C104.7457627118644,19.331265185185185,105.76271186440678,19.129832592592592,106.77966101694915,18.922933333333333C107.79661016949153,18.716034074074074,108.8135593220339,18.50063851851852,109.83050847457628,18.2844C110.84745762711864,18.068161481481482,111.86440677966102,17.84916296296296,112.88135593220339,17.62550222222222C113.89830508474576,17.40184148148148,114.91525423728814,17.175056296296294,115.9322033898305,16.942435555555555C116.94915254237289,16.709814814814813,117.96610169491525,16.471121481481482,118.98305084745763,16.229777777777777C120,15.988434074074075,121.01694915254237,15.742395555555555,122.03389830508473,15.494373333333336C123.05084745762711,15.246351111111112,124.0677966101695,14.995945185185185,125.08474576271188,14.741644444444443C126.10169491525424,14.487343703703703,127.11864406779662,14.22858962962963,128.135593220339,13.968568888888889C129.15254237288136,13.708548148148148,130.16949152542372,13.445395555555553,131.1864406779661,13.181519999999999C132.20338983050846,12.917644444444441,133.22033898305085,12.65292148148148,134.23728813559322,12.385315555555554C135.25423728813558,12.117709629629628,136.27118644067798,11.846308148148147,137.28813559322035,11.575884444444444C138.3050847457627,11.305460740740742,139.3220338983051,11.034411851851855,140.33898305084747,10.762773333333335C141.35593220338984,10.491134814814819,142.3728813559322,10.218912592592591,143.38983050847457,9.946053333333333C144.40677966101694,9.673194074074074,145.42372881355934,9.392219259259264,146.4406779661017,9.12561777777778C147.45762711864407,8.8590162962963,148.47457627118644,8.603697777777777,149.4915254237288,8.346444444444444C150.50847457627117,8.08919111111111,151.52542372881356,7.835207407407406,152.54237288135593,7.5820977777777765C153.5593220338983,7.328988148148147,154.5762711864407,7.077560000000001,155.59322033898306,6.8277866666666664C156.61016949152543,6.578013333333335,157.6271186440678,6.33013185185185,158.64406779661016,6.0834577777777765C159.66101694915253,5.836783703703701,160.67796610169492,5.592032592592591,161.6949152542373,5.34774222222222C162.71186440677965,5.10345185185185,163.72881355932205,4.858804444444445,164.74576271186442,4.617715555555555C165.76271186440678,4.3766266666666676,166.77966101694915,4.1428266666666635,167.79661016949152,3.9012088888888874C168.81355932203388,3.6595911111111086,169.83050847457628,3.4111466666666668,170.84745762711864,3.168008888888889C171.864406779661,2.9248711111111114,172.8813559322034,2.6825318518518513,173.89830508474577,2.4423822222222213C174.91525423728814,2.2022325925925914,175.93220338983053,1.9624251851851855,176.9491525423729,1.7271111111111104C177.96610169491527,1.4917970370370375,178.98305084745763,1.2611474074074072,180,1.0304977777777768L180,40C178.98305084745763,40,177.96610169491527,40,176.9491525423729,40C175.93220338983053,40,174.91525423728814,40,173.89830508474577,40C172.8813559322034,40,171.864406779661,40,170.84745762711864,40C169.83050847457628,40,168.81355932203388,40,167.79661016949152,40C166.77966101694915,40,165.76271186440678,40,164.74576271186442,40C163.72881355932205,40,162.71186440677965,40,161.6949152542373,40C160.67796610169492,40,159.66101694915253,40,158.64406779661016,40C157.6271186440678,40,156.61016949152543,40,155.59322033898306,40C154.5762711864407,40,153.5593220338983,40,152.54237288135593,40C151.52542372881356,40,150.50847457627117,40,149.4915254237288,40C148.47457627118644,40,147.45762711864407,40,146.4406779661017,40C145.42372881355934,40,144.40677966101694,40,143.38983050847457,40C142.3728813559322,40,141.35593220338984,40,140.33898305084747,40C139.3220338983051,40,138.3050847457627,40,137.28813559322035,40C136.27118644067798,40,135.25423728813558,40,134.23728813559322,40C133.22033898305085,40,132.20338983050846,40,131.1864406779661,40C130.16949152542372,40,129.15254237288136,40,128.135593220339,40C127.11864406779662,40,126.10169491525424,40,125.08474576271188,40C124.0677966101695,40,123.05084745762711,40,122.03389830508473,40C121.01694915254237,40,120,40,118.98305084745763,40C117.96610169491525,40,116.94915254237289,40,115.9322033898305,40C114.91525423728814,40,113.89830508474576,40,112.88135593220339,40C111.86440677966102,40,110.84745762711864,40,109.83050847457628,40C108.8135593220339,40,107.79661016949153,40,106.77966101694915,40C105.76271186440678,40,104.7457627118644,40,103.72881355932203,40C102.71186440677965,40,101.69491525423729,40,100.6779661016949,40C99.66101694915254,40,98.64406779661016,40,97.62711864406779,40C96.61016949152543,40,95.59322033898306,40,94.57627118644069,40C93.55932203389831,40,92.54237288135593,40,91.52542372881355,40C90.50847457627118,40,89.49152542372882,40,88.47457627118645,40C87.45762711864407,40,86.4406779661017,40,85.42372881355932,40C84.40677966101696,40,83.38983050847457,40,82.37288135593221,40C81.35593220338983,40,80.33898305084746,40,79.32203389830508,40C78.30508474576271,40,77.28813559322033,40,76.27118644067797,40C75.2542372881356,40,74.23728813559322,40,73.22033898305085,40C72.20338983050848,40,71.1864406779661,40,70.16949152542374,40C69.15254237288136,40,68.13559322033899,40,67.11864406779661,40C66.10169491525424,40,65.08474576271186,40,64.0677966101695,40C63.05084745762712,40,62.03389830508474,40,61.01694915254237,40C59.99999999999999,40,58.983050847457626,40,57.96610169491525,40C56.94915254237288,40,55.93220338983051,40,54.91525423728814,40C53.898305084745765,40,52.88135593220339,40,51.86440677966102,40C50.847457627118644,40,49.83050847457627,40,48.813559322033896,40C47.79661016949152,40,46.77966101694915,40,45.762711864406775,40C44.7457627118644,40,43.728813559322035,40,42.71186440677966,40C41.69491525423729,40,40.67796610169491,40,39.66101694915254,40C38.644067796610166,40,37.6271186440678,40,36.610169491525426,40C35.59322033898305,40,34.57627118644068,40,33.559322033898304,40C32.54237288135593,40,31.525423728813557,40,30.508474576271183,40C29.491525423728813,40,28.47457627118644,40,27.45762711864407,40C26.440677966101696,40,25.423728813559322,40,24.406779661016948,40C23.389830508474574,40,22.372881355932204,40,21.35593220338983,40C20.338983050847457,40,19.322033898305087,40,18.305084745762713,40C17.28813559322034,40,16.271186440677965,40,15.254237288135592,40C14.23728813559322,40,13.220338983050846,40,12.203389830508474,40C11.186440677966102,40,10.169491525423728,40,9.152542372881356,40C8.135593220338983,40,7.11864406779661,40,6.101694915254237,40C5.084745762711864,40,4.067796610169491,40,3.0508474576271185,40C2.0338983050847457,40,1.0169491525423728,40,0,40Z"></path><path class="line" stroke="black" fill="none" d="M0,24.644106666666666C1.0169491525423728,24.64333111111111,2.0338983050847457,24.642555555555557,3.0508474576271185,24.64176C4.067796610169491,24.640964444444446,5.084745762711864,24.640171851851854,6.101694915254237,24.639333333333333C7.11864406779661,24.638494814814813,8.135593220338983,24.63764296296296,9.152542372881356,24.636728888888886C10.169491525423728,24.63581481481481,11.186440677966102,24.634854814814815,12.203389830508474,24.633848888888892C13.220338983050846,24.632842962962968,14.23728813559322,24.631786666666667,15.254237288135592,24.630693333333333C16.271186440677965,24.6296,17.28813559322034,24.62846962962963,18.305084745762713,24.62728888888889C19.322033898305087,24.626108148148152,20.338983050847457,24.624896296296296,21.35593220338983,24.62360888888889C22.372881355932204,24.62232148148148,23.389830508474574,24.621034074074075,24.406779661016948,24.619564444444446C25.423728813559322,24.618094814814818,26.440677966101696,24.616567407407405,27.45762711864407,24.61479111111111C28.47457627118644,24.613014814814814,29.491525423728813,24.61132444444445,30.508474576271183,24.60890666666667C31.525423728813557,24.60648888888889,32.54237288135593,24.603997037037033,33.559322033898304,24.60028444444444C34.57627118644068,24.59657185185185,35.59322033898305,24.592392592592592,36.610169491525426,24.58663111111111C37.6271186440678,24.58086962962963,38.644067796610166,24.574367407407408,39.66101694915254,24.565715555555556C40.67796610169491,24.557063703703705,41.69491525423729,24.54668148148148,42.71186440677966,24.53472C43.728813559322035,24.52275851851852,44.7457627118644,24.508734814814815,45.762711864406775,24.493946666666666C46.77966101694915,24.479158518518517,47.79661016949152,24.463056296296298,48.813559322033896,24.445991111111113C49.83050847457627,24.428925925925927,50.847457627118644,24.411946666666665,51.86440677966102,24.391555555555556C52.88135593220339,24.371164444444446,53.898305084745765,24.34932592592593,54.91525423728814,24.323644444444447C55.93220338983051,24.297962962962966,56.94915254237288,24.26954222222222,57.96610169491525,24.237466666666666C58.983050847457626,24.205391111111112,59.99999999999999,24.170293333333337,61.01694915254237,24.131191111111114C62.03389830508474,24.09208888888889,63.05084745762712,24.04931703703704,64.0677966101695,24.002853333333334C65.08474576271186,23.95638962962963,66.10169491525424,23.90563703703704,67.11864406779661,23.852408888888892C68.13559322033899,23.799180740740745,69.15254237288136,23.74525777777778,70.16949152542374,23.683484444444446C71.1864406779661,23.621711111111114,72.20338983050848,23.55498370370371,73.22033898305085,23.481768888888894C74.23728813559322,23.40855407407408,75.2542372881356,23.329173333333333,76.27118644067797,23.244195555555557C77.28813559322033,23.15921777777778,78.30508474576271,23.068551111111116,79.32203389830508,22.971902222222226C80.33898305084746,22.875253333333337,81.35593220338983,22.772915555555556,82.37288135593221,22.664302222222222C83.38983050847457,22.555688888888888,84.40677966101696,22.44007259259259,85.42372881355932,22.32022222222222C86.4406779661017,22.20037185185185,87.45762711864407,22.07524888888889,88.47457627118645,21.9452C89.49152542372882,21.81515111111111,90.50847457627118,21.681456296296293,91.52542372881355,21.539928888888888C92.54237288135593,21.39840148148148,93.55932203389831,21.250380740740738,94.57627118644069,21.096035555555552C95.59322033898306,20.941690370370367,96.61016949152543,20.78151111111111,97.62711864406779,20.613857777777778C98.64406779661016,20.446204444444444,99.66101694915254,20.27145925925926,100.6779661016949,20.090115555555556C101.69491525423729,19.908771851851853,102.71186440677965,19.720325925925923,103.72881355932203,19.525795555555554C104.7457627118644,19.331265185185185,105.76271186440678,19.129832592592592,106.77966101694915,18.922933333333333C107.79661016949153,18.716034074074074,108.8135593220339,18.50063851851852,109.83050847457628,18.2844C110.84745762711864,18.068161481481482,111.86440677966102,17.84916296296296,112.88135593220339,17.62550222222222C113.89830508474576,17.40184148148148,114.91525423728814,17.175056296296294,115.9322033898305,16.942435555555555C116.94915254237289,16.709814814814813,117.96610169491525,16.471121481481482,118.98305084745763,16.229777777777777C120,15.988434074074075,121.01694915254237,15.742395555555555,122.03389830508473,15.494373333333336C123.05084745762711,15.246351111111112,124.0677966101695,14.995945185185185,125.08474576271188,14.741644444444443C126.10169491525424,14.487343703703703,127.11864406779662,14.22858962962963,128.135593220339,13.968568888888889C129.15254237288136,13.708548148148148,130.16949152542372,13.445395555555553,131.1864406779661,13.181519999999999C132.20338983050846,12.917644444444441,133.22033898305085,12.65292148148148,134.23728813559322,12.385315555555554C135.25423728813558,12.117709629629628,136.27118644067798,11.846308148148147,137.28813559322035,11.575884444444444C138.3050847457627,11.305460740740742,139.3220338983051,11.034411851851855,140.33898305084747,10.762773333333335C141.35593220338984,10.491134814814819,142.3728813559322,10.218912592592591,143.38983050847457,9.946053333333333C144.40677966101694,9.673194074074074,145.42372881355934,9.392219259259264,146.4406779661017,9.12561777777778C147.45762711864407,8.8590162962963,148.47457627118644,8.603697777777777,149.4915254237288,8.346444444444444C150.50847457627117,8.08919111111111,151.52542372881356,7.835207407407406,152.54237288135593,7.5820977777777765C153.5593220338983,7.328988148148147,154.5762711864407,7.077560000000001,155.59322033898306,6.8277866666666664C156.61016949152543,6.578013333333335,157.6271186440678,6.33013185185185,158.64406779661016,6.0834577777777765C159.66101694915253,5.836783703703701,160.67796610169492,5.592032592592591,161.6949152542373,5.34774222222222C162.71186440677965,5.10345185185185,163.72881355932205,4.858804444444445,164.74576271186442,4.617715555555555C165.76271186440678,4.3766266666666676,166.77966101694915,4.1428266666666635,167.79661016949152,3.9012088888888874C168.81355932203388,3.6595911111111086,169.83050847457628,3.4111466666666668,170.84745762711864,3.168008888888889C171.864406779661,2.9248711111111114,172.8813559322034,2.6825318518518513,173.89830508474577,2.4423822222222213C174.91525423728814,2.2022325925925914,175.93220338983053,1.9624251851851855,176.9491525423729,1.7271111111111104C177.96610169491527,1.4917970370370375,178.98305084745763,1.2611474074074072,180,1.0304977777777768"></path><path class="axis-ceiling" stroke-width="1" stroke="black" fill="none" d="M175,0L180,0"></path><text class="axis-ceiling-label" font-family="sans-serif" text-anchor="end" font-size="10px" x="170" y="2.5">4500000</text></g></svg>