<svg xmlns="http://www.w3.org/2000/svg" viewBox="0 0 180 60"><g transform="translate(0,20)"><path class="area" fill="rgba(0, 0, 0, 0.2)" d="M0,19.197508C1.0169491525423728,19.112485,2.0338983050847457,19.027461999999996,3.0508474576271185,18.942511999999997C4.067796610169491,18.857561999999998,5.084745762711864,18.76624,6.101694915254237,18.687808C7.11864406779661,18.609376,8.135593220338983,18.532709333333337,9.152542372881356,18.47192C10.169491525423728,18.41113066666667,11.186440677966102,18.383898,12.203389830508474,18.323071999999996C13.220338983050846,18.262245999999994,14.23728813559322,18.18547933333333,15.254237288135592,18.106963999999998C16.271186440677965,18.028448666666666,17.28813559322034,17.93524933333333,18.305084745762713,17.851979999999998C19.322033898305087,17.768710666666664,20.338983050847457,17.685376666666663,21.35593220338983,17.607347999999998C22.372881355932204,17.529319333333333,23.389830508474574,17.457952,24.406779661016948,17.383808C25.423728813559322,17.309663999999998,26.440677966101696,17.233339333333333,27.45762711864407,17.162484C28.47457627118644,17.091628666666665,29.491525423728813,17.014293333333335,30.508474576271183,16.958676C31.525423728813557,16.903058666666666,32.54237288135593,16.884285333333334,33.559322033898304,16.828780000000002C34.57627118644068,16.77327466666667,35.59322033898305,16.698116666666667,36.610169491525426,16.625644C37.6271186440678,16.553171333333335,38.644067796610166,16.468288,39.66101694915254,16.393944C40.67796610169491,16.3196,41.69491525423729,16.248116,42.71186440677966,16.179579999999998C43.728813559322035,16.111044,44.7457627118644,16.045346000000002,45.762711864406775,15.982728000000002C46.77966101694915,15.920110000000003,47.79661016949152,15.860122666666669,48.813559322033896,15.803872000000002C49.83050847457627,15.747621333333335,50.847457627118644,15.690134666666665,51.86440677966102,15.645223999999999C52.88135593220339,15.600313333333332,53.898305084745765,15.566366666666669,54.91525423728814,15.534408000000003C55.93220338983051,15.502449333333336,56.94915254237288,15.494322000000002,57.96610169491525,15.453472000000001C58.983050847457626,15.412622,59.99999999999999,15.349956666666666,61.01694915254237,15.289307999999998C62.03389830508474,15.228659333333331,63.05084745762712,15.154516666666664,64.0677966101695,15.089579999999998C65.08474576271186,15.024643333333332,66.10169491525424,14.962898000000001,67.11864406779661,14.899688000000001C68.13559322033899,14.836478000000001,69.15254237288136,14.770793333333335,70.16949152542374,14.710320000000001C71.1864406779661,14.649846666666667,72.20338983050848,14.585682666666667,73.22033898305085,14.536847999999999C74.23728813559322,14.488013333333331,75.2542372881356,14.466880666666666,76.27118644067797,14.417311999999999C77.28813559322033,14.367743333333332,78.30508474576271,14.30491933333333,79.32203389830508,14.239435999999998C80.33898305084746,14.173952666666665,81.35593220338983,14.094860000000002,82.37288135593221,14.024412000000002C83.38983050847457,13.953964000000003,84.40677966101696,13.884204666666665,85.42372881355932,13.816747999999999C86.4406779661017,13.749291333333332,87.45762711864407,13.685070000000001,88.47457627118645,13.619672000000001C89.49152542372882,13.554274000000003,90.50847457627118,13.488478000000002,91.52542372881355,13.424360000000002C92.54237288135593,13.360242000000001,93.55932203389831,13.286636666666665,94.57627118644069,13.234963999999998C95.59322033898306,13.183291333333331,96.61016949152543,13.164888666666668,97.62711864406779,13.114324000000002C98.64406779661016,13.063759333333335,99.66101694915254,12.998625333333331,100.6779661016949,12.931575999999998C101.69491525423729,12.864526666666665,102.71186440677965,12.78528466666667,103.72881355932203,12.712028000000002C104.7457627118644,12.638771333333336,105.76271186440678,12.563338666666665,106.77966101694915,12.492035999999999C107.79661016949153,12.420733333333331,108.8135593220339,12.354011999999999,109.83050847457628,12.284212C110.84745762711864,12.214412000000001,111.86440677966102,12.141182,112.88135593220339,12.073236000000001C113.89830508474576,12.005290000000002,114.91525423728814,11.931425333333333,115.9322033898305,11.876536C116.94915254237289,11.821646666666666,117.96610169491525,11.799189999999998,118.98305084745763,11.743899999999998C120,11.688609999999999,121.01694915254237,11.616487333333334,122.03389830508473,11.544796000000002C123.05084745762711,11.473104666666668,124.0677966101695,11.389124,125.08474576271188,11.313752C126.10169491525424,11.23838,127.11864406779662,11.162604666666667,128.135593220339,11.092564C129.15254237288136,11.022523333333334,130.16949152542372,10.958418,131.1864406779661,10.893508C132.20338983050846,10.828598,133.22033898305085,10.761034,134.23728813559322,10.703104C135.25423728813558,10.645173999999999,136.27118644067798,10.588298,137.28813559322035,10.545928C138.3050847457627,10.503558,139.3220338983051,10.492322,140.33898305084747,10.448884C141.35593220338984,10.405446,142.3728813559322,10.344499333333333,143.38983050847457,10.2853C144.40677966101694,10.226100666666666,145.42372881355934,10.157046,146.4406779661017,10.093687999999998C147.45762711864407,10.03033,148.47457627118644,9.965245333333332,149.4915254237288,9.905152C150.50847457627117,9.845058666666667,151.52542372881356,9.791971333333334,152.54237288135593,9.733128C153.5593220338983,9.674284666666667,154.5762711864407,9.607986000000002,155.59322033898306,9.552092000000002C156.61016949152543,9.496198000000001,157.6271186440678,9.440046666666666,158.64406779661016,9.397763999999999C159.66101694915253,9.355481333333332,160.67796610169492,9.341959333333335,161.6949152542373,9.298396000000002C162.71186440677965,9.254832666666669,163.72881355932205,9.194232666666666,164.74576271186442,9.136384C165.76271186440678,9.078535333333333,166.77966101694915,9.009990666666669,167.79661016949152,8.951304000000002C168.81355932203388,8.892617333333336,169.83050847457628,8.836554000000001,170.84745762711864,8.784264C171.864406779661,8.731974,172.8813559322034,8.678526666666668,173.89830508474577,8.637564000000001C174.91525423728814,8.596601333333334,175.93220338983053,8.565824666666668,176.9491525423729,8.538488000000001C177.96610169491527,8.511151333333334,178.98305084745763,8.492347666666667,180,8.473544L180,40C178.98305084745763,40,177.96610169491527,40,176.9491525423729,40C175.93220338983053,40,174.91525423728814,40,173.89830508474577,40C172.8813559322034,40,171.864406779661,40,170.84745762711864,40C169.83050847457628,40,168.81355932203388,40,167.79661016949152,40C166.77966101694915,40,165.76271186440678,40,164.74576271186442,40C163.72881355932205,40,162.71186440677965,40,161.6949152542373,40C160.67796610169492,40,159.66101694915253,40,158.64406779661016,40C157.6271186440678,40,156.61016949152543,40,155.59322033898306,40C154.5762711864407,40,153.5593220338983,40,152.54237288135593,40C151.52542372881356,40,150.50847457627117,40,149.4915254237288,40C148.47457627118644,40,147.45762711864407,40,146.4406779661017,40C145.42372881355934,40,144.40677966101694,40,143.38983050847457,40C142.3728813559322,40,141.35593220338984,40,140.33898305084747,40C139.3220338983051,40,138.3050847457627,40,137.28813559322035,40C136.27118644067798,40,135.25423728813558,40,134.23728813559322,40C133.22033898305085,40,132.20338983050846,40,131.1864406779661,40C130.16949152542372,40,129.15254237288136,40,128.135593220339,40C127.11864406779662,40,126.10169491525424,40,125.08474576271188,40C124.0677966101695,40,123.05084745762711,40,122.03389830508473,40C121.01694915254237,40,120,40,118.98305084745763,40C117.96610169491525,40,116.94915254237289,40,115.9322033898305,40C114.91525423728814,40,113.89830508474576,40,112.88135593220339,40C111.86440677966102,40,110.84745762711864,40,109.83050847457628,40C108.8135593220339,40,107.79661016949153,40,106.77966101694915,40C105.76271186440678,40,104.7457627118644,40,103.72881355932203,40C102.71186440677965,40,101.69491525423729,40,100.6779661016949,40C99.66101694915254,40,98.64406779661016,40,97.62711864406779,40C96.61016949152543,40,95.59322033898306,40,94.57627118644069,40C93.55932203389831,40,92.54237288135593,40,91.52542372881355,40C90.50847457627118,40,89.49152542372882,40,88.47457627118645,40C87.45762711864407,40,86.4406779661017,40,85.42372881355932,40C84.40677966101696,40,83.38983050847457,40,82.37288135593221,40C81.35593220338983,40,80.33898305084746,40,79.32203389830508,40C78.30508474576271,40,77.28813559322033,40,76.27118644067797,40C75.2542372881356,40,74.23728813559322,40,73.22033898305085,40C72.20338983050848,40,71.1864406779661,40,70.16949152542374,40C69.15254237288136,40,68.13559322033899,40,67.11864406779661,40C66.10169491525424,40,65.08474576271186,40,64.0677966101695,40C63.05084745762712,40,62.03389830508474,40,61.01694915254237,40C59.99999999999999,40,58.983050847457626,40,57.96610169491525,40C56.94915254237288,40,55.93220338983051,40,54.91525423728814,40C53.898305084745765,40,52.88135593220339,40,51.86440677966102,40C50.847457627118644,40,49.83050847457627,40,48.813559322033896,40C47.79661016949152,40,46.77966101694915,40,45.762711864406775,40C44.7457627118644,40,43.728813559322035,40,42.71186440677966,40C41.69491525423729,40,40.67796610169491,40,39.66101694915254,40C38.644067796610166,40,37.6271186440678,40,36.610169491525426,40C35.59322033898305,40,34.57627118644068,40,33.559322033898304,40C32.54237288135593,40,31.525423728813557,40,30.508474576271183,40C29.491525423728813,40,28.47457627118644,40,27.45762711864407,40C26.440677966101696,40,25.423728813559322,40,24.406779661016948,40C23.389830508474574,40,22.372881355932204,40,21.35593220338983,40C20.338983050847457,40,19.322033898305087,40,18.305084745762713,40C17.28813559322034,40,16.271186440677965,40,15.254237288135592,40C14.23728813559322,40,13.220338983050846,40,12.203389830508474,40C11.186440677966102,40,10.169491525423728,40,9.152542372881356,40C8.135593220338983,40,7.11864406779661,40,6.101694915254237,40C5.084745762711864,40,4.067796610169491,40,3.0508474576271185,40C2.0338983050847457,40,1.0169491525423728,40,0,40Z"></path><path class="line" stroke="black" fill="none" d="M0,19.197508C1.0169491525423728,19.112485,2.0338983050847457,19.027461999999996,3.0508474576271185,18.942511999999997C4.067796610169491,18.857561999999998,5.084745762711864,18.76624,6.101694915254237,18.687808C7.11864406779661,18.609376,8.135593220338983,18.532709333333337,9.152542372881356,18.47192C10.169491525423728,18.41113066666667,11.186440677966102,18.383898,12.203389830508474,18.323071999999996C13.220338983050846,18.262245999999994,14.23728813559322,18.18547933333333,15.254237288135592,18.106963999999998C16.271186440677965,18.028448666666666,17.28813559322034,17.93524933333333,18.305084745762713,17.851979999999998C19.322033898305087,17.768710666666664,20.338983050847457,17.685376666666663,21.35593220338983,17.607347999999998C22.372881355932204,17.529319333333333,23.389830508474574,17.457952,24.406779661016948,17.383808C25.423728813559322,17.309663999999998,26.440677966101696,17.233339333333333,27.45762711864407,17.162484C28.47457627118644,17.091628666666665,29.491525423728813,17.014293333333335,30.508474576271183,16.958676C31.525423728813557,16.903058666666666,32.54237288135593,16.884285333333334,33.559322033898304,16.828780000000002C34.57627118644068,16.77327466666667,35.59322033898305,16.698116666666667,36.610169491525426,16.625644C37.6271186440678,16.553171333333335,38.644067796610166,16.468288,39.66101694915254,16.393944C40.67796610169491,16.3196,41.69491525423729,16.248116,42.71186440677966,16.179579999999998C43.728813559322035,16.111044,44.7457627118644,16.045346000000002,45.762711864406775,15.982728000000002C46.77966101694915,15.920110000000003,47.79661016949152,15.860122666666669,48.813559322033896,15.803872000000002C49.83050847457627,15.747621333333335,50.847457627118644,15.690134666666665,51.86440677966102,15.645223999999999C52.88135593220339,15.600313333333332,53.898305084745765,15.566366666666669,54.91525423728814,15.534408000000003C55.93220338983051,15.502449333333336,56.94915254237288,15.494322000000002,57.96610169491525,15.453472000000001C58.983050847457626,15.412622,59.99999999999999,15.349956666666666,61.01694915254237,15.289307999999998C62.03389830508474,15.228659333333331,63.05084745762712,15.154516666666664,64.0677966101695,15.089579999999998C65.08474576271186,15.024643333333332,66.10169491525424,14.962898000000001,67.11864406779661,14.899688000000001C68.13559322033899,14.836478000000001,69.15254237288136,14.770793333333335,70.16949152542374,14.710320000000001C71.1864406779661,14.649846666666667,72.20338983050848,14.585682666666667,73.22033898305085,14.536847999999999C74.23728813559322,14.488013333333331,75.2542372881356,14.466880666666666,76.27118644067797,14.417311999999999C77.28813559322033,14.367743333333332,78.30508474576271,14.30491933333333,79.32203389830508,14.239435999999998C80.33898305084746,14.173952666666665,81.35593220338983,14.094860000000002,82.37288135593221,14.024412000000002C83.38983050847457,13.953964000000003,84.40677966101696,13.884204666666665,85.42372881355932,13.816747999999999C86.4406779661017,13.749291333333332,87.45762711864407,13.685070000000001,88.47457627118645,13.619672000000001C89.49152542372882,13.554274000000003,90.50847457627118,13.488478000000002,91.52542372881355,13.424360000000002C92.54237288135593,13.360242000000001,93.55932203389831,13.286636666666665,94.57627118644069,13.234963999999998C95.59322033898306,13.183291333333331,96.61016949152543,13.164888666666668,97.62711864406779,13.114324000000002C98.64406779661016,13.063759333333335,99.66101694915254,12.998625333333331,100.6779661016949,12.931575999999998C101.69491525423729,12.864526666666665,102.71186440677965,12.78528466666667,103.72881355932203,12.712028000000002C104.7457627118644,12.638771333333336,105.76271186440678,12.563338666666665,106.77966101694915,12.492035999999999C107.79661016949153,12.420733333333331,108.8135593220339,12.354011999999999,109.83050847457628,12.284212C110.84745762711864,12.214412000000001,111.86440677966102,12.141182,112.88135593220339,12.073236000000001C113.89830508474576,12.005290000000002,114.91525423728814,11.931425333333333,115.9322033898305,11.876536C116.94915254237289,11.821646666666666,117.96610169491525,11.799189999999998,118.98305084745763,11.743899999999998C120,11.688609999999999,121.01694915254237,11.616487333333334,122.03389830508473,11.544796000000002C123.05084745762711,11.473104666666668,124.0677966101695,11.389124,125.08474576271188,11.313752C126.10169491525424,11.23838,127.11864406779662,11.162604666666667,128.135593220339,11.092564C129.15254237288136,11.022523333333334,130.16949152542372,10.958418,131.1864406779661,10.893508C132.20338983050846,10.828598,133.22033898305085,10.761034,134.23728813559322,10.703104C135.25423728813558,10.645173999999999,136.27118644067798,10.588298,137.28813559322035,10.545928C138.3050847457627,10.503558,139.3220338983051,10.492322,140.33898305084747,10.448884C141.35593220338984,10.405446,142.3728813559322,10.344499333333333,143.38983050847457,10.2853C144.40677966101694,10.226100666666666,145.42372881355934,10.157046,146.4406779661017,10.093687999999998C147.45762711864407,10.03033,148.47457627118644,9.965245333333332,149.4915254237288,9.905152C150.50847457627117,9.845058666666667,151.52542372881356,9.791971333333334,152.54237288135593,9.733128C153.5593220338983,9.674284666666667,154.5762711864407,9.607986000000002,155.59322033898306,9.552092000000002C156.61016949152543,9.496198000000001,157.6271186440678,9.440046666666666,158.64406779661016,9.397763999999999C159.66101694915253,9.355481333333332,160.67796610169492,9.341959333333335,161.6949152542373,9.298396000000002C162.71186440677965,9.254832666666669,163.72881355932205,9.194232666666666,164.74576271186442,9.136384C165.76271186440678,9.078535333333333,166.77966101694915,9.009990666666669,167.79661016949152,8.951304000000002C168.81355932203388,8.892617333333336,169.83050847457628,8.836554000000001,170.84745762711864,8.784264C171.864406779661,8.731974,172.8813559322034,8.678526666666668,173.89830508474577,8.637564000000001C174.91525423728814,8.596601333333334,175.93220338983053,8.565824666666668,176.9491525423729,8.538488000000001C177.96610169491527,8.511151333333334,178.98305084745763,8.492347666666667,180,8.473544"></path><path class="axis-ceiling" stroke-width="1" stroke="black" fill="none" d="M175,0L180,0"></path><text class="axis-ceiling-label" font-family="sans-serif" text-anchor="end" font-size="10px" x="170" y="2.5">10000000</text></g></svg>