<svg xmlns="http://www.w3.org/2000/svg" viewBox="0 0 180 60"><g transform="translate(0,20)"><path class="area" fill="rgba(0, 0, 0, 0.2)" d="M0,29.580532C1.0169491525423728,29.470594333333334,2.0338983050847457,29.360656666666667,3.0508474576271185,29.268008000000002C4.067796610169491,29.175359333333336,5.084745762711864,29.11964,6.101694915254237,29.02464C7.11864406779661,28.929640000000003,8.135593220338983,28.815735333333336,9.152542372881356,28.698008C10.169491525423728,28.580280666666667,11.186440677966102,28.44613,12.203389830508474,28.318276C13.220338983050846,28.190422,14.23728813559322,28.059087333333334,15.254237288135592,27.930884000000002C16.271186440677965,27.802680666666667,17.28813559322034,27.679995333333334,18.305084745762713,27.549056C19.322033898305087,27.418116666666666,20.338983050847457,27.27197533333333,21.35593220338983,27.145248C22.372881355932204,27.018520666666667,23.389830508474574,26.89347933333334,24.406779661016948,26.788692000000005C25.423728813559322,26.68390466666667,26.440677966101696,26.623269999999998,27.45762711864407,26.516523999999997C28.47457627118644,26.409777999999996,29.491525423728813,26.274853999999998,30.508474576271183,26.148215999999998C31.525423728813557,26.021577999999998,32.54237288135593,25.888409333333332,33.559322033898304,25.756695999999998C34.57627118644068,25.624982666666664,35.59322033898305,25.489978,36.610169491525426,25.357936C37.6271186440678,25.225894,38.644067796610166,25.075672666666662,39.66101694915254,24.964443999999997C40.67796610169491,24.85321533333333,41.69491525423729,24.787846,42.71186440677966,24.690564C43.728813559322035,24.593282,44.7457627118644,24.472484,45.762711864406775,24.380752C46.77966101694915,24.28902,47.79661016949152,24.236414,48.813559322033896,24.140172C49.83050847457627,24.04393,50.847457627118644,23.920144,51.86440677966102,23.8033C52.88135593220339,23.686456,53.898305084745765,23.563280666666664,54.91525423728814,23.439107999999997C55.93220338983051,23.31493533333333,56.94915254237288,23.180222,57.96610169491525,23.058264C58.983050847457626,22.936306000000002,59.99999999999999,22.820257333333334,61.01694915254237,22.70736C62.03389830508474,22.59446266666667,63.05084745762712,22.48295066666667,64.0677966101695,22.380880000000005C65.08474576271186,22.27880933333334,66.10169491525424,22.177253333333333,67.11864406779661,22.094936C68.13559322033899,22.01261866666667,69.15254237288136,21.967986666666672,70.16949152542374,21.886976000000004C71.1864406779661,21.805965333333337,72.20338983050848,21.708794666666666,73.22033898305085,21.608871999999998C74.23728813559322,21.50894933333333,75.2542372881356,21.381854000000004,76.27118644067797,21.287440000000004C77.28813559322033,21.193026000000003,78.30508474576271,21.127007333333335,79.32203389830508,21.042388000000003C80.33898305084746,20.95776866666667,81.35593220338983,20.871612000000002,82.37288135593221,20.779724C83.38983050847457,20.687836,84.40677966101696,20.581641333333334,85.42372881355932,20.49106C86.4406779661017,20.400478666666668,87.45762711864407,20.312941333333335,88.47457627118645,20.236236C89.49152542372882,20.15953066666667,90.50847457627118,20.108687333333332,91.52542372881355,20.030828C92.54237288135593,19.952968666666667,93.55932203389831,19.861132,94.57627118644069,19.76908C95.59322033898306,19.677028,96.61016949152543,19.573843999999998,97.62711864406779,19.478516C98.64406779661016,19.383188,99.66101694915254,19.286512666666667,100.6779661016949,19.197112C101.69491525423729,19.107711333333334,102.71186440677965,19.02706266666667,103.72881355932203,18.942112C104.7457627118644,18.857161333333334,105.76271186440678,18.765839999999997,106.77966101694915,18.687407999999998C107.79661016949153,18.608976,108.8135593220339,18.53230933333333,109.83050847457628,18.471519999999998C110.84745762711864,18.410730666666666,111.86440677966102,18.383498666666668,112.88135593220339,18.322672C113.89830508474576,18.261845333333333,114.91525423728814,18.18507533333333,115.9322033898305,18.106559999999998C116.94915254237289,18.028044666666663,117.96610169491525,17.934848666666664,118.98305084745763,17.85158C120,17.768311333333333,121.01694915254237,17.684976666666664,122.03389830508473,17.606948C123.05084745762711,17.52891933333333,124.0677966101695,17.457552666666665,125.08474576271188,17.383408C126.10169491525424,17.309263333333334,127.11864406779662,17.232936,128.135593220339,17.16208C129.15254237288136,17.091224,130.16949152542372,17.013889333333335,131.1864406779661,16.958272C132.20338983050846,16.902654666666667,133.22033898305085,16.88388133333333,134.23728813559322,16.828376C135.25423728813558,16.772870666666666,136.27118644067798,16.697713333333333,137.28813559322035,16.625239999999998C138.3050847457627,16.552766666666663,139.3220338983051,16.46788,140.33898305084747,16.393536C141.35593220338984,16.319192,142.3728813559322,16.247711333333335,143.38983050847457,16.179176000000002C144.40677966101694,16.11064066666667,145.42372881355934,16.044942000000002,146.4406779661017,15.982324000000002C147.45762711864407,15.919706000000001,148.47457627118644,15.859719333333334,149.4915254237288,15.803468C150.50847457627117,15.747216666666667,151.52542372881356,15.689727333333336,152.54237288135593,15.644816000000002C153.5593220338983,15.599904666666669,154.5762711864407,15.565958666666667,155.59322033898306,15.533999999999999C156.61016949152543,15.502041333333331,157.6271186440678,15.493913999999997,158.64406779661016,15.453063999999998C159.66101694915253,15.412213999999999,160.67796610169492,15.349549333333334,161.6949152542373,15.288900000000002C162.71186440677965,15.22825066666667,163.72881355932205,15.154105333333334,164.74576271186442,15.089168C165.76271186440678,15.024230666666668,166.77966101694915,14.962485333333333,167.79661016949152,14.899276C168.81355932203388,14.836066666666667,169.83050847457628,14.770384666666665,170.84745762711864,14.709912C171.864406779661,14.649439333333333,172.8813559322034,14.585275333333335,173.89830508474577,14.536440000000002C174.91525423728814,14.48760466666667,175.93220338983053,14.466309333333333,176.9491525423729,14.416899999999998C177.96610169491527,14.367490666666665,178.98305084745763,14.303737333333332,180,14.239984L180,40C178.98305084745763,40,177.96610169491527,40,176.9491525423729,40C175.93220338983053,40,174.91525423728814,40,173.89830508474577,40C172.8813559322034,40,171.864406779661,40,170.84745762711864,40C169.83050847457628,40,168.81355932203388,40,167.79661016949152,40C166.77966101694915,40,165.76271186440678,40,164.74576271186442,40C163.72881355932205,40,162.71186440677965,40,161.6949152542373,40C160.67796610169492,40,159.66101694915253,40,158.64406779661016,40C157.6271186440678,40,156.61016949152543,40,155.59322033898306,40C154.5762711864407,40,153.5593220338983,40,152.54237288135593,40C151.52542372881356,40,150.50847457627117,40,149.4915254237288,40C148.47457627118644,40,147.45762711864407,40,146.4406779661017,40C145.42372881355934,40,144.40677966101694,40,143.38983050847457,40C142.3728813559322,40,141.35593220338984,40,140.33898305084747,40C139.3220338983051,40,138.3050847457627,40,137.28813559322035,40C136.27118644067798,40,135.25423728813558,40,134.23728813559322,40C133.22033898305085,40,132.20338983050846,40,131.1864406779661,40C130.16949152542372,40,129.15254237288136,40,128.135593220339,40C127.11864406779662,40,126.10169491525424,40,125.08474576271188,40C124.0677966101695,40,123.05084745762711,40,122.03389830508473,40C121.01694915254237,40,120,40,118.98305084745763,40C117.96610169491525,40,116.94915254237289,40,115.9322033898305,40C114.91525423728814,40,113.89830508474576,40,112.88135593220339,40C111.86440677966102,40,110.84745762711864,40,109.83050847457628,40C108.8135593220339,40,107.79661016949153,40,106.77966101694915,40C105.76271186440678,40,104.7457627118644,40,103.72881355932203,40C102.71186440677965,40,101.69491525423729,40,100.6779661016949,40C99.66101694915254,40,98.64406779661016,40,97.62711864406779,40C96.61016949152543,40,95.59322033898306,40,94.57627118644069,40C93.55932203389831,40,92.54237288135593,40,91.52542372881355,40C90.50847457627118,40,89.49152542372882,40,88.47457627118645,40C87.45762711864407,40,86.4406779661017,40,85.42372881355932,40C84.40677966101696,40,83.38983050847457,40,82.37288135593221,40C81.35593220338983,40,80.33898305084746,40,79.32203389830508,40C78.30508474576271,40,77.28813559322033,40,76.27118644067797,40C75.2542372881356,40,74.23728813559322,40,73.22033898305085,40C72.20338983050848,40,71.1864406779661,40,70.16949152542374,40C69.15254237288136,40,68.13559322033899,40,67.11864406779661,40C66.10169491525424,40,65.08474576271186,40,64.0677966101695,40C63.05084745762712,40,62.03389830508474,40,61.01694915254237,40C59.99999999999999,40,58.983050847457626,40,57.96610169491525,40C56.94915254237288,40,55.93220338983051,40,54.91525423728814,40C53.898305084745765,40,52.88135593220339,40,51.86440677966102,40C50.847457627118644,40,49.83050847457627,40,48.813559322033896,40C47.79661016949152,40,46.77966101694915,40,45.762711864406775,40C44.7457627118644,40,43.728813559322035,40,42.71186440677966,40C41.69491525423729,40,40.67796610169491,40,39.66101694915254,40C38.644067796610166,40,37.6271186440678,40,36.610169491525426,40C35.59322033898305,40,34.57627118644068,40,33.559322033898304,40C32.54237288135593,40,31.525423728813557,40,30.508474576271183,40C29.491525423728813,40,28.47457627118644,40,27.45762711864407,40C26.440677966101696,40,25.423728813559322,40,24.406779661016948,40C23.389830508474574,40,22.372881355932204,40,21.35593220338983,40C20.338983050847457,40,19.322033898305087,40,18.305084745762713,40C17.28813559322034,40,16.271186440677965,40,15.254237288135592,40C14.23728813559322,40,13.220338983050846,40,12.203389830508474,40C11.186440677966102,40,10.169491525423728,40,9.152542372881356,40C8.135593220338983,40,7.11864406779661,40,6.101694915254237,40C5.084745762711864,40,4.067796610169491,40,3.0508474576271185,40C2.0338983050847457,40,1.0169491525423728,40,0,40Z"></path><path class="line" stroke="black" fill="none" d="M0,29.580532C1.0169491525423728,29.470594333333334,2.0338983050847457,29.360656666666667,3.0508474576271185,29.268008000000002C4.067796610169491,29.175359333333336,5.084745762711864,29.11964,6.101694915254237,29.02464C7.11864406779661,28.929640000000003,8.135593220338983,28.815735333333336,9.152542372881356,28.698008C10.169491525423728,28.580280666666667,11.186440677966102,28.44613,12.203389830508474,28.318276C13.220338983050846,28.190422,14.23728813559322,28.059087333333334,15.254237288135592,27.930884000000002C16.271186440677965,27.802680666666667,17.28813559322034,27.679995333333334,18.305084745762713,27.549056C19.322033898305087,27.418116666666666,20.338983050847457,27.27197533333333,21.35593220338983,27.145248C22.372881355932204,27.018520666666667,23.389830508474574,26.89347933333334,24.406779661016948,26.788692000000005C25.423728813559322,26.68390466666667,26.440677966101696,26.623269999999998,27.45762711864407,26.516523999999997C28.47457627118644,26.409777999999996,29.491525423728813,26.274853999999998,30.508474576271183,26.148215999999998C31.525423728813557,26.021577999999998,32.54237288135593,25.888409333333332,33.559322033898304,25.756695999999998C34.57627118644068,25.624982666666664,35.59322033898305,25.489978,36.610169491525426,25.357936C37.6271186440678,25.225894,38.644067796610166,25.075672666666662,39.66101694915254,24.964443999999997C40.67796610169491,24.85321533333333,41.69491525423729,24.787846,42.71186440677966,24.690564C43.728813559322035,24.593282,44.7457627118644,24.472484,45.762711864406775,24.380752C46.77966101694915,24.28902,47.79661016949152,24.236414,48.813559322033896,24.140172C49.83050847457627,24.04393,50.847457627118644,23.920144,51.86440677966102,23.8033C52.88135593220339,23.686456,53.898305084745765,23.563280666666664,54.91525423728814,23.439107999999997C55.93220338983051,23.31493533333333,56.94915254237288,23.180222,57.96610169491525,23.058264C58.983050847457626,22.936306000000002,59.99999999999999,22.820257333333334,61.01694915254237,22.70736C62.03389830508474,22.59446266666667,63.05084745762712,22.48295066666667,64.0677966101695,22.380880000000005C65.08474576271186,22.27880933333334,66.10169491525424,22.177253333333333,67.11864406779661,22.094936C68.13559322033899,22.01261866666667,69.15254237288136,21.967986666666672,70.16949152542374,21.886976000000004C71.1864406779661,21.805965333333337,72.20338983050848,21.708794666666666,73.22033898305085,21.608871999999998C74.23728813559322,21.50894933333333,75.2542372881356,21.381854000000004,76.27118644067797,21.287440000000004C77.28813559322033,21.193026000000003,78.30508474576271,21.127007333333335,79.32203389830508,21.042388000000003C80.33898305084746,20.95776866666667,81.35593220338983,20.871612000000002,82.37288135593221,20.779724C83.38983050847457,20.687836,84.40677966101696,20.581641333333334,85.42372881355932,20.49106C86.4406779661017,20.400478666666668,87.45762711864407,20.312941333333335,88.47457627118645,20.236236C89.49152542372882,20.15953066666667,90.50847457627118,20.108687333333332,91.52542372881355,20.030828C92.54237288135593,19.952968666666667,93.55932203389831,19.861132,94.57627118644069,19.76908C95.59322033898306,19.677028,96.61016949152543,19.573843999999998,97.62711864406779,19.478516C98.64406779661016,19.383188,99.66101694915254,19.286512666666667,100.6779661016949,19.197112C101.69491525423729,19.107711333333334,102.71186440677965,19.02706266666667,103.72881355932203,18.942112C104.7457627118644,18.857161333333334,105.76271186440678,18.765839999999997,106.77966101694915,18.687407999999998C107.79661016949153,18.608976,108.8135593220339,18.53230933333333,109.83050847457628,18.471519999999998C110.84745762711864,18.410730666666666,111.86440677966102,18.383498666666668,112.88135593220339,18.322672C113.89830508474576,18.261845333333333,114.91525423728814,18.18507533333333,115.9322033898305,18.106559999999998C116.94915254237289,18.028044666666663,117.96610169491525,17.934848666666664,118.98305084745763,17.85158C120,17.768311333333333,121.01694915254237,17.684976666666664,122.03389830508473,17.606948C123.05084745762711,17.52891933333333,124.0677966101695,17.457552666666665,125.08474576271188,17.383408C126.10169491525424,17.309263333333334,127.11864406779662,17.232936,128.135593220339,17.16208C129.15254237288136,17.091224,130.16949152542372,17.013889333333335,131.1864406779661,16.958272C132.20338983050846,16.902654666666667,133.22033898305085,16.88388133333333,134.23728813559322,16.828376C135.25423728813558,16.772870666666666,136.27118644067798,16.697713333333333,137.28813559322035,16.625239999999998C138.3050847457627,16.552766666666663,139.3220338983051,16.46788,140.33898305084747,16.393536C141.35593220338984,16.319192,142.3728813559322,16.247711333333335,143.38983050847457,16.179176000000002C144.40677966101694,16.11064066666667,145.42372881355934,16.044942000000002,146.4406779661017,15.982324000000002C147.45762711864407,15.919706000000001,148.47457627118644,15.859719333333334,149.4915254237288,15.803468C150.50847457627117,15.747216666666667,151.52542372881356,15.689727333333336,152.54237288135593,15.644816000000002C153.5593220338983,15.599904666666669,154.5762711864407,15.565958666666667,155.59322033898306,15.533999999999999C156.61016949152543,15.502041333333331,157.6271186440678,15.493913999999997,158.64406779661016,15.453063999999998C159.66101694915253,15.412213999999999,160.67796610169492,15.349549333333334,161.6949152542373,15.288900000000002C162.71186440677965,15.22825066666667,163.72881355932205,15.154105333333334,164.74576271186442,15.089168C165.76271186440678,15.024230666666668,166.77966101694915,14.962485333333333,167.79661016949152,14.899276C168.81355932203388,14.836066666666667,169.83050847457628,14.770384666666665,170.84745762711864,14.709912C171.864406779661,14.649439333333333,172.8813559322034,14.585275333333335,173.89830508474577,14.536440000000002C174.91525423728814,14.48760466666667,175.93220338983053,14.466309333333333,176.9491525423729,14.416899999999998C177.96610169491527,14.367490666666665,178.98305084745763,14.303737333333332,180,14.239984"></path><path class="axis-ceiling" stroke-width="1" stroke="black" fill="none" d="M175,0L180,0"></path><text class="axis-ceiling-label" font-family="sans-serif" text-anchor="end" font-size="10px" x="170" y="2.5">10000000</text></g></svg>