<svg xmlns="http://www.w3.org/2000/svg" viewBox="0 0 180 60"><g transform="translate(0,20)"><path class="area" fill="rgba(0, 0, 0, 0.2)" d="M0,36.793753431342644C1.0169491525423728,36.71323125724394,2.0338983050847457,36.632709083145244,3.0508474576271185,36.544866711401205C4.067796610169491,36.45702433965717,5.084745762711864,36.393582626730925,6.101694915254237,36.26669920087843C7.11864406779661,36.13981577502593,8.135593220338983,35.93688362919132,9.152542372881356,35.78356615628622C10.169491525423728,35.63024868338112,11.186440677966102,35.457410683421784,12.203389830508474,35.34679436344781C13.220338983050846,35.23617804347384,14.23728813559322,35.26139205758555,15.254237288135592,35.119868236442386C16.271186440677965,34.97834441529922,17.28813559322034,34.71522397771407,18.305084745762713,34.49765143658879C19.322033898305087,34.28007889546351,20.338983050847457,34.04339250493097,21.35593220338983,33.81443298969072C22.372881355932204,33.585473474450474,23.389830508474574,33.3756278086175,24.406779661016948,33.12389434514732C25.423728813559322,32.87216088167714,26.440677966101696,32.59155330527257,27.45762711864407,32.304032208869636C28.47457627118644,32.0165111124667,29.491525423728813,31.692389027837084,30.508474576271183,31.3987677667297C31.525423728813557,31.10514650562232,32.54237288135593,30.780211065698772,33.559322033898304,30.54230464222534C34.57627118644068,30.304398218751906,35.59322033898305,30.21899591288965,36.610169491525426,29.9713292258891C37.6271186440678,29.72366253888855,38.644067796610166,29.426381178958497,39.66101694915254,29.056304520222046C40.67796610169491,28.68622786148559,41.69491525423729,28.21000833689176,42.71186440677966,27.750869273470382C43.728813559322035,27.291730210049003,44.7457627118644,26.80168364545843,45.762711864406775,26.301470139693773C46.77966101694915,25.801256633929118,47.79661016949152,25.293316252872156,48.813559322033896,24.749588238882446C49.83050847457627,24.205860224892735,50.847457627118644,23.53646881799142,51.86440677966102,23.039102055755507C52.88135593220339,22.541735293519594,53.898305084745765,22.099676691270666,54.91525423728814,21.76538766546697C55.93220338983051,21.431098639663276,56.94915254237288,21.36033672909169,57.96610169491525,21.033367900933328C58.983050847457626,20.706399072774968,59.99999999999999,20.235466357591655,61.01694915254237,19.803574696516808C62.03389830508474,19.371683035441958,63.05084745762712,18.897903576729906,64.0677966101695,18.44201793448423C65.08474576271186,17.98613229223856,66.10169491525424,17.524959840582365,67.11864406779661,17.068260843042765C68.13559322033899,16.611561845503164,69.15254237288136,16.169503243254237,70.16949152542374,15.70182394924663C71.1864406779661,15.234144655239026,72.20338983050848,14.650968909493892,73.22033898305085,14.262185078997135C74.23728813559322,13.873401248500377,75.2542372881356,13.657862095609914,76.27118644067797,13.369120966266088C77.28813559322033,13.080379836922262,78.30508474576271,12.825392952276378,79.32203389830508,12.52973830293418C80.33898305084746,12.23408365359198,81.35593220338983,11.91199495719718,82.37288135593221,11.595193070212897C83.38983050847457,11.278391183228615,84.40677966101696,10.96565607271396,85.42372881355932,10.628926981028485C86.4406779661017,10.292197889343008,87.45762711864407,9.907074157668925,88.47457627118645,9.574818520100044C89.49152542372882,9.242562882531164,90.50847457627118,8.926981028487768,91.52542372881355,8.635393155615203C92.54237288135593,8.343805282742633,93.55932203389831,8.049370666341328,94.57627118644069,7.825291282864639C95.59322033898306,7.601211899387954,96.61016949152543,7.449521137070701,97.62711864406779,7.2909168547550784C98.64406779661016,7.132312572439456,99.66101694915254,7.058703918339129,100.6779661016949,6.873665588970903C101.69491525423729,6.688627259602677,102.71186440677965,6.3844323796742515,103.72881355932203,6.18068687854572C104.7457627118644,5.97694137741719,105.76271186440678,5.823623904512086,106.77966101694915,5.651192582199718C107.79661016949153,5.4787612598873485,108.8135593220339,5.3417108928607755,109.83050847457628,5.146098944671507C110.84745762711864,4.9504869964822396,111.86440677966102,4.71217389536184,112.88135593220339,4.477520893064111C113.89830508474576,4.242867890766382,114.91525423728814,3.9427397873075893,115.9322033898305,3.7381809308851333C116.94915254237289,3.533622074462676,117.96610169491525,3.3998251286118055,118.98305084745763,3.2501677545293717C120,3.100510380446939,121.01694915254237,2.9593932369507314,122.03389830508473,2.8402366863905337C123.05084745762711,2.7210801358303343,124.0677966101695,2.6271375993818498,125.08474576271188,2.535228451168181C126.10169491525424,2.4433193029545133,127.11864406779662,2.3697106488541873,128.135593220339,2.2887817971085234C129.15254237288136,2.20785294536286,130.16949152542372,2.124890705382378,131.1864406779661,2.0496553406941986C132.20338983050846,1.9744199760060184,133.22033898305085,1.9195184936659977,134.23728813559322,1.8373696089794445C135.25423728813558,1.7552207242928912,136.27118644067798,1.6315907196160961,137.28813559322035,1.5567620325748788C138.3050847457627,1.4819333455336614,139.3220338983051,1.4315053173102326,140.33898305084747,1.3883974867321403C141.35593220338984,1.3452896561540484,142.3728813559322,1.348543077329753,143.38983050847457,1.2981150491063254C144.40677966101694,1.2476870208828972,145.42372881355934,1.141544155025521,146.4406779661017,1.0858293173915712C147.45762711864407,1.0301144797576218,148.47457627118644,1.024014315053171,149.4915254237288,0.9638260233026275C150.50847457627117,0.9036377315520834,151.52542372881356,0.7857012139327768,152.54237288135593,0.7246995668883072C153.5593220338983,0.6636979198438375,154.5762711864407,0.640923971613902,155.59322033898306,0.5978161410358096C156.61016949152543,0.5547083104577175,157.6271186440678,0.49777343988287887,158.64406779661016,0.46605258341975375C159.66101694915253,0.43433172695662836,160.67796610169492,0.4306716281339577,161.6949152542373,0.4074910022570588C162.71186440677965,0.3843103763801599,163.72881355932205,0.35177616462311145,164.74576271186442,0.3269688281583605C165.76271186440678,0.30216149169360973,166.77966101694915,0.2838609975802674,167.79661016949152,0.2586469834685534C168.81355932203388,0.23343296935683922,169.83050847457628,0.20618556701031077,170.84745762711864,0.17568474348807595C171.864406779661,0.14518391996584112,172.8813559322034,0.1020760893877489,173.89830508474577,0.07564204233514449C174.91525423728814,0.049207995282540086,175.93220338983053,0.028467435287416014,176.9491525423729,0.017080461172449546C177.96610169491527,0.005693487057483182,178.98305084745763,0.002846743528741592,180,0L180,40C178.98305084745763,40,177.96610169491527,40,176.9491525423729,40C175.93220338983053,40,174.91525423728814,40,173.89830508474577,40C172.8813559322034,40,171.864406779661,40,170.84745762711864,40C169.83050847457628,40,168.81355932203388,40,167.79661016949152,40C166.77966101694915,40,165.76271186440678,40,164.74576271186442,40C163.72881355932205,40,162.71186440677965,40,161.6949152542373,40C160.67796610169492,40,159.66101694915253,40,158.64406779661016,40C157.6271186440678,40,156.61016949152543,40,155.59322033898306,40C154.5762711864407,40,153.5593220338983,40,152.54237288135593,40C151.52542372881356,40,150.50847457627117,40,149.4915254237288,40C148.47457627118644,40,147.45762711864407,40,146.4406779661017,40C145.42372881355934,40,144.40677966101694,40,143.38983050847457,40C142.3728813559322,40,141.35593220338984,40,140.33898305084747,40C139.3220338983051,40,138.3050847457627,40,137.28813559322035,40C136.27118644067798,40,135.25423728813558,40,134.23728813559322,40C133.22033898305085,40,132.20338983050846,40,131.1864406779661,40C130.16949152542372,40,129.15254237288136,40,128.135593220339,40C127.11864406779662,40,126.10169491525424,40,125.08474576271188,40C124.0677966101695,40,123.05084745762711,40,122.03389830508473,40C121.01694915254237,40,120,40,118.98305084745763,40C117.96610169491525,40,116.94915254237289,40,115.9322033898305,40C114.91525423728814,40,113.89830508474576,40,112.88135593220339,40C111.86440677966102,40,110.84745762711864,40,109.83050847457628,40C108.8135593220339,40,107.79661016949153,40,106.77966101694915,40C105.76271186440678,40,104.7457627118644,40,103.72881355932203,40C102.71186440677965,40,101.69491525423729,40,100.6779661016949,40C99.66101694915254,40,98.64406779661016,40,97.62711864406779,40C96.61016949152543,40,95.59322033898306,40,94.57627118644069,40C93.55932203389831,40,92.54237288135593,40,91.52542372881355,40C90.50847457627118,40,89.49152542372882,40,88.47457627118645,40C87.45762711864407,40,86.4406779661017,40,85.42372881355932,40C84.40677966101696,40,83.38983050847457,40,82.37288135593221,40C81.35593220338983,40,80.33898305084746,40,79.32203389830508,40C78.30508474576271,40,77.28813559322033,40,76.27118644067797,40C75.2542372881356,40,74.23728813559322,40,73.22033898305085,40C72.20338983050848,40,71.1864406779661,40,70.16949152542374,40C69.15254237288136,40,68.13559322033899,40,67.11864406779661,40C66.10169491525424,40,65.08474576271186,40,64.0677966101695,40C63.05084745762712,40,62.03389830508474,40,61.01694915254237,40C59.99999999999999,40,58.983050847457626,40,57.96610169491525,40C56.94915254237288,40,55.93220338983051,40,54.91525423728814,40C53.898305084745765,40,52.88135593220339,40,51.86440677966102,40C50.847457627118644,40,49.83050847457627,40,48.813559322033896,40C47.79661016949152,40,46.77966101694915,40,45.762711864406775,40C44.7457627118644,40,43.728813559322035,40,42.71186440677966,40C41.69491525423729,40,40.67796610169491,40,39.66101694915254,40C38.644067796610166,40,37.6271186440678,40,36.610169491525426,40C35.59322033898305,40,34.57627118644068,40,33.559322033898304,40C32.54237288135593,40,31.525423728813557,40,30.508474576271183,40C29.491525423728813,40,28.47457627118644,40,27.45762711864407,40C26.440677966101696,40,25.423728813559322,40,24.406779661016948,40C23.389830508474574,40,22.372881355932204,40,21.35593220338983,40C20.338983050847457,40,19.322033898305087,40,18.305084745762713,40C17.28813559322034,40,16.271186440677965,40,15.254237288135592,40C14.23728813559322,40,13.220338983050846,40,12.203389830508474,40C11.186440677966102,40,10.169491525423728,40,9.152542372881356,40C8.135593220338983,40,7.11864406779661,40,6.101694915254237,40C5.084745762711864,40,4.067796610169491,40,3.0508474576271185,40C2.0338983050847457,40,1.0169491525423728,40,0,40Z"></path><path class="line" stroke="black" fill="none" d="M0,36.793753431342644C1.0169491525423728,36.71323125724394,2.0338983050847457,36.632709083145244,3.0508474576271185,36.544866711401205C4.067796610169491,36.45702433965717,5.084745762711864,36.393582626730925,6.101694915254237,36.26669920087843C7.11864406779661,36.13981577502593,8.135593220338983,35.93688362919132,9.152542372881356,35.78356615628622C10.169491525423728,35.63024868338112,11.186440677966102,35.457410683421784,12.203389830508474,35.34679436344781C13.220338983050846,35.23617804347384,14.23728813559322,35.26139205758555,15.254237288135592,35.119868236442386C16.271186440677965,34.97834441529922,17.28813559322034,34.71522397771407,18.305084745762713,34.49765143658879C19.322033898305087,34.28007889546351,20.338983050847457,34.04339250493097,21.35593220338983,33.81443298969072C22.372881355932204,33.585473474450474,23.389830508474574,33.3756278086175,24.406779661016948,33.12389434514732C25.423728813559322,32.87216088167714,26.440677966101696,32.59155330527257,27.45762711864407,32.304032208869636C28.47457627118644,32.0165111124667,29.491525423728813,31.692389027837084,30.508474576271183,31.3987677667297C31.525423728813557,31.10514650562232,32.54237288135593,30.780211065698772,33.559322033898304,30.54230464222534C34.57627118644068,30.304398218751906,35.59322033898305,30.21899591288965,36.610169491525426,29.9713292258891C37.6271186440678,29.72366253888855,38.644067796610166,29.426381178958497,39.66101694915254,29.056304520222046C40.67796610169491,28.68622786148559,41.69491525423729,28.21000833689176,42.71186440677966,27.750869273470382C43.728813559322035,27.291730210049003,44.7457627118644,26.80168364545843,45.762711864406775,26.301470139693773C46.77966101694915,25.801256633929118,47.79661016949152,25.293316252872156,48.813559322033896,24.749588238882446C49.83050847457627,24.205860224892735,50.847457627118644,23.53646881799142,51.86440677966102,23.039102055755507C52.88135593220339,22.541735293519594,53.898305084745765,22.099676691270666,54.91525423728814,21.76538766546697C55.93220338983051,21.431098639663276,56.94915254237288,21.36033672909169,57.96610169491525,21.033367900933328C58.983050847457626,20.706399072774968,59.99999999999999,20.235466357591655,61.01694915254237,19.803574696516808C62.03389830508474,19.371683035441958,63.05084745762712,18.897903576729906,64.0677966101695,18.44201793448423C65.08474576271186,17.98613229223856,66.10169491525424,17.524959840582365,67.11864406779661,17.068260843042765C68.13559322033899,16.611561845503164,69.15254237288136,16.169503243254237,70.16949152542374,15.70182394924663C71.1864406779661,15.234144655239026,72.20338983050848,14.650968909493892,73.22033898305085,14.262185078997135C74.23728813559322,13.873401248500377,75.2542372881356,13.657862095609914,76.27118644067797,13.369120966266088C77.28813559322033,13.080379836922262,78.30508474576271,12.825392952276378,79.32203389830508,12.52973830293418C80.33898305084746,12.23408365359198,81.35593220338983,11.91199495719718,82.37288135593221,11.595193070212897C83.38983050847457,11.278391183228615,84.40677966101696,10.96565607271396,85.42372881355932,10.628926981028485C86.4406779661017,10.292197889343008,87.45762711864407,9.907074157668925,88.47457627118645,9.574818520100044C89.49152542372882,9.242562882531164,90.50847457627118,8.926981028487768,91.52542372881355,8.635393155615203C92.54237288135593,8.343805282742633,93.55932203389831,8.049370666341328,94.57627118644069,7.825291282864639C95.59322033898306,7.601211899387954,96.61016949152543,7.449521137070701,97.62711864406779,7.2909168547550784C98.64406779661016,7.132312572439456,99.66101694915254,7.058703918339129,100.6779661016949,6.873665588970903C101.69491525423729,6.688627259602677,102.71186440677965,6.3844323796742515,103.72881355932203,6.18068687854572C104.7457627118644,5.97694137741719,105.76271186440678,5.823623904512086,106.77966101694915,5.651192582199718C107.79661016949153,5.4787612598873485,108.8135593220339,5.3417108928607755,109.83050847457628,5.146098944671507C110.84745762711864,4.9504869964822396,111.86440677966102,4.71217389536184,112.88135593220339,4.477520893064111C113.89830508474576,4.242867890766382,114.91525423728814,3.9427397873075893,115.9322033898305,3.7381809308851333C116.94915254237289,3.533622074462676,117.96610169491525,3.3998251286118055,118.98305084745763,3.2501677545293717C120,3.100510380446939,121.01694915254237,2.9593932369507314,122.03389830508473,2.8402366863905337C123.05084745762711,2.7210801358303343,124.0677966101695,2.6271375993818498,125.08474576271188,2.535228451168181C126.10169491525424,2.4433193029545133,127.11864406779662,2.3697106488541873,128.135593220339,2.2887817971085234C129.15254237288136,2.20785294536286,130.16949152542372,2.124890705382378,131.1864406779661,2.0496553406941986C132.20338983050846,1.9744199760060184,133.22033898305085,1.9195184936659977,134.23728813559322,1.8373696089794445C135.25423728813558,1.7552207242928912,136.27118644067798,1.6315907196160961,137.28813559322035,1.5567620325748788C138.3050847457627,1.4819333455336614,139.3220338983051,1.4315053173102326,140.33898305084747,1.3883974867321403C141.35593220338984,1.3452896561540484,142.3728813559322,1.348543077329753,143.38983050847457,1.2981150491063254C144.40677966101694,1.2476870208828972,145.42372881355934,1.141544155025521,146.4406779661017,1.0858293173915712C147.45762711864407,1.0301144797576218,148.47457627118644,1.024014315053171,149.4915254237288,0.9638260233026275C150.50847457627117,0.9036377315520834,151.52542372881356,0.7857012139327768,152.54237288135593,0.7246995668883072C153.5593220338983,0.6636979198438375,154.5762711864407,0.640923971613902,155.59322033898306,0.5978161410358096C156.61016949152543,0.5547083104577175,157.6271186440678,0.49777343988287887,158.64406779661016,0.46605258341975375C159.66101694915253,0.43433172695662836,160.67796610169492,0.4306716281339577,161.6949152542373,0.4074910022570588C162.71186440677965,0.3843103763801599,163.72881355932205,0.35177616462311145,164.74576271186442,0.3269688281583605C165.76271186440678,0.30216149169360973,166.77966101694915,0.2838609975802674,167.79661016949152,0.2586469834685534C168.81355932203388,0.23343296935683922,169.83050847457628,0.20618556701031077,170.84745762711864,0.17568474348807595C171.864406779661,0.14518391996584112,172.8813559322034,0.1020760893877489,173.89830508474577,0.07564204233514449C174.91525423728814,0.049207995282540086,175.93220338983053,0.028467435287416014,176.9491525423729,0.017080461172449546C177.96610169491527,0.005693487057483182,178.98305084745763,0.002846743528741592,180,0"></path><path class="axis-ceiling" stroke-width="1" stroke="black" fill="none" d="M175,-11.997803940706397L180,-11.997803940706397"></path><text class="axis-ceiling-label" font-family="sans-serif" text-anchor="end" font-size="10px" x="170" y="-9.497803940706397">21310</text></g></svg>