<svg xmlns="http://www.w3.org/2000/svg" viewBox="0 0 180 60"><g transform="translate(0,20)"><path class="area" fill="rgba(0, 0, 0, 0.2)" d="M0,5.968253968253969C1.0169491525423728,5.544973544973546,2.0338983050847457,5.121693121693123,3.0508474576271185,4.6984126984126995C4.067796610169491,4.275132275132276,5.084745762711864,3.7883597883597897,6.101694915254237,3.4285714285714297C7.11864406779661,3.0687830687830697,8.135593220338983,2.8783068783068786,9.152542372881356,2.5396825396825395C10.169491525423728,2.201058201058201,11.186440677966102,1.6931216931216924,12.203389830508474,1.3968253968253963C13.220338983050846,1.1005291005291002,14.23728813559322,0.9523809523809541,15.254237288135592,0.7619047619047636C16.271186440677965,0.571428571428573,17.28813559322034,0.3386243386243375,18.305084745762713,0.25396825396825307C19.322033898305087,0.1693121693121687,20.338983050847457,0.12698412698412653,21.35593220338983,0.12698412698412653C22.372881355932204,0.12698412698412653,23.389830508474574,0.12698412698412653,24.406779661016948,0.12698412698412653C25.423728813559322,0.12698412698412653,26.440677966101696,0,27.45762711864407,0C28.47457627118644,0,29.491525423728813,0.04232804232804219,30.508474576271183,0.12698412698412653C31.525423728813557,0.21164021164021107,32.54237288135593,0.5714285714285723,33.559322033898304,0.8888888888888902C34.57627118644068,1.206349206349208,35.59322033898305,1.693121693121695,36.610169491525426,2.0317460317460334C37.6271186440678,2.370370370370371,38.644067796610166,2.5820105820105814,39.66101694915254,2.920634920634919C40.67796610169491,3.2592592592592577,41.69491525423729,3.682539682539681,42.71186440677966,4.063492063492062C43.728813559322035,4.444444444444443,44.7457627118644,4.867724867724867,45.762711864406775,5.206349206349206C46.77966101694915,5.544973544973545,47.79661016949152,5.777777777777778,48.813559322033896,6.095238095238096C49.83050847457627,6.412698412698414,50.847457627118644,6.793650793650795,51.86440677966102,7.1111111111111125C52.88135593220339,7.42857142857143,53.898305084745765,7.746031746031744,54.91525423728814,7.999999999999998C55.93220338983051,8.253968253968251,56.94915254237288,8.423280423280424,57.96610169491525,8.634920634920636C58.983050847457626,8.846560846560848,59.99999999999999,9.1005291005291,61.01694915254237,9.269841269841269C62.03389830508474,9.439153439153438,63.05084745762712,9.502645502645503,64.0677966101695,9.650793650793652C65.08474576271186,9.7989417989418,66.10169491525424,9.925925925925926,67.11864406779661,10.158730158730158C68.13559322033899,10.39153439153439,69.15254237288136,10.75132275132275,70.16949152542374,11.047619047619047C71.1864406779661,11.343915343915343,72.20338983050848,11.5978835978836,73.22033898305085,11.936507936507939C74.23728813559322,12.275132275132277,75.2542372881356,12.719576719576718,76.27118644067797,13.079365079365077C77.28813559322033,13.439153439153436,78.30508474576271,13.735449735449736,79.32203389830508,14.095238095238095C80.33898305084746,14.455026455026456,81.35593220338983,14.857142857142856,82.37288135593221,15.238095238095237C83.38983050847457,15.619047619047617,84.40677966101696,16.02116402116402,85.42372881355932,16.38095238095238C86.4406779661017,16.74074074074074,87.45762711864407,17.037037037037038,88.47457627118645,17.3968253968254C89.49152542372882,17.756613756613756,90.50847457627118,18.15873015873016,91.52542372881355,18.53968253968254C92.54237288135593,18.920634920634924,93.55932203389831,19.343915343915345,94.57627118644069,19.682539682539684C95.59322033898306,20.02116402116402,96.61016949152543,20.275132275132275,97.62711864406779,20.57142857142857C98.64406779661016,20.867724867724867,99.66101694915254,21.164021164021165,100.6779661016949,21.46031746031746C101.69491525423729,21.756613756613756,102.71186440677965,22.05291005291005,103.72881355932203,22.349206349206348C104.7457627118644,22.645502645502642,105.76271186440678,22.96296296296296,106.77966101694915,23.238095238095234C107.79661016949153,23.51322751322751,108.8135593220339,23.724867724867725,109.83050847457628,24C110.84745762711864,24.275132275132275,111.86440677966102,24.634920634920636,112.88135593220339,24.88888888888889C113.89830508474576,25.142857142857142,114.91525423728814,25.333333333333332,115.9322033898305,25.523809523809522C116.94915254237289,25.71428571428571,117.96610169491525,25.86243386243386,118.98305084745763,26.03174603174603C120,26.2010582010582,121.01694915254237,26.39153439153439,122.03389830508473,26.539682539682538C123.05084745762711,26.687830687830687,124.0677966101695,26.814814814814817,125.08474576271188,26.920634920634924C126.10169491525424,27.02645502645503,127.11864406779662,27.089947089947092,128.135593220339,27.174603174603178C129.15254237288136,27.259259259259263,130.16949152542372,27.365079365079367,131.1864406779661,27.42857142857143C132.20338983050846,27.492063492063494,133.22033898305085,27.492063492063494,134.23728813559322,27.555555555555557C135.25423728813558,27.61904761904762,136.27118644067798,27.703703703703706,137.28813559322035,27.80952380952381C138.3050847457627,27.915343915343914,139.3220338983051,28.063492063492063,140.33898305084747,28.19047619047619C141.35593220338984,28.317460317460316,142.3728813559322,28.423280423280424,143.38983050847457,28.571428571428573C144.40677966101694,28.71957671957672,145.42372881355934,28.91005291005291,146.4406779661017,29.079365079365083C147.45762711864407,29.24867724867725,148.47457627118644,29.460317460317462,149.4915254237288,29.58730158730159C150.50847457627117,29.714285714285715,151.52542372881356,29.735449735449738,152.54237288135593,29.841269841269842C153.5593220338983,29.947089947089946,154.5762711864407,30.074074074074073,155.59322033898306,30.22222222222222C156.61016949152543,30.37037037037037,157.6271186440678,30.58201058201058,158.64406779661016,30.730158730158728C159.66101694915253,30.878306878306876,160.67796610169492,31.005291005291006,161.6949152542373,31.11111111111111C162.71186440677965,31.216931216931215,163.72881355932205,31.28042328042328,164.74576271186442,31.365079365079364C165.76271186440678,31.44973544973545,166.77966101694915,31.53439153439153,167.79661016949152,31.619047619047617C168.81355932203388,31.703703703703702,169.83050847457628,31.788359788359788,170.84745762711864,31.873015873015873C171.864406779661,31.95767195767196,172.8813559322034,32.042328042328045,173.89830508474577,32.12698412698413C174.91525423728814,32.21164021164021,175.93220338983053,32.38095238095238,176.9491525423729,32.38095238095238C177.96610169491527,32.38095238095238,178.98305084745763,32.38095238095238,180,32.38095238095238L180,40C178.98305084745763,40,177.96610169491527,40,176.9491525423729,40C175.93220338983053,40,174.91525423728814,40,173.89830508474577,40C172.8813559322034,40,171.864406779661,40,170.84745762711864,40C169.83050847457628,40,168.81355932203388,40,167.79661016949152,40C166.77966101694915,40,165.76271186440678,40,164.74576271186442,40C163.72881355932205,40,162.71186440677965,40,161.6949152542373,40C160.67796610169492,40,159.66101694915253,40,158.64406779661016,40C157.6271186440678,40,156.61016949152543,40,155.59322033898306,40C154.5762711864407,40,153.5593220338983,40,152.54237288135593,40C151.52542372881356,40,150.50847457627117,40,149.4915254237288,40C148.47457627118644,40,147.45762711864407,40,146.4406779661017,40C145.42372881355934,40,144.40677966101694,40,143.38983050847457,40C142.3728813559322,40,141.35593220338984,40,140.33898305084747,40C139.3220338983051,40,138.3050847457627,40,137.28813559322035,40C136.27118644067798,40,135.25423728813558,40,134.23728813559322,40C133.22033898305085,40,132.20338983050846,40,131.1864406779661,40C130.16949152542372,40,129.15254237288136,40,128.135593220339,40C127.11864406779662,40,126.10169491525424,40,125.08474576271188,40C124.0677966101695,40,123.05084745762711,40,122.03389830508473,40C121.01694915254237,40,120,40,118.98305084745763,40C117.96610169491525,40,116.94915254237289,40,115.9322033898305,40C114.91525423728814,40,113.89830508474576,40,112.88135593220339,40C111.86440677966102,40,110.84745762711864,40,109.83050847457628,40C108.8135593220339,40,107.79661016949153,40,106.77966101694915,40C105.76271186440678,40,104.7457627118644,40,103.72881355932203,40C102.71186440677965,40,101.69491525423729,40,100.6779661016949,40C99.66101694915254,40,98.64406779661016,40,97.62711864406779,40C96.61016949152543,40,95.59322033898306,40,94.57627118644069,40C93.55932203389831,40,92.54237288135593,40,91.52542372881355,40C90.50847457627118,40,89.49152542372882,40,88.47457627118645,40C87.45762711864407,40,86.4406779661017,40,85.42372881355932,40C84.40677966101696,40,83.38983050847457,40,82.37288135593221,40C81.35593220338983,40,80.33898305084746,40,79.32203389830508,40C78.30508474576271,40,77.28813559322033,40,76.27118644067797,40C75.2542372881356,40,74.23728813559322,40,73.22033898305085,40C72.20338983050848,40,71.1864406779661,40,70.16949152542374,40C69.15254237288136,40,68.13559322033899,40,67.11864406779661,40C66.10169491525424,40,65.08474576271186,40,64.0677966101695,40C63.05084745762712,40,62.03389830508474,40,61.01694915254237,40C59.99999999999999,40,58.983050847457626,40,57.96610169491525,40C56.94915254237288,40,55.93220338983051,40,54.91525423728814,40C53.898305084745765,40,52.88135593220339,40,51.86440677966102,40C50.847457627118644,40,49.83050847457627,40,48.813559322033896,40C47.79661016949152,40,46.77966101694915,40,45.762711864406775,40C44.7457627118644,40,43.728813559322035,40,42.71186440677966,40C41.69491525423729,40,40.67796610169491,40,39.66101694915254,40C38.644067796610166,40,37.6271186440678,40,36.610169491525426,40C35.59322033898305,40,34.57627118644068,40,33.559322033898304,40C32.54237288135593,40,31.525423728813557,40,30.508474576271183,40C29.491525423728813,40,28.47457627118644,40,27.45762711864407,40C26.440677966101696,40,25.423728813559322,40,24.406779661016948,40C23.389830508474574,40,22.372881355932204,40,21.35593220338983,40C20.338983050847457,40,19.322033898305087,40,18.305084745762713,40C17.28813559322034,40,16.271186440677965,40,15.254237288135592,40C14.23728813559322,40,13.220338983050846,40,12.203389830508474,40C11.186440677966102,40,10.169491525423728,40,9.152542372881356,40C8.135593220338983,40,7.11864406779661,40,6.101694915254237,40C5.084745762711864,40,4.067796610169491,40,3.0508474576271185,40C2.0338983050847457,40,1.0169491525423728,40,0,40Z"></path><path class="line" stroke="black" fill="none" d="M0,5.968253968253969C1.0169491525423728,5.544973544973546,2.0338983050847457,5.121693121693123,3.0508474576271185,4.6984126984126995C4.067796610169491,4.275132275132276,5.084745762711864,3.7883597883597897,6.101694915254237,3.4285714285714297C7.11864406779661,3.0687830687830697,8.135593220338983,2.8783068783068786,9.152542372881356,2.5396825396825395C10.169491525423728,2.201058201058201,11.186440677966102,1.6931216931216924,12.203389830508474,1.3968253968253963C13.220338983050846,1.1005291005291002,14.23728813559322,0.9523809523809541,15.254237288135592,0.7619047619047636C16.271186440677965,0.571428571428573,17.28813559322034,0.3386243386243375,18.305084745762713,0.25396825396825307C19.322033898305087,0.1693121693121687,20.338983050847457,0.12698412698412653,21.35593220338983,0.12698412698412653C22.372881355932204,0.12698412698412653,23.389830508474574,0.12698412698412653,24.406779661016948,0.12698412698412653C25.423728813559322,0.12698412698412653,26.440677966101696,0,27.45762711864407,0C28.47457627118644,0,29.491525423728813,0.04232804232804219,30.508474576271183,0.12698412698412653C31.525423728813557,0.21164021164021107,32.54237288135593,0.5714285714285723,33.559322033898304,0.8888888888888902C34.57627118644068,1.206349206349208,35.59322033898305,1.693121693121695,36.610169491525426,2.0317460317460334C37.6271186440678,2.370370370370371,38.644067796610166,2.5820105820105814,39.66101694915254,2.920634920634919C40.67796610169491,3.2592592592592577,41.69491525423729,3.682539682539681,42.71186440677966,4.063492063492062C43.728813559322035,4.444444444444443,44.7457627118644,4.867724867724867,45.762711864406775,5.206349206349206C46.77966101694915,5.544973544973545,47.79661016949152,5.777777777777778,48.813559322033896,6.095238095238096C49.83050847457627,6.412698412698414,50.847457627118644,6.793650793650795,51.86440677966102,7.1111111111111125C52.88135593220339,7.42857142857143,53.898305084745765,7.746031746031744,54.91525423728814,7.999999999999998C55.93220338983051,8.253968253968251,56.94915254237288,8.423280423280424,57.96610169491525,8.634920634920636C58.983050847457626,8.846560846560848,59.99999999999999,9.1005291005291,61.01694915254237,9.269841269841269C62.03389830508474,9.439153439153438,63.05084745762712,9.502645502645503,64.0677966101695,9.650793650793652C65.08474576271186,9.7989417989418,66.10169491525424,9.925925925925926,67.11864406779661,10.158730158730158C68.13559322033899,10.39153439153439,69.15254237288136,10.75132275132275,70.16949152542374,11.047619047619047C71.1864406779661,11.343915343915343,72.20338983050848,11.5978835978836,73.22033898305085,11.936507936507939C74.23728813559322,12.275132275132277,75.2542372881356,12.719576719576718,76.27118644067797,13.079365079365077C77.28813559322033,13.439153439153436,78.30508474576271,13.735449735449736,79.32203389830508,14.095238095238095C80.33898305084746,14.455026455026456,81.35593220338983,14.857142857142856,82.37288135593221,15.238095238095237C83.38983050847457,15.619047619047617,84.40677966101696,16.02116402116402,85.42372881355932,16.38095238095238C86.4406779661017,16.74074074074074,87.45762711864407,17.037037037037038,88.47457627118645,17.3968253968254C89.49152542372882,17.756613756613756,90.50847457627118,18.15873015873016,91.52542372881355,18.53968253968254C92.54237288135593,18.920634920634924,93.55932203389831,19.343915343915345,94.57627118644069,19.682539682539684C95.59322033898306,20.02116402116402,96.61016949152543,20.275132275132275,97.62711864406779,20.57142857142857C98.64406779661016,20.867724867724867,99.66101694915254,21.164021164021165,100.6779661016949,21.46031746031746C101.69491525423729,21.756613756613756,102.71186440677965,22.05291005291005,103.72881355932203,22.349206349206348C104.7457627118644,22.645502645502642,105.76271186440678,22.96296296296296,106.77966101694915,23.238095238095234C107.79661016949153,23.51322751322751,108.8135593220339,23.724867724867725,109.83050847457628,24C110.84745762711864,24.275132275132275,111.86440677966102,24.634920634920636,112.88135593220339,24.88888888888889C113.89830508474576,25.142857142857142,114.91525423728814,25.333333333333332,115.9322033898305,25.523809523809522C116.94915254237289,25.71428571428571,117.96610169491525,25.86243386243386,118.98305084745763,26.03174603174603C120,26.2010582010582,121.01694915254237,26.39153439153439,122.03389830508473,26.539682539682538C123.05084745762711,26.687830687830687,124.0677966101695,26.814814814814817,125.08474576271188,26.920634920634924C126.10169491525424,27.02645502645503,127.11864406779662,27.089947089947092,128.135593220339,27.174603174603178C129.15254237288136,27.259259259259263,130.16949152542372,27.365079365079367,131.1864406779661,27.42857142857143C132.20338983050846,27.492063492063494,133.22033898305085,27.492063492063494,134.23728813559322,27.555555555555557C135.25423728813558,27.61904761904762,136.27118644067798,27.703703703703706,137.28813559322035,27.80952380952381C138.3050847457627,27.915343915343914,139.3220338983051,28.063492063492063,140.33898305084747,28.19047619047619C141.35593220338984,28.317460317460316,142.3728813559322,28.423280423280424,143.38983050847457,28.571428571428573C144.40677966101694,28.71957671957672,145.42372881355934,28.91005291005291,146.4406779661017,29.079365079365083C147.45762711864407,29.24867724867725,148.47457627118644,29.460317460317462,149.4915254237288,29.58730158730159C150.50847457627117,29.714285714285715,151.52542372881356,29.735449735449738,152.54237288135593,29.841269841269842C153.5593220338983,29.947089947089946,154.5762711864407,30.074074074074073,155.59322033898306,30.22222222222222C156.61016949152543,30.37037037037037,157.6271186440678,30.58201058201058,158.64406779661016,30.730158730158728C159.66101694915253,30.878306878306876,160.67796610169492,31.005291005291006,161.6949152542373,31.11111111111111C162.71186440677965,31.216931216931215,163.72881355932205,31.28042328042328,164.74576271186442,31.365079365079364C165.76271186440678,31.44973544973545,166.77966101694915,31.53439153439153,167.79661016949152,31.619047619047617C168.81355932203388,31.703703703703702,169.83050847457628,31.788359788359788,170.84745762711864,31.873015873015873C171.864406779661,31.95767195767196,172.8813559322034,32.042328042328045,173.89830508474577,32.12698412698413C174.91525423728814,32.21164021164021,175.93220338983053,32.38095238095238,176.9491525423729,32.38095238095238C177.96610169491527,32.38095238095238,178.98305084745763,32.38095238095238,180,32.38095238095238"></path><path class="axis-ceiling" stroke-width="1" stroke="black" fill="none" d="M175,-10.79365079365079L180,-10.79365079365079"></path><text class="axis-ceiling-label" font-family="sans-serif" text-anchor="end" font-size="10px" x="170" y="-8.29365079365079">420</text></g></svg>