<svg xmlns="http://www.w3.org/2000/svg" viewBox="0 0 180 60"><g transform="translate(0,20)"><path class="area" fill="rgba(0, 0, 0, 0.2)" d="M0,27.653333333333336C1.0169491525423728,27.55777777777778,2.0338983050847457,27.462222222222227,3.0508474576271185,27.333333333333336C4.067796610169491,27.204444444444444,5.084745762711864,27.048888888888886,6.101694915254237,26.879999999999995C7.11864406779661,26.711111111111105,8.135593220338983,26.511111111111106,9.152542372881356,26.319999999999997C10.169491525423728,26.128888888888888,11.186440677966102,25.933333333333334,12.203389830508474,25.733333333333334C13.220338983050846,25.533333333333335,14.23728813559322,25.342222222222222,15.254237288135592,25.12C16.271186440677965,24.89777777777778,17.28813559322034,24.639999999999997,18.305084745762713,24.4C19.322033898305087,24.16,20.338983050847457,23.928888888888892,21.35593220338983,23.680000000000003C22.372881355932204,23.431111111111115,23.389830508474574,23.146666666666665,24.406779661016948,22.906666666666666C25.423728813559322,22.666666666666664,26.440677966101696,22.462222222222223,27.45762711864407,22.240000000000002C28.47457627118644,22.01777777777778,29.491525423728813,21.8,30.508474576271183,21.573333333333334C31.525423728813557,21.346666666666668,32.54237288135593,21.10666666666667,33.559322033898304,20.880000000000003C34.57627118644068,20.653333333333336,35.59322033898305,20.417777777777783,36.610169491525426,20.21333333333334C37.6271186440678,20.008888888888894,38.644067796610166,19.83111111111111,39.66101694915254,19.653333333333332C40.67796610169491,19.475555555555555,41.69491525423729,19.32,42.71186440677966,19.14666666666667C43.728813559322035,18.973333333333336,44.7457627118644,18.80444444444445,45.762711864406775,18.613333333333337C46.77966101694915,18.422222222222224,47.79661016949152,18.195555555555558,48.813559322033896,18C49.83050847457627,17.804444444444442,50.847457627118644,17.635555555555555,51.86440677966102,17.44C52.88135593220339,17.244444444444447,53.898305084745765,17.022222222222222,54.91525423728814,16.826666666666664C55.93220338983051,16.63111111111111,56.94915254237288,16.46222222222222,57.96610169491525,16.266666666666666C58.983050847457626,16.07111111111111,59.99999999999999,15.875555555555554,61.01694915254237,15.653333333333332C62.03389830508474,15.43111111111111,63.05084745762712,15.168888888888889,64.0677966101695,14.933333333333332C65.08474576271186,14.697777777777777,66.10169491525424,14.475555555555554,67.11864406779661,14.239999999999998C68.13559322033899,14.004444444444442,69.15254237288136,13.746666666666666,70.16949152542374,13.52C71.1864406779661,13.293333333333333,72.20338983050848,13.088888888888889,73.22033898305085,12.879999999999999C74.23728813559322,12.67111111111111,75.2542372881356,12.462222222222222,76.27118644067797,12.266666666666666C77.28813559322033,12.07111111111111,78.30508474576271,11.89333333333333,79.32203389830508,11.706666666666665C80.33898305084746,11.519999999999998,81.35593220338983,11.31111111111111,82.37288135593221,11.146666666666665C83.38983050847457,10.982222222222221,84.40677966101696,10.853333333333333,85.42372881355932,10.72C86.4406779661017,10.586666666666668,87.45762711864407,10.44888888888889,88.47457627118645,10.346666666666668C89.49152542372882,10.244444444444447,90.50847457627118,10.208888888888891,91.52542372881355,10.10666666666667C92.54237288135593,10.004444444444445,93.55932203389831,9.839999999999998,94.57627118644069,9.73333333333333C95.59322033898306,9.626666666666665,96.61016949152543,9.586666666666668,97.62711864406779,9.466666666666669C98.64406779661016,9.34666666666667,99.66101694915254,9.13777777777778,100.6779661016949,9.013333333333335C101.69491525423729,8.88888888888889,102.71186440677965,8.831111111111111,103.72881355932203,8.719999999999999C104.7457627118644,8.608888888888888,105.76271186440678,8.462222222222223,106.77966101694915,8.346666666666668C107.79661016949153,8.231111111111112,108.8135593220339,8.124444444444446,109.83050847457628,8.026666666666667C110.84745762711864,7.928888888888889,111.86440677966102,7.844444444444443,112.88135593220339,7.759999999999998C113.89830508474576,7.675555555555553,114.91525423728814,7.626666666666663,115.9322033898305,7.519999999999998C116.94915254237289,7.413333333333331,117.96610169491525,7.231111111111113,118.98305084745763,7.120000000000002C120,7.008888888888892,121.01694915254237,6.951111111111111,122.03389830508473,6.8533333333333335C123.05084745762711,6.755555555555555,124.0677966101695,6.635555555555555,125.08474576271188,6.533333333333333C126.10169491525424,6.431111111111112,127.11864406779662,6.337777777777779,128.135593220339,6.240000000000001C129.15254237288136,6.142222222222223,130.16949152542372,6.0444444444444425,131.1864406779661,5.9466666666666645C132.20338983050846,5.848888888888886,133.22033898305085,5.737777777777777,134.23728813559322,5.653333333333332C135.25423728813558,5.568888888888888,136.27118644067798,5.551111111111111,137.28813559322035,5.44C138.3050847457627,5.32888888888889,139.3220338983051,5.115555555555558,140.33898305084747,4.986666666666668C141.35593220338984,4.85777777777778,142.3728813559322,4.773333333333334,143.38983050847457,4.666666666666668C144.40677966101694,4.5600000000000005,145.42372881355934,4.44888888888889,146.4406779661017,4.346666666666668C147.45762711864407,4.244444444444446,148.47457627118644,4.12888888888889,149.4915254237288,4.0533333333333355C150.50847457627117,3.9777777777777796,151.52542372881356,3.9511111111111132,152.54237288135593,3.8933333333333353C153.5593220338983,3.8355555555555574,154.5762711864407,3.7555555555555564,155.59322033898306,3.706666666666667C156.61016949152543,3.657777777777778,157.6271186440678,3.5999999999999988,158.64406779661016,3.5999999999999988C159.66101694915253,3.5999999999999988,160.67796610169492,3.906666666666666,161.6949152542373,4.079999999999999C162.71186440677965,4.253333333333333,163.72881355932205,4.4355555555555535,164.74576271186442,4.64C165.76271186440678,4.844444444444444,166.77966101694915,5.053333333333336,167.79661016949152,5.306666666666668C168.81355932203388,5.560000000000003,169.83050847457628,5.880000000000002,170.84745762711864,6.160000000000001C171.864406779661,6.44,172.8813559322034,6.702222222222221,173.89830508474577,6.9866666666666655C174.91525423728814,7.27111111111111,175.93220338983053,7.577777777777776,176.9491525423729,7.866666666666666C177.96610169491527,8.155555555555553,178.98305084745763,8.437777777777777,180,8.719999999999999L180,40C178.98305084745763,40,177.96610169491527,40,176.9491525423729,40C175.93220338983053,40,174.91525423728814,40,173.89830508474577,40C172.8813559322034,40,171.864406779661,40,170.84745762711864,40C169.83050847457628,40,168.81355932203388,40,167.79661016949152,40C166.77966101694915,40,165.76271186440678,40,164.74576271186442,40C163.72881355932205,40,162.71186440677965,40,161.6949152542373,40C160.67796610169492,40,159.66101694915253,40,158.64406779661016,40C157.6271186440678,40,156.61016949152543,40,155.59322033898306,40C154.5762711864407,40,153.5593220338983,40,152.54237288135593,40C151.52542372881356,40,150.50847457627117,40,149.4915254237288,40C148.47457627118644,40,147.45762711864407,40,146.4406779661017,40C145.42372881355934,40,144.40677966101694,40,143.38983050847457,40C142.3728813559322,40,141.35593220338984,40,140.33898305084747,40C139.3220338983051,40,138.3050847457627,40,137.28813559322035,40C136.27118644067798,40,135.25423728813558,40,134.23728813559322,40C133.22033898305085,40,132.20338983050846,40,131.1864406779661,40C130.16949152542372,40,129.15254237288136,40,128.135593220339,40C127.11864406779662,40,126.10169491525424,40,125.08474576271188,40C124.0677966101695,40,123.05084745762711,40,122.03389830508473,40C121.01694915254237,40,120,40,118.98305084745763,40C117.96610169491525,40,116.94915254237289,40,115.9322033898305,40C114.91525423728814,40,113.89830508474576,40,112.88135593220339,40C111.86440677966102,40,110.84745762711864,40,109.83050847457628,40C108.8135593220339,40,107.79661016949153,40,106.77966101694915,40C105.76271186440678,40,104.7457627118644,40,103.72881355932203,40C102.71186440677965,40,101.69491525423729,40,100.6779661016949,40C99.66101694915254,40,98.64406779661016,40,97.62711864406779,40C96.61016949152543,40,95.59322033898306,40,94.57627118644069,40C93.55932203389831,40,92.54237288135593,40,91.52542372881355,40C90.50847457627118,40,89.49152542372882,40,88.47457627118645,40C87.45762711864407,40,86.4406779661017,40,85.42372881355932,40C84.40677966101696,40,83.38983050847457,40,82.37288135593221,40C81.35593220338983,40,80.33898305084746,40,79.32203389830508,40C78.30508474576271,40,77.28813559322033,40,76.27118644067797,40C75.2542372881356,40,74.23728813559322,40,73.22033898305085,40C72.20338983050848,40,71.1864406779661,40,70.16949152542374,40C69.15254237288136,40,68.13559322033899,40,67.11864406779661,40C66.10169491525424,40,65.08474576271186,40,64.0677966101695,40C63.05084745762712,40,62.03389830508474,40,61.01694915254237,40C59.99999999999999,40,58.983050847457626,40,57.96610169491525,40C56.94915254237288,40,55.93220338983051,40,54.91525423728814,40C53.898305084745765,40,52.88135593220339,40,51.86440677966102,40C50.847457627118644,40,49.83050847457627,40,48.813559322033896,40C47.79661016949152,40,46.77966101694915,40,45.762711864406775,40C44.7457627118644,40,43.728813559322035,40,42.71186440677966,40C41.69491525423729,40,40.67796610169491,40,39.66101694915254,40C38.644067796610166,40,37.6271186440678,40,36.610169491525426,40C35.59322033898305,40,34.57627118644068,40,33.559322033898304,40C32.54237288135593,40,31.525423728813557,40,30.508474576271183,40C29.491525423728813,40,28.47457627118644,40,27.45762711864407,40C26.440677966101696,40,25.423728813559322,40,24.406779661016948,40C23.389830508474574,40,22.372881355932204,40,21.35593220338983,40C20.338983050847457,40,19.322033898305087,40,18.305084745762713,40C17.28813559322034,40,16.271186440677965,40,15.254237288135592,40C14.23728813559322,40,13.220338983050846,40,12.203389830508474,40C11.186440677966102,40,10.169491525423728,40,9.152542372881356,40C8.135593220338983,40,7.11864406779661,40,6.101694915254237,40C5.084745762711864,40,4.067796610169491,40,3.0508474576271185,40C2.0338983050847457,40,1.0169491525423728,40,0,40Z"></path><path class="line" stroke="black" fill="none" d="M0,27.653333333333336C1.0169491525423728,27.55777777777778,2.0338983050847457,27.462222222222227,3.0508474576271185,27.333333333333336C4.067796610169491,27.204444444444444,5.084745762711864,27.048888888888886,6.101694915254237,26.879999999999995C7.11864406779661,26.711111111111105,8.135593220338983,26.511111111111106,9.152542372881356,26.319999999999997C10.169491525423728,26.128888888888888,11.186440677966102,25.933333333333334,12.203389830508474,25.733333333333334C13.220338983050846,25.533333333333335,14.23728813559322,25.342222222222222,15.254237288135592,25.12C16.271186440677965,24.89777777777778,17.28813559322034,24.639999999999997,18.305084745762713,24.4C19.322033898305087,24.16,20.338983050847457,23.928888888888892,21.35593220338983,23.680000000000003C22.372881355932204,23.431111111111115,23.389830508474574,23.146666666666665,24.406779661016948,22.906666666666666C25.423728813559322,22.666666666666664,26.440677966101696,22.462222222222223,27.45762711864407,22.240000000000002C28.47457627118644,22.01777777777778,29.491525423728813,21.8,30.508474576271183,21.573333333333334C31.525423728813557,21.346666666666668,32.54237288135593,21.10666666666667,33.559322033898304,20.880000000000003C34.57627118644068,20.653333333333336,35.59322033898305,20.417777777777783,36.610169491525426,20.21333333333334C37.6271186440678,20.008888888888894,38.644067796610166,19.83111111111111,39.66101694915254,19.653333333333332C40.67796610169491,19.475555555555555,41.69491525423729,19.32,42.71186440677966,19.14666666666667C43.728813559322035,18.973333333333336,44.7457627118644,18.80444444444445,45.762711864406775,18.613333333333337C46.77966101694915,18.422222222222224,47.79661016949152,18.195555555555558,48.813559322033896,18C49.83050847457627,17.804444444444442,50.847457627118644,17.635555555555555,51.86440677966102,17.44C52.88135593220339,17.244444444444447,53.898305084745765,17.022222222222222,54.91525423728814,16.826666666666664C55.93220338983051,16.63111111111111,56.94915254237288,16.46222222222222,57.96610169491525,16.266666666666666C58.983050847457626,16.07111111111111,59.99999999999999,15.875555555555554,61.01694915254237,15.653333333333332C62.03389830508474,15.43111111111111,63.05084745762712,15.168888888888889,64.0677966101695,14.933333333333332C65.08474576271186,14.697777777777777,66.10169491525424,14.475555555555554,67.11864406779661,14.239999999999998C68.13559322033899,14.004444444444442,69.15254237288136,13.746666666666666,70.16949152542374,13.52C71.1864406779661,13.293333333333333,72.20338983050848,13.088888888888889,73.22033898305085,12.879999999999999C74.23728813559322,12.67111111111111,75.2542372881356,12.462222222222222,76.27118644067797,12.266666666666666C77.28813559322033,12.07111111111111,78.30508474576271,11.89333333333333,79.32203389830508,11.706666666666665C80.33898305084746,11.519999999999998,81.35593220338983,11.31111111111111,82.37288135593221,11.146666666666665C83.38983050847457,10.982222222222221,84.40677966101696,10.853333333333333,85.42372881355932,10.72C86.4406779661017,10.586666666666668,87.45762711864407,10.44888888888889,88.47457627118645,10.346666666666668C89.49152542372882,10.244444444444447,90.50847457627118,10.208888888888891,91.52542372881355,10.10666666666667C92.54237288135593,10.004444444444445,93.55932203389831,9.839999999999998,94.57627118644069,9.73333333333333C95.59322033898306,9.626666666666665,96.61016949152543,9.586666666666668,97.62711864406779,9.466666666666669C98.64406779661016,9.34666666666667,99.66101694915254,9.13777777777778,100.6779661016949,9.013333333333335C101.69491525423729,8.88888888888889,102.71186440677965,8.831111111111111,103.72881355932203,8.719999999999999C104.7457627118644,8.608888888888888,105.76271186440678,8.462222222222223,106.77966101694915,8.346666666666668C107.79661016949153,8.231111111111112,108.8135593220339,8.124444444444446,109.83050847457628,8.026666666666667C110.84745762711864,7.928888888888889,111.86440677966102,7.844444444444443,112.88135593220339,7.759999999999998C113.89830508474576,7.675555555555553,114.91525423728814,7.626666666666663,115.9322033898305,7.519999999999998C116.94915254237289,7.413333333333331,117.96610169491525,7.231111111111113,118.98305084745763,7.120000000000002C120,7.008888888888892,121.01694915254237,6.951111111111111,122.03389830508473,6.8533333333333335C123.05084745762711,6.755555555555555,124.0677966101695,6.635555555555555,125.08474576271188,6.533333333333333C126.10169491525424,6.431111111111112,127.11864406779662,6.337777777777779,128.135593220339,6.240000000000001C129.15254237288136,6.142222222222223,130.16949152542372,6.0444444444444425,131.1864406779661,5.9466666666666645C132.20338983050846,5.848888888888886,133.22033898305085,5.737777777777777,134.23728813559322,5.653333333333332C135.25423728813558,5.568888888888888,136.27118644067798,5.551111111111111,137.28813559322035,5.44C138.3050847457627,5.32888888888889,139.3220338983051,5.115555555555558,140.33898305084747,4.986666666666668C141.35593220338984,4.85777777777778,142.3728813559322,4.773333333333334,143.38983050847457,4.666666666666668C144.40677966101694,4.5600000000000005,145.42372881355934,4.44888888888889,146.4406779661017,4.346666666666668C147.45762711864407,4.244444444444446,148.47457627118644,4.12888888888889,149.4915254237288,4.0533333333333355C150.50847457627117,3.9777777777777796,151.52542372881356,3.9511111111111132,152.54237288135593,3.8933333333333353C153.5593220338983,3.8355555555555574,154.5762711864407,3.7555555555555564,155.59322033898306,3.706666666666667C156.61016949152543,3.657777777777778,157.6271186440678,3.5999999999999988,158.64406779661016,3.5999999999999988C159.66101694915253,3.5999999999999988,160.67796610169492,3.906666666666666,161.6949152542373,4.079999999999999C162.71186440677965,4.253333333333333,163.72881355932205,4.4355555555555535,164.74576271186442,4.64C165.76271186440678,4.844444444444444,166.77966101694915,5.053333333333336,167.79661016949152,5.306666666666668C168.81355932203388,5.560000000000003,169.83050847457628,5.880000000000002,170.84745762711864,6.160000000000001C171.864406779661,6.44,172.8813559322034,6.702222222222221,173.89830508474577,6.9866666666666655C174.91525423728814,7.27111111111111,175.93220338983053,7.577777777777776,176.9491525423729,7.866666666666666C177.96610169491527,8.155555555555553,178.98305084745763,8.437777777777777,180,8.719999999999999"></path><path class="axis-ceiling" stroke-width="1" stroke="black" fill="none" d="M175,0L180,0"></path><text class="axis-ceiling-label" font-family="sans-serif" text-anchor="end" font-size="10px" x="170" y="2.5">1500</text></g></svg>