<svg xmlns="http://www.w3.org/2000/svg" viewBox="0 0 180 60"><g transform="translate(0,20)"><path class="area" fill="rgba(0, 0, 0, 0.2)" d="M0,17.066666666666666C1.0169491525423728,17.466666666666665,2.0338983050847457,17.866666666666667,3.0508474576271185,18.133333333333333C4.067796610169491,18.4,5.084745762711864,18.444444444444446,6.101694915254237,18.666666666666668C7.11864406779661,18.88888888888889,8.135593220338983,19.15555555555556,9.152542372881356,19.46666666666667C10.169491525423728,19.77777777777778,11.186440677966102,20.22222222222222,12.203389830508474,20.53333333333333C13.220338983050846,20.84444444444444,14.23728813559322,21.11111111111111,15.254237288135592,21.333333333333332C16.271186440677965,21.555555555555554,17.28813559322034,21.68888888888889,18.305084745762713,21.866666666666667C19.322033898305087,22.044444444444444,20.338983050847457,22.222222222222225,21.35593220338983,22.400000000000002C22.372881355932204,22.57777777777778,23.389830508474574,22.755555555555553,24.406779661016948,22.93333333333333C25.423728813559322,23.111111111111107,26.440677966101696,23.28888888888889,27.45762711864407,23.46666666666667C28.47457627118644,23.644444444444446,29.491525423728813,24,30.508474576271183,24C31.525423728813557,24,32.54237288135593,24,33.559322033898304,24C34.57627118644068,24,35.59322033898305,24.355555555555554,36.610169491525426,24.53333333333333C37.6271186440678,24.71111111111111,38.644067796610166,24.888888888888893,39.66101694915254,25.06666666666667C40.67796610169491,25.244444444444447,41.69491525423729,25.422222222222224,42.71186440677966,25.6C43.728813559322035,25.77777777777778,44.7457627118644,25.91111111111111,45.762711864406775,26.133333333333333C46.77966101694915,26.355555555555554,47.79661016949152,26.666666666666668,48.813559322033896,26.933333333333334C49.83050847457627,27.2,50.847457627118644,27.46666666666667,51.86440677966102,27.733333333333334C52.88135593220339,28,53.898305084745765,28.311111111111114,54.91525423728814,28.533333333333335C55.93220338983051,28.755555555555556,56.94915254237288,28.844444444444445,57.96610169491525,29.066666666666666C58.983050847457626,29.288888888888888,59.99999999999999,29.688888888888886,61.01694915254237,29.866666666666664C62.03389830508474,30.04444444444444,63.05084745762712,30,64.0677966101695,30.133333333333333C65.08474576271186,30.266666666666666,66.10169491525424,30.666666666666664,67.11864406779661,30.666666666666664C68.13559322033899,30.666666666666664,69.15254237288136,30.666666666666664,70.16949152542374,30.666666666666664C71.1864406779661,30.666666666666664,72.20338983050848,30.933333333333334,73.22033898305085,30.933333333333334C74.23728813559322,30.933333333333334,75.2542372881356,30.933333333333334,76.27118644067797,30.933333333333334C77.28813559322033,30.933333333333334,78.30508474576271,30.933333333333334,79.32203389830508,30.933333333333334C80.33898305084746,30.933333333333334,81.35593220338983,30.933333333333334,82.37288135593221,30.933333333333334C83.38983050847457,30.933333333333334,84.40677966101696,30.933333333333334,85.42372881355932,30.933333333333334C86.4406779661017,30.933333333333334,87.45762711864407,30.933333333333334,88.47457627118645,30.933333333333334C89.49152542372882,30.933333333333334,90.50847457627118,30.933333333333334,91.52542372881355,30.933333333333334C92.54237288135593,30.933333333333334,93.55932203389831,30.666666666666664,94.57627118644069,30.666666666666664C95.59322033898306,30.666666666666664,96.61016949152543,30.666666666666664,97.62711864406779,30.666666666666664C98.64406779661016,30.666666666666664,99.66101694915254,30.488888888888887,100.6779661016949,30.4C101.69491525423729,30.31111111111111,102.71186440677965,30.22222222222222,103.72881355932203,30.133333333333333C104.7457627118644,30.044444444444444,105.76271186440678,29.999999999999996,106.77966101694915,29.866666666666664C107.79661016949153,29.73333333333333,108.8135593220339,29.511111111111113,109.83050847457628,29.333333333333336C110.84745762711864,29.15555555555556,111.86440677966102,28.977777777777774,112.88135593220339,28.799999999999997C113.89830508474576,28.62222222222222,114.91525423728814,28.53333333333333,115.9322033898305,28.266666666666666C116.94915254237289,28,117.96610169491525,27.555555555555554,118.98305084745763,27.199999999999996C120,26.84444444444444,121.01694915254237,26.444444444444443,122.03389830508473,26.133333333333333C123.05084745762711,25.82222222222222,124.0677966101695,25.6,125.08474576271188,25.333333333333332C126.10169491525424,25.066666666666666,127.11864406779662,24.799999999999997,128.135593220339,24.53333333333333C129.15254237288136,24.266666666666666,130.16949152542372,24.04444444444444,131.1864406779661,23.73333333333333C132.20338983050846,23.422222222222217,133.22033898305085,22.977777777777774,134.23728813559322,22.666666666666664C135.25423728813558,22.355555555555554,136.27118644067798,22.22222222222222,137.28813559322035,21.866666666666667C138.3050847457627,21.511111111111113,139.3220338983051,20.84444444444444,140.33898305084747,20.53333333333333C141.35593220338984,20.22222222222222,142.3728813559322,20.22222222222222,143.38983050847457,20C144.40677966101694,19.77777777777778,145.42372881355934,19.42222222222222,146.4406779661017,19.2C147.45762711864407,18.977777777777778,148.47457627118644,18.88888888888889,149.4915254237288,18.666666666666668C150.50847457627117,18.444444444444446,151.52542372881356,18.08888888888889,152.54237288135593,17.866666666666667C153.5593220338983,17.644444444444446,154.5762711864407,17.55555555555556,155.59322033898306,17.333333333333336C156.61016949152543,17.111111111111114,157.6271186440678,16.84444444444444,158.64406779661016,16.53333333333333C159.66101694915253,16.222222222222218,160.67796610169492,15.911111111111113,161.6949152542373,15.466666666666669C162.71186440677965,15.022222222222224,163.72881355932205,14.488888888888892,164.74576271186442,13.866666666666667C165.76271186440678,13.244444444444447,166.77966101694915,12.577777777777774,167.79661016949152,11.733333333333334C168.81355932203388,10.888888888888888,169.83050847457628,9.777777777777777,170.84745762711864,8.799999999999999C171.864406779661,7.822222222222221,172.8813559322034,6.8444444444444414,173.89830508474577,5.8666666666666645C174.91525423728814,4.8888888888888875,175.93220338983053,3.9111111111111168,176.9491525423729,2.9333333333333345C177.96610169491527,1.9555555555555615,178.98305084745763,0.977777777777781,180,0L180,40C178.98305084745763,40,177.96610169491527,40,176.9491525423729,40C175.93220338983053,40,174.91525423728814,40,173.89830508474577,40C172.8813559322034,40,171.864406779661,40,170.84745762711864,40C169.83050847457628,40,168.81355932203388,40,167.79661016949152,40C166.77966101694915,40,165.76271186440678,40,164.74576271186442,40C163.72881355932205,40,162.71186440677965,40,161.6949152542373,40C160.67796610169492,40,159.66101694915253,40,158.64406779661016,40C157.6271186440678,40,156.61016949152543,40,155.59322033898306,40C154.5762711864407,40,153.5593220338983,40,152.54237288135593,40C151.52542372881356,40,150.50847457627117,40,149.4915254237288,40C148.47457627118644,40,147.45762711864407,40,146.4406779661017,40C145.42372881355934,40,144.40677966101694,40,143.38983050847457,40C142.3728813559322,40,141.35593220338984,40,140.33898305084747,40C139.3220338983051,40,138.3050847457627,40,137.28813559322035,40C136.27118644067798,40,135.25423728813558,40,134.23728813559322,40C133.22033898305085,40,132.20338983050846,40,131.1864406779661,40C130.16949152542372,40,129.15254237288136,40,128.135593220339,40C127.11864406779662,40,126.10169491525424,40,125.08474576271188,40C124.0677966101695,40,123.05084745762711,40,122.03389830508473,40C121.01694915254237,40,120,40,118.98305084745763,40C117.96610169491525,40,116.94915254237289,40,115.9322033898305,40C114.91525423728814,40,113.89830508474576,40,112.88135593220339,40C111.86440677966102,40,110.84745762711864,40,109.83050847457628,40C108.8135593220339,40,107.79661016949153,40,106.77966101694915,40C105.76271186440678,40,104.7457627118644,40,103.72881355932203,40C102.71186440677965,40,101.69491525423729,40,100.6779661016949,40C99.66101694915254,40,98.64406779661016,40,97.62711864406779,40C96.61016949152543,40,95.59322033898306,40,94.57627118644069,40C93.55932203389831,40,92.54237288135593,40,91.52542372881355,40C90.50847457627118,40,89.49152542372882,40,88.47457627118645,40C87.45762711864407,40,86.4406779661017,40,85.42372881355932,40C84.40677966101696,40,83.38983050847457,40,82.37288135593221,40C81.35593220338983,40,80.33898305084746,40,79.32203389830508,40C78.30508474576271,40,77.28813559322033,40,76.27118644067797,40C75.2542372881356,40,74.23728813559322,40,73.22033898305085,40C72.20338983050848,40,71.1864406779661,40,70.16949152542374,40C69.15254237288136,40,68.13559322033899,40,67.11864406779661,40C66.10169491525424,40,65.08474576271186,40,64.0677966101695,40C63.05084745762712,40,62.03389830508474,40,61.01694915254237,40C59.99999999999999,40,58.983050847457626,40,57.96610169491525,40C56.94915254237288,40,55.93220338983051,40,54.91525423728814,40C53.898305084745765,40,52.88135593220339,40,51.86440677966102,40C50.847457627118644,40,49.83050847457627,40,48.813559322033896,40C47.79661016949152,40,46.77966101694915,40,45.762711864406775,40C44.7457627118644,40,43.728813559322035,40,42.71186440677966,40C41.69491525423729,40,40.67796610169491,40,39.66101694915254,40C38.644067796610166,40,37.6271186440678,40,36.610169491525426,40C35.59322033898305,40,34.57627118644068,40,33.559322033898304,40C32.54237288135593,40,31.525423728813557,40,30.508474576271183,40C29.491525423728813,40,28.47457627118644,40,27.45762711864407,40C26.440677966101696,40,25.423728813559322,40,24.406779661016948,40C23.389830508474574,40,22.372881355932204,40,21.35593220338983,40C20.338983050847457,40,19.322033898305087,40,18.305084745762713,40C17.28813559322034,40,16.271186440677965,40,15.254237288135592,40C14.23728813559322,40,13.220338983050846,40,12.203389830508474,40C11.186440677966102,40,10.169491525423728,40,9.152542372881356,40C8.135593220338983,40,7.11864406779661,40,6.101694915254237,40C5.084745762711864,40,4.067796610169491,40,3.0508474576271185,40C2.0338983050847457,40,1.0169491525423728,40,0,40Z"></path><path class="line" stroke="black" fill="none" d="M0,17.066666666666666C1.0169491525423728,17.466666666666665,2.0338983050847457,17.866666666666667,3.0508474576271185,18.133333333333333C4.067796610169491,18.4,5.084745762711864,18.444444444444446,6.101694915254237,18.666666666666668C7.11864406779661,18.88888888888889,8.135593220338983,19.15555555555556,9.152542372881356,19.46666666666667C10.169491525423728,19.77777777777778,11.186440677966102,20.22222222222222,12.203389830508474,20.53333333333333C13.220338983050846,20.84444444444444,14.23728813559322,21.11111111111111,15.254237288135592,21.333333333333332C16.271186440677965,21.555555555555554,17.28813559322034,21.68888888888889,18.305084745762713,21.866666666666667C19.322033898305087,22.044444444444444,20.338983050847457,22.222222222222225,21.35593220338983,22.400000000000002C22.372881355932204,22.57777777777778,23.389830508474574,22.755555555555553,24.406779661016948,22.93333333333333C25.423728813559322,23.111111111111107,26.440677966101696,23.28888888888889,27.45762711864407,23.46666666666667C28.47457627118644,23.644444444444446,29.491525423728813,24,30.508474576271183,24C31.525423728813557,24,32.54237288135593,24,33.559322033898304,24C34.57627118644068,24,35.59322033898305,24.355555555555554,36.610169491525426,24.53333333333333C37.6271186440678,24.71111111111111,38.644067796610166,24.888888888888893,39.66101694915254,25.06666666666667C40.67796610169491,25.244444444444447,41.69491525423729,25.422222222222224,42.71186440677966,25.6C43.728813559322035,25.77777777777778,44.7457627118644,25.91111111111111,45.762711864406775,26.133333333333333C46.77966101694915,26.355555555555554,47.79661016949152,26.666666666666668,48.813559322033896,26.933333333333334C49.83050847457627,27.2,50.847457627118644,27.46666666666667,51.86440677966102,27.733333333333334C52.88135593220339,28,53.898305084745765,28.311111111111114,54.91525423728814,28.533333333333335C55.93220338983051,28.755555555555556,56.94915254237288,28.844444444444445,57.96610169491525,29.066666666666666C58.983050847457626,29.288888888888888,59.99999999999999,29.688888888888886,61.01694915254237,29.866666666666664C62.03389830508474,30.04444444444444,63.05084745762712,30,64.0677966101695,30.133333333333333C65.08474576271186,30.266666666666666,66.10169491525424,30.666666666666664,67.11864406779661,30.666666666666664C68.13559322033899,30.666666666666664,69.15254237288136,30.666666666666664,70.16949152542374,30.666666666666664C71.1864406779661,30.666666666666664,72.20338983050848,30.933333333333334,73.22033898305085,30.933333333333334C74.23728813559322,30.933333333333334,75.2542372881356,30.933333333333334,76.27118644067797,30.933333333333334C77.28813559322033,30.933333333333334,78.30508474576271,30.933333333333334,79.32203389830508,30.933333333333334C80.33898305084746,30.933333333333334,81.35593220338983,30.933333333333334,82.37288135593221,30.933333333333334C83.38983050847457,30.933333333333334,84.40677966101696,30.933333333333334,85.42372881355932,30.933333333333334C86.4406779661017,30.933333333333334,87.45762711864407,30.933333333333334,88.47457627118645,30.933333333333334C89.49152542372882,30.933333333333334,90.50847457627118,30.933333333333334,91.52542372881355,30.933333333333334C92.54237288135593,30.933333333333334,93.55932203389831,30.666666666666664,94.57627118644069,30.666666666666664C95.59322033898306,30.666666666666664,96.61016949152543,30.666666666666664,97.62711864406779,30.666666666666664C98.64406779661016,30.666666666666664,99.66101694915254,30.488888888888887,100.6779661016949,30.4C101.69491525423729,30.31111111111111,102.71186440677965,30.22222222222222,103.72881355932203,30.133333333333333C104.7457627118644,30.044444444444444,105.76271186440678,29.999999999999996,106.77966101694915,29.866666666666664C107.79661016949153,29.73333333333333,108.8135593220339,29.511111111111113,109.83050847457628,29.333333333333336C110.84745762711864,29.15555555555556,111.86440677966102,28.977777777777774,112.88135593220339,28.799999999999997C113.89830508474576,28.62222222222222,114.91525423728814,28.53333333333333,115.9322033898305,28.266666666666666C116.94915254237289,28,117.96610169491525,27.555555555555554,118.98305084745763,27.199999999999996C120,26.84444444444444,121.01694915254237,26.444444444444443,122.03389830508473,26.133333333333333C123.05084745762711,25.82222222222222,124.0677966101695,25.6,125.08474576271188,25.333333333333332C126.10169491525424,25.066666666666666,127.11864406779662,24.799999999999997,128.135593220339,24.53333333333333C129.15254237288136,24.266666666666666,130.16949152542372,24.04444444444444,131.1864406779661,23.73333333333333C132.20338983050846,23.422222222222217,133.22033898305085,22.977777777777774,134.23728813559322,22.666666666666664C135.25423728813558,22.355555555555554,136.27118644067798,22.22222222222222,137.28813559322035,21.866666666666667C138.3050847457627,21.511111111111113,139.3220338983051,20.84444444444444,140.33898305084747,20.53333333333333C141.35593220338984,20.22222222222222,142.3728813559322,20.22222222222222,143.38983050847457,20C144.40677966101694,19.77777777777778,145.42372881355934,19.42222222222222,146.4406779661017,19.2C147.45762711864407,18.977777777777778,148.47457627118644,18.88888888888889,149.4915254237288,18.666666666666668C150.50847457627117,18.444444444444446,151.52542372881356,18.08888888888889,152.54237288135593,17.866666666666667C153.5593220338983,17.644444444444446,154.5762711864407,17.55555555555556,155.59322033898306,17.333333333333336C156.61016949152543,17.111111111111114,157.6271186440678,16.84444444444444,158.64406779661016,16.53333333333333C159.66101694915253,16.222222222222218,160.67796610169492,15.911111111111113,161.6949152542373,15.466666666666669C162.71186440677965,15.022222222222224,163.72881355932205,14.488888888888892,164.74576271186442,13.866666666666667C165.76271186440678,13.244444444444447,166.77966101694915,12.577777777777774,167.79661016949152,11.733333333333334C168.81355932203388,10.888888888888888,169.83050847457628,9.777777777777777,170.84745762711864,8.799999999999999C171.864406779661,7.822222222222221,172.8813559322034,6.8444444444444414,173.89830508474577,5.8666666666666645C174.91525423728814,4.8888888888888875,175.93220338983053,3.9111111111111168,176.9491525423729,2.9333333333333345C177.96610169491527,1.9555555555555615,178.98305084745763,0.977777777777781,180,0"></path><path class="axis-ceiling" stroke-width="1" stroke="black" fill="none" d="M175,0L180,0"></path><text class="axis-ceiling-label" font-family="sans-serif" text-anchor="end" font-size="10px" x="170" y="2.5">150</text></g></svg>