<svg xmlns="http://www.w3.org/2000/svg" viewBox="0 0 180 60"><g transform="translate(0,20)"><path class="area" fill="rgba(0, 0, 0, 0.2)" d="M0,40C1.0344827586206897,37.54385964912281,2.068965517241379,35.08771929824562,3.103448275862069,35.08771929824562C4.137931034482759,35.08771929824562,5.172413793103448,35.08771929824562,6.206896551724138,35.08771929824562C7.241379310344827,35.08771929824562,8.275862068965516,34.73684210526316,9.310344827586206,34.73684210526316C10.344827586206897,34.73684210526316,11.379310344827585,36.140350877192986,12.413793103448276,36.140350877192986C13.448275862068966,36.140350877192986,14.482758620689655,35.96491228070175,15.517241379310345,35.78947368421053C16.551724137931036,35.6140350877193,17.586206896551722,35.08771929824562,18.620689655172413,35.08771929824562C19.655172413793103,35.08771929824562,20.689655172413794,37.54385964912281,21.724137931034484,37.54385964912281C22.758620689655174,37.54385964912281,23.79310344827586,35.43859649122807,24.82758620689655,35.43859649122807C25.862068965517242,35.43859649122807,26.896551724137932,37.54385964912281,27.931034482758623,37.54385964912281C28.965517241379313,37.54385964912281,30,35.08771929824562,31.03448275862069,35.08771929824562C32.06896551724138,35.08771929824562,33.103448275862064,35.78947368421053,34.137931034482754,35.78947368421053C35.172413793103445,35.78947368421053,36.206896551724135,34.3859649122807,37.241379310344826,34.3859649122807C38.275862068965516,34.3859649122807,39.310344827586206,36.60818713450292,40.3448275862069,36.84210526315789C41.37931034482759,37.07602339181286,42.41379310344828,37.19298245614035,43.44827586206897,37.19298245614035C44.48275862068966,37.19298245614035,45.51724137931035,36.900584795321635,46.55172413793104,36.49122807017544C47.58620689655173,36.08187134502924,48.62068965517241,34.73684210526316,49.6551724137931,34.73684210526316C50.689655172413794,34.73684210526316,51.72413793103448,34.970760233918135,52.75862068965517,35.08771929824562C53.79310344827586,35.204678362573105,54.827586206896555,35.43859649122807,55.862068965517246,35.43859649122807C56.896551724137936,35.43859649122807,57.93103448275862,35.43859649122807,58.96551724137931,35.43859649122807C60,35.43859649122807,61.03448275862069,35.43859649122807,62.06896551724138,35.43859649122807C63.10344827586207,35.43859649122807,64.13793103448276,34.73684210526316,65.17241379310344,34.73684210526316C66.20689655172413,34.73684210526316,67.24137931034483,35.78947368421053,68.27586206896551,35.78947368421053C69.3103448275862,35.78947368421053,70.34482758620689,35.26315789473684,71.37931034482759,35.08771929824562C72.41379310344827,34.91228070175439,73.44827586206897,34.73684210526316,74.48275862068965,34.73684210526316C75.51724137931033,34.73684210526316,76.55172413793103,34.73684210526316,77.58620689655172,34.73684210526316C78.62068965517241,34.73684210526316,79.6551724137931,35.08771929824562,80.6896551724138,35.08771929824562C81.72413793103448,35.08771929824562,82.75862068965517,35.08771929824562,83.79310344827586,35.08771929824562C84.82758620689656,35.08771929824562,85.86206896551724,35.43859649122807,86.89655172413794,35.43859649122807C87.93103448275862,35.43859649122807,88.96551724137932,35.2046783625731,90,35.08771929824562C91.0344827586207,34.97076023391813,92.06896551724138,34.73684210526316,93.10344827586208,34.73684210526316C94.13793103448276,34.73684210526316,95.17241379310344,35.08771929824562,96.20689655172413,35.08771929824562C97.24137931034483,35.08771929824562,98.27586206896551,34.73684210526316,99.3103448275862,34.73684210526316C100.3448275862069,34.73684210526316,101.37931034482759,35.78947368421053,102.41379310344828,35.78947368421053C103.44827586206897,35.78947368421053,104.48275862068965,34.85380116959064,105.51724137931033,34.3859649122807C106.55172413793103,33.91812865497076,107.58620689655172,32.98245614035088,108.62068965517241,32.98245614035088C109.65517241379311,32.98245614035088,110.6896551724138,33.74269005847953,111.72413793103449,34.03508771929825C112.75862068965517,34.32748538011696,113.79310344827587,34.73684210526316,114.82758620689656,34.73684210526316C115.86206896551724,34.73684210526316,116.89655172413794,32.98245614035088,117.93103448275862,32.98245614035088C118.96551724137932,32.98245614035088,120,34.3859649122807,121.0344827586207,34.3859649122807C122.06896551724138,34.3859649122807,123.10344827586208,34.03508771929825,124.13793103448276,34.03508771929825C125.17241379310344,34.03508771929825,126.20689655172414,36.140350877192986,127.24137931034483,36.140350877192986C128.27586206896552,36.140350877192986,129.3103448275862,34.03508771929825,130.3448275862069,34.03508771929825C131.3793103448276,34.03508771929825,132.41379310344828,34.3859649122807,133.44827586206898,34.3859649122807C134.48275862068965,34.3859649122807,135.51724137931035,34.3859649122807,136.55172413793102,34.3859649122807C137.58620689655172,34.3859649122807,138.6206896551724,35.43859649122807,139.6551724137931,35.43859649122807C140.6896551724138,35.43859649122807,141.72413793103448,34.795321637426895,142.75862068965517,34.3859649122807C143.79310344827587,33.9766081871345,144.82758620689654,32.98245614035088,145.86206896551724,32.98245614035088C146.89655172413794,32.98245614035088,147.9310344827586,33.68421052631579,148.9655172413793,33.68421052631579C150,33.68421052631579,151.0344827586207,25.614035087719298,152.0689655172414,25.614035087719298C153.10344827586206,25.614035087719298,154.13793103448276,35.78947368421053,155.17241379310343,35.78947368421053C156.20689655172413,35.78947368421053,157.24137931034483,34.73684210526316,158.27586206896552,34.73684210526316C159.31034482758622,34.73684210526316,160.3448275862069,35.08771929824562,161.3793103448276,35.08771929824562C162.41379310344828,35.08771929824562,163.44827586206895,31.578947368421055,164.48275862068965,31.578947368421055C165.51724137931035,31.578947368421055,166.55172413793102,33.333333333333336,167.58620689655172,33.333333333333336C168.6206896551724,33.333333333333336,169.6551724137931,31.578947368421055,170.6896551724138,28.07017543859649C171.7241379310345,24.561403508771956,172.75862068965517,1.4035087719298245,173.79310344827587,1.4035087719298245C174.82758620689657,1.4035087719298245,175.86206896551724,28.53801169590643,176.89655172413794,30.877192982456137C177.93103448275863,33.21637426900585,178.9655172413793,33.80116959064327,180,34.3859649122807L180,40C178.9655172413793,40,177.93103448275863,40,176.89655172413794,40C175.86206896551724,40,174.82758620689657,40,173.79310344827587,40C172.75862068965517,40,171.7241379310345,40,170.6896551724138,40C169.6551724137931,40,168.6206896551724,40,167.58620689655172,40C166.55172413793102,40,165.51724137931035,40,164.48275862068965,40C163.44827586206895,40,162.41379310344828,40,161.3793103448276,40C160.3448275862069,40,159.31034482758622,40,158.27586206896552,40C157.24137931034483,40,156.20689655172413,40,155.17241379310343,40C154.13793103448276,40,153.10344827586206,40,152.0689655172414,40C151.0344827586207,40,150,40,148.9655172413793,40C147.9310344827586,40,146.89655172413794,40,145.86206896551724,40C144.82758620689654,40,143.79310344827587,40,142.75862068965517,40C141.72413793103448,40,140.6896551724138,40,139.6551724137931,40C138.6206896551724,40,137.58620689655172,40,136.55172413793102,40C135.51724137931035,40,134.48275862068965,40,133.44827586206898,40C132.41379310344828,40,131.3793103448276,40,130.3448275862069,40C129.3103448275862,40,128.27586206896552,40,127.24137931034483,40C126.20689655172414,40,125.17241379310344,40,124.13793103448276,40C123.10344827586208,40,122.06896551724138,40,121.0344827586207,40C120,40,118.96551724137932,40,117.93103448275862,40C116.89655172413794,40,115.86206896551724,40,114.82758620689656,40C113.79310344827587,40,112.75862068965517,40,111.72413793103449,40C110.6896551724138,40,109.65517241379311,40,108.62068965517241,40C107.58620689655172,40,106.55172413793103,40,105.51724137931033,40C104.48275862068965,40,103.44827586206897,40,102.41379310344828,40C101.37931034482759,40,100.3448275862069,40,99.3103448275862,40C98.27586206896551,40,97.24137931034483,40,96.20689655172413,40C95.17241379310344,40,94.13793103448276,40,93.10344827586208,40C92.06896551724138,40,91.0344827586207,40,90,40C88.96551724137932,40,87.93103448275862,40,86.89655172413794,40C85.86206896551724,40,84.82758620689656,40,83.79310344827586,40C82.75862068965517,40,81.72413793103448,40,80.6896551724138,40C79.6551724137931,40,78.62068965517241,40,77.58620689655172,40C76.55172413793103,40,75.51724137931033,40,74.48275862068965,40C73.44827586206897,40,72.41379310344827,40,71.37931034482759,40C70.34482758620689,40,69.3103448275862,40,68.27586206896551,40C67.24137931034483,40,66.20689655172413,40,65.17241379310344,40C64.13793103448276,40,63.10344827586207,40,62.06896551724138,40C61.03448275862069,40,60,40,58.96551724137931,40C57.93103448275862,40,56.896551724137936,40,55.862068965517246,40C54.827586206896555,40,53.79310344827586,40,52.75862068965517,40C51.72413793103448,40,50.689655172413794,40,49.6551724137931,40C48.62068965517241,40,47.58620689655173,40,46.55172413793104,40C45.51724137931035,40,44.48275862068966,40,43.44827586206897,40C42.41379310344828,40,41.37931034482759,40,40.3448275862069,40C39.310344827586206,40,38.275862068965516,40,37.241379310344826,40C36.206896551724135,40,35.172413793103445,40,34.137931034482754,40C33.103448275862064,40,32.06896551724138,40,31.03448275862069,40C30,40,28.965517241379313,40,27.931034482758623,40C26.896551724137932,40,25.862068965517242,40,24.82758620689655,40C23.79310344827586,40,22.758620689655174,40,21.724137931034484,40C20.689655172413794,40,19.655172413793103,40,18.620689655172413,40C17.586206896551722,40,16.551724137931036,40,15.517241379310345,40C14.482758620689655,40,13.448275862068966,40,12.413793103448276,40C11.379310344827585,40,10.344827586206897,40,9.310344827586206,40C8.275862068965516,40,7.241379310344827,40,6.206896551724138,40C5.172413793103448,40,4.137931034482759,40,3.103448275862069,40C2.068965517241379,40,1.0344827586206897,40,0,40Z"></path><path class="line" stroke="black" fill="none" d="M0,40C1.0344827586206897,37.54385964912281,2.068965517241379,35.08771929824562,3.103448275862069,35.08771929824562C4.137931034482759,35.08771929824562,5.172413793103448,35.08771929824562,6.206896551724138,35.08771929824562C7.241379310344827,35.08771929824562,8.275862068965516,34.73684210526316,9.310344827586206,34.73684210526316C10.344827586206897,34.73684210526316,11.379310344827585,36.140350877192986,12.413793103448276,36.140350877192986C13.448275862068966,36.140350877192986,14.482758620689655,35.96491228070175,15.517241379310345,35.78947368421053C16.551724137931036,35.6140350877193,17.586206896551722,35.08771929824562,18.620689655172413,35.08771929824562C19.655172413793103,35.08771929824562,20.689655172413794,37.54385964912281,21.724137931034484,37.54385964912281C22.758620689655174,37.54385964912281,23.79310344827586,35.43859649122807,24.82758620689655,35.43859649122807C25.862068965517242,35.43859649122807,26.896551724137932,37.54385964912281,27.931034482758623,37.54385964912281C28.965517241379313,37.54385964912281,30,35.08771929824562,31.03448275862069,35.08771929824562C32.06896551724138,35.08771929824562,33.103448275862064,35.78947368421053,34.137931034482754,35.78947368421053C35.172413793103445,35.78947368421053,36.206896551724135,34.3859649122807,37.241379310344826,34.3859649122807C38.275862068965516,34.3859649122807,39.310344827586206,36.60818713450292,40.3448275862069,36.84210526315789C41.37931034482759,37.07602339181286,42.41379310344828,37.19298245614035,43.44827586206897,37.19298245614035C44.48275862068966,37.19298245614035,45.51724137931035,36.900584795321635,46.55172413793104,36.49122807017544C47.58620689655173,36.08187134502924,48.62068965517241,34.73684210526316,49.6551724137931,34.73684210526316C50.689655172413794,34.73684210526316,51.72413793103448,34.970760233918135,52.75862068965517,35.08771929824562C53.79310344827586,35.204678362573105,54.827586206896555,35.43859649122807,55.862068965517246,35.43859649122807C56.896551724137936,35.43859649122807,57.93103448275862,35.43859649122807,58.96551724137931,35.43859649122807C60,35.43859649122807,61.03448275862069,35.43859649122807,62.06896551724138,35.43859649122807C63.10344827586207,35.43859649122807,64.13793103448276,34.73684210526316,65.17241379310344,34.73684210526316C66.20689655172413,34.73684210526316,67.24137931034483,35.78947368421053,68.27586206896551,35.78947368421053C69.3103448275862,35.78947368421053,70.34482758620689,35.26315789473684,71.37931034482759,35.08771929824562C72.41379310344827,34.91228070175439,73.44827586206897,34.73684210526316,74.48275862068965,34.73684210526316C75.51724137931033,34.73684210526316,76.55172413793103,34.73684210526316,77.58620689655172,34.73684210526316C78.62068965517241,34.73684210526316,79.6551724137931,35.08771929824562,80.6896551724138,35.08771929824562C81.72413793103448,35.08771929824562,82.75862068965517,35.08771929824562,83.79310344827586,35.08771929824562C84.82758620689656,35.08771929824562,85.86206896551724,35.43859649122807,86.89655172413794,35.43859649122807C87.93103448275862,35.43859649122807,88.96551724137932,35.2046783625731,90,35.08771929824562C91.0344827586207,34.97076023391813,92.06896551724138,34.73684210526316,93.10344827586208,34.73684210526316C94.13793103448276,34.73684210526316,95.17241379310344,35.08771929824562,96.20689655172413,35.08771929824562C97.24137931034483,35.08771929824562,98.27586206896551,34.73684210526316,99.3103448275862,34.73684210526316C100.3448275862069,34.73684210526316,101.37931034482759,35.78947368421053,102.41379310344828,35.78947368421053C103.44827586206897,35.78947368421053,104.48275862068965,34.85380116959064,105.51724137931033,34.3859649122807C106.55172413793103,33.91812865497076,107.58620689655172,32.98245614035088,108.62068965517241,32.98245614035088C109.65517241379311,32.98245614035088,110.6896551724138,33.74269005847953,111.72413793103449,34.03508771929825C112.75862068965517,34.32748538011696,113.79310344827587,34.73684210526316,114.82758620689656,34.73684210526316C115.86206896551724,34.73684210526316,116.89655172413794,32.98245614035088,117.93103448275862,32.98245614035088C118.96551724137932,32.98245614035088,120,34.3859649122807,121.0344827586207,34.3859649122807C122.06896551724138,34.3859649122807,123.10344827586208,34.03508771929825,124.13793103448276,34.03508771929825C125.17241379310344,34.03508771929825,126.20689655172414,36.140350877192986,127.24137931034483,36.140350877192986C128.27586206896552,36.140350877192986,129.3103448275862,34.03508771929825,130.3448275862069,34.03508771929825C131.3793103448276,34.03508771929825,132.41379310344828,34.3859649122807,133.44827586206898,34.3859649122807C134.48275862068965,34.3859649122807,135.51724137931035,34.3859649122807,136.55172413793102,34.3859649122807C137.58620689655172,34.3859649122807,138.6206896551724,35.43859649122807,139.6551724137931,35.43859649122807C140.6896551724138,35.43859649122807,141.72413793103448,34.795321637426895,142.75862068965517,34.3859649122807C143.79310344827587,33.9766081871345,144.82758620689654,32.98245614035088,145.86206896551724,32.98245614035088C146.89655172413794,32.98245614035088,147.9310344827586,33.68421052631579,148.9655172413793,33.68421052631579C150,33.68421052631579,151.0344827586207,25.614035087719298,152.0689655172414,25.614035087719298C153.10344827586206,25.614035087719298,154.13793103448276,35.78947368421053,155.17241379310343,35.78947368421053C156.20689655172413,35.78947368421053,157.24137931034483,34.73684210526316,158.27586206896552,34.73684210526316C159.31034482758622,34.73684210526316,160.3448275862069,35.08771929824562,161.3793103448276,35.08771929824562C162.41379310344828,35.08771929824562,163.44827586206895,31.578947368421055,164.48275862068965,31.578947368421055C165.51724137931035,31.578947368421055,166.55172413793102,33.333333333333336,167.58620689655172,33.333333333333336C168.6206896551724,33.333333333333336,169.6551724137931,31.578947368421055,170.6896551724138,28.07017543859649C171.7241379310345,24.561403508771956,172.75862068965517,1.4035087719298245,173.79310344827587,1.4035087719298245C174.82758620689657,1.4035087719298245,175.86206896551724,28.53801169590643,176.89655172413794,30.877192982456137C177.93103448275863,33.21637426900585,178.9655172413793,33.80116959064327,180,34.3859649122807"></path><path class="axis-ceiling" stroke-width="1" stroke="black" fill="none" d="M175,0L180,0"></path><text class="axis-ceiling-label" font-family="sans-serif" text-anchor="end" font-size="10px" x="170" y="2.5">100</text></g></svg>