<svg xmlns="http://www.w3.org/2000/svg" viewBox="0 0 180 60"><g transform="translate(0,20)"><path class="area" fill="rgba(0, 0, 0, 0.2)" d="M0,40C1.0169491525423728,39.21568627450981,2.0338983050847457,38.431372549019606,3.0508474576271185,37.64705882352941C4.067796610169491,36.86274509803922,5.084745762711864,35.294117647058826,6.101694915254237,35.294117647058826C7.11864406779661,35.294117647058826,8.135593220338983,35.294117647058826,9.152542372881356,35.294117647058826C10.169491525423728,35.294117647058826,11.186440677966102,27.450980392156858,12.203389830508474,25.882352941176467C13.220338983050846,24.313725490196077,14.23728813559322,24.31372549019608,15.254237288135592,23.529411764705884C16.271186440677965,22.745098039215687,17.28813559322034,21.96078431372549,18.305084745762713,21.176470588235293C19.322033898305087,20.392156862745097,20.338983050847457,18.823529411764707,21.35593220338983,18.823529411764707C22.372881355932204,18.823529411764707,23.389830508474574,18.823529411764707,24.406779661016948,18.823529411764707C25.423728813559322,18.823529411764707,26.440677966101696,18.823529411764707,27.45762711864407,18.823529411764707C28.47457627118644,18.823529411764707,29.491525423728813,18.823529411764707,30.508474576271183,18.823529411764707C31.525423728813557,18.823529411764707,32.54237288135593,18.823529411764707,33.559322033898304,18.823529411764707C34.57627118644068,18.823529411764707,35.59322033898305,18.823529411764707,36.610169491525426,18.823529411764707C37.6271186440678,18.823529411764707,38.644067796610166,18.823529411764707,39.66101694915254,18.823529411764707C40.67796610169491,18.823529411764707,41.69491525423729,18.823529411764707,42.71186440677966,18.823529411764707C43.728813559322035,18.823529411764707,44.7457627118644,18.823529411764707,45.762711864406775,18.823529411764707C46.77966101694915,18.823529411764707,47.79661016949152,18.823529411764707,48.813559322033896,18.823529411764707C49.83050847457627,18.823529411764707,50.847457627118644,18.823529411764707,51.86440677966102,18.823529411764707C52.88135593220339,18.823529411764707,53.898305084745765,21.176470588235293,54.91525423728814,21.176470588235293C55.93220338983051,21.176470588235293,56.94915254237288,18.823529411764707,57.96610169491525,18.823529411764707C58.983050847457626,18.823529411764707,59.99999999999999,21.176470588235293,61.01694915254237,21.176470588235293C62.03389830508474,21.176470588235293,63.05084745762712,21.176470588235293,64.0677966101695,21.176470588235293C65.08474576271186,21.176470588235293,66.10169491525424,21.176470588235293,67.11864406779661,21.176470588235293C68.13559322033899,21.176470588235293,69.15254237288136,18.823529411764707,70.16949152542374,18.823529411764707C71.1864406779661,18.823529411764707,72.20338983050848,18.823529411764707,73.22033898305085,18.823529411764707C74.23728813559322,18.823529411764707,75.2542372881356,16.470588235294116,76.27118644067797,16.470588235294116C77.28813559322033,16.470588235294116,78.30508474576271,16.470588235294116,79.32203389830508,16.470588235294116C80.33898305084746,16.470588235294116,81.35593220338983,18.823529411764707,82.37288135593221,18.823529411764707C83.38983050847457,18.823529411764707,84.40677966101696,18.823529411764707,85.42372881355932,18.823529411764707C86.4406779661017,18.823529411764707,87.45762711864407,18.823529411764707,88.47457627118645,18.823529411764707C89.49152542372882,18.823529411764707,90.50847457627118,18.823529411764707,91.52542372881355,18.823529411764707C92.54237288135593,18.823529411764707,93.55932203389831,18.823529411764707,94.57627118644069,18.823529411764707C95.59322033898306,18.823529411764707,96.61016949152543,18.823529411764707,97.62711864406779,18.823529411764707C98.64406779661016,18.823529411764707,99.66101694915254,21.176470588235293,100.6779661016949,21.176470588235293C101.69491525423729,21.176470588235293,102.71186440677965,16.470588235294116,103.72881355932203,16.470588235294116C104.7457627118644,16.470588235294116,105.76271186440678,16.470588235294116,106.77966101694915,16.470588235294116C107.79661016949153,16.470588235294116,108.8135593220339,16.470588235294116,109.83050847457628,16.470588235294116C110.84745762711864,16.470588235294116,111.86440677966102,18.823529411764707,112.88135593220339,18.823529411764707C113.89830508474576,18.823529411764707,114.91525423728814,17.25490196078431,115.9322033898305,16.470588235294116C116.94915254237289,15.686274509803917,117.96610169491525,14.117647058823529,118.98305084745763,14.117647058823529C120,14.117647058823529,121.01694915254237,14.117647058823529,122.03389830508473,14.117647058823529C123.05084745762711,14.117647058823529,124.0677966101695,14.117647058823529,125.08474576271188,14.117647058823529C126.10169491525424,14.117647058823529,127.11864406779662,14.117647058823529,128.135593220339,14.117647058823529C129.15254237288136,14.117647058823529,130.16949152542372,14.117647058823529,131.1864406779661,14.117647058823529C132.20338983050846,14.117647058823529,133.22033898305085,11.764705882352938,134.23728813559322,11.764705882352938C135.25423728813558,11.764705882352938,136.27118644067798,11.764705882352938,137.28813559322035,11.764705882352938C138.3050847457627,11.764705882352938,139.3220338983051,14.117647058823529,140.33898305084747,14.117647058823529C141.35593220338984,14.117647058823529,142.3728813559322,11.764705882352938,143.38983050847457,11.764705882352938C144.40677966101694,11.764705882352938,145.42372881355934,11.764705882352938,146.4406779661017,11.764705882352938C147.45762711864407,11.764705882352938,148.47457627118644,11.764705882352938,149.4915254237288,11.764705882352938C150.50847457627117,11.764705882352938,151.52542372881356,11.764705882352938,152.54237288135593,11.764705882352938C153.5593220338983,11.764705882352938,154.5762711864407,14.117647058823529,155.59322033898306,14.117647058823529C156.61016949152543,14.117647058823529,157.6271186440678,12.54901960784313,158.64406779661016,11.764705882352938C159.66101694915253,10.98039215686274,160.67796610169492,9.411764705882355,161.6949152542373,9.411764705882355C162.71186440677965,9.411764705882355,163.72881355932205,9.411764705882355,164.74576271186442,9.411764705882355C165.76271186440678,9.411764705882355,166.77966101694915,9.411764705882355,167.79661016949152,9.411764705882355C168.81355932203388,9.411764705882355,169.83050847457628,7.058823529411766,170.84745762711864,7.058823529411766C171.864406779661,7.058823529411766,172.8813559322034,7.058823529411766,173.89830508474577,7.058823529411766C174.91525423728814,7.058823529411766,175.93220338983053,4.7058823529411775,176.9491525423729,4.7058823529411775C177.96610169491527,4.7058823529411775,178.98305084745763,5.882352941176472,180,7.058823529411766L180,40C178.98305084745763,40,177.96610169491527,40,176.9491525423729,40C175.93220338983053,40,174.91525423728814,40,173.89830508474577,40C172.8813559322034,40,171.864406779661,40,170.84745762711864,40C169.83050847457628,40,168.81355932203388,40,167.79661016949152,40C166.77966101694915,40,165.76271186440678,40,164.74576271186442,40C163.72881355932205,40,162.71186440677965,40,161.6949152542373,40C160.67796610169492,40,159.66101694915253,40,158.64406779661016,40C157.6271186440678,40,156.61016949152543,40,155.59322033898306,40C154.5762711864407,40,153.5593220338983,40,152.54237288135593,40C151.52542372881356,40,150.50847457627117,40,149.4915254237288,40C148.47457627118644,40,147.45762711864407,40,146.4406779661017,40C145.42372881355934,40,144.40677966101694,40,143.38983050847457,40C142.3728813559322,40,141.35593220338984,40,140.33898305084747,40C139.3220338983051,40,138.3050847457627,40,137.28813559322035,40C136.27118644067798,40,135.25423728813558,40,134.23728813559322,40C133.22033898305085,40,132.20338983050846,40,131.1864406779661,40C130.16949152542372,40,129.15254237288136,40,128.135593220339,40C127.11864406779662,40,126.10169491525424,40,125.08474576271188,40C124.0677966101695,40,123.05084745762711,40,122.03389830508473,40C121.01694915254237,40,120,40,118.98305084745763,40C117.96610169491525,40,116.94915254237289,40,115.9322033898305,40C114.91525423728814,40,113.89830508474576,40,112.88135593220339,40C111.86440677966102,40,110.84745762711864,40,109.83050847457628,40C108.8135593220339,40,107.79661016949153,40,106.77966101694915,40C105.76271186440678,40,104.7457627118644,40,103.72881355932203,40C102.71186440677965,40,101.69491525423729,40,100.6779661016949,40C99.66101694915254,40,98.64406779661016,40,97.62711864406779,40C96.61016949152543,40,95.59322033898306,40,94.57627118644069,40C93.55932203389831,40,92.54237288135593,40,91.52542372881355,40C90.50847457627118,40,89.49152542372882,40,88.47457627118645,40C87.45762711864407,40,86.4406779661017,40,85.42372881355932,40C84.40677966101696,40,83.38983050847457,40,82.37288135593221,40C81.35593220338983,40,80.33898305084746,40,79.32203389830508,40C78.30508474576271,40,77.28813559322033,40,76.27118644067797,40C75.2542372881356,40,74.23728813559322,40,73.22033898305085,40C72.20338983050848,40,71.1864406779661,40,70.16949152542374,40C69.15254237288136,40,68.13559322033899,40,67.11864406779661,40C66.10169491525424,40,65.08474576271186,40,64.0677966101695,40C63.05084745762712,40,62.03389830508474,40,61.01694915254237,40C59.99999999999999,40,58.983050847457626,40,57.96610169491525,40C56.94915254237288,40,55.93220338983051,40,54.91525423728814,40C53.898305084745765,40,52.88135593220339,40,51.86440677966102,40C50.847457627118644,40,49.83050847457627,40,48.813559322033896,40C47.79661016949152,40,46.77966101694915,40,45.762711864406775,40C44.7457627118644,40,43.728813559322035,40,42.71186440677966,40C41.69491525423729,40,40.67796610169491,40,39.66101694915254,40C38.644067796610166,40,37.6271186440678,40,36.610169491525426,40C35.59322033898305,40,34.57627118644068,40,33.559322033898304,40C32.54237288135593,40,31.525423728813557,40,30.508474576271183,40C29.491525423728813,40,28.47457627118644,40,27.45762711864407,40C26.440677966101696,40,25.423728813559322,40,24.406779661016948,40C23.389830508474574,40,22.372881355932204,40,21.35593220338983,40C20.338983050847457,40,19.322033898305087,40,18.305084745762713,40C17.28813559322034,40,16.271186440677965,40,15.254237288135592,40C14.23728813559322,40,13.220338983050846,40,12.203389830508474,40C11.186440677966102,40,10.169491525423728,40,9.152542372881356,40C8.135593220338983,40,7.11864406779661,40,6.101694915254237,40C5.084745762711864,40,4.067796610169491,40,3.0508474576271185,40C2.0338983050847457,40,1.0169491525423728,40,0,40Z"></path><path class="line" stroke="black" fill="none" d="M0,40C1.0169491525423728,39.21568627450981,2.0338983050847457,38.431372549019606,3.0508474576271185,37.64705882352941C4.067796610169491,36.86274509803922,5.084745762711864,35.294117647058826,6.101694915254237,35.294117647058826C7.11864406779661,35.294117647058826,8.135593220338983,35.294117647058826,9.152542372881356,35.294117647058826C10.169491525423728,35.294117647058826,11.186440677966102,27.450980392156858,12.203389830508474,25.882352941176467C13.220338983050846,24.313725490196077,14.23728813559322,24.31372549019608,15.254237288135592,23.529411764705884C16.271186440677965,22.745098039215687,17.28813559322034,21.96078431372549,18.305084745762713,21.176470588235293C19.322033898305087,20.392156862745097,20.338983050847457,18.823529411764707,21.35593220338983,18.823529411764707C22.372881355932204,18.823529411764707,23.389830508474574,18.823529411764707,24.406779661016948,18.823529411764707C25.423728813559322,18.823529411764707,26.440677966101696,18.823529411764707,27.45762711864407,18.823529411764707C28.47457627118644,18.823529411764707,29.491525423728813,18.823529411764707,30.508474576271183,18.823529411764707C31.525423728813557,18.823529411764707,32.54237288135593,18.823529411764707,33.559322033898304,18.823529411764707C34.57627118644068,18.823529411764707,35.59322033898305,18.823529411764707,36.610169491525426,18.823529411764707C37.6271186440678,18.823529411764707,38.644067796610166,18.823529411764707,39.66101694915254,18.823529411764707C40.67796610169491,18.823529411764707,41.69491525423729,18.823529411764707,42.71186440677966,18.823529411764707C43.728813559322035,18.823529411764707,44.7457627118644,18.823529411764707,45.762711864406775,18.823529411764707C46.77966101694915,18.823529411764707,47.79661016949152,18.823529411764707,48.813559322033896,18.823529411764707C49.83050847457627,18.823529411764707,50.847457627118644,18.823529411764707,51.86440677966102,18.823529411764707C52.88135593220339,18.823529411764707,53.898305084745765,21.176470588235293,54.91525423728814,21.176470588235293C55.93220338983051,21.176470588235293,56.94915254237288,18.823529411764707,57.96610169491525,18.823529411764707C58.983050847457626,18.823529411764707,59.99999999999999,21.176470588235293,61.01694915254237,21.176470588235293C62.03389830508474,21.176470588235293,63.05084745762712,21.176470588235293,64.0677966101695,21.176470588235293C65.08474576271186,21.176470588235293,66.10169491525424,21.176470588235293,67.11864406779661,21.176470588235293C68.13559322033899,21.176470588235293,69.15254237288136,18.823529411764707,70.16949152542374,18.823529411764707C71.1864406779661,18.823529411764707,72.20338983050848,18.823529411764707,73.22033898305085,18.823529411764707C74.23728813559322,18.823529411764707,75.2542372881356,16.470588235294116,76.27118644067797,16.470588235294116C77.28813559322033,16.470588235294116,78.30508474576271,16.470588235294116,79.32203389830508,16.470588235294116C80.33898305084746,16.470588235294116,81.35593220338983,18.823529411764707,82.37288135593221,18.823529411764707C83.38983050847457,18.823529411764707,84.40677966101696,18.823529411764707,85.42372881355932,18.823529411764707C86.4406779661017,18.823529411764707,87.45762711864407,18.823529411764707,88.47457627118645,18.823529411764707C89.49152542372882,18.823529411764707,90.50847457627118,18.823529411764707,91.52542372881355,18.823529411764707C92.54237288135593,18.823529411764707,93.55932203389831,18.823529411764707,94.57627118644069,18.823529411764707C95.59322033898306,18.823529411764707,96.61016949152543,18.823529411764707,97.62711864406779,18.823529411764707C98.64406779661016,18.823529411764707,99.66101694915254,21.176470588235293,100.6779661016949,21.176470588235293C101.69491525423729,21.176470588235293,102.71186440677965,16.470588235294116,103.72881355932203,16.470588235294116C104.7457627118644,16.470588235294116,105.76271186440678,16.470588235294116,106.77966101694915,16.470588235294116C107.79661016949153,16.470588235294116,108.8135593220339,16.470588235294116,109.83050847457628,16.470588235294116C110.84745762711864,16.470588235294116,111.86440677966102,18.823529411764707,112.88135593220339,18.823529411764707C113.89830508474576,18.823529411764707,114.91525423728814,17.25490196078431,115.9322033898305,16.470588235294116C116.94915254237289,15.686274509803917,117.96610169491525,14.117647058823529,118.98305084745763,14.117647058823529C120,14.117647058823529,121.01694915254237,14.117647058823529,122.03389830508473,14.117647058823529C123.05084745762711,14.117647058823529,124.0677966101695,14.117647058823529,125.08474576271188,14.117647058823529C126.10169491525424,14.117647058823529,127.11864406779662,14.117647058823529,128.135593220339,14.117647058823529C129.15254237288136,14.117647058823529,130.16949152542372,14.117647058823529,131.1864406779661,14.117647058823529C132.20338983050846,14.117647058823529,133.22033898305085,11.764705882352938,134.23728813559322,11.764705882352938C135.25423728813558,11.764705882352938,136.27118644067798,11.764705882352938,137.28813559322035,11.764705882352938C138.3050847457627,11.764705882352938,139.3220338983051,14.117647058823529,140.33898305084747,14.117647058823529C141.35593220338984,14.117647058823529,142.3728813559322,11.764705882352938,143.38983050847457,11.764705882352938C144.40677966101694,11.764705882352938,145.42372881355934,11.764705882352938,146.4406779661017,11.764705882352938C147.45762711864407,11.764705882352938,148.47457627118644,11.764705882352938,149.4915254237288,11.764705882352938C150.50847457627117,11.764705882352938,151.52542372881356,11.764705882352938,152.54237288135593,11.764705882352938C153.5593220338983,11.764705882352938,154.5762711864407,14.117647058823529,155.59322033898306,14.117647058823529C156.61016949152543,14.117647058823529,157.6271186440678,12.54901960784313,158.64406779661016,11.764705882352938C159.66101694915253,10.98039215686274,160.67796610169492,9.411764705882355,161.6949152542373,9.411764705882355C162.71186440677965,9.411764705882355,163.72881355932205,9.411764705882355,164.74576271186442,9.411764705882355C165.76271186440678,9.411764705882355,166.77966101694915,9.411764705882355,167.79661016949152,9.411764705882355C168.81355932203388,9.411764705882355,169.83050847457628,7.058823529411766,170.84745762711864,7.058823529411766C171.864406779661,7.058823529411766,172.8813559322034,7.058823529411766,173.89830508474577,7.058823529411766C174.91525423728814,7.058823529411766,175.93220338983053,4.7058823529411775,176.9491525423729,4.7058823529411775C177.96610169491527,4.7058823529411775,178.98305084745763,5.882352941176472,180,7.058823529411766"></path><path class="axis-ceiling" stroke-width="1" stroke="black" fill="none" d="M175,0L180,0"></path><text class="axis-ceiling-label" font-family="sans-serif" text-anchor="end" font-size="10px" x="170" y="2.5">5</text></g></svg>