<svg xmlns="http://www.w3.org/2000/svg" viewBox="0 0 180 60"><g transform="translate(0,20)"><path class="area" fill="rgba(0, 0, 0, 0.2)" d="M0,40C1.0169491525423728,39.27927927927928,2.0338983050847457,38.55855855855856,3.0508474576271185,38.55855855855856C4.067796610169491,38.55855855855856,5.084745762711864,38.73873873873874,6.101694915254237,38.91891891891892C7.11864406779661,39.0990990990991,8.135593220338983,39.45945945945946,9.152542372881356,39.63963963963964C10.169491525423728,39.81981981981982,11.186440677966102,40,12.203389830508474,40C13.220338983050846,40,14.23728813559322,40,15.254237288135592,40C16.271186440677965,40,17.28813559322034,39.27927927927928,18.305084745762713,39.27927927927928C19.322033898305087,39.27927927927928,20.338983050847457,39.27927927927928,21.35593220338983,39.27927927927928C22.372881355932204,39.27927927927928,23.389830508474574,39.63963963963964,24.406779661016948,39.63963963963964C25.423728813559322,39.63963963963964,26.440677966101696,39.63963963963964,27.45762711864407,39.63963963963964C28.47457627118644,39.63963963963964,29.491525423728813,39.63963963963964,30.508474576271183,39.63963963963964C31.525423728813557,39.63963963963964,32.54237288135593,38.55855855855856,33.559322033898304,38.55855855855856C34.57627118644068,38.55855855855856,35.59322033898305,38.55855855855856,36.610169491525426,38.55855855855856C37.6271186440678,38.55855855855856,38.644067796610166,38.43843843843844,39.66101694915254,38.1981981981982C40.67796610169491,37.95795795795796,41.69491525423729,37.11711711711712,42.71186440677966,37.11711711711712C43.728813559322035,37.11711711711712,44.7457627118644,37.47747747747748,45.762711864406775,37.47747747747748C46.77966101694915,37.47747747747748,47.79661016949152,37.05705705705706,48.813559322033896,36.3963963963964C49.83050847457627,35.73573573573574,50.847457627118644,33.513513513513516,51.86440677966102,33.513513513513516C52.88135593220339,33.513513513513516,53.898305084745765,33.513513513513516,54.91525423728814,33.513513513513516C55.93220338983051,33.513513513513516,56.94915254237288,32.43243243243243,57.96610169491525,32.43243243243243C58.983050847457626,32.43243243243243,59.99999999999999,32.43243243243243,61.01694915254237,32.43243243243243C62.03389830508474,32.43243243243243,63.05084745762712,31.111111111111107,64.0677966101695,30.630630630630627C65.08474576271186,30.15015015015015,66.10169491525424,29.909909909909906,67.11864406779661,29.54954954954955C68.13559322033899,29.18918918918919,69.15254237288136,29.009009009009016,70.16949152542374,28.468468468468473C71.1864406779661,27.927927927927932,72.20338983050848,27.027027027027025,73.22033898305085,26.306306306306304C74.23728813559322,25.585585585585584,75.2542372881356,24.38438438438439,76.27118644067797,24.144144144144146C77.28813559322033,23.903903903903903,78.30508474576271,23.783783783783782,79.32203389830508,23.783783783783782C80.33898305084746,23.783783783783782,81.35593220338983,23.783783783783782,82.37288135593221,23.783783783783782C83.38983050847457,23.783783783783782,84.40677966101696,23.783783783783782,85.42372881355932,23.783783783783782C86.4406779661017,23.783783783783782,87.45762711864407,23.423423423423426,88.47457627118645,23.063063063063062C89.49152542372882,22.7027027027027,90.50847457627118,22.58258258258258,91.52542372881355,21.62162162162162C92.54237288135593,20.660660660660646,93.55932203389831,16.096096096096094,94.57627118644069,15.855855855855854C95.59322033898306,15.615615615615615,96.61016949152543,15.735735735735735,97.62711864406779,15.495495495495497C98.64406779661016,15.255255255255259,99.66101694915254,14.054054054054054,100.6779661016949,13.333333333333336C101.69491525423729,12.612612612612613,102.71186440677965,11.171171171171173,103.72881355932203,11.171171171171173C104.7457627118644,11.171171171171173,105.76271186440678,11.531531531531535,106.77966101694915,11.531531531531535C107.79661016949153,11.531531531531535,108.8135593220339,8.468468468468467,109.83050847457628,7.567567567567566C110.84745762711864,6.666666666666669,111.86440677966102,6.126126126126126,112.88135593220339,6.126126126126126C113.89830508474576,6.126126126126126,114.91525423728814,12.372372372372372,115.9322033898305,12.612612612612612C116.94915254237289,12.852852852852854,117.96610169491525,12.732732732732732,118.98305084745763,12.972972972972974C120,13.213213213213212,121.01694915254237,14.174174174174174,122.03389830508473,14.414414414414413C123.05084745762711,14.654654654654655,124.0677966101695,14.774774774774775,125.08474576271188,14.774774774774775C126.10169491525424,14.774774774774775,127.11864406779662,14.774774774774775,128.135593220339,14.774774774774775C129.15254237288136,14.774774774774775,130.16949152542372,16.096096096096097,131.1864406779661,16.576576576576578C132.20338983050846,17.05705705705706,133.22033898305085,17.2972972972973,134.23728813559322,17.65765765765766C135.25423728813558,18.01801801801802,136.27118644067798,18.73873873873874,137.28813559322035,18.73873873873874C138.3050847457627,18.73873873873874,139.3220338983051,17.2972972972973,140.33898305084747,17.2972972972973C141.35593220338984,17.2972972972973,142.3728813559322,18.85885885885886,143.38983050847457,19.45945945945946C144.40677966101694,20.060060060060064,145.42372881355934,20.660660660660657,146.4406779661017,20.9009009009009C147.45762711864407,21.14114114114114,148.47457627118644,21.02102102102102,149.4915254237288,21.26126126126126C150.50847457627117,21.501501501501505,151.52542372881356,22.7027027027027,152.54237288135593,23.423423423423422C153.5593220338983,24.144144144144143,154.5762711864407,25.045045045045043,155.59322033898306,25.585585585585587C156.61016949152543,26.126126126126124,157.6271186440678,26.36636636636637,158.64406779661016,26.66666666666667C159.66101694915253,26.966966966966975,160.67796610169492,27.38738738738739,161.6949152542373,27.38738738738739C162.71186440677965,27.38738738738739,163.72881355932205,27.027027027027025,164.74576271186442,27.027027027027025C165.76271186440678,27.027027027027025,166.77966101694915,27.027027027027025,167.79661016949152,27.027027027027025C168.81355932203388,27.027027027027025,169.83050847457628,27.027027027027025,170.84745762711864,27.027027027027025C171.864406779661,27.027027027027025,172.8813559322034,29.54954954954955,173.89830508474577,29.54954954954955C174.91525423728814,29.54954954954955,175.93220338983053,27.447447447447455,176.9491525423729,26.66666666666667C177.96610169491527,25.885885885885894,178.98305084745763,25.37537537537538,180,24.864864864864863L180,40C178.98305084745763,40,177.96610169491527,40,176.9491525423729,40C175.93220338983053,40,174.91525423728814,40,173.89830508474577,40C172.8813559322034,40,171.864406779661,40,170.84745762711864,40C169.83050847457628,40,168.81355932203388,40,167.79661016949152,40C166.77966101694915,40,165.76271186440678,40,164.74576271186442,40C163.72881355932205,40,162.71186440677965,40,161.6949152542373,40C160.67796610169492,40,159.66101694915253,40,158.64406779661016,40C157.6271186440678,40,156.61016949152543,40,155.59322033898306,40C154.5762711864407,40,153.5593220338983,40,152.54237288135593,40C151.52542372881356,40,150.50847457627117,40,149.4915254237288,40C148.47457627118644,40,147.45762711864407,40,146.4406779661017,40C145.42372881355934,40,144.40677966101694,40,143.38983050847457,40C142.3728813559322,40,141.35593220338984,40,140.33898305084747,40C139.3220338983051,40,138.3050847457627,40,137.28813559322035,40C136.27118644067798,40,135.25423728813558,40,134.23728813559322,40C133.22033898305085,40,132.20338983050846,40,131.1864406779661,40C130.16949152542372,40,129.15254237288136,40,128.135593220339,40C127.11864406779662,40,126.10169491525424,40,125.08474576271188,40C124.0677966101695,40,123.05084745762711,40,122.03389830508473,40C121.01694915254237,40,120,40,118.98305084745763,40C117.96610169491525,40,116.94915254237289,40,115.9322033898305,40C114.91525423728814,40,113.89830508474576,40,112.88135593220339,40C111.86440677966102,40,110.84745762711864,40,109.83050847457628,40C108.8135593220339,40,107.79661016949153,40,106.77966101694915,40C105.76271186440678,40,104.7457627118644,40,103.72881355932203,40C102.71186440677965,40,101.69491525423729,40,100.6779661016949,40C99.66101694915254,40,98.64406779661016,40,97.62711864406779,40C96.61016949152543,40,95.59322033898306,40,94.57627118644069,40C93.55932203389831,40,92.54237288135593,40,91.52542372881355,40C90.50847457627118,40,89.49152542372882,40,88.47457627118645,40C87.45762711864407,40,86.4406779661017,40,85.42372881355932,40C84.40677966101696,40,83.38983050847457,40,82.37288135593221,40C81.35593220338983,40,80.33898305084746,40,79.32203389830508,40C78.30508474576271,40,77.28813559322033,40,76.27118644067797,40C75.2542372881356,40,74.23728813559322,40,73.22033898305085,40C72.20338983050848,40,71.1864406779661,40,70.16949152542374,40C69.15254237288136,40,68.13559322033899,40,67.11864406779661,40C66.10169491525424,40,65.08474576271186,40,64.0677966101695,40C63.05084745762712,40,62.03389830508474,40,61.01694915254237,40C59.99999999999999,40,58.983050847457626,40,57.96610169491525,40C56.94915254237288,40,55.93220338983051,40,54.91525423728814,40C53.898305084745765,40,52.88135593220339,40,51.86440677966102,40C50.847457627118644,40,49.83050847457627,40,48.813559322033896,40C47.79661016949152,40,46.77966101694915,40,45.762711864406775,40C44.7457627118644,40,43.728813559322035,40,42.71186440677966,40C41.69491525423729,40,40.67796610169491,40,39.66101694915254,40C38.644067796610166,40,37.6271186440678,40,36.610169491525426,40C35.59322033898305,40,34.57627118644068,40,33.559322033898304,40C32.54237288135593,40,31.525423728813557,40,30.508474576271183,40C29.491525423728813,40,28.47457627118644,40,27.45762711864407,40C26.440677966101696,40,25.423728813559322,40,24.406779661016948,40C23.389830508474574,40,22.372881355932204,40,21.35593220338983,40C20.338983050847457,40,19.322033898305087,40,18.305084745762713,40C17.28813559322034,40,16.271186440677965,40,15.254237288135592,40C14.23728813559322,40,13.220338983050846,40,12.203389830508474,40C11.186440677966102,40,10.169491525423728,40,9.152542372881356,40C8.135593220338983,40,7.11864406779661,40,6.101694915254237,40C5.084745762711864,40,4.067796610169491,40,3.0508474576271185,40C2.0338983050847457,40,1.0169491525423728,40,0,40Z"></path><path class="line" stroke="black" fill="none" d="M0,40C1.0169491525423728,39.27927927927928,2.0338983050847457,38.55855855855856,3.0508474576271185,38.55855855855856C4.067796610169491,38.55855855855856,5.084745762711864,38.73873873873874,6.101694915254237,38.91891891891892C7.11864406779661,39.0990990990991,8.135593220338983,39.45945945945946,9.152542372881356,39.63963963963964C10.169491525423728,39.81981981981982,11.186440677966102,40,12.203389830508474,40C13.220338983050846,40,14.23728813559322,40,15.254237288135592,40C16.271186440677965,40,17.28813559322034,39.27927927927928,18.305084745762713,39.27927927927928C19.322033898305087,39.27927927927928,20.338983050847457,39.27927927927928,21.35593220338983,39.27927927927928C22.372881355932204,39.27927927927928,23.389830508474574,39.63963963963964,24.406779661016948,39.63963963963964C25.423728813559322,39.63963963963964,26.440677966101696,39.63963963963964,27.45762711864407,39.63963963963964C28.47457627118644,39.63963963963964,29.491525423728813,39.63963963963964,30.508474576271183,39.63963963963964C31.525423728813557,39.63963963963964,32.54237288135593,38.55855855855856,33.559322033898304,38.55855855855856C34.57627118644068,38.55855855855856,35.59322033898305,38.55855855855856,36.610169491525426,38.55855855855856C37.6271186440678,38.55855855855856,38.644067796610166,38.43843843843844,39.66101694915254,38.1981981981982C40.67796610169491,37.95795795795796,41.69491525423729,37.11711711711712,42.71186440677966,37.11711711711712C43.728813559322035,37.11711711711712,44.7457627118644,37.47747747747748,45.762711864406775,37.47747747747748C46.77966101694915,37.47747747747748,47.79661016949152,37.05705705705706,48.813559322033896,36.3963963963964C49.83050847457627,35.73573573573574,50.847457627118644,33.513513513513516,51.86440677966102,33.513513513513516C52.88135593220339,33.513513513513516,53.898305084745765,33.513513513513516,54.91525423728814,33.513513513513516C55.93220338983051,33.513513513513516,56.94915254237288,32.43243243243243,57.96610169491525,32.43243243243243C58.983050847457626,32.43243243243243,59.99999999999999,32.43243243243243,61.01694915254237,32.43243243243243C62.03389830508474,32.43243243243243,63.05084745762712,31.111111111111107,64.0677966101695,30.630630630630627C65.08474576271186,30.15015015015015,66.10169491525424,29.909909909909906,67.11864406779661,29.54954954954955C68.13559322033899,29.18918918918919,69.15254237288136,29.009009009009016,70.16949152542374,28.468468468468473C71.1864406779661,27.927927927927932,72.20338983050848,27.027027027027025,73.22033898305085,26.306306306306304C74.23728813559322,25.585585585585584,75.2542372881356,24.38438438438439,76.27118644067797,24.144144144144146C77.28813559322033,23.903903903903903,78.30508474576271,23.783783783783782,79.32203389830508,23.783783783783782C80.33898305084746,23.783783783783782,81.35593220338983,23.783783783783782,82.37288135593221,23.783783783783782C83.38983050847457,23.783783783783782,84.40677966101696,23.783783783783782,85.42372881355932,23.783783783783782C86.4406779661017,23.783783783783782,87.45762711864407,23.423423423423426,88.47457627118645,23.063063063063062C89.49152542372882,22.7027027027027,90.50847457627118,22.58258258258258,91.52542372881355,21.62162162162162C92.54237288135593,20.660660660660646,93.55932203389831,16.096096096096094,94.57627118644069,15.855855855855854C95.59322033898306,15.615615615615615,96.61016949152543,15.735735735735735,97.62711864406779,15.495495495495497C98.64406779661016,15.255255255255259,99.66101694915254,14.054054054054054,100.6779661016949,13.333333333333336C101.69491525423729,12.612612612612613,102.71186440677965,11.171171171171173,103.72881355932203,11.171171171171173C104.7457627118644,11.171171171171173,105.76271186440678,11.531531531531535,106.77966101694915,11.531531531531535C107.79661016949153,11.531531531531535,108.8135593220339,8.468468468468467,109.83050847457628,7.567567567567566C110.84745762711864,6.666666666666669,111.86440677966102,6.126126126126126,112.88135593220339,6.126126126126126C113.89830508474576,6.126126126126126,114.91525423728814,12.372372372372372,115.9322033898305,12.612612612612612C116.94915254237289,12.852852852852854,117.96610169491525,12.732732732732732,118.98305084745763,12.972972972972974C120,13.213213213213212,121.01694915254237,14.174174174174174,122.03389830508473,14.414414414414413C123.05084745762711,14.654654654654655,124.0677966101695,14.774774774774775,125.08474576271188,14.774774774774775C126.10169491525424,14.774774774774775,127.11864406779662,14.774774774774775,128.135593220339,14.774774774774775C129.15254237288136,14.774774774774775,130.16949152542372,16.096096096096097,131.1864406779661,16.576576576576578C132.20338983050846,17.05705705705706,133.22033898305085,17.2972972972973,134.23728813559322,17.65765765765766C135.25423728813558,18.01801801801802,136.27118644067798,18.73873873873874,137.28813559322035,18.73873873873874C138.3050847457627,18.73873873873874,139.3220338983051,17.2972972972973,140.33898305084747,17.2972972972973C141.35593220338984,17.2972972972973,142.3728813559322,18.85885885885886,143.38983050847457,19.45945945945946C144.40677966101694,20.060060060060064,145.42372881355934,20.660660660660657,146.4406779661017,20.9009009009009C147.45762711864407,21.14114114114114,148.47457627118644,21.02102102102102,149.4915254237288,21.26126126126126C150.50847457627117,21.501501501501505,151.52542372881356,22.7027027027027,152.54237288135593,23.423423423423422C153.5593220338983,24.144144144144143,154.5762711864407,25.045045045045043,155.59322033898306,25.585585585585587C156.61016949152543,26.126126126126124,157.6271186440678,26.36636636636637,158.64406779661016,26.66666666666667C159.66101694915253,26.966966966966975,160.67796610169492,27.38738738738739,161.6949152542373,27.38738738738739C162.71186440677965,27.38738738738739,163.72881355932205,27.027027027027025,164.74576271186442,27.027027027027025C165.76271186440678,27.027027027027025,166.77966101694915,27.027027027027025,167.79661016949152,27.027027027027025C168.81355932203388,27.027027027027025,169.83050847457628,27.027027027027025,170.84745762711864,27.027027027027025C171.864406779661,27.027027027027025,172.8813559322034,29.54954954954955,173.89830508474577,29.54954954954955C174.91525423728814,29.54954954954955,175.93220338983053,27.447447447447455,176.9491525423729,26.66666666666667C177.96610169491527,25.885885885885894,178.98305084745763,25.37537537537538,180,24.864864864864863"></path><path class="axis-ceiling" stroke-width="1" stroke="black" fill="none" d="M175,0L180,0"></path><text class="axis-ceiling-label" font-family="sans-serif" text-anchor="end" font-size="10px" x="170" y="2.5">100</text></g></svg>