<svg xmlns="http://www.w3.org/2000/svg" viewBox="0 0 180 60"><g transform="translate(0,20)"><path class="area" fill="rgba(0, 0, 0, 0.2)" d="M0,38.74015748031496C1.0169491525423728,38.26771653543307,2.0338983050847457,37.79527559055118,3.0508474576271185,37.79527559055118C4.067796610169491,37.79527559055118,5.084745762711864,40,6.101694915254237,40C7.11864406779661,40,8.135593220338983,39.37007874015748,9.152542372881356,39.05511811023622C10.169491525423728,38.74015748031496,11.186440677966102,38.11023622047244,12.203389830508474,38.11023622047244C13.220338983050846,38.11023622047244,14.23728813559322,38.74015748031496,15.254237288135592,38.74015748031496C16.271186440677965,38.74015748031496,17.28813559322034,38.37270341207349,18.305084745762713,38.11023622047244C19.322033898305087,37.84776902887139,20.338983050847457,37.427821522309706,21.35593220338983,37.16535433070866C22.372881355932204,36.90288713910761,23.389830508474574,36.8503937007874,24.406779661016948,36.53543307086614C25.423728813559322,36.22047244094488,26.440677966101696,35.485564304461946,27.45762711864407,35.275590551181104C28.47457627118644,35.06561679790026,29.491525423728813,34.960629921259844,30.508474576271183,34.960629921259844C31.525423728813557,34.960629921259844,32.54237288135593,34.960629921259844,33.559322033898304,34.960629921259844C34.57627118644068,34.960629921259844,35.59322033898305,34.960629921259844,36.610169491525426,34.960629921259844C37.6271186440678,34.960629921259844,38.644067796610166,34.960629921259844,39.66101694915254,34.960629921259844C40.67796610169491,34.960629921259844,41.69491525423729,33.70078740157481,42.71186440677966,33.70078740157481C43.728813559322035,33.70078740157481,44.7457627118644,33.85826771653544,45.762711864406775,34.01574803149607C46.77966101694915,34.173228346456696,47.79661016949152,34.488188976377955,48.813559322033896,34.645669291338585C49.83050847457627,34.803149606299215,50.847457627118644,34.960629921259844,51.86440677966102,34.960629921259844C52.88135593220339,34.960629921259844,53.898305084745765,34.960629921259844,54.91525423728814,34.960629921259844C55.93220338983051,34.960629921259844,56.94915254237288,34.330708661417326,57.96610169491525,34.330708661417326C58.983050847457626,34.330708661417326,59.99999999999999,34.330708661417326,61.01694915254237,34.330708661417326C62.03389830508474,34.330708661417326,63.05084745762712,34.645669291338585,64.0677966101695,34.645669291338585C65.08474576271186,34.645669291338585,66.10169491525424,34.645669291338585,67.11864406779661,34.645669291338585C68.13559322033899,34.645669291338585,69.15254237288136,34.645669291338585,70.16949152542374,34.645669291338585C71.1864406779661,34.645669291338585,72.20338983050848,33.70078740157481,73.22033898305085,33.70078740157481C74.23728813559322,33.70078740157481,75.2542372881356,33.70078740157481,76.27118644067797,33.70078740157481C77.28813559322033,33.70078740157481,78.30508474576271,33.59580052493438,79.32203389830508,33.38582677165354C80.33898305084746,33.1758530183727,81.35593220338983,32.44094488188976,82.37288135593221,32.44094488188976C83.38983050847457,32.44094488188976,84.40677966101696,32.75590551181102,85.42372881355932,32.75590551181102C86.4406779661017,32.75590551181102,87.45762711864407,32.38845144356956,88.47457627118645,31.811023622047244C89.49152542372882,31.233595800524935,90.50847457627118,29.291338582677167,91.52542372881355,29.291338582677167C92.54237288135593,29.291338582677167,93.55932203389831,29.291338582677167,94.57627118644069,29.291338582677167C95.59322033898306,29.291338582677167,96.61016949152543,28.34645669291339,97.62711864406779,28.34645669291339C98.64406779661016,28.34645669291339,99.66101694915254,28.34645669291339,100.6779661016949,28.34645669291339C101.69491525423729,28.34645669291339,102.71186440677965,27.191601049868762,103.72881355932203,26.77165354330708C104.7457627118644,26.3517060367454,105.76271186440678,26.141732283464563,106.77966101694915,25.826771653543304C107.79661016949153,25.511811023622045,108.8135593220339,25.35433070866142,109.83050847457628,24.881889763779526C110.84745762711864,24.409448818897637,111.86440677966102,23.622047244094485,112.88135593220339,22.992125984251967C113.89830508474576,22.362204724409448,114.91525423728814,21.312335958005246,115.9322033898305,21.102362204724407C116.94915254237289,20.89238845144357,117.96610169491525,20.787401574803148,118.98305084745763,20.787401574803148C120,20.787401574803148,121.01694915254237,20.787401574803148,122.03389830508473,20.787401574803148C123.05084745762711,20.787401574803148,124.0677966101695,20.787401574803148,125.08474576271188,20.787401574803148C126.10169491525424,20.787401574803148,127.11864406779662,20.47244094488189,128.135593220339,20.15748031496063C129.15254237288136,19.84251968503937,130.16949152542372,19.73753280839895,131.1864406779661,18.897637795275593C132.20338983050846,18.057742782152225,133.22033898305085,14.068241469816279,134.23728813559322,13.858267716535435C135.25423728813558,13.648293963254591,136.27118644067798,13.753280839895014,137.28813559322035,13.54330708661417C138.3050847457627,13.333333333333327,139.3220338983051,12.283464566929137,140.33898305084747,11.653543307086615C141.35593220338984,11.023622047244098,142.3728813559322,9.763779527559056,143.38983050847457,9.763779527559056C144.40677966101694,9.763779527559056,145.42372881355934,10.078740157480315,146.4406779661017,10.078740157480315C147.45762711864407,10.078740157480315,148.47457627118644,7.401574803149607,149.4915254237288,6.614173228346458C150.50847457627117,5.826771653543301,151.52542372881356,5.354330708661417,152.54237288135593,5.354330708661417C153.5593220338983,5.354330708661417,154.5762711864407,10.813648293963249,155.59322033898306,11.023622047244093C156.61016949152543,11.233595800524935,157.6271186440678,11.128608923884514,158.64406779661016,11.338582677165356C159.66101694915253,11.5485564304462,160.67796610169492,12.388451443569553,161.6949152542373,12.598425196850393C162.71186440677965,12.808398950131233,163.72881355932205,12.913385826771652,164.74576271186442,12.913385826771652C165.76271186440678,12.913385826771652,166.77966101694915,12.913385826771652,167.79661016949152,12.913385826771652C168.81355932203388,12.913385826771652,169.83050847457628,14.068241469816273,170.84745762711864,14.488188976377954C171.864406779661,14.908136482939634,172.8813559322034,15.11811023622047,173.89830508474577,15.433070866141732C174.91525423728814,15.748031496062993,175.93220338983053,15.90551181102362,176.9491525423729,16.377952755905515C177.96610169491527,16.850393700787404,178.98305084745763,17.559055118110237,180,18.26771653543307L180,40C178.98305084745763,40,177.96610169491527,40,176.9491525423729,40C175.93220338983053,40,174.91525423728814,40,173.89830508474577,40C172.8813559322034,40,171.864406779661,40,170.84745762711864,40C169.83050847457628,40,168.81355932203388,40,167.79661016949152,40C166.77966101694915,40,165.76271186440678,40,164.74576271186442,40C163.72881355932205,40,162.71186440677965,40,161.6949152542373,40C160.67796610169492,40,159.66101694915253,40,158.64406779661016,40C157.6271186440678,40,156.61016949152543,40,155.59322033898306,40C154.5762711864407,40,153.5593220338983,40,152.54237288135593,40C151.52542372881356,40,150.50847457627117,40,149.4915254237288,40C148.47457627118644,40,147.45762711864407,40,146.4406779661017,40C145.42372881355934,40,144.40677966101694,40,143.38983050847457,40C142.3728813559322,40,141.35593220338984,40,140.33898305084747,40C139.3220338983051,40,138.3050847457627,40,137.28813559322035,40C136.27118644067798,40,135.25423728813558,40,134.23728813559322,40C133.22033898305085,40,132.20338983050846,40,131.1864406779661,40C130.16949152542372,40,129.15254237288136,40,128.135593220339,40C127.11864406779662,40,126.10169491525424,40,125.08474576271188,40C124.0677966101695,40,123.05084745762711,40,122.03389830508473,40C121.01694915254237,40,120,40,118.98305084745763,40C117.96610169491525,40,116.94915254237289,40,115.9322033898305,40C114.91525423728814,40,113.89830508474576,40,112.88135593220339,40C111.86440677966102,40,110.84745762711864,40,109.83050847457628,40C108.8135593220339,40,107.79661016949153,40,106.77966101694915,40C105.76271186440678,40,104.7457627118644,40,103.72881355932203,40C102.71186440677965,40,101.69491525423729,40,100.6779661016949,40C99.66101694915254,40,98.64406779661016,40,97.62711864406779,40C96.61016949152543,40,95.59322033898306,40,94.57627118644069,40C93.55932203389831,40,92.54237288135593,40,91.52542372881355,40C90.50847457627118,40,89.49152542372882,40,88.47457627118645,40C87.45762711864407,40,86.4406779661017,40,85.42372881355932,40C84.40677966101696,40,83.38983050847457,40,82.37288135593221,40C81.35593220338983,40,80.33898305084746,40,79.32203389830508,40C78.30508474576271,40,77.28813559322033,40,76.27118644067797,40C75.2542372881356,40,74.23728813559322,40,73.22033898305085,40C72.20338983050848,40,71.1864406779661,40,70.16949152542374,40C69.15254237288136,40,68.13559322033899,40,67.11864406779661,40C66.10169491525424,40,65.08474576271186,40,64.0677966101695,40C63.05084745762712,40,62.03389830508474,40,61.01694915254237,40C59.99999999999999,40,58.983050847457626,40,57.96610169491525,40C56.94915254237288,40,55.93220338983051,40,54.91525423728814,40C53.898305084745765,40,52.88135593220339,40,51.86440677966102,40C50.847457627118644,40,49.83050847457627,40,48.813559322033896,40C47.79661016949152,40,46.77966101694915,40,45.762711864406775,40C44.7457627118644,40,43.728813559322035,40,42.71186440677966,40C41.69491525423729,40,40.67796610169491,40,39.66101694915254,40C38.644067796610166,40,37.6271186440678,40,36.610169491525426,40C35.59322033898305,40,34.57627118644068,40,33.559322033898304,40C32.54237288135593,40,31.525423728813557,40,30.508474576271183,40C29.491525423728813,40,28.47457627118644,40,27.45762711864407,40C26.440677966101696,40,25.423728813559322,40,24.406779661016948,40C23.389830508474574,40,22.372881355932204,40,21.35593220338983,40C20.338983050847457,40,19.322033898305087,40,18.305084745762713,40C17.28813559322034,40,16.271186440677965,40,15.254237288135592,40C14.23728813559322,40,13.220338983050846,40,12.203389830508474,40C11.186440677966102,40,10.169491525423728,40,9.152542372881356,40C8.135593220338983,40,7.11864406779661,40,6.101694915254237,40C5.084745762711864,40,4.067796610169491,40,3.0508474576271185,40C2.0338983050847457,40,1.0169491525423728,40,0,40Z"></path><path class="line" stroke="black" fill="none" d="M0,38.74015748031496C1.0169491525423728,38.26771653543307,2.0338983050847457,37.79527559055118,3.0508474576271185,37.79527559055118C4.067796610169491,37.79527559055118,5.084745762711864,40,6.101694915254237,40C7.11864406779661,40,8.135593220338983,39.37007874015748,9.152542372881356,39.05511811023622C10.169491525423728,38.74015748031496,11.186440677966102,38.11023622047244,12.203389830508474,38.11023622047244C13.220338983050846,38.11023622047244,14.23728813559322,38.74015748031496,15.254237288135592,38.74015748031496C16.271186440677965,38.74015748031496,17.28813559322034,38.37270341207349,18.305084745762713,38.11023622047244C19.322033898305087,37.84776902887139,20.338983050847457,37.427821522309706,21.35593220338983,37.16535433070866C22.372881355932204,36.90288713910761,23.389830508474574,36.8503937007874,24.406779661016948,36.53543307086614C25.423728813559322,36.22047244094488,26.440677966101696,35.485564304461946,27.45762711864407,35.275590551181104C28.47457627118644,35.06561679790026,29.491525423728813,34.960629921259844,30.508474576271183,34.960629921259844C31.525423728813557,34.960629921259844,32.54237288135593,34.960629921259844,33.559322033898304,34.960629921259844C34.57627118644068,34.960629921259844,35.59322033898305,34.960629921259844,36.610169491525426,34.960629921259844C37.6271186440678,34.960629921259844,38.644067796610166,34.960629921259844,39.66101694915254,34.960629921259844C40.67796610169491,34.960629921259844,41.69491525423729,33.70078740157481,42.71186440677966,33.70078740157481C43.728813559322035,33.70078740157481,44.7457627118644,33.85826771653544,45.762711864406775,34.01574803149607C46.77966101694915,34.173228346456696,47.79661016949152,34.488188976377955,48.813559322033896,34.645669291338585C49.83050847457627,34.803149606299215,50.847457627118644,34.960629921259844,51.86440677966102,34.960629921259844C52.88135593220339,34.960629921259844,53.898305084745765,34.960629921259844,54.91525423728814,34.960629921259844C55.93220338983051,34.960629921259844,56.94915254237288,34.330708661417326,57.96610169491525,34.330708661417326C58.983050847457626,34.330708661417326,59.99999999999999,34.330708661417326,61.01694915254237,34.330708661417326C62.03389830508474,34.330708661417326,63.05084745762712,34.645669291338585,64.0677966101695,34.645669291338585C65.08474576271186,34.645669291338585,66.10169491525424,34.645669291338585,67.11864406779661,34.645669291338585C68.13559322033899,34.645669291338585,69.15254237288136,34.645669291338585,70.16949152542374,34.645669291338585C71.1864406779661,34.645669291338585,72.20338983050848,33.70078740157481,73.22033898305085,33.70078740157481C74.23728813559322,33.70078740157481,75.2542372881356,33.70078740157481,76.27118644067797,33.70078740157481C77.28813559322033,33.70078740157481,78.30508474576271,33.59580052493438,79.32203389830508,33.38582677165354C80.33898305084746,33.1758530183727,81.35593220338983,32.44094488188976,82.37288135593221,32.44094488188976C83.38983050847457,32.44094488188976,84.40677966101696,32.75590551181102,85.42372881355932,32.75590551181102C86.4406779661017,32.75590551181102,87.45762711864407,32.38845144356956,88.47457627118645,31.811023622047244C89.49152542372882,31.233595800524935,90.50847457627118,29.291338582677167,91.52542372881355,29.291338582677167C92.54237288135593,29.291338582677167,93.55932203389831,29.291338582677167,94.57627118644069,29.291338582677167C95.59322033898306,29.291338582677167,96.61016949152543,28.34645669291339,97.62711864406779,28.34645669291339C98.64406779661016,28.34645669291339,99.66101694915254,28.34645669291339,100.6779661016949,28.34645669291339C101.69491525423729,28.34645669291339,102.71186440677965,27.191601049868762,103.72881355932203,26.77165354330708C104.7457627118644,26.3517060367454,105.76271186440678,26.141732283464563,106.77966101694915,25.826771653543304C107.79661016949153,25.511811023622045,108.8135593220339,25.35433070866142,109.83050847457628,24.881889763779526C110.84745762711864,24.409448818897637,111.86440677966102,23.622047244094485,112.88135593220339,22.992125984251967C113.89830508474576,22.362204724409448,114.91525423728814,21.312335958005246,115.9322033898305,21.102362204724407C116.94915254237289,20.89238845144357,117.96610169491525,20.787401574803148,118.98305084745763,20.787401574803148C120,20.787401574803148,121.01694915254237,20.787401574803148,122.03389830508473,20.787401574803148C123.05084745762711,20.787401574803148,124.0677966101695,20.787401574803148,125.08474576271188,20.787401574803148C126.10169491525424,20.787401574803148,127.11864406779662,20.47244094488189,128.135593220339,20.15748031496063C129.15254237288136,19.84251968503937,130.16949152542372,19.73753280839895,131.1864406779661,18.897637795275593C132.20338983050846,18.057742782152225,133.22033898305085,14.068241469816279,134.23728813559322,13.858267716535435C135.25423728813558,13.648293963254591,136.27118644067798,13.753280839895014,137.28813559322035,13.54330708661417C138.3050847457627,13.333333333333327,139.3220338983051,12.283464566929137,140.33898305084747,11.653543307086615C141.35593220338984,11.023622047244098,142.3728813559322,9.763779527559056,143.38983050847457,9.763779527559056C144.40677966101694,9.763779527559056,145.42372881355934,10.078740157480315,146.4406779661017,10.078740157480315C147.45762711864407,10.078740157480315,148.47457627118644,7.401574803149607,149.4915254237288,6.614173228346458C150.50847457627117,5.826771653543301,151.52542372881356,5.354330708661417,152.54237288135593,5.354330708661417C153.5593220338983,5.354330708661417,154.5762711864407,10.813648293963249,155.59322033898306,11.023622047244093C156.61016949152543,11.233595800524935,157.6271186440678,11.128608923884514,158.64406779661016,11.338582677165356C159.66101694915253,11.5485564304462,160.67796610169492,12.388451443569553,161.6949152542373,12.598425196850393C162.71186440677965,12.808398950131233,163.72881355932205,12.913385826771652,164.74576271186442,12.913385826771652C165.76271186440678,12.913385826771652,166.77966101694915,12.913385826771652,167.79661016949152,12.913385826771652C168.81355932203388,12.913385826771652,169.83050847457628,14.068241469816273,170.84745762711864,14.488188976377954C171.864406779661,14.908136482939634,172.8813559322034,15.11811023622047,173.89830508474577,15.433070866141732C174.91525423728814,15.748031496062993,175.93220338983053,15.90551181102362,176.9491525423729,16.377952755905515C177.96610169491527,16.850393700787404,178.98305084745763,17.559055118110237,180,18.26771653543307"></path><path class="axis-ceiling" stroke-width="1" stroke="black" fill="none" d="M175,0L180,0"></path><text class="axis-ceiling-label" font-family="sans-serif" text-anchor="end" font-size="10px" x="170" y="2.5">100</text></g></svg>