<svg xmlns="http://www.w3.org/2000/svg" viewBox="0 0 180 60"><g transform="translate(0,20)"><path class="area" fill="rgba(0, 0, 0, 0.2)" d="M0,25.36082474226804C1.0169491525423728,25.56701030927835,2.0338983050847457,25.77319587628866,3.0508474576271185,25.97938144329897C4.067796610169491,26.185567010309278,5.084745762711864,26.597938144329902,6.101694915254237,26.597938144329902C7.11864406779661,26.597938144329902,8.135593220338983,26.18556701030928,9.152542372881356,25.97938144329897C10.169491525423728,25.77319587628866,11.186440677966102,25.36082474226804,12.203389830508474,25.36082474226804C13.220338983050846,25.36082474226804,14.23728813559322,25.97938144329897,15.254237288135592,25.97938144329897C16.271186440677965,25.97938144329897,17.28813559322034,25.97938144329897,18.305084745762713,25.97938144329897C19.322033898305087,25.97938144329897,20.338983050847457,24.329896907216497,21.35593220338983,24.329896907216497C22.372881355932204,24.329896907216497,23.389830508474574,24.536082474226806,24.406779661016948,24.536082474226806C25.423728813559322,24.536082474226806,26.440677966101696,24.12371134020619,27.45762711864407,24.12371134020619C28.47457627118644,24.12371134020619,29.491525423728813,24.12371134020619,30.508474576271183,24.12371134020619C31.525423728813557,24.12371134020619,32.54237288135593,24.364261168384882,33.559322033898304,24.536082474226806C34.57627118644068,24.70790378006873,35.59322033898305,25.15463917525773,36.610169491525426,25.15463917525773C37.6271186440678,25.15463917525773,38.644067796610166,25.15463917525773,39.66101694915254,25.15463917525773C40.67796610169491,25.15463917525773,41.69491525423729,25.29209621993127,42.71186440677966,25.56701030927835C43.728813559322035,25.841924398625427,44.7457627118644,40,45.762711864406775,40C46.77966101694915,40,47.79661016949152,25.15463917525773,48.813559322033896,25.15463917525773C49.83050847457627,25.15463917525773,50.847457627118644,25.15463917525773,51.86440677966102,25.15463917525773C52.88135593220339,25.15463917525773,53.898305084745765,24.604810996563575,54.91525423728814,24.329896907216497C55.93220338983051,24.05498281786942,56.94915254237288,23.642611683848802,57.96610169491525,23.50515463917526C58.983050847457626,23.367697594501717,59.99999999999999,23.298969072164944,61.01694915254237,23.298969072164944C62.03389830508474,23.298969072164944,63.05084745762712,23.298969072164944,64.0677966101695,23.298969072164944C65.08474576271186,23.298969072164944,66.10169491525424,8.247422680412374,67.11864406779661,8.247422680412374C68.13559322033899,8.247422680412374,69.15254237288136,22.749140893470788,70.16949152542374,22.886597938144327C71.1864406779661,23.024054982817866,72.20338983050848,23.092783505154635,73.22033898305085,23.092783505154635C74.23728813559322,23.092783505154635,75.2542372881356,23.092783505154635,76.27118644067797,23.092783505154635C77.28813559322033,23.092783505154635,78.30508474576271,22.955326460481096,79.32203389830508,22.886597938144327C80.33898305084746,22.817869415807557,81.35593220338983,22.680412371134018,82.37288135593221,22.680412371134018C83.38983050847457,22.680412371134018,84.40677966101696,22.680412371134018,85.42372881355932,22.680412371134018C86.4406779661017,22.680412371134018,87.45762711864407,22.54295532646048,88.47457627118645,22.47422680412371C89.49152542372882,22.40549828178694,90.50847457627118,22.405498281786937,91.52542372881355,22.2680412371134C92.54237288135593,22.130584192439862,93.55932203389831,21.649484536082475,94.57627118644069,21.649484536082475C95.59322033898306,21.649484536082475,96.61016949152543,22.061855670103093,97.62711864406779,22.061855670103093C98.64406779661016,22.061855670103093,99.66101694915254,22.061855670103093,100.6779661016949,22.061855670103093C101.69491525423729,22.061855670103093,102.71186440677965,21.649484536082475,103.72881355932203,21.649484536082475C104.7457627118644,21.649484536082475,105.76271186440678,21.786941580756015,106.77966101694915,21.855670103092784C107.79661016949153,21.924398625429554,108.8135593220339,21.993127147766323,109.83050847457628,22.061855670103093C110.84745762711864,22.130584192439862,111.86440677966102,22.2680412371134,112.88135593220339,22.2680412371134C113.89830508474576,22.2680412371134,114.91525423728814,22.164948453608247,115.9322033898305,22.061855670103093C116.94915254237289,21.95876288659794,117.96610169491525,21.649484536082475,118.98305084745763,21.649484536082475C120,21.649484536082475,121.01694915254237,21.649484536082475,122.03389830508473,21.649484536082475C123.05084745762711,21.649484536082475,124.0677966101695,21.580756013745706,125.08474576271188,21.443298969072163C126.10169491525424,21.305841924398624,127.11864406779662,20.824742268041234,128.135593220339,20.824742268041234C129.15254237288136,20.824742268041234,130.16949152542372,20.824742268041234,131.1864406779661,20.824742268041234C132.20338983050846,20.824742268041234,133.22033898305085,20.824742268041234,134.23728813559322,20.824742268041234C135.25423728813558,20.824742268041234,136.27118644067798,21.237113402061855,137.28813559322035,21.237113402061855C138.3050847457627,21.237113402061855,139.3220338983051,21.1340206185567,140.33898305084747,21.030927835051546C141.35593220338984,20.927835051546392,142.3728813559322,20.618556701030926,143.38983050847457,20.618556701030926C144.40677966101694,20.618556701030926,145.42372881355934,20.824742268041234,146.4406779661017,20.824742268041234C147.45762711864407,20.824742268041234,148.47457627118644,20.824742268041234,149.4915254237288,20.824742268041234C150.50847457627117,20.824742268041234,151.52542372881356,20.20618556701031,152.54237288135593,20.20618556701031C153.5593220338983,20.20618556701031,154.5762711864407,20.20618556701031,155.59322033898306,20.20618556701031C156.61016949152543,20.20618556701031,157.6271186440678,19.587628865979383,158.64406779661016,19.381443298969074C159.66101694915253,19.175257731958762,160.67796610169492,18.969072164948454,161.6949152542373,18.969072164948454C162.71186440677965,18.969072164948454,163.72881355932205,19.175257731958762,164.74576271186442,19.175257731958762C165.76271186440678,19.175257731958762,166.77966101694915,18.694158075601376,167.79661016949152,18.556701030927837C168.81355932203388,18.419243986254298,169.83050847457628,18.419243986254298,170.84745762711864,18.350515463917528C171.864406779661,18.28178694158076,172.8813559322034,18.247422680412374,173.89830508474577,18.14432989690722C174.91525423728814,18.041237113402065,175.93220338983053,17.7319587628866,176.9491525423729,17.7319587628866C177.96610169491527,17.7319587628866,178.98305084745763,18.04123711340206,180,18.350515463917528L180,40C178.98305084745763,40,177.96610169491527,40,176.9491525423729,40C175.93220338983053,40,174.91525423728814,40,173.89830508474577,40C172.8813559322034,40,171.864406779661,40,170.84745762711864,40C169.83050847457628,40,168.81355932203388,40,167.79661016949152,40C166.77966101694915,40,165.76271186440678,40,164.74576271186442,40C163.72881355932205,40,162.71186440677965,40,161.6949152542373,40C160.67796610169492,40,159.66101694915253,40,158.64406779661016,40C157.6271186440678,40,156.61016949152543,40,155.59322033898306,40C154.5762711864407,40,153.5593220338983,40,152.54237288135593,40C151.52542372881356,40,150.50847457627117,40,149.4915254237288,40C148.47457627118644,40,147.45762711864407,40,146.4406779661017,40C145.42372881355934,40,144.40677966101694,40,143.38983050847457,40C142.3728813559322,40,141.35593220338984,40,140.33898305084747,40C139.3220338983051,40,138.3050847457627,40,137.28813559322035,40C136.27118644067798,40,135.25423728813558,40,134.23728813559322,40C133.22033898305085,40,132.20338983050846,40,131.1864406779661,40C130.16949152542372,40,129.15254237288136,40,128.135593220339,40C127.11864406779662,40,126.10169491525424,40,125.08474576271188,40C124.0677966101695,40,123.05084745762711,40,122.03389830508473,40C121.01694915254237,40,120,40,118.98305084745763,40C117.96610169491525,40,116.94915254237289,40,115.9322033898305,40C114.91525423728814,40,113.89830508474576,40,112.88135593220339,40C111.86440677966102,40,110.84745762711864,40,109.83050847457628,40C108.8135593220339,40,107.79661016949153,40,106.77966101694915,40C105.76271186440678,40,104.7457627118644,40,103.72881355932203,40C102.71186440677965,40,101.69491525423729,40,100.6779661016949,40C99.66101694915254,40,98.64406779661016,40,97.62711864406779,40C96.61016949152543,40,95.59322033898306,40,94.57627118644069,40C93.55932203389831,40,92.54237288135593,40,91.52542372881355,40C90.50847457627118,40,89.49152542372882,40,88.47457627118645,40C87.45762711864407,40,86.4406779661017,40,85.42372881355932,40C84.40677966101696,40,83.38983050847457,40,82.37288135593221,40C81.35593220338983,40,80.33898305084746,40,79.32203389830508,40C78.30508474576271,40,77.28813559322033,40,76.27118644067797,40C75.2542372881356,40,74.23728813559322,40,73.22033898305085,40C72.20338983050848,40,71.1864406779661,40,70.16949152542374,40C69.15254237288136,40,68.13559322033899,40,67.11864406779661,40C66.10169491525424,40,65.08474576271186,40,64.0677966101695,40C63.05084745762712,40,62.03389830508474,40,61.01694915254237,40C59.99999999999999,40,58.983050847457626,40,57.96610169491525,40C56.94915254237288,40,55.93220338983051,40,54.91525423728814,40C53.898305084745765,40,52.88135593220339,40,51.86440677966102,40C50.847457627118644,40,49.83050847457627,40,48.813559322033896,40C47.79661016949152,40,46.77966101694915,40,45.762711864406775,40C44.7457627118644,40,43.728813559322035,40,42.71186440677966,40C41.69491525423729,40,40.67796610169491,40,39.66101694915254,40C38.644067796610166,40,37.6271186440678,40,36.610169491525426,40C35.59322033898305,40,34.57627118644068,40,33.559322033898304,40C32.54237288135593,40,31.525423728813557,40,30.508474576271183,40C29.491525423728813,40,28.47457627118644,40,27.45762711864407,40C26.440677966101696,40,25.423728813559322,40,24.406779661016948,40C23.389830508474574,40,22.372881355932204,40,21.35593220338983,40C20.338983050847457,40,19.322033898305087,40,18.305084745762713,40C17.28813559322034,40,16.271186440677965,40,15.254237288135592,40C14.23728813559322,40,13.220338983050846,40,12.203389830508474,40C11.186440677966102,40,10.169491525423728,40,9.152542372881356,40C8.135593220338983,40,7.11864406779661,40,6.101694915254237,40C5.084745762711864,40,4.067796610169491,40,3.0508474576271185,40C2.0338983050847457,40,1.0169491525423728,40,0,40Z"></path><path class="line" stroke="black" fill="none" d="M0,25.36082474226804C1.0169491525423728,25.56701030927835,2.0338983050847457,25.77319587628866,3.0508474576271185,25.97938144329897C4.067796610169491,26.185567010309278,5.084745762711864,26.597938144329902,6.101694915254237,26.597938144329902C7.11864406779661,26.597938144329902,8.135593220338983,26.18556701030928,9.152542372881356,25.97938144329897C10.169491525423728,25.77319587628866,11.186440677966102,25.36082474226804,12.203389830508474,25.36082474226804C13.220338983050846,25.36082474226804,14.23728813559322,25.97938144329897,15.254237288135592,25.97938144329897C16.271186440677965,25.97938144329897,17.28813559322034,25.97938144329897,18.305084745762713,25.97938144329897C19.322033898305087,25.97938144329897,20.338983050847457,24.329896907216497,21.35593220338983,24.329896907216497C22.372881355932204,24.329896907216497,23.389830508474574,24.536082474226806,24.406779661016948,24.536082474226806C25.423728813559322,24.536082474226806,26.440677966101696,24.12371134020619,27.45762711864407,24.12371134020619C28.47457627118644,24.12371134020619,29.491525423728813,24.12371134020619,30.508474576271183,24.12371134020619C31.525423728813557,24.12371134020619,32.54237288135593,24.364261168384882,33.559322033898304,24.536082474226806C34.57627118644068,24.70790378006873,35.59322033898305,25.15463917525773,36.610169491525426,25.15463917525773C37.6271186440678,25.15463917525773,38.644067796610166,25.15463917525773,39.66101694915254,25.15463917525773C40.67796610169491,25.15463917525773,41.69491525423729,25.29209621993127,42.71186440677966,25.56701030927835C43.728813559322035,25.841924398625427,44.7457627118644,40,45.762711864406775,40C46.77966101694915,40,47.79661016949152,25.15463917525773,48.813559322033896,25.15463917525773C49.83050847457627,25.15463917525773,50.847457627118644,25.15463917525773,51.86440677966102,25.15463917525773C52.88135593220339,25.15463917525773,53.898305084745765,24.604810996563575,54.91525423728814,24.329896907216497C55.93220338983051,24.05498281786942,56.94915254237288,23.642611683848802,57.96610169491525,23.50515463917526C58.983050847457626,23.367697594501717,59.99999999999999,23.298969072164944,61.01694915254237,23.298969072164944C62.03389830508474,23.298969072164944,63.05084745762712,23.298969072164944,64.0677966101695,23.298969072164944C65.08474576271186,23.298969072164944,66.10169491525424,8.247422680412374,67.11864406779661,8.247422680412374C68.13559322033899,8.247422680412374,69.15254237288136,22.749140893470788,70.16949152542374,22.886597938144327C71.1864406779661,23.024054982817866,72.20338983050848,23.092783505154635,73.22033898305085,23.092783505154635C74.23728813559322,23.092783505154635,75.2542372881356,23.092783505154635,76.27118644067797,23.092783505154635C77.28813559322033,23.092783505154635,78.30508474576271,22.955326460481096,79.32203389830508,22.886597938144327C80.33898305084746,22.817869415807557,81.35593220338983,22.680412371134018,82.37288135593221,22.680412371134018C83.38983050847457,22.680412371134018,84.40677966101696,22.680412371134018,85.42372881355932,22.680412371134018C86.4406779661017,22.680412371134018,87.45762711864407,22.54295532646048,88.47457627118645,22.47422680412371C89.49152542372882,22.40549828178694,90.50847457627118,22.405498281786937,91.52542372881355,22.2680412371134C92.54237288135593,22.130584192439862,93.55932203389831,21.649484536082475,94.57627118644069,21.649484536082475C95.59322033898306,21.649484536082475,96.61016949152543,22.061855670103093,97.62711864406779,22.061855670103093C98.64406779661016,22.061855670103093,99.66101694915254,22.061855670103093,100.6779661016949,22.061855670103093C101.69491525423729,22.061855670103093,102.71186440677965,21.649484536082475,103.72881355932203,21.649484536082475C104.7457627118644,21.649484536082475,105.76271186440678,21.786941580756015,106.77966101694915,21.855670103092784C107.79661016949153,21.924398625429554,108.8135593220339,21.993127147766323,109.83050847457628,22.061855670103093C110.84745762711864,22.130584192439862,111.86440677966102,22.2680412371134,112.88135593220339,22.2680412371134C113.89830508474576,22.2680412371134,114.91525423728814,22.164948453608247,115.9322033898305,22.061855670103093C116.94915254237289,21.95876288659794,117.96610169491525,21.649484536082475,118.98305084745763,21.649484536082475C120,21.649484536082475,121.01694915254237,21.649484536082475,122.03389830508473,21.649484536082475C123.05084745762711,21.649484536082475,124.0677966101695,21.580756013745706,125.08474576271188,21.443298969072163C126.10169491525424,21.305841924398624,127.11864406779662,20.824742268041234,128.135593220339,20.824742268041234C129.15254237288136,20.824742268041234,130.16949152542372,20.824742268041234,131.1864406779661,20.824742268041234C132.20338983050846,20.824742268041234,133.22033898305085,20.824742268041234,134.23728813559322,20.824742268041234C135.25423728813558,20.824742268041234,136.27118644067798,21.237113402061855,137.28813559322035,21.237113402061855C138.3050847457627,21.237113402061855,139.3220338983051,21.1340206185567,140.33898305084747,21.030927835051546C141.35593220338984,20.927835051546392,142.3728813559322,20.618556701030926,143.38983050847457,20.618556701030926C144.40677966101694,20.618556701030926,145.42372881355934,20.824742268041234,146.4406779661017,20.824742268041234C147.45762711864407,20.824742268041234,148.47457627118644,20.824742268041234,149.4915254237288,20.824742268041234C150.50847457627117,20.824742268041234,151.52542372881356,20.20618556701031,152.54237288135593,20.20618556701031C153.5593220338983,20.20618556701031,154.5762711864407,20.20618556701031,155.59322033898306,20.20618556701031C156.61016949152543,20.20618556701031,157.6271186440678,19.587628865979383,158.64406779661016,19.381443298969074C159.66101694915253,19.175257731958762,160.67796610169492,18.969072164948454,161.6949152542373,18.969072164948454C162.71186440677965,18.969072164948454,163.72881355932205,19.175257731958762,164.74576271186442,19.175257731958762C165.76271186440678,19.175257731958762,166.77966101694915,18.694158075601376,167.79661016949152,18.556701030927837C168.81355932203388,18.419243986254298,169.83050847457628,18.419243986254298,170.84745762711864,18.350515463917528C171.864406779661,18.28178694158076,172.8813559322034,18.247422680412374,173.89830508474577,18.14432989690722C174.91525423728814,18.041237113402065,175.93220338983053,17.7319587628866,176.9491525423729,17.7319587628866C177.96610169491527,17.7319587628866,178.98305084745763,18.04123711340206,180,18.350515463917528"></path><path class="axis-ceiling" stroke-width="1" stroke="black" fill="none" d="M175,0L180,0"></path><text class="axis-ceiling-label" font-family="sans-serif" text-anchor="end" font-size="10px" x="170" y="2.5">100</text></g></svg>