<svg xmlns="http://www.w3.org/2000/svg" viewBox="0 0 180 60"><g transform="translate(0,20)"><path class="area" fill="rgba(0, 0, 0, 0.2)" d="M0,40C1.0169491525423728,38.27956989247312,2.0338983050847457,36.55913978494623,3.0508474576271185,34.83870967741935C4.067796610169491,33.11827956989247,5.084745762711864,31.720430107526884,6.101694915254237,29.67741935483871C7.11864406779661,27.63440860215054,8.135593220338983,22.58064516129032,9.152542372881356,22.58064516129032C10.169491525423728,22.58064516129032,11.186440677966102,28.172043010752684,12.203389830508474,30.32258064516129C13.220338983050846,32.47311827956989,14.23728813559322,35.483870967741936,15.254237288135592,35.483870967741936C16.271186440677965,35.483870967741936,17.28813559322034,25.806451612903224,18.305084745762713,25.806451612903224C19.322033898305087,25.806451612903224,20.338983050847457,26.451612903225804,21.35593220338983,27.741935483870968C22.372881355932204,29.03225806451613,23.389830508474574,34.193548387096776,24.406779661016948,34.193548387096776C25.423728813559322,34.193548387096776,26.440677966101696,29.032258064516128,27.45762711864407,29.032258064516128C28.47457627118644,29.032258064516128,29.491525423728813,31.61290322580645,30.508474576271183,31.61290322580645C31.525423728813557,31.61290322580645,32.54237288135593,25.161290322580644,33.559322033898304,25.161290322580644C34.57627118644068,25.161290322580644,35.59322033898305,29.24731182795699,36.610169491525426,29.67741935483871C37.6271186440678,30.10752688172043,38.644067796610166,30.32258064516129,39.66101694915254,30.32258064516129C40.67796610169491,30.32258064516129,41.69491525423729,24.731182795698928,42.71186440677966,23.870967741935484C43.728813559322035,23.01075268817204,44.7457627118644,22.58064516129032,45.762711864406775,22.58064516129032C46.77966101694915,22.58064516129032,47.79661016949152,28.38709677419355,48.813559322033896,28.38709677419355C49.83050847457627,28.38709677419355,50.847457627118644,12.25806451612903,51.86440677966102,12.25806451612903C52.88135593220339,12.25806451612903,53.898305084745765,16.989247311827953,54.91525423728814,20C55.93220338983051,23.01075268817204,56.94915254237288,30.32258064516129,57.96610169491525,30.32258064516129C58.983050847457626,30.32258064516129,59.99999999999999,20,61.01694915254237,20C62.03389830508474,20,63.05084745762712,20,64.0677966101695,20C65.08474576271186,20,66.10169491525424,14.193548387096776,67.11864406779661,14.193548387096776C68.13559322033899,14.193548387096776,69.15254237288136,18.172043010752684,70.16949152542374,20C71.1864406779661,21.827956989247305,72.20338983050848,24.731182795698924,73.22033898305085,25.161290322580644C74.23728813559322,25.591397849462364,75.2542372881356,25.806451612903224,76.27118644067797,25.806451612903224C77.28813559322033,25.806451612903224,78.30508474576271,25.161290322580644,79.32203389830508,23.870967741935484C80.33898305084746,22.580645161290317,81.35593220338983,18.924731182795703,82.37288135593221,16.774193548387096C83.38983050847457,14.6236559139785,84.40677966101696,10.96774193548387,85.42372881355932,10.96774193548387C86.4406779661017,10.96774193548387,87.45762711864407,23.2258064516129,88.47457627118645,23.2258064516129C89.49152542372882,23.2258064516129,90.50847457627118,1.2903225806451601,91.52542372881355,1.2903225806451601C92.54237288135593,1.2903225806451601,93.55932203389831,4.408602150537597,94.57627118644069,7.74193548387097C95.59322033898306,11.075268817204297,96.61016949152543,21.29032258064516,97.62711864406779,21.29032258064516C98.64406779661016,21.29032258064516,99.66101694915254,17.09677419354838,100.6779661016949,14.193548387096776C101.69491525423729,11.290322580645158,102.71186440677965,3.870967741935485,103.72881355932203,3.870967741935485C104.7457627118644,3.870967741935485,105.76271186440678,6.451612903225815,106.77966101694915,8.38709677419355C107.79661016949153,10.322580645161295,108.8135593220339,13.655913978494622,109.83050847457628,15.483870967741936C110.84745762711864,17.31182795698924,111.86440677966102,19.35483870967742,112.88135593220339,19.35483870967742C113.89830508474576,19.35483870967742,114.91525423728814,9.03225806451613,115.9322033898305,9.03225806451613C116.94915254237289,9.03225806451613,117.96610169491525,13.010752688172037,118.98305084745763,14.838709677419356C120,16.666666666666657,121.01694915254237,18.81720430107527,122.03389830508473,20C123.05084745762711,21.182795698924746,124.0677966101695,21.93548387096774,125.08474576271188,21.93548387096774C126.10169491525424,21.93548387096774,127.11864406779662,17.20430107526882,128.135593220339,15.483870967741936C129.15254237288136,13.763440860215061,130.16949152542372,13.010752688172035,131.1864406779661,11.61290322580645C132.20338983050846,10.215053763440853,133.22033898305085,7.096774193548385,134.23728813559322,7.096774193548385C135.25423728813558,7.096774193548385,136.27118644067798,17.419354838709676,137.28813559322035,17.419354838709676C138.3050847457627,17.419354838709676,139.3220338983051,5.161290322580645,140.33898305084747,5.161290322580645C141.35593220338984,5.161290322580645,142.3728813559322,30.32258064516129,143.38983050847457,30.32258064516129C144.40677966101694,30.32258064516129,145.42372881355934,16.344086021505383,146.4406779661017,11.61290322580645C147.45762711864407,6.881720430107562,148.47457627118644,1.9354838709677402,149.4915254237288,1.9354838709677402C150.50847457627117,1.9354838709677402,151.52542372881356,9.67741935483871,152.54237288135593,9.67741935483871C153.5593220338983,9.67741935483871,154.5762711864407,7.096774193548385,155.59322033898306,7.096774193548385C156.61016949152543,7.096774193548385,157.6271186440678,29.67741935483871,158.64406779661016,29.67741935483871C159.66101694915253,29.67741935483871,160.67796610169492,9.03225806451613,161.6949152542373,9.03225806451613C162.71186440677965,9.03225806451613,163.72881355932205,39.35483870967742,164.74576271186442,39.35483870967742C165.76271186440678,39.35483870967742,166.77966101694915,7.74193548387097,167.79661016949152,7.74193548387097C168.81355932203388,7.74193548387097,169.83050847457628,29.032258064516128,170.84745762711864,29.032258064516128C171.864406779661,29.032258064516128,172.8813559322034,20.64516129032258,173.89830508474577,20.64516129032258C174.91525423728814,20.64516129032258,175.93220338983053,23.870967741935484,176.9491525423729,23.870967741935484C177.96610169491527,23.870967741935484,178.98305084745763,18.70967741935484,180,13.548387096774196L180,40C178.98305084745763,40,177.96610169491527,40,176.9491525423729,40C175.93220338983053,40,174.91525423728814,40,173.89830508474577,40C172.8813559322034,40,171.864406779661,40,170.84745762711864,40C169.83050847457628,40,168.81355932203388,40,167.79661016949152,40C166.77966101694915,40,165.76271186440678,40,164.74576271186442,40C163.72881355932205,40,162.71186440677965,40,161.6949152542373,40C160.67796610169492,40,159.66101694915253,40,158.64406779661016,40C157.6271186440678,40,156.61016949152543,40,155.59322033898306,40C154.5762711864407,40,153.5593220338983,40,152.54237288135593,40C151.52542372881356,40,150.50847457627117,40,149.4915254237288,40C148.47457627118644,40,147.45762711864407,40,146.4406779661017,40C145.42372881355934,40,144.40677966101694,40,143.38983050847457,40C142.3728813559322,40,141.35593220338984,40,140.33898305084747,40C139.3220338983051,40,138.3050847457627,40,137.28813559322035,40C136.27118644067798,40,135.25423728813558,40,134.23728813559322,40C133.22033898305085,40,132.20338983050846,40,131.1864406779661,40C130.16949152542372,40,129.15254237288136,40,128.135593220339,40C127.11864406779662,40,126.10169491525424,40,125.08474576271188,40C124.0677966101695,40,123.05084745762711,40,122.03389830508473,40C121.01694915254237,40,120,40,118.98305084745763,40C117.96610169491525,40,116.94915254237289,40,115.9322033898305,40C114.91525423728814,40,113.89830508474576,40,112.88135593220339,40C111.86440677966102,40,110.84745762711864,40,109.83050847457628,40C108.8135593220339,40,107.79661016949153,40,106.77966101694915,40C105.76271186440678,40,104.7457627118644,40,103.72881355932203,40C102.71186440677965,40,101.69491525423729,40,100.6779661016949,40C99.66101694915254,40,98.64406779661016,40,97.62711864406779,40C96.61016949152543,40,95.59322033898306,40,94.57627118644069,40C93.55932203389831,40,92.54237288135593,40,91.52542372881355,40C90.50847457627118,40,89.49152542372882,40,88.47457627118645,40C87.45762711864407,40,86.4406779661017,40,85.42372881355932,40C84.40677966101696,40,83.38983050847457,40,82.37288135593221,40C81.35593220338983,40,80.33898305084746,40,79.32203389830508,40C78.30508474576271,40,77.28813559322033,40,76.27118644067797,40C75.2542372881356,40,74.23728813559322,40,73.22033898305085,40C72.20338983050848,40,71.1864406779661,40,70.16949152542374,40C69.15254237288136,40,68.13559322033899,40,67.11864406779661,40C66.10169491525424,40,65.08474576271186,40,64.0677966101695,40C63.05084745762712,40,62.03389830508474,40,61.01694915254237,40C59.99999999999999,40,58.983050847457626,40,57.96610169491525,40C56.94915254237288,40,55.93220338983051,40,54.91525423728814,40C53.898305084745765,40,52.88135593220339,40,51.86440677966102,40C50.847457627118644,40,49.83050847457627,40,48.813559322033896,40C47.79661016949152,40,46.77966101694915,40,45.762711864406775,40C44.7457627118644,40,43.728813559322035,40,42.71186440677966,40C41.69491525423729,40,40.67796610169491,40,39.66101694915254,40C38.644067796610166,40,37.6271186440678,40,36.610169491525426,40C35.59322033898305,40,34.57627118644068,40,33.559322033898304,40C32.54237288135593,40,31.525423728813557,40,30.508474576271183,40C29.491525423728813,40,28.47457627118644,40,27.45762711864407,40C26.440677966101696,40,25.423728813559322,40,24.406779661016948,40C23.389830508474574,40,22.372881355932204,40,21.35593220338983,40C20.338983050847457,40,19.322033898305087,40,18.305084745762713,40C17.28813559322034,40,16.271186440677965,40,15.254237288135592,40C14.23728813559322,40,13.220338983050846,40,12.203389830508474,40C11.186440677966102,40,10.169491525423728,40,9.152542372881356,40C8.135593220338983,40,7.11864406779661,40,6.101694915254237,40C5.084745762711864,40,4.067796610169491,40,3.0508474576271185,40C2.0338983050847457,40,1.0169491525423728,40,0,40Z"></path><path class="line" stroke="black" fill="none" d="M0,40C1.0169491525423728,38.27956989247312,2.0338983050847457,36.55913978494623,3.0508474576271185,34.83870967741935C4.067796610169491,33.11827956989247,5.084745762711864,31.720430107526884,6.101694915254237,29.67741935483871C7.11864406779661,27.63440860215054,8.135593220338983,22.58064516129032,9.152542372881356,22.58064516129032C10.169491525423728,22.58064516129032,11.186440677966102,28.172043010752684,12.203389830508474,30.32258064516129C13.220338983050846,32.47311827956989,14.23728813559322,35.483870967741936,15.254237288135592,35.483870967741936C16.271186440677965,35.483870967741936,17.28813559322034,25.806451612903224,18.305084745762713,25.806451612903224C19.322033898305087,25.806451612903224,20.338983050847457,26.451612903225804,21.35593220338983,27.741935483870968C22.372881355932204,29.03225806451613,23.389830508474574,34.193548387096776,24.406779661016948,34.193548387096776C25.423728813559322,34.193548387096776,26.440677966101696,29.032258064516128,27.45762711864407,29.032258064516128C28.47457627118644,29.032258064516128,29.491525423728813,31.61290322580645,30.508474576271183,31.61290322580645C31.525423728813557,31.61290322580645,32.54237288135593,25.161290322580644,33.559322033898304,25.161290322580644C34.57627118644068,25.161290322580644,35.59322033898305,29.24731182795699,36.610169491525426,29.67741935483871C37.6271186440678,30.10752688172043,38.644067796610166,30.32258064516129,39.66101694915254,30.32258064516129C40.67796610169491,30.32258064516129,41.69491525423729,24.731182795698928,42.71186440677966,23.870967741935484C43.728813559322035,23.01075268817204,44.7457627118644,22.58064516129032,45.762711864406775,22.58064516129032C46.77966101694915,22.58064516129032,47.79661016949152,28.38709677419355,48.813559322033896,28.38709677419355C49.83050847457627,28.38709677419355,50.847457627118644,12.25806451612903,51.86440677966102,12.25806451612903C52.88135593220339,12.25806451612903,53.898305084745765,16.989247311827953,54.91525423728814,20C55.93220338983051,23.01075268817204,56.94915254237288,30.32258064516129,57.96610169491525,30.32258064516129C58.983050847457626,30.32258064516129,59.99999999999999,20,61.01694915254237,20C62.03389830508474,20,63.05084745762712,20,64.0677966101695,20C65.08474576271186,20,66.10169491525424,14.193548387096776,67.11864406779661,14.193548387096776C68.13559322033899,14.193548387096776,69.15254237288136,18.172043010752684,70.16949152542374,20C71.1864406779661,21.827956989247305,72.20338983050848,24.731182795698924,73.22033898305085,25.161290322580644C74.23728813559322,25.591397849462364,75.2542372881356,25.806451612903224,76.27118644067797,25.806451612903224C77.28813559322033,25.806451612903224,78.30508474576271,25.161290322580644,79.32203389830508,23.870967741935484C80.33898305084746,22.580645161290317,81.35593220338983,18.924731182795703,82.37288135593221,16.774193548387096C83.38983050847457,14.6236559139785,84.40677966101696,10.96774193548387,85.42372881355932,10.96774193548387C86.4406779661017,10.96774193548387,87.45762711864407,23.2258064516129,88.47457627118645,23.2258064516129C89.49152542372882,23.2258064516129,90.50847457627118,1.2903225806451601,91.52542372881355,1.2903225806451601C92.54237288135593,1.2903225806451601,93.55932203389831,4.408602150537597,94.57627118644069,7.74193548387097C95.59322033898306,11.075268817204297,96.61016949152543,21.29032258064516,97.62711864406779,21.29032258064516C98.64406779661016,21.29032258064516,99.66101694915254,17.09677419354838,100.6779661016949,14.193548387096776C101.69491525423729,11.290322580645158,102.71186440677965,3.870967741935485,103.72881355932203,3.870967741935485C104.7457627118644,3.870967741935485,105.76271186440678,6.451612903225815,106.77966101694915,8.38709677419355C107.79661016949153,10.322580645161295,108.8135593220339,13.655913978494622,109.83050847457628,15.483870967741936C110.84745762711864,17.31182795698924,111.86440677966102,19.35483870967742,112.88135593220339,19.35483870967742C113.89830508474576,19.35483870967742,114.91525423728814,9.03225806451613,115.9322033898305,9.03225806451613C116.94915254237289,9.03225806451613,117.96610169491525,13.010752688172037,118.98305084745763,14.838709677419356C120,16.666666666666657,121.01694915254237,18.81720430107527,122.03389830508473,20C123.05084745762711,21.182795698924746,124.0677966101695,21.93548387096774,125.08474576271188,21.93548387096774C126.10169491525424,21.93548387096774,127.11864406779662,17.20430107526882,128.135593220339,15.483870967741936C129.15254237288136,13.763440860215061,130.16949152542372,13.010752688172035,131.1864406779661,11.61290322580645C132.20338983050846,10.215053763440853,133.22033898305085,7.096774193548385,134.23728813559322,7.096774193548385C135.25423728813558,7.096774193548385,136.27118644067798,17.419354838709676,137.28813559322035,17.419354838709676C138.3050847457627,17.419354838709676,139.3220338983051,5.161290322580645,140.33898305084747,5.161290322580645C141.35593220338984,5.161290322580645,142.3728813559322,30.32258064516129,143.38983050847457,30.32258064516129C144.40677966101694,30.32258064516129,145.42372881355934,16.344086021505383,146.4406779661017,11.61290322580645C147.45762711864407,6.881720430107562,148.47457627118644,1.9354838709677402,149.4915254237288,1.9354838709677402C150.50847457627117,1.9354838709677402,151.52542372881356,9.67741935483871,152.54237288135593,9.67741935483871C153.5593220338983,9.67741935483871,154.5762711864407,7.096774193548385,155.59322033898306,7.096774193548385C156.61016949152543,7.096774193548385,157.6271186440678,29.67741935483871,158.64406779661016,29.67741935483871C159.66101694915253,29.67741935483871,160.67796610169492,9.03225806451613,161.6949152542373,9.03225806451613C162.71186440677965,9.03225806451613,163.72881355932205,39.35483870967742,164.74576271186442,39.35483870967742C165.76271186440678,39.35483870967742,166.77966101694915,7.74193548387097,167.79661016949152,7.74193548387097C168.81355932203388,7.74193548387097,169.83050847457628,29.032258064516128,170.84745762711864,29.032258064516128C171.864406779661,29.032258064516128,172.8813559322034,20.64516129032258,173.89830508474577,20.64516129032258C174.91525423728814,20.64516129032258,175.93220338983053,23.870967741935484,176.9491525423729,23.870967741935484C177.96610169491527,23.870967741935484,178.98305084745763,18.70967741935484,180,13.548387096774196"></path><path class="axis-ceiling" stroke-width="1" stroke="black" fill="none" d="M175,0L180,0"></path><text class="axis-ceiling-label" font-family="sans-serif" text-anchor="end" font-size="10px" x="170" y="2.5">45</text></g></svg>