<svg xmlns="http://www.w3.org/2000/svg" viewBox="0 0 180 60"><g transform="translate(0,20)"><path class="area" fill="rgba(0, 0, 0, 0.2)" d="M0,33.952C1.0169491525423728,33.87733333333333,2.0338983050847457,33.80266666666666,3.0508474576271185,33.727999999999994C4.067796610169491,33.65333333333333,5.084745762711864,33.504,6.101694915254237,33.504C7.11864406779661,33.504,8.135593220338983,33.76,9.152542372881356,33.76C10.169491525423728,33.76,11.186440677966102,33.74933333333333,12.203389830508474,33.727999999999994C13.220338983050846,33.706666666666656,14.23728813559322,33.157333333333334,15.254237288135592,33.104C16.271186440677965,33.050666666666665,17.28813559322034,33.06933333333333,18.305084745762713,33.024C19.322033898305087,32.97866666666667,20.338983050847457,32.912,21.35593220338983,32.832C22.372881355932204,32.752,23.389830508474574,32.72,24.406779661016948,32.544C25.423728813559322,32.367999999999995,26.440677966101696,31.861333333333334,27.45762711864407,31.776C28.47457627118644,31.690666666666665,29.491525423728813,31.714666666666666,30.508474576271183,31.648C31.525423728813557,31.581333333333333,32.54237288135593,31.557333333333332,33.559322033898304,31.375999999999998C34.57627118644068,31.194666666666663,35.59322033898305,30.325333333333333,36.610169491525426,29.984C37.6271186440678,29.64266666666667,38.644067796610166,29.501333333333335,39.66101694915254,29.328000000000003C40.67796610169491,29.15466666666667,41.69491525423729,29.04266666666667,42.71186440677966,28.944000000000003C43.728813559322035,28.845333333333336,44.7457627118644,28.874666666666666,45.762711864406775,28.735999999999997C46.77966101694915,28.597333333333328,47.79661016949152,28.130666666666666,48.813559322033896,27.936C49.83050847457627,27.741333333333333,50.847457627118644,27.752000000000002,51.86440677966102,27.568C52.88135593220339,27.384,53.898305084745765,27.322666666666667,54.91525423728814,26.832C55.93220338983051,26.341333333333335,56.94915254237288,24.192000000000007,57.96610169491525,23.680000000000003C58.983050847457626,23.168,59.99999999999999,23.226666666666667,61.01694915254237,22.912C62.03389830508474,22.59733333333333,63.05084745762712,22.11733333333333,64.0677966101695,21.791999999999998C65.08474576271186,21.466666666666665,66.10169491525424,21.205333333333332,67.11864406779661,20.96C68.13559322033899,20.714666666666666,69.15254237288136,20.698666666666668,70.16949152542374,20.32C71.1864406779661,19.941333333333333,72.20338983050848,19.151999999999997,73.22033898305085,18.688C74.23728813559322,18.224,75.2542372881356,17.925333333333334,76.27118644067797,17.536C77.28813559322033,17.14666666666667,78.30508474576271,16.664000000000005,79.32203389830508,16.352000000000004C80.33898305084746,16.040000000000003,81.35593220338983,15.890666666666666,82.37288135593221,15.663999999999998C83.38983050847457,15.437333333333331,84.40677966101696,15.210666666666667,85.42372881355932,14.992C86.4406779661017,14.773333333333333,87.45762711864407,14.573333333333334,88.47457627118645,14.352C89.49152542372882,14.130666666666668,90.50847457627118,13.965333333333332,91.52542372881355,13.664000000000001C92.54237288135593,13.362666666666668,93.55932203389831,12.861333333333334,94.57627118644069,12.544C95.59322033898306,12.22666666666667,96.61016949152543,12.026666666666667,97.62711864406779,11.760000000000002C98.64406779661016,11.493333333333334,99.66101694915254,11.271999999999998,100.6779661016949,10.943999999999999C101.69491525423729,10.615999999999998,102.71186440677965,9.824000000000002,103.72881355932203,9.792000000000002C104.7457627118644,9.760000000000002,105.76271186440678,9.770666666666669,106.77966101694915,9.744000000000002C107.79661016949153,9.717333333333334,108.8135593220339,9.706666666666669,109.83050847457628,9.632000000000001C110.84745762711864,9.557333333333336,111.86440677966102,9.216,112.88135593220339,9.04C113.89830508474576,8.863999999999999,114.91525423728814,8.68,115.9322033898305,8.576C116.94915254237289,8.472,117.96610169491525,8.512000000000002,118.98305084745763,8.416C120,8.32,121.01694915254237,8.229333333333328,122.03389830508473,7.999999999999998C123.05084745762711,7.770666666666664,124.0677966101695,7.146666666666669,125.08474576271188,7.040000000000002C126.10169491525424,6.933333333333335,127.11864406779662,6.920000000000002,128.135593220339,6.880000000000002C129.15254237288136,6.840000000000002,130.16949152542372,6.853333333333335,131.1864406779661,6.800000000000002C132.20338983050846,6.746666666666668,133.22033898305085,6.240000000000001,134.23728813559322,6.240000000000001C135.25423728813558,6.240000000000001,136.27118644067798,6.5280000000000005,137.28813559322035,6.5280000000000005C138.3050847457627,6.5280000000000005,139.3220338983051,5.8160000000000025,140.33898305084747,5.472000000000001C141.35593220338984,5.128000000000003,142.3728813559322,4.485333333333335,143.38983050847457,4.464000000000001C144.40677966101694,4.442666666666668,145.42372881355934,4.432,146.4406779661017,4.432C147.45762711864407,4.432,148.47457627118644,4.621333333333332,149.4915254237288,4.687999999999999C150.50847457627117,4.754666666666666,151.52542372881356,4.832000000000001,152.54237288135593,4.832000000000001C153.5593220338983,4.832000000000001,154.5762711864407,4.677333333333329,155.59322033898306,4.655999999999998C156.61016949152543,4.634666666666667,157.6271186440678,4.624000000000001,158.64406779661016,4.624000000000001C159.66101694915253,4.624000000000001,160.67796610169492,5.002666666666668,161.6949152542373,5.232000000000001C162.71186440677965,5.461333333333334,163.72881355932205,5.690666666666665,164.74576271186442,6.000000000000001C165.76271186440678,6.309333333333333,166.77966101694915,6.781333333333336,167.79661016949152,7.088000000000001C168.81355932203388,7.394666666666669,169.83050847457628,7.6213333333333315,170.84745762711864,7.839999999999998C171.864406779661,8.058666666666664,172.8813559322034,8.119999999999997,173.89830508474577,8.399999999999999C174.91525423728814,8.68,175.93220338983053,9.52,176.9491525423729,9.52C177.96610169491527,9.52,178.98305084745763,9.52,180,9.52L180,40C178.98305084745763,40,177.96610169491527,40,176.9491525423729,40C175.93220338983053,40,174.91525423728814,40,173.89830508474577,40C172.8813559322034,40,171.864406779661,40,170.84745762711864,40C169.83050847457628,40,168.81355932203388,40,167.79661016949152,40C166.77966101694915,40,165.76271186440678,40,164.74576271186442,40C163.72881355932205,40,162.71186440677965,40,161.6949152542373,40C160.67796610169492,40,159.66101694915253,40,158.64406779661016,40C157.6271186440678,40,156.61016949152543,40,155.59322033898306,40C154.5762711864407,40,153.5593220338983,40,152.54237288135593,40C151.52542372881356,40,150.50847457627117,40,149.4915254237288,40C148.47457627118644,40,147.45762711864407,40,146.4406779661017,40C145.42372881355934,40,144.40677966101694,40,143.38983050847457,40C142.3728813559322,40,141.35593220338984,40,140.33898305084747,40C139.3220338983051,40,138.3050847457627,40,137.28813559322035,40C136.27118644067798,40,135.25423728813558,40,134.23728813559322,40C133.22033898305085,40,132.20338983050846,40,131.1864406779661,40C130.16949152542372,40,129.15254237288136,40,128.135593220339,40C127.11864406779662,40,126.10169491525424,40,125.08474576271188,40C124.0677966101695,40,123.05084745762711,40,122.03389830508473,40C121.01694915254237,40,120,40,118.98305084745763,40C117.96610169491525,40,116.94915254237289,40,115.9322033898305,40C114.91525423728814,40,113.89830508474576,40,112.88135593220339,40C111.86440677966102,40,110.84745762711864,40,109.83050847457628,40C108.8135593220339,40,107.79661016949153,40,106.77966101694915,40C105.76271186440678,40,104.7457627118644,40,103.72881355932203,40C102.71186440677965,40,101.69491525423729,40,100.6779661016949,40C99.66101694915254,40,98.64406779661016,40,97.62711864406779,40C96.61016949152543,40,95.59322033898306,40,94.57627118644069,40C93.55932203389831,40,92.54237288135593,40,91.52542372881355,40C90.50847457627118,40,89.49152542372882,40,88.47457627118645,40C87.45762711864407,40,86.4406779661017,40,85.42372881355932,40C84.40677966101696,40,83.38983050847457,40,82.37288135593221,40C81.35593220338983,40,80.33898305084746,40,79.32203389830508,40C78.30508474576271,40,77.28813559322033,40,76.27118644067797,40C75.2542372881356,40,74.23728813559322,40,73.22033898305085,40C72.20338983050848,40,71.1864406779661,40,70.16949152542374,40C69.15254237288136,40,68.13559322033899,40,67.11864406779661,40C66.10169491525424,40,65.08474576271186,40,64.0677966101695,40C63.05084745762712,40,62.03389830508474,40,61.01694915254237,40C59.99999999999999,40,58.983050847457626,40,57.96610169491525,40C56.94915254237288,40,55.93220338983051,40,54.91525423728814,40C53.898305084745765,40,52.88135593220339,40,51.86440677966102,40C50.847457627118644,40,49.83050847457627,40,48.813559322033896,40C47.79661016949152,40,46.77966101694915,40,45.762711864406775,40C44.7457627118644,40,43.728813559322035,40,42.71186440677966,40C41.69491525423729,40,40.67796610169491,40,39.66101694915254,40C38.644067796610166,40,37.6271186440678,40,36.610169491525426,40C35.59322033898305,40,34.57627118644068,40,33.559322033898304,40C32.54237288135593,40,31.525423728813557,40,30.508474576271183,40C29.491525423728813,40,28.47457627118644,40,27.45762711864407,40C26.440677966101696,40,25.423728813559322,40,24.406779661016948,40C23.389830508474574,40,22.372881355932204,40,21.35593220338983,40C20.338983050847457,40,19.322033898305087,40,18.305084745762713,40C17.28813559322034,40,16.271186440677965,40,15.254237288135592,40C14.23728813559322,40,13.220338983050846,40,12.203389830508474,40C11.186440677966102,40,10.169491525423728,40,9.152542372881356,40C8.135593220338983,40,7.11864406779661,40,6.101694915254237,40C5.084745762711864,40,4.067796610169491,40,3.0508474576271185,40C2.0338983050847457,40,1.0169491525423728,40,0,40Z"></path><path class="line" stroke="black" fill="none" d="M0,33.952C1.0169491525423728,33.87733333333333,2.0338983050847457,33.80266666666666,3.0508474576271185,33.727999999999994C4.067796610169491,33.65333333333333,5.084745762711864,33.504,6.101694915254237,33.504C7.11864406779661,33.504,8.135593220338983,33.76,9.152542372881356,33.76C10.169491525423728,33.76,11.186440677966102,33.74933333333333,12.203389830508474,33.727999999999994C13.220338983050846,33.706666666666656,14.23728813559322,33.157333333333334,15.254237288135592,33.104C16.271186440677965,33.050666666666665,17.28813559322034,33.06933333333333,18.305084745762713,33.024C19.322033898305087,32.97866666666667,20.338983050847457,32.912,21.35593220338983,32.832C22.372881355932204,32.752,23.389830508474574,32.72,24.406779661016948,32.544C25.423728813559322,32.367999999999995,26.440677966101696,31.861333333333334,27.45762711864407,31.776C28.47457627118644,31.690666666666665,29.491525423728813,31.714666666666666,30.508474576271183,31.648C31.525423728813557,31.581333333333333,32.54237288135593,31.557333333333332,33.559322033898304,31.375999999999998C34.57627118644068,31.194666666666663,35.59322033898305,30.325333333333333,36.610169491525426,29.984C37.6271186440678,29.64266666666667,38.644067796610166,29.501333333333335,39.66101694915254,29.328000000000003C40.67796610169491,29.15466666666667,41.69491525423729,29.04266666666667,42.71186440677966,28.944000000000003C43.728813559322035,28.845333333333336,44.7457627118644,28.874666666666666,45.762711864406775,28.735999999999997C46.77966101694915,28.597333333333328,47.79661016949152,28.130666666666666,48.813559322033896,27.936C49.83050847457627,27.741333333333333,50.847457627118644,27.752000000000002,51.86440677966102,27.568C52.88135593220339,27.384,53.898305084745765,27.322666666666667,54.91525423728814,26.832C55.93220338983051,26.341333333333335,56.94915254237288,24.192000000000007,57.96610169491525,23.680000000000003C58.983050847457626,23.168,59.99999999999999,23.226666666666667,61.01694915254237,22.912C62.03389830508474,22.59733333333333,63.05084745762712,22.11733333333333,64.0677966101695,21.791999999999998C65.08474576271186,21.466666666666665,66.10169491525424,21.205333333333332,67.11864406779661,20.96C68.13559322033899,20.714666666666666,69.15254237288136,20.698666666666668,70.16949152542374,20.32C71.1864406779661,19.941333333333333,72.20338983050848,19.151999999999997,73.22033898305085,18.688C74.23728813559322,18.224,75.2542372881356,17.925333333333334,76.27118644067797,17.536C77.28813559322033,17.14666666666667,78.30508474576271,16.664000000000005,79.32203389830508,16.352000000000004C80.33898305084746,16.040000000000003,81.35593220338983,15.890666666666666,82.37288135593221,15.663999999999998C83.38983050847457,15.437333333333331,84.40677966101696,15.210666666666667,85.42372881355932,14.992C86.4406779661017,14.773333333333333,87.45762711864407,14.573333333333334,88.47457627118645,14.352C89.49152542372882,14.130666666666668,90.50847457627118,13.965333333333332,91.52542372881355,13.664000000000001C92.54237288135593,13.362666666666668,93.55932203389831,12.861333333333334,94.57627118644069,12.544C95.59322033898306,12.22666666666667,96.61016949152543,12.026666666666667,97.62711864406779,11.760000000000002C98.64406779661016,11.493333333333334,99.66101694915254,11.271999999999998,100.6779661016949,10.943999999999999C101.69491525423729,10.615999999999998,102.71186440677965,9.824000000000002,103.72881355932203,9.792000000000002C104.7457627118644,9.760000000000002,105.76271186440678,9.770666666666669,106.77966101694915,9.744000000000002C107.79661016949153,9.717333333333334,108.8135593220339,9.706666666666669,109.83050847457628,9.632000000000001C110.84745762711864,9.557333333333336,111.86440677966102,9.216,112.88135593220339,9.04C113.89830508474576,8.863999999999999,114.91525423728814,8.68,115.9322033898305,8.576C116.94915254237289,8.472,117.96610169491525,8.512000000000002,118.98305084745763,8.416C120,8.32,121.01694915254237,8.229333333333328,122.03389830508473,7.999999999999998C123.05084745762711,7.770666666666664,124.0677966101695,7.146666666666669,125.08474576271188,7.040000000000002C126.10169491525424,6.933333333333335,127.11864406779662,6.920000000000002,128.135593220339,6.880000000000002C129.15254237288136,6.840000000000002,130.16949152542372,6.853333333333335,131.1864406779661,6.800000000000002C132.20338983050846,6.746666666666668,133.22033898305085,6.240000000000001,134.23728813559322,6.240000000000001C135.25423728813558,6.240000000000001,136.27118644067798,6.5280000000000005,137.28813559322035,6.5280000000000005C138.3050847457627,6.5280000000000005,139.3220338983051,5.8160000000000025,140.33898305084747,5.472000000000001C141.35593220338984,5.128000000000003,142.3728813559322,4.485333333333335,143.38983050847457,4.464000000000001C144.40677966101694,4.442666666666668,145.42372881355934,4.432,146.4406779661017,4.432C147.45762711864407,4.432,148.47457627118644,4.621333333333332,149.4915254237288,4.687999999999999C150.50847457627117,4.754666666666666,151.52542372881356,4.832000000000001,152.54237288135593,4.832000000000001C153.5593220338983,4.832000000000001,154.5762711864407,4.677333333333329,155.59322033898306,4.655999999999998C156.61016949152543,4.634666666666667,157.6271186440678,4.624000000000001,158.64406779661016,4.624000000000001C159.66101694915253,4.624000000000001,160.67796610169492,5.002666666666668,161.6949152542373,5.232000000000001C162.71186440677965,5.461333333333334,163.72881355932205,5.690666666666665,164.74576271186442,6.000000000000001C165.76271186440678,6.309333333333333,166.77966101694915,6.781333333333336,167.79661016949152,7.088000000000001C168.81355932203388,7.394666666666669,169.83050847457628,7.6213333333333315,170.84745762711864,7.839999999999998C171.864406779661,8.058666666666664,172.8813559322034,8.119999999999997,173.89830508474577,8.399999999999999C174.91525423728814,8.68,175.93220338983053,9.52,176.9491525423729,9.52C177.96610169491527,9.52,178.98305084745763,9.52,180,9.52"></path><path class="axis-ceiling" stroke-width="1" stroke="black" fill="none" d="M175,0L180,0"></path><text class="axis-ceiling-label" font-family="sans-serif" text-anchor="end" font-size="10px" x="170" y="2.5">2500</text></g></svg>