<svg xmlns="http://www.w3.org/2000/svg" viewBox="0 0 180 60"><g transform="translate(0,20)"><path class="area" fill="rgba(0, 0, 0, 0.2)" d="M0,27.532467532467532C1.0169491525423728,27.14285714285714,2.0338983050847457,26.75324675324675,3.0508474576271185,26.75324675324675C4.067796610169491,26.75324675324675,5.084745762711864,27.01298701298701,6.101694915254237,27.01298701298701C7.11864406779661,27.01298701298701,8.135593220338983,26.70995670995671,9.152542372881356,26.233766233766236C10.169491525423728,25.75757575757576,11.186440677966102,24.155844155844157,12.203389830508474,24.155844155844157C13.220338983050846,24.155844155844157,14.23728813559322,24.155844155844157,15.254237288135592,24.155844155844157C16.271186440677965,24.155844155844157,17.28813559322034,23.376623376623375,18.305084745762713,23.376623376623375C19.322033898305087,23.376623376623375,20.338983050847457,23.376623376623375,21.35593220338983,23.376623376623375C22.372881355932204,23.376623376623375,23.389830508474574,22.424242424242422,24.406779661016948,22.07792207792208C25.423728813559322,21.73160173160173,26.440677966101696,21.55844155844156,27.45762711864407,21.298701298701303C28.47457627118644,21.038961038961045,29.491525423728813,20.90909090909091,30.508474576271183,20.51948051948052C31.525423728813557,20.12987012987013,32.54237288135593,19.48051948051948,33.559322033898304,18.96103896103896C34.57627118644068,18.44155844155844,35.59322033898305,17.57575757575757,36.610169491525426,17.4025974025974C37.6271186440678,17.22943722943723,38.644067796610166,17.142857142857146,39.66101694915254,17.142857142857146C40.67796610169491,17.142857142857146,41.69491525423729,17.142857142857146,42.71186440677966,17.142857142857146C43.728813559322035,17.142857142857146,44.7457627118644,17.142857142857146,45.762711864406775,17.142857142857146C46.77966101694915,17.142857142857146,47.79661016949152,16.883116883116884,48.813559322033896,16.623376623376625C49.83050847457627,16.363636363636367,50.847457627118644,16.27705627705628,51.86440677966102,15.584415584415584C52.88135593220339,14.89177489177489,53.898305084745765,11.601731601731599,54.91525423728814,11.428571428571427C55.93220338983051,11.255411255411255,56.94915254237288,11.341991341991342,57.96610169491525,11.16883116883117C58.983050847457626,10.995670995670999,59.99999999999999,10.12987012987013,61.01694915254237,9.61038961038961C62.03389830508474,9.09090909090909,63.05084745762712,8.051948051948052,64.0677966101695,8.051948051948052C65.08474576271186,8.051948051948052,66.10169491525424,8.311688311688311,67.11864406779661,8.311688311688311C68.13559322033899,8.311688311688311,69.15254237288136,6.103896103896104,70.16949152542374,5.454545454545454C71.1864406779661,4.805194805194808,72.20338983050848,4.415584415584415,73.22033898305085,4.415584415584415C74.23728813559322,4.415584415584415,75.2542372881356,8.91774891774892,76.27118644067797,9.090909090909092C77.28813559322033,9.264069264069263,78.30508474576271,9.177489177489177,79.32203389830508,9.350649350649348C80.33898305084746,9.52380952380952,81.35593220338983,10.216450216450214,82.37288135593221,10.38961038961039C83.38983050847457,10.562770562770565,84.40677966101696,10.649350649350652,85.42372881355932,10.649350649350652C86.4406779661017,10.649350649350652,87.45762711864407,10.649350649350652,88.47457627118645,10.649350649350652C89.49152542372882,10.649350649350652,90.50847457627118,11.601731601731602,91.52542372881355,11.948051948051948C92.54237288135593,12.294372294372298,93.55932203389831,12.467532467532468,94.57627118644069,12.72727272727273C95.59322033898306,12.987012987012989,96.61016949152543,13.506493506493506,97.62711864406779,13.506493506493506C98.64406779661016,13.506493506493506,99.66101694915254,12.467532467532468,100.6779661016949,12.467532467532468C101.69491525423729,12.467532467532468,102.71186440677965,13.593073593073592,103.72881355932203,14.025974025974026C104.7457627118644,14.458874458874458,105.76271186440678,14.891774891774896,106.77966101694915,15.064935064935066C107.79661016949153,15.238095238095237,108.8135593220339,15.15151515151515,109.83050847457628,15.324675324675322C110.84745762711864,15.497835497835492,111.86440677966102,16.363636363636363,112.88135593220339,16.883116883116884C113.89830508474576,17.402597402597404,114.91525423728814,18.051948051948052,115.9322033898305,18.441558441558442C116.94915254237289,18.83116883116883,117.96610169491525,19.004329004329005,118.98305084745763,19.22077922077922C120,19.437229437229437,121.01694915254237,19.74025974025974,122.03389830508473,19.74025974025974C123.05084745762711,19.74025974025974,124.0677966101695,19.48051948051948,125.08474576271188,19.48051948051948C126.10169491525424,19.48051948051948,127.11864406779662,19.48051948051948,128.135593220339,19.48051948051948C129.15254237288136,19.48051948051948,130.16949152542372,19.48051948051948,131.1864406779661,19.48051948051948C132.20338983050846,19.48051948051948,133.22033898305085,21.298701298701303,134.23728813559322,21.298701298701303C135.25423728813558,21.298701298701303,136.27118644067798,19.783549783549784,137.28813559322035,19.22077922077922C138.3050847457627,18.658008658008658,139.3220338983051,17.92207792207792,140.33898305084747,17.92207792207792C141.35593220338984,17.92207792207792,142.3728813559322,19.48051948051948,143.38983050847457,20C144.40677966101694,20.519480519480524,145.42372881355934,20.779220779220783,146.4406779661017,21.03896103896104C147.45762711864407,21.2987012987013,148.47457627118644,21.341991341991342,149.4915254237288,21.558441558441558C150.50847457627117,21.774891774891774,151.52542372881356,22.33766233766234,152.54237288135593,22.33766233766234C153.5593220338983,22.33766233766234,154.5762711864407,21.558441558441558,155.59322033898306,21.558441558441558C156.61016949152543,21.558441558441558,157.6271186440678,24.11255411255412,158.64406779661016,25.454545454545453C159.66101694915253,26.796536796536802,160.67796610169492,28.484848484848484,161.6949152542373,29.61038961038961C162.71186440677965,30.735930735930737,163.72881355932205,31.558441558441558,164.74576271186442,32.20779220779221C165.76271186440678,32.857142857142854,166.77966101694915,33.16017316017316,167.79661016949152,33.506493506493506C168.81355932203388,33.85281385281385,169.83050847457628,33.76623376623377,170.84745762711864,34.28571428571429C171.864406779661,34.805194805194816,172.8813559322034,36.45021645021645,173.89830508474577,37.4025974025974C174.91525423728814,38.35497835497835,175.93220338983053,40,176.9491525423729,40C177.96610169491527,40,178.98305084745763,39.35064935064935,180,38.701298701298704L180,40C178.98305084745763,40,177.96610169491527,40,176.9491525423729,40C175.93220338983053,40,174.91525423728814,40,173.89830508474577,40C172.8813559322034,40,171.864406779661,40,170.84745762711864,40C169.83050847457628,40,168.81355932203388,40,167.79661016949152,40C166.77966101694915,40,165.76271186440678,40,164.74576271186442,40C163.72881355932205,40,162.71186440677965,40,161.6949152542373,40C160.67796610169492,40,159.66101694915253,40,158.64406779661016,40C157.6271186440678,40,156.61016949152543,40,155.59322033898306,40C154.5762711864407,40,153.5593220338983,40,152.54237288135593,40C151.52542372881356,40,150.50847457627117,40,149.4915254237288,40C148.47457627118644,40,147.45762711864407,40,146.4406779661017,40C145.42372881355934,40,144.40677966101694,40,143.38983050847457,40C142.3728813559322,40,141.35593220338984,40,140.33898305084747,40C139.3220338983051,40,138.3050847457627,40,137.28813559322035,40C136.27118644067798,40,135.25423728813558,40,134.23728813559322,40C133.22033898305085,40,132.20338983050846,40,131.1864406779661,40C130.16949152542372,40,129.15254237288136,40,128.135593220339,40C127.11864406779662,40,126.10169491525424,40,125.08474576271188,40C124.0677966101695,40,123.05084745762711,40,122.03389830508473,40C121.01694915254237,40,120,40,118.98305084745763,40C117.96610169491525,40,116.94915254237289,40,115.9322033898305,40C114.91525423728814,40,113.89830508474576,40,112.88135593220339,40C111.86440677966102,40,110.84745762711864,40,109.83050847457628,40C108.8135593220339,40,107.79661016949153,40,106.77966101694915,40C105.76271186440678,40,104.7457627118644,40,103.72881355932203,40C102.71186440677965,40,101.69491525423729,40,100.6779661016949,40C99.66101694915254,40,98.64406779661016,40,97.62711864406779,40C96.61016949152543,40,95.59322033898306,40,94.57627118644069,40C93.55932203389831,40,92.54237288135593,40,91.52542372881355,40C90.50847457627118,40,89.49152542372882,40,88.47457627118645,40C87.45762711864407,40,86.4406779661017,40,85.42372881355932,40C84.40677966101696,40,83.38983050847457,40,82.37288135593221,40C81.35593220338983,40,80.33898305084746,40,79.32203389830508,40C78.30508474576271,40,77.28813559322033,40,76.27118644067797,40C75.2542372881356,40,74.23728813559322,40,73.22033898305085,40C72.20338983050848,40,71.1864406779661,40,70.16949152542374,40C69.15254237288136,40,68.13559322033899,40,67.11864406779661,40C66.10169491525424,40,65.08474576271186,40,64.0677966101695,40C63.05084745762712,40,62.03389830508474,40,61.01694915254237,40C59.99999999999999,40,58.983050847457626,40,57.96610169491525,40C56.94915254237288,40,55.93220338983051,40,54.91525423728814,40C53.898305084745765,40,52.88135593220339,40,51.86440677966102,40C50.847457627118644,40,49.83050847457627,40,48.813559322033896,40C47.79661016949152,40,46.77966101694915,40,45.762711864406775,40C44.7457627118644,40,43.728813559322035,40,42.71186440677966,40C41.69491525423729,40,40.67796610169491,40,39.66101694915254,40C38.644067796610166,40,37.6271186440678,40,36.610169491525426,40C35.59322033898305,40,34.57627118644068,40,33.559322033898304,40C32.54237288135593,40,31.525423728813557,40,30.508474576271183,40C29.491525423728813,40,28.47457627118644,40,27.45762711864407,40C26.440677966101696,40,25.423728813559322,40,24.406779661016948,40C23.389830508474574,40,22.372881355932204,40,21.35593220338983,40C20.338983050847457,40,19.322033898305087,40,18.305084745762713,40C17.28813559322034,40,16.271186440677965,40,15.254237288135592,40C14.23728813559322,40,13.220338983050846,40,12.203389830508474,40C11.186440677966102,40,10.169491525423728,40,9.152542372881356,40C8.135593220338983,40,7.11864406779661,40,6.101694915254237,40C5.084745762711864,40,4.067796610169491,40,3.0508474576271185,40C2.0338983050847457,40,1.0169491525423728,40,0,40Z"></path><path class="line" stroke="black" fill="none" d="M0,27.532467532467532C1.0169491525423728,27.14285714285714,2.0338983050847457,26.75324675324675,3.0508474576271185,26.75324675324675C4.067796610169491,26.75324675324675,5.084745762711864,27.01298701298701,6.101694915254237,27.01298701298701C7.11864406779661,27.01298701298701,8.135593220338983,26.70995670995671,9.152542372881356,26.233766233766236C10.169491525423728,25.75757575757576,11.186440677966102,24.155844155844157,12.203389830508474,24.155844155844157C13.220338983050846,24.155844155844157,14.23728813559322,24.155844155844157,15.254237288135592,24.155844155844157C16.271186440677965,24.155844155844157,17.28813559322034,23.376623376623375,18.305084745762713,23.376623376623375C19.322033898305087,23.376623376623375,20.338983050847457,23.376623376623375,21.35593220338983,23.376623376623375C22.372881355932204,23.376623376623375,23.389830508474574,22.424242424242422,24.406779661016948,22.07792207792208C25.423728813559322,21.73160173160173,26.440677966101696,21.55844155844156,27.45762711864407,21.298701298701303C28.47457627118644,21.038961038961045,29.491525423728813,20.90909090909091,30.508474576271183,20.51948051948052C31.525423728813557,20.12987012987013,32.54237288135593,19.48051948051948,33.559322033898304,18.96103896103896C34.57627118644068,18.44155844155844,35.59322033898305,17.57575757575757,36.610169491525426,17.4025974025974C37.6271186440678,17.22943722943723,38.644067796610166,17.142857142857146,39.66101694915254,17.142857142857146C40.67796610169491,17.142857142857146,41.69491525423729,17.142857142857146,42.71186440677966,17.142857142857146C43.728813559322035,17.142857142857146,44.7457627118644,17.142857142857146,45.762711864406775,17.142857142857146C46.77966101694915,17.142857142857146,47.79661016949152,16.883116883116884,48.813559322033896,16.623376623376625C49.83050847457627,16.363636363636367,50.847457627118644,16.27705627705628,51.86440677966102,15.584415584415584C52.88135593220339,14.89177489177489,53.898305084745765,11.601731601731599,54.91525423728814,11.428571428571427C55.93220338983051,11.255411255411255,56.94915254237288,11.341991341991342,57.96610169491525,11.16883116883117C58.983050847457626,10.995670995670999,59.99999999999999,10.12987012987013,61.01694915254237,9.61038961038961C62.03389830508474,9.09090909090909,63.05084745762712,8.051948051948052,64.0677966101695,8.051948051948052C65.08474576271186,8.051948051948052,66.10169491525424,8.311688311688311,67.11864406779661,8.311688311688311C68.13559322033899,8.311688311688311,69.15254237288136,6.103896103896104,70.16949152542374,5.454545454545454C71.1864406779661,4.805194805194808,72.20338983050848,4.415584415584415,73.22033898305085,4.415584415584415C74.23728813559322,4.415584415584415,75.2542372881356,8.91774891774892,76.27118644067797,9.090909090909092C77.28813559322033,9.264069264069263,78.30508474576271,9.177489177489177,79.32203389830508,9.350649350649348C80.33898305084746,9.52380952380952,81.35593220338983,10.216450216450214,82.37288135593221,10.38961038961039C83.38983050847457,10.562770562770565,84.40677966101696,10.649350649350652,85.42372881355932,10.649350649350652C86.4406779661017,10.649350649350652,87.45762711864407,10.649350649350652,88.47457627118645,10.649350649350652C89.49152542372882,10.649350649350652,90.50847457627118,11.601731601731602,91.52542372881355,11.948051948051948C92.54237288135593,12.294372294372298,93.55932203389831,12.467532467532468,94.57627118644069,12.72727272727273C95.59322033898306,12.987012987012989,96.61016949152543,13.506493506493506,97.62711864406779,13.506493506493506C98.64406779661016,13.506493506493506,99.66101694915254,12.467532467532468,100.6779661016949,12.467532467532468C101.69491525423729,12.467532467532468,102.71186440677965,13.593073593073592,103.72881355932203,14.025974025974026C104.7457627118644,14.458874458874458,105.76271186440678,14.891774891774896,106.77966101694915,15.064935064935066C107.79661016949153,15.238095238095237,108.8135593220339,15.15151515151515,109.83050847457628,15.324675324675322C110.84745762711864,15.497835497835492,111.86440677966102,16.363636363636363,112.88135593220339,16.883116883116884C113.89830508474576,17.402597402597404,114.91525423728814,18.051948051948052,115.9322033898305,18.441558441558442C116.94915254237289,18.83116883116883,117.96610169491525,19.004329004329005,118.98305084745763,19.22077922077922C120,19.437229437229437,121.01694915254237,19.74025974025974,122.03389830508473,19.74025974025974C123.05084745762711,19.74025974025974,124.0677966101695,19.48051948051948,125.08474576271188,19.48051948051948C126.10169491525424,19.48051948051948,127.11864406779662,19.48051948051948,128.135593220339,19.48051948051948C129.15254237288136,19.48051948051948,130.16949152542372,19.48051948051948,131.1864406779661,19.48051948051948C132.20338983050846,19.48051948051948,133.22033898305085,21.298701298701303,134.23728813559322,21.298701298701303C135.25423728813558,21.298701298701303,136.27118644067798,19.783549783549784,137.28813559322035,19.22077922077922C138.3050847457627,18.658008658008658,139.3220338983051,17.92207792207792,140.33898305084747,17.92207792207792C141.35593220338984,17.92207792207792,142.3728813559322,19.48051948051948,143.38983050847457,20C144.40677966101694,20.519480519480524,145.42372881355934,20.779220779220783,146.4406779661017,21.03896103896104C147.45762711864407,21.2987012987013,148.47457627118644,21.341991341991342,149.4915254237288,21.558441558441558C150.50847457627117,21.774891774891774,151.52542372881356,22.33766233766234,152.54237288135593,22.33766233766234C153.5593220338983,22.33766233766234,154.5762711864407,21.558441558441558,155.59322033898306,21.558441558441558C156.61016949152543,21.558441558441558,157.6271186440678,24.11255411255412,158.64406779661016,25.454545454545453C159.66101694915253,26.796536796536802,160.67796610169492,28.484848484848484,161.6949152542373,29.61038961038961C162.71186440677965,30.735930735930737,163.72881355932205,31.558441558441558,164.74576271186442,32.20779220779221C165.76271186440678,32.857142857142854,166.77966101694915,33.16017316017316,167.79661016949152,33.506493506493506C168.81355932203388,33.85281385281385,169.83050847457628,33.76623376623377,170.84745762711864,34.28571428571429C171.864406779661,34.805194805194816,172.8813559322034,36.45021645021645,173.89830508474577,37.4025974025974C174.91525423728814,38.35497835497835,175.93220338983053,40,176.9491525423729,40C177.96610169491527,40,178.98305084745763,39.35064935064935,180,38.701298701298704"></path><path class="axis-ceiling" stroke-width="1" stroke="black" fill="none" d="M175,0L180,0"></path><text class="axis-ceiling-label" font-family="sans-serif" text-anchor="end" font-size="10px" x="170" y="2.5">100</text></g></svg>