<svg xmlns="http://www.w3.org/2000/svg" viewBox="0 0 180 60"><g transform="translate(0,20)"><path class="area" fill="rgba(0, 0, 0, 0.2)" d="M0,14.339622641509436C1.0344827586206897,11.19496855345912,2.068965517241379,8.050314465408803,3.103448275862069,8.050314465408803C4.137931034482759,8.050314465408803,5.172413793103448,10.775681341719078,6.206896551724138,12.327044025157235C7.241379310344827,13.87840670859539,8.275862068965516,17.023060796645705,9.310344827586206,17.358490566037737C10.344827586206897,17.69392033542977,11.379310344827585,17.526205450733755,12.413793103448276,17.861635220125788C13.448275862068966,18.19706498951782,14.482758620689655,40,15.517241379310345,40C16.551724137931036,40,17.586206896551722,21.59329140461216,18.620689655172413,16.10062893081761C19.655172413793103,10.607966457023055,20.689655172413794,9.392033542976938,21.724137931034484,7.044025157232703C22.758620689655174,4.69601677148847,23.79310344827586,2.012578616352201,24.82758620689655,2.012578616352201C25.862068965517242,2.012578616352201,26.896551724137932,9.979035639413002,27.931034482758623,10.817610062893085C28.965517241379313,11.656184486373167,30,12.075471698113208,31.03448275862069,12.075471698113208C32.06896551724138,12.075471698113208,33.103448275862064,5.534591194968552,34.137931034482754,5.534591194968552C35.172413793103445,5.534591194968552,36.206896551724135,18.61635220125786,37.241379310344826,18.61635220125786C38.275862068965516,18.61635220125786,39.310344827586206,8.72117400419287,40.3448275862069,7.547169811320753C41.37931034482759,6.3731656184486365,42.41379310344828,6.624737945492661,43.44827586206897,5.786163522012577C44.48275862068966,4.947589098532494,45.51724137931035,2.515723270440251,46.55172413793104,2.515723270440251C47.58620689655173,2.515723270440251,48.62068965517241,9.811320754716979,49.6551724137931,9.811320754716979C50.689655172413794,9.811320754716979,51.72413793103448,9.056603773584904,52.75862068965517,9.056603773584904C53.79310344827586,9.056603773584904,54.827586206896555,9.308176100628929,55.862068965517246,9.308176100628929C56.896551724137936,9.308176100628929,57.93103448275862,7.63102725366876,58.96551724137931,7.295597484276728C60,6.960167714884695,61.03448275862069,7.044025157232704,62.06896551724138,6.792452830188678C63.10344827586207,6.540880503144653,64.13793103448276,6.457023060796645,65.17241379310344,5.786163522012577C66.20689655172413,5.11530398322851,67.24137931034483,2.515723270440251,68.27586206896551,2.515723270440251C69.3103448275862,2.515723270440251,70.34482758620689,5.786163522012577,71.37931034482759,5.786163522012577C72.41379310344827,5.786163522012577,73.44827586206897,5.786163522012577,74.48275862068965,5.786163522012577C75.51724137931033,5.786163522012577,76.55172413793103,5.283018867924527,77.58620689655172,5.283018867924527C78.62068965517241,5.283018867924527,79.6551724137931,12.075471698113208,80.6896551724138,12.075471698113208C81.72413793103448,12.075471698113208,82.75862068965517,5.031446540880495,83.79310344827586,3.5220125786163514C84.82758620689656,2.012578616352201,85.86206896551724,1.2578616352201255,86.89655172413794,1.2578616352201255C87.93103448275862,1.2578616352201255,88.96551724137932,2.767295597484276,90,2.767295597484276C91.0344827586207,2.767295597484276,92.06896551724138,2.515723270440251,93.10344827586208,2.515723270440251C94.13793103448276,2.515723270440251,95.17241379310344,4.528301886792452,96.20689655172413,4.528301886792452C97.24137931034483,4.528301886792452,98.27586206896551,3.018867924528301,99.3103448275862,3.018867924528301C100.3448275862069,3.018867924528301,101.37931034482759,9.308176100628929,102.41379310344828,9.308176100628929C103.44827586206897,9.308176100628929,104.48275862068965,4.192872117400417,105.51724137931033,4.025157232704402C106.55172413793103,3.857442348008385,107.58620689655172,3.941299790356393,108.62068965517241,3.7735849056603765C109.65517241379311,3.60587002096436,110.6896551724138,1.7610062893081757,111.72413793103449,1.7610062893081757C112.75862068965517,1.7610062893081757,113.79310344827587,1.7610062893081757,114.82758620689656,1.7610062893081757C115.86206896551724,1.7610062893081757,116.89655172413794,2.348008385744235,117.93103448275862,2.515723270440251C118.96551724137932,2.6834381551362676,120,2.767295597484276,121.0344827586207,2.767295597484276C122.06896551724138,2.767295597484276,123.10344827586208,2.767295597484276,124.13793103448276,2.767295597484276C125.17241379310344,2.767295597484276,126.20689655172414,2.264150943396226,127.24137931034483,2.012578616352201C128.27586206896552,1.7610062893081757,129.3103448275862,1.4255765199161408,130.3448275862069,1.2578616352201255C131.3793103448276,1.0901467505241087,132.41379310344828,1.0062893081761004,133.44827586206898,1.0062893081761004C134.48275862068965,1.0062893081761004,135.51724137931035,1.593291404612162,136.55172413793102,1.7610062893081757C137.58620689655172,1.9287211740041925,138.6206896551724,1.928721174004192,139.6551724137931,2.012578616352201C140.6896551724138,2.096436058700209,141.72413793103448,2.1802935010482174,142.75862068965517,2.264150943396226C143.79310344827587,2.3480083857442344,144.82758620689654,2.515723270440251,145.86206896551724,2.515723270440251C146.89655172413794,2.515723270440251,147.9310344827586,2.4318658280922425,148.9655172413793,2.264150943396226C150,2.0964360587002075,151.0344827586207,0.7547169811320753,152.0689655172414,0.7547169811320753C153.10344827586206,0.7547169811320753,154.13793103448276,1.0482180293501073,155.17241379310343,1.2578616352201255C156.20689655172413,1.4675052410901477,157.24137931034483,1.844863731656184,158.27586206896552,2.012578616352201C159.31034482758622,2.180293501048216,160.3448275862069,2.264150943396226,161.3793103448276,2.264150943396226C162.41379310344828,2.264150943396226,163.44827586206895,1.7610062893081757,164.48275862068965,1.7610062893081757C165.51724137931035,1.7610062893081757,166.55172413793102,4.779874213836477,167.58620689655172,4.779874213836477C168.6206896551724,4.779874213836477,169.6551724137931,1.2578616352201255,170.6896551724138,1.2578616352201255C171.7241379310345,1.2578616352201255,172.75862068965517,1.2578616352201255,173.79310344827587,1.2578616352201255C174.82758620689657,1.2578616352201255,175.86206896551724,1.0062893081761004,176.89655172413794,1.0062893081761004C177.93103448275863,1.0062893081761004,178.9655172413793,1.5094339622641506,180,2.012578616352201L180,40C178.9655172413793,40,177.93103448275863,40,176.89655172413794,40C175.86206896551724,40,174.82758620689657,40,173.79310344827587,40C172.75862068965517,40,171.7241379310345,40,170.6896551724138,40C169.6551724137931,40,168.6206896551724,40,167.58620689655172,40C166.55172413793102,40,165.51724137931035,40,164.48275862068965,40C163.44827586206895,40,162.41379310344828,40,161.3793103448276,40C160.3448275862069,40,159.31034482758622,40,158.27586206896552,40C157.24137931034483,40,156.20689655172413,40,155.17241379310343,40C154.13793103448276,40,153.10344827586206,40,152.0689655172414,40C151.0344827586207,40,150,40,148.9655172413793,40C147.9310344827586,40,146.89655172413794,40,145.86206896551724,40C144.82758620689654,40,143.79310344827587,40,142.75862068965517,40C141.72413793103448,40,140.6896551724138,40,139.6551724137931,40C138.6206896551724,40,137.58620689655172,40,136.55172413793102,40C135.51724137931035,40,134.48275862068965,40,133.44827586206898,40C132.41379310344828,40,131.3793103448276,40,130.3448275862069,40C129.3103448275862,40,128.27586206896552,40,127.24137931034483,40C126.20689655172414,40,125.17241379310344,40,124.13793103448276,40C123.10344827586208,40,122.06896551724138,40,121.0344827586207,40C120,40,118.96551724137932,40,117.93103448275862,40C116.89655172413794,40,115.86206896551724,40,114.82758620689656,40C113.79310344827587,40,112.75862068965517,40,111.72413793103449,40C110.6896551724138,40,109.65517241379311,40,108.62068965517241,40C107.58620689655172,40,106.55172413793103,40,105.51724137931033,40C104.48275862068965,40,103.44827586206897,40,102.41379310344828,40C101.37931034482759,40,100.3448275862069,40,99.3103448275862,40C98.27586206896551,40,97.24137931034483,40,96.20689655172413,40C95.17241379310344,40,94.13793103448276,40,93.10344827586208,40C92.06896551724138,40,91.0344827586207,40,90,40C88.96551724137932,40,87.93103448275862,40,86.89655172413794,40C85.86206896551724,40,84.82758620689656,40,83.79310344827586,40C82.75862068965517,40,81.72413793103448,40,80.6896551724138,40C79.6551724137931,40,78.62068965517241,40,77.58620689655172,40C76.55172413793103,40,75.51724137931033,40,74.48275862068965,40C73.44827586206897,40,72.41379310344827,40,71.37931034482759,40C70.34482758620689,40,69.3103448275862,40,68.27586206896551,40C67.24137931034483,40,66.20689655172413,40,65.17241379310344,40C64.13793103448276,40,63.10344827586207,40,62.06896551724138,40C61.03448275862069,40,60,40,58.96551724137931,40C57.93103448275862,40,56.896551724137936,40,55.862068965517246,40C54.827586206896555,40,53.79310344827586,40,52.75862068965517,40C51.72413793103448,40,50.689655172413794,40,49.6551724137931,40C48.62068965517241,40,47.58620689655173,40,46.55172413793104,40C45.51724137931035,40,44.48275862068966,40,43.44827586206897,40C42.41379310344828,40,41.37931034482759,40,40.3448275862069,40C39.310344827586206,40,38.275862068965516,40,37.241379310344826,40C36.206896551724135,40,35.172413793103445,40,34.137931034482754,40C33.103448275862064,40,32.06896551724138,40,31.03448275862069,40C30,40,28.965517241379313,40,27.931034482758623,40C26.896551724137932,40,25.862068965517242,40,24.82758620689655,40C23.79310344827586,40,22.758620689655174,40,21.724137931034484,40C20.689655172413794,40,19.655172413793103,40,18.620689655172413,40C17.586206896551722,40,16.551724137931036,40,15.517241379310345,40C14.482758620689655,40,13.448275862068966,40,12.413793103448276,40C11.379310344827585,40,10.344827586206897,40,9.310344827586206,40C8.275862068965516,40,7.241379310344827,40,6.206896551724138,40C5.172413793103448,40,4.137931034482759,40,3.103448275862069,40C2.068965517241379,40,1.0344827586206897,40,0,40Z"></path><path class="line" stroke="black" fill="none" d="M0,14.339622641509436C1.0344827586206897,11.19496855345912,2.068965517241379,8.050314465408803,3.103448275862069,8.050314465408803C4.137931034482759,8.050314465408803,5.172413793103448,10.775681341719078,6.206896551724138,12.327044025157235C7.241379310344827,13.87840670859539,8.275862068965516,17.023060796645705,9.310344827586206,17.358490566037737C10.344827586206897,17.69392033542977,11.379310344827585,17.526205450733755,12.413793103448276,17.861635220125788C13.448275862068966,18.19706498951782,14.482758620689655,40,15.517241379310345,40C16.551724137931036,40,17.586206896551722,21.59329140461216,18.620689655172413,16.10062893081761C19.655172413793103,10.607966457023055,20.689655172413794,9.392033542976938,21.724137931034484,7.044025157232703C22.758620689655174,4.69601677148847,23.79310344827586,2.012578616352201,24.82758620689655,2.012578616352201C25.862068965517242,2.012578616352201,26.896551724137932,9.979035639413002,27.931034482758623,10.817610062893085C28.965517241379313,11.656184486373167,30,12.075471698113208,31.03448275862069,12.075471698113208C32.06896551724138,12.075471698113208,33.103448275862064,5.534591194968552,34.137931034482754,5.534591194968552C35.172413793103445,5.534591194968552,36.206896551724135,18.61635220125786,37.241379310344826,18.61635220125786C38.275862068965516,18.61635220125786,39.310344827586206,8.72117400419287,40.3448275862069,7.547169811320753C41.37931034482759,6.3731656184486365,42.41379310344828,6.624737945492661,43.44827586206897,5.786163522012577C44.48275862068966,4.947589098532494,45.51724137931035,2.515723270440251,46.55172413793104,2.515723270440251C47.58620689655173,2.515723270440251,48.62068965517241,9.811320754716979,49.6551724137931,9.811320754716979C50.689655172413794,9.811320754716979,51.72413793103448,9.056603773584904,52.75862068965517,9.056603773584904C53.79310344827586,9.056603773584904,54.827586206896555,9.308176100628929,55.862068965517246,9.308176100628929C56.896551724137936,9.308176100628929,57.93103448275862,7.63102725366876,58.96551724137931,7.295597484276728C60,6.960167714884695,61.03448275862069,7.044025157232704,62.06896551724138,6.792452830188678C63.10344827586207,6.540880503144653,64.13793103448276,6.457023060796645,65.17241379310344,5.786163522012577C66.20689655172413,5.11530398322851,67.24137931034483,2.515723270440251,68.27586206896551,2.515723270440251C69.3103448275862,2.515723270440251,70.34482758620689,5.786163522012577,71.37931034482759,5.786163522012577C72.41379310344827,5.786163522012577,73.44827586206897,5.786163522012577,74.48275862068965,5.786163522012577C75.51724137931033,5.786163522012577,76.55172413793103,5.283018867924527,77.58620689655172,5.283018867924527C78.62068965517241,5.283018867924527,79.6551724137931,12.075471698113208,80.6896551724138,12.075471698113208C81.72413793103448,12.075471698113208,82.75862068965517,5.031446540880495,83.79310344827586,3.5220125786163514C84.82758620689656,2.012578616352201,85.86206896551724,1.2578616352201255,86.89655172413794,1.2578616352201255C87.93103448275862,1.2578616352201255,88.96551724137932,2.767295597484276,90,2.767295597484276C91.0344827586207,2.767295597484276,92.06896551724138,2.515723270440251,93.10344827586208,2.515723270440251C94.13793103448276,2.515723270440251,95.17241379310344,4.528301886792452,96.20689655172413,4.528301886792452C97.24137931034483,4.528301886792452,98.27586206896551,3.018867924528301,99.3103448275862,3.018867924528301C100.3448275862069,3.018867924528301,101.37931034482759,9.308176100628929,102.41379310344828,9.308176100628929C103.44827586206897,9.308176100628929,104.48275862068965,4.192872117400417,105.51724137931033,4.025157232704402C106.55172413793103,3.857442348008385,107.58620689655172,3.941299790356393,108.62068965517241,3.7735849056603765C109.65517241379311,3.60587002096436,110.6896551724138,1.7610062893081757,111.72413793103449,1.7610062893081757C112.75862068965517,1.7610062893081757,113.79310344827587,1.7610062893081757,114.82758620689656,1.7610062893081757C115.86206896551724,1.7610062893081757,116.89655172413794,2.348008385744235,117.93103448275862,2.515723270440251C118.96551724137932,2.6834381551362676,120,2.767295597484276,121.0344827586207,2.767295597484276C122.06896551724138,2.767295597484276,123.10344827586208,2.767295597484276,124.13793103448276,2.767295597484276C125.17241379310344,2.767295597484276,126.20689655172414,2.264150943396226,127.24137931034483,2.012578616352201C128.27586206896552,1.7610062893081757,129.3103448275862,1.4255765199161408,130.3448275862069,1.2578616352201255C131.3793103448276,1.0901467505241087,132.41379310344828,1.0062893081761004,133.44827586206898,1.0062893081761004C134.48275862068965,1.0062893081761004,135.51724137931035,1.593291404612162,136.55172413793102,1.7610062893081757C137.58620689655172,1.9287211740041925,138.6206896551724,1.928721174004192,139.6551724137931,2.012578616352201C140.6896551724138,2.096436058700209,141.72413793103448,2.1802935010482174,142.75862068965517,2.264150943396226C143.79310344827587,2.3480083857442344,144.82758620689654,2.515723270440251,145.86206896551724,2.515723270440251C146.89655172413794,2.515723270440251,147.9310344827586,2.4318658280922425,148.9655172413793,2.264150943396226C150,2.0964360587002075,151.0344827586207,0.7547169811320753,152.0689655172414,0.7547169811320753C153.10344827586206,0.7547169811320753,154.13793103448276,1.0482180293501073,155.17241379310343,1.2578616352201255C156.20689655172413,1.4675052410901477,157.24137931034483,1.844863731656184,158.27586206896552,2.012578616352201C159.31034482758622,2.180293501048216,160.3448275862069,2.264150943396226,161.3793103448276,2.264150943396226C162.41379310344828,2.264150943396226,163.44827586206895,1.7610062893081757,164.48275862068965,1.7610062893081757C165.51724137931035,1.7610062893081757,166.55172413793102,4.779874213836477,167.58620689655172,4.779874213836477C168.6206896551724,4.779874213836477,169.6551724137931,1.2578616352201255,170.6896551724138,1.2578616352201255C171.7241379310345,1.2578616352201255,172.75862068965517,1.2578616352201255,173.79310344827587,1.2578616352201255C174.82758620689657,1.2578616352201255,175.86206896551724,1.0062893081761004,176.89655172413794,1.0062893081761004C177.93103448275863,1.0062893081761004,178.9655172413793,1.5094339622641506,180,2.012578616352201"></path><path class="axis-ceiling" stroke-width="1" stroke="black" fill="none" d="M175,0L180,0"></path><text class="axis-ceiling-label" font-family="sans-serif" text-anchor="end" font-size="10px" x="170" y="2.5">5</text></g></svg>