<svg xmlns="http://www.w3.org/2000/svg" viewBox="0 0 180 60"><g transform="translate(0,20)"><path class="area" fill="rgba(0, 0, 0, 0.2)" d="M0,7.717333333333332C1.0169491525423728,7.630444444444444,2.0338983050847457,7.543555555555556,3.0508474576271185,7.456C4.067796610169491,7.368444444444445,5.084745762711864,7.279111111111109,6.101694915254237,7.191999999999998C7.11864406779661,7.104888888888887,8.135593220338983,7.017555555555555,9.152542372881356,6.933333333333334C10.169491525423728,6.849111111111112,11.186440677966102,6.768222222222223,12.203389830508474,6.686666666666667C13.220338983050846,6.605111111111112,14.23728813559322,6.524444444444446,15.254237288135592,6.444000000000001C16.271186440677965,6.363555555555556,17.28813559322034,6.2826666666666675,18.305084745762713,6.204000000000001C19.322033898305087,6.125333333333334,20.338983050847457,6.049111111111111,21.35593220338983,5.9719999999999995C22.372881355932204,5.894888888888888,23.389830508474574,5.816444444444443,24.406779661016948,5.741333333333332C25.423728813559322,5.6662222222222205,26.440677966101696,5.592888888888889,27.45762711864407,5.521333333333334C28.47457627118644,5.449777777777778,29.491525423728813,5.381333333333334,30.508474576271183,5.312000000000001C31.525423728813557,5.242666666666668,32.54237288135593,5.172444444444446,33.559322033898304,5.105333333333335C34.57627118644068,5.038222222222224,35.59322033898305,4.9733333333333345,36.610169491525426,4.909333333333334C37.6271186440678,4.845333333333334,38.644067796610166,4.78311111111111,39.66101694915254,4.721333333333333C40.67796610169491,4.6595555555555555,41.69491525423729,4.5980000000000025,42.71186440677966,4.538666666666669C43.728813559322035,4.479333333333336,44.7457627118644,4.41911111111111,45.762711864406775,4.365333333333332C46.77966101694915,4.311555555555555,47.79661016949152,4.264666666666669,48.813559322033896,4.216000000000002C49.83050847457627,4.167333333333335,50.847457627118644,4.1193333333333335,51.86440677966102,4.073333333333333C52.88135593220339,4.027333333333333,53.898305084745765,3.983111111111112,54.91525423728814,3.9400000000000013C55.93220338983051,3.8968888888888906,56.94915254237288,3.856444444444447,57.96610169491525,3.8146666666666684C58.983050847457626,3.77288888888889,59.99999999999999,3.730888888888887,61.01694915254237,3.689333333333331C62.03389830508474,3.6477777777777747,63.05084745762712,3.606888888888887,64.0677966101695,3.5653333333333315C65.08474576271186,3.5237777777777763,66.10169491525424,3.4822222222222203,67.11864406779661,3.4399999999999986C68.13559322033899,3.3977777777777765,69.15254237288136,3.3537777777777773,70.16949152542374,3.3119999999999994C71.1864406779661,3.270222222222222,72.20338983050848,3.229333333333333,73.22033898305085,3.189333333333333C74.23728813559322,3.149333333333333,75.2542372881356,3.1102222222222218,76.27118644067797,3.071999999999999C77.28813559322033,3.0337777777777766,78.30508474576271,2.9951111111111093,79.32203389830508,2.959999999999998C80.33898305084746,2.924888888888887,81.35593220338983,2.893333333333333,82.37288135593221,2.8613333333333335C83.38983050847457,2.8293333333333344,84.40677966101696,2.7984444444444465,85.42372881355932,2.7680000000000016C86.4406779661017,2.7375555555555566,87.45762711864407,2.707999999999999,88.47457627118645,2.6786666666666648C89.49152542372882,2.649333333333331,90.50847457627118,2.620666666666665,91.52542372881355,2.5919999999999987C92.54237288135593,2.563333333333332,93.55932203389831,2.533777777777777,94.57627118644069,2.506666666666666C95.59322033898306,2.479555555555555,96.61016949152543,2.45511111111111,97.62711864406779,2.4293333333333322C98.64406779661016,2.4035555555555543,99.66101694915254,2.377999999999999,100.6779661016949,2.3519999999999985C101.69491525423729,2.3259999999999983,102.71186440677965,2.299777777777776,103.72881355932203,2.2733333333333317C104.7457627118644,2.246888888888887,105.76271186440678,2.219777777777776,106.77966101694915,2.1933333333333316C107.79661016949153,2.166888888888887,108.8135593220339,2.14022222222222,109.83050847457628,2.1146666666666647C110.84745762711864,2.0891111111111096,111.86440677966102,2.0642222222222237,112.88135593220339,2.040000000000002C113.89830508474576,2.01577777777778,114.91525423728814,1.9926666666666677,115.9322033898305,1.969333333333334C116.94915254237289,1.9460000000000002,117.96610169491525,1.9226666666666667,118.98305084745763,1.8999999999999995C120,1.8773333333333324,121.01694915254237,1.8551111111111087,122.03389830508473,1.8333333333333313C123.05084745762711,1.8115555555555536,124.0677966101695,1.790444444444445,125.08474576271188,1.7693333333333339C126.10169491525424,1.748222222222223,127.11864406779662,1.7273333333333318,128.135593220339,1.7066666666666652C129.15254237288136,1.6859999999999986,130.16949152542372,1.6660000000000008,131.1864406779661,1.6453333333333342C132.20338983050846,1.6246666666666676,133.22033898305085,1.6028888888888877,134.23728813559322,1.5826666666666656C135.25423728813558,1.5624444444444434,136.27118644067798,1.5433333333333343,137.28813559322035,1.524000000000001C138.3050847457627,1.5046666666666675,139.3220338983051,1.4857777777777763,140.33898305084747,1.466666666666665C141.35593220338984,1.447555555555554,142.3728813559322,1.428444444444444,143.38983050847457,1.4093333333333335C144.40677966101694,1.390222222222223,145.42372881355934,1.3704444444444468,146.4406779661017,1.352000000000002C147.45762711864407,1.3335555555555576,148.47457627118644,1.3171111111111102,149.4915254237288,1.2986666666666657C150.50847457627117,1.280222222222221,151.52542372881356,1.2606666666666677,152.54237288135593,1.2413333333333343C153.5593220338983,1.2220000000000009,154.5762711864407,1.2026666666666652,155.59322033898306,1.1826666666666652C156.61016949152543,1.1626666666666652,157.6271186440678,1.1415555555555563,158.64406779661016,1.1213333333333342C159.66101694915253,1.1011111111111118,160.67796610169492,1.0808888888888875,161.6949152542373,1.061333333333332C162.71186440677965,1.0417777777777764,163.72881355932205,1.0222222222222221,164.74576271186442,1.0040000000000004C165.76271186440678,0.9857777777777789,166.77966101694915,0.9702222222222241,167.79661016949152,0.9520000000000017C168.81355932203388,0.9337777777777793,169.83050847457628,0.9133333333333327,170.84745762711864,0.8946666666666658C171.864406779661,0.875999999999999,172.8813559322034,0.8577777777777781,173.89830508474577,0.8400000000000007C174.91525423728814,0.8222222222222234,175.93220338983053,0.8037777777777804,176.9491525423729,0.788000000000002C177.96610169491527,0.7722222222222238,178.98305084745763,0.7587777777777776,180,0.7453333333333312L180,40C178.98305084745763,40,177.96610169491527,40,176.9491525423729,40C175.93220338983053,40,174.91525423728814,40,173.89830508474577,40C172.8813559322034,40,171.864406779661,40,170.84745762711864,40C169.83050847457628,40,168.81355932203388,40,167.79661016949152,40C166.77966101694915,40,165.76271186440678,40,164.74576271186442,40C163.72881355932205,40,162.71186440677965,40,161.6949152542373,40C160.67796610169492,40,159.66101694915253,40,158.64406779661016,40C157.6271186440678,40,156.61016949152543,40,155.59322033898306,40C154.5762711864407,40,153.5593220338983,40,152.54237288135593,40C151.52542372881356,40,150.50847457627117,40,149.4915254237288,40C148.47457627118644,40,147.45762711864407,40,146.4406779661017,40C145.42372881355934,40,144.40677966101694,40,143.38983050847457,40C142.3728813559322,40,141.35593220338984,40,140.33898305084747,40C139.3220338983051,40,138.3050847457627,40,137.28813559322035,40C136.27118644067798,40,135.25423728813558,40,134.23728813559322,40C133.22033898305085,40,132.20338983050846,40,131.1864406779661,40C130.16949152542372,40,129.15254237288136,40,128.135593220339,40C127.11864406779662,40,126.10169491525424,40,125.08474576271188,40C124.0677966101695,40,123.05084745762711,40,122.03389830508473,40C121.01694915254237,40,120,40,118.98305084745763,40C117.96610169491525,40,116.94915254237289,40,115.9322033898305,40C114.91525423728814,40,113.89830508474576,40,112.88135593220339,40C111.86440677966102,40,110.84745762711864,40,109.83050847457628,40C108.8135593220339,40,107.79661016949153,40,106.77966101694915,40C105.76271186440678,40,104.7457627118644,40,103.72881355932203,40C102.71186440677965,40,101.69491525423729,40,100.6779661016949,40C99.66101694915254,40,98.64406779661016,40,97.62711864406779,40C96.61016949152543,40,95.59322033898306,40,94.57627118644069,40C93.55932203389831,40,92.54237288135593,40,91.52542372881355,40C90.50847457627118,40,89.49152542372882,40,88.47457627118645,40C87.45762711864407,40,86.4406779661017,40,85.42372881355932,40C84.40677966101696,40,83.38983050847457,40,82.37288135593221,40C81.35593220338983,40,80.33898305084746,40,79.32203389830508,40C78.30508474576271,40,77.28813559322033,40,76.27118644067797,40C75.2542372881356,40,74.23728813559322,40,73.22033898305085,40C72.20338983050848,40,71.1864406779661,40,70.16949152542374,40C69.15254237288136,40,68.13559322033899,40,67.11864406779661,40C66.10169491525424,40,65.08474576271186,40,64.0677966101695,40C63.05084745762712,40,62.03389830508474,40,61.01694915254237,40C59.99999999999999,40,58.983050847457626,40,57.96610169491525,40C56.94915254237288,40,55.93220338983051,40,54.91525423728814,40C53.898305084745765,40,52.88135593220339,40,51.86440677966102,40C50.847457627118644,40,49.83050847457627,40,48.813559322033896,40C47.79661016949152,40,46.77966101694915,40,45.762711864406775,40C44.7457627118644,40,43.728813559322035,40,42.71186440677966,40C41.69491525423729,40,40.67796610169491,40,39.66101694915254,40C38.644067796610166,40,37.6271186440678,40,36.610169491525426,40C35.59322033898305,40,34.57627118644068,40,33.559322033898304,40C32.54237288135593,40,31.525423728813557,40,30.508474576271183,40C29.491525423728813,40,28.47457627118644,40,27.45762711864407,40C26.440677966101696,40,25.423728813559322,40,24.406779661016948,40C23.389830508474574,40,22.372881355932204,40,21.35593220338983,40C20.338983050847457,40,19.322033898305087,40,18.305084745762713,40C17.28813559322034,40,16.271186440677965,40,15.254237288135592,40C14.23728813559322,40,13.220338983050846,40,12.203389830508474,40C11.186440677966102,40,10.169491525423728,40,9.152542372881356,40C8.135593220338983,40,7.11864406779661,40,6.101694915254237,40C5.084745762711864,40,4.067796610169491,40,3.0508474576271185,40C2.0338983050847457,40,1.0169491525423728,40,0,40Z"></path><path class="line" stroke="black" fill="none" d="M0,7.717333333333332C1.0169491525423728,7.630444444444444,2.0338983050847457,7.543555555555556,3.0508474576271185,7.456C4.067796610169491,7.368444444444445,5.084745762711864,7.279111111111109,6.101694915254237,7.191999999999998C7.11864406779661,7.104888888888887,8.135593220338983,7.017555555555555,9.152542372881356,6.933333333333334C10.169491525423728,6.849111111111112,11.186440677966102,6.768222222222223,12.203389830508474,6.686666666666667C13.220338983050846,6.605111111111112,14.23728813559322,6.524444444444446,15.254237288135592,6.444000000000001C16.271186440677965,6.363555555555556,17.28813559322034,6.2826666666666675,18.305084745762713,6.204000000000001C19.322033898305087,6.125333333333334,20.338983050847457,6.049111111111111,21.35593220338983,5.9719999999999995C22.372881355932204,5.894888888888888,23.389830508474574,5.816444444444443,24.406779661016948,5.741333333333332C25.423728813559322,5.6662222222222205,26.440677966101696,5.592888888888889,27.45762711864407,5.521333333333334C28.47457627118644,5.449777777777778,29.491525423728813,5.381333333333334,30.508474576271183,5.312000000000001C31.525423728813557,5.242666666666668,32.54237288135593,5.172444444444446,33.559322033898304,5.105333333333335C34.57627118644068,5.038222222222224,35.59322033898305,4.9733333333333345,36.610169491525426,4.909333333333334C37.6271186440678,4.845333333333334,38.644067796610166,4.78311111111111,39.66101694915254,4.721333333333333C40.67796610169491,4.6595555555555555,41.69491525423729,4.5980000000000025,42.71186440677966,4.538666666666669C43.728813559322035,4.479333333333336,44.7457627118644,4.41911111111111,45.762711864406775,4.365333333333332C46.77966101694915,4.311555555555555,47.79661016949152,4.264666666666669,48.813559322033896,4.216000000000002C49.83050847457627,4.167333333333335,50.847457627118644,4.1193333333333335,51.86440677966102,4.073333333333333C52.88135593220339,4.027333333333333,53.898305084745765,3.983111111111112,54.91525423728814,3.9400000000000013C55.93220338983051,3.8968888888888906,56.94915254237288,3.856444444444447,57.96610169491525,3.8146666666666684C58.983050847457626,3.77288888888889,59.99999999999999,3.730888888888887,61.01694915254237,3.689333333333331C62.03389830508474,3.6477777777777747,63.05084745762712,3.606888888888887,64.0677966101695,3.5653333333333315C65.08474576271186,3.5237777777777763,66.10169491525424,3.4822222222222203,67.11864406779661,3.4399999999999986C68.13559322033899,3.3977777777777765,69.15254237288136,3.3537777777777773,70.16949152542374,3.3119999999999994C71.1864406779661,3.270222222222222,72.20338983050848,3.229333333333333,73.22033898305085,3.189333333333333C74.23728813559322,3.149333333333333,75.2542372881356,3.1102222222222218,76.27118644067797,3.071999999999999C77.28813559322033,3.0337777777777766,78.30508474576271,2.9951111111111093,79.32203389830508,2.959999999999998C80.33898305084746,2.924888888888887,81.35593220338983,2.893333333333333,82.37288135593221,2.8613333333333335C83.38983050847457,2.8293333333333344,84.40677966101696,2.7984444444444465,85.42372881355932,2.7680000000000016C86.4406779661017,2.7375555555555566,87.45762711864407,2.707999999999999,88.47457627118645,2.6786666666666648C89.49152542372882,2.649333333333331,90.50847457627118,2.620666666666665,91.52542372881355,2.5919999999999987C92.54237288135593,2.563333333333332,93.55932203389831,2.533777777777777,94.57627118644069,2.506666666666666C95.59322033898306,2.479555555555555,96.61016949152543,2.45511111111111,97.62711864406779,2.4293333333333322C98.64406779661016,2.4035555555555543,99.66101694915254,2.377999999999999,100.6779661016949,2.3519999999999985C101.69491525423729,2.3259999999999983,102.71186440677965,2.299777777777776,103.72881355932203,2.2733333333333317C104.7457627118644,2.246888888888887,105.76271186440678,2.219777777777776,106.77966101694915,2.1933333333333316C107.79661016949153,2.166888888888887,108.8135593220339,2.14022222222222,109.83050847457628,2.1146666666666647C110.84745762711864,2.0891111111111096,111.86440677966102,2.0642222222222237,112.88135593220339,2.040000000000002C113.89830508474576,2.01577777777778,114.91525423728814,1.9926666666666677,115.9322033898305,1.969333333333334C116.94915254237289,1.9460000000000002,117.96610169491525,1.9226666666666667,118.98305084745763,1.8999999999999995C120,1.8773333333333324,121.01694915254237,1.8551111111111087,122.03389830508473,1.8333333333333313C123.05084745762711,1.8115555555555536,124.0677966101695,1.790444444444445,125.08474576271188,1.7693333333333339C126.10169491525424,1.748222222222223,127.11864406779662,1.7273333333333318,128.135593220339,1.7066666666666652C129.15254237288136,1.6859999999999986,130.16949152542372,1.6660000000000008,131.1864406779661,1.6453333333333342C132.20338983050846,1.6246666666666676,133.22033898305085,1.6028888888888877,134.23728813559322,1.5826666666666656C135.25423728813558,1.5624444444444434,136.27118644067798,1.5433333333333343,137.28813559322035,1.524000000000001C138.3050847457627,1.5046666666666675,139.3220338983051,1.4857777777777763,140.33898305084747,1.466666666666665C141.35593220338984,1.447555555555554,142.3728813559322,1.428444444444444,143.38983050847457,1.4093333333333335C144.40677966101694,1.390222222222223,145.42372881355934,1.3704444444444468,146.4406779661017,1.352000000000002C147.45762711864407,1.3335555555555576,148.47457627118644,1.3171111111111102,149.4915254237288,1.2986666666666657C150.50847457627117,1.280222222222221,151.52542372881356,1.2606666666666677,152.54237288135593,1.2413333333333343C153.5593220338983,1.2220000000000009,154.5762711864407,1.2026666666666652,155.59322033898306,1.1826666666666652C156.61016949152543,1.1626666666666652,157.6271186440678,1.1415555555555563,158.64406779661016,1.1213333333333342C159.66101694915253,1.1011111111111118,160.67796610169492,1.0808888888888875,161.6949152542373,1.061333333333332C162.71186440677965,1.0417777777777764,163.72881355932205,1.0222222222222221,164.74576271186442,1.0040000000000004C165.76271186440678,0.9857777777777789,166.77966101694915,0.9702222222222241,167.79661016949152,0.9520000000000017C168.81355932203388,0.9337777777777793,169.83050847457628,0.9133333333333327,170.84745762711864,0.8946666666666658C171.864406779661,0.875999999999999,172.8813559322034,0.8577777777777781,173.89830508474577,0.8400000000000007C174.91525423728814,0.8222222222222234,175.93220338983053,0.8037777777777804,176.9491525423729,0.788000000000002C177.96610169491527,0.7722222222222238,178.98305084745763,0.7587777777777776,180,0.7453333333333312"></path><path class="axis-ceiling" stroke-width="1" stroke="black" fill="none" d="M175,0L180,0"></path><text class="axis-ceiling-label" font-family="sans-serif" text-anchor="end" font-size="10px" x="170" y="2.5">30000</text></g></svg>