<svg xmlns="http://www.w3.org/2000/svg" viewBox="0 0 180 60"><g transform="translate(0,20)"><path class="area" fill="rgba(0, 0, 0, 0.2)" d="M0,37.38927738927739C1.0169491525423728,37.257187257187255,2.0338983050847457,37.12509712509712,3.0508474576271185,37.06293706293706C4.067796610169491,37.000777000777,5.084745762711864,37.000777000777,6.101694915254237,36.96969696969697C7.11864406779661,36.93861693861694,8.135593220338983,36.93084693084693,9.152542372881356,36.87645687645688C10.169491525423728,36.82206682206682,11.186440677966102,36.7055167055167,12.203389830508474,36.64335664335664C13.220338983050846,36.58119658119658,14.23728813559322,36.57342657342657,15.254237288135592,36.50349650349651C16.271186440677965,36.43356643356644,17.28813559322034,36.31701631701632,18.305084745762713,36.22377622377623C19.322033898305087,36.130536130536136,20.338983050847457,36.03729603729604,21.35593220338983,35.94405594405595C22.372881355932204,35.850815850815856,23.389830508474574,35.73426573426573,24.406779661016948,35.66433566433567C25.423728813559322,35.59440559440559,26.440677966101696,35.56332556332557,27.45762711864407,35.52447552447553C28.47457627118644,35.48562548562549,29.491525423728813,35.4933954933955,30.508474576271183,35.43123543123543C31.525423728813557,35.36907536907536,32.54237288135593,35.22144522144522,33.559322033898304,35.10489510489511C34.57627118644068,34.98834498834499,35.59322033898305,34.88733488733489,36.610169491525426,34.73193473193473C37.6271186440678,34.57653457653457,38.644067796610166,34.36674436674436,39.66101694915254,34.17249417249417C40.67796610169491,33.978243978243974,41.69491525423729,33.73737373737374,42.71186440677966,33.56643356643357C43.728813559322035,33.395493395493396,44.7457627118644,33.28671328671329,45.762711864406775,33.14685314685315C46.77966101694915,33.00699300699301,47.79661016949152,32.9059829059829,48.813559322033896,32.72727272727273C49.83050847457627,32.54856254856255,50.847457627118644,32.30769230769231,51.86440677966102,32.074592074592076C52.88135593220339,31.841491841491845,53.898305084745765,31.592851592851595,54.91525423728814,31.32867132867133C55.93220338983051,31.064491064491065,56.94915254237288,30.730380730380734,57.96610169491525,30.489510489510494C58.983050847457626,30.248640248640253,59.99999999999999,30.132090132090134,61.01694915254237,29.883449883449885C62.03389830508474,29.634809634809635,63.05084745762712,29.29292929292929,64.0677966101695,28.997668997668995C65.08474576271186,28.7024087024087,66.10169491525424,28.414918414918414,67.11864406779661,28.111888111888113C68.13559322033899,27.80885780885781,69.15254237288136,27.552447552447557,70.16949152542374,27.179487179487182C71.1864406779661,26.80652680652681,72.20338983050848,26.247086247086248,73.22033898305085,25.874125874125873C74.23728813559322,25.5011655011655,75.2542372881356,25.314685314685313,76.27118644067797,24.94172494172494C77.28813559322033,24.568764568764564,78.30508474576271,23.91608391608391,79.32203389830508,23.636363636363633C80.33898305084746,23.356643356643357,81.35593220338983,23.434343434343436,82.37288135593221,23.216783216783217C83.38983050847457,22.999222999223,84.40677966101696,22.602952602952602,85.42372881355932,22.33100233100233C86.4406779661017,22.059052059052057,87.45762711864407,21.880341880341884,88.47457627118645,21.585081585081586C89.49152542372882,21.28982128982129,90.50847457627118,20.878010878010876,91.52542372881355,20.55944055944056C92.54237288135593,20.24087024087024,93.55932203389831,19.961149961149964,94.57627118644069,19.673659673659674C95.59322033898306,19.38616938616939,96.61016949152543,19.184149184149188,97.62711864406779,18.834498834498838C98.64406779661016,18.484848484848488,99.66101694915254,18.010878010878013,100.6779661016949,17.575757575757578C101.69491525423729,17.140637140637143,102.71186440677965,16.651126651126656,103.72881355932203,16.223776223776227C104.7457627118644,15.7964257964258,105.76271186440678,15.400155400155397,106.77966101694915,15.011655011655009C107.79661016949153,14.623154623154619,108.8135593220339,14.25019425019425,109.83050847457628,13.892773892773892C110.84745762711864,13.535353535353536,111.86440677966102,13.123543123543122,112.88135593220339,12.867132867132867C113.89830508474576,12.610722610722611,114.91525423728814,12.533022533022534,115.9322033898305,12.354312354312356C116.94915254237289,12.175602175602176,117.96610169491525,11.98135198135198,118.98305084745763,11.794871794871792C120,11.608391608391607,121.01694915254237,11.460761460761457,122.03389830508473,11.235431235431236C123.05084745762711,11.01010101010101,124.0677966101695,10.730380730380734,125.08474576271188,10.442890442890445C126.10169491525424,10.155400155400159,127.11864406779662,9.759129759129763,128.135593220339,9.510489510489514C129.15254237288136,9.261849261849266,130.16949152542372,9.19191919191919,131.1864406779661,8.95104895104895C132.20338983050846,8.710178710178708,133.22033898305085,8.383838383838382,134.23728813559322,8.065268065268064C135.25423728813558,7.746697746697746,136.27118644067798,7.358197358197357,137.28813559322035,7.039627039627039C138.3050847457627,6.721056721056721,139.3220338983051,6.4257964257964275,140.33898305084747,6.153846153846154C141.35593220338984,5.8818958818958835,142.3728813559322,5.67210567210567,143.38983050847457,5.407925407925407C144.40677966101694,5.143745143745142,145.42372881355934,4.84848484848485,146.4406779661017,4.5687645687645695C147.45762711864407,4.289044289044291,148.47457627118644,3.9393939393939372,149.4915254237288,3.7296037296037277C150.50847457627117,3.5198135198135163,151.52542372881356,3.4498834498834507,152.54237288135593,3.310023310023311C153.5593220338983,3.1701631701631716,154.5762711864407,3.030303030303031,155.59322033898306,2.8904428904428903C156.61016949152543,2.7505827505827507,157.6271186440678,2.6418026418026392,158.64406779661016,2.4708624708624694C159.66101694915253,2.2999222999222977,160.67796610169492,2.027972027972027,161.6949152542373,1.8648018648018638C162.71186440677965,1.7016317016317006,163.72881355932205,1.6317016317016306,164.74576271186442,1.4918414918414902C165.76271186440678,1.351981351981351,166.77966101694915,1.1577311577311578,167.79661016949152,1.0256410256410264C168.81355932203388,0.8935508935508939,169.83050847457628,0.800310800310801,170.84745762711864,0.6993006993007C171.864406779661,0.598290598290599,172.8813559322034,0.5050505050505069,173.89830508474577,0.4195804195804209C174.91525423728814,0.33411033411033497,175.93220338983053,0.256410256410255,176.9491525423729,0.1864801864801846C177.96610169491527,0.11655011655011485,178.98305084745763,0.05827505827505743,180,0L180,40C178.98305084745763,40,177.96610169491527,40,176.9491525423729,40C175.93220338983053,40,174.91525423728814,40,173.89830508474577,40C172.8813559322034,40,171.864406779661,40,170.84745762711864,40C169.83050847457628,40,168.81355932203388,40,167.79661016949152,40C166.77966101694915,40,165.76271186440678,40,164.74576271186442,40C163.72881355932205,40,162.71186440677965,40,161.6949152542373,40C160.67796610169492,40,159.66101694915253,40,158.64406779661016,40C157.6271186440678,40,156.61016949152543,40,155.59322033898306,40C154.5762711864407,40,153.5593220338983,40,152.54237288135593,40C151.52542372881356,40,150.50847457627117,40,149.4915254237288,40C148.47457627118644,40,147.45762711864407,40,146.4406779661017,40C145.42372881355934,40,144.40677966101694,40,143.38983050847457,40C142.3728813559322,40,141.35593220338984,40,140.33898305084747,40C139.3220338983051,40,138.3050847457627,40,137.28813559322035,40C136.27118644067798,40,135.25423728813558,40,134.23728813559322,40C133.22033898305085,40,132.20338983050846,40,131.1864406779661,40C130.16949152542372,40,129.15254237288136,40,128.135593220339,40C127.11864406779662,40,126.10169491525424,40,125.08474576271188,40C124.0677966101695,40,123.05084745762711,40,122.03389830508473,40C121.01694915254237,40,120,40,118.98305084745763,40C117.96610169491525,40,116.94915254237289,40,115.9322033898305,40C114.91525423728814,40,113.89830508474576,40,112.88135593220339,40C111.86440677966102,40,110.84745762711864,40,109.83050847457628,40C108.8135593220339,40,107.79661016949153,40,106.77966101694915,40C105.76271186440678,40,104.7457627118644,40,103.72881355932203,40C102.71186440677965,40,101.69491525423729,40,100.6779661016949,40C99.66101694915254,40,98.64406779661016,40,97.62711864406779,40C96.61016949152543,40,95.59322033898306,40,94.57627118644069,40C93.55932203389831,40,92.54237288135593,40,91.52542372881355,40C90.50847457627118,40,89.49152542372882,40,88.47457627118645,40C87.45762711864407,40,86.4406779661017,40,85.42372881355932,40C84.40677966101696,40,83.38983050847457,40,82.37288135593221,40C81.35593220338983,40,80.33898305084746,40,79.32203389830508,40C78.30508474576271,40,77.28813559322033,40,76.27118644067797,40C75.2542372881356,40,74.23728813559322,40,73.22033898305085,40C72.20338983050848,40,71.1864406779661,40,70.16949152542374,40C69.15254237288136,40,68.13559322033899,40,67.11864406779661,40C66.10169491525424,40,65.08474576271186,40,64.0677966101695,40C63.05084745762712,40,62.03389830508474,40,61.01694915254237,40C59.99999999999999,40,58.983050847457626,40,57.96610169491525,40C56.94915254237288,40,55.93220338983051,40,54.91525423728814,40C53.898305084745765,40,52.88135593220339,40,51.86440677966102,40C50.847457627118644,40,49.83050847457627,40,48.813559322033896,40C47.79661016949152,40,46.77966101694915,40,45.762711864406775,40C44.7457627118644,40,43.728813559322035,40,42.71186440677966,40C41.69491525423729,40,40.67796610169491,40,39.66101694915254,40C38.644067796610166,40,37.6271186440678,40,36.610169491525426,40C35.59322033898305,40,34.57627118644068,40,33.559322033898304,40C32.54237288135593,40,31.525423728813557,40,30.508474576271183,40C29.491525423728813,40,28.47457627118644,40,27.45762711864407,40C26.440677966101696,40,25.423728813559322,40,24.406779661016948,40C23.389830508474574,40,22.372881355932204,40,21.35593220338983,40C20.338983050847457,40,19.322033898305087,40,18.305084745762713,40C17.28813559322034,40,16.271186440677965,40,15.254237288135592,40C14.23728813559322,40,13.220338983050846,40,12.203389830508474,40C11.186440677966102,40,10.169491525423728,40,9.152542372881356,40C8.135593220338983,40,7.11864406779661,40,6.101694915254237,40C5.084745762711864,40,4.067796610169491,40,3.0508474576271185,40C2.0338983050847457,40,1.0169491525423728,40,0,40Z"></path><path class="line" stroke="black" fill="none" d="M0,37.38927738927739C1.0169491525423728,37.257187257187255,2.0338983050847457,37.12509712509712,3.0508474576271185,37.06293706293706C4.067796610169491,37.000777000777,5.084745762711864,37.000777000777,6.101694915254237,36.96969696969697C7.11864406779661,36.93861693861694,8.135593220338983,36.93084693084693,9.152542372881356,36.87645687645688C10.169491525423728,36.82206682206682,11.186440677966102,36.7055167055167,12.203389830508474,36.64335664335664C13.220338983050846,36.58119658119658,14.23728813559322,36.57342657342657,15.254237288135592,36.50349650349651C16.271186440677965,36.43356643356644,17.28813559322034,36.31701631701632,18.305084745762713,36.22377622377623C19.322033898305087,36.130536130536136,20.338983050847457,36.03729603729604,21.35593220338983,35.94405594405595C22.372881355932204,35.850815850815856,23.389830508474574,35.73426573426573,24.406779661016948,35.66433566433567C25.423728813559322,35.59440559440559,26.440677966101696,35.56332556332557,27.45762711864407,35.52447552447553C28.47457627118644,35.48562548562549,29.491525423728813,35.4933954933955,30.508474576271183,35.43123543123543C31.525423728813557,35.36907536907536,32.54237288135593,35.22144522144522,33.559322033898304,35.10489510489511C34.57627118644068,34.98834498834499,35.59322033898305,34.88733488733489,36.610169491525426,34.73193473193473C37.6271186440678,34.57653457653457,38.644067796610166,34.36674436674436,39.66101694915254,34.17249417249417C40.67796610169491,33.978243978243974,41.69491525423729,33.73737373737374,42.71186440677966,33.56643356643357C43.728813559322035,33.395493395493396,44.7457627118644,33.28671328671329,45.762711864406775,33.14685314685315C46.77966101694915,33.00699300699301,47.79661016949152,32.9059829059829,48.813559322033896,32.72727272727273C49.83050847457627,32.54856254856255,50.847457627118644,32.30769230769231,51.86440677966102,32.074592074592076C52.88135593220339,31.841491841491845,53.898305084745765,31.592851592851595,54.91525423728814,31.32867132867133C55.93220338983051,31.064491064491065,56.94915254237288,30.730380730380734,57.96610169491525,30.489510489510494C58.983050847457626,30.248640248640253,59.99999999999999,30.132090132090134,61.01694915254237,29.883449883449885C62.03389830508474,29.634809634809635,63.05084745762712,29.29292929292929,64.0677966101695,28.997668997668995C65.08474576271186,28.7024087024087,66.10169491525424,28.414918414918414,67.11864406779661,28.111888111888113C68.13559322033899,27.80885780885781,69.15254237288136,27.552447552447557,70.16949152542374,27.179487179487182C71.1864406779661,26.80652680652681,72.20338983050848,26.247086247086248,73.22033898305085,25.874125874125873C74.23728813559322,25.5011655011655,75.2542372881356,25.314685314685313,76.27118644067797,24.94172494172494C77.28813559322033,24.568764568764564,78.30508474576271,23.91608391608391,79.32203389830508,23.636363636363633C80.33898305084746,23.356643356643357,81.35593220338983,23.434343434343436,82.37288135593221,23.216783216783217C83.38983050847457,22.999222999223,84.40677966101696,22.602952602952602,85.42372881355932,22.33100233100233C86.4406779661017,22.059052059052057,87.45762711864407,21.880341880341884,88.47457627118645,21.585081585081586C89.49152542372882,21.28982128982129,90.50847457627118,20.878010878010876,91.52542372881355,20.55944055944056C92.54237288135593,20.24087024087024,93.55932203389831,19.961149961149964,94.57627118644069,19.673659673659674C95.59322033898306,19.38616938616939,96.61016949152543,19.184149184149188,97.62711864406779,18.834498834498838C98.64406779661016,18.484848484848488,99.66101694915254,18.010878010878013,100.6779661016949,17.575757575757578C101.69491525423729,17.140637140637143,102.71186440677965,16.651126651126656,103.72881355932203,16.223776223776227C104.7457627118644,15.7964257964258,105.76271186440678,15.400155400155397,106.77966101694915,15.011655011655009C107.79661016949153,14.623154623154619,108.8135593220339,14.25019425019425,109.83050847457628,13.892773892773892C110.84745762711864,13.535353535353536,111.86440677966102,13.123543123543122,112.88135593220339,12.867132867132867C113.89830508474576,12.610722610722611,114.91525423728814,12.533022533022534,115.9322033898305,12.354312354312356C116.94915254237289,12.175602175602176,117.96610169491525,11.98135198135198,118.98305084745763,11.794871794871792C120,11.608391608391607,121.01694915254237,11.460761460761457,122.03389830508473,11.235431235431236C123.05084745762711,11.01010101010101,124.0677966101695,10.730380730380734,125.08474576271188,10.442890442890445C126.10169491525424,10.155400155400159,127.11864406779662,9.759129759129763,128.135593220339,9.510489510489514C129.15254237288136,9.261849261849266,130.16949152542372,9.19191919191919,131.1864406779661,8.95104895104895C132.20338983050846,8.710178710178708,133.22033898305085,8.383838383838382,134.23728813559322,8.065268065268064C135.25423728813558,7.746697746697746,136.27118644067798,7.358197358197357,137.28813559322035,7.039627039627039C138.3050847457627,6.721056721056721,139.3220338983051,6.4257964257964275,140.33898305084747,6.153846153846154C141.35593220338984,5.8818958818958835,142.3728813559322,5.67210567210567,143.38983050847457,5.407925407925407C144.40677966101694,5.143745143745142,145.42372881355934,4.84848484848485,146.4406779661017,4.5687645687645695C147.45762711864407,4.289044289044291,148.47457627118644,3.9393939393939372,149.4915254237288,3.7296037296037277C150.50847457627117,3.5198135198135163,151.52542372881356,3.4498834498834507,152.54237288135593,3.310023310023311C153.5593220338983,3.1701631701631716,154.5762711864407,3.030303030303031,155.59322033898306,2.8904428904428903C156.61016949152543,2.7505827505827507,157.6271186440678,2.6418026418026392,158.64406779661016,2.4708624708624694C159.66101694915253,2.2999222999222977,160.67796610169492,2.027972027972027,161.6949152542373,1.8648018648018638C162.71186440677965,1.7016317016317006,163.72881355932205,1.6317016317016306,164.74576271186442,1.4918414918414902C165.76271186440678,1.351981351981351,166.77966101694915,1.1577311577311578,167.79661016949152,1.0256410256410264C168.81355932203388,0.8935508935508939,169.83050847457628,0.800310800310801,170.84745762711864,0.6993006993007C171.864406779661,0.598290598290599,172.8813559322034,0.5050505050505069,173.89830508474577,0.4195804195804209C174.91525423728814,0.33411033411033497,175.93220338983053,0.256410256410255,176.9491525423729,0.1864801864801846C177.96610169491527,0.11655011655011485,178.98305084745763,0.05827505827505743,180,0"></path><path class="axis-ceiling" stroke-width="1" stroke="black" fill="none" d="M175,-11.74825174825175L180,-11.74825174825175"></path><text class="axis-ceiling-label" font-family="sans-serif" text-anchor="end" font-size="10px" x="170" y="-9.24825174825175">1110</text></g></svg>