<svg xmlns="http://www.w3.org/2000/svg" viewBox="0 0 180 60"><g transform="translate(0,20)"><path class="area" fill="rgba(0, 0, 0, 0.2)" d="M0,5.5200000000000005C1.0169491525423728,5.3933333333333335,2.0338983050847457,5.266666666666667,3.0508474576271185,5.16C4.067796610169491,5.053333333333334,5.084745762711864,4.966666666666667,6.101694915254237,4.88C7.11864406779661,4.793333333333333,8.135593220338983,4.72,9.152542372881356,4.64C10.169491525423728,4.56,11.186440677966102,4.473333333333333,12.203389830508474,4.3999999999999995C13.220338983050846,4.326666666666666,14.23728813559322,4.259999999999999,15.254237288135592,4.199999999999999C16.271186440677965,4.139999999999999,17.28813559322034,4.093333333333333,18.305084745762713,4.039999999999999C19.322033898305087,3.986666666666666,20.338983050847457,3.926666666666666,21.35593220338983,3.879999999999999C22.372881355932204,3.833333333333332,23.389830508474574,3.799999999999999,24.406779661016948,3.759999999999999C25.423728813559322,3.719999999999999,26.440677966101696,3.673333333333332,27.45762711864407,3.639999999999999C28.47457627118644,3.6066666666666656,29.491525423728813,3.593333333333332,30.508474576271183,3.5599999999999987C31.525423728813557,3.5266666666666655,32.54237288135593,3.4799999999999986,33.559322033898304,3.4399999999999986C34.57627118644068,3.3999999999999986,35.59322033898305,3.3533333333333317,36.610169491525426,3.3199999999999985C37.6271186440678,3.2866666666666653,38.644067796610166,3.2666666666666653,39.66101694915254,3.2399999999999984C40.67796610169491,3.2133333333333316,41.69491525423729,3.186666666666665,42.71186440677966,3.1599999999999984C43.728813559322035,3.1333333333333315,44.7457627118644,3.106666666666665,45.762711864406775,3.0799999999999983C46.77966101694915,3.0533333333333315,47.79661016949152,3.026666666666665,48.813559322033896,2.9999999999999982C49.83050847457627,2.9733333333333314,50.847457627118644,2.946666666666665,51.86440677966102,2.919999999999998C52.88135593220339,2.8933333333333313,53.898305084745765,2.866666666666665,54.91525423728814,2.839999999999998C55.93220338983051,2.8133333333333312,56.94915254237288,2.786666666666665,57.96610169491525,2.759999999999998C58.983050847457626,2.733333333333331,59.99999999999999,2.7066666666666648,61.01694915254237,2.679999999999998C62.03389830508474,2.653333333333331,63.05084745762712,2.6399999999999975,64.0677966101695,2.599999999999998C65.08474576271186,2.5599999999999987,66.10169491525424,2.486666666666668,67.11864406779661,2.440000000000002C68.13559322033899,2.393333333333336,69.15254237288136,2.3733333333333357,70.16949152542374,2.320000000000002C71.1864406779661,2.266666666666669,72.20338983050848,2.173333333333335,73.22033898305085,2.120000000000002C74.23728813559322,2.0666666666666687,75.2542372881356,2.053333333333335,76.27118644067797,2.0000000000000018C77.28813559322033,1.9466666666666683,78.30508474576271,1.8600000000000017,79.32203389830508,1.8000000000000016C80.33898305084746,1.7400000000000013,81.35593220338983,1.693333333333335,82.37288135593221,1.6400000000000015C83.38983050847457,1.5866666666666682,84.40677966101696,1.5200000000000014,85.42372881355932,1.4800000000000013C86.4406779661017,1.440000000000001,87.45762711864407,1.426666666666668,88.47457627118645,1.4000000000000012C89.49152542372882,1.3733333333333346,90.50847457627118,1.3466666666666676,91.52542372881355,1.3200000000000012C92.54237288135593,1.2933333333333343,93.55932203389831,1.266666666666668,94.57627118644069,1.240000000000001C95.59322033898306,1.2133333333333347,96.61016949152543,1.180000000000001,97.62711864406779,1.160000000000001C98.64406779661016,1.140000000000001,99.66101694915254,1.1333333333333344,100.6779661016949,1.120000000000001C101.69491525423729,1.1066666666666676,102.71186440677965,1.0933333333333344,103.72881355932203,1.080000000000001C104.7457627118644,1.0666666666666675,105.76271186440678,1.0533333333333343,106.77966101694915,1.040000000000001C107.79661016949153,1.0266666666666675,108.8135593220339,1.0133333333333343,109.83050847457628,1.0000000000000009C110.84745762711864,0.9866666666666676,111.86440677966102,0.9800000000000009,112.88135593220339,0.9600000000000009C113.89830508474576,0.9400000000000008,114.91525423728814,0.9000000000000008,115.9322033898305,0.8800000000000008C116.94915254237289,0.8600000000000007,117.96610169491525,0.8533333333333342,118.98305084745763,0.8400000000000007C120,0.8266666666666674,121.01694915254237,0.8133333333333339,122.03389830508473,0.8000000000000007C123.05084745762711,0.7866666666666673,124.0677966101695,0.7733333333333341,125.08474576271188,0.7600000000000007C126.10169491525424,0.7466666666666674,127.11864406779662,0.7200000000000006,128.135593220339,0.7200000000000006C129.15254237288136,0.7200000000000006,130.16949152542372,0.7200000000000006,131.1864406779661,0.7200000000000006C132.20338983050846,0.7200000000000006,133.22033898305085,0.6933333333333339,134.23728813559322,0.6800000000000006C135.25423728813558,0.6666666666666673,136.27118644067798,0.6533333333333339,137.28813559322035,0.6400000000000006C138.3050847457627,0.6266666666666673,139.3220338983051,0.6000000000000005,140.33898305084747,0.6000000000000005C141.35593220338984,0.6000000000000005,142.3728813559322,0.6000000000000005,143.38983050847457,0.6000000000000005C144.40677966101694,0.6000000000000005,145.42372881355934,0.5600000000000005,146.4406779661017,0.5600000000000005C147.45762711864407,0.5600000000000005,148.47457627118644,0.5600000000000005,149.4915254237288,0.5600000000000005C150.50847457627117,0.5600000000000005,151.52542372881356,0.5200000000000005,152.54237288135593,0.5200000000000005C153.5593220338983,0.5200000000000005,154.5762711864407,0.5200000000000005,155.59322033898306,0.5200000000000005C156.61016949152543,0.5200000000000005,157.6271186440678,0.5200000000000005,158.64406779661016,0.5200000000000005C159.66101694915253,0.5200000000000005,160.67796610169492,0.5200000000000005,161.6949152542373,0.5200000000000005C162.71186440677965,0.5200000000000005,163.72881355932205,0.49333333333333385,164.74576271186442,0.4800000000000004C165.76271186440678,0.4666666666666671,166.77966101694915,0.4533333333333337,167.79661016949152,0.4400000000000004C168.81355932203388,0.42666666666666697,169.83050847457628,0.4133333333333337,170.84745762711864,0.40000000000000036C171.864406779661,0.386666666666667,172.8813559322034,0.3733333333333337,173.89830508474577,0.3600000000000003C174.91525423728814,0.34666666666666696,175.93220338983053,0.3333333333333337,176.9491525423729,0.3200000000000003C177.96610169491527,0.306666666666667,178.98305084745763,0.2933333333333336,180,0.28000000000000025L180,40C178.98305084745763,40,177.96610169491527,40,176.9491525423729,40C175.93220338983053,40,174.91525423728814,40,173.89830508474577,40C172.8813559322034,40,171.864406779661,40,170.84745762711864,40C169.83050847457628,40,168.81355932203388,40,167.79661016949152,40C166.77966101694915,40,165.76271186440678,40,164.74576271186442,40C163.72881355932205,40,162.71186440677965,40,161.6949152542373,40C160.67796610169492,40,159.66101694915253,40,158.64406779661016,40C157.6271186440678,40,156.61016949152543,40,155.59322033898306,40C154.5762711864407,40,153.5593220338983,40,152.54237288135593,40C151.52542372881356,40,150.50847457627117,40,149.4915254237288,40C148.47457627118644,40,147.45762711864407,40,146.4406779661017,40C145.42372881355934,40,144.40677966101694,40,143.38983050847457,40C142.3728813559322,40,141.35593220338984,40,140.33898305084747,40C139.3220338983051,40,138.3050847457627,40,137.28813559322035,40C136.27118644067798,40,135.25423728813558,40,134.23728813559322,40C133.22033898305085,40,132.20338983050846,40,131.1864406779661,40C130.16949152542372,40,129.15254237288136,40,128.135593220339,40C127.11864406779662,40,126.10169491525424,40,125.08474576271188,40C124.0677966101695,40,123.05084745762711,40,122.03389830508473,40C121.01694915254237,40,120,40,118.98305084745763,40C117.96610169491525,40,116.94915254237289,40,115.9322033898305,40C114.91525423728814,40,113.89830508474576,40,112.88135593220339,40C111.86440677966102,40,110.84745762711864,40,109.83050847457628,40C108.8135593220339,40,107.79661016949153,40,106.77966101694915,40C105.76271186440678,40,104.7457627118644,40,103.72881355932203,40C102.71186440677965,40,101.69491525423729,40,100.6779661016949,40C99.66101694915254,40,98.64406779661016,40,97.62711864406779,40C96.61016949152543,40,95.59322033898306,40,94.57627118644069,40C93.55932203389831,40,92.54237288135593,40,91.52542372881355,40C90.50847457627118,40,89.49152542372882,40,88.47457627118645,40C87.45762711864407,40,86.4406779661017,40,85.42372881355932,40C84.40677966101696,40,83.38983050847457,40,82.37288135593221,40C81.35593220338983,40,80.33898305084746,40,79.32203389830508,40C78.30508474576271,40,77.28813559322033,40,76.27118644067797,40C75.2542372881356,40,74.23728813559322,40,73.22033898305085,40C72.20338983050848,40,71.1864406779661,40,70.16949152542374,40C69.15254237288136,40,68.13559322033899,40,67.11864406779661,40C66.10169491525424,40,65.08474576271186,40,64.0677966101695,40C63.05084745762712,40,62.03389830508474,40,61.01694915254237,40C59.99999999999999,40,58.983050847457626,40,57.96610169491525,40C56.94915254237288,40,55.93220338983051,40,54.91525423728814,40C53.898305084745765,40,52.88135593220339,40,51.86440677966102,40C50.847457627118644,40,49.83050847457627,40,48.813559322033896,40C47.79661016949152,40,46.77966101694915,40,45.762711864406775,40C44.7457627118644,40,43.728813559322035,40,42.71186440677966,40C41.69491525423729,40,40.67796610169491,40,39.66101694915254,40C38.644067796610166,40,37.6271186440678,40,36.610169491525426,40C35.59322033898305,40,34.57627118644068,40,33.559322033898304,40C32.54237288135593,40,31.525423728813557,40,30.508474576271183,40C29.491525423728813,40,28.47457627118644,40,27.45762711864407,40C26.440677966101696,40,25.423728813559322,40,24.406779661016948,40C23.389830508474574,40,22.372881355932204,40,21.35593220338983,40C20.338983050847457,40,19.322033898305087,40,18.305084745762713,40C17.28813559322034,40,16.271186440677965,40,15.254237288135592,40C14.23728813559322,40,13.220338983050846,40,12.203389830508474,40C11.186440677966102,40,10.169491525423728,40,9.152542372881356,40C8.135593220338983,40,7.11864406779661,40,6.101694915254237,40C5.084745762711864,40,4.067796610169491,40,3.0508474576271185,40C2.0338983050847457,40,1.0169491525423728,40,0,40Z"></path><path class="line" stroke="black" fill="none" d="M0,5.5200000000000005C1.0169491525423728,5.3933333333333335,2.0338983050847457,5.266666666666667,3.0508474576271185,5.16C4.067796610169491,5.053333333333334,5.084745762711864,4.966666666666667,6.101694915254237,4.88C7.11864406779661,4.793333333333333,8.135593220338983,4.72,9.152542372881356,4.64C10.169491525423728,4.56,11.186440677966102,4.473333333333333,12.203389830508474,4.3999999999999995C13.220338983050846,4.326666666666666,14.23728813559322,4.259999999999999,15.254237288135592,4.199999999999999C16.271186440677965,4.139999999999999,17.28813559322034,4.093333333333333,18.305084745762713,4.039999999999999C19.322033898305087,3.986666666666666,20.338983050847457,3.926666666666666,21.35593220338983,3.879999999999999C22.372881355932204,3.833333333333332,23.389830508474574,3.799999999999999,24.406779661016948,3.759999999999999C25.423728813559322,3.719999999999999,26.440677966101696,3.673333333333332,27.45762711864407,3.639999999999999C28.47457627118644,3.6066666666666656,29.491525423728813,3.593333333333332,30.508474576271183,3.5599999999999987C31.525423728813557,3.5266666666666655,32.54237288135593,3.4799999999999986,33.559322033898304,3.4399999999999986C34.57627118644068,3.3999999999999986,35.59322033898305,3.3533333333333317,36.610169491525426,3.3199999999999985C37.6271186440678,3.2866666666666653,38.644067796610166,3.2666666666666653,39.66101694915254,3.2399999999999984C40.67796610169491,3.2133333333333316,41.69491525423729,3.186666666666665,42.71186440677966,3.1599999999999984C43.728813559322035,3.1333333333333315,44.7457627118644,3.106666666666665,45.762711864406775,3.0799999999999983C46.77966101694915,3.0533333333333315,47.79661016949152,3.026666666666665,48.813559322033896,2.9999999999999982C49.83050847457627,2.9733333333333314,50.847457627118644,2.946666666666665,51.86440677966102,2.919999999999998C52.88135593220339,2.8933333333333313,53.898305084745765,2.866666666666665,54.91525423728814,2.839999999999998C55.93220338983051,2.8133333333333312,56.94915254237288,2.786666666666665,57.96610169491525,2.759999999999998C58.983050847457626,2.733333333333331,59.99999999999999,2.7066666666666648,61.01694915254237,2.679999999999998C62.03389830508474,2.653333333333331,63.05084745762712,2.6399999999999975,64.0677966101695,2.599999999999998C65.08474576271186,2.5599999999999987,66.10169491525424,2.486666666666668,67.11864406779661,2.440000000000002C68.13559322033899,2.393333333333336,69.15254237288136,2.3733333333333357,70.16949152542374,2.320000000000002C71.1864406779661,2.266666666666669,72.20338983050848,2.173333333333335,73.22033898305085,2.120000000000002C74.23728813559322,2.0666666666666687,75.2542372881356,2.053333333333335,76.27118644067797,2.0000000000000018C77.28813559322033,1.9466666666666683,78.30508474576271,1.8600000000000017,79.32203389830508,1.8000000000000016C80.33898305084746,1.7400000000000013,81.35593220338983,1.693333333333335,82.37288135593221,1.6400000000000015C83.38983050847457,1.5866666666666682,84.40677966101696,1.5200000000000014,85.42372881355932,1.4800000000000013C86.4406779661017,1.440000000000001,87.45762711864407,1.426666666666668,88.47457627118645,1.4000000000000012C89.49152542372882,1.3733333333333346,90.50847457627118,1.3466666666666676,91.52542372881355,1.3200000000000012C92.54237288135593,1.2933333333333343,93.55932203389831,1.266666666666668,94.57627118644069,1.240000000000001C95.59322033898306,1.2133333333333347,96.61016949152543,1.180000000000001,97.62711864406779,1.160000000000001C98.64406779661016,1.140000000000001,99.66101694915254,1.1333333333333344,100.6779661016949,1.120000000000001C101.69491525423729,1.1066666666666676,102.71186440677965,1.0933333333333344,103.72881355932203,1.080000000000001C104.7457627118644,1.0666666666666675,105.76271186440678,1.0533333333333343,106.77966101694915,1.040000000000001C107.79661016949153,1.0266666666666675,108.8135593220339,1.0133333333333343,109.83050847457628,1.0000000000000009C110.84745762711864,0.9866666666666676,111.86440677966102,0.9800000000000009,112.88135593220339,0.9600000000000009C113.89830508474576,0.9400000000000008,114.91525423728814,0.9000000000000008,115.9322033898305,0.8800000000000008C116.94915254237289,0.8600000000000007,117.96610169491525,0.8533333333333342,118.98305084745763,0.8400000000000007C120,0.8266666666666674,121.01694915254237,0.8133333333333339,122.03389830508473,0.8000000000000007C123.05084745762711,0.7866666666666673,124.0677966101695,0.7733333333333341,125.08474576271188,0.7600000000000007C126.10169491525424,0.7466666666666674,127.11864406779662,0.7200000000000006,128.135593220339,0.7200000000000006C129.15254237288136,0.7200000000000006,130.16949152542372,0.7200000000000006,131.1864406779661,0.7200000000000006C132.20338983050846,0.7200000000000006,133.22033898305085,0.6933333333333339,134.23728813559322,0.6800000000000006C135.25423728813558,0.6666666666666673,136.27118644067798,0.6533333333333339,137.28813559322035,0.6400000000000006C138.3050847457627,0.6266666666666673,139.3220338983051,0.6000000000000005,140.33898305084747,0.6000000000000005C141.35593220338984,0.6000000000000005,142.3728813559322,0.6000000000000005,143.38983050847457,0.6000000000000005C144.40677966101694,0.6000000000000005,145.42372881355934,0.5600000000000005,146.4406779661017,0.5600000000000005C147.45762711864407,0.5600000000000005,148.47457627118644,0.5600000000000005,149.4915254237288,0.5600000000000005C150.50847457627117,0.5600000000000005,151.52542372881356,0.5200000000000005,152.54237288135593,0.5200000000000005C153.5593220338983,0.5200000000000005,154.5762711864407,0.5200000000000005,155.59322033898306,0.5200000000000005C156.61016949152543,0.5200000000000005,157.6271186440678,0.5200000000000005,158.64406779661016,0.5200000000000005C159.66101694915253,0.5200000000000005,160.67796610169492,0.5200000000000005,161.6949152542373,0.5200000000000005C162.71186440677965,0.5200000000000005,163.72881355932205,0.49333333333333385,164.74576271186442,0.4800000000000004C165.76271186440678,0.4666666666666671,166.77966101694915,0.4533333333333337,167.79661016949152,0.4400000000000004C168.81355932203388,0.42666666666666697,169.83050847457628,0.4133333333333337,170.84745762711864,0.40000000000000036C171.864406779661,0.386666666666667,172.8813559322034,0.3733333333333337,173.89830508474577,0.3600000000000003C174.91525423728814,0.34666666666666696,175.93220338983053,0.3333333333333337,176.9491525423729,0.3200000000000003C177.96610169491527,0.306666666666667,178.98305084745763,0.2933333333333336,180,0.28000000000000025"></path><path class="axis-ceiling" stroke-width="1" stroke="black" fill="none" d="M175,0L180,0"></path><text class="axis-ceiling-label" font-family="sans-serif" text-anchor="end" font-size="10px" x="170" y="2.5">1000</text></g></svg>