<svg xmlns="http://www.w3.org/2000/svg" viewBox="0 0 180 60"><g transform="translate(0,20)"><path class="area" fill="rgba(0, 0, 0, 0.2)" d="M0,14.133333333333336C1.0169491525423728,18.26666666666667,2.0338983050847457,22.400000000000002,3.0508474576271185,22.400000000000002C4.067796610169491,22.400000000000002,5.084745762711864,19.2,6.101694915254237,19.2C7.11864406779661,19.2,8.135593220338983,23.822222222222226,9.152542372881356,25.06666666666667C10.169491525423728,26.311111111111114,11.186440677966102,26.933333333333334,12.203389830508474,26.933333333333334C13.220338983050846,26.933333333333334,14.23728813559322,26.133333333333333,15.254237288135592,24.53333333333333C16.271186440677965,22.93333333333333,17.28813559322034,12.266666666666666,18.305084745762713,12.266666666666666C19.322033898305087,12.266666666666666,20.338983050847457,15.466666666666669,21.35593220338983,15.466666666666669C22.372881355932204,15.466666666666669,23.389830508474574,15.28888888888889,24.406779661016948,14.933333333333332C25.423728813559322,14.577777777777774,26.440677966101696,11.200000000000001,27.45762711864407,11.200000000000001C28.47457627118644,11.200000000000001,29.491525423728813,15.555555555555559,30.508474576271183,17.866666666666667C31.525423728813557,20.17777777777778,32.54237288135593,25.06666666666667,33.559322033898304,25.06666666666667C34.57627118644068,25.06666666666667,35.59322033898305,22.400000000000006,36.610169491525426,20.266666666666666C37.6271186440678,18.133333333333333,38.644067796610166,12.266666666666666,39.66101694915254,12.266666666666666C40.67796610169491,12.266666666666666,41.69491525423729,16,42.71186440677966,16C43.728813559322035,16,44.7457627118644,9.866666666666667,45.762711864406775,9.866666666666667C46.77966101694915,9.866666666666667,47.79661016949152,13.155555555555559,48.813559322033896,14.133333333333336C49.83050847457627,15.111111111111114,50.847457627118644,14.666666666666668,51.86440677966102,15.733333333333333C52.88135593220339,16.799999999999997,53.898305084745765,22.666666666666664,54.91525423728814,22.666666666666664C55.93220338983051,22.666666666666664,56.94915254237288,21.066666666666666,57.96610169491525,18.666666666666668C58.983050847457626,16.26666666666667,59.99999999999999,8.266666666666666,61.01694915254237,8.266666666666666C62.03389830508474,8.266666666666666,63.05084745762712,8.533333333333333,64.0677966101695,9.066666666666666C65.08474576271186,9.599999999999998,66.10169491525424,12.266666666666666,67.11864406779661,12.266666666666666C68.13559322033899,12.266666666666666,69.15254237288136,11.733333333333334,70.16949152542374,11.733333333333334C71.1864406779661,11.733333333333334,72.20338983050848,12.8,73.22033898305085,14.933333333333332C74.23728813559322,17.066666666666663,75.2542372881356,26.133333333333333,76.27118644067797,26.133333333333333C77.28813559322033,26.133333333333333,78.30508474576271,19.77777777777778,79.32203389830508,17.866666666666667C80.33898305084746,15.955555555555549,81.35593220338983,16.355555555555565,82.37288135593221,14.666666666666668C83.38983050847457,12.97777777777778,84.40677966101696,7.733333333333334,85.42372881355932,7.733333333333334C86.4406779661017,7.733333333333334,87.45762711864407,16.977777777777757,88.47457627118645,19.46666666666667C89.49152542372882,21.95555555555556,90.50847457627118,23.200000000000003,91.52542372881355,23.200000000000003C92.54237288135593,23.200000000000003,93.55932203389831,22.666666666666664,94.57627118644069,22.666666666666664C95.59322033898306,22.666666666666664,96.61016949152543,29.866666666666664,97.62711864406779,29.866666666666664C98.64406779661016,29.866666666666664,99.66101694915254,23.599999999999994,100.6779661016949,20.8C101.69491525423729,17.999999999999993,102.71186440677965,13.066666666666666,103.72881355932203,13.066666666666666C104.7457627118644,13.066666666666666,105.76271186440678,18.40000000000001,106.77966101694915,18.933333333333337C107.79661016949153,19.466666666666665,108.8135593220339,19.200000000000003,109.83050847457628,19.73333333333333C110.84745762711864,20.26666666666666,111.86440677966102,22.400000000000002,112.88135593220339,22.400000000000002C113.89830508474576,22.400000000000002,114.91525423728814,19.2,115.9322033898305,19.2C116.94915254237289,19.2,117.96610169491525,27.466666666666665,118.98305084745763,27.466666666666665C120,27.466666666666665,121.01694915254237,25.06666666666667,122.03389830508473,25.06666666666667C123.05084745762711,25.06666666666667,124.0677966101695,25.6,125.08474576271188,25.6C126.10169491525424,25.6,127.11864406779662,22.48888888888889,128.135593220339,21.6C129.15254237288136,20.711111111111116,130.16949152542372,20.755555555555553,131.1864406779661,20.266666666666666C132.20338983050846,19.777777777777775,133.22033898305085,18.666666666666668,134.23728813559322,18.666666666666668C135.25423728813558,18.666666666666668,136.27118644067798,27.11111111111111,137.28813559322035,29.066666666666666C138.3050847457627,31.022222222222222,139.3220338983051,32,140.33898305084747,32C141.35593220338984,32,142.3728813559322,27.95555555555555,143.38983050847457,26.4C144.40677966101694,24.84444444444443,145.42372881355934,22.666666666666664,146.4406779661017,22.666666666666664C147.45762711864407,22.666666666666664,148.47457627118644,23.200000000000003,149.4915254237288,23.200000000000003C150.50847457627117,23.200000000000003,151.52542372881356,22.133333333333333,152.54237288135593,22.133333333333333C153.5593220338983,22.133333333333333,154.5762711864407,24.133333333333326,155.59322033898306,25.333333333333332C156.61016949152543,26.533333333333328,157.6271186440678,28.000000000000007,158.64406779661016,29.333333333333336C159.66101694915253,30.666666666666675,160.67796610169492,33.333333333333336,161.6949152542373,33.333333333333336C162.71186440677965,33.333333333333336,163.72881355932205,29.466666666666672,164.74576271186442,28C165.76271186440678,26.533333333333342,166.77966101694915,24.53333333333333,167.79661016949152,24.53333333333333C168.81355932203388,24.53333333333333,169.83050847457628,25.022222222222222,170.84745762711864,25.6C171.864406779661,26.17777777777778,172.8813559322034,28,173.89830508474577,28C174.91525423728814,28,175.93220338983053,24.53333333333333,176.9491525423729,24.53333333333333C177.96610169491527,24.53333333333333,178.98305084745763,31.466666666666665,180,38.4L180,40C178.98305084745763,40,177.96610169491527,40,176.9491525423729,40C175.93220338983053,40,174.91525423728814,40,173.89830508474577,40C172.8813559322034,40,171.864406779661,40,170.84745762711864,40C169.83050847457628,40,168.81355932203388,40,167.79661016949152,40C166.77966101694915,40,165.76271186440678,40,164.74576271186442,40C163.72881355932205,40,162.71186440677965,40,161.6949152542373,40C160.67796610169492,40,159.66101694915253,40,158.64406779661016,40C157.6271186440678,40,156.61016949152543,40,155.59322033898306,40C154.5762711864407,40,153.5593220338983,40,152.54237288135593,40C151.52542372881356,40,150.50847457627117,40,149.4915254237288,40C148.47457627118644,40,147.45762711864407,40,146.4406779661017,40C145.42372881355934,40,144.40677966101694,40,143.38983050847457,40C142.3728813559322,40,141.35593220338984,40,140.33898305084747,40C139.3220338983051,40,138.3050847457627,40,137.28813559322035,40C136.27118644067798,40,135.25423728813558,40,134.23728813559322,40C133.22033898305085,40,132.20338983050846,40,131.1864406779661,40C130.16949152542372,40,129.15254237288136,40,128.135593220339,40C127.11864406779662,40,126.10169491525424,40,125.08474576271188,40C124.0677966101695,40,123.05084745762711,40,122.03389830508473,40C121.01694915254237,40,120,40,118.98305084745763,40C117.96610169491525,40,116.94915254237289,40,115.9322033898305,40C114.91525423728814,40,113.89830508474576,40,112.88135593220339,40C111.86440677966102,40,110.84745762711864,40,109.83050847457628,40C108.8135593220339,40,107.79661016949153,40,106.77966101694915,40C105.76271186440678,40,104.7457627118644,40,103.72881355932203,40C102.71186440677965,40,101.69491525423729,40,100.6779661016949,40C99.66101694915254,40,98.64406779661016,40,97.62711864406779,40C96.61016949152543,40,95.59322033898306,40,94.57627118644069,40C93.55932203389831,40,92.54237288135593,40,91.52542372881355,40C90.50847457627118,40,89.49152542372882,40,88.47457627118645,40C87.45762711864407,40,86.4406779661017,40,85.42372881355932,40C84.40677966101696,40,83.38983050847457,40,82.37288135593221,40C81.35593220338983,40,80.33898305084746,40,79.32203389830508,40C78.30508474576271,40,77.28813559322033,40,76.27118644067797,40C75.2542372881356,40,74.23728813559322,40,73.22033898305085,40C72.20338983050848,40,71.1864406779661,40,70.16949152542374,40C69.15254237288136,40,68.13559322033899,40,67.11864406779661,40C66.10169491525424,40,65.08474576271186,40,64.0677966101695,40C63.05084745762712,40,62.03389830508474,40,61.01694915254237,40C59.99999999999999,40,58.983050847457626,40,57.96610169491525,40C56.94915254237288,40,55.93220338983051,40,54.91525423728814,40C53.898305084745765,40,52.88135593220339,40,51.86440677966102,40C50.847457627118644,40,49.83050847457627,40,48.813559322033896,40C47.79661016949152,40,46.77966101694915,40,45.762711864406775,40C44.7457627118644,40,43.728813559322035,40,42.71186440677966,40C41.69491525423729,40,40.67796610169491,40,39.66101694915254,40C38.644067796610166,40,37.6271186440678,40,36.610169491525426,40C35.59322033898305,40,34.57627118644068,40,33.559322033898304,40C32.54237288135593,40,31.525423728813557,40,30.508474576271183,40C29.491525423728813,40,28.47457627118644,40,27.45762711864407,40C26.440677966101696,40,25.423728813559322,40,24.406779661016948,40C23.389830508474574,40,22.372881355932204,40,21.35593220338983,40C20.338983050847457,40,19.322033898305087,40,18.305084745762713,40C17.28813559322034,40,16.271186440677965,40,15.254237288135592,40C14.23728813559322,40,13.220338983050846,40,12.203389830508474,40C11.186440677966102,40,10.169491525423728,40,9.152542372881356,40C8.135593220338983,40,7.11864406779661,40,6.101694915254237,40C5.084745762711864,40,4.067796610169491,40,3.0508474576271185,40C2.0338983050847457,40,1.0169491525423728,40,0,40Z"></path><path class="line" stroke="black" fill="none" d="M0,14.133333333333336C1.0169491525423728,18.26666666666667,2.0338983050847457,22.400000000000002,3.0508474576271185,22.400000000000002C4.067796610169491,22.400000000000002,5.084745762711864,19.2,6.101694915254237,19.2C7.11864406779661,19.2,8.135593220338983,23.822222222222226,9.152542372881356,25.06666666666667C10.169491525423728,26.311111111111114,11.186440677966102,26.933333333333334,12.203389830508474,26.933333333333334C13.220338983050846,26.933333333333334,14.23728813559322,26.133333333333333,15.254237288135592,24.53333333333333C16.271186440677965,22.93333333333333,17.28813559322034,12.266666666666666,18.305084745762713,12.266666666666666C19.322033898305087,12.266666666666666,20.338983050847457,15.466666666666669,21.35593220338983,15.466666666666669C22.372881355932204,15.466666666666669,23.389830508474574,15.28888888888889,24.406779661016948,14.933333333333332C25.423728813559322,14.577777777777774,26.440677966101696,11.200000000000001,27.45762711864407,11.200000000000001C28.47457627118644,11.200000000000001,29.491525423728813,15.555555555555559,30.508474576271183,17.866666666666667C31.525423728813557,20.17777777777778,32.54237288135593,25.06666666666667,33.559322033898304,25.06666666666667C34.57627118644068,25.06666666666667,35.59322033898305,22.400000000000006,36.610169491525426,20.266666666666666C37.6271186440678,18.133333333333333,38.644067796610166,12.266666666666666,39.66101694915254,12.266666666666666C40.67796610169491,12.266666666666666,41.69491525423729,16,42.71186440677966,16C43.728813559322035,16,44.7457627118644,9.866666666666667,45.762711864406775,9.866666666666667C46.77966101694915,9.866666666666667,47.79661016949152,13.155555555555559,48.813559322033896,14.133333333333336C49.83050847457627,15.111111111111114,50.847457627118644,14.666666666666668,51.86440677966102,15.733333333333333C52.88135593220339,16.799999999999997,53.898305084745765,22.666666666666664,54.91525423728814,22.666666666666664C55.93220338983051,22.666666666666664,56.94915254237288,21.066666666666666,57.96610169491525,18.666666666666668C58.983050847457626,16.26666666666667,59.99999999999999,8.266666666666666,61.01694915254237,8.266666666666666C62.03389830508474,8.266666666666666,63.05084745762712,8.533333333333333,64.0677966101695,9.066666666666666C65.08474576271186,9.599999999999998,66.10169491525424,12.266666666666666,67.11864406779661,12.266666666666666C68.13559322033899,12.266666666666666,69.15254237288136,11.733333333333334,70.16949152542374,11.733333333333334C71.1864406779661,11.733333333333334,72.20338983050848,12.8,73.22033898305085,14.933333333333332C74.23728813559322,17.066666666666663,75.2542372881356,26.133333333333333,76.27118644067797,26.133333333333333C77.28813559322033,26.133333333333333,78.30508474576271,19.77777777777778,79.32203389830508,17.866666666666667C80.33898305084746,15.955555555555549,81.35593220338983,16.355555555555565,82.37288135593221,14.666666666666668C83.38983050847457,12.97777777777778,84.40677966101696,7.733333333333334,85.42372881355932,7.733333333333334C86.4406779661017,7.733333333333334,87.45762711864407,16.977777777777757,88.47457627118645,19.46666666666667C89.49152542372882,21.95555555555556,90.50847457627118,23.200000000000003,91.52542372881355,23.200000000000003C92.54237288135593,23.200000000000003,93.55932203389831,22.666666666666664,94.57627118644069,22.666666666666664C95.59322033898306,22.666666666666664,96.61016949152543,29.866666666666664,97.62711864406779,29.866666666666664C98.64406779661016,29.866666666666664,99.66101694915254,23.599999999999994,100.6779661016949,20.8C101.69491525423729,17.999999999999993,102.71186440677965,13.066666666666666,103.72881355932203,13.066666666666666C104.7457627118644,13.066666666666666,105.76271186440678,18.40000000000001,106.77966101694915,18.933333333333337C107.79661016949153,19.466666666666665,108.8135593220339,19.200000000000003,109.83050847457628,19.73333333333333C110.84745762711864,20.26666666666666,111.86440677966102,22.400000000000002,112.88135593220339,22.400000000000002C113.89830508474576,22.400000000000002,114.91525423728814,19.2,115.9322033898305,19.2C116.94915254237289,19.2,117.96610169491525,27.466666666666665,118.98305084745763,27.466666666666665C120,27.466666666666665,121.01694915254237,25.06666666666667,122.03389830508473,25.06666666666667C123.05084745762711,25.06666666666667,124.0677966101695,25.6,125.08474576271188,25.6C126.10169491525424,25.6,127.11864406779662,22.48888888888889,128.135593220339,21.6C129.15254237288136,20.711111111111116,130.16949152542372,20.755555555555553,131.1864406779661,20.266666666666666C132.20338983050846,19.777777777777775,133.22033898305085,18.666666666666668,134.23728813559322,18.666666666666668C135.25423728813558,18.666666666666668,136.27118644067798,27.11111111111111,137.28813559322035,29.066666666666666C138.3050847457627,31.022222222222222,139.3220338983051,32,140.33898305084747,32C141.35593220338984,32,142.3728813559322,27.95555555555555,143.38983050847457,26.4C144.40677966101694,24.84444444444443,145.42372881355934,22.666666666666664,146.4406779661017,22.666666666666664C147.45762711864407,22.666666666666664,148.47457627118644,23.200000000000003,149.4915254237288,23.200000000000003C150.50847457627117,23.200000000000003,151.52542372881356,22.133333333333333,152.54237288135593,22.133333333333333C153.5593220338983,22.133333333333333,154.5762711864407,24.133333333333326,155.59322033898306,25.333333333333332C156.61016949152543,26.533333333333328,157.6271186440678,28.000000000000007,158.64406779661016,29.333333333333336C159.66101694915253,30.666666666666675,160.67796610169492,33.333333333333336,161.6949152542373,33.333333333333336C162.71186440677965,33.333333333333336,163.72881355932205,29.466666666666672,164.74576271186442,28C165.76271186440678,26.533333333333342,166.77966101694915,24.53333333333333,167.79661016949152,24.53333333333333C168.81355932203388,24.53333333333333,169.83050847457628,25.022222222222222,170.84745762711864,25.6C171.864406779661,26.17777777777778,172.8813559322034,28,173.89830508474577,28C174.91525423728814,28,175.93220338983053,24.53333333333333,176.9491525423729,24.53333333333333C177.96610169491527,24.53333333333333,178.98305084745763,31.466666666666665,180,38.4"></path><path class="axis-ceiling" stroke-width="1" stroke="black" fill="none" d="M175,0L180,0"></path><text class="axis-ceiling-label" font-family="sans-serif" text-anchor="end" font-size="10px" x="170" y="2.5">150</text></g></svg>