<svg xmlns="http://www.w3.org/2000/svg" viewBox="0 0 180 60"><g transform="translate(0,20)"><path class="area" fill="rgba(0, 0, 0, 0.2)" d="M0,15.58666666666667C1.0169491525423728,15.570666666666668,2.0338983050847457,15.554666666666664,3.0508474576271185,15.538666666666664C4.067796610169491,15.522666666666664,5.084745762711864,15.501777777777777,6.101694915254237,15.490666666666666C7.11864406779661,15.479555555555555,8.135593220338983,15.480444444444446,9.152542372881356,15.472000000000001C10.169491525423728,15.463555555555557,11.186440677966102,15.453777777777779,12.203389830508474,15.440000000000001C13.220338983050846,15.426222222222224,14.23728813559322,15.410222222222224,15.254237288135592,15.389333333333335C16.271186440677965,15.368444444444446,17.28813559322034,15.340000000000002,18.305084745762713,15.314666666666668C19.322033898305087,15.289333333333333,20.338983050847457,15.261333333333335,21.35593220338983,15.237333333333334C22.372881355932204,15.213333333333333,23.389830508474574,15.187999999999999,24.406779661016948,15.170666666666666C25.423728813559322,15.153333333333332,26.440677966101696,15.151555555555555,27.45762711864407,15.133333333333333C28.47457627118644,15.115111111111112,29.491525423728813,15.080888888888891,30.508474576271183,15.061333333333335C31.525423728813557,15.04177777777778,32.54237288135593,15.03422222222222,33.559322033898304,15.015999999999998C34.57627118644068,14.997777777777776,35.59322033898305,14.982222222222223,36.610169491525426,14.952000000000002C37.6271186440678,14.92177777777778,38.644067796610166,14.869333333333334,39.66101694915254,14.834666666666667C40.67796610169491,14.8,41.69491525423729,14.774666666666668,42.71186440677966,14.744000000000002C43.728813559322035,14.713333333333335,44.7457627118644,14.686666666666666,45.762711864406775,14.650666666666666C46.77966101694915,14.614666666666665,47.79661016949152,14.566666666666665,48.813559322033896,14.527999999999999C49.83050847457627,14.489333333333333,50.847457627118644,14.444,51.86440677966102,14.418666666666669C52.88135593220339,14.393333333333336,53.898305084745765,14.397333333333336,54.91525423728814,14.376000000000001C55.93220338983051,14.354666666666667,56.94915254237288,14.324888888888887,57.96610169491525,14.290666666666665C58.983050847457626,14.256444444444442,59.99999999999999,14.212888888888887,61.01694915254237,14.170666666666666C62.03389830508474,14.128444444444444,63.05084745762712,14.078222222222221,64.0677966101695,14.037333333333333C65.08474576271186,13.996444444444444,66.10169491525424,13.968888888888886,67.11864406779661,13.925333333333331C68.13559322033899,13.881777777777776,69.15254237288136,13.824888888888891,70.16949152542374,13.776000000000002C71.1864406779661,13.727111111111114,72.20338983050848,13.678666666666667,73.22033898305085,13.632C74.23728813559322,13.585333333333333,75.2542372881356,13.531555555555558,76.27118644067797,13.496000000000002C77.28813559322033,13.460444444444446,78.30508474576271,13.459555555555555,79.32203389830508,13.418666666666667C80.33898305084746,13.377777777777778,81.35593220338983,13.301333333333334,82.37288135593221,13.250666666666667C83.38983050847457,13.200000000000001,84.40677966101696,13.171999999999999,85.42372881355932,13.114666666666665C86.4406779661017,13.05733333333333,87.45762711864407,12.958666666666666,88.47457627118645,12.906666666666666C89.49152542372882,12.854666666666667,90.50847457627118,12.856444444444445,91.52542372881355,12.802666666666669C92.54237288135593,12.74888888888889,93.55932203389831,12.647555555555556,94.57627118644069,12.584C95.59322033898306,12.520444444444443,96.61016949152543,12.470222222222223,97.62711864406779,12.421333333333333C98.64406779661016,12.372444444444444,99.66101694915254,12.334666666666665,100.6779661016949,12.290666666666667C101.69491525423729,12.246666666666666,102.71186440677965,12.206222222222225,103.72881355932203,12.157333333333336C104.7457627118644,12.108444444444448,105.76271186440678,12.05288888888889,106.77966101694915,11.997333333333335C107.79661016949153,11.941777777777778,108.8135593220339,11.917777777777776,109.83050847457628,11.823999999999998C110.84745762711864,11.73022222222222,111.86440677966102,11.53688888888889,112.88135593220339,11.434666666666669C113.89830508474576,11.332444444444446,114.91525423728814,11.276444444444444,115.9322033898305,11.210666666666667C116.94915254237289,11.144888888888888,117.96610169491525,11.100000000000001,118.98305084745763,11.040000000000001C120,10.98,121.01694915254237,10.932444444444442,122.03389830508473,10.850666666666665C123.05084745762711,10.768888888888887,124.0677966101695,10.645777777777779,125.08474576271188,10.549333333333335C126.10169491525424,10.452888888888891,127.11864406779662,10.363111111111113,128.135593220339,10.272000000000002C129.15254237288136,10.18088888888889,130.16949152542372,10.083555555555556,131.1864406779661,10.002666666666666C132.20338983050846,9.921777777777777,133.22033898305085,9.864444444444446,134.23728813559322,9.786666666666669C135.25423728813558,9.708888888888891,136.27118644067798,9.598666666666665,137.28813559322035,9.535999999999998C138.3050847457627,9.473333333333331,139.3220338983051,9.483111111111109,140.33898305084747,9.410666666666664C141.35593220338984,9.338222222222221,142.3728813559322,9.248888888888889,143.38983050847457,9.101333333333335C144.40677966101694,8.953777777777779,145.42372881355934,8.664444444444444,146.4406779661017,8.525333333333332C147.45762711864407,8.386222222222221,148.47457627118644,8.356888888888887,149.4915254237288,8.266666666666666C150.50847457627117,8.176444444444444,151.52542372881356,8.081333333333333,152.54237288135593,7.984C153.5593220338983,7.886666666666667,154.5762711864407,7.770222222222225,155.59322033898306,7.682666666666669C156.61016949152543,7.595111111111113,157.6271186440678,7.523555555555555,158.64406779661016,7.458666666666667C159.66101694915253,7.393777777777777,160.67796610169492,7.359111111111112,161.6949152542373,7.293333333333334C162.71186440677965,7.227555555555556,163.72881355932205,7.148888888888889,164.74576271186442,7.063999999999999C165.76271186440678,6.97911111111111,166.77966101694915,6.88222222222222,167.79661016949152,6.783999999999999C168.81355932203388,6.685777777777777,169.83050847457628,6.5791111111111125,170.84745762711864,6.474666666666669C171.864406779661,6.370222222222225,172.8813559322034,6.252444444444446,173.89830508474577,6.157333333333335C174.91525423728814,6.062222222222223,175.93220338983053,5.982222222222221,176.9491525423729,5.903999999999998C177.96610169491527,5.825777777777776,178.98305084745763,5.756888888888888,180,5.688L180,40C178.98305084745763,40,177.96610169491527,40,176.9491525423729,40C175.93220338983053,40,174.91525423728814,40,173.89830508474577,40C172.8813559322034,40,171.864406779661,40,170.84745762711864,40C169.83050847457628,40,168.81355932203388,40,167.79661016949152,40C166.77966101694915,40,165.76271186440678,40,164.74576271186442,40C163.72881355932205,40,162.71186440677965,40,161.6949152542373,40C160.67796610169492,40,159.66101694915253,40,158.64406779661016,40C157.6271186440678,40,156.61016949152543,40,155.59322033898306,40C154.5762711864407,40,153.5593220338983,40,152.54237288135593,40C151.52542372881356,40,150.50847457627117,40,149.4915254237288,40C148.47457627118644,40,147.45762711864407,40,146.4406779661017,40C145.42372881355934,40,144.40677966101694,40,143.38983050847457,40C142.3728813559322,40,141.35593220338984,40,140.33898305084747,40C139.3220338983051,40,138.3050847457627,40,137.28813559322035,40C136.27118644067798,40,135.25423728813558,40,134.23728813559322,40C133.22033898305085,40,132.20338983050846,40,131.1864406779661,40C130.16949152542372,40,129.15254237288136,40,128.135593220339,40C127.11864406779662,40,126.10169491525424,40,125.08474576271188,40C124.0677966101695,40,123.05084745762711,40,122.03389830508473,40C121.01694915254237,40,120,40,118.98305084745763,40C117.96610169491525,40,116.94915254237289,40,115.9322033898305,40C114.91525423728814,40,113.89830508474576,40,112.88135593220339,40C111.86440677966102,40,110.84745762711864,40,109.83050847457628,40C108.8135593220339,40,107.79661016949153,40,106.77966101694915,40C105.76271186440678,40,104.7457627118644,40,103.72881355932203,40C102.71186440677965,40,101.69491525423729,40,100.6779661016949,40C99.66101694915254,40,98.64406779661016,40,97.62711864406779,40C96.61016949152543,40,95.59322033898306,40,94.57627118644069,40C93.55932203389831,40,92.54237288135593,40,91.52542372881355,40C90.50847457627118,40,89.49152542372882,40,88.47457627118645,40C87.45762711864407,40,86.4406779661017,40,85.42372881355932,40C84.40677966101696,40,83.38983050847457,40,82.37288135593221,40C81.35593220338983,40,80.33898305084746,40,79.32203389830508,40C78.30508474576271,40,77.28813559322033,40,76.27118644067797,40C75.2542372881356,40,74.23728813559322,40,73.22033898305085,40C72.20338983050848,40,71.1864406779661,40,70.16949152542374,40C69.15254237288136,40,68.13559322033899,40,67.11864406779661,40C66.10169491525424,40,65.08474576271186,40,64.0677966101695,40C63.05084745762712,40,62.03389830508474,40,61.01694915254237,40C59.99999999999999,40,58.983050847457626,40,57.96610169491525,40C56.94915254237288,40,55.93220338983051,40,54.91525423728814,40C53.898305084745765,40,52.88135593220339,40,51.86440677966102,40C50.847457627118644,40,49.83050847457627,40,48.813559322033896,40C47.79661016949152,40,46.77966101694915,40,45.762711864406775,40C44.7457627118644,40,43.728813559322035,40,42.71186440677966,40C41.69491525423729,40,40.67796610169491,40,39.66101694915254,40C38.644067796610166,40,37.6271186440678,40,36.610169491525426,40C35.59322033898305,40,34.57627118644068,40,33.559322033898304,40C32.54237288135593,40,31.525423728813557,40,30.508474576271183,40C29.491525423728813,40,28.47457627118644,40,27.45762711864407,40C26.440677966101696,40,25.423728813559322,40,24.406779661016948,40C23.389830508474574,40,22.372881355932204,40,21.35593220338983,40C20.338983050847457,40,19.322033898305087,40,18.305084745762713,40C17.28813559322034,40,16.271186440677965,40,15.254237288135592,40C14.23728813559322,40,13.220338983050846,40,12.203389830508474,40C11.186440677966102,40,10.169491525423728,40,9.152542372881356,40C8.135593220338983,40,7.11864406779661,40,6.101694915254237,40C5.084745762711864,40,4.067796610169491,40,3.0508474576271185,40C2.0338983050847457,40,1.0169491525423728,40,0,40Z"></path><path class="line" stroke="black" fill="none" d="M0,15.58666666666667C1.0169491525423728,15.570666666666668,2.0338983050847457,15.554666666666664,3.0508474576271185,15.538666666666664C4.067796610169491,15.522666666666664,5.084745762711864,15.501777777777777,6.101694915254237,15.490666666666666C7.11864406779661,15.479555555555555,8.135593220338983,15.480444444444446,9.152542372881356,15.472000000000001C10.169491525423728,15.463555555555557,11.186440677966102,15.453777777777779,12.203389830508474,15.440000000000001C13.220338983050846,15.426222222222224,14.23728813559322,15.410222222222224,15.254237288135592,15.389333333333335C16.271186440677965,15.368444444444446,17.28813559322034,15.340000000000002,18.305084745762713,15.314666666666668C19.322033898305087,15.289333333333333,20.338983050847457,15.261333333333335,21.35593220338983,15.237333333333334C22.372881355932204,15.213333333333333,23.389830508474574,15.187999999999999,24.406779661016948,15.170666666666666C25.423728813559322,15.153333333333332,26.440677966101696,15.151555555555555,27.45762711864407,15.133333333333333C28.47457627118644,15.115111111111112,29.491525423728813,15.080888888888891,30.508474576271183,15.061333333333335C31.525423728813557,15.04177777777778,32.54237288135593,15.03422222222222,33.559322033898304,15.015999999999998C34.57627118644068,14.997777777777776,35.59322033898305,14.982222222222223,36.610169491525426,14.952000000000002C37.6271186440678,14.92177777777778,38.644067796610166,14.869333333333334,39.66101694915254,14.834666666666667C40.67796610169491,14.8,41.69491525423729,14.774666666666668,42.71186440677966,14.744000000000002C43.728813559322035,14.713333333333335,44.7457627118644,14.686666666666666,45.762711864406775,14.650666666666666C46.77966101694915,14.614666666666665,47.79661016949152,14.566666666666665,48.813559322033896,14.527999999999999C49.83050847457627,14.489333333333333,50.847457627118644,14.444,51.86440677966102,14.418666666666669C52.88135593220339,14.393333333333336,53.898305084745765,14.397333333333336,54.91525423728814,14.376000000000001C55.93220338983051,14.354666666666667,56.94915254237288,14.324888888888887,57.96610169491525,14.290666666666665C58.983050847457626,14.256444444444442,59.99999999999999,14.212888888888887,61.01694915254237,14.170666666666666C62.03389830508474,14.128444444444444,63.05084745762712,14.078222222222221,64.0677966101695,14.037333333333333C65.08474576271186,13.996444444444444,66.10169491525424,13.968888888888886,67.11864406779661,13.925333333333331C68.13559322033899,13.881777777777776,69.15254237288136,13.824888888888891,70.16949152542374,13.776000000000002C71.1864406779661,13.727111111111114,72.20338983050848,13.678666666666667,73.22033898305085,13.632C74.23728813559322,13.585333333333333,75.2542372881356,13.531555555555558,76.27118644067797,13.496000000000002C77.28813559322033,13.460444444444446,78.30508474576271,13.459555555555555,79.32203389830508,13.418666666666667C80.33898305084746,13.377777777777778,81.35593220338983,13.301333333333334,82.37288135593221,13.250666666666667C83.38983050847457,13.200000000000001,84.40677966101696,13.171999999999999,85.42372881355932,13.114666666666665C86.4406779661017,13.05733333333333,87.45762711864407,12.958666666666666,88.47457627118645,12.906666666666666C89.49152542372882,12.854666666666667,90.50847457627118,12.856444444444445,91.52542372881355,12.802666666666669C92.54237288135593,12.74888888888889,93.55932203389831,12.647555555555556,94.57627118644069,12.584C95.59322033898306,12.520444444444443,96.61016949152543,12.470222222222223,97.62711864406779,12.421333333333333C98.64406779661016,12.372444444444444,99.66101694915254,12.334666666666665,100.6779661016949,12.290666666666667C101.69491525423729,12.246666666666666,102.71186440677965,12.206222222222225,103.72881355932203,12.157333333333336C104.7457627118644,12.108444444444448,105.76271186440678,12.05288888888889,106.77966101694915,11.997333333333335C107.79661016949153,11.941777777777778,108.8135593220339,11.917777777777776,109.83050847457628,11.823999999999998C110.84745762711864,11.73022222222222,111.86440677966102,11.53688888888889,112.88135593220339,11.434666666666669C113.89830508474576,11.332444444444446,114.91525423728814,11.276444444444444,115.9322033898305,11.210666666666667C116.94915254237289,11.144888888888888,117.96610169491525,11.100000000000001,118.98305084745763,11.040000000000001C120,10.98,121.01694915254237,10.932444444444442,122.03389830508473,10.850666666666665C123.05084745762711,10.768888888888887,124.0677966101695,10.645777777777779,125.08474576271188,10.549333333333335C126.10169491525424,10.452888888888891,127.11864406779662,10.363111111111113,128.135593220339,10.272000000000002C129.15254237288136,10.18088888888889,130.16949152542372,10.083555555555556,131.1864406779661,10.002666666666666C132.20338983050846,9.921777777777777,133.22033898305085,9.864444444444446,134.23728813559322,9.786666666666669C135.25423728813558,9.708888888888891,136.27118644067798,9.598666666666665,137.28813559322035,9.535999999999998C138.3050847457627,9.473333333333331,139.3220338983051,9.483111111111109,140.33898305084747,9.410666666666664C141.35593220338984,9.338222222222221,142.3728813559322,9.248888888888889,143.38983050847457,9.101333333333335C144.40677966101694,8.953777777777779,145.42372881355934,8.664444444444444,146.4406779661017,8.525333333333332C147.45762711864407,8.386222222222221,148.47457627118644,8.356888888888887,149.4915254237288,8.266666666666666C150.50847457627117,8.176444444444444,151.52542372881356,8.081333333333333,152.54237288135593,7.984C153.5593220338983,7.886666666666667,154.5762711864407,7.770222222222225,155.59322033898306,7.682666666666669C156.61016949152543,7.595111111111113,157.6271186440678,7.523555555555555,158.64406779661016,7.458666666666667C159.66101694915253,7.393777777777777,160.67796610169492,7.359111111111112,161.6949152542373,7.293333333333334C162.71186440677965,7.227555555555556,163.72881355932205,7.148888888888889,164.74576271186442,7.063999999999999C165.76271186440678,6.97911111111111,166.77966101694915,6.88222222222222,167.79661016949152,6.783999999999999C168.81355932203388,6.685777777777777,169.83050847457628,6.5791111111111125,170.84745762711864,6.474666666666669C171.864406779661,6.370222222222225,172.8813559322034,6.252444444444446,173.89830508474577,6.157333333333335C174.91525423728814,6.062222222222223,175.93220338983053,5.982222222222221,176.9491525423729,5.903999999999998C177.96610169491527,5.825777777777776,178.98305084745763,5.756888888888888,180,5.688"></path><path class="axis-ceiling" stroke-width="1" stroke="black" fill="none" d="M175,0L180,0"></path><text class="axis-ceiling-label" font-family="sans-serif" text-anchor="end" font-size="10px" x="170" y="2.5">15000</text></g></svg>