<svg xmlns="http://www.w3.org/2000/svg" viewBox="0 0 180 60"><g transform="translate(0,20)"><path class="area" fill="rgba(0, 0, 0, 0.2)" d="M0,13.066666666666666C1.0169491525423728,15.733333333333338,2.0338983050847457,18.40000000000001,3.0508474576271185,18.933333333333337C4.067796610169491,19.466666666666665,5.084745762711864,19.200000000000003,6.101694915254237,19.73333333333333C7.11864406779661,20.26666666666666,8.135593220338983,22.400000000000002,9.152542372881356,22.400000000000002C10.169491525423728,22.400000000000002,11.186440677966102,19.2,12.203389830508474,19.2C13.220338983050846,19.2,14.23728813559322,27.466666666666665,15.254237288135592,27.466666666666665C16.271186440677965,27.466666666666665,17.28813559322034,25.06666666666667,18.305084745762713,25.06666666666667C19.322033898305087,25.06666666666667,20.338983050847457,25.6,21.35593220338983,25.6C22.372881355932204,25.6,23.389830508474574,22.48888888888889,24.406779661016948,21.6C25.423728813559322,20.711111111111112,26.440677966101696,20.755555555555556,27.45762711864407,20.266666666666666C28.47457627118644,19.77777777777778,29.491525423728813,18.666666666666668,30.508474576271183,18.666666666666668C31.525423728813557,18.666666666666668,32.54237288135593,27.11111111111111,33.559322033898304,29.066666666666666C34.57627118644068,31.022222222222222,35.59322033898305,32,36.610169491525426,32C37.6271186440678,32,38.644067796610166,27.955555555555552,39.66101694915254,26.4C40.67796610169491,24.84444444444444,41.69491525423729,22.666666666666664,42.71186440677966,22.666666666666664C43.728813559322035,22.666666666666664,44.7457627118644,23.200000000000003,45.762711864406775,23.200000000000003C46.77966101694915,23.200000000000003,47.79661016949152,22.133333333333333,48.813559322033896,22.133333333333333C49.83050847457627,22.133333333333333,50.847457627118644,24.133333333333333,51.86440677966102,25.333333333333332C52.88135593220339,26.53333333333333,53.898305084745765,28,54.91525423728814,29.333333333333336C55.93220338983051,30.666666666666668,56.94915254237288,33.333333333333336,57.96610169491525,33.333333333333336C58.983050847457626,33.333333333333336,59.99999999999999,29.466666666666665,61.01694915254237,28C62.03389830508474,26.533333333333328,63.05084745762712,24.53333333333333,64.0677966101695,24.53333333333333C65.08474576271186,24.53333333333333,66.10169491525424,25.022222222222226,67.11864406779661,25.6C68.13559322033899,26.17777777777778,69.15254237288136,28,70.16949152542374,28C71.1864406779661,28,72.20338983050848,24.53333333333333,73.22033898305085,24.53333333333333C74.23728813559322,24.53333333333333,75.2542372881356,25.155555555555555,76.27118644067797,26.4C77.28813559322033,27.644444444444442,78.30508474576271,34.4,79.32203389830508,34.4C80.33898305084746,34.4,81.35593220338983,31.46666666666667,82.37288135593221,29.866666666666664C83.38983050847457,28.266666666666666,84.40677966101696,24.8,85.42372881355932,24.8C86.4406779661017,24.8,87.45762711864407,29.68888888888888,88.47457627118645,30.4C89.49152542372882,31.11111111111111,90.50847457627118,31.466666666666665,91.52542372881355,31.466666666666665C92.54237288135593,31.466666666666665,93.55932203389831,31.200000000000003,94.57627118644069,31.200000000000003C95.59322033898306,31.200000000000003,96.61016949152543,34.93333333333333,97.62711864406779,34.93333333333333C98.64406779661016,34.93333333333333,99.66101694915254,34.93333333333333,100.6779661016949,34.93333333333333C101.69491525423729,34.93333333333333,102.71186440677965,32.44444444444445,103.72881355932203,30.933333333333334C104.7457627118644,29.422222222222224,105.76271186440678,25.866666666666667,106.77966101694915,25.866666666666667C107.79661016949153,25.866666666666667,108.8135593220339,34.4,109.83050847457628,34.4C110.84745762711864,34.4,111.86440677966102,33.333333333333336,112.88135593220339,32.800000000000004C113.89830508474576,32.26666666666667,114.91525423728814,31.200000000000003,115.9322033898305,31.200000000000003C116.94915254237289,31.200000000000003,117.96610169491525,31.28888888888889,118.98305084745763,31.466666666666665C120,31.64444444444444,121.01694915254237,32.266666666666666,122.03389830508473,32.266666666666666C123.05084745762711,32.266666666666666,124.0677966101695,32.266666666666666,125.08474576271188,32.266666666666666C126.10169491525424,32.266666666666666,127.11864406779662,31.822222222222226,128.135593220339,31.200000000000003C129.15254237288136,30.577777777777783,130.16949152542372,28.533333333333335,131.1864406779661,28.533333333333335C132.20338983050846,28.533333333333335,133.22033898305085,35.2,134.23728813559322,35.2C135.25423728813558,35.2,136.27118644067798,35.2,137.28813559322035,35.2C138.3050847457627,35.2,139.3220338983051,38.13333333333333,140.33898305084747,38.13333333333333C141.35593220338984,38.13333333333333,142.3728813559322,37.333333333333336,143.38983050847457,36.800000000000004C144.40677966101694,36.266666666666666,145.42372881355934,35.644444444444446,146.4406779661017,34.93333333333333C147.45762711864407,34.22222222222222,148.47457627118644,32.71111111111111,149.4915254237288,32.53333333333333C150.50847457627117,32.355555555555554,151.52542372881356,32.266666666666666,152.54237288135593,32.266666666666666C153.5593220338983,32.266666666666666,154.5762711864407,32.666666666666664,155.59322033898306,33.333333333333336C156.61016949152543,34,157.6271186440678,36.266666666666666,158.64406779661016,36.266666666666666C159.66101694915253,36.266666666666666,160.67796610169492,32.800000000000004,161.6949152542373,32.800000000000004C162.71186440677965,32.800000000000004,163.72881355932205,35.46666666666667,164.74576271186442,35.46666666666667C165.76271186440678,35.46666666666667,166.77966101694915,34.79999999999999,167.79661016949152,33.6C168.81355932203388,32.4,169.83050847457628,28.266666666666666,170.84745762711864,28.266666666666666C171.864406779661,28.266666666666666,172.8813559322034,30.933333333333334,173.89830508474577,30.933333333333334C174.91525423728814,30.933333333333334,175.93220338983053,30.844444444444445,176.9491525423729,30.666666666666664C177.96610169491527,30.488888888888887,178.98305084745763,29.11111111111111,180,27.733333333333334L180,40C178.98305084745763,40,177.96610169491527,40,176.9491525423729,40C175.93220338983053,40,174.91525423728814,40,173.89830508474577,40C172.8813559322034,40,171.864406779661,40,170.84745762711864,40C169.83050847457628,40,168.81355932203388,40,167.79661016949152,40C166.77966101694915,40,165.76271186440678,40,164.74576271186442,40C163.72881355932205,40,162.71186440677965,40,161.6949152542373,40C160.67796610169492,40,159.66101694915253,40,158.64406779661016,40C157.6271186440678,40,156.61016949152543,40,155.59322033898306,40C154.5762711864407,40,153.5593220338983,40,152.54237288135593,40C151.52542372881356,40,150.50847457627117,40,149.4915254237288,40C148.47457627118644,40,147.45762711864407,40,146.4406779661017,40C145.42372881355934,40,144.40677966101694,40,143.38983050847457,40C142.3728813559322,40,141.35593220338984,40,140.33898305084747,40C139.3220338983051,40,138.3050847457627,40,137.28813559322035,40C136.27118644067798,40,135.25423728813558,40,134.23728813559322,40C133.22033898305085,40,132.20338983050846,40,131.1864406779661,40C130.16949152542372,40,129.15254237288136,40,128.135593220339,40C127.11864406779662,40,126.10169491525424,40,125.08474576271188,40C124.0677966101695,40,123.05084745762711,40,122.03389830508473,40C121.01694915254237,40,120,40,118.98305084745763,40C117.96610169491525,40,116.94915254237289,40,115.9322033898305,40C114.91525423728814,40,113.89830508474576,40,112.88135593220339,40C111.86440677966102,40,110.84745762711864,40,109.83050847457628,40C108.8135593220339,40,107.79661016949153,40,106.77966101694915,40C105.76271186440678,40,104.7457627118644,40,103.72881355932203,40C102.71186440677965,40,101.69491525423729,40,100.6779661016949,40C99.66101694915254,40,98.64406779661016,40,97.62711864406779,40C96.61016949152543,40,95.59322033898306,40,94.57627118644069,40C93.55932203389831,40,92.54237288135593,40,91.52542372881355,40C90.50847457627118,40,89.49152542372882,40,88.47457627118645,40C87.45762711864407,40,86.4406779661017,40,85.42372881355932,40C84.40677966101696,40,83.38983050847457,40,82.37288135593221,40C81.35593220338983,40,80.33898305084746,40,79.32203389830508,40C78.30508474576271,40,77.28813559322033,40,76.27118644067797,40C75.2542372881356,40,74.23728813559322,40,73.22033898305085,40C72.20338983050848,40,71.1864406779661,40,70.16949152542374,40C69.15254237288136,40,68.13559322033899,40,67.11864406779661,40C66.10169491525424,40,65.08474576271186,40,64.0677966101695,40C63.05084745762712,40,62.03389830508474,40,61.01694915254237,40C59.99999999999999,40,58.983050847457626,40,57.96610169491525,40C56.94915254237288,40,55.93220338983051,40,54.91525423728814,40C53.898305084745765,40,52.88135593220339,40,51.86440677966102,40C50.847457627118644,40,49.83050847457627,40,48.813559322033896,40C47.79661016949152,40,46.77966101694915,40,45.762711864406775,40C44.7457627118644,40,43.728813559322035,40,42.71186440677966,40C41.69491525423729,40,40.67796610169491,40,39.66101694915254,40C38.644067796610166,40,37.6271186440678,40,36.610169491525426,40C35.59322033898305,40,34.57627118644068,40,33.559322033898304,40C32.54237288135593,40,31.525423728813557,40,30.508474576271183,40C29.491525423728813,40,28.47457627118644,40,27.45762711864407,40C26.440677966101696,40,25.423728813559322,40,24.406779661016948,40C23.389830508474574,40,22.372881355932204,40,21.35593220338983,40C20.338983050847457,40,19.322033898305087,40,18.305084745762713,40C17.28813559322034,40,16.271186440677965,40,15.254237288135592,40C14.23728813559322,40,13.220338983050846,40,12.203389830508474,40C11.186440677966102,40,10.169491525423728,40,9.152542372881356,40C8.135593220338983,40,7.11864406779661,40,6.101694915254237,40C5.084745762711864,40,4.067796610169491,40,3.0508474576271185,40C2.0338983050847457,40,1.0169491525423728,40,0,40Z"></path><path class="line" stroke="black" fill="none" d="M0,13.066666666666666C1.0169491525423728,15.733333333333338,2.0338983050847457,18.40000000000001,3.0508474576271185,18.933333333333337C4.067796610169491,19.466666666666665,5.084745762711864,19.200000000000003,6.101694915254237,19.73333333333333C7.11864406779661,20.26666666666666,8.135593220338983,22.400000000000002,9.152542372881356,22.400000000000002C10.169491525423728,22.400000000000002,11.186440677966102,19.2,12.203389830508474,19.2C13.220338983050846,19.2,14.23728813559322,27.466666666666665,15.254237288135592,27.466666666666665C16.271186440677965,27.466666666666665,17.28813559322034,25.06666666666667,18.305084745762713,25.06666666666667C19.322033898305087,25.06666666666667,20.338983050847457,25.6,21.35593220338983,25.6C22.372881355932204,25.6,23.389830508474574,22.48888888888889,24.406779661016948,21.6C25.423728813559322,20.711111111111112,26.440677966101696,20.755555555555556,27.45762711864407,20.266666666666666C28.47457627118644,19.77777777777778,29.491525423728813,18.666666666666668,30.508474576271183,18.666666666666668C31.525423728813557,18.666666666666668,32.54237288135593,27.11111111111111,33.559322033898304,29.066666666666666C34.57627118644068,31.022222222222222,35.59322033898305,32,36.610169491525426,32C37.6271186440678,32,38.644067796610166,27.955555555555552,39.66101694915254,26.4C40.67796610169491,24.84444444444444,41.69491525423729,22.666666666666664,42.71186440677966,22.666666666666664C43.728813559322035,22.666666666666664,44.7457627118644,23.200000000000003,45.762711864406775,23.200000000000003C46.77966101694915,23.200000000000003,47.79661016949152,22.133333333333333,48.813559322033896,22.133333333333333C49.83050847457627,22.133333333333333,50.847457627118644,24.133333333333333,51.86440677966102,25.333333333333332C52.88135593220339,26.53333333333333,53.898305084745765,28,54.91525423728814,29.333333333333336C55.93220338983051,30.666666666666668,56.94915254237288,33.333333333333336,57.96610169491525,33.333333333333336C58.983050847457626,33.333333333333336,59.99999999999999,29.466666666666665,61.01694915254237,28C62.03389830508474,26.533333333333328,63.05084745762712,24.53333333333333,64.0677966101695,24.53333333333333C65.08474576271186,24.53333333333333,66.10169491525424,25.022222222222226,67.11864406779661,25.6C68.13559322033899,26.17777777777778,69.15254237288136,28,70.16949152542374,28C71.1864406779661,28,72.20338983050848,24.53333333333333,73.22033898305085,24.53333333333333C74.23728813559322,24.53333333333333,75.2542372881356,25.155555555555555,76.27118644067797,26.4C77.28813559322033,27.644444444444442,78.30508474576271,34.4,79.32203389830508,34.4C80.33898305084746,34.4,81.35593220338983,31.46666666666667,82.37288135593221,29.866666666666664C83.38983050847457,28.266666666666666,84.40677966101696,24.8,85.42372881355932,24.8C86.4406779661017,24.8,87.45762711864407,29.68888888888888,88.47457627118645,30.4C89.49152542372882,31.11111111111111,90.50847457627118,31.466666666666665,91.52542372881355,31.466666666666665C92.54237288135593,31.466666666666665,93.55932203389831,31.200000000000003,94.57627118644069,31.200000000000003C95.59322033898306,31.200000000000003,96.61016949152543,34.93333333333333,97.62711864406779,34.93333333333333C98.64406779661016,34.93333333333333,99.66101694915254,34.93333333333333,100.6779661016949,34.93333333333333C101.69491525423729,34.93333333333333,102.71186440677965,32.44444444444445,103.72881355932203,30.933333333333334C104.7457627118644,29.422222222222224,105.76271186440678,25.866666666666667,106.77966101694915,25.866666666666667C107.79661016949153,25.866666666666667,108.8135593220339,34.4,109.83050847457628,34.4C110.84745762711864,34.4,111.86440677966102,33.333333333333336,112.88135593220339,32.800000000000004C113.89830508474576,32.26666666666667,114.91525423728814,31.200000000000003,115.9322033898305,31.200000000000003C116.94915254237289,31.200000000000003,117.96610169491525,31.28888888888889,118.98305084745763,31.466666666666665C120,31.64444444444444,121.01694915254237,32.266666666666666,122.03389830508473,32.266666666666666C123.05084745762711,32.266666666666666,124.0677966101695,32.266666666666666,125.08474576271188,32.266666666666666C126.10169491525424,32.266666666666666,127.11864406779662,31.822222222222226,128.135593220339,31.200000000000003C129.15254237288136,30.577777777777783,130.16949152542372,28.533333333333335,131.1864406779661,28.533333333333335C132.20338983050846,28.533333333333335,133.22033898305085,35.2,134.23728813559322,35.2C135.25423728813558,35.2,136.27118644067798,35.2,137.28813559322035,35.2C138.3050847457627,35.2,139.3220338983051,38.13333333333333,140.33898305084747,38.13333333333333C141.35593220338984,38.13333333333333,142.3728813559322,37.333333333333336,143.38983050847457,36.800000000000004C144.40677966101694,36.266666666666666,145.42372881355934,35.644444444444446,146.4406779661017,34.93333333333333C147.45762711864407,34.22222222222222,148.47457627118644,32.71111111111111,149.4915254237288,32.53333333333333C150.50847457627117,32.355555555555554,151.52542372881356,32.266666666666666,152.54237288135593,32.266666666666666C153.5593220338983,32.266666666666666,154.5762711864407,32.666666666666664,155.59322033898306,33.333333333333336C156.61016949152543,34,157.6271186440678,36.266666666666666,158.64406779661016,36.266666666666666C159.66101694915253,36.266666666666666,160.67796610169492,32.800000000000004,161.6949152542373,32.800000000000004C162.71186440677965,32.800000000000004,163.72881355932205,35.46666666666667,164.74576271186442,35.46666666666667C165.76271186440678,35.46666666666667,166.77966101694915,34.79999999999999,167.79661016949152,33.6C168.81355932203388,32.4,169.83050847457628,28.266666666666666,170.84745762711864,28.266666666666666C171.864406779661,28.266666666666666,172.8813559322034,30.933333333333334,173.89830508474577,30.933333333333334C174.91525423728814,30.933333333333334,175.93220338983053,30.844444444444445,176.9491525423729,30.666666666666664C177.96610169491527,30.488888888888887,178.98305084745763,29.11111111111111,180,27.733333333333334"></path><path class="axis-ceiling" stroke-width="1" stroke="black" fill="none" d="M175,0L180,0"></path><text class="axis-ceiling-label" font-family="sans-serif" text-anchor="end" font-size="10px" x="170" y="2.5">150</text></g></svg>