<svg xmlns="http://www.w3.org/2000/svg" viewBox="0 0 180 60"><g transform="translate(0,20)"><path class="area" fill="rgba(0, 0, 0, 0.2)" d="M0,5.217391304347827C1.0169491525423728,5.217391304347827,2.0338983050847457,5.217391304347827,3.0508474576271185,5.217391304347827C4.067796610169491,5.217391304347827,5.084745762711864,6.956521739130435,6.101694915254237,6.956521739130435C7.11864406779661,6.956521739130435,8.135593220338983,5.217391304347827,9.152542372881356,5.217391304347827C10.169491525423728,5.217391304347827,11.186440677966102,6.3768115942028984,12.203389830508474,6.956521739130435C13.220338983050846,7.536231884057971,14.23728813559322,8.695652173913043,15.254237288135592,8.695652173913043C16.271186440677965,8.695652173913043,17.28813559322034,8.695652173913043,18.305084745762713,8.695652173913043C19.322033898305087,8.695652173913043,20.338983050847457,4.637681159420292,21.35593220338983,3.4782608695652195C22.372881355932204,2.3188405797101472,23.389830508474574,2.3188405797101437,24.406779661016948,1.7391304347826075C25.423728813559322,1.1594202898550705,26.440677966101696,0,27.45762711864407,0C28.47457627118644,0,29.491525423728813,0,30.508474576271183,0C31.525423728813557,0,32.54237288135593,1.159420289855071,33.559322033898304,1.7391304347826075C34.57627118644068,2.318840579710144,35.59322033898305,2.608695652173913,36.610169491525426,3.4782608695652195C37.6271186440678,4.347826086956523,38.644067796610166,5.797101449275363,39.66101694915254,6.956521739130435C40.67796610169491,8.115942028985508,41.69491525423729,9.56521739130435,42.71186440677966,10.434782608695654C43.728813559322035,11.304347826086957,44.7457627118644,11.594202898550726,45.762711864406775,12.173913043478262C46.77966101694915,12.753623188405799,47.79661016949152,13.333333333333334,48.813559322033896,13.91304347826087C49.83050847457627,14.492753623188404,50.847457627118644,15.652173913043477,51.86440677966102,15.652173913043477C52.88135593220339,15.652173913043477,53.898305084745765,13.043478260869566,54.91525423728814,12.173913043478262C55.93220338983051,11.304347826086959,56.94915254237288,10.434782608695654,57.96610169491525,10.434782608695654C58.983050847457626,10.434782608695654,59.99999999999999,10.434782608695654,61.01694915254237,10.434782608695654C62.03389830508474,10.434782608695654,63.05084745762712,8.695652173913043,64.0677966101695,8.695652173913043C65.08474576271186,8.695652173913043,66.10169491525424,10.434782608695654,67.11864406779661,10.434782608695654C68.13559322033899,10.434782608695654,69.15254237288136,10.434782608695654,70.16949152542374,10.434782608695654C71.1864406779661,10.434782608695654,72.20338983050848,11.304347826086959,73.22033898305085,12.173913043478262C74.23728813559322,13.043478260869565,75.2542372881356,14.782608695652172,76.27118644067797,15.652173913043477C77.28813559322033,16.52173913043478,78.30508474576271,16.811594202898554,79.32203389830508,17.39130434782609C80.33898305084746,17.97101449275363,81.35593220338983,18.550724637681157,82.37288135593221,19.130434782608695C83.38983050847457,19.71014492753623,84.40677966101696,20.000000000000004,85.42372881355932,20.869565217391305C86.4406779661017,21.73913043478261,87.45762711864407,24.347826086956523,88.47457627118645,24.347826086956523C89.49152542372882,24.347826086956523,90.50847457627118,24.347826086956523,91.52542372881355,24.347826086956523C92.54237288135593,24.347826086956523,93.55932203389831,24.347826086956523,94.57627118644069,24.347826086956523C95.59322033898306,24.347826086956523,96.61016949152543,24.347826086956523,97.62711864406779,24.347826086956523C98.64406779661016,24.347826086956523,99.66101694915254,26.086956521739133,100.6779661016949,26.086956521739133C101.69491525423729,26.086956521739133,102.71186440677965,24.347826086956523,103.72881355932203,24.347826086956523C104.7457627118644,24.347826086956523,105.76271186440678,25.507246376811597,106.77966101694915,26.086956521739133C107.79661016949153,26.66666666666667,108.8135593220339,27.246376811594203,109.83050847457628,27.82608695652174C110.84745762711864,28.405797101449274,111.86440677966102,28.98550724637681,112.88135593220339,29.565217391304344C113.89830508474576,30.14492753623188,114.91525423728814,30.72463768115942,115.9322033898305,31.304347826086957C116.94915254237289,31.884057971014496,117.96610169491525,33.04347826086956,118.98305084745763,33.04347826086956C120,33.04347826086956,121.01694915254237,33.04347826086956,122.03389830508473,33.04347826086956C123.05084745762711,33.04347826086956,124.0677966101695,34.78260869565217,125.08474576271188,34.78260869565217C126.10169491525424,34.78260869565217,127.11864406779662,34.78260869565217,128.135593220339,34.78260869565217C129.15254237288136,34.78260869565217,130.16949152542372,36.52173913043478,131.1864406779661,36.52173913043478C132.20338983050846,36.52173913043478,133.22033898305085,36.52173913043478,134.23728813559322,36.52173913043478C135.25423728813558,36.52173913043478,136.27118644067798,36.52173913043478,137.28813559322035,36.52173913043478C138.3050847457627,36.52173913043478,139.3220338983051,36.52173913043478,140.33898305084747,36.52173913043478C141.35593220338984,36.52173913043478,142.3728813559322,36.52173913043478,143.38983050847457,36.52173913043478C144.40677966101694,36.52173913043478,145.42372881355934,36.52173913043478,146.4406779661017,36.52173913043478C147.45762711864407,36.52173913043478,148.47457627118644,36.52173913043478,149.4915254237288,36.52173913043478C150.50847457627117,36.52173913043478,151.52542372881356,38.26086956521739,152.54237288135593,38.26086956521739C153.5593220338983,38.26086956521739,154.5762711864407,38.26086956521739,155.59322033898306,38.26086956521739C156.61016949152543,38.26086956521739,157.6271186440678,36.52173913043478,158.64406779661016,36.52173913043478C159.66101694915253,36.52173913043478,160.67796610169492,38.26086956521739,161.6949152542373,38.26086956521739C162.71186440677965,38.26086956521739,163.72881355932205,38.26086956521739,164.74576271186442,38.26086956521739C165.76271186440678,38.26086956521739,166.77966101694915,38.26086956521739,167.79661016949152,38.26086956521739C168.81355932203388,38.26086956521739,169.83050847457628,34.78260869565217,170.84745762711864,34.78260869565217C171.864406779661,34.78260869565217,172.8813559322034,34.78260869565217,173.89830508474577,34.78260869565217C174.91525423728814,34.78260869565217,175.93220338983053,34.78260869565217,176.9491525423729,34.78260869565217C177.96610169491527,34.78260869565217,178.98305084745763,34.78260869565217,180,34.78260869565217L180,40C178.98305084745763,40,177.96610169491527,40,176.9491525423729,40C175.93220338983053,40,174.91525423728814,40,173.89830508474577,40C172.8813559322034,40,171.864406779661,40,170.84745762711864,40C169.83050847457628,40,168.81355932203388,40,167.79661016949152,40C166.77966101694915,40,165.76271186440678,40,164.74576271186442,40C163.72881355932205,40,162.71186440677965,40,161.6949152542373,40C160.67796610169492,40,159.66101694915253,40,158.64406779661016,40C157.6271186440678,40,156.61016949152543,40,155.59322033898306,40C154.5762711864407,40,153.5593220338983,40,152.54237288135593,40C151.52542372881356,40,150.50847457627117,40,149.4915254237288,40C148.47457627118644,40,147.45762711864407,40,146.4406779661017,40C145.42372881355934,40,144.40677966101694,40,143.38983050847457,40C142.3728813559322,40,141.35593220338984,40,140.33898305084747,40C139.3220338983051,40,138.3050847457627,40,137.28813559322035,40C136.27118644067798,40,135.25423728813558,40,134.23728813559322,40C133.22033898305085,40,132.20338983050846,40,131.1864406779661,40C130.16949152542372,40,129.15254237288136,40,128.135593220339,40C127.11864406779662,40,126.10169491525424,40,125.08474576271188,40C124.0677966101695,40,123.05084745762711,40,122.03389830508473,40C121.01694915254237,40,120,40,118.98305084745763,40C117.96610169491525,40,116.94915254237289,40,115.9322033898305,40C114.91525423728814,40,113.89830508474576,40,112.88135593220339,40C111.86440677966102,40,110.84745762711864,40,109.83050847457628,40C108.8135593220339,40,107.79661016949153,40,106.77966101694915,40C105.76271186440678,40,104.7457627118644,40,103.72881355932203,40C102.71186440677965,40,101.69491525423729,40,100.6779661016949,40C99.66101694915254,40,98.64406779661016,40,97.62711864406779,40C96.61016949152543,40,95.59322033898306,40,94.57627118644069,40C93.55932203389831,40,92.54237288135593,40,91.52542372881355,40C90.50847457627118,40,89.49152542372882,40,88.47457627118645,40C87.45762711864407,40,86.4406779661017,40,85.42372881355932,40C84.40677966101696,40,83.38983050847457,40,82.37288135593221,40C81.35593220338983,40,80.33898305084746,40,79.32203389830508,40C78.30508474576271,40,77.28813559322033,40,76.27118644067797,40C75.2542372881356,40,74.23728813559322,40,73.22033898305085,40C72.20338983050848,40,71.1864406779661,40,70.16949152542374,40C69.15254237288136,40,68.13559322033899,40,67.11864406779661,40C66.10169491525424,40,65.08474576271186,40,64.0677966101695,40C63.05084745762712,40,62.03389830508474,40,61.01694915254237,40C59.99999999999999,40,58.983050847457626,40,57.96610169491525,40C56.94915254237288,40,55.93220338983051,40,54.91525423728814,40C53.898305084745765,40,52.88135593220339,40,51.86440677966102,40C50.847457627118644,40,49.83050847457627,40,48.813559322033896,40C47.79661016949152,40,46.77966101694915,40,45.762711864406775,40C44.7457627118644,40,43.728813559322035,40,42.71186440677966,40C41.69491525423729,40,40.67796610169491,40,39.66101694915254,40C38.644067796610166,40,37.6271186440678,40,36.610169491525426,40C35.59322033898305,40,34.57627118644068,40,33.559322033898304,40C32.54237288135593,40,31.525423728813557,40,30.508474576271183,40C29.491525423728813,40,28.47457627118644,40,27.45762711864407,40C26.440677966101696,40,25.423728813559322,40,24.406779661016948,40C23.389830508474574,40,22.372881355932204,40,21.35593220338983,40C20.338983050847457,40,19.322033898305087,40,18.305084745762713,40C17.28813559322034,40,16.271186440677965,40,15.254237288135592,40C14.23728813559322,40,13.220338983050846,40,12.203389830508474,40C11.186440677966102,40,10.169491525423728,40,9.152542372881356,40C8.135593220338983,40,7.11864406779661,40,6.101694915254237,40C5.084745762711864,40,4.067796610169491,40,3.0508474576271185,40C2.0338983050847457,40,1.0169491525423728,40,0,40Z"></path><path class="line" stroke="black" fill="none" d="M0,5.217391304347827C1.0169491525423728,5.217391304347827,2.0338983050847457,5.217391304347827,3.0508474576271185,5.217391304347827C4.067796610169491,5.217391304347827,5.084745762711864,6.956521739130435,6.101694915254237,6.956521739130435C7.11864406779661,6.956521739130435,8.135593220338983,5.217391304347827,9.152542372881356,5.217391304347827C10.169491525423728,5.217391304347827,11.186440677966102,6.3768115942028984,12.203389830508474,6.956521739130435C13.220338983050846,7.536231884057971,14.23728813559322,8.695652173913043,15.254237288135592,8.695652173913043C16.271186440677965,8.695652173913043,17.28813559322034,8.695652173913043,18.305084745762713,8.695652173913043C19.322033898305087,8.695652173913043,20.338983050847457,4.637681159420292,21.35593220338983,3.4782608695652195C22.372881355932204,2.3188405797101472,23.389830508474574,2.3188405797101437,24.406779661016948,1.7391304347826075C25.423728813559322,1.1594202898550705,26.440677966101696,0,27.45762711864407,0C28.47457627118644,0,29.491525423728813,0,30.508474576271183,0C31.525423728813557,0,32.54237288135593,1.159420289855071,33.559322033898304,1.7391304347826075C34.57627118644068,2.318840579710144,35.59322033898305,2.608695652173913,36.610169491525426,3.4782608695652195C37.6271186440678,4.347826086956523,38.644067796610166,5.797101449275363,39.66101694915254,6.956521739130435C40.67796610169491,8.115942028985508,41.69491525423729,9.56521739130435,42.71186440677966,10.434782608695654C43.728813559322035,11.304347826086957,44.7457627118644,11.594202898550726,45.762711864406775,12.173913043478262C46.77966101694915,12.753623188405799,47.79661016949152,13.333333333333334,48.813559322033896,13.91304347826087C49.83050847457627,14.492753623188404,50.847457627118644,15.652173913043477,51.86440677966102,15.652173913043477C52.88135593220339,15.652173913043477,53.898305084745765,13.043478260869566,54.91525423728814,12.173913043478262C55.93220338983051,11.304347826086959,56.94915254237288,10.434782608695654,57.96610169491525,10.434782608695654C58.983050847457626,10.434782608695654,59.99999999999999,10.434782608695654,61.01694915254237,10.434782608695654C62.03389830508474,10.434782608695654,63.05084745762712,8.695652173913043,64.0677966101695,8.695652173913043C65.08474576271186,8.695652173913043,66.10169491525424,10.434782608695654,67.11864406779661,10.434782608695654C68.13559322033899,10.434782608695654,69.15254237288136,10.434782608695654,70.16949152542374,10.434782608695654C71.1864406779661,10.434782608695654,72.20338983050848,11.304347826086959,73.22033898305085,12.173913043478262C74.23728813559322,13.043478260869565,75.2542372881356,14.782608695652172,76.27118644067797,15.652173913043477C77.28813559322033,16.52173913043478,78.30508474576271,16.811594202898554,79.32203389830508,17.39130434782609C80.33898305084746,17.97101449275363,81.35593220338983,18.550724637681157,82.37288135593221,19.130434782608695C83.38983050847457,19.71014492753623,84.40677966101696,20.000000000000004,85.42372881355932,20.869565217391305C86.4406779661017,21.73913043478261,87.45762711864407,24.347826086956523,88.47457627118645,24.347826086956523C89.49152542372882,24.347826086956523,90.50847457627118,24.347826086956523,91.52542372881355,24.347826086956523C92.54237288135593,24.347826086956523,93.55932203389831,24.347826086956523,94.57627118644069,24.347826086956523C95.59322033898306,24.347826086956523,96.61016949152543,24.347826086956523,97.62711864406779,24.347826086956523C98.64406779661016,24.347826086956523,99.66101694915254,26.086956521739133,100.6779661016949,26.086956521739133C101.69491525423729,26.086956521739133,102.71186440677965,24.347826086956523,103.72881355932203,24.347826086956523C104.7457627118644,24.347826086956523,105.76271186440678,25.507246376811597,106.77966101694915,26.086956521739133C107.79661016949153,26.66666666666667,108.8135593220339,27.246376811594203,109.83050847457628,27.82608695652174C110.84745762711864,28.405797101449274,111.86440677966102,28.98550724637681,112.88135593220339,29.565217391304344C113.89830508474576,30.14492753623188,114.91525423728814,30.72463768115942,115.9322033898305,31.304347826086957C116.94915254237289,31.884057971014496,117.96610169491525,33.04347826086956,118.98305084745763,33.04347826086956C120,33.04347826086956,121.01694915254237,33.04347826086956,122.03389830508473,33.04347826086956C123.05084745762711,33.04347826086956,124.0677966101695,34.78260869565217,125.08474576271188,34.78260869565217C126.10169491525424,34.78260869565217,127.11864406779662,34.78260869565217,128.135593220339,34.78260869565217C129.15254237288136,34.78260869565217,130.16949152542372,36.52173913043478,131.1864406779661,36.52173913043478C132.20338983050846,36.52173913043478,133.22033898305085,36.52173913043478,134.23728813559322,36.52173913043478C135.25423728813558,36.52173913043478,136.27118644067798,36.52173913043478,137.28813559322035,36.52173913043478C138.3050847457627,36.52173913043478,139.3220338983051,36.52173913043478,140.33898305084747,36.52173913043478C141.35593220338984,36.52173913043478,142.3728813559322,36.52173913043478,143.38983050847457,36.52173913043478C144.40677966101694,36.52173913043478,145.42372881355934,36.52173913043478,146.4406779661017,36.52173913043478C147.45762711864407,36.52173913043478,148.47457627118644,36.52173913043478,149.4915254237288,36.52173913043478C150.50847457627117,36.52173913043478,151.52542372881356,38.26086956521739,152.54237288135593,38.26086956521739C153.5593220338983,38.26086956521739,154.5762711864407,38.26086956521739,155.59322033898306,38.26086956521739C156.61016949152543,38.26086956521739,157.6271186440678,36.52173913043478,158.64406779661016,36.52173913043478C159.66101694915253,36.52173913043478,160.67796610169492,38.26086956521739,161.6949152542373,38.26086956521739C162.71186440677965,38.26086956521739,163.72881355932205,38.26086956521739,164.74576271186442,38.26086956521739C165.76271186440678,38.26086956521739,166.77966101694915,38.26086956521739,167.79661016949152,38.26086956521739C168.81355932203388,38.26086956521739,169.83050847457628,34.78260869565217,170.84745762711864,34.78260869565217C171.864406779661,34.78260869565217,172.8813559322034,34.78260869565217,173.89830508474577,34.78260869565217C174.91525423728814,34.78260869565217,175.93220338983053,34.78260869565217,176.9491525423729,34.78260869565217C177.96610169491527,34.78260869565217,178.98305084745763,34.78260869565217,180,34.78260869565217"></path><path class="axis-ceiling" stroke-width="1" stroke="black" fill="none" d="M175,-12.173913043478262L180,-12.173913043478262"></path><text class="axis-ceiling-label" font-family="sans-serif" text-anchor="end" font-size="10px" x="170" y="-9.673913043478262">35</text></g></svg>