<svg xmlns="http://www.w3.org/2000/svg" viewBox="0 0 180 60"><g transform="translate(0,20)"><path class="area" fill="rgba(0, 0, 0, 0.2)" d="M0,15.58666666666667C1.0169491525423728,15.586111111111112,2.0338983050847457,15.585555555555555,3.0508474576271185,15.583999999999998C4.067796610169491,15.582444444444441,5.084745762711864,15.579111111111109,6.101694915254237,15.577333333333332C7.11864406779661,15.575555555555555,8.135593220338983,15.575999999999999,9.152542372881356,15.573333333333332C10.169491525423728,15.570666666666666,11.186440677966102,15.56311111111111,12.203389830508474,15.56C13.220338983050846,15.55688888888889,14.23728813559322,15.554666666666668,15.254237288135592,15.554666666666668C16.271186440677965,15.554666666666668,17.28813559322034,15.554666666666668,18.305084745762713,15.554666666666668C19.322033898305087,15.554666666666668,20.338983050847457,15.552222222222223,21.35593220338983,15.549333333333335C22.372881355932204,15.546444444444447,23.389830508474574,15.542222222222222,24.406779661016948,15.537333333333333C25.423728813559322,15.532444444444444,26.440677966101696,15.524666666666667,27.45762711864407,15.52C28.47457627118644,15.515333333333333,29.491525423728813,15.513111111111112,30.508474576271183,15.509333333333334C31.525423728813557,15.505555555555556,32.54237288135593,15.50311111111111,33.559322033898304,15.497333333333332C34.57627118644068,15.491555555555554,35.59322033898305,15.480444444444446,36.610169491525426,15.474666666666668C37.6271186440678,15.46888888888889,38.644067796610166,15.468444444444442,39.66101694915254,15.462666666666664C40.67796610169491,15.456888888888885,41.69491525423729,15.453111111111111,42.71186440677966,15.440000000000001C43.728813559322035,15.426888888888891,44.7457627118644,15.400888888888892,45.762711864406775,15.384000000000002C46.77966101694915,15.367111111111113,47.79661016949152,15.356666666666666,48.813559322033896,15.338666666666665C49.83050847457627,15.320666666666664,50.847457627118644,15.296888888888889,51.86440677966102,15.276C52.88135593220339,15.25511111111111,53.898305084745765,15.229777777777777,54.91525423728814,15.213333333333331C55.93220338983051,15.196888888888887,56.94915254237288,15.19022222222222,57.96610169491525,15.177333333333332C58.983050847457626,15.164444444444444,59.99999999999999,15.153555555555554,61.01694915254237,15.136C62.03389830508474,15.118444444444444,63.05084745762712,15.098,64.0677966101695,15.072000000000001C65.08474576271186,15.046000000000001,66.10169491525424,15.013555555555557,67.11864406779661,14.980000000000002C68.13559322033899,14.946444444444447,69.15254237288136,14.906000000000002,70.16949152542374,14.870666666666668C71.1864406779661,14.835333333333335,72.20338983050848,14.807777777777776,73.22033898305085,14.767999999999999C74.23728813559322,14.728222222222222,75.2542372881356,14.677111111111111,76.27118644067797,14.632000000000001C77.28813559322033,14.586888888888891,78.30508474576271,14.534888888888892,79.32203389830508,14.497333333333335C80.33898305084746,14.459777777777779,81.35593220338983,14.44688888888889,82.37288135593221,14.406666666666666C83.38983050847457,14.366444444444443,84.40677966101696,14.316666666666668,85.42372881355932,14.256000000000002C86.4406779661017,14.195333333333336,87.45762711864407,14.114222222222221,88.47457627118645,14.042666666666666C89.49152542372882,13.97111111111111,90.50847457627118,13.899111111111113,91.52542372881355,13.826666666666668C92.54237288135593,13.754222222222223,93.55932203389831,13.677777777777775,94.57627118644069,13.607999999999997C95.59322033898306,13.53822222222222,96.61016949152543,13.473777777777778,97.62711864406779,13.408000000000001C98.64406779661016,13.342222222222224,99.66101694915254,13.276222222222223,100.6779661016949,13.213333333333335C101.69491525423729,13.150444444444446,102.71186440677965,13.094,103.72881355932203,13.030666666666665C104.7457627118644,12.96733333333333,105.76271186440678,12.918666666666665,106.77966101694915,12.833333333333332C107.79661016949153,12.748,108.8135593220339,12.624666666666664,109.83050847457628,12.518666666666665C110.84745762711864,12.412666666666665,111.86440677966102,12.311333333333332,112.88135593220339,12.197333333333331C113.89830508474576,12.08333333333333,114.91525423728814,11.941999999999997,115.9322033898305,11.834666666666664C116.94915254237289,11.72733333333333,117.96610169491525,11.648444444444445,118.98305084745763,11.553333333333335C120,11.458222222222224,121.01694915254237,11.347333333333333,122.03389830508473,11.264C123.05084745762711,11.180666666666665,124.0677966101695,11.126888888888889,125.08474576271188,11.053333333333333C126.10169491525424,10.979777777777777,127.11864406779662,10.932666666666664,128.135593220339,10.822666666666665C129.15254237288136,10.712666666666665,130.16949152542372,10.519555555555556,131.1864406779661,10.393333333333334C132.20338983050846,10.267111111111111,133.22033898305085,10.16577777777778,134.23728813559322,10.065333333333335C135.25423728813558,9.96488888888889,136.27118644067798,9.898444444444445,137.28813559322035,9.790666666666667C138.3050847457627,9.682888888888888,139.3220338983051,9.537555555555558,140.33898305084747,9.418666666666669C141.35593220338984,9.29977777777778,142.3728813559322,9.16622222222222,143.38983050847457,9.077333333333332C144.40677966101694,8.988444444444442,145.42372881355934,8.960444444444443,146.4406779661017,8.885333333333332C147.45762711864407,8.81022222222222,148.47457627118644,8.722666666666667,149.4915254237288,8.626666666666667C150.50847457627117,8.530666666666667,151.52542372881356,8.415111111111111,152.54237288135593,8.309333333333333C153.5593220338983,8.203555555555555,154.5762711864407,8.101555555555555,155.59322033898306,7.991999999999999C156.61016949152543,7.882444444444444,157.6271186440678,7.7604444444444445,158.64406779661016,7.652000000000001C159.66101694915253,7.543555555555556,160.67796610169492,7.427333333333333,161.6949152542373,7.341333333333333C162.71186440677965,7.255333333333333,163.72881355932205,7.1995555555555555,164.74576271186442,7.136C165.76271186440678,7.072444444444446,166.77966101694915,7.016444444444446,167.79661016949152,6.960000000000002C168.81355932203388,6.903555555555557,169.83050847457628,6.880000000000003,170.84745762711864,6.797333333333335C171.864406779661,6.714666666666668,172.8813559322034,6.566888888888888,173.89830508474577,6.463999999999999C174.91525423728814,6.361111111111109,175.93220338983053,6.268888888888888,176.9491525423729,6.179999999999999C177.96610169491527,6.09111111111111,178.98305084745763,6.010888888888888,180,5.930666666666666L180,40C178.98305084745763,40,177.96610169491527,40,176.9491525423729,40C175.93220338983053,40,174.91525423728814,40,173.89830508474577,40C172.8813559322034,40,171.864406779661,40,170.84745762711864,40C169.83050847457628,40,168.81355932203388,40,167.79661016949152,40C166.77966101694915,40,165.76271186440678,40,164.74576271186442,40C163.72881355932205,40,162.71186440677965,40,161.6949152542373,40C160.67796610169492,40,159.66101694915253,40,158.64406779661016,40C157.6271186440678,40,156.61016949152543,40,155.59322033898306,40C154.5762711864407,40,153.5593220338983,40,152.54237288135593,40C151.52542372881356,40,150.50847457627117,40,149.4915254237288,40C148.47457627118644,40,147.45762711864407,40,146.4406779661017,40C145.42372881355934,40,144.40677966101694,40,143.38983050847457,40C142.3728813559322,40,141.35593220338984,40,140.33898305084747,40C139.3220338983051,40,138.3050847457627,40,137.28813559322035,40C136.27118644067798,40,135.25423728813558,40,134.23728813559322,40C133.22033898305085,40,132.20338983050846,40,131.1864406779661,40C130.16949152542372,40,129.15254237288136,40,128.135593220339,40C127.11864406779662,40,126.10169491525424,40,125.08474576271188,40C124.0677966101695,40,123.05084745762711,40,122.03389830508473,40C121.01694915254237,40,120,40,118.98305084745763,40C117.96610169491525,40,116.94915254237289,40,115.9322033898305,40C114.91525423728814,40,113.89830508474576,40,112.88135593220339,40C111.86440677966102,40,110.84745762711864,40,109.83050847457628,40C108.8135593220339,40,107.79661016949153,40,106.77966101694915,40C105.76271186440678,40,104.7457627118644,40,103.72881355932203,40C102.71186440677965,40,101.69491525423729,40,100.6779661016949,40C99.66101694915254,40,98.64406779661016,40,97.62711864406779,40C96.61016949152543,40,95.59322033898306,40,94.57627118644069,40C93.55932203389831,40,92.54237288135593,40,91.52542372881355,40C90.50847457627118,40,89.49152542372882,40,88.47457627118645,40C87.45762711864407,40,86.4406779661017,40,85.42372881355932,40C84.40677966101696,40,83.38983050847457,40,82.37288135593221,40C81.35593220338983,40,80.33898305084746,40,79.32203389830508,40C78.30508474576271,40,77.28813559322033,40,76.27118644067797,40C75.2542372881356,40,74.23728813559322,40,73.22033898305085,40C72.20338983050848,40,71.1864406779661,40,70.16949152542374,40C69.15254237288136,40,68.13559322033899,40,67.11864406779661,40C66.10169491525424,40,65.08474576271186,40,64.0677966101695,40C63.05084745762712,40,62.03389830508474,40,61.01694915254237,40C59.99999999999999,40,58.983050847457626,40,57.96610169491525,40C56.94915254237288,40,55.93220338983051,40,54.91525423728814,40C53.898305084745765,40,52.88135593220339,40,51.86440677966102,40C50.847457627118644,40,49.83050847457627,40,48.813559322033896,40C47.79661016949152,40,46.77966101694915,40,45.762711864406775,40C44.7457627118644,40,43.728813559322035,40,42.71186440677966,40C41.69491525423729,40,40.67796610169491,40,39.66101694915254,40C38.644067796610166,40,37.6271186440678,40,36.610169491525426,40C35.59322033898305,40,34.57627118644068,40,33.559322033898304,40C32.54237288135593,40,31.525423728813557,40,30.508474576271183,40C29.491525423728813,40,28.47457627118644,40,27.45762711864407,40C26.440677966101696,40,25.423728813559322,40,24.406779661016948,40C23.389830508474574,40,22.372881355932204,40,21.35593220338983,40C20.338983050847457,40,19.322033898305087,40,18.305084745762713,40C17.28813559322034,40,16.271186440677965,40,15.254237288135592,40C14.23728813559322,40,13.220338983050846,40,12.203389830508474,40C11.186440677966102,40,10.169491525423728,40,9.152542372881356,40C8.135593220338983,40,7.11864406779661,40,6.101694915254237,40C5.084745762711864,40,4.067796610169491,40,3.0508474576271185,40C2.0338983050847457,40,1.0169491525423728,40,0,40Z"></path><path class="line" stroke="black" fill="none" d="M0,15.58666666666667C1.0169491525423728,15.586111111111112,2.0338983050847457,15.585555555555555,3.0508474576271185,15.583999999999998C4.067796610169491,15.582444444444441,5.084745762711864,15.579111111111109,6.101694915254237,15.577333333333332C7.11864406779661,15.575555555555555,8.135593220338983,15.575999999999999,9.152542372881356,15.573333333333332C10.169491525423728,15.570666666666666,11.186440677966102,15.56311111111111,12.203389830508474,15.56C13.220338983050846,15.55688888888889,14.23728813559322,15.554666666666668,15.254237288135592,15.554666666666668C16.271186440677965,15.554666666666668,17.28813559322034,15.554666666666668,18.305084745762713,15.554666666666668C19.322033898305087,15.554666666666668,20.338983050847457,15.552222222222223,21.35593220338983,15.549333333333335C22.372881355932204,15.546444444444447,23.389830508474574,15.542222222222222,24.406779661016948,15.537333333333333C25.423728813559322,15.532444444444444,26.440677966101696,15.524666666666667,27.45762711864407,15.52C28.47457627118644,15.515333333333333,29.491525423728813,15.513111111111112,30.508474576271183,15.509333333333334C31.525423728813557,15.505555555555556,32.54237288135593,15.50311111111111,33.559322033898304,15.497333333333332C34.57627118644068,15.491555555555554,35.59322033898305,15.480444444444446,36.610169491525426,15.474666666666668C37.6271186440678,15.46888888888889,38.644067796610166,15.468444444444442,39.66101694915254,15.462666666666664C40.67796610169491,15.456888888888885,41.69491525423729,15.453111111111111,42.71186440677966,15.440000000000001C43.728813559322035,15.426888888888891,44.7457627118644,15.400888888888892,45.762711864406775,15.384000000000002C46.77966101694915,15.367111111111113,47.79661016949152,15.356666666666666,48.813559322033896,15.338666666666665C49.83050847457627,15.320666666666664,50.847457627118644,15.296888888888889,51.86440677966102,15.276C52.88135593220339,15.25511111111111,53.898305084745765,15.229777777777777,54.91525423728814,15.213333333333331C55.93220338983051,15.196888888888887,56.94915254237288,15.19022222222222,57.96610169491525,15.177333333333332C58.983050847457626,15.164444444444444,59.99999999999999,15.153555555555554,61.01694915254237,15.136C62.03389830508474,15.118444444444444,63.05084745762712,15.098,64.0677966101695,15.072000000000001C65.08474576271186,15.046000000000001,66.10169491525424,15.013555555555557,67.11864406779661,14.980000000000002C68.13559322033899,14.946444444444447,69.15254237288136,14.906000000000002,70.16949152542374,14.870666666666668C71.1864406779661,14.835333333333335,72.20338983050848,14.807777777777776,73.22033898305085,14.767999999999999C74.23728813559322,14.728222222222222,75.2542372881356,14.677111111111111,76.27118644067797,14.632000000000001C77.28813559322033,14.586888888888891,78.30508474576271,14.534888888888892,79.32203389830508,14.497333333333335C80.33898305084746,14.459777777777779,81.35593220338983,14.44688888888889,82.37288135593221,14.406666666666666C83.38983050847457,14.366444444444443,84.40677966101696,14.316666666666668,85.42372881355932,14.256000000000002C86.4406779661017,14.195333333333336,87.45762711864407,14.114222222222221,88.47457627118645,14.042666666666666C89.49152542372882,13.97111111111111,90.50847457627118,13.899111111111113,91.52542372881355,13.826666666666668C92.54237288135593,13.754222222222223,93.55932203389831,13.677777777777775,94.57627118644069,13.607999999999997C95.59322033898306,13.53822222222222,96.61016949152543,13.473777777777778,97.62711864406779,13.408000000000001C98.64406779661016,13.342222222222224,99.66101694915254,13.276222222222223,100.6779661016949,13.213333333333335C101.69491525423729,13.150444444444446,102.71186440677965,13.094,103.72881355932203,13.030666666666665C104.7457627118644,12.96733333333333,105.76271186440678,12.918666666666665,106.77966101694915,12.833333333333332C107.79661016949153,12.748,108.8135593220339,12.624666666666664,109.83050847457628,12.518666666666665C110.84745762711864,12.412666666666665,111.86440677966102,12.311333333333332,112.88135593220339,12.197333333333331C113.89830508474576,12.08333333333333,114.91525423728814,11.941999999999997,115.9322033898305,11.834666666666664C116.94915254237289,11.72733333333333,117.96610169491525,11.648444444444445,118.98305084745763,11.553333333333335C120,11.458222222222224,121.01694915254237,11.347333333333333,122.03389830508473,11.264C123.05084745762711,11.180666666666665,124.0677966101695,11.126888888888889,125.08474576271188,11.053333333333333C126.10169491525424,10.979777777777777,127.11864406779662,10.932666666666664,128.135593220339,10.822666666666665C129.15254237288136,10.712666666666665,130.16949152542372,10.519555555555556,131.1864406779661,10.393333333333334C132.20338983050846,10.267111111111111,133.22033898305085,10.16577777777778,134.23728813559322,10.065333333333335C135.25423728813558,9.96488888888889,136.27118644067798,9.898444444444445,137.28813559322035,9.790666666666667C138.3050847457627,9.682888888888888,139.3220338983051,9.537555555555558,140.33898305084747,9.418666666666669C141.35593220338984,9.29977777777778,142.3728813559322,9.16622222222222,143.38983050847457,9.077333333333332C144.40677966101694,8.988444444444442,145.42372881355934,8.960444444444443,146.4406779661017,8.885333333333332C147.45762711864407,8.81022222222222,148.47457627118644,8.722666666666667,149.4915254237288,8.626666666666667C150.50847457627117,8.530666666666667,151.52542372881356,8.415111111111111,152.54237288135593,8.309333333333333C153.5593220338983,8.203555555555555,154.5762711864407,8.101555555555555,155.59322033898306,7.991999999999999C156.61016949152543,7.882444444444444,157.6271186440678,7.7604444444444445,158.64406779661016,7.652000000000001C159.66101694915253,7.543555555555556,160.67796610169492,7.427333333333333,161.6949152542373,7.341333333333333C162.71186440677965,7.255333333333333,163.72881355932205,7.1995555555555555,164.74576271186442,7.136C165.76271186440678,7.072444444444446,166.77966101694915,7.016444444444446,167.79661016949152,6.960000000000002C168.81355932203388,6.903555555555557,169.83050847457628,6.880000000000003,170.84745762711864,6.797333333333335C171.864406779661,6.714666666666668,172.8813559322034,6.566888888888888,173.89830508474577,6.463999999999999C174.91525423728814,6.361111111111109,175.93220338983053,6.268888888888888,176.9491525423729,6.179999999999999C177.96610169491527,6.09111111111111,178.98305084745763,6.010888888888888,180,5.930666666666666"></path><path class="axis-ceiling" stroke-width="1" stroke="black" fill="none" d="M175,0L180,0"></path><text class="axis-ceiling-label" font-family="sans-serif" text-anchor="end" font-size="10px" x="170" y="2.5">30000</text></g></svg>