<svg xmlns="http://www.w3.org/2000/svg" viewBox="0 0 180 60"><g transform="translate(0,20)"><path class="area" fill="rgba(0, 0, 0, 0.2)" d="M0,38.72C1.0169491525423728,38.68,2.0338983050847457,38.64,3.0508474576271185,38.56C4.067796610169491,38.480000000000004,5.084745762711864,38.42666666666666,6.101694915254237,38.239999999999995C7.11864406779661,38.05333333333333,8.135593220338983,37.65333333333333,9.152542372881356,37.44C10.169491525423728,37.22666666666667,11.186440677966102,37.2,12.203389830508474,36.96C13.220338983050846,36.72,14.23728813559322,36.29333333333333,15.254237288135592,36C16.271186440677965,35.70666666666666,17.28813559322034,35.30666666666667,18.305084745762713,35.2C19.322033898305087,35.093333333333334,20.338983050847457,35.14666666666667,21.35593220338983,35.04C22.372881355932204,34.93333333333333,23.389830508474574,34.61333333333333,24.406779661016948,34.4C25.423728813559322,34.18666666666667,26.440677966101696,33.97333333333333,27.45762711864407,33.76C28.47457627118644,33.54666666666667,29.491525423728813,33.413333333333334,30.508474576271183,33.120000000000005C31.525423728813557,32.82666666666667,32.54237288135593,32.29333333333334,33.559322033898304,32C34.57627118644068,31.706666666666667,35.59322033898305,31.68,36.610169491525426,31.36C37.6271186440678,31.04,38.644067796610166,30.56,39.66101694915254,30.08C40.67796610169491,29.599999999999998,41.69491525423729,28.906666666666663,42.71186440677966,28.479999999999997C43.728813559322035,28.05333333333333,44.7457627118644,27.919999999999995,45.762711864406775,27.519999999999996C46.77966101694915,27.119999999999997,47.79661016949152,26.666666666666668,48.813559322033896,26.080000000000002C49.83050847457627,25.493333333333336,50.847457627118644,24.64,51.86440677966102,24C52.88135593220339,23.36,53.898305084745765,22.880000000000003,54.91525423728814,22.240000000000002C55.93220338983051,21.6,56.94915254237288,20.693333333333335,57.96610169491525,20.16C58.983050847457626,19.626666666666665,59.99999999999999,19.386666666666667,61.01694915254237,19.04C62.03389830508474,18.69333333333333,63.05084745762712,18.506666666666668,64.0677966101695,18.08C65.08474576271186,17.653333333333332,66.10169491525424,16.88,67.11864406779661,16.48C68.13559322033899,16.08,69.15254237288136,16.10666666666667,70.16949152542374,15.68C71.1864406779661,15.253333333333334,72.20338983050848,14.506666666666664,73.22033898305085,13.919999999999998C74.23728813559322,13.333333333333332,75.2542372881356,12.880000000000003,76.27118644067797,12.160000000000002C77.28813559322033,11.440000000000001,78.30508474576271,10.24,79.32203389830508,9.6C80.33898305084746,8.959999999999997,81.35593220338983,8.799999999999999,82.37288135593221,8.319999999999999C83.38983050847457,7.84,84.40677966101696,7.04,85.42372881355932,6.7200000000000015C86.4406779661017,6.400000000000001,87.45762711864407,6.426666666666669,88.47457627118645,6.240000000000001C89.49152542372882,6.053333333333335,90.50847457627118,6.026666666666662,91.52542372881355,5.6000000000000005C92.54237288135593,5.173333333333334,93.55932203389831,3.786666666666667,94.57627118644069,3.679999999999999C95.59322033898306,3.573333333333332,96.61016949152543,3.5199999999999987,97.62711864406779,3.5199999999999987C98.64406779661016,3.5199999999999987,99.66101694915254,4.96,100.6779661016949,4.96C101.69491525423729,4.96,102.71186440677965,3.9199999999999995,103.72881355932203,3.5199999999999987C104.7457627118644,3.1199999999999997,105.76271186440678,2.559999999999998,106.77966101694915,2.559999999999998C107.79661016949153,2.559999999999998,108.8135593220339,2.879999999999998,109.83050847457628,2.879999999999998C110.84745762711864,2.879999999999998,111.86440677966102,2.400000000000002,112.88135593220339,2.400000000000002C113.89830508474576,2.400000000000002,114.91525423728814,4.213333333333333,115.9322033898305,4.319999999999999C116.94915254237289,4.426666666666666,117.96610169491525,4.4799999999999995,118.98305084745763,4.4799999999999995C120,4.4799999999999995,121.01694915254237,3.3599999999999985,122.03389830508473,3.3599999999999985C123.05084745762711,3.3599999999999985,124.0677966101695,3.9199999999999946,125.08474576271188,4.4799999999999995C126.10169491525424,5.039999999999999,127.11864406779662,6.506666666666667,128.135593220339,6.7200000000000015C129.15254237288136,6.933333333333335,130.16949152542372,6.826666666666668,131.1864406779661,7.040000000000002C132.20338983050846,7.253333333333337,133.22033898305085,8.639999999999999,134.23728813559322,8.639999999999999C135.25423728813558,8.639999999999999,136.27118644067798,8.479999999999999,137.28813559322035,8.479999999999999C138.3050847457627,8.479999999999999,139.3220338983051,8.639999999999999,140.33898305084747,8.959999999999999C141.35593220338984,9.279999999999996,142.3728813559322,10.34666666666667,143.38983050847457,10.56C144.40677966101694,10.773333333333333,145.42372881355934,10.773333333333333,146.4406779661017,10.88C147.45762711864407,10.986666666666666,148.47457627118644,10.98666666666667,149.4915254237288,11.200000000000001C150.50847457627117,11.413333333333334,151.52542372881356,12.053333333333335,152.54237288135593,12.160000000000002C153.5593220338983,12.26666666666667,154.5762711864407,12.213333333333335,155.59322033898306,12.320000000000002C156.61016949152543,12.426666666666668,157.6271186440678,13.333333333333334,158.64406779661016,13.759999999999998C159.66101694915253,14.186666666666667,160.67796610169492,14.613333333333332,161.6949152542373,14.879999999999999C162.71186440677965,15.146666666666667,163.72881355932205,15.066666666666663,164.74576271186442,15.36C165.76271186440678,15.653333333333332,166.77966101694915,16.293333333333333,167.79661016949152,16.64C168.81355932203388,16.98666666666667,169.83050847457628,17.200000000000003,170.84745762711864,17.44C171.864406779661,17.68,172.8813559322034,17.759999999999998,173.89830508474577,18.08C174.91525423728814,18.4,175.93220338983053,18.533333333333324,176.9491525423729,19.36C177.96610169491527,20.186666666666667,178.98305084745763,21.613333333333333,180,23.040000000000003L180,40C178.98305084745763,40,177.96610169491527,40,176.9491525423729,40C175.93220338983053,40,174.91525423728814,40,173.89830508474577,40C172.8813559322034,40,171.864406779661,40,170.84745762711864,40C169.83050847457628,40,168.81355932203388,40,167.79661016949152,40C166.77966101694915,40,165.76271186440678,40,164.74576271186442,40C163.72881355932205,40,162.71186440677965,40,161.6949152542373,40C160.67796610169492,40,159.66101694915253,40,158.64406779661016,40C157.6271186440678,40,156.61016949152543,40,155.59322033898306,40C154.5762711864407,40,153.5593220338983,40,152.54237288135593,40C151.52542372881356,40,150.50847457627117,40,149.4915254237288,40C148.47457627118644,40,147.45762711864407,40,146.4406779661017,40C145.42372881355934,40,144.40677966101694,40,143.38983050847457,40C142.3728813559322,40,141.35593220338984,40,140.33898305084747,40C139.3220338983051,40,138.3050847457627,40,137.28813559322035,40C136.27118644067798,40,135.25423728813558,40,134.23728813559322,40C133.22033898305085,40,132.20338983050846,40,131.1864406779661,40C130.16949152542372,40,129.15254237288136,40,128.135593220339,40C127.11864406779662,40,126.10169491525424,40,125.08474576271188,40C124.0677966101695,40,123.05084745762711,40,122.03389830508473,40C121.01694915254237,40,120,40,118.98305084745763,40C117.96610169491525,40,116.94915254237289,40,115.9322033898305,40C114.91525423728814,40,113.89830508474576,40,112.88135593220339,40C111.86440677966102,40,110.84745762711864,40,109.83050847457628,40C108.8135593220339,40,107.79661016949153,40,106.77966101694915,40C105.76271186440678,40,104.7457627118644,40,103.72881355932203,40C102.71186440677965,40,101.69491525423729,40,100.6779661016949,40C99.66101694915254,40,98.64406779661016,40,97.62711864406779,40C96.61016949152543,40,95.59322033898306,40,94.57627118644069,40C93.55932203389831,40,92.54237288135593,40,91.52542372881355,40C90.50847457627118,40,89.49152542372882,40,88.47457627118645,40C87.45762711864407,40,86.4406779661017,40,85.42372881355932,40C84.40677966101696,40,83.38983050847457,40,82.37288135593221,40C81.35593220338983,40,80.33898305084746,40,79.32203389830508,40C78.30508474576271,40,77.28813559322033,40,76.27118644067797,40C75.2542372881356,40,74.23728813559322,40,73.22033898305085,40C72.20338983050848,40,71.1864406779661,40,70.16949152542374,40C69.15254237288136,40,68.13559322033899,40,67.11864406779661,40C66.10169491525424,40,65.08474576271186,40,64.0677966101695,40C63.05084745762712,40,62.03389830508474,40,61.01694915254237,40C59.99999999999999,40,58.983050847457626,40,57.96610169491525,40C56.94915254237288,40,55.93220338983051,40,54.91525423728814,40C53.898305084745765,40,52.88135593220339,40,51.86440677966102,40C50.847457627118644,40,49.83050847457627,40,48.813559322033896,40C47.79661016949152,40,46.77966101694915,40,45.762711864406775,40C44.7457627118644,40,43.728813559322035,40,42.71186440677966,40C41.69491525423729,40,40.67796610169491,40,39.66101694915254,40C38.644067796610166,40,37.6271186440678,40,36.610169491525426,40C35.59322033898305,40,34.57627118644068,40,33.559322033898304,40C32.54237288135593,40,31.525423728813557,40,30.508474576271183,40C29.491525423728813,40,28.47457627118644,40,27.45762711864407,40C26.440677966101696,40,25.423728813559322,40,24.406779661016948,40C23.389830508474574,40,22.372881355932204,40,21.35593220338983,40C20.338983050847457,40,19.322033898305087,40,18.305084745762713,40C17.28813559322034,40,16.271186440677965,40,15.254237288135592,40C14.23728813559322,40,13.220338983050846,40,12.203389830508474,40C11.186440677966102,40,10.169491525423728,40,9.152542372881356,40C8.135593220338983,40,7.11864406779661,40,6.101694915254237,40C5.084745762711864,40,4.067796610169491,40,3.0508474576271185,40C2.0338983050847457,40,1.0169491525423728,40,0,40Z"></path><path class="line" stroke="black" fill="none" d="M0,38.72C1.0169491525423728,38.68,2.0338983050847457,38.64,3.0508474576271185,38.56C4.067796610169491,38.480000000000004,5.084745762711864,38.42666666666666,6.101694915254237,38.239999999999995C7.11864406779661,38.05333333333333,8.135593220338983,37.65333333333333,9.152542372881356,37.44C10.169491525423728,37.22666666666667,11.186440677966102,37.2,12.203389830508474,36.96C13.220338983050846,36.72,14.23728813559322,36.29333333333333,15.254237288135592,36C16.271186440677965,35.70666666666666,17.28813559322034,35.30666666666667,18.305084745762713,35.2C19.322033898305087,35.093333333333334,20.338983050847457,35.14666666666667,21.35593220338983,35.04C22.372881355932204,34.93333333333333,23.389830508474574,34.61333333333333,24.406779661016948,34.4C25.423728813559322,34.18666666666667,26.440677966101696,33.97333333333333,27.45762711864407,33.76C28.47457627118644,33.54666666666667,29.491525423728813,33.413333333333334,30.508474576271183,33.120000000000005C31.525423728813557,32.82666666666667,32.54237288135593,32.29333333333334,33.559322033898304,32C34.57627118644068,31.706666666666667,35.59322033898305,31.68,36.610169491525426,31.36C37.6271186440678,31.04,38.644067796610166,30.56,39.66101694915254,30.08C40.67796610169491,29.599999999999998,41.69491525423729,28.906666666666663,42.71186440677966,28.479999999999997C43.728813559322035,28.05333333333333,44.7457627118644,27.919999999999995,45.762711864406775,27.519999999999996C46.77966101694915,27.119999999999997,47.79661016949152,26.666666666666668,48.813559322033896,26.080000000000002C49.83050847457627,25.493333333333336,50.847457627118644,24.64,51.86440677966102,24C52.88135593220339,23.36,53.898305084745765,22.880000000000003,54.91525423728814,22.240000000000002C55.93220338983051,21.6,56.94915254237288,20.693333333333335,57.96610169491525,20.16C58.983050847457626,19.626666666666665,59.99999999999999,19.386666666666667,61.01694915254237,19.04C62.03389830508474,18.69333333333333,63.05084745762712,18.506666666666668,64.0677966101695,18.08C65.08474576271186,17.653333333333332,66.10169491525424,16.88,67.11864406779661,16.48C68.13559322033899,16.08,69.15254237288136,16.10666666666667,70.16949152542374,15.68C71.1864406779661,15.253333333333334,72.20338983050848,14.506666666666664,73.22033898305085,13.919999999999998C74.23728813559322,13.333333333333332,75.2542372881356,12.880000000000003,76.27118644067797,12.160000000000002C77.28813559322033,11.440000000000001,78.30508474576271,10.24,79.32203389830508,9.6C80.33898305084746,8.959999999999997,81.35593220338983,8.799999999999999,82.37288135593221,8.319999999999999C83.38983050847457,7.84,84.40677966101696,7.04,85.42372881355932,6.7200000000000015C86.4406779661017,6.400000000000001,87.45762711864407,6.426666666666669,88.47457627118645,6.240000000000001C89.49152542372882,6.053333333333335,90.50847457627118,6.026666666666662,91.52542372881355,5.6000000000000005C92.54237288135593,5.173333333333334,93.55932203389831,3.786666666666667,94.57627118644069,3.679999999999999C95.59322033898306,3.573333333333332,96.61016949152543,3.5199999999999987,97.62711864406779,3.5199999999999987C98.64406779661016,3.5199999999999987,99.66101694915254,4.96,100.6779661016949,4.96C101.69491525423729,4.96,102.71186440677965,3.9199999999999995,103.72881355932203,3.5199999999999987C104.7457627118644,3.1199999999999997,105.76271186440678,2.559999999999998,106.77966101694915,2.559999999999998C107.79661016949153,2.559999999999998,108.8135593220339,2.879999999999998,109.83050847457628,2.879999999999998C110.84745762711864,2.879999999999998,111.86440677966102,2.400000000000002,112.88135593220339,2.400000000000002C113.89830508474576,2.400000000000002,114.91525423728814,4.213333333333333,115.9322033898305,4.319999999999999C116.94915254237289,4.426666666666666,117.96610169491525,4.4799999999999995,118.98305084745763,4.4799999999999995C120,4.4799999999999995,121.01694915254237,3.3599999999999985,122.03389830508473,3.3599999999999985C123.05084745762711,3.3599999999999985,124.0677966101695,3.9199999999999946,125.08474576271188,4.4799999999999995C126.10169491525424,5.039999999999999,127.11864406779662,6.506666666666667,128.135593220339,6.7200000000000015C129.15254237288136,6.933333333333335,130.16949152542372,6.826666666666668,131.1864406779661,7.040000000000002C132.20338983050846,7.253333333333337,133.22033898305085,8.639999999999999,134.23728813559322,8.639999999999999C135.25423728813558,8.639999999999999,136.27118644067798,8.479999999999999,137.28813559322035,8.479999999999999C138.3050847457627,8.479999999999999,139.3220338983051,8.639999999999999,140.33898305084747,8.959999999999999C141.35593220338984,9.279999999999996,142.3728813559322,10.34666666666667,143.38983050847457,10.56C144.40677966101694,10.773333333333333,145.42372881355934,10.773333333333333,146.4406779661017,10.88C147.45762711864407,10.986666666666666,148.47457627118644,10.98666666666667,149.4915254237288,11.200000000000001C150.50847457627117,11.413333333333334,151.52542372881356,12.053333333333335,152.54237288135593,12.160000000000002C153.5593220338983,12.26666666666667,154.5762711864407,12.213333333333335,155.59322033898306,12.320000000000002C156.61016949152543,12.426666666666668,157.6271186440678,13.333333333333334,158.64406779661016,13.759999999999998C159.66101694915253,14.186666666666667,160.67796610169492,14.613333333333332,161.6949152542373,14.879999999999999C162.71186440677965,15.146666666666667,163.72881355932205,15.066666666666663,164.74576271186442,15.36C165.76271186440678,15.653333333333332,166.77966101694915,16.293333333333333,167.79661016949152,16.64C168.81355932203388,16.98666666666667,169.83050847457628,17.200000000000003,170.84745762711864,17.44C171.864406779661,17.68,172.8813559322034,17.759999999999998,173.89830508474577,18.08C174.91525423728814,18.4,175.93220338983053,18.533333333333324,176.9491525423729,19.36C177.96610169491527,20.186666666666667,178.98305084745763,21.613333333333333,180,23.040000000000003"></path><path class="axis-ceiling" stroke-width="1" stroke="black" fill="none" d="M175,0L180,0"></path><text class="axis-ceiling-label" font-family="sans-serif" text-anchor="end" font-size="10px" x="170" y="2.5">250</text></g></svg>