<svg xmlns="http://www.w3.org/2000/svg" viewBox="0 0 180 60"><g transform="translate(0,20)"><path class="area" fill="rgba(0, 0, 0, 0.2)" d="M0,6.028571428571428C1.0169491525423728,6.0147619047619045,2.0338983050847457,6.0009523809523815,3.0508474576271185,5.987428571428572C4.067796610169491,5.973904761904763,5.084745762711864,5.960761904761906,6.101694915254237,5.947428571428572C7.11864406779661,5.934095238095239,8.135593220338983,5.920380952380953,9.152542372881356,5.907428571428572C10.169491525423728,5.894476190476191,11.186440677966102,5.882095238095239,12.203389830508474,5.869714285714287C13.220338983050846,5.857333333333335,14.23728813559322,5.845714285714285,15.254237288135592,5.833142857142857C16.271186440677965,5.820571428571428,17.28813559322034,5.807238095238097,18.305084745762713,5.794285714285716C19.322033898305087,5.781333333333335,20.338983050847457,5.768380952380953,21.35593220338983,5.755428571428571C22.372881355932204,5.742476190476189,23.389830508474574,5.7295238095238075,24.406779661016948,5.716571428571426C25.423728813559322,5.703619047619045,26.440677966101696,5.690666666666667,27.45762711864407,5.677714285714286C28.47457627118644,5.664761904761905,29.491525423728813,5.651809523809522,30.508474576271183,5.638857142857141C31.525423728813557,5.62590476190476,32.54237288135593,5.613142857142857,33.559322033898304,5.6000000000000005C34.57627118644068,5.586857142857144,35.59322033898305,5.57352380952381,36.610169491525426,5.5600000000000005C37.6271186440678,5.546476190476191,38.644067796610166,5.532380952380951,39.66101694915254,5.518857142857141C40.67796610169491,5.505333333333331,41.69491525423729,5.4921904761904745,42.71186440677966,5.478857142857141C43.728813559322035,5.465523809523807,44.7457627118644,5.45238095238095,45.762711864406775,5.438857142857141C46.77966101694915,5.425333333333332,47.79661016949152,5.411238095238095,48.813559322033896,5.397714285714286C49.83050847457627,5.384190476190477,50.847457627118644,5.371047619047619,51.86440677966102,5.357714285714286C52.88135593220339,5.344380952380952,53.898305084745765,5.330666666666667,54.91525423728814,5.317714285714286C55.93220338983051,5.304761904761905,56.94915254237288,5.292190476190476,57.96610169491525,5.28C58.983050847457626,5.267809523809524,59.99999999999999,5.256190476190477,61.01694915254237,5.2445714285714295C62.03389830508474,5.232952380952382,63.05084745762712,5.221333333333334,64.0677966101695,5.210285714285714C65.08474576271186,5.199238095238095,66.10169491525424,5.18895238095238,67.11864406779661,5.178285714285713C68.13559322033899,5.167619047619046,69.15254237288136,5.1569523809523785,70.16949152542374,5.146285714285712C71.1864406779661,5.135619047619046,72.20338983050848,5.124571428571429,73.22033898305085,5.114285714285716C74.23728813559322,5.104000000000002,75.2542372881356,5.0939047619047635,76.27118644067797,5.084571428571429C77.28813559322033,5.075238095238095,78.30508474576271,5.067238095238094,79.32203389830508,5.058285714285713C80.33898305084746,5.0493333333333315,81.35593220338983,5.0396190476190466,82.37288135593221,5.030857142857141C83.38983050847457,5.022095238095237,84.40677966101696,5.01390476190476,85.42372881355932,5.0057142857142845C86.4406779661017,4.997523809523809,87.45762711864407,4.989523809523811,88.47457627118645,4.981714285714287C89.49152542372882,4.973904761904764,90.50847457627118,4.966285714285716,91.52542372881355,4.958857142857145C92.54237288135593,4.951428571428573,93.55932203389831,4.94457142857143,94.57627118644069,4.937142857142858C95.59322033898306,4.929714285714287,96.61016949152543,4.921904761904763,97.62711864406779,4.9142857142857155C98.64406779661016,4.906666666666668,99.66101694915254,4.8990476190476215,100.6779661016949,4.891428571428573C101.69491525423729,4.883809523809525,102.71186440677965,4.875999999999999,103.72881355932203,4.8685714285714266C104.7457627118644,4.861142857142855,105.76271186440678,4.854476190476191,106.77966101694915,4.846857142857144C107.79661016949153,4.8392380952380964,108.8135593220339,4.830666666666666,109.83050847457628,4.822857142857142C110.84745762711864,4.815047619047618,111.86440677966102,4.807428571428572,112.88135593220339,4.8C113.89830508474576,4.792571428571428,114.91525423728814,4.785142857142855,115.9322033898305,4.778285714285713C116.94915254237289,4.7714285714285705,117.96610169491525,4.765333333333335,118.98305084745763,4.758857142857145C120,4.752380952380955,121.01694915254237,4.74552380952381,122.03389830508473,4.739428571428572C123.05084745762711,4.733333333333333,124.0677966101695,4.728000000000001,125.08474576271188,4.722285714285714C126.10169491525424,4.716571428571428,127.11864406779662,4.71047619047619,128.135593220339,4.705142857142857C129.15254237288136,4.699809523809523,130.16949152542372,4.69542857142857,131.1864406779661,4.6902857142857135C132.20338983050846,4.685142857142856,133.22033898305085,4.679619047619049,134.23728813559322,4.674285714285715C135.25423728813558,4.668952380952382,136.27118644067798,4.66342857142857,137.28813559322035,4.658285714285713C138.3050847457627,4.653142857142855,139.3220338983051,4.648571428571427,140.33898305084747,4.6434285714285695C141.35593220338984,4.638285714285713,142.3728813559322,4.632761904761904,143.38983050847457,4.627428571428571C144.40677966101694,4.6220952380952385,145.42372881355934,4.616761904761907,146.4406779661017,4.611428571428573C147.45762711864407,4.606095238095239,148.47457627118644,4.60095238095238,149.4915254237288,4.59542857142857C150.50847457627117,4.58990476190476,151.52542372881356,4.583809523809522,152.54237288135593,4.5782857142857125C153.5593220338983,4.5727619047619035,154.5762711864407,4.567619047619047,155.59322033898306,4.562285714285714C156.61016949152543,4.5569523809523815,157.6271186440678,4.55161904761905,158.64406779661016,4.546285714285716C159.66101694915253,4.540952380952382,160.67796610169492,4.535619047619047,161.6949152542373,4.530285714285713C162.71186440677965,4.52495238095238,163.72881355932205,4.519619047619049,164.74576271186442,4.514285714285715C165.76271186440678,4.5089523809523815,166.77966101694915,4.5038095238095215,167.79661016949152,4.4982857142857124C168.81355932203388,4.492761904761903,169.83050847457628,4.487047619047621,170.84745762711864,4.481142857142859C171.864406779661,4.4752380952380975,172.8813559322034,4.469142857142857,173.89830508474577,4.462857142857142C174.91525423728814,4.456571428571427,175.93220338983053,4.449333333333331,176.9491525423729,4.443428571428569C177.96610169491527,4.437523809523808,178.98305084745763,4.432476190476189,180,4.427428571428571L180,40C178.98305084745763,40,177.96610169491527,40,176.9491525423729,40C175.93220338983053,40,174.91525423728814,40,173.89830508474577,40C172.8813559322034,40,171.864406779661,40,170.84745762711864,40C169.83050847457628,40,168.81355932203388,40,167.79661016949152,40C166.77966101694915,40,165.76271186440678,40,164.74576271186442,40C163.72881355932205,40,162.71186440677965,40,161.6949152542373,40C160.67796610169492,40,159.66101694915253,40,158.64406779661016,40C157.6271186440678,40,156.61016949152543,40,155.59322033898306,40C154.5762711864407,40,153.5593220338983,40,152.54237288135593,40C151.52542372881356,40,150.50847457627117,40,149.4915254237288,40C148.47457627118644,40,147.45762711864407,40,146.4406779661017,40C145.42372881355934,40,144.40677966101694,40,143.38983050847457,40C142.3728813559322,40,141.35593220338984,40,140.33898305084747,40C139.3220338983051,40,138.3050847457627,40,137.28813559322035,40C136.27118644067798,40,135.25423728813558,40,134.23728813559322,40C133.22033898305085,40,132.20338983050846,40,131.1864406779661,40C130.16949152542372,40,129.15254237288136,40,128.135593220339,40C127.11864406779662,40,126.10169491525424,40,125.08474576271188,40C124.0677966101695,40,123.05084745762711,40,122.03389830508473,40C121.01694915254237,40,120,40,118.98305084745763,40C117.96610169491525,40,116.94915254237289,40,115.9322033898305,40C114.91525423728814,40,113.89830508474576,40,112.88135593220339,40C111.86440677966102,40,110.84745762711864,40,109.83050847457628,40C108.8135593220339,40,107.79661016949153,40,106.77966101694915,40C105.76271186440678,40,104.7457627118644,40,103.72881355932203,40C102.71186440677965,40,101.69491525423729,40,100.6779661016949,40C99.66101694915254,40,98.64406779661016,40,97.62711864406779,40C96.61016949152543,40,95.59322033898306,40,94.57627118644069,40C93.55932203389831,40,92.54237288135593,40,91.52542372881355,40C90.50847457627118,40,89.49152542372882,40,88.47457627118645,40C87.45762711864407,40,86.4406779661017,40,85.42372881355932,40C84.40677966101696,40,83.38983050847457,40,82.37288135593221,40C81.35593220338983,40,80.33898305084746,40,79.32203389830508,40C78.30508474576271,40,77.28813559322033,40,76.27118644067797,40C75.2542372881356,40,74.23728813559322,40,73.22033898305085,40C72.20338983050848,40,71.1864406779661,40,70.16949152542374,40C69.15254237288136,40,68.13559322033899,40,67.11864406779661,40C66.10169491525424,40,65.08474576271186,40,64.0677966101695,40C63.05084745762712,40,62.03389830508474,40,61.01694915254237,40C59.99999999999999,40,58.983050847457626,40,57.96610169491525,40C56.94915254237288,40,55.93220338983051,40,54.91525423728814,40C53.898305084745765,40,52.88135593220339,40,51.86440677966102,40C50.847457627118644,40,49.83050847457627,40,48.813559322033896,40C47.79661016949152,40,46.77966101694915,40,45.762711864406775,40C44.7457627118644,40,43.728813559322035,40,42.71186440677966,40C41.69491525423729,40,40.67796610169491,40,39.66101694915254,40C38.644067796610166,40,37.6271186440678,40,36.610169491525426,40C35.59322033898305,40,34.57627118644068,40,33.559322033898304,40C32.54237288135593,40,31.525423728813557,40,30.508474576271183,40C29.491525423728813,40,28.47457627118644,40,27.45762711864407,40C26.440677966101696,40,25.423728813559322,40,24.406779661016948,40C23.389830508474574,40,22.372881355932204,40,21.35593220338983,40C20.338983050847457,40,19.322033898305087,40,18.305084745762713,40C17.28813559322034,40,16.271186440677965,40,15.254237288135592,40C14.23728813559322,40,13.220338983050846,40,12.203389830508474,40C11.186440677966102,40,10.169491525423728,40,9.152542372881356,40C8.135593220338983,40,7.11864406779661,40,6.101694915254237,40C5.084745762711864,40,4.067796610169491,40,3.0508474576271185,40C2.0338983050847457,40,1.0169491525423728,40,0,40Z"></path><path class="line" stroke="black" fill="none" d="M0,6.028571428571428C1.0169491525423728,6.0147619047619045,2.0338983050847457,6.0009523809523815,3.0508474576271185,5.987428571428572C4.067796610169491,5.973904761904763,5.084745762711864,5.960761904761906,6.101694915254237,5.947428571428572C7.11864406779661,5.934095238095239,8.135593220338983,5.920380952380953,9.152542372881356,5.907428571428572C10.169491525423728,5.894476190476191,11.186440677966102,5.882095238095239,12.203389830508474,5.869714285714287C13.220338983050846,5.857333333333335,14.23728813559322,5.845714285714285,15.254237288135592,5.833142857142857C16.271186440677965,5.820571428571428,17.28813559322034,5.807238095238097,18.305084745762713,5.794285714285716C19.322033898305087,5.781333333333335,20.338983050847457,5.768380952380953,21.35593220338983,5.755428571428571C22.372881355932204,5.742476190476189,23.389830508474574,5.7295238095238075,24.406779661016948,5.716571428571426C25.423728813559322,5.703619047619045,26.440677966101696,5.690666666666667,27.45762711864407,5.677714285714286C28.47457627118644,5.664761904761905,29.491525423728813,5.651809523809522,30.508474576271183,5.638857142857141C31.525423728813557,5.62590476190476,32.54237288135593,5.613142857142857,33.559322033898304,5.6000000000000005C34.57627118644068,5.586857142857144,35.59322033898305,5.57352380952381,36.610169491525426,5.5600000000000005C37.6271186440678,5.546476190476191,38.644067796610166,5.532380952380951,39.66101694915254,5.518857142857141C40.67796610169491,5.505333333333331,41.69491525423729,5.4921904761904745,42.71186440677966,5.478857142857141C43.728813559322035,5.465523809523807,44.7457627118644,5.45238095238095,45.762711864406775,5.438857142857141C46.77966101694915,5.425333333333332,47.79661016949152,5.411238095238095,48.813559322033896,5.397714285714286C49.83050847457627,5.384190476190477,50.847457627118644,5.371047619047619,51.86440677966102,5.357714285714286C52.88135593220339,5.344380952380952,53.898305084745765,5.330666666666667,54.91525423728814,5.317714285714286C55.93220338983051,5.304761904761905,56.94915254237288,5.292190476190476,57.96610169491525,5.28C58.983050847457626,5.267809523809524,59.99999999999999,5.256190476190477,61.01694915254237,5.2445714285714295C62.03389830508474,5.232952380952382,63.05084745762712,5.221333333333334,64.0677966101695,5.210285714285714C65.08474576271186,5.199238095238095,66.10169491525424,5.18895238095238,67.11864406779661,5.178285714285713C68.13559322033899,5.167619047619046,69.15254237288136,5.1569523809523785,70.16949152542374,5.146285714285712C71.1864406779661,5.135619047619046,72.20338983050848,5.124571428571429,73.22033898305085,5.114285714285716C74.23728813559322,5.104000000000002,75.2542372881356,5.0939047619047635,76.27118644067797,5.084571428571429C77.28813559322033,5.075238095238095,78.30508474576271,5.067238095238094,79.32203389830508,5.058285714285713C80.33898305084746,5.0493333333333315,81.35593220338983,5.0396190476190466,82.37288135593221,5.030857142857141C83.38983050847457,5.022095238095237,84.40677966101696,5.01390476190476,85.42372881355932,5.0057142857142845C86.4406779661017,4.997523809523809,87.45762711864407,4.989523809523811,88.47457627118645,4.981714285714287C89.49152542372882,4.973904761904764,90.50847457627118,4.966285714285716,91.52542372881355,4.958857142857145C92.54237288135593,4.951428571428573,93.55932203389831,4.94457142857143,94.57627118644069,4.937142857142858C95.59322033898306,4.929714285714287,96.61016949152543,4.921904761904763,97.62711864406779,4.9142857142857155C98.64406779661016,4.906666666666668,99.66101694915254,4.8990476190476215,100.6779661016949,4.891428571428573C101.69491525423729,4.883809523809525,102.71186440677965,4.875999999999999,103.72881355932203,4.8685714285714266C104.7457627118644,4.861142857142855,105.76271186440678,4.854476190476191,106.77966101694915,4.846857142857144C107.79661016949153,4.8392380952380964,108.8135593220339,4.830666666666666,109.83050847457628,4.822857142857142C110.84745762711864,4.815047619047618,111.86440677966102,4.807428571428572,112.88135593220339,4.8C113.89830508474576,4.792571428571428,114.91525423728814,4.785142857142855,115.9322033898305,4.778285714285713C116.94915254237289,4.7714285714285705,117.96610169491525,4.765333333333335,118.98305084745763,4.758857142857145C120,4.752380952380955,121.01694915254237,4.74552380952381,122.03389830508473,4.739428571428572C123.05084745762711,4.733333333333333,124.0677966101695,4.728000000000001,125.08474576271188,4.722285714285714C126.10169491525424,4.716571428571428,127.11864406779662,4.71047619047619,128.135593220339,4.705142857142857C129.15254237288136,4.699809523809523,130.16949152542372,4.69542857142857,131.1864406779661,4.6902857142857135C132.20338983050846,4.685142857142856,133.22033898305085,4.679619047619049,134.23728813559322,4.674285714285715C135.25423728813558,4.668952380952382,136.27118644067798,4.66342857142857,137.28813559322035,4.658285714285713C138.3050847457627,4.653142857142855,139.3220338983051,4.648571428571427,140.33898305084747,4.6434285714285695C141.35593220338984,4.638285714285713,142.3728813559322,4.632761904761904,143.38983050847457,4.627428571428571C144.40677966101694,4.6220952380952385,145.42372881355934,4.616761904761907,146.4406779661017,4.611428571428573C147.45762711864407,4.606095238095239,148.47457627118644,4.60095238095238,149.4915254237288,4.59542857142857C150.50847457627117,4.58990476190476,151.52542372881356,4.583809523809522,152.54237288135593,4.5782857142857125C153.5593220338983,4.5727619047619035,154.5762711864407,4.567619047619047,155.59322033898306,4.562285714285714C156.61016949152543,4.5569523809523815,157.6271186440678,4.55161904761905,158.64406779661016,4.546285714285716C159.66101694915253,4.540952380952382,160.67796610169492,4.535619047619047,161.6949152542373,4.530285714285713C162.71186440677965,4.52495238095238,163.72881355932205,4.519619047619049,164.74576271186442,4.514285714285715C165.76271186440678,4.5089523809523815,166.77966101694915,4.5038095238095215,167.79661016949152,4.4982857142857124C168.81355932203388,4.492761904761903,169.83050847457628,4.487047619047621,170.84745762711864,4.481142857142859C171.864406779661,4.4752380952380975,172.8813559322034,4.469142857142857,173.89830508474577,4.462857142857142C174.91525423728814,4.456571428571427,175.93220338983053,4.449333333333331,176.9491525423729,4.443428571428569C177.96610169491527,4.437523809523808,178.98305084745763,4.432476190476189,180,4.427428571428571"></path><path class="axis-ceiling" stroke-width="1" stroke="black" fill="none" d="M175,0L180,0"></path><text class="axis-ceiling-label" font-family="sans-serif" text-anchor="end" font-size="10px" x="170" y="2.5">35000</text></g></svg>