<svg xmlns="http://www.w3.org/2000/svg" viewBox="0 0 180 60"><g transform="translate(0,20)"><path class="area" fill="rgba(0, 0, 0, 0.2)" d="M0,19.700000000000003C1.0169491525423728,21.85,2.0338983050847457,24,3.0508474576271185,24C4.067796610169491,24,5.084745762711864,3.3000000000000007,6.101694915254237,3.3000000000000007C7.11864406779661,3.3000000000000007,8.135593220338983,12.1,9.152542372881356,12.1C10.169491525423728,12.1,11.186440677966102,10.366666666666667,12.203389830508474,9.6C13.220338983050846,8.833333333333332,14.23728813559322,8.383333333333333,15.254237288135592,7.5C16.271186440677965,6.616666666666666,17.28813559322034,4.300000000000002,18.305084745762713,4.300000000000002C19.322033898305087,4.300000000000002,20.338983050847457,11.066666666666666,21.35593220338983,14.2C22.372881355932204,17.333333333333332,23.389830508474574,23.1,24.406779661016948,23.1C25.423728813559322,23.1,26.440677966101696,5.6000000000000005,27.45762711864407,5.6000000000000005C28.47457627118644,5.6000000000000005,29.491525423728813,11.899999999999999,30.508474576271183,11.899999999999999C31.525423728813557,11.899999999999999,32.54237288135593,6.099999999999999,33.559322033898304,6.099999999999999C34.57627118644068,6.099999999999999,35.59322033898305,13.700000000000001,36.610169491525426,13.700000000000001C37.6271186440678,13.700000000000001,38.644067796610166,8.700000000000001,39.66101694915254,8.700000000000001C40.67796610169491,8.700000000000001,41.69491525423729,20.766666666666666,42.71186440677966,22.1C43.728813559322035,23.433333333333334,44.7457627118644,24.1,45.762711864406775,24.1C46.77966101694915,24.1,47.79661016949152,16.666666666666668,48.813559322033896,15.600000000000001C49.83050847457627,14.533333333333333,50.847457627118644,14,51.86440677966102,14C52.88135593220339,14,53.898305084745765,17,54.91525423728814,17C55.93220338983051,17,56.94915254237288,16.7,57.96610169491525,16.7C58.983050847457626,16.7,59.99999999999999,28.4,61.01694915254237,28.4C62.03389830508474,28.4,63.05084745762712,15.2,64.0677966101695,15.2C65.08474576271186,15.2,66.10169491525424,27.3,67.11864406779661,27.3C68.13559322033899,27.3,69.15254237288136,11.899999999999999,70.16949152542374,11.899999999999999C71.1864406779661,11.899999999999999,72.20338983050848,13.900000000000002,73.22033898305085,13.900000000000002C74.23728813559322,13.900000000000002,75.2542372881356,12.1,76.27118644067797,12.1C77.28813559322033,12.1,78.30508474576271,19.1,79.32203389830508,19.1C80.33898305084746,19.1,81.35593220338983,18.4,82.37288135593221,18.4C83.38983050847457,18.4,84.40677966101696,18.5,85.42372881355932,18.700000000000003C86.4406779661017,18.900000000000006,87.45762711864407,24.900000000000002,88.47457627118645,24.900000000000002C89.49152542372882,24.900000000000002,90.50847457627118,19.683333333333323,91.52542372881355,17.599999999999998C92.54237288135593,15.516666666666644,93.55932203389831,12.400000000000002,94.57627118644069,12.400000000000002C95.59322033898306,12.400000000000002,96.61016949152543,25,97.62711864406779,25C98.64406779661016,25,99.66101694915254,13.399999999999999,100.6779661016949,13.399999999999999C101.69491525423729,13.399999999999999,102.71186440677965,16.35,103.72881355932203,17.3C104.7457627118644,18.249999999999996,105.76271186440678,18.36666666666667,106.77966101694915,19.1C107.79661016949153,19.833333333333336,108.8135593220339,21.7,109.83050847457628,21.7C110.84745762711864,21.7,111.86440677966102,3.9000000000000012,112.88135593220339,3.9000000000000012C113.89830508474576,3.9000000000000012,114.91525423728814,8.466666666666669,115.9322033898305,9.8C116.94915254237289,11.13333333333334,117.96610169491525,11.899999999999999,118.98305084745763,11.899999999999999C120,11.899999999999999,121.01694915254237,10,122.03389830508473,10C123.05084745762711,10,124.0677966101695,10.200000000000001,125.08474576271188,10.600000000000001C126.10169491525424,10.999999999999998,127.11864406779662,13.133333333333326,128.135593220339,15.600000000000001C129.15254237288136,18.066666666666666,130.16949152542372,25.4,131.1864406779661,25.4C132.20338983050846,25.4,133.22033898305085,4.8,134.23728813559322,4.8C135.25423728813558,4.8,136.27118644067798,10.499999999999998,137.28813559322035,10.499999999999998C138.3050847457627,10.499999999999998,139.3220338983051,5.899999999999999,140.33898305084747,5.899999999999999C141.35593220338984,5.899999999999999,142.3728813559322,11.099999999999998,143.38983050847457,11.099999999999998C144.40677966101694,11.099999999999998,145.42372881355934,9.8,146.4406779661017,9.8C147.45762711864407,9.8,148.47457627118644,15.050000000000011,149.4915254237288,17.5C150.50847457627117,19.950000000000014,151.52542372881356,24.5,152.54237288135593,24.5C153.5593220338983,24.5,154.5762711864407,5.6000000000000005,155.59322033898306,5.6000000000000005C156.61016949152543,5.6000000000000005,157.6271186440678,11.200000000000001,158.64406779661016,12.9C159.66101694915253,14.600000000000016,160.67796610169492,15.8,161.6949152542373,15.8C162.71186440677965,15.8,163.72881355932205,15.2,164.74576271186442,15.2C165.76271186440678,15.2,166.77966101694915,15.233333333333333,167.79661016949152,15.299999999999997C168.81355932203388,15.366666666666664,169.83050847457628,16.333333333333332,170.84745762711864,18.4C171.864406779661,20.466666666666665,172.8813559322034,26.016666666666666,173.89830508474577,28.3C174.91525423728814,30.583333333333336,175.93220338983053,32.1,176.9491525423729,32.1C177.96610169491527,32.1,178.98305084745763,20.15,180,8.2L180,40C178.98305084745763,40,177.96610169491527,40,176.9491525423729,40C175.93220338983053,40,174.91525423728814,40,173.89830508474577,40C172.8813559322034,40,171.864406779661,40,170.84745762711864,40C169.83050847457628,40,168.81355932203388,40,167.79661016949152,40C166.77966101694915,40,165.76271186440678,40,164.74576271186442,40C163.72881355932205,40,162.71186440677965,40,161.6949152542373,40C160.67796610169492,40,159.66101694915253,40,158.64406779661016,40C157.6271186440678,40,156.61016949152543,40,155.59322033898306,40C154.5762711864407,40,153.5593220338983,40,152.54237288135593,40C151.52542372881356,40,150.50847457627117,40,149.4915254237288,40C148.47457627118644,40,147.45762711864407,40,146.4406779661017,40C145.42372881355934,40,144.40677966101694,40,143.38983050847457,40C142.3728813559322,40,141.35593220338984,40,140.33898305084747,40C139.3220338983051,40,138.3050847457627,40,137.28813559322035,40C136.27118644067798,40,135.25423728813558,40,134.23728813559322,40C133.22033898305085,40,132.20338983050846,40,131.1864406779661,40C130.16949152542372,40,129.15254237288136,40,128.135593220339,40C127.11864406779662,40,126.10169491525424,40,125.08474576271188,40C124.0677966101695,40,123.05084745762711,40,122.03389830508473,40C121.01694915254237,40,120,40,118.98305084745763,40C117.96610169491525,40,116.94915254237289,40,115.9322033898305,40C114.91525423728814,40,113.89830508474576,40,112.88135593220339,40C111.86440677966102,40,110.84745762711864,40,109.83050847457628,40C108.8135593220339,40,107.79661016949153,40,106.77966101694915,40C105.76271186440678,40,104.7457627118644,40,103.72881355932203,40C102.71186440677965,40,101.69491525423729,40,100.6779661016949,40C99.66101694915254,40,98.64406779661016,40,97.62711864406779,40C96.61016949152543,40,95.59322033898306,40,94.57627118644069,40C93.55932203389831,40,92.54237288135593,40,91.52542372881355,40C90.50847457627118,40,89.49152542372882,40,88.47457627118645,40C87.45762711864407,40,86.4406779661017,40,85.42372881355932,40C84.40677966101696,40,83.38983050847457,40,82.37288135593221,40C81.35593220338983,40,80.33898305084746,40,79.32203389830508,40C78.30508474576271,40,77.28813559322033,40,76.27118644067797,40C75.2542372881356,40,74.23728813559322,40,73.22033898305085,40C72.20338983050848,40,71.1864406779661,40,70.16949152542374,40C69.15254237288136,40,68.13559322033899,40,67.11864406779661,40C66.10169491525424,40,65.08474576271186,40,64.0677966101695,40C63.05084745762712,40,62.03389830508474,40,61.01694915254237,40C59.99999999999999,40,58.983050847457626,40,57.96610169491525,40C56.94915254237288,40,55.93220338983051,40,54.91525423728814,40C53.898305084745765,40,52.88135593220339,40,51.86440677966102,40C50.847457627118644,40,49.83050847457627,40,48.813559322033896,40C47.79661016949152,40,46.77966101694915,40,45.762711864406775,40C44.7457627118644,40,43.728813559322035,40,42.71186440677966,40C41.69491525423729,40,40.67796610169491,40,39.66101694915254,40C38.644067796610166,40,37.6271186440678,40,36.610169491525426,40C35.59322033898305,40,34.57627118644068,40,33.559322033898304,40C32.54237288135593,40,31.525423728813557,40,30.508474576271183,40C29.491525423728813,40,28.47457627118644,40,27.45762711864407,40C26.440677966101696,40,25.423728813559322,40,24.406779661016948,40C23.389830508474574,40,22.372881355932204,40,21.35593220338983,40C20.338983050847457,40,19.322033898305087,40,18.305084745762713,40C17.28813559322034,40,16.271186440677965,40,15.254237288135592,40C14.23728813559322,40,13.220338983050846,40,12.203389830508474,40C11.186440677966102,40,10.169491525423728,40,9.152542372881356,40C8.135593220338983,40,7.11864406779661,40,6.101694915254237,40C5.084745762711864,40,4.067796610169491,40,3.0508474576271185,40C2.0338983050847457,40,1.0169491525423728,40,0,40Z"></path><path class="line" stroke="black" fill="none" d="M0,19.700000000000003C1.0169491525423728,21.85,2.0338983050847457,24,3.0508474576271185,24C4.067796610169491,24,5.084745762711864,3.3000000000000007,6.101694915254237,3.3000000000000007C7.11864406779661,3.3000000000000007,8.135593220338983,12.1,9.152542372881356,12.1C10.169491525423728,12.1,11.186440677966102,10.366666666666667,12.203389830508474,9.6C13.220338983050846,8.833333333333332,14.23728813559322,8.383333333333333,15.254237288135592,7.5C16.271186440677965,6.616666666666666,17.28813559322034,4.300000000000002,18.305084745762713,4.300000000000002C19.322033898305087,4.300000000000002,20.338983050847457,11.066666666666666,21.35593220338983,14.2C22.372881355932204,17.333333333333332,23.389830508474574,23.1,24.406779661016948,23.1C25.423728813559322,23.1,26.440677966101696,5.6000000000000005,27.45762711864407,5.6000000000000005C28.47457627118644,5.6000000000000005,29.491525423728813,11.899999999999999,30.508474576271183,11.899999999999999C31.525423728813557,11.899999999999999,32.54237288135593,6.099999999999999,33.559322033898304,6.099999999999999C34.57627118644068,6.099999999999999,35.59322033898305,13.700000000000001,36.610169491525426,13.700000000000001C37.6271186440678,13.700000000000001,38.644067796610166,8.700000000000001,39.66101694915254,8.700000000000001C40.67796610169491,8.700000000000001,41.69491525423729,20.766666666666666,42.71186440677966,22.1C43.728813559322035,23.433333333333334,44.7457627118644,24.1,45.762711864406775,24.1C46.77966101694915,24.1,47.79661016949152,16.666666666666668,48.813559322033896,15.600000000000001C49.83050847457627,14.533333333333333,50.847457627118644,14,51.86440677966102,14C52.88135593220339,14,53.898305084745765,17,54.91525423728814,17C55.93220338983051,17,56.94915254237288,16.7,57.96610169491525,16.7C58.983050847457626,16.7,59.99999999999999,28.4,61.01694915254237,28.4C62.03389830508474,28.4,63.05084745762712,15.2,64.0677966101695,15.2C65.08474576271186,15.2,66.10169491525424,27.3,67.11864406779661,27.3C68.13559322033899,27.3,69.15254237288136,11.899999999999999,70.16949152542374,11.899999999999999C71.1864406779661,11.899999999999999,72.20338983050848,13.900000000000002,73.22033898305085,13.900000000000002C74.23728813559322,13.900000000000002,75.2542372881356,12.1,76.27118644067797,12.1C77.28813559322033,12.1,78.30508474576271,19.1,79.32203389830508,19.1C80.33898305084746,19.1,81.35593220338983,18.4,82.37288135593221,18.4C83.38983050847457,18.4,84.40677966101696,18.5,85.42372881355932,18.700000000000003C86.4406779661017,18.900000000000006,87.45762711864407,24.900000000000002,88.47457627118645,24.900000000000002C89.49152542372882,24.900000000000002,90.50847457627118,19.683333333333323,91.52542372881355,17.599999999999998C92.54237288135593,15.516666666666644,93.55932203389831,12.400000000000002,94.57627118644069,12.400000000000002C95.59322033898306,12.400000000000002,96.61016949152543,25,97.62711864406779,25C98.64406779661016,25,99.66101694915254,13.399999999999999,100.6779661016949,13.399999999999999C101.69491525423729,13.399999999999999,102.71186440677965,16.35,103.72881355932203,17.3C104.7457627118644,18.249999999999996,105.76271186440678,18.36666666666667,106.77966101694915,19.1C107.79661016949153,19.833333333333336,108.8135593220339,21.7,109.83050847457628,21.7C110.84745762711864,21.7,111.86440677966102,3.9000000000000012,112.88135593220339,3.9000000000000012C113.89830508474576,3.9000000000000012,114.91525423728814,8.466666666666669,115.9322033898305,9.8C116.94915254237289,11.13333333333334,117.96610169491525,11.899999999999999,118.98305084745763,11.899999999999999C120,11.899999999999999,121.01694915254237,10,122.03389830508473,10C123.05084745762711,10,124.0677966101695,10.200000000000001,125.08474576271188,10.600000000000001C126.10169491525424,10.999999999999998,127.11864406779662,13.133333333333326,128.135593220339,15.600000000000001C129.15254237288136,18.066666666666666,130.16949152542372,25.4,131.1864406779661,25.4C132.20338983050846,25.4,133.22033898305085,4.8,134.23728813559322,4.8C135.25423728813558,4.8,136.27118644067798,10.499999999999998,137.28813559322035,10.499999999999998C138.3050847457627,10.499999999999998,139.3220338983051,5.899999999999999,140.33898305084747,5.899999999999999C141.35593220338984,5.899999999999999,142.3728813559322,11.099999999999998,143.38983050847457,11.099999999999998C144.40677966101694,11.099999999999998,145.42372881355934,9.8,146.4406779661017,9.8C147.45762711864407,9.8,148.47457627118644,15.050000000000011,149.4915254237288,17.5C150.50847457627117,19.950000000000014,151.52542372881356,24.5,152.54237288135593,24.5C153.5593220338983,24.5,154.5762711864407,5.6000000000000005,155.59322033898306,5.6000000000000005C156.61016949152543,5.6000000000000005,157.6271186440678,11.200000000000001,158.64406779661016,12.9C159.66101694915253,14.600000000000016,160.67796610169492,15.8,161.6949152542373,15.8C162.71186440677965,15.8,163.72881355932205,15.2,164.74576271186442,15.2C165.76271186440678,15.2,166.77966101694915,15.233333333333333,167.79661016949152,15.299999999999997C168.81355932203388,15.366666666666664,169.83050847457628,16.333333333333332,170.84745762711864,18.4C171.864406779661,20.466666666666665,172.8813559322034,26.016666666666666,173.89830508474577,28.3C174.91525423728814,30.583333333333336,175.93220338983053,32.1,176.9491525423729,32.1C177.96610169491527,32.1,178.98305084745763,20.15,180,8.2"></path><path class="axis-ceiling" stroke-width="1" stroke="black" fill="none" d="M175,0L180,0"></path><text class="axis-ceiling-label" font-family="sans-serif" text-anchor="end" font-size="10px" x="170" y="2.5">400</text></g></svg>