<svg xmlns="http://www.w3.org/2000/svg" viewBox="0 0 180 60"><g transform="translate(0,20)"><path class="area" fill="rgba(0, 0, 0, 0.2)" d="M0,26.6C1.0169491525423728,26.083333333333336,2.0338983050847457,25.566666666666666,3.0508474576271185,25.5C4.067796610169491,25.433333333333334,5.084745762711864,25.466666666666665,6.101694915254237,25.4C7.11864406779661,25.333333333333332,8.135593220338983,16.099999999999998,9.152542372881356,16.099999999999998C10.169491525423728,16.099999999999998,11.186440677966102,16.6,12.203389830508474,16.6C13.220338983050846,16.6,14.23728813559322,15.2,15.254237288135592,15.2C16.271186440677965,15.2,17.28813559322034,16.5,18.305084745762713,16.5C19.322033898305087,16.5,20.338983050847457,14.416666666666664,21.35593220338983,13.399999999999999C22.372881355932204,12.383333333333333,23.389830508474574,11.733333333333333,24.406779661016948,10.4C25.423728813559322,9.066666666666666,26.440677966101696,5.4,27.45762711864407,5.4C28.47457627118644,5.4,29.491525423728813,5.933333333333332,30.508474576271183,6.099999999999999C31.525423728813557,6.266666666666666,32.54237288135593,6.400000000000001,33.559322033898304,6.400000000000001C34.57627118644068,6.400000000000001,35.59322033898305,4.300000000000002,36.610169491525426,4.300000000000002C37.6271186440678,4.300000000000002,38.644067796610166,4.333333333333334,39.66101694915254,4.3999999999999995C40.67796610169491,4.466666666666665,41.69491525423729,5.299999999999998,42.71186440677966,5.299999999999998C43.728813559322035,5.299999999999998,44.7457627118644,4.700000000000001,45.762711864406775,4.500000000000002C46.77966101694915,4.300000000000002,47.79661016949152,4.100000000000001,48.813559322033896,4.100000000000001C49.83050847457627,4.100000000000001,50.847457627118644,6.8999999999999995,51.86440677966102,6.8999999999999995C52.88135593220339,6.8999999999999995,53.898305084745765,4.199999999999999,54.91525423728814,4.199999999999999C55.93220338983051,4.199999999999999,56.94915254237288,9.966666666666661,57.96610169491525,10.299999999999997C58.983050847457626,10.633333333333333,59.99999999999999,10.633333333333335,61.01694915254237,10.8C62.03389830508474,10.966666666666669,63.05084745762712,11.099999999999998,64.0677966101695,11.299999999999999C65.08474576271186,11.499999999999998,66.10169491525424,11.533333333333333,67.11864406779661,12.000000000000002C68.13559322033899,12.466666666666672,69.15254237288136,22.9,70.16949152542374,22.9C71.1864406779661,22.9,72.20338983050848,17.7,73.22033898305085,17.7C74.23728813559322,17.7,75.2542372881356,17.78333333333333,76.27118644067797,17.9C77.28813559322033,18.016666666666666,78.30508474576271,18.333333333333332,79.32203389830508,18.4C80.33898305084746,18.466666666666665,81.35593220338983,18.5,82.37288135593221,18.5C83.38983050847457,18.5,84.40677966101696,18.1,85.42372881355932,18.1C86.4406779661017,18.1,87.45762711864407,18.866666666666667,88.47457627118645,20.4C89.49152542372882,21.933333333333316,90.50847457627118,30.300000000000004,91.52542372881355,30.300000000000004C92.54237288135593,30.300000000000004,93.55932203389831,26.66666666666668,94.57627118644069,25.8C95.59322033898306,24.933333333333334,96.61016949152543,24.566666666666666,97.62711864406779,24.5C98.64406779661016,24.433333333333334,99.66101694915254,24.4,100.6779661016949,24.4C101.69491525423729,24.4,102.71186440677965,25.2,103.72881355932203,25.2C104.7457627118644,25.2,105.76271186440678,21.7,106.77966101694915,21.7C107.79661016949153,21.7,108.8135593220339,22.899999999999995,109.83050847457628,24.6C110.84745762711864,26.3,111.86440677966102,31.9,112.88135593220339,31.9C113.89830508474576,31.9,114.91525423728814,28.23333333333333,115.9322033898305,27.5C116.94915254237289,26.766666666666666,117.96610169491525,26.53333333333333,118.98305084745763,26.4C120,26.26666666666667,121.01694915254237,26.26666666666667,122.03389830508473,26.200000000000003C123.05084745762711,26.133333333333336,124.0677966101695,26.133333333333336,125.08474576271188,26C126.10169491525424,25.866666666666667,127.11864406779662,23.6,128.135593220339,23.6C129.15254237288136,23.6,130.16949152542372,24.166666666666668,131.1864406779661,25.300000000000004C132.20338983050846,26.43333333333335,133.22033898305085,32.3,134.23728813559322,32.3C135.25423728813558,32.3,136.27118644067798,28.1,137.28813559322035,28.1C138.3050847457627,28.1,139.3220338983051,28.700000000000003,140.33898305084747,28.700000000000003C141.35593220338984,28.700000000000003,142.3728813559322,27.199999999999996,143.38983050847457,27.199999999999996C144.40677966101694,27.199999999999996,145.42372881355934,27.7,146.4406779661017,27.7C147.45762711864407,27.7,148.47457627118644,24,149.4915254237288,24C150.50847457627117,24,151.52542372881356,25.366666666666664,152.54237288135593,26.799999999999997C153.5593220338983,28.23333333333333,154.5762711864407,32.599999999999994,155.59322033898306,32.599999999999994C156.61016949152543,32.599999999999994,157.6271186440678,29.83333333333333,158.64406779661016,29.5C159.66101694915253,29.166666666666668,160.67796610169492,29.266666666666666,161.6949152542373,29C162.71186440677965,28.733333333333334,163.72881355932205,28.15,164.74576271186442,27.9C165.76271186440678,27.650000000000002,166.77966101694915,27.766666666666666,167.79661016949152,27.5C168.81355932203388,27.23333333333333,169.83050847457628,25.2,170.84745762711864,25.2C171.864406779661,25.2,172.8813559322034,26.316666666666663,173.89830508474577,27.599999999999998C174.91525423728814,28.883333333333333,175.93220338983053,32.9,176.9491525423729,32.9C177.96610169491527,32.9,178.98305084745763,31.549999999999997,180,30.2L180,40C178.98305084745763,40,177.96610169491527,40,176.9491525423729,40C175.93220338983053,40,174.91525423728814,40,173.89830508474577,40C172.8813559322034,40,171.864406779661,40,170.84745762711864,40C169.83050847457628,40,168.81355932203388,40,167.79661016949152,40C166.77966101694915,40,165.76271186440678,40,164.74576271186442,40C163.72881355932205,40,162.71186440677965,40,161.6949152542373,40C160.67796610169492,40,159.66101694915253,40,158.64406779661016,40C157.6271186440678,40,156.61016949152543,40,155.59322033898306,40C154.5762711864407,40,153.5593220338983,40,152.54237288135593,40C151.52542372881356,40,150.50847457627117,40,149.4915254237288,40C148.47457627118644,40,147.45762711864407,40,146.4406779661017,40C145.42372881355934,40,144.40677966101694,40,143.38983050847457,40C142.3728813559322,40,141.35593220338984,40,140.33898305084747,40C139.3220338983051,40,138.3050847457627,40,137.28813559322035,40C136.27118644067798,40,135.25423728813558,40,134.23728813559322,40C133.22033898305085,40,132.20338983050846,40,131.1864406779661,40C130.16949152542372,40,129.15254237288136,40,128.135593220339,40C127.11864406779662,40,126.10169491525424,40,125.08474576271188,40C124.0677966101695,40,123.05084745762711,40,122.03389830508473,40C121.01694915254237,40,120,40,118.98305084745763,40C117.96610169491525,40,116.94915254237289,40,115.9322033898305,40C114.91525423728814,40,113.89830508474576,40,112.88135593220339,40C111.86440677966102,40,110.84745762711864,40,109.83050847457628,40C108.8135593220339,40,107.79661016949153,40,106.77966101694915,40C105.76271186440678,40,104.7457627118644,40,103.72881355932203,40C102.71186440677965,40,101.69491525423729,40,100.6779661016949,40C99.66101694915254,40,98.64406779661016,40,97.62711864406779,40C96.61016949152543,40,95.59322033898306,40,94.57627118644069,40C93.55932203389831,40,92.54237288135593,40,91.52542372881355,40C90.50847457627118,40,89.49152542372882,40,88.47457627118645,40C87.45762711864407,40,86.4406779661017,40,85.42372881355932,40C84.40677966101696,40,83.38983050847457,40,82.37288135593221,40C81.35593220338983,40,80.33898305084746,40,79.32203389830508,40C78.30508474576271,40,77.28813559322033,40,76.27118644067797,40C75.2542372881356,40,74.23728813559322,40,73.22033898305085,40C72.20338983050848,40,71.1864406779661,40,70.16949152542374,40C69.15254237288136,40,68.13559322033899,40,67.11864406779661,40C66.10169491525424,40,65.08474576271186,40,64.0677966101695,40C63.05084745762712,40,62.03389830508474,40,61.01694915254237,40C59.99999999999999,40,58.983050847457626,40,57.96610169491525,40C56.94915254237288,40,55.93220338983051,40,54.91525423728814,40C53.898305084745765,40,52.88135593220339,40,51.86440677966102,40C50.847457627118644,40,49.83050847457627,40,48.813559322033896,40C47.79661016949152,40,46.77966101694915,40,45.762711864406775,40C44.7457627118644,40,43.728813559322035,40,42.71186440677966,40C41.69491525423729,40,40.67796610169491,40,39.66101694915254,40C38.644067796610166,40,37.6271186440678,40,36.610169491525426,40C35.59322033898305,40,34.57627118644068,40,33.559322033898304,40C32.54237288135593,40,31.525423728813557,40,30.508474576271183,40C29.491525423728813,40,28.47457627118644,40,27.45762711864407,40C26.440677966101696,40,25.423728813559322,40,24.406779661016948,40C23.389830508474574,40,22.372881355932204,40,21.35593220338983,40C20.338983050847457,40,19.322033898305087,40,18.305084745762713,40C17.28813559322034,40,16.271186440677965,40,15.254237288135592,40C14.23728813559322,40,13.220338983050846,40,12.203389830508474,40C11.186440677966102,40,10.169491525423728,40,9.152542372881356,40C8.135593220338983,40,7.11864406779661,40,6.101694915254237,40C5.084745762711864,40,4.067796610169491,40,3.0508474576271185,40C2.0338983050847457,40,1.0169491525423728,40,0,40Z"></path><path class="line" stroke="black" fill="none" d="M0,26.6C1.0169491525423728,26.083333333333336,2.0338983050847457,25.566666666666666,3.0508474576271185,25.5C4.067796610169491,25.433333333333334,5.084745762711864,25.466666666666665,6.101694915254237,25.4C7.11864406779661,25.333333333333332,8.135593220338983,16.099999999999998,9.152542372881356,16.099999999999998C10.169491525423728,16.099999999999998,11.186440677966102,16.6,12.203389830508474,16.6C13.220338983050846,16.6,14.23728813559322,15.2,15.254237288135592,15.2C16.271186440677965,15.2,17.28813559322034,16.5,18.305084745762713,16.5C19.322033898305087,16.5,20.338983050847457,14.416666666666664,21.35593220338983,13.399999999999999C22.372881355932204,12.383333333333333,23.389830508474574,11.733333333333333,24.406779661016948,10.4C25.423728813559322,9.066666666666666,26.440677966101696,5.4,27.45762711864407,5.4C28.47457627118644,5.4,29.491525423728813,5.933333333333332,30.508474576271183,6.099999999999999C31.525423728813557,6.266666666666666,32.54237288135593,6.400000000000001,33.559322033898304,6.400000000000001C34.57627118644068,6.400000000000001,35.59322033898305,4.300000000000002,36.610169491525426,4.300000000000002C37.6271186440678,4.300000000000002,38.644067796610166,4.333333333333334,39.66101694915254,4.3999999999999995C40.67796610169491,4.466666666666665,41.69491525423729,5.299999999999998,42.71186440677966,5.299999999999998C43.728813559322035,5.299999999999998,44.7457627118644,4.700000000000001,45.762711864406775,4.500000000000002C46.77966101694915,4.300000000000002,47.79661016949152,4.100000000000001,48.813559322033896,4.100000000000001C49.83050847457627,4.100000000000001,50.847457627118644,6.8999999999999995,51.86440677966102,6.8999999999999995C52.88135593220339,6.8999999999999995,53.898305084745765,4.199999999999999,54.91525423728814,4.199999999999999C55.93220338983051,4.199999999999999,56.94915254237288,9.966666666666661,57.96610169491525,10.299999999999997C58.983050847457626,10.633333333333333,59.99999999999999,10.633333333333335,61.01694915254237,10.8C62.03389830508474,10.966666666666669,63.05084745762712,11.099999999999998,64.0677966101695,11.299999999999999C65.08474576271186,11.499999999999998,66.10169491525424,11.533333333333333,67.11864406779661,12.000000000000002C68.13559322033899,12.466666666666672,69.15254237288136,22.9,70.16949152542374,22.9C71.1864406779661,22.9,72.20338983050848,17.7,73.22033898305085,17.7C74.23728813559322,17.7,75.2542372881356,17.78333333333333,76.27118644067797,17.9C77.28813559322033,18.016666666666666,78.30508474576271,18.333333333333332,79.32203389830508,18.4C80.33898305084746,18.466666666666665,81.35593220338983,18.5,82.37288135593221,18.5C83.38983050847457,18.5,84.40677966101696,18.1,85.42372881355932,18.1C86.4406779661017,18.1,87.45762711864407,18.866666666666667,88.47457627118645,20.4C89.49152542372882,21.933333333333316,90.50847457627118,30.300000000000004,91.52542372881355,30.300000000000004C92.54237288135593,30.300000000000004,93.55932203389831,26.66666666666668,94.57627118644069,25.8C95.59322033898306,24.933333333333334,96.61016949152543,24.566666666666666,97.62711864406779,24.5C98.64406779661016,24.433333333333334,99.66101694915254,24.4,100.6779661016949,24.4C101.69491525423729,24.4,102.71186440677965,25.2,103.72881355932203,25.2C104.7457627118644,25.2,105.76271186440678,21.7,106.77966101694915,21.7C107.79661016949153,21.7,108.8135593220339,22.899999999999995,109.83050847457628,24.6C110.84745762711864,26.3,111.86440677966102,31.9,112.88135593220339,31.9C113.89830508474576,31.9,114.91525423728814,28.23333333333333,115.9322033898305,27.5C116.94915254237289,26.766666666666666,117.96610169491525,26.53333333333333,118.98305084745763,26.4C120,26.26666666666667,121.01694915254237,26.26666666666667,122.03389830508473,26.200000000000003C123.05084745762711,26.133333333333336,124.0677966101695,26.133333333333336,125.08474576271188,26C126.10169491525424,25.866666666666667,127.11864406779662,23.6,128.135593220339,23.6C129.15254237288136,23.6,130.16949152542372,24.166666666666668,131.1864406779661,25.300000000000004C132.20338983050846,26.43333333333335,133.22033898305085,32.3,134.23728813559322,32.3C135.25423728813558,32.3,136.27118644067798,28.1,137.28813559322035,28.1C138.3050847457627,28.1,139.3220338983051,28.700000000000003,140.33898305084747,28.700000000000003C141.35593220338984,28.700000000000003,142.3728813559322,27.199999999999996,143.38983050847457,27.199999999999996C144.40677966101694,27.199999999999996,145.42372881355934,27.7,146.4406779661017,27.7C147.45762711864407,27.7,148.47457627118644,24,149.4915254237288,24C150.50847457627117,24,151.52542372881356,25.366666666666664,152.54237288135593,26.799999999999997C153.5593220338983,28.23333333333333,154.5762711864407,32.599999999999994,155.59322033898306,32.599999999999994C156.61016949152543,32.599999999999994,157.6271186440678,29.83333333333333,158.64406779661016,29.5C159.66101694915253,29.166666666666668,160.67796610169492,29.266666666666666,161.6949152542373,29C162.71186440677965,28.733333333333334,163.72881355932205,28.15,164.74576271186442,27.9C165.76271186440678,27.650000000000002,166.77966101694915,27.766666666666666,167.79661016949152,27.5C168.81355932203388,27.23333333333333,169.83050847457628,25.2,170.84745762711864,25.2C171.864406779661,25.2,172.8813559322034,26.316666666666663,173.89830508474577,27.599999999999998C174.91525423728814,28.883333333333333,175.93220338983053,32.9,176.9491525423729,32.9C177.96610169491527,32.9,178.98305084745763,31.549999999999997,180,30.2"></path><path class="axis-ceiling" stroke-width="1" stroke="black" fill="none" d="M175,0L180,0"></path><text class="axis-ceiling-label" font-family="sans-serif" text-anchor="end" font-size="10px" x="170" y="2.5">400</text></g></svg>