<svg xmlns="http://www.w3.org/2000/svg" viewBox="0 0 180 60"><g transform="translate(0,20)"><path class="area" fill="rgba(0, 0, 0, 0.2)" d="M0,21.866666666666667C1.0169491525423728,21.73,2.0338983050847457,21.59333333333333,3.0508474576271185,21.306666666666665C4.067796610169491,21.02,5.084745762711864,20.535555555555558,6.101694915254237,20.14666666666667C7.11864406779661,19.75777777777778,8.135593220338983,19.242222222222225,9.152542372881356,18.973333333333336C10.169491525423728,18.704444444444448,11.186440677966102,18.65777777777778,12.203389830508474,18.533333333333335C13.220338983050846,18.40888888888889,14.23728813559322,18.43111111111111,15.254237288135592,18.226666666666667C16.271186440677965,18.022222222222222,17.28813559322034,17.535555555555554,18.305084745762713,17.266666666666666C19.322033898305087,16.997777777777777,20.338983050847457,16.8,21.35593220338983,16.613333333333333C22.372881355932204,16.426666666666666,23.389830508474574,16.38222222222222,24.406779661016948,16.146666666666665C25.423728813559322,15.91111111111111,26.440677966101696,15.593333333333334,27.45762711864407,15.2C28.47457627118644,14.806666666666667,29.491525423728813,13.786666666666667,30.508474576271183,13.786666666666667C31.525423728813557,13.786666666666667,32.54237288135593,13.96,33.559322033898304,14.026666666666667C34.57627118644068,14.093333333333334,35.59322033898305,14.126666666666667,36.610169491525426,14.186666666666667C37.6271186440678,14.246666666666668,38.644067796610166,14.386666666666667,39.66101694915254,14.386666666666667C40.67796610169491,14.386666666666667,41.69491525423729,14.093333333333335,42.71186440677966,14.093333333333335C43.728813559322035,14.093333333333335,44.7457627118644,14.173333333333334,45.762711864406775,14.333333333333332C46.77966101694915,14.49333333333333,47.79661016949152,15.440000000000001,48.813559322033896,15.440000000000001C49.83050847457627,15.440000000000001,50.847457627118644,15.093333333333334,51.86440677966102,14.399999999999999C52.88135593220339,13.706666666666663,53.898305084745765,11.866666666666665,54.91525423728814,10.693333333333332C55.93220338983051,9.52,56.94915254237288,8.371111111111112,57.96610169491525,7.360000000000002C58.983050847457626,6.348888888888892,59.99999999999999,5.053333333333333,61.01694915254237,4.626666666666668C62.03389830508474,4.200000000000001,63.05084745762712,4.302222222222224,64.0677966101695,3.9866666666666672C65.08474576271186,3.671111111111112,66.10169491525424,3.3266666666666653,67.11864406779661,2.7333333333333343C68.13559322033899,2.1400000000000006,69.15254237288136,0.4266666666666685,70.16949152542374,0.4266666666666685C71.1864406779661,0.4266666666666685,72.20338983050848,0.8266666666666667,73.22033898305085,1.333333333333333C74.23728813559322,1.8399999999999994,75.2542372881356,2.6133333333333333,76.27118644067797,3.466666666666667C77.28813559322033,4.32,78.30508474576271,5.513333333333335,79.32203389830508,6.453333333333333C80.33898305084746,7.393333333333336,81.35593220338983,8.513333333333334,82.37288135593221,9.106666666666667C83.38983050847457,9.699999999999998,84.40677966101696,9.677777777777777,85.42372881355932,10.013333333333332C86.4406779661017,10.348888888888888,87.45762711864407,10.644444444444442,88.47457627118645,11.120000000000001C89.49152542372882,11.595555555555556,90.50847457627118,12.37777777777778,91.52542372881355,12.866666666666667C92.54237288135593,13.355555555555561,93.55932203389831,13.664444444444444,94.57627118644069,14.053333333333335C95.59322033898306,14.44222222222222,96.61016949152543,15.084444444444445,97.62711864406779,15.2C98.64406779661016,15.315555555555553,99.66101694915254,15.268888888888887,100.6779661016949,15.373333333333331C101.69491525423729,15.477777777777776,102.71186440677965,15.695555555555556,103.72881355932203,15.826666666666668C104.7457627118644,15.957777777777778,105.76271186440678,16.16,106.77966101694915,16.16C107.79661016949153,16.16,108.8135593220339,16.093333333333334,109.83050847457628,16.093333333333334C110.84745762711864,16.093333333333334,111.86440677966102,16.16,112.88135593220339,16.293333333333333C113.89830508474576,16.426666666666666,114.91525423728814,16.751111111111108,115.9322033898305,16.986666666666665C116.94915254237289,17.22222222222222,117.96610169491525,17.43111111111111,118.98305084745763,17.706666666666667C120,17.982222222222223,121.01694915254237,18.34888888888889,122.03389830508473,18.64C123.05084745762711,18.931111111111115,124.0677966101695,19.25111111111111,125.08474576271188,19.453333333333333C126.10169491525424,19.655555555555555,127.11864406779662,19.631111111111107,128.135593220339,19.85333333333333C129.15254237288136,20.075555555555553,130.16949152542372,20.408888888888892,131.1864406779661,20.78666666666667C132.20338983050846,21.16444444444445,133.22033898305085,21.724444444444444,134.23728813559322,22.119999999999997C135.25423728813558,22.51555555555555,136.27118644067798,22.848888888888887,137.28813559322035,23.159999999999997C138.3050847457627,23.471111111111107,139.3220338983051,23.717777777777776,140.33898305084747,23.986666666666668C141.35593220338984,24.255555555555556,142.3728813559322,24.511111111111113,143.38983050847457,24.773333333333333C144.40677966101694,25.035555555555558,145.42372881355934,25.34444444444445,146.4406779661017,25.560000000000002C147.45762711864407,25.775555555555556,148.47457627118644,25.78,149.4915254237288,26.066666666666663C150.50847457627117,26.353333333333328,151.52542372881356,26.88444444444444,152.54237288135593,27.279999999999998C153.5593220338983,27.675555555555555,154.5762711864407,28.23555555555556,155.59322033898306,28.440000000000005C156.61016949152543,28.644444444444446,157.6271186440678,28.61111111111111,158.64406779661016,28.746666666666666C159.66101694915253,28.88222222222222,160.67796610169492,29.03777777777778,161.6949152542373,29.253333333333337C162.71186440677965,29.468888888888895,163.72881355932205,29.813333333333333,164.74576271186442,30.04C165.76271186440678,30.266666666666662,166.77966101694915,30.613333333333333,167.79661016949152,30.613333333333333C168.81355932203388,30.613333333333333,169.83050847457628,30.240000000000002,170.84745762711864,30.240000000000002C171.864406779661,30.240000000000002,172.8813559322034,30.842222222222222,173.89830508474577,31.293333333333333C174.91525423728814,31.744444444444444,175.93220338983053,32.31555555555555,176.9491525423729,32.946666666666665C177.96610169491527,33.577777777777776,178.98305084745763,34.32888888888888,180,35.08L180,40C178.98305084745763,40,177.96610169491527,40,176.9491525423729,40C175.93220338983053,40,174.91525423728814,40,173.89830508474577,40C172.8813559322034,40,171.864406779661,40,170.84745762711864,40C169.83050847457628,40,168.81355932203388,40,167.79661016949152,40C166.77966101694915,40,165.76271186440678,40,164.74576271186442,40C163.72881355932205,40,162.71186440677965,40,161.6949152542373,40C160.67796610169492,40,159.66101694915253,40,158.64406779661016,40C157.6271186440678,40,156.61016949152543,40,155.59322033898306,40C154.5762711864407,40,153.5593220338983,40,152.54237288135593,40C151.52542372881356,40,150.50847457627117,40,149.4915254237288,40C148.47457627118644,40,147.45762711864407,40,146.4406779661017,40C145.42372881355934,40,144.40677966101694,40,143.38983050847457,40C142.3728813559322,40,141.35593220338984,40,140.33898305084747,40C139.3220338983051,40,138.3050847457627,40,137.28813559322035,40C136.27118644067798,40,135.25423728813558,40,134.23728813559322,40C133.22033898305085,40,132.20338983050846,40,131.1864406779661,40C130.16949152542372,40,129.15254237288136,40,128.135593220339,40C127.11864406779662,40,126.10169491525424,40,125.08474576271188,40C124.0677966101695,40,123.05084745762711,40,122.03389830508473,40C121.01694915254237,40,120,40,118.98305084745763,40C117.96610169491525,40,116.94915254237289,40,115.9322033898305,40C114.91525423728814,40,113.89830508474576,40,112.88135593220339,40C111.86440677966102,40,110.84745762711864,40,109.83050847457628,40C108.8135593220339,40,107.79661016949153,40,106.77966101694915,40C105.76271186440678,40,104.7457627118644,40,103.72881355932203,40C102.71186440677965,40,101.69491525423729,40,100.6779661016949,40C99.66101694915254,40,98.64406779661016,40,97.62711864406779,40C96.61016949152543,40,95.59322033898306,40,94.57627118644069,40C93.55932203389831,40,92.54237288135593,40,91.52542372881355,40C90.50847457627118,40,89.49152542372882,40,88.47457627118645,40C87.45762711864407,40,86.4406779661017,40,85.42372881355932,40C84.40677966101696,40,83.38983050847457,40,82.37288135593221,40C81.35593220338983,40,80.33898305084746,40,79.32203389830508,40C78.30508474576271,40,77.28813559322033,40,76.27118644067797,40C75.2542372881356,40,74.23728813559322,40,73.22033898305085,40C72.20338983050848,40,71.1864406779661,40,70.16949152542374,40C69.15254237288136,40,68.13559322033899,40,67.11864406779661,40C66.10169491525424,40,65.08474576271186,40,64.0677966101695,40C63.05084745762712,40,62.03389830508474,40,61.01694915254237,40C59.99999999999999,40,58.983050847457626,40,57.96610169491525,40C56.94915254237288,40,55.93220338983051,40,54.91525423728814,40C53.898305084745765,40,52.88135593220339,40,51.86440677966102,40C50.847457627118644,40,49.83050847457627,40,48.813559322033896,40C47.79661016949152,40,46.77966101694915,40,45.762711864406775,40C44.7457627118644,40,43.728813559322035,40,42.71186440677966,40C41.69491525423729,40,40.67796610169491,40,39.66101694915254,40C38.644067796610166,40,37.6271186440678,40,36.610169491525426,40C35.59322033898305,40,34.57627118644068,40,33.559322033898304,40C32.54237288135593,40,31.525423728813557,40,30.508474576271183,40C29.491525423728813,40,28.47457627118644,40,27.45762711864407,40C26.440677966101696,40,25.423728813559322,40,24.406779661016948,40C23.389830508474574,40,22.372881355932204,40,21.35593220338983,40C20.338983050847457,40,19.322033898305087,40,18.305084745762713,40C17.28813559322034,40,16.271186440677965,40,15.254237288135592,40C14.23728813559322,40,13.220338983050846,40,12.203389830508474,40C11.186440677966102,40,10.169491525423728,40,9.152542372881356,40C8.135593220338983,40,7.11864406779661,40,6.101694915254237,40C5.084745762711864,40,4.067796610169491,40,3.0508474576271185,40C2.0338983050847457,40,1.0169491525423728,40,0,40Z"></path><path class="line" stroke="black" fill="none" d="M0,21.866666666666667C1.0169491525423728,21.73,2.0338983050847457,21.59333333333333,3.0508474576271185,21.306666666666665C4.067796610169491,21.02,5.084745762711864,20.535555555555558,6.101694915254237,20.14666666666667C7.11864406779661,19.75777777777778,8.135593220338983,19.242222222222225,9.152542372881356,18.973333333333336C10.169491525423728,18.704444444444448,11.186440677966102,18.65777777777778,12.203389830508474,18.533333333333335C13.220338983050846,18.40888888888889,14.23728813559322,18.43111111111111,15.254237288135592,18.226666666666667C16.271186440677965,18.022222222222222,17.28813559322034,17.535555555555554,18.305084745762713,17.266666666666666C19.322033898305087,16.997777777777777,20.338983050847457,16.8,21.35593220338983,16.613333333333333C22.372881355932204,16.426666666666666,23.389830508474574,16.38222222222222,24.406779661016948,16.146666666666665C25.423728813559322,15.91111111111111,26.440677966101696,15.593333333333334,27.45762711864407,15.2C28.47457627118644,14.806666666666667,29.491525423728813,13.786666666666667,30.508474576271183,13.786666666666667C31.525423728813557,13.786666666666667,32.54237288135593,13.96,33.559322033898304,14.026666666666667C34.57627118644068,14.093333333333334,35.59322033898305,14.126666666666667,36.610169491525426,14.186666666666667C37.6271186440678,14.246666666666668,38.644067796610166,14.386666666666667,39.66101694915254,14.386666666666667C40.67796610169491,14.386666666666667,41.69491525423729,14.093333333333335,42.71186440677966,14.093333333333335C43.728813559322035,14.093333333333335,44.7457627118644,14.173333333333334,45.762711864406775,14.333333333333332C46.77966101694915,14.49333333333333,47.79661016949152,15.440000000000001,48.813559322033896,15.440000000000001C49.83050847457627,15.440000000000001,50.847457627118644,15.093333333333334,51.86440677966102,14.399999999999999C52.88135593220339,13.706666666666663,53.898305084745765,11.866666666666665,54.91525423728814,10.693333333333332C55.93220338983051,9.52,56.94915254237288,8.371111111111112,57.96610169491525,7.360000000000002C58.983050847457626,6.348888888888892,59.99999999999999,5.053333333333333,61.01694915254237,4.626666666666668C62.03389830508474,4.200000000000001,63.05084745762712,4.302222222222224,64.0677966101695,3.9866666666666672C65.08474576271186,3.671111111111112,66.10169491525424,3.3266666666666653,67.11864406779661,2.7333333333333343C68.13559322033899,2.1400000000000006,69.15254237288136,0.4266666666666685,70.16949152542374,0.4266666666666685C71.1864406779661,0.4266666666666685,72.20338983050848,0.8266666666666667,73.22033898305085,1.333333333333333C74.23728813559322,1.8399999999999994,75.2542372881356,2.6133333333333333,76.27118644067797,3.466666666666667C77.28813559322033,4.32,78.30508474576271,5.513333333333335,79.32203389830508,6.453333333333333C80.33898305084746,7.393333333333336,81.35593220338983,8.513333333333334,82.37288135593221,9.106666666666667C83.38983050847457,9.699999999999998,84.40677966101696,9.677777777777777,85.42372881355932,10.013333333333332C86.4406779661017,10.348888888888888,87.45762711864407,10.644444444444442,88.47457627118645,11.120000000000001C89.49152542372882,11.595555555555556,90.50847457627118,12.37777777777778,91.52542372881355,12.866666666666667C92.54237288135593,13.355555555555561,93.55932203389831,13.664444444444444,94.57627118644069,14.053333333333335C95.59322033898306,14.44222222222222,96.61016949152543,15.084444444444445,97.62711864406779,15.2C98.64406779661016,15.315555555555553,99.66101694915254,15.268888888888887,100.6779661016949,15.373333333333331C101.69491525423729,15.477777777777776,102.71186440677965,15.695555555555556,103.72881355932203,15.826666666666668C104.7457627118644,15.957777777777778,105.76271186440678,16.16,106.77966101694915,16.16C107.79661016949153,16.16,108.8135593220339,16.093333333333334,109.83050847457628,16.093333333333334C110.84745762711864,16.093333333333334,111.86440677966102,16.16,112.88135593220339,16.293333333333333C113.89830508474576,16.426666666666666,114.91525423728814,16.751111111111108,115.9322033898305,16.986666666666665C116.94915254237289,17.22222222222222,117.96610169491525,17.43111111111111,118.98305084745763,17.706666666666667C120,17.982222222222223,121.01694915254237,18.34888888888889,122.03389830508473,18.64C123.05084745762711,18.931111111111115,124.0677966101695,19.25111111111111,125.08474576271188,19.453333333333333C126.10169491525424,19.655555555555555,127.11864406779662,19.631111111111107,128.135593220339,19.85333333333333C129.15254237288136,20.075555555555553,130.16949152542372,20.408888888888892,131.1864406779661,20.78666666666667C132.20338983050846,21.16444444444445,133.22033898305085,21.724444444444444,134.23728813559322,22.119999999999997C135.25423728813558,22.51555555555555,136.27118644067798,22.848888888888887,137.28813559322035,23.159999999999997C138.3050847457627,23.471111111111107,139.3220338983051,23.717777777777776,140.33898305084747,23.986666666666668C141.35593220338984,24.255555555555556,142.3728813559322,24.511111111111113,143.38983050847457,24.773333333333333C144.40677966101694,25.035555555555558,145.42372881355934,25.34444444444445,146.4406779661017,25.560000000000002C147.45762711864407,25.775555555555556,148.47457627118644,25.78,149.4915254237288,26.066666666666663C150.50847457627117,26.353333333333328,151.52542372881356,26.88444444444444,152.54237288135593,27.279999999999998C153.5593220338983,27.675555555555555,154.5762711864407,28.23555555555556,155.59322033898306,28.440000000000005C156.61016949152543,28.644444444444446,157.6271186440678,28.61111111111111,158.64406779661016,28.746666666666666C159.66101694915253,28.88222222222222,160.67796610169492,29.03777777777778,161.6949152542373,29.253333333333337C162.71186440677965,29.468888888888895,163.72881355932205,29.813333333333333,164.74576271186442,30.04C165.76271186440678,30.266666666666662,166.77966101694915,30.613333333333333,167.79661016949152,30.613333333333333C168.81355932203388,30.613333333333333,169.83050847457628,30.240000000000002,170.84745762711864,30.240000000000002C171.864406779661,30.240000000000002,172.8813559322034,30.842222222222222,173.89830508474577,31.293333333333333C174.91525423728814,31.744444444444444,175.93220338983053,32.31555555555555,176.9491525423729,32.946666666666665C177.96610169491527,33.577777777777776,178.98305084745763,34.32888888888888,180,35.08"></path><path class="axis-ceiling" stroke-width="1" stroke="black" fill="none" d="M175,0L180,0"></path><text class="axis-ceiling-label" font-family="sans-serif" text-anchor="end" font-size="10px" x="170" y="2.5">3000</text></g></svg>