<svg xmlns="http://www.w3.org/2000/svg" viewBox="0 0 180 60"><g transform="translate(0,20)"><path class="area" fill="rgba(0, 0, 0, 0.2)" d="M0,31.542857142857144C1.0169491525423728,31,2.0338983050847457,30.457142857142856,3.0508474576271185,30.057142857142857C4.067796610169491,29.65714285714286,5.084745762711864,29.504761904761907,6.101694915254237,29.142857142857146C7.11864406779661,28.78095238095238,8.135593220338983,28.266666666666662,9.152542372881356,27.885714285714283C10.169491525423728,27.504761904761903,11.186440677966102,27.54285714285714,12.203389830508474,26.85714285714286C13.220338983050846,26.17142857142858,14.23728813559322,23.828571428571426,15.254237288135592,22.514285714285712C16.271186440677965,21.199999999999996,17.28813559322034,20.095238095238095,18.305084745762713,18.97142857142857C19.322033898305087,17.847619047619048,20.338983050847457,16.780952380952378,21.35593220338983,15.771428571428569C22.372881355932204,14.76190476190476,23.389830508474574,14,24.406779661016948,12.914285714285715C25.423728813559322,11.82857142857143,26.440677966101696,10.266666666666667,27.45762711864407,9.257142857142856C28.47457627118644,8.247619047619049,29.491525423728813,7.428571428571426,30.508474576271183,6.857142857142855C31.525423728813557,6.285714285714282,32.54237288135593,6.152380952380951,33.559322033898304,5.828571428571427C34.57627118644068,5.504761904761904,35.59322033898305,5.180952380952382,36.610169491525426,4.9142857142857155C37.6271186440678,4.64761904761905,38.644067796610166,4.514285714285716,39.66101694915254,4.22857142857143C40.67796610169491,3.942857142857144,41.69491525423729,3.1999999999999984,42.71186440677966,3.1999999999999984C43.728813559322035,3.1999999999999984,44.7457627118644,3.1999999999999984,45.762711864406775,3.1999999999999984C46.77966101694915,3.1999999999999984,47.79661016949152,3.2761904761904757,48.813559322033896,3.314285714285714C49.83050847457627,3.3523809523809525,50.847457627118644,3.4285714285714297,51.86440677966102,3.4285714285714297C52.88135593220339,3.4285714285714297,53.898305084745765,3.085714285714287,54.91525423728814,3.085714285714287C55.93220338983051,3.085714285714287,56.94915254237288,3.561904761904761,57.96610169491525,3.999999999999999C58.983050847457626,4.438095238095237,59.99999999999999,5.009523809523813,61.01694915254237,5.714285714285716C62.03389830508474,6.419047619047623,63.05084745762712,7.600000000000001,64.0677966101695,8.22857142857143C65.08474576271186,8.857142857142854,66.10169491525424,8.857142857142858,67.11864406779661,9.485714285714284C68.13559322033899,10.114285714285714,69.15254237288136,11.295238095238096,70.16949152542374,12.000000000000002C71.1864406779661,12.704761904761904,72.20338983050848,13.21904761904762,73.22033898305085,13.714285714285715C74.23728813559322,14.20952380952381,75.2542372881356,14.43809523809524,76.27118644067797,14.971428571428573C77.28813559322033,15.504761904761907,78.30508474576271,16.323809523809523,79.32203389830508,16.91428571428571C80.33898305084746,17.504761904761903,81.35593220338983,17.96190476190476,82.37288135593221,18.514285714285712C83.38983050847457,19.066666666666663,84.40677966101696,19.619047619047624,85.42372881355932,20.22857142857143C86.4406779661017,20.838095238095242,87.45762711864407,21.790476190476188,88.47457627118645,22.17142857142857C89.49152542372882,22.55238095238095,90.50847457627118,22.380952380952383,91.52542372881355,22.74285714285714C92.54237288135593,23.1047619047619,93.55932203389831,23.847619047619045,94.57627118644069,24.34285714285714C95.59322033898306,24.83809523809523,96.61016949152543,25.142857142857142,97.62711864406779,25.71428571428571C98.64406779661016,26.285714285714285,99.66101694915254,27.180952380952384,100.6779661016949,27.771428571428572C101.69491525423729,28.361904761904764,102.71186440677965,28.838095238095235,103.72881355932203,29.257142857142856C104.7457627118644,29.676190476190474,105.76271186440678,30.01904761904762,106.77966101694915,30.285714285714285C107.79661016949153,30.552380952380954,108.8135593220339,30.53333333333333,109.83050847457628,30.857142857142858C110.84745762711864,31.18095238095238,111.86440677966102,31.904761904761905,112.88135593220339,32.22857142857143C113.89830508474576,32.55238095238095,114.91525423728814,32.800000000000004,115.9322033898305,32.800000000000004C116.94915254237289,32.800000000000004,117.96610169491525,32.800000000000004,118.98305084745763,32.800000000000004C120,32.800000000000004,121.01694915254237,33.27619047619048,122.03389830508473,33.48571428571429C123.05084745762711,33.695238095238096,124.0677966101695,33.904761904761905,125.08474576271188,34.05714285714286C126.10169491525424,34.20952380952381,127.11864406779662,34.22857142857143,128.135593220339,34.4C129.15254237288136,34.57142857142857,130.16949152542372,34.87619047619047,131.1864406779661,35.08571428571428C132.20338983050846,35.29523809523809,133.22033898305085,35.65714285714286,134.23728813559322,35.65714285714286C135.25423728813558,35.65714285714286,136.27118644067798,35.65714285714286,137.28813559322035,35.65714285714286C138.3050847457627,35.65714285714286,139.3220338983051,36.114285714285714,140.33898305084747,36.114285714285714C141.35593220338984,36.114285714285714,142.3728813559322,35.77142857142857,143.38983050847457,35.77142857142857C144.40677966101694,35.77142857142857,145.42372881355934,36.15238095238095,146.4406779661017,36.22857142857143C147.45762711864407,36.304761904761904,148.47457627118644,36.34285714285714,149.4915254237288,36.34285714285714C150.50847457627117,36.34285714285714,151.52542372881356,36.114285714285714,152.54237288135593,36.114285714285714C153.5593220338983,36.114285714285714,154.5762711864407,36.34285714285714,155.59322033898306,36.457142857142856C156.61016949152543,36.57142857142857,157.6271186440678,36.800000000000004,158.64406779661016,36.800000000000004C159.66101694915253,36.800000000000004,160.67796610169492,36.800000000000004,161.6949152542373,36.800000000000004C162.71186440677965,36.800000000000004,163.72881355932205,37.371428571428574,164.74576271186442,37.371428571428574C165.76271186440678,37.371428571428574,166.77966101694915,37.371428571428574,167.79661016949152,37.371428571428574C168.81355932203388,37.371428571428574,169.83050847457628,37.5047619047619,170.84745762711864,37.599999999999994C171.864406779661,37.69523809523809,172.8813559322034,37.94285714285714,173.89830508474577,37.94285714285714C174.91525423728814,37.94285714285714,175.93220338983053,37.86666666666667,176.9491525423729,37.82857142857143C177.96610169491527,37.79047619047619,178.98305084745763,37.75238095238095,180,37.714285714285715L180,40C178.98305084745763,40,177.96610169491527,40,176.9491525423729,40C175.93220338983053,40,174.91525423728814,40,173.89830508474577,40C172.8813559322034,40,171.864406779661,40,170.84745762711864,40C169.83050847457628,40,168.81355932203388,40,167.79661016949152,40C166.77966101694915,40,165.76271186440678,40,164.74576271186442,40C163.72881355932205,40,162.71186440677965,40,161.6949152542373,40C160.67796610169492,40,159.66101694915253,40,158.64406779661016,40C157.6271186440678,40,156.61016949152543,40,155.59322033898306,40C154.5762711864407,40,153.5593220338983,40,152.54237288135593,40C151.52542372881356,40,150.50847457627117,40,149.4915254237288,40C148.47457627118644,40,147.45762711864407,40,146.4406779661017,40C145.42372881355934,40,144.40677966101694,40,143.38983050847457,40C142.3728813559322,40,141.35593220338984,40,140.33898305084747,40C139.3220338983051,40,138.3050847457627,40,137.28813559322035,40C136.27118644067798,40,135.25423728813558,40,134.23728813559322,40C133.22033898305085,40,132.20338983050846,40,131.1864406779661,40C130.16949152542372,40,129.15254237288136,40,128.135593220339,40C127.11864406779662,40,126.10169491525424,40,125.08474576271188,40C124.0677966101695,40,123.05084745762711,40,122.03389830508473,40C121.01694915254237,40,120,40,118.98305084745763,40C117.96610169491525,40,116.94915254237289,40,115.9322033898305,40C114.91525423728814,40,113.89830508474576,40,112.88135593220339,40C111.86440677966102,40,110.84745762711864,40,109.83050847457628,40C108.8135593220339,40,107.79661016949153,40,106.77966101694915,40C105.76271186440678,40,104.7457627118644,40,103.72881355932203,40C102.71186440677965,40,101.69491525423729,40,100.6779661016949,40C99.66101694915254,40,98.64406779661016,40,97.62711864406779,40C96.61016949152543,40,95.59322033898306,40,94.57627118644069,40C93.55932203389831,40,92.54237288135593,40,91.52542372881355,40C90.50847457627118,40,89.49152542372882,40,88.47457627118645,40C87.45762711864407,40,86.4406779661017,40,85.42372881355932,40C84.40677966101696,40,83.38983050847457,40,82.37288135593221,40C81.35593220338983,40,80.33898305084746,40,79.32203389830508,40C78.30508474576271,40,77.28813559322033,40,76.27118644067797,40C75.2542372881356,40,74.23728813559322,40,73.22033898305085,40C72.20338983050848,40,71.1864406779661,40,70.16949152542374,40C69.15254237288136,40,68.13559322033899,40,67.11864406779661,40C66.10169491525424,40,65.08474576271186,40,64.0677966101695,40C63.05084745762712,40,62.03389830508474,40,61.01694915254237,40C59.99999999999999,40,58.983050847457626,40,57.96610169491525,40C56.94915254237288,40,55.93220338983051,40,54.91525423728814,40C53.898305084745765,40,52.88135593220339,40,51.86440677966102,40C50.847457627118644,40,49.83050847457627,40,48.813559322033896,40C47.79661016949152,40,46.77966101694915,40,45.762711864406775,40C44.7457627118644,40,43.728813559322035,40,42.71186440677966,40C41.69491525423729,40,40.67796610169491,40,39.66101694915254,40C38.644067796610166,40,37.6271186440678,40,36.610169491525426,40C35.59322033898305,40,34.57627118644068,40,33.559322033898304,40C32.54237288135593,40,31.525423728813557,40,30.508474576271183,40C29.491525423728813,40,28.47457627118644,40,27.45762711864407,40C26.440677966101696,40,25.423728813559322,40,24.406779661016948,40C23.389830508474574,40,22.372881355932204,40,21.35593220338983,40C20.338983050847457,40,19.322033898305087,40,18.305084745762713,40C17.28813559322034,40,16.271186440677965,40,15.254237288135592,40C14.23728813559322,40,13.220338983050846,40,12.203389830508474,40C11.186440677966102,40,10.169491525423728,40,9.152542372881356,40C8.135593220338983,40,7.11864406779661,40,6.101694915254237,40C5.084745762711864,40,4.067796610169491,40,3.0508474576271185,40C2.0338983050847457,40,1.0169491525423728,40,0,40Z"></path><path class="line" stroke="black" fill="none" d="M0,31.542857142857144C1.0169491525423728,31,2.0338983050847457,30.457142857142856,3.0508474576271185,30.057142857142857C4.067796610169491,29.65714285714286,5.084745762711864,29.504761904761907,6.101694915254237,29.142857142857146C7.11864406779661,28.78095238095238,8.135593220338983,28.266666666666662,9.152542372881356,27.885714285714283C10.169491525423728,27.504761904761903,11.186440677966102,27.54285714285714,12.203389830508474,26.85714285714286C13.220338983050846,26.17142857142858,14.23728813559322,23.828571428571426,15.254237288135592,22.514285714285712C16.271186440677965,21.199999999999996,17.28813559322034,20.095238095238095,18.305084745762713,18.97142857142857C19.322033898305087,17.847619047619048,20.338983050847457,16.780952380952378,21.35593220338983,15.771428571428569C22.372881355932204,14.76190476190476,23.389830508474574,14,24.406779661016948,12.914285714285715C25.423728813559322,11.82857142857143,26.440677966101696,10.266666666666667,27.45762711864407,9.257142857142856C28.47457627118644,8.247619047619049,29.491525423728813,7.428571428571426,30.508474576271183,6.857142857142855C31.525423728813557,6.285714285714282,32.54237288135593,6.152380952380951,33.559322033898304,5.828571428571427C34.57627118644068,5.504761904761904,35.59322033898305,5.180952380952382,36.610169491525426,4.9142857142857155C37.6271186440678,4.64761904761905,38.644067796610166,4.514285714285716,39.66101694915254,4.22857142857143C40.67796610169491,3.942857142857144,41.69491525423729,3.1999999999999984,42.71186440677966,3.1999999999999984C43.728813559322035,3.1999999999999984,44.7457627118644,3.1999999999999984,45.762711864406775,3.1999999999999984C46.77966101694915,3.1999999999999984,47.79661016949152,3.2761904761904757,48.813559322033896,3.314285714285714C49.83050847457627,3.3523809523809525,50.847457627118644,3.4285714285714297,51.86440677966102,3.4285714285714297C52.88135593220339,3.4285714285714297,53.898305084745765,3.085714285714287,54.91525423728814,3.085714285714287C55.93220338983051,3.085714285714287,56.94915254237288,3.561904761904761,57.96610169491525,3.999999999999999C58.983050847457626,4.438095238095237,59.99999999999999,5.009523809523813,61.01694915254237,5.714285714285716C62.03389830508474,6.419047619047623,63.05084745762712,7.600000000000001,64.0677966101695,8.22857142857143C65.08474576271186,8.857142857142854,66.10169491525424,8.857142857142858,67.11864406779661,9.485714285714284C68.13559322033899,10.114285714285714,69.15254237288136,11.295238095238096,70.16949152542374,12.000000000000002C71.1864406779661,12.704761904761904,72.20338983050848,13.21904761904762,73.22033898305085,13.714285714285715C74.23728813559322,14.20952380952381,75.2542372881356,14.43809523809524,76.27118644067797,14.971428571428573C77.28813559322033,15.504761904761907,78.30508474576271,16.323809523809523,79.32203389830508,16.91428571428571C80.33898305084746,17.504761904761903,81.35593220338983,17.96190476190476,82.37288135593221,18.514285714285712C83.38983050847457,19.066666666666663,84.40677966101696,19.619047619047624,85.42372881355932,20.22857142857143C86.4406779661017,20.838095238095242,87.45762711864407,21.790476190476188,88.47457627118645,22.17142857142857C89.49152542372882,22.55238095238095,90.50847457627118,22.380952380952383,91.52542372881355,22.74285714285714C92.54237288135593,23.1047619047619,93.55932203389831,23.847619047619045,94.57627118644069,24.34285714285714C95.59322033898306,24.83809523809523,96.61016949152543,25.142857142857142,97.62711864406779,25.71428571428571C98.64406779661016,26.285714285714285,99.66101694915254,27.180952380952384,100.6779661016949,27.771428571428572C101.69491525423729,28.361904761904764,102.71186440677965,28.838095238095235,103.72881355932203,29.257142857142856C104.7457627118644,29.676190476190474,105.76271186440678,30.01904761904762,106.77966101694915,30.285714285714285C107.79661016949153,30.552380952380954,108.8135593220339,30.53333333333333,109.83050847457628,30.857142857142858C110.84745762711864,31.18095238095238,111.86440677966102,31.904761904761905,112.88135593220339,32.22857142857143C113.89830508474576,32.55238095238095,114.91525423728814,32.800000000000004,115.9322033898305,32.800000000000004C116.94915254237289,32.800000000000004,117.96610169491525,32.800000000000004,118.98305084745763,32.800000000000004C120,32.800000000000004,121.01694915254237,33.27619047619048,122.03389830508473,33.48571428571429C123.05084745762711,33.695238095238096,124.0677966101695,33.904761904761905,125.08474576271188,34.05714285714286C126.10169491525424,34.20952380952381,127.11864406779662,34.22857142857143,128.135593220339,34.4C129.15254237288136,34.57142857142857,130.16949152542372,34.87619047619047,131.1864406779661,35.08571428571428C132.20338983050846,35.29523809523809,133.22033898305085,35.65714285714286,134.23728813559322,35.65714285714286C135.25423728813558,35.65714285714286,136.27118644067798,35.65714285714286,137.28813559322035,35.65714285714286C138.3050847457627,35.65714285714286,139.3220338983051,36.114285714285714,140.33898305084747,36.114285714285714C141.35593220338984,36.114285714285714,142.3728813559322,35.77142857142857,143.38983050847457,35.77142857142857C144.40677966101694,35.77142857142857,145.42372881355934,36.15238095238095,146.4406779661017,36.22857142857143C147.45762711864407,36.304761904761904,148.47457627118644,36.34285714285714,149.4915254237288,36.34285714285714C150.50847457627117,36.34285714285714,151.52542372881356,36.114285714285714,152.54237288135593,36.114285714285714C153.5593220338983,36.114285714285714,154.5762711864407,36.34285714285714,155.59322033898306,36.457142857142856C156.61016949152543,36.57142857142857,157.6271186440678,36.800000000000004,158.64406779661016,36.800000000000004C159.66101694915253,36.800000000000004,160.67796610169492,36.800000000000004,161.6949152542373,36.800000000000004C162.71186440677965,36.800000000000004,163.72881355932205,37.371428571428574,164.74576271186442,37.371428571428574C165.76271186440678,37.371428571428574,166.77966101694915,37.371428571428574,167.79661016949152,37.371428571428574C168.81355932203388,37.371428571428574,169.83050847457628,37.5047619047619,170.84745762711864,37.599999999999994C171.864406779661,37.69523809523809,172.8813559322034,37.94285714285714,173.89830508474577,37.94285714285714C174.91525423728814,37.94285714285714,175.93220338983053,37.86666666666667,176.9491525423729,37.82857142857143C177.96610169491527,37.79047619047619,178.98305084745763,37.75238095238095,180,37.714285714285715"></path><path class="axis-ceiling" stroke-width="1" stroke="black" fill="none" d="M175,0L180,0"></path><text class="axis-ceiling-label" font-family="sans-serif" text-anchor="end" font-size="10px" x="170" y="2.5">350</text></g></svg>