<svg xmlns="http://www.w3.org/2000/svg" viewBox="0 0 180 60"><g transform="translate(0,20)"><path class="area" fill="rgba(0, 0, 0, 0.2)" d="M0,23.306666666666665C1.0169491525423728,15.2,2.0338983050847457,7.093333333333334,3.0508474576271185,7.093333333333334C4.067796610169491,7.093333333333334,5.084745762711864,13.759999999999998,6.101694915254237,13.759999999999998C7.11864406779661,13.759999999999998,8.135593220338983,9.6,9.152542372881356,9.6C10.169491525423728,9.6,11.186440677966102,15.671111111111108,12.203389830508474,16.506666666666664C13.220338983050846,17.34222222222222,14.23728813559322,16.924444444444443,15.254237288135592,17.759999999999998C16.271186440677965,18.595555555555556,17.28813559322034,22.43555555555556,18.305084745762713,23.680000000000003C19.322033898305087,24.924444444444447,20.338983050847457,25.546666666666667,21.35593220338983,25.546666666666667C22.372881355932204,25.546666666666667,23.389830508474574,11.333333333333332,24.406779661016948,11.333333333333332C25.423728813559322,11.333333333333332,26.440677966101696,18.893333333333334,27.45762711864407,21.093333333333334C28.47457627118644,23.29333333333333,29.491525423728813,24.53333333333333,30.508474576271183,24.53333333333333C31.525423728813557,24.53333333333333,32.54237288135593,17.333333333333336,33.559322033898304,17.333333333333336C34.57627118644068,17.333333333333336,35.59322033898305,17.724444444444448,36.610169491525426,18.506666666666668C37.6271186440678,19.288888888888888,38.644067796610166,24.088888888888892,39.66101694915254,25.173333333333332C40.67796610169491,26.257777777777775,41.69491525423729,26.799999999999997,42.71186440677966,26.799999999999997C43.728813559322035,26.799999999999997,44.7457627118644,18.32,45.762711864406775,18.32C46.77966101694915,18.32,47.79661016949152,22.50666666666667,48.813559322033896,22.826666666666668C49.83050847457627,23.146666666666665,50.847457627118644,23.084444444444443,51.86440677966102,23.306666666666665C52.88135593220339,23.528888888888886,53.898305084745765,24.16,54.91525423728814,24.16C55.93220338983051,24.16,56.94915254237288,23.919999999999998,57.96610169491525,23.919999999999998C58.983050847457626,23.919999999999998,59.99999999999999,30.69333333333333,61.01694915254237,30.69333333333333C62.03389830508474,30.69333333333333,63.05084745762712,30.56888888888889,64.0677966101695,30.32C65.08474576271186,30.071111111111115,66.10169491525424,19.493333333333332,67.11864406779661,19.493333333333332C68.13559322033899,19.493333333333332,69.15254237288136,24.906666666666666,70.16949152542374,24.906666666666666C71.1864406779661,24.906666666666666,72.20338983050848,23.919999999999998,73.22033898305085,23.919999999999998C74.23728813559322,23.919999999999998,75.2542372881356,24,76.27118644067797,24.16C77.28813559322033,24.32,78.30508474576271,24.737777777777776,79.32203389830508,25.89333333333333C80.33898305084746,27.04888888888889,81.35593220338983,31.76,82.37288135593221,31.76C83.38983050847457,31.76,84.40677966101696,31.315555555555555,85.42372881355932,30.426666666666662C86.4406779661017,29.537777777777766,87.45762711864407,23.73333333333333,88.47457627118645,23.73333333333333C89.49152542372882,23.73333333333333,90.50847457627118,26.693333333333335,91.52542372881355,26.693333333333335C92.54237288135593,26.693333333333335,93.55932203389831,26.53333333333333,94.57627118644069,26.53333333333333C95.59322033898306,26.53333333333333,96.61016949152543,28.693333333333335,97.62711864406779,28.693333333333335C98.64406779661016,28.693333333333335,99.66101694915254,28.186666666666667,100.6779661016949,28.186666666666667C101.69491525423729,28.186666666666667,102.71186440677965,32.48888888888889,103.72881355932203,33.626666666666665C104.7457627118644,34.76444444444444,105.76271186440678,35.33333333333333,106.77966101694915,35.33333333333333C107.79661016949153,35.33333333333333,108.8135593220339,33.555555555555564,109.83050847457628,31.653333333333332C110.84745762711864,29.75111111111111,111.86440677966102,23.919999999999998,112.88135593220339,23.919999999999998C113.89830508474576,23.919999999999998,114.91525423728814,26.240000000000002,115.9322033898305,26.240000000000002C116.94915254237289,26.240000000000002,117.96610169491525,26.10666666666667,118.98305084745763,26.10666666666667C120,26.10666666666667,121.01694915254237,26.115555555555556,122.03389830508473,26.133333333333333C123.05084745762711,26.15111111111111,124.0677966101695,29.30222222222222,125.08474576271188,30.48C126.10169491525424,31.65777777777777,127.11864406779662,33.199999999999996,128.135593220339,33.199999999999996C129.15254237288136,33.199999999999996,130.16949152542372,24.506666666666668,131.1864406779661,24.506666666666668C132.20338983050846,24.506666666666668,133.22033898305085,26.133333333333333,134.23728813559322,26.133333333333333C135.25423728813558,26.133333333333333,136.27118644067798,24.026666666666667,137.28813559322035,24.026666666666667C138.3050847457627,24.026666666666667,139.3220338983051,26.053333333333335,140.33898305084747,26.053333333333335C141.35593220338984,26.053333333333335,142.3728813559322,24.05333333333333,143.38983050847457,24.05333333333333C144.40677966101694,24.05333333333333,145.42372881355934,28.995555555555544,146.4406779661017,29.706666666666663C147.45762711864407,30.417777777777776,148.47457627118644,30.773333333333333,149.4915254237288,30.773333333333333C150.50847457627117,30.773333333333333,151.52542372881356,19.866666666666667,152.54237288135593,19.866666666666667C153.5593220338983,19.866666666666667,154.5762711864407,21.57333333333333,155.59322033898306,22.053333333333335C156.61016949152543,22.533333333333335,157.6271186440678,22.586666666666666,158.64406779661016,22.773333333333333C159.66101694915253,22.96,160.67796610169492,22.906666666666666,161.6949152542373,23.173333333333332C162.71186440677965,23.439999999999998,163.72881355932205,23.902222222222218,164.74576271186442,24.56C165.76271186440678,25.217777777777776,166.77966101694915,26.297777777777778,167.79661016949152,27.119999999999997C168.81355932203388,27.942222222222224,169.83050847457628,29.493333333333336,170.84745762711864,29.493333333333336C171.864406779661,29.493333333333336,172.8813559322034,17.546666666666667,173.89830508474577,17.546666666666667C174.91525423728814,17.546666666666667,175.93220338983053,20.99555555555555,176.9491525423729,21.226666666666667C177.96610169491527,21.45777777777778,178.98305084745763,21.515555555555558,180,21.573333333333334L180,40C178.98305084745763,40,177.96610169491527,40,176.9491525423729,40C175.93220338983053,40,174.91525423728814,40,173.89830508474577,40C172.8813559322034,40,171.864406779661,40,170.84745762711864,40C169.83050847457628,40,168.81355932203388,40,167.79661016949152,40C166.77966101694915,40,165.76271186440678,40,164.74576271186442,40C163.72881355932205,40,162.71186440677965,40,161.6949152542373,40C160.67796610169492,40,159.66101694915253,40,158.64406779661016,40C157.6271186440678,40,156.61016949152543,40,155.59322033898306,40C154.5762711864407,40,153.5593220338983,40,152.54237288135593,40C151.52542372881356,40,150.50847457627117,40,149.4915254237288,40C148.47457627118644,40,147.45762711864407,40,146.4406779661017,40C145.42372881355934,40,144.40677966101694,40,143.38983050847457,40C142.3728813559322,40,141.35593220338984,40,140.33898305084747,40C139.3220338983051,40,138.3050847457627,40,137.28813559322035,40C136.27118644067798,40,135.25423728813558,40,134.23728813559322,40C133.22033898305085,40,132.20338983050846,40,131.1864406779661,40C130.16949152542372,40,129.15254237288136,40,128.135593220339,40C127.11864406779662,40,126.10169491525424,40,125.08474576271188,40C124.0677966101695,40,123.05084745762711,40,122.03389830508473,40C121.01694915254237,40,120,40,118.98305084745763,40C117.96610169491525,40,116.94915254237289,40,115.9322033898305,40C114.91525423728814,40,113.89830508474576,40,112.88135593220339,40C111.86440677966102,40,110.84745762711864,40,109.83050847457628,40C108.8135593220339,40,107.79661016949153,40,106.77966101694915,40C105.76271186440678,40,104.7457627118644,40,103.72881355932203,40C102.71186440677965,40,101.69491525423729,40,100.6779661016949,40C99.66101694915254,40,98.64406779661016,40,97.62711864406779,40C96.61016949152543,40,95.59322033898306,40,94.57627118644069,40C93.55932203389831,40,92.54237288135593,40,91.52542372881355,40C90.50847457627118,40,89.49152542372882,40,88.47457627118645,40C87.45762711864407,40,86.4406779661017,40,85.42372881355932,40C84.40677966101696,40,83.38983050847457,40,82.37288135593221,40C81.35593220338983,40,80.33898305084746,40,79.32203389830508,40C78.30508474576271,40,77.28813559322033,40,76.27118644067797,40C75.2542372881356,40,74.23728813559322,40,73.22033898305085,40C72.20338983050848,40,71.1864406779661,40,70.16949152542374,40C69.15254237288136,40,68.13559322033899,40,67.11864406779661,40C66.10169491525424,40,65.08474576271186,40,64.0677966101695,40C63.05084745762712,40,62.03389830508474,40,61.01694915254237,40C59.99999999999999,40,58.983050847457626,40,57.96610169491525,40C56.94915254237288,40,55.93220338983051,40,54.91525423728814,40C53.898305084745765,40,52.88135593220339,40,51.86440677966102,40C50.847457627118644,40,49.83050847457627,40,48.813559322033896,40C47.79661016949152,40,46.77966101694915,40,45.762711864406775,40C44.7457627118644,40,43.728813559322035,40,42.71186440677966,40C41.69491525423729,40,40.67796610169491,40,39.66101694915254,40C38.644067796610166,40,37.6271186440678,40,36.610169491525426,40C35.59322033898305,40,34.57627118644068,40,33.559322033898304,40C32.54237288135593,40,31.525423728813557,40,30.508474576271183,40C29.491525423728813,40,28.47457627118644,40,27.45762711864407,40C26.440677966101696,40,25.423728813559322,40,24.406779661016948,40C23.389830508474574,40,22.372881355932204,40,21.35593220338983,40C20.338983050847457,40,19.322033898305087,40,18.305084745762713,40C17.28813559322034,40,16.271186440677965,40,15.254237288135592,40C14.23728813559322,40,13.220338983050846,40,12.203389830508474,40C11.186440677966102,40,10.169491525423728,40,9.152542372881356,40C8.135593220338983,40,7.11864406779661,40,6.101694915254237,40C5.084745762711864,40,4.067796610169491,40,3.0508474576271185,40C2.0338983050847457,40,1.0169491525423728,40,0,40Z"></path><path class="line" stroke="black" fill="none" d="M0,23.306666666666665C1.0169491525423728,15.2,2.0338983050847457,7.093333333333334,3.0508474576271185,7.093333333333334C4.067796610169491,7.093333333333334,5.084745762711864,13.759999999999998,6.101694915254237,13.759999999999998C7.11864406779661,13.759999999999998,8.135593220338983,9.6,9.152542372881356,9.6C10.169491525423728,9.6,11.186440677966102,15.671111111111108,12.203389830508474,16.506666666666664C13.220338983050846,17.34222222222222,14.23728813559322,16.924444444444443,15.254237288135592,17.759999999999998C16.271186440677965,18.595555555555556,17.28813559322034,22.43555555555556,18.305084745762713,23.680000000000003C19.322033898305087,24.924444444444447,20.338983050847457,25.546666666666667,21.35593220338983,25.546666666666667C22.372881355932204,25.546666666666667,23.389830508474574,11.333333333333332,24.406779661016948,11.333333333333332C25.423728813559322,11.333333333333332,26.440677966101696,18.893333333333334,27.45762711864407,21.093333333333334C28.47457627118644,23.29333333333333,29.491525423728813,24.53333333333333,30.508474576271183,24.53333333333333C31.525423728813557,24.53333333333333,32.54237288135593,17.333333333333336,33.559322033898304,17.333333333333336C34.57627118644068,17.333333333333336,35.59322033898305,17.724444444444448,36.610169491525426,18.506666666666668C37.6271186440678,19.288888888888888,38.644067796610166,24.088888888888892,39.66101694915254,25.173333333333332C40.67796610169491,26.257777777777775,41.69491525423729,26.799999999999997,42.71186440677966,26.799999999999997C43.728813559322035,26.799999999999997,44.7457627118644,18.32,45.762711864406775,18.32C46.77966101694915,18.32,47.79661016949152,22.50666666666667,48.813559322033896,22.826666666666668C49.83050847457627,23.146666666666665,50.847457627118644,23.084444444444443,51.86440677966102,23.306666666666665C52.88135593220339,23.528888888888886,53.898305084745765,24.16,54.91525423728814,24.16C55.93220338983051,24.16,56.94915254237288,23.919999999999998,57.96610169491525,23.919999999999998C58.983050847457626,23.919999999999998,59.99999999999999,30.69333333333333,61.01694915254237,30.69333333333333C62.03389830508474,30.69333333333333,63.05084745762712,30.56888888888889,64.0677966101695,30.32C65.08474576271186,30.071111111111115,66.10169491525424,19.493333333333332,67.11864406779661,19.493333333333332C68.13559322033899,19.493333333333332,69.15254237288136,24.906666666666666,70.16949152542374,24.906666666666666C71.1864406779661,24.906666666666666,72.20338983050848,23.919999999999998,73.22033898305085,23.919999999999998C74.23728813559322,23.919999999999998,75.2542372881356,24,76.27118644067797,24.16C77.28813559322033,24.32,78.30508474576271,24.737777777777776,79.32203389830508,25.89333333333333C80.33898305084746,27.04888888888889,81.35593220338983,31.76,82.37288135593221,31.76C83.38983050847457,31.76,84.40677966101696,31.315555555555555,85.42372881355932,30.426666666666662C86.4406779661017,29.537777777777766,87.45762711864407,23.73333333333333,88.47457627118645,23.73333333333333C89.49152542372882,23.73333333333333,90.50847457627118,26.693333333333335,91.52542372881355,26.693333333333335C92.54237288135593,26.693333333333335,93.55932203389831,26.53333333333333,94.57627118644069,26.53333333333333C95.59322033898306,26.53333333333333,96.61016949152543,28.693333333333335,97.62711864406779,28.693333333333335C98.64406779661016,28.693333333333335,99.66101694915254,28.186666666666667,100.6779661016949,28.186666666666667C101.69491525423729,28.186666666666667,102.71186440677965,32.48888888888889,103.72881355932203,33.626666666666665C104.7457627118644,34.76444444444444,105.76271186440678,35.33333333333333,106.77966101694915,35.33333333333333C107.79661016949153,35.33333333333333,108.8135593220339,33.555555555555564,109.83050847457628,31.653333333333332C110.84745762711864,29.75111111111111,111.86440677966102,23.919999999999998,112.88135593220339,23.919999999999998C113.89830508474576,23.919999999999998,114.91525423728814,26.240000000000002,115.9322033898305,26.240000000000002C116.94915254237289,26.240000000000002,117.96610169491525,26.10666666666667,118.98305084745763,26.10666666666667C120,26.10666666666667,121.01694915254237,26.115555555555556,122.03389830508473,26.133333333333333C123.05084745762711,26.15111111111111,124.0677966101695,29.30222222222222,125.08474576271188,30.48C126.10169491525424,31.65777777777777,127.11864406779662,33.199999999999996,128.135593220339,33.199999999999996C129.15254237288136,33.199999999999996,130.16949152542372,24.506666666666668,131.1864406779661,24.506666666666668C132.20338983050846,24.506666666666668,133.22033898305085,26.133333333333333,134.23728813559322,26.133333333333333C135.25423728813558,26.133333333333333,136.27118644067798,24.026666666666667,137.28813559322035,24.026666666666667C138.3050847457627,24.026666666666667,139.3220338983051,26.053333333333335,140.33898305084747,26.053333333333335C141.35593220338984,26.053333333333335,142.3728813559322,24.05333333333333,143.38983050847457,24.05333333333333C144.40677966101694,24.05333333333333,145.42372881355934,28.995555555555544,146.4406779661017,29.706666666666663C147.45762711864407,30.417777777777776,148.47457627118644,30.773333333333333,149.4915254237288,30.773333333333333C150.50847457627117,30.773333333333333,151.52542372881356,19.866666666666667,152.54237288135593,19.866666666666667C153.5593220338983,19.866666666666667,154.5762711864407,21.57333333333333,155.59322033898306,22.053333333333335C156.61016949152543,22.533333333333335,157.6271186440678,22.586666666666666,158.64406779661016,22.773333333333333C159.66101694915253,22.96,160.67796610169492,22.906666666666666,161.6949152542373,23.173333333333332C162.71186440677965,23.439999999999998,163.72881355932205,23.902222222222218,164.74576271186442,24.56C165.76271186440678,25.217777777777776,166.77966101694915,26.297777777777778,167.79661016949152,27.119999999999997C168.81355932203388,27.942222222222224,169.83050847457628,29.493333333333336,170.84745762711864,29.493333333333336C171.864406779661,29.493333333333336,172.8813559322034,17.546666666666667,173.89830508474577,17.546666666666667C174.91525423728814,17.546666666666667,175.93220338983053,20.99555555555555,176.9491525423729,21.226666666666667C177.96610169491527,21.45777777777778,178.98305084745763,21.515555555555558,180,21.573333333333334"></path><path class="axis-ceiling" stroke-width="1" stroke="black" fill="none" d="M175,0L180,0"></path><text class="axis-ceiling-label" font-family="sans-serif" text-anchor="end" font-size="10px" x="170" y="2.5">1500</text></g></svg>