<svg xmlns="http://www.w3.org/2000/svg" viewBox="0 0 180 60"><g transform="translate(0,20)"><path class="area" fill="rgba(0, 0, 0, 0.2)" d="M0,40C1.0169491525423728,40,2.0338983050847457,40,3.0508474576271185,40C4.067796610169491,40,5.084745762711864,38,6.101694915254237,38C7.11864406779661,38,8.135593220338983,38,9.152542372881356,38C10.169491525423728,38,11.186440677966102,40,12.203389830508474,40C13.220338983050846,40,14.23728813559322,40,15.254237288135592,40C16.271186440677965,40,17.28813559322034,40,18.305084745762713,40C19.322033898305087,40,20.338983050847457,40,21.35593220338983,40C22.372881355932204,40,23.389830508474574,40,24.406779661016948,40C25.423728813559322,40,26.440677966101696,40,27.45762711864407,40C28.47457627118644,40,29.491525423728813,40,30.508474576271183,40C31.525423728813557,40,32.54237288135593,40,33.559322033898304,40C34.57627118644068,40,35.59322033898305,36,36.610169491525426,36C37.6271186440678,36,38.644067796610166,40,39.66101694915254,40C40.67796610169491,40,41.69491525423729,32,42.71186440677966,32C43.728813559322035,32,44.7457627118644,33.333333333333336,45.762711864406775,34C46.77966101694915,34.666666666666664,47.79661016949152,35.333333333333336,48.813559322033896,36C49.83050847457627,36.666666666666664,50.847457627118644,37.333333333333336,51.86440677966102,38C52.88135593220339,38.666666666666664,53.898305084745765,40,54.91525423728814,40C55.93220338983051,40,56.94915254237288,40,57.96610169491525,40C58.983050847457626,40,59.99999999999999,37.66666666666666,61.01694915254237,36C62.03389830508474,34.33333333333333,63.05084745762712,30,64.0677966101695,30C65.08474576271186,30,66.10169491525424,32.33333333333334,67.11864406779661,34C68.13559322033899,35.66666666666667,69.15254237288136,40,70.16949152542374,40C71.1864406779661,40,72.20338983050848,36,73.22033898305085,36C74.23728813559322,36,75.2542372881356,40,76.27118644067797,40C77.28813559322033,40,78.30508474576271,40,79.32203389830508,40C80.33898305084746,40,81.35593220338983,34,82.37288135593221,34C83.38983050847457,34,84.40677966101696,38,85.42372881355932,38C86.4406779661017,38,87.45762711864407,32,88.47457627118645,32C89.49152542372882,32,90.50847457627118,33.000000000000014,91.52542372881355,34C92.54237288135593,35,93.55932203389831,38,94.57627118644069,38C95.59322033898306,38,96.61016949152543,38,97.62711864406779,38C98.64406779661016,38,99.66101694915254,36.666666666666664,100.6779661016949,36C101.69491525423729,35.33333333333333,102.71186440677965,35.00000000000001,103.72881355932203,34C104.7457627118644,33,105.76271186440678,31,106.77966101694915,30C107.79661016949153,28.999999999999996,108.8135593220339,28,109.83050847457628,28C110.84745762711864,28,111.86440677966102,28,112.88135593220339,28C113.89830508474576,28,114.91525423728814,26,115.9322033898305,26C116.94915254237289,26,117.96610169491525,30,118.98305084745763,30C120,30,121.01694915254237,24,122.03389830508473,24C123.05084745762711,24,124.0677966101695,32,125.08474576271188,32C126.10169491525424,32,127.11864406779662,30.000000000000007,128.135593220339,28C129.15254237288136,26,130.16949152542372,23.33333333333331,131.1864406779661,20C132.20338983050846,16.666666666666657,133.22033898305085,7.999999999999998,134.23728813559322,7.999999999999998C135.25423728813558,7.999999999999998,136.27118644067798,22,137.28813559322035,22C138.3050847457627,22,139.3220338983051,2.0000000000000018,140.33898305084747,2.0000000000000018C141.35593220338984,2.0000000000000018,142.3728813559322,22,143.38983050847457,22C144.40677966101694,22,145.42372881355934,10,146.4406779661017,10C147.45762711864407,10,148.47457627118644,10,149.4915254237288,10C150.50847457627117,10,151.52542372881356,10.666666666666668,152.54237288135593,12.000000000000002C153.5593220338983,13.333333333333336,154.5762711864407,20,155.59322033898306,20C156.61016949152543,20,157.6271186440678,14,158.64406779661016,14C159.66101694915253,14,160.67796610169492,25.333333333333332,161.6949152542373,28C162.71186440677965,30.666666666666668,163.72881355932205,32,164.74576271186442,32C165.76271186440678,32,166.77966101694915,27.999999999999968,167.79661016949152,24C168.81355932203388,19.999999999999993,169.83050847457628,10.666666666666664,170.84745762711864,7.999999999999998C171.864406779661,5.333333333333332,172.8813559322034,3.999999999999999,173.89830508474577,3.999999999999999C174.91525423728814,3.999999999999999,175.93220338983053,22.666666666666668,176.9491525423729,28C177.96610169491527,33.333333333333286,178.98305084745763,34.66666666666664,180,36L180,40C178.98305084745763,40,177.96610169491527,40,176.9491525423729,40C175.93220338983053,40,174.91525423728814,40,173.89830508474577,40C172.8813559322034,40,171.864406779661,40,170.84745762711864,40C169.83050847457628,40,168.81355932203388,40,167.79661016949152,40C166.77966101694915,40,165.76271186440678,40,164.74576271186442,40C163.72881355932205,40,162.71186440677965,40,161.6949152542373,40C160.67796610169492,40,159.66101694915253,40,158.64406779661016,40C157.6271186440678,40,156.61016949152543,40,155.59322033898306,40C154.5762711864407,40,153.5593220338983,40,152.54237288135593,40C151.52542372881356,40,150.50847457627117,40,149.4915254237288,40C148.47457627118644,40,147.45762711864407,40,146.4406779661017,40C145.42372881355934,40,144.40677966101694,40,143.38983050847457,40C142.3728813559322,40,141.35593220338984,40,140.33898305084747,40C139.3220338983051,40,138.3050847457627,40,137.28813559322035,40C136.27118644067798,40,135.25423728813558,40,134.23728813559322,40C133.22033898305085,40,132.20338983050846,40,131.1864406779661,40C130.16949152542372,40,129.15254237288136,40,128.135593220339,40C127.11864406779662,40,126.10169491525424,40,125.08474576271188,40C124.0677966101695,40,123.05084745762711,40,122.03389830508473,40C121.01694915254237,40,120,40,118.98305084745763,40C117.96610169491525,40,116.94915254237289,40,115.9322033898305,40C114.91525423728814,40,113.89830508474576,40,112.88135593220339,40C111.86440677966102,40,110.84745762711864,40,109.83050847457628,40C108.8135593220339,40,107.79661016949153,40,106.77966101694915,40C105.76271186440678,40,104.7457627118644,40,103.72881355932203,40C102.71186440677965,40,101.69491525423729,40,100.6779661016949,40C99.66101694915254,40,98.64406779661016,40,97.62711864406779,40C96.61016949152543,40,95.59322033898306,40,94.57627118644069,40C93.55932203389831,40,92.54237288135593,40,91.52542372881355,40C90.50847457627118,40,89.49152542372882,40,88.47457627118645,40C87.45762711864407,40,86.4406779661017,40,85.42372881355932,40C84.40677966101696,40,83.38983050847457,40,82.37288135593221,40C81.35593220338983,40,80.33898305084746,40,79.32203389830508,40C78.30508474576271,40,77.28813559322033,40,76.27118644067797,40C75.2542372881356,40,74.23728813559322,40,73.22033898305085,40C72.20338983050848,40,71.1864406779661,40,70.16949152542374,40C69.15254237288136,40,68.13559322033899,40,67.11864406779661,40C66.10169491525424,40,65.08474576271186,40,64.0677966101695,40C63.05084745762712,40,62.03389830508474,40,61.01694915254237,40C59.99999999999999,40,58.983050847457626,40,57.96610169491525,40C56.94915254237288,40,55.93220338983051,40,54.91525423728814,40C53.898305084745765,40,52.88135593220339,40,51.86440677966102,40C50.847457627118644,40,49.83050847457627,40,48.813559322033896,40C47.79661016949152,40,46.77966101694915,40,45.762711864406775,40C44.7457627118644,40,43.728813559322035,40,42.71186440677966,40C41.69491525423729,40,40.67796610169491,40,39.66101694915254,40C38.644067796610166,40,37.6271186440678,40,36.610169491525426,40C35.59322033898305,40,34.57627118644068,40,33.559322033898304,40C32.54237288135593,40,31.525423728813557,40,30.508474576271183,40C29.491525423728813,40,28.47457627118644,40,27.45762711864407,40C26.440677966101696,40,25.423728813559322,40,24.406779661016948,40C23.389830508474574,40,22.372881355932204,40,21.35593220338983,40C20.338983050847457,40,19.322033898305087,40,18.305084745762713,40C17.28813559322034,40,16.271186440677965,40,15.254237288135592,40C14.23728813559322,40,13.220338983050846,40,12.203389830508474,40C11.186440677966102,40,10.169491525423728,40,9.152542372881356,40C8.135593220338983,40,7.11864406779661,40,6.101694915254237,40C5.084745762711864,40,4.067796610169491,40,3.0508474576271185,40C2.0338983050847457,40,1.0169491525423728,40,0,40Z"></path><path class="line" stroke="black" fill="none" d="M0,40C1.0169491525423728,40,2.0338983050847457,40,3.0508474576271185,40C4.067796610169491,40,5.084745762711864,38,6.101694915254237,38C7.11864406779661,38,8.135593220338983,38,9.152542372881356,38C10.169491525423728,38,11.186440677966102,40,12.203389830508474,40C13.220338983050846,40,14.23728813559322,40,15.254237288135592,40C16.271186440677965,40,17.28813559322034,40,18.305084745762713,40C19.322033898305087,40,20.338983050847457,40,21.35593220338983,40C22.372881355932204,40,23.389830508474574,40,24.406779661016948,40C25.423728813559322,40,26.440677966101696,40,27.45762711864407,40C28.47457627118644,40,29.491525423728813,40,30.508474576271183,40C31.525423728813557,40,32.54237288135593,40,33.559322033898304,40C34.57627118644068,40,35.59322033898305,36,36.610169491525426,36C37.6271186440678,36,38.644067796610166,40,39.66101694915254,40C40.67796610169491,40,41.69491525423729,32,42.71186440677966,32C43.728813559322035,32,44.7457627118644,33.333333333333336,45.762711864406775,34C46.77966101694915,34.666666666666664,47.79661016949152,35.333333333333336,48.813559322033896,36C49.83050847457627,36.666666666666664,50.847457627118644,37.333333333333336,51.86440677966102,38C52.88135593220339,38.666666666666664,53.898305084745765,40,54.91525423728814,40C55.93220338983051,40,56.94915254237288,40,57.96610169491525,40C58.983050847457626,40,59.99999999999999,37.66666666666666,61.01694915254237,36C62.03389830508474,34.33333333333333,63.05084745762712,30,64.0677966101695,30C65.08474576271186,30,66.10169491525424,32.33333333333334,67.11864406779661,34C68.13559322033899,35.66666666666667,69.15254237288136,40,70.16949152542374,40C71.1864406779661,40,72.20338983050848,36,73.22033898305085,36C74.23728813559322,36,75.2542372881356,40,76.27118644067797,40C77.28813559322033,40,78.30508474576271,40,79.32203389830508,40C80.33898305084746,40,81.35593220338983,34,82.37288135593221,34C83.38983050847457,34,84.40677966101696,38,85.42372881355932,38C86.4406779661017,38,87.45762711864407,32,88.47457627118645,32C89.49152542372882,32,90.50847457627118,33.000000000000014,91.52542372881355,34C92.54237288135593,35,93.55932203389831,38,94.57627118644069,38C95.59322033898306,38,96.61016949152543,38,97.62711864406779,38C98.64406779661016,38,99.66101694915254,36.666666666666664,100.6779661016949,36C101.69491525423729,35.33333333333333,102.71186440677965,35.00000000000001,103.72881355932203,34C104.7457627118644,33,105.76271186440678,31,106.77966101694915,30C107.79661016949153,28.999999999999996,108.8135593220339,28,109.83050847457628,28C110.84745762711864,28,111.86440677966102,28,112.88135593220339,28C113.89830508474576,28,114.91525423728814,26,115.9322033898305,26C116.94915254237289,26,117.96610169491525,30,118.98305084745763,30C120,30,121.01694915254237,24,122.03389830508473,24C123.05084745762711,24,124.0677966101695,32,125.08474576271188,32C126.10169491525424,32,127.11864406779662,30.000000000000007,128.135593220339,28C129.15254237288136,26,130.16949152542372,23.33333333333331,131.1864406779661,20C132.20338983050846,16.666666666666657,133.22033898305085,7.999999999999998,134.23728813559322,7.999999999999998C135.25423728813558,7.999999999999998,136.27118644067798,22,137.28813559322035,22C138.3050847457627,22,139.3220338983051,2.0000000000000018,140.33898305084747,2.0000000000000018C141.35593220338984,2.0000000000000018,142.3728813559322,22,143.38983050847457,22C144.40677966101694,22,145.42372881355934,10,146.4406779661017,10C147.45762711864407,10,148.47457627118644,10,149.4915254237288,10C150.50847457627117,10,151.52542372881356,10.666666666666668,152.54237288135593,12.000000000000002C153.5593220338983,13.333333333333336,154.5762711864407,20,155.59322033898306,20C156.61016949152543,20,157.6271186440678,14,158.64406779661016,14C159.66101694915253,14,160.67796610169492,25.333333333333332,161.6949152542373,28C162.71186440677965,30.666666666666668,163.72881355932205,32,164.74576271186442,32C165.76271186440678,32,166.77966101694915,27.999999999999968,167.79661016949152,24C168.81355932203388,19.999999999999993,169.83050847457628,10.666666666666664,170.84745762711864,7.999999999999998C171.864406779661,5.333333333333332,172.8813559322034,3.999999999999999,173.89830508474577,3.999999999999999C174.91525423728814,3.999999999999999,175.93220338983053,22.666666666666668,176.9491525423729,28C177.96610169491527,33.333333333333286,178.98305084745763,34.66666666666664,180,36"></path><path class="axis-ceiling" stroke-width="1" stroke="black" fill="none" d="M175,0L180,0"></path><text class="axis-ceiling-label" font-family="sans-serif" text-anchor="end" font-size="10px" x="170" y="2.5">20</text></g></svg>