<svg xmlns="http://www.w3.org/2000/svg" viewBox="0 0 180 60"><g transform="translate(0,20)"><path class="area" fill="rgba(0, 0, 0, 0.2)" d="M0,33.6C1.0344827586206897,32.266666666666666,2.068965517241379,30.933333333333334,3.103448275862069,30.933333333333334C4.137931034482759,30.933333333333334,5.172413793103448,35.733333333333334,6.206896551724138,35.733333333333334C7.241379310344827,35.733333333333334,8.275862068965516,32,9.310344827586206,32C10.344827586206897,32,11.379310344827585,38.13333333333333,12.413793103448276,38.13333333333333C13.448275862068966,38.13333333333333,14.482758620689655,37.33333333333333,15.517241379310345,36.53333333333333C16.551724137931036,35.733333333333334,17.586206896551722,34.31111111111111,18.620689655172413,33.333333333333336C19.655172413793103,32.355555555555554,20.689655172413794,30.666666666666664,21.724137931034484,30.666666666666664C22.758620689655174,30.666666666666664,23.79310344827586,35.46666666666667,24.82758620689655,35.46666666666667C25.862068965517242,35.46666666666667,26.896551724137932,29.6,27.931034482758623,29.6C28.965517241379313,29.6,30,36.266666666666666,31.03448275862069,36.266666666666666C32.06896551724138,36.266666666666666,33.103448275862064,32.53333333333333,34.137931034482754,32.53333333333333C35.172413793103445,32.53333333333333,36.206896551724135,34.66666666666667,37.241379310344826,34.66666666666667C38.275862068965516,34.66666666666667,39.310344827586206,25.06666666666667,40.3448275862069,25.06666666666667C41.37931034482759,25.06666666666667,42.41379310344828,31.200000000000003,43.44827586206897,31.733333333333334C44.48275862068966,32.266666666666666,45.51724137931035,32.53333333333333,46.55172413793104,32.53333333333333C47.58620689655173,32.53333333333333,48.62068965517241,30.4,49.6551724137931,30.4C50.689655172413794,30.4,51.72413793103448,33.37777777777778,52.75862068965517,34.4C53.79310344827586,35.422222222222224,54.827586206896555,36.53333333333333,55.862068965517246,36.53333333333333C56.896551724137936,36.53333333333333,57.93103448275862,32.666666666666664,58.96551724137931,31.466666666666665C60,30.266666666666662,61.03448275862069,29.333333333333336,62.06896551724138,29.333333333333336C63.10344827586207,29.333333333333336,64.13793103448276,30.22222222222222,65.17241379310344,30.4C66.20689655172413,30.577777777777776,67.24137931034483,30.666666666666664,68.27586206896551,30.666666666666664C69.3103448275862,30.666666666666664,70.34482758620689,26.933333333333334,71.37931034482759,26.933333333333334C72.41379310344827,26.933333333333334,73.44827586206897,29.02222222222222,74.48275862068965,29.866666666666664C75.51724137931033,30.71111111111111,76.55172413793103,32,77.58620689655172,32C78.62068965517241,32,79.6551724137931,28.44444444444445,80.6896551724138,26.933333333333334C81.72413793103448,25.422222222222228,82.75862068965517,23.866666666666664,83.79310344827586,22.93333333333333C84.82758620689656,21.999999999999993,85.86206896551724,21.91111111111111,86.89655172413794,21.333333333333332C87.93103448275862,20.755555555555556,88.96551724137932,19.955555555555556,90,19.46666666666667C91.0344827586207,18.977777777777778,92.06896551724138,18.4,93.10344827586208,18.4C94.13793103448276,18.4,95.17241379310344,18.488888888888887,96.20689655172413,18.666666666666668C97.24137931034483,18.84444444444445,98.27586206896551,23.73333333333333,99.3103448275862,23.73333333333333C100.3448275862069,23.73333333333333,101.37931034482759,23.46666666666667,102.41379310344828,23.46666666666667C103.44827586206897,23.46666666666667,104.48275862068965,25.6,105.51724137931033,25.6C106.55172413793103,25.6,107.58620689655172,25.511111111111113,108.62068965517241,25.333333333333332C109.65517241379311,25.15555555555555,110.6896551724138,16.977777777777778,111.72413793103449,14.399999999999999C112.75862068965517,11.822222222222232,113.79310344827587,9.866666666666667,114.82758620689656,9.866666666666667C115.86206896551724,9.866666666666667,116.89655172413794,14.044444444444448,117.93103448275862,16.266666666666666C118.96551724137932,18.488888888888894,120,23.200000000000003,121.0344827586207,23.200000000000003C122.06896551724138,23.200000000000003,123.10344827586208,22.08888888888889,124.13793103448276,20.266666666666666C125.17241379310344,18.444444444444443,126.20689655172414,12.266666666666666,127.24137931034483,12.266666666666666C128.27586206896552,12.266666666666666,129.3103448275862,13.42222222222222,130.3448275862069,15.733333333333333C131.3793103448276,18.044444444444466,132.41379310344828,26.66666666666667,133.44827586206898,26.66666666666667C134.48275862068965,26.66666666666667,135.51724137931035,22.400000000000002,136.55172413793102,22.400000000000002C137.58620689655172,22.400000000000002,138.6206896551724,25.06666666666666,139.6551724137931,26.4C140.6896551724138,27.733333333333324,141.72413793103448,30.4,142.75862068965517,30.4C143.79310344827587,30.4,144.82758620689654,23.02222222222222,145.86206896551724,22.666666666666664C146.89655172413794,22.31111111111111,147.9310344827586,22.133333333333333,148.9655172413793,22.133333333333333C150,22.133333333333333,151.0344827586207,22.666666666666664,152.0689655172414,23.73333333333333C153.10344827586206,24.799999999999976,154.13793103448276,30.4,155.17241379310343,30.4C156.20689655172413,30.4,157.24137931034483,25.42222222222223,158.27586206896552,25.06666666666667C159.31034482758622,24.711111111111112,160.3448275862069,24.53333333333333,161.3793103448276,24.53333333333333C162.41379310344828,24.53333333333333,163.44827586206895,34.4,164.48275862068965,34.4C165.51724137931035,34.4,166.55172413793102,32.311111111111096,167.58620689655172,30.4C168.6206896551724,28.488888888888884,169.6551724137931,22.93333333333333,170.6896551724138,22.93333333333333C171.7241379310345,22.93333333333333,172.75862068965517,28.088888888888885,173.79310344827587,29.866666666666664C174.82758620689657,31.644444444444442,175.86206896551724,33.6,176.89655172413794,33.6C177.93103448275863,33.6,178.9655172413793,32.8,180,32L180,40C178.9655172413793,40,177.93103448275863,40,176.89655172413794,40C175.86206896551724,40,174.82758620689657,40,173.79310344827587,40C172.75862068965517,40,171.7241379310345,40,170.6896551724138,40C169.6551724137931,40,168.6206896551724,40,167.58620689655172,40C166.55172413793102,40,165.51724137931035,40,164.48275862068965,40C163.44827586206895,40,162.41379310344828,40,161.3793103448276,40C160.3448275862069,40,159.31034482758622,40,158.27586206896552,40C157.24137931034483,40,156.20689655172413,40,155.17241379310343,40C154.13793103448276,40,153.10344827586206,40,152.0689655172414,40C151.0344827586207,40,150,40,148.9655172413793,40C147.9310344827586,40,146.89655172413794,40,145.86206896551724,40C144.82758620689654,40,143.79310344827587,40,142.75862068965517,40C141.72413793103448,40,140.6896551724138,40,139.6551724137931,40C138.6206896551724,40,137.58620689655172,40,136.55172413793102,40C135.51724137931035,40,134.48275862068965,40,133.44827586206898,40C132.41379310344828,40,131.3793103448276,40,130.3448275862069,40C129.3103448275862,40,128.27586206896552,40,127.24137931034483,40C126.20689655172414,40,125.17241379310344,40,124.13793103448276,40C123.10344827586208,40,122.06896551724138,40,121.0344827586207,40C120,40,118.96551724137932,40,117.93103448275862,40C116.89655172413794,40,115.86206896551724,40,114.82758620689656,40C113.79310344827587,40,112.75862068965517,40,111.72413793103449,40C110.6896551724138,40,109.65517241379311,40,108.62068965517241,40C107.58620689655172,40,106.55172413793103,40,105.51724137931033,40C104.48275862068965,40,103.44827586206897,40,102.41379310344828,40C101.37931034482759,40,100.3448275862069,40,99.3103448275862,40C98.27586206896551,40,97.24137931034483,40,96.20689655172413,40C95.17241379310344,40,94.13793103448276,40,93.10344827586208,40C92.06896551724138,40,91.0344827586207,40,90,40C88.96551724137932,40,87.93103448275862,40,86.89655172413794,40C85.86206896551724,40,84.82758620689656,40,83.79310344827586,40C82.75862068965517,40,81.72413793103448,40,80.6896551724138,40C79.6551724137931,40,78.62068965517241,40,77.58620689655172,40C76.55172413793103,40,75.51724137931033,40,74.48275862068965,40C73.44827586206897,40,72.41379310344827,40,71.37931034482759,40C70.34482758620689,40,69.3103448275862,40,68.27586206896551,40C67.24137931034483,40,66.20689655172413,40,65.17241379310344,40C64.13793103448276,40,63.10344827586207,40,62.06896551724138,40C61.03448275862069,40,60,40,58.96551724137931,40C57.93103448275862,40,56.896551724137936,40,55.862068965517246,40C54.827586206896555,40,53.79310344827586,40,52.75862068965517,40C51.72413793103448,40,50.689655172413794,40,49.6551724137931,40C48.62068965517241,40,47.58620689655173,40,46.55172413793104,40C45.51724137931035,40,44.48275862068966,40,43.44827586206897,40C42.41379310344828,40,41.37931034482759,40,40.3448275862069,40C39.310344827586206,40,38.275862068965516,40,37.241379310344826,40C36.206896551724135,40,35.172413793103445,40,34.137931034482754,40C33.103448275862064,40,32.06896551724138,40,31.03448275862069,40C30,40,28.965517241379313,40,27.931034482758623,40C26.896551724137932,40,25.862068965517242,40,24.82758620689655,40C23.79310344827586,40,22.758620689655174,40,21.724137931034484,40C20.689655172413794,40,19.655172413793103,40,18.620689655172413,40C17.586206896551722,40,16.551724137931036,40,15.517241379310345,40C14.482758620689655,40,13.448275862068966,40,12.413793103448276,40C11.379310344827585,40,10.344827586206897,40,9.310344827586206,40C8.275862068965516,40,7.241379310344827,40,6.206896551724138,40C5.172413793103448,40,4.137931034482759,40,3.103448275862069,40C2.068965517241379,40,1.0344827586206897,40,0,40Z"></path><path class="line" stroke="black" fill="none" d="M0,33.6C1.0344827586206897,32.266666666666666,2.068965517241379,30.933333333333334,3.103448275862069,30.933333333333334C4.137931034482759,30.933333333333334,5.172413793103448,35.733333333333334,6.206896551724138,35.733333333333334C7.241379310344827,35.733333333333334,8.275862068965516,32,9.310344827586206,32C10.344827586206897,32,11.379310344827585,38.13333333333333,12.413793103448276,38.13333333333333C13.448275862068966,38.13333333333333,14.482758620689655,37.33333333333333,15.517241379310345,36.53333333333333C16.551724137931036,35.733333333333334,17.586206896551722,34.31111111111111,18.620689655172413,33.333333333333336C19.655172413793103,32.355555555555554,20.689655172413794,30.666666666666664,21.724137931034484,30.666666666666664C22.758620689655174,30.666666666666664,23.79310344827586,35.46666666666667,24.82758620689655,35.46666666666667C25.862068965517242,35.46666666666667,26.896551724137932,29.6,27.931034482758623,29.6C28.965517241379313,29.6,30,36.266666666666666,31.03448275862069,36.266666666666666C32.06896551724138,36.266666666666666,33.103448275862064,32.53333333333333,34.137931034482754,32.53333333333333C35.172413793103445,32.53333333333333,36.206896551724135,34.66666666666667,37.241379310344826,34.66666666666667C38.275862068965516,34.66666666666667,39.310344827586206,25.06666666666667,40.3448275862069,25.06666666666667C41.37931034482759,25.06666666666667,42.41379310344828,31.200000000000003,43.44827586206897,31.733333333333334C44.48275862068966,32.266666666666666,45.51724137931035,32.53333333333333,46.55172413793104,32.53333333333333C47.58620689655173,32.53333333333333,48.62068965517241,30.4,49.6551724137931,30.4C50.689655172413794,30.4,51.72413793103448,33.37777777777778,52.75862068965517,34.4C53.79310344827586,35.422222222222224,54.827586206896555,36.53333333333333,55.862068965517246,36.53333333333333C56.896551724137936,36.53333333333333,57.93103448275862,32.666666666666664,58.96551724137931,31.466666666666665C60,30.266666666666662,61.03448275862069,29.333333333333336,62.06896551724138,29.333333333333336C63.10344827586207,29.333333333333336,64.13793103448276,30.22222222222222,65.17241379310344,30.4C66.20689655172413,30.577777777777776,67.24137931034483,30.666666666666664,68.27586206896551,30.666666666666664C69.3103448275862,30.666666666666664,70.34482758620689,26.933333333333334,71.37931034482759,26.933333333333334C72.41379310344827,26.933333333333334,73.44827586206897,29.02222222222222,74.48275862068965,29.866666666666664C75.51724137931033,30.71111111111111,76.55172413793103,32,77.58620689655172,32C78.62068965517241,32,79.6551724137931,28.44444444444445,80.6896551724138,26.933333333333334C81.72413793103448,25.422222222222228,82.75862068965517,23.866666666666664,83.79310344827586,22.93333333333333C84.82758620689656,21.999999999999993,85.86206896551724,21.91111111111111,86.89655172413794,21.333333333333332C87.93103448275862,20.755555555555556,88.96551724137932,19.955555555555556,90,19.46666666666667C91.0344827586207,18.977777777777778,92.06896551724138,18.4,93.10344827586208,18.4C94.13793103448276,18.4,95.17241379310344,18.488888888888887,96.20689655172413,18.666666666666668C97.24137931034483,18.84444444444445,98.27586206896551,23.73333333333333,99.3103448275862,23.73333333333333C100.3448275862069,23.73333333333333,101.37931034482759,23.46666666666667,102.41379310344828,23.46666666666667C103.44827586206897,23.46666666666667,104.48275862068965,25.6,105.51724137931033,25.6C106.55172413793103,25.6,107.58620689655172,25.511111111111113,108.62068965517241,25.333333333333332C109.65517241379311,25.15555555555555,110.6896551724138,16.977777777777778,111.72413793103449,14.399999999999999C112.75862068965517,11.822222222222232,113.79310344827587,9.866666666666667,114.82758620689656,9.866666666666667C115.86206896551724,9.866666666666667,116.89655172413794,14.044444444444448,117.93103448275862,16.266666666666666C118.96551724137932,18.488888888888894,120,23.200000000000003,121.0344827586207,23.200000000000003C122.06896551724138,23.200000000000003,123.10344827586208,22.08888888888889,124.13793103448276,20.266666666666666C125.17241379310344,18.444444444444443,126.20689655172414,12.266666666666666,127.24137931034483,12.266666666666666C128.27586206896552,12.266666666666666,129.3103448275862,13.42222222222222,130.3448275862069,15.733333333333333C131.3793103448276,18.044444444444466,132.41379310344828,26.66666666666667,133.44827586206898,26.66666666666667C134.48275862068965,26.66666666666667,135.51724137931035,22.400000000000002,136.55172413793102,22.400000000000002C137.58620689655172,22.400000000000002,138.6206896551724,25.06666666666666,139.6551724137931,26.4C140.6896551724138,27.733333333333324,141.72413793103448,30.4,142.75862068965517,30.4C143.79310344827587,30.4,144.82758620689654,23.02222222222222,145.86206896551724,22.666666666666664C146.89655172413794,22.31111111111111,147.9310344827586,22.133333333333333,148.9655172413793,22.133333333333333C150,22.133333333333333,151.0344827586207,22.666666666666664,152.0689655172414,23.73333333333333C153.10344827586206,24.799999999999976,154.13793103448276,30.4,155.17241379310343,30.4C156.20689655172413,30.4,157.24137931034483,25.42222222222223,158.27586206896552,25.06666666666667C159.31034482758622,24.711111111111112,160.3448275862069,24.53333333333333,161.3793103448276,24.53333333333333C162.41379310344828,24.53333333333333,163.44827586206895,34.4,164.48275862068965,34.4C165.51724137931035,34.4,166.55172413793102,32.311111111111096,167.58620689655172,30.4C168.6206896551724,28.488888888888884,169.6551724137931,22.93333333333333,170.6896551724138,22.93333333333333C171.7241379310345,22.93333333333333,172.75862068965517,28.088888888888885,173.79310344827587,29.866666666666664C174.82758620689657,31.644444444444442,175.86206896551724,33.6,176.89655172413794,33.6C177.93103448275863,33.6,178.9655172413793,32.8,180,32"></path><path class="axis-ceiling" stroke-width="1" stroke="black" fill="none" d="M175,0L180,0"></path><text class="axis-ceiling-label" font-family="sans-serif" text-anchor="end" font-size="10px" x="170" y="2.5">150</text></g></svg>