<svg xmlns="http://www.w3.org/2000/svg" viewBox="0 0 180 60"><g transform="translate(0,20)"><path class="area" fill="rgba(0, 0, 0, 0.2)" d="M0,18.4C1.0169491525423728,21.799999999999997,2.0338983050847457,25.2,3.0508474576271185,25.2C4.067796610169491,25.2,5.084745762711864,21.8,6.101694915254237,20.8C7.11864406779661,19.8,8.135593220338983,20.266666666666666,9.152542372881356,19.2C10.169491525423728,18.133333333333333,11.186440677966102,14,12.203389830508474,14C13.220338983050846,14,14.23728813559322,16.866666666666664,15.254237288135592,18.799999999999997C16.271186440677965,20.73333333333333,17.28813559322034,23.6,18.305084745762713,25.6C19.322033898305087,27.6,20.338983050847457,30.8,21.35593220338983,30.8C22.372881355932204,30.8,23.389830508474574,27.199999999999996,24.406779661016948,27.199999999999996C25.423728813559322,27.199999999999996,26.440677966101696,34.8,27.45762711864407,34.8C28.47457627118644,34.8,29.491525423728813,19.2,30.508474576271183,19.2C31.525423728813557,19.2,32.54237288135593,26.799999999999997,33.559322033898304,26.799999999999997C34.57627118644068,26.799999999999997,35.59322033898305,23.6,36.610169491525426,23.6C37.6271186440678,23.6,38.644067796610166,27.599999999999998,39.66101694915254,27.599999999999998C40.67796610169491,27.599999999999998,41.69491525423729,15.600000000000001,42.71186440677966,15.600000000000001C43.728813559322035,15.600000000000001,44.7457627118644,30,45.762711864406775,30C46.77966101694915,30,47.79661016949152,25.06666666666667,48.813559322033896,24.8C49.83050847457627,24.53333333333333,50.847457627118644,24.666666666666668,51.86440677966102,24.4C52.88135593220339,24.13333333333333,53.898305084745765,18.799999999999997,54.91525423728814,18.799999999999997C55.93220338983051,18.799999999999997,56.94915254237288,21.06666666666667,57.96610169491525,22.800000000000004C58.983050847457626,24.53333333333334,59.99999999999999,27.86666666666667,61.01694915254237,29.2C62.03389830508474,30.533333333333335,63.05084745762712,30.333333333333332,64.0677966101695,31.200000000000003C65.08474576271186,32.06666666666667,66.10169491525424,34.4,67.11864406779661,34.4C68.13559322033899,34.4,69.15254237288136,32.6,70.16949152542374,31.6C71.1864406779661,30.600000000000005,72.20338983050848,28.4,73.22033898305085,28.4C74.23728813559322,28.4,75.2542372881356,30.133333333333336,76.27118644067797,31.200000000000003C77.28813559322033,32.266666666666666,78.30508474576271,34.8,79.32203389830508,34.8C80.33898305084746,34.8,81.35593220338983,34.13333333333333,82.37288135593221,32.800000000000004C83.38983050847457,31.466666666666683,84.40677966101696,26.4,85.42372881355932,26.4C86.4406779661017,26.4,87.45762711864407,32.399999999999984,88.47457627118645,33.199999999999996C89.49152542372882,34,90.50847457627118,34.4,91.52542372881355,34.4C92.54237288135593,34.4,93.55932203389831,28.799999999999997,94.57627118644069,28.799999999999997C95.59322033898306,28.799999999999997,96.61016949152543,34.4,97.62711864406779,34.4C98.64406779661016,34.4,99.66101694915254,33.6,100.6779661016949,33.6C101.69491525423729,33.6,102.71186440677965,36.4,103.72881355932203,36.4C104.7457627118644,36.4,105.76271186440678,34.8,106.77966101694915,34.8C107.79661016949153,34.8,108.8135593220339,37.599999999999994,109.83050847457628,37.599999999999994C110.84745762711864,37.599999999999994,111.86440677966102,31.6,112.88135593220339,31.6C113.89830508474576,31.6,114.91525423728814,33.400000000000006,115.9322033898305,34.4C116.94915254237289,35.4,117.96610169491525,37.599999999999994,118.98305084745763,37.599999999999994C120,37.599999999999994,121.01694915254237,25.2,122.03389830508473,25.2C123.05084745762711,25.2,124.0677966101695,25.866666666666664,125.08474576271188,27.199999999999996C126.10169491525424,28.533333333333314,127.11864406779662,35.6,128.135593220339,35.6C129.15254237288136,35.6,130.16949152542372,34,131.1864406779661,34C132.20338983050846,34,133.22033898305085,35.6,134.23728813559322,35.6C135.25423728813558,35.6,136.27118644067798,33.86666666666666,137.28813559322035,33.199999999999996C138.3050847457627,32.53333333333333,139.3220338983051,31.6,140.33898305084747,31.6C141.35593220338984,31.6,142.3728813559322,35.2,143.38983050847457,35.2C144.40677966101694,35.2,145.42372881355934,33.199999999999996,146.4406779661017,33.199999999999996C147.45762711864407,33.199999999999996,148.47457627118644,37.599999999999994,149.4915254237288,37.599999999999994C150.50847457627117,37.599999999999994,151.52542372881356,36,152.54237288135593,36C153.5593220338983,36,154.5762711864407,37.599999999999994,155.59322033898306,37.599999999999994C156.61016949152543,37.599999999999994,157.6271186440678,33.6,158.64406779661016,33.6C159.66101694915253,33.6,160.67796610169492,35.6,161.6949152542373,35.6C162.71186440677965,35.6,163.72881355932205,32,164.74576271186442,32C165.76271186440678,32,166.77966101694915,32.13333333333333,167.79661016949152,32.400000000000006C168.81355932203388,32.66666666666668,169.83050847457628,36,170.84745762711864,36C171.864406779661,36,172.8813559322034,35.2,173.89830508474577,35.2C174.91525423728814,35.2,175.93220338983053,36,176.9491525423729,36C177.96610169491527,36,178.98305084745763,34.599999999999994,180,33.199999999999996L180,40C178.98305084745763,40,177.96610169491527,40,176.9491525423729,40C175.93220338983053,40,174.91525423728814,40,173.89830508474577,40C172.8813559322034,40,171.864406779661,40,170.84745762711864,40C169.83050847457628,40,168.81355932203388,40,167.79661016949152,40C166.77966101694915,40,165.76271186440678,40,164.74576271186442,40C163.72881355932205,40,162.71186440677965,40,161.6949152542373,40C160.67796610169492,40,159.66101694915253,40,158.64406779661016,40C157.6271186440678,40,156.61016949152543,40,155.59322033898306,40C154.5762711864407,40,153.5593220338983,40,152.54237288135593,40C151.52542372881356,40,150.50847457627117,40,149.4915254237288,40C148.47457627118644,40,147.45762711864407,40,146.4406779661017,40C145.42372881355934,40,144.40677966101694,40,143.38983050847457,40C142.3728813559322,40,141.35593220338984,40,140.33898305084747,40C139.3220338983051,40,138.3050847457627,40,137.28813559322035,40C136.27118644067798,40,135.25423728813558,40,134.23728813559322,40C133.22033898305085,40,132.20338983050846,40,131.1864406779661,40C130.16949152542372,40,129.15254237288136,40,128.135593220339,40C127.11864406779662,40,126.10169491525424,40,125.08474576271188,40C124.0677966101695,40,123.05084745762711,40,122.03389830508473,40C121.01694915254237,40,120,40,118.98305084745763,40C117.96610169491525,40,116.94915254237289,40,115.9322033898305,40C114.91525423728814,40,113.89830508474576,40,112.88135593220339,40C111.86440677966102,40,110.84745762711864,40,109.83050847457628,40C108.8135593220339,40,107.79661016949153,40,106.77966101694915,40C105.76271186440678,40,104.7457627118644,40,103.72881355932203,40C102.71186440677965,40,101.69491525423729,40,100.6779661016949,40C99.66101694915254,40,98.64406779661016,40,97.62711864406779,40C96.61016949152543,40,95.59322033898306,40,94.57627118644069,40C93.55932203389831,40,92.54237288135593,40,91.52542372881355,40C90.50847457627118,40,89.49152542372882,40,88.47457627118645,40C87.45762711864407,40,86.4406779661017,40,85.42372881355932,40C84.40677966101696,40,83.38983050847457,40,82.37288135593221,40C81.35593220338983,40,80.33898305084746,40,79.32203389830508,40C78.30508474576271,40,77.28813559322033,40,76.27118644067797,40C75.2542372881356,40,74.23728813559322,40,73.22033898305085,40C72.20338983050848,40,71.1864406779661,40,70.16949152542374,40C69.15254237288136,40,68.13559322033899,40,67.11864406779661,40C66.10169491525424,40,65.08474576271186,40,64.0677966101695,40C63.05084745762712,40,62.03389830508474,40,61.01694915254237,40C59.99999999999999,40,58.983050847457626,40,57.96610169491525,40C56.94915254237288,40,55.93220338983051,40,54.91525423728814,40C53.898305084745765,40,52.88135593220339,40,51.86440677966102,40C50.847457627118644,40,49.83050847457627,40,48.813559322033896,40C47.79661016949152,40,46.77966101694915,40,45.762711864406775,40C44.7457627118644,40,43.728813559322035,40,42.71186440677966,40C41.69491525423729,40,40.67796610169491,40,39.66101694915254,40C38.644067796610166,40,37.6271186440678,40,36.610169491525426,40C35.59322033898305,40,34.57627118644068,40,33.559322033898304,40C32.54237288135593,40,31.525423728813557,40,30.508474576271183,40C29.491525423728813,40,28.47457627118644,40,27.45762711864407,40C26.440677966101696,40,25.423728813559322,40,24.406779661016948,40C23.389830508474574,40,22.372881355932204,40,21.35593220338983,40C20.338983050847457,40,19.322033898305087,40,18.305084745762713,40C17.28813559322034,40,16.271186440677965,40,15.254237288135592,40C14.23728813559322,40,13.220338983050846,40,12.203389830508474,40C11.186440677966102,40,10.169491525423728,40,9.152542372881356,40C8.135593220338983,40,7.11864406779661,40,6.101694915254237,40C5.084745762711864,40,4.067796610169491,40,3.0508474576271185,40C2.0338983050847457,40,1.0169491525423728,40,0,40Z"></path><path class="line" stroke="black" fill="none" d="M0,18.4C1.0169491525423728,21.799999999999997,2.0338983050847457,25.2,3.0508474576271185,25.2C4.067796610169491,25.2,5.084745762711864,21.8,6.101694915254237,20.8C7.11864406779661,19.8,8.135593220338983,20.266666666666666,9.152542372881356,19.2C10.169491525423728,18.133333333333333,11.186440677966102,14,12.203389830508474,14C13.220338983050846,14,14.23728813559322,16.866666666666664,15.254237288135592,18.799999999999997C16.271186440677965,20.73333333333333,17.28813559322034,23.6,18.305084745762713,25.6C19.322033898305087,27.6,20.338983050847457,30.8,21.35593220338983,30.8C22.372881355932204,30.8,23.389830508474574,27.199999999999996,24.406779661016948,27.199999999999996C25.423728813559322,27.199999999999996,26.440677966101696,34.8,27.45762711864407,34.8C28.47457627118644,34.8,29.491525423728813,19.2,30.508474576271183,19.2C31.525423728813557,19.2,32.54237288135593,26.799999999999997,33.559322033898304,26.799999999999997C34.57627118644068,26.799999999999997,35.59322033898305,23.6,36.610169491525426,23.6C37.6271186440678,23.6,38.644067796610166,27.599999999999998,39.66101694915254,27.599999999999998C40.67796610169491,27.599999999999998,41.69491525423729,15.600000000000001,42.71186440677966,15.600000000000001C43.728813559322035,15.600000000000001,44.7457627118644,30,45.762711864406775,30C46.77966101694915,30,47.79661016949152,25.06666666666667,48.813559322033896,24.8C49.83050847457627,24.53333333333333,50.847457627118644,24.666666666666668,51.86440677966102,24.4C52.88135593220339,24.13333333333333,53.898305084745765,18.799999999999997,54.91525423728814,18.799999999999997C55.93220338983051,18.799999999999997,56.94915254237288,21.06666666666667,57.96610169491525,22.800000000000004C58.983050847457626,24.53333333333334,59.99999999999999,27.86666666666667,61.01694915254237,29.2C62.03389830508474,30.533333333333335,63.05084745762712,30.333333333333332,64.0677966101695,31.200000000000003C65.08474576271186,32.06666666666667,66.10169491525424,34.4,67.11864406779661,34.4C68.13559322033899,34.4,69.15254237288136,32.6,70.16949152542374,31.6C71.1864406779661,30.600000000000005,72.20338983050848,28.4,73.22033898305085,28.4C74.23728813559322,28.4,75.2542372881356,30.133333333333336,76.27118644067797,31.200000000000003C77.28813559322033,32.266666666666666,78.30508474576271,34.8,79.32203389830508,34.8C80.33898305084746,34.8,81.35593220338983,34.13333333333333,82.37288135593221,32.800000000000004C83.38983050847457,31.466666666666683,84.40677966101696,26.4,85.42372881355932,26.4C86.4406779661017,26.4,87.45762711864407,32.399999999999984,88.47457627118645,33.199999999999996C89.49152542372882,34,90.50847457627118,34.4,91.52542372881355,34.4C92.54237288135593,34.4,93.55932203389831,28.799999999999997,94.57627118644069,28.799999999999997C95.59322033898306,28.799999999999997,96.61016949152543,34.4,97.62711864406779,34.4C98.64406779661016,34.4,99.66101694915254,33.6,100.6779661016949,33.6C101.69491525423729,33.6,102.71186440677965,36.4,103.72881355932203,36.4C104.7457627118644,36.4,105.76271186440678,34.8,106.77966101694915,34.8C107.79661016949153,34.8,108.8135593220339,37.599999999999994,109.83050847457628,37.599999999999994C110.84745762711864,37.599999999999994,111.86440677966102,31.6,112.88135593220339,31.6C113.89830508474576,31.6,114.91525423728814,33.400000000000006,115.9322033898305,34.4C116.94915254237289,35.4,117.96610169491525,37.599999999999994,118.98305084745763,37.599999999999994C120,37.599999999999994,121.01694915254237,25.2,122.03389830508473,25.2C123.05084745762711,25.2,124.0677966101695,25.866666666666664,125.08474576271188,27.199999999999996C126.10169491525424,28.533333333333314,127.11864406779662,35.6,128.135593220339,35.6C129.15254237288136,35.6,130.16949152542372,34,131.1864406779661,34C132.20338983050846,34,133.22033898305085,35.6,134.23728813559322,35.6C135.25423728813558,35.6,136.27118644067798,33.86666666666666,137.28813559322035,33.199999999999996C138.3050847457627,32.53333333333333,139.3220338983051,31.6,140.33898305084747,31.6C141.35593220338984,31.6,142.3728813559322,35.2,143.38983050847457,35.2C144.40677966101694,35.2,145.42372881355934,33.199999999999996,146.4406779661017,33.199999999999996C147.45762711864407,33.199999999999996,148.47457627118644,37.599999999999994,149.4915254237288,37.599999999999994C150.50847457627117,37.599999999999994,151.52542372881356,36,152.54237288135593,36C153.5593220338983,36,154.5762711864407,37.599999999999994,155.59322033898306,37.599999999999994C156.61016949152543,37.599999999999994,157.6271186440678,33.6,158.64406779661016,33.6C159.66101694915253,33.6,160.67796610169492,35.6,161.6949152542373,35.6C162.71186440677965,35.6,163.72881355932205,32,164.74576271186442,32C165.76271186440678,32,166.77966101694915,32.13333333333333,167.79661016949152,32.400000000000006C168.81355932203388,32.66666666666668,169.83050847457628,36,170.84745762711864,36C171.864406779661,36,172.8813559322034,35.2,173.89830508474577,35.2C174.91525423728814,35.2,175.93220338983053,36,176.9491525423729,36C177.96610169491527,36,178.98305084745763,34.599999999999994,180,33.199999999999996"></path><path class="axis-ceiling" stroke-width="1" stroke="black" fill="none" d="M175,0L180,0"></path><text class="axis-ceiling-label" font-family="sans-serif" text-anchor="end" font-size="10px" x="170" y="2.5">100</text></g></svg>