<svg xmlns="http://www.w3.org/2000/svg" viewBox="0 0 180 60"><g transform="translate(0,20)"><path class="area" fill="rgba(0, 0, 0, 0.2)" d="M0,32C1.0169491525423728,32,2.0338983050847457,32,3.0508474576271185,32C4.067796610169491,32,5.084745762711864,30.666666666666664,6.101694915254237,30.666666666666664C7.11864406779661,30.666666666666664,8.135593220338983,33.333333333333336,9.152542372881356,33.333333333333336C10.169491525423728,33.333333333333336,11.186440677966102,29.333333333333336,12.203389830508474,29.333333333333336C13.220338983050846,29.333333333333336,14.23728813559322,34.66666666666667,15.254237288135592,34.66666666666667C16.271186440677965,34.66666666666667,17.28813559322034,33.333333333333336,18.305084745762713,32C19.322033898305087,30.666666666666668,20.338983050847457,28.888888888888893,21.35593220338983,26.66666666666667C22.372881355932204,24.44444444444445,23.389830508474574,18.666666666666668,24.406779661016948,18.666666666666668C25.423728813559322,18.666666666666668,26.440677966101696,28,27.45762711864407,28C28.47457627118644,28,29.491525423728813,14.666666666666668,30.508474576271183,14.666666666666668C31.525423728813557,14.666666666666668,32.54237288135593,28,33.559322033898304,28C34.57627118644068,28,35.59322033898305,20,36.610169491525426,20C37.6271186440678,20,38.644067796610166,20,39.66101694915254,20C40.67796610169491,20,41.69491525423729,20.444444444444443,42.71186440677966,21.333333333333332C43.728813559322035,22.222222222222218,44.7457627118644,26.66666666666667,45.762711864406775,26.66666666666667C46.77966101694915,26.66666666666667,47.79661016949152,22.666666666666664,48.813559322033896,22.666666666666664C49.83050847457627,22.666666666666664,50.847457627118644,30.222222222222218,51.86440677966102,32C52.88135593220339,33.77777777777778,53.898305084745765,34.66666666666667,54.91525423728814,34.66666666666667C55.93220338983051,34.66666666666667,56.94915254237288,32,57.96610169491525,29.333333333333336C58.983050847457626,26.666666666666668,59.99999999999999,20.44444444444444,61.01694915254237,18.666666666666668C62.03389830508474,16.88888888888889,63.05084745762712,16,64.0677966101695,16C65.08474576271186,16,66.10169491525424,28.44444444444446,67.11864406779661,32C68.13559322033899,35.55555555555556,69.15254237288136,37.333333333333336,70.16949152542374,37.333333333333336C71.1864406779661,37.333333333333336,72.20338983050848,36,73.22033898305085,36C74.23728813559322,36,75.2542372881356,36,76.27118644067797,36C77.28813559322033,36,78.30508474576271,34,79.32203389830508,33.333333333333336C80.33898305084746,32.666666666666664,81.35593220338983,32.88888888888889,82.37288135593221,32C83.38983050847457,31.111111111111114,84.40677966101696,24,85.42372881355932,24C86.4406779661017,24,87.45762711864407,27.333333333333325,88.47457627118645,29.333333333333336C89.49152542372882,31.33333333333333,90.50847457627118,36,91.52542372881355,36C92.54237288135593,36,93.55932203389831,30.22222222222224,94.57627118644069,29.333333333333336C95.59322033898306,28.444444444444446,96.61016949152543,28,97.62711864406779,28C98.64406779661016,28,99.66101694915254,33.333333333333336,100.6779661016949,33.333333333333336C101.69491525423729,33.333333333333336,102.71186440677965,33.333333333333336,103.72881355932203,33.333333333333336C104.7457627118644,33.333333333333336,105.76271186440678,36,106.77966101694915,36C107.79661016949153,36,108.8135593220339,27.333333333333343,109.83050847457628,22.666666666666664C110.84745762711864,18.000000000000007,111.86440677966102,7.999999999999998,112.88135593220339,7.999999999999998C113.89830508474576,7.999999999999998,114.91525423728814,32,115.9322033898305,32C116.94915254237289,32,117.96610169491525,32,118.98305084745763,32C120,32,121.01694915254237,25.3333333333333,122.03389830508473,21.333333333333332C123.05084745762711,17.33333333333331,124.0677966101695,7.999999999999998,125.08474576271188,7.999999999999998C126.10169491525424,7.999999999999998,127.11864406779662,25.333333333333332,128.135593220339,25.333333333333332C129.15254237288136,25.333333333333332,130.16949152542372,3.999999999999999,131.1864406779661,3.999999999999999C132.20338983050846,3.999999999999999,133.22033898305085,20,134.23728813559322,20C135.25423728813558,20,136.27118644067798,14.666666666666668,137.28813559322035,14.666666666666668C138.3050847457627,14.666666666666668,139.3220338983051,30.666666666666664,140.33898305084747,30.666666666666664C141.35593220338984,30.666666666666664,142.3728813559322,22.666666666666664,143.38983050847457,22.666666666666664C144.40677966101694,22.666666666666664,145.42372881355934,38.666666666666664,146.4406779661017,38.666666666666664C147.45762711864407,38.666666666666664,148.47457627118644,36.222222222222214,149.4915254237288,34.66666666666667C150.50847457627117,33.111111111111114,151.52542372881356,29.333333333333336,152.54237288135593,29.333333333333336C153.5593220338983,29.333333333333336,154.5762711864407,36.44444444444444,155.59322033898306,37.333333333333336C156.61016949152543,38.22222222222222,157.6271186440678,38.22222222222222,158.64406779661016,38.666666666666664C159.66101694915253,39.11111111111111,160.67796610169492,40,161.6949152542373,40C162.71186440677965,40,163.72881355932205,40,164.74576271186442,40C165.76271186440678,40,166.77966101694915,38.44444444444444,167.79661016949152,37.333333333333336C168.81355932203388,36.22222222222222,169.83050847457628,35.77777777777778,170.84745762711864,33.333333333333336C171.864406779661,30.88888888888889,172.8813559322034,22.666666666666664,173.89830508474577,22.666666666666664C174.91525423728814,22.666666666666664,175.93220338983053,29.777777777777775,176.9491525423729,32C177.96610169491527,34.22222222222221,178.98305084745763,35.1111111111111,180,36L180,40C178.98305084745763,40,177.96610169491527,40,176.9491525423729,40C175.93220338983053,40,174.91525423728814,40,173.89830508474577,40C172.8813559322034,40,171.864406779661,40,170.84745762711864,40C169.83050847457628,40,168.81355932203388,40,167.79661016949152,40C166.77966101694915,40,165.76271186440678,40,164.74576271186442,40C163.72881355932205,40,162.71186440677965,40,161.6949152542373,40C160.67796610169492,40,159.66101694915253,40,158.64406779661016,40C157.6271186440678,40,156.61016949152543,40,155.59322033898306,40C154.5762711864407,40,153.5593220338983,40,152.54237288135593,40C151.52542372881356,40,150.50847457627117,40,149.4915254237288,40C148.47457627118644,40,147.45762711864407,40,146.4406779661017,40C145.42372881355934,40,144.40677966101694,40,143.38983050847457,40C142.3728813559322,40,141.35593220338984,40,140.33898305084747,40C139.3220338983051,40,138.3050847457627,40,137.28813559322035,40C136.27118644067798,40,135.25423728813558,40,134.23728813559322,40C133.22033898305085,40,132.20338983050846,40,131.1864406779661,40C130.16949152542372,40,129.15254237288136,40,128.135593220339,40C127.11864406779662,40,126.10169491525424,40,125.08474576271188,40C124.0677966101695,40,123.05084745762711,40,122.03389830508473,40C121.01694915254237,40,120,40,118.98305084745763,40C117.96610169491525,40,116.94915254237289,40,115.9322033898305,40C114.91525423728814,40,113.89830508474576,40,112.88135593220339,40C111.86440677966102,40,110.84745762711864,40,109.83050847457628,40C108.8135593220339,40,107.79661016949153,40,106.77966101694915,40C105.76271186440678,40,104.7457627118644,40,103.72881355932203,40C102.71186440677965,40,101.69491525423729,40,100.6779661016949,40C99.66101694915254,40,98.64406779661016,40,97.62711864406779,40C96.61016949152543,40,95.59322033898306,40,94.57627118644069,40C93.55932203389831,40,92.54237288135593,40,91.52542372881355,40C90.50847457627118,40,89.49152542372882,40,88.47457627118645,40C87.45762711864407,40,86.4406779661017,40,85.42372881355932,40C84.40677966101696,40,83.38983050847457,40,82.37288135593221,40C81.35593220338983,40,80.33898305084746,40,79.32203389830508,40C78.30508474576271,40,77.28813559322033,40,76.27118644067797,40C75.2542372881356,40,74.23728813559322,40,73.22033898305085,40C72.20338983050848,40,71.1864406779661,40,70.16949152542374,40C69.15254237288136,40,68.13559322033899,40,67.11864406779661,40C66.10169491525424,40,65.08474576271186,40,64.0677966101695,40C63.05084745762712,40,62.03389830508474,40,61.01694915254237,40C59.99999999999999,40,58.983050847457626,40,57.96610169491525,40C56.94915254237288,40,55.93220338983051,40,54.91525423728814,40C53.898305084745765,40,52.88135593220339,40,51.86440677966102,40C50.847457627118644,40,49.83050847457627,40,48.813559322033896,40C47.79661016949152,40,46.77966101694915,40,45.762711864406775,40C44.7457627118644,40,43.728813559322035,40,42.71186440677966,40C41.69491525423729,40,40.67796610169491,40,39.66101694915254,40C38.644067796610166,40,37.6271186440678,40,36.610169491525426,40C35.59322033898305,40,34.57627118644068,40,33.559322033898304,40C32.54237288135593,40,31.525423728813557,40,30.508474576271183,40C29.491525423728813,40,28.47457627118644,40,27.45762711864407,40C26.440677966101696,40,25.423728813559322,40,24.406779661016948,40C23.389830508474574,40,22.372881355932204,40,21.35593220338983,40C20.338983050847457,40,19.322033898305087,40,18.305084745762713,40C17.28813559322034,40,16.271186440677965,40,15.254237288135592,40C14.23728813559322,40,13.220338983050846,40,12.203389830508474,40C11.186440677966102,40,10.169491525423728,40,9.152542372881356,40C8.135593220338983,40,7.11864406779661,40,6.101694915254237,40C5.084745762711864,40,4.067796610169491,40,3.0508474576271185,40C2.0338983050847457,40,1.0169491525423728,40,0,40Z"></path><path class="line" stroke="black" fill="none" d="M0,32C1.0169491525423728,32,2.0338983050847457,32,3.0508474576271185,32C4.067796610169491,32,5.084745762711864,30.666666666666664,6.101694915254237,30.666666666666664C7.11864406779661,30.666666666666664,8.135593220338983,33.333333333333336,9.152542372881356,33.333333333333336C10.169491525423728,33.333333333333336,11.186440677966102,29.333333333333336,12.203389830508474,29.333333333333336C13.220338983050846,29.333333333333336,14.23728813559322,34.66666666666667,15.254237288135592,34.66666666666667C16.271186440677965,34.66666666666667,17.28813559322034,33.333333333333336,18.305084745762713,32C19.322033898305087,30.666666666666668,20.338983050847457,28.888888888888893,21.35593220338983,26.66666666666667C22.372881355932204,24.44444444444445,23.389830508474574,18.666666666666668,24.406779661016948,18.666666666666668C25.423728813559322,18.666666666666668,26.440677966101696,28,27.45762711864407,28C28.47457627118644,28,29.491525423728813,14.666666666666668,30.508474576271183,14.666666666666668C31.525423728813557,14.666666666666668,32.54237288135593,28,33.559322033898304,28C34.57627118644068,28,35.59322033898305,20,36.610169491525426,20C37.6271186440678,20,38.644067796610166,20,39.66101694915254,20C40.67796610169491,20,41.69491525423729,20.444444444444443,42.71186440677966,21.333333333333332C43.728813559322035,22.222222222222218,44.7457627118644,26.66666666666667,45.762711864406775,26.66666666666667C46.77966101694915,26.66666666666667,47.79661016949152,22.666666666666664,48.813559322033896,22.666666666666664C49.83050847457627,22.666666666666664,50.847457627118644,30.222222222222218,51.86440677966102,32C52.88135593220339,33.77777777777778,53.898305084745765,34.66666666666667,54.91525423728814,34.66666666666667C55.93220338983051,34.66666666666667,56.94915254237288,32,57.96610169491525,29.333333333333336C58.983050847457626,26.666666666666668,59.99999999999999,20.44444444444444,61.01694915254237,18.666666666666668C62.03389830508474,16.88888888888889,63.05084745762712,16,64.0677966101695,16C65.08474576271186,16,66.10169491525424,28.44444444444446,67.11864406779661,32C68.13559322033899,35.55555555555556,69.15254237288136,37.333333333333336,70.16949152542374,37.333333333333336C71.1864406779661,37.333333333333336,72.20338983050848,36,73.22033898305085,36C74.23728813559322,36,75.2542372881356,36,76.27118644067797,36C77.28813559322033,36,78.30508474576271,34,79.32203389830508,33.333333333333336C80.33898305084746,32.666666666666664,81.35593220338983,32.88888888888889,82.37288135593221,32C83.38983050847457,31.111111111111114,84.40677966101696,24,85.42372881355932,24C86.4406779661017,24,87.45762711864407,27.333333333333325,88.47457627118645,29.333333333333336C89.49152542372882,31.33333333333333,90.50847457627118,36,91.52542372881355,36C92.54237288135593,36,93.55932203389831,30.22222222222224,94.57627118644069,29.333333333333336C95.59322033898306,28.444444444444446,96.61016949152543,28,97.62711864406779,28C98.64406779661016,28,99.66101694915254,33.333333333333336,100.6779661016949,33.333333333333336C101.69491525423729,33.333333333333336,102.71186440677965,33.333333333333336,103.72881355932203,33.333333333333336C104.7457627118644,33.333333333333336,105.76271186440678,36,106.77966101694915,36C107.79661016949153,36,108.8135593220339,27.333333333333343,109.83050847457628,22.666666666666664C110.84745762711864,18.000000000000007,111.86440677966102,7.999999999999998,112.88135593220339,7.999999999999998C113.89830508474576,7.999999999999998,114.91525423728814,32,115.9322033898305,32C116.94915254237289,32,117.96610169491525,32,118.98305084745763,32C120,32,121.01694915254237,25.3333333333333,122.03389830508473,21.333333333333332C123.05084745762711,17.33333333333331,124.0677966101695,7.999999999999998,125.08474576271188,7.999999999999998C126.10169491525424,7.999999999999998,127.11864406779662,25.333333333333332,128.135593220339,25.333333333333332C129.15254237288136,25.333333333333332,130.16949152542372,3.999999999999999,131.1864406779661,3.999999999999999C132.20338983050846,3.999999999999999,133.22033898305085,20,134.23728813559322,20C135.25423728813558,20,136.27118644067798,14.666666666666668,137.28813559322035,14.666666666666668C138.3050847457627,14.666666666666668,139.3220338983051,30.666666666666664,140.33898305084747,30.666666666666664C141.35593220338984,30.666666666666664,142.3728813559322,22.666666666666664,143.38983050847457,22.666666666666664C144.40677966101694,22.666666666666664,145.42372881355934,38.666666666666664,146.4406779661017,38.666666666666664C147.45762711864407,38.666666666666664,148.47457627118644,36.222222222222214,149.4915254237288,34.66666666666667C150.50847457627117,33.111111111111114,151.52542372881356,29.333333333333336,152.54237288135593,29.333333333333336C153.5593220338983,29.333333333333336,154.5762711864407,36.44444444444444,155.59322033898306,37.333333333333336C156.61016949152543,38.22222222222222,157.6271186440678,38.22222222222222,158.64406779661016,38.666666666666664C159.66101694915253,39.11111111111111,160.67796610169492,40,161.6949152542373,40C162.71186440677965,40,163.72881355932205,40,164.74576271186442,40C165.76271186440678,40,166.77966101694915,38.44444444444444,167.79661016949152,37.333333333333336C168.81355932203388,36.22222222222222,169.83050847457628,35.77777777777778,170.84745762711864,33.333333333333336C171.864406779661,30.88888888888889,172.8813559322034,22.666666666666664,173.89830508474577,22.666666666666664C174.91525423728814,22.666666666666664,175.93220338983053,29.777777777777775,176.9491525423729,32C177.96610169491527,34.22222222222221,178.98305084745763,35.1111111111111,180,36"></path><path class="axis-ceiling" stroke-width="1" stroke="black" fill="none" d="M175,0L180,0"></path><text class="axis-ceiling-label" font-family="sans-serif" text-anchor="end" font-size="10px" x="170" y="2.5">30</text></g></svg>