<svg xmlns="http://www.w3.org/2000/svg" viewBox="0 0 180 60"><g transform="translate(0,20)"><path class="area" fill="rgba(0, 0, 0, 0.2)" d="M0,36.9C1.0344827586206897,36.833333333333336,2.068965517241379,36.766666666666666,3.103448275862069,36.5C4.137931034482759,36.233333333333334,5.172413793103448,35.199999999999996,6.206896551724138,34.699999999999996C7.241379310344827,34.199999999999996,8.275862068965516,33.5,9.310344827586206,33.5C10.344827586206897,33.5,11.379310344827585,34.6,12.413793103448276,34.6C13.448275862068966,34.6,14.482758620689655,33.5,15.517241379310345,33.5C16.551724137931036,33.5,17.586206896551722,33.98333333333334,18.620689655172413,34.300000000000004C19.655172413793103,34.616666666666674,20.689655172413794,35.4,21.724137931034484,35.4C22.758620689655174,35.4,23.79310344827586,35,24.82758620689655,34.2C25.862068965517242,33.400000000000006,26.896551724137932,28.6,27.931034482758623,28.6C28.965517241379313,28.6,30,30.6,31.03448275862069,30.6C32.06896551724138,30.6,33.103448275862064,29.78333333333333,34.137931034482754,29.4C35.172413793103445,29.016666666666666,36.206896551724135,28.3,37.241379310344826,28.3C38.275862068965516,28.3,39.310344827586206,28.633333333333333,40.3448275862069,29.299999999999997C41.37931034482759,29.96666666666666,42.41379310344828,32.86666666666666,43.44827586206897,33.4C44.48275862068966,33.93333333333334,45.51724137931035,34.2,46.55172413793104,34.2C47.58620689655173,34.2,48.62068965517241,30.516666666666666,49.6551724137931,28.799999999999997C50.689655172413794,27.08333333333333,51.72413793103448,25.299999999999997,52.75862068965517,23.9C53.79310344827586,22.499999999999993,54.827586206896555,20.8,55.862068965517246,20.4C56.896551724137936,20,57.93103448275862,19.8,58.96551724137931,19.8C60,19.8,61.03448275862069,26.5,62.06896551724138,26.5C63.10344827586207,26.5,64.13793103448276,26.2,65.17241379310344,25.6C66.20689655172413,25.000000000000004,67.24137931034483,19.93333333333333,68.27586206896551,17.3C69.3103448275862,14.66666666666666,70.34482758620689,12.050000000000004,71.37931034482759,9.8C72.41379310344827,7.550000000000007,73.44827586206897,4.666666666666665,74.48275862068965,3.799999999999999C75.51724137931033,2.933333333333333,76.55172413793103,2.8166666666666664,77.58620689655172,2.5C78.62068965517241,2.1833333333333322,79.6551724137931,1.8999999999999995,80.6896551724138,1.8999999999999995C81.72413793103448,1.8999999999999995,82.75862068965517,3.2666666666666737,83.79310344827586,5C84.82758620689656,6.733333333333334,85.86206896551724,12.3,86.89655172413794,12.3C87.93103448275862,12.3,88.96551724137932,11.966666666666667,90,11.299999999999999C91.0344827586207,10.633333333333328,92.06896551724138,4.733333333333334,93.10344827586208,4.6C94.13793103448276,4.466666666666666,95.17241379310344,4.533333333333333,96.20689655172413,4.3999999999999995C97.24137931034483,4.266666666666665,98.27586206896551,2.9000000000000004,99.3103448275862,2.9000000000000004C100.3448275862069,2.9000000000000004,101.37931034482759,4.649999999999989,102.41379310344828,6.099999999999999C103.44827586206897,7.549999999999995,104.48275862068965,10.21666666666667,105.51724137931033,11.600000000000001C106.55172413793103,12.983333333333345,107.58620689655172,14.199999999999996,108.62068965517241,14.399999999999999C109.65517241379311,14.600000000000001,110.6896551724138,14.700000000000003,111.72413793103449,14.700000000000003C112.75862068965517,14.700000000000003,113.79310344827587,13.399999999999999,114.82758620689656,13.399999999999999C115.86206896551724,13.399999999999999,116.89655172413794,17.1,117.93103448275862,17.1C118.96551724137932,17.1,120,16.566666666666666,121.0344827586207,16.299999999999997C122.06896551724138,16.03333333333333,123.10344827586208,15.499999999999998,124.13793103448276,15.499999999999998C125.17241379310344,15.499999999999998,126.20689655172414,26.4,127.24137931034483,26.4C128.27586206896552,26.4,129.3103448275862,25.5,130.3448275862069,25.5C131.3793103448276,25.5,132.41379310344828,26.4,133.44827586206898,26.4C134.48275862068965,26.4,135.51724137931035,25,136.55172413793102,25C137.58620689655172,25,138.6206896551724,25.4,139.6551724137931,25.4C140.6896551724138,25.4,141.72413793103448,25.2,142.75862068965517,25.2C143.79310344827587,25.2,144.82758620689654,28.116666666666667,145.86206896551724,29C146.89655172413794,29.883333333333333,147.9310344827586,29.583333333333343,148.9655172413793,30.5C150,31.416666666666668,151.0344827586207,34.5,152.0689655172414,34.5C153.10344827586206,34.5,154.13793103448276,33.66666666666666,155.17241379310343,32.800000000000004C156.20689655172413,31.933333333333334,157.24137931034483,29.299999999999997,158.27586206896552,29.299999999999997C159.31034482758622,29.299999999999997,160.3448275862069,32.400000000000006,161.3793103448276,32.400000000000006C162.41379310344828,32.400000000000006,163.44827586206895,31.7,164.48275862068965,31.7C165.51724137931035,31.7,166.55172413793102,35.2,167.58620689655172,35.2C168.6206896551724,35.2,169.6551724137931,34.300000000000004,170.6896551724138,34.300000000000004C171.7241379310345,34.300000000000004,172.75862068965517,36.9,173.79310344827587,36.9C174.82758620689657,36.9,175.86206896551724,36.2,176.89655172413794,36.2C177.93103448275863,36.2,178.9655172413793,36.25,180,36.3L180,40C178.9655172413793,40,177.93103448275863,40,176.89655172413794,40C175.86206896551724,40,174.82758620689657,40,173.79310344827587,40C172.75862068965517,40,171.7241379310345,40,170.6896551724138,40C169.6551724137931,40,168.6206896551724,40,167.58620689655172,40C166.55172413793102,40,165.51724137931035,40,164.48275862068965,40C163.44827586206895,40,162.41379310344828,40,161.3793103448276,40C160.3448275862069,40,159.31034482758622,40,158.27586206896552,40C157.24137931034483,40,156.20689655172413,40,155.17241379310343,40C154.13793103448276,40,153.10344827586206,40,152.0689655172414,40C151.0344827586207,40,150,40,148.9655172413793,40C147.9310344827586,40,146.89655172413794,40,145.86206896551724,40C144.82758620689654,40,143.79310344827587,40,142.75862068965517,40C141.72413793103448,40,140.6896551724138,40,139.6551724137931,40C138.6206896551724,40,137.58620689655172,40,136.55172413793102,40C135.51724137931035,40,134.48275862068965,40,133.44827586206898,40C132.41379310344828,40,131.3793103448276,40,130.3448275862069,40C129.3103448275862,40,128.27586206896552,40,127.24137931034483,40C126.20689655172414,40,125.17241379310344,40,124.13793103448276,40C123.10344827586208,40,122.06896551724138,40,121.0344827586207,40C120,40,118.96551724137932,40,117.93103448275862,40C116.89655172413794,40,115.86206896551724,40,114.82758620689656,40C113.79310344827587,40,112.75862068965517,40,111.72413793103449,40C110.6896551724138,40,109.65517241379311,40,108.62068965517241,40C107.58620689655172,40,106.55172413793103,40,105.51724137931033,40C104.48275862068965,40,103.44827586206897,40,102.41379310344828,40C101.37931034482759,40,100.3448275862069,40,99.3103448275862,40C98.27586206896551,40,97.24137931034483,40,96.20689655172413,40C95.17241379310344,40,94.13793103448276,40,93.10344827586208,40C92.06896551724138,40,91.0344827586207,40,90,40C88.96551724137932,40,87.93103448275862,40,86.89655172413794,40C85.86206896551724,40,84.82758620689656,40,83.79310344827586,40C82.75862068965517,40,81.72413793103448,40,80.6896551724138,40C79.6551724137931,40,78.62068965517241,40,77.58620689655172,40C76.55172413793103,40,75.51724137931033,40,74.48275862068965,40C73.44827586206897,40,72.41379310344827,40,71.37931034482759,40C70.34482758620689,40,69.3103448275862,40,68.27586206896551,40C67.24137931034483,40,66.20689655172413,40,65.17241379310344,40C64.13793103448276,40,63.10344827586207,40,62.06896551724138,40C61.03448275862069,40,60,40,58.96551724137931,40C57.93103448275862,40,56.896551724137936,40,55.862068965517246,40C54.827586206896555,40,53.79310344827586,40,52.75862068965517,40C51.72413793103448,40,50.689655172413794,40,49.6551724137931,40C48.62068965517241,40,47.58620689655173,40,46.55172413793104,40C45.51724137931035,40,44.48275862068966,40,43.44827586206897,40C42.41379310344828,40,41.37931034482759,40,40.3448275862069,40C39.310344827586206,40,38.275862068965516,40,37.241379310344826,40C36.206896551724135,40,35.172413793103445,40,34.137931034482754,40C33.103448275862064,40,32.06896551724138,40,31.03448275862069,40C30,40,28.965517241379313,40,27.931034482758623,40C26.896551724137932,40,25.862068965517242,40,24.82758620689655,40C23.79310344827586,40,22.758620689655174,40,21.724137931034484,40C20.689655172413794,40,19.655172413793103,40,18.620689655172413,40C17.586206896551722,40,16.551724137931036,40,15.517241379310345,40C14.482758620689655,40,13.448275862068966,40,12.413793103448276,40C11.379310344827585,40,10.344827586206897,40,9.310344827586206,40C8.275862068965516,40,7.241379310344827,40,6.206896551724138,40C5.172413793103448,40,4.137931034482759,40,3.103448275862069,40C2.068965517241379,40,1.0344827586206897,40,0,40Z"></path><path class="line" stroke="black" fill="none" d="M0,36.9C1.0344827586206897,36.833333333333336,2.068965517241379,36.766666666666666,3.103448275862069,36.5C4.137931034482759,36.233333333333334,5.172413793103448,35.199999999999996,6.206896551724138,34.699999999999996C7.241379310344827,34.199999999999996,8.275862068965516,33.5,9.310344827586206,33.5C10.344827586206897,33.5,11.379310344827585,34.6,12.413793103448276,34.6C13.448275862068966,34.6,14.482758620689655,33.5,15.517241379310345,33.5C16.551724137931036,33.5,17.586206896551722,33.98333333333334,18.620689655172413,34.300000000000004C19.655172413793103,34.616666666666674,20.689655172413794,35.4,21.724137931034484,35.4C22.758620689655174,35.4,23.79310344827586,35,24.82758620689655,34.2C25.862068965517242,33.400000000000006,26.896551724137932,28.6,27.931034482758623,28.6C28.965517241379313,28.6,30,30.6,31.03448275862069,30.6C32.06896551724138,30.6,33.103448275862064,29.78333333333333,34.137931034482754,29.4C35.172413793103445,29.016666666666666,36.206896551724135,28.3,37.241379310344826,28.3C38.275862068965516,28.3,39.310344827586206,28.633333333333333,40.3448275862069,29.299999999999997C41.37931034482759,29.96666666666666,42.41379310344828,32.86666666666666,43.44827586206897,33.4C44.48275862068966,33.93333333333334,45.51724137931035,34.2,46.55172413793104,34.2C47.58620689655173,34.2,48.62068965517241,30.516666666666666,49.6551724137931,28.799999999999997C50.689655172413794,27.08333333333333,51.72413793103448,25.299999999999997,52.75862068965517,23.9C53.79310344827586,22.499999999999993,54.827586206896555,20.8,55.862068965517246,20.4C56.896551724137936,20,57.93103448275862,19.8,58.96551724137931,19.8C60,19.8,61.03448275862069,26.5,62.06896551724138,26.5C63.10344827586207,26.5,64.13793103448276,26.2,65.17241379310344,25.6C66.20689655172413,25.000000000000004,67.24137931034483,19.93333333333333,68.27586206896551,17.3C69.3103448275862,14.66666666666666,70.34482758620689,12.050000000000004,71.37931034482759,9.8C72.41379310344827,7.550000000000007,73.44827586206897,4.666666666666665,74.48275862068965,3.799999999999999C75.51724137931033,2.933333333333333,76.55172413793103,2.8166666666666664,77.58620689655172,2.5C78.62068965517241,2.1833333333333322,79.6551724137931,1.8999999999999995,80.6896551724138,1.8999999999999995C81.72413793103448,1.8999999999999995,82.75862068965517,3.2666666666666737,83.79310344827586,5C84.82758620689656,6.733333333333334,85.86206896551724,12.3,86.89655172413794,12.3C87.93103448275862,12.3,88.96551724137932,11.966666666666667,90,11.299999999999999C91.0344827586207,10.633333333333328,92.06896551724138,4.733333333333334,93.10344827586208,4.6C94.13793103448276,4.466666666666666,95.17241379310344,4.533333333333333,96.20689655172413,4.3999999999999995C97.24137931034483,4.266666666666665,98.27586206896551,2.9000000000000004,99.3103448275862,2.9000000000000004C100.3448275862069,2.9000000000000004,101.37931034482759,4.649999999999989,102.41379310344828,6.099999999999999C103.44827586206897,7.549999999999995,104.48275862068965,10.21666666666667,105.51724137931033,11.600000000000001C106.55172413793103,12.983333333333345,107.58620689655172,14.199999999999996,108.62068965517241,14.399999999999999C109.65517241379311,14.600000000000001,110.6896551724138,14.700000000000003,111.72413793103449,14.700000000000003C112.75862068965517,14.700000000000003,113.79310344827587,13.399999999999999,114.82758620689656,13.399999999999999C115.86206896551724,13.399999999999999,116.89655172413794,17.1,117.93103448275862,17.1C118.96551724137932,17.1,120,16.566666666666666,121.0344827586207,16.299999999999997C122.06896551724138,16.03333333333333,123.10344827586208,15.499999999999998,124.13793103448276,15.499999999999998C125.17241379310344,15.499999999999998,126.20689655172414,26.4,127.24137931034483,26.4C128.27586206896552,26.4,129.3103448275862,25.5,130.3448275862069,25.5C131.3793103448276,25.5,132.41379310344828,26.4,133.44827586206898,26.4C134.48275862068965,26.4,135.51724137931035,25,136.55172413793102,25C137.58620689655172,25,138.6206896551724,25.4,139.6551724137931,25.4C140.6896551724138,25.4,141.72413793103448,25.2,142.75862068965517,25.2C143.79310344827587,25.2,144.82758620689654,28.116666666666667,145.86206896551724,29C146.89655172413794,29.883333333333333,147.9310344827586,29.583333333333343,148.9655172413793,30.5C150,31.416666666666668,151.0344827586207,34.5,152.0689655172414,34.5C153.10344827586206,34.5,154.13793103448276,33.66666666666666,155.17241379310343,32.800000000000004C156.20689655172413,31.933333333333334,157.24137931034483,29.299999999999997,158.27586206896552,29.299999999999997C159.31034482758622,29.299999999999997,160.3448275862069,32.400000000000006,161.3793103448276,32.400000000000006C162.41379310344828,32.400000000000006,163.44827586206895,31.7,164.48275862068965,31.7C165.51724137931035,31.7,166.55172413793102,35.2,167.58620689655172,35.2C168.6206896551724,35.2,169.6551724137931,34.300000000000004,170.6896551724138,34.300000000000004C171.7241379310345,34.300000000000004,172.75862068965517,36.9,173.79310344827587,36.9C174.82758620689657,36.9,175.86206896551724,36.2,176.89655172413794,36.2C177.93103448275863,36.2,178.9655172413793,36.25,180,36.3"></path><path class="axis-ceiling" stroke-width="1" stroke="black" fill="none" d="M175,0L180,0"></path><text class="axis-ceiling-label" font-family="sans-serif" text-anchor="end" font-size="10px" x="170" y="2.5">400</text></g></svg>