<svg xmlns="http://www.w3.org/2000/svg" viewBox="0 0 180 60"><g transform="translate(0,20)"><path class="area" fill="rgba(0, 0, 0, 0.2)" d="M0,39.5C1.0169491525423728,39.38333333333333,2.0338983050847457,39.266666666666666,3.0508474576271185,39.2C4.067796610169491,39.13333333333334,5.084745762711864,39.1,6.101694915254237,39.1C7.11864406779661,39.1,8.135593220338983,39.5,9.152542372881356,39.5C10.169491525423728,39.5,11.186440677966102,38.5,12.203389830508474,38.5C13.220338983050846,38.5,14.23728813559322,38.9,15.254237288135592,38.9C16.271186440677965,38.9,17.28813559322034,38.4,18.305084745762713,38.4C19.322033898305087,38.4,20.338983050847457,38.4,21.35593220338983,38.4C22.372881355932204,38.4,23.389830508474574,38.3,24.406779661016948,38.3C25.423728813559322,38.3,26.440677966101696,38.6,27.45762711864407,38.6C28.47457627118644,38.6,29.491525423728813,38.56666666666667,30.508474576271183,38.5C31.525423728813557,38.43333333333333,32.54237288135593,35.4,33.559322033898304,35.4C34.57627118644068,35.4,35.59322033898305,37.5,36.610169491525426,37.5C37.6271186440678,37.5,38.644067796610166,37.1,39.66101694915254,37.1C40.67796610169491,37.1,41.69491525423729,37.9,42.71186440677966,37.9C43.728813559322035,37.9,44.7457627118644,37.76666666666666,45.762711864406775,37.599999999999994C46.77966101694915,37.43333333333333,47.79661016949152,37.08333333333333,48.813559322033896,36.9C49.83050847457627,36.71666666666667,50.847457627118644,36.766666666666666,51.86440677966102,36.5C52.88135593220339,36.233333333333334,53.898305084745765,35.199999999999996,54.91525423728814,34.699999999999996C55.93220338983051,34.199999999999996,56.94915254237288,33.5,57.96610169491525,33.5C58.983050847457626,33.5,59.99999999999999,34.6,61.01694915254237,34.6C62.03389830508474,34.6,63.05084745762712,33.5,64.0677966101695,33.5C65.08474576271186,33.5,66.10169491525424,33.98333333333334,67.11864406779661,34.300000000000004C68.13559322033899,34.616666666666674,69.15254237288136,35.4,70.16949152542374,35.4C71.1864406779661,35.4,72.20338983050848,35,73.22033898305085,34.2C74.23728813559322,33.400000000000006,75.2542372881356,28.6,76.27118644067797,28.6C77.28813559322033,28.6,78.30508474576271,30.6,79.32203389830508,30.6C80.33898305084746,30.6,81.35593220338983,29.78333333333333,82.37288135593221,29.4C83.38983050847457,29.016666666666666,84.40677966101696,28.3,85.42372881355932,28.3C86.4406779661017,28.3,87.45762711864407,28.633333333333333,88.47457627118645,29.299999999999997C89.49152542372882,29.966666666666654,90.50847457627118,32.86666666666667,91.52542372881355,33.4C92.54237288135593,33.93333333333334,93.55932203389831,34.2,94.57627118644069,34.2C95.59322033898306,34.2,96.61016949152543,30.516666666666662,97.62711864406779,28.799999999999997C98.64406779661016,27.083333333333325,99.66101694915254,25.299999999999997,100.6779661016949,23.9C101.69491525423729,22.499999999999993,102.71186440677965,20.8,103.72881355932203,20.4C104.7457627118644,20,105.76271186440678,19.8,106.77966101694915,19.8C107.79661016949153,19.8,108.8135593220339,26.5,109.83050847457628,26.5C110.84745762711864,26.5,111.86440677966102,26.2,112.88135593220339,25.6C113.89830508474576,25.000000000000004,114.91525423728814,19.93333333333333,115.9322033898305,17.3C116.94915254237289,14.66666666666666,117.96610169491525,12.05000000000001,118.98305084745763,9.8C120,7.550000000000013,121.01694915254237,4.666666666666653,122.03389830508473,3.799999999999999C123.05084745762711,2.9333333333333327,124.0677966101695,2.816666666666667,125.08474576271188,2.5C126.10169491525424,2.183333333333336,127.11864406779662,1.8999999999999995,128.135593220339,1.8999999999999995C129.15254237288136,1.8999999999999995,130.16949152542372,3.266666666666681,131.1864406779661,5C132.20338983050846,6.733333333333335,133.22033898305085,12.3,134.23728813559322,12.3C135.25423728813558,12.3,136.27118644067798,11.966666666666667,137.28813559322035,11.299999999999999C138.3050847457627,10.633333333333331,139.3220338983051,4.733333333333334,140.33898305084747,4.6C141.35593220338984,4.466666666666666,142.3728813559322,4.533333333333333,143.38983050847457,4.3999999999999995C144.40677966101694,4.266666666666665,145.42372881355934,2.9000000000000004,146.4406779661017,2.9000000000000004C147.45762711864407,2.9000000000000004,148.47457627118644,4.650000000000009,149.4915254237288,6.099999999999999C150.50847457627117,7.5500000000000025,151.52542372881356,10.216666666666669,152.54237288135593,11.600000000000001C153.5593220338983,12.983333333333334,154.5762711864407,14.199999999999994,155.59322033898306,14.399999999999999C156.61016949152543,14.600000000000001,157.6271186440678,14.700000000000003,158.64406779661016,14.700000000000003C159.66101694915253,14.700000000000003,160.67796610169492,13.399999999999999,161.6949152542373,13.399999999999999C162.71186440677965,13.399999999999999,163.72881355932205,17.1,164.74576271186442,17.1C165.76271186440678,17.1,166.77966101694915,16.566666666666663,167.79661016949152,16.299999999999997C168.81355932203388,16.033333333333328,169.83050847457628,15.499999999999998,170.84745762711864,15.499999999999998C171.864406779661,15.499999999999998,172.8813559322034,26.4,173.89830508474577,26.4C174.91525423728814,26.4,175.93220338983053,25.5,176.9491525423729,25.5C177.96610169491527,25.5,178.98305084745763,25.95,180,26.4L180,40C178.98305084745763,40,177.96610169491527,40,176.9491525423729,40C175.93220338983053,40,174.91525423728814,40,173.89830508474577,40C172.8813559322034,40,171.864406779661,40,170.84745762711864,40C169.83050847457628,40,168.81355932203388,40,167.79661016949152,40C166.77966101694915,40,165.76271186440678,40,164.74576271186442,40C163.72881355932205,40,162.71186440677965,40,161.6949152542373,40C160.67796610169492,40,159.66101694915253,40,158.64406779661016,40C157.6271186440678,40,156.61016949152543,40,155.59322033898306,40C154.5762711864407,40,153.5593220338983,40,152.54237288135593,40C151.52542372881356,40,150.50847457627117,40,149.4915254237288,40C148.47457627118644,40,147.45762711864407,40,146.4406779661017,40C145.42372881355934,40,144.40677966101694,40,143.38983050847457,40C142.3728813559322,40,141.35593220338984,40,140.33898305084747,40C139.3220338983051,40,138.3050847457627,40,137.28813559322035,40C136.27118644067798,40,135.25423728813558,40,134.23728813559322,40C133.22033898305085,40,132.20338983050846,40,131.1864406779661,40C130.16949152542372,40,129.15254237288136,40,128.135593220339,40C127.11864406779662,40,126.10169491525424,40,125.08474576271188,40C124.0677966101695,40,123.05084745762711,40,122.03389830508473,40C121.01694915254237,40,120,40,118.98305084745763,40C117.96610169491525,40,116.94915254237289,40,115.9322033898305,40C114.91525423728814,40,113.89830508474576,40,112.88135593220339,40C111.86440677966102,40,110.84745762711864,40,109.83050847457628,40C108.8135593220339,40,107.79661016949153,40,106.77966101694915,40C105.76271186440678,40,104.7457627118644,40,103.72881355932203,40C102.71186440677965,40,101.69491525423729,40,100.6779661016949,40C99.66101694915254,40,98.64406779661016,40,97.62711864406779,40C96.61016949152543,40,95.59322033898306,40,94.57627118644069,40C93.55932203389831,40,92.54237288135593,40,91.52542372881355,40C90.50847457627118,40,89.49152542372882,40,88.47457627118645,40C87.45762711864407,40,86.4406779661017,40,85.42372881355932,40C84.40677966101696,40,83.38983050847457,40,82.37288135593221,40C81.35593220338983,40,80.33898305084746,40,79.32203389830508,40C78.30508474576271,40,77.28813559322033,40,76.27118644067797,40C75.2542372881356,40,74.23728813559322,40,73.22033898305085,40C72.20338983050848,40,71.1864406779661,40,70.16949152542374,40C69.15254237288136,40,68.13559322033899,40,67.11864406779661,40C66.10169491525424,40,65.08474576271186,40,64.0677966101695,40C63.05084745762712,40,62.03389830508474,40,61.01694915254237,40C59.99999999999999,40,58.983050847457626,40,57.96610169491525,40C56.94915254237288,40,55.93220338983051,40,54.91525423728814,40C53.898305084745765,40,52.88135593220339,40,51.86440677966102,40C50.847457627118644,40,49.83050847457627,40,48.813559322033896,40C47.79661016949152,40,46.77966101694915,40,45.762711864406775,40C44.7457627118644,40,43.728813559322035,40,42.71186440677966,40C41.69491525423729,40,40.67796610169491,40,39.66101694915254,40C38.644067796610166,40,37.6271186440678,40,36.610169491525426,40C35.59322033898305,40,34.57627118644068,40,33.559322033898304,40C32.54237288135593,40,31.525423728813557,40,30.508474576271183,40C29.491525423728813,40,28.47457627118644,40,27.45762711864407,40C26.440677966101696,40,25.423728813559322,40,24.406779661016948,40C23.389830508474574,40,22.372881355932204,40,21.35593220338983,40C20.338983050847457,40,19.322033898305087,40,18.305084745762713,40C17.28813559322034,40,16.271186440677965,40,15.254237288135592,40C14.23728813559322,40,13.220338983050846,40,12.203389830508474,40C11.186440677966102,40,10.169491525423728,40,9.152542372881356,40C8.135593220338983,40,7.11864406779661,40,6.101694915254237,40C5.084745762711864,40,4.067796610169491,40,3.0508474576271185,40C2.0338983050847457,40,1.0169491525423728,40,0,40Z"></path><path class="line" stroke="black" fill="none" d="M0,39.5C1.0169491525423728,39.38333333333333,2.0338983050847457,39.266666666666666,3.0508474576271185,39.2C4.067796610169491,39.13333333333334,5.084745762711864,39.1,6.101694915254237,39.1C7.11864406779661,39.1,8.135593220338983,39.5,9.152542372881356,39.5C10.169491525423728,39.5,11.186440677966102,38.5,12.203389830508474,38.5C13.220338983050846,38.5,14.23728813559322,38.9,15.254237288135592,38.9C16.271186440677965,38.9,17.28813559322034,38.4,18.305084745762713,38.4C19.322033898305087,38.4,20.338983050847457,38.4,21.35593220338983,38.4C22.372881355932204,38.4,23.389830508474574,38.3,24.406779661016948,38.3C25.423728813559322,38.3,26.440677966101696,38.6,27.45762711864407,38.6C28.47457627118644,38.6,29.491525423728813,38.56666666666667,30.508474576271183,38.5C31.525423728813557,38.43333333333333,32.54237288135593,35.4,33.559322033898304,35.4C34.57627118644068,35.4,35.59322033898305,37.5,36.610169491525426,37.5C37.6271186440678,37.5,38.644067796610166,37.1,39.66101694915254,37.1C40.67796610169491,37.1,41.69491525423729,37.9,42.71186440677966,37.9C43.728813559322035,37.9,44.7457627118644,37.76666666666666,45.762711864406775,37.599999999999994C46.77966101694915,37.43333333333333,47.79661016949152,37.08333333333333,48.813559322033896,36.9C49.83050847457627,36.71666666666667,50.847457627118644,36.766666666666666,51.86440677966102,36.5C52.88135593220339,36.233333333333334,53.898305084745765,35.199999999999996,54.91525423728814,34.699999999999996C55.93220338983051,34.199999999999996,56.94915254237288,33.5,57.96610169491525,33.5C58.983050847457626,33.5,59.99999999999999,34.6,61.01694915254237,34.6C62.03389830508474,34.6,63.05084745762712,33.5,64.0677966101695,33.5C65.08474576271186,33.5,66.10169491525424,33.98333333333334,67.11864406779661,34.300000000000004C68.13559322033899,34.616666666666674,69.15254237288136,35.4,70.16949152542374,35.4C71.1864406779661,35.4,72.20338983050848,35,73.22033898305085,34.2C74.23728813559322,33.400000000000006,75.2542372881356,28.6,76.27118644067797,28.6C77.28813559322033,28.6,78.30508474576271,30.6,79.32203389830508,30.6C80.33898305084746,30.6,81.35593220338983,29.78333333333333,82.37288135593221,29.4C83.38983050847457,29.016666666666666,84.40677966101696,28.3,85.42372881355932,28.3C86.4406779661017,28.3,87.45762711864407,28.633333333333333,88.47457627118645,29.299999999999997C89.49152542372882,29.966666666666654,90.50847457627118,32.86666666666667,91.52542372881355,33.4C92.54237288135593,33.93333333333334,93.55932203389831,34.2,94.57627118644069,34.2C95.59322033898306,34.2,96.61016949152543,30.516666666666662,97.62711864406779,28.799999999999997C98.64406779661016,27.083333333333325,99.66101694915254,25.299999999999997,100.6779661016949,23.9C101.69491525423729,22.499999999999993,102.71186440677965,20.8,103.72881355932203,20.4C104.7457627118644,20,105.76271186440678,19.8,106.77966101694915,19.8C107.79661016949153,19.8,108.8135593220339,26.5,109.83050847457628,26.5C110.84745762711864,26.5,111.86440677966102,26.2,112.88135593220339,25.6C113.89830508474576,25.000000000000004,114.91525423728814,19.93333333333333,115.9322033898305,17.3C116.94915254237289,14.66666666666666,117.96610169491525,12.05000000000001,118.98305084745763,9.8C120,7.550000000000013,121.01694915254237,4.666666666666653,122.03389830508473,3.799999999999999C123.05084745762711,2.9333333333333327,124.0677966101695,2.816666666666667,125.08474576271188,2.5C126.10169491525424,2.183333333333336,127.11864406779662,1.8999999999999995,128.135593220339,1.8999999999999995C129.15254237288136,1.8999999999999995,130.16949152542372,3.266666666666681,131.1864406779661,5C132.20338983050846,6.733333333333335,133.22033898305085,12.3,134.23728813559322,12.3C135.25423728813558,12.3,136.27118644067798,11.966666666666667,137.28813559322035,11.299999999999999C138.3050847457627,10.633333333333331,139.3220338983051,4.733333333333334,140.33898305084747,4.6C141.35593220338984,4.466666666666666,142.3728813559322,4.533333333333333,143.38983050847457,4.3999999999999995C144.40677966101694,4.266666666666665,145.42372881355934,2.9000000000000004,146.4406779661017,2.9000000000000004C147.45762711864407,2.9000000000000004,148.47457627118644,4.650000000000009,149.4915254237288,6.099999999999999C150.50847457627117,7.5500000000000025,151.52542372881356,10.216666666666669,152.54237288135593,11.600000000000001C153.5593220338983,12.983333333333334,154.5762711864407,14.199999999999994,155.59322033898306,14.399999999999999C156.61016949152543,14.600000000000001,157.6271186440678,14.700000000000003,158.64406779661016,14.700000000000003C159.66101694915253,14.700000000000003,160.67796610169492,13.399999999999999,161.6949152542373,13.399999999999999C162.71186440677965,13.399999999999999,163.72881355932205,17.1,164.74576271186442,17.1C165.76271186440678,17.1,166.77966101694915,16.566666666666663,167.79661016949152,16.299999999999997C168.81355932203388,16.033333333333328,169.83050847457628,15.499999999999998,170.84745762711864,15.499999999999998C171.864406779661,15.499999999999998,172.8813559322034,26.4,173.89830508474577,26.4C174.91525423728814,26.4,175.93220338983053,25.5,176.9491525423729,25.5C177.96610169491527,25.5,178.98305084745763,25.95,180,26.4"></path><path class="axis-ceiling" stroke-width="1" stroke="black" fill="none" d="M175,0L180,0"></path><text class="axis-ceiling-label" font-family="sans-serif" text-anchor="end" font-size="10px" x="170" y="2.5">400</text></g></svg>