<svg xmlns="http://www.w3.org/2000/svg" viewBox="0 0 180 60"><g transform="translate(0,20)"><path class="area" fill="rgba(0, 0, 0, 0.2)" d="M0,38.652C1.0344827586206897,38.89,2.068965517241379,39.128,3.103448275862069,39.128C4.137931034482759,39.128,5.172413793103448,39.02,6.206896551724138,38.896C7.241379310344827,38.772,8.275862068965516,38.384,9.310344827586206,38.384C10.344827586206897,38.384,11.379310344827585,38.57733333333333,12.413793103448276,38.644C13.448275862068966,38.71066666666667,14.482758620689655,38.784,15.517241379310345,38.784C16.551724137931036,38.784,17.586206896551722,38.672,18.620689655172413,38.672C19.655172413793103,38.672,20.689655172413794,38.68666666666667,21.724137931034484,38.716C22.758620689655174,38.745333333333335,23.79310344827586,39.136,24.82758620689655,39.136C25.862068965517242,39.136,26.896551724137932,38.94,27.931034482758623,38.763999999999996C28.965517241379313,38.587999999999994,30,38.08,31.03448275862069,38.08C32.06896551724138,38.08,33.103448275862064,38.11066666666667,34.137931034482754,38.172000000000004C35.172413793103445,38.23333333333334,36.206896551724135,38.46,37.241379310344826,38.46C38.275862068965516,38.46,39.310344827586206,38.292,40.3448275862069,38.292C41.37931034482759,38.292,42.41379310344828,38.294666666666664,43.44827586206897,38.3C44.48275862068966,38.30533333333333,45.51724137931035,38.684,46.55172413793104,38.684C47.58620689655173,38.684,48.62068965517241,38.644,49.6551724137931,38.564C50.689655172413794,38.484,51.72413793103448,37.348,52.75862068965517,37.348C53.79310344827586,37.348,54.827586206896555,37.388666666666666,55.862068965517246,37.44C56.896551724137936,37.49133333333333,57.93103448275862,37.656,58.96551724137931,37.656C60,37.656,61.03448275862069,37.36399999999999,62.06896551724138,37.355999999999995C63.10344827586207,37.348,64.13793103448276,37.344,65.17241379310344,37.344C66.20689655172413,37.344,67.24137931034483,38.18,68.27586206896551,38.18C69.3103448275862,38.18,70.34482758620689,37.29933333333334,71.37931034482759,36.768C72.41379310344827,36.23666666666667,73.44827586206897,35.042666666666676,74.48275862068965,34.992000000000004C75.51724137931033,34.94133333333333,76.55172413793103,34.94533333333333,77.58620689655172,34.916C78.62068965517241,34.88666666666666,79.6551724137931,34.86333333333334,80.6896551724138,34.816C81.72413793103448,34.76866666666667,82.75862068965517,34.632,83.79310344827586,34.632C84.82758620689656,34.632,85.86206896551724,34.664,86.89655172413794,34.728C87.93103448275862,34.792,88.96551724137932,35.617333333333335,90,35.952C91.0344827586207,36.28666666666666,92.06896551724138,36.736,93.10344827586208,36.736C94.13793103448276,36.736,95.17241379310344,35.39466666666666,96.20689655172413,34.376C97.24137931034483,33.35733333333333,98.27586206896551,31.168000000000003,99.3103448275862,30.624000000000002C100.3448275862069,30.080000000000002,101.37931034482759,29.808,102.41379310344828,29.808C103.44827586206897,29.808,104.48275862068965,30.359333333333332,105.51724137931033,30.587999999999997C106.55172413793103,30.816666666666666,107.58620689655172,30.97533333333333,108.62068965517241,31.18C109.65517241379311,31.384666666666668,110.6896551724138,31.816,111.72413793103449,31.816C112.75862068965517,31.816,113.79310344827587,31.596,114.82758620689656,31.156000000000002C115.86206896551724,30.716000000000005,116.89655172413794,28.216,117.93103448275862,28.216C118.96551724137932,28.216,120,28.431333333333335,121.0344827586207,28.5C122.06896551724138,28.568666666666665,123.10344827586208,28.628,124.13793103448276,28.628C125.17241379310344,28.628,126.20689655172414,26.92,127.24137931034483,26.92C128.27586206896552,26.92,129.3103448275862,29.759999999999998,130.3448275862069,29.759999999999998C131.3793103448276,29.759999999999998,132.41379310344828,27.183999999999997,133.44827586206898,27.183999999999997C134.48275862068965,27.183999999999997,135.51724137931035,29,136.55172413793102,29C137.58620689655172,29,138.6206896551724,26.874000000000006,139.6551724137931,25.804000000000002C140.6896551724138,24.734000000000005,141.72413793103448,22.58,142.75862068965517,22.58C143.79310344827587,22.58,144.82758620689654,24.108,145.86206896551724,24.108C146.89655172413794,24.108,147.9310344827586,23.464000000000002,148.9655172413793,22.176000000000002C150,20.88799999999999,151.0344827586207,15.884,152.0689655172414,15.884C153.10344827586206,15.884,154.13793103448276,26.084000000000014,155.17241379310343,26.628C156.20689655172413,27.171999999999997,157.24137931034483,26.9,158.27586206896552,27.443999999999996C159.31034482758622,27.98799999999999,160.3448275862069,40,161.3793103448276,40C162.41379310344828,40,163.44827586206895,14.864,164.48275862068965,14.864C165.51724137931035,14.864,166.55172413793102,17.85866666666668,167.58620689655172,19.88C168.6206896551724,21.90133333333334,169.6551724137931,26.992000000000004,170.6896551724138,26.992000000000004C171.7241379310345,26.992000000000004,172.75862068965517,17.584,173.79310344827587,17.584C174.82758620689657,17.584,175.86206896551724,22.505333333333333,176.89655172413794,24.323999999999998C177.93103448275863,26.142666666666663,178.9655172413793,27.31933333333333,180,28.495999999999995L180,40C178.9655172413793,40,177.93103448275863,40,176.89655172413794,40C175.86206896551724,40,174.82758620689657,40,173.79310344827587,40C172.75862068965517,40,171.7241379310345,40,170.6896551724138,40C169.6551724137931,40,168.6206896551724,40,167.58620689655172,40C166.55172413793102,40,165.51724137931035,40,164.48275862068965,40C163.44827586206895,40,162.41379310344828,40,161.3793103448276,40C160.3448275862069,40,159.31034482758622,40,158.27586206896552,40C157.24137931034483,40,156.20689655172413,40,155.17241379310343,40C154.13793103448276,40,153.10344827586206,40,152.0689655172414,40C151.0344827586207,40,150,40,148.9655172413793,40C147.9310344827586,40,146.89655172413794,40,145.86206896551724,40C144.82758620689654,40,143.79310344827587,40,142.75862068965517,40C141.72413793103448,40,140.6896551724138,40,139.6551724137931,40C138.6206896551724,40,137.58620689655172,40,136.55172413793102,40C135.51724137931035,40,134.48275862068965,40,133.44827586206898,40C132.41379310344828,40,131.3793103448276,40,130.3448275862069,40C129.3103448275862,40,128.27586206896552,40,127.24137931034483,40C126.20689655172414,40,125.17241379310344,40,124.13793103448276,40C123.10344827586208,40,122.06896551724138,40,121.0344827586207,40C120,40,118.96551724137932,40,117.93103448275862,40C116.89655172413794,40,115.86206896551724,40,114.82758620689656,40C113.79310344827587,40,112.75862068965517,40,111.72413793103449,40C110.6896551724138,40,109.65517241379311,40,108.62068965517241,40C107.58620689655172,40,106.55172413793103,40,105.51724137931033,40C104.48275862068965,40,103.44827586206897,40,102.41379310344828,40C101.37931034482759,40,100.3448275862069,40,99.3103448275862,40C98.27586206896551,40,97.24137931034483,40,96.20689655172413,40C95.17241379310344,40,94.13793103448276,40,93.10344827586208,40C92.06896551724138,40,91.0344827586207,40,90,40C88.96551724137932,40,87.93103448275862,40,86.89655172413794,40C85.86206896551724,40,84.82758620689656,40,83.79310344827586,40C82.75862068965517,40,81.72413793103448,40,80.6896551724138,40C79.6551724137931,40,78.62068965517241,40,77.58620689655172,40C76.55172413793103,40,75.51724137931033,40,74.48275862068965,40C73.44827586206897,40,72.41379310344827,40,71.37931034482759,40C70.34482758620689,40,69.3103448275862,40,68.27586206896551,40C67.24137931034483,40,66.20689655172413,40,65.17241379310344,40C64.13793103448276,40,63.10344827586207,40,62.06896551724138,40C61.03448275862069,40,60,40,58.96551724137931,40C57.93103448275862,40,56.896551724137936,40,55.862068965517246,40C54.827586206896555,40,53.79310344827586,40,52.75862068965517,40C51.72413793103448,40,50.689655172413794,40,49.6551724137931,40C48.62068965517241,40,47.58620689655173,40,46.55172413793104,40C45.51724137931035,40,44.48275862068966,40,43.44827586206897,40C42.41379310344828,40,41.37931034482759,40,40.3448275862069,40C39.310344827586206,40,38.275862068965516,40,37.241379310344826,40C36.206896551724135,40,35.172413793103445,40,34.137931034482754,40C33.103448275862064,40,32.06896551724138,40,31.03448275862069,40C30,40,28.965517241379313,40,27.931034482758623,40C26.896551724137932,40,25.862068965517242,40,24.82758620689655,40C23.79310344827586,40,22.758620689655174,40,21.724137931034484,40C20.689655172413794,40,19.655172413793103,40,18.620689655172413,40C17.586206896551722,40,16.551724137931036,40,15.517241379310345,40C14.482758620689655,40,13.448275862068966,40,12.413793103448276,40C11.379310344827585,40,10.344827586206897,40,9.310344827586206,40C8.275862068965516,40,7.241379310344827,40,6.206896551724138,40C5.172413793103448,40,4.137931034482759,40,3.103448275862069,40C2.068965517241379,40,1.0344827586206897,40,0,40Z"></path><path class="line" stroke="black" fill="none" d="M0,38.652C1.0344827586206897,38.89,2.068965517241379,39.128,3.103448275862069,39.128C4.137931034482759,39.128,5.172413793103448,39.02,6.206896551724138,38.896C7.241379310344827,38.772,8.275862068965516,38.384,9.310344827586206,38.384C10.344827586206897,38.384,11.379310344827585,38.57733333333333,12.413793103448276,38.644C13.448275862068966,38.71066666666667,14.482758620689655,38.784,15.517241379310345,38.784C16.551724137931036,38.784,17.586206896551722,38.672,18.620689655172413,38.672C19.655172413793103,38.672,20.689655172413794,38.68666666666667,21.724137931034484,38.716C22.758620689655174,38.745333333333335,23.79310344827586,39.136,24.82758620689655,39.136C25.862068965517242,39.136,26.896551724137932,38.94,27.931034482758623,38.763999999999996C28.965517241379313,38.587999999999994,30,38.08,31.03448275862069,38.08C32.06896551724138,38.08,33.103448275862064,38.11066666666667,34.137931034482754,38.172000000000004C35.172413793103445,38.23333333333334,36.206896551724135,38.46,37.241379310344826,38.46C38.275862068965516,38.46,39.310344827586206,38.292,40.3448275862069,38.292C41.37931034482759,38.292,42.41379310344828,38.294666666666664,43.44827586206897,38.3C44.48275862068966,38.30533333333333,45.51724137931035,38.684,46.55172413793104,38.684C47.58620689655173,38.684,48.62068965517241,38.644,49.6551724137931,38.564C50.689655172413794,38.484,51.72413793103448,37.348,52.75862068965517,37.348C53.79310344827586,37.348,54.827586206896555,37.388666666666666,55.862068965517246,37.44C56.896551724137936,37.49133333333333,57.93103448275862,37.656,58.96551724137931,37.656C60,37.656,61.03448275862069,37.36399999999999,62.06896551724138,37.355999999999995C63.10344827586207,37.348,64.13793103448276,37.344,65.17241379310344,37.344C66.20689655172413,37.344,67.24137931034483,38.18,68.27586206896551,38.18C69.3103448275862,38.18,70.34482758620689,37.29933333333334,71.37931034482759,36.768C72.41379310344827,36.23666666666667,73.44827586206897,35.042666666666676,74.48275862068965,34.992000000000004C75.51724137931033,34.94133333333333,76.55172413793103,34.94533333333333,77.58620689655172,34.916C78.62068965517241,34.88666666666666,79.6551724137931,34.86333333333334,80.6896551724138,34.816C81.72413793103448,34.76866666666667,82.75862068965517,34.632,83.79310344827586,34.632C84.82758620689656,34.632,85.86206896551724,34.664,86.89655172413794,34.728C87.93103448275862,34.792,88.96551724137932,35.617333333333335,90,35.952C91.0344827586207,36.28666666666666,92.06896551724138,36.736,93.10344827586208,36.736C94.13793103448276,36.736,95.17241379310344,35.39466666666666,96.20689655172413,34.376C97.24137931034483,33.35733333333333,98.27586206896551,31.168000000000003,99.3103448275862,30.624000000000002C100.3448275862069,30.080000000000002,101.37931034482759,29.808,102.41379310344828,29.808C103.44827586206897,29.808,104.48275862068965,30.359333333333332,105.51724137931033,30.587999999999997C106.55172413793103,30.816666666666666,107.58620689655172,30.97533333333333,108.62068965517241,31.18C109.65517241379311,31.384666666666668,110.6896551724138,31.816,111.72413793103449,31.816C112.75862068965517,31.816,113.79310344827587,31.596,114.82758620689656,31.156000000000002C115.86206896551724,30.716000000000005,116.89655172413794,28.216,117.93103448275862,28.216C118.96551724137932,28.216,120,28.431333333333335,121.0344827586207,28.5C122.06896551724138,28.568666666666665,123.10344827586208,28.628,124.13793103448276,28.628C125.17241379310344,28.628,126.20689655172414,26.92,127.24137931034483,26.92C128.27586206896552,26.92,129.3103448275862,29.759999999999998,130.3448275862069,29.759999999999998C131.3793103448276,29.759999999999998,132.41379310344828,27.183999999999997,133.44827586206898,27.183999999999997C134.48275862068965,27.183999999999997,135.51724137931035,29,136.55172413793102,29C137.58620689655172,29,138.6206896551724,26.874000000000006,139.6551724137931,25.804000000000002C140.6896551724138,24.734000000000005,141.72413793103448,22.58,142.75862068965517,22.58C143.79310344827587,22.58,144.82758620689654,24.108,145.86206896551724,24.108C146.89655172413794,24.108,147.9310344827586,23.464000000000002,148.9655172413793,22.176000000000002C150,20.88799999999999,151.0344827586207,15.884,152.0689655172414,15.884C153.10344827586206,15.884,154.13793103448276,26.084000000000014,155.17241379310343,26.628C156.20689655172413,27.171999999999997,157.24137931034483,26.9,158.27586206896552,27.443999999999996C159.31034482758622,27.98799999999999,160.3448275862069,40,161.3793103448276,40C162.41379310344828,40,163.44827586206895,14.864,164.48275862068965,14.864C165.51724137931035,14.864,166.55172413793102,17.85866666666668,167.58620689655172,19.88C168.6206896551724,21.90133333333334,169.6551724137931,26.992000000000004,170.6896551724138,26.992000000000004C171.7241379310345,26.992000000000004,172.75862068965517,17.584,173.79310344827587,17.584C174.82758620689657,17.584,175.86206896551724,22.505333333333333,176.89655172413794,24.323999999999998C177.93103448275863,26.142666666666663,178.9655172413793,27.31933333333333,180,28.495999999999995"></path><path class="axis-ceiling" stroke-width="1" stroke="black" fill="none" d="M175,0L180,0"></path><text class="axis-ceiling-label" font-family="sans-serif" text-anchor="end" font-size="10px" x="170" y="2.5">10000</text></g></svg>