<svg xmlns="http://www.w3.org/2000/svg" viewBox="0 0 180 60"><g transform="translate(0,20)"><path class="area" fill="rgba(0, 0, 0, 0.2)" d="M0,9.908571428571427C1.0169491525423728,9.02190476190476,2.0338983050847457,8.135238095238094,3.0508474576271185,7.474285714285713C4.067796610169491,6.813333333333333,5.084745762711864,6.405714285714286,6.101694915254237,5.942857142857143C7.11864406779661,5.48,8.135593220338983,5.1885714285714295,9.152542372881356,4.6971428571428575C10.169491525423728,4.205714285714286,11.186440677966102,3.4647619047619047,12.203389830508474,2.9942857142857138C13.220338983050846,2.523809523809523,14.23728813559322,2.1752380952380936,15.254237288135592,1.8742857142857128C16.271186440677965,1.5733333333333315,17.28813559322034,1.3619047619047606,18.305084745762713,1.1885714285714277C19.322033898305087,1.015238095238095,20.338983050847457,0.85714285714286,21.35593220338983,0.8342857142857163C22.372881355932204,0.8114285714285726,23.389830508474574,0.8228571428571444,24.406779661016948,0.8000000000000007C25.423728813559322,0.7771428571428569,26.440677966101696,0.4190476190476204,27.45762711864407,0.29714285714285804C28.47457627118644,0.17523809523809597,29.491525423728813,0.06857142857142673,30.508474576271183,0.06857142857142673C31.525423728813557,0.06857142857142673,32.54237288135593,0.8971428571428548,33.559322033898304,1.3142857142857123C34.57627118644068,1.7314285714285698,35.59322033898305,2.241904761904761,36.610169491525426,2.571428571428571C37.6271186440678,2.9009523809523805,38.644067796610166,3.0095238095238104,39.66101694915254,3.291428571428572C40.67796610169491,3.5733333333333337,41.69491525423729,3.8857142857142835,42.71186440677966,4.262857142857142C43.728813559322035,4.639999999999999,44.7457627118644,5.211428571428573,45.762711864406775,5.554285714285716C46.77966101694915,5.89714285714286,47.79661016949152,5.912380952380954,48.813559322033896,6.320000000000001C49.83050847457627,6.727619047619048,50.847457627118644,7.588571428571427,51.86440677966102,7.999999999999998C52.88135593220339,8.41142857142857,53.898305084745765,8.56,54.91525423728814,8.78857142857143C55.93220338983051,9.01714285714286,56.94915254237288,9.184761904761908,57.96610169491525,9.371428571428574C58.983050847457626,9.55809523809524,59.99999999999999,9.754285714285713,61.01694915254237,9.908571428571427C62.03389830508474,10.062857142857142,63.05084745762712,10.11809523809524,64.0677966101695,10.297142857142859C65.08474576271186,10.476190476190478,66.10169491525424,10.594285714285716,67.11864406779661,10.982857142857142C68.13559322033899,11.37142857142857,69.15254237288136,12.156190476190476,70.16949152542374,12.62857142857143C71.1864406779661,13.10095238095238,72.20338983050848,13.529523809523809,73.22033898305085,13.817142857142857C74.23728813559322,14.104761904761904,75.2542372881356,14.354285714285716,76.27118644067797,14.354285714285716C77.28813559322033,14.354285714285716,78.30508474576271,14.14857142857143,79.32203389830508,14.14857142857143C80.33898305084746,14.14857142857143,81.35593220338983,14.424761904761903,82.37288135593221,14.662857142857142C83.38983050847457,14.90095238095238,84.40677966101696,15.401904761904765,85.42372881355932,15.577142857142858C86.4406779661017,15.752380952380953,87.45762711864407,15.71047619047619,88.47457627118645,15.84C89.49152542372882,15.969523809523809,90.50847457627118,16.26285714285714,91.52542372881355,16.354285714285712C92.54237288135593,16.445714285714285,93.55932203389831,16.4,94.57627118644069,16.49142857142857C95.59322033898306,16.582857142857144,96.61016949152543,17.453333333333337,97.62711864406779,17.862857142857145C98.64406779661016,18.272380952380956,99.66101694915254,18.632380952380956,100.6779661016949,18.94857142857143C101.69491525423729,19.264761904761908,102.71186440677965,19.599999999999994,103.72881355932203,19.759999999999998C104.7457627118644,19.919999999999998,105.76271186440678,19.891428571428573,106.77966101694915,20C107.79661016949153,20.10857142857143,108.8135593220339,20.266666666666662,109.83050847457628,20.41142857142857C110.84745762711864,20.556190476190473,111.86440677966102,20.73714285714286,112.88135593220339,20.868571428571432C113.89830508474576,21.000000000000004,114.91525423728814,21.200000000000003,115.9322033898305,21.200000000000003C116.94915254237289,21.200000000000003,117.96610169491525,21.074285714285715,118.98305084745763,21.074285714285715C120,21.074285714285715,121.01694915254237,21.6,122.03389830508473,21.66857142857143C123.05084745762711,21.737142857142857,124.0677966101695,21.718095238095238,125.08474576271188,21.771428571428572C126.10169491525424,21.824761904761907,127.11864406779662,21.937142857142856,128.135593220339,21.98857142857143C129.15254237288136,22.04,130.16949152542372,22.01904761904762,131.1864406779661,22.080000000000002C132.20338983050846,22.140952380952385,133.22033898305085,22.400000000000002,134.23728813559322,22.400000000000002C135.25423728813558,22.400000000000002,136.27118644067798,22.285714285714285,137.28813559322035,22.285714285714285C138.3050847457627,22.285714285714285,139.3220338983051,22.480000000000004,140.33898305084747,22.480000000000004C141.35593220338984,22.480000000000004,142.3728813559322,22.354285714285712,143.38983050847457,22.354285714285712C144.40677966101694,22.354285714285712,145.42372881355934,22.36952380952381,146.4406779661017,22.400000000000002C147.45762711864407,22.430476190476195,148.47457627118644,22.636190476190478,149.4915254237288,22.914285714285715C150.50847457627117,23.19238095238095,151.52542372881356,24.068571428571424,152.54237288135593,24.068571428571424C153.5593220338983,24.068571428571424,154.5762711864407,23.88,155.59322033898306,23.70285714285714C156.61016949152543,23.525714285714287,157.6271186440678,23.127619047619053,158.64406779661016,23.005714285714287C159.66101694915253,22.88380952380952,160.67796610169492,22.82285714285714,161.6949152542373,22.82285714285714C162.71186440677965,22.82285714285714,163.72881355932205,22.857142857142854,164.74576271186442,22.857142857142854C165.76271186440678,22.857142857142854,166.77966101694915,22.73142857142857,167.79661016949152,22.548571428571428C168.81355932203388,22.365714285714287,169.83050847457628,22.09714285714286,170.84745762711864,21.76C171.864406779661,21.422857142857143,172.8813559322034,20.58666666666667,173.89830508474577,20.525714285714287C174.91525423728814,20.464761904761904,175.93220338983053,20.434285714285714,176.9491525423729,20.434285714285714C177.96610169491527,20.434285714285714,178.98305084745763,20.52,180,20.605714285714285L180,40C178.98305084745763,40,177.96610169491527,40,176.9491525423729,40C175.93220338983053,40,174.91525423728814,40,173.89830508474577,40C172.8813559322034,40,171.864406779661,40,170.84745762711864,40C169.83050847457628,40,168.81355932203388,40,167.79661016949152,40C166.77966101694915,40,165.76271186440678,40,164.74576271186442,40C163.72881355932205,40,162.71186440677965,40,161.6949152542373,40C160.67796610169492,40,159.66101694915253,40,158.64406779661016,40C157.6271186440678,40,156.61016949152543,40,155.59322033898306,40C154.5762711864407,40,153.5593220338983,40,152.54237288135593,40C151.52542372881356,40,150.50847457627117,40,149.4915254237288,40C148.47457627118644,40,147.45762711864407,40,146.4406779661017,40C145.42372881355934,40,144.40677966101694,40,143.38983050847457,40C142.3728813559322,40,141.35593220338984,40,140.33898305084747,40C139.3220338983051,40,138.3050847457627,40,137.28813559322035,40C136.27118644067798,40,135.25423728813558,40,134.23728813559322,40C133.22033898305085,40,132.20338983050846,40,131.1864406779661,40C130.16949152542372,40,129.15254237288136,40,128.135593220339,40C127.11864406779662,40,126.10169491525424,40,125.08474576271188,40C124.0677966101695,40,123.05084745762711,40,122.03389830508473,40C121.01694915254237,40,120,40,118.98305084745763,40C117.96610169491525,40,116.94915254237289,40,115.9322033898305,40C114.91525423728814,40,113.89830508474576,40,112.88135593220339,40C111.86440677966102,40,110.84745762711864,40,109.83050847457628,40C108.8135593220339,40,107.79661016949153,40,106.77966101694915,40C105.76271186440678,40,104.7457627118644,40,103.72881355932203,40C102.71186440677965,40,101.69491525423729,40,100.6779661016949,40C99.66101694915254,40,98.64406779661016,40,97.62711864406779,40C96.61016949152543,40,95.59322033898306,40,94.57627118644069,40C93.55932203389831,40,92.54237288135593,40,91.52542372881355,40C90.50847457627118,40,89.49152542372882,40,88.47457627118645,40C87.45762711864407,40,86.4406779661017,40,85.42372881355932,40C84.40677966101696,40,83.38983050847457,40,82.37288135593221,40C81.35593220338983,40,80.33898305084746,40,79.32203389830508,40C78.30508474576271,40,77.28813559322033,40,76.27118644067797,40C75.2542372881356,40,74.23728813559322,40,73.22033898305085,40C72.20338983050848,40,71.1864406779661,40,70.16949152542374,40C69.15254237288136,40,68.13559322033899,40,67.11864406779661,40C66.10169491525424,40,65.08474576271186,40,64.0677966101695,40C63.05084745762712,40,62.03389830508474,40,61.01694915254237,40C59.99999999999999,40,58.983050847457626,40,57.96610169491525,40C56.94915254237288,40,55.93220338983051,40,54.91525423728814,40C53.898305084745765,40,52.88135593220339,40,51.86440677966102,40C50.847457627118644,40,49.83050847457627,40,48.813559322033896,40C47.79661016949152,40,46.77966101694915,40,45.762711864406775,40C44.7457627118644,40,43.728813559322035,40,42.71186440677966,40C41.69491525423729,40,40.67796610169491,40,39.66101694915254,40C38.644067796610166,40,37.6271186440678,40,36.610169491525426,40C35.59322033898305,40,34.57627118644068,40,33.559322033898304,40C32.54237288135593,40,31.525423728813557,40,30.508474576271183,40C29.491525423728813,40,28.47457627118644,40,27.45762711864407,40C26.440677966101696,40,25.423728813559322,40,24.406779661016948,40C23.389830508474574,40,22.372881355932204,40,21.35593220338983,40C20.338983050847457,40,19.322033898305087,40,18.305084745762713,40C17.28813559322034,40,16.271186440677965,40,15.254237288135592,40C14.23728813559322,40,13.220338983050846,40,12.203389830508474,40C11.186440677966102,40,10.169491525423728,40,9.152542372881356,40C8.135593220338983,40,7.11864406779661,40,6.101694915254237,40C5.084745762711864,40,4.067796610169491,40,3.0508474576271185,40C2.0338983050847457,40,1.0169491525423728,40,0,40Z"></path><path class="line" stroke="black" fill="none" d="M0,9.908571428571427C1.0169491525423728,9.02190476190476,2.0338983050847457,8.135238095238094,3.0508474576271185,7.474285714285713C4.067796610169491,6.813333333333333,5.084745762711864,6.405714285714286,6.101694915254237,5.942857142857143C7.11864406779661,5.48,8.135593220338983,5.1885714285714295,9.152542372881356,4.6971428571428575C10.169491525423728,4.205714285714286,11.186440677966102,3.4647619047619047,12.203389830508474,2.9942857142857138C13.220338983050846,2.523809523809523,14.23728813559322,2.1752380952380936,15.254237288135592,1.8742857142857128C16.271186440677965,1.5733333333333315,17.28813559322034,1.3619047619047606,18.305084745762713,1.1885714285714277C19.322033898305087,1.015238095238095,20.338983050847457,0.85714285714286,21.35593220338983,0.8342857142857163C22.372881355932204,0.8114285714285726,23.389830508474574,0.8228571428571444,24.406779661016948,0.8000000000000007C25.423728813559322,0.7771428571428569,26.440677966101696,0.4190476190476204,27.45762711864407,0.29714285714285804C28.47457627118644,0.17523809523809597,29.491525423728813,0.06857142857142673,30.508474576271183,0.06857142857142673C31.525423728813557,0.06857142857142673,32.54237288135593,0.8971428571428548,33.559322033898304,1.3142857142857123C34.57627118644068,1.7314285714285698,35.59322033898305,2.241904761904761,36.610169491525426,2.571428571428571C37.6271186440678,2.9009523809523805,38.644067796610166,3.0095238095238104,39.66101694915254,3.291428571428572C40.67796610169491,3.5733333333333337,41.69491525423729,3.8857142857142835,42.71186440677966,4.262857142857142C43.728813559322035,4.639999999999999,44.7457627118644,5.211428571428573,45.762711864406775,5.554285714285716C46.77966101694915,5.89714285714286,47.79661016949152,5.912380952380954,48.813559322033896,6.320000000000001C49.83050847457627,6.727619047619048,50.847457627118644,7.588571428571427,51.86440677966102,7.999999999999998C52.88135593220339,8.41142857142857,53.898305084745765,8.56,54.91525423728814,8.78857142857143C55.93220338983051,9.01714285714286,56.94915254237288,9.184761904761908,57.96610169491525,9.371428571428574C58.983050847457626,9.55809523809524,59.99999999999999,9.754285714285713,61.01694915254237,9.908571428571427C62.03389830508474,10.062857142857142,63.05084745762712,10.11809523809524,64.0677966101695,10.297142857142859C65.08474576271186,10.476190476190478,66.10169491525424,10.594285714285716,67.11864406779661,10.982857142857142C68.13559322033899,11.37142857142857,69.15254237288136,12.156190476190476,70.16949152542374,12.62857142857143C71.1864406779661,13.10095238095238,72.20338983050848,13.529523809523809,73.22033898305085,13.817142857142857C74.23728813559322,14.104761904761904,75.2542372881356,14.354285714285716,76.27118644067797,14.354285714285716C77.28813559322033,14.354285714285716,78.30508474576271,14.14857142857143,79.32203389830508,14.14857142857143C80.33898305084746,14.14857142857143,81.35593220338983,14.424761904761903,82.37288135593221,14.662857142857142C83.38983050847457,14.90095238095238,84.40677966101696,15.401904761904765,85.42372881355932,15.577142857142858C86.4406779661017,15.752380952380953,87.45762711864407,15.71047619047619,88.47457627118645,15.84C89.49152542372882,15.969523809523809,90.50847457627118,16.26285714285714,91.52542372881355,16.354285714285712C92.54237288135593,16.445714285714285,93.55932203389831,16.4,94.57627118644069,16.49142857142857C95.59322033898306,16.582857142857144,96.61016949152543,17.453333333333337,97.62711864406779,17.862857142857145C98.64406779661016,18.272380952380956,99.66101694915254,18.632380952380956,100.6779661016949,18.94857142857143C101.69491525423729,19.264761904761908,102.71186440677965,19.599999999999994,103.72881355932203,19.759999999999998C104.7457627118644,19.919999999999998,105.76271186440678,19.891428571428573,106.77966101694915,20C107.79661016949153,20.10857142857143,108.8135593220339,20.266666666666662,109.83050847457628,20.41142857142857C110.84745762711864,20.556190476190473,111.86440677966102,20.73714285714286,112.88135593220339,20.868571428571432C113.89830508474576,21.000000000000004,114.91525423728814,21.200000000000003,115.9322033898305,21.200000000000003C116.94915254237289,21.200000000000003,117.96610169491525,21.074285714285715,118.98305084745763,21.074285714285715C120,21.074285714285715,121.01694915254237,21.6,122.03389830508473,21.66857142857143C123.05084745762711,21.737142857142857,124.0677966101695,21.718095238095238,125.08474576271188,21.771428571428572C126.10169491525424,21.824761904761907,127.11864406779662,21.937142857142856,128.135593220339,21.98857142857143C129.15254237288136,22.04,130.16949152542372,22.01904761904762,131.1864406779661,22.080000000000002C132.20338983050846,22.140952380952385,133.22033898305085,22.400000000000002,134.23728813559322,22.400000000000002C135.25423728813558,22.400000000000002,136.27118644067798,22.285714285714285,137.28813559322035,22.285714285714285C138.3050847457627,22.285714285714285,139.3220338983051,22.480000000000004,140.33898305084747,22.480000000000004C141.35593220338984,22.480000000000004,142.3728813559322,22.354285714285712,143.38983050847457,22.354285714285712C144.40677966101694,22.354285714285712,145.42372881355934,22.36952380952381,146.4406779661017,22.400000000000002C147.45762711864407,22.430476190476195,148.47457627118644,22.636190476190478,149.4915254237288,22.914285714285715C150.50847457627117,23.19238095238095,151.52542372881356,24.068571428571424,152.54237288135593,24.068571428571424C153.5593220338983,24.068571428571424,154.5762711864407,23.88,155.59322033898306,23.70285714285714C156.61016949152543,23.525714285714287,157.6271186440678,23.127619047619053,158.64406779661016,23.005714285714287C159.66101694915253,22.88380952380952,160.67796610169492,22.82285714285714,161.6949152542373,22.82285714285714C162.71186440677965,22.82285714285714,163.72881355932205,22.857142857142854,164.74576271186442,22.857142857142854C165.76271186440678,22.857142857142854,166.77966101694915,22.73142857142857,167.79661016949152,22.548571428571428C168.81355932203388,22.365714285714287,169.83050847457628,22.09714285714286,170.84745762711864,21.76C171.864406779661,21.422857142857143,172.8813559322034,20.58666666666667,173.89830508474577,20.525714285714287C174.91525423728814,20.464761904761904,175.93220338983053,20.434285714285714,176.9491525423729,20.434285714285714C177.96610169491527,20.434285714285714,178.98305084745763,20.52,180,20.605714285714285"></path><path class="axis-ceiling" stroke-width="1" stroke="black" fill="none" d="M175,0L180,0"></path><text class="axis-ceiling-label" font-family="sans-serif" text-anchor="end" font-size="10px" x="170" y="2.5">3500</text></g></svg>