<svg xmlns="http://www.w3.org/2000/svg" viewBox="0 0 180 60"><g transform="translate(0,20)"><path class="area" fill="rgba(0, 0, 0, 0.2)" d="M0,38.96C1.0169491525423728,38.76074074074074,2.0338983050847457,38.56148148148148,3.0508474576271185,38.248888888888885C4.067796610169491,37.93629629629629,5.084745762711864,37.48444444444444,6.101694915254237,37.08444444444444C7.11864406779661,36.684444444444445,8.135593220338983,36.3925925925926,9.152542372881356,35.848888888888894C10.169491525423728,35.30518518518519,11.186440677966102,33.82222222222222,12.203389830508474,33.82222222222222C13.220338983050846,33.82222222222222,14.23728813559322,33.83111111111111,15.254237288135592,33.84888888888889C16.271186440677965,33.86666666666666,17.28813559322034,34.284444444444446,18.305084745762713,34.284444444444446C19.322033898305087,34.284444444444446,20.338983050847457,34.12148148148148,21.35593220338983,33.79555555555556C22.372881355932204,33.46962962962964,23.389830508474574,30.694814814814816,24.406779661016948,29.6C25.423728813559322,28.505185185185184,26.440677966101696,27.92888888888889,27.45762711864407,27.226666666666667C28.47457627118644,26.524444444444445,29.491525423728813,25.38666666666667,30.508474576271183,25.38666666666667C31.525423728813557,25.38666666666667,32.54237288135593,25.654814814814817,33.559322033898304,25.733333333333334C34.57627118644068,25.811851851851852,35.59322033898305,25.845925925925926,36.610169491525426,25.857777777777777C37.6271186440678,25.869629629629628,38.644067796610166,25.863703703703703,39.66101694915254,25.875555555555554C40.67796610169491,25.887407407407405,41.69491525423729,26.34666666666667,42.71186440677966,26.34666666666667C43.728813559322035,26.34666666666667,44.7457627118644,23.368888888888886,45.762711864406775,21.413333333333334C46.77966101694915,19.457777777777775,47.79661016949152,14.613333333333332,48.813559322033896,14.613333333333332C49.83050847457627,14.613333333333332,50.847457627118644,15.333333333333332,51.86440677966102,15.333333333333332C52.88135593220339,15.333333333333332,53.898305084745765,13.315555555555555,54.91525423728814,13.315555555555555C55.93220338983051,13.315555555555555,56.94915254237288,14.18074074074074,57.96610169491525,15.27111111111111C58.983050847457626,16.36148148148148,59.99999999999999,19.857777777777777,61.01694915254237,19.857777777777777C62.03389830508474,19.857777777777777,63.05084745762712,18.3125925925926,64.0677966101695,16.355555555555554C65.08474576271186,14.398518518518518,66.10169491525424,9.30666666666666,67.11864406779661,8.115555555555556C68.13559322033899,6.924444444444446,69.15254237288136,6.328888888888891,70.16949152542374,6.328888888888891C71.1864406779661,6.328888888888891,72.20338983050848,8.506666666666668,73.22033898305085,8.506666666666668C74.23728813559322,8.506666666666668,75.2542372881356,4.035555555555557,76.27118644067797,4.035555555555557C77.28813559322033,4.035555555555557,78.30508474576271,7.195555555555563,79.32203389830508,9.20888888888889C80.33898305084746,11.222222222222225,81.35593220338983,16.115555555555552,82.37288135593221,16.115555555555552C83.38983050847457,16.115555555555552,84.40677966101696,15.546666666666665,85.42372881355932,14.408888888888889C86.4406779661017,13.271111111111107,87.45762711864407,9.752592592592597,88.47457627118645,7.946666666666666C89.49152542372882,6.140740740740752,90.50847457627118,3.573333333333335,91.52542372881355,3.573333333333335C92.54237288135593,3.573333333333335,93.55932203389831,6.050370370370364,94.57627118644069,7.262222222222223C95.59322033898306,8.474074074074066,96.61016949152543,9.3762962962963,97.62711864406779,10.844444444444443C98.64406779661016,12.312592592592594,99.66101694915254,14.548148148148151,100.6779661016949,16.07111111111111C101.69491525423729,17.59407407407408,102.71186440677965,19.98222222222222,103.72881355932203,19.98222222222222C104.7457627118644,19.98222222222222,105.76271186440678,19.89333333333333,106.77966101694915,19.715555555555557C107.79661016949153,19.53777777777778,108.8135593220339,16.97185185185186,109.83050847457628,14.977777777777778C110.84745762711864,12.983703703703707,111.86440677966102,7.751111111111113,112.88135593220339,7.751111111111113C113.89830508474576,7.751111111111113,114.91525423728814,16.391111111111112,115.9322033898305,16.391111111111112C116.94915254237289,16.391111111111112,117.96610169491525,15.137777777777778,118.98305084745763,15.137777777777778C120,15.137777777777778,121.01694915254237,17.960000000000004,122.03389830508473,19.25333333333333C123.05084745762711,20.546666666666674,124.0677966101695,22.897777777777776,125.08474576271188,22.897777777777776C126.10169491525424,22.897777777777776,127.11864406779662,22.551111111111112,128.135593220339,21.85777777777778C129.15254237288136,21.164444444444452,130.16949152542372,19.588148148148147,131.1864406779661,18.72888888888889C132.20338983050846,17.869629629629625,133.22033898305085,16.702222222222222,134.23728813559322,16.702222222222222C135.25423728813558,16.702222222222222,136.27118644067798,22.844444444444445,137.28813559322035,22.844444444444445C138.3050847457627,22.844444444444445,139.3220338983051,18.062222222222225,140.33898305084747,18.062222222222225C141.35593220338984,18.062222222222225,142.3728813559322,18.077037037037037,143.38983050847457,18.106666666666666C144.40677966101694,18.136296296296294,145.42372881355934,24.992592592592587,146.4406779661017,25.733333333333334C147.45762711864407,26.474074074074075,148.47457627118644,26.844444444444445,149.4915254237288,26.844444444444445C150.50847457627117,26.844444444444445,151.52542372881356,20.592592592592595,152.54237288135593,20.16C153.5593220338983,19.727407407407405,154.5762711864407,19.51111111111111,155.59322033898306,19.51111111111111C156.61016949152543,19.51111111111111,157.6271186440678,22.577777777777783,158.64406779661016,23.582222222222224C159.66101694915253,24.586666666666677,160.67796610169492,25.537777777777777,161.6949152542373,25.537777777777777C162.71186440677965,25.537777777777777,163.72881355932205,23.964444444444446,164.74576271186442,23.964444444444446C165.76271186440678,23.964444444444446,166.77966101694915,30.16888888888889,167.79661016949152,30.16888888888889C168.81355932203388,30.16888888888889,169.83050847457628,29.48888888888889,170.84745762711864,28.186666666666667C171.864406779661,26.884444444444444,172.8813559322034,22.59259259259259,173.89830508474577,22.355555555555554C174.91525423728814,22.118518518518517,175.93220338983053,22,176.9491525423729,22C177.96610169491527,22,178.98305084745763,23.693333333333335,180,25.38666666666667L180,40C178.98305084745763,40,177.96610169491527,40,176.9491525423729,40C175.93220338983053,40,174.91525423728814,40,173.89830508474577,40C172.8813559322034,40,171.864406779661,40,170.84745762711864,40C169.83050847457628,40,168.81355932203388,40,167.79661016949152,40C166.77966101694915,40,165.76271186440678,40,164.74576271186442,40C163.72881355932205,40,162.71186440677965,40,161.6949152542373,40C160.67796610169492,40,159.66101694915253,40,158.64406779661016,40C157.6271186440678,40,156.61016949152543,40,155.59322033898306,40C154.5762711864407,40,153.5593220338983,40,152.54237288135593,40C151.52542372881356,40,150.50847457627117,40,149.4915254237288,40C148.47457627118644,40,147.45762711864407,40,146.4406779661017,40C145.42372881355934,40,144.40677966101694,40,143.38983050847457,40C142.3728813559322,40,141.35593220338984,40,140.33898305084747,40C139.3220338983051,40,138.3050847457627,40,137.28813559322035,40C136.27118644067798,40,135.25423728813558,40,134.23728813559322,40C133.22033898305085,40,132.20338983050846,40,131.1864406779661,40C130.16949152542372,40,129.15254237288136,40,128.135593220339,40C127.11864406779662,40,126.10169491525424,40,125.08474576271188,40C124.0677966101695,40,123.05084745762711,40,122.03389830508473,40C121.01694915254237,40,120,40,118.98305084745763,40C117.96610169491525,40,116.94915254237289,40,115.9322033898305,40C114.91525423728814,40,113.89830508474576,40,112.88135593220339,40C111.86440677966102,40,110.84745762711864,40,109.83050847457628,40C108.8135593220339,40,107.79661016949153,40,106.77966101694915,40C105.76271186440678,40,104.7457627118644,40,103.72881355932203,40C102.71186440677965,40,101.69491525423729,40,100.6779661016949,40C99.66101694915254,40,98.64406779661016,40,97.62711864406779,40C96.61016949152543,40,95.59322033898306,40,94.57627118644069,40C93.55932203389831,40,92.54237288135593,40,91.52542372881355,40C90.50847457627118,40,89.49152542372882,40,88.47457627118645,40C87.45762711864407,40,86.4406779661017,40,85.42372881355932,40C84.40677966101696,40,83.38983050847457,40,82.37288135593221,40C81.35593220338983,40,80.33898305084746,40,79.32203389830508,40C78.30508474576271,40,77.28813559322033,40,76.27118644067797,40C75.2542372881356,40,74.23728813559322,40,73.22033898305085,40C72.20338983050848,40,71.1864406779661,40,70.16949152542374,40C69.15254237288136,40,68.13559322033899,40,67.11864406779661,40C66.10169491525424,40,65.08474576271186,40,64.0677966101695,40C63.05084745762712,40,62.03389830508474,40,61.01694915254237,40C59.99999999999999,40,58.983050847457626,40,57.96610169491525,40C56.94915254237288,40,55.93220338983051,40,54.91525423728814,40C53.898305084745765,40,52.88135593220339,40,51.86440677966102,40C50.847457627118644,40,49.83050847457627,40,48.813559322033896,40C47.79661016949152,40,46.77966101694915,40,45.762711864406775,40C44.7457627118644,40,43.728813559322035,40,42.71186440677966,40C41.69491525423729,40,40.67796610169491,40,39.66101694915254,40C38.644067796610166,40,37.6271186440678,40,36.610169491525426,40C35.59322033898305,40,34.57627118644068,40,33.559322033898304,40C32.54237288135593,40,31.525423728813557,40,30.508474576271183,40C29.491525423728813,40,28.47457627118644,40,27.45762711864407,40C26.440677966101696,40,25.423728813559322,40,24.406779661016948,40C23.389830508474574,40,22.372881355932204,40,21.35593220338983,40C20.338983050847457,40,19.322033898305087,40,18.305084745762713,40C17.28813559322034,40,16.271186440677965,40,15.254237288135592,40C14.23728813559322,40,13.220338983050846,40,12.203389830508474,40C11.186440677966102,40,10.169491525423728,40,9.152542372881356,40C8.135593220338983,40,7.11864406779661,40,6.101694915254237,40C5.084745762711864,40,4.067796610169491,40,3.0508474576271185,40C2.0338983050847457,40,1.0169491525423728,40,0,40Z"></path><path class="line" stroke="black" fill="none" d="M0,38.96C1.0169491525423728,38.76074074074074,2.0338983050847457,38.56148148148148,3.0508474576271185,38.248888888888885C4.067796610169491,37.93629629629629,5.084745762711864,37.48444444444444,6.101694915254237,37.08444444444444C7.11864406779661,36.684444444444445,8.135593220338983,36.3925925925926,9.152542372881356,35.848888888888894C10.169491525423728,35.30518518518519,11.186440677966102,33.82222222222222,12.203389830508474,33.82222222222222C13.220338983050846,33.82222222222222,14.23728813559322,33.83111111111111,15.254237288135592,33.84888888888889C16.271186440677965,33.86666666666666,17.28813559322034,34.284444444444446,18.305084745762713,34.284444444444446C19.322033898305087,34.284444444444446,20.338983050847457,34.12148148148148,21.35593220338983,33.79555555555556C22.372881355932204,33.46962962962964,23.389830508474574,30.694814814814816,24.406779661016948,29.6C25.423728813559322,28.505185185185184,26.440677966101696,27.92888888888889,27.45762711864407,27.226666666666667C28.47457627118644,26.524444444444445,29.491525423728813,25.38666666666667,30.508474576271183,25.38666666666667C31.525423728813557,25.38666666666667,32.54237288135593,25.654814814814817,33.559322033898304,25.733333333333334C34.57627118644068,25.811851851851852,35.59322033898305,25.845925925925926,36.610169491525426,25.857777777777777C37.6271186440678,25.869629629629628,38.644067796610166,25.863703703703703,39.66101694915254,25.875555555555554C40.67796610169491,25.887407407407405,41.69491525423729,26.34666666666667,42.71186440677966,26.34666666666667C43.728813559322035,26.34666666666667,44.7457627118644,23.368888888888886,45.762711864406775,21.413333333333334C46.77966101694915,19.457777777777775,47.79661016949152,14.613333333333332,48.813559322033896,14.613333333333332C49.83050847457627,14.613333333333332,50.847457627118644,15.333333333333332,51.86440677966102,15.333333333333332C52.88135593220339,15.333333333333332,53.898305084745765,13.315555555555555,54.91525423728814,13.315555555555555C55.93220338983051,13.315555555555555,56.94915254237288,14.18074074074074,57.96610169491525,15.27111111111111C58.983050847457626,16.36148148148148,59.99999999999999,19.857777777777777,61.01694915254237,19.857777777777777C62.03389830508474,19.857777777777777,63.05084745762712,18.3125925925926,64.0677966101695,16.355555555555554C65.08474576271186,14.398518518518518,66.10169491525424,9.30666666666666,67.11864406779661,8.115555555555556C68.13559322033899,6.924444444444446,69.15254237288136,6.328888888888891,70.16949152542374,6.328888888888891C71.1864406779661,6.328888888888891,72.20338983050848,8.506666666666668,73.22033898305085,8.506666666666668C74.23728813559322,8.506666666666668,75.2542372881356,4.035555555555557,76.27118644067797,4.035555555555557C77.28813559322033,4.035555555555557,78.30508474576271,7.195555555555563,79.32203389830508,9.20888888888889C80.33898305084746,11.222222222222225,81.35593220338983,16.115555555555552,82.37288135593221,16.115555555555552C83.38983050847457,16.115555555555552,84.40677966101696,15.546666666666665,85.42372881355932,14.408888888888889C86.4406779661017,13.271111111111107,87.45762711864407,9.752592592592597,88.47457627118645,7.946666666666666C89.49152542372882,6.140740740740752,90.50847457627118,3.573333333333335,91.52542372881355,3.573333333333335C92.54237288135593,3.573333333333335,93.55932203389831,6.050370370370364,94.57627118644069,7.262222222222223C95.59322033898306,8.474074074074066,96.61016949152543,9.3762962962963,97.62711864406779,10.844444444444443C98.64406779661016,12.312592592592594,99.66101694915254,14.548148148148151,100.6779661016949,16.07111111111111C101.69491525423729,17.59407407407408,102.71186440677965,19.98222222222222,103.72881355932203,19.98222222222222C104.7457627118644,19.98222222222222,105.76271186440678,19.89333333333333,106.77966101694915,19.715555555555557C107.79661016949153,19.53777777777778,108.8135593220339,16.97185185185186,109.83050847457628,14.977777777777778C110.84745762711864,12.983703703703707,111.86440677966102,7.751111111111113,112.88135593220339,7.751111111111113C113.89830508474576,7.751111111111113,114.91525423728814,16.391111111111112,115.9322033898305,16.391111111111112C116.94915254237289,16.391111111111112,117.96610169491525,15.137777777777778,118.98305084745763,15.137777777777778C120,15.137777777777778,121.01694915254237,17.960000000000004,122.03389830508473,19.25333333333333C123.05084745762711,20.546666666666674,124.0677966101695,22.897777777777776,125.08474576271188,22.897777777777776C126.10169491525424,22.897777777777776,127.11864406779662,22.551111111111112,128.135593220339,21.85777777777778C129.15254237288136,21.164444444444452,130.16949152542372,19.588148148148147,131.1864406779661,18.72888888888889C132.20338983050846,17.869629629629625,133.22033898305085,16.702222222222222,134.23728813559322,16.702222222222222C135.25423728813558,16.702222222222222,136.27118644067798,22.844444444444445,137.28813559322035,22.844444444444445C138.3050847457627,22.844444444444445,139.3220338983051,18.062222222222225,140.33898305084747,18.062222222222225C141.35593220338984,18.062222222222225,142.3728813559322,18.077037037037037,143.38983050847457,18.106666666666666C144.40677966101694,18.136296296296294,145.42372881355934,24.992592592592587,146.4406779661017,25.733333333333334C147.45762711864407,26.474074074074075,148.47457627118644,26.844444444444445,149.4915254237288,26.844444444444445C150.50847457627117,26.844444444444445,151.52542372881356,20.592592592592595,152.54237288135593,20.16C153.5593220338983,19.727407407407405,154.5762711864407,19.51111111111111,155.59322033898306,19.51111111111111C156.61016949152543,19.51111111111111,157.6271186440678,22.577777777777783,158.64406779661016,23.582222222222224C159.66101694915253,24.586666666666677,160.67796610169492,25.537777777777777,161.6949152542373,25.537777777777777C162.71186440677965,25.537777777777777,163.72881355932205,23.964444444444446,164.74576271186442,23.964444444444446C165.76271186440678,23.964444444444446,166.77966101694915,30.16888888888889,167.79661016949152,30.16888888888889C168.81355932203388,30.16888888888889,169.83050847457628,29.48888888888889,170.84745762711864,28.186666666666667C171.864406779661,26.884444444444444,172.8813559322034,22.59259259259259,173.89830508474577,22.355555555555554C174.91525423728814,22.118518518518517,175.93220338983053,22,176.9491525423729,22C177.96610169491527,22,178.98305084745763,23.693333333333335,180,25.38666666666667"></path><path class="axis-ceiling" stroke-width="1" stroke="black" fill="none" d="M175,0L180,0"></path><text class="axis-ceiling-label" font-family="sans-serif" text-anchor="end" font-size="10px" x="170" y="2.5">4500</text></g></svg>