<svg xmlns="http://www.w3.org/2000/svg" viewBox="0 0 180 60"><g transform="translate(0,20)"><path class="area" fill="rgba(0, 0, 0, 0.2)" d="M0,39.44C1.0169491525423728,39.459999999999994,2.0338983050847457,39.48,3.0508474576271185,39.48C4.067796610169491,39.48,5.084745762711864,39.48,6.101694915254237,39.48C7.11864406779661,39.48,8.135593220338983,39.48,9.152542372881356,39.48C10.169491525423728,39.48,11.186440677966102,39.56,12.203389830508474,39.56C13.220338983050846,39.56,14.23728813559322,39.56,15.254237288135592,39.56C16.271186440677965,39.56,17.28813559322034,39.586666666666666,18.305084745762713,39.6C19.322033898305087,39.61333333333334,20.338983050847457,39.626666666666665,21.35593220338983,39.64C22.372881355932204,39.653333333333336,23.389830508474574,39.660000000000004,24.406779661016948,39.68C25.423728813559322,39.7,26.440677966101696,39.76,27.45762711864407,39.76C28.47457627118644,39.76,29.491525423728813,39.76,30.508474576271183,39.76C31.525423728813557,39.76,32.54237288135593,39.8,33.559322033898304,39.8C34.57627118644068,39.8,35.59322033898305,39.8,36.610169491525426,39.8C37.6271186440678,39.8,38.644067796610166,39.84,39.66101694915254,39.84C40.67796610169491,39.84,41.69491525423729,39.84,42.71186440677966,39.84C43.728813559322035,39.84,44.7457627118644,39.84,45.762711864406775,39.84C46.77966101694915,39.84,47.79661016949152,39.84,48.813559322033896,39.84C49.83050847457627,39.84,50.847457627118644,39.88,51.86440677966102,39.88C52.88135593220339,39.88,53.898305084745765,39.88,54.91525423728814,39.88C55.93220338983051,39.88,56.94915254237288,39.88,57.96610169491525,39.88C58.983050847457626,39.88,59.99999999999999,39.88,61.01694915254237,39.88C62.03389830508474,39.88,63.05084745762712,39.84,64.0677966101695,39.84C65.08474576271186,39.84,66.10169491525424,39.84,67.11864406779661,39.84C68.13559322033899,39.84,69.15254237288136,39.84,70.16949152542374,39.84C71.1864406779661,39.84,72.20338983050848,39.78,73.22033898305085,39.76C74.23728813559322,39.739999999999995,75.2542372881356,39.739999999999995,76.27118644067797,39.72C77.28813559322033,39.7,78.30508474576271,39.66,79.32203389830508,39.64C80.33898305084746,39.62,81.35593220338983,39.626666666666665,82.37288135593221,39.6C83.38983050847457,39.57333333333334,84.40677966101696,39.48,85.42372881355932,39.44C86.4406779661017,39.4,87.45762711864407,39.38,88.47457627118645,39.36C89.49152542372882,39.34,90.50847457627118,39.333333333333336,91.52542372881355,39.32C92.54237288135593,39.306666666666665,93.55932203389831,39.300000000000004,94.57627118644069,39.28C95.59322033898306,39.260000000000005,96.61016949152543,39.2,97.62711864406779,39.2C98.64406779661016,39.2,99.66101694915254,39.24,100.6779661016949,39.24C101.69491525423729,39.24,102.71186440677965,39.2,103.72881355932203,39.2C104.7457627118644,39.2,105.76271186440678,39.24,106.77966101694915,39.24C107.79661016949153,39.24,108.8135593220339,39.220000000000006,109.83050847457628,39.2C110.84745762711864,39.18,111.86440677966102,39.12,112.88135593220339,39.12C113.89830508474576,39.12,114.91525423728814,39.12,115.9322033898305,39.12C116.94915254237289,39.12,117.96610169491525,39.16,118.98305084745763,39.16C120,39.16,121.01694915254237,39.16,122.03389830508473,39.16C123.05084745762711,39.16,124.0677966101695,39.13333333333333,125.08474576271188,39.12C126.10169491525424,39.10666666666666,127.11864406779662,39.10666666666666,128.135593220339,39.08C129.15254237288136,39.053333333333335,130.16949152542372,38.946666666666665,131.1864406779661,38.839999999999996C132.20338983050846,38.73333333333333,133.22033898305085,38.61333333333333,134.23728813559322,38.44C135.25423728813558,38.266666666666666,136.27118644067798,38,137.28813559322035,37.8C138.3050847457627,37.599999999999994,139.3220338983051,37.42666666666667,140.33898305084747,37.24C141.35593220338984,37.053333333333335,142.3728813559322,36.86,143.38983050847457,36.68C144.40677966101694,36.5,145.42372881355934,36.400000000000006,146.4406779661017,36.160000000000004C147.45762711864407,35.92,148.47457627118644,35.63333333333333,149.4915254237288,35.24C150.50847457627117,34.846666666666664,151.52542372881356,34.4,152.54237288135593,33.8C153.5593220338983,33.199999999999996,154.5762711864407,32.53333333333334,155.59322033898306,31.64C156.61016949152543,30.74666666666667,157.6271186440678,29.52,158.64406779661016,28.440000000000005C159.66101694915253,27.36,160.67796610169492,26.22,161.6949152542373,25.16C162.71186440677965,24.1,163.72881355932205,23.146666666666675,164.74576271186442,22.080000000000002C165.76271186440678,21.01333333333334,166.77966101694915,20.239999999999988,167.79661016949152,18.759999999999998C168.81355932203388,17.279999999999994,169.83050847457628,15.18,170.84745762711864,13.2C171.864406779661,11.219999999999999,172.8813559322034,9.060000000000002,173.89830508474577,6.880000000000002C174.91525423728814,4.700000000000001,175.93220338983053,0.1200000000000001,176.9491525423729,0.1200000000000001C177.96610169491527,0.1200000000000001,178.98305084745763,2.12,180,4.119999999999999L180,40C178.98305084745763,40,177.96610169491527,40,176.9491525423729,40C175.93220338983053,40,174.91525423728814,40,173.89830508474577,40C172.8813559322034,40,171.864406779661,40,170.84745762711864,40C169.83050847457628,40,168.81355932203388,40,167.79661016949152,40C166.77966101694915,40,165.76271186440678,40,164.74576271186442,40C163.72881355932205,40,162.71186440677965,40,161.6949152542373,40C160.67796610169492,40,159.66101694915253,40,158.64406779661016,40C157.6271186440678,40,156.61016949152543,40,155.59322033898306,40C154.5762711864407,40,153.5593220338983,40,152.54237288135593,40C151.52542372881356,40,150.50847457627117,40,149.4915254237288,40C148.47457627118644,40,147.45762711864407,40,146.4406779661017,40C145.42372881355934,40,144.40677966101694,40,143.38983050847457,40C142.3728813559322,40,141.35593220338984,40,140.33898305084747,40C139.3220338983051,40,138.3050847457627,40,137.28813559322035,40C136.27118644067798,40,135.25423728813558,40,134.23728813559322,40C133.22033898305085,40,132.20338983050846,40,131.1864406779661,40C130.16949152542372,40,129.15254237288136,40,128.135593220339,40C127.11864406779662,40,126.10169491525424,40,125.08474576271188,40C124.0677966101695,40,123.05084745762711,40,122.03389830508473,40C121.01694915254237,40,120,40,118.98305084745763,40C117.96610169491525,40,116.94915254237289,40,115.9322033898305,40C114.91525423728814,40,113.89830508474576,40,112.88135593220339,40C111.86440677966102,40,110.84745762711864,40,109.83050847457628,40C108.8135593220339,40,107.79661016949153,40,106.77966101694915,40C105.76271186440678,40,104.7457627118644,40,103.72881355932203,40C102.71186440677965,40,101.69491525423729,40,100.6779661016949,40C99.66101694915254,40,98.64406779661016,40,97.62711864406779,40C96.61016949152543,40,95.59322033898306,40,94.57627118644069,40C93.55932203389831,40,92.54237288135593,40,91.52542372881355,40C90.50847457627118,40,89.49152542372882,40,88.47457627118645,40C87.45762711864407,40,86.4406779661017,40,85.42372881355932,40C84.40677966101696,40,83.38983050847457,40,82.37288135593221,40C81.35593220338983,40,80.33898305084746,40,79.32203389830508,40C78.30508474576271,40,77.28813559322033,40,76.27118644067797,40C75.2542372881356,40,74.23728813559322,40,73.22033898305085,40C72.20338983050848,40,71.1864406779661,40,70.16949152542374,40C69.15254237288136,40,68.13559322033899,40,67.11864406779661,40C66.10169491525424,40,65.08474576271186,40,64.0677966101695,40C63.05084745762712,40,62.03389830508474,40,61.01694915254237,40C59.99999999999999,40,58.983050847457626,40,57.96610169491525,40C56.94915254237288,40,55.93220338983051,40,54.91525423728814,40C53.898305084745765,40,52.88135593220339,40,51.86440677966102,40C50.847457627118644,40,49.83050847457627,40,48.813559322033896,40C47.79661016949152,40,46.77966101694915,40,45.762711864406775,40C44.7457627118644,40,43.728813559322035,40,42.71186440677966,40C41.69491525423729,40,40.67796610169491,40,39.66101694915254,40C38.644067796610166,40,37.6271186440678,40,36.610169491525426,40C35.59322033898305,40,34.57627118644068,40,33.559322033898304,40C32.54237288135593,40,31.525423728813557,40,30.508474576271183,40C29.491525423728813,40,28.47457627118644,40,27.45762711864407,40C26.440677966101696,40,25.423728813559322,40,24.406779661016948,40C23.389830508474574,40,22.372881355932204,40,21.35593220338983,40C20.338983050847457,40,19.322033898305087,40,18.305084745762713,40C17.28813559322034,40,16.271186440677965,40,15.254237288135592,40C14.23728813559322,40,13.220338983050846,40,12.203389830508474,40C11.186440677966102,40,10.169491525423728,40,9.152542372881356,40C8.135593220338983,40,7.11864406779661,40,6.101694915254237,40C5.084745762711864,40,4.067796610169491,40,3.0508474576271185,40C2.0338983050847457,40,1.0169491525423728,40,0,40Z"></path><path class="line" stroke="black" fill="none" d="M0,39.44C1.0169491525423728,39.459999999999994,2.0338983050847457,39.48,3.0508474576271185,39.48C4.067796610169491,39.48,5.084745762711864,39.48,6.101694915254237,39.48C7.11864406779661,39.48,8.135593220338983,39.48,9.152542372881356,39.48C10.169491525423728,39.48,11.186440677966102,39.56,12.203389830508474,39.56C13.220338983050846,39.56,14.23728813559322,39.56,15.254237288135592,39.56C16.271186440677965,39.56,17.28813559322034,39.586666666666666,18.305084745762713,39.6C19.322033898305087,39.61333333333334,20.338983050847457,39.626666666666665,21.35593220338983,39.64C22.372881355932204,39.653333333333336,23.389830508474574,39.660000000000004,24.406779661016948,39.68C25.423728813559322,39.7,26.440677966101696,39.76,27.45762711864407,39.76C28.47457627118644,39.76,29.491525423728813,39.76,30.508474576271183,39.76C31.525423728813557,39.76,32.54237288135593,39.8,33.559322033898304,39.8C34.57627118644068,39.8,35.59322033898305,39.8,36.610169491525426,39.8C37.6271186440678,39.8,38.644067796610166,39.84,39.66101694915254,39.84C40.67796610169491,39.84,41.69491525423729,39.84,42.71186440677966,39.84C43.728813559322035,39.84,44.7457627118644,39.84,45.762711864406775,39.84C46.77966101694915,39.84,47.79661016949152,39.84,48.813559322033896,39.84C49.83050847457627,39.84,50.847457627118644,39.88,51.86440677966102,39.88C52.88135593220339,39.88,53.898305084745765,39.88,54.91525423728814,39.88C55.93220338983051,39.88,56.94915254237288,39.88,57.96610169491525,39.88C58.983050847457626,39.88,59.99999999999999,39.88,61.01694915254237,39.88C62.03389830508474,39.88,63.05084745762712,39.84,64.0677966101695,39.84C65.08474576271186,39.84,66.10169491525424,39.84,67.11864406779661,39.84C68.13559322033899,39.84,69.15254237288136,39.84,70.16949152542374,39.84C71.1864406779661,39.84,72.20338983050848,39.78,73.22033898305085,39.76C74.23728813559322,39.739999999999995,75.2542372881356,39.739999999999995,76.27118644067797,39.72C77.28813559322033,39.7,78.30508474576271,39.66,79.32203389830508,39.64C80.33898305084746,39.62,81.35593220338983,39.626666666666665,82.37288135593221,39.6C83.38983050847457,39.57333333333334,84.40677966101696,39.48,85.42372881355932,39.44C86.4406779661017,39.4,87.45762711864407,39.38,88.47457627118645,39.36C89.49152542372882,39.34,90.50847457627118,39.333333333333336,91.52542372881355,39.32C92.54237288135593,39.306666666666665,93.55932203389831,39.300000000000004,94.57627118644069,39.28C95.59322033898306,39.260000000000005,96.61016949152543,39.2,97.62711864406779,39.2C98.64406779661016,39.2,99.66101694915254,39.24,100.6779661016949,39.24C101.69491525423729,39.24,102.71186440677965,39.2,103.72881355932203,39.2C104.7457627118644,39.2,105.76271186440678,39.24,106.77966101694915,39.24C107.79661016949153,39.24,108.8135593220339,39.220000000000006,109.83050847457628,39.2C110.84745762711864,39.18,111.86440677966102,39.12,112.88135593220339,39.12C113.89830508474576,39.12,114.91525423728814,39.12,115.9322033898305,39.12C116.94915254237289,39.12,117.96610169491525,39.16,118.98305084745763,39.16C120,39.16,121.01694915254237,39.16,122.03389830508473,39.16C123.05084745762711,39.16,124.0677966101695,39.13333333333333,125.08474576271188,39.12C126.10169491525424,39.10666666666666,127.11864406779662,39.10666666666666,128.135593220339,39.08C129.15254237288136,39.053333333333335,130.16949152542372,38.946666666666665,131.1864406779661,38.839999999999996C132.20338983050846,38.73333333333333,133.22033898305085,38.61333333333333,134.23728813559322,38.44C135.25423728813558,38.266666666666666,136.27118644067798,38,137.28813559322035,37.8C138.3050847457627,37.599999999999994,139.3220338983051,37.42666666666667,140.33898305084747,37.24C141.35593220338984,37.053333333333335,142.3728813559322,36.86,143.38983050847457,36.68C144.40677966101694,36.5,145.42372881355934,36.400000000000006,146.4406779661017,36.160000000000004C147.45762711864407,35.92,148.47457627118644,35.63333333333333,149.4915254237288,35.24C150.50847457627117,34.846666666666664,151.52542372881356,34.4,152.54237288135593,33.8C153.5593220338983,33.199999999999996,154.5762711864407,32.53333333333334,155.59322033898306,31.64C156.61016949152543,30.74666666666667,157.6271186440678,29.52,158.64406779661016,28.440000000000005C159.66101694915253,27.36,160.67796610169492,26.22,161.6949152542373,25.16C162.71186440677965,24.1,163.72881355932205,23.146666666666675,164.74576271186442,22.080000000000002C165.76271186440678,21.01333333333334,166.77966101694915,20.239999999999988,167.79661016949152,18.759999999999998C168.81355932203388,17.279999999999994,169.83050847457628,15.18,170.84745762711864,13.2C171.864406779661,11.219999999999999,172.8813559322034,9.060000000000002,173.89830508474577,6.880000000000002C174.91525423728814,4.700000000000001,175.93220338983053,0.1200000000000001,176.9491525423729,0.1200000000000001C177.96610169491527,0.1200000000000001,178.98305084745763,2.12,180,4.119999999999999"></path><path class="axis-ceiling" stroke-width="1" stroke="black" fill="none" d="M175,0L180,0"></path><text class="axis-ceiling-label" font-family="sans-serif" text-anchor="end" font-size="10px" x="170" y="2.5">1000</text></g></svg>