<svg xmlns="http://www.w3.org/2000/svg" viewBox="0 0 180 60"><g transform="translate(0,20)"><path class="area" fill="rgba(0, 0, 0, 0.2)" d="M0,19.28C1.0169491525423728,19.62666666666667,2.0338983050847457,19.973333333333333,3.0508474576271185,20.48C4.067796610169491,20.986666666666668,5.084745762711864,21.999999999999996,6.101694915254237,22.32C7.11864406779661,22.640000000000004,8.135593220338983,22.52666666666667,9.152542372881356,22.800000000000004C10.169491525423728,23.073333333333338,11.186440677966102,23.540000000000003,12.203389830508474,23.96C13.220338983050846,24.38,14.23728813559322,24.84,15.254237288135592,25.32C16.271186440677965,25.8,17.28813559322034,26.373333333333335,18.305084745762713,26.840000000000003C19.322033898305087,27.306666666666672,20.338983050847457,27.746666666666673,21.35593220338983,28.120000000000005C22.372881355932204,28.493333333333336,23.389830508474574,28.82,24.406779661016948,29.08C25.423728813559322,29.339999999999996,26.440677966101696,29.46,27.45762711864407,29.68C28.47457627118644,29.9,29.491525423728813,30.146666666666665,30.508474576271183,30.4C31.525423728813557,30.653333333333332,32.54237288135593,30.940000000000005,33.559322033898304,31.200000000000003C34.57627118644068,31.46,35.59322033898305,31.72,36.610169491525426,31.959999999999997C37.6271186440678,32.199999999999996,38.644067796610166,32.473333333333336,39.66101694915254,32.64C40.67796610169491,32.806666666666665,41.69491525423729,32.76,42.71186440677966,32.96C43.728813559322035,33.16,44.7457627118644,33.599999999999994,45.762711864406775,33.839999999999996C46.77966101694915,34.08,47.79661016949152,34.233333333333334,48.813559322033896,34.4C49.83050847457627,34.56666666666666,50.847457627118644,34.733333333333334,51.86440677966102,34.84C52.88135593220339,34.94666666666667,53.898305084745765,34.92,54.91525423728814,35.04C55.93220338983051,35.16,56.94915254237288,35.373333333333335,57.96610169491525,35.56C58.983050847457626,35.74666666666667,59.99999999999999,35.99333333333334,61.01694915254237,36.160000000000004C62.03389830508474,36.32666666666667,63.05084745762712,36.446666666666665,64.0677966101695,36.56C65.08474576271186,36.67333333333333,66.10169491525424,36.760000000000005,67.11864406779661,36.84C68.13559322033899,36.92,69.15254237288136,36.97333333333333,70.16949152542374,37.04C71.1864406779661,37.10666666666666,72.20338983050848,37.153333333333336,73.22033898305085,37.24C74.23728813559322,37.32666666666667,75.2542372881356,37.46666666666667,76.27118644067797,37.56C77.28813559322033,37.653333333333336,78.30508474576271,37.71333333333333,79.32203389830508,37.8C80.33898305084746,37.88666666666666,81.35593220338983,37.99333333333333,82.37288135593221,38.08C83.38983050847457,38.166666666666664,84.40677966101696,38.26,85.42372881355932,38.32C86.4406779661017,38.38,87.45762711864407,38.39333333333333,88.47457627118645,38.44C89.49152542372882,38.486666666666665,90.50847457627118,38.57333333333334,91.52542372881355,38.6C92.54237288135593,38.626666666666665,93.55932203389831,38.626666666666665,94.57627118644069,38.64C95.59322033898306,38.653333333333336,96.61016949152543,38.660000000000004,97.62711864406779,38.68C98.64406779661016,38.7,99.66101694915254,38.76,100.6779661016949,38.76C101.69491525423729,38.76,102.71186440677965,38.68,103.72881355932203,38.68C104.7457627118644,38.68,105.76271186440678,38.7,106.77966101694915,38.72C107.79661016949153,38.74,108.8135593220339,38.8,109.83050847457628,38.8C110.84745762711864,38.8,111.86440677966102,38.77333333333333,112.88135593220339,38.76C113.89830508474576,38.74666666666666,114.91525423728814,38.733333333333334,115.9322033898305,38.72C116.94915254237289,38.70666666666666,117.96610169491525,38.70666666666666,118.98305084745763,38.68C120,38.653333333333336,121.01694915254237,38.57333333333333,122.03389830508473,38.519999999999996C123.05084745762711,38.46666666666666,124.0677966101695,38.406666666666666,125.08474576271188,38.36C126.10169491525424,38.31333333333333,127.11864406779662,38.29333333333333,128.135593220339,38.239999999999995C129.15254237288136,38.18666666666666,130.16949152542372,38.086666666666666,131.1864406779661,38.04C132.20338983050846,37.99333333333333,133.22033898305085,37.99333333333333,134.23728813559322,37.96C135.25423728813558,37.92666666666667,136.27118644067798,37.88666666666666,137.28813559322035,37.839999999999996C138.3050847457627,37.79333333333333,139.3220338983051,37.70666666666666,140.33898305084747,37.68C141.35593220338984,37.653333333333336,142.3728813559322,37.666666666666664,143.38983050847457,37.64C144.40677966101694,37.61333333333334,145.42372881355934,37.559999999999995,146.4406779661017,37.519999999999996C147.45762711864407,37.48,148.47457627118644,37.46666666666667,149.4915254237288,37.400000000000006C150.50847457627117,37.33333333333334,151.52542372881356,37.21333333333334,152.54237288135593,37.120000000000005C153.5593220338983,37.02666666666667,154.5762711864407,36.91333333333334,155.59322033898306,36.84C156.61016949152543,36.76666666666667,157.6271186440678,36.74666666666667,158.64406779661016,36.68C159.66101694915253,36.61333333333333,160.67796610169492,36.519999999999996,161.6949152542373,36.44C162.71186440677965,36.36,163.72881355932205,36.29333333333334,164.74576271186442,36.2C165.76271186440678,36.10666666666667,166.77966101694915,35.906666666666666,167.79661016949152,35.88C168.81355932203388,35.85333333333334,169.83050847457628,35.85333333333334,170.84745762711864,35.84C171.864406779661,35.82666666666667,172.8813559322034,35.81333333333333,173.89830508474577,35.8C174.91525423728814,35.78666666666666,175.93220338983053,35.76,176.9491525423729,35.76C177.96610169491527,35.76,178.98305084745763,35.96,180,36.160000000000004L180,40C178.98305084745763,40,177.96610169491527,40,176.9491525423729,40C175.93220338983053,40,174.91525423728814,40,173.89830508474577,40C172.8813559322034,40,171.864406779661,40,170.84745762711864,40C169.83050847457628,40,168.81355932203388,40,167.79661016949152,40C166.77966101694915,40,165.76271186440678,40,164.74576271186442,40C163.72881355932205,40,162.71186440677965,40,161.6949152542373,40C160.67796610169492,40,159.66101694915253,40,158.64406779661016,40C157.6271186440678,40,156.61016949152543,40,155.59322033898306,40C154.5762711864407,40,153.5593220338983,40,152.54237288135593,40C151.52542372881356,40,150.50847457627117,40,149.4915254237288,40C148.47457627118644,40,147.45762711864407,40,146.4406779661017,40C145.42372881355934,40,144.40677966101694,40,143.38983050847457,40C142.3728813559322,40,141.35593220338984,40,140.33898305084747,40C139.3220338983051,40,138.3050847457627,40,137.28813559322035,40C136.27118644067798,40,135.25423728813558,40,134.23728813559322,40C133.22033898305085,40,132.20338983050846,40,131.1864406779661,40C130.16949152542372,40,129.15254237288136,40,128.135593220339,40C127.11864406779662,40,126.10169491525424,40,125.08474576271188,40C124.0677966101695,40,123.05084745762711,40,122.03389830508473,40C121.01694915254237,40,120,40,118.98305084745763,40C117.96610169491525,40,116.94915254237289,40,115.9322033898305,40C114.91525423728814,40,113.89830508474576,40,112.88135593220339,40C111.86440677966102,40,110.84745762711864,40,109.83050847457628,40C108.8135593220339,40,107.79661016949153,40,106.77966101694915,40C105.76271186440678,40,104.7457627118644,40,103.72881355932203,40C102.71186440677965,40,101.69491525423729,40,100.6779661016949,40C99.66101694915254,40,98.64406779661016,40,97.62711864406779,40C96.61016949152543,40,95.59322033898306,40,94.57627118644069,40C93.55932203389831,40,92.54237288135593,40,91.52542372881355,40C90.50847457627118,40,89.49152542372882,40,88.47457627118645,40C87.45762711864407,40,86.4406779661017,40,85.42372881355932,40C84.40677966101696,40,83.38983050847457,40,82.37288135593221,40C81.35593220338983,40,80.33898305084746,40,79.32203389830508,40C78.30508474576271,40,77.28813559322033,40,76.27118644067797,40C75.2542372881356,40,74.23728813559322,40,73.22033898305085,40C72.20338983050848,40,71.1864406779661,40,70.16949152542374,40C69.15254237288136,40,68.13559322033899,40,67.11864406779661,40C66.10169491525424,40,65.08474576271186,40,64.0677966101695,40C63.05084745762712,40,62.03389830508474,40,61.01694915254237,40C59.99999999999999,40,58.983050847457626,40,57.96610169491525,40C56.94915254237288,40,55.93220338983051,40,54.91525423728814,40C53.898305084745765,40,52.88135593220339,40,51.86440677966102,40C50.847457627118644,40,49.83050847457627,40,48.813559322033896,40C47.79661016949152,40,46.77966101694915,40,45.762711864406775,40C44.7457627118644,40,43.728813559322035,40,42.71186440677966,40C41.69491525423729,40,40.67796610169491,40,39.66101694915254,40C38.644067796610166,40,37.6271186440678,40,36.610169491525426,40C35.59322033898305,40,34.57627118644068,40,33.559322033898304,40C32.54237288135593,40,31.525423728813557,40,30.508474576271183,40C29.491525423728813,40,28.47457627118644,40,27.45762711864407,40C26.440677966101696,40,25.423728813559322,40,24.406779661016948,40C23.389830508474574,40,22.372881355932204,40,21.35593220338983,40C20.338983050847457,40,19.322033898305087,40,18.305084745762713,40C17.28813559322034,40,16.271186440677965,40,15.254237288135592,40C14.23728813559322,40,13.220338983050846,40,12.203389830508474,40C11.186440677966102,40,10.169491525423728,40,9.152542372881356,40C8.135593220338983,40,7.11864406779661,40,6.101694915254237,40C5.084745762711864,40,4.067796610169491,40,3.0508474576271185,40C2.0338983050847457,40,1.0169491525423728,40,0,40Z"></path><path class="line" stroke="black" fill="none" d="M0,19.28C1.0169491525423728,19.62666666666667,2.0338983050847457,19.973333333333333,3.0508474576271185,20.48C4.067796610169491,20.986666666666668,5.084745762711864,21.999999999999996,6.101694915254237,22.32C7.11864406779661,22.640000000000004,8.135593220338983,22.52666666666667,9.152542372881356,22.800000000000004C10.169491525423728,23.073333333333338,11.186440677966102,23.540000000000003,12.203389830508474,23.96C13.220338983050846,24.38,14.23728813559322,24.84,15.254237288135592,25.32C16.271186440677965,25.8,17.28813559322034,26.373333333333335,18.305084745762713,26.840000000000003C19.322033898305087,27.306666666666672,20.338983050847457,27.746666666666673,21.35593220338983,28.120000000000005C22.372881355932204,28.493333333333336,23.389830508474574,28.82,24.406779661016948,29.08C25.423728813559322,29.339999999999996,26.440677966101696,29.46,27.45762711864407,29.68C28.47457627118644,29.9,29.491525423728813,30.146666666666665,30.508474576271183,30.4C31.525423728813557,30.653333333333332,32.54237288135593,30.940000000000005,33.559322033898304,31.200000000000003C34.57627118644068,31.46,35.59322033898305,31.72,36.610169491525426,31.959999999999997C37.6271186440678,32.199999999999996,38.644067796610166,32.473333333333336,39.66101694915254,32.64C40.67796610169491,32.806666666666665,41.69491525423729,32.76,42.71186440677966,32.96C43.728813559322035,33.16,44.7457627118644,33.599999999999994,45.762711864406775,33.839999999999996C46.77966101694915,34.08,47.79661016949152,34.233333333333334,48.813559322033896,34.4C49.83050847457627,34.56666666666666,50.847457627118644,34.733333333333334,51.86440677966102,34.84C52.88135593220339,34.94666666666667,53.898305084745765,34.92,54.91525423728814,35.04C55.93220338983051,35.16,56.94915254237288,35.373333333333335,57.96610169491525,35.56C58.983050847457626,35.74666666666667,59.99999999999999,35.99333333333334,61.01694915254237,36.160000000000004C62.03389830508474,36.32666666666667,63.05084745762712,36.446666666666665,64.0677966101695,36.56C65.08474576271186,36.67333333333333,66.10169491525424,36.760000000000005,67.11864406779661,36.84C68.13559322033899,36.92,69.15254237288136,36.97333333333333,70.16949152542374,37.04C71.1864406779661,37.10666666666666,72.20338983050848,37.153333333333336,73.22033898305085,37.24C74.23728813559322,37.32666666666667,75.2542372881356,37.46666666666667,76.27118644067797,37.56C77.28813559322033,37.653333333333336,78.30508474576271,37.71333333333333,79.32203389830508,37.8C80.33898305084746,37.88666666666666,81.35593220338983,37.99333333333333,82.37288135593221,38.08C83.38983050847457,38.166666666666664,84.40677966101696,38.26,85.42372881355932,38.32C86.4406779661017,38.38,87.45762711864407,38.39333333333333,88.47457627118645,38.44C89.49152542372882,38.486666666666665,90.50847457627118,38.57333333333334,91.52542372881355,38.6C92.54237288135593,38.626666666666665,93.55932203389831,38.626666666666665,94.57627118644069,38.64C95.59322033898306,38.653333333333336,96.61016949152543,38.660000000000004,97.62711864406779,38.68C98.64406779661016,38.7,99.66101694915254,38.76,100.6779661016949,38.76C101.69491525423729,38.76,102.71186440677965,38.68,103.72881355932203,38.68C104.7457627118644,38.68,105.76271186440678,38.7,106.77966101694915,38.72C107.79661016949153,38.74,108.8135593220339,38.8,109.83050847457628,38.8C110.84745762711864,38.8,111.86440677966102,38.77333333333333,112.88135593220339,38.76C113.89830508474576,38.74666666666666,114.91525423728814,38.733333333333334,115.9322033898305,38.72C116.94915254237289,38.70666666666666,117.96610169491525,38.70666666666666,118.98305084745763,38.68C120,38.653333333333336,121.01694915254237,38.57333333333333,122.03389830508473,38.519999999999996C123.05084745762711,38.46666666666666,124.0677966101695,38.406666666666666,125.08474576271188,38.36C126.10169491525424,38.31333333333333,127.11864406779662,38.29333333333333,128.135593220339,38.239999999999995C129.15254237288136,38.18666666666666,130.16949152542372,38.086666666666666,131.1864406779661,38.04C132.20338983050846,37.99333333333333,133.22033898305085,37.99333333333333,134.23728813559322,37.96C135.25423728813558,37.92666666666667,136.27118644067798,37.88666666666666,137.28813559322035,37.839999999999996C138.3050847457627,37.79333333333333,139.3220338983051,37.70666666666666,140.33898305084747,37.68C141.35593220338984,37.653333333333336,142.3728813559322,37.666666666666664,143.38983050847457,37.64C144.40677966101694,37.61333333333334,145.42372881355934,37.559999999999995,146.4406779661017,37.519999999999996C147.45762711864407,37.48,148.47457627118644,37.46666666666667,149.4915254237288,37.400000000000006C150.50847457627117,37.33333333333334,151.52542372881356,37.21333333333334,152.54237288135593,37.120000000000005C153.5593220338983,37.02666666666667,154.5762711864407,36.91333333333334,155.59322033898306,36.84C156.61016949152543,36.76666666666667,157.6271186440678,36.74666666666667,158.64406779661016,36.68C159.66101694915253,36.61333333333333,160.67796610169492,36.519999999999996,161.6949152542373,36.44C162.71186440677965,36.36,163.72881355932205,36.29333333333334,164.74576271186442,36.2C165.76271186440678,36.10666666666667,166.77966101694915,35.906666666666666,167.79661016949152,35.88C168.81355932203388,35.85333333333334,169.83050847457628,35.85333333333334,170.84745762711864,35.84C171.864406779661,35.82666666666667,172.8813559322034,35.81333333333333,173.89830508474577,35.8C174.91525423728814,35.78666666666666,175.93220338983053,35.76,176.9491525423729,35.76C177.96610169491527,35.76,178.98305084745763,35.96,180,36.160000000000004"></path><path class="axis-ceiling" stroke-width="1" stroke="black" fill="none" d="M175,0L180,0"></path><text class="axis-ceiling-label" font-family="sans-serif" text-anchor="end" font-size="10px" x="170" y="2.5">1000</text></g></svg>