<svg xmlns="http://www.w3.org/2000/svg" viewBox="0 0 180 60"><g transform="translate(0,20)"><path class="area" fill="rgba(0, 0, 0, 0.2)" d="M0,34.5C1.0169491525423728,34.70833333333333,2.0338983050847457,34.91666666666666,3.0508474576271185,35.099999999999994C4.067796610169491,35.28333333333333,5.084745762711864,35.6,6.101694915254237,35.6C7.11864406779661,35.6,8.135593220338983,35.6,9.152542372881356,35.6C10.169491525423728,35.6,11.186440677966102,35.766666666666666,12.203389830508474,35.9C13.220338983050846,36.03333333333333,14.23728813559322,36.33333333333333,15.254237288135592,36.4C16.271186440677965,36.46666666666667,17.28813559322034,36.449999999999996,18.305084745762713,36.5C19.322033898305087,36.55,20.338983050847457,36.63333333333334,21.35593220338983,36.7C22.372881355932204,36.766666666666666,23.389830508474574,36.85,24.406779661016948,36.9C25.423728813559322,36.949999999999996,26.440677966101696,36.96666666666667,27.45762711864407,37C28.47457627118644,37.03333333333333,29.491525423728813,37.03333333333333,30.508474576271183,37.1C31.525423728813557,37.16666666666667,32.54237288135593,37.33333333333334,33.559322033898304,37.400000000000006C34.57627118644068,37.46666666666667,35.59322033898305,37.43333333333334,36.610169491525426,37.5C37.6271186440678,37.56666666666666,38.644067796610166,37.699999999999996,39.66101694915254,37.8C40.67796610169491,37.9,41.69491525423729,38.1,42.71186440677966,38.1C43.728813559322035,38.1,44.7457627118644,37.9,45.762711864406775,37.9C46.77966101694915,37.9,47.79661016949152,37.9,48.813559322033896,37.9C49.83050847457627,37.9,50.847457627118644,37.96666666666667,51.86440677966102,38C52.88135593220339,38.03333333333333,53.898305084745765,38.1,54.91525423728814,38.1C55.93220338983051,38.1,56.94915254237288,38.05,57.96610169491525,38C58.983050847457626,37.95,59.99999999999999,37.86666666666667,61.01694915254237,37.8C62.03389830508474,37.73333333333333,63.05084745762712,37.599999999999994,64.0677966101695,37.599999999999994C65.08474576271186,37.599999999999994,66.10169491525424,37.8,67.11864406779661,37.8C68.13559322033899,37.8,69.15254237288136,37.64999999999999,70.16949152542374,37.599999999999994C71.1864406779661,37.55,72.20338983050848,37.53333333333333,73.22033898305085,37.5C74.23728813559322,37.46666666666667,75.2542372881356,37.45,76.27118644067797,37.400000000000006C77.28813559322033,37.35000000000001,78.30508474576271,37.266666666666666,79.32203389830508,37.199999999999996C80.33898305084746,37.133333333333326,81.35593220338983,37.05,82.37288135593221,37C83.38983050847457,36.95,84.40677966101696,36.96666666666666,85.42372881355932,36.9C86.4406779661017,36.83333333333333,87.45762711864407,36.7,88.47457627118645,36.6C89.49152542372882,36.5,90.50847457627118,36.3,91.52542372881355,36.3C92.54237288135593,36.3,93.55932203389831,36.3,94.57627118644069,36.3C95.59322033898306,36.3,96.61016949152543,35.81666666666667,97.62711864406779,35.6C98.64406779661016,35.38333333333333,99.66101694915254,35.166666666666664,100.6779661016949,35C101.69491525423729,34.833333333333336,102.71186440677965,34.766666666666666,103.72881355932203,34.6C104.7457627118644,34.43333333333334,105.76271186440678,34.28333333333333,106.77966101694915,34C107.79661016949153,33.71666666666667,108.8135593220339,33.15,109.83050847457628,32.9C110.84745762711864,32.65,111.86440677966102,32.61666666666667,112.88135593220339,32.5C113.89830508474576,32.38333333333333,114.91525423728814,32.36666666666666,115.9322033898305,32.199999999999996C116.94915254237289,32.03333333333333,117.96610169491525,31.71666666666667,118.98305084745763,31.5C120,31.283333333333335,121.01694915254237,31.18333333333333,122.03389830508473,30.9C123.05084745762711,30.616666666666664,124.0677966101695,29.8,125.08474576271188,29.8C126.10169491525424,29.8,127.11864406779662,29.93333333333333,128.135593220339,30.099999999999998C129.15254237288136,30.266666666666666,130.16949152542372,30.8,131.1864406779661,30.8C132.20338983050846,30.8,133.22033898305085,30.133333333333336,134.23728813559322,29.900000000000002C135.25423728813558,29.666666666666668,136.27118644067798,29.733333333333334,137.28813559322035,29.4C138.3050847457627,29.066666666666663,139.3220338983051,28.233333333333334,140.33898305084747,27.599999999999998C141.35593220338984,26.96666666666667,142.3728813559322,26.23333333333333,143.38983050847457,25.6C144.40677966101694,24.966666666666665,145.42372881355934,24.583333333333336,146.4406779661017,23.799999999999997C147.45762711864407,23.016666666666666,148.47457627118644,21.999999999999993,149.4915254237288,20.9C150.50847457627117,19.799999999999997,151.52542372881356,18.250000000000004,152.54237288135593,17.200000000000003C153.5593220338983,16.150000000000002,154.5762711864407,15.250000000000002,155.59322033898306,14.6C156.61016949152543,13.950000000000005,157.6271186440678,13.949999999999996,158.64406779661016,13.3C159.66101694915253,12.65,160.67796610169492,11.533333333333333,161.6949152542373,10.7C162.71186440677965,9.866666666666665,163.72881355932205,9.11666666666667,164.74576271186442,8.3C165.76271186440678,7.483333333333338,166.77966101694915,6.716666666666663,167.79661016949152,5.800000000000001C168.81355932203388,4.88333333333333,169.83050847457628,3.716666666666665,170.84745762711864,2.799999999999998C171.864406779661,1.8833333333333309,172.8813559322034,0.29999999999999805,173.89830508474577,0.29999999999999805C174.91525423728814,0.29999999999999805,175.93220338983053,3.649999999999997,176.9491525423729,4.8C177.96610169491527,5.949999999999992,178.98305084745763,6.574999999999997,180,7.200000000000002L180,40C178.98305084745763,40,177.96610169491527,40,176.9491525423729,40C175.93220338983053,40,174.91525423728814,40,173.89830508474577,40C172.8813559322034,40,171.864406779661,40,170.84745762711864,40C169.83050847457628,40,168.81355932203388,40,167.79661016949152,40C166.77966101694915,40,165.76271186440678,40,164.74576271186442,40C163.72881355932205,40,162.71186440677965,40,161.6949152542373,40C160.67796610169492,40,159.66101694915253,40,158.64406779661016,40C157.6271186440678,40,156.61016949152543,40,155.59322033898306,40C154.5762711864407,40,153.5593220338983,40,152.54237288135593,40C151.52542372881356,40,150.50847457627117,40,149.4915254237288,40C148.47457627118644,40,147.45762711864407,40,146.4406779661017,40C145.42372881355934,40,144.40677966101694,40,143.38983050847457,40C142.3728813559322,40,141.35593220338984,40,140.33898305084747,40C139.3220338983051,40,138.3050847457627,40,137.28813559322035,40C136.27118644067798,40,135.25423728813558,40,134.23728813559322,40C133.22033898305085,40,132.20338983050846,40,131.1864406779661,40C130.16949152542372,40,129.15254237288136,40,128.135593220339,40C127.11864406779662,40,126.10169491525424,40,125.08474576271188,40C124.0677966101695,40,123.05084745762711,40,122.03389830508473,40C121.01694915254237,40,120,40,118.98305084745763,40C117.96610169491525,40,116.94915254237289,40,115.9322033898305,40C114.91525423728814,40,113.89830508474576,40,112.88135593220339,40C111.86440677966102,40,110.84745762711864,40,109.83050847457628,40C108.8135593220339,40,107.79661016949153,40,106.77966101694915,40C105.76271186440678,40,104.7457627118644,40,103.72881355932203,40C102.71186440677965,40,101.69491525423729,40,100.6779661016949,40C99.66101694915254,40,98.64406779661016,40,97.62711864406779,40C96.61016949152543,40,95.59322033898306,40,94.57627118644069,40C93.55932203389831,40,92.54237288135593,40,91.52542372881355,40C90.50847457627118,40,89.49152542372882,40,88.47457627118645,40C87.45762711864407,40,86.4406779661017,40,85.42372881355932,40C84.40677966101696,40,83.38983050847457,40,82.37288135593221,40C81.35593220338983,40,80.33898305084746,40,79.32203389830508,40C78.30508474576271,40,77.28813559322033,40,76.27118644067797,40C75.2542372881356,40,74.23728813559322,40,73.22033898305085,40C72.20338983050848,40,71.1864406779661,40,70.16949152542374,40C69.15254237288136,40,68.13559322033899,40,67.11864406779661,40C66.10169491525424,40,65.08474576271186,40,64.0677966101695,40C63.05084745762712,40,62.03389830508474,40,61.01694915254237,40C59.99999999999999,40,58.983050847457626,40,57.96610169491525,40C56.94915254237288,40,55.93220338983051,40,54.91525423728814,40C53.898305084745765,40,52.88135593220339,40,51.86440677966102,40C50.847457627118644,40,49.83050847457627,40,48.813559322033896,40C47.79661016949152,40,46.77966101694915,40,45.762711864406775,40C44.7457627118644,40,43.728813559322035,40,42.71186440677966,40C41.69491525423729,40,40.67796610169491,40,39.66101694915254,40C38.644067796610166,40,37.6271186440678,40,36.610169491525426,40C35.59322033898305,40,34.57627118644068,40,33.559322033898304,40C32.54237288135593,40,31.525423728813557,40,30.508474576271183,40C29.491525423728813,40,28.47457627118644,40,27.45762711864407,40C26.440677966101696,40,25.423728813559322,40,24.406779661016948,40C23.389830508474574,40,22.372881355932204,40,21.35593220338983,40C20.338983050847457,40,19.322033898305087,40,18.305084745762713,40C17.28813559322034,40,16.271186440677965,40,15.254237288135592,40C14.23728813559322,40,13.220338983050846,40,12.203389830508474,40C11.186440677966102,40,10.169491525423728,40,9.152542372881356,40C8.135593220338983,40,7.11864406779661,40,6.101694915254237,40C5.084745762711864,40,4.067796610169491,40,3.0508474576271185,40C2.0338983050847457,40,1.0169491525423728,40,0,40Z"></path><path class="line" stroke="black" fill="none" d="M0,34.5C1.0169491525423728,34.70833333333333,2.0338983050847457,34.91666666666666,3.0508474576271185,35.099999999999994C4.067796610169491,35.28333333333333,5.084745762711864,35.6,6.101694915254237,35.6C7.11864406779661,35.6,8.135593220338983,35.6,9.152542372881356,35.6C10.169491525423728,35.6,11.186440677966102,35.766666666666666,12.203389830508474,35.9C13.220338983050846,36.03333333333333,14.23728813559322,36.33333333333333,15.254237288135592,36.4C16.271186440677965,36.46666666666667,17.28813559322034,36.449999999999996,18.305084745762713,36.5C19.322033898305087,36.55,20.338983050847457,36.63333333333334,21.35593220338983,36.7C22.372881355932204,36.766666666666666,23.389830508474574,36.85,24.406779661016948,36.9C25.423728813559322,36.949999999999996,26.440677966101696,36.96666666666667,27.45762711864407,37C28.47457627118644,37.03333333333333,29.491525423728813,37.03333333333333,30.508474576271183,37.1C31.525423728813557,37.16666666666667,32.54237288135593,37.33333333333334,33.559322033898304,37.400000000000006C34.57627118644068,37.46666666666667,35.59322033898305,37.43333333333334,36.610169491525426,37.5C37.6271186440678,37.56666666666666,38.644067796610166,37.699999999999996,39.66101694915254,37.8C40.67796610169491,37.9,41.69491525423729,38.1,42.71186440677966,38.1C43.728813559322035,38.1,44.7457627118644,37.9,45.762711864406775,37.9C46.77966101694915,37.9,47.79661016949152,37.9,48.813559322033896,37.9C49.83050847457627,37.9,50.847457627118644,37.96666666666667,51.86440677966102,38C52.88135593220339,38.03333333333333,53.898305084745765,38.1,54.91525423728814,38.1C55.93220338983051,38.1,56.94915254237288,38.05,57.96610169491525,38C58.983050847457626,37.95,59.99999999999999,37.86666666666667,61.01694915254237,37.8C62.03389830508474,37.73333333333333,63.05084745762712,37.599999999999994,64.0677966101695,37.599999999999994C65.08474576271186,37.599999999999994,66.10169491525424,37.8,67.11864406779661,37.8C68.13559322033899,37.8,69.15254237288136,37.64999999999999,70.16949152542374,37.599999999999994C71.1864406779661,37.55,72.20338983050848,37.53333333333333,73.22033898305085,37.5C74.23728813559322,37.46666666666667,75.2542372881356,37.45,76.27118644067797,37.400000000000006C77.28813559322033,37.35000000000001,78.30508474576271,37.266666666666666,79.32203389830508,37.199999999999996C80.33898305084746,37.133333333333326,81.35593220338983,37.05,82.37288135593221,37C83.38983050847457,36.95,84.40677966101696,36.96666666666666,85.42372881355932,36.9C86.4406779661017,36.83333333333333,87.45762711864407,36.7,88.47457627118645,36.6C89.49152542372882,36.5,90.50847457627118,36.3,91.52542372881355,36.3C92.54237288135593,36.3,93.55932203389831,36.3,94.57627118644069,36.3C95.59322033898306,36.3,96.61016949152543,35.81666666666667,97.62711864406779,35.6C98.64406779661016,35.38333333333333,99.66101694915254,35.166666666666664,100.6779661016949,35C101.69491525423729,34.833333333333336,102.71186440677965,34.766666666666666,103.72881355932203,34.6C104.7457627118644,34.43333333333334,105.76271186440678,34.28333333333333,106.77966101694915,34C107.79661016949153,33.71666666666667,108.8135593220339,33.15,109.83050847457628,32.9C110.84745762711864,32.65,111.86440677966102,32.61666666666667,112.88135593220339,32.5C113.89830508474576,32.38333333333333,114.91525423728814,32.36666666666666,115.9322033898305,32.199999999999996C116.94915254237289,32.03333333333333,117.96610169491525,31.71666666666667,118.98305084745763,31.5C120,31.283333333333335,121.01694915254237,31.18333333333333,122.03389830508473,30.9C123.05084745762711,30.616666666666664,124.0677966101695,29.8,125.08474576271188,29.8C126.10169491525424,29.8,127.11864406779662,29.93333333333333,128.135593220339,30.099999999999998C129.15254237288136,30.266666666666666,130.16949152542372,30.8,131.1864406779661,30.8C132.20338983050846,30.8,133.22033898305085,30.133333333333336,134.23728813559322,29.900000000000002C135.25423728813558,29.666666666666668,136.27118644067798,29.733333333333334,137.28813559322035,29.4C138.3050847457627,29.066666666666663,139.3220338983051,28.233333333333334,140.33898305084747,27.599999999999998C141.35593220338984,26.96666666666667,142.3728813559322,26.23333333333333,143.38983050847457,25.6C144.40677966101694,24.966666666666665,145.42372881355934,24.583333333333336,146.4406779661017,23.799999999999997C147.45762711864407,23.016666666666666,148.47457627118644,21.999999999999993,149.4915254237288,20.9C150.50847457627117,19.799999999999997,151.52542372881356,18.250000000000004,152.54237288135593,17.200000000000003C153.5593220338983,16.150000000000002,154.5762711864407,15.250000000000002,155.59322033898306,14.6C156.61016949152543,13.950000000000005,157.6271186440678,13.949999999999996,158.64406779661016,13.3C159.66101694915253,12.65,160.67796610169492,11.533333333333333,161.6949152542373,10.7C162.71186440677965,9.866666666666665,163.72881355932205,9.11666666666667,164.74576271186442,8.3C165.76271186440678,7.483333333333338,166.77966101694915,6.716666666666663,167.79661016949152,5.800000000000001C168.81355932203388,4.88333333333333,169.83050847457628,3.716666666666665,170.84745762711864,2.799999999999998C171.864406779661,1.8833333333333309,172.8813559322034,0.29999999999999805,173.89830508474577,0.29999999999999805C174.91525423728814,0.29999999999999805,175.93220338983053,3.649999999999997,176.9491525423729,4.8C177.96610169491527,5.949999999999992,178.98305084745763,6.574999999999997,180,7.200000000000002"></path><path class="axis-ceiling" stroke-width="1" stroke="black" fill="none" d="M175,0L180,0"></path><text class="axis-ceiling-label" font-family="sans-serif" text-anchor="end" font-size="10px" x="170" y="2.5">400</text></g></svg>