<svg xmlns="http://www.w3.org/2000/svg" viewBox="0 0 180 60"><g transform="translate(0,20)"><path class="area" fill="rgba(0, 0, 0, 0.2)" d="M0,39.548C1.0169491525423728,39.513666666666666,2.0338983050847457,39.47933333333334,3.0508474576271185,39.456C4.067796610169491,39.43266666666667,5.084745762711864,39.440000000000005,6.101694915254237,39.408C7.11864406779661,39.376,8.135593220338983,39.26733333333334,9.152542372881356,39.148C10.169491525423728,39.02866666666667,11.186440677966102,38.842666666666666,12.203389830508474,38.692C13.220338983050846,38.541333333333334,14.23728813559322,38.40866666666667,15.254237288135592,38.244C16.271186440677965,38.07933333333333,17.28813559322034,37.90266666666667,18.305084745762713,37.704C19.322033898305087,37.50533333333333,20.338983050847457,37.20933333333333,21.35593220338983,37.052C22.372881355932204,36.894666666666666,23.389830508474574,36.95466666666667,24.406779661016948,36.760000000000005C25.423728813559322,36.56533333333334,26.440677966101696,36.220666666666666,27.45762711864407,35.884C28.47457627118644,35.547333333333334,29.491525423728813,35.08133333333333,30.508474576271183,34.74C31.525423728813557,34.39866666666667,32.54237288135593,34.178666666666665,33.559322033898304,33.836C34.57627118644068,33.49333333333333,35.59322033898305,33.022,36.610169491525426,32.684C37.6271186440678,32.346,38.644067796610166,32.082,39.66101694915254,31.808C40.67796610169491,31.534,41.69491525423729,31.278,42.71186440677966,31.04C43.728813559322035,30.802,44.7457627118644,30.653333333333336,45.762711864406775,30.380000000000003C46.77966101694915,30.10666666666667,47.79661016949152,29.733999999999998,48.813559322033896,29.4C49.83050847457627,29.066,50.847457627118644,28.720000000000002,51.86440677966102,28.376C52.88135593220339,28.032,53.898305084745765,27.642666666666667,54.91525423728814,27.336C55.93220338983051,27.029333333333334,56.94915254237288,26.85066666666667,57.96610169491525,26.536C58.983050847457626,26.221333333333334,59.99999999999999,25.797333333333334,61.01694915254237,25.448C62.03389830508474,25.098666666666666,63.05084745762712,24.718666666666664,64.0677966101695,24.439999999999998C65.08474576271186,24.16133333333333,66.10169491525424,24.037333333333336,67.11864406779661,23.776000000000003C68.13559322033899,23.51466666666667,69.15254237288136,23.176000000000002,70.16949152542374,22.872C71.1864406779661,22.568,72.20338983050848,22.314666666666664,73.22033898305085,21.951999999999998C74.23728813559322,21.589333333333332,75.2542372881356,21.02533333333334,76.27118644067797,20.696000000000005C77.28813559322033,20.36666666666667,78.30508474576271,20.212,79.32203389830508,19.976C80.33898305084746,19.74,81.35593220338983,19.485333333333333,82.37288135593221,19.28C83.38983050847457,19.07466666666667,84.40677966101696,18.876666666666665,85.42372881355932,18.744C86.4406779661017,18.61133333333333,87.45762711864407,18.657333333333334,88.47457627118645,18.483999999999998C89.49152542372882,18.310666666666666,90.50847457627118,17.781333333333333,91.52542372881355,17.696C92.54237288135593,17.610666666666667,93.55932203389831,17.596666666666668,94.57627118644069,17.568C95.59322033898306,17.539333333333335,96.61016949152543,17.524,97.62711864406779,17.524C98.64406779661016,17.524,99.66101694915254,17.542666666666666,100.6779661016949,17.58C101.69491525423729,17.61733333333333,102.71186440677965,18.769333333333336,103.72881355932203,19.060000000000002C104.7457627118644,19.35066666666667,105.76271186440678,19.424000000000003,106.77966101694915,19.496000000000002C107.79661016949153,19.568,108.8135593220339,19.532,109.83050847457628,19.604C110.84745762711864,19.676,111.86440677966102,20.15933333333334,112.88135593220339,20.376000000000005C113.89830508474576,20.59266666666667,114.91525423728814,20.648666666666664,115.9322033898305,20.903999999999996C116.94915254237289,21.15933333333333,117.96610169491525,21.737333333333332,118.98305084745763,21.908C120,22.078666666666667,121.01694915254237,22.164,122.03389830508473,22.164C123.05084745762711,22.164,124.0677966101695,21.28,125.08474576271188,21.28C126.10169491525424,21.28,127.11864406779662,21.340666666666667,128.135593220339,21.44C129.15254237288136,21.539333333333335,130.16949152542372,21.711333333333332,131.1864406779661,21.875999999999998C132.20338983050846,22.040666666666663,133.22033898305085,22.29133333333333,134.23728813559322,22.427999999999997C135.25423728813558,22.564666666666664,136.27118644067798,22.517333333333333,137.28813559322035,22.696C138.3050847457627,22.87466666666667,139.3220338983051,23.522,140.33898305084747,23.872C141.35593220338984,24.221999999999998,142.3728813559322,24.574666666666666,143.38983050847457,24.796C144.40677966101694,25.017333333333333,145.42372881355934,25.06533333333333,146.4406779661017,25.2C147.45762711864407,25.334666666666664,148.47457627118644,25.494,149.4915254237288,25.604C150.50847457627117,25.714000000000002,151.52542372881356,25.77866666666667,152.54237288135593,25.860000000000003C153.5593220338983,25.941333333333336,154.5762711864407,25.962,155.59322033898306,26.092C156.61016949152543,26.221999999999998,157.6271186440678,26.639999999999997,158.64406779661016,26.639999999999997C159.66101694915253,26.639999999999997,160.67796610169492,26.232,161.6949152542373,26.232C162.71186440677965,26.232,163.72881355932205,26.234666666666666,164.74576271186442,26.240000000000002C165.76271186440678,26.24533333333334,166.77966101694915,26.485333333333337,167.79661016949152,26.592000000000002C168.81355932203388,26.698666666666668,169.83050847457628,26.766666666666662,170.84745762711864,26.879999999999995C171.864406779661,26.99333333333333,172.8813559322034,27.16133333333333,173.89830508474577,27.272C174.91525423728814,27.382666666666665,175.93220338983053,27.474666666666668,176.9491525423729,27.544C177.96610169491527,27.613333333333333,178.98305084745763,27.650666666666663,180,27.687999999999995L180,40C178.98305084745763,40,177.96610169491527,40,176.9491525423729,40C175.93220338983053,40,174.91525423728814,40,173.89830508474577,40C172.8813559322034,40,171.864406779661,40,170.84745762711864,40C169.83050847457628,40,168.81355932203388,40,167.79661016949152,40C166.77966101694915,40,165.76271186440678,40,164.74576271186442,40C163.72881355932205,40,162.71186440677965,40,161.6949152542373,40C160.67796610169492,40,159.66101694915253,40,158.64406779661016,40C157.6271186440678,40,156.61016949152543,40,155.59322033898306,40C154.5762711864407,40,153.5593220338983,40,152.54237288135593,40C151.52542372881356,40,150.50847457627117,40,149.4915254237288,40C148.47457627118644,40,147.45762711864407,40,146.4406779661017,40C145.42372881355934,40,144.40677966101694,40,143.38983050847457,40C142.3728813559322,40,141.35593220338984,40,140.33898305084747,40C139.3220338983051,40,138.3050847457627,40,137.28813559322035,40C136.27118644067798,40,135.25423728813558,40,134.23728813559322,40C133.22033898305085,40,132.20338983050846,40,131.1864406779661,40C130.16949152542372,40,129.15254237288136,40,128.135593220339,40C127.11864406779662,40,126.10169491525424,40,125.08474576271188,40C124.0677966101695,40,123.05084745762711,40,122.03389830508473,40C121.01694915254237,40,120,40,118.98305084745763,40C117.96610169491525,40,116.94915254237289,40,115.9322033898305,40C114.91525423728814,40,113.89830508474576,40,112.88135593220339,40C111.86440677966102,40,110.84745762711864,40,109.83050847457628,40C108.8135593220339,40,107.79661016949153,40,106.77966101694915,40C105.76271186440678,40,104.7457627118644,40,103.72881355932203,40C102.71186440677965,40,101.69491525423729,40,100.6779661016949,40C99.66101694915254,40,98.64406779661016,40,97.62711864406779,40C96.61016949152543,40,95.59322033898306,40,94.57627118644069,40C93.55932203389831,40,92.54237288135593,40,91.52542372881355,40C90.50847457627118,40,89.49152542372882,40,88.47457627118645,40C87.45762711864407,40,86.4406779661017,40,85.42372881355932,40C84.40677966101696,40,83.38983050847457,40,82.37288135593221,40C81.35593220338983,40,80.33898305084746,40,79.32203389830508,40C78.30508474576271,40,77.28813559322033,40,76.27118644067797,40C75.2542372881356,40,74.23728813559322,40,73.22033898305085,40C72.20338983050848,40,71.1864406779661,40,70.16949152542374,40C69.15254237288136,40,68.13559322033899,40,67.11864406779661,40C66.10169491525424,40,65.08474576271186,40,64.0677966101695,40C63.05084745762712,40,62.03389830508474,40,61.01694915254237,40C59.99999999999999,40,58.983050847457626,40,57.96610169491525,40C56.94915254237288,40,55.93220338983051,40,54.91525423728814,40C53.898305084745765,40,52.88135593220339,40,51.86440677966102,40C50.847457627118644,40,49.83050847457627,40,48.813559322033896,40C47.79661016949152,40,46.77966101694915,40,45.762711864406775,40C44.7457627118644,40,43.728813559322035,40,42.71186440677966,40C41.69491525423729,40,40.67796610169491,40,39.66101694915254,40C38.644067796610166,40,37.6271186440678,40,36.610169491525426,40C35.59322033898305,40,34.57627118644068,40,33.559322033898304,40C32.54237288135593,40,31.525423728813557,40,30.508474576271183,40C29.491525423728813,40,28.47457627118644,40,27.45762711864407,40C26.440677966101696,40,25.423728813559322,40,24.406779661016948,40C23.389830508474574,40,22.372881355932204,40,21.35593220338983,40C20.338983050847457,40,19.322033898305087,40,18.305084745762713,40C17.28813559322034,40,16.271186440677965,40,15.254237288135592,40C14.23728813559322,40,13.220338983050846,40,12.203389830508474,40C11.186440677966102,40,10.169491525423728,40,9.152542372881356,40C8.135593220338983,40,7.11864406779661,40,6.101694915254237,40C5.084745762711864,40,4.067796610169491,40,3.0508474576271185,40C2.0338983050847457,40,1.0169491525423728,40,0,40Z"></path><path class="line" stroke="black" fill="none" d="M0,39.548C1.0169491525423728,39.513666666666666,2.0338983050847457,39.47933333333334,3.0508474576271185,39.456C4.067796610169491,39.43266666666667,5.084745762711864,39.440000000000005,6.101694915254237,39.408C7.11864406779661,39.376,8.135593220338983,39.26733333333334,9.152542372881356,39.148C10.169491525423728,39.02866666666667,11.186440677966102,38.842666666666666,12.203389830508474,38.692C13.220338983050846,38.541333333333334,14.23728813559322,38.40866666666667,15.254237288135592,38.244C16.271186440677965,38.07933333333333,17.28813559322034,37.90266666666667,18.305084745762713,37.704C19.322033898305087,37.50533333333333,20.338983050847457,37.20933333333333,21.35593220338983,37.052C22.372881355932204,36.894666666666666,23.389830508474574,36.95466666666667,24.406779661016948,36.760000000000005C25.423728813559322,36.56533333333334,26.440677966101696,36.220666666666666,27.45762711864407,35.884C28.47457627118644,35.547333333333334,29.491525423728813,35.08133333333333,30.508474576271183,34.74C31.525423728813557,34.39866666666667,32.54237288135593,34.178666666666665,33.559322033898304,33.836C34.57627118644068,33.49333333333333,35.59322033898305,33.022,36.610169491525426,32.684C37.6271186440678,32.346,38.644067796610166,32.082,39.66101694915254,31.808C40.67796610169491,31.534,41.69491525423729,31.278,42.71186440677966,31.04C43.728813559322035,30.802,44.7457627118644,30.653333333333336,45.762711864406775,30.380000000000003C46.77966101694915,30.10666666666667,47.79661016949152,29.733999999999998,48.813559322033896,29.4C49.83050847457627,29.066,50.847457627118644,28.720000000000002,51.86440677966102,28.376C52.88135593220339,28.032,53.898305084745765,27.642666666666667,54.91525423728814,27.336C55.93220338983051,27.029333333333334,56.94915254237288,26.85066666666667,57.96610169491525,26.536C58.983050847457626,26.221333333333334,59.99999999999999,25.797333333333334,61.01694915254237,25.448C62.03389830508474,25.098666666666666,63.05084745762712,24.718666666666664,64.0677966101695,24.439999999999998C65.08474576271186,24.16133333333333,66.10169491525424,24.037333333333336,67.11864406779661,23.776000000000003C68.13559322033899,23.51466666666667,69.15254237288136,23.176000000000002,70.16949152542374,22.872C71.1864406779661,22.568,72.20338983050848,22.314666666666664,73.22033898305085,21.951999999999998C74.23728813559322,21.589333333333332,75.2542372881356,21.02533333333334,76.27118644067797,20.696000000000005C77.28813559322033,20.36666666666667,78.30508474576271,20.212,79.32203389830508,19.976C80.33898305084746,19.74,81.35593220338983,19.485333333333333,82.37288135593221,19.28C83.38983050847457,19.07466666666667,84.40677966101696,18.876666666666665,85.42372881355932,18.744C86.4406779661017,18.61133333333333,87.45762711864407,18.657333333333334,88.47457627118645,18.483999999999998C89.49152542372882,18.310666666666666,90.50847457627118,17.781333333333333,91.52542372881355,17.696C92.54237288135593,17.610666666666667,93.55932203389831,17.596666666666668,94.57627118644069,17.568C95.59322033898306,17.539333333333335,96.61016949152543,17.524,97.62711864406779,17.524C98.64406779661016,17.524,99.66101694915254,17.542666666666666,100.6779661016949,17.58C101.69491525423729,17.61733333333333,102.71186440677965,18.769333333333336,103.72881355932203,19.060000000000002C104.7457627118644,19.35066666666667,105.76271186440678,19.424000000000003,106.77966101694915,19.496000000000002C107.79661016949153,19.568,108.8135593220339,19.532,109.83050847457628,19.604C110.84745762711864,19.676,111.86440677966102,20.15933333333334,112.88135593220339,20.376000000000005C113.89830508474576,20.59266666666667,114.91525423728814,20.648666666666664,115.9322033898305,20.903999999999996C116.94915254237289,21.15933333333333,117.96610169491525,21.737333333333332,118.98305084745763,21.908C120,22.078666666666667,121.01694915254237,22.164,122.03389830508473,22.164C123.05084745762711,22.164,124.0677966101695,21.28,125.08474576271188,21.28C126.10169491525424,21.28,127.11864406779662,21.340666666666667,128.135593220339,21.44C129.15254237288136,21.539333333333335,130.16949152542372,21.711333333333332,131.1864406779661,21.875999999999998C132.20338983050846,22.040666666666663,133.22033898305085,22.29133333333333,134.23728813559322,22.427999999999997C135.25423728813558,22.564666666666664,136.27118644067798,22.517333333333333,137.28813559322035,22.696C138.3050847457627,22.87466666666667,139.3220338983051,23.522,140.33898305084747,23.872C141.35593220338984,24.221999999999998,142.3728813559322,24.574666666666666,143.38983050847457,24.796C144.40677966101694,25.017333333333333,145.42372881355934,25.06533333333333,146.4406779661017,25.2C147.45762711864407,25.334666666666664,148.47457627118644,25.494,149.4915254237288,25.604C150.50847457627117,25.714000000000002,151.52542372881356,25.77866666666667,152.54237288135593,25.860000000000003C153.5593220338983,25.941333333333336,154.5762711864407,25.962,155.59322033898306,26.092C156.61016949152543,26.221999999999998,157.6271186440678,26.639999999999997,158.64406779661016,26.639999999999997C159.66101694915253,26.639999999999997,160.67796610169492,26.232,161.6949152542373,26.232C162.71186440677965,26.232,163.72881355932205,26.234666666666666,164.74576271186442,26.240000000000002C165.76271186440678,26.24533333333334,166.77966101694915,26.485333333333337,167.79661016949152,26.592000000000002C168.81355932203388,26.698666666666668,169.83050847457628,26.766666666666662,170.84745762711864,26.879999999999995C171.864406779661,26.99333333333333,172.8813559322034,27.16133333333333,173.89830508474577,27.272C174.91525423728814,27.382666666666665,175.93220338983053,27.474666666666668,176.9491525423729,27.544C177.96610169491527,27.613333333333333,178.98305084745763,27.650666666666663,180,27.687999999999995"></path><path class="axis-ceiling" stroke-width="1" stroke="black" fill="none" d="M175,0L180,0"></path><text class="axis-ceiling-label" font-family="sans-serif" text-anchor="end" font-size="10px" x="170" y="2.5">10000</text></g></svg>