<svg xmlns="http://www.w3.org/2000/svg" viewBox="0 0 180 60"><g transform="translate(0,20)"><path class="area" fill="rgba(0, 0, 0, 0.2)" d="M0,30.616C1.0344827586206897,30.721333333333334,2.068965517241379,30.826666666666664,3.103448275862069,30.887999999999998C4.137931034482759,30.949333333333332,5.172413793103448,30.919999999999998,6.206896551724138,30.983999999999998C7.241379310344827,31.048,8.275862068965516,31.688000000000002,9.310344827586206,31.688000000000002C10.344827586206897,31.688000000000002,11.379310344827585,30.674666666666667,12.413793103448276,28.647999999999996C13.448275862068966,26.621333333333325,14.482758620689655,17.976,15.517241379310345,17.976C16.551724137931036,17.976,17.586206896551722,19.616,18.620689655172413,19.616C19.655172413793103,19.616,20.689655172413794,17.944,21.724137931034484,17.944C22.758620689655174,17.944,23.79310344827586,24.424,24.82758620689655,24.424C25.862068965517242,24.424,26.896551724137932,18.248,27.931034482758623,18.248C28.965517241379313,18.248,30,20.208,31.03448275862069,20.208C32.06896551724138,20.208,33.103448275862064,17.798666666666666,34.137931034482754,16.248C35.172413793103445,14.697333333333333,36.206896551724135,10.903999999999998,37.241379310344826,10.903999999999998C38.275862068965516,10.903999999999998,39.310344827586206,12.176,40.3448275862069,12.176C41.37931034482759,12.176,42.41379310344828,9.784000000000002,43.44827586206897,9.784000000000002C44.48275862068966,9.784000000000002,45.51724137931035,12.457333333333331,46.55172413793104,13.559999999999999C47.58620689655173,14.662666666666663,48.62068965517241,16.400000000000002,49.6551724137931,16.400000000000002C50.689655172413794,16.400000000000002,51.72413793103448,10.377333333333333,52.75862068965517,8.128000000000002C53.79310344827586,5.8786666666666605,54.827586206896555,3.9493333333333385,55.862068965517246,2.904C56.896551724137936,1.8586666666666665,57.93103448275862,1.3359999999999994,58.96551724137931,1.3359999999999994C60,1.3359999999999994,61.03448275862069,1.7279999999999984,62.06896551724138,2.3360000000000003C63.10344827586207,2.944000000000001,64.13793103448276,3.2186666666666675,65.17241379310344,4.984000000000002C66.20689655172413,6.749333333333336,67.24137931034483,16.125333333333337,68.27586206896551,16.904C69.3103448275862,17.682666666666666,70.34482758620689,18.072,71.37931034482759,18.072C72.41379310344827,18.072,73.44827586206897,17.48,74.48275862068965,16.296C75.51724137931033,15.112,76.55172413793103,3.3519999999999994,77.58620689655172,3.3519999999999994C78.62068965517241,3.3519999999999994,79.6551724137931,10.246666666666659,80.6896551724138,13.312C81.72413793103448,16.377333333333326,82.75862068965517,21.744000000000003,83.79310344827586,21.744000000000003C84.82758620689656,21.744000000000003,85.86206896551724,14.575999999999997,86.89655172413794,14.575999999999997C87.93103448275862,14.575999999999997,88.96551724137932,17.62266666666667,90,19.544C91.0344827586207,21.465333333333337,92.06896551724138,26.104000000000003,93.10344827586208,26.104000000000003C94.13793103448276,26.104000000000003,95.17241379310344,22.177333333333312,96.20689655172413,19.04C97.24137931034483,15.902666666666658,98.27586206896551,10.192000000000004,99.3103448275862,7.280000000000002C100.3448275862069,4.368000000000001,101.37931034482759,1.7013333333333351,102.41379310344828,1.5680000000000005C103.44827586206897,1.434666666666667,104.48275862068965,1.3680000000000003,105.51724137931033,1.3680000000000003C106.55172413793103,1.3680000000000003,107.58620689655172,4.408000000000001,108.62068965517241,5.800000000000001C109.65517241379311,7.192,110.6896551724138,7.405333333333322,111.72413793103449,9.719999999999999C112.75862068965517,12.034666666666665,113.79310344827587,19.688,114.82758620689656,19.688C115.86206896551724,19.688,116.89655172413794,10.508,117.93103448275862,7.6880000000000015C118.96551724137932,4.86799999999999,120,2.7680000000000016,121.0344827586207,2.7680000000000016C122.06896551724138,2.7680000000000016,123.10344827586208,11.112000000000002,124.13793103448276,11.112000000000002C125.17241379310344,11.112000000000002,126.20689655172414,9.672,127.24137931034483,9.672C128.27586206896552,9.672,129.3103448275862,10.426666666666668,130.3448275862069,11.936C131.3793103448276,13.445333333333346,132.41379310344828,19.797333333333334,133.44827586206898,22.080000000000002C134.48275862068965,24.362666666666627,135.51724137931035,25.632,136.55172413793102,25.632C137.58620689655172,25.632,138.6206896551724,13.248000000000001,139.6551724137931,13.248000000000001C140.6896551724138,13.248000000000001,141.72413793103448,14.719999999999999,142.75862068965517,15.983999999999998C143.79310344827587,17.247999999999998,144.82758620689654,20.25066666666666,145.86206896551724,20.831999999999997C146.89655172413794,21.413333333333334,147.9310344827586,21.24533333333334,148.9655172413793,21.704C150,22.162666666666667,151.0344827586207,23.106666666666666,152.0689655172414,23.584C153.10344827586206,24.061333333333327,154.13793103448276,23.912000000000003,155.17241379310343,24.568000000000005C156.20689655172413,25.22400000000002,157.24137931034483,31.879999999999995,158.27586206896552,31.879999999999995C159.31034482758622,31.879999999999995,160.3448275862069,19.008,161.3793103448276,19.008C162.41379310344828,19.008,163.44827586206895,19.272,164.48275862068965,19.8C165.51724137931035,20.328000000000003,166.55172413793102,23.716,167.58620689655172,25.095999999999997C168.6206896551724,26.476000000000006,169.6551724137931,28.08,170.6896551724138,28.08C171.7241379310345,28.08,172.75862068965517,25.328,173.79310344827587,25.328C174.82758620689657,25.328,175.86206896551724,27.099999999999998,176.89655172413794,28.759999999999998C177.93103448275863,30.419999999999998,178.9655172413793,32.854,180,35.288L180,40C178.9655172413793,40,177.93103448275863,40,176.89655172413794,40C175.86206896551724,40,174.82758620689657,40,173.79310344827587,40C172.75862068965517,40,171.7241379310345,40,170.6896551724138,40C169.6551724137931,40,168.6206896551724,40,167.58620689655172,40C166.55172413793102,40,165.51724137931035,40,164.48275862068965,40C163.44827586206895,40,162.41379310344828,40,161.3793103448276,40C160.3448275862069,40,159.31034482758622,40,158.27586206896552,40C157.24137931034483,40,156.20689655172413,40,155.17241379310343,40C154.13793103448276,40,153.10344827586206,40,152.0689655172414,40C151.0344827586207,40,150,40,148.9655172413793,40C147.9310344827586,40,146.89655172413794,40,145.86206896551724,40C144.82758620689654,40,143.79310344827587,40,142.75862068965517,40C141.72413793103448,40,140.6896551724138,40,139.6551724137931,40C138.6206896551724,40,137.58620689655172,40,136.55172413793102,40C135.51724137931035,40,134.48275862068965,40,133.44827586206898,40C132.41379310344828,40,131.3793103448276,40,130.3448275862069,40C129.3103448275862,40,128.27586206896552,40,127.24137931034483,40C126.20689655172414,40,125.17241379310344,40,124.13793103448276,40C123.10344827586208,40,122.06896551724138,40,121.0344827586207,40C120,40,118.96551724137932,40,117.93103448275862,40C116.89655172413794,40,115.86206896551724,40,114.82758620689656,40C113.79310344827587,40,112.75862068965517,40,111.72413793103449,40C110.6896551724138,40,109.65517241379311,40,108.62068965517241,40C107.58620689655172,40,106.55172413793103,40,105.51724137931033,40C104.48275862068965,40,103.44827586206897,40,102.41379310344828,40C101.37931034482759,40,100.3448275862069,40,99.3103448275862,40C98.27586206896551,40,97.24137931034483,40,96.20689655172413,40C95.17241379310344,40,94.13793103448276,40,93.10344827586208,40C92.06896551724138,40,91.0344827586207,40,90,40C88.96551724137932,40,87.93103448275862,40,86.89655172413794,40C85.86206896551724,40,84.82758620689656,40,83.79310344827586,40C82.75862068965517,40,81.72413793103448,40,80.6896551724138,40C79.6551724137931,40,78.62068965517241,40,77.58620689655172,40C76.55172413793103,40,75.51724137931033,40,74.48275862068965,40C73.44827586206897,40,72.41379310344827,40,71.37931034482759,40C70.34482758620689,40,69.3103448275862,40,68.27586206896551,40C67.24137931034483,40,66.20689655172413,40,65.17241379310344,40C64.13793103448276,40,63.10344827586207,40,62.06896551724138,40C61.03448275862069,40,60,40,58.96551724137931,40C57.93103448275862,40,56.896551724137936,40,55.862068965517246,40C54.827586206896555,40,53.79310344827586,40,52.75862068965517,40C51.72413793103448,40,50.689655172413794,40,49.6551724137931,40C48.62068965517241,40,47.58620689655173,40,46.55172413793104,40C45.51724137931035,40,44.48275862068966,40,43.44827586206897,40C42.41379310344828,40,41.37931034482759,40,40.3448275862069,40C39.310344827586206,40,38.275862068965516,40,37.241379310344826,40C36.206896551724135,40,35.172413793103445,40,34.137931034482754,40C33.103448275862064,40,32.06896551724138,40,31.03448275862069,40C30,40,28.965517241379313,40,27.931034482758623,40C26.896551724137932,40,25.862068965517242,40,24.82758620689655,40C23.79310344827586,40,22.758620689655174,40,21.724137931034484,40C20.689655172413794,40,19.655172413793103,40,18.620689655172413,40C17.586206896551722,40,16.551724137931036,40,15.517241379310345,40C14.482758620689655,40,13.448275862068966,40,12.413793103448276,40C11.379310344827585,40,10.344827586206897,40,9.310344827586206,40C8.275862068965516,40,7.241379310344827,40,6.206896551724138,40C5.172413793103448,40,4.137931034482759,40,3.103448275862069,40C2.068965517241379,40,1.0344827586206897,40,0,40Z"></path><path class="line" stroke="black" fill="none" d="M0,30.616C1.0344827586206897,30.721333333333334,2.068965517241379,30.826666666666664,3.103448275862069,30.887999999999998C4.137931034482759,30.949333333333332,5.172413793103448,30.919999999999998,6.206896551724138,30.983999999999998C7.241379310344827,31.048,8.275862068965516,31.688000000000002,9.310344827586206,31.688000000000002C10.344827586206897,31.688000000000002,11.379310344827585,30.674666666666667,12.413793103448276,28.647999999999996C13.448275862068966,26.621333333333325,14.482758620689655,17.976,15.517241379310345,17.976C16.551724137931036,17.976,17.586206896551722,19.616,18.620689655172413,19.616C19.655172413793103,19.616,20.689655172413794,17.944,21.724137931034484,17.944C22.758620689655174,17.944,23.79310344827586,24.424,24.82758620689655,24.424C25.862068965517242,24.424,26.896551724137932,18.248,27.931034482758623,18.248C28.965517241379313,18.248,30,20.208,31.03448275862069,20.208C32.06896551724138,20.208,33.103448275862064,17.798666666666666,34.137931034482754,16.248C35.172413793103445,14.697333333333333,36.206896551724135,10.903999999999998,37.241379310344826,10.903999999999998C38.275862068965516,10.903999999999998,39.310344827586206,12.176,40.3448275862069,12.176C41.37931034482759,12.176,42.41379310344828,9.784000000000002,43.44827586206897,9.784000000000002C44.48275862068966,9.784000000000002,45.51724137931035,12.457333333333331,46.55172413793104,13.559999999999999C47.58620689655173,14.662666666666663,48.62068965517241,16.400000000000002,49.6551724137931,16.400000000000002C50.689655172413794,16.400000000000002,51.72413793103448,10.377333333333333,52.75862068965517,8.128000000000002C53.79310344827586,5.8786666666666605,54.827586206896555,3.9493333333333385,55.862068965517246,2.904C56.896551724137936,1.8586666666666665,57.93103448275862,1.3359999999999994,58.96551724137931,1.3359999999999994C60,1.3359999999999994,61.03448275862069,1.7279999999999984,62.06896551724138,2.3360000000000003C63.10344827586207,2.944000000000001,64.13793103448276,3.2186666666666675,65.17241379310344,4.984000000000002C66.20689655172413,6.749333333333336,67.24137931034483,16.125333333333337,68.27586206896551,16.904C69.3103448275862,17.682666666666666,70.34482758620689,18.072,71.37931034482759,18.072C72.41379310344827,18.072,73.44827586206897,17.48,74.48275862068965,16.296C75.51724137931033,15.112,76.55172413793103,3.3519999999999994,77.58620689655172,3.3519999999999994C78.62068965517241,3.3519999999999994,79.6551724137931,10.246666666666659,80.6896551724138,13.312C81.72413793103448,16.377333333333326,82.75862068965517,21.744000000000003,83.79310344827586,21.744000000000003C84.82758620689656,21.744000000000003,85.86206896551724,14.575999999999997,86.89655172413794,14.575999999999997C87.93103448275862,14.575999999999997,88.96551724137932,17.62266666666667,90,19.544C91.0344827586207,21.465333333333337,92.06896551724138,26.104000000000003,93.10344827586208,26.104000000000003C94.13793103448276,26.104000000000003,95.17241379310344,22.177333333333312,96.20689655172413,19.04C97.24137931034483,15.902666666666658,98.27586206896551,10.192000000000004,99.3103448275862,7.280000000000002C100.3448275862069,4.368000000000001,101.37931034482759,1.7013333333333351,102.41379310344828,1.5680000000000005C103.44827586206897,1.434666666666667,104.48275862068965,1.3680000000000003,105.51724137931033,1.3680000000000003C106.55172413793103,1.3680000000000003,107.58620689655172,4.408000000000001,108.62068965517241,5.800000000000001C109.65517241379311,7.192,110.6896551724138,7.405333333333322,111.72413793103449,9.719999999999999C112.75862068965517,12.034666666666665,113.79310344827587,19.688,114.82758620689656,19.688C115.86206896551724,19.688,116.89655172413794,10.508,117.93103448275862,7.6880000000000015C118.96551724137932,4.86799999999999,120,2.7680000000000016,121.0344827586207,2.7680000000000016C122.06896551724138,2.7680000000000016,123.10344827586208,11.112000000000002,124.13793103448276,11.112000000000002C125.17241379310344,11.112000000000002,126.20689655172414,9.672,127.24137931034483,9.672C128.27586206896552,9.672,129.3103448275862,10.426666666666668,130.3448275862069,11.936C131.3793103448276,13.445333333333346,132.41379310344828,19.797333333333334,133.44827586206898,22.080000000000002C134.48275862068965,24.362666666666627,135.51724137931035,25.632,136.55172413793102,25.632C137.58620689655172,25.632,138.6206896551724,13.248000000000001,139.6551724137931,13.248000000000001C140.6896551724138,13.248000000000001,141.72413793103448,14.719999999999999,142.75862068965517,15.983999999999998C143.79310344827587,17.247999999999998,144.82758620689654,20.25066666666666,145.86206896551724,20.831999999999997C146.89655172413794,21.413333333333334,147.9310344827586,21.24533333333334,148.9655172413793,21.704C150,22.162666666666667,151.0344827586207,23.106666666666666,152.0689655172414,23.584C153.10344827586206,24.061333333333327,154.13793103448276,23.912000000000003,155.17241379310343,24.568000000000005C156.20689655172413,25.22400000000002,157.24137931034483,31.879999999999995,158.27586206896552,31.879999999999995C159.31034482758622,31.879999999999995,160.3448275862069,19.008,161.3793103448276,19.008C162.41379310344828,19.008,163.44827586206895,19.272,164.48275862068965,19.8C165.51724137931035,20.328000000000003,166.55172413793102,23.716,167.58620689655172,25.095999999999997C168.6206896551724,26.476000000000006,169.6551724137931,28.08,170.6896551724138,28.08C171.7241379310345,28.08,172.75862068965517,25.328,173.79310344827587,25.328C174.82758620689657,25.328,175.86206896551724,27.099999999999998,176.89655172413794,28.759999999999998C177.93103448275863,30.419999999999998,178.9655172413793,32.854,180,35.288"></path><path class="axis-ceiling" stroke-width="1" stroke="black" fill="none" d="M175,0L180,0"></path><text class="axis-ceiling-label" font-family="sans-serif" text-anchor="end" font-size="10px" x="170" y="2.5">5000</text></g></svg>