<svg xmlns="http://www.w3.org/2000/svg" viewBox="0 0 180 60"><g transform="translate(0,20)"><path class="area" fill="rgba(0, 0, 0, 0.2)" d="M0,18.666666666666668C1.0344827586206897,15.222222222222221,2.068965517241379,11.777777777777775,3.103448275862069,11.333333333333332C4.137931034482759,10.88888888888889,5.172413793103448,11.11111111111111,6.206896551724138,10.666666666666668C7.241379310344827,10.222222222222225,8.275862068965516,4.933333333333332,9.310344827586206,4.933333333333332C10.344827586206897,4.933333333333332,11.379310344827585,4.933333333333332,12.413793103448276,4.933333333333332C13.448275862068966,4.933333333333332,14.482758620689655,5.111111111111111,15.517241379310345,5.466666666666669C16.551724137931036,5.822222222222226,17.586206896551722,16.000000000000014,18.620689655172413,18.933333333333337C19.655172413793103,21.866666666666664,20.689655172413794,23.33333333333333,21.724137931034484,23.33333333333333C22.758620689655174,23.33333333333333,23.79310344827586,12.533333333333335,24.82758620689655,12.533333333333335C25.862068965517242,12.533333333333335,26.896551724137932,14.644444444444446,27.931034482758623,15.600000000000001C28.965517241379313,16.555555555555557,30,17.31111111111111,31.03448275862069,18.266666666666666C32.06896551724138,19.22222222222222,33.103448275862064,20.88888888888889,34.137931034482754,21.333333333333332C35.172413793103445,21.77777777777778,36.206896551724135,21.555555555555554,37.241379310344826,22C38.275862068965516,22.444444444444446,39.310344827586206,23.533333333333335,40.3448275862069,24.8C41.37931034482759,26.066666666666666,42.41379310344828,29.6,43.44827586206897,29.6C44.48275862068966,29.6,45.51724137931035,25.355555555555558,46.55172413793104,24C47.58620689655173,22.644444444444446,48.62068965517241,21.466666666666665,49.6551724137931,21.466666666666665C50.689655172413794,21.466666666666665,51.72413793103448,25.555555555555557,52.75862068965517,25.733333333333334C53.79310344827586,25.91111111111111,54.827586206896555,25.822222222222223,55.862068965517246,26C56.896551724137936,26.177777777777777,57.93103448275862,26.933333333333337,58.96551724137931,27.866666666666667C60,28.8,61.03448275862069,30.422222222222224,62.06896551724138,31.6C63.10344827586207,32.77777777777778,64.13793103448276,34.13333333333333,65.17241379310344,34.93333333333333C66.20689655172413,35.73333333333333,67.24137931034483,36.4,68.27586206896551,36.4C69.3103448275862,36.4,70.34482758620689,34.17777777777778,71.37931034482759,33.199999999999996C72.41379310344827,32.22222222222222,73.44827586206897,30.53333333333333,74.48275862068965,30.53333333333333C75.51724137931033,30.53333333333333,76.55172413793103,37.86666666666667,77.58620689655172,37.86666666666667C78.62068965517241,37.86666666666667,79.6551724137931,33.733333333333334,80.6896551724138,33.733333333333334C81.72413793103448,33.733333333333334,82.75862068965517,35.37777777777778,83.79310344827586,35.86666666666667C84.82758620689656,36.355555555555554,85.86206896551724,36.666666666666664,86.89655172413794,36.666666666666664C87.93103448275862,36.666666666666664,88.96551724137932,34.13333333333333,90,34.13333333333333C91.0344827586207,34.13333333333333,92.06896551724138,37.199999999999996,93.10344827586208,37.199999999999996C94.13793103448276,37.199999999999996,95.17241379310344,36.266666666666666,96.20689655172413,36.266666666666666C97.24137931034483,36.266666666666666,98.27586206896551,37.044444444444444,99.3103448275862,37.46666666666667C100.3448275862069,37.88888888888889,101.37931034482759,38.8,102.41379310344828,38.8C103.44827586206897,38.8,104.48275862068965,38,105.51724137931033,38C106.55172413793103,38,107.58620689655172,38.4,108.62068965517241,38.4C109.65517241379311,38.4,110.6896551724138,36.666666666666664,111.72413793103449,36.666666666666664C112.75862068965517,36.666666666666664,113.79310344827587,37.577777777777776,114.82758620689656,37.86666666666667C115.86206896551724,38.15555555555556,116.89655172413794,38.4,117.93103448275862,38.4C118.96551724137932,38.4,120,37.46666666666667,121.0344827586207,37.46666666666667C122.06896551724138,37.46666666666667,123.10344827586208,37.55555555555556,124.13793103448276,37.733333333333334C125.17241379310344,37.91111111111111,126.20689655172414,39.6,127.24137931034483,39.6C128.27586206896552,39.6,129.3103448275862,39.37777777777778,130.3448275862069,39.2C131.3793103448276,39.022222222222226,132.41379310344828,38.53333333333333,133.44827586206898,38.53333333333333C134.48275862068965,38.53333333333333,135.51724137931035,39.33333333333333,136.55172413793102,39.33333333333333C137.58620689655172,39.33333333333333,138.6206896551724,38.8,139.6551724137931,38.8C140.6896551724138,38.8,141.72413793103448,39.33333333333333,142.75862068965517,39.33333333333333C143.79310344827587,39.33333333333333,144.82758620689654,39.33333333333333,145.86206896551724,39.33333333333333C146.89655172413794,39.33333333333333,147.9310344827586,39.86666666666667,148.9655172413793,39.86666666666667C150,39.86666666666667,151.0344827586207,39.28888888888889,152.0689655172414,39.2C153.10344827586206,39.111111111111114,154.13793103448276,39.06666666666667,155.17241379310343,39.06666666666667C156.20689655172413,39.06666666666667,157.24137931034483,39.15555555555556,158.27586206896552,39.2C159.31034482758622,39.24444444444445,160.3448275862069,39.266666666666666,161.3793103448276,39.33333333333333C162.41379310344828,39.39999999999999,163.44827586206895,39.48888888888889,164.48275862068965,39.6C165.51724137931035,39.711111111111116,166.55172413793102,40,167.58620689655172,40C168.6206896551724,40,169.6551724137931,40,170.6896551724138,40C171.7241379310345,40,172.75862068965517,39.6,173.79310344827587,39.6C174.82758620689657,39.6,175.86206896551724,39.86666666666667,176.89655172413794,39.86666666666667C177.93103448275863,39.86666666666667,178.9655172413793,39.733333333333334,180,39.6L180,40C178.9655172413793,40,177.93103448275863,40,176.89655172413794,40C175.86206896551724,40,174.82758620689657,40,173.79310344827587,40C172.75862068965517,40,171.7241379310345,40,170.6896551724138,40C169.6551724137931,40,168.6206896551724,40,167.58620689655172,40C166.55172413793102,40,165.51724137931035,40,164.48275862068965,40C163.44827586206895,40,162.41379310344828,40,161.3793103448276,40C160.3448275862069,40,159.31034482758622,40,158.27586206896552,40C157.24137931034483,40,156.20689655172413,40,155.17241379310343,40C154.13793103448276,40,153.10344827586206,40,152.0689655172414,40C151.0344827586207,40,150,40,148.9655172413793,40C147.9310344827586,40,146.89655172413794,40,145.86206896551724,40C144.82758620689654,40,143.79310344827587,40,142.75862068965517,40C141.72413793103448,40,140.6896551724138,40,139.6551724137931,40C138.6206896551724,40,137.58620689655172,40,136.55172413793102,40C135.51724137931035,40,134.48275862068965,40,133.44827586206898,40C132.41379310344828,40,131.3793103448276,40,130.3448275862069,40C129.3103448275862,40,128.27586206896552,40,127.24137931034483,40C126.20689655172414,40,125.17241379310344,40,124.13793103448276,40C123.10344827586208,40,122.06896551724138,40,121.0344827586207,40C120,40,118.96551724137932,40,117.93103448275862,40C116.89655172413794,40,115.86206896551724,40,114.82758620689656,40C113.79310344827587,40,112.75862068965517,40,111.72413793103449,40C110.6896551724138,40,109.65517241379311,40,108.62068965517241,40C107.58620689655172,40,106.55172413793103,40,105.51724137931033,40C104.48275862068965,40,103.44827586206897,40,102.41379310344828,40C101.37931034482759,40,100.3448275862069,40,99.3103448275862,40C98.27586206896551,40,97.24137931034483,40,96.20689655172413,40C95.17241379310344,40,94.13793103448276,40,93.10344827586208,40C92.06896551724138,40,91.0344827586207,40,90,40C88.96551724137932,40,87.93103448275862,40,86.89655172413794,40C85.86206896551724,40,84.82758620689656,40,83.79310344827586,40C82.75862068965517,40,81.72413793103448,40,80.6896551724138,40C79.6551724137931,40,78.62068965517241,40,77.58620689655172,40C76.55172413793103,40,75.51724137931033,40,74.48275862068965,40C73.44827586206897,40,72.41379310344827,40,71.37931034482759,40C70.34482758620689,40,69.3103448275862,40,68.27586206896551,40C67.24137931034483,40,66.20689655172413,40,65.17241379310344,40C64.13793103448276,40,63.10344827586207,40,62.06896551724138,40C61.03448275862069,40,60,40,58.96551724137931,40C57.93103448275862,40,56.896551724137936,40,55.862068965517246,40C54.827586206896555,40,53.79310344827586,40,52.75862068965517,40C51.72413793103448,40,50.689655172413794,40,49.6551724137931,40C48.62068965517241,40,47.58620689655173,40,46.55172413793104,40C45.51724137931035,40,44.48275862068966,40,43.44827586206897,40C42.41379310344828,40,41.37931034482759,40,40.3448275862069,40C39.310344827586206,40,38.275862068965516,40,37.241379310344826,40C36.206896551724135,40,35.172413793103445,40,34.137931034482754,40C33.103448275862064,40,32.06896551724138,40,31.03448275862069,40C30,40,28.965517241379313,40,27.931034482758623,40C26.896551724137932,40,25.862068965517242,40,24.82758620689655,40C23.79310344827586,40,22.758620689655174,40,21.724137931034484,40C20.689655172413794,40,19.655172413793103,40,18.620689655172413,40C17.586206896551722,40,16.551724137931036,40,15.517241379310345,40C14.482758620689655,40,13.448275862068966,40,12.413793103448276,40C11.379310344827585,40,10.344827586206897,40,9.310344827586206,40C8.275862068965516,40,7.241379310344827,40,6.206896551724138,40C5.172413793103448,40,4.137931034482759,40,3.103448275862069,40C2.068965517241379,40,1.0344827586206897,40,0,40Z"></path><path class="line" stroke="black" fill="none" d="M0,18.666666666666668C1.0344827586206897,15.222222222222221,2.068965517241379,11.777777777777775,3.103448275862069,11.333333333333332C4.137931034482759,10.88888888888889,5.172413793103448,11.11111111111111,6.206896551724138,10.666666666666668C7.241379310344827,10.222222222222225,8.275862068965516,4.933333333333332,9.310344827586206,4.933333333333332C10.344827586206897,4.933333333333332,11.379310344827585,4.933333333333332,12.413793103448276,4.933333333333332C13.448275862068966,4.933333333333332,14.482758620689655,5.111111111111111,15.517241379310345,5.466666666666669C16.551724137931036,5.822222222222226,17.586206896551722,16.000000000000014,18.620689655172413,18.933333333333337C19.655172413793103,21.866666666666664,20.689655172413794,23.33333333333333,21.724137931034484,23.33333333333333C22.758620689655174,23.33333333333333,23.79310344827586,12.533333333333335,24.82758620689655,12.533333333333335C25.862068965517242,12.533333333333335,26.896551724137932,14.644444444444446,27.931034482758623,15.600000000000001C28.965517241379313,16.555555555555557,30,17.31111111111111,31.03448275862069,18.266666666666666C32.06896551724138,19.22222222222222,33.103448275862064,20.88888888888889,34.137931034482754,21.333333333333332C35.172413793103445,21.77777777777778,36.206896551724135,21.555555555555554,37.241379310344826,22C38.275862068965516,22.444444444444446,39.310344827586206,23.533333333333335,40.3448275862069,24.8C41.37931034482759,26.066666666666666,42.41379310344828,29.6,43.44827586206897,29.6C44.48275862068966,29.6,45.51724137931035,25.355555555555558,46.55172413793104,24C47.58620689655173,22.644444444444446,48.62068965517241,21.466666666666665,49.6551724137931,21.466666666666665C50.689655172413794,21.466666666666665,51.72413793103448,25.555555555555557,52.75862068965517,25.733333333333334C53.79310344827586,25.91111111111111,54.827586206896555,25.822222222222223,55.862068965517246,26C56.896551724137936,26.177777777777777,57.93103448275862,26.933333333333337,58.96551724137931,27.866666666666667C60,28.8,61.03448275862069,30.422222222222224,62.06896551724138,31.6C63.10344827586207,32.77777777777778,64.13793103448276,34.13333333333333,65.17241379310344,34.93333333333333C66.20689655172413,35.73333333333333,67.24137931034483,36.4,68.27586206896551,36.4C69.3103448275862,36.4,70.34482758620689,34.17777777777778,71.37931034482759,33.199999999999996C72.41379310344827,32.22222222222222,73.44827586206897,30.53333333333333,74.48275862068965,30.53333333333333C75.51724137931033,30.53333333333333,76.55172413793103,37.86666666666667,77.58620689655172,37.86666666666667C78.62068965517241,37.86666666666667,79.6551724137931,33.733333333333334,80.6896551724138,33.733333333333334C81.72413793103448,33.733333333333334,82.75862068965517,35.37777777777778,83.79310344827586,35.86666666666667C84.82758620689656,36.355555555555554,85.86206896551724,36.666666666666664,86.89655172413794,36.666666666666664C87.93103448275862,36.666666666666664,88.96551724137932,34.13333333333333,90,34.13333333333333C91.0344827586207,34.13333333333333,92.06896551724138,37.199999999999996,93.10344827586208,37.199999999999996C94.13793103448276,37.199999999999996,95.17241379310344,36.266666666666666,96.20689655172413,36.266666666666666C97.24137931034483,36.266666666666666,98.27586206896551,37.044444444444444,99.3103448275862,37.46666666666667C100.3448275862069,37.88888888888889,101.37931034482759,38.8,102.41379310344828,38.8C103.44827586206897,38.8,104.48275862068965,38,105.51724137931033,38C106.55172413793103,38,107.58620689655172,38.4,108.62068965517241,38.4C109.65517241379311,38.4,110.6896551724138,36.666666666666664,111.72413793103449,36.666666666666664C112.75862068965517,36.666666666666664,113.79310344827587,37.577777777777776,114.82758620689656,37.86666666666667C115.86206896551724,38.15555555555556,116.89655172413794,38.4,117.93103448275862,38.4C118.96551724137932,38.4,120,37.46666666666667,121.0344827586207,37.46666666666667C122.06896551724138,37.46666666666667,123.10344827586208,37.55555555555556,124.13793103448276,37.733333333333334C125.17241379310344,37.91111111111111,126.20689655172414,39.6,127.24137931034483,39.6C128.27586206896552,39.6,129.3103448275862,39.37777777777778,130.3448275862069,39.2C131.3793103448276,39.022222222222226,132.41379310344828,38.53333333333333,133.44827586206898,38.53333333333333C134.48275862068965,38.53333333333333,135.51724137931035,39.33333333333333,136.55172413793102,39.33333333333333C137.58620689655172,39.33333333333333,138.6206896551724,38.8,139.6551724137931,38.8C140.6896551724138,38.8,141.72413793103448,39.33333333333333,142.75862068965517,39.33333333333333C143.79310344827587,39.33333333333333,144.82758620689654,39.33333333333333,145.86206896551724,39.33333333333333C146.89655172413794,39.33333333333333,147.9310344827586,39.86666666666667,148.9655172413793,39.86666666666667C150,39.86666666666667,151.0344827586207,39.28888888888889,152.0689655172414,39.2C153.10344827586206,39.111111111111114,154.13793103448276,39.06666666666667,155.17241379310343,39.06666666666667C156.20689655172413,39.06666666666667,157.24137931034483,39.15555555555556,158.27586206896552,39.2C159.31034482758622,39.24444444444445,160.3448275862069,39.266666666666666,161.3793103448276,39.33333333333333C162.41379310344828,39.39999999999999,163.44827586206895,39.48888888888889,164.48275862068965,39.6C165.51724137931035,39.711111111111116,166.55172413793102,40,167.58620689655172,40C168.6206896551724,40,169.6551724137931,40,170.6896551724138,40C171.7241379310345,40,172.75862068965517,39.6,173.79310344827587,39.6C174.82758620689657,39.6,175.86206896551724,39.86666666666667,176.89655172413794,39.86666666666667C177.93103448275863,39.86666666666667,178.9655172413793,39.733333333333334,180,39.6"></path><path class="axis-ceiling" stroke-width="1" stroke="black" fill="none" d="M175,0L180,0"></path><text class="axis-ceiling-label" font-family="sans-serif" text-anchor="end" font-size="10px" x="170" y="2.5">300</text></g></svg>