<svg xmlns="http://www.w3.org/2000/svg" viewBox="0 0 180 60"><g transform="translate(0,20)"><path class="area" fill="rgba(0, 0, 0, 0.2)" d="M0,17.599999999999998C1.0169491525423728,18.4,2.0338983050847457,19.2,3.0508474576271185,19.2C4.067796610169491,19.2,5.084745762711864,19.2,6.101694915254237,19.2C7.11864406779661,19.2,8.135593220338983,20.266666666666666,9.152542372881356,20.8C10.169491525423728,21.333333333333336,11.186440677966102,21.6,12.203389830508474,22.400000000000002C13.220338983050846,23.200000000000003,14.23728813559322,24.800000000000004,15.254237288135592,25.6C16.271186440677965,26.400000000000002,17.28813559322034,27.199999999999996,18.305084745762713,27.199999999999996C19.322033898305087,27.199999999999996,20.338983050847457,27.199999999999996,21.35593220338983,27.199999999999996C22.372881355932204,27.199999999999996,23.389830508474574,28.266666666666662,24.406779661016948,28.799999999999997C25.423728813559322,29.333333333333332,26.440677966101696,30.4,27.45762711864407,30.4C28.47457627118644,30.4,29.491525423728813,30.4,30.508474576271183,30.4C31.525423728813557,30.4,32.54237288135593,31.466666666666665,33.559322033898304,32C34.57627118644068,32.53333333333333,35.59322033898305,33.06666666666667,36.610169491525426,33.6C37.6271186440678,34.13333333333333,38.644067796610166,34.66666666666667,39.66101694915254,35.2C40.67796610169491,35.733333333333334,41.69491525423729,36.800000000000004,42.71186440677966,36.800000000000004C43.728813559322035,36.800000000000004,44.7457627118644,36.800000000000004,45.762711864406775,36.800000000000004C46.77966101694915,36.800000000000004,47.79661016949152,37.86666666666667,48.813559322033896,38.4C49.83050847457627,38.93333333333333,50.847457627118644,40,51.86440677966102,40C52.88135593220339,40,53.898305084745765,40,54.91525423728814,40C55.93220338983051,40,56.94915254237288,40,57.96610169491525,40C58.983050847457626,40,59.99999999999999,38.4,61.01694915254237,38.4C62.03389830508474,38.4,63.05084745762712,38.4,64.0677966101695,38.4C65.08474576271186,38.4,66.10169491525424,38.4,67.11864406779661,38.4C68.13559322033899,38.4,69.15254237288136,38.4,70.16949152542374,38.4C71.1864406779661,38.4,72.20338983050848,38.4,73.22033898305085,38.4C74.23728813559322,38.4,75.2542372881356,38.4,76.27118644067797,38.4C77.28813559322033,38.4,78.30508474576271,38.4,79.32203389830508,38.4C80.33898305084746,38.4,81.35593220338983,38.4,82.37288135593221,38.4C83.38983050847457,38.4,84.40677966101696,38.4,85.42372881355932,38.4C86.4406779661017,38.4,87.45762711864407,38.4,88.47457627118645,38.4C89.49152542372882,38.4,90.50847457627118,38.4,91.52542372881355,38.4C92.54237288135593,38.4,93.55932203389831,38.4,94.57627118644069,38.4C95.59322033898306,38.4,96.61016949152543,38.4,97.62711864406779,38.4C98.64406779661016,38.4,99.66101694915254,38.4,100.6779661016949,38.4C101.69491525423729,38.4,102.71186440677965,38.4,103.72881355932203,38.4C104.7457627118644,38.4,105.76271186440678,38.4,106.77966101694915,38.4C107.79661016949153,38.4,108.8135593220339,38.4,109.83050847457628,38.4C110.84745762711864,38.4,111.86440677966102,36.800000000000004,112.88135593220339,36.800000000000004C113.89830508474576,36.800000000000004,114.91525423728814,36.800000000000004,115.9322033898305,36.800000000000004C116.94915254237289,36.800000000000004,117.96610169491525,34.400000000000006,118.98305084745763,33.6C120,32.800000000000004,121.01694915254237,32.79999999999999,122.03389830508473,32C123.05084745762711,31.199999999999996,124.0677966101695,29.599999999999998,125.08474576271188,28.799999999999997C126.10169491525424,28.000000000000004,127.11864406779662,28,128.135593220339,27.199999999999996C129.15254237288136,26.4,130.16949152542372,24,131.1864406779661,24C132.20338983050846,24,133.22033898305085,24,134.23728813559322,24C135.25423728813558,24,136.27118644067798,24,137.28813559322035,24C138.3050847457627,24,139.3220338983051,20.8,140.33898305084747,20.8C141.35593220338984,20.8,142.3728813559322,20.8,143.38983050847457,20.8C144.40677966101694,20.8,145.42372881355934,19.733333333333334,146.4406779661017,19.2C147.45762711864407,18.666666666666668,148.47457627118644,17.599999999999998,149.4915254237288,17.599999999999998C150.50847457627117,17.599999999999998,151.52542372881356,17.599999999999998,152.54237288135593,17.599999999999998C153.5593220338983,17.599999999999998,154.5762711864407,16.800000000000008,155.59322033898306,16C156.61016949152543,15.200000000000001,157.6271186440678,13.866666666666658,158.64406779661016,12.799999999999997C159.66101694915253,11.733333333333325,160.67796610169492,9.6,161.6949152542373,9.6C162.71186440677965,9.6,163.72881355932205,9.6,164.74576271186442,9.6C165.76271186440678,9.6,166.77966101694915,9.6,167.79661016949152,9.6C168.81355932203388,9.6,169.83050847457628,11.200000000000001,170.84745762711864,11.200000000000001C171.864406779661,11.200000000000001,172.8813559322034,9.066666666666665,173.89830508474577,7.999999999999998C174.91525423728814,6.933333333333331,175.93220338983053,5.600000000000001,176.9491525423729,4.8C177.96610169491527,4.000000000000006,178.98305084745763,3.6000000000000023,180,3.1999999999999984L180,40C178.98305084745763,40,177.96610169491527,40,176.9491525423729,40C175.93220338983053,40,174.91525423728814,40,173.89830508474577,40C172.8813559322034,40,171.864406779661,40,170.84745762711864,40C169.83050847457628,40,168.81355932203388,40,167.79661016949152,40C166.77966101694915,40,165.76271186440678,40,164.74576271186442,40C163.72881355932205,40,162.71186440677965,40,161.6949152542373,40C160.67796610169492,40,159.66101694915253,40,158.64406779661016,40C157.6271186440678,40,156.61016949152543,40,155.59322033898306,40C154.5762711864407,40,153.5593220338983,40,152.54237288135593,40C151.52542372881356,40,150.50847457627117,40,149.4915254237288,40C148.47457627118644,40,147.45762711864407,40,146.4406779661017,40C145.42372881355934,40,144.40677966101694,40,143.38983050847457,40C142.3728813559322,40,141.35593220338984,40,140.33898305084747,40C139.3220338983051,40,138.3050847457627,40,137.28813559322035,40C136.27118644067798,40,135.25423728813558,40,134.23728813559322,40C133.22033898305085,40,132.20338983050846,40,131.1864406779661,40C130.16949152542372,40,129.15254237288136,40,128.135593220339,40C127.11864406779662,40,126.10169491525424,40,125.08474576271188,40C124.0677966101695,40,123.05084745762711,40,122.03389830508473,40C121.01694915254237,40,120,40,118.98305084745763,40C117.96610169491525,40,116.94915254237289,40,115.9322033898305,40C114.91525423728814,40,113.89830508474576,40,112.88135593220339,40C111.86440677966102,40,110.84745762711864,40,109.83050847457628,40C108.8135593220339,40,107.79661016949153,40,106.77966101694915,40C105.76271186440678,40,104.7457627118644,40,103.72881355932203,40C102.71186440677965,40,101.69491525423729,40,100.6779661016949,40C99.66101694915254,40,98.64406779661016,40,97.62711864406779,40C96.61016949152543,40,95.59322033898306,40,94.57627118644069,40C93.55932203389831,40,92.54237288135593,40,91.52542372881355,40C90.50847457627118,40,89.49152542372882,40,88.47457627118645,40C87.45762711864407,40,86.4406779661017,40,85.42372881355932,40C84.40677966101696,40,83.38983050847457,40,82.37288135593221,40C81.35593220338983,40,80.33898305084746,40,79.32203389830508,40C78.30508474576271,40,77.28813559322033,40,76.27118644067797,40C75.2542372881356,40,74.23728813559322,40,73.22033898305085,40C72.20338983050848,40,71.1864406779661,40,70.16949152542374,40C69.15254237288136,40,68.13559322033899,40,67.11864406779661,40C66.10169491525424,40,65.08474576271186,40,64.0677966101695,40C63.05084745762712,40,62.03389830508474,40,61.01694915254237,40C59.99999999999999,40,58.983050847457626,40,57.96610169491525,40C56.94915254237288,40,55.93220338983051,40,54.91525423728814,40C53.898305084745765,40,52.88135593220339,40,51.86440677966102,40C50.847457627118644,40,49.83050847457627,40,48.813559322033896,40C47.79661016949152,40,46.77966101694915,40,45.762711864406775,40C44.7457627118644,40,43.728813559322035,40,42.71186440677966,40C41.69491525423729,40,40.67796610169491,40,39.66101694915254,40C38.644067796610166,40,37.6271186440678,40,36.610169491525426,40C35.59322033898305,40,34.57627118644068,40,33.559322033898304,40C32.54237288135593,40,31.525423728813557,40,30.508474576271183,40C29.491525423728813,40,28.47457627118644,40,27.45762711864407,40C26.440677966101696,40,25.423728813559322,40,24.406779661016948,40C23.389830508474574,40,22.372881355932204,40,21.35593220338983,40C20.338983050847457,40,19.322033898305087,40,18.305084745762713,40C17.28813559322034,40,16.271186440677965,40,15.254237288135592,40C14.23728813559322,40,13.220338983050846,40,12.203389830508474,40C11.186440677966102,40,10.169491525423728,40,9.152542372881356,40C8.135593220338983,40,7.11864406779661,40,6.101694915254237,40C5.084745762711864,40,4.067796610169491,40,3.0508474576271185,40C2.0338983050847457,40,1.0169491525423728,40,0,40Z"></path><path class="line" stroke="black" fill="none" d="M0,17.599999999999998C1.0169491525423728,18.4,2.0338983050847457,19.2,3.0508474576271185,19.2C4.067796610169491,19.2,5.084745762711864,19.2,6.101694915254237,19.2C7.11864406779661,19.2,8.135593220338983,20.266666666666666,9.152542372881356,20.8C10.169491525423728,21.333333333333336,11.186440677966102,21.6,12.203389830508474,22.400000000000002C13.220338983050846,23.200000000000003,14.23728813559322,24.800000000000004,15.254237288135592,25.6C16.271186440677965,26.400000000000002,17.28813559322034,27.199999999999996,18.305084745762713,27.199999999999996C19.322033898305087,27.199999999999996,20.338983050847457,27.199999999999996,21.35593220338983,27.199999999999996C22.372881355932204,27.199999999999996,23.389830508474574,28.266666666666662,24.406779661016948,28.799999999999997C25.423728813559322,29.333333333333332,26.440677966101696,30.4,27.45762711864407,30.4C28.47457627118644,30.4,29.491525423728813,30.4,30.508474576271183,30.4C31.525423728813557,30.4,32.54237288135593,31.466666666666665,33.559322033898304,32C34.57627118644068,32.53333333333333,35.59322033898305,33.06666666666667,36.610169491525426,33.6C37.6271186440678,34.13333333333333,38.644067796610166,34.66666666666667,39.66101694915254,35.2C40.67796610169491,35.733333333333334,41.69491525423729,36.800000000000004,42.71186440677966,36.800000000000004C43.728813559322035,36.800000000000004,44.7457627118644,36.800000000000004,45.762711864406775,36.800000000000004C46.77966101694915,36.800000000000004,47.79661016949152,37.86666666666667,48.813559322033896,38.4C49.83050847457627,38.93333333333333,50.847457627118644,40,51.86440677966102,40C52.88135593220339,40,53.898305084745765,40,54.91525423728814,40C55.93220338983051,40,56.94915254237288,40,57.96610169491525,40C58.983050847457626,40,59.99999999999999,38.4,61.01694915254237,38.4C62.03389830508474,38.4,63.05084745762712,38.4,64.0677966101695,38.4C65.08474576271186,38.4,66.10169491525424,38.4,67.11864406779661,38.4C68.13559322033899,38.4,69.15254237288136,38.4,70.16949152542374,38.4C71.1864406779661,38.4,72.20338983050848,38.4,73.22033898305085,38.4C74.23728813559322,38.4,75.2542372881356,38.4,76.27118644067797,38.4C77.28813559322033,38.4,78.30508474576271,38.4,79.32203389830508,38.4C80.33898305084746,38.4,81.35593220338983,38.4,82.37288135593221,38.4C83.38983050847457,38.4,84.40677966101696,38.4,85.42372881355932,38.4C86.4406779661017,38.4,87.45762711864407,38.4,88.47457627118645,38.4C89.49152542372882,38.4,90.50847457627118,38.4,91.52542372881355,38.4C92.54237288135593,38.4,93.55932203389831,38.4,94.57627118644069,38.4C95.59322033898306,38.4,96.61016949152543,38.4,97.62711864406779,38.4C98.64406779661016,38.4,99.66101694915254,38.4,100.6779661016949,38.4C101.69491525423729,38.4,102.71186440677965,38.4,103.72881355932203,38.4C104.7457627118644,38.4,105.76271186440678,38.4,106.77966101694915,38.4C107.79661016949153,38.4,108.8135593220339,38.4,109.83050847457628,38.4C110.84745762711864,38.4,111.86440677966102,36.800000000000004,112.88135593220339,36.800000000000004C113.89830508474576,36.800000000000004,114.91525423728814,36.800000000000004,115.9322033898305,36.800000000000004C116.94915254237289,36.800000000000004,117.96610169491525,34.400000000000006,118.98305084745763,33.6C120,32.800000000000004,121.01694915254237,32.79999999999999,122.03389830508473,32C123.05084745762711,31.199999999999996,124.0677966101695,29.599999999999998,125.08474576271188,28.799999999999997C126.10169491525424,28.000000000000004,127.11864406779662,28,128.135593220339,27.199999999999996C129.15254237288136,26.4,130.16949152542372,24,131.1864406779661,24C132.20338983050846,24,133.22033898305085,24,134.23728813559322,24C135.25423728813558,24,136.27118644067798,24,137.28813559322035,24C138.3050847457627,24,139.3220338983051,20.8,140.33898305084747,20.8C141.35593220338984,20.8,142.3728813559322,20.8,143.38983050847457,20.8C144.40677966101694,20.8,145.42372881355934,19.733333333333334,146.4406779661017,19.2C147.45762711864407,18.666666666666668,148.47457627118644,17.599999999999998,149.4915254237288,17.599999999999998C150.50847457627117,17.599999999999998,151.52542372881356,17.599999999999998,152.54237288135593,17.599999999999998C153.5593220338983,17.599999999999998,154.5762711864407,16.800000000000008,155.59322033898306,16C156.61016949152543,15.200000000000001,157.6271186440678,13.866666666666658,158.64406779661016,12.799999999999997C159.66101694915253,11.733333333333325,160.67796610169492,9.6,161.6949152542373,9.6C162.71186440677965,9.6,163.72881355932205,9.6,164.74576271186442,9.6C165.76271186440678,9.6,166.77966101694915,9.6,167.79661016949152,9.6C168.81355932203388,9.6,169.83050847457628,11.200000000000001,170.84745762711864,11.200000000000001C171.864406779661,11.200000000000001,172.8813559322034,9.066666666666665,173.89830508474577,7.999999999999998C174.91525423728814,6.933333333333331,175.93220338983053,5.600000000000001,176.9491525423729,4.8C177.96610169491527,4.000000000000006,178.98305084745763,3.6000000000000023,180,3.1999999999999984"></path><path class="axis-ceiling" stroke-width="1" stroke="black" fill="none" d="M175,0L180,0"></path><text class="axis-ceiling-label" font-family="sans-serif" text-anchor="end" font-size="10px" x="170" y="2.5">25</text></g></svg>