<svg xmlns="http://www.w3.org/2000/svg" viewBox="0 0 180 60"><g transform="translate(0,20)"><path class="area" fill="rgba(0, 0, 0, 0.2)" d="M0,39.28C1.0344827586206897,38.56,2.068965517241379,37.839999999999996,3.103448275862069,37.839999999999996C4.137931034482759,37.839999999999996,5.172413793103448,37.92,6.206896551724138,37.92C7.241379310344827,37.92,8.275862068965516,36.68,9.310344827586206,36.32C10.344827586206897,35.96,11.379310344827585,35.76,12.413793103448276,35.76C13.448275862068966,35.76,14.482758620689655,37.76,15.517241379310345,37.76C16.551724137931036,37.76,17.586206896551722,36.239999999999995,18.620689655172413,35.44C19.655172413793103,34.64,20.689655172413794,33.06666666666666,21.724137931034484,32.96C22.758620689655174,32.85333333333334,23.79310344827586,32.906666666666666,24.82758620689655,32.800000000000004C25.862068965517242,32.69333333333334,26.896551724137932,31.393333333333334,27.931034482758623,30.84C28.965517241379313,30.286666666666665,30,29.48,31.03448275862069,29.48C32.06896551724138,29.48,33.103448275862064,30.493333333333336,34.137931034482754,30.96C35.172413793103445,31.42666666666667,36.206896551724135,32.28,37.241379310344826,32.28C38.275862068965516,32.28,39.310344827586206,27.913333333333334,40.3448275862069,25.84C41.37931034482759,23.766666666666666,42.41379310344828,19.84,43.44827586206897,19.84C44.48275862068966,19.84,45.51724137931035,19.986666666666668,46.55172413793104,20.28C47.58620689655173,20.573333333333334,48.62068965517241,25.52,49.6551724137931,25.52C50.689655172413794,25.52,51.72413793103448,24.439999999999998,52.75862068965517,24.439999999999998C53.79310344827586,24.439999999999998,54.827586206896555,25.64,55.862068965517246,25.64C56.896551724137936,25.64,57.93103448275862,22.32,58.96551724137931,22.32C60,22.32,61.03448275862069,29.8,62.06896551724138,29.8C63.10344827586207,29.8,64.13793103448276,23.419999999999998,65.17241379310344,20.36C66.20689655172413,17.3,67.24137931034483,11.440000000000001,68.27586206896551,11.440000000000001C69.3103448275862,11.440000000000001,70.34482758620689,16.573333333333323,71.37931034482759,17.959999999999997C72.41379310344827,19.346666666666664,73.44827586206897,20.04,74.48275862068965,20.04C75.51724137931033,20.04,76.55172413793103,19.92,77.58620689655172,19.92C78.62068965517241,19.92,79.6551724137931,22.68666666666666,80.6896551724138,24.56C81.72413793103448,26.43333333333333,82.75862068965517,31.16,83.79310344827586,31.16C84.82758620689656,31.16,85.86206896551724,18.560000000000002,86.89655172413794,18.4C87.93103448275862,18.24,88.96551724137932,18.159999999999997,90,18.159999999999997C91.0344827586207,18.159999999999997,92.06896551724138,20.599999999999998,93.10344827586208,21.36C94.13793103448276,22.119999999999994,95.17241379310344,21.813333333333333,96.20689655172413,22.720000000000002C97.24137931034483,23.62666666666668,98.27586206896551,31.04,99.3103448275862,31.04C100.3448275862069,31.04,101.37931034482759,27.839999999999996,102.41379310344828,27.839999999999996C103.44827586206897,27.839999999999996,104.48275862068965,28.96,105.51724137931033,28.96C106.55172413793103,28.96,107.58620689655172,25.053333333333338,108.62068965517241,23.440000000000005C109.65517241379311,21.82666666666667,110.6896551724138,19.28,111.72413793103449,19.28C112.75862068965517,19.28,113.79310344827587,20.28,114.82758620689656,20.96C115.86206896551724,21.64,116.89655172413794,22.906666666666673,117.93103448275862,23.360000000000003C118.96551724137932,23.813333333333333,120,23.61333333333333,121.0344827586207,24.04C122.06896551724138,24.466666666666665,123.10344827586208,24.666666666666668,124.13793103448276,25.92C125.17241379310344,27.173333333333336,126.20689655172414,31.92,127.24137931034483,31.92C128.27586206896552,31.92,129.3103448275862,23.03999999999999,130.3448275862069,21.200000000000003C131.3793103448276,19.36,132.41379310344828,18.439999999999998,133.44827586206898,18.439999999999998C134.48275862068965,18.439999999999998,135.51724137931035,28.72,136.55172413793102,28.72C137.58620689655172,28.72,138.6206896551724,23.26000000000001,139.6551724137931,21.200000000000003C140.6896551724138,19.140000000000015,141.72413793103448,16.36,142.75862068965517,16.36C143.79310344827587,16.36,144.82758620689654,24.97333333333333,145.86206896551724,25.72C146.89655172413794,26.46666666666667,147.9310344827586,26.840000000000003,148.9655172413793,26.840000000000003C150,26.840000000000003,151.0344827586207,20.266666666666687,152.0689655172414,19.28C153.10344827586206,18.293333333333333,154.13793103448276,17.799999999999997,155.17241379310343,17.799999999999997C156.20689655172413,17.799999999999997,157.24137931034483,21.719999999999988,158.27586206896552,22.519999999999996C159.31034482758622,23.319999999999997,160.3448275862069,23.613333333333333,161.3793103448276,23.72C162.41379310344828,23.826666666666664,163.44827586206895,23.773333333333333,164.48275862068965,23.88C165.51724137931035,23.986666666666665,166.55172413793102,26.81333333333334,167.58620689655172,28.4C168.6206896551724,29.98666666666667,169.6551724137931,33.4,170.6896551724138,33.4C171.7241379310345,33.4,172.75862068965517,23.81333333333334,173.79310344827587,22.480000000000004C174.82758620689657,21.14666666666667,175.86206896551724,20.48,176.89655172413794,20.48C177.93103448275863,20.48,178.9655172413793,21.36,180,22.240000000000002L180,40C178.9655172413793,40,177.93103448275863,40,176.89655172413794,40C175.86206896551724,40,174.82758620689657,40,173.79310344827587,40C172.75862068965517,40,171.7241379310345,40,170.6896551724138,40C169.6551724137931,40,168.6206896551724,40,167.58620689655172,40C166.55172413793102,40,165.51724137931035,40,164.48275862068965,40C163.44827586206895,40,162.41379310344828,40,161.3793103448276,40C160.3448275862069,40,159.31034482758622,40,158.27586206896552,40C157.24137931034483,40,156.20689655172413,40,155.17241379310343,40C154.13793103448276,40,153.10344827586206,40,152.0689655172414,40C151.0344827586207,40,150,40,148.9655172413793,40C147.9310344827586,40,146.89655172413794,40,145.86206896551724,40C144.82758620689654,40,143.79310344827587,40,142.75862068965517,40C141.72413793103448,40,140.6896551724138,40,139.6551724137931,40C138.6206896551724,40,137.58620689655172,40,136.55172413793102,40C135.51724137931035,40,134.48275862068965,40,133.44827586206898,40C132.41379310344828,40,131.3793103448276,40,130.3448275862069,40C129.3103448275862,40,128.27586206896552,40,127.24137931034483,40C126.20689655172414,40,125.17241379310344,40,124.13793103448276,40C123.10344827586208,40,122.06896551724138,40,121.0344827586207,40C120,40,118.96551724137932,40,117.93103448275862,40C116.89655172413794,40,115.86206896551724,40,114.82758620689656,40C113.79310344827587,40,112.75862068965517,40,111.72413793103449,40C110.6896551724138,40,109.65517241379311,40,108.62068965517241,40C107.58620689655172,40,106.55172413793103,40,105.51724137931033,40C104.48275862068965,40,103.44827586206897,40,102.41379310344828,40C101.37931034482759,40,100.3448275862069,40,99.3103448275862,40C98.27586206896551,40,97.24137931034483,40,96.20689655172413,40C95.17241379310344,40,94.13793103448276,40,93.10344827586208,40C92.06896551724138,40,91.0344827586207,40,90,40C88.96551724137932,40,87.93103448275862,40,86.89655172413794,40C85.86206896551724,40,84.82758620689656,40,83.79310344827586,40C82.75862068965517,40,81.72413793103448,40,80.6896551724138,40C79.6551724137931,40,78.62068965517241,40,77.58620689655172,40C76.55172413793103,40,75.51724137931033,40,74.48275862068965,40C73.44827586206897,40,72.41379310344827,40,71.37931034482759,40C70.34482758620689,40,69.3103448275862,40,68.27586206896551,40C67.24137931034483,40,66.20689655172413,40,65.17241379310344,40C64.13793103448276,40,63.10344827586207,40,62.06896551724138,40C61.03448275862069,40,60,40,58.96551724137931,40C57.93103448275862,40,56.896551724137936,40,55.862068965517246,40C54.827586206896555,40,53.79310344827586,40,52.75862068965517,40C51.72413793103448,40,50.689655172413794,40,49.6551724137931,40C48.62068965517241,40,47.58620689655173,40,46.55172413793104,40C45.51724137931035,40,44.48275862068966,40,43.44827586206897,40C42.41379310344828,40,41.37931034482759,40,40.3448275862069,40C39.310344827586206,40,38.275862068965516,40,37.241379310344826,40C36.206896551724135,40,35.172413793103445,40,34.137931034482754,40C33.103448275862064,40,32.06896551724138,40,31.03448275862069,40C30,40,28.965517241379313,40,27.931034482758623,40C26.896551724137932,40,25.862068965517242,40,24.82758620689655,40C23.79310344827586,40,22.758620689655174,40,21.724137931034484,40C20.689655172413794,40,19.655172413793103,40,18.620689655172413,40C17.586206896551722,40,16.551724137931036,40,15.517241379310345,40C14.482758620689655,40,13.448275862068966,40,12.413793103448276,40C11.379310344827585,40,10.344827586206897,40,9.310344827586206,40C8.275862068965516,40,7.241379310344827,40,6.206896551724138,40C5.172413793103448,40,4.137931034482759,40,3.103448275862069,40C2.068965517241379,40,1.0344827586206897,40,0,40Z"></path><path class="line" stroke="black" fill="none" d="M0,39.28C1.0344827586206897,38.56,2.068965517241379,37.839999999999996,3.103448275862069,37.839999999999996C4.137931034482759,37.839999999999996,5.172413793103448,37.92,6.206896551724138,37.92C7.241379310344827,37.92,8.275862068965516,36.68,9.310344827586206,36.32C10.344827586206897,35.96,11.379310344827585,35.76,12.413793103448276,35.76C13.448275862068966,35.76,14.482758620689655,37.76,15.517241379310345,37.76C16.551724137931036,37.76,17.586206896551722,36.239999999999995,18.620689655172413,35.44C19.655172413793103,34.64,20.689655172413794,33.06666666666666,21.724137931034484,32.96C22.758620689655174,32.85333333333334,23.79310344827586,32.906666666666666,24.82758620689655,32.800000000000004C25.862068965517242,32.69333333333334,26.896551724137932,31.393333333333334,27.931034482758623,30.84C28.965517241379313,30.286666666666665,30,29.48,31.03448275862069,29.48C32.06896551724138,29.48,33.103448275862064,30.493333333333336,34.137931034482754,30.96C35.172413793103445,31.42666666666667,36.206896551724135,32.28,37.241379310344826,32.28C38.275862068965516,32.28,39.310344827586206,27.913333333333334,40.3448275862069,25.84C41.37931034482759,23.766666666666666,42.41379310344828,19.84,43.44827586206897,19.84C44.48275862068966,19.84,45.51724137931035,19.986666666666668,46.55172413793104,20.28C47.58620689655173,20.573333333333334,48.62068965517241,25.52,49.6551724137931,25.52C50.689655172413794,25.52,51.72413793103448,24.439999999999998,52.75862068965517,24.439999999999998C53.79310344827586,24.439999999999998,54.827586206896555,25.64,55.862068965517246,25.64C56.896551724137936,25.64,57.93103448275862,22.32,58.96551724137931,22.32C60,22.32,61.03448275862069,29.8,62.06896551724138,29.8C63.10344827586207,29.8,64.13793103448276,23.419999999999998,65.17241379310344,20.36C66.20689655172413,17.3,67.24137931034483,11.440000000000001,68.27586206896551,11.440000000000001C69.3103448275862,11.440000000000001,70.34482758620689,16.573333333333323,71.37931034482759,17.959999999999997C72.41379310344827,19.346666666666664,73.44827586206897,20.04,74.48275862068965,20.04C75.51724137931033,20.04,76.55172413793103,19.92,77.58620689655172,19.92C78.62068965517241,19.92,79.6551724137931,22.68666666666666,80.6896551724138,24.56C81.72413793103448,26.43333333333333,82.75862068965517,31.16,83.79310344827586,31.16C84.82758620689656,31.16,85.86206896551724,18.560000000000002,86.89655172413794,18.4C87.93103448275862,18.24,88.96551724137932,18.159999999999997,90,18.159999999999997C91.0344827586207,18.159999999999997,92.06896551724138,20.599999999999998,93.10344827586208,21.36C94.13793103448276,22.119999999999994,95.17241379310344,21.813333333333333,96.20689655172413,22.720000000000002C97.24137931034483,23.62666666666668,98.27586206896551,31.04,99.3103448275862,31.04C100.3448275862069,31.04,101.37931034482759,27.839999999999996,102.41379310344828,27.839999999999996C103.44827586206897,27.839999999999996,104.48275862068965,28.96,105.51724137931033,28.96C106.55172413793103,28.96,107.58620689655172,25.053333333333338,108.62068965517241,23.440000000000005C109.65517241379311,21.82666666666667,110.6896551724138,19.28,111.72413793103449,19.28C112.75862068965517,19.28,113.79310344827587,20.28,114.82758620689656,20.96C115.86206896551724,21.64,116.89655172413794,22.906666666666673,117.93103448275862,23.360000000000003C118.96551724137932,23.813333333333333,120,23.61333333333333,121.0344827586207,24.04C122.06896551724138,24.466666666666665,123.10344827586208,24.666666666666668,124.13793103448276,25.92C125.17241379310344,27.173333333333336,126.20689655172414,31.92,127.24137931034483,31.92C128.27586206896552,31.92,129.3103448275862,23.03999999999999,130.3448275862069,21.200000000000003C131.3793103448276,19.36,132.41379310344828,18.439999999999998,133.44827586206898,18.439999999999998C134.48275862068965,18.439999999999998,135.51724137931035,28.72,136.55172413793102,28.72C137.58620689655172,28.72,138.6206896551724,23.26000000000001,139.6551724137931,21.200000000000003C140.6896551724138,19.140000000000015,141.72413793103448,16.36,142.75862068965517,16.36C143.79310344827587,16.36,144.82758620689654,24.97333333333333,145.86206896551724,25.72C146.89655172413794,26.46666666666667,147.9310344827586,26.840000000000003,148.9655172413793,26.840000000000003C150,26.840000000000003,151.0344827586207,20.266666666666687,152.0689655172414,19.28C153.10344827586206,18.293333333333333,154.13793103448276,17.799999999999997,155.17241379310343,17.799999999999997C156.20689655172413,17.799999999999997,157.24137931034483,21.719999999999988,158.27586206896552,22.519999999999996C159.31034482758622,23.319999999999997,160.3448275862069,23.613333333333333,161.3793103448276,23.72C162.41379310344828,23.826666666666664,163.44827586206895,23.773333333333333,164.48275862068965,23.88C165.51724137931035,23.986666666666665,166.55172413793102,26.81333333333334,167.58620689655172,28.4C168.6206896551724,29.98666666666667,169.6551724137931,33.4,170.6896551724138,33.4C171.7241379310345,33.4,172.75862068965517,23.81333333333334,173.79310344827587,22.480000000000004C174.82758620689657,21.14666666666667,175.86206896551724,20.48,176.89655172413794,20.48C177.93103448275863,20.48,178.9655172413793,21.36,180,22.240000000000002"></path><path class="axis-ceiling" stroke-width="1" stroke="black" fill="none" d="M175,0L180,0"></path><text class="axis-ceiling-label" font-family="sans-serif" text-anchor="end" font-size="10px" x="170" y="2.5">1000</text></g></svg>