<svg xmlns="http://www.w3.org/2000/svg" viewBox="0 0 180 60"><g transform="translate(0,20)"><path class="area" fill="rgba(0, 0, 0, 0.2)" d="M0,32.61333333333334C1.0344827586206897,24.87777777777778,2.068965517241379,17.142222222222227,3.103448275862069,16.520000000000003C4.137931034482759,15.897777777777781,5.172413793103448,15.58666666666667,6.206896551724138,15.58666666666667C7.241379310344827,15.58666666666667,8.275862068965516,17.102222222222224,9.310344827586206,18.053333333333335C10.344827586206897,19.004444444444445,11.379310344827585,21.293333333333333,12.413793103448276,21.293333333333333C13.448275862068966,21.293333333333333,14.482758620689655,17.946666666666665,15.517241379310345,17.946666666666665C16.551724137931036,17.946666666666665,17.586206896551722,18.648888888888887,18.620689655172413,20.053333333333335C19.655172413793103,21.457777777777782,20.689655172413794,30.78666666666667,21.724137931034484,30.78666666666667C22.758620689655174,30.78666666666667,23.79310344827586,12.42222222222222,24.82758620689655,11.373333333333333C25.862068965517242,10.324444444444445,26.896551724137932,9.8,27.931034482758623,9.8C28.965517241379313,9.8,30,10.791111111111112,31.03448275862069,12.773333333333333C32.06896551724138,14.755555555555553,33.103448275862064,27.746666666666666,34.137931034482754,27.746666666666666C35.172413793103445,27.746666666666666,36.206896551724135,13.399999999999999,37.241379310344826,13.399999999999999C38.275862068965516,13.399999999999999,39.310344827586206,14.793333333333333,40.3448275862069,16.866666666666667C41.37931034482759,18.94,42.41379310344828,25.84,43.44827586206897,25.84C44.48275862068966,25.84,45.51724137931035,24.804444444444446,46.55172413793104,22.733333333333334C47.58620689655173,20.66222222222223,48.62068965517241,12.293333333333331,49.6551724137931,8.759999999999998C50.689655172413794,5.226666666666665,51.72413793103448,1.5333333333333332,52.75862068965517,1.5333333333333332C53.79310344827586,1.5333333333333332,54.827586206896555,4.644444444444445,55.862068965517246,4.76C56.896551724137936,4.875555555555555,57.93103448275862,4.817777777777777,58.96551724137931,4.933333333333332C60,5.048888888888887,61.03448275862069,9.068888888888878,62.06896551724138,12.999999999999998C63.10344827586207,16.931111111111107,64.13793103448276,28.520000000000003,65.17241379310344,28.520000000000003C66.20689655172413,28.520000000000003,67.24137931034483,5.466666666666666,68.27586206896551,4.906666666666668C69.3103448275862,4.346666666666668,70.34482758620689,4.066666666666667,71.37931034482759,4.066666666666667C72.41379310344827,4.066666666666667,73.44827586206897,12.062222222222223,74.48275862068965,12.906666666666666C75.51724137931033,13.75111111111111,76.55172413793103,14.173333333333332,77.58620689655172,14.173333333333332C78.62068965517241,14.173333333333332,79.6551724137931,13.693333333333335,80.6896551724138,13.693333333333335C81.72413793103448,13.693333333333335,82.75862068965517,17.53777777777779,83.79310344827586,20.38666666666667C84.82758620689656,23.235555555555564,85.86206896551724,30.78666666666667,86.89655172413794,30.78666666666667C87.93103448275862,30.78666666666667,88.96551724137932,12.200000000000003,90,12.200000000000003C91.0344827586207,12.200000000000003,92.06896551724138,13.335555555555542,93.10344827586208,14.73333333333333C94.13793103448276,16.131111111111107,95.17241379310344,19.22222222222222,96.20689655172413,20.586666666666666C97.24137931034483,21.95111111111112,98.27586206896551,22.919999999999998,99.3103448275862,22.919999999999998C100.3448275862069,22.919999999999998,101.37931034482759,22.786666666666665,102.41379310344828,22.786666666666665C103.44827586206897,22.786666666666665,104.48275862068965,24.897777777777787,105.51724137931033,26.466666666666665C106.55172413793103,28.035555555555558,107.58620689655172,32.199999999999996,108.62068965517241,32.199999999999996C109.65517241379311,32.199999999999996,110.6896551724138,20.12,111.72413793103449,20.12C112.75862068965517,20.12,113.79310344827587,21.77777777777778,114.82758620689656,22.880000000000003C115.86206896551724,23.982222222222227,116.89655172413794,26.102222222222228,117.93103448275862,26.733333333333334C118.96551724137932,27.364444444444445,120,27.662222222222223,121.0344827586207,27.68C122.06896551724138,27.697777777777777,123.10344827586208,27.68888888888889,124.13793103448276,27.706666666666667C125.17241379310344,27.724444444444444,126.20689655172414,29.086666666666666,127.24137931034483,30.28C128.27586206896552,31.473333333333336,129.3103448275862,34.86666666666667,130.3448275862069,34.86666666666667C131.3793103448276,34.86666666666667,132.41379310344828,26.21333333333333,133.44827586206898,26.21333333333333C134.48275862068965,26.21333333333333,135.51724137931035,26.70444444444446,136.55172413793102,27.400000000000002C137.58620689655172,28.09555555555556,138.6206896551724,29.826666666666668,139.6551724137931,30.38666666666667C140.6896551724138,30.94666666666667,141.72413793103448,31.226666666666667,142.75862068965517,31.226666666666667C143.79310344827587,31.226666666666667,144.82758620689654,31.02666666666667,145.86206896551724,31.02666666666667C146.89655172413794,31.02666666666667,147.9310344827586,32.800000000000004,148.9655172413793,33.666666666666664C150,34.53333333333333,151.0344827586207,36.10222222222222,152.0689655172414,36.22666666666667C153.10344827586206,36.35111111111111,154.13793103448276,36.413333333333334,155.17241379310343,36.413333333333334C156.20689655172413,36.413333333333334,157.24137931034483,28.040000000000003,158.27586206896552,28.040000000000003C159.31034482758622,28.040000000000003,160.3448275862069,31.857777777777777,161.3793103448276,31.946666666666665C162.41379310344828,32.035555555555554,163.44827586206895,31.99111111111111,164.48275862068965,32.08C165.51724137931035,32.16888888888889,166.55172413793102,36.74666666666666,167.58620689655172,36.74666666666666C168.6206896551724,36.74666666666666,169.6551724137931,30.85333333333333,170.6896551724138,30.85333333333333C171.7241379310345,30.85333333333333,172.75862068965517,40,173.79310344827587,40C174.82758620689657,40,175.86206896551724,40,176.89655172413794,40C177.93103448275863,40,178.9655172413793,40,180,40L180,40C178.9655172413793,40,177.93103448275863,40,176.89655172413794,40C175.86206896551724,40,174.82758620689657,40,173.79310344827587,40C172.75862068965517,40,171.7241379310345,40,170.6896551724138,40C169.6551724137931,40,168.6206896551724,40,167.58620689655172,40C166.55172413793102,40,165.51724137931035,40,164.48275862068965,40C163.44827586206895,40,162.41379310344828,40,161.3793103448276,40C160.3448275862069,40,159.31034482758622,40,158.27586206896552,40C157.24137931034483,40,156.20689655172413,40,155.17241379310343,40C154.13793103448276,40,153.10344827586206,40,152.0689655172414,40C151.0344827586207,40,150,40,148.9655172413793,40C147.9310344827586,40,146.89655172413794,40,145.86206896551724,40C144.82758620689654,40,143.79310344827587,40,142.75862068965517,40C141.72413793103448,40,140.6896551724138,40,139.6551724137931,40C138.6206896551724,40,137.58620689655172,40,136.55172413793102,40C135.51724137931035,40,134.48275862068965,40,133.44827586206898,40C132.41379310344828,40,131.3793103448276,40,130.3448275862069,40C129.3103448275862,40,128.27586206896552,40,127.24137931034483,40C126.20689655172414,40,125.17241379310344,40,124.13793103448276,40C123.10344827586208,40,122.06896551724138,40,121.0344827586207,40C120,40,118.96551724137932,40,117.93103448275862,40C116.89655172413794,40,115.86206896551724,40,114.82758620689656,40C113.79310344827587,40,112.75862068965517,40,111.72413793103449,40C110.6896551724138,40,109.65517241379311,40,108.62068965517241,40C107.58620689655172,40,106.55172413793103,40,105.51724137931033,40C104.48275862068965,40,103.44827586206897,40,102.41379310344828,40C101.37931034482759,40,100.3448275862069,40,99.3103448275862,40C98.27586206896551,40,97.24137931034483,40,96.20689655172413,40C95.17241379310344,40,94.13793103448276,40,93.10344827586208,40C92.06896551724138,40,91.0344827586207,40,90,40C88.96551724137932,40,87.93103448275862,40,86.89655172413794,40C85.86206896551724,40,84.82758620689656,40,83.79310344827586,40C82.75862068965517,40,81.72413793103448,40,80.6896551724138,40C79.6551724137931,40,78.62068965517241,40,77.58620689655172,40C76.55172413793103,40,75.51724137931033,40,74.48275862068965,40C73.44827586206897,40,72.41379310344827,40,71.37931034482759,40C70.34482758620689,40,69.3103448275862,40,68.27586206896551,40C67.24137931034483,40,66.20689655172413,40,65.17241379310344,40C64.13793103448276,40,63.10344827586207,40,62.06896551724138,40C61.03448275862069,40,60,40,58.96551724137931,40C57.93103448275862,40,56.896551724137936,40,55.862068965517246,40C54.827586206896555,40,53.79310344827586,40,52.75862068965517,40C51.72413793103448,40,50.689655172413794,40,49.6551724137931,40C48.62068965517241,40,47.58620689655173,40,46.55172413793104,40C45.51724137931035,40,44.48275862068966,40,43.44827586206897,40C42.41379310344828,40,41.37931034482759,40,40.3448275862069,40C39.310344827586206,40,38.275862068965516,40,37.241379310344826,40C36.206896551724135,40,35.172413793103445,40,34.137931034482754,40C33.103448275862064,40,32.06896551724138,40,31.03448275862069,40C30,40,28.965517241379313,40,27.931034482758623,40C26.896551724137932,40,25.862068965517242,40,24.82758620689655,40C23.79310344827586,40,22.758620689655174,40,21.724137931034484,40C20.689655172413794,40,19.655172413793103,40,18.620689655172413,40C17.586206896551722,40,16.551724137931036,40,15.517241379310345,40C14.482758620689655,40,13.448275862068966,40,12.413793103448276,40C11.379310344827585,40,10.344827586206897,40,9.310344827586206,40C8.275862068965516,40,7.241379310344827,40,6.206896551724138,40C5.172413793103448,40,4.137931034482759,40,3.103448275862069,40C2.068965517241379,40,1.0344827586206897,40,0,40Z"></path><path class="line" stroke="black" fill="none" d="M0,32.61333333333334C1.0344827586206897,24.87777777777778,2.068965517241379,17.142222222222227,3.103448275862069,16.520000000000003C4.137931034482759,15.897777777777781,5.172413793103448,15.58666666666667,6.206896551724138,15.58666666666667C7.241379310344827,15.58666666666667,8.275862068965516,17.102222222222224,9.310344827586206,18.053333333333335C10.344827586206897,19.004444444444445,11.379310344827585,21.293333333333333,12.413793103448276,21.293333333333333C13.448275862068966,21.293333333333333,14.482758620689655,17.946666666666665,15.517241379310345,17.946666666666665C16.551724137931036,17.946666666666665,17.586206896551722,18.648888888888887,18.620689655172413,20.053333333333335C19.655172413793103,21.457777777777782,20.689655172413794,30.78666666666667,21.724137931034484,30.78666666666667C22.758620689655174,30.78666666666667,23.79310344827586,12.42222222222222,24.82758620689655,11.373333333333333C25.862068965517242,10.324444444444445,26.896551724137932,9.8,27.931034482758623,9.8C28.965517241379313,9.8,30,10.791111111111112,31.03448275862069,12.773333333333333C32.06896551724138,14.755555555555553,33.103448275862064,27.746666666666666,34.137931034482754,27.746666666666666C35.172413793103445,27.746666666666666,36.206896551724135,13.399999999999999,37.241379310344826,13.399999999999999C38.275862068965516,13.399999999999999,39.310344827586206,14.793333333333333,40.3448275862069,16.866666666666667C41.37931034482759,18.94,42.41379310344828,25.84,43.44827586206897,25.84C44.48275862068966,25.84,45.51724137931035,24.804444444444446,46.55172413793104,22.733333333333334C47.58620689655173,20.66222222222223,48.62068965517241,12.293333333333331,49.6551724137931,8.759999999999998C50.689655172413794,5.226666666666665,51.72413793103448,1.5333333333333332,52.75862068965517,1.5333333333333332C53.79310344827586,1.5333333333333332,54.827586206896555,4.644444444444445,55.862068965517246,4.76C56.896551724137936,4.875555555555555,57.93103448275862,4.817777777777777,58.96551724137931,4.933333333333332C60,5.048888888888887,61.03448275862069,9.068888888888878,62.06896551724138,12.999999999999998C63.10344827586207,16.931111111111107,64.13793103448276,28.520000000000003,65.17241379310344,28.520000000000003C66.20689655172413,28.520000000000003,67.24137931034483,5.466666666666666,68.27586206896551,4.906666666666668C69.3103448275862,4.346666666666668,70.34482758620689,4.066666666666667,71.37931034482759,4.066666666666667C72.41379310344827,4.066666666666667,73.44827586206897,12.062222222222223,74.48275862068965,12.906666666666666C75.51724137931033,13.75111111111111,76.55172413793103,14.173333333333332,77.58620689655172,14.173333333333332C78.62068965517241,14.173333333333332,79.6551724137931,13.693333333333335,80.6896551724138,13.693333333333335C81.72413793103448,13.693333333333335,82.75862068965517,17.53777777777779,83.79310344827586,20.38666666666667C84.82758620689656,23.235555555555564,85.86206896551724,30.78666666666667,86.89655172413794,30.78666666666667C87.93103448275862,30.78666666666667,88.96551724137932,12.200000000000003,90,12.200000000000003C91.0344827586207,12.200000000000003,92.06896551724138,13.335555555555542,93.10344827586208,14.73333333333333C94.13793103448276,16.131111111111107,95.17241379310344,19.22222222222222,96.20689655172413,20.586666666666666C97.24137931034483,21.95111111111112,98.27586206896551,22.919999999999998,99.3103448275862,22.919999999999998C100.3448275862069,22.919999999999998,101.37931034482759,22.786666666666665,102.41379310344828,22.786666666666665C103.44827586206897,22.786666666666665,104.48275862068965,24.897777777777787,105.51724137931033,26.466666666666665C106.55172413793103,28.035555555555558,107.58620689655172,32.199999999999996,108.62068965517241,32.199999999999996C109.65517241379311,32.199999999999996,110.6896551724138,20.12,111.72413793103449,20.12C112.75862068965517,20.12,113.79310344827587,21.77777777777778,114.82758620689656,22.880000000000003C115.86206896551724,23.982222222222227,116.89655172413794,26.102222222222228,117.93103448275862,26.733333333333334C118.96551724137932,27.364444444444445,120,27.662222222222223,121.0344827586207,27.68C122.06896551724138,27.697777777777777,123.10344827586208,27.68888888888889,124.13793103448276,27.706666666666667C125.17241379310344,27.724444444444444,126.20689655172414,29.086666666666666,127.24137931034483,30.28C128.27586206896552,31.473333333333336,129.3103448275862,34.86666666666667,130.3448275862069,34.86666666666667C131.3793103448276,34.86666666666667,132.41379310344828,26.21333333333333,133.44827586206898,26.21333333333333C134.48275862068965,26.21333333333333,135.51724137931035,26.70444444444446,136.55172413793102,27.400000000000002C137.58620689655172,28.09555555555556,138.6206896551724,29.826666666666668,139.6551724137931,30.38666666666667C140.6896551724138,30.94666666666667,141.72413793103448,31.226666666666667,142.75862068965517,31.226666666666667C143.79310344827587,31.226666666666667,144.82758620689654,31.02666666666667,145.86206896551724,31.02666666666667C146.89655172413794,31.02666666666667,147.9310344827586,32.800000000000004,148.9655172413793,33.666666666666664C150,34.53333333333333,151.0344827586207,36.10222222222222,152.0689655172414,36.22666666666667C153.10344827586206,36.35111111111111,154.13793103448276,36.413333333333334,155.17241379310343,36.413333333333334C156.20689655172413,36.413333333333334,157.24137931034483,28.040000000000003,158.27586206896552,28.040000000000003C159.31034482758622,28.040000000000003,160.3448275862069,31.857777777777777,161.3793103448276,31.946666666666665C162.41379310344828,32.035555555555554,163.44827586206895,31.99111111111111,164.48275862068965,32.08C165.51724137931035,32.16888888888889,166.55172413793102,36.74666666666666,167.58620689655172,36.74666666666666C168.6206896551724,36.74666666666666,169.6551724137931,30.85333333333333,170.6896551724138,30.85333333333333C171.7241379310345,30.85333333333333,172.75862068965517,40,173.79310344827587,40C174.82758620689657,40,175.86206896551724,40,176.89655172413794,40C177.93103448275863,40,178.9655172413793,40,180,40"></path><path class="axis-ceiling" stroke-width="1" stroke="black" fill="none" d="M175,0L180,0"></path><text class="axis-ceiling-label" font-family="sans-serif" text-anchor="end" font-size="10px" x="170" y="2.5">3000</text></g></svg>