<svg xmlns="http://www.w3.org/2000/svg" viewBox="0 0 180 60"><g transform="translate(0,20)"><path class="area" fill="rgba(0, 0, 0, 0.2)" d="M0,6.000000000000001C1.0344827586206897,17.500000000000004,2.068965517241379,29,3.103448275862069,29C4.137931034482759,29,5.172413793103448,3.999999999999999,6.206896551724138,3.999999999999999C7.241379310344827,3.999999999999999,8.275862068965516,15.333333333333334,9.310344827586206,18C10.344827586206897,20.666666666666668,11.379310344827585,20.666666666666668,12.413793103448276,22C13.448275862068966,23.333333333333332,14.482758620689655,24.5,15.517241379310345,26C16.551724137931036,27.5,17.586206896551722,31,18.620689655172413,31C19.655172413793103,31,20.689655172413794,12.000000000000002,21.724137931034484,12.000000000000002C22.758620689655174,12.000000000000002,23.79310344827586,18.166666666666668,24.82758620689655,20C25.862068965517242,21.833333333333336,26.896551724137932,22.166666666666668,27.931034482758623,23C28.965517241379313,23.833333333333332,30,24.333333333333332,31.03448275862069,25C32.06896551724138,25.666666666666668,33.103448275862064,27,34.137931034482754,27C35.172413793103445,27,36.206896551724135,22,37.241379310344826,22C38.275862068965516,22,39.310344827586206,24,40.3448275862069,24C41.37931034482759,24,42.41379310344828,24,43.44827586206897,24C44.48275862068966,24,45.51724137931035,18,46.55172413793104,16C47.58620689655173,14.000000000000004,48.62068965517241,12.000000000000002,49.6551724137931,12.000000000000002C50.689655172413794,12.000000000000002,51.72413793103448,23,52.75862068965517,23C53.79310344827586,23,54.827586206896555,22,55.862068965517246,22C56.896551724137936,22,57.93103448275862,24,58.96551724137931,24C60,24,61.03448275862069,23.333333333333332,62.06896551724138,22C63.10344827586207,20.66666666666667,64.13793103448276,15,65.17241379310344,15C66.20689655172413,15,67.24137931034483,27,68.27586206896551,27C69.3103448275862,27,70.34482758620689,21,71.37931034482759,21C72.41379310344827,21,73.44827586206897,27.666666666666668,74.48275862068965,29C75.51724137931033,30.333333333333332,76.55172413793103,31,77.58620689655172,31C78.62068965517241,31,79.6551724137931,28,80.6896551724138,27C81.72413793103448,26.000000000000004,82.75862068965517,25.5,83.79310344827586,25C84.82758620689656,24.499999999999996,85.86206896551724,24,86.89655172413794,24C87.93103448275862,24,88.96551724137932,29,90,29C91.0344827586207,29,92.06896551724138,20,93.10344827586208,20C94.13793103448276,20,95.17241379310344,29.000000000000018,96.20689655172413,31C97.24137931034483,33,98.27586206896551,34,99.3103448275862,34C100.3448275862069,34,101.37931034482759,34,102.41379310344828,34C103.44827586206897,34,104.48275862068965,23,105.51724137931033,23C106.55172413793103,23,107.58620689655172,33,108.62068965517241,33C109.65517241379311,33,110.6896551724138,31,111.72413793103449,31C112.75862068965517,31,113.79310344827587,31,114.82758620689656,31C115.86206896551724,31,116.89655172413794,28,117.93103448275862,28C118.96551724137932,28,120,31,121.0344827586207,32C122.06896551724138,32.99999999999999,123.10344827586208,34,124.13793103448276,34C125.17241379310344,34,126.20689655172414,22,127.24137931034483,22C128.27586206896552,22,129.3103448275862,26,130.3448275862069,26C131.3793103448276,26,132.41379310344828,24,133.44827586206898,24C134.48275862068965,24,135.51724137931035,24,136.55172413793102,24C137.58620689655172,24,138.6206896551724,29.33333333333333,139.6551724137931,30C140.6896551724138,30.666666666666668,141.72413793103448,30.5,142.75862068965517,31C143.79310344827587,31.5,144.82758620689654,33,145.86206896551724,33C146.89655172413794,33,147.9310344827586,30,148.9655172413793,30C150,30,151.0344827586207,36,152.0689655172414,36C153.10344827586206,36,154.13793103448276,35.49999999999999,155.17241379310343,35C156.20689655172413,34.5,157.24137931034483,33,158.27586206896552,33C159.31034482758622,33,160.3448275862069,38.333333333333336,161.3793103448276,39C162.41379310344828,39.666666666666664,163.44827586206895,40,164.48275862068965,40C165.51724137931035,40,166.55172413793102,35,167.58620689655172,35C168.6206896551724,35,169.6551724137931,35,170.6896551724138,35C171.7241379310345,35,172.75862068965517,30,173.79310344827587,30C174.82758620689657,30,175.86206896551724,34.666666666666664,176.89655172413794,36C177.93103448275863,37.333333333333336,178.9655172413793,37.666666666666664,180,38L180,40C178.9655172413793,40,177.93103448275863,40,176.89655172413794,40C175.86206896551724,40,174.82758620689657,40,173.79310344827587,40C172.75862068965517,40,171.7241379310345,40,170.6896551724138,40C169.6551724137931,40,168.6206896551724,40,167.58620689655172,40C166.55172413793102,40,165.51724137931035,40,164.48275862068965,40C163.44827586206895,40,162.41379310344828,40,161.3793103448276,40C160.3448275862069,40,159.31034482758622,40,158.27586206896552,40C157.24137931034483,40,156.20689655172413,40,155.17241379310343,40C154.13793103448276,40,153.10344827586206,40,152.0689655172414,40C151.0344827586207,40,150,40,148.9655172413793,40C147.9310344827586,40,146.89655172413794,40,145.86206896551724,40C144.82758620689654,40,143.79310344827587,40,142.75862068965517,40C141.72413793103448,40,140.6896551724138,40,139.6551724137931,40C138.6206896551724,40,137.58620689655172,40,136.55172413793102,40C135.51724137931035,40,134.48275862068965,40,133.44827586206898,40C132.41379310344828,40,131.3793103448276,40,130.3448275862069,40C129.3103448275862,40,128.27586206896552,40,127.24137931034483,40C126.20689655172414,40,125.17241379310344,40,124.13793103448276,40C123.10344827586208,40,122.06896551724138,40,121.0344827586207,40C120,40,118.96551724137932,40,117.93103448275862,40C116.89655172413794,40,115.86206896551724,40,114.82758620689656,40C113.79310344827587,40,112.75862068965517,40,111.72413793103449,40C110.6896551724138,40,109.65517241379311,40,108.62068965517241,40C107.58620689655172,40,106.55172413793103,40,105.51724137931033,40C104.48275862068965,40,103.44827586206897,40,102.41379310344828,40C101.37931034482759,40,100.3448275862069,40,99.3103448275862,40C98.27586206896551,40,97.24137931034483,40,96.20689655172413,40C95.17241379310344,40,94.13793103448276,40,93.10344827586208,40C92.06896551724138,40,91.0344827586207,40,90,40C88.96551724137932,40,87.93103448275862,40,86.89655172413794,40C85.86206896551724,40,84.82758620689656,40,83.79310344827586,40C82.75862068965517,40,81.72413793103448,40,80.6896551724138,40C79.6551724137931,40,78.62068965517241,40,77.58620689655172,40C76.55172413793103,40,75.51724137931033,40,74.48275862068965,40C73.44827586206897,40,72.41379310344827,40,71.37931034482759,40C70.34482758620689,40,69.3103448275862,40,68.27586206896551,40C67.24137931034483,40,66.20689655172413,40,65.17241379310344,40C64.13793103448276,40,63.10344827586207,40,62.06896551724138,40C61.03448275862069,40,60,40,58.96551724137931,40C57.93103448275862,40,56.896551724137936,40,55.862068965517246,40C54.827586206896555,40,53.79310344827586,40,52.75862068965517,40C51.72413793103448,40,50.689655172413794,40,49.6551724137931,40C48.62068965517241,40,47.58620689655173,40,46.55172413793104,40C45.51724137931035,40,44.48275862068966,40,43.44827586206897,40C42.41379310344828,40,41.37931034482759,40,40.3448275862069,40C39.310344827586206,40,38.275862068965516,40,37.241379310344826,40C36.206896551724135,40,35.172413793103445,40,34.137931034482754,40C33.103448275862064,40,32.06896551724138,40,31.03448275862069,40C30,40,28.965517241379313,40,27.931034482758623,40C26.896551724137932,40,25.862068965517242,40,24.82758620689655,40C23.79310344827586,40,22.758620689655174,40,21.724137931034484,40C20.689655172413794,40,19.655172413793103,40,18.620689655172413,40C17.586206896551722,40,16.551724137931036,40,15.517241379310345,40C14.482758620689655,40,13.448275862068966,40,12.413793103448276,40C11.379310344827585,40,10.344827586206897,40,9.310344827586206,40C8.275862068965516,40,7.241379310344827,40,6.206896551724138,40C5.172413793103448,40,4.137931034482759,40,3.103448275862069,40C2.068965517241379,40,1.0344827586206897,40,0,40Z"></path><path class="line" stroke="black" fill="none" d="M0,6.000000000000001C1.0344827586206897,17.500000000000004,2.068965517241379,29,3.103448275862069,29C4.137931034482759,29,5.172413793103448,3.999999999999999,6.206896551724138,3.999999999999999C7.241379310344827,3.999999999999999,8.275862068965516,15.333333333333334,9.310344827586206,18C10.344827586206897,20.666666666666668,11.379310344827585,20.666666666666668,12.413793103448276,22C13.448275862068966,23.333333333333332,14.482758620689655,24.5,15.517241379310345,26C16.551724137931036,27.5,17.586206896551722,31,18.620689655172413,31C19.655172413793103,31,20.689655172413794,12.000000000000002,21.724137931034484,12.000000000000002C22.758620689655174,12.000000000000002,23.79310344827586,18.166666666666668,24.82758620689655,20C25.862068965517242,21.833333333333336,26.896551724137932,22.166666666666668,27.931034482758623,23C28.965517241379313,23.833333333333332,30,24.333333333333332,31.03448275862069,25C32.06896551724138,25.666666666666668,33.103448275862064,27,34.137931034482754,27C35.172413793103445,27,36.206896551724135,22,37.241379310344826,22C38.275862068965516,22,39.310344827586206,24,40.3448275862069,24C41.37931034482759,24,42.41379310344828,24,43.44827586206897,24C44.48275862068966,24,45.51724137931035,18,46.55172413793104,16C47.58620689655173,14.000000000000004,48.62068965517241,12.000000000000002,49.6551724137931,12.000000000000002C50.689655172413794,12.000000000000002,51.72413793103448,23,52.75862068965517,23C53.79310344827586,23,54.827586206896555,22,55.862068965517246,22C56.896551724137936,22,57.93103448275862,24,58.96551724137931,24C60,24,61.03448275862069,23.333333333333332,62.06896551724138,22C63.10344827586207,20.66666666666667,64.13793103448276,15,65.17241379310344,15C66.20689655172413,15,67.24137931034483,27,68.27586206896551,27C69.3103448275862,27,70.34482758620689,21,71.37931034482759,21C72.41379310344827,21,73.44827586206897,27.666666666666668,74.48275862068965,29C75.51724137931033,30.333333333333332,76.55172413793103,31,77.58620689655172,31C78.62068965517241,31,79.6551724137931,28,80.6896551724138,27C81.72413793103448,26.000000000000004,82.75862068965517,25.5,83.79310344827586,25C84.82758620689656,24.499999999999996,85.86206896551724,24,86.89655172413794,24C87.93103448275862,24,88.96551724137932,29,90,29C91.0344827586207,29,92.06896551724138,20,93.10344827586208,20C94.13793103448276,20,95.17241379310344,29.000000000000018,96.20689655172413,31C97.24137931034483,33,98.27586206896551,34,99.3103448275862,34C100.3448275862069,34,101.37931034482759,34,102.41379310344828,34C103.44827586206897,34,104.48275862068965,23,105.51724137931033,23C106.55172413793103,23,107.58620689655172,33,108.62068965517241,33C109.65517241379311,33,110.6896551724138,31,111.72413793103449,31C112.75862068965517,31,113.79310344827587,31,114.82758620689656,31C115.86206896551724,31,116.89655172413794,28,117.93103448275862,28C118.96551724137932,28,120,31,121.0344827586207,32C122.06896551724138,32.99999999999999,123.10344827586208,34,124.13793103448276,34C125.17241379310344,34,126.20689655172414,22,127.24137931034483,22C128.27586206896552,22,129.3103448275862,26,130.3448275862069,26C131.3793103448276,26,132.41379310344828,24,133.44827586206898,24C134.48275862068965,24,135.51724137931035,24,136.55172413793102,24C137.58620689655172,24,138.6206896551724,29.33333333333333,139.6551724137931,30C140.6896551724138,30.666666666666668,141.72413793103448,30.5,142.75862068965517,31C143.79310344827587,31.5,144.82758620689654,33,145.86206896551724,33C146.89655172413794,33,147.9310344827586,30,148.9655172413793,30C150,30,151.0344827586207,36,152.0689655172414,36C153.10344827586206,36,154.13793103448276,35.49999999999999,155.17241379310343,35C156.20689655172413,34.5,157.24137931034483,33,158.27586206896552,33C159.31034482758622,33,160.3448275862069,38.333333333333336,161.3793103448276,39C162.41379310344828,39.666666666666664,163.44827586206895,40,164.48275862068965,40C165.51724137931035,40,166.55172413793102,35,167.58620689655172,35C168.6206896551724,35,169.6551724137931,35,170.6896551724138,35C171.7241379310345,35,172.75862068965517,30,173.79310344827587,30C174.82758620689657,30,175.86206896551724,34.666666666666664,176.89655172413794,36C177.93103448275863,37.333333333333336,178.9655172413793,37.666666666666664,180,38"></path><path class="axis-ceiling" stroke-width="1" stroke="black" fill="none" d="M175,0L180,0"></path><text class="axis-ceiling-label" font-family="sans-serif" text-anchor="end" font-size="10px" x="170" y="2.5">40</text></g></svg>