<svg xmlns="http://www.w3.org/2000/svg" viewBox="0 0 180 60"><g transform="translate(0,20)"><path class="area" fill="rgba(0, 0, 0, 0.2)" d="M0,35.55555555555556C1.0169491525423728,36,2.0338983050847457,36.44444444444444,3.0508474576271185,36.44444444444444C4.067796610169491,36.44444444444444,5.084745762711864,35.851851851851855,6.101694915254237,35.55555555555556C7.11864406779661,35.25925925925926,8.135593220338983,34.66666666666667,9.152542372881356,34.66666666666667C10.169491525423728,34.66666666666667,11.186440677966102,34.66666666666667,12.203389830508474,34.66666666666667C13.220338983050846,34.66666666666667,14.23728813559322,32,15.254237288135592,32C16.271186440677965,32,17.28813559322034,32,18.305084745762713,32C19.322033898305087,32,20.338983050847457,32,21.35593220338983,32C22.372881355932204,32,23.389830508474574,31.11111111111111,24.406779661016948,31.11111111111111C25.423728813559322,31.11111111111111,26.440677966101696,31.11111111111111,27.45762711864407,31.11111111111111C28.47457627118644,31.11111111111111,29.491525423728813,32,30.508474576271183,32C31.525423728813557,32,32.54237288135593,31.11111111111111,33.559322033898304,31.11111111111111C34.57627118644068,31.11111111111111,35.59322033898305,31.11111111111111,36.610169491525426,31.11111111111111C37.6271186440678,31.11111111111111,38.644067796610166,31.11111111111111,39.66101694915254,31.11111111111111C40.67796610169491,31.11111111111111,41.69491525423729,31.11111111111111,42.71186440677966,31.11111111111111C43.728813559322035,31.11111111111111,44.7457627118644,31.11111111111111,45.762711864406775,31.11111111111111C46.77966101694915,31.11111111111111,47.79661016949152,32,48.813559322033896,32C49.83050847457627,32,50.847457627118644,31.11111111111111,51.86440677966102,31.11111111111111C52.88135593220339,31.11111111111111,53.898305084745765,31.703703703703702,54.91525423728814,32C55.93220338983051,32.2962962962963,56.94915254237288,32.59259259259259,57.96610169491525,32.888888888888886C58.983050847457626,33.18518518518518,59.99999999999999,33.77777777777778,61.01694915254237,33.77777777777778C62.03389830508474,33.77777777777778,63.05084745762712,33.77777777777778,64.0677966101695,33.77777777777778C65.08474576271186,33.77777777777778,66.10169491525424,33.77777777777778,67.11864406779661,33.77777777777778C68.13559322033899,33.77777777777778,69.15254237288136,33.77777777777778,70.16949152542374,33.77777777777778C71.1864406779661,33.77777777777778,72.20338983050848,33.77777777777778,73.22033898305085,33.77777777777778C74.23728813559322,33.77777777777778,75.2542372881356,33.18518518518518,76.27118644067797,32.888888888888886C77.28813559322033,32.59259259259259,78.30508474576271,32,79.32203389830508,32C80.33898305084746,32,81.35593220338983,32,82.37288135593221,32C83.38983050847457,32,84.40677966101696,31.407407407407405,85.42372881355932,31.11111111111111C86.4406779661017,30.814814814814813,87.45762711864407,30.666666666666668,88.47457627118645,30.22222222222222C89.49152542372882,29.77777777777778,90.50847457627118,28.88888888888889,91.52542372881355,28.444444444444446C92.54237288135593,27.999999999999996,93.55932203389831,27.555555555555557,94.57627118644069,27.555555555555557C95.59322033898306,27.555555555555557,96.61016949152543,27.555555555555557,97.62711864406779,27.555555555555557C98.64406779661016,27.555555555555557,99.66101694915254,27.555555555555557,100.6779661016949,27.555555555555557C101.69491525423729,27.555555555555557,102.71186440677965,25.777777777777775,103.72881355932203,25.777777777777775C104.7457627118644,25.777777777777775,105.76271186440678,25.777777777777775,106.77966101694915,25.777777777777775C107.79661016949153,25.777777777777775,108.8135593220339,25.777777777777775,109.83050847457628,25.777777777777775C110.84745762711864,25.777777777777775,111.86440677966102,25.48148148148148,112.88135593220339,24.88888888888889C113.89830508474576,24.296296296296298,114.91525423728814,22.962962962962962,115.9322033898305,22.22222222222222C116.94915254237289,21.481481481481477,117.96610169491525,20.444444444444443,118.98305084745763,20.444444444444443C120,20.444444444444443,121.01694915254237,20.444444444444443,122.03389830508473,20.444444444444443C123.05084745762711,20.444444444444443,124.0677966101695,20.444444444444443,125.08474576271188,20.444444444444443C126.10169491525424,20.444444444444443,127.11864406779662,18.814814814814817,128.135593220339,17.77777777777778C129.15254237288136,16.740740740740744,130.16949152542372,15.259259259259256,131.1864406779661,14.222222222222221C132.20338983050846,13.185185185185178,133.22033898305085,12.296296296296294,134.23728813559322,11.555555555555554C135.25423728813558,10.814814814814813,136.27118644067798,10.518518518518519,137.28813559322035,9.777777777777779C138.3050847457627,9.037037037037038,139.3220338983051,7.851851851851856,140.33898305084747,7.1111111111111125C141.35593220338984,6.3703703703703765,142.3728813559322,5.925925925925922,143.38983050847457,5.333333333333332C144.40677966101694,4.740740740740737,145.42372881355934,4.000000000000001,146.4406779661017,3.5555555555555562C147.45762711864407,3.111111111111115,148.47457627118644,3.111111111111107,149.4915254237288,2.666666666666666C150.50847457627117,2.222222222222221,151.52542372881356,1.3333333333333346,152.54237288135593,0.8888888888888902C153.5593220338983,0.4444444444444458,154.5762711864407,0,155.59322033898306,0C156.61016949152543,0,157.6271186440678,2.5185185185185226,158.64406779661016,3.5555555555555562C159.66101694915253,4.5925925925926,160.67796610169492,5.333333333333334,161.6949152542373,6.222222222222222C162.71186440677965,7.111111111111111,163.72881355932205,8.296296296296296,164.74576271186442,8.88888888888889C165.76271186440678,9.481481481481477,166.77966101694915,9.481481481481483,167.79661016949152,9.777777777777779C168.81355932203388,10.074074074074076,169.83050847457628,10.222222222222223,170.84745762711864,10.666666666666668C171.864406779661,11.111111111111112,172.8813559322034,11.703703703703704,173.89830508474577,12.444444444444445C174.91525423728814,13.185185185185185,175.93220338983053,15.11111111111111,176.9491525423729,15.11111111111111C177.96610169491527,15.11111111111111,178.98305084745763,14.222222222222223,180,13.333333333333336L180,40C178.98305084745763,40,177.96610169491527,40,176.9491525423729,40C175.93220338983053,40,174.91525423728814,40,173.89830508474577,40C172.8813559322034,40,171.864406779661,40,170.84745762711864,40C169.83050847457628,40,168.81355932203388,40,167.79661016949152,40C166.77966101694915,40,165.76271186440678,40,164.74576271186442,40C163.72881355932205,40,162.71186440677965,40,161.6949152542373,40C160.67796610169492,40,159.66101694915253,40,158.64406779661016,40C157.6271186440678,40,156.61016949152543,40,155.59322033898306,40C154.5762711864407,40,153.5593220338983,40,152.54237288135593,40C151.52542372881356,40,150.50847457627117,40,149.4915254237288,40C148.47457627118644,40,147.45762711864407,40,146.4406779661017,40C145.42372881355934,40,144.40677966101694,40,143.38983050847457,40C142.3728813559322,40,141.35593220338984,40,140.33898305084747,40C139.3220338983051,40,138.3050847457627,40,137.28813559322035,40C136.27118644067798,40,135.25423728813558,40,134.23728813559322,40C133.22033898305085,40,132.20338983050846,40,131.1864406779661,40C130.16949152542372,40,129.15254237288136,40,128.135593220339,40C127.11864406779662,40,126.10169491525424,40,125.08474576271188,40C124.0677966101695,40,123.05084745762711,40,122.03389830508473,40C121.01694915254237,40,120,40,118.98305084745763,40C117.96610169491525,40,116.94915254237289,40,115.9322033898305,40C114.91525423728814,40,113.89830508474576,40,112.88135593220339,40C111.86440677966102,40,110.84745762711864,40,109.83050847457628,40C108.8135593220339,40,107.79661016949153,40,106.77966101694915,40C105.76271186440678,40,104.7457627118644,40,103.72881355932203,40C102.71186440677965,40,101.69491525423729,40,100.6779661016949,40C99.66101694915254,40,98.64406779661016,40,97.62711864406779,40C96.61016949152543,40,95.59322033898306,40,94.57627118644069,40C93.55932203389831,40,92.54237288135593,40,91.52542372881355,40C90.50847457627118,40,89.49152542372882,40,88.47457627118645,40C87.45762711864407,40,86.4406779661017,40,85.42372881355932,40C84.40677966101696,40,83.38983050847457,40,82.37288135593221,40C81.35593220338983,40,80.33898305084746,40,79.32203389830508,40C78.30508474576271,40,77.28813559322033,40,76.27118644067797,40C75.2542372881356,40,74.23728813559322,40,73.22033898305085,40C72.20338983050848,40,71.1864406779661,40,70.16949152542374,40C69.15254237288136,40,68.13559322033899,40,67.11864406779661,40C66.10169491525424,40,65.08474576271186,40,64.0677966101695,40C63.05084745762712,40,62.03389830508474,40,61.01694915254237,40C59.99999999999999,40,58.983050847457626,40,57.96610169491525,40C56.94915254237288,40,55.93220338983051,40,54.91525423728814,40C53.898305084745765,40,52.88135593220339,40,51.86440677966102,40C50.847457627118644,40,49.83050847457627,40,48.813559322033896,40C47.79661016949152,40,46.77966101694915,40,45.762711864406775,40C44.7457627118644,40,43.728813559322035,40,42.71186440677966,40C41.69491525423729,40,40.67796610169491,40,39.66101694915254,40C38.644067796610166,40,37.6271186440678,40,36.610169491525426,40C35.59322033898305,40,34.57627118644068,40,33.559322033898304,40C32.54237288135593,40,31.525423728813557,40,30.508474576271183,40C29.491525423728813,40,28.47457627118644,40,27.45762711864407,40C26.440677966101696,40,25.423728813559322,40,24.406779661016948,40C23.389830508474574,40,22.372881355932204,40,21.35593220338983,40C20.338983050847457,40,19.322033898305087,40,18.305084745762713,40C17.28813559322034,40,16.271186440677965,40,15.254237288135592,40C14.23728813559322,40,13.220338983050846,40,12.203389830508474,40C11.186440677966102,40,10.169491525423728,40,9.152542372881356,40C8.135593220338983,40,7.11864406779661,40,6.101694915254237,40C5.084745762711864,40,4.067796610169491,40,3.0508474576271185,40C2.0338983050847457,40,1.0169491525423728,40,0,40Z"></path><path class="line" stroke="black" fill="none" d="M0,35.55555555555556C1.0169491525423728,36,2.0338983050847457,36.44444444444444,3.0508474576271185,36.44444444444444C4.067796610169491,36.44444444444444,5.084745762711864,35.851851851851855,6.101694915254237,35.55555555555556C7.11864406779661,35.25925925925926,8.135593220338983,34.66666666666667,9.152542372881356,34.66666666666667C10.169491525423728,34.66666666666667,11.186440677966102,34.66666666666667,12.203389830508474,34.66666666666667C13.220338983050846,34.66666666666667,14.23728813559322,32,15.254237288135592,32C16.271186440677965,32,17.28813559322034,32,18.305084745762713,32C19.322033898305087,32,20.338983050847457,32,21.35593220338983,32C22.372881355932204,32,23.389830508474574,31.11111111111111,24.406779661016948,31.11111111111111C25.423728813559322,31.11111111111111,26.440677966101696,31.11111111111111,27.45762711864407,31.11111111111111C28.47457627118644,31.11111111111111,29.491525423728813,32,30.508474576271183,32C31.525423728813557,32,32.54237288135593,31.11111111111111,33.559322033898304,31.11111111111111C34.57627118644068,31.11111111111111,35.59322033898305,31.11111111111111,36.610169491525426,31.11111111111111C37.6271186440678,31.11111111111111,38.644067796610166,31.11111111111111,39.66101694915254,31.11111111111111C40.67796610169491,31.11111111111111,41.69491525423729,31.11111111111111,42.71186440677966,31.11111111111111C43.728813559322035,31.11111111111111,44.7457627118644,31.11111111111111,45.762711864406775,31.11111111111111C46.77966101694915,31.11111111111111,47.79661016949152,32,48.813559322033896,32C49.83050847457627,32,50.847457627118644,31.11111111111111,51.86440677966102,31.11111111111111C52.88135593220339,31.11111111111111,53.898305084745765,31.703703703703702,54.91525423728814,32C55.93220338983051,32.2962962962963,56.94915254237288,32.59259259259259,57.96610169491525,32.888888888888886C58.983050847457626,33.18518518518518,59.99999999999999,33.77777777777778,61.01694915254237,33.77777777777778C62.03389830508474,33.77777777777778,63.05084745762712,33.77777777777778,64.0677966101695,33.77777777777778C65.08474576271186,33.77777777777778,66.10169491525424,33.77777777777778,67.11864406779661,33.77777777777778C68.13559322033899,33.77777777777778,69.15254237288136,33.77777777777778,70.16949152542374,33.77777777777778C71.1864406779661,33.77777777777778,72.20338983050848,33.77777777777778,73.22033898305085,33.77777777777778C74.23728813559322,33.77777777777778,75.2542372881356,33.18518518518518,76.27118644067797,32.888888888888886C77.28813559322033,32.59259259259259,78.30508474576271,32,79.32203389830508,32C80.33898305084746,32,81.35593220338983,32,82.37288135593221,32C83.38983050847457,32,84.40677966101696,31.407407407407405,85.42372881355932,31.11111111111111C86.4406779661017,30.814814814814813,87.45762711864407,30.666666666666668,88.47457627118645,30.22222222222222C89.49152542372882,29.77777777777778,90.50847457627118,28.88888888888889,91.52542372881355,28.444444444444446C92.54237288135593,27.999999999999996,93.55932203389831,27.555555555555557,94.57627118644069,27.555555555555557C95.59322033898306,27.555555555555557,96.61016949152543,27.555555555555557,97.62711864406779,27.555555555555557C98.64406779661016,27.555555555555557,99.66101694915254,27.555555555555557,100.6779661016949,27.555555555555557C101.69491525423729,27.555555555555557,102.71186440677965,25.777777777777775,103.72881355932203,25.777777777777775C104.7457627118644,25.777777777777775,105.76271186440678,25.777777777777775,106.77966101694915,25.777777777777775C107.79661016949153,25.777777777777775,108.8135593220339,25.777777777777775,109.83050847457628,25.777777777777775C110.84745762711864,25.777777777777775,111.86440677966102,25.48148148148148,112.88135593220339,24.88888888888889C113.89830508474576,24.296296296296298,114.91525423728814,22.962962962962962,115.9322033898305,22.22222222222222C116.94915254237289,21.481481481481477,117.96610169491525,20.444444444444443,118.98305084745763,20.444444444444443C120,20.444444444444443,121.01694915254237,20.444444444444443,122.03389830508473,20.444444444444443C123.05084745762711,20.444444444444443,124.0677966101695,20.444444444444443,125.08474576271188,20.444444444444443C126.10169491525424,20.444444444444443,127.11864406779662,18.814814814814817,128.135593220339,17.77777777777778C129.15254237288136,16.740740740740744,130.16949152542372,15.259259259259256,131.1864406779661,14.222222222222221C132.20338983050846,13.185185185185178,133.22033898305085,12.296296296296294,134.23728813559322,11.555555555555554C135.25423728813558,10.814814814814813,136.27118644067798,10.518518518518519,137.28813559322035,9.777777777777779C138.3050847457627,9.037037037037038,139.3220338983051,7.851851851851856,140.33898305084747,7.1111111111111125C141.35593220338984,6.3703703703703765,142.3728813559322,5.925925925925922,143.38983050847457,5.333333333333332C144.40677966101694,4.740740740740737,145.42372881355934,4.000000000000001,146.4406779661017,3.5555555555555562C147.45762711864407,3.111111111111115,148.47457627118644,3.111111111111107,149.4915254237288,2.666666666666666C150.50847457627117,2.222222222222221,151.52542372881356,1.3333333333333346,152.54237288135593,0.8888888888888902C153.5593220338983,0.4444444444444458,154.5762711864407,0,155.59322033898306,0C156.61016949152543,0,157.6271186440678,2.5185185185185226,158.64406779661016,3.5555555555555562C159.66101694915253,4.5925925925926,160.67796610169492,5.333333333333334,161.6949152542373,6.222222222222222C162.71186440677965,7.111111111111111,163.72881355932205,8.296296296296296,164.74576271186442,8.88888888888889C165.76271186440678,9.481481481481477,166.77966101694915,9.481481481481483,167.79661016949152,9.777777777777779C168.81355932203388,10.074074074074076,169.83050847457628,10.222222222222223,170.84745762711864,10.666666666666668C171.864406779661,11.111111111111112,172.8813559322034,11.703703703703704,173.89830508474577,12.444444444444445C174.91525423728814,13.185185185185185,175.93220338983053,15.11111111111111,176.9491525423729,15.11111111111111C177.96610169491527,15.11111111111111,178.98305084745763,14.222222222222223,180,13.333333333333336"></path><path class="axis-ceiling" stroke-width="1" stroke="black" fill="none" d="M175,0L180,0"></path><text class="axis-ceiling-label" font-family="sans-serif" text-anchor="end" font-size="10px" x="170" y="2.5">45</text></g></svg>