<svg xmlns="http://www.w3.org/2000/svg" viewBox="0 0 180 60"><g transform="translate(0,20)"><path class="area" fill="rgba(0, 0, 0, 0.2)" d="M0,40C1.0169491525423728,40,2.0338983050847457,40,3.0508474576271185,40C4.067796610169491,40,5.084745762711864,40,6.101694915254237,40C7.11864406779661,40,8.135593220338983,40,9.152542372881356,40C10.169491525423728,40,11.186440677966102,40,12.203389830508474,40C13.220338983050846,40,14.23728813559322,40,15.254237288135592,40C16.271186440677965,40,17.28813559322034,40,18.305084745762713,40C19.322033898305087,40,20.338983050847457,40,21.35593220338983,40C22.372881355932204,40,23.389830508474574,40,24.406779661016948,40C25.423728813559322,40,26.440677966101696,40,27.45762711864407,40C28.47457627118644,40,29.491525423728813,40,30.508474576271183,40C31.525423728813557,40,32.54237288135593,40,33.559322033898304,40C34.57627118644068,40,35.59322033898305,39.91111111111111,36.610169491525426,39.91111111111111C37.6271186440678,39.91111111111111,38.644067796610166,39.91111111111111,39.66101694915254,39.91111111111111C40.67796610169491,39.91111111111111,41.69491525423729,39.91111111111111,42.71186440677966,39.91111111111111C43.728813559322035,39.91111111111111,44.7457627118644,40,45.762711864406775,40C46.77966101694915,40,47.79661016949152,40,48.813559322033896,40C49.83050847457627,40,50.847457627118644,39.733333333333334,51.86440677966102,39.733333333333334C52.88135593220339,39.733333333333334,53.898305084745765,39.86666666666667,54.91525423728814,39.91111111111111C55.93220338983051,39.955555555555556,56.94915254237288,40,57.96610169491525,40C58.983050847457626,40,59.99999999999999,39.614814814814814,61.01694915254237,39.37777777777778C62.03389830508474,39.14074074074074,63.05084745762712,38.84444444444444,64.0677966101695,38.577777777777776C65.08474576271186,38.31111111111111,66.10169491525424,37.77777777777778,67.11864406779661,37.77777777777778C68.13559322033899,37.77777777777778,69.15254237288136,37.86666666666667,70.16949152542374,38.044444444444444C71.1864406779661,38.22222222222222,72.20338983050848,38.87407407407408,73.22033898305085,38.93333333333334C74.23728813559322,38.992592592592594,75.2542372881356,39.02222222222222,76.27118644067797,39.02222222222222C77.28813559322033,39.02222222222222,78.30508474576271,38.162962962962965,79.32203389830508,37.68888888888889C80.33898305084746,37.214814814814815,81.35593220338983,36.62222222222222,82.37288135593221,36.17777777777778C83.38983050847457,35.733333333333334,84.40677966101696,35.792592592592584,85.42372881355932,35.02222222222222C86.4406779661017,34.251851851851846,87.45762711864407,31.555555555555554,88.47457627118645,31.555555555555554C89.49152542372882,31.555555555555554,90.50847457627118,34.48888888888889,91.52542372881355,34.48888888888889C92.54237288135593,34.48888888888889,93.55932203389831,32.44444444444444,94.57627118644069,32.44444444444444C95.59322033898306,32.44444444444444,96.61016949152543,36,97.62711864406779,36C98.64406779661016,36,99.66101694915254,29.333333333333336,100.6779661016949,29.333333333333336C101.69491525423729,29.333333333333336,102.71186440677965,29.6,103.72881355932203,29.6C104.7457627118644,29.6,105.76271186440678,25.392592592592585,106.77966101694915,25.15555555555555C107.79661016949153,24.918518518518518,108.8135593220339,25.037037037037035,109.83050847457628,24.8C110.84745762711864,24.562962962962967,111.86440677966102,23.288888888888888,112.88135593220339,23.288888888888888C113.89830508474576,23.288888888888888,114.91525423728814,23.377777777777776,115.9322033898305,23.555555555555557C116.94915254237289,23.733333333333338,117.96610169491525,26.133333333333333,118.98305084745763,26.133333333333333C120,26.133333333333333,121.01694915254237,25.0962962962963,122.03389830508473,23.022222222222226C123.05084745762711,20.948148148148125,124.0677966101695,7.1111111111111125,125.08474576271188,7.1111111111111125C126.10169491525424,7.1111111111111125,127.11864406779662,7.585185185185182,128.135593220339,7.999999999999998C129.15254237288136,8.414814814814813,130.16949152542372,9.170370370370371,131.1864406779661,9.6C132.20338983050846,10.029629629629634,133.22033898305085,10.57777777777778,134.23728813559322,10.57777777777778C135.25423728813558,10.57777777777778,136.27118644067798,8.799999999999999,137.28813559322035,8.799999999999999C138.3050847457627,8.799999999999999,139.3220338983051,20.97777777777778,140.33898305084747,20.97777777777778C141.35593220338984,20.97777777777778,142.3728813559322,12.68148148148147,143.38983050847457,11.200000000000001C144.40677966101694,9.718518518518518,145.42372881355934,10.340740740740753,146.4406779661017,8.977777777777778C147.45762711864407,7.614814814814816,148.47457627118644,3.022222222222224,149.4915254237288,3.022222222222224C150.50847457627117,3.022222222222224,151.52542372881356,5.6148148148148165,152.54237288135593,7.200000000000002C153.5593220338983,8.785185185185187,154.5762711864407,12.533333333333335,155.59322033898306,12.533333333333335C156.61016949152543,12.533333333333335,157.6271186440678,10.48888888888889,158.64406779661016,10.48888888888889C159.66101694915253,10.48888888888889,160.67796610169492,21.688888888888886,161.6949152542373,21.688888888888886C162.71186440677965,21.688888888888886,163.72881355932205,11.170370370370371,164.74576271186442,8.088888888888889C165.76271186440678,5.007407407407435,166.77966101694915,3.1999999999999984,167.79661016949152,3.1999999999999984C168.81355932203388,3.1999999999999984,169.83050847457628,7.200000000000002,170.84745762711864,7.200000000000002C171.864406779661,7.200000000000002,172.8813559322034,7.022222222222223,173.89830508474577,7.022222222222223C174.91525423728814,7.022222222222223,175.93220338983053,19.91111111111111,176.9491525423729,19.91111111111111C177.96610169491527,19.91111111111111,178.98305084745763,15.600000000000001,180,11.288888888888891L180,40C178.98305084745763,40,177.96610169491527,40,176.9491525423729,40C175.93220338983053,40,174.91525423728814,40,173.89830508474577,40C172.8813559322034,40,171.864406779661,40,170.84745762711864,40C169.83050847457628,40,168.81355932203388,40,167.79661016949152,40C166.77966101694915,40,165.76271186440678,40,164.74576271186442,40C163.72881355932205,40,162.71186440677965,40,161.6949152542373,40C160.67796610169492,40,159.66101694915253,40,158.64406779661016,40C157.6271186440678,40,156.61016949152543,40,155.59322033898306,40C154.5762711864407,40,153.5593220338983,40,152.54237288135593,40C151.52542372881356,40,150.50847457627117,40,149.4915254237288,40C148.47457627118644,40,147.45762711864407,40,146.4406779661017,40C145.42372881355934,40,144.40677966101694,40,143.38983050847457,40C142.3728813559322,40,141.35593220338984,40,140.33898305084747,40C139.3220338983051,40,138.3050847457627,40,137.28813559322035,40C136.27118644067798,40,135.25423728813558,40,134.23728813559322,40C133.22033898305085,40,132.20338983050846,40,131.1864406779661,40C130.16949152542372,40,129.15254237288136,40,128.135593220339,40C127.11864406779662,40,126.10169491525424,40,125.08474576271188,40C124.0677966101695,40,123.05084745762711,40,122.03389830508473,40C121.01694915254237,40,120,40,118.98305084745763,40C117.96610169491525,40,116.94915254237289,40,115.9322033898305,40C114.91525423728814,40,113.89830508474576,40,112.88135593220339,40C111.86440677966102,40,110.84745762711864,40,109.83050847457628,40C108.8135593220339,40,107.79661016949153,40,106.77966101694915,40C105.76271186440678,40,104.7457627118644,40,103.72881355932203,40C102.71186440677965,40,101.69491525423729,40,100.6779661016949,40C99.66101694915254,40,98.64406779661016,40,97.62711864406779,40C96.61016949152543,40,95.59322033898306,40,94.57627118644069,40C93.55932203389831,40,92.54237288135593,40,91.52542372881355,40C90.50847457627118,40,89.49152542372882,40,88.47457627118645,40C87.45762711864407,40,86.4406779661017,40,85.42372881355932,40C84.40677966101696,40,83.38983050847457,40,82.37288135593221,40C81.35593220338983,40,80.33898305084746,40,79.32203389830508,40C78.30508474576271,40,77.28813559322033,40,76.27118644067797,40C75.2542372881356,40,74.23728813559322,40,73.22033898305085,40C72.20338983050848,40,71.1864406779661,40,70.16949152542374,40C69.15254237288136,40,68.13559322033899,40,67.11864406779661,40C66.10169491525424,40,65.08474576271186,40,64.0677966101695,40C63.05084745762712,40,62.03389830508474,40,61.01694915254237,40C59.99999999999999,40,58.983050847457626,40,57.96610169491525,40C56.94915254237288,40,55.93220338983051,40,54.91525423728814,40C53.898305084745765,40,52.88135593220339,40,51.86440677966102,40C50.847457627118644,40,49.83050847457627,40,48.813559322033896,40C47.79661016949152,40,46.77966101694915,40,45.762711864406775,40C44.7457627118644,40,43.728813559322035,40,42.71186440677966,40C41.69491525423729,40,40.67796610169491,40,39.66101694915254,40C38.644067796610166,40,37.6271186440678,40,36.610169491525426,40C35.59322033898305,40,34.57627118644068,40,33.559322033898304,40C32.54237288135593,40,31.525423728813557,40,30.508474576271183,40C29.491525423728813,40,28.47457627118644,40,27.45762711864407,40C26.440677966101696,40,25.423728813559322,40,24.406779661016948,40C23.389830508474574,40,22.372881355932204,40,21.35593220338983,40C20.338983050847457,40,19.322033898305087,40,18.305084745762713,40C17.28813559322034,40,16.271186440677965,40,15.254237288135592,40C14.23728813559322,40,13.220338983050846,40,12.203389830508474,40C11.186440677966102,40,10.169491525423728,40,9.152542372881356,40C8.135593220338983,40,7.11864406779661,40,6.101694915254237,40C5.084745762711864,40,4.067796610169491,40,3.0508474576271185,40C2.0338983050847457,40,1.0169491525423728,40,0,40Z"></path><path class="line" stroke="black" fill="none" d="M0,40C1.0169491525423728,40,2.0338983050847457,40,3.0508474576271185,40C4.067796610169491,40,5.084745762711864,40,6.101694915254237,40C7.11864406779661,40,8.135593220338983,40,9.152542372881356,40C10.169491525423728,40,11.186440677966102,40,12.203389830508474,40C13.220338983050846,40,14.23728813559322,40,15.254237288135592,40C16.271186440677965,40,17.28813559322034,40,18.305084745762713,40C19.322033898305087,40,20.338983050847457,40,21.35593220338983,40C22.372881355932204,40,23.389830508474574,40,24.406779661016948,40C25.423728813559322,40,26.440677966101696,40,27.45762711864407,40C28.47457627118644,40,29.491525423728813,40,30.508474576271183,40C31.525423728813557,40,32.54237288135593,40,33.559322033898304,40C34.57627118644068,40,35.59322033898305,39.91111111111111,36.610169491525426,39.91111111111111C37.6271186440678,39.91111111111111,38.644067796610166,39.91111111111111,39.66101694915254,39.91111111111111C40.67796610169491,39.91111111111111,41.69491525423729,39.91111111111111,42.71186440677966,39.91111111111111C43.728813559322035,39.91111111111111,44.7457627118644,40,45.762711864406775,40C46.77966101694915,40,47.79661016949152,40,48.813559322033896,40C49.83050847457627,40,50.847457627118644,39.733333333333334,51.86440677966102,39.733333333333334C52.88135593220339,39.733333333333334,53.898305084745765,39.86666666666667,54.91525423728814,39.91111111111111C55.93220338983051,39.955555555555556,56.94915254237288,40,57.96610169491525,40C58.983050847457626,40,59.99999999999999,39.614814814814814,61.01694915254237,39.37777777777778C62.03389830508474,39.14074074074074,63.05084745762712,38.84444444444444,64.0677966101695,38.577777777777776C65.08474576271186,38.31111111111111,66.10169491525424,37.77777777777778,67.11864406779661,37.77777777777778C68.13559322033899,37.77777777777778,69.15254237288136,37.86666666666667,70.16949152542374,38.044444444444444C71.1864406779661,38.22222222222222,72.20338983050848,38.87407407407408,73.22033898305085,38.93333333333334C74.23728813559322,38.992592592592594,75.2542372881356,39.02222222222222,76.27118644067797,39.02222222222222C77.28813559322033,39.02222222222222,78.30508474576271,38.162962962962965,79.32203389830508,37.68888888888889C80.33898305084746,37.214814814814815,81.35593220338983,36.62222222222222,82.37288135593221,36.17777777777778C83.38983050847457,35.733333333333334,84.40677966101696,35.792592592592584,85.42372881355932,35.02222222222222C86.4406779661017,34.251851851851846,87.45762711864407,31.555555555555554,88.47457627118645,31.555555555555554C89.49152542372882,31.555555555555554,90.50847457627118,34.48888888888889,91.52542372881355,34.48888888888889C92.54237288135593,34.48888888888889,93.55932203389831,32.44444444444444,94.57627118644069,32.44444444444444C95.59322033898306,32.44444444444444,96.61016949152543,36,97.62711864406779,36C98.64406779661016,36,99.66101694915254,29.333333333333336,100.6779661016949,29.333333333333336C101.69491525423729,29.333333333333336,102.71186440677965,29.6,103.72881355932203,29.6C104.7457627118644,29.6,105.76271186440678,25.392592592592585,106.77966101694915,25.15555555555555C107.79661016949153,24.918518518518518,108.8135593220339,25.037037037037035,109.83050847457628,24.8C110.84745762711864,24.562962962962967,111.86440677966102,23.288888888888888,112.88135593220339,23.288888888888888C113.89830508474576,23.288888888888888,114.91525423728814,23.377777777777776,115.9322033898305,23.555555555555557C116.94915254237289,23.733333333333338,117.96610169491525,26.133333333333333,118.98305084745763,26.133333333333333C120,26.133333333333333,121.01694915254237,25.0962962962963,122.03389830508473,23.022222222222226C123.05084745762711,20.948148148148125,124.0677966101695,7.1111111111111125,125.08474576271188,7.1111111111111125C126.10169491525424,7.1111111111111125,127.11864406779662,7.585185185185182,128.135593220339,7.999999999999998C129.15254237288136,8.414814814814813,130.16949152542372,9.170370370370371,131.1864406779661,9.6C132.20338983050846,10.029629629629634,133.22033898305085,10.57777777777778,134.23728813559322,10.57777777777778C135.25423728813558,10.57777777777778,136.27118644067798,8.799999999999999,137.28813559322035,8.799999999999999C138.3050847457627,8.799999999999999,139.3220338983051,20.97777777777778,140.33898305084747,20.97777777777778C141.35593220338984,20.97777777777778,142.3728813559322,12.68148148148147,143.38983050847457,11.200000000000001C144.40677966101694,9.718518518518518,145.42372881355934,10.340740740740753,146.4406779661017,8.977777777777778C147.45762711864407,7.614814814814816,148.47457627118644,3.022222222222224,149.4915254237288,3.022222222222224C150.50847457627117,3.022222222222224,151.52542372881356,5.6148148148148165,152.54237288135593,7.200000000000002C153.5593220338983,8.785185185185187,154.5762711864407,12.533333333333335,155.59322033898306,12.533333333333335C156.61016949152543,12.533333333333335,157.6271186440678,10.48888888888889,158.64406779661016,10.48888888888889C159.66101694915253,10.48888888888889,160.67796610169492,21.688888888888886,161.6949152542373,21.688888888888886C162.71186440677965,21.688888888888886,163.72881355932205,11.170370370370371,164.74576271186442,8.088888888888889C165.76271186440678,5.007407407407435,166.77966101694915,3.1999999999999984,167.79661016949152,3.1999999999999984C168.81355932203388,3.1999999999999984,169.83050847457628,7.200000000000002,170.84745762711864,7.200000000000002C171.864406779661,7.200000000000002,172.8813559322034,7.022222222222223,173.89830508474577,7.022222222222223C174.91525423728814,7.022222222222223,175.93220338983053,19.91111111111111,176.9491525423729,19.91111111111111C177.96610169491527,19.91111111111111,178.98305084745763,15.600000000000001,180,11.288888888888891"></path><path class="axis-ceiling" stroke-width="1" stroke="black" fill="none" d="M175,0L180,0"></path><text class="axis-ceiling-label" font-family="sans-serif" text-anchor="end" font-size="10px" x="170" y="2.5">450</text></g></svg>