<svg xmlns="http://www.w3.org/2000/svg" viewBox="0 0 180 60"><g transform="translate(0,20)"><path class="area" fill="rgba(0, 0, 0, 0.2)" d="M0,25.96C1.0169491525423728,26.14,2.0338983050847457,26.32,3.0508474576271185,27.04C4.067796610169491,27.759999999999998,5.084745762711864,33.08,6.101694915254237,33.08C7.11864406779661,33.08,8.135593220338983,24.53333333333333,9.152542372881356,23.919999999999998C10.169491525423728,23.306666666666665,11.186440677966102,23,12.203389830508474,23C13.220338983050846,23,14.23728813559322,24.333333333333332,15.254237288135592,24.52C16.271186440677965,24.706666666666667,17.28813559322034,24.8,18.305084745762713,24.8C19.322033898305087,24.8,20.338983050847457,22.919999999999998,21.35593220338983,22.919999999999998C22.372881355932204,22.919999999999998,23.389830508474574,23.953333333333333,24.406779661016948,25.84C25.423728813559322,27.726666666666667,26.440677966101696,34.24,27.45762711864407,34.24C28.47457627118644,34.24,29.491525423728813,25.266666666666666,30.508474576271183,24.68C31.525423728813557,24.09333333333333,32.54237288135593,23.799999999999997,33.559322033898304,23.799999999999997C34.57627118644068,23.799999999999997,35.59322033898305,26,36.610169491525426,26C37.6271186440678,26,38.644067796610166,25.12,39.66101694915254,25.12C40.67796610169491,25.12,41.69491525423729,25.133333333333333,42.71186440677966,25.16C43.728813559322035,25.186666666666667,44.7457627118644,25.88,45.762711864406775,27.32C46.77966101694915,28.760000000000005,47.79661016949152,34.76,48.813559322033896,34.76C49.83050847457627,34.76,50.847457627118644,27.386666666666663,51.86440677966102,25.84C52.88135593220339,24.293333333333337,53.898305084745765,23.520000000000003,54.91525423728814,23.520000000000003C55.93220338983051,23.520000000000003,56.94915254237288,25.45333333333333,57.96610169491525,26.319999999999997C58.983050847457626,27.186666666666664,59.99999999999999,27.31333333333334,61.01694915254237,28.72C62.03389830508474,30.126666666666665,63.05084745762712,34.76,64.0677966101695,34.76C65.08474576271186,34.76,66.10169491525424,28.32,67.11864406779661,28.32C68.13559322033899,28.32,69.15254237288136,36.6,70.16949152542374,36.6C71.1864406779661,36.6,72.20338983050848,26.959999999999997,73.22033898305085,26.959999999999997C74.23728813559322,26.959999999999997,75.2542372881356,30.326666666666668,76.27118644067797,31.520000000000003C77.28813559322033,32.71333333333334,78.30508474576271,34.093333333333334,79.32203389830508,34.12C80.33898305084746,34.14666666666666,81.35593220338983,34.16,82.37288135593221,34.16C83.38983050847457,34.16,84.40677966101696,26.306666666666665,85.42372881355932,23.88C86.4406779661017,21.453333333333322,87.45762711864407,19.6,88.47457627118645,19.6C89.49152542372882,19.6,90.50847457627118,29.119999999999997,91.52542372881355,29.119999999999997C92.54237288135593,29.119999999999997,93.55932203389831,23.693333333333342,94.57627118644069,22.519999999999996C95.59322033898306,21.346666666666668,96.61016949152543,20.76,97.62711864406779,20.76C98.64406779661016,20.76,99.66101694915254,24.326666666666668,100.6779661016949,25.4C101.69491525423729,26.473333333333336,102.71186440677965,27.199999999999996,103.72881355932203,27.199999999999996C104.7457627118644,27.199999999999996,105.76271186440678,25.706666666666663,106.77966101694915,25.52C107.79661016949153,25.333333333333336,108.8135593220339,25.240000000000002,109.83050847457628,25.240000000000002C110.84745762711864,25.240000000000002,111.86440677966102,32.64,112.88135593220339,32.64C113.89830508474576,32.64,114.91525423728814,25.386666666666663,115.9322033898305,24.64C116.94915254237289,23.893333333333334,117.96610169491525,23.520000000000003,118.98305084745763,23.520000000000003C120,23.520000000000003,121.01694915254237,23.820000000000007,122.03389830508473,24.36C123.05084745762711,24.9,124.0677966101695,26.226666666666667,125.08474576271188,26.76C126.10169491525424,27.29333333333333,127.11864406779662,27.326666666666668,128.135593220339,27.560000000000002C129.15254237288136,27.793333333333333,130.16949152542372,27.76,131.1864406779661,28.159999999999997C132.20338983050846,28.559999999999995,133.22033898305085,34.64,134.23728813559322,34.64C135.25423728813558,34.64,136.27118644067798,25.560000000000002,137.28813559322035,25.560000000000002C138.3050847457627,25.560000000000002,139.3220338983051,26.77333333333333,140.33898305084747,27.439999999999998C141.35593220338984,28.106666666666662,142.3728813559322,28.76666666666667,143.38983050847457,29.56C144.40677966101694,30.353333333333335,145.42372881355934,32.199999999999996,146.4406779661017,32.199999999999996C147.45762711864407,32.199999999999996,148.47457627118644,31.200000000000003,149.4915254237288,31.200000000000003C150.50847457627117,31.200000000000003,151.52542372881356,32.233333333333334,152.54237288135593,33.28C153.5593220338983,34.32666666666667,154.5762711864407,37.480000000000004,155.59322033898306,37.480000000000004C156.61016949152543,37.480000000000004,157.6271186440678,33,158.64406779661016,33C159.66101694915253,33,160.67796610169492,33.45333333333333,161.6949152542373,33.68C162.71186440677965,33.906666666666666,163.72881355932205,34.36,164.74576271186442,34.36C165.76271186440678,34.36,166.77966101694915,33.76,167.79661016949152,33.76C168.81355932203388,33.76,169.83050847457628,33.839999999999996,170.84745762711864,34C171.864406779661,34.160000000000004,172.8813559322034,34.306666666666665,173.89830508474577,34.92C174.91525423728814,35.53333333333334,175.93220338983053,37.8,176.9491525423729,37.8C177.96610169491527,37.8,178.98305084745763,36.36,180,34.92L180,40C178.98305084745763,40,177.96610169491527,40,176.9491525423729,40C175.93220338983053,40,174.91525423728814,40,173.89830508474577,40C172.8813559322034,40,171.864406779661,40,170.84745762711864,40C169.83050847457628,40,168.81355932203388,40,167.79661016949152,40C166.77966101694915,40,165.76271186440678,40,164.74576271186442,40C163.72881355932205,40,162.71186440677965,40,161.6949152542373,40C160.67796610169492,40,159.66101694915253,40,158.64406779661016,40C157.6271186440678,40,156.61016949152543,40,155.59322033898306,40C154.5762711864407,40,153.5593220338983,40,152.54237288135593,40C151.52542372881356,40,150.50847457627117,40,149.4915254237288,40C148.47457627118644,40,147.45762711864407,40,146.4406779661017,40C145.42372881355934,40,144.40677966101694,40,143.38983050847457,40C142.3728813559322,40,141.35593220338984,40,140.33898305084747,40C139.3220338983051,40,138.3050847457627,40,137.28813559322035,40C136.27118644067798,40,135.25423728813558,40,134.23728813559322,40C133.22033898305085,40,132.20338983050846,40,131.1864406779661,40C130.16949152542372,40,129.15254237288136,40,128.135593220339,40C127.11864406779662,40,126.10169491525424,40,125.08474576271188,40C124.0677966101695,40,123.05084745762711,40,122.03389830508473,40C121.01694915254237,40,120,40,118.98305084745763,40C117.96610169491525,40,116.94915254237289,40,115.9322033898305,40C114.91525423728814,40,113.89830508474576,40,112.88135593220339,40C111.86440677966102,40,110.84745762711864,40,109.83050847457628,40C108.8135593220339,40,107.79661016949153,40,106.77966101694915,40C105.76271186440678,40,104.7457627118644,40,103.72881355932203,40C102.71186440677965,40,101.69491525423729,40,100.6779661016949,40C99.66101694915254,40,98.64406779661016,40,97.62711864406779,40C96.61016949152543,40,95.59322033898306,40,94.57627118644069,40C93.55932203389831,40,92.54237288135593,40,91.52542372881355,40C90.50847457627118,40,89.49152542372882,40,88.47457627118645,40C87.45762711864407,40,86.4406779661017,40,85.42372881355932,40C84.40677966101696,40,83.38983050847457,40,82.37288135593221,40C81.35593220338983,40,80.33898305084746,40,79.32203389830508,40C78.30508474576271,40,77.28813559322033,40,76.27118644067797,40C75.2542372881356,40,74.23728813559322,40,73.22033898305085,40C72.20338983050848,40,71.1864406779661,40,70.16949152542374,40C69.15254237288136,40,68.13559322033899,40,67.11864406779661,40C66.10169491525424,40,65.08474576271186,40,64.0677966101695,40C63.05084745762712,40,62.03389830508474,40,61.01694915254237,40C59.99999999999999,40,58.983050847457626,40,57.96610169491525,40C56.94915254237288,40,55.93220338983051,40,54.91525423728814,40C53.898305084745765,40,52.88135593220339,40,51.86440677966102,40C50.847457627118644,40,49.83050847457627,40,48.813559322033896,40C47.79661016949152,40,46.77966101694915,40,45.762711864406775,40C44.7457627118644,40,43.728813559322035,40,42.71186440677966,40C41.69491525423729,40,40.67796610169491,40,39.66101694915254,40C38.644067796610166,40,37.6271186440678,40,36.610169491525426,40C35.59322033898305,40,34.57627118644068,40,33.559322033898304,40C32.54237288135593,40,31.525423728813557,40,30.508474576271183,40C29.491525423728813,40,28.47457627118644,40,27.45762711864407,40C26.440677966101696,40,25.423728813559322,40,24.406779661016948,40C23.389830508474574,40,22.372881355932204,40,21.35593220338983,40C20.338983050847457,40,19.322033898305087,40,18.305084745762713,40C17.28813559322034,40,16.271186440677965,40,15.254237288135592,40C14.23728813559322,40,13.220338983050846,40,12.203389830508474,40C11.186440677966102,40,10.169491525423728,40,9.152542372881356,40C8.135593220338983,40,7.11864406779661,40,6.101694915254237,40C5.084745762711864,40,4.067796610169491,40,3.0508474576271185,40C2.0338983050847457,40,1.0169491525423728,40,0,40Z"></path><path class="line" stroke="black" fill="none" d="M0,25.96C1.0169491525423728,26.14,2.0338983050847457,26.32,3.0508474576271185,27.04C4.067796610169491,27.759999999999998,5.084745762711864,33.08,6.101694915254237,33.08C7.11864406779661,33.08,8.135593220338983,24.53333333333333,9.152542372881356,23.919999999999998C10.169491525423728,23.306666666666665,11.186440677966102,23,12.203389830508474,23C13.220338983050846,23,14.23728813559322,24.333333333333332,15.254237288135592,24.52C16.271186440677965,24.706666666666667,17.28813559322034,24.8,18.305084745762713,24.8C19.322033898305087,24.8,20.338983050847457,22.919999999999998,21.35593220338983,22.919999999999998C22.372881355932204,22.919999999999998,23.389830508474574,23.953333333333333,24.406779661016948,25.84C25.423728813559322,27.726666666666667,26.440677966101696,34.24,27.45762711864407,34.24C28.47457627118644,34.24,29.491525423728813,25.266666666666666,30.508474576271183,24.68C31.525423728813557,24.09333333333333,32.54237288135593,23.799999999999997,33.559322033898304,23.799999999999997C34.57627118644068,23.799999999999997,35.59322033898305,26,36.610169491525426,26C37.6271186440678,26,38.644067796610166,25.12,39.66101694915254,25.12C40.67796610169491,25.12,41.69491525423729,25.133333333333333,42.71186440677966,25.16C43.728813559322035,25.186666666666667,44.7457627118644,25.88,45.762711864406775,27.32C46.77966101694915,28.760000000000005,47.79661016949152,34.76,48.813559322033896,34.76C49.83050847457627,34.76,50.847457627118644,27.386666666666663,51.86440677966102,25.84C52.88135593220339,24.293333333333337,53.898305084745765,23.520000000000003,54.91525423728814,23.520000000000003C55.93220338983051,23.520000000000003,56.94915254237288,25.45333333333333,57.96610169491525,26.319999999999997C58.983050847457626,27.186666666666664,59.99999999999999,27.31333333333334,61.01694915254237,28.72C62.03389830508474,30.126666666666665,63.05084745762712,34.76,64.0677966101695,34.76C65.08474576271186,34.76,66.10169491525424,28.32,67.11864406779661,28.32C68.13559322033899,28.32,69.15254237288136,36.6,70.16949152542374,36.6C71.1864406779661,36.6,72.20338983050848,26.959999999999997,73.22033898305085,26.959999999999997C74.23728813559322,26.959999999999997,75.2542372881356,30.326666666666668,76.27118644067797,31.520000000000003C77.28813559322033,32.71333333333334,78.30508474576271,34.093333333333334,79.32203389830508,34.12C80.33898305084746,34.14666666666666,81.35593220338983,34.16,82.37288135593221,34.16C83.38983050847457,34.16,84.40677966101696,26.306666666666665,85.42372881355932,23.88C86.4406779661017,21.453333333333322,87.45762711864407,19.6,88.47457627118645,19.6C89.49152542372882,19.6,90.50847457627118,29.119999999999997,91.52542372881355,29.119999999999997C92.54237288135593,29.119999999999997,93.55932203389831,23.693333333333342,94.57627118644069,22.519999999999996C95.59322033898306,21.346666666666668,96.61016949152543,20.76,97.62711864406779,20.76C98.64406779661016,20.76,99.66101694915254,24.326666666666668,100.6779661016949,25.4C101.69491525423729,26.473333333333336,102.71186440677965,27.199999999999996,103.72881355932203,27.199999999999996C104.7457627118644,27.199999999999996,105.76271186440678,25.706666666666663,106.77966101694915,25.52C107.79661016949153,25.333333333333336,108.8135593220339,25.240000000000002,109.83050847457628,25.240000000000002C110.84745762711864,25.240000000000002,111.86440677966102,32.64,112.88135593220339,32.64C113.89830508474576,32.64,114.91525423728814,25.386666666666663,115.9322033898305,24.64C116.94915254237289,23.893333333333334,117.96610169491525,23.520000000000003,118.98305084745763,23.520000000000003C120,23.520000000000003,121.01694915254237,23.820000000000007,122.03389830508473,24.36C123.05084745762711,24.9,124.0677966101695,26.226666666666667,125.08474576271188,26.76C126.10169491525424,27.29333333333333,127.11864406779662,27.326666666666668,128.135593220339,27.560000000000002C129.15254237288136,27.793333333333333,130.16949152542372,27.76,131.1864406779661,28.159999999999997C132.20338983050846,28.559999999999995,133.22033898305085,34.64,134.23728813559322,34.64C135.25423728813558,34.64,136.27118644067798,25.560000000000002,137.28813559322035,25.560000000000002C138.3050847457627,25.560000000000002,139.3220338983051,26.77333333333333,140.33898305084747,27.439999999999998C141.35593220338984,28.106666666666662,142.3728813559322,28.76666666666667,143.38983050847457,29.56C144.40677966101694,30.353333333333335,145.42372881355934,32.199999999999996,146.4406779661017,32.199999999999996C147.45762711864407,32.199999999999996,148.47457627118644,31.200000000000003,149.4915254237288,31.200000000000003C150.50847457627117,31.200000000000003,151.52542372881356,32.233333333333334,152.54237288135593,33.28C153.5593220338983,34.32666666666667,154.5762711864407,37.480000000000004,155.59322033898306,37.480000000000004C156.61016949152543,37.480000000000004,157.6271186440678,33,158.64406779661016,33C159.66101694915253,33,160.67796610169492,33.45333333333333,161.6949152542373,33.68C162.71186440677965,33.906666666666666,163.72881355932205,34.36,164.74576271186442,34.36C165.76271186440678,34.36,166.77966101694915,33.76,167.79661016949152,33.76C168.81355932203388,33.76,169.83050847457628,33.839999999999996,170.84745762711864,34C171.864406779661,34.160000000000004,172.8813559322034,34.306666666666665,173.89830508474577,34.92C174.91525423728814,35.53333333333334,175.93220338983053,37.8,176.9491525423729,37.8C177.96610169491527,37.8,178.98305084745763,36.36,180,34.92"></path><path class="axis-ceiling" stroke-width="1" stroke="black" fill="none" d="M175,0L180,0"></path><text class="axis-ceiling-label" font-family="sans-serif" text-anchor="end" font-size="10px" x="170" y="2.5">1000</text></g></svg>