<svg xmlns="http://www.w3.org/2000/svg" viewBox="0 0 180 60"><g transform="translate(0,20)"><path class="area" fill="rgba(0, 0, 0, 0.2)" d="M0,40C1.0344827586206897,40,2.068965517241379,40,3.103448275862069,40C4.137931034482759,40,5.172413793103448,40,6.206896551724138,40C7.241379310344827,40,8.275862068965516,40,9.310344827586206,40C10.344827586206897,40,11.379310344827585,40,12.413793103448276,40C13.448275862068966,40,14.482758620689655,40,15.517241379310345,40C16.551724137931036,40,17.586206896551722,40,18.620689655172413,40C19.655172413793103,40,20.689655172413794,40,21.724137931034484,40C22.758620689655174,40,23.79310344827586,39.666666666666664,24.82758620689655,39C25.862068965517242,38.333333333333336,26.896551724137932,36,27.931034482758623,36C28.965517241379313,36,30,37.333333333333336,31.03448275862069,38C32.06896551724138,38.666666666666664,33.103448275862064,40,34.137931034482754,40C35.172413793103445,40,36.206896551724135,35,37.241379310344826,35C38.275862068965516,35,39.310344827586206,40,40.3448275862069,40C41.37931034482759,40,42.41379310344828,32,43.44827586206897,32C44.48275862068966,32,45.51724137931035,35,46.55172413793104,35C47.58620689655173,35,48.62068965517241,23,49.6551724137931,23C50.689655172413794,23,51.72413793103448,25.000000000000007,52.75862068965517,27C53.79310344827586,29,54.827586206896555,35,55.862068965517246,35C56.896551724137936,35,57.93103448275862,29,58.96551724137931,29C60,29,61.03448275862069,37,62.06896551724138,37C63.10344827586207,37,64.13793103448276,35,65.17241379310344,35C66.20689655172413,35,67.24137931034483,35,68.27586206896551,35C69.3103448275862,35,70.34482758620689,39,71.37931034482759,39C72.41379310344827,39,73.44827586206897,35,74.48275862068965,35C75.51724137931033,35,76.55172413793103,39,77.58620689655172,39C78.62068965517241,39,79.6551724137931,37,80.6896551724138,37C81.72413793103448,37,82.75862068965517,39,83.79310344827586,39C84.82758620689656,39,85.86206896551724,38.666666666666664,86.89655172413794,38C87.93103448275862,37.333333333333336,88.96551724137932,24,90,24C91.0344827586207,24,92.06896551724138,29.666666666666654,93.10344827586208,31C94.13793103448276,32.333333333333336,95.17241379310344,32.00000000000001,96.20689655172413,33C97.24137931034483,34,98.27586206896551,36.333333333333336,99.3103448275862,37C100.3448275862069,37.666666666666664,101.37931034482759,38,102.41379310344828,38C103.44827586206897,38,104.48275862068965,35,105.51724137931033,35C106.55172413793103,35,107.58620689655172,40,108.62068965517241,40C109.65517241379311,40,110.6896551724138,35,111.72413793103449,35C112.75862068965517,35,113.79310344827587,35,114.82758620689656,35C115.86206896551724,35,116.89655172413794,31,117.93103448275862,31C118.96551724137932,31,120,38,121.0344827586207,38C122.06896551724138,38,123.10344827586208,35,124.13793103448276,35C125.17241379310344,35,126.20689655172414,39,127.24137931034483,39C128.27586206896552,39,129.3103448275862,37.666666666666664,130.3448275862069,37C131.3793103448276,36.33333333333333,132.41379310344828,36.333333333333336,133.44827586206898,35C134.48275862068965,33.66666666666669,135.51724137931035,29,136.55172413793102,29C137.58620689655172,29,138.6206896551724,35,139.6551724137931,35C140.6896551724138,35,141.72413793103448,34.666666666666664,142.75862068965517,34C143.79310344827587,33.333333333333336,144.82758620689654,26,145.86206896551724,26C146.89655172413794,26,147.9310344827586,30,148.9655172413793,30C150,30,151.0344827586207,27.00000000000009,152.0689655172414,22C153.10344827586206,17.000000000000004,154.13793103448276,0,155.17241379310343,0C156.20689655172413,0,157.24137931034483,7.4999999999999964,158.27586206896552,10C159.31034482758622,12.49999999999998,160.3448275862069,12.833333333333334,161.3793103448276,15C162.41379310344828,17.166666666666668,163.44827586206895,20.5,164.48275862068965,23C165.51724137931035,25.5,166.55172413793102,30,167.58620689655172,30C168.6206896551724,30,169.6551724137931,26,170.6896551724138,26C171.7241379310345,26,172.75862068965517,27.166666666666668,173.79310344827587,28C174.82758620689657,28.833333333333332,175.86206896551724,29.666666666666668,176.89655172413794,31C177.93103448275863,32.333333333333336,178.9655172413793,34.166666666666664,180,36L180,40C178.9655172413793,40,177.93103448275863,40,176.89655172413794,40C175.86206896551724,40,174.82758620689657,40,173.79310344827587,40C172.75862068965517,40,171.7241379310345,40,170.6896551724138,40C169.6551724137931,40,168.6206896551724,40,167.58620689655172,40C166.55172413793102,40,165.51724137931035,40,164.48275862068965,40C163.44827586206895,40,162.41379310344828,40,161.3793103448276,40C160.3448275862069,40,159.31034482758622,40,158.27586206896552,40C157.24137931034483,40,156.20689655172413,40,155.17241379310343,40C154.13793103448276,40,153.10344827586206,40,152.0689655172414,40C151.0344827586207,40,150,40,148.9655172413793,40C147.9310344827586,40,146.89655172413794,40,145.86206896551724,40C144.82758620689654,40,143.79310344827587,40,142.75862068965517,40C141.72413793103448,40,140.6896551724138,40,139.6551724137931,40C138.6206896551724,40,137.58620689655172,40,136.55172413793102,40C135.51724137931035,40,134.48275862068965,40,133.44827586206898,40C132.41379310344828,40,131.3793103448276,40,130.3448275862069,40C129.3103448275862,40,128.27586206896552,40,127.24137931034483,40C126.20689655172414,40,125.17241379310344,40,124.13793103448276,40C123.10344827586208,40,122.06896551724138,40,121.0344827586207,40C120,40,118.96551724137932,40,117.93103448275862,40C116.89655172413794,40,115.86206896551724,40,114.82758620689656,40C113.79310344827587,40,112.75862068965517,40,111.72413793103449,40C110.6896551724138,40,109.65517241379311,40,108.62068965517241,40C107.58620689655172,40,106.55172413793103,40,105.51724137931033,40C104.48275862068965,40,103.44827586206897,40,102.41379310344828,40C101.37931034482759,40,100.3448275862069,40,99.3103448275862,40C98.27586206896551,40,97.24137931034483,40,96.20689655172413,40C95.17241379310344,40,94.13793103448276,40,93.10344827586208,40C92.06896551724138,40,91.0344827586207,40,90,40C88.96551724137932,40,87.93103448275862,40,86.89655172413794,40C85.86206896551724,40,84.82758620689656,40,83.79310344827586,40C82.75862068965517,40,81.72413793103448,40,80.6896551724138,40C79.6551724137931,40,78.62068965517241,40,77.58620689655172,40C76.55172413793103,40,75.51724137931033,40,74.48275862068965,40C73.44827586206897,40,72.41379310344827,40,71.37931034482759,40C70.34482758620689,40,69.3103448275862,40,68.27586206896551,40C67.24137931034483,40,66.20689655172413,40,65.17241379310344,40C64.13793103448276,40,63.10344827586207,40,62.06896551724138,40C61.03448275862069,40,60,40,58.96551724137931,40C57.93103448275862,40,56.896551724137936,40,55.862068965517246,40C54.827586206896555,40,53.79310344827586,40,52.75862068965517,40C51.72413793103448,40,50.689655172413794,40,49.6551724137931,40C48.62068965517241,40,47.58620689655173,40,46.55172413793104,40C45.51724137931035,40,44.48275862068966,40,43.44827586206897,40C42.41379310344828,40,41.37931034482759,40,40.3448275862069,40C39.310344827586206,40,38.275862068965516,40,37.241379310344826,40C36.206896551724135,40,35.172413793103445,40,34.137931034482754,40C33.103448275862064,40,32.06896551724138,40,31.03448275862069,40C30,40,28.965517241379313,40,27.931034482758623,40C26.896551724137932,40,25.862068965517242,40,24.82758620689655,40C23.79310344827586,40,22.758620689655174,40,21.724137931034484,40C20.689655172413794,40,19.655172413793103,40,18.620689655172413,40C17.586206896551722,40,16.551724137931036,40,15.517241379310345,40C14.482758620689655,40,13.448275862068966,40,12.413793103448276,40C11.379310344827585,40,10.344827586206897,40,9.310344827586206,40C8.275862068965516,40,7.241379310344827,40,6.206896551724138,40C5.172413793103448,40,4.137931034482759,40,3.103448275862069,40C2.068965517241379,40,1.0344827586206897,40,0,40Z"></path><path class="line" stroke="black" fill="none" d="M0,40C1.0344827586206897,40,2.068965517241379,40,3.103448275862069,40C4.137931034482759,40,5.172413793103448,40,6.206896551724138,40C7.241379310344827,40,8.275862068965516,40,9.310344827586206,40C10.344827586206897,40,11.379310344827585,40,12.413793103448276,40C13.448275862068966,40,14.482758620689655,40,15.517241379310345,40C16.551724137931036,40,17.586206896551722,40,18.620689655172413,40C19.655172413793103,40,20.689655172413794,40,21.724137931034484,40C22.758620689655174,40,23.79310344827586,39.666666666666664,24.82758620689655,39C25.862068965517242,38.333333333333336,26.896551724137932,36,27.931034482758623,36C28.965517241379313,36,30,37.333333333333336,31.03448275862069,38C32.06896551724138,38.666666666666664,33.103448275862064,40,34.137931034482754,40C35.172413793103445,40,36.206896551724135,35,37.241379310344826,35C38.275862068965516,35,39.310344827586206,40,40.3448275862069,40C41.37931034482759,40,42.41379310344828,32,43.44827586206897,32C44.48275862068966,32,45.51724137931035,35,46.55172413793104,35C47.58620689655173,35,48.62068965517241,23,49.6551724137931,23C50.689655172413794,23,51.72413793103448,25.000000000000007,52.75862068965517,27C53.79310344827586,29,54.827586206896555,35,55.862068965517246,35C56.896551724137936,35,57.93103448275862,29,58.96551724137931,29C60,29,61.03448275862069,37,62.06896551724138,37C63.10344827586207,37,64.13793103448276,35,65.17241379310344,35C66.20689655172413,35,67.24137931034483,35,68.27586206896551,35C69.3103448275862,35,70.34482758620689,39,71.37931034482759,39C72.41379310344827,39,73.44827586206897,35,74.48275862068965,35C75.51724137931033,35,76.55172413793103,39,77.58620689655172,39C78.62068965517241,39,79.6551724137931,37,80.6896551724138,37C81.72413793103448,37,82.75862068965517,39,83.79310344827586,39C84.82758620689656,39,85.86206896551724,38.666666666666664,86.89655172413794,38C87.93103448275862,37.333333333333336,88.96551724137932,24,90,24C91.0344827586207,24,92.06896551724138,29.666666666666654,93.10344827586208,31C94.13793103448276,32.333333333333336,95.17241379310344,32.00000000000001,96.20689655172413,33C97.24137931034483,34,98.27586206896551,36.333333333333336,99.3103448275862,37C100.3448275862069,37.666666666666664,101.37931034482759,38,102.41379310344828,38C103.44827586206897,38,104.48275862068965,35,105.51724137931033,35C106.55172413793103,35,107.58620689655172,40,108.62068965517241,40C109.65517241379311,40,110.6896551724138,35,111.72413793103449,35C112.75862068965517,35,113.79310344827587,35,114.82758620689656,35C115.86206896551724,35,116.89655172413794,31,117.93103448275862,31C118.96551724137932,31,120,38,121.0344827586207,38C122.06896551724138,38,123.10344827586208,35,124.13793103448276,35C125.17241379310344,35,126.20689655172414,39,127.24137931034483,39C128.27586206896552,39,129.3103448275862,37.666666666666664,130.3448275862069,37C131.3793103448276,36.33333333333333,132.41379310344828,36.333333333333336,133.44827586206898,35C134.48275862068965,33.66666666666669,135.51724137931035,29,136.55172413793102,29C137.58620689655172,29,138.6206896551724,35,139.6551724137931,35C140.6896551724138,35,141.72413793103448,34.666666666666664,142.75862068965517,34C143.79310344827587,33.333333333333336,144.82758620689654,26,145.86206896551724,26C146.89655172413794,26,147.9310344827586,30,148.9655172413793,30C150,30,151.0344827586207,27.00000000000009,152.0689655172414,22C153.10344827586206,17.000000000000004,154.13793103448276,0,155.17241379310343,0C156.20689655172413,0,157.24137931034483,7.4999999999999964,158.27586206896552,10C159.31034482758622,12.49999999999998,160.3448275862069,12.833333333333334,161.3793103448276,15C162.41379310344828,17.166666666666668,163.44827586206895,20.5,164.48275862068965,23C165.51724137931035,25.5,166.55172413793102,30,167.58620689655172,30C168.6206896551724,30,169.6551724137931,26,170.6896551724138,26C171.7241379310345,26,172.75862068965517,27.166666666666668,173.79310344827587,28C174.82758620689657,28.833333333333332,175.86206896551724,29.666666666666668,176.89655172413794,31C177.93103448275863,32.333333333333336,178.9655172413793,34.166666666666664,180,36"></path><path class="axis-ceiling" stroke-width="1" stroke="black" fill="none" d="M175,0L180,0"></path><text class="axis-ceiling-label" font-family="sans-serif" text-anchor="end" font-size="10px" x="170" y="2.5">40</text></g></svg>