<svg xmlns="http://www.w3.org/2000/svg" viewBox="0 0 180 60"><g transform="translate(0,20)"><path class="area" fill="rgba(0, 0, 0, 0.2)" d="M0,11.200000000000001C1.0344827586206897,11.200000000000001,2.068965517241379,11.200000000000001,3.103448275862069,11.200000000000001C4.137931034482759,11.200000000000001,5.172413793103448,12.799999999999997,6.206896551724138,12.799999999999997C7.241379310344827,12.799999999999997,8.275862068965516,5.866666666666667,9.310344827586206,4.8C10.344827586206897,3.7333333333333325,11.379310344827585,3.1999999999999984,12.413793103448276,3.1999999999999984C13.448275862068966,3.1999999999999984,14.482758620689655,3.1999999999999984,15.517241379310345,3.1999999999999984C16.551724137931036,3.1999999999999984,17.586206896551722,3.1999999999999984,18.620689655172413,3.1999999999999984C19.655172413793103,3.1999999999999984,20.689655172413794,4.8,21.724137931034484,4.8C22.758620689655174,4.8,23.79310344827586,4.8,24.82758620689655,4.8C25.862068965517242,4.8,26.896551724137932,4.8,27.931034482758623,4.8C28.965517241379313,4.8,30,13.866666666666665,31.03448275862069,16C32.06896551724138,18.133333333333333,33.103448275862064,19.2,34.137931034482754,19.2C35.172413793103445,19.2,36.206896551724135,17.599999999999998,37.241379310344826,17.599999999999998C38.275862068965516,17.599999999999998,39.310344827586206,20.8,40.3448275862069,20.8C41.37931034482759,20.8,42.41379310344828,19.2,43.44827586206897,19.2C44.48275862068966,19.2,45.51724137931035,20.266666666666666,46.55172413793104,20.8C47.58620689655173,21.333333333333332,48.62068965517241,21.86666666666667,49.6551724137931,22.400000000000002C50.689655172413794,22.933333333333334,51.72413793103448,23.46666666666667,52.75862068965517,24C53.79310344827586,24.533333333333335,54.827586206896555,24.799999999999997,55.862068965517246,25.6C56.896551724137936,26.4,57.93103448275862,27.999999999999996,58.96551724137931,28.799999999999997C60,29.599999999999998,61.03448275862069,29.866666666666664,62.06896551724138,30.4C63.10344827586207,30.93333333333333,64.13793103448276,31.466666666666665,65.17241379310344,32C66.20689655172413,32.53333333333333,67.24137931034483,33.6,68.27586206896551,33.6C69.3103448275862,33.6,70.34482758620689,32.53333333333334,71.37931034482759,32C72.41379310344827,31.46666666666667,73.44827586206897,30.4,74.48275862068965,30.4C75.51724137931033,30.4,76.55172413793103,30.4,77.58620689655172,30.4C78.62068965517241,30.4,79.6551724137931,29.333333333333332,80.6896551724138,28.799999999999997C81.72413793103448,28.266666666666666,82.75862068965517,27.733333333333327,83.79310344827586,27.199999999999996C84.82758620689656,26.66666666666666,85.86206896551724,25.6,86.89655172413794,25.6C87.93103448275862,25.6,88.96551724137932,27.199999999999996,90,27.199999999999996C91.0344827586207,27.199999999999996,92.06896551724138,25.6,93.10344827586208,25.6C94.13793103448276,25.6,95.17241379310344,28.799999999999997,96.20689655172413,28.799999999999997C97.24137931034483,28.799999999999997,98.27586206896551,28.799999999999997,99.3103448275862,28.799999999999997C100.3448275862069,28.799999999999997,101.37931034482759,31.2,102.41379310344828,32C103.44827586206897,32.8,104.48275862068965,33.06666666666667,105.51724137931033,33.6C106.55172413793103,34.13333333333334,107.58620689655172,35.2,108.62068965517241,35.2C109.65517241379311,35.2,110.6896551724138,35.2,111.72413793103449,35.2C112.75862068965517,35.2,113.79310344827587,36.800000000000004,114.82758620689656,36.800000000000004C115.86206896551724,36.800000000000004,116.89655172413794,36.800000000000004,117.93103448275862,36.800000000000004C118.96551724137932,36.800000000000004,120,36.800000000000004,121.0344827586207,36.800000000000004C122.06896551724138,36.800000000000004,123.10344827586208,36.800000000000004,124.13793103448276,36.800000000000004C125.17241379310344,36.800000000000004,126.20689655172414,36.800000000000004,127.24137931034483,36.800000000000004C128.27586206896552,36.800000000000004,129.3103448275862,36.800000000000004,130.3448275862069,36.800000000000004C131.3793103448276,36.800000000000004,132.41379310344828,36.800000000000004,133.44827586206898,36.800000000000004C134.48275862068965,36.800000000000004,135.51724137931035,37.866666666666674,136.55172413793102,38.4C137.58620689655172,38.93333333333334,138.6206896551724,40,139.6551724137931,40C140.6896551724138,40,141.72413793103448,40,142.75862068965517,40C143.79310344827587,40,144.82758620689654,40,145.86206896551724,40C146.89655172413794,40,147.9310344827586,40,148.9655172413793,40C150,40,151.0344827586207,40,152.0689655172414,40C153.10344827586206,40,154.13793103448276,40,155.17241379310343,40C156.20689655172413,40,157.24137931034483,40,158.27586206896552,40C159.31034482758622,40,160.3448275862069,40,161.3793103448276,40C162.41379310344828,40,163.44827586206895,40,164.48275862068965,40C165.51724137931035,40,166.55172413793102,40,167.58620689655172,40C168.6206896551724,40,169.6551724137931,40,170.6896551724138,40C171.7241379310345,40,172.75862068965517,40,173.79310344827587,40C174.82758620689657,40,175.86206896551724,40,176.89655172413794,40C177.93103448275863,40,178.9655172413793,40,180,40L180,40C178.9655172413793,40,177.93103448275863,40,176.89655172413794,40C175.86206896551724,40,174.82758620689657,40,173.79310344827587,40C172.75862068965517,40,171.7241379310345,40,170.6896551724138,40C169.6551724137931,40,168.6206896551724,40,167.58620689655172,40C166.55172413793102,40,165.51724137931035,40,164.48275862068965,40C163.44827586206895,40,162.41379310344828,40,161.3793103448276,40C160.3448275862069,40,159.31034482758622,40,158.27586206896552,40C157.24137931034483,40,156.20689655172413,40,155.17241379310343,40C154.13793103448276,40,153.10344827586206,40,152.0689655172414,40C151.0344827586207,40,150,40,148.9655172413793,40C147.9310344827586,40,146.89655172413794,40,145.86206896551724,40C144.82758620689654,40,143.79310344827587,40,142.75862068965517,40C141.72413793103448,40,140.6896551724138,40,139.6551724137931,40C138.6206896551724,40,137.58620689655172,40,136.55172413793102,40C135.51724137931035,40,134.48275862068965,40,133.44827586206898,40C132.41379310344828,40,131.3793103448276,40,130.3448275862069,40C129.3103448275862,40,128.27586206896552,40,127.24137931034483,40C126.20689655172414,40,125.17241379310344,40,124.13793103448276,40C123.10344827586208,40,122.06896551724138,40,121.0344827586207,40C120,40,118.96551724137932,40,117.93103448275862,40C116.89655172413794,40,115.86206896551724,40,114.82758620689656,40C113.79310344827587,40,112.75862068965517,40,111.72413793103449,40C110.6896551724138,40,109.65517241379311,40,108.62068965517241,40C107.58620689655172,40,106.55172413793103,40,105.51724137931033,40C104.48275862068965,40,103.44827586206897,40,102.41379310344828,40C101.37931034482759,40,100.3448275862069,40,99.3103448275862,40C98.27586206896551,40,97.24137931034483,40,96.20689655172413,40C95.17241379310344,40,94.13793103448276,40,93.10344827586208,40C92.06896551724138,40,91.0344827586207,40,90,40C88.96551724137932,40,87.93103448275862,40,86.89655172413794,40C85.86206896551724,40,84.82758620689656,40,83.79310344827586,40C82.75862068965517,40,81.72413793103448,40,80.6896551724138,40C79.6551724137931,40,78.62068965517241,40,77.58620689655172,40C76.55172413793103,40,75.51724137931033,40,74.48275862068965,40C73.44827586206897,40,72.41379310344827,40,71.37931034482759,40C70.34482758620689,40,69.3103448275862,40,68.27586206896551,40C67.24137931034483,40,66.20689655172413,40,65.17241379310344,40C64.13793103448276,40,63.10344827586207,40,62.06896551724138,40C61.03448275862069,40,60,40,58.96551724137931,40C57.93103448275862,40,56.896551724137936,40,55.862068965517246,40C54.827586206896555,40,53.79310344827586,40,52.75862068965517,40C51.72413793103448,40,50.689655172413794,40,49.6551724137931,40C48.62068965517241,40,47.58620689655173,40,46.55172413793104,40C45.51724137931035,40,44.48275862068966,40,43.44827586206897,40C42.41379310344828,40,41.37931034482759,40,40.3448275862069,40C39.310344827586206,40,38.275862068965516,40,37.241379310344826,40C36.206896551724135,40,35.172413793103445,40,34.137931034482754,40C33.103448275862064,40,32.06896551724138,40,31.03448275862069,40C30,40,28.965517241379313,40,27.931034482758623,40C26.896551724137932,40,25.862068965517242,40,24.82758620689655,40C23.79310344827586,40,22.758620689655174,40,21.724137931034484,40C20.689655172413794,40,19.655172413793103,40,18.620689655172413,40C17.586206896551722,40,16.551724137931036,40,15.517241379310345,40C14.482758620689655,40,13.448275862068966,40,12.413793103448276,40C11.379310344827585,40,10.344827586206897,40,9.310344827586206,40C8.275862068965516,40,7.241379310344827,40,6.206896551724138,40C5.172413793103448,40,4.137931034482759,40,3.103448275862069,40C2.068965517241379,40,1.0344827586206897,40,0,40Z"></path><path class="line" stroke="black" fill="none" d="M0,11.200000000000001C1.0344827586206897,11.200000000000001,2.068965517241379,11.200000000000001,3.103448275862069,11.200000000000001C4.137931034482759,11.200000000000001,5.172413793103448,12.799999999999997,6.206896551724138,12.799999999999997C7.241379310344827,12.799999999999997,8.275862068965516,5.866666666666667,9.310344827586206,4.8C10.344827586206897,3.7333333333333325,11.379310344827585,3.1999999999999984,12.413793103448276,3.1999999999999984C13.448275862068966,3.1999999999999984,14.482758620689655,3.1999999999999984,15.517241379310345,3.1999999999999984C16.551724137931036,3.1999999999999984,17.586206896551722,3.1999999999999984,18.620689655172413,3.1999999999999984C19.655172413793103,3.1999999999999984,20.689655172413794,4.8,21.724137931034484,4.8C22.758620689655174,4.8,23.79310344827586,4.8,24.82758620689655,4.8C25.862068965517242,4.8,26.896551724137932,4.8,27.931034482758623,4.8C28.965517241379313,4.8,30,13.866666666666665,31.03448275862069,16C32.06896551724138,18.133333333333333,33.103448275862064,19.2,34.137931034482754,19.2C35.172413793103445,19.2,36.206896551724135,17.599999999999998,37.241379310344826,17.599999999999998C38.275862068965516,17.599999999999998,39.310344827586206,20.8,40.3448275862069,20.8C41.37931034482759,20.8,42.41379310344828,19.2,43.44827586206897,19.2C44.48275862068966,19.2,45.51724137931035,20.266666666666666,46.55172413793104,20.8C47.58620689655173,21.333333333333332,48.62068965517241,21.86666666666667,49.6551724137931,22.400000000000002C50.689655172413794,22.933333333333334,51.72413793103448,23.46666666666667,52.75862068965517,24C53.79310344827586,24.533333333333335,54.827586206896555,24.799999999999997,55.862068965517246,25.6C56.896551724137936,26.4,57.93103448275862,27.999999999999996,58.96551724137931,28.799999999999997C60,29.599999999999998,61.03448275862069,29.866666666666664,62.06896551724138,30.4C63.10344827586207,30.93333333333333,64.13793103448276,31.466666666666665,65.17241379310344,32C66.20689655172413,32.53333333333333,67.24137931034483,33.6,68.27586206896551,33.6C69.3103448275862,33.6,70.34482758620689,32.53333333333334,71.37931034482759,32C72.41379310344827,31.46666666666667,73.44827586206897,30.4,74.48275862068965,30.4C75.51724137931033,30.4,76.55172413793103,30.4,77.58620689655172,30.4C78.62068965517241,30.4,79.6551724137931,29.333333333333332,80.6896551724138,28.799999999999997C81.72413793103448,28.266666666666666,82.75862068965517,27.733333333333327,83.79310344827586,27.199999999999996C84.82758620689656,26.66666666666666,85.86206896551724,25.6,86.89655172413794,25.6C87.93103448275862,25.6,88.96551724137932,27.199999999999996,90,27.199999999999996C91.0344827586207,27.199999999999996,92.06896551724138,25.6,93.10344827586208,25.6C94.13793103448276,25.6,95.17241379310344,28.799999999999997,96.20689655172413,28.799999999999997C97.24137931034483,28.799999999999997,98.27586206896551,28.799999999999997,99.3103448275862,28.799999999999997C100.3448275862069,28.799999999999997,101.37931034482759,31.2,102.41379310344828,32C103.44827586206897,32.8,104.48275862068965,33.06666666666667,105.51724137931033,33.6C106.55172413793103,34.13333333333334,107.58620689655172,35.2,108.62068965517241,35.2C109.65517241379311,35.2,110.6896551724138,35.2,111.72413793103449,35.2C112.75862068965517,35.2,113.79310344827587,36.800000000000004,114.82758620689656,36.800000000000004C115.86206896551724,36.800000000000004,116.89655172413794,36.800000000000004,117.93103448275862,36.800000000000004C118.96551724137932,36.800000000000004,120,36.800000000000004,121.0344827586207,36.800000000000004C122.06896551724138,36.800000000000004,123.10344827586208,36.800000000000004,124.13793103448276,36.800000000000004C125.17241379310344,36.800000000000004,126.20689655172414,36.800000000000004,127.24137931034483,36.800000000000004C128.27586206896552,36.800000000000004,129.3103448275862,36.800000000000004,130.3448275862069,36.800000000000004C131.3793103448276,36.800000000000004,132.41379310344828,36.800000000000004,133.44827586206898,36.800000000000004C134.48275862068965,36.800000000000004,135.51724137931035,37.866666666666674,136.55172413793102,38.4C137.58620689655172,38.93333333333334,138.6206896551724,40,139.6551724137931,40C140.6896551724138,40,141.72413793103448,40,142.75862068965517,40C143.79310344827587,40,144.82758620689654,40,145.86206896551724,40C146.89655172413794,40,147.9310344827586,40,148.9655172413793,40C150,40,151.0344827586207,40,152.0689655172414,40C153.10344827586206,40,154.13793103448276,40,155.17241379310343,40C156.20689655172413,40,157.24137931034483,40,158.27586206896552,40C159.31034482758622,40,160.3448275862069,40,161.3793103448276,40C162.41379310344828,40,163.44827586206895,40,164.48275862068965,40C165.51724137931035,40,166.55172413793102,40,167.58620689655172,40C168.6206896551724,40,169.6551724137931,40,170.6896551724138,40C171.7241379310345,40,172.75862068965517,40,173.79310344827587,40C174.82758620689657,40,175.86206896551724,40,176.89655172413794,40C177.93103448275863,40,178.9655172413793,40,180,40"></path><path class="axis-ceiling" stroke-width="1" stroke="black" fill="none" d="M175,0L180,0"></path><text class="axis-ceiling-label" font-family="sans-serif" text-anchor="end" font-size="10px" x="170" y="2.5">25</text></g></svg>