<svg xmlns="http://www.w3.org/2000/svg" viewBox="0 0 180 60"><g transform="translate(0,20)"><path class="area" fill="rgba(0, 0, 0, 0.2)" d="M0,37.160000000000004C1.0344827586206897,37.71,2.068965517241379,38.26,3.103448275862069,38.26C4.137931034482759,38.26,5.172413793103448,35.57,6.206896551724138,35.57C7.241379310344827,35.57,8.275862068965516,36.39,9.310344827586206,36.39C10.344827586206897,36.39,11.379310344827585,36.39,12.413793103448276,36.39C13.448275862068966,36.39,14.482758620689655,36.81,15.517241379310345,36.81C16.551724137931036,36.81,17.586206896551722,36.28,18.620689655172413,36.28C19.655172413793103,36.28,20.689655172413794,36.89666666666667,21.724137931034484,37.18C22.758620689655174,37.46333333333333,23.79310344827586,37.980000000000004,24.82758620689655,37.980000000000004C25.862068965517242,37.980000000000004,26.896551724137932,35.8,27.931034482758623,35.8C28.965517241379313,35.8,30,35.99,31.03448275862069,35.99C32.06896551724138,35.99,33.103448275862064,35.72,34.137931034482754,35.72C35.172413793103445,35.72,36.206896551724135,35.870000000000005,37.241379310344826,35.870000000000005C38.275862068965516,35.870000000000005,39.310344827586206,35.03,40.3448275862069,35.03C41.37931034482759,35.03,42.41379310344828,35.156666666666666,43.44827586206897,35.41C44.48275862068966,35.66333333333333,45.51724137931035,36.89,46.55172413793104,36.89C47.58620689655173,36.89,48.62068965517241,32.32333333333334,49.6551724137931,32.09C50.689655172413794,31.856666666666666,51.72413793103448,31.84,52.75862068965517,31.74C53.79310344827586,31.639999999999997,54.827586206896555,31.490000000000002,55.862068965517246,31.490000000000002C56.896551724137936,31.490000000000002,57.93103448275862,31.77,58.96551724137931,31.77C60,31.77,61.03448275862069,30.470000000000002,62.06896551724138,30.470000000000002C63.10344827586207,30.470000000000002,64.13793103448276,30.930000000000003,65.17241379310344,31.400000000000002C66.20689655172413,31.87,67.24137931034483,33.29,68.27586206896551,33.29C69.3103448275862,33.29,70.34482758620689,25.24333333333334,71.37931034482759,24.830000000000002C72.41379310344827,24.416666666666668,73.44827586206897,24.21,74.48275862068965,24.21C75.51724137931033,24.21,76.55172413793103,24.84,77.58620689655172,24.84C78.62068965517241,24.84,79.6551724137931,24.31833333333333,80.6896551724138,24.009999999999998C81.72413793103448,23.701666666666664,82.75862068965517,22.99,83.79310344827586,22.99C84.82758620689656,22.99,85.86206896551724,22.993333333333332,86.89655172413794,23C87.93103448275862,23.006666666666668,88.96551724137932,28.1,90,28.1C91.0344827586207,28.1,92.06896551724138,27.763333333333335,93.10344827586208,27.09C94.13793103448276,26.41666666666667,95.17241379310344,12.82,96.20689655172413,12.82C97.24137931034483,12.82,98.27586206896551,13.969999999999999,99.3103448275862,13.969999999999999C100.3448275862069,13.969999999999999,101.37931034482759,11.840000000000002,102.41379310344828,11.840000000000002C103.44827586206897,11.840000000000002,104.48275862068965,13.163333333333341,105.51724137931033,14.100000000000001C106.55172413793103,15.03666666666667,107.58620689655172,16.255000000000003,108.62068965517241,17.46C109.65517241379311,18.665,110.6896551724138,21.33,111.72413793103449,21.33C112.75862068965517,21.33,113.79310344827587,9.703333333333331,114.82758620689656,8.51C115.86206896551724,7.316666666666667,116.89655172413794,6.7200000000000015,117.93103448275862,6.7200000000000015C118.96551724137932,6.7200000000000015,120,8.170000000000002,121.0344827586207,8.170000000000002C122.06896551724138,8.170000000000002,123.10344827586208,6.699999999999999,124.13793103448276,6.699999999999999C125.17241379310344,6.699999999999999,126.20689655172414,9.809999999999999,127.24137931034483,9.809999999999999C128.27586206896552,9.809999999999999,129.3103448275862,8.159999999999998,130.3448275862069,8.159999999999998C131.3793103448276,8.159999999999998,132.41379310344828,22.06,133.44827586206898,22.06C134.48275862068965,22.06,135.51724137931035,1.200000000000001,136.55172413793102,1.200000000000001C137.58620689655172,1.200000000000001,138.6206896551724,6.440000000000001,139.6551724137931,6.440000000000001C140.6896551724138,6.440000000000001,141.72413793103448,2.9400000000000004,142.75862068965517,2.9400000000000004C143.79310344827587,2.9400000000000004,144.82758620689654,6.659999999999999,145.86206896551724,6.659999999999999C146.89655172413794,6.659999999999999,147.9310344827586,6.440000000000001,148.9655172413793,6.440000000000001C150,6.440000000000001,151.0344827586207,7.216666666666667,152.0689655172414,8.769999999999998C153.10344827586206,10.3233333333333,154.13793103448276,18.55,155.17241379310343,18.55C156.20689655172413,18.55,157.24137931034483,2.120000000000009,158.27586206896552,1.3200000000000012C159.31034482758622,0.5200000000000006,160.3448275862069,0.1200000000000001,161.3793103448276,0.1200000000000001C162.41379310344828,0.1200000000000001,163.44827586206895,0.2266666666666669,164.48275862068965,0.4400000000000004C165.51724137931035,0.6533333333333339,166.55172413793102,10.920000000000002,167.58620689655172,10.920000000000002C168.6206896551724,10.920000000000002,169.6551724137931,0.3299999999999992,170.6896551724138,0.3299999999999992C171.7241379310345,0.3299999999999992,172.75862068965517,2.9049999999999976,173.79310344827587,5.139999999999998C174.82758620689657,7.374999999999998,175.86206896551724,13.740000000000002,176.89655172413794,13.740000000000002C177.93103448275863,13.740000000000002,178.9655172413793,9.395,180,5.049999999999999L180,40C178.9655172413793,40,177.93103448275863,40,176.89655172413794,40C175.86206896551724,40,174.82758620689657,40,173.79310344827587,40C172.75862068965517,40,171.7241379310345,40,170.6896551724138,40C169.6551724137931,40,168.6206896551724,40,167.58620689655172,40C166.55172413793102,40,165.51724137931035,40,164.48275862068965,40C163.44827586206895,40,162.41379310344828,40,161.3793103448276,40C160.3448275862069,40,159.31034482758622,40,158.27586206896552,40C157.24137931034483,40,156.20689655172413,40,155.17241379310343,40C154.13793103448276,40,153.10344827586206,40,152.0689655172414,40C151.0344827586207,40,150,40,148.9655172413793,40C147.9310344827586,40,146.89655172413794,40,145.86206896551724,40C144.82758620689654,40,143.79310344827587,40,142.75862068965517,40C141.72413793103448,40,140.6896551724138,40,139.6551724137931,40C138.6206896551724,40,137.58620689655172,40,136.55172413793102,40C135.51724137931035,40,134.48275862068965,40,133.44827586206898,40C132.41379310344828,40,131.3793103448276,40,130.3448275862069,40C129.3103448275862,40,128.27586206896552,40,127.24137931034483,40C126.20689655172414,40,125.17241379310344,40,124.13793103448276,40C123.10344827586208,40,122.06896551724138,40,121.0344827586207,40C120,40,118.96551724137932,40,117.93103448275862,40C116.89655172413794,40,115.86206896551724,40,114.82758620689656,40C113.79310344827587,40,112.75862068965517,40,111.72413793103449,40C110.6896551724138,40,109.65517241379311,40,108.62068965517241,40C107.58620689655172,40,106.55172413793103,40,105.51724137931033,40C104.48275862068965,40,103.44827586206897,40,102.41379310344828,40C101.37931034482759,40,100.3448275862069,40,99.3103448275862,40C98.27586206896551,40,97.24137931034483,40,96.20689655172413,40C95.17241379310344,40,94.13793103448276,40,93.10344827586208,40C92.06896551724138,40,91.0344827586207,40,90,40C88.96551724137932,40,87.93103448275862,40,86.89655172413794,40C85.86206896551724,40,84.82758620689656,40,83.79310344827586,40C82.75862068965517,40,81.72413793103448,40,80.6896551724138,40C79.6551724137931,40,78.62068965517241,40,77.58620689655172,40C76.55172413793103,40,75.51724137931033,40,74.48275862068965,40C73.44827586206897,40,72.41379310344827,40,71.37931034482759,40C70.34482758620689,40,69.3103448275862,40,68.27586206896551,40C67.24137931034483,40,66.20689655172413,40,65.17241379310344,40C64.13793103448276,40,63.10344827586207,40,62.06896551724138,40C61.03448275862069,40,60,40,58.96551724137931,40C57.93103448275862,40,56.896551724137936,40,55.862068965517246,40C54.827586206896555,40,53.79310344827586,40,52.75862068965517,40C51.72413793103448,40,50.689655172413794,40,49.6551724137931,40C48.62068965517241,40,47.58620689655173,40,46.55172413793104,40C45.51724137931035,40,44.48275862068966,40,43.44827586206897,40C42.41379310344828,40,41.37931034482759,40,40.3448275862069,40C39.310344827586206,40,38.275862068965516,40,37.241379310344826,40C36.206896551724135,40,35.172413793103445,40,34.137931034482754,40C33.103448275862064,40,32.06896551724138,40,31.03448275862069,40C30,40,28.965517241379313,40,27.931034482758623,40C26.896551724137932,40,25.862068965517242,40,24.82758620689655,40C23.79310344827586,40,22.758620689655174,40,21.724137931034484,40C20.689655172413794,40,19.655172413793103,40,18.620689655172413,40C17.586206896551722,40,16.551724137931036,40,15.517241379310345,40C14.482758620689655,40,13.448275862068966,40,12.413793103448276,40C11.379310344827585,40,10.344827586206897,40,9.310344827586206,40C8.275862068965516,40,7.241379310344827,40,6.206896551724138,40C5.172413793103448,40,4.137931034482759,40,3.103448275862069,40C2.068965517241379,40,1.0344827586206897,40,0,40Z"></path><path class="line" stroke="black" fill="none" d="M0,37.160000000000004C1.0344827586206897,37.71,2.068965517241379,38.26,3.103448275862069,38.26C4.137931034482759,38.26,5.172413793103448,35.57,6.206896551724138,35.57C7.241379310344827,35.57,8.275862068965516,36.39,9.310344827586206,36.39C10.344827586206897,36.39,11.379310344827585,36.39,12.413793103448276,36.39C13.448275862068966,36.39,14.482758620689655,36.81,15.517241379310345,36.81C16.551724137931036,36.81,17.586206896551722,36.28,18.620689655172413,36.28C19.655172413793103,36.28,20.689655172413794,36.89666666666667,21.724137931034484,37.18C22.758620689655174,37.46333333333333,23.79310344827586,37.980000000000004,24.82758620689655,37.980000000000004C25.862068965517242,37.980000000000004,26.896551724137932,35.8,27.931034482758623,35.8C28.965517241379313,35.8,30,35.99,31.03448275862069,35.99C32.06896551724138,35.99,33.103448275862064,35.72,34.137931034482754,35.72C35.172413793103445,35.72,36.206896551724135,35.870000000000005,37.241379310344826,35.870000000000005C38.275862068965516,35.870000000000005,39.310344827586206,35.03,40.3448275862069,35.03C41.37931034482759,35.03,42.41379310344828,35.156666666666666,43.44827586206897,35.41C44.48275862068966,35.66333333333333,45.51724137931035,36.89,46.55172413793104,36.89C47.58620689655173,36.89,48.62068965517241,32.32333333333334,49.6551724137931,32.09C50.689655172413794,31.856666666666666,51.72413793103448,31.84,52.75862068965517,31.74C53.79310344827586,31.639999999999997,54.827586206896555,31.490000000000002,55.862068965517246,31.490000000000002C56.896551724137936,31.490000000000002,57.93103448275862,31.77,58.96551724137931,31.77C60,31.77,61.03448275862069,30.470000000000002,62.06896551724138,30.470000000000002C63.10344827586207,30.470000000000002,64.13793103448276,30.930000000000003,65.17241379310344,31.400000000000002C66.20689655172413,31.87,67.24137931034483,33.29,68.27586206896551,33.29C69.3103448275862,33.29,70.34482758620689,25.24333333333334,71.37931034482759,24.830000000000002C72.41379310344827,24.416666666666668,73.44827586206897,24.21,74.48275862068965,24.21C75.51724137931033,24.21,76.55172413793103,24.84,77.58620689655172,24.84C78.62068965517241,24.84,79.6551724137931,24.31833333333333,80.6896551724138,24.009999999999998C81.72413793103448,23.701666666666664,82.75862068965517,22.99,83.79310344827586,22.99C84.82758620689656,22.99,85.86206896551724,22.993333333333332,86.89655172413794,23C87.93103448275862,23.006666666666668,88.96551724137932,28.1,90,28.1C91.0344827586207,28.1,92.06896551724138,27.763333333333335,93.10344827586208,27.09C94.13793103448276,26.41666666666667,95.17241379310344,12.82,96.20689655172413,12.82C97.24137931034483,12.82,98.27586206896551,13.969999999999999,99.3103448275862,13.969999999999999C100.3448275862069,13.969999999999999,101.37931034482759,11.840000000000002,102.41379310344828,11.840000000000002C103.44827586206897,11.840000000000002,104.48275862068965,13.163333333333341,105.51724137931033,14.100000000000001C106.55172413793103,15.03666666666667,107.58620689655172,16.255000000000003,108.62068965517241,17.46C109.65517241379311,18.665,110.6896551724138,21.33,111.72413793103449,21.33C112.75862068965517,21.33,113.79310344827587,9.703333333333331,114.82758620689656,8.51C115.86206896551724,7.316666666666667,116.89655172413794,6.7200000000000015,117.93103448275862,6.7200000000000015C118.96551724137932,6.7200000000000015,120,8.170000000000002,121.0344827586207,8.170000000000002C122.06896551724138,8.170000000000002,123.10344827586208,6.699999999999999,124.13793103448276,6.699999999999999C125.17241379310344,6.699999999999999,126.20689655172414,9.809999999999999,127.24137931034483,9.809999999999999C128.27586206896552,9.809999999999999,129.3103448275862,8.159999999999998,130.3448275862069,8.159999999999998C131.3793103448276,8.159999999999998,132.41379310344828,22.06,133.44827586206898,22.06C134.48275862068965,22.06,135.51724137931035,1.200000000000001,136.55172413793102,1.200000000000001C137.58620689655172,1.200000000000001,138.6206896551724,6.440000000000001,139.6551724137931,6.440000000000001C140.6896551724138,6.440000000000001,141.72413793103448,2.9400000000000004,142.75862068965517,2.9400000000000004C143.79310344827587,2.9400000000000004,144.82758620689654,6.659999999999999,145.86206896551724,6.659999999999999C146.89655172413794,6.659999999999999,147.9310344827586,6.440000000000001,148.9655172413793,6.440000000000001C150,6.440000000000001,151.0344827586207,7.216666666666667,152.0689655172414,8.769999999999998C153.10344827586206,10.3233333333333,154.13793103448276,18.55,155.17241379310343,18.55C156.20689655172413,18.55,157.24137931034483,2.120000000000009,158.27586206896552,1.3200000000000012C159.31034482758622,0.5200000000000006,160.3448275862069,0.1200000000000001,161.3793103448276,0.1200000000000001C162.41379310344828,0.1200000000000001,163.44827586206895,0.2266666666666669,164.48275862068965,0.4400000000000004C165.51724137931035,0.6533333333333339,166.55172413793102,10.920000000000002,167.58620689655172,10.920000000000002C168.6206896551724,10.920000000000002,169.6551724137931,0.3299999999999992,170.6896551724138,0.3299999999999992C171.7241379310345,0.3299999999999992,172.75862068965517,2.9049999999999976,173.79310344827587,5.139999999999998C174.82758620689657,7.374999999999998,175.86206896551724,13.740000000000002,176.89655172413794,13.740000000000002C177.93103448275863,13.740000000000002,178.9655172413793,9.395,180,5.049999999999999"></path><path class="axis-ceiling" stroke-width="1" stroke="black" fill="none" d="M175,0L180,0"></path><text class="axis-ceiling-label" font-family="sans-serif" text-anchor="end" font-size="10px" x="170" y="2.5">4000</text></g></svg>