<svg xmlns="http://www.w3.org/2000/svg" viewBox="0 0 480 160"><g transform="translate(10,10)"><rect class="bar" x="0.15328223925359907" width="13.174941686104631" y="131.04812129202372" height="8.951878707976277" fill="rgb(164,173,192)"></rect><rect class="bar" x="15.481506164611814" width="13.174941686104631" y="117.80487804878048" height="22.19512195121952" fill="rgb(164,173,192)"></rect><rect class="bar" x="30.809730089970028" width="13.174941686104631" y="124.44957152274226" height="15.55042847725774" fill="rgb(164,173,192)"></rect><rect class="bar" x="46.13795401532824" width="13.174941686104631" y="120.20435069215557" height="19.795649307844428" fill="rgb(164,173,192)"></rect><rect class="bar" x="61.46617794068646" width="13.174941686104631" y="124.31114040870139" height="15.688859591298609" fill="rgb(164,173,192)"></rect><rect class="bar" x="76.79440186604467" width="13.174941686104631" y="124.1727092946605" height="15.827290705339493" fill="rgb(164,173,192)"></rect><rect class="bar" x="92.12262579140288" width="13.174941686104631" y="126.89518787079763" height="13.104812129202372" fill="rgb(164,173,192)"></rect><rect class="bar" x="107.4508497167611" width="13.174941686104631" y="131.97099538562955" height="8.02900461437045" fill="rgb(164,173,192)"></rect><rect class="bar" x="122.77907364211931" width="13.174941686104631" y="119.55833882663151" height="20.441661173368487" fill="rgb(164,173,192)"></rect><rect class="bar" x="138.10729756747753" width="13.174941686104631" y="123.3421226104153" height="16.657877389584698" fill="rgb(164,173,192)"></rect><rect class="bar" x="153.43552149283573" width="13.174941686104631" y="123.3421226104153" height="16.657877389584698" fill="rgb(164,173,192)"></rect><rect class="bar" x="168.76374541819396" width="13.174941686104631" y="125.28015820698748" height="14.71984179301252" fill="rgb(164,173,192)"></rect><rect class="bar" x="184.09196934355217" width="13.174941686104631" y="122.8345418589321" height="17.1654581410679" fill="rgb(164,173,192)"></rect><rect class="bar" x="199.4201932689104" width="13.174941686104631" y="126.9874752801582" height="13.012524719841807" fill="rgb(164,173,192)"></rect><rect class="bar" x="214.7484171942686" width="13.174941686104631" y="130.6789716545814" height="9.321028345418597" fill="rgb(164,173,192)"></rect><rect class="bar" x="230.07664111962683" width="13.174941686104631" y="120.61964403427818" height="19.38035596572182" fill="rgb(164,173,192)"></rect><rect class="bar" x="245.40486504498503" width="13.174941686104631" y="121.49637442320369" height="18.50362557679631" fill="rgb(164,173,192)"></rect><rect class="bar" x="260.73308897034326" width="13.174941686104631" y="120.25049439683585" height="19.749505603164152" fill="rgb(164,173,192)"></rect><rect class="bar" x="276.06131289570146" width="13.174941686104631" y="120.94264996704021" height="19.05735003295979" fill="rgb(164,173,192)"></rect><rect class="bar" x="291.38953682105966" width="13.174941686104631" y="117.06657877389586" height="22.933421226104144" fill="rgb(164,173,192)"></rect><rect class="bar" x="306.71776074641787" width="13.174941686104631" y="118.82003955174687" height="21.179960448253127" fill="rgb(164,173,192)"></rect><rect class="bar" x="322.0459846717761" width="13.174941686104631" y="125.64930784442979" height="14.350692155570215" fill="rgb(164,173,192)"></rect><rect class="bar" x="337.3742085971343" width="13.174941686104631" y="103.50032959789057" height="36.49967040210943" fill="rgb(164,173,192)"></rect><rect class="bar" x="352.70243252249253" width="13.174941686104631" y="101.88529993408042" height="38.11470006591958" fill="rgb(164,173,192)"></rect><rect class="bar" x="368.03065644785073" width="13.174941686104631" y="100.73170731707317" height="39.26829268292683" fill="rgb(164,173,192)"></rect><rect class="bar" x="383.35888037320893" width="13.174941686104631" y="102.02373104812129" height="37.97626895187871" fill="rgb(164,173,192)"></rect><rect class="bar" x="398.6871042985672" width="13.174941686104631" y="96.02504943968358" height="43.974950560316415" fill="rgb(164,173,192)"></rect><rect class="bar" x="414.0153282239254" width="13.174941686104631" y="100.31641397495056" height="39.683586025049436" fill="rgb(164,173,192)"></rect><rect class="bar" x="429.3435521492836" width="13.174941686104631" y="109.03757415952538" height="30.962425840474623" fill="rgb(164,173,192)"></rect><rect class="bar" x="444.6717760746418" width="13.174941686104631" y="70" height="70" fill="rgb(164,173,192)"></rect></g></svg>