<svg xmlns="http://www.w3.org/2000/svg" viewBox="0 0 180 60"><g transform="translate(0,20)"><path class="area" fill="rgba(0, 0, 0, 0.2)" d="M0,39.06666666666667C1.0169491525423728,39.08888888888889,2.0338983050847457,39.111111111111114,3.0508474576271185,39.2C4.067796610169491,39.28888888888889,5.084745762711864,39.733333333333334,6.101694915254237,39.733333333333334C7.11864406779661,39.733333333333334,8.135593220338983,39.2,9.152542372881356,39.2C10.169491525423728,39.2,11.186440677966102,39.33333333333333,12.203389830508474,39.33333333333333C13.220338983050846,39.33333333333333,14.23728813559322,39.11111111111111,15.254237288135592,38.8C16.271186440677965,38.48888888888889,17.28813559322034,37.46666666666667,18.305084745762713,37.46666666666667C19.322033898305087,37.46666666666667,20.338983050847457,38.93333333333334,21.35593220338983,38.93333333333334C22.372881355932204,38.93333333333334,23.389830508474574,37.06666666666666,24.406779661016948,37.06666666666666C25.423728813559322,37.06666666666666,26.440677966101696,38.266666666666666,27.45762711864407,38.266666666666666C28.47457627118644,38.266666666666666,29.491525423728813,37.844444444444434,30.508474576271183,37.599999999999994C31.525423728813557,37.35555555555555,32.54237288135593,36.800000000000004,33.559322033898304,36.800000000000004C34.57627118644068,36.800000000000004,35.59322033898305,37.06666666666666,36.610169491525426,37.06666666666666C37.6271186440678,37.06666666666666,38.644067796610166,36.93333333333334,39.66101694915254,36.93333333333334C40.67796610169491,36.93333333333334,41.69491525423729,37.199999999999996,42.71186440677966,37.199999999999996C43.728813559322035,37.199999999999996,44.7457627118644,35.86666666666667,45.762711864406775,35.86666666666667C46.77966101694915,35.86666666666667,47.79661016949152,37.333333333333336,48.813559322033896,37.333333333333336C49.83050847457627,37.333333333333336,50.847457627118644,34,51.86440677966102,34C52.88135593220339,34,53.898305084745765,34.13333333333333,54.91525423728814,34.13333333333333C55.93220338983051,34.13333333333333,56.94915254237288,33.82222222222222,57.96610169491525,33.199999999999996C58.983050847457626,32.57777777777777,59.99999999999999,28.4,61.01694915254237,28.4C62.03389830508474,28.4,63.05084745762712,30.53333333333333,64.0677966101695,30.53333333333333C65.08474576271186,30.53333333333333,66.10169491525424,26.133333333333333,67.11864406779661,26.133333333333333C68.13559322033899,26.133333333333333,69.15254237288136,31.200000000000003,70.16949152542374,31.200000000000003C71.1864406779661,31.200000000000003,72.20338983050848,30,73.22033898305085,29.066666666666666C74.23728813559322,28.133333333333333,75.2542372881356,27.2,76.27118644067797,25.6C77.28813559322033,24.000000000000004,78.30508474576271,19.911111111111115,79.32203389830508,19.46666666666667C80.33898305084746,19.022222222222222,81.35593220338983,19.02222222222222,82.37288135593221,18.799999999999997C83.38983050847457,18.577777777777776,84.40677966101696,18.133333333333333,85.42372881355932,18.133333333333333C86.4406779661017,18.133333333333333,87.45762711864407,21.333333333333332,88.47457627118645,21.333333333333332C89.49152542372882,21.333333333333332,90.50847457627118,20.844444444444445,91.52542372881355,19.866666666666667C92.54237288135593,18.88888888888888,93.55932203389831,7.333333333333334,94.57627118644069,7.333333333333334C95.59322033898306,7.333333333333334,96.61016949152543,13.066666666666666,97.62711864406779,13.066666666666666C98.64406779661016,13.066666666666666,99.66101694915254,6.533333333333333,100.6779661016949,6.533333333333333C101.69491525423729,6.533333333333333,102.71186440677965,7.288888888888889,103.72881355932203,7.733333333333334C104.7457627118644,8.177777777777777,105.76271186440678,8.222222222222223,106.77966101694915,9.2C107.79661016949153,10.17777777777778,108.8135593220339,17.51111111111111,109.83050847457628,18.666666666666668C110.84745762711864,19.822222222222223,111.86440677966102,20.4,112.88135593220339,20.4C113.89830508474576,20.4,114.91525423728814,16.599999999999994,115.9322033898305,14.533333333333331C116.94915254237289,12.46666666666666,117.96610169491525,7.999999999999998,118.98305084745763,7.999999999999998C120,7.999999999999998,121.01694915254237,12.355555555555567,122.03389830508473,14.399999999999999C123.05084745762711,16.444444444444457,124.0677966101695,20.266666666666666,125.08474576271188,20.266666666666666C126.10169491525424,20.266666666666666,127.11864406779662,19.066666666666666,128.135593220339,19.066666666666666C129.15254237288136,19.066666666666666,130.16949152542372,20.533333333333353,131.1864406779661,22.93333333333333C132.20338983050846,25.333333333333332,133.22033898305085,33.46666666666667,134.23728813559322,33.46666666666667C135.25423728813558,33.46666666666667,136.27118644067798,30.644444444444446,137.28813559322035,29.6C138.3050847457627,28.555555555555557,139.3220338983051,27.199999999999996,140.33898305084747,27.199999999999996C141.35593220338984,27.199999999999996,142.3728813559322,27.644444444444446,143.38983050847457,27.866666666666667C144.40677966101694,28.088888888888892,145.42372881355934,28.08888888888889,146.4406779661017,28.533333333333335C147.45762711864407,28.977777777777774,148.47457627118644,30.355555555555554,149.4915254237288,31.066666666666663C150.50847457627117,31.77777777777778,151.52542372881356,32.26666666666667,152.54237288135593,32.800000000000004C153.5593220338983,33.333333333333336,154.5762711864407,34.266666666666666,155.59322033898306,34.266666666666666C156.61016949152543,34.266666666666666,157.6271186440678,32.53333333333333,158.64406779661016,32.53333333333333C159.66101694915253,32.53333333333333,160.67796610169492,32.800000000000004,161.6949152542373,32.93333333333334C162.71186440677965,33.06666666666667,163.72881355932205,33.333333333333336,164.74576271186442,33.333333333333336C165.76271186440678,33.333333333333336,166.77966101694915,32.13333333333333,167.79661016949152,32.13333333333333C168.81355932203388,32.13333333333333,169.83050847457628,33.355555555555554,170.84745762711864,33.86666666666667C171.864406779661,34.37777777777778,172.8813559322034,34.644444444444446,173.89830508474577,35.2C174.91525423728814,35.75555555555556,175.93220338983053,37.199999999999996,176.9491525423729,37.199999999999996C177.96610169491527,37.199999999999996,178.98305084745763,36.2,180,35.2L180,40C178.98305084745763,40,177.96610169491527,40,176.9491525423729,40C175.93220338983053,40,174.91525423728814,40,173.89830508474577,40C172.8813559322034,40,171.864406779661,40,170.84745762711864,40C169.83050847457628,40,168.81355932203388,40,167.79661016949152,40C166.77966101694915,40,165.76271186440678,40,164.74576271186442,40C163.72881355932205,40,162.71186440677965,40,161.6949152542373,40C160.67796610169492,40,159.66101694915253,40,158.64406779661016,40C157.6271186440678,40,156.61016949152543,40,155.59322033898306,40C154.5762711864407,40,153.5593220338983,40,152.54237288135593,40C151.52542372881356,40,150.50847457627117,40,149.4915254237288,40C148.47457627118644,40,147.45762711864407,40,146.4406779661017,40C145.42372881355934,40,144.40677966101694,40,143.38983050847457,40C142.3728813559322,40,141.35593220338984,40,140.33898305084747,40C139.3220338983051,40,138.3050847457627,40,137.28813559322035,40C136.27118644067798,40,135.25423728813558,40,134.23728813559322,40C133.22033898305085,40,132.20338983050846,40,131.1864406779661,40C130.16949152542372,40,129.15254237288136,40,128.135593220339,40C127.11864406779662,40,126.10169491525424,40,125.08474576271188,40C124.0677966101695,40,123.05084745762711,40,122.03389830508473,40C121.01694915254237,40,120,40,118.98305084745763,40C117.96610169491525,40,116.94915254237289,40,115.9322033898305,40C114.91525423728814,40,113.89830508474576,40,112.88135593220339,40C111.86440677966102,40,110.84745762711864,40,109.83050847457628,40C108.8135593220339,40,107.79661016949153,40,106.77966101694915,40C105.76271186440678,40,104.7457627118644,40,103.72881355932203,40C102.71186440677965,40,101.69491525423729,40,100.6779661016949,40C99.66101694915254,40,98.64406779661016,40,97.62711864406779,40C96.61016949152543,40,95.59322033898306,40,94.57627118644069,40C93.55932203389831,40,92.54237288135593,40,91.52542372881355,40C90.50847457627118,40,89.49152542372882,40,88.47457627118645,40C87.45762711864407,40,86.4406779661017,40,85.42372881355932,40C84.40677966101696,40,83.38983050847457,40,82.37288135593221,40C81.35593220338983,40,80.33898305084746,40,79.32203389830508,40C78.30508474576271,40,77.28813559322033,40,76.27118644067797,40C75.2542372881356,40,74.23728813559322,40,73.22033898305085,40C72.20338983050848,40,71.1864406779661,40,70.16949152542374,40C69.15254237288136,40,68.13559322033899,40,67.11864406779661,40C66.10169491525424,40,65.08474576271186,40,64.0677966101695,40C63.05084745762712,40,62.03389830508474,40,61.01694915254237,40C59.99999999999999,40,58.983050847457626,40,57.96610169491525,40C56.94915254237288,40,55.93220338983051,40,54.91525423728814,40C53.898305084745765,40,52.88135593220339,40,51.86440677966102,40C50.847457627118644,40,49.83050847457627,40,48.813559322033896,40C47.79661016949152,40,46.77966101694915,40,45.762711864406775,40C44.7457627118644,40,43.728813559322035,40,42.71186440677966,40C41.69491525423729,40,40.67796610169491,40,39.66101694915254,40C38.644067796610166,40,37.6271186440678,40,36.610169491525426,40C35.59322033898305,40,34.57627118644068,40,33.559322033898304,40C32.54237288135593,40,31.525423728813557,40,30.508474576271183,40C29.491525423728813,40,28.47457627118644,40,27.45762711864407,40C26.440677966101696,40,25.423728813559322,40,24.406779661016948,40C23.389830508474574,40,22.372881355932204,40,21.35593220338983,40C20.338983050847457,40,19.322033898305087,40,18.305084745762713,40C17.28813559322034,40,16.271186440677965,40,15.254237288135592,40C14.23728813559322,40,13.220338983050846,40,12.203389830508474,40C11.186440677966102,40,10.169491525423728,40,9.152542372881356,40C8.135593220338983,40,7.11864406779661,40,6.101694915254237,40C5.084745762711864,40,4.067796610169491,40,3.0508474576271185,40C2.0338983050847457,40,1.0169491525423728,40,0,40Z"></path><path class="line" stroke="black" fill="none" d="M0,39.06666666666667C1.0169491525423728,39.08888888888889,2.0338983050847457,39.111111111111114,3.0508474576271185,39.2C4.067796610169491,39.28888888888889,5.084745762711864,39.733333333333334,6.101694915254237,39.733333333333334C7.11864406779661,39.733333333333334,8.135593220338983,39.2,9.152542372881356,39.2C10.169491525423728,39.2,11.186440677966102,39.33333333333333,12.203389830508474,39.33333333333333C13.220338983050846,39.33333333333333,14.23728813559322,39.11111111111111,15.254237288135592,38.8C16.271186440677965,38.48888888888889,17.28813559322034,37.46666666666667,18.305084745762713,37.46666666666667C19.322033898305087,37.46666666666667,20.338983050847457,38.93333333333334,21.35593220338983,38.93333333333334C22.372881355932204,38.93333333333334,23.389830508474574,37.06666666666666,24.406779661016948,37.06666666666666C25.423728813559322,37.06666666666666,26.440677966101696,38.266666666666666,27.45762711864407,38.266666666666666C28.47457627118644,38.266666666666666,29.491525423728813,37.844444444444434,30.508474576271183,37.599999999999994C31.525423728813557,37.35555555555555,32.54237288135593,36.800000000000004,33.559322033898304,36.800000000000004C34.57627118644068,36.800000000000004,35.59322033898305,37.06666666666666,36.610169491525426,37.06666666666666C37.6271186440678,37.06666666666666,38.644067796610166,36.93333333333334,39.66101694915254,36.93333333333334C40.67796610169491,36.93333333333334,41.69491525423729,37.199999999999996,42.71186440677966,37.199999999999996C43.728813559322035,37.199999999999996,44.7457627118644,35.86666666666667,45.762711864406775,35.86666666666667C46.77966101694915,35.86666666666667,47.79661016949152,37.333333333333336,48.813559322033896,37.333333333333336C49.83050847457627,37.333333333333336,50.847457627118644,34,51.86440677966102,34C52.88135593220339,34,53.898305084745765,34.13333333333333,54.91525423728814,34.13333333333333C55.93220338983051,34.13333333333333,56.94915254237288,33.82222222222222,57.96610169491525,33.199999999999996C58.983050847457626,32.57777777777777,59.99999999999999,28.4,61.01694915254237,28.4C62.03389830508474,28.4,63.05084745762712,30.53333333333333,64.0677966101695,30.53333333333333C65.08474576271186,30.53333333333333,66.10169491525424,26.133333333333333,67.11864406779661,26.133333333333333C68.13559322033899,26.133333333333333,69.15254237288136,31.200000000000003,70.16949152542374,31.200000000000003C71.1864406779661,31.200000000000003,72.20338983050848,30,73.22033898305085,29.066666666666666C74.23728813559322,28.133333333333333,75.2542372881356,27.2,76.27118644067797,25.6C77.28813559322033,24.000000000000004,78.30508474576271,19.911111111111115,79.32203389830508,19.46666666666667C80.33898305084746,19.022222222222222,81.35593220338983,19.02222222222222,82.37288135593221,18.799999999999997C83.38983050847457,18.577777777777776,84.40677966101696,18.133333333333333,85.42372881355932,18.133333333333333C86.4406779661017,18.133333333333333,87.45762711864407,21.333333333333332,88.47457627118645,21.333333333333332C89.49152542372882,21.333333333333332,90.50847457627118,20.844444444444445,91.52542372881355,19.866666666666667C92.54237288135593,18.88888888888888,93.55932203389831,7.333333333333334,94.57627118644069,7.333333333333334C95.59322033898306,7.333333333333334,96.61016949152543,13.066666666666666,97.62711864406779,13.066666666666666C98.64406779661016,13.066666666666666,99.66101694915254,6.533333333333333,100.6779661016949,6.533333333333333C101.69491525423729,6.533333333333333,102.71186440677965,7.288888888888889,103.72881355932203,7.733333333333334C104.7457627118644,8.177777777777777,105.76271186440678,8.222222222222223,106.77966101694915,9.2C107.79661016949153,10.17777777777778,108.8135593220339,17.51111111111111,109.83050847457628,18.666666666666668C110.84745762711864,19.822222222222223,111.86440677966102,20.4,112.88135593220339,20.4C113.89830508474576,20.4,114.91525423728814,16.599999999999994,115.9322033898305,14.533333333333331C116.94915254237289,12.46666666666666,117.96610169491525,7.999999999999998,118.98305084745763,7.999999999999998C120,7.999999999999998,121.01694915254237,12.355555555555567,122.03389830508473,14.399999999999999C123.05084745762711,16.444444444444457,124.0677966101695,20.266666666666666,125.08474576271188,20.266666666666666C126.10169491525424,20.266666666666666,127.11864406779662,19.066666666666666,128.135593220339,19.066666666666666C129.15254237288136,19.066666666666666,130.16949152542372,20.533333333333353,131.1864406779661,22.93333333333333C132.20338983050846,25.333333333333332,133.22033898305085,33.46666666666667,134.23728813559322,33.46666666666667C135.25423728813558,33.46666666666667,136.27118644067798,30.644444444444446,137.28813559322035,29.6C138.3050847457627,28.555555555555557,139.3220338983051,27.199999999999996,140.33898305084747,27.199999999999996C141.35593220338984,27.199999999999996,142.3728813559322,27.644444444444446,143.38983050847457,27.866666666666667C144.40677966101694,28.088888888888892,145.42372881355934,28.08888888888889,146.4406779661017,28.533333333333335C147.45762711864407,28.977777777777774,148.47457627118644,30.355555555555554,149.4915254237288,31.066666666666663C150.50847457627117,31.77777777777778,151.52542372881356,32.26666666666667,152.54237288135593,32.800000000000004C153.5593220338983,33.333333333333336,154.5762711864407,34.266666666666666,155.59322033898306,34.266666666666666C156.61016949152543,34.266666666666666,157.6271186440678,32.53333333333333,158.64406779661016,32.53333333333333C159.66101694915253,32.53333333333333,160.67796610169492,32.800000000000004,161.6949152542373,32.93333333333334C162.71186440677965,33.06666666666667,163.72881355932205,33.333333333333336,164.74576271186442,33.333333333333336C165.76271186440678,33.333333333333336,166.77966101694915,32.13333333333333,167.79661016949152,32.13333333333333C168.81355932203388,32.13333333333333,169.83050847457628,33.355555555555554,170.84745762711864,33.86666666666667C171.864406779661,34.37777777777778,172.8813559322034,34.644444444444446,173.89830508474577,35.2C174.91525423728814,35.75555555555556,175.93220338983053,37.199999999999996,176.9491525423729,37.199999999999996C177.96610169491527,37.199999999999996,178.98305084745763,36.2,180,35.2"></path><path class="axis-ceiling" stroke-width="1" stroke="black" fill="none" d="M175,0L180,0"></path><text class="axis-ceiling-label" font-family="sans-serif" text-anchor="end" font-size="10px" x="170" y="2.5">300</text></g></svg>