<svg xmlns="http://www.w3.org/2000/svg" viewBox="0 0 180 60"><g transform="translate(0,20)"><path class="area" fill="rgba(0, 0, 0, 0.2)" d="M0,15.120000000000001C1.0344827586206897,13.86,2.068965517241379,12.599999999999998,3.103448275862069,12.599999999999998C4.137931034482759,12.599999999999998,5.172413793103448,14.56,6.206896551724138,15.64C7.241379310344827,16.72,8.275862068965516,18.02,9.310344827586206,19.08C10.344827586206897,20.139999999999997,11.379310344827585,22,12.413793103448276,22C13.448275862068966,22,14.482758620689655,16.686666666666667,15.517241379310345,14.879999999999999C16.551724137931036,13.073333333333332,17.586206896551722,11.16,18.620689655172413,11.16C19.655172413793103,11.16,20.689655172413794,15.893333333333334,21.724137931034484,16.400000000000002C22.758620689655174,16.90666666666667,23.79310344827586,16.653333333333336,24.82758620689655,17.160000000000004C25.862068965517242,17.66666666666667,26.896551724137932,22.240000000000002,27.931034482758623,22.240000000000002C28.965517241379313,22.240000000000002,30,21.559999999999995,31.03448275862069,21.559999999999995C32.06896551724138,21.559999999999995,33.103448275862064,26.080000000000002,34.137931034482754,26.080000000000002C35.172413793103445,26.080000000000002,36.206896551724135,12.200000000000003,37.241379310344826,12.200000000000003C38.275862068965516,12.200000000000003,39.310344827586206,17.240000000000002,40.3448275862069,17.240000000000002C41.37931034482759,17.240000000000002,42.41379310344828,16.080000000000002,43.44827586206897,16.080000000000002C44.48275862068966,16.080000000000002,45.51724137931035,20.226666666666667,46.55172413793104,20.68C47.58620689655173,21.133333333333333,48.62068965517241,20.906666666666666,49.6551724137931,21.36C50.689655172413794,21.813333333333333,51.72413793103448,23.32666666666667,52.75862068965517,24.48C53.79310344827586,25.633333333333336,54.827586206896555,28.28,55.862068965517246,28.28C56.896551724137936,28.28,57.93103448275862,20.77333333333333,58.96551724137931,20C60,19.226666666666667,61.03448275862069,18.84,62.06896551724138,18.84C63.10344827586207,18.84,64.13793103448276,28.24,65.17241379310344,28.24C66.20689655172413,28.24,67.24137931034483,18.68,68.27586206896551,18.68C69.3103448275862,18.68,70.34482758620689,19.406666666666666,71.37931034482759,20.12C72.41379310344827,20.833333333333336,73.44827586206897,21.473333333333336,74.48275862068965,22.96C75.51724137931033,24.446666666666665,76.55172413793103,29.04,77.58620689655172,29.04C78.62068965517241,29.04,79.6551724137931,19.28,80.6896551724138,19.28C81.72413793103448,19.28,82.75862068965517,20.460000000000004,83.79310344827586,21.240000000000002C84.82758620689656,22.020000000000003,85.86206896551724,23.96,86.89655172413794,23.96C87.93103448275862,23.96,88.96551724137932,20.92,90,20.92C91.0344827586207,20.92,92.06896551724138,23.919999999999995,93.10344827586208,25.04C94.13793103448276,26.159999999999993,95.17241379310344,26.580000000000005,96.20689655172413,27.64C97.24137931034483,28.700000000000003,98.27586206896551,31.400000000000002,99.3103448275862,31.400000000000002C100.3448275862069,31.400000000000002,101.37931034482759,20.560000000000002,102.41379310344828,20.560000000000002C103.44827586206897,20.560000000000002,104.48275862068965,23.480000000000004,105.51724137931033,24.48C106.55172413793103,25.480000000000008,107.58620689655172,26.559999999999995,108.62068965517241,26.559999999999995C109.65517241379311,26.559999999999995,110.6896551724138,26.546666666666663,111.72413793103449,26.520000000000003C112.75862068965517,26.493333333333343,113.79310344827587,24.2,114.82758620689656,24.2C115.86206896551724,24.2,116.89655172413794,27.52,117.93103448275862,28.799999999999997C118.96551724137932,30.080000000000002,120,31.879999999999995,121.0344827586207,31.879999999999995C122.06896551724138,31.879999999999995,123.10344827586208,23.360000000000003,124.13793103448276,23.360000000000003C125.17241379310344,23.360000000000003,126.20689655172414,25.079999999999995,127.24137931034483,25.4C128.27586206896552,25.720000000000002,129.3103448275862,25.606666666666673,130.3448275862069,25.880000000000003C131.3793103448276,26.153333333333336,132.41379310344828,27.04,133.44827586206898,27.04C134.48275862068965,27.04,135.51724137931035,25.880000000000003,136.55172413793102,25.880000000000003C137.58620689655172,25.880000000000003,138.6206896551724,26.30666666666667,139.6551724137931,27.160000000000004C140.6896551724138,28.01333333333333,141.72413793103448,31.28,142.75862068965517,31.28C143.79310344827587,31.28,144.82758620689654,31.26666666666667,145.86206896551724,31.240000000000002C146.89655172413794,31.213333333333335,147.9310344827586,21.506666666666657,148.9655172413793,20.28C150,19.05333333333333,151.0344827586207,18.439999999999998,152.0689655172414,18.439999999999998C153.10344827586206,18.439999999999998,154.13793103448276,20.36,155.17241379310343,20.36C156.20689655172413,20.36,157.24137931034483,16.12,158.27586206896552,16.12C159.31034482758622,16.12,160.3448275862069,19.5,161.3793103448276,21.28C162.41379310344828,23.060000000000002,163.44827586206895,26.799999999999997,164.48275862068965,26.799999999999997C165.51724137931035,26.799999999999997,166.55172413793102,10.09333333333333,167.58620689655172,9.64C168.6206896551724,9.186666666666666,169.6551724137931,8.959999999999999,170.6896551724138,8.959999999999999C171.7241379310345,8.959999999999999,172.75862068965517,12.440000000000001,173.79310344827587,12.440000000000001C174.82758620689657,12.440000000000001,175.86206896551724,10.2,176.89655172413794,10.2C177.93103448275863,10.2,178.9655172413793,10.3,180,10.4L180,40C178.9655172413793,40,177.93103448275863,40,176.89655172413794,40C175.86206896551724,40,174.82758620689657,40,173.79310344827587,40C172.75862068965517,40,171.7241379310345,40,170.6896551724138,40C169.6551724137931,40,168.6206896551724,40,167.58620689655172,40C166.55172413793102,40,165.51724137931035,40,164.48275862068965,40C163.44827586206895,40,162.41379310344828,40,161.3793103448276,40C160.3448275862069,40,159.31034482758622,40,158.27586206896552,40C157.24137931034483,40,156.20689655172413,40,155.17241379310343,40C154.13793103448276,40,153.10344827586206,40,152.0689655172414,40C151.0344827586207,40,150,40,148.9655172413793,40C147.9310344827586,40,146.89655172413794,40,145.86206896551724,40C144.82758620689654,40,143.79310344827587,40,142.75862068965517,40C141.72413793103448,40,140.6896551724138,40,139.6551724137931,40C138.6206896551724,40,137.58620689655172,40,136.55172413793102,40C135.51724137931035,40,134.48275862068965,40,133.44827586206898,40C132.41379310344828,40,131.3793103448276,40,130.3448275862069,40C129.3103448275862,40,128.27586206896552,40,127.24137931034483,40C126.20689655172414,40,125.17241379310344,40,124.13793103448276,40C123.10344827586208,40,122.06896551724138,40,121.0344827586207,40C120,40,118.96551724137932,40,117.93103448275862,40C116.89655172413794,40,115.86206896551724,40,114.82758620689656,40C113.79310344827587,40,112.75862068965517,40,111.72413793103449,40C110.6896551724138,40,109.65517241379311,40,108.62068965517241,40C107.58620689655172,40,106.55172413793103,40,105.51724137931033,40C104.48275862068965,40,103.44827586206897,40,102.41379310344828,40C101.37931034482759,40,100.3448275862069,40,99.3103448275862,40C98.27586206896551,40,97.24137931034483,40,96.20689655172413,40C95.17241379310344,40,94.13793103448276,40,93.10344827586208,40C92.06896551724138,40,91.0344827586207,40,90,40C88.96551724137932,40,87.93103448275862,40,86.89655172413794,40C85.86206896551724,40,84.82758620689656,40,83.79310344827586,40C82.75862068965517,40,81.72413793103448,40,80.6896551724138,40C79.6551724137931,40,78.62068965517241,40,77.58620689655172,40C76.55172413793103,40,75.51724137931033,40,74.48275862068965,40C73.44827586206897,40,72.41379310344827,40,71.37931034482759,40C70.34482758620689,40,69.3103448275862,40,68.27586206896551,40C67.24137931034483,40,66.20689655172413,40,65.17241379310344,40C64.13793103448276,40,63.10344827586207,40,62.06896551724138,40C61.03448275862069,40,60,40,58.96551724137931,40C57.93103448275862,40,56.896551724137936,40,55.862068965517246,40C54.827586206896555,40,53.79310344827586,40,52.75862068965517,40C51.72413793103448,40,50.689655172413794,40,49.6551724137931,40C48.62068965517241,40,47.58620689655173,40,46.55172413793104,40C45.51724137931035,40,44.48275862068966,40,43.44827586206897,40C42.41379310344828,40,41.37931034482759,40,40.3448275862069,40C39.310344827586206,40,38.275862068965516,40,37.241379310344826,40C36.206896551724135,40,35.172413793103445,40,34.137931034482754,40C33.103448275862064,40,32.06896551724138,40,31.03448275862069,40C30,40,28.965517241379313,40,27.931034482758623,40C26.896551724137932,40,25.862068965517242,40,24.82758620689655,40C23.79310344827586,40,22.758620689655174,40,21.724137931034484,40C20.689655172413794,40,19.655172413793103,40,18.620689655172413,40C17.586206896551722,40,16.551724137931036,40,15.517241379310345,40C14.482758620689655,40,13.448275862068966,40,12.413793103448276,40C11.379310344827585,40,10.344827586206897,40,9.310344827586206,40C8.275862068965516,40,7.241379310344827,40,6.206896551724138,40C5.172413793103448,40,4.137931034482759,40,3.103448275862069,40C2.068965517241379,40,1.0344827586206897,40,0,40Z"></path><path class="line" stroke="black" fill="none" d="M0,15.120000000000001C1.0344827586206897,13.86,2.068965517241379,12.599999999999998,3.103448275862069,12.599999999999998C4.137931034482759,12.599999999999998,5.172413793103448,14.56,6.206896551724138,15.64C7.241379310344827,16.72,8.275862068965516,18.02,9.310344827586206,19.08C10.344827586206897,20.139999999999997,11.379310344827585,22,12.413793103448276,22C13.448275862068966,22,14.482758620689655,16.686666666666667,15.517241379310345,14.879999999999999C16.551724137931036,13.073333333333332,17.586206896551722,11.16,18.620689655172413,11.16C19.655172413793103,11.16,20.689655172413794,15.893333333333334,21.724137931034484,16.400000000000002C22.758620689655174,16.90666666666667,23.79310344827586,16.653333333333336,24.82758620689655,17.160000000000004C25.862068965517242,17.66666666666667,26.896551724137932,22.240000000000002,27.931034482758623,22.240000000000002C28.965517241379313,22.240000000000002,30,21.559999999999995,31.03448275862069,21.559999999999995C32.06896551724138,21.559999999999995,33.103448275862064,26.080000000000002,34.137931034482754,26.080000000000002C35.172413793103445,26.080000000000002,36.206896551724135,12.200000000000003,37.241379310344826,12.200000000000003C38.275862068965516,12.200000000000003,39.310344827586206,17.240000000000002,40.3448275862069,17.240000000000002C41.37931034482759,17.240000000000002,42.41379310344828,16.080000000000002,43.44827586206897,16.080000000000002C44.48275862068966,16.080000000000002,45.51724137931035,20.226666666666667,46.55172413793104,20.68C47.58620689655173,21.133333333333333,48.62068965517241,20.906666666666666,49.6551724137931,21.36C50.689655172413794,21.813333333333333,51.72413793103448,23.32666666666667,52.75862068965517,24.48C53.79310344827586,25.633333333333336,54.827586206896555,28.28,55.862068965517246,28.28C56.896551724137936,28.28,57.93103448275862,20.77333333333333,58.96551724137931,20C60,19.226666666666667,61.03448275862069,18.84,62.06896551724138,18.84C63.10344827586207,18.84,64.13793103448276,28.24,65.17241379310344,28.24C66.20689655172413,28.24,67.24137931034483,18.68,68.27586206896551,18.68C69.3103448275862,18.68,70.34482758620689,19.406666666666666,71.37931034482759,20.12C72.41379310344827,20.833333333333336,73.44827586206897,21.473333333333336,74.48275862068965,22.96C75.51724137931033,24.446666666666665,76.55172413793103,29.04,77.58620689655172,29.04C78.62068965517241,29.04,79.6551724137931,19.28,80.6896551724138,19.28C81.72413793103448,19.28,82.75862068965517,20.460000000000004,83.79310344827586,21.240000000000002C84.82758620689656,22.020000000000003,85.86206896551724,23.96,86.89655172413794,23.96C87.93103448275862,23.96,88.96551724137932,20.92,90,20.92C91.0344827586207,20.92,92.06896551724138,23.919999999999995,93.10344827586208,25.04C94.13793103448276,26.159999999999993,95.17241379310344,26.580000000000005,96.20689655172413,27.64C97.24137931034483,28.700000000000003,98.27586206896551,31.400000000000002,99.3103448275862,31.400000000000002C100.3448275862069,31.400000000000002,101.37931034482759,20.560000000000002,102.41379310344828,20.560000000000002C103.44827586206897,20.560000000000002,104.48275862068965,23.480000000000004,105.51724137931033,24.48C106.55172413793103,25.480000000000008,107.58620689655172,26.559999999999995,108.62068965517241,26.559999999999995C109.65517241379311,26.559999999999995,110.6896551724138,26.546666666666663,111.72413793103449,26.520000000000003C112.75862068965517,26.493333333333343,113.79310344827587,24.2,114.82758620689656,24.2C115.86206896551724,24.2,116.89655172413794,27.52,117.93103448275862,28.799999999999997C118.96551724137932,30.080000000000002,120,31.879999999999995,121.0344827586207,31.879999999999995C122.06896551724138,31.879999999999995,123.10344827586208,23.360000000000003,124.13793103448276,23.360000000000003C125.17241379310344,23.360000000000003,126.20689655172414,25.079999999999995,127.24137931034483,25.4C128.27586206896552,25.720000000000002,129.3103448275862,25.606666666666673,130.3448275862069,25.880000000000003C131.3793103448276,26.153333333333336,132.41379310344828,27.04,133.44827586206898,27.04C134.48275862068965,27.04,135.51724137931035,25.880000000000003,136.55172413793102,25.880000000000003C137.58620689655172,25.880000000000003,138.6206896551724,26.30666666666667,139.6551724137931,27.160000000000004C140.6896551724138,28.01333333333333,141.72413793103448,31.28,142.75862068965517,31.28C143.79310344827587,31.28,144.82758620689654,31.26666666666667,145.86206896551724,31.240000000000002C146.89655172413794,31.213333333333335,147.9310344827586,21.506666666666657,148.9655172413793,20.28C150,19.05333333333333,151.0344827586207,18.439999999999998,152.0689655172414,18.439999999999998C153.10344827586206,18.439999999999998,154.13793103448276,20.36,155.17241379310343,20.36C156.20689655172413,20.36,157.24137931034483,16.12,158.27586206896552,16.12C159.31034482758622,16.12,160.3448275862069,19.5,161.3793103448276,21.28C162.41379310344828,23.060000000000002,163.44827586206895,26.799999999999997,164.48275862068965,26.799999999999997C165.51724137931035,26.799999999999997,166.55172413793102,10.09333333333333,167.58620689655172,9.64C168.6206896551724,9.186666666666666,169.6551724137931,8.959999999999999,170.6896551724138,8.959999999999999C171.7241379310345,8.959999999999999,172.75862068965517,12.440000000000001,173.79310344827587,12.440000000000001C174.82758620689657,12.440000000000001,175.86206896551724,10.2,176.89655172413794,10.2C177.93103448275863,10.2,178.9655172413793,10.3,180,10.4"></path><path class="axis-ceiling" stroke-width="1" stroke="black" fill="none" d="M175,0L180,0"></path><text class="axis-ceiling-label" font-family="sans-serif" text-anchor="end" font-size="10px" x="170" y="2.5">1000</text></g></svg>