<svg xmlns="http://www.w3.org/2000/svg" viewBox="0 0 180 60"><g transform="translate(0,20)"><path class="area" fill="rgba(0, 0, 0, 0.2)" d="M0,1.6000000000000014C1.0344827586206897,6.131428571428573,2.068965517241379,10.662857142857142,3.103448275862069,10.662857142857142C4.137931034482759,10.662857142857142,5.172413793103448,7.919999999999998,6.206896551724138,7.919999999999998C7.241379310344827,7.919999999999998,8.275862068965516,12.000000000000002,9.310344827586206,12.000000000000002C10.344827586206897,12.000000000000002,11.379310344827585,7.428571428571429,12.413793103448276,7.428571428571429C13.448275862068966,7.428571428571429,14.482758620689655,14.708571428571426,15.517241379310345,14.708571428571426C16.551724137931036,14.708571428571426,17.586206896551722,14.678095238095237,18.620689655172413,14.617142857142857C19.655172413793103,14.556190476190478,20.689655172413794,10.57142857142857,21.724137931034484,10.57142857142857C22.758620689655174,10.57142857142857,23.79310344827586,16.066666666666666,24.82758620689655,17.942857142857143C25.862068965517242,19.819047619047623,26.896551724137932,20.11047619047619,27.931034482758623,21.82857142857143C28.965517241379313,23.546666666666667,30,28.251428571428573,31.03448275862069,28.251428571428573C32.06896551724138,28.251428571428573,33.103448275862064,19.65714285714286,34.137931034482754,19.65714285714286C35.172413793103445,19.65714285714286,36.206896551724135,24.689523809523813,37.241379310344826,25.405714285714286C38.275862068965516,26.12190476190476,39.310344827586206,26.479999999999997,40.3448275862069,26.479999999999997C41.37931034482759,26.479999999999997,42.41379310344828,22.548571428571424,43.44827586206897,21.017142857142854C44.48275862068966,19.485714285714284,45.51724137931035,17.291428571428572,46.55172413793104,17.291428571428572C47.58620689655173,17.291428571428572,48.62068965517241,21.005714285714284,49.6551724137931,21.005714285714284C50.689655172413794,21.005714285714284,51.72413793103448,15.866666666666662,52.75862068965517,14.822857142857142C53.79310344827586,13.779047619047619,54.827586206896555,13.257142857142856,55.862068965517246,13.257142857142856C56.896551724137936,13.257142857142856,57.93103448275862,18.96,58.96551724137931,18.96C60,18.96,61.03448275862069,17.455238095238098,62.06896551724138,17.005714285714287C63.10344827586207,16.55619047619048,64.13793103448276,16.262857142857143,65.17241379310344,16.262857142857143C66.20689655172413,16.262857142857143,67.24137931034483,17.39619047619048,68.27586206896551,18.228571428571428C69.3103448275862,19.06095238095238,70.34482758620689,21.257142857142853,71.37931034482759,21.257142857142853C72.41379310344827,21.257142857142853,73.44827586206897,18.746666666666666,74.48275862068965,18.434285714285714C75.51724137931033,18.121904761904762,76.55172413793103,17.965714285714288,77.58620689655172,17.965714285714288C78.62068965517241,17.965714285714288,79.6551724137931,20.880000000000003,80.6896551724138,20.880000000000003C81.72413793103448,20.880000000000003,82.75862068965517,18.76571428571429,83.79310344827586,18.76571428571429C84.82758620689656,18.76571428571429,85.86206896551724,19.245714285714286,86.89655172413794,19.245714285714286C87.93103448275862,19.245714285714286,88.96551724137932,18.08,90,18.08C91.0344827586207,18.08,92.06896551724138,24.251428571428573,93.10344827586208,24.251428571428573C94.13793103448276,24.251428571428573,95.17241379310344,18.06857142857143,96.20689655172413,18.06857142857143C97.24137931034483,18.06857142857143,98.27586206896551,19.420952380952382,99.3103448275862,20.49142857142857C100.3448275862069,21.56190476190476,101.37931034482759,24.49142857142857,102.41379310344828,24.49142857142857C103.44827586206897,24.49142857142857,104.48275862068965,22.01142857142857,105.51724137931033,22.01142857142857C106.55172413793103,22.01142857142857,107.58620689655172,22.788571428571426,108.62068965517241,23.22285714285714C109.65517241379311,23.657142857142855,110.6896551724138,23.687619047619048,111.72413793103449,24.61714285714286C112.75862068965517,25.546666666666667,113.79310344827587,29.68,114.82758620689656,29.68C115.86206896551724,29.68,116.89655172413794,27.493333333333336,117.93103448275862,27.325714285714287C118.96551724137932,27.15809523809524,120,27.074285714285715,121.0344827586207,27.074285714285715C122.06896551724138,27.074285714285715,123.10344827586208,30.582857142857144,124.13793103448276,30.582857142857144C125.17241379310344,30.582857142857144,126.20689655172414,28.750476190476192,127.24137931034483,28.262857142857143C128.27586206896552,27.775238095238095,129.3103448275862,27.53142857142857,130.3448275862069,27.53142857142857C131.3793103448276,27.53142857142857,132.41379310344828,29.582857142857144,133.44827586206898,30.240000000000002C134.48275862068965,30.89714285714285,135.51724137931035,31.474285714285717,136.55172413793102,31.474285714285717C137.58620689655172,31.474285714285717,138.6206896551724,31.413333333333334,139.6551724137931,31.29142857142857C140.6896551724138,31.169523809523803,141.72413793103448,30.594285714285718,142.75862068965517,30.594285714285718C143.79310344827587,30.594285714285718,144.82758620689654,32.01142857142857,145.86206896551724,32.01142857142857C146.89655172413794,32.01142857142857,147.9310344827586,31.005714285714284,148.9655172413793,31.005714285714284C150,31.005714285714284,151.0344827586207,31.04380952380952,152.0689655172414,31.12C153.10344827586206,31.196190476190477,154.13793103448276,31.4552380952381,155.17241379310343,31.794285714285714C156.20689655172413,32.13333333333333,157.24137931034483,33.15428571428571,158.27586206896552,33.15428571428571C159.31034482758622,33.15428571428571,160.3448275862069,32.95238095238095,161.3793103448276,32.54857142857143C162.41379310344828,32.14476190476191,163.44827586206895,30.445714285714285,164.48275862068965,30.445714285714285C165.51724137931035,30.445714285714285,166.55172413793102,32.54857142857143,167.58620689655172,32.54857142857143C168.6206896551724,32.54857142857143,169.6551724137931,29.337142857142858,170.6896551724138,29.337142857142858C171.7241379310345,29.337142857142858,172.75862068965517,29.596190476190472,173.79310344827587,29.77142857142857C174.82758620689657,29.946666666666665,175.86206896551724,29.977142857142855,176.89655172413794,30.388571428571428C177.93103448275863,30.8,178.9655172413793,31.834285714285713,180,32.86857142857143L180,40C178.9655172413793,40,177.93103448275863,40,176.89655172413794,40C175.86206896551724,40,174.82758620689657,40,173.79310344827587,40C172.75862068965517,40,171.7241379310345,40,170.6896551724138,40C169.6551724137931,40,168.6206896551724,40,167.58620689655172,40C166.55172413793102,40,165.51724137931035,40,164.48275862068965,40C163.44827586206895,40,162.41379310344828,40,161.3793103448276,40C160.3448275862069,40,159.31034482758622,40,158.27586206896552,40C157.24137931034483,40,156.20689655172413,40,155.17241379310343,40C154.13793103448276,40,153.10344827586206,40,152.0689655172414,40C151.0344827586207,40,150,40,148.9655172413793,40C147.9310344827586,40,146.89655172413794,40,145.86206896551724,40C144.82758620689654,40,143.79310344827587,40,142.75862068965517,40C141.72413793103448,40,140.6896551724138,40,139.6551724137931,40C138.6206896551724,40,137.58620689655172,40,136.55172413793102,40C135.51724137931035,40,134.48275862068965,40,133.44827586206898,40C132.41379310344828,40,131.3793103448276,40,130.3448275862069,40C129.3103448275862,40,128.27586206896552,40,127.24137931034483,40C126.20689655172414,40,125.17241379310344,40,124.13793103448276,40C123.10344827586208,40,122.06896551724138,40,121.0344827586207,40C120,40,118.96551724137932,40,117.93103448275862,40C116.89655172413794,40,115.86206896551724,40,114.82758620689656,40C113.79310344827587,40,112.75862068965517,40,111.72413793103449,40C110.6896551724138,40,109.65517241379311,40,108.62068965517241,40C107.58620689655172,40,106.55172413793103,40,105.51724137931033,40C104.48275862068965,40,103.44827586206897,40,102.41379310344828,40C101.37931034482759,40,100.3448275862069,40,99.3103448275862,40C98.27586206896551,40,97.24137931034483,40,96.20689655172413,40C95.17241379310344,40,94.13793103448276,40,93.10344827586208,40C92.06896551724138,40,91.0344827586207,40,90,40C88.96551724137932,40,87.93103448275862,40,86.89655172413794,40C85.86206896551724,40,84.82758620689656,40,83.79310344827586,40C82.75862068965517,40,81.72413793103448,40,80.6896551724138,40C79.6551724137931,40,78.62068965517241,40,77.58620689655172,40C76.55172413793103,40,75.51724137931033,40,74.48275862068965,40C73.44827586206897,40,72.41379310344827,40,71.37931034482759,40C70.34482758620689,40,69.3103448275862,40,68.27586206896551,40C67.24137931034483,40,66.20689655172413,40,65.17241379310344,40C64.13793103448276,40,63.10344827586207,40,62.06896551724138,40C61.03448275862069,40,60,40,58.96551724137931,40C57.93103448275862,40,56.896551724137936,40,55.862068965517246,40C54.827586206896555,40,53.79310344827586,40,52.75862068965517,40C51.72413793103448,40,50.689655172413794,40,49.6551724137931,40C48.62068965517241,40,47.58620689655173,40,46.55172413793104,40C45.51724137931035,40,44.48275862068966,40,43.44827586206897,40C42.41379310344828,40,41.37931034482759,40,40.3448275862069,40C39.310344827586206,40,38.275862068965516,40,37.241379310344826,40C36.206896551724135,40,35.172413793103445,40,34.137931034482754,40C33.103448275862064,40,32.06896551724138,40,31.03448275862069,40C30,40,28.965517241379313,40,27.931034482758623,40C26.896551724137932,40,25.862068965517242,40,24.82758620689655,40C23.79310344827586,40,22.758620689655174,40,21.724137931034484,40C20.689655172413794,40,19.655172413793103,40,18.620689655172413,40C17.586206896551722,40,16.551724137931036,40,15.517241379310345,40C14.482758620689655,40,13.448275862068966,40,12.413793103448276,40C11.379310344827585,40,10.344827586206897,40,9.310344827586206,40C8.275862068965516,40,7.241379310344827,40,6.206896551724138,40C5.172413793103448,40,4.137931034482759,40,3.103448275862069,40C2.068965517241379,40,1.0344827586206897,40,0,40Z"></path><path class="line" stroke="black" fill="none" d="M0,1.6000000000000014C1.0344827586206897,6.131428571428573,2.068965517241379,10.662857142857142,3.103448275862069,10.662857142857142C4.137931034482759,10.662857142857142,5.172413793103448,7.919999999999998,6.206896551724138,7.919999999999998C7.241379310344827,7.919999999999998,8.275862068965516,12.000000000000002,9.310344827586206,12.000000000000002C10.344827586206897,12.000000000000002,11.379310344827585,7.428571428571429,12.413793103448276,7.428571428571429C13.448275862068966,7.428571428571429,14.482758620689655,14.708571428571426,15.517241379310345,14.708571428571426C16.551724137931036,14.708571428571426,17.586206896551722,14.678095238095237,18.620689655172413,14.617142857142857C19.655172413793103,14.556190476190478,20.689655172413794,10.57142857142857,21.724137931034484,10.57142857142857C22.758620689655174,10.57142857142857,23.79310344827586,16.066666666666666,24.82758620689655,17.942857142857143C25.862068965517242,19.819047619047623,26.896551724137932,20.11047619047619,27.931034482758623,21.82857142857143C28.965517241379313,23.546666666666667,30,28.251428571428573,31.03448275862069,28.251428571428573C32.06896551724138,28.251428571428573,33.103448275862064,19.65714285714286,34.137931034482754,19.65714285714286C35.172413793103445,19.65714285714286,36.206896551724135,24.689523809523813,37.241379310344826,25.405714285714286C38.275862068965516,26.12190476190476,39.310344827586206,26.479999999999997,40.3448275862069,26.479999999999997C41.37931034482759,26.479999999999997,42.41379310344828,22.548571428571424,43.44827586206897,21.017142857142854C44.48275862068966,19.485714285714284,45.51724137931035,17.291428571428572,46.55172413793104,17.291428571428572C47.58620689655173,17.291428571428572,48.62068965517241,21.005714285714284,49.6551724137931,21.005714285714284C50.689655172413794,21.005714285714284,51.72413793103448,15.866666666666662,52.75862068965517,14.822857142857142C53.79310344827586,13.779047619047619,54.827586206896555,13.257142857142856,55.862068965517246,13.257142857142856C56.896551724137936,13.257142857142856,57.93103448275862,18.96,58.96551724137931,18.96C60,18.96,61.03448275862069,17.455238095238098,62.06896551724138,17.005714285714287C63.10344827586207,16.55619047619048,64.13793103448276,16.262857142857143,65.17241379310344,16.262857142857143C66.20689655172413,16.262857142857143,67.24137931034483,17.39619047619048,68.27586206896551,18.228571428571428C69.3103448275862,19.06095238095238,70.34482758620689,21.257142857142853,71.37931034482759,21.257142857142853C72.41379310344827,21.257142857142853,73.44827586206897,18.746666666666666,74.48275862068965,18.434285714285714C75.51724137931033,18.121904761904762,76.55172413793103,17.965714285714288,77.58620689655172,17.965714285714288C78.62068965517241,17.965714285714288,79.6551724137931,20.880000000000003,80.6896551724138,20.880000000000003C81.72413793103448,20.880000000000003,82.75862068965517,18.76571428571429,83.79310344827586,18.76571428571429C84.82758620689656,18.76571428571429,85.86206896551724,19.245714285714286,86.89655172413794,19.245714285714286C87.93103448275862,19.245714285714286,88.96551724137932,18.08,90,18.08C91.0344827586207,18.08,92.06896551724138,24.251428571428573,93.10344827586208,24.251428571428573C94.13793103448276,24.251428571428573,95.17241379310344,18.06857142857143,96.20689655172413,18.06857142857143C97.24137931034483,18.06857142857143,98.27586206896551,19.420952380952382,99.3103448275862,20.49142857142857C100.3448275862069,21.56190476190476,101.37931034482759,24.49142857142857,102.41379310344828,24.49142857142857C103.44827586206897,24.49142857142857,104.48275862068965,22.01142857142857,105.51724137931033,22.01142857142857C106.55172413793103,22.01142857142857,107.58620689655172,22.788571428571426,108.62068965517241,23.22285714285714C109.65517241379311,23.657142857142855,110.6896551724138,23.687619047619048,111.72413793103449,24.61714285714286C112.75862068965517,25.546666666666667,113.79310344827587,29.68,114.82758620689656,29.68C115.86206896551724,29.68,116.89655172413794,27.493333333333336,117.93103448275862,27.325714285714287C118.96551724137932,27.15809523809524,120,27.074285714285715,121.0344827586207,27.074285714285715C122.06896551724138,27.074285714285715,123.10344827586208,30.582857142857144,124.13793103448276,30.582857142857144C125.17241379310344,30.582857142857144,126.20689655172414,28.750476190476192,127.24137931034483,28.262857142857143C128.27586206896552,27.775238095238095,129.3103448275862,27.53142857142857,130.3448275862069,27.53142857142857C131.3793103448276,27.53142857142857,132.41379310344828,29.582857142857144,133.44827586206898,30.240000000000002C134.48275862068965,30.89714285714285,135.51724137931035,31.474285714285717,136.55172413793102,31.474285714285717C137.58620689655172,31.474285714285717,138.6206896551724,31.413333333333334,139.6551724137931,31.29142857142857C140.6896551724138,31.169523809523803,141.72413793103448,30.594285714285718,142.75862068965517,30.594285714285718C143.79310344827587,30.594285714285718,144.82758620689654,32.01142857142857,145.86206896551724,32.01142857142857C146.89655172413794,32.01142857142857,147.9310344827586,31.005714285714284,148.9655172413793,31.005714285714284C150,31.005714285714284,151.0344827586207,31.04380952380952,152.0689655172414,31.12C153.10344827586206,31.196190476190477,154.13793103448276,31.4552380952381,155.17241379310343,31.794285714285714C156.20689655172413,32.13333333333333,157.24137931034483,33.15428571428571,158.27586206896552,33.15428571428571C159.31034482758622,33.15428571428571,160.3448275862069,32.95238095238095,161.3793103448276,32.54857142857143C162.41379310344828,32.14476190476191,163.44827586206895,30.445714285714285,164.48275862068965,30.445714285714285C165.51724137931035,30.445714285714285,166.55172413793102,32.54857142857143,167.58620689655172,32.54857142857143C168.6206896551724,32.54857142857143,169.6551724137931,29.337142857142858,170.6896551724138,29.337142857142858C171.7241379310345,29.337142857142858,172.75862068965517,29.596190476190472,173.79310344827587,29.77142857142857C174.82758620689657,29.946666666666665,175.86206896551724,29.977142857142855,176.89655172413794,30.388571428571428C177.93103448275863,30.8,178.9655172413793,31.834285714285713,180,32.86857142857143"></path><path class="axis-ceiling" stroke-width="1" stroke="black" fill="none" d="M175,0L180,0"></path><text class="axis-ceiling-label" font-family="sans-serif" text-anchor="end" font-size="10px" x="170" y="2.5">3500</text></g></svg>