<svg xmlns="http://www.w3.org/2000/svg" viewBox="0 0 180 60"><g transform="translate(0,20)"><path class="area" fill="rgba(0, 0, 0, 0.2)" d="M0,27.36C1.0169491525423728,26.4,2.0338983050847457,25.44,3.0508474576271185,25.44C4.067796610169491,25.44,5.084745762711864,27.62666666666667,6.101694915254237,29.6C7.11864406779661,31.573333333333334,8.135593220338983,37.28,9.152542372881356,37.28C10.169491525423728,37.28,11.186440677966102,32.21333333333334,12.203389830508474,30.560000000000002C13.220338983050846,28.90666666666667,14.23728813559322,27.36,15.254237288135592,27.36C16.271186440677965,27.36,17.28813559322034,27.36,18.305084745762713,27.36C19.322033898305087,27.36,20.338983050847457,28.906666666666663,21.35593220338983,29.439999999999998C22.372881355932204,29.973333333333333,23.389830508474574,29.813333333333333,24.406779661016948,30.560000000000002C25.423728813559322,31.306666666666672,26.440677966101696,32.8,27.45762711864407,34.08C28.47457627118644,35.35999999999999,29.491525423728813,38.239999999999995,30.508474576271183,38.239999999999995C31.525423728813557,38.239999999999995,32.54237288135593,29.6,33.559322033898304,29.6C34.57627118644068,29.6,35.59322033898305,31.36,36.610169491525426,31.36C37.6271186440678,31.36,38.644067796610166,30.213333333333335,39.66101694915254,29.6C40.67796610169491,28.986666666666668,41.69491525423729,27.68,42.71186440677966,27.68C43.728813559322035,27.68,44.7457627118644,28.85333333333334,45.762711864406775,29.92C46.77966101694915,30.986666666666668,47.79661016949152,33.22666666666667,48.813559322033896,34.08C49.83050847457627,34.93333333333333,50.847457627118644,35.36,51.86440677966102,35.36C52.88135593220339,35.36,53.898305084745765,32.93333333333334,54.91525423728814,31.36C55.93220338983051,29.78666666666667,56.94915254237288,25.92,57.96610169491525,25.92C58.983050847457626,25.92,59.99999999999999,27.36,61.01694915254237,27.36C62.03389830508474,27.36,63.05084745762712,26.4,64.0677966101695,26.4C65.08474576271186,26.4,66.10169491525424,31.89333333333333,67.11864406779661,32C68.13559322033899,32.10666666666667,69.15254237288136,32.053333333333335,70.16949152542374,32.160000000000004C71.1864406779661,32.26666666666667,72.20338983050848,36.32,73.22033898305085,36.32C74.23728813559322,36.32,75.2542372881356,34.21333333333334,76.27118644067797,32.480000000000004C77.28813559322033,30.74666666666667,78.30508474576271,25.92,79.32203389830508,25.92C80.33898305084746,25.92,81.35593220338983,31.200000000000003,82.37288135593221,31.200000000000003C83.38983050847457,31.200000000000003,84.40677966101696,25.44,85.42372881355932,25.44C86.4406779661017,25.44,87.45762711864407,29.97333333333333,88.47457627118645,30.08C89.49152542372882,30.186666666666667,90.50847457627118,30.133333333333333,91.52542372881355,30.240000000000002C92.54237288135593,30.34666666666667,93.55932203389831,36.480000000000004,94.57627118644069,36.480000000000004C95.59322033898306,36.480000000000004,96.61016949152543,29.759999999999998,97.62711864406779,29.759999999999998C98.64406779661016,29.759999999999998,99.66101694915254,29.759999999999998,100.6779661016949,29.759999999999998C101.69491525423729,29.759999999999998,102.71186440677965,28.64,103.72881355932203,28.64C104.7457627118644,28.64,105.76271186440678,30.4,106.77966101694915,30.4C107.79661016949153,30.4,108.8135593220339,29.70666666666667,109.83050847457628,29.6C110.84745762711864,29.493333333333332,111.86440677966102,29.439999999999998,112.88135593220339,29.439999999999998C113.89830508474576,29.439999999999998,114.91525423728814,36.480000000000004,115.9322033898305,36.480000000000004C116.94915254237289,36.480000000000004,117.96610169491525,28.96,118.98305084745763,28.96C120,28.96,121.01694915254237,32.96,122.03389830508473,32.96C123.05084745762711,32.96,124.0677966101695,22.560000000000002,125.08474576271188,22.560000000000002C126.10169491525424,22.560000000000002,127.11864406779662,23.360000000000003,128.135593220339,23.360000000000003C129.15254237288136,23.360000000000003,130.16949152542372,18.08,131.1864406779661,18.08C132.20338983050846,18.08,133.22033898305085,24.666666666666664,134.23728813559322,27.36C135.25423728813558,30.053333333333335,136.27118644067798,34.24,137.28813559322035,34.24C138.3050847457627,34.24,139.3220338983051,26.66666666666667,140.33898305084747,24.16C141.35593220338984,21.653333333333354,142.3728813559322,20.479999999999997,143.38983050847457,19.2C144.40677966101694,17.91999999999999,145.42372881355934,16.48,146.4406779661017,16.48C147.45762711864407,16.48,148.47457627118644,16.64,149.4915254237288,16.64C150.50847457627117,16.64,151.52542372881356,16.48,152.54237288135593,16.48C153.5593220338983,16.48,154.5762711864407,19.46666666666665,155.59322033898306,21.76C156.61016949152543,24.05333333333333,157.6271186440678,30.240000000000002,158.64406779661016,30.240000000000002C159.66101694915253,30.240000000000002,160.67796610169492,23.12,161.6949152542373,18.72C162.71186440677965,14.319999999999997,163.72881355932205,3.839999999999999,164.74576271186442,3.839999999999999C165.76271186440678,3.839999999999999,166.77966101694915,7.200000000000002,167.79661016949152,7.200000000000002C168.81355932203388,7.200000000000002,169.83050847457628,6.7200000000000015,170.84745762711864,6.7200000000000015C171.864406779661,6.7200000000000015,172.8813559322034,7.92,173.89830508474577,9.12C174.91525423728814,10.319999999999999,175.93220338983053,10.719999999999999,176.9491525423729,13.919999999999998C177.96610169491527,17.11999999999997,178.98305084745763,22.95999999999998,180,28.799999999999997L180,40C178.98305084745763,40,177.96610169491527,40,176.9491525423729,40C175.93220338983053,40,174.91525423728814,40,173.89830508474577,40C172.8813559322034,40,171.864406779661,40,170.84745762711864,40C169.83050847457628,40,168.81355932203388,40,167.79661016949152,40C166.77966101694915,40,165.76271186440678,40,164.74576271186442,40C163.72881355932205,40,162.71186440677965,40,161.6949152542373,40C160.67796610169492,40,159.66101694915253,40,158.64406779661016,40C157.6271186440678,40,156.61016949152543,40,155.59322033898306,40C154.5762711864407,40,153.5593220338983,40,152.54237288135593,40C151.52542372881356,40,150.50847457627117,40,149.4915254237288,40C148.47457627118644,40,147.45762711864407,40,146.4406779661017,40C145.42372881355934,40,144.40677966101694,40,143.38983050847457,40C142.3728813559322,40,141.35593220338984,40,140.33898305084747,40C139.3220338983051,40,138.3050847457627,40,137.28813559322035,40C136.27118644067798,40,135.25423728813558,40,134.23728813559322,40C133.22033898305085,40,132.20338983050846,40,131.1864406779661,40C130.16949152542372,40,129.15254237288136,40,128.135593220339,40C127.11864406779662,40,126.10169491525424,40,125.08474576271188,40C124.0677966101695,40,123.05084745762711,40,122.03389830508473,40C121.01694915254237,40,120,40,118.98305084745763,40C117.96610169491525,40,116.94915254237289,40,115.9322033898305,40C114.91525423728814,40,113.89830508474576,40,112.88135593220339,40C111.86440677966102,40,110.84745762711864,40,109.83050847457628,40C108.8135593220339,40,107.79661016949153,40,106.77966101694915,40C105.76271186440678,40,104.7457627118644,40,103.72881355932203,40C102.71186440677965,40,101.69491525423729,40,100.6779661016949,40C99.66101694915254,40,98.64406779661016,40,97.62711864406779,40C96.61016949152543,40,95.59322033898306,40,94.57627118644069,40C93.55932203389831,40,92.54237288135593,40,91.52542372881355,40C90.50847457627118,40,89.49152542372882,40,88.47457627118645,40C87.45762711864407,40,86.4406779661017,40,85.42372881355932,40C84.40677966101696,40,83.38983050847457,40,82.37288135593221,40C81.35593220338983,40,80.33898305084746,40,79.32203389830508,40C78.30508474576271,40,77.28813559322033,40,76.27118644067797,40C75.2542372881356,40,74.23728813559322,40,73.22033898305085,40C72.20338983050848,40,71.1864406779661,40,70.16949152542374,40C69.15254237288136,40,68.13559322033899,40,67.11864406779661,40C66.10169491525424,40,65.08474576271186,40,64.0677966101695,40C63.05084745762712,40,62.03389830508474,40,61.01694915254237,40C59.99999999999999,40,58.983050847457626,40,57.96610169491525,40C56.94915254237288,40,55.93220338983051,40,54.91525423728814,40C53.898305084745765,40,52.88135593220339,40,51.86440677966102,40C50.847457627118644,40,49.83050847457627,40,48.813559322033896,40C47.79661016949152,40,46.77966101694915,40,45.762711864406775,40C44.7457627118644,40,43.728813559322035,40,42.71186440677966,40C41.69491525423729,40,40.67796610169491,40,39.66101694915254,40C38.644067796610166,40,37.6271186440678,40,36.610169491525426,40C35.59322033898305,40,34.57627118644068,40,33.559322033898304,40C32.54237288135593,40,31.525423728813557,40,30.508474576271183,40C29.491525423728813,40,28.47457627118644,40,27.45762711864407,40C26.440677966101696,40,25.423728813559322,40,24.406779661016948,40C23.389830508474574,40,22.372881355932204,40,21.35593220338983,40C20.338983050847457,40,19.322033898305087,40,18.305084745762713,40C17.28813559322034,40,16.271186440677965,40,15.254237288135592,40C14.23728813559322,40,13.220338983050846,40,12.203389830508474,40C11.186440677966102,40,10.169491525423728,40,9.152542372881356,40C8.135593220338983,40,7.11864406779661,40,6.101694915254237,40C5.084745762711864,40,4.067796610169491,40,3.0508474576271185,40C2.0338983050847457,40,1.0169491525423728,40,0,40Z"></path><path class="line" stroke="black" fill="none" d="M0,27.36C1.0169491525423728,26.4,2.0338983050847457,25.44,3.0508474576271185,25.44C4.067796610169491,25.44,5.084745762711864,27.62666666666667,6.101694915254237,29.6C7.11864406779661,31.573333333333334,8.135593220338983,37.28,9.152542372881356,37.28C10.169491525423728,37.28,11.186440677966102,32.21333333333334,12.203389830508474,30.560000000000002C13.220338983050846,28.90666666666667,14.23728813559322,27.36,15.254237288135592,27.36C16.271186440677965,27.36,17.28813559322034,27.36,18.305084745762713,27.36C19.322033898305087,27.36,20.338983050847457,28.906666666666663,21.35593220338983,29.439999999999998C22.372881355932204,29.973333333333333,23.389830508474574,29.813333333333333,24.406779661016948,30.560000000000002C25.423728813559322,31.306666666666672,26.440677966101696,32.8,27.45762711864407,34.08C28.47457627118644,35.35999999999999,29.491525423728813,38.239999999999995,30.508474576271183,38.239999999999995C31.525423728813557,38.239999999999995,32.54237288135593,29.6,33.559322033898304,29.6C34.57627118644068,29.6,35.59322033898305,31.36,36.610169491525426,31.36C37.6271186440678,31.36,38.644067796610166,30.213333333333335,39.66101694915254,29.6C40.67796610169491,28.986666666666668,41.69491525423729,27.68,42.71186440677966,27.68C43.728813559322035,27.68,44.7457627118644,28.85333333333334,45.762711864406775,29.92C46.77966101694915,30.986666666666668,47.79661016949152,33.22666666666667,48.813559322033896,34.08C49.83050847457627,34.93333333333333,50.847457627118644,35.36,51.86440677966102,35.36C52.88135593220339,35.36,53.898305084745765,32.93333333333334,54.91525423728814,31.36C55.93220338983051,29.78666666666667,56.94915254237288,25.92,57.96610169491525,25.92C58.983050847457626,25.92,59.99999999999999,27.36,61.01694915254237,27.36C62.03389830508474,27.36,63.05084745762712,26.4,64.0677966101695,26.4C65.08474576271186,26.4,66.10169491525424,31.89333333333333,67.11864406779661,32C68.13559322033899,32.10666666666667,69.15254237288136,32.053333333333335,70.16949152542374,32.160000000000004C71.1864406779661,32.26666666666667,72.20338983050848,36.32,73.22033898305085,36.32C74.23728813559322,36.32,75.2542372881356,34.21333333333334,76.27118644067797,32.480000000000004C77.28813559322033,30.74666666666667,78.30508474576271,25.92,79.32203389830508,25.92C80.33898305084746,25.92,81.35593220338983,31.200000000000003,82.37288135593221,31.200000000000003C83.38983050847457,31.200000000000003,84.40677966101696,25.44,85.42372881355932,25.44C86.4406779661017,25.44,87.45762711864407,29.97333333333333,88.47457627118645,30.08C89.49152542372882,30.186666666666667,90.50847457627118,30.133333333333333,91.52542372881355,30.240000000000002C92.54237288135593,30.34666666666667,93.55932203389831,36.480000000000004,94.57627118644069,36.480000000000004C95.59322033898306,36.480000000000004,96.61016949152543,29.759999999999998,97.62711864406779,29.759999999999998C98.64406779661016,29.759999999999998,99.66101694915254,29.759999999999998,100.6779661016949,29.759999999999998C101.69491525423729,29.759999999999998,102.71186440677965,28.64,103.72881355932203,28.64C104.7457627118644,28.64,105.76271186440678,30.4,106.77966101694915,30.4C107.79661016949153,30.4,108.8135593220339,29.70666666666667,109.83050847457628,29.6C110.84745762711864,29.493333333333332,111.86440677966102,29.439999999999998,112.88135593220339,29.439999999999998C113.89830508474576,29.439999999999998,114.91525423728814,36.480000000000004,115.9322033898305,36.480000000000004C116.94915254237289,36.480000000000004,117.96610169491525,28.96,118.98305084745763,28.96C120,28.96,121.01694915254237,32.96,122.03389830508473,32.96C123.05084745762711,32.96,124.0677966101695,22.560000000000002,125.08474576271188,22.560000000000002C126.10169491525424,22.560000000000002,127.11864406779662,23.360000000000003,128.135593220339,23.360000000000003C129.15254237288136,23.360000000000003,130.16949152542372,18.08,131.1864406779661,18.08C132.20338983050846,18.08,133.22033898305085,24.666666666666664,134.23728813559322,27.36C135.25423728813558,30.053333333333335,136.27118644067798,34.24,137.28813559322035,34.24C138.3050847457627,34.24,139.3220338983051,26.66666666666667,140.33898305084747,24.16C141.35593220338984,21.653333333333354,142.3728813559322,20.479999999999997,143.38983050847457,19.2C144.40677966101694,17.91999999999999,145.42372881355934,16.48,146.4406779661017,16.48C147.45762711864407,16.48,148.47457627118644,16.64,149.4915254237288,16.64C150.50847457627117,16.64,151.52542372881356,16.48,152.54237288135593,16.48C153.5593220338983,16.48,154.5762711864407,19.46666666666665,155.59322033898306,21.76C156.61016949152543,24.05333333333333,157.6271186440678,30.240000000000002,158.64406779661016,30.240000000000002C159.66101694915253,30.240000000000002,160.67796610169492,23.12,161.6949152542373,18.72C162.71186440677965,14.319999999999997,163.72881355932205,3.839999999999999,164.74576271186442,3.839999999999999C165.76271186440678,3.839999999999999,166.77966101694915,7.200000000000002,167.79661016949152,7.200000000000002C168.81355932203388,7.200000000000002,169.83050847457628,6.7200000000000015,170.84745762711864,6.7200000000000015C171.864406779661,6.7200000000000015,172.8813559322034,7.92,173.89830508474577,9.12C174.91525423728814,10.319999999999999,175.93220338983053,10.719999999999999,176.9491525423729,13.919999999999998C177.96610169491527,17.11999999999997,178.98305084745763,22.95999999999998,180,28.799999999999997"></path><path class="axis-ceiling" stroke-width="1" stroke="black" fill="none" d="M175,0L180,0"></path><text class="axis-ceiling-label" font-family="sans-serif" text-anchor="end" font-size="10px" x="170" y="2.5">250</text></g></svg>