<svg xmlns="http://www.w3.org/2000/svg" viewBox="0 0 180 60"><g transform="translate(0,20)"><path class="area" fill="rgba(0, 0, 0, 0.2)" d="M0,31.68C1.0169491525423728,31.85,2.0338983050847457,32.02,3.0508474576271185,32.32C4.067796610169491,32.62,5.084745762711864,32.70666666666666,6.101694915254237,33.48C7.11864406779661,34.25333333333333,8.135593220338983,37.11999999999999,9.152542372881356,37.199999999999996C10.169491525423728,37.28,11.186440677966102,37.32,12.203389830508474,37.32C13.220338983050846,37.32,14.23728813559322,34.806666666666665,15.254237288135592,33.56C16.271186440677965,32.31333333333333,17.28813559322034,29.84,18.305084745762713,29.84C19.322033898305087,29.84,20.338983050847457,31.133333333333336,21.35593220338983,31.240000000000002C22.372881355932204,31.346666666666668,23.389830508474574,31.293333333333337,24.406779661016948,31.400000000000002C25.423728813559322,31.506666666666668,26.440677966101696,33.086666666666666,27.45762711864407,33.96C28.47457627118644,34.833333333333336,29.491525423728813,36.64,30.508474576271183,36.64C31.525423728813557,36.64,32.54237288135593,34.54666666666667,33.559322033898304,33.68C34.57627118644068,32.81333333333333,35.59322033898305,31.44,36.610169491525426,31.44C37.6271186440678,31.44,38.644067796610166,31.906666666666666,39.66101694915254,32.08C40.67796610169491,32.25333333333333,41.69491525423729,32.480000000000004,42.71186440677966,32.480000000000004C43.728813559322035,32.480000000000004,44.7457627118644,32.32,45.762711864406775,32.32C46.77966101694915,32.32,47.79661016949152,33.79333333333334,48.813559322033896,34.64C49.83050847457627,35.486666666666665,50.847457627118644,37.400000000000006,51.86440677966102,37.400000000000006C52.88135593220339,37.400000000000006,53.898305084745765,35.120000000000005,54.91525423728814,33.92C55.93220338983051,32.72,56.94915254237288,30.2,57.96610169491525,30.2C58.983050847457626,30.2,59.99999999999999,31.44,61.01694915254237,31.44C62.03389830508474,31.44,63.05084745762712,28.6,64.0677966101695,28.6C65.08474576271186,28.6,66.10169491525424,31.080000000000002,67.11864406779661,31.080000000000002C68.13559322033899,31.080000000000002,69.15254237288136,30.76,70.16949152542374,30.76C71.1864406779661,30.76,72.20338983050848,35.16,73.22033898305085,35.16C74.23728813559322,35.16,75.2542372881356,32.06666666666666,76.27118644067797,30.96C77.28813559322033,29.853333333333335,78.30508474576271,29.14,79.32203389830508,28.520000000000003C80.33898305084746,27.900000000000002,81.35593220338983,27.240000000000002,82.37288135593221,27.240000000000002C83.38983050847457,27.240000000000002,84.40677966101696,28.200000000000003,85.42372881355932,28.200000000000003C86.4406779661017,28.200000000000003,87.45762711864407,27.400000000000002,88.47457627118645,27.400000000000002C89.49152542372882,27.400000000000002,90.50847457627118,29.593333333333337,91.52542372881355,30.44C92.54237288135593,31.286666666666676,93.55932203389831,32.480000000000004,94.57627118644069,32.480000000000004C95.59322033898306,32.480000000000004,96.61016949152543,26.080000000000002,97.62711864406779,26.080000000000002C98.64406779661016,26.080000000000002,99.66101694915254,26.16,100.6779661016949,26.16C101.69491525423729,26.16,102.71186440677965,20.2,103.72881355932203,20.2C104.7457627118644,20.2,105.76271186440678,21.36,106.77966101694915,21.36C107.79661016949153,21.36,108.8135593220339,20.8,109.83050847457628,20.8C110.84745762711864,20.8,111.86440677966102,26.040000000000003,112.88135593220339,26.28C113.89830508474576,26.52,114.91525423728814,26.639999999999997,115.9322033898305,26.639999999999997C116.94915254237289,26.639999999999997,117.96610169491525,24.85333333333333,118.98305084745763,24.2C120,23.54666666666667,121.01694915254237,23.706666666666667,122.03389830508473,22.720000000000002C123.05084745762711,21.733333333333324,124.0677966101695,16.48,125.08474576271188,16.48C126.10169491525424,16.48,127.11864406779662,19.826666666666668,128.135593220339,21.200000000000003C129.15254237288136,22.57333333333333,130.16949152542372,24.26666666666667,131.1864406779661,24.72C132.20338983050846,25.173333333333332,133.22033898305085,25.4,134.23728813559322,25.4C135.25423728813558,25.4,136.27118644067798,24.773333333333333,137.28813559322035,23.520000000000003C138.3050847457627,22.266666666666673,139.3220338983051,15.120000000000001,140.33898305084747,15.120000000000001C141.35593220338984,15.120000000000001,142.3728813559322,16.36,143.38983050847457,16.36C144.40677966101694,16.36,145.42372881355934,14.486666666666677,146.4406779661017,12.839999999999998C147.45762711864407,11.193333333333335,148.47457627118644,8.613333333333324,149.4915254237288,6.480000000000001C150.50847457627117,4.346666666666659,151.52542372881356,0.040000000000000036,152.54237288135593,0.040000000000000036C153.5593220338983,0.040000000000000036,154.5762711864407,9.933333333333323,155.59322033898306,10.84C156.61016949152543,11.746666666666668,157.6271186440678,12.200000000000003,158.64406779661016,12.200000000000003C159.66101694915253,12.200000000000003,160.67796610169492,3.759999999999999,161.6949152542373,3.759999999999999C162.71186440677965,3.759999999999999,163.72881355932205,9.32,164.74576271186442,9.32C165.76271186440678,9.32,166.77966101694915,0.6000000000000005,167.79661016949152,0.6000000000000005C168.81355932203388,0.6000000000000005,169.83050847457628,4.086666666666666,170.84745762711864,5.12C171.864406779661,6.153333333333334,172.8813559322034,6.286666666666668,173.89830508474577,6.800000000000002C174.91525423728814,7.313333333333335,175.93220338983053,7.2666666666666675,176.9491525423729,8.2C177.96610169491527,9.133333333333322,178.98305084745763,16.266666666666662,180,23.4L180,40C178.98305084745763,40,177.96610169491527,40,176.9491525423729,40C175.93220338983053,40,174.91525423728814,40,173.89830508474577,40C172.8813559322034,40,171.864406779661,40,170.84745762711864,40C169.83050847457628,40,168.81355932203388,40,167.79661016949152,40C166.77966101694915,40,165.76271186440678,40,164.74576271186442,40C163.72881355932205,40,162.71186440677965,40,161.6949152542373,40C160.67796610169492,40,159.66101694915253,40,158.64406779661016,40C157.6271186440678,40,156.61016949152543,40,155.59322033898306,40C154.5762711864407,40,153.5593220338983,40,152.54237288135593,40C151.52542372881356,40,150.50847457627117,40,149.4915254237288,40C148.47457627118644,40,147.45762711864407,40,146.4406779661017,40C145.42372881355934,40,144.40677966101694,40,143.38983050847457,40C142.3728813559322,40,141.35593220338984,40,140.33898305084747,40C139.3220338983051,40,138.3050847457627,40,137.28813559322035,40C136.27118644067798,40,135.25423728813558,40,134.23728813559322,40C133.22033898305085,40,132.20338983050846,40,131.1864406779661,40C130.16949152542372,40,129.15254237288136,40,128.135593220339,40C127.11864406779662,40,126.10169491525424,40,125.08474576271188,40C124.0677966101695,40,123.05084745762711,40,122.03389830508473,40C121.01694915254237,40,120,40,118.98305084745763,40C117.96610169491525,40,116.94915254237289,40,115.9322033898305,40C114.91525423728814,40,113.89830508474576,40,112.88135593220339,40C111.86440677966102,40,110.84745762711864,40,109.83050847457628,40C108.8135593220339,40,107.79661016949153,40,106.77966101694915,40C105.76271186440678,40,104.7457627118644,40,103.72881355932203,40C102.71186440677965,40,101.69491525423729,40,100.6779661016949,40C99.66101694915254,40,98.64406779661016,40,97.62711864406779,40C96.61016949152543,40,95.59322033898306,40,94.57627118644069,40C93.55932203389831,40,92.54237288135593,40,91.52542372881355,40C90.50847457627118,40,89.49152542372882,40,88.47457627118645,40C87.45762711864407,40,86.4406779661017,40,85.42372881355932,40C84.40677966101696,40,83.38983050847457,40,82.37288135593221,40C81.35593220338983,40,80.33898305084746,40,79.32203389830508,40C78.30508474576271,40,77.28813559322033,40,76.27118644067797,40C75.2542372881356,40,74.23728813559322,40,73.22033898305085,40C72.20338983050848,40,71.1864406779661,40,70.16949152542374,40C69.15254237288136,40,68.13559322033899,40,67.11864406779661,40C66.10169491525424,40,65.08474576271186,40,64.0677966101695,40C63.05084745762712,40,62.03389830508474,40,61.01694915254237,40C59.99999999999999,40,58.983050847457626,40,57.96610169491525,40C56.94915254237288,40,55.93220338983051,40,54.91525423728814,40C53.898305084745765,40,52.88135593220339,40,51.86440677966102,40C50.847457627118644,40,49.83050847457627,40,48.813559322033896,40C47.79661016949152,40,46.77966101694915,40,45.762711864406775,40C44.7457627118644,40,43.728813559322035,40,42.71186440677966,40C41.69491525423729,40,40.67796610169491,40,39.66101694915254,40C38.644067796610166,40,37.6271186440678,40,36.610169491525426,40C35.59322033898305,40,34.57627118644068,40,33.559322033898304,40C32.54237288135593,40,31.525423728813557,40,30.508474576271183,40C29.491525423728813,40,28.47457627118644,40,27.45762711864407,40C26.440677966101696,40,25.423728813559322,40,24.406779661016948,40C23.389830508474574,40,22.372881355932204,40,21.35593220338983,40C20.338983050847457,40,19.322033898305087,40,18.305084745762713,40C17.28813559322034,40,16.271186440677965,40,15.254237288135592,40C14.23728813559322,40,13.220338983050846,40,12.203389830508474,40C11.186440677966102,40,10.169491525423728,40,9.152542372881356,40C8.135593220338983,40,7.11864406779661,40,6.101694915254237,40C5.084745762711864,40,4.067796610169491,40,3.0508474576271185,40C2.0338983050847457,40,1.0169491525423728,40,0,40Z"></path><path class="line" stroke="black" fill="none" d="M0,31.68C1.0169491525423728,31.85,2.0338983050847457,32.02,3.0508474576271185,32.32C4.067796610169491,32.62,5.084745762711864,32.70666666666666,6.101694915254237,33.48C7.11864406779661,34.25333333333333,8.135593220338983,37.11999999999999,9.152542372881356,37.199999999999996C10.169491525423728,37.28,11.186440677966102,37.32,12.203389830508474,37.32C13.220338983050846,37.32,14.23728813559322,34.806666666666665,15.254237288135592,33.56C16.271186440677965,32.31333333333333,17.28813559322034,29.84,18.305084745762713,29.84C19.322033898305087,29.84,20.338983050847457,31.133333333333336,21.35593220338983,31.240000000000002C22.372881355932204,31.346666666666668,23.389830508474574,31.293333333333337,24.406779661016948,31.400000000000002C25.423728813559322,31.506666666666668,26.440677966101696,33.086666666666666,27.45762711864407,33.96C28.47457627118644,34.833333333333336,29.491525423728813,36.64,30.508474576271183,36.64C31.525423728813557,36.64,32.54237288135593,34.54666666666667,33.559322033898304,33.68C34.57627118644068,32.81333333333333,35.59322033898305,31.44,36.610169491525426,31.44C37.6271186440678,31.44,38.644067796610166,31.906666666666666,39.66101694915254,32.08C40.67796610169491,32.25333333333333,41.69491525423729,32.480000000000004,42.71186440677966,32.480000000000004C43.728813559322035,32.480000000000004,44.7457627118644,32.32,45.762711864406775,32.32C46.77966101694915,32.32,47.79661016949152,33.79333333333334,48.813559322033896,34.64C49.83050847457627,35.486666666666665,50.847457627118644,37.400000000000006,51.86440677966102,37.400000000000006C52.88135593220339,37.400000000000006,53.898305084745765,35.120000000000005,54.91525423728814,33.92C55.93220338983051,32.72,56.94915254237288,30.2,57.96610169491525,30.2C58.983050847457626,30.2,59.99999999999999,31.44,61.01694915254237,31.44C62.03389830508474,31.44,63.05084745762712,28.6,64.0677966101695,28.6C65.08474576271186,28.6,66.10169491525424,31.080000000000002,67.11864406779661,31.080000000000002C68.13559322033899,31.080000000000002,69.15254237288136,30.76,70.16949152542374,30.76C71.1864406779661,30.76,72.20338983050848,35.16,73.22033898305085,35.16C74.23728813559322,35.16,75.2542372881356,32.06666666666666,76.27118644067797,30.96C77.28813559322033,29.853333333333335,78.30508474576271,29.14,79.32203389830508,28.520000000000003C80.33898305084746,27.900000000000002,81.35593220338983,27.240000000000002,82.37288135593221,27.240000000000002C83.38983050847457,27.240000000000002,84.40677966101696,28.200000000000003,85.42372881355932,28.200000000000003C86.4406779661017,28.200000000000003,87.45762711864407,27.400000000000002,88.47457627118645,27.400000000000002C89.49152542372882,27.400000000000002,90.50847457627118,29.593333333333337,91.52542372881355,30.44C92.54237288135593,31.286666666666676,93.55932203389831,32.480000000000004,94.57627118644069,32.480000000000004C95.59322033898306,32.480000000000004,96.61016949152543,26.080000000000002,97.62711864406779,26.080000000000002C98.64406779661016,26.080000000000002,99.66101694915254,26.16,100.6779661016949,26.16C101.69491525423729,26.16,102.71186440677965,20.2,103.72881355932203,20.2C104.7457627118644,20.2,105.76271186440678,21.36,106.77966101694915,21.36C107.79661016949153,21.36,108.8135593220339,20.8,109.83050847457628,20.8C110.84745762711864,20.8,111.86440677966102,26.040000000000003,112.88135593220339,26.28C113.89830508474576,26.52,114.91525423728814,26.639999999999997,115.9322033898305,26.639999999999997C116.94915254237289,26.639999999999997,117.96610169491525,24.85333333333333,118.98305084745763,24.2C120,23.54666666666667,121.01694915254237,23.706666666666667,122.03389830508473,22.720000000000002C123.05084745762711,21.733333333333324,124.0677966101695,16.48,125.08474576271188,16.48C126.10169491525424,16.48,127.11864406779662,19.826666666666668,128.135593220339,21.200000000000003C129.15254237288136,22.57333333333333,130.16949152542372,24.26666666666667,131.1864406779661,24.72C132.20338983050846,25.173333333333332,133.22033898305085,25.4,134.23728813559322,25.4C135.25423728813558,25.4,136.27118644067798,24.773333333333333,137.28813559322035,23.520000000000003C138.3050847457627,22.266666666666673,139.3220338983051,15.120000000000001,140.33898305084747,15.120000000000001C141.35593220338984,15.120000000000001,142.3728813559322,16.36,143.38983050847457,16.36C144.40677966101694,16.36,145.42372881355934,14.486666666666677,146.4406779661017,12.839999999999998C147.45762711864407,11.193333333333335,148.47457627118644,8.613333333333324,149.4915254237288,6.480000000000001C150.50847457627117,4.346666666666659,151.52542372881356,0.040000000000000036,152.54237288135593,0.040000000000000036C153.5593220338983,0.040000000000000036,154.5762711864407,9.933333333333323,155.59322033898306,10.84C156.61016949152543,11.746666666666668,157.6271186440678,12.200000000000003,158.64406779661016,12.200000000000003C159.66101694915253,12.200000000000003,160.67796610169492,3.759999999999999,161.6949152542373,3.759999999999999C162.71186440677965,3.759999999999999,163.72881355932205,9.32,164.74576271186442,9.32C165.76271186440678,9.32,166.77966101694915,0.6000000000000005,167.79661016949152,0.6000000000000005C168.81355932203388,0.6000000000000005,169.83050847457628,4.086666666666666,170.84745762711864,5.12C171.864406779661,6.153333333333334,172.8813559322034,6.286666666666668,173.89830508474577,6.800000000000002C174.91525423728814,7.313333333333335,175.93220338983053,7.2666666666666675,176.9491525423729,8.2C177.96610169491527,9.133333333333322,178.98305084745763,16.266666666666662,180,23.4"></path><path class="axis-ceiling" stroke-width="1" stroke="black" fill="none" d="M175,0L180,0"></path><text class="axis-ceiling-label" font-family="sans-serif" text-anchor="end" font-size="10px" x="170" y="2.5">1000</text></g></svg>