<svg xmlns="http://www.w3.org/2000/svg" viewBox="0 0 180 60"><g transform="translate(0,20)"><path class="area" fill="rgba(0, 0, 0, 0.2)" d="M0,39.42857142857143C1.0169491525423728,39.42857142857143,2.0338983050847457,39.42857142857143,3.0508474576271185,39.42857142857143C4.067796610169491,39.42857142857143,5.084745762711864,39.542857142857144,6.101694915254237,39.542857142857144C7.11864406779661,39.542857142857144,8.135593220338983,39.542857142857144,9.152542372881356,39.542857142857144C10.169491525423728,39.542857142857144,11.186440677966102,39.16190476190475,12.203389830508474,39.08571428571428C13.220338983050846,39.00952380952381,14.23728813559322,38.971428571428575,15.254237288135592,38.971428571428575C16.271186440677965,38.971428571428575,17.28813559322034,39.2,18.305084745762713,39.2C19.322033898305087,39.2,20.338983050847457,38.91428571428572,21.35593220338983,38.62857142857143C22.372881355932204,38.34285714285715,23.389830508474574,37.94285714285714,24.406779661016948,37.48571428571429C25.423728813559322,37.02857142857143,26.440677966101696,35.885714285714286,27.45762711864407,35.885714285714286C28.47457627118644,35.885714285714286,29.491525423728813,37.028571428571425,30.508474576271183,37.028571428571425C31.525423728813557,37.028571428571425,32.54237288135593,36.68571428571428,33.559322033898304,36.68571428571428C34.57627118644068,36.68571428571428,35.59322033898305,38.17142857142857,36.610169491525426,38.17142857142857C37.6271186440678,38.17142857142857,38.644067796610166,35.23809523809524,39.66101694915254,33.94285714285714C40.67796610169491,32.647619047619045,41.69491525423729,30.4,42.71186440677966,30.4C43.728813559322035,30.4,44.7457627118644,32.91428571428571,45.762711864406775,32.91428571428571C46.77966101694915,32.91428571428571,47.79661016949152,27.771428571428572,48.813559322033896,27.771428571428572C49.83050847457627,27.771428571428572,50.847457627118644,28.076190476190476,51.86440677966102,28.685714285714283C52.88135593220339,29.29523809523809,53.898305084745765,31.21904761904762,54.91525423728814,32C55.93220338983051,32.78095238095238,56.94915254237288,33.371428571428574,57.96610169491525,33.371428571428574C58.983050847457626,33.371428571428574,59.99999999999999,23.771428571428572,61.01694915254237,23.771428571428572C62.03389830508474,23.771428571428572,63.05084745762712,26.4,64.0677966101695,26.4C65.08474576271186,26.4,66.10169491525424,17.37142857142857,67.11864406779661,17.37142857142857C68.13559322033899,17.37142857142857,69.15254237288136,20.114285714285714,70.16949152542374,20.114285714285714C71.1864406779661,20.114285714285714,72.20338983050848,18.74285714285714,73.22033898305085,18.74285714285714C74.23728813559322,18.74285714285714,75.2542372881356,19.39047619047619,76.27118644067797,20.685714285714283C77.28813559322033,21.980952380952377,78.30508474576271,29.142857142857146,79.32203389830508,29.142857142857146C80.33898305084746,29.142857142857146,81.35593220338983,9.828571428571426,82.37288135593221,9.828571428571426C83.38983050847457,9.828571428571426,84.40677966101696,12.457142857142856,85.42372881355932,12.457142857142856C86.4406779661017,12.457142857142856,87.45762711864407,10.4,88.47457627118645,10.4C89.49152542372882,10.4,90.50847457627118,17.02857142857143,91.52542372881355,17.02857142857143C92.54237288135593,17.02857142857143,93.55932203389831,11.657142857142858,94.57627118644069,11.657142857142858C95.59322033898306,11.657142857142858,96.61016949152543,12.723809523809535,97.62711864406779,14.857142857142858C98.64406779661016,16.99047619047619,99.66101694915254,24.457142857142856,100.6779661016949,24.457142857142856C101.69491525423729,24.457142857142856,102.71186440677965,12.685714285714296,103.72881355932203,11.542857142857144C104.7457627118644,10.399999999999999,105.76271186440678,10.799999999999994,106.77966101694915,9.828571428571426C107.79661016949153,8.857142857142854,108.8135593220339,6.476190476190482,109.83050847457628,5.714285714285716C110.84745762711864,4.952380952380954,111.86440677966102,4.571428571428573,112.88135593220339,4.571428571428573C113.89830508474576,4.571428571428573,114.91525423728814,16.685714285714287,115.9322033898305,16.685714285714287C116.94915254237289,16.685714285714287,117.96610169491525,9.02857142857143,118.98305084745763,9.02857142857143C120,9.02857142857143,121.01694915254237,22.62857142857143,122.03389830508473,22.62857142857143C123.05084745762711,22.62857142857143,124.0677966101695,9.6,125.08474576271188,9.6C126.10169491525424,9.6,127.11864406779662,11.885714285714286,128.135593220339,11.885714285714286C129.15254237288136,11.885714285714286,130.16949152542372,9.02857142857143,131.1864406779661,9.02857142857143C132.20338983050846,9.02857142857143,133.22033898305085,14.01904761904762,134.23728813559322,14.62857142857143C135.25423728813558,15.238095238095239,136.27118644067798,14.933333333333334,137.28813559322035,15.542857142857143C138.3050847457627,16.152380952380952,139.3220338983051,18.323809523809505,140.33898305084747,20.685714285714283C141.35593220338984,23.04761904761904,142.3728813559322,29.714285714285715,143.38983050847457,29.714285714285715C144.40677966101694,29.714285714285715,145.42372881355934,23.37142857142858,146.4406779661017,20.8C147.45762711864407,18.228571428571446,148.47457627118644,14.285714285714285,149.4915254237288,14.285714285714285C150.50847457627117,14.285714285714285,151.52542372881356,24.68571428571429,152.54237288135593,24.68571428571429C153.5593220338983,24.68571428571429,154.5762711864407,18.4,155.59322033898306,18.4C156.61016949152543,18.4,157.6271186440678,18.4,158.64406779661016,18.4C159.66101694915253,18.4,160.67796610169492,19.961904761904762,161.6949152542373,21.485714285714288C162.71186440677965,23.009523809523813,163.72881355932205,27.542857142857144,164.74576271186442,27.542857142857144C165.76271186440678,27.542857142857144,166.77966101694915,14.857142857142858,167.79661016949152,14.857142857142858C168.81355932203388,14.857142857142858,169.83050847457628,16.57142857142857,170.84745762711864,16.57142857142857C171.864406779661,16.57142857142857,172.8813559322034,12.228571428571428,173.89830508474577,12.228571428571428C174.91525423728814,12.228571428571428,175.93220338983053,16.49523809523809,176.9491525423729,17.485714285714288C177.96610169491527,18.476190476190478,178.98305084745763,18.723809523809525,180,18.97142857142857L180,40C178.98305084745763,40,177.96610169491527,40,176.9491525423729,40C175.93220338983053,40,174.91525423728814,40,173.89830508474577,40C172.8813559322034,40,171.864406779661,40,170.84745762711864,40C169.83050847457628,40,168.81355932203388,40,167.79661016949152,40C166.77966101694915,40,165.76271186440678,40,164.74576271186442,40C163.72881355932205,40,162.71186440677965,40,161.6949152542373,40C160.67796610169492,40,159.66101694915253,40,158.64406779661016,40C157.6271186440678,40,156.61016949152543,40,155.59322033898306,40C154.5762711864407,40,153.5593220338983,40,152.54237288135593,40C151.52542372881356,40,150.50847457627117,40,149.4915254237288,40C148.47457627118644,40,147.45762711864407,40,146.4406779661017,40C145.42372881355934,40,144.40677966101694,40,143.38983050847457,40C142.3728813559322,40,141.35593220338984,40,140.33898305084747,40C139.3220338983051,40,138.3050847457627,40,137.28813559322035,40C136.27118644067798,40,135.25423728813558,40,134.23728813559322,40C133.22033898305085,40,132.20338983050846,40,131.1864406779661,40C130.16949152542372,40,129.15254237288136,40,128.135593220339,40C127.11864406779662,40,126.10169491525424,40,125.08474576271188,40C124.0677966101695,40,123.05084745762711,40,122.03389830508473,40C121.01694915254237,40,120,40,118.98305084745763,40C117.96610169491525,40,116.94915254237289,40,115.9322033898305,40C114.91525423728814,40,113.89830508474576,40,112.88135593220339,40C111.86440677966102,40,110.84745762711864,40,109.83050847457628,40C108.8135593220339,40,107.79661016949153,40,106.77966101694915,40C105.76271186440678,40,104.7457627118644,40,103.72881355932203,40C102.71186440677965,40,101.69491525423729,40,100.6779661016949,40C99.66101694915254,40,98.64406779661016,40,97.62711864406779,40C96.61016949152543,40,95.59322033898306,40,94.57627118644069,40C93.55932203389831,40,92.54237288135593,40,91.52542372881355,40C90.50847457627118,40,89.49152542372882,40,88.47457627118645,40C87.45762711864407,40,86.4406779661017,40,85.42372881355932,40C84.40677966101696,40,83.38983050847457,40,82.37288135593221,40C81.35593220338983,40,80.33898305084746,40,79.32203389830508,40C78.30508474576271,40,77.28813559322033,40,76.27118644067797,40C75.2542372881356,40,74.23728813559322,40,73.22033898305085,40C72.20338983050848,40,71.1864406779661,40,70.16949152542374,40C69.15254237288136,40,68.13559322033899,40,67.11864406779661,40C66.10169491525424,40,65.08474576271186,40,64.0677966101695,40C63.05084745762712,40,62.03389830508474,40,61.01694915254237,40C59.99999999999999,40,58.983050847457626,40,57.96610169491525,40C56.94915254237288,40,55.93220338983051,40,54.91525423728814,40C53.898305084745765,40,52.88135593220339,40,51.86440677966102,40C50.847457627118644,40,49.83050847457627,40,48.813559322033896,40C47.79661016949152,40,46.77966101694915,40,45.762711864406775,40C44.7457627118644,40,43.728813559322035,40,42.71186440677966,40C41.69491525423729,40,40.67796610169491,40,39.66101694915254,40C38.644067796610166,40,37.6271186440678,40,36.610169491525426,40C35.59322033898305,40,34.57627118644068,40,33.559322033898304,40C32.54237288135593,40,31.525423728813557,40,30.508474576271183,40C29.491525423728813,40,28.47457627118644,40,27.45762711864407,40C26.440677966101696,40,25.423728813559322,40,24.406779661016948,40C23.389830508474574,40,22.372881355932204,40,21.35593220338983,40C20.338983050847457,40,19.322033898305087,40,18.305084745762713,40C17.28813559322034,40,16.271186440677965,40,15.254237288135592,40C14.23728813559322,40,13.220338983050846,40,12.203389830508474,40C11.186440677966102,40,10.169491525423728,40,9.152542372881356,40C8.135593220338983,40,7.11864406779661,40,6.101694915254237,40C5.084745762711864,40,4.067796610169491,40,3.0508474576271185,40C2.0338983050847457,40,1.0169491525423728,40,0,40Z"></path><path class="line" stroke="black" fill="none" d="M0,39.42857142857143C1.0169491525423728,39.42857142857143,2.0338983050847457,39.42857142857143,3.0508474576271185,39.42857142857143C4.067796610169491,39.42857142857143,5.084745762711864,39.542857142857144,6.101694915254237,39.542857142857144C7.11864406779661,39.542857142857144,8.135593220338983,39.542857142857144,9.152542372881356,39.542857142857144C10.169491525423728,39.542857142857144,11.186440677966102,39.16190476190475,12.203389830508474,39.08571428571428C13.220338983050846,39.00952380952381,14.23728813559322,38.971428571428575,15.254237288135592,38.971428571428575C16.271186440677965,38.971428571428575,17.28813559322034,39.2,18.305084745762713,39.2C19.322033898305087,39.2,20.338983050847457,38.91428571428572,21.35593220338983,38.62857142857143C22.372881355932204,38.34285714285715,23.389830508474574,37.94285714285714,24.406779661016948,37.48571428571429C25.423728813559322,37.02857142857143,26.440677966101696,35.885714285714286,27.45762711864407,35.885714285714286C28.47457627118644,35.885714285714286,29.491525423728813,37.028571428571425,30.508474576271183,37.028571428571425C31.525423728813557,37.028571428571425,32.54237288135593,36.68571428571428,33.559322033898304,36.68571428571428C34.57627118644068,36.68571428571428,35.59322033898305,38.17142857142857,36.610169491525426,38.17142857142857C37.6271186440678,38.17142857142857,38.644067796610166,35.23809523809524,39.66101694915254,33.94285714285714C40.67796610169491,32.647619047619045,41.69491525423729,30.4,42.71186440677966,30.4C43.728813559322035,30.4,44.7457627118644,32.91428571428571,45.762711864406775,32.91428571428571C46.77966101694915,32.91428571428571,47.79661016949152,27.771428571428572,48.813559322033896,27.771428571428572C49.83050847457627,27.771428571428572,50.847457627118644,28.076190476190476,51.86440677966102,28.685714285714283C52.88135593220339,29.29523809523809,53.898305084745765,31.21904761904762,54.91525423728814,32C55.93220338983051,32.78095238095238,56.94915254237288,33.371428571428574,57.96610169491525,33.371428571428574C58.983050847457626,33.371428571428574,59.99999999999999,23.771428571428572,61.01694915254237,23.771428571428572C62.03389830508474,23.771428571428572,63.05084745762712,26.4,64.0677966101695,26.4C65.08474576271186,26.4,66.10169491525424,17.37142857142857,67.11864406779661,17.37142857142857C68.13559322033899,17.37142857142857,69.15254237288136,20.114285714285714,70.16949152542374,20.114285714285714C71.1864406779661,20.114285714285714,72.20338983050848,18.74285714285714,73.22033898305085,18.74285714285714C74.23728813559322,18.74285714285714,75.2542372881356,19.39047619047619,76.27118644067797,20.685714285714283C77.28813559322033,21.980952380952377,78.30508474576271,29.142857142857146,79.32203389830508,29.142857142857146C80.33898305084746,29.142857142857146,81.35593220338983,9.828571428571426,82.37288135593221,9.828571428571426C83.38983050847457,9.828571428571426,84.40677966101696,12.457142857142856,85.42372881355932,12.457142857142856C86.4406779661017,12.457142857142856,87.45762711864407,10.4,88.47457627118645,10.4C89.49152542372882,10.4,90.50847457627118,17.02857142857143,91.52542372881355,17.02857142857143C92.54237288135593,17.02857142857143,93.55932203389831,11.657142857142858,94.57627118644069,11.657142857142858C95.59322033898306,11.657142857142858,96.61016949152543,12.723809523809535,97.62711864406779,14.857142857142858C98.64406779661016,16.99047619047619,99.66101694915254,24.457142857142856,100.6779661016949,24.457142857142856C101.69491525423729,24.457142857142856,102.71186440677965,12.685714285714296,103.72881355932203,11.542857142857144C104.7457627118644,10.399999999999999,105.76271186440678,10.799999999999994,106.77966101694915,9.828571428571426C107.79661016949153,8.857142857142854,108.8135593220339,6.476190476190482,109.83050847457628,5.714285714285716C110.84745762711864,4.952380952380954,111.86440677966102,4.571428571428573,112.88135593220339,4.571428571428573C113.89830508474576,4.571428571428573,114.91525423728814,16.685714285714287,115.9322033898305,16.685714285714287C116.94915254237289,16.685714285714287,117.96610169491525,9.02857142857143,118.98305084745763,9.02857142857143C120,9.02857142857143,121.01694915254237,22.62857142857143,122.03389830508473,22.62857142857143C123.05084745762711,22.62857142857143,124.0677966101695,9.6,125.08474576271188,9.6C126.10169491525424,9.6,127.11864406779662,11.885714285714286,128.135593220339,11.885714285714286C129.15254237288136,11.885714285714286,130.16949152542372,9.02857142857143,131.1864406779661,9.02857142857143C132.20338983050846,9.02857142857143,133.22033898305085,14.01904761904762,134.23728813559322,14.62857142857143C135.25423728813558,15.238095238095239,136.27118644067798,14.933333333333334,137.28813559322035,15.542857142857143C138.3050847457627,16.152380952380952,139.3220338983051,18.323809523809505,140.33898305084747,20.685714285714283C141.35593220338984,23.04761904761904,142.3728813559322,29.714285714285715,143.38983050847457,29.714285714285715C144.40677966101694,29.714285714285715,145.42372881355934,23.37142857142858,146.4406779661017,20.8C147.45762711864407,18.228571428571446,148.47457627118644,14.285714285714285,149.4915254237288,14.285714285714285C150.50847457627117,14.285714285714285,151.52542372881356,24.68571428571429,152.54237288135593,24.68571428571429C153.5593220338983,24.68571428571429,154.5762711864407,18.4,155.59322033898306,18.4C156.61016949152543,18.4,157.6271186440678,18.4,158.64406779661016,18.4C159.66101694915253,18.4,160.67796610169492,19.961904761904762,161.6949152542373,21.485714285714288C162.71186440677965,23.009523809523813,163.72881355932205,27.542857142857144,164.74576271186442,27.542857142857144C165.76271186440678,27.542857142857144,166.77966101694915,14.857142857142858,167.79661016949152,14.857142857142858C168.81355932203388,14.857142857142858,169.83050847457628,16.57142857142857,170.84745762711864,16.57142857142857C171.864406779661,16.57142857142857,172.8813559322034,12.228571428571428,173.89830508474577,12.228571428571428C174.91525423728814,12.228571428571428,175.93220338983053,16.49523809523809,176.9491525423729,17.485714285714288C177.96610169491527,18.476190476190478,178.98305084745763,18.723809523809525,180,18.97142857142857"></path><path class="axis-ceiling" stroke-width="1" stroke="black" fill="none" d="M175,0L180,0"></path><text class="axis-ceiling-label" font-family="sans-serif" text-anchor="end" font-size="10px" x="170" y="2.5">350</text></g></svg>