<svg xmlns="http://www.w3.org/2000/svg" viewBox="0 0 180 60"><g transform="translate(0,20)"><path class="area" fill="rgba(0, 0, 0, 0.2)" d="M0,35.55555555555556C1.0169491525423728,35.55555555555556,2.0338983050847457,35.55555555555556,3.0508474576271185,35.55555555555556C4.067796610169491,35.55555555555556,5.084745762711864,34.96296296296297,6.101694915254237,34.66666666666667C7.11864406779661,34.370370370370374,8.135593220338983,33.77777777777778,9.152542372881356,33.77777777777778C10.169491525423728,33.77777777777778,11.186440677966102,33.77777777777778,12.203389830508474,33.77777777777778C13.220338983050846,33.77777777777778,14.23728813559322,33.77777777777778,15.254237288135592,33.77777777777778C16.271186440677965,33.77777777777778,17.28813559322034,33.77777777777778,18.305084745762713,33.77777777777778C19.322033898305087,33.77777777777778,20.338983050847457,33.77777777777778,21.35593220338983,33.77777777777778C22.372881355932204,33.77777777777778,23.389830508474574,34.370370370370374,24.406779661016948,34.66666666666667C25.423728813559322,34.96296296296297,26.440677966101696,35.55555555555556,27.45762711864407,35.55555555555556C28.47457627118644,35.55555555555556,29.491525423728813,35.55555555555556,30.508474576271183,35.55555555555556C31.525423728813557,35.55555555555556,32.54237288135593,35.111111111111114,33.559322033898304,34.66666666666667C34.57627118644068,34.22222222222223,35.59322033898305,32.888888888888886,36.610169491525426,32.888888888888886C37.6271186440678,32.888888888888886,38.644067796610166,32.888888888888886,39.66101694915254,32.888888888888886C40.67796610169491,32.888888888888886,41.69491525423729,32.888888888888886,42.71186440677966,32.888888888888886C43.728813559322035,32.888888888888886,44.7457627118644,31.11111111111111,45.762711864406775,31.11111111111111C46.77966101694915,31.11111111111111,47.79661016949152,31.11111111111111,48.813559322033896,31.11111111111111C49.83050847457627,31.11111111111111,50.847457627118644,32,51.86440677966102,32C52.88135593220339,32,53.898305084745765,32,54.91525423728814,32C55.93220338983051,32,56.94915254237288,32.59259259259259,57.96610169491525,32.888888888888886C58.983050847457626,33.18518518518518,59.99999999999999,33.77777777777778,61.01694915254237,33.77777777777778C62.03389830508474,33.77777777777778,63.05084745762712,33.77777777777778,64.0677966101695,33.77777777777778C65.08474576271186,33.77777777777778,66.10169491525424,34.370370370370374,67.11864406779661,34.66666666666667C68.13559322033899,34.96296296296297,69.15254237288136,35.55555555555556,70.16949152542374,35.55555555555556C71.1864406779661,35.55555555555556,72.20338983050848,33.77777777777778,73.22033898305085,33.77777777777778C74.23728813559322,33.77777777777778,75.2542372881356,33.77777777777778,76.27118644067797,33.77777777777778C77.28813559322033,33.77777777777778,78.30508474576271,34.66666666666667,79.32203389830508,34.66666666666667C80.33898305084746,34.66666666666667,81.35593220338983,34.66666666666667,82.37288135593221,34.66666666666667C83.38983050847457,34.66666666666667,84.40677966101696,34.22222222222222,85.42372881355932,33.77777777777778C86.4406779661017,33.333333333333336,87.45762711864407,32.44444444444444,88.47457627118645,32C89.49152542372882,31.555555555555557,90.50847457627118,31.11111111111111,91.52542372881355,31.11111111111111C92.54237288135593,31.11111111111111,93.55932203389831,32,94.57627118644069,32C95.59322033898306,32,96.61016949152543,32,97.62711864406779,32C98.64406779661016,32,99.66101694915254,31.11111111111111,100.6779661016949,31.11111111111111C101.69491525423729,31.11111111111111,102.71186440677965,31.11111111111111,103.72881355932203,31.11111111111111C104.7457627118644,31.11111111111111,105.76271186440678,30.518518518518515,106.77966101694915,30.22222222222222C107.79661016949153,29.925925925925924,108.8135593220339,29.629629629629633,109.83050847457628,29.333333333333336C110.84745762711864,29.03703703703704,111.86440677966102,28.88888888888889,112.88135593220339,28.444444444444446C113.89830508474576,28.000000000000004,114.91525423728814,27.259259259259263,115.9322033898305,26.66666666666667C116.94915254237289,26.074074074074076,117.96610169491525,25.629629629629637,118.98305084745763,24.88888888888889C120,24.14814814814815,121.01694915254237,23.111111111111104,122.03389830508473,22.22222222222222C123.05084745762711,21.333333333333325,124.0677966101695,20.44444444444445,125.08474576271188,19.555555555555557C126.10169491525424,18.66666666666667,127.11864406779662,17.481481481481485,128.135593220339,16.888888888888893C129.15254237288136,16.2962962962963,130.16949152542372,16.296296296296294,131.1864406779661,16C132.20338983050846,15.703703703703702,133.22033898305085,15.407407407407407,134.23728813559322,15.11111111111111C135.25423728813558,14.814814814814815,136.27118644067798,14.518518518518517,137.28813559322035,14.222222222222221C138.3050847457627,13.925925925925926,139.3220338983051,13.333333333333336,140.33898305084747,13.333333333333336C141.35593220338984,13.333333333333336,142.3728813559322,13.925925925925927,143.38983050847457,14.222222222222221C144.40677966101694,14.518518518518519,145.42372881355934,14.666666666666663,146.4406779661017,15.11111111111111C147.45762711864407,15.555555555555555,148.47457627118644,16.44444444444445,149.4915254237288,16.888888888888893C150.50847457627117,17.33333333333334,151.52542372881356,17.77777777777778,152.54237288135593,17.77777777777778C153.5593220338983,17.77777777777778,154.5762711864407,16.888888888888893,155.59322033898306,16.888888888888893C156.61016949152543,16.888888888888893,157.6271186440678,17.77777777777778,158.64406779661016,17.77777777777778C159.66101694915253,17.77777777777778,160.67796610169492,13.777777777777779,161.6949152542373,12.444444444444445C162.71186440677965,11.11111111111111,163.72881355932205,10.37037037037037,164.74576271186442,9.777777777777779C165.76271186440678,9.185185185185192,166.77966101694915,9.481481481481483,167.79661016949152,8.88888888888889C168.81355932203388,8.29629629629629,169.83050847457628,6.518518518518518,170.84745762711864,5.333333333333332C171.864406779661,4.148148148148146,172.8813559322034,2.6666666666666647,173.89830508474577,1.777777777777776C174.91525423728814,0.8888888888888872,175.93220338983053,0,176.9491525423729,0C177.96610169491527,0,178.98305084745763,0,180,0L180,40C178.98305084745763,40,177.96610169491527,40,176.9491525423729,40C175.93220338983053,40,174.91525423728814,40,173.89830508474577,40C172.8813559322034,40,171.864406779661,40,170.84745762711864,40C169.83050847457628,40,168.81355932203388,40,167.79661016949152,40C166.77966101694915,40,165.76271186440678,40,164.74576271186442,40C163.72881355932205,40,162.71186440677965,40,161.6949152542373,40C160.67796610169492,40,159.66101694915253,40,158.64406779661016,40C157.6271186440678,40,156.61016949152543,40,155.59322033898306,40C154.5762711864407,40,153.5593220338983,40,152.54237288135593,40C151.52542372881356,40,150.50847457627117,40,149.4915254237288,40C148.47457627118644,40,147.45762711864407,40,146.4406779661017,40C145.42372881355934,40,144.40677966101694,40,143.38983050847457,40C142.3728813559322,40,141.35593220338984,40,140.33898305084747,40C139.3220338983051,40,138.3050847457627,40,137.28813559322035,40C136.27118644067798,40,135.25423728813558,40,134.23728813559322,40C133.22033898305085,40,132.20338983050846,40,131.1864406779661,40C130.16949152542372,40,129.15254237288136,40,128.135593220339,40C127.11864406779662,40,126.10169491525424,40,125.08474576271188,40C124.0677966101695,40,123.05084745762711,40,122.03389830508473,40C121.01694915254237,40,120,40,118.98305084745763,40C117.96610169491525,40,116.94915254237289,40,115.9322033898305,40C114.91525423728814,40,113.89830508474576,40,112.88135593220339,40C111.86440677966102,40,110.84745762711864,40,109.83050847457628,40C108.8135593220339,40,107.79661016949153,40,106.77966101694915,40C105.76271186440678,40,104.7457627118644,40,103.72881355932203,40C102.71186440677965,40,101.69491525423729,40,100.6779661016949,40C99.66101694915254,40,98.64406779661016,40,97.62711864406779,40C96.61016949152543,40,95.59322033898306,40,94.57627118644069,40C93.55932203389831,40,92.54237288135593,40,91.52542372881355,40C90.50847457627118,40,89.49152542372882,40,88.47457627118645,40C87.45762711864407,40,86.4406779661017,40,85.42372881355932,40C84.40677966101696,40,83.38983050847457,40,82.37288135593221,40C81.35593220338983,40,80.33898305084746,40,79.32203389830508,40C78.30508474576271,40,77.28813559322033,40,76.27118644067797,40C75.2542372881356,40,74.23728813559322,40,73.22033898305085,40C72.20338983050848,40,71.1864406779661,40,70.16949152542374,40C69.15254237288136,40,68.13559322033899,40,67.11864406779661,40C66.10169491525424,40,65.08474576271186,40,64.0677966101695,40C63.05084745762712,40,62.03389830508474,40,61.01694915254237,40C59.99999999999999,40,58.983050847457626,40,57.96610169491525,40C56.94915254237288,40,55.93220338983051,40,54.91525423728814,40C53.898305084745765,40,52.88135593220339,40,51.86440677966102,40C50.847457627118644,40,49.83050847457627,40,48.813559322033896,40C47.79661016949152,40,46.77966101694915,40,45.762711864406775,40C44.7457627118644,40,43.728813559322035,40,42.71186440677966,40C41.69491525423729,40,40.67796610169491,40,39.66101694915254,40C38.644067796610166,40,37.6271186440678,40,36.610169491525426,40C35.59322033898305,40,34.57627118644068,40,33.559322033898304,40C32.54237288135593,40,31.525423728813557,40,30.508474576271183,40C29.491525423728813,40,28.47457627118644,40,27.45762711864407,40C26.440677966101696,40,25.423728813559322,40,24.406779661016948,40C23.389830508474574,40,22.372881355932204,40,21.35593220338983,40C20.338983050847457,40,19.322033898305087,40,18.305084745762713,40C17.28813559322034,40,16.271186440677965,40,15.254237288135592,40C14.23728813559322,40,13.220338983050846,40,12.203389830508474,40C11.186440677966102,40,10.169491525423728,40,9.152542372881356,40C8.135593220338983,40,7.11864406779661,40,6.101694915254237,40C5.084745762711864,40,4.067796610169491,40,3.0508474576271185,40C2.0338983050847457,40,1.0169491525423728,40,0,40Z"></path><path class="line" stroke="black" fill="none" d="M0,35.55555555555556C1.0169491525423728,35.55555555555556,2.0338983050847457,35.55555555555556,3.0508474576271185,35.55555555555556C4.067796610169491,35.55555555555556,5.084745762711864,34.96296296296297,6.101694915254237,34.66666666666667C7.11864406779661,34.370370370370374,8.135593220338983,33.77777777777778,9.152542372881356,33.77777777777778C10.169491525423728,33.77777777777778,11.186440677966102,33.77777777777778,12.203389830508474,33.77777777777778C13.220338983050846,33.77777777777778,14.23728813559322,33.77777777777778,15.254237288135592,33.77777777777778C16.271186440677965,33.77777777777778,17.28813559322034,33.77777777777778,18.305084745762713,33.77777777777778C19.322033898305087,33.77777777777778,20.338983050847457,33.77777777777778,21.35593220338983,33.77777777777778C22.372881355932204,33.77777777777778,23.389830508474574,34.370370370370374,24.406779661016948,34.66666666666667C25.423728813559322,34.96296296296297,26.440677966101696,35.55555555555556,27.45762711864407,35.55555555555556C28.47457627118644,35.55555555555556,29.491525423728813,35.55555555555556,30.508474576271183,35.55555555555556C31.525423728813557,35.55555555555556,32.54237288135593,35.111111111111114,33.559322033898304,34.66666666666667C34.57627118644068,34.22222222222223,35.59322033898305,32.888888888888886,36.610169491525426,32.888888888888886C37.6271186440678,32.888888888888886,38.644067796610166,32.888888888888886,39.66101694915254,32.888888888888886C40.67796610169491,32.888888888888886,41.69491525423729,32.888888888888886,42.71186440677966,32.888888888888886C43.728813559322035,32.888888888888886,44.7457627118644,31.11111111111111,45.762711864406775,31.11111111111111C46.77966101694915,31.11111111111111,47.79661016949152,31.11111111111111,48.813559322033896,31.11111111111111C49.83050847457627,31.11111111111111,50.847457627118644,32,51.86440677966102,32C52.88135593220339,32,53.898305084745765,32,54.91525423728814,32C55.93220338983051,32,56.94915254237288,32.59259259259259,57.96610169491525,32.888888888888886C58.983050847457626,33.18518518518518,59.99999999999999,33.77777777777778,61.01694915254237,33.77777777777778C62.03389830508474,33.77777777777778,63.05084745762712,33.77777777777778,64.0677966101695,33.77777777777778C65.08474576271186,33.77777777777778,66.10169491525424,34.370370370370374,67.11864406779661,34.66666666666667C68.13559322033899,34.96296296296297,69.15254237288136,35.55555555555556,70.16949152542374,35.55555555555556C71.1864406779661,35.55555555555556,72.20338983050848,33.77777777777778,73.22033898305085,33.77777777777778C74.23728813559322,33.77777777777778,75.2542372881356,33.77777777777778,76.27118644067797,33.77777777777778C77.28813559322033,33.77777777777778,78.30508474576271,34.66666666666667,79.32203389830508,34.66666666666667C80.33898305084746,34.66666666666667,81.35593220338983,34.66666666666667,82.37288135593221,34.66666666666667C83.38983050847457,34.66666666666667,84.40677966101696,34.22222222222222,85.42372881355932,33.77777777777778C86.4406779661017,33.333333333333336,87.45762711864407,32.44444444444444,88.47457627118645,32C89.49152542372882,31.555555555555557,90.50847457627118,31.11111111111111,91.52542372881355,31.11111111111111C92.54237288135593,31.11111111111111,93.55932203389831,32,94.57627118644069,32C95.59322033898306,32,96.61016949152543,32,97.62711864406779,32C98.64406779661016,32,99.66101694915254,31.11111111111111,100.6779661016949,31.11111111111111C101.69491525423729,31.11111111111111,102.71186440677965,31.11111111111111,103.72881355932203,31.11111111111111C104.7457627118644,31.11111111111111,105.76271186440678,30.518518518518515,106.77966101694915,30.22222222222222C107.79661016949153,29.925925925925924,108.8135593220339,29.629629629629633,109.83050847457628,29.333333333333336C110.84745762711864,29.03703703703704,111.86440677966102,28.88888888888889,112.88135593220339,28.444444444444446C113.89830508474576,28.000000000000004,114.91525423728814,27.259259259259263,115.9322033898305,26.66666666666667C116.94915254237289,26.074074074074076,117.96610169491525,25.629629629629637,118.98305084745763,24.88888888888889C120,24.14814814814815,121.01694915254237,23.111111111111104,122.03389830508473,22.22222222222222C123.05084745762711,21.333333333333325,124.0677966101695,20.44444444444445,125.08474576271188,19.555555555555557C126.10169491525424,18.66666666666667,127.11864406779662,17.481481481481485,128.135593220339,16.888888888888893C129.15254237288136,16.2962962962963,130.16949152542372,16.296296296296294,131.1864406779661,16C132.20338983050846,15.703703703703702,133.22033898305085,15.407407407407407,134.23728813559322,15.11111111111111C135.25423728813558,14.814814814814815,136.27118644067798,14.518518518518517,137.28813559322035,14.222222222222221C138.3050847457627,13.925925925925926,139.3220338983051,13.333333333333336,140.33898305084747,13.333333333333336C141.35593220338984,13.333333333333336,142.3728813559322,13.925925925925927,143.38983050847457,14.222222222222221C144.40677966101694,14.518518518518519,145.42372881355934,14.666666666666663,146.4406779661017,15.11111111111111C147.45762711864407,15.555555555555555,148.47457627118644,16.44444444444445,149.4915254237288,16.888888888888893C150.50847457627117,17.33333333333334,151.52542372881356,17.77777777777778,152.54237288135593,17.77777777777778C153.5593220338983,17.77777777777778,154.5762711864407,16.888888888888893,155.59322033898306,16.888888888888893C156.61016949152543,16.888888888888893,157.6271186440678,17.77777777777778,158.64406779661016,17.77777777777778C159.66101694915253,17.77777777777778,160.67796610169492,13.777777777777779,161.6949152542373,12.444444444444445C162.71186440677965,11.11111111111111,163.72881355932205,10.37037037037037,164.74576271186442,9.777777777777779C165.76271186440678,9.185185185185192,166.77966101694915,9.481481481481483,167.79661016949152,8.88888888888889C168.81355932203388,8.29629629629629,169.83050847457628,6.518518518518518,170.84745762711864,5.333333333333332C171.864406779661,4.148148148148146,172.8813559322034,2.6666666666666647,173.89830508474577,1.777777777777776C174.91525423728814,0.8888888888888872,175.93220338983053,0,176.9491525423729,0C177.96610169491527,0,178.98305084745763,0,180,0"></path><path class="axis-ceiling" stroke-width="1" stroke="black" fill="none" d="M175,0L180,0"></path><text class="axis-ceiling-label" font-family="sans-serif" text-anchor="end" font-size="10px" x="170" y="2.5">45</text></g></svg>