<svg xmlns="http://www.w3.org/2000/svg" viewBox="0 0 180 60"><g transform="translate(0,20)"><path class="area" fill="rgba(0, 0, 0, 0.2)" d="M0,30.6C1.0169491525423728,32.06466666666667,2.0338983050847457,33.52933333333333,3.0508474576271185,34.236C4.067796610169491,34.94266666666667,5.084745762711864,35.296,6.101694915254237,35.296C7.11864406779661,35.296,8.135593220338983,26.159999999999997,9.152542372881356,24.912C10.169491525423728,23.664,11.186440677966102,23.040000000000003,12.203389830508474,23.040000000000003C13.220338983050846,23.040000000000003,14.23728813559322,23.078666666666667,15.254237288135592,23.156C16.271186440677965,23.23333333333333,17.28813559322034,24.153999999999996,18.305084745762713,25.08C19.322033898305087,26.005999999999997,20.338983050847457,27.817999999999998,21.35593220338983,28.712C22.372881355932204,29.606,23.389830508474574,30.444,24.406779661016948,30.444C25.423728813559322,30.444,26.440677966101696,23.067999999999998,27.45762711864407,23.067999999999998C28.47457627118644,23.067999999999998,29.491525423728813,24.092000000000002,30.508474576271183,24.092000000000002C31.525423728813557,24.092000000000002,32.54237288135593,23.64,33.559322033898304,23.64C34.57627118644068,23.64,35.59322033898305,24.204,36.610169491525426,24.204C37.6271186440678,24.204,38.644067796610166,23.656,39.66101694915254,23.656C40.67796610169491,23.656,41.69491525423729,25.871333333333332,42.71186440677966,27.264C43.728813559322035,28.656666666666666,44.7457627118644,32.012,45.762711864406775,32.012C46.77966101694915,32.012,47.79661016949152,24.01733333333333,48.813559322033896,23.348C49.83050847457627,22.67866666666667,50.847457627118644,22.344,51.86440677966102,22.344C52.88135593220339,22.344,53.898305084745765,23.752,54.91525423728814,23.752C55.93220338983051,23.752,56.94915254237288,23.740000000000002,57.96610169491525,23.740000000000002C58.983050847457626,23.740000000000002,59.99999999999999,24.732000000000003,61.01694915254237,24.732000000000003C62.03389830508474,24.732000000000003,63.05084745762712,23.996,64.0677966101695,23.996C65.08474576271186,23.996,66.10169491525424,34.644,67.11864406779661,34.644C68.13559322033899,34.644,69.15254237288136,22.208000000000002,70.16949152542374,22.208000000000002C71.1864406779661,22.208000000000002,72.20338983050848,22.312,73.22033898305085,22.519999999999996C74.23728813559322,22.72799999999999,75.2542372881356,23.53066666666666,76.27118644067797,25.019999999999996C77.28813559322033,26.50933333333333,78.30508474576271,31.456,79.32203389830508,31.456C80.33898305084746,31.456,81.35593220338983,25.8,82.37288135593221,25.8C83.38983050847457,25.8,84.40677966101696,26.978666666666676,85.42372881355932,28.136000000000003C86.4406779661017,29.293333333333337,87.45762711864407,32.744,88.47457627118645,32.744C89.49152542372882,32.744,90.50847457627118,31.15266666666664,91.52542372881355,28.924000000000003C92.54237288135593,26.695333333333334,93.55932203389831,20.777333333333353,94.57627118644069,19.372C95.59322033898306,17.966666666666665,96.61016949152543,17.264,97.62711864406779,17.264C98.64406779661016,17.264,99.66101694915254,22.924,100.6779661016949,22.948C101.69491525423729,22.972,102.71186440677965,22.96,103.72881355932203,22.984C104.7457627118644,23.008000000000003,105.76271186440678,23.922000000000004,106.77966101694915,25.491999999999997C107.79661016949153,27.061999999999998,108.8135593220339,32.404,109.83050847457628,32.404C110.84745762711864,32.404,111.86440677966102,21.528,112.88135593220339,21.528C113.89830508474576,21.528,114.91525423728814,22.415333333333333,115.9322033898305,22.848C116.94915254237289,23.280666666666665,117.96610169491525,23.389333333333326,118.98305084745763,24.124C120,24.858666666666664,121.01694915254237,27.256,122.03389830508473,27.256C123.05084745762711,27.256,124.0677966101695,27.212,125.08474576271188,27.212C126.10169491525424,27.212,127.11864406779662,28.569333333333326,128.135593220339,30.003999999999998C129.15254237288136,31.438666666666663,130.16949152542372,35.82,131.1864406779661,35.82C132.20338983050846,35.82,133.22033898305085,26.879999999999995,134.23728813559322,26.879999999999995C135.25423728813558,26.879999999999995,136.27118644067798,28.25333333333333,137.28813559322035,28.875999999999998C138.3050847457627,29.498666666666665,139.3220338983051,30.101999999999997,140.33898305084747,30.616C141.35593220338984,31.129999999999995,142.3728813559322,31.959999999999997,143.38983050847457,31.959999999999997C144.40677966101694,31.959999999999997,145.42372881355934,31.832,146.4406779661017,31.832C147.45762711864407,31.832,148.47457627118644,32.26200000000001,149.4915254237288,33.08C150.50847457627117,33.897999999999996,151.52542372881356,36.74,152.54237288135593,36.74C153.5593220338983,36.74,154.5762711864407,30.152,155.59322033898306,30.152C156.61016949152543,30.152,157.6271186440678,30.236,158.64406779661016,30.404C159.66101694915253,30.572,160.67796610169492,33.504,161.6949152542373,33.504C162.71186440677965,33.504,163.72881355932205,33.112,164.74576271186442,33.112C165.76271186440678,33.112,166.77966101694915,33.72066666666667,167.79661016949152,34.108000000000004C168.81355932203388,34.49533333333334,169.83050847457628,34.832,170.84745762711864,35.436C171.864406779661,36.04,172.8813559322034,37.732,173.89830508474577,37.732C174.91525423728814,37.732,175.93220338983053,33.879999999999995,176.9491525423729,33.879999999999995C177.96610169491527,33.879999999999995,178.98305084745763,34.007999999999996,180,34.135999999999996L180,40C178.98305084745763,40,177.96610169491527,40,176.9491525423729,40C175.93220338983053,40,174.91525423728814,40,173.89830508474577,40C172.8813559322034,40,171.864406779661,40,170.84745762711864,40C169.83050847457628,40,168.81355932203388,40,167.79661016949152,40C166.77966101694915,40,165.76271186440678,40,164.74576271186442,40C163.72881355932205,40,162.71186440677965,40,161.6949152542373,40C160.67796610169492,40,159.66101694915253,40,158.64406779661016,40C157.6271186440678,40,156.61016949152543,40,155.59322033898306,40C154.5762711864407,40,153.5593220338983,40,152.54237288135593,40C151.52542372881356,40,150.50847457627117,40,149.4915254237288,40C148.47457627118644,40,147.45762711864407,40,146.4406779661017,40C145.42372881355934,40,144.40677966101694,40,143.38983050847457,40C142.3728813559322,40,141.35593220338984,40,140.33898305084747,40C139.3220338983051,40,138.3050847457627,40,137.28813559322035,40C136.27118644067798,40,135.25423728813558,40,134.23728813559322,40C133.22033898305085,40,132.20338983050846,40,131.1864406779661,40C130.16949152542372,40,129.15254237288136,40,128.135593220339,40C127.11864406779662,40,126.10169491525424,40,125.08474576271188,40C124.0677966101695,40,123.05084745762711,40,122.03389830508473,40C121.01694915254237,40,120,40,118.98305084745763,40C117.96610169491525,40,116.94915254237289,40,115.9322033898305,40C114.91525423728814,40,113.89830508474576,40,112.88135593220339,40C111.86440677966102,40,110.84745762711864,40,109.83050847457628,40C108.8135593220339,40,107.79661016949153,40,106.77966101694915,40C105.76271186440678,40,104.7457627118644,40,103.72881355932203,40C102.71186440677965,40,101.69491525423729,40,100.6779661016949,40C99.66101694915254,40,98.64406779661016,40,97.62711864406779,40C96.61016949152543,40,95.59322033898306,40,94.57627118644069,40C93.55932203389831,40,92.54237288135593,40,91.52542372881355,40C90.50847457627118,40,89.49152542372882,40,88.47457627118645,40C87.45762711864407,40,86.4406779661017,40,85.42372881355932,40C84.40677966101696,40,83.38983050847457,40,82.37288135593221,40C81.35593220338983,40,80.33898305084746,40,79.32203389830508,40C78.30508474576271,40,77.28813559322033,40,76.27118644067797,40C75.2542372881356,40,74.23728813559322,40,73.22033898305085,40C72.20338983050848,40,71.1864406779661,40,70.16949152542374,40C69.15254237288136,40,68.13559322033899,40,67.11864406779661,40C66.10169491525424,40,65.08474576271186,40,64.0677966101695,40C63.05084745762712,40,62.03389830508474,40,61.01694915254237,40C59.99999999999999,40,58.983050847457626,40,57.96610169491525,40C56.94915254237288,40,55.93220338983051,40,54.91525423728814,40C53.898305084745765,40,52.88135593220339,40,51.86440677966102,40C50.847457627118644,40,49.83050847457627,40,48.813559322033896,40C47.79661016949152,40,46.77966101694915,40,45.762711864406775,40C44.7457627118644,40,43.728813559322035,40,42.71186440677966,40C41.69491525423729,40,40.67796610169491,40,39.66101694915254,40C38.644067796610166,40,37.6271186440678,40,36.610169491525426,40C35.59322033898305,40,34.57627118644068,40,33.559322033898304,40C32.54237288135593,40,31.525423728813557,40,30.508474576271183,40C29.491525423728813,40,28.47457627118644,40,27.45762711864407,40C26.440677966101696,40,25.423728813559322,40,24.406779661016948,40C23.389830508474574,40,22.372881355932204,40,21.35593220338983,40C20.338983050847457,40,19.322033898305087,40,18.305084745762713,40C17.28813559322034,40,16.271186440677965,40,15.254237288135592,40C14.23728813559322,40,13.220338983050846,40,12.203389830508474,40C11.186440677966102,40,10.169491525423728,40,9.152542372881356,40C8.135593220338983,40,7.11864406779661,40,6.101694915254237,40C5.084745762711864,40,4.067796610169491,40,3.0508474576271185,40C2.0338983050847457,40,1.0169491525423728,40,0,40Z"></path><path class="line" stroke="black" fill="none" d="M0,30.6C1.0169491525423728,32.06466666666667,2.0338983050847457,33.52933333333333,3.0508474576271185,34.236C4.067796610169491,34.94266666666667,5.084745762711864,35.296,6.101694915254237,35.296C7.11864406779661,35.296,8.135593220338983,26.159999999999997,9.152542372881356,24.912C10.169491525423728,23.664,11.186440677966102,23.040000000000003,12.203389830508474,23.040000000000003C13.220338983050846,23.040000000000003,14.23728813559322,23.078666666666667,15.254237288135592,23.156C16.271186440677965,23.23333333333333,17.28813559322034,24.153999999999996,18.305084745762713,25.08C19.322033898305087,26.005999999999997,20.338983050847457,27.817999999999998,21.35593220338983,28.712C22.372881355932204,29.606,23.389830508474574,30.444,24.406779661016948,30.444C25.423728813559322,30.444,26.440677966101696,23.067999999999998,27.45762711864407,23.067999999999998C28.47457627118644,23.067999999999998,29.491525423728813,24.092000000000002,30.508474576271183,24.092000000000002C31.525423728813557,24.092000000000002,32.54237288135593,23.64,33.559322033898304,23.64C34.57627118644068,23.64,35.59322033898305,24.204,36.610169491525426,24.204C37.6271186440678,24.204,38.644067796610166,23.656,39.66101694915254,23.656C40.67796610169491,23.656,41.69491525423729,25.871333333333332,42.71186440677966,27.264C43.728813559322035,28.656666666666666,44.7457627118644,32.012,45.762711864406775,32.012C46.77966101694915,32.012,47.79661016949152,24.01733333333333,48.813559322033896,23.348C49.83050847457627,22.67866666666667,50.847457627118644,22.344,51.86440677966102,22.344C52.88135593220339,22.344,53.898305084745765,23.752,54.91525423728814,23.752C55.93220338983051,23.752,56.94915254237288,23.740000000000002,57.96610169491525,23.740000000000002C58.983050847457626,23.740000000000002,59.99999999999999,24.732000000000003,61.01694915254237,24.732000000000003C62.03389830508474,24.732000000000003,63.05084745762712,23.996,64.0677966101695,23.996C65.08474576271186,23.996,66.10169491525424,34.644,67.11864406779661,34.644C68.13559322033899,34.644,69.15254237288136,22.208000000000002,70.16949152542374,22.208000000000002C71.1864406779661,22.208000000000002,72.20338983050848,22.312,73.22033898305085,22.519999999999996C74.23728813559322,22.72799999999999,75.2542372881356,23.53066666666666,76.27118644067797,25.019999999999996C77.28813559322033,26.50933333333333,78.30508474576271,31.456,79.32203389830508,31.456C80.33898305084746,31.456,81.35593220338983,25.8,82.37288135593221,25.8C83.38983050847457,25.8,84.40677966101696,26.978666666666676,85.42372881355932,28.136000000000003C86.4406779661017,29.293333333333337,87.45762711864407,32.744,88.47457627118645,32.744C89.49152542372882,32.744,90.50847457627118,31.15266666666664,91.52542372881355,28.924000000000003C92.54237288135593,26.695333333333334,93.55932203389831,20.777333333333353,94.57627118644069,19.372C95.59322033898306,17.966666666666665,96.61016949152543,17.264,97.62711864406779,17.264C98.64406779661016,17.264,99.66101694915254,22.924,100.6779661016949,22.948C101.69491525423729,22.972,102.71186440677965,22.96,103.72881355932203,22.984C104.7457627118644,23.008000000000003,105.76271186440678,23.922000000000004,106.77966101694915,25.491999999999997C107.79661016949153,27.061999999999998,108.8135593220339,32.404,109.83050847457628,32.404C110.84745762711864,32.404,111.86440677966102,21.528,112.88135593220339,21.528C113.89830508474576,21.528,114.91525423728814,22.415333333333333,115.9322033898305,22.848C116.94915254237289,23.280666666666665,117.96610169491525,23.389333333333326,118.98305084745763,24.124C120,24.858666666666664,121.01694915254237,27.256,122.03389830508473,27.256C123.05084745762711,27.256,124.0677966101695,27.212,125.08474576271188,27.212C126.10169491525424,27.212,127.11864406779662,28.569333333333326,128.135593220339,30.003999999999998C129.15254237288136,31.438666666666663,130.16949152542372,35.82,131.1864406779661,35.82C132.20338983050846,35.82,133.22033898305085,26.879999999999995,134.23728813559322,26.879999999999995C135.25423728813558,26.879999999999995,136.27118644067798,28.25333333333333,137.28813559322035,28.875999999999998C138.3050847457627,29.498666666666665,139.3220338983051,30.101999999999997,140.33898305084747,30.616C141.35593220338984,31.129999999999995,142.3728813559322,31.959999999999997,143.38983050847457,31.959999999999997C144.40677966101694,31.959999999999997,145.42372881355934,31.832,146.4406779661017,31.832C147.45762711864407,31.832,148.47457627118644,32.26200000000001,149.4915254237288,33.08C150.50847457627117,33.897999999999996,151.52542372881356,36.74,152.54237288135593,36.74C153.5593220338983,36.74,154.5762711864407,30.152,155.59322033898306,30.152C156.61016949152543,30.152,157.6271186440678,30.236,158.64406779661016,30.404C159.66101694915253,30.572,160.67796610169492,33.504,161.6949152542373,33.504C162.71186440677965,33.504,163.72881355932205,33.112,164.74576271186442,33.112C165.76271186440678,33.112,166.77966101694915,33.72066666666667,167.79661016949152,34.108000000000004C168.81355932203388,34.49533333333334,169.83050847457628,34.832,170.84745762711864,35.436C171.864406779661,36.04,172.8813559322034,37.732,173.89830508474577,37.732C174.91525423728814,37.732,175.93220338983053,33.879999999999995,176.9491525423729,33.879999999999995C177.96610169491527,33.879999999999995,178.98305084745763,34.007999999999996,180,34.135999999999996"></path><path class="axis-ceiling" stroke-width="1" stroke="black" fill="none" d="M175,0L180,0"></path><text class="axis-ceiling-label" font-family="sans-serif" text-anchor="end" font-size="10px" x="170" y="2.5">10000</text></g></svg>