<svg xmlns="http://www.w3.org/2000/svg" viewBox="0 0 180 60"><g transform="translate(0,20)"><path class="area" fill="rgba(0, 0, 0, 0.2)" d="M0,39.946666666666665C1.0344827586206897,39.946666666666665,2.068965517241379,39.946666666666665,3.103448275862069,39.946666666666665C4.137931034482759,39.946666666666665,5.172413793103448,39.92,6.206896551724138,39.92C7.241379310344827,39.92,8.275862068965516,40,9.310344827586206,40C10.344827586206897,40,11.379310344827585,39.99333333333333,12.413793103448276,39.986666666666665C13.448275862068966,39.98,14.482758620689655,39.96666666666667,15.517241379310345,39.96C16.551724137931036,39.95333333333333,17.586206896551722,39.946666666666665,18.620689655172413,39.946666666666665C19.655172413793103,39.946666666666665,20.689655172413794,39.986666666666665,21.724137931034484,39.986666666666665C22.758620689655174,39.986666666666665,23.79310344827586,39.95777777777778,24.82758620689655,39.946666666666665C25.862068965517242,39.93555555555555,26.896551724137932,39.92,27.931034482758623,39.92C28.965517241379313,39.92,30,39.92,31.03448275862069,39.92C32.06896551724138,39.92,33.103448275862064,39.92444444444445,34.137931034482754,39.93333333333333C35.172413793103445,39.94222222222221,36.206896551724135,39.97333333333333,37.241379310344826,39.97333333333333C38.275862068965516,39.97333333333333,39.310344827586206,39.85333333333333,40.3448275862069,39.85333333333333C41.37931034482759,39.85333333333333,42.41379310344828,39.86666666666667,43.44827586206897,39.86666666666667C44.48275862068966,39.86666666666667,45.51724137931035,39.83555555555556,46.55172413793104,39.82666666666667C47.58620689655173,39.81777777777778,48.62068965517241,39.81333333333333,49.6551724137931,39.81333333333333C50.689655172413794,39.81333333333333,51.72413793103448,39.906666666666666,52.75862068965517,39.906666666666666C53.79310344827586,39.906666666666666,54.827586206896555,39.906666666666666,55.862068965517246,39.906666666666666C56.896551724137936,39.906666666666666,57.93103448275862,39.81111111111112,58.96551724137931,39.74666666666667C60,39.68222222222222,61.03448275862069,39.519999999999996,62.06896551724138,39.519999999999996C63.10344827586207,39.519999999999996,64.13793103448276,39.733333333333334,65.17241379310344,39.733333333333334C66.20689655172413,39.733333333333334,67.24137931034483,39.733333333333334,68.27586206896551,39.733333333333334C69.3103448275862,39.733333333333334,70.34482758620689,39.76222222222222,71.37931034482759,39.77333333333333C72.41379310344827,39.784444444444446,73.44827586206897,39.8,74.48275862068965,39.8C75.51724137931033,39.8,76.55172413793103,39.74,77.58620689655172,39.70666666666667C78.62068965517241,39.67333333333334,79.6551724137931,39.67111111111112,80.6896551724138,39.6C81.72413793103448,39.528888888888886,82.75862068965517,38.97555555555555,83.79310344827586,38.77333333333333C84.82758620689656,38.57111111111111,85.86206896551724,38.537777777777784,86.89655172413794,38.38666666666667C87.93103448275862,38.23555555555556,88.96551724137932,37.946666666666665,90,37.86666666666667C91.0344827586207,37.78666666666667,92.06896551724138,37.82666666666667,93.10344827586208,37.74666666666667C94.13793103448276,37.66666666666667,95.17241379310344,37.13333333333333,96.20689655172413,37.13333333333333C97.24137931034483,37.13333333333333,98.27586206896551,38.32,99.3103448275862,38.32C100.3448275862069,38.32,101.37931034482759,38.29777777777778,102.41379310344828,38.25333333333334C103.44827586206897,38.20888888888889,104.48275862068965,35.473333333333336,105.51724137931033,34.50666666666667C106.55172413793103,33.53999999999999,107.58620689655172,33.028888888888886,108.62068965517241,32.45333333333333C109.65517241379311,31.877777777777776,110.6896551724138,31.40666666666667,111.72413793103449,31.053333333333335C112.75862068965517,30.700000000000003,113.79310344827587,30.724444444444444,114.82758620689656,30.333333333333332C115.86206896551724,29.94222222222222,116.89655172413794,28.706666666666667,117.93103448275862,28.706666666666667C118.96551724137932,28.706666666666667,120,32.653333333333336,121.0344827586207,32.653333333333336C122.06896551724138,32.653333333333336,123.10344827586208,27.79333333333334,124.13793103448276,26.34666666666667C125.17241379310344,24.900000000000002,126.20689655172414,24.631111111111107,127.24137931034483,23.97333333333333C128.27586206896552,23.31555555555555,129.3103448275862,22.988888888888887,130.3448275862069,22.400000000000002C131.3793103448276,21.811111111111114,132.41379310344828,20.913333333333338,133.44827586206898,20.44C134.48275862068965,19.966666666666676,135.51724137931035,19.56,136.55172413793102,19.56C137.58620689655172,19.56,138.6206896551724,19.72,139.6551724137931,20.04C140.6896551724138,20.359999999999996,141.72413793103448,26.506666666666668,142.75862068965517,26.506666666666668C143.79310344827587,26.506666666666668,144.82758620689654,21.04888888888889,145.86206896551724,18.373333333333335C146.89655172413794,15.697777777777778,147.9310344827586,10.453333333333333,148.9655172413793,10.453333333333333C150,10.453333333333333,151.0344827586207,16.96,152.0689655172414,16.96C153.10344827586206,16.96,154.13793103448276,14.74666666666663,155.17241379310343,12.466666666666665C156.20689655172413,10.186666666666659,157.24137931034483,3.2799999999999985,158.27586206896552,3.2799999999999985C159.31034482758622,3.2799999999999985,160.3448275862069,4.831111111111109,161.3793103448276,6.026666666666665C162.41379310344828,7.2222222222222205,163.44827586206895,9.126666666666665,164.48275862068965,10.453333333333333C165.51724137931035,11.780000000000001,166.55172413793102,13.986666666666668,167.58620689655172,13.986666666666668C168.6206896551724,13.986666666666668,169.6551724137931,2.9733333333333345,170.6896551724138,2.9733333333333345C171.7241379310345,2.9733333333333345,172.75862068965517,7.040000000000002,173.79310344827587,7.040000000000002C174.82758620689657,7.040000000000002,175.86206896551724,1.6266666666666652,176.89655172413794,1.6266666666666652C177.93103448275863,1.6266666666666652,178.9655172413793,3.1533333333333324,180,4.68L180,40C178.9655172413793,40,177.93103448275863,40,176.89655172413794,40C175.86206896551724,40,174.82758620689657,40,173.79310344827587,40C172.75862068965517,40,171.7241379310345,40,170.6896551724138,40C169.6551724137931,40,168.6206896551724,40,167.58620689655172,40C166.55172413793102,40,165.51724137931035,40,164.48275862068965,40C163.44827586206895,40,162.41379310344828,40,161.3793103448276,40C160.3448275862069,40,159.31034482758622,40,158.27586206896552,40C157.24137931034483,40,156.20689655172413,40,155.17241379310343,40C154.13793103448276,40,153.10344827586206,40,152.0689655172414,40C151.0344827586207,40,150,40,148.9655172413793,40C147.9310344827586,40,146.89655172413794,40,145.86206896551724,40C144.82758620689654,40,143.79310344827587,40,142.75862068965517,40C141.72413793103448,40,140.6896551724138,40,139.6551724137931,40C138.6206896551724,40,137.58620689655172,40,136.55172413793102,40C135.51724137931035,40,134.48275862068965,40,133.44827586206898,40C132.41379310344828,40,131.3793103448276,40,130.3448275862069,40C129.3103448275862,40,128.27586206896552,40,127.24137931034483,40C126.20689655172414,40,125.17241379310344,40,124.13793103448276,40C123.10344827586208,40,122.06896551724138,40,121.0344827586207,40C120,40,118.96551724137932,40,117.93103448275862,40C116.89655172413794,40,115.86206896551724,40,114.82758620689656,40C113.79310344827587,40,112.75862068965517,40,111.72413793103449,40C110.6896551724138,40,109.65517241379311,40,108.62068965517241,40C107.58620689655172,40,106.55172413793103,40,105.51724137931033,40C104.48275862068965,40,103.44827586206897,40,102.41379310344828,40C101.37931034482759,40,100.3448275862069,40,99.3103448275862,40C98.27586206896551,40,97.24137931034483,40,96.20689655172413,40C95.17241379310344,40,94.13793103448276,40,93.10344827586208,40C92.06896551724138,40,91.0344827586207,40,90,40C88.96551724137932,40,87.93103448275862,40,86.89655172413794,40C85.86206896551724,40,84.82758620689656,40,83.79310344827586,40C82.75862068965517,40,81.72413793103448,40,80.6896551724138,40C79.6551724137931,40,78.62068965517241,40,77.58620689655172,40C76.55172413793103,40,75.51724137931033,40,74.48275862068965,40C73.44827586206897,40,72.41379310344827,40,71.37931034482759,40C70.34482758620689,40,69.3103448275862,40,68.27586206896551,40C67.24137931034483,40,66.20689655172413,40,65.17241379310344,40C64.13793103448276,40,63.10344827586207,40,62.06896551724138,40C61.03448275862069,40,60,40,58.96551724137931,40C57.93103448275862,40,56.896551724137936,40,55.862068965517246,40C54.827586206896555,40,53.79310344827586,40,52.75862068965517,40C51.72413793103448,40,50.689655172413794,40,49.6551724137931,40C48.62068965517241,40,47.58620689655173,40,46.55172413793104,40C45.51724137931035,40,44.48275862068966,40,43.44827586206897,40C42.41379310344828,40,41.37931034482759,40,40.3448275862069,40C39.310344827586206,40,38.275862068965516,40,37.241379310344826,40C36.206896551724135,40,35.172413793103445,40,34.137931034482754,40C33.103448275862064,40,32.06896551724138,40,31.03448275862069,40C30,40,28.965517241379313,40,27.931034482758623,40C26.896551724137932,40,25.862068965517242,40,24.82758620689655,40C23.79310344827586,40,22.758620689655174,40,21.724137931034484,40C20.689655172413794,40,19.655172413793103,40,18.620689655172413,40C17.586206896551722,40,16.551724137931036,40,15.517241379310345,40C14.482758620689655,40,13.448275862068966,40,12.413793103448276,40C11.379310344827585,40,10.344827586206897,40,9.310344827586206,40C8.275862068965516,40,7.241379310344827,40,6.206896551724138,40C5.172413793103448,40,4.137931034482759,40,3.103448275862069,40C2.068965517241379,40,1.0344827586206897,40,0,40Z"></path><path class="line" stroke="black" fill="none" d="M0,39.946666666666665C1.0344827586206897,39.946666666666665,2.068965517241379,39.946666666666665,3.103448275862069,39.946666666666665C4.137931034482759,39.946666666666665,5.172413793103448,39.92,6.206896551724138,39.92C7.241379310344827,39.92,8.275862068965516,40,9.310344827586206,40C10.344827586206897,40,11.379310344827585,39.99333333333333,12.413793103448276,39.986666666666665C13.448275862068966,39.98,14.482758620689655,39.96666666666667,15.517241379310345,39.96C16.551724137931036,39.95333333333333,17.586206896551722,39.946666666666665,18.620689655172413,39.946666666666665C19.655172413793103,39.946666666666665,20.689655172413794,39.986666666666665,21.724137931034484,39.986666666666665C22.758620689655174,39.986666666666665,23.79310344827586,39.95777777777778,24.82758620689655,39.946666666666665C25.862068965517242,39.93555555555555,26.896551724137932,39.92,27.931034482758623,39.92C28.965517241379313,39.92,30,39.92,31.03448275862069,39.92C32.06896551724138,39.92,33.103448275862064,39.92444444444445,34.137931034482754,39.93333333333333C35.172413793103445,39.94222222222221,36.206896551724135,39.97333333333333,37.241379310344826,39.97333333333333C38.275862068965516,39.97333333333333,39.310344827586206,39.85333333333333,40.3448275862069,39.85333333333333C41.37931034482759,39.85333333333333,42.41379310344828,39.86666666666667,43.44827586206897,39.86666666666667C44.48275862068966,39.86666666666667,45.51724137931035,39.83555555555556,46.55172413793104,39.82666666666667C47.58620689655173,39.81777777777778,48.62068965517241,39.81333333333333,49.6551724137931,39.81333333333333C50.689655172413794,39.81333333333333,51.72413793103448,39.906666666666666,52.75862068965517,39.906666666666666C53.79310344827586,39.906666666666666,54.827586206896555,39.906666666666666,55.862068965517246,39.906666666666666C56.896551724137936,39.906666666666666,57.93103448275862,39.81111111111112,58.96551724137931,39.74666666666667C60,39.68222222222222,61.03448275862069,39.519999999999996,62.06896551724138,39.519999999999996C63.10344827586207,39.519999999999996,64.13793103448276,39.733333333333334,65.17241379310344,39.733333333333334C66.20689655172413,39.733333333333334,67.24137931034483,39.733333333333334,68.27586206896551,39.733333333333334C69.3103448275862,39.733333333333334,70.34482758620689,39.76222222222222,71.37931034482759,39.77333333333333C72.41379310344827,39.784444444444446,73.44827586206897,39.8,74.48275862068965,39.8C75.51724137931033,39.8,76.55172413793103,39.74,77.58620689655172,39.70666666666667C78.62068965517241,39.67333333333334,79.6551724137931,39.67111111111112,80.6896551724138,39.6C81.72413793103448,39.528888888888886,82.75862068965517,38.97555555555555,83.79310344827586,38.77333333333333C84.82758620689656,38.57111111111111,85.86206896551724,38.537777777777784,86.89655172413794,38.38666666666667C87.93103448275862,38.23555555555556,88.96551724137932,37.946666666666665,90,37.86666666666667C91.0344827586207,37.78666666666667,92.06896551724138,37.82666666666667,93.10344827586208,37.74666666666667C94.13793103448276,37.66666666666667,95.17241379310344,37.13333333333333,96.20689655172413,37.13333333333333C97.24137931034483,37.13333333333333,98.27586206896551,38.32,99.3103448275862,38.32C100.3448275862069,38.32,101.37931034482759,38.29777777777778,102.41379310344828,38.25333333333334C103.44827586206897,38.20888888888889,104.48275862068965,35.473333333333336,105.51724137931033,34.50666666666667C106.55172413793103,33.53999999999999,107.58620689655172,33.028888888888886,108.62068965517241,32.45333333333333C109.65517241379311,31.877777777777776,110.6896551724138,31.40666666666667,111.72413793103449,31.053333333333335C112.75862068965517,30.700000000000003,113.79310344827587,30.724444444444444,114.82758620689656,30.333333333333332C115.86206896551724,29.94222222222222,116.89655172413794,28.706666666666667,117.93103448275862,28.706666666666667C118.96551724137932,28.706666666666667,120,32.653333333333336,121.0344827586207,32.653333333333336C122.06896551724138,32.653333333333336,123.10344827586208,27.79333333333334,124.13793103448276,26.34666666666667C125.17241379310344,24.900000000000002,126.20689655172414,24.631111111111107,127.24137931034483,23.97333333333333C128.27586206896552,23.31555555555555,129.3103448275862,22.988888888888887,130.3448275862069,22.400000000000002C131.3793103448276,21.811111111111114,132.41379310344828,20.913333333333338,133.44827586206898,20.44C134.48275862068965,19.966666666666676,135.51724137931035,19.56,136.55172413793102,19.56C137.58620689655172,19.56,138.6206896551724,19.72,139.6551724137931,20.04C140.6896551724138,20.359999999999996,141.72413793103448,26.506666666666668,142.75862068965517,26.506666666666668C143.79310344827587,26.506666666666668,144.82758620689654,21.04888888888889,145.86206896551724,18.373333333333335C146.89655172413794,15.697777777777778,147.9310344827586,10.453333333333333,148.9655172413793,10.453333333333333C150,10.453333333333333,151.0344827586207,16.96,152.0689655172414,16.96C153.10344827586206,16.96,154.13793103448276,14.74666666666663,155.17241379310343,12.466666666666665C156.20689655172413,10.186666666666659,157.24137931034483,3.2799999999999985,158.27586206896552,3.2799999999999985C159.31034482758622,3.2799999999999985,160.3448275862069,4.831111111111109,161.3793103448276,6.026666666666665C162.41379310344828,7.2222222222222205,163.44827586206895,9.126666666666665,164.48275862068965,10.453333333333333C165.51724137931035,11.780000000000001,166.55172413793102,13.986666666666668,167.58620689655172,13.986666666666668C168.6206896551724,13.986666666666668,169.6551724137931,2.9733333333333345,170.6896551724138,2.9733333333333345C171.7241379310345,2.9733333333333345,172.75862068965517,7.040000000000002,173.79310344827587,7.040000000000002C174.82758620689657,7.040000000000002,175.86206896551724,1.6266666666666652,176.89655172413794,1.6266666666666652C177.93103448275863,1.6266666666666652,178.9655172413793,3.1533333333333324,180,4.68"></path><path class="axis-ceiling" stroke-width="1" stroke="black" fill="none" d="M175,0L180,0"></path><text class="axis-ceiling-label" font-family="sans-serif" text-anchor="end" font-size="10px" x="170" y="2.5">3000</text></g></svg>