<svg xmlns="http://www.w3.org/2000/svg" viewBox="0 0 180 60"><g transform="translate(0,20)"><path class="area" fill="rgba(0, 0, 0, 0.2)" d="M0,17.626666666666665C1.0344827586206897,17.293333333333333,2.068965517241379,16.96,3.103448275862069,16.96C4.137931034482759,16.96,5.172413793103448,26.186666666666667,6.206896551724138,26.186666666666667C7.241379310344827,26.186666666666667,8.275862068965516,24.24,9.310344827586206,21.36C10.344827586206897,18.48,11.379310344827585,8.906666666666666,12.413793103448276,8.906666666666666C13.448275862068966,8.906666666666666,14.482758620689655,10.084444444444445,15.517241379310345,10.88C16.551724137931036,11.675555555555556,17.586206896551722,13.253333333333334,18.620689655172413,13.68C19.655172413793103,14.106666666666667,20.689655172413794,14.106666666666667,21.724137931034484,14.32C22.758620689655174,14.533333333333333,23.79310344827586,14.533333333333333,24.82758620689655,14.96C25.862068965517242,15.386666666666668,26.896551724137932,24.666666666666668,27.931034482758623,24.666666666666668C28.965517241379313,24.666666666666668,30,23.53777777777778,31.03448275862069,21.28C32.06896551724138,19.022222222222226,33.103448275862064,9.68,34.137931034482754,9.68C35.172413793103445,9.68,36.206896551724135,9.84,37.241379310344826,10.16C38.275862068965516,10.48,39.310344827586206,14.346666666666668,40.3448275862069,14.346666666666668C41.37931034482759,14.346666666666668,42.41379310344828,13.546666666666667,43.44827586206897,13.546666666666667C44.48275862068966,13.546666666666667,45.51724137931035,14.284444444444444,46.55172413793104,15.760000000000002C47.58620689655173,17.235555555555553,48.62068965517241,25.62666666666667,49.6551724137931,25.62666666666667C50.689655172413794,25.62666666666667,51.72413793103448,23.288888888888877,52.75862068965517,20.48C53.79310344827586,17.67111111111111,54.827586206896555,8.773333333333335,55.862068965517246,8.773333333333335C56.896551724137936,8.773333333333335,57.93103448275862,9.342222222222224,58.96551724137931,10.453333333333333C60,11.564444444444444,61.03448275862069,15.36888888888889,62.06896551724138,15.440000000000001C63.10344827586207,15.511111111111113,64.13793103448276,15.475555555555557,65.17241379310344,15.546666666666669C66.20689655172413,15.61777777777778,67.24137931034483,16.10666666666667,68.27586206896551,17.226666666666667C69.3103448275862,18.34666666666667,70.34482758620689,28.32,71.37931034482759,28.32C72.41379310344827,28.32,73.44827586206897,27.546666666666667,74.48275862068965,26C75.51724137931033,24.453333333333333,76.55172413793103,10.346666666666668,77.58620689655172,10.346666666666668C78.62068965517241,10.346666666666668,79.6551724137931,13.711111111111109,80.6896551724138,14.693333333333332C81.72413793103448,15.67555555555555,82.75862068965517,16.240000000000002,83.79310344827586,16.240000000000002C84.82758620689656,16.240000000000002,85.86206896551724,16,86.89655172413794,16C87.93103448275862,16,88.96551724137932,16.524444444444445,90,17.573333333333334C91.0344827586207,18.622222222222227,92.06896551724138,24.37333333333333,93.10344827586208,24.37333333333333C94.13793103448276,24.37333333333333,95.17241379310344,24.008888888888887,96.20689655172413,23.28C97.24137931034483,22.55111111111111,98.27586206896551,8.799999999999999,99.3103448275862,8.799999999999999C100.3448275862069,8.799999999999999,101.37931034482759,11.764444444444432,102.41379310344828,13.439999999999998C103.44827586206897,15.115555555555547,104.48275862068965,16.320000000000018,105.51724137931033,18.853333333333335C106.55172413793103,21.386666666666674,107.58620689655172,28.64,108.62068965517241,28.64C109.65517241379311,28.64,110.6896551724138,26.34666666666667,111.72413793103449,26.34666666666667C112.75862068965517,26.34666666666667,113.79310344827587,29.893333333333338,114.82758620689656,29.893333333333338C115.86206896551724,29.893333333333338,116.89655172413794,20.106666666666662,117.93103448275862,20.106666666666662C118.96551724137932,20.106666666666662,120,21.671111111111106,121.0344827586207,23.46666666666667C122.06896551724138,25.262222222222224,123.10344827586208,30.880000000000003,124.13793103448276,30.880000000000003C125.17241379310344,30.880000000000003,126.20689655172414,29.804444444444446,127.24137931034483,27.653333333333336C128.27586206896552,25.502222222222226,129.3103448275862,19.555555555555546,130.3448275862069,16.426666666666666C131.3793103448276,13.297777777777757,132.41379310344828,8.879999999999999,133.44827586206898,8.879999999999999C134.48275862068965,8.879999999999999,135.51724137931035,25.44,136.55172413793102,25.44C137.58620689655172,25.44,138.6206896551724,20.022222222222233,139.6551724137931,17.733333333333334C140.6896551724138,15.444444444444459,141.72413793103448,11.706666666666665,142.75862068965517,11.706666666666665C143.79310344827587,11.706666666666665,144.82758620689654,14.524444444444443,145.86206896551724,15.04C146.89655172413794,15.555555555555555,147.9310344827586,15.582222222222223,148.9655172413793,15.813333333333333C150,16.044444444444444,151.0344827586207,16.426666666666666,152.0689655172414,16.426666666666666C153.10344827586206,16.426666666666666,154.13793103448276,15.973333333333333,155.17241379310343,15.973333333333333C156.20689655172413,15.973333333333333,157.24137931034483,28.799999999999997,158.27586206896552,28.799999999999997C159.31034482758622,28.799999999999997,160.3448275862069,21.493333333333332,161.3793103448276,18.266666666666666C162.41379310344828,15.04,163.44827586206895,9.44,164.48275862068965,9.44C165.51724137931035,9.44,166.55172413793102,15.297777777777782,167.58620689655172,15.600000000000001C168.6206896551724,15.902222222222223,169.6551724137931,15.857777777777779,170.6896551724138,16.053333333333335C171.7241379310345,16.24888888888889,172.75862068965517,16.586666666666666,173.79310344827587,16.773333333333333C174.82758620689657,16.96,175.86206896551724,16.906666666666666,176.89655172413794,17.173333333333332C177.93103448275863,17.439999999999998,178.9655172413793,23.426666666666666,180,29.413333333333334L180,40C178.9655172413793,40,177.93103448275863,40,176.89655172413794,40C175.86206896551724,40,174.82758620689657,40,173.79310344827587,40C172.75862068965517,40,171.7241379310345,40,170.6896551724138,40C169.6551724137931,40,168.6206896551724,40,167.58620689655172,40C166.55172413793102,40,165.51724137931035,40,164.48275862068965,40C163.44827586206895,40,162.41379310344828,40,161.3793103448276,40C160.3448275862069,40,159.31034482758622,40,158.27586206896552,40C157.24137931034483,40,156.20689655172413,40,155.17241379310343,40C154.13793103448276,40,153.10344827586206,40,152.0689655172414,40C151.0344827586207,40,150,40,148.9655172413793,40C147.9310344827586,40,146.89655172413794,40,145.86206896551724,40C144.82758620689654,40,143.79310344827587,40,142.75862068965517,40C141.72413793103448,40,140.6896551724138,40,139.6551724137931,40C138.6206896551724,40,137.58620689655172,40,136.55172413793102,40C135.51724137931035,40,134.48275862068965,40,133.44827586206898,40C132.41379310344828,40,131.3793103448276,40,130.3448275862069,40C129.3103448275862,40,128.27586206896552,40,127.24137931034483,40C126.20689655172414,40,125.17241379310344,40,124.13793103448276,40C123.10344827586208,40,122.06896551724138,40,121.0344827586207,40C120,40,118.96551724137932,40,117.93103448275862,40C116.89655172413794,40,115.86206896551724,40,114.82758620689656,40C113.79310344827587,40,112.75862068965517,40,111.72413793103449,40C110.6896551724138,40,109.65517241379311,40,108.62068965517241,40C107.58620689655172,40,106.55172413793103,40,105.51724137931033,40C104.48275862068965,40,103.44827586206897,40,102.41379310344828,40C101.37931034482759,40,100.3448275862069,40,99.3103448275862,40C98.27586206896551,40,97.24137931034483,40,96.20689655172413,40C95.17241379310344,40,94.13793103448276,40,93.10344827586208,40C92.06896551724138,40,91.0344827586207,40,90,40C88.96551724137932,40,87.93103448275862,40,86.89655172413794,40C85.86206896551724,40,84.82758620689656,40,83.79310344827586,40C82.75862068965517,40,81.72413793103448,40,80.6896551724138,40C79.6551724137931,40,78.62068965517241,40,77.58620689655172,40C76.55172413793103,40,75.51724137931033,40,74.48275862068965,40C73.44827586206897,40,72.41379310344827,40,71.37931034482759,40C70.34482758620689,40,69.3103448275862,40,68.27586206896551,40C67.24137931034483,40,66.20689655172413,40,65.17241379310344,40C64.13793103448276,40,63.10344827586207,40,62.06896551724138,40C61.03448275862069,40,60,40,58.96551724137931,40C57.93103448275862,40,56.896551724137936,40,55.862068965517246,40C54.827586206896555,40,53.79310344827586,40,52.75862068965517,40C51.72413793103448,40,50.689655172413794,40,49.6551724137931,40C48.62068965517241,40,47.58620689655173,40,46.55172413793104,40C45.51724137931035,40,44.48275862068966,40,43.44827586206897,40C42.41379310344828,40,41.37931034482759,40,40.3448275862069,40C39.310344827586206,40,38.275862068965516,40,37.241379310344826,40C36.206896551724135,40,35.172413793103445,40,34.137931034482754,40C33.103448275862064,40,32.06896551724138,40,31.03448275862069,40C30,40,28.965517241379313,40,27.931034482758623,40C26.896551724137932,40,25.862068965517242,40,24.82758620689655,40C23.79310344827586,40,22.758620689655174,40,21.724137931034484,40C20.689655172413794,40,19.655172413793103,40,18.620689655172413,40C17.586206896551722,40,16.551724137931036,40,15.517241379310345,40C14.482758620689655,40,13.448275862068966,40,12.413793103448276,40C11.379310344827585,40,10.344827586206897,40,9.310344827586206,40C8.275862068965516,40,7.241379310344827,40,6.206896551724138,40C5.172413793103448,40,4.137931034482759,40,3.103448275862069,40C2.068965517241379,40,1.0344827586206897,40,0,40Z"></path><path class="line" stroke="black" fill="none" d="M0,17.626666666666665C1.0344827586206897,17.293333333333333,2.068965517241379,16.96,3.103448275862069,16.96C4.137931034482759,16.96,5.172413793103448,26.186666666666667,6.206896551724138,26.186666666666667C7.241379310344827,26.186666666666667,8.275862068965516,24.24,9.310344827586206,21.36C10.344827586206897,18.48,11.379310344827585,8.906666666666666,12.413793103448276,8.906666666666666C13.448275862068966,8.906666666666666,14.482758620689655,10.084444444444445,15.517241379310345,10.88C16.551724137931036,11.675555555555556,17.586206896551722,13.253333333333334,18.620689655172413,13.68C19.655172413793103,14.106666666666667,20.689655172413794,14.106666666666667,21.724137931034484,14.32C22.758620689655174,14.533333333333333,23.79310344827586,14.533333333333333,24.82758620689655,14.96C25.862068965517242,15.386666666666668,26.896551724137932,24.666666666666668,27.931034482758623,24.666666666666668C28.965517241379313,24.666666666666668,30,23.53777777777778,31.03448275862069,21.28C32.06896551724138,19.022222222222226,33.103448275862064,9.68,34.137931034482754,9.68C35.172413793103445,9.68,36.206896551724135,9.84,37.241379310344826,10.16C38.275862068965516,10.48,39.310344827586206,14.346666666666668,40.3448275862069,14.346666666666668C41.37931034482759,14.346666666666668,42.41379310344828,13.546666666666667,43.44827586206897,13.546666666666667C44.48275862068966,13.546666666666667,45.51724137931035,14.284444444444444,46.55172413793104,15.760000000000002C47.58620689655173,17.235555555555553,48.62068965517241,25.62666666666667,49.6551724137931,25.62666666666667C50.689655172413794,25.62666666666667,51.72413793103448,23.288888888888877,52.75862068965517,20.48C53.79310344827586,17.67111111111111,54.827586206896555,8.773333333333335,55.862068965517246,8.773333333333335C56.896551724137936,8.773333333333335,57.93103448275862,9.342222222222224,58.96551724137931,10.453333333333333C60,11.564444444444444,61.03448275862069,15.36888888888889,62.06896551724138,15.440000000000001C63.10344827586207,15.511111111111113,64.13793103448276,15.475555555555557,65.17241379310344,15.546666666666669C66.20689655172413,15.61777777777778,67.24137931034483,16.10666666666667,68.27586206896551,17.226666666666667C69.3103448275862,18.34666666666667,70.34482758620689,28.32,71.37931034482759,28.32C72.41379310344827,28.32,73.44827586206897,27.546666666666667,74.48275862068965,26C75.51724137931033,24.453333333333333,76.55172413793103,10.346666666666668,77.58620689655172,10.346666666666668C78.62068965517241,10.346666666666668,79.6551724137931,13.711111111111109,80.6896551724138,14.693333333333332C81.72413793103448,15.67555555555555,82.75862068965517,16.240000000000002,83.79310344827586,16.240000000000002C84.82758620689656,16.240000000000002,85.86206896551724,16,86.89655172413794,16C87.93103448275862,16,88.96551724137932,16.524444444444445,90,17.573333333333334C91.0344827586207,18.622222222222227,92.06896551724138,24.37333333333333,93.10344827586208,24.37333333333333C94.13793103448276,24.37333333333333,95.17241379310344,24.008888888888887,96.20689655172413,23.28C97.24137931034483,22.55111111111111,98.27586206896551,8.799999999999999,99.3103448275862,8.799999999999999C100.3448275862069,8.799999999999999,101.37931034482759,11.764444444444432,102.41379310344828,13.439999999999998C103.44827586206897,15.115555555555547,104.48275862068965,16.320000000000018,105.51724137931033,18.853333333333335C106.55172413793103,21.386666666666674,107.58620689655172,28.64,108.62068965517241,28.64C109.65517241379311,28.64,110.6896551724138,26.34666666666667,111.72413793103449,26.34666666666667C112.75862068965517,26.34666666666667,113.79310344827587,29.893333333333338,114.82758620689656,29.893333333333338C115.86206896551724,29.893333333333338,116.89655172413794,20.106666666666662,117.93103448275862,20.106666666666662C118.96551724137932,20.106666666666662,120,21.671111111111106,121.0344827586207,23.46666666666667C122.06896551724138,25.262222222222224,123.10344827586208,30.880000000000003,124.13793103448276,30.880000000000003C125.17241379310344,30.880000000000003,126.20689655172414,29.804444444444446,127.24137931034483,27.653333333333336C128.27586206896552,25.502222222222226,129.3103448275862,19.555555555555546,130.3448275862069,16.426666666666666C131.3793103448276,13.297777777777757,132.41379310344828,8.879999999999999,133.44827586206898,8.879999999999999C134.48275862068965,8.879999999999999,135.51724137931035,25.44,136.55172413793102,25.44C137.58620689655172,25.44,138.6206896551724,20.022222222222233,139.6551724137931,17.733333333333334C140.6896551724138,15.444444444444459,141.72413793103448,11.706666666666665,142.75862068965517,11.706666666666665C143.79310344827587,11.706666666666665,144.82758620689654,14.524444444444443,145.86206896551724,15.04C146.89655172413794,15.555555555555555,147.9310344827586,15.582222222222223,148.9655172413793,15.813333333333333C150,16.044444444444444,151.0344827586207,16.426666666666666,152.0689655172414,16.426666666666666C153.10344827586206,16.426666666666666,154.13793103448276,15.973333333333333,155.17241379310343,15.973333333333333C156.20689655172413,15.973333333333333,157.24137931034483,28.799999999999997,158.27586206896552,28.799999999999997C159.31034482758622,28.799999999999997,160.3448275862069,21.493333333333332,161.3793103448276,18.266666666666666C162.41379310344828,15.04,163.44827586206895,9.44,164.48275862068965,9.44C165.51724137931035,9.44,166.55172413793102,15.297777777777782,167.58620689655172,15.600000000000001C168.6206896551724,15.902222222222223,169.6551724137931,15.857777777777779,170.6896551724138,16.053333333333335C171.7241379310345,16.24888888888889,172.75862068965517,16.586666666666666,173.79310344827587,16.773333333333333C174.82758620689657,16.96,175.86206896551724,16.906666666666666,176.89655172413794,17.173333333333332C177.93103448275863,17.439999999999998,178.9655172413793,23.426666666666666,180,29.413333333333334"></path><path class="axis-ceiling" stroke-width="1" stroke="black" fill="none" d="M175,0L180,0"></path><text class="axis-ceiling-label" font-family="sans-serif" text-anchor="end" font-size="10px" x="170" y="2.5">1500</text></g></svg>