<svg xmlns="http://www.w3.org/2000/svg" viewBox="0 0 180 60"><g transform="translate(0,20)"><path class="area" fill="rgba(0, 0, 0, 0.2)" d="M0,23.759999999999998C1.0169491525423728,20.919999999999998,2.0338983050847457,18.08,3.0508474576271185,18.08C4.067796610169491,18.08,5.084745762711864,18.09333333333333,6.101694915254237,18.119999999999997C7.11864406779661,18.146666666666665,8.135593220338983,18.186666666666664,9.152542372881356,18.32C10.169491525423728,18.453333333333337,11.186440677966102,25.2,12.203389830508474,25.2C13.220338983050846,25.2,14.23728813559322,16.520000000000003,15.254237288135592,16.520000000000003C16.271186440677965,16.520000000000003,17.28813559322034,18.759999999999998,18.305084745762713,18.759999999999998C19.322033898305087,18.759999999999998,20.338983050847457,15.68,21.35593220338983,15.68C22.372881355932204,15.68,23.389830508474574,19.04,24.406779661016948,19.04C25.423728813559322,19.04,26.440677966101696,18.4,27.45762711864407,18.4C28.47457627118644,18.4,29.491525423728813,19.940000000000005,30.508474576271183,21.240000000000002C31.525423728813557,22.540000000000003,32.54237288135593,26.200000000000003,33.559322033898304,26.200000000000003C34.57627118644068,26.200000000000003,35.59322033898305,23.406666666666673,36.610169491525426,22.160000000000004C37.6271186440678,20.913333333333338,38.644067796610166,18.72,39.66101694915254,18.72C40.67796610169491,18.72,41.69491525423729,19.813333333333333,42.71186440677966,20.880000000000003C43.728813559322035,21.94666666666667,44.7457627118644,25.12,45.762711864406775,25.12C46.77966101694915,25.12,47.79661016949152,23.759999999999998,48.813559322033896,23.759999999999998C49.83050847457627,23.759999999999998,50.847457627118644,25.453333333333333,51.86440677966102,26.44C52.88135593220339,27.42666666666667,53.898305084745765,29.68,54.91525423728814,29.68C55.93220338983051,29.68,56.94915254237288,29.180000000000003,57.96610169491525,28.360000000000003C58.983050847457626,27.540000000000003,59.99999999999999,24.759999999999998,61.01694915254237,24.759999999999998C62.03389830508474,24.759999999999998,63.05084745762712,27.926666666666662,64.0677966101695,29.2C65.08474576271186,30.47333333333333,66.10169491525424,32.400000000000006,67.11864406779661,32.400000000000006C68.13559322033899,32.400000000000006,69.15254237288136,32.04,70.16949152542374,32.04C71.1864406779661,32.04,72.20338983050848,32.08,73.22033898305085,32.160000000000004C74.23728813559322,32.24000000000001,75.2542372881356,36.04,76.27118644067797,36.04C77.28813559322033,36.04,78.30508474576271,35.78666666666667,79.32203389830508,35.28C80.33898305084746,34.77333333333333,81.35593220338983,32.92,82.37288135593221,32.92C83.38983050847457,32.92,84.40677966101696,33.586666666666666,85.42372881355932,33.96C86.4406779661017,34.333333333333336,87.45762711864407,34.87333333333333,88.47457627118645,35.16C89.49152542372882,35.44666666666666,90.50847457627118,35.36000000000001,91.52542372881355,35.68C92.54237288135593,36,93.55932203389831,36.67333333333333,94.57627118644069,37.08C95.59322033898306,37.48666666666666,96.61016949152543,37.82666666666667,97.62711864406779,38.12C98.64406779661016,38.413333333333334,99.66101694915254,38.839999999999996,100.6779661016949,38.839999999999996C101.69491525423729,38.839999999999996,102.71186440677965,38.093333333333334,103.72881355932203,37.56C104.7457627118644,37.02666666666667,105.76271186440678,35.64,106.77966101694915,35.64C107.79661016949153,35.64,108.8135593220339,38.44,109.83050847457628,38.44C110.84745762711864,38.44,111.86440677966102,38.013333333333335,112.88135593220339,37.96C113.89830508474576,37.906666666666666,114.91525423728814,37.879999999999995,115.9322033898305,37.879999999999995C116.94915254237289,37.879999999999995,117.96610169491525,38.92,118.98305084745763,38.92C120,38.92,121.01694915254237,37.986666666666665,122.03389830508473,37.96C123.05084745762711,37.93333333333334,124.0677966101695,37.92,125.08474576271188,37.92C126.10169491525424,37.92,127.11864406779662,38.12666666666666,128.135593220339,38.239999999999995C129.15254237288136,38.353333333333325,130.16949152542372,38.54666666666667,131.1864406779661,38.6C132.20338983050846,38.653333333333336,133.22033898305085,38.626666666666665,134.23728813559322,38.68C135.25423728813558,38.733333333333334,136.27118644067798,38.806666666666665,137.28813559322035,38.96C138.3050847457627,39.11333333333334,139.3220338983051,39.6,140.33898305084747,39.6C141.35593220338984,39.6,142.3728813559322,39.373333333333335,143.38983050847457,39.24C144.40677966101694,39.10666666666667,145.42372881355934,38.8,146.4406779661017,38.8C147.45762711864407,38.8,148.47457627118644,38.89333333333334,149.4915254237288,38.92C150.50847457627117,38.946666666666665,151.52542372881356,38.93333333333334,152.54237288135593,38.96C153.5593220338983,38.986666666666665,154.5762711864407,39.2,155.59322033898306,39.2C156.61016949152543,39.2,157.6271186440678,39.04,158.64406779661016,39.04C159.66101694915253,39.04,160.67796610169492,39.68,161.6949152542373,39.68C162.71186440677965,39.68,163.72881355932205,39.60666666666666,164.74576271186442,39.519999999999996C165.76271186440678,39.43333333333333,166.77966101694915,39.16,167.79661016949152,39.16C168.81355932203388,39.16,169.83050847457628,39.64,170.84745762711864,39.64C171.864406779661,39.64,172.8813559322034,39.48,173.89830508474577,39.48C174.91525423728814,39.48,175.93220338983053,39.593333333333334,176.9491525423729,39.64C177.96610169491527,39.68666666666667,178.98305084745763,39.72333333333333,180,39.76L180,40C178.98305084745763,40,177.96610169491527,40,176.9491525423729,40C175.93220338983053,40,174.91525423728814,40,173.89830508474577,40C172.8813559322034,40,171.864406779661,40,170.84745762711864,40C169.83050847457628,40,168.81355932203388,40,167.79661016949152,40C166.77966101694915,40,165.76271186440678,40,164.74576271186442,40C163.72881355932205,40,162.71186440677965,40,161.6949152542373,40C160.67796610169492,40,159.66101694915253,40,158.64406779661016,40C157.6271186440678,40,156.61016949152543,40,155.59322033898306,40C154.5762711864407,40,153.5593220338983,40,152.54237288135593,40C151.52542372881356,40,150.50847457627117,40,149.4915254237288,40C148.47457627118644,40,147.45762711864407,40,146.4406779661017,40C145.42372881355934,40,144.40677966101694,40,143.38983050847457,40C142.3728813559322,40,141.35593220338984,40,140.33898305084747,40C139.3220338983051,40,138.3050847457627,40,137.28813559322035,40C136.27118644067798,40,135.25423728813558,40,134.23728813559322,40C133.22033898305085,40,132.20338983050846,40,131.1864406779661,40C130.16949152542372,40,129.15254237288136,40,128.135593220339,40C127.11864406779662,40,126.10169491525424,40,125.08474576271188,40C124.0677966101695,40,123.05084745762711,40,122.03389830508473,40C121.01694915254237,40,120,40,118.98305084745763,40C117.96610169491525,40,116.94915254237289,40,115.9322033898305,40C114.91525423728814,40,113.89830508474576,40,112.88135593220339,40C111.86440677966102,40,110.84745762711864,40,109.83050847457628,40C108.8135593220339,40,107.79661016949153,40,106.77966101694915,40C105.76271186440678,40,104.7457627118644,40,103.72881355932203,40C102.71186440677965,40,101.69491525423729,40,100.6779661016949,40C99.66101694915254,40,98.64406779661016,40,97.62711864406779,40C96.61016949152543,40,95.59322033898306,40,94.57627118644069,40C93.55932203389831,40,92.54237288135593,40,91.52542372881355,40C90.50847457627118,40,89.49152542372882,40,88.47457627118645,40C87.45762711864407,40,86.4406779661017,40,85.42372881355932,40C84.40677966101696,40,83.38983050847457,40,82.37288135593221,40C81.35593220338983,40,80.33898305084746,40,79.32203389830508,40C78.30508474576271,40,77.28813559322033,40,76.27118644067797,40C75.2542372881356,40,74.23728813559322,40,73.22033898305085,40C72.20338983050848,40,71.1864406779661,40,70.16949152542374,40C69.15254237288136,40,68.13559322033899,40,67.11864406779661,40C66.10169491525424,40,65.08474576271186,40,64.0677966101695,40C63.05084745762712,40,62.03389830508474,40,61.01694915254237,40C59.99999999999999,40,58.983050847457626,40,57.96610169491525,40C56.94915254237288,40,55.93220338983051,40,54.91525423728814,40C53.898305084745765,40,52.88135593220339,40,51.86440677966102,40C50.847457627118644,40,49.83050847457627,40,48.813559322033896,40C47.79661016949152,40,46.77966101694915,40,45.762711864406775,40C44.7457627118644,40,43.728813559322035,40,42.71186440677966,40C41.69491525423729,40,40.67796610169491,40,39.66101694915254,40C38.644067796610166,40,37.6271186440678,40,36.610169491525426,40C35.59322033898305,40,34.57627118644068,40,33.559322033898304,40C32.54237288135593,40,31.525423728813557,40,30.508474576271183,40C29.491525423728813,40,28.47457627118644,40,27.45762711864407,40C26.440677966101696,40,25.423728813559322,40,24.406779661016948,40C23.389830508474574,40,22.372881355932204,40,21.35593220338983,40C20.338983050847457,40,19.322033898305087,40,18.305084745762713,40C17.28813559322034,40,16.271186440677965,40,15.254237288135592,40C14.23728813559322,40,13.220338983050846,40,12.203389830508474,40C11.186440677966102,40,10.169491525423728,40,9.152542372881356,40C8.135593220338983,40,7.11864406779661,40,6.101694915254237,40C5.084745762711864,40,4.067796610169491,40,3.0508474576271185,40C2.0338983050847457,40,1.0169491525423728,40,0,40Z"></path><path class="line" stroke="black" fill="none" d="M0,23.759999999999998C1.0169491525423728,20.919999999999998,2.0338983050847457,18.08,3.0508474576271185,18.08C4.067796610169491,18.08,5.084745762711864,18.09333333333333,6.101694915254237,18.119999999999997C7.11864406779661,18.146666666666665,8.135593220338983,18.186666666666664,9.152542372881356,18.32C10.169491525423728,18.453333333333337,11.186440677966102,25.2,12.203389830508474,25.2C13.220338983050846,25.2,14.23728813559322,16.520000000000003,15.254237288135592,16.520000000000003C16.271186440677965,16.520000000000003,17.28813559322034,18.759999999999998,18.305084745762713,18.759999999999998C19.322033898305087,18.759999999999998,20.338983050847457,15.68,21.35593220338983,15.68C22.372881355932204,15.68,23.389830508474574,19.04,24.406779661016948,19.04C25.423728813559322,19.04,26.440677966101696,18.4,27.45762711864407,18.4C28.47457627118644,18.4,29.491525423728813,19.940000000000005,30.508474576271183,21.240000000000002C31.525423728813557,22.540000000000003,32.54237288135593,26.200000000000003,33.559322033898304,26.200000000000003C34.57627118644068,26.200000000000003,35.59322033898305,23.406666666666673,36.610169491525426,22.160000000000004C37.6271186440678,20.913333333333338,38.644067796610166,18.72,39.66101694915254,18.72C40.67796610169491,18.72,41.69491525423729,19.813333333333333,42.71186440677966,20.880000000000003C43.728813559322035,21.94666666666667,44.7457627118644,25.12,45.762711864406775,25.12C46.77966101694915,25.12,47.79661016949152,23.759999999999998,48.813559322033896,23.759999999999998C49.83050847457627,23.759999999999998,50.847457627118644,25.453333333333333,51.86440677966102,26.44C52.88135593220339,27.42666666666667,53.898305084745765,29.68,54.91525423728814,29.68C55.93220338983051,29.68,56.94915254237288,29.180000000000003,57.96610169491525,28.360000000000003C58.983050847457626,27.540000000000003,59.99999999999999,24.759999999999998,61.01694915254237,24.759999999999998C62.03389830508474,24.759999999999998,63.05084745762712,27.926666666666662,64.0677966101695,29.2C65.08474576271186,30.47333333333333,66.10169491525424,32.400000000000006,67.11864406779661,32.400000000000006C68.13559322033899,32.400000000000006,69.15254237288136,32.04,70.16949152542374,32.04C71.1864406779661,32.04,72.20338983050848,32.08,73.22033898305085,32.160000000000004C74.23728813559322,32.24000000000001,75.2542372881356,36.04,76.27118644067797,36.04C77.28813559322033,36.04,78.30508474576271,35.78666666666667,79.32203389830508,35.28C80.33898305084746,34.77333333333333,81.35593220338983,32.92,82.37288135593221,32.92C83.38983050847457,32.92,84.40677966101696,33.586666666666666,85.42372881355932,33.96C86.4406779661017,34.333333333333336,87.45762711864407,34.87333333333333,88.47457627118645,35.16C89.49152542372882,35.44666666666666,90.50847457627118,35.36000000000001,91.52542372881355,35.68C92.54237288135593,36,93.55932203389831,36.67333333333333,94.57627118644069,37.08C95.59322033898306,37.48666666666666,96.61016949152543,37.82666666666667,97.62711864406779,38.12C98.64406779661016,38.413333333333334,99.66101694915254,38.839999999999996,100.6779661016949,38.839999999999996C101.69491525423729,38.839999999999996,102.71186440677965,38.093333333333334,103.72881355932203,37.56C104.7457627118644,37.02666666666667,105.76271186440678,35.64,106.77966101694915,35.64C107.79661016949153,35.64,108.8135593220339,38.44,109.83050847457628,38.44C110.84745762711864,38.44,111.86440677966102,38.013333333333335,112.88135593220339,37.96C113.89830508474576,37.906666666666666,114.91525423728814,37.879999999999995,115.9322033898305,37.879999999999995C116.94915254237289,37.879999999999995,117.96610169491525,38.92,118.98305084745763,38.92C120,38.92,121.01694915254237,37.986666666666665,122.03389830508473,37.96C123.05084745762711,37.93333333333334,124.0677966101695,37.92,125.08474576271188,37.92C126.10169491525424,37.92,127.11864406779662,38.12666666666666,128.135593220339,38.239999999999995C129.15254237288136,38.353333333333325,130.16949152542372,38.54666666666667,131.1864406779661,38.6C132.20338983050846,38.653333333333336,133.22033898305085,38.626666666666665,134.23728813559322,38.68C135.25423728813558,38.733333333333334,136.27118644067798,38.806666666666665,137.28813559322035,38.96C138.3050847457627,39.11333333333334,139.3220338983051,39.6,140.33898305084747,39.6C141.35593220338984,39.6,142.3728813559322,39.373333333333335,143.38983050847457,39.24C144.40677966101694,39.10666666666667,145.42372881355934,38.8,146.4406779661017,38.8C147.45762711864407,38.8,148.47457627118644,38.89333333333334,149.4915254237288,38.92C150.50847457627117,38.946666666666665,151.52542372881356,38.93333333333334,152.54237288135593,38.96C153.5593220338983,38.986666666666665,154.5762711864407,39.2,155.59322033898306,39.2C156.61016949152543,39.2,157.6271186440678,39.04,158.64406779661016,39.04C159.66101694915253,39.04,160.67796610169492,39.68,161.6949152542373,39.68C162.71186440677965,39.68,163.72881355932205,39.60666666666666,164.74576271186442,39.519999999999996C165.76271186440678,39.43333333333333,166.77966101694915,39.16,167.79661016949152,39.16C168.81355932203388,39.16,169.83050847457628,39.64,170.84745762711864,39.64C171.864406779661,39.64,172.8813559322034,39.48,173.89830508474577,39.48C174.91525423728814,39.48,175.93220338983053,39.593333333333334,176.9491525423729,39.64C177.96610169491527,39.68666666666667,178.98305084745763,39.72333333333333,180,39.76"></path><path class="axis-ceiling" stroke-width="1" stroke="black" fill="none" d="M175,0L180,0"></path><text class="axis-ceiling-label" font-family="sans-serif" text-anchor="end" font-size="10px" x="170" y="2.5">1000</text></g></svg>