<svg xmlns="http://www.w3.org/2000/svg" viewBox="0 0 180 60"><g transform="translate(0,20)"><path class="area" fill="rgba(0, 0, 0, 0.2)" d="M0,37.333333333333336C1.0169491525423728,38.66666666666667,2.0338983050847457,40,3.0508474576271185,40C4.067796610169491,40,5.084745762711864,38,6.101694915254237,37.333333333333336C7.11864406779661,36.66666666666667,8.135593220338983,36,9.152542372881356,36C10.169491525423728,36,11.186440677966102,40,12.203389830508474,40C13.220338983050846,40,14.23728813559322,38.666666666666664,15.254237288135592,38.666666666666664C16.271186440677965,38.666666666666664,17.28813559322034,38.666666666666664,18.305084745762713,38.666666666666664C19.322033898305087,38.666666666666664,20.338983050847457,40,21.35593220338983,40C22.372881355932204,40,23.389830508474574,36,24.406779661016948,36C25.423728813559322,36,26.440677966101696,38,27.45762711864407,38.666666666666664C28.47457627118644,39.33333333333333,29.491525423728813,40,30.508474576271183,40C31.525423728813557,40,32.54237288135593,40,33.559322033898304,40C34.57627118644068,40,35.59322033898305,40,36.610169491525426,40C37.6271186440678,40,38.644067796610166,40,39.66101694915254,40C40.67796610169491,40,41.69491525423729,40,42.71186440677966,40C43.728813559322035,40,44.7457627118644,39.55555555555556,45.762711864406775,38.666666666666664C46.77966101694915,37.77777777777777,47.79661016949152,30.666666666666664,48.813559322033896,30.666666666666664C49.83050847457627,30.666666666666664,50.847457627118644,36.44444444444445,51.86440677966102,37.333333333333336C52.88135593220339,38.22222222222222,53.898305084745765,38.666666666666664,54.91525423728814,38.666666666666664C55.93220338983051,38.666666666666664,56.94915254237288,37.333333333333336,57.96610169491525,37.333333333333336C58.983050847457626,37.333333333333336,59.99999999999999,38.666666666666664,61.01694915254237,38.666666666666664C62.03389830508474,38.666666666666664,63.05084745762712,33.333333333333336,64.0677966101695,33.333333333333336C65.08474576271186,33.333333333333336,66.10169491525424,38.666666666666664,67.11864406779661,38.666666666666664C68.13559322033899,38.666666666666664,69.15254237288136,24,70.16949152542374,24C71.1864406779661,24,72.20338983050848,26.888888888888893,73.22033898305085,29.333333333333336C74.23728813559322,31.77777777777778,75.2542372881356,38.666666666666664,76.27118644067797,38.666666666666664C77.28813559322033,38.666666666666664,78.30508474576271,38.666666666666664,79.32203389830508,38.666666666666664C80.33898305084746,38.666666666666664,81.35593220338983,38.00000000000001,82.37288135593221,37.333333333333336C83.38983050847457,36.66666666666667,84.40677966101696,34.66666666666667,85.42372881355932,34.66666666666667C86.4406779661017,34.66666666666667,87.45762711864407,36,88.47457627118645,36C89.49152542372882,36,90.50847457627118,35.33333333333333,91.52542372881355,34.66666666666667C92.54237288135593,34,93.55932203389831,32,94.57627118644069,32C95.59322033898306,32,96.61016949152543,33.555555555555564,97.62711864406779,34.66666666666667C98.64406779661016,35.777777777777786,99.66101694915254,38.666666666666664,100.6779661016949,38.666666666666664C101.69491525423729,38.666666666666664,102.71186440677965,34.22222222222223,103.72881355932203,30.666666666666664C104.7457627118644,27.111111111111114,105.76271186440678,20.444444444444443,106.77966101694915,17.333333333333336C107.79661016949153,14.22222222222221,108.8135593220339,12.000000000000002,109.83050847457628,12.000000000000002C110.84745762711864,12.000000000000002,111.86440677966102,16,112.88135593220339,16C113.89830508474576,16,114.91525423728814,10.666666666666668,115.9322033898305,10.666666666666668C116.94915254237289,10.666666666666668,117.96610169491525,17.55555555555555,118.98305084745763,20C120,22.444444444444425,121.01694915254237,23.111111111111132,122.03389830508473,25.333333333333332C123.05084745762711,27.555555555555564,124.0677966101695,33.333333333333336,125.08474576271188,33.333333333333336C126.10169491525424,33.333333333333336,127.11864406779662,20.888888888888896,128.135593220339,16C129.15254237288136,11.111111111111128,130.16949152542372,3.999999999999999,131.1864406779661,3.999999999999999C132.20338983050846,3.999999999999999,133.22033898305085,20,134.23728813559322,20C135.25423728813558,20,136.27118644067798,1.333333333333333,137.28813559322035,1.333333333333333C138.3050847457627,1.333333333333333,139.3220338983051,12.666666666666664,140.33898305084747,16C141.35593220338984,19.333333333333304,142.3728813559322,18.888888888888907,143.38983050847457,21.333333333333332C144.40677966101694,23.777777777777782,145.42372881355934,30.666666666666664,146.4406779661017,30.666666666666664C147.45762711864407,30.666666666666664,148.47457627118644,23.999999999999975,149.4915254237288,20C150.50847457627117,15.999999999999986,151.52542372881356,6.666666666666665,152.54237288135593,6.666666666666665C153.5593220338983,6.666666666666665,154.5762711864407,7.999999999999999,155.59322033898306,10.666666666666668C156.61016949152543,13.33333333333331,157.6271186440678,20.000000000000018,158.64406779661016,22.666666666666664C159.66101694915253,25.333333333333336,160.67796610169492,25.33333333333334,161.6949152542373,26.66666666666667C162.71186440677965,28.000000000000004,163.72881355932205,30.666666666666664,164.74576271186442,30.666666666666664C165.76271186440678,30.666666666666664,166.77966101694915,29.333333333333314,167.79661016949152,26.66666666666667C168.81355932203388,24.000000000000007,169.83050847457628,18.000000000000004,170.84745762711864,14.666666666666668C171.864406779661,11.333333333333332,172.8813559322034,6.666666666666665,173.89830508474577,6.666666666666665C174.91525423728814,6.666666666666665,175.93220338983053,14.88888888888889,176.9491525423729,17.333333333333336C177.96610169491527,19.777777777777757,178.98305084745763,20.555555555555546,180,21.333333333333332L180,40C178.98305084745763,40,177.96610169491527,40,176.9491525423729,40C175.93220338983053,40,174.91525423728814,40,173.89830508474577,40C172.8813559322034,40,171.864406779661,40,170.84745762711864,40C169.83050847457628,40,168.81355932203388,40,167.79661016949152,40C166.77966101694915,40,165.76271186440678,40,164.74576271186442,40C163.72881355932205,40,162.71186440677965,40,161.6949152542373,40C160.67796610169492,40,159.66101694915253,40,158.64406779661016,40C157.6271186440678,40,156.61016949152543,40,155.59322033898306,40C154.5762711864407,40,153.5593220338983,40,152.54237288135593,40C151.52542372881356,40,150.50847457627117,40,149.4915254237288,40C148.47457627118644,40,147.45762711864407,40,146.4406779661017,40C145.42372881355934,40,144.40677966101694,40,143.38983050847457,40C142.3728813559322,40,141.35593220338984,40,140.33898305084747,40C139.3220338983051,40,138.3050847457627,40,137.28813559322035,40C136.27118644067798,40,135.25423728813558,40,134.23728813559322,40C133.22033898305085,40,132.20338983050846,40,131.1864406779661,40C130.16949152542372,40,129.15254237288136,40,128.135593220339,40C127.11864406779662,40,126.10169491525424,40,125.08474576271188,40C124.0677966101695,40,123.05084745762711,40,122.03389830508473,40C121.01694915254237,40,120,40,118.98305084745763,40C117.96610169491525,40,116.94915254237289,40,115.9322033898305,40C114.91525423728814,40,113.89830508474576,40,112.88135593220339,40C111.86440677966102,40,110.84745762711864,40,109.83050847457628,40C108.8135593220339,40,107.79661016949153,40,106.77966101694915,40C105.76271186440678,40,104.7457627118644,40,103.72881355932203,40C102.71186440677965,40,101.69491525423729,40,100.6779661016949,40C99.66101694915254,40,98.64406779661016,40,97.62711864406779,40C96.61016949152543,40,95.59322033898306,40,94.57627118644069,40C93.55932203389831,40,92.54237288135593,40,91.52542372881355,40C90.50847457627118,40,89.49152542372882,40,88.47457627118645,40C87.45762711864407,40,86.4406779661017,40,85.42372881355932,40C84.40677966101696,40,83.38983050847457,40,82.37288135593221,40C81.35593220338983,40,80.33898305084746,40,79.32203389830508,40C78.30508474576271,40,77.28813559322033,40,76.27118644067797,40C75.2542372881356,40,74.23728813559322,40,73.22033898305085,40C72.20338983050848,40,71.1864406779661,40,70.16949152542374,40C69.15254237288136,40,68.13559322033899,40,67.11864406779661,40C66.10169491525424,40,65.08474576271186,40,64.0677966101695,40C63.05084745762712,40,62.03389830508474,40,61.01694915254237,40C59.99999999999999,40,58.983050847457626,40,57.96610169491525,40C56.94915254237288,40,55.93220338983051,40,54.91525423728814,40C53.898305084745765,40,52.88135593220339,40,51.86440677966102,40C50.847457627118644,40,49.83050847457627,40,48.813559322033896,40C47.79661016949152,40,46.77966101694915,40,45.762711864406775,40C44.7457627118644,40,43.728813559322035,40,42.71186440677966,40C41.69491525423729,40,40.67796610169491,40,39.66101694915254,40C38.644067796610166,40,37.6271186440678,40,36.610169491525426,40C35.59322033898305,40,34.57627118644068,40,33.559322033898304,40C32.54237288135593,40,31.525423728813557,40,30.508474576271183,40C29.491525423728813,40,28.47457627118644,40,27.45762711864407,40C26.440677966101696,40,25.423728813559322,40,24.406779661016948,40C23.389830508474574,40,22.372881355932204,40,21.35593220338983,40C20.338983050847457,40,19.322033898305087,40,18.305084745762713,40C17.28813559322034,40,16.271186440677965,40,15.254237288135592,40C14.23728813559322,40,13.220338983050846,40,12.203389830508474,40C11.186440677966102,40,10.169491525423728,40,9.152542372881356,40C8.135593220338983,40,7.11864406779661,40,6.101694915254237,40C5.084745762711864,40,4.067796610169491,40,3.0508474576271185,40C2.0338983050847457,40,1.0169491525423728,40,0,40Z"></path><path class="line" stroke="black" fill="none" d="M0,37.333333333333336C1.0169491525423728,38.66666666666667,2.0338983050847457,40,3.0508474576271185,40C4.067796610169491,40,5.084745762711864,38,6.101694915254237,37.333333333333336C7.11864406779661,36.66666666666667,8.135593220338983,36,9.152542372881356,36C10.169491525423728,36,11.186440677966102,40,12.203389830508474,40C13.220338983050846,40,14.23728813559322,38.666666666666664,15.254237288135592,38.666666666666664C16.271186440677965,38.666666666666664,17.28813559322034,38.666666666666664,18.305084745762713,38.666666666666664C19.322033898305087,38.666666666666664,20.338983050847457,40,21.35593220338983,40C22.372881355932204,40,23.389830508474574,36,24.406779661016948,36C25.423728813559322,36,26.440677966101696,38,27.45762711864407,38.666666666666664C28.47457627118644,39.33333333333333,29.491525423728813,40,30.508474576271183,40C31.525423728813557,40,32.54237288135593,40,33.559322033898304,40C34.57627118644068,40,35.59322033898305,40,36.610169491525426,40C37.6271186440678,40,38.644067796610166,40,39.66101694915254,40C40.67796610169491,40,41.69491525423729,40,42.71186440677966,40C43.728813559322035,40,44.7457627118644,39.55555555555556,45.762711864406775,38.666666666666664C46.77966101694915,37.77777777777777,47.79661016949152,30.666666666666664,48.813559322033896,30.666666666666664C49.83050847457627,30.666666666666664,50.847457627118644,36.44444444444445,51.86440677966102,37.333333333333336C52.88135593220339,38.22222222222222,53.898305084745765,38.666666666666664,54.91525423728814,38.666666666666664C55.93220338983051,38.666666666666664,56.94915254237288,37.333333333333336,57.96610169491525,37.333333333333336C58.983050847457626,37.333333333333336,59.99999999999999,38.666666666666664,61.01694915254237,38.666666666666664C62.03389830508474,38.666666666666664,63.05084745762712,33.333333333333336,64.0677966101695,33.333333333333336C65.08474576271186,33.333333333333336,66.10169491525424,38.666666666666664,67.11864406779661,38.666666666666664C68.13559322033899,38.666666666666664,69.15254237288136,24,70.16949152542374,24C71.1864406779661,24,72.20338983050848,26.888888888888893,73.22033898305085,29.333333333333336C74.23728813559322,31.77777777777778,75.2542372881356,38.666666666666664,76.27118644067797,38.666666666666664C77.28813559322033,38.666666666666664,78.30508474576271,38.666666666666664,79.32203389830508,38.666666666666664C80.33898305084746,38.666666666666664,81.35593220338983,38.00000000000001,82.37288135593221,37.333333333333336C83.38983050847457,36.66666666666667,84.40677966101696,34.66666666666667,85.42372881355932,34.66666666666667C86.4406779661017,34.66666666666667,87.45762711864407,36,88.47457627118645,36C89.49152542372882,36,90.50847457627118,35.33333333333333,91.52542372881355,34.66666666666667C92.54237288135593,34,93.55932203389831,32,94.57627118644069,32C95.59322033898306,32,96.61016949152543,33.555555555555564,97.62711864406779,34.66666666666667C98.64406779661016,35.777777777777786,99.66101694915254,38.666666666666664,100.6779661016949,38.666666666666664C101.69491525423729,38.666666666666664,102.71186440677965,34.22222222222223,103.72881355932203,30.666666666666664C104.7457627118644,27.111111111111114,105.76271186440678,20.444444444444443,106.77966101694915,17.333333333333336C107.79661016949153,14.22222222222221,108.8135593220339,12.000000000000002,109.83050847457628,12.000000000000002C110.84745762711864,12.000000000000002,111.86440677966102,16,112.88135593220339,16C113.89830508474576,16,114.91525423728814,10.666666666666668,115.9322033898305,10.666666666666668C116.94915254237289,10.666666666666668,117.96610169491525,17.55555555555555,118.98305084745763,20C120,22.444444444444425,121.01694915254237,23.111111111111132,122.03389830508473,25.333333333333332C123.05084745762711,27.555555555555564,124.0677966101695,33.333333333333336,125.08474576271188,33.333333333333336C126.10169491525424,33.333333333333336,127.11864406779662,20.888888888888896,128.135593220339,16C129.15254237288136,11.111111111111128,130.16949152542372,3.999999999999999,131.1864406779661,3.999999999999999C132.20338983050846,3.999999999999999,133.22033898305085,20,134.23728813559322,20C135.25423728813558,20,136.27118644067798,1.333333333333333,137.28813559322035,1.333333333333333C138.3050847457627,1.333333333333333,139.3220338983051,12.666666666666664,140.33898305084747,16C141.35593220338984,19.333333333333304,142.3728813559322,18.888888888888907,143.38983050847457,21.333333333333332C144.40677966101694,23.777777777777782,145.42372881355934,30.666666666666664,146.4406779661017,30.666666666666664C147.45762711864407,30.666666666666664,148.47457627118644,23.999999999999975,149.4915254237288,20C150.50847457627117,15.999999999999986,151.52542372881356,6.666666666666665,152.54237288135593,6.666666666666665C153.5593220338983,6.666666666666665,154.5762711864407,7.999999999999999,155.59322033898306,10.666666666666668C156.61016949152543,13.33333333333331,157.6271186440678,20.000000000000018,158.64406779661016,22.666666666666664C159.66101694915253,25.333333333333336,160.67796610169492,25.33333333333334,161.6949152542373,26.66666666666667C162.71186440677965,28.000000000000004,163.72881355932205,30.666666666666664,164.74576271186442,30.666666666666664C165.76271186440678,30.666666666666664,166.77966101694915,29.333333333333314,167.79661016949152,26.66666666666667C168.81355932203388,24.000000000000007,169.83050847457628,18.000000000000004,170.84745762711864,14.666666666666668C171.864406779661,11.333333333333332,172.8813559322034,6.666666666666665,173.89830508474577,6.666666666666665C174.91525423728814,6.666666666666665,175.93220338983053,14.88888888888889,176.9491525423729,17.333333333333336C177.96610169491527,19.777777777777757,178.98305084745763,20.555555555555546,180,21.333333333333332"></path><path class="axis-ceiling" stroke-width="1" stroke="black" fill="none" d="M175,0L180,0"></path><text class="axis-ceiling-label" font-family="sans-serif" text-anchor="end" font-size="10px" x="170" y="2.5">30</text></g></svg>