<svg xmlns="http://www.w3.org/2000/svg" viewBox="0 0 180 60"><g transform="translate(0,20)"><path class="area" fill="rgba(0, 0, 0, 0.2)" d="M0,33.56C1.0169491525423728,33.17666666666667,2.0338983050847457,32.79333333333333,3.0508474576271185,32.44C4.067796610169491,32.086666666666666,5.084745762711864,31.773333333333333,6.101694915254237,31.44C7.11864406779661,31.10666666666667,8.135593220338983,30.706666666666667,9.152542372881356,30.44C10.169491525423728,30.173333333333336,11.186440677966102,30.1,12.203389830508474,29.84C13.220338983050846,29.58,14.23728813559322,29.293333333333333,15.254237288135592,28.88C16.271186440677965,28.466666666666665,17.28813559322034,27.74,18.305084745762713,27.36C19.322033898305087,26.98,20.338983050847457,26.880000000000003,21.35593220338983,26.6C22.372881355932204,26.32,23.389830508474574,26.126666666666665,24.406779661016948,25.68C25.423728813559322,25.23333333333333,26.440677966101696,24.433333333333334,27.45762711864407,23.919999999999998C28.47457627118644,23.406666666666666,29.491525423728813,23.146666666666665,30.508474576271183,22.599999999999998C31.525423728813557,22.05333333333333,32.54237288135593,21.22,33.559322033898304,20.64C34.57627118644068,20.060000000000002,35.59322033898305,19.466666666666665,36.610169491525426,19.119999999999997C37.6271186440678,18.77333333333333,38.644067796610166,18.759999999999998,39.66101694915254,18.56C40.67796610169491,18.36,41.69491525423729,18.24,42.71186440677966,17.919999999999998C43.728813559322035,17.599999999999998,44.7457627118644,16.966666666666665,45.762711864406775,16.64C46.77966101694915,16.313333333333333,47.79661016949152,16.413333333333334,48.813559322033896,15.96C49.83050847457627,15.506666666666668,50.847457627118644,13.799999999999999,51.86440677966102,13.559999999999999C52.88135593220339,13.319999999999999,53.898305084745765,13.393333333333333,54.91525423728814,13.2C55.93220338983051,13.006666666666666,56.94915254237288,12.773333333333335,57.96610169491525,12.400000000000002C58.983050847457626,12.026666666666669,59.99999999999999,10.96,61.01694915254237,10.96C62.03389830508474,10.96,63.05084745762712,11.080000000000002,64.0677966101695,11.080000000000002C65.08474576271186,11.080000000000002,66.10169491525424,10.700000000000001,67.11864406779661,10.440000000000001C68.13559322033899,10.18,69.15254237288136,9.52,70.16949152542374,9.52C71.1864406779661,9.52,72.20338983050848,10.84,73.22033898305085,10.84C74.23728813559322,10.84,75.2542372881356,10.600000000000001,76.27118644067797,10.600000000000001C77.28813559322033,10.600000000000001,78.30508474576271,11.153333333333338,79.32203389830508,11.560000000000002C80.33898305084746,11.966666666666669,81.35593220338983,13.04,82.37288135593221,13.04C83.38983050847457,13.04,84.40677966101696,12.160000000000002,85.42372881355932,12.160000000000002C86.4406779661017,12.160000000000002,87.45762711864407,13.159999999999998,88.47457627118645,13.159999999999998C89.49152542372882,13.159999999999998,90.50847457627118,13.146666666666665,91.52542372881355,13.119999999999997C92.54237288135593,13.09333333333333,93.55932203389831,12.759999999999998,94.57627118644069,12.759999999999998C95.59322033898306,12.759999999999998,96.61016949152543,13.053333333333333,97.62711864406779,13.079999999999998C98.64406779661016,13.106666666666664,99.66101694915254,13.119999999999997,100.6779661016949,13.119999999999997C101.69491525423729,13.119999999999997,102.71186440677965,12.200000000000003,103.72881355932203,12.200000000000003C104.7457627118644,12.200000000000003,105.76271186440678,13.439999999999998,106.77966101694915,13.439999999999998C107.79661016949153,13.439999999999998,108.8135593220339,13.36,109.83050847457628,13.36C110.84745762711864,13.36,111.86440677966102,13.65333333333333,112.88135593220339,14.079999999999998C113.89830508474576,14.506666666666666,114.91525423728814,15.386666666666668,115.9322033898305,15.920000000000002C116.94915254237289,16.453333333333337,117.96610169491525,17.28,118.98305084745763,17.28C120,17.28,121.01694915254237,16.48,122.03389830508473,16.48C123.05084745762711,16.48,124.0677966101695,16.533333333333335,125.08474576271188,16.560000000000002C126.10169491525424,16.58666666666667,127.11864406779662,16.593333333333334,128.135593220339,16.64C129.15254237288136,16.686666666666667,130.16949152542372,16.720000000000002,131.1864406779661,16.840000000000003C132.20338983050846,16.960000000000004,133.22033898305085,17.360000000000003,134.23728813559322,17.360000000000003C135.25423728813558,17.360000000000003,136.27118644067798,16.9,137.28813559322035,16.68C138.3050847457627,16.46,139.3220338983051,16.04,140.33898305084747,16.04C141.35593220338984,16.04,142.3728813559322,17.006666666666668,143.38983050847457,17.32C144.40677966101694,17.633333333333336,145.42372881355934,17.81333333333333,146.4406779661017,17.919999999999998C147.45762711864407,18.026666666666664,148.47457627118644,17.993333333333332,149.4915254237288,18.08C150.50847457627117,18.166666666666664,151.52542372881356,18.346666666666664,152.54237288135593,18.439999999999998C153.5593220338983,18.53333333333333,154.5762711864407,18.573333333333334,155.59322033898306,18.64C156.61016949152543,18.706666666666667,157.6271186440678,18.746666666666666,158.64406779661016,18.84C159.66101694915253,18.933333333333334,160.67796610169492,19.066666666666666,161.6949152542373,19.2C162.71186440677965,19.333333333333332,163.72881355932205,19.52,164.74576271186442,19.64C165.76271186440678,19.76,166.77966101694915,19.82,167.79661016949152,19.92C168.81355932203388,20.020000000000003,169.83050847457628,20.14666666666667,170.84745762711864,20.240000000000002C171.864406779661,20.333333333333336,172.8813559322034,20.373333333333335,173.89830508474577,20.48C174.91525423728814,20.586666666666666,175.93220338983053,20.713333333333335,176.9491525423729,20.880000000000003C177.96610169491527,21.046666666666667,178.98305084745763,21.263333333333332,180,21.479999999999997L180,40C178.98305084745763,40,177.96610169491527,40,176.9491525423729,40C175.93220338983053,40,174.91525423728814,40,173.89830508474577,40C172.8813559322034,40,171.864406779661,40,170.84745762711864,40C169.83050847457628,40,168.81355932203388,40,167.79661016949152,40C166.77966101694915,40,165.76271186440678,40,164.74576271186442,40C163.72881355932205,40,162.71186440677965,40,161.6949152542373,40C160.67796610169492,40,159.66101694915253,40,158.64406779661016,40C157.6271186440678,40,156.61016949152543,40,155.59322033898306,40C154.5762711864407,40,153.5593220338983,40,152.54237288135593,40C151.52542372881356,40,150.50847457627117,40,149.4915254237288,40C148.47457627118644,40,147.45762711864407,40,146.4406779661017,40C145.42372881355934,40,144.40677966101694,40,143.38983050847457,40C142.3728813559322,40,141.35593220338984,40,140.33898305084747,40C139.3220338983051,40,138.3050847457627,40,137.28813559322035,40C136.27118644067798,40,135.25423728813558,40,134.23728813559322,40C133.22033898305085,40,132.20338983050846,40,131.1864406779661,40C130.16949152542372,40,129.15254237288136,40,128.135593220339,40C127.11864406779662,40,126.10169491525424,40,125.08474576271188,40C124.0677966101695,40,123.05084745762711,40,122.03389830508473,40C121.01694915254237,40,120,40,118.98305084745763,40C117.96610169491525,40,116.94915254237289,40,115.9322033898305,40C114.91525423728814,40,113.89830508474576,40,112.88135593220339,40C111.86440677966102,40,110.84745762711864,40,109.83050847457628,40C108.8135593220339,40,107.79661016949153,40,106.77966101694915,40C105.76271186440678,40,104.7457627118644,40,103.72881355932203,40C102.71186440677965,40,101.69491525423729,40,100.6779661016949,40C99.66101694915254,40,98.64406779661016,40,97.62711864406779,40C96.61016949152543,40,95.59322033898306,40,94.57627118644069,40C93.55932203389831,40,92.54237288135593,40,91.52542372881355,40C90.50847457627118,40,89.49152542372882,40,88.47457627118645,40C87.45762711864407,40,86.4406779661017,40,85.42372881355932,40C84.40677966101696,40,83.38983050847457,40,82.37288135593221,40C81.35593220338983,40,80.33898305084746,40,79.32203389830508,40C78.30508474576271,40,77.28813559322033,40,76.27118644067797,40C75.2542372881356,40,74.23728813559322,40,73.22033898305085,40C72.20338983050848,40,71.1864406779661,40,70.16949152542374,40C69.15254237288136,40,68.13559322033899,40,67.11864406779661,40C66.10169491525424,40,65.08474576271186,40,64.0677966101695,40C63.05084745762712,40,62.03389830508474,40,61.01694915254237,40C59.99999999999999,40,58.983050847457626,40,57.96610169491525,40C56.94915254237288,40,55.93220338983051,40,54.91525423728814,40C53.898305084745765,40,52.88135593220339,40,51.86440677966102,40C50.847457627118644,40,49.83050847457627,40,48.813559322033896,40C47.79661016949152,40,46.77966101694915,40,45.762711864406775,40C44.7457627118644,40,43.728813559322035,40,42.71186440677966,40C41.69491525423729,40,40.67796610169491,40,39.66101694915254,40C38.644067796610166,40,37.6271186440678,40,36.610169491525426,40C35.59322033898305,40,34.57627118644068,40,33.559322033898304,40C32.54237288135593,40,31.525423728813557,40,30.508474576271183,40C29.491525423728813,40,28.47457627118644,40,27.45762711864407,40C26.440677966101696,40,25.423728813559322,40,24.406779661016948,40C23.389830508474574,40,22.372881355932204,40,21.35593220338983,40C20.338983050847457,40,19.322033898305087,40,18.305084745762713,40C17.28813559322034,40,16.271186440677965,40,15.254237288135592,40C14.23728813559322,40,13.220338983050846,40,12.203389830508474,40C11.186440677966102,40,10.169491525423728,40,9.152542372881356,40C8.135593220338983,40,7.11864406779661,40,6.101694915254237,40C5.084745762711864,40,4.067796610169491,40,3.0508474576271185,40C2.0338983050847457,40,1.0169491525423728,40,0,40Z"></path><path class="line" stroke="black" fill="none" d="M0,33.56C1.0169491525423728,33.17666666666667,2.0338983050847457,32.79333333333333,3.0508474576271185,32.44C4.067796610169491,32.086666666666666,5.084745762711864,31.773333333333333,6.101694915254237,31.44C7.11864406779661,31.10666666666667,8.135593220338983,30.706666666666667,9.152542372881356,30.44C10.169491525423728,30.173333333333336,11.186440677966102,30.1,12.203389830508474,29.84C13.220338983050846,29.58,14.23728813559322,29.293333333333333,15.254237288135592,28.88C16.271186440677965,28.466666666666665,17.28813559322034,27.74,18.305084745762713,27.36C19.322033898305087,26.98,20.338983050847457,26.880000000000003,21.35593220338983,26.6C22.372881355932204,26.32,23.389830508474574,26.126666666666665,24.406779661016948,25.68C25.423728813559322,25.23333333333333,26.440677966101696,24.433333333333334,27.45762711864407,23.919999999999998C28.47457627118644,23.406666666666666,29.491525423728813,23.146666666666665,30.508474576271183,22.599999999999998C31.525423728813557,22.05333333333333,32.54237288135593,21.22,33.559322033898304,20.64C34.57627118644068,20.060000000000002,35.59322033898305,19.466666666666665,36.610169491525426,19.119999999999997C37.6271186440678,18.77333333333333,38.644067796610166,18.759999999999998,39.66101694915254,18.56C40.67796610169491,18.36,41.69491525423729,18.24,42.71186440677966,17.919999999999998C43.728813559322035,17.599999999999998,44.7457627118644,16.966666666666665,45.762711864406775,16.64C46.77966101694915,16.313333333333333,47.79661016949152,16.413333333333334,48.813559322033896,15.96C49.83050847457627,15.506666666666668,50.847457627118644,13.799999999999999,51.86440677966102,13.559999999999999C52.88135593220339,13.319999999999999,53.898305084745765,13.393333333333333,54.91525423728814,13.2C55.93220338983051,13.006666666666666,56.94915254237288,12.773333333333335,57.96610169491525,12.400000000000002C58.983050847457626,12.026666666666669,59.99999999999999,10.96,61.01694915254237,10.96C62.03389830508474,10.96,63.05084745762712,11.080000000000002,64.0677966101695,11.080000000000002C65.08474576271186,11.080000000000002,66.10169491525424,10.700000000000001,67.11864406779661,10.440000000000001C68.13559322033899,10.18,69.15254237288136,9.52,70.16949152542374,9.52C71.1864406779661,9.52,72.20338983050848,10.84,73.22033898305085,10.84C74.23728813559322,10.84,75.2542372881356,10.600000000000001,76.27118644067797,10.600000000000001C77.28813559322033,10.600000000000001,78.30508474576271,11.153333333333338,79.32203389830508,11.560000000000002C80.33898305084746,11.966666666666669,81.35593220338983,13.04,82.37288135593221,13.04C83.38983050847457,13.04,84.40677966101696,12.160000000000002,85.42372881355932,12.160000000000002C86.4406779661017,12.160000000000002,87.45762711864407,13.159999999999998,88.47457627118645,13.159999999999998C89.49152542372882,13.159999999999998,90.50847457627118,13.146666666666665,91.52542372881355,13.119999999999997C92.54237288135593,13.09333333333333,93.55932203389831,12.759999999999998,94.57627118644069,12.759999999999998C95.59322033898306,12.759999999999998,96.61016949152543,13.053333333333333,97.62711864406779,13.079999999999998C98.64406779661016,13.106666666666664,99.66101694915254,13.119999999999997,100.6779661016949,13.119999999999997C101.69491525423729,13.119999999999997,102.71186440677965,12.200000000000003,103.72881355932203,12.200000000000003C104.7457627118644,12.200000000000003,105.76271186440678,13.439999999999998,106.77966101694915,13.439999999999998C107.79661016949153,13.439999999999998,108.8135593220339,13.36,109.83050847457628,13.36C110.84745762711864,13.36,111.86440677966102,13.65333333333333,112.88135593220339,14.079999999999998C113.89830508474576,14.506666666666666,114.91525423728814,15.386666666666668,115.9322033898305,15.920000000000002C116.94915254237289,16.453333333333337,117.96610169491525,17.28,118.98305084745763,17.28C120,17.28,121.01694915254237,16.48,122.03389830508473,16.48C123.05084745762711,16.48,124.0677966101695,16.533333333333335,125.08474576271188,16.560000000000002C126.10169491525424,16.58666666666667,127.11864406779662,16.593333333333334,128.135593220339,16.64C129.15254237288136,16.686666666666667,130.16949152542372,16.720000000000002,131.1864406779661,16.840000000000003C132.20338983050846,16.960000000000004,133.22033898305085,17.360000000000003,134.23728813559322,17.360000000000003C135.25423728813558,17.360000000000003,136.27118644067798,16.9,137.28813559322035,16.68C138.3050847457627,16.46,139.3220338983051,16.04,140.33898305084747,16.04C141.35593220338984,16.04,142.3728813559322,17.006666666666668,143.38983050847457,17.32C144.40677966101694,17.633333333333336,145.42372881355934,17.81333333333333,146.4406779661017,17.919999999999998C147.45762711864407,18.026666666666664,148.47457627118644,17.993333333333332,149.4915254237288,18.08C150.50847457627117,18.166666666666664,151.52542372881356,18.346666666666664,152.54237288135593,18.439999999999998C153.5593220338983,18.53333333333333,154.5762711864407,18.573333333333334,155.59322033898306,18.64C156.61016949152543,18.706666666666667,157.6271186440678,18.746666666666666,158.64406779661016,18.84C159.66101694915253,18.933333333333334,160.67796610169492,19.066666666666666,161.6949152542373,19.2C162.71186440677965,19.333333333333332,163.72881355932205,19.52,164.74576271186442,19.64C165.76271186440678,19.76,166.77966101694915,19.82,167.79661016949152,19.92C168.81355932203388,20.020000000000003,169.83050847457628,20.14666666666667,170.84745762711864,20.240000000000002C171.864406779661,20.333333333333336,172.8813559322034,20.373333333333335,173.89830508474577,20.48C174.91525423728814,20.586666666666666,175.93220338983053,20.713333333333335,176.9491525423729,20.880000000000003C177.96610169491527,21.046666666666667,178.98305084745763,21.263333333333332,180,21.479999999999997"></path><path class="axis-ceiling" stroke-width="1" stroke="black" fill="none" d="M175,0L180,0"></path><text class="axis-ceiling-label" font-family="sans-serif" text-anchor="end" font-size="10px" x="170" y="2.5">1000</text></g></svg>