<svg xmlns="http://www.w3.org/2000/svg" viewBox="0 0 180 60"><g transform="translate(0,20)"><path class="area" fill="rgba(0, 0, 0, 0.2)" d="M0,37.269999999999996C1.0169491525423728,37.4325,2.0338983050847457,37.595,3.0508474576271185,37.86C4.067796610169491,38.125,5.084745762711864,38.86,6.101694915254237,38.86C7.11864406779661,38.86,8.135593220338983,37.22999999999999,9.152542372881356,36.949999999999996C10.169491525423728,36.67,11.186440677966102,36.53,12.203389830508474,36.53C13.220338983050846,36.53,14.23728813559322,37.13333333333333,15.254237288135592,37.35C16.271186440677965,37.56666666666667,17.28813559322034,37.83,18.305084745762713,37.83C19.322033898305087,37.83,20.338983050847457,37.160000000000004,21.35593220338983,37.160000000000004C22.372881355932204,37.160000000000004,23.389830508474574,37.50833333333333,24.406779661016948,37.85C25.423728813559322,38.19166666666667,26.440677966101696,39.21,27.45762711864407,39.21C28.47457627118644,39.21,29.491525423728813,37.39,30.508474576271183,37.35C31.525423728813557,37.31,32.54237288135593,37.29,33.559322033898304,37.29C34.57627118644068,37.29,35.59322033898305,37.830000000000005,36.610169491525426,37.85C37.6271186440678,37.87,38.644067796610166,37.879999999999995,39.66101694915254,37.879999999999995C40.67796610169491,37.879999999999995,41.69491525423729,37.85,42.71186440677966,37.85C43.728813559322035,37.85,44.7457627118644,38.34,45.762711864406775,38.56C46.77966101694915,38.78,47.79661016949152,39.17,48.813559322033896,39.17C49.83050847457627,39.17,50.847457627118644,37.629999999999995,51.86440677966102,37.629999999999995C52.88135593220339,37.629999999999995,53.898305084745765,37.721666666666664,54.91525423728814,37.76C55.93220338983051,37.79833333333333,56.94915254237288,37.86,57.96610169491525,37.86C58.983050847457626,37.86,59.99999999999999,37.846666666666664,61.01694915254237,37.82C62.03389830508474,37.79333333333334,63.05084745762712,37.54,64.0677966101695,37.54C65.08474576271186,37.54,66.10169491525424,37.75666666666667,67.11864406779661,38C68.13559322033899,38.24333333333333,69.15254237288136,39,70.16949152542374,39C71.1864406779661,39,72.20338983050848,35.906666666666666,73.22033898305085,35.58C74.23728813559322,35.25333333333333,75.2542372881356,35.089999999999996,76.27118644067797,35.089999999999996C77.28813559322033,35.089999999999996,78.30508474576271,35.97,79.32203389830508,35.97C80.33898305084746,35.97,81.35593220338983,35.86333333333333,82.37288135593221,35.68C83.38983050847457,35.49666666666667,84.40677966101696,34.870000000000005,85.42372881355932,34.870000000000005C86.4406779661017,34.870000000000005,87.45762711864407,35.205,88.47457627118645,35.75C89.49152542372882,36.295,90.50847457627118,38.14,91.52542372881355,38.14C92.54237288135593,38.14,93.55932203389831,33.633333333333354,94.57627118644069,32.7C95.59322033898306,31.766666666666666,96.61016949152543,31.299999999999997,97.62711864406779,31.299999999999997C98.64406779661016,31.299999999999997,99.66101694915254,31.92,100.6779661016949,31.92C101.69491525423729,31.92,102.71186440677965,31.740000000000002,103.72881355932203,31.490000000000002C104.7457627118644,31.240000000000002,105.76271186440678,30.419999999999998,106.77966101694915,30.419999999999998C107.79661016949153,30.419999999999998,108.8135593220339,30.696666666666665,109.83050847457628,31.25C110.84745762711864,31.80333333333333,111.86440677966102,33.281666666666666,112.88135593220339,34.02C113.89830508474576,34.75833333333334,114.91525423728814,35.68,115.9322033898305,35.68C116.94915254237289,35.68,117.96610169491525,19.80000000000001,118.98305084745763,19.060000000000002C120,18.32,121.01694915254237,18.63999999999999,122.03389830508473,17.95C123.05084745762711,17.259999999999998,124.0677966101695,14.92,125.08474576271188,14.92C126.10169491525424,14.92,127.11864406779662,17.101666666666663,128.135593220339,17.919999999999998C129.15254237288136,18.73833333333333,130.16949152542372,19.24166666666667,131.1864406779661,19.830000000000002C132.20338983050846,20.41833333333334,133.22033898305085,21.45,134.23728813559322,21.45C135.25423728813558,21.45,136.27118644067798,14.96,137.28813559322035,14.96C138.3050847457627,14.96,139.3220338983051,15.53,140.33898305084747,15.53C141.35593220338984,15.53,142.3728813559322,10.36666666666666,143.38983050847457,8.260000000000002C144.40677966101694,6.153333333333322,145.42372881355934,2.8900000000000015,146.4406779661017,2.8900000000000015C147.45762711864407,2.8900000000000015,148.47457627118644,9.480000000000008,149.4915254237288,10.52C150.50847457627117,11.56,151.52542372881356,11.040000000000001,152.54237288135593,12.080000000000002C153.5593220338983,13.120000000000003,154.5762711864407,26.669999999999998,155.59322033898306,26.669999999999998C156.61016949152543,26.669999999999998,157.6271186440678,8.539999999999992,158.64406779661016,7.240000000000002C159.66101694915253,5.94,160.67796610169492,5.289999999999999,161.6949152542373,5.289999999999999C162.71186440677965,5.289999999999999,163.72881355932205,10.579999999999998,164.74576271186442,10.579999999999998C165.76271186440678,10.579999999999998,166.77966101694915,9.07,167.79661016949152,9.07C168.81355932203388,9.07,169.83050847457628,9.263333333333334,170.84745762711864,9.649999999999999C171.864406779661,10.036666666666664,172.8813559322034,12.961666666666666,173.89830508474577,15.52C174.91525423728814,18.078333333333333,175.93220338983053,25,176.9491525423729,25C177.96610169491527,25,178.98305084745763,14.575000000000001,180,4.15L180,40C178.98305084745763,40,177.96610169491527,40,176.9491525423729,40C175.93220338983053,40,174.91525423728814,40,173.89830508474577,40C172.8813559322034,40,171.864406779661,40,170.84745762711864,40C169.83050847457628,40,168.81355932203388,40,167.79661016949152,40C166.77966101694915,40,165.76271186440678,40,164.74576271186442,40C163.72881355932205,40,162.71186440677965,40,161.6949152542373,40C160.67796610169492,40,159.66101694915253,40,158.64406779661016,40C157.6271186440678,40,156.61016949152543,40,155.59322033898306,40C154.5762711864407,40,153.5593220338983,40,152.54237288135593,40C151.52542372881356,40,150.50847457627117,40,149.4915254237288,40C148.47457627118644,40,147.45762711864407,40,146.4406779661017,40C145.42372881355934,40,144.40677966101694,40,143.38983050847457,40C142.3728813559322,40,141.35593220338984,40,140.33898305084747,40C139.3220338983051,40,138.3050847457627,40,137.28813559322035,40C136.27118644067798,40,135.25423728813558,40,134.23728813559322,40C133.22033898305085,40,132.20338983050846,40,131.1864406779661,40C130.16949152542372,40,129.15254237288136,40,128.135593220339,40C127.11864406779662,40,126.10169491525424,40,125.08474576271188,40C124.0677966101695,40,123.05084745762711,40,122.03389830508473,40C121.01694915254237,40,120,40,118.98305084745763,40C117.96610169491525,40,116.94915254237289,40,115.9322033898305,40C114.91525423728814,40,113.89830508474576,40,112.88135593220339,40C111.86440677966102,40,110.84745762711864,40,109.83050847457628,40C108.8135593220339,40,107.79661016949153,40,106.77966101694915,40C105.76271186440678,40,104.7457627118644,40,103.72881355932203,40C102.71186440677965,40,101.69491525423729,40,100.6779661016949,40C99.66101694915254,40,98.64406779661016,40,97.62711864406779,40C96.61016949152543,40,95.59322033898306,40,94.57627118644069,40C93.55932203389831,40,92.54237288135593,40,91.52542372881355,40C90.50847457627118,40,89.49152542372882,40,88.47457627118645,40C87.45762711864407,40,86.4406779661017,40,85.42372881355932,40C84.40677966101696,40,83.38983050847457,40,82.37288135593221,40C81.35593220338983,40,80.33898305084746,40,79.32203389830508,40C78.30508474576271,40,77.28813559322033,40,76.27118644067797,40C75.2542372881356,40,74.23728813559322,40,73.22033898305085,40C72.20338983050848,40,71.1864406779661,40,70.16949152542374,40C69.15254237288136,40,68.13559322033899,40,67.11864406779661,40C66.10169491525424,40,65.08474576271186,40,64.0677966101695,40C63.05084745762712,40,62.03389830508474,40,61.01694915254237,40C59.99999999999999,40,58.983050847457626,40,57.96610169491525,40C56.94915254237288,40,55.93220338983051,40,54.91525423728814,40C53.898305084745765,40,52.88135593220339,40,51.86440677966102,40C50.847457627118644,40,49.83050847457627,40,48.813559322033896,40C47.79661016949152,40,46.77966101694915,40,45.762711864406775,40C44.7457627118644,40,43.728813559322035,40,42.71186440677966,40C41.69491525423729,40,40.67796610169491,40,39.66101694915254,40C38.644067796610166,40,37.6271186440678,40,36.610169491525426,40C35.59322033898305,40,34.57627118644068,40,33.559322033898304,40C32.54237288135593,40,31.525423728813557,40,30.508474576271183,40C29.491525423728813,40,28.47457627118644,40,27.45762711864407,40C26.440677966101696,40,25.423728813559322,40,24.406779661016948,40C23.389830508474574,40,22.372881355932204,40,21.35593220338983,40C20.338983050847457,40,19.322033898305087,40,18.305084745762713,40C17.28813559322034,40,16.271186440677965,40,15.254237288135592,40C14.23728813559322,40,13.220338983050846,40,12.203389830508474,40C11.186440677966102,40,10.169491525423728,40,9.152542372881356,40C8.135593220338983,40,7.11864406779661,40,6.101694915254237,40C5.084745762711864,40,4.067796610169491,40,3.0508474576271185,40C2.0338983050847457,40,1.0169491525423728,40,0,40Z"></path><path class="line" stroke="black" fill="none" d="M0,37.269999999999996C1.0169491525423728,37.4325,2.0338983050847457,37.595,3.0508474576271185,37.86C4.067796610169491,38.125,5.084745762711864,38.86,6.101694915254237,38.86C7.11864406779661,38.86,8.135593220338983,37.22999999999999,9.152542372881356,36.949999999999996C10.169491525423728,36.67,11.186440677966102,36.53,12.203389830508474,36.53C13.220338983050846,36.53,14.23728813559322,37.13333333333333,15.254237288135592,37.35C16.271186440677965,37.56666666666667,17.28813559322034,37.83,18.305084745762713,37.83C19.322033898305087,37.83,20.338983050847457,37.160000000000004,21.35593220338983,37.160000000000004C22.372881355932204,37.160000000000004,23.389830508474574,37.50833333333333,24.406779661016948,37.85C25.423728813559322,38.19166666666667,26.440677966101696,39.21,27.45762711864407,39.21C28.47457627118644,39.21,29.491525423728813,37.39,30.508474576271183,37.35C31.525423728813557,37.31,32.54237288135593,37.29,33.559322033898304,37.29C34.57627118644068,37.29,35.59322033898305,37.830000000000005,36.610169491525426,37.85C37.6271186440678,37.87,38.644067796610166,37.879999999999995,39.66101694915254,37.879999999999995C40.67796610169491,37.879999999999995,41.69491525423729,37.85,42.71186440677966,37.85C43.728813559322035,37.85,44.7457627118644,38.34,45.762711864406775,38.56C46.77966101694915,38.78,47.79661016949152,39.17,48.813559322033896,39.17C49.83050847457627,39.17,50.847457627118644,37.629999999999995,51.86440677966102,37.629999999999995C52.88135593220339,37.629999999999995,53.898305084745765,37.721666666666664,54.91525423728814,37.76C55.93220338983051,37.79833333333333,56.94915254237288,37.86,57.96610169491525,37.86C58.983050847457626,37.86,59.99999999999999,37.846666666666664,61.01694915254237,37.82C62.03389830508474,37.79333333333334,63.05084745762712,37.54,64.0677966101695,37.54C65.08474576271186,37.54,66.10169491525424,37.75666666666667,67.11864406779661,38C68.13559322033899,38.24333333333333,69.15254237288136,39,70.16949152542374,39C71.1864406779661,39,72.20338983050848,35.906666666666666,73.22033898305085,35.58C74.23728813559322,35.25333333333333,75.2542372881356,35.089999999999996,76.27118644067797,35.089999999999996C77.28813559322033,35.089999999999996,78.30508474576271,35.97,79.32203389830508,35.97C80.33898305084746,35.97,81.35593220338983,35.86333333333333,82.37288135593221,35.68C83.38983050847457,35.49666666666667,84.40677966101696,34.870000000000005,85.42372881355932,34.870000000000005C86.4406779661017,34.870000000000005,87.45762711864407,35.205,88.47457627118645,35.75C89.49152542372882,36.295,90.50847457627118,38.14,91.52542372881355,38.14C92.54237288135593,38.14,93.55932203389831,33.633333333333354,94.57627118644069,32.7C95.59322033898306,31.766666666666666,96.61016949152543,31.299999999999997,97.62711864406779,31.299999999999997C98.64406779661016,31.299999999999997,99.66101694915254,31.92,100.6779661016949,31.92C101.69491525423729,31.92,102.71186440677965,31.740000000000002,103.72881355932203,31.490000000000002C104.7457627118644,31.240000000000002,105.76271186440678,30.419999999999998,106.77966101694915,30.419999999999998C107.79661016949153,30.419999999999998,108.8135593220339,30.696666666666665,109.83050847457628,31.25C110.84745762711864,31.80333333333333,111.86440677966102,33.281666666666666,112.88135593220339,34.02C113.89830508474576,34.75833333333334,114.91525423728814,35.68,115.9322033898305,35.68C116.94915254237289,35.68,117.96610169491525,19.80000000000001,118.98305084745763,19.060000000000002C120,18.32,121.01694915254237,18.63999999999999,122.03389830508473,17.95C123.05084745762711,17.259999999999998,124.0677966101695,14.92,125.08474576271188,14.92C126.10169491525424,14.92,127.11864406779662,17.101666666666663,128.135593220339,17.919999999999998C129.15254237288136,18.73833333333333,130.16949152542372,19.24166666666667,131.1864406779661,19.830000000000002C132.20338983050846,20.41833333333334,133.22033898305085,21.45,134.23728813559322,21.45C135.25423728813558,21.45,136.27118644067798,14.96,137.28813559322035,14.96C138.3050847457627,14.96,139.3220338983051,15.53,140.33898305084747,15.53C141.35593220338984,15.53,142.3728813559322,10.36666666666666,143.38983050847457,8.260000000000002C144.40677966101694,6.153333333333322,145.42372881355934,2.8900000000000015,146.4406779661017,2.8900000000000015C147.45762711864407,2.8900000000000015,148.47457627118644,9.480000000000008,149.4915254237288,10.52C150.50847457627117,11.56,151.52542372881356,11.040000000000001,152.54237288135593,12.080000000000002C153.5593220338983,13.120000000000003,154.5762711864407,26.669999999999998,155.59322033898306,26.669999999999998C156.61016949152543,26.669999999999998,157.6271186440678,8.539999999999992,158.64406779661016,7.240000000000002C159.66101694915253,5.94,160.67796610169492,5.289999999999999,161.6949152542373,5.289999999999999C162.71186440677965,5.289999999999999,163.72881355932205,10.579999999999998,164.74576271186442,10.579999999999998C165.76271186440678,10.579999999999998,166.77966101694915,9.07,167.79661016949152,9.07C168.81355932203388,9.07,169.83050847457628,9.263333333333334,170.84745762711864,9.649999999999999C171.864406779661,10.036666666666664,172.8813559322034,12.961666666666666,173.89830508474577,15.52C174.91525423728814,18.078333333333333,175.93220338983053,25,176.9491525423729,25C177.96610169491527,25,178.98305084745763,14.575000000000001,180,4.15"></path><path class="axis-ceiling" stroke-width="1" stroke="black" fill="none" d="M175,0L180,0"></path><text class="axis-ceiling-label" font-family="sans-serif" text-anchor="end" font-size="10px" x="170" y="2.5">4000</text></g></svg>