<svg xmlns="http://www.w3.org/2000/svg" viewBox="0 0 180 60"><g transform="translate(0,20)"><path class="area" fill="rgba(0, 0, 0, 0.2)" d="M0,36C1.0169491525423728,36.21333333333333,2.0338983050847457,36.42666666666667,3.0508474576271185,36.64C4.067796610169491,36.85333333333333,5.084745762711864,37.28,6.101694915254237,37.28C7.11864406779661,37.28,8.135593220338983,37.120000000000005,9.152542372881356,37.120000000000005C10.169491525423728,37.120000000000005,11.186440677966102,37.28,12.203389830508474,37.28C13.220338983050846,37.28,14.23728813559322,37.22666666666667,15.254237288135592,37.120000000000005C16.271186440677965,37.01333333333334,17.28813559322034,36.77333333333333,18.305084745762713,36.64C19.322033898305087,36.50666666666667,20.338983050847457,36.480000000000004,21.35593220338983,36.32C22.372881355932204,36.16,23.389830508474574,36.026666666666664,24.406779661016948,35.68C25.423728813559322,35.333333333333336,26.440677966101696,34.45333333333333,27.45762711864407,34.24C28.47457627118644,34.02666666666667,29.491525423728813,34.053333333333335,30.508474576271183,33.92C31.525423728813557,33.78666666666667,32.54237288135593,33.70666666666666,33.559322033898304,33.44C34.57627118644068,33.17333333333333,35.59322033898305,32.64,36.610169491525426,32.32C37.6271186440678,32,38.644067796610166,31.92,39.66101694915254,31.520000000000003C40.67796610169491,31.120000000000005,41.69491525423729,30.453333333333337,42.71186440677966,29.92C43.728813559322035,29.38666666666667,44.7457627118644,28.746666666666666,45.762711864406775,28.32C46.77966101694915,27.89333333333333,47.79661016949152,27.759999999999998,48.813559322033896,27.36C49.83050847457627,26.96,50.847457627118644,26.26666666666667,51.86440677966102,25.92C52.88135593220339,25.573333333333334,53.898305084745765,25.386666666666667,54.91525423728814,25.28C55.93220338983051,25.173333333333336,56.94915254237288,25.226666666666667,57.96610169491525,25.12C58.983050847457626,25.013333333333335,59.99999999999999,24.373333333333335,61.01694915254237,23.680000000000003C62.03389830508474,22.986666666666668,63.05084745762712,21.733333333333338,64.0677966101695,20.96C65.08474576271186,20.18666666666667,66.10169491525424,19.546666666666667,67.11864406779661,19.04C68.13559322033899,18.53333333333333,69.15254237288136,18.37333333333333,70.16949152542374,17.919999999999998C71.1864406779661,17.466666666666665,72.20338983050848,16.533333333333335,73.22033898305085,16.32C74.23728813559322,16.106666666666666,75.2542372881356,16.213333333333335,76.27118644067797,16C77.28813559322033,15.786666666666667,78.30508474576271,14.239999999999995,79.32203389830508,13.279999999999998C80.33898305084746,12.319999999999995,81.35593220338983,10.346666666666668,82.37288135593221,10.24C83.38983050847457,10.133333333333333,84.40677966101696,10.186666666666667,85.42372881355932,10.08C86.4406779661017,9.973333333333333,87.45762711864407,8.933333333333337,88.47457627118645,8.159999999999998C89.49152542372882,7.386666666666668,90.50847457627118,5.9733333333333265,91.52542372881355,5.44C92.54237288135593,4.906666666666666,93.55932203389831,5.120000000000006,94.57627118644069,4.64C95.59322033898306,4.159999999999999,96.61016949152543,2.559999999999998,97.62711864406779,2.559999999999998C98.64406779661016,2.559999999999998,99.66101694915254,3.999999999999999,100.6779661016949,3.999999999999999C101.69491525423729,3.999999999999999,102.71186440677965,3.1999999999999984,103.72881355932203,3.1999999999999984C104.7457627118644,3.1999999999999984,105.76271186440678,3.2533333333333316,106.77966101694915,3.3599999999999985C107.79661016949153,3.466666666666666,108.8135593220339,4.6133333333333315,109.83050847457628,5.28C110.84745762711864,5.946666666666666,111.86440677966102,6.746666666666669,112.88135593220339,7.360000000000002C113.89830508474576,7.973333333333335,114.91525423728814,8.373333333333335,115.9322033898305,8.959999999999999C116.94915254237289,9.546666666666667,117.96610169491525,10.453333333333333,118.98305084745763,10.88C120,11.306666666666663,121.01694915254237,11.093333333333334,122.03389830508473,11.520000000000001C123.05084745762711,11.946666666666674,124.0677966101695,13.599999999999996,125.08474576271188,14.399999999999999C126.10169491525424,15.199999999999992,127.11864406779662,15.626666666666665,128.135593220339,16.32C129.15254237288136,17.013333333333332,130.16949152542372,17.866666666666667,131.1864406779661,18.56C132.20338983050846,19.253333333333337,133.22033898305085,19.893333333333334,134.23728813559322,20.48C135.25423728813558,21.066666666666666,136.27118644067798,21.653333333333336,137.28813559322035,22.080000000000002C138.3050847457627,22.506666666666668,139.3220338983051,22.666666666666668,140.33898305084747,23.040000000000003C141.35593220338984,23.413333333333334,142.3728813559322,23.760000000000005,143.38983050847457,24.32C144.40677966101694,24.880000000000003,145.42372881355934,25.759999999999998,146.4406779661017,26.4C147.45762711864407,27.039999999999996,148.47457627118644,27.626666666666665,149.4915254237288,28.159999999999997C150.50847457627117,28.693333333333335,151.52542372881356,29.386666666666667,152.54237288135593,29.6C153.5593220338983,29.813333333333336,154.5762711864407,29.76,155.59322033898306,29.92C156.61016949152543,30.080000000000002,157.6271186440678,30.560000000000002,158.64406779661016,30.560000000000002C159.66101694915253,30.560000000000002,160.67796610169492,30.560000000000002,161.6949152542373,30.560000000000002C162.71186440677965,30.560000000000002,163.72881355932205,30.74666666666667,164.74576271186442,30.880000000000003C165.76271186440678,31.013333333333335,166.77966101694915,31.173333333333336,167.79661016949152,31.36C168.81355932203388,31.546666666666667,169.83050847457628,31.84,170.84745762711864,32C171.864406779661,32.16,172.8813559322034,32.10666666666667,173.89830508474577,32.32C174.91525423728814,32.53333333333333,175.93220338983053,33.06666666666667,176.9491525423729,33.28C177.96610169491527,33.49333333333333,178.98305084745763,33.54666666666667,180,33.6L180,40C178.98305084745763,40,177.96610169491527,40,176.9491525423729,40C175.93220338983053,40,174.91525423728814,40,173.89830508474577,40C172.8813559322034,40,171.864406779661,40,170.84745762711864,40C169.83050847457628,40,168.81355932203388,40,167.79661016949152,40C166.77966101694915,40,165.76271186440678,40,164.74576271186442,40C163.72881355932205,40,162.71186440677965,40,161.6949152542373,40C160.67796610169492,40,159.66101694915253,40,158.64406779661016,40C157.6271186440678,40,156.61016949152543,40,155.59322033898306,40C154.5762711864407,40,153.5593220338983,40,152.54237288135593,40C151.52542372881356,40,150.50847457627117,40,149.4915254237288,40C148.47457627118644,40,147.45762711864407,40,146.4406779661017,40C145.42372881355934,40,144.40677966101694,40,143.38983050847457,40C142.3728813559322,40,141.35593220338984,40,140.33898305084747,40C139.3220338983051,40,138.3050847457627,40,137.28813559322035,40C136.27118644067798,40,135.25423728813558,40,134.23728813559322,40C133.22033898305085,40,132.20338983050846,40,131.1864406779661,40C130.16949152542372,40,129.15254237288136,40,128.135593220339,40C127.11864406779662,40,126.10169491525424,40,125.08474576271188,40C124.0677966101695,40,123.05084745762711,40,122.03389830508473,40C121.01694915254237,40,120,40,118.98305084745763,40C117.96610169491525,40,116.94915254237289,40,115.9322033898305,40C114.91525423728814,40,113.89830508474576,40,112.88135593220339,40C111.86440677966102,40,110.84745762711864,40,109.83050847457628,40C108.8135593220339,40,107.79661016949153,40,106.77966101694915,40C105.76271186440678,40,104.7457627118644,40,103.72881355932203,40C102.71186440677965,40,101.69491525423729,40,100.6779661016949,40C99.66101694915254,40,98.64406779661016,40,97.62711864406779,40C96.61016949152543,40,95.59322033898306,40,94.57627118644069,40C93.55932203389831,40,92.54237288135593,40,91.52542372881355,40C90.50847457627118,40,89.49152542372882,40,88.47457627118645,40C87.45762711864407,40,86.4406779661017,40,85.42372881355932,40C84.40677966101696,40,83.38983050847457,40,82.37288135593221,40C81.35593220338983,40,80.33898305084746,40,79.32203389830508,40C78.30508474576271,40,77.28813559322033,40,76.27118644067797,40C75.2542372881356,40,74.23728813559322,40,73.22033898305085,40C72.20338983050848,40,71.1864406779661,40,70.16949152542374,40C69.15254237288136,40,68.13559322033899,40,67.11864406779661,40C66.10169491525424,40,65.08474576271186,40,64.0677966101695,40C63.05084745762712,40,62.03389830508474,40,61.01694915254237,40C59.99999999999999,40,58.983050847457626,40,57.96610169491525,40C56.94915254237288,40,55.93220338983051,40,54.91525423728814,40C53.898305084745765,40,52.88135593220339,40,51.86440677966102,40C50.847457627118644,40,49.83050847457627,40,48.813559322033896,40C47.79661016949152,40,46.77966101694915,40,45.762711864406775,40C44.7457627118644,40,43.728813559322035,40,42.71186440677966,40C41.69491525423729,40,40.67796610169491,40,39.66101694915254,40C38.644067796610166,40,37.6271186440678,40,36.610169491525426,40C35.59322033898305,40,34.57627118644068,40,33.559322033898304,40C32.54237288135593,40,31.525423728813557,40,30.508474576271183,40C29.491525423728813,40,28.47457627118644,40,27.45762711864407,40C26.440677966101696,40,25.423728813559322,40,24.406779661016948,40C23.389830508474574,40,22.372881355932204,40,21.35593220338983,40C20.338983050847457,40,19.322033898305087,40,18.305084745762713,40C17.28813559322034,40,16.271186440677965,40,15.254237288135592,40C14.23728813559322,40,13.220338983050846,40,12.203389830508474,40C11.186440677966102,40,10.169491525423728,40,9.152542372881356,40C8.135593220338983,40,7.11864406779661,40,6.101694915254237,40C5.084745762711864,40,4.067796610169491,40,3.0508474576271185,40C2.0338983050847457,40,1.0169491525423728,40,0,40Z"></path><path class="line" stroke="black" fill="none" d="M0,36C1.0169491525423728,36.21333333333333,2.0338983050847457,36.42666666666667,3.0508474576271185,36.64C4.067796610169491,36.85333333333333,5.084745762711864,37.28,6.101694915254237,37.28C7.11864406779661,37.28,8.135593220338983,37.120000000000005,9.152542372881356,37.120000000000005C10.169491525423728,37.120000000000005,11.186440677966102,37.28,12.203389830508474,37.28C13.220338983050846,37.28,14.23728813559322,37.22666666666667,15.254237288135592,37.120000000000005C16.271186440677965,37.01333333333334,17.28813559322034,36.77333333333333,18.305084745762713,36.64C19.322033898305087,36.50666666666667,20.338983050847457,36.480000000000004,21.35593220338983,36.32C22.372881355932204,36.16,23.389830508474574,36.026666666666664,24.406779661016948,35.68C25.423728813559322,35.333333333333336,26.440677966101696,34.45333333333333,27.45762711864407,34.24C28.47457627118644,34.02666666666667,29.491525423728813,34.053333333333335,30.508474576271183,33.92C31.525423728813557,33.78666666666667,32.54237288135593,33.70666666666666,33.559322033898304,33.44C34.57627118644068,33.17333333333333,35.59322033898305,32.64,36.610169491525426,32.32C37.6271186440678,32,38.644067796610166,31.92,39.66101694915254,31.520000000000003C40.67796610169491,31.120000000000005,41.69491525423729,30.453333333333337,42.71186440677966,29.92C43.728813559322035,29.38666666666667,44.7457627118644,28.746666666666666,45.762711864406775,28.32C46.77966101694915,27.89333333333333,47.79661016949152,27.759999999999998,48.813559322033896,27.36C49.83050847457627,26.96,50.847457627118644,26.26666666666667,51.86440677966102,25.92C52.88135593220339,25.573333333333334,53.898305084745765,25.386666666666667,54.91525423728814,25.28C55.93220338983051,25.173333333333336,56.94915254237288,25.226666666666667,57.96610169491525,25.12C58.983050847457626,25.013333333333335,59.99999999999999,24.373333333333335,61.01694915254237,23.680000000000003C62.03389830508474,22.986666666666668,63.05084745762712,21.733333333333338,64.0677966101695,20.96C65.08474576271186,20.18666666666667,66.10169491525424,19.546666666666667,67.11864406779661,19.04C68.13559322033899,18.53333333333333,69.15254237288136,18.37333333333333,70.16949152542374,17.919999999999998C71.1864406779661,17.466666666666665,72.20338983050848,16.533333333333335,73.22033898305085,16.32C74.23728813559322,16.106666666666666,75.2542372881356,16.213333333333335,76.27118644067797,16C77.28813559322033,15.786666666666667,78.30508474576271,14.239999999999995,79.32203389830508,13.279999999999998C80.33898305084746,12.319999999999995,81.35593220338983,10.346666666666668,82.37288135593221,10.24C83.38983050847457,10.133333333333333,84.40677966101696,10.186666666666667,85.42372881355932,10.08C86.4406779661017,9.973333333333333,87.45762711864407,8.933333333333337,88.47457627118645,8.159999999999998C89.49152542372882,7.386666666666668,90.50847457627118,5.9733333333333265,91.52542372881355,5.44C92.54237288135593,4.906666666666666,93.55932203389831,5.120000000000006,94.57627118644069,4.64C95.59322033898306,4.159999999999999,96.61016949152543,2.559999999999998,97.62711864406779,2.559999999999998C98.64406779661016,2.559999999999998,99.66101694915254,3.999999999999999,100.6779661016949,3.999999999999999C101.69491525423729,3.999999999999999,102.71186440677965,3.1999999999999984,103.72881355932203,3.1999999999999984C104.7457627118644,3.1999999999999984,105.76271186440678,3.2533333333333316,106.77966101694915,3.3599999999999985C107.79661016949153,3.466666666666666,108.8135593220339,4.6133333333333315,109.83050847457628,5.28C110.84745762711864,5.946666666666666,111.86440677966102,6.746666666666669,112.88135593220339,7.360000000000002C113.89830508474576,7.973333333333335,114.91525423728814,8.373333333333335,115.9322033898305,8.959999999999999C116.94915254237289,9.546666666666667,117.96610169491525,10.453333333333333,118.98305084745763,10.88C120,11.306666666666663,121.01694915254237,11.093333333333334,122.03389830508473,11.520000000000001C123.05084745762711,11.946666666666674,124.0677966101695,13.599999999999996,125.08474576271188,14.399999999999999C126.10169491525424,15.199999999999992,127.11864406779662,15.626666666666665,128.135593220339,16.32C129.15254237288136,17.013333333333332,130.16949152542372,17.866666666666667,131.1864406779661,18.56C132.20338983050846,19.253333333333337,133.22033898305085,19.893333333333334,134.23728813559322,20.48C135.25423728813558,21.066666666666666,136.27118644067798,21.653333333333336,137.28813559322035,22.080000000000002C138.3050847457627,22.506666666666668,139.3220338983051,22.666666666666668,140.33898305084747,23.040000000000003C141.35593220338984,23.413333333333334,142.3728813559322,23.760000000000005,143.38983050847457,24.32C144.40677966101694,24.880000000000003,145.42372881355934,25.759999999999998,146.4406779661017,26.4C147.45762711864407,27.039999999999996,148.47457627118644,27.626666666666665,149.4915254237288,28.159999999999997C150.50847457627117,28.693333333333335,151.52542372881356,29.386666666666667,152.54237288135593,29.6C153.5593220338983,29.813333333333336,154.5762711864407,29.76,155.59322033898306,29.92C156.61016949152543,30.080000000000002,157.6271186440678,30.560000000000002,158.64406779661016,30.560000000000002C159.66101694915253,30.560000000000002,160.67796610169492,30.560000000000002,161.6949152542373,30.560000000000002C162.71186440677965,30.560000000000002,163.72881355932205,30.74666666666667,164.74576271186442,30.880000000000003C165.76271186440678,31.013333333333335,166.77966101694915,31.173333333333336,167.79661016949152,31.36C168.81355932203388,31.546666666666667,169.83050847457628,31.84,170.84745762711864,32C171.864406779661,32.16,172.8813559322034,32.10666666666667,173.89830508474577,32.32C174.91525423728814,32.53333333333333,175.93220338983053,33.06666666666667,176.9491525423729,33.28C177.96610169491527,33.49333333333333,178.98305084745763,33.54666666666667,180,33.6"></path><path class="axis-ceiling" stroke-width="1" stroke="black" fill="none" d="M175,0L180,0"></path><text class="axis-ceiling-label" font-family="sans-serif" text-anchor="end" font-size="10px" x="170" y="2.5">250</text></g></svg>