<svg xmlns="http://www.w3.org/2000/svg" viewBox="0 0 180 60"><g transform="translate(0,20)"><path class="area" fill="rgba(0, 0, 0, 0.2)" d="M0,40C1.0169491525423728,39.980000000000004,2.0338983050847457,39.96,3.0508474576271185,39.96C4.067796610169491,39.96,5.084745762711864,39.96,6.101694915254237,39.96C7.11864406779661,39.96,8.135593220338983,40,9.152542372881356,40C10.169491525423728,40,11.186440677966102,40,12.203389830508474,40C13.220338983050846,40,14.23728813559322,40,15.254237288135592,40C16.271186440677965,40,17.28813559322034,40,18.305084745762713,40C19.322033898305087,40,20.338983050847457,39.96,21.35593220338983,39.96C22.372881355932204,39.96,23.389830508474574,40,24.406779661016948,40C25.423728813559322,40,26.440677966101696,40,27.45762711864407,40C28.47457627118644,40,29.491525423728813,39.96,30.508474576271183,39.96C31.525423728813557,39.96,32.54237288135593,40,33.559322033898304,40C34.57627118644068,40,35.59322033898305,39.973333333333336,36.610169491525426,39.96C37.6271186440678,39.946666666666665,38.644067796610166,39.946666666666665,39.66101694915254,39.92C40.67796610169491,39.89333333333334,41.69491525423729,39.76,42.71186440677966,39.76C43.728813559322035,39.76,44.7457627118644,39.76,45.762711864406775,39.76C46.77966101694915,39.76,47.79661016949152,39.519999999999996,48.813559322033896,39.519999999999996C49.83050847457627,39.519999999999996,50.847457627118644,39.72,51.86440677966102,39.72C52.88135593220339,39.72,53.898305084745765,38.76,54.91525423728814,38.76C55.93220338983051,38.76,56.94915254237288,38.88666666666667,57.96610169491525,39C58.983050847457626,39.11333333333333,59.99999999999999,39.44,61.01694915254237,39.44C62.03389830508474,39.44,63.05084745762712,39.4,64.0677966101695,39.32C65.08474576271186,39.24,66.10169491525424,38.66,67.11864406779661,38.199999999999996C68.13559322033899,37.739999999999995,69.15254237288136,36.56,70.16949152542374,36.56C71.1864406779661,36.56,72.20338983050848,36.96,73.22033898305085,36.96C74.23728813559322,36.96,75.2542372881356,35.76,76.27118644067797,35.76C77.28813559322033,35.76,78.30508474576271,36.42666666666667,79.32203389830508,36.84C80.33898305084746,37.25333333333334,81.35593220338983,38.239999999999995,82.37288135593221,38.239999999999995C83.38983050847457,38.239999999999995,84.40677966101696,35.54666666666667,85.42372881355932,34.76C86.4406779661017,33.97333333333333,87.45762711864407,33.946666666666665,88.47457627118645,33.519999999999996C89.49152542372882,33.093333333333334,90.50847457627118,32.56666666666666,91.52542372881355,32.199999999999996C92.54237288135593,31.833333333333325,93.55932203389831,31.70666666666667,94.57627118644069,31.32C95.59322033898306,30.933333333333337,96.61016949152543,30.333333333333332,97.62711864406779,29.88C98.64406779661016,29.426666666666666,99.66101694915254,28.6,100.6779661016949,28.6C101.69491525423729,28.6,102.71186440677965,32.32,103.72881355932203,32.32C104.7457627118644,32.32,105.76271186440678,28.78666666666666,106.77966101694915,26.76C107.79661016949153,24.73333333333333,108.8135593220339,20.186666666666667,109.83050847457628,20.16C110.84745762711864,20.133333333333333,111.86440677966102,20.14666666666667,112.88135593220339,20.12C113.89830508474576,20.093333333333334,114.91525423728814,18.306666666666665,115.9322033898305,18.119999999999997C116.94915254237289,17.93333333333333,117.96610169491525,17.839999999999996,118.98305084745763,17.839999999999996C120,17.839999999999996,121.01694915254237,18.226666666666663,122.03389830508473,19C123.05084745762711,19.773333333333348,124.0677966101695,25.12,125.08474576271188,25.12C126.10169491525424,25.12,127.11864406779662,22.480000000000008,128.135593220339,20.16C129.15254237288136,17.840000000000003,130.16949152542372,11.200000000000001,131.1864406779661,11.200000000000001C132.20338983050846,11.200000000000001,133.22033898305085,12.679999999999998,134.23728813559322,12.679999999999998C135.25423728813558,12.679999999999998,136.27118644067798,12.493333333333332,137.28813559322035,12.120000000000001C138.3050847457627,11.74666666666667,139.3220338983051,10.24,140.33898305084747,10.24C141.35593220338984,10.24,142.3728813559322,13.180000000000014,143.38983050847457,15.32C144.40677966101694,17.460000000000004,145.42372881355934,23.08,146.4406779661017,23.08C147.45762711864407,23.08,148.47457627118644,16.366666666666646,149.4915254237288,12.959999999999997C150.50847457627117,9.553333333333315,151.52542372881356,2.639999999999998,152.54237288135593,2.639999999999998C153.5593220338983,2.639999999999998,154.5762711864407,11.48,155.59322033898306,11.48C156.61016949152543,11.48,157.6271186440678,9.64,158.64406779661016,9.64C159.66101694915253,9.64,160.67796610169492,16.32,161.6949152542373,16.32C162.71186440677965,16.32,163.72881355932205,13.119999999999997,164.74576271186442,13.119999999999997C165.76271186440678,13.119999999999997,166.77966101694915,24.28,167.79661016949152,24.28C168.81355932203388,24.28,169.83050847457628,8.359999999999996,170.84745762711864,7.879999999999998C171.864406779661,7.4,172.8813559322034,7.64,173.89830508474577,7.160000000000002C174.91525423728814,6.680000000000004,175.93220338983053,3.759999999999999,176.9491525423729,3.759999999999999C177.96610169491527,3.759999999999999,178.98305084745763,6.239999999999999,180,8.719999999999999L180,40C178.98305084745763,40,177.96610169491527,40,176.9491525423729,40C175.93220338983053,40,174.91525423728814,40,173.89830508474577,40C172.8813559322034,40,171.864406779661,40,170.84745762711864,40C169.83050847457628,40,168.81355932203388,40,167.79661016949152,40C166.77966101694915,40,165.76271186440678,40,164.74576271186442,40C163.72881355932205,40,162.71186440677965,40,161.6949152542373,40C160.67796610169492,40,159.66101694915253,40,158.64406779661016,40C157.6271186440678,40,156.61016949152543,40,155.59322033898306,40C154.5762711864407,40,153.5593220338983,40,152.54237288135593,40C151.52542372881356,40,150.50847457627117,40,149.4915254237288,40C148.47457627118644,40,147.45762711864407,40,146.4406779661017,40C145.42372881355934,40,144.40677966101694,40,143.38983050847457,40C142.3728813559322,40,141.35593220338984,40,140.33898305084747,40C139.3220338983051,40,138.3050847457627,40,137.28813559322035,40C136.27118644067798,40,135.25423728813558,40,134.23728813559322,40C133.22033898305085,40,132.20338983050846,40,131.1864406779661,40C130.16949152542372,40,129.15254237288136,40,128.135593220339,40C127.11864406779662,40,126.10169491525424,40,125.08474576271188,40C124.0677966101695,40,123.05084745762711,40,122.03389830508473,40C121.01694915254237,40,120,40,118.98305084745763,40C117.96610169491525,40,116.94915254237289,40,115.9322033898305,40C114.91525423728814,40,113.89830508474576,40,112.88135593220339,40C111.86440677966102,40,110.84745762711864,40,109.83050847457628,40C108.8135593220339,40,107.79661016949153,40,106.77966101694915,40C105.76271186440678,40,104.7457627118644,40,103.72881355932203,40C102.71186440677965,40,101.69491525423729,40,100.6779661016949,40C99.66101694915254,40,98.64406779661016,40,97.62711864406779,40C96.61016949152543,40,95.59322033898306,40,94.57627118644069,40C93.55932203389831,40,92.54237288135593,40,91.52542372881355,40C90.50847457627118,40,89.49152542372882,40,88.47457627118645,40C87.45762711864407,40,86.4406779661017,40,85.42372881355932,40C84.40677966101696,40,83.38983050847457,40,82.37288135593221,40C81.35593220338983,40,80.33898305084746,40,79.32203389830508,40C78.30508474576271,40,77.28813559322033,40,76.27118644067797,40C75.2542372881356,40,74.23728813559322,40,73.22033898305085,40C72.20338983050848,40,71.1864406779661,40,70.16949152542374,40C69.15254237288136,40,68.13559322033899,40,67.11864406779661,40C66.10169491525424,40,65.08474576271186,40,64.0677966101695,40C63.05084745762712,40,62.03389830508474,40,61.01694915254237,40C59.99999999999999,40,58.983050847457626,40,57.96610169491525,40C56.94915254237288,40,55.93220338983051,40,54.91525423728814,40C53.898305084745765,40,52.88135593220339,40,51.86440677966102,40C50.847457627118644,40,49.83050847457627,40,48.813559322033896,40C47.79661016949152,40,46.77966101694915,40,45.762711864406775,40C44.7457627118644,40,43.728813559322035,40,42.71186440677966,40C41.69491525423729,40,40.67796610169491,40,39.66101694915254,40C38.644067796610166,40,37.6271186440678,40,36.610169491525426,40C35.59322033898305,40,34.57627118644068,40,33.559322033898304,40C32.54237288135593,40,31.525423728813557,40,30.508474576271183,40C29.491525423728813,40,28.47457627118644,40,27.45762711864407,40C26.440677966101696,40,25.423728813559322,40,24.406779661016948,40C23.389830508474574,40,22.372881355932204,40,21.35593220338983,40C20.338983050847457,40,19.322033898305087,40,18.305084745762713,40C17.28813559322034,40,16.271186440677965,40,15.254237288135592,40C14.23728813559322,40,13.220338983050846,40,12.203389830508474,40C11.186440677966102,40,10.169491525423728,40,9.152542372881356,40C8.135593220338983,40,7.11864406779661,40,6.101694915254237,40C5.084745762711864,40,4.067796610169491,40,3.0508474576271185,40C2.0338983050847457,40,1.0169491525423728,40,0,40Z"></path><path class="line" stroke="black" fill="none" d="M0,40C1.0169491525423728,39.980000000000004,2.0338983050847457,39.96,3.0508474576271185,39.96C4.067796610169491,39.96,5.084745762711864,39.96,6.101694915254237,39.96C7.11864406779661,39.96,8.135593220338983,40,9.152542372881356,40C10.169491525423728,40,11.186440677966102,40,12.203389830508474,40C13.220338983050846,40,14.23728813559322,40,15.254237288135592,40C16.271186440677965,40,17.28813559322034,40,18.305084745762713,40C19.322033898305087,40,20.338983050847457,39.96,21.35593220338983,39.96C22.372881355932204,39.96,23.389830508474574,40,24.406779661016948,40C25.423728813559322,40,26.440677966101696,40,27.45762711864407,40C28.47457627118644,40,29.491525423728813,39.96,30.508474576271183,39.96C31.525423728813557,39.96,32.54237288135593,40,33.559322033898304,40C34.57627118644068,40,35.59322033898305,39.973333333333336,36.610169491525426,39.96C37.6271186440678,39.946666666666665,38.644067796610166,39.946666666666665,39.66101694915254,39.92C40.67796610169491,39.89333333333334,41.69491525423729,39.76,42.71186440677966,39.76C43.728813559322035,39.76,44.7457627118644,39.76,45.762711864406775,39.76C46.77966101694915,39.76,47.79661016949152,39.519999999999996,48.813559322033896,39.519999999999996C49.83050847457627,39.519999999999996,50.847457627118644,39.72,51.86440677966102,39.72C52.88135593220339,39.72,53.898305084745765,38.76,54.91525423728814,38.76C55.93220338983051,38.76,56.94915254237288,38.88666666666667,57.96610169491525,39C58.983050847457626,39.11333333333333,59.99999999999999,39.44,61.01694915254237,39.44C62.03389830508474,39.44,63.05084745762712,39.4,64.0677966101695,39.32C65.08474576271186,39.24,66.10169491525424,38.66,67.11864406779661,38.199999999999996C68.13559322033899,37.739999999999995,69.15254237288136,36.56,70.16949152542374,36.56C71.1864406779661,36.56,72.20338983050848,36.96,73.22033898305085,36.96C74.23728813559322,36.96,75.2542372881356,35.76,76.27118644067797,35.76C77.28813559322033,35.76,78.30508474576271,36.42666666666667,79.32203389830508,36.84C80.33898305084746,37.25333333333334,81.35593220338983,38.239999999999995,82.37288135593221,38.239999999999995C83.38983050847457,38.239999999999995,84.40677966101696,35.54666666666667,85.42372881355932,34.76C86.4406779661017,33.97333333333333,87.45762711864407,33.946666666666665,88.47457627118645,33.519999999999996C89.49152542372882,33.093333333333334,90.50847457627118,32.56666666666666,91.52542372881355,32.199999999999996C92.54237288135593,31.833333333333325,93.55932203389831,31.70666666666667,94.57627118644069,31.32C95.59322033898306,30.933333333333337,96.61016949152543,30.333333333333332,97.62711864406779,29.88C98.64406779661016,29.426666666666666,99.66101694915254,28.6,100.6779661016949,28.6C101.69491525423729,28.6,102.71186440677965,32.32,103.72881355932203,32.32C104.7457627118644,32.32,105.76271186440678,28.78666666666666,106.77966101694915,26.76C107.79661016949153,24.73333333333333,108.8135593220339,20.186666666666667,109.83050847457628,20.16C110.84745762711864,20.133333333333333,111.86440677966102,20.14666666666667,112.88135593220339,20.12C113.89830508474576,20.093333333333334,114.91525423728814,18.306666666666665,115.9322033898305,18.119999999999997C116.94915254237289,17.93333333333333,117.96610169491525,17.839999999999996,118.98305084745763,17.839999999999996C120,17.839999999999996,121.01694915254237,18.226666666666663,122.03389830508473,19C123.05084745762711,19.773333333333348,124.0677966101695,25.12,125.08474576271188,25.12C126.10169491525424,25.12,127.11864406779662,22.480000000000008,128.135593220339,20.16C129.15254237288136,17.840000000000003,130.16949152542372,11.200000000000001,131.1864406779661,11.200000000000001C132.20338983050846,11.200000000000001,133.22033898305085,12.679999999999998,134.23728813559322,12.679999999999998C135.25423728813558,12.679999999999998,136.27118644067798,12.493333333333332,137.28813559322035,12.120000000000001C138.3050847457627,11.74666666666667,139.3220338983051,10.24,140.33898305084747,10.24C141.35593220338984,10.24,142.3728813559322,13.180000000000014,143.38983050847457,15.32C144.40677966101694,17.460000000000004,145.42372881355934,23.08,146.4406779661017,23.08C147.45762711864407,23.08,148.47457627118644,16.366666666666646,149.4915254237288,12.959999999999997C150.50847457627117,9.553333333333315,151.52542372881356,2.639999999999998,152.54237288135593,2.639999999999998C153.5593220338983,2.639999999999998,154.5762711864407,11.48,155.59322033898306,11.48C156.61016949152543,11.48,157.6271186440678,9.64,158.64406779661016,9.64C159.66101694915253,9.64,160.67796610169492,16.32,161.6949152542373,16.32C162.71186440677965,16.32,163.72881355932205,13.119999999999997,164.74576271186442,13.119999999999997C165.76271186440678,13.119999999999997,166.77966101694915,24.28,167.79661016949152,24.28C168.81355932203388,24.28,169.83050847457628,8.359999999999996,170.84745762711864,7.879999999999998C171.864406779661,7.4,172.8813559322034,7.64,173.89830508474577,7.160000000000002C174.91525423728814,6.680000000000004,175.93220338983053,3.759999999999999,176.9491525423729,3.759999999999999C177.96610169491527,3.759999999999999,178.98305084745763,6.239999999999999,180,8.719999999999999"></path><path class="axis-ceiling" stroke-width="1" stroke="black" fill="none" d="M175,0L180,0"></path><text class="axis-ceiling-label" font-family="sans-serif" text-anchor="end" font-size="10px" x="170" y="2.5">1000</text></g></svg>