<svg xmlns="http://www.w3.org/2000/svg" viewBox="0 0 180 60"><g transform="translate(0,20)"><path class="area" fill="rgba(0, 0, 0, 0.2)" d="M0,38.239999999999995C1.0169491525423728,38.239999999999995,2.0338983050847457,38.239999999999995,3.0508474576271185,38.239999999999995C4.067796610169491,38.239999999999995,5.084745762711864,38.13333333333333,6.101694915254237,38.08C7.11864406779661,38.026666666666664,8.135593220338983,38,9.152542372881356,37.92C10.169491525423728,37.84,11.186440677966102,37.599999999999994,12.203389830508474,37.599999999999994C13.220338983050846,37.599999999999994,14.23728813559322,37.599999999999994,15.254237288135592,37.599999999999994C16.271186440677965,37.599999999999994,17.28813559322034,37.36,18.305084745762713,37.28C19.322033898305087,37.2,20.338983050847457,37.2,21.35593220338983,37.120000000000005C22.372881355932204,37.040000000000006,23.389830508474574,36.90666666666667,24.406779661016948,36.800000000000004C25.423728813559322,36.693333333333335,26.440677966101696,36.61333333333334,27.45762711864407,36.480000000000004C28.47457627118644,36.34666666666667,29.491525423728813,36.16,30.508474576271183,36C31.525423728813557,35.839999999999996,32.54237288135593,35.70666666666667,33.559322033898304,35.52C34.57627118644068,35.333333333333336,35.59322033898305,34.98666666666667,36.610169491525426,34.88C37.6271186440678,34.77333333333333,38.644067796610166,34.72,39.66101694915254,34.72C40.67796610169491,34.72,41.69491525423729,34.88,42.71186440677966,34.88C43.728813559322035,34.88,44.7457627118644,34.88,45.762711864406775,34.88C46.77966101694915,34.88,47.79661016949152,34.96,48.813559322033896,35.04C49.83050847457627,35.12,50.847457627118644,35.2,51.86440677966102,35.36C52.88135593220339,35.519999999999996,53.898305084745765,35.78666666666667,54.91525423728814,36C55.93220338983051,36.21333333333333,56.94915254237288,36.42666666666667,57.96610169491525,36.64C58.983050847457626,36.85333333333333,59.99999999999999,37.28,61.01694915254237,37.28C62.03389830508474,37.28,63.05084745762712,37.120000000000005,64.0677966101695,37.120000000000005C65.08474576271186,37.120000000000005,66.10169491525424,37.28,67.11864406779661,37.28C68.13559322033899,37.28,69.15254237288136,37.22666666666667,70.16949152542374,37.120000000000005C71.1864406779661,37.01333333333334,72.20338983050848,36.77333333333333,73.22033898305085,36.64C74.23728813559322,36.50666666666667,75.2542372881356,36.480000000000004,76.27118644067797,36.32C77.28813559322033,36.16,78.30508474576271,36.026666666666664,79.32203389830508,35.68C80.33898305084746,35.333333333333336,81.35593220338983,34.45333333333333,82.37288135593221,34.24C83.38983050847457,34.02666666666667,84.40677966101696,34.053333333333335,85.42372881355932,33.92C86.4406779661017,33.78666666666667,87.45762711864407,33.70666666666666,88.47457627118645,33.44C89.49152542372882,33.17333333333333,90.50847457627118,32.64,91.52542372881355,32.32C92.54237288135593,31.999999999999996,93.55932203389831,31.92000000000001,94.57627118644069,31.520000000000003C95.59322033898306,31.120000000000005,96.61016949152543,30.453333333333333,97.62711864406779,29.92C98.64406779661016,29.386666666666667,99.66101694915254,28.746666666666666,100.6779661016949,28.32C101.69491525423729,27.89333333333333,102.71186440677965,27.76,103.72881355932203,27.36C104.7457627118644,26.96,105.76271186440678,26.26666666666667,106.77966101694915,25.92C107.79661016949153,25.573333333333334,108.8135593220339,25.386666666666667,109.83050847457628,25.28C110.84745762711864,25.173333333333336,111.86440677966102,25.226666666666667,112.88135593220339,25.12C113.89830508474576,25.013333333333335,114.91525423728814,24.373333333333335,115.9322033898305,23.680000000000003C116.94915254237289,22.986666666666668,117.96610169491525,21.733333333333338,118.98305084745763,20.96C120,20.18666666666667,121.01694915254237,19.546666666666663,122.03389830508473,19.04C123.05084745762711,18.533333333333328,124.0677966101695,18.373333333333335,125.08474576271188,17.919999999999998C126.10169491525424,17.466666666666665,127.11864406779662,16.533333333333335,128.135593220339,16.32C129.15254237288136,16.106666666666666,130.16949152542372,16.213333333333335,131.1864406779661,16C132.20338983050846,15.786666666666665,133.22033898305085,14.239999999999998,134.23728813559322,13.279999999999998C135.25423728813558,12.319999999999997,136.27118644067798,10.346666666666668,137.28813559322035,10.24C138.3050847457627,10.133333333333333,139.3220338983051,10.186666666666667,140.33898305084747,10.08C141.35593220338984,9.973333333333334,142.3728813559322,8.933333333333326,143.38983050847457,8.159999999999998C144.40677966101694,7.386666666666663,145.42372881355934,5.973333333333339,146.4406779661017,5.44C147.45762711864407,4.906666666666666,148.47457627118644,5.119999999999996,149.4915254237288,4.64C150.50847457627117,4.159999999999999,151.52542372881356,2.559999999999998,152.54237288135593,2.559999999999998C153.5593220338983,2.559999999999998,154.5762711864407,3.999999999999999,155.59322033898306,3.999999999999999C156.61016949152543,3.999999999999999,157.6271186440678,3.1999999999999984,158.64406779661016,3.1999999999999984C159.66101694915253,3.1999999999999984,160.67796610169492,3.2533333333333316,161.6949152542373,3.3599999999999985C162.71186440677965,3.4666666666666655,163.72881355932205,4.61333333333333,164.74576271186442,5.28C165.76271186440678,5.9466666666666645,166.77966101694915,6.7466666666666715,167.79661016949152,7.360000000000002C168.81355932203388,7.973333333333339,169.83050847457628,8.373333333333333,170.84745762711864,8.959999999999999C171.864406779661,9.546666666666665,172.8813559322034,10.453333333333333,173.89830508474577,10.88C174.91525423728814,11.306666666666668,175.93220338983053,11.093333333333334,176.9491525423729,11.520000000000001C177.96610169491527,11.946666666666664,178.98305084745763,13.173333333333332,180,14.399999999999999L180,40C178.98305084745763,40,177.96610169491527,40,176.9491525423729,40C175.93220338983053,40,174.91525423728814,40,173.89830508474577,40C172.8813559322034,40,171.864406779661,40,170.84745762711864,40C169.83050847457628,40,168.81355932203388,40,167.79661016949152,40C166.77966101694915,40,165.76271186440678,40,164.74576271186442,40C163.72881355932205,40,162.71186440677965,40,161.6949152542373,40C160.67796610169492,40,159.66101694915253,40,158.64406779661016,40C157.6271186440678,40,156.61016949152543,40,155.59322033898306,40C154.5762711864407,40,153.5593220338983,40,152.54237288135593,40C151.52542372881356,40,150.50847457627117,40,149.4915254237288,40C148.47457627118644,40,147.45762711864407,40,146.4406779661017,40C145.42372881355934,40,144.40677966101694,40,143.38983050847457,40C142.3728813559322,40,141.35593220338984,40,140.33898305084747,40C139.3220338983051,40,138.3050847457627,40,137.28813559322035,40C136.27118644067798,40,135.25423728813558,40,134.23728813559322,40C133.22033898305085,40,132.20338983050846,40,131.1864406779661,40C130.16949152542372,40,129.15254237288136,40,128.135593220339,40C127.11864406779662,40,126.10169491525424,40,125.08474576271188,40C124.0677966101695,40,123.05084745762711,40,122.03389830508473,40C121.01694915254237,40,120,40,118.98305084745763,40C117.96610169491525,40,116.94915254237289,40,115.9322033898305,40C114.91525423728814,40,113.89830508474576,40,112.88135593220339,40C111.86440677966102,40,110.84745762711864,40,109.83050847457628,40C108.8135593220339,40,107.79661016949153,40,106.77966101694915,40C105.76271186440678,40,104.7457627118644,40,103.72881355932203,40C102.71186440677965,40,101.69491525423729,40,100.6779661016949,40C99.66101694915254,40,98.64406779661016,40,97.62711864406779,40C96.61016949152543,40,95.59322033898306,40,94.57627118644069,40C93.55932203389831,40,92.54237288135593,40,91.52542372881355,40C90.50847457627118,40,89.49152542372882,40,88.47457627118645,40C87.45762711864407,40,86.4406779661017,40,85.42372881355932,40C84.40677966101696,40,83.38983050847457,40,82.37288135593221,40C81.35593220338983,40,80.33898305084746,40,79.32203389830508,40C78.30508474576271,40,77.28813559322033,40,76.27118644067797,40C75.2542372881356,40,74.23728813559322,40,73.22033898305085,40C72.20338983050848,40,71.1864406779661,40,70.16949152542374,40C69.15254237288136,40,68.13559322033899,40,67.11864406779661,40C66.10169491525424,40,65.08474576271186,40,64.0677966101695,40C63.05084745762712,40,62.03389830508474,40,61.01694915254237,40C59.99999999999999,40,58.983050847457626,40,57.96610169491525,40C56.94915254237288,40,55.93220338983051,40,54.91525423728814,40C53.898305084745765,40,52.88135593220339,40,51.86440677966102,40C50.847457627118644,40,49.83050847457627,40,48.813559322033896,40C47.79661016949152,40,46.77966101694915,40,45.762711864406775,40C44.7457627118644,40,43.728813559322035,40,42.71186440677966,40C41.69491525423729,40,40.67796610169491,40,39.66101694915254,40C38.644067796610166,40,37.6271186440678,40,36.610169491525426,40C35.59322033898305,40,34.57627118644068,40,33.559322033898304,40C32.54237288135593,40,31.525423728813557,40,30.508474576271183,40C29.491525423728813,40,28.47457627118644,40,27.45762711864407,40C26.440677966101696,40,25.423728813559322,40,24.406779661016948,40C23.389830508474574,40,22.372881355932204,40,21.35593220338983,40C20.338983050847457,40,19.322033898305087,40,18.305084745762713,40C17.28813559322034,40,16.271186440677965,40,15.254237288135592,40C14.23728813559322,40,13.220338983050846,40,12.203389830508474,40C11.186440677966102,40,10.169491525423728,40,9.152542372881356,40C8.135593220338983,40,7.11864406779661,40,6.101694915254237,40C5.084745762711864,40,4.067796610169491,40,3.0508474576271185,40C2.0338983050847457,40,1.0169491525423728,40,0,40Z"></path><path class="line" stroke="black" fill="none" d="M0,38.239999999999995C1.0169491525423728,38.239999999999995,2.0338983050847457,38.239999999999995,3.0508474576271185,38.239999999999995C4.067796610169491,38.239999999999995,5.084745762711864,38.13333333333333,6.101694915254237,38.08C7.11864406779661,38.026666666666664,8.135593220338983,38,9.152542372881356,37.92C10.169491525423728,37.84,11.186440677966102,37.599999999999994,12.203389830508474,37.599999999999994C13.220338983050846,37.599999999999994,14.23728813559322,37.599999999999994,15.254237288135592,37.599999999999994C16.271186440677965,37.599999999999994,17.28813559322034,37.36,18.305084745762713,37.28C19.322033898305087,37.2,20.338983050847457,37.2,21.35593220338983,37.120000000000005C22.372881355932204,37.040000000000006,23.389830508474574,36.90666666666667,24.406779661016948,36.800000000000004C25.423728813559322,36.693333333333335,26.440677966101696,36.61333333333334,27.45762711864407,36.480000000000004C28.47457627118644,36.34666666666667,29.491525423728813,36.16,30.508474576271183,36C31.525423728813557,35.839999999999996,32.54237288135593,35.70666666666667,33.559322033898304,35.52C34.57627118644068,35.333333333333336,35.59322033898305,34.98666666666667,36.610169491525426,34.88C37.6271186440678,34.77333333333333,38.644067796610166,34.72,39.66101694915254,34.72C40.67796610169491,34.72,41.69491525423729,34.88,42.71186440677966,34.88C43.728813559322035,34.88,44.7457627118644,34.88,45.762711864406775,34.88C46.77966101694915,34.88,47.79661016949152,34.96,48.813559322033896,35.04C49.83050847457627,35.12,50.847457627118644,35.2,51.86440677966102,35.36C52.88135593220339,35.519999999999996,53.898305084745765,35.78666666666667,54.91525423728814,36C55.93220338983051,36.21333333333333,56.94915254237288,36.42666666666667,57.96610169491525,36.64C58.983050847457626,36.85333333333333,59.99999999999999,37.28,61.01694915254237,37.28C62.03389830508474,37.28,63.05084745762712,37.120000000000005,64.0677966101695,37.120000000000005C65.08474576271186,37.120000000000005,66.10169491525424,37.28,67.11864406779661,37.28C68.13559322033899,37.28,69.15254237288136,37.22666666666667,70.16949152542374,37.120000000000005C71.1864406779661,37.01333333333334,72.20338983050848,36.77333333333333,73.22033898305085,36.64C74.23728813559322,36.50666666666667,75.2542372881356,36.480000000000004,76.27118644067797,36.32C77.28813559322033,36.16,78.30508474576271,36.026666666666664,79.32203389830508,35.68C80.33898305084746,35.333333333333336,81.35593220338983,34.45333333333333,82.37288135593221,34.24C83.38983050847457,34.02666666666667,84.40677966101696,34.053333333333335,85.42372881355932,33.92C86.4406779661017,33.78666666666667,87.45762711864407,33.70666666666666,88.47457627118645,33.44C89.49152542372882,33.17333333333333,90.50847457627118,32.64,91.52542372881355,32.32C92.54237288135593,31.999999999999996,93.55932203389831,31.92000000000001,94.57627118644069,31.520000000000003C95.59322033898306,31.120000000000005,96.61016949152543,30.453333333333333,97.62711864406779,29.92C98.64406779661016,29.386666666666667,99.66101694915254,28.746666666666666,100.6779661016949,28.32C101.69491525423729,27.89333333333333,102.71186440677965,27.76,103.72881355932203,27.36C104.7457627118644,26.96,105.76271186440678,26.26666666666667,106.77966101694915,25.92C107.79661016949153,25.573333333333334,108.8135593220339,25.386666666666667,109.83050847457628,25.28C110.84745762711864,25.173333333333336,111.86440677966102,25.226666666666667,112.88135593220339,25.12C113.89830508474576,25.013333333333335,114.91525423728814,24.373333333333335,115.9322033898305,23.680000000000003C116.94915254237289,22.986666666666668,117.96610169491525,21.733333333333338,118.98305084745763,20.96C120,20.18666666666667,121.01694915254237,19.546666666666663,122.03389830508473,19.04C123.05084745762711,18.533333333333328,124.0677966101695,18.373333333333335,125.08474576271188,17.919999999999998C126.10169491525424,17.466666666666665,127.11864406779662,16.533333333333335,128.135593220339,16.32C129.15254237288136,16.106666666666666,130.16949152542372,16.213333333333335,131.1864406779661,16C132.20338983050846,15.786666666666665,133.22033898305085,14.239999999999998,134.23728813559322,13.279999999999998C135.25423728813558,12.319999999999997,136.27118644067798,10.346666666666668,137.28813559322035,10.24C138.3050847457627,10.133333333333333,139.3220338983051,10.186666666666667,140.33898305084747,10.08C141.35593220338984,9.973333333333334,142.3728813559322,8.933333333333326,143.38983050847457,8.159999999999998C144.40677966101694,7.386666666666663,145.42372881355934,5.973333333333339,146.4406779661017,5.44C147.45762711864407,4.906666666666666,148.47457627118644,5.119999999999996,149.4915254237288,4.64C150.50847457627117,4.159999999999999,151.52542372881356,2.559999999999998,152.54237288135593,2.559999999999998C153.5593220338983,2.559999999999998,154.5762711864407,3.999999999999999,155.59322033898306,3.999999999999999C156.61016949152543,3.999999999999999,157.6271186440678,3.1999999999999984,158.64406779661016,3.1999999999999984C159.66101694915253,3.1999999999999984,160.67796610169492,3.2533333333333316,161.6949152542373,3.3599999999999985C162.71186440677965,3.4666666666666655,163.72881355932205,4.61333333333333,164.74576271186442,5.28C165.76271186440678,5.9466666666666645,166.77966101694915,6.7466666666666715,167.79661016949152,7.360000000000002C168.81355932203388,7.973333333333339,169.83050847457628,8.373333333333333,170.84745762711864,8.959999999999999C171.864406779661,9.546666666666665,172.8813559322034,10.453333333333333,173.89830508474577,10.88C174.91525423728814,11.306666666666668,175.93220338983053,11.093333333333334,176.9491525423729,11.520000000000001C177.96610169491527,11.946666666666664,178.98305084745763,13.173333333333332,180,14.399999999999999"></path><path class="axis-ceiling" stroke-width="1" stroke="black" fill="none" d="M175,0L180,0"></path><text class="axis-ceiling-label" font-family="sans-serif" text-anchor="end" font-size="10px" x="170" y="2.5">250</text></g></svg>