<svg xmlns="http://www.w3.org/2000/svg" viewBox="0 0 180 60"><g transform="translate(0,20)"><path class="area" fill="rgba(0, 0, 0, 0.2)" d="M0,38.4C1.0344827586206897,39.2,2.068965517241379,40,3.103448275862069,40C4.137931034482759,40,5.172413793103448,39.13333333333333,6.206896551724138,39C7.241379310344827,38.86666666666667,8.275862068965516,38.8,9.310344827586206,38.8C10.344827586206897,38.8,11.379310344827585,39.8,12.413793103448276,39.8C13.448275862068966,39.8,14.482758620689655,39.733333333333334,15.517241379310345,39.6C16.551724137931036,39.46666666666667,17.586206896551722,39.266666666666666,18.620689655172413,39C19.655172413793103,38.733333333333334,20.689655172413794,38,21.724137931034484,38C22.758620689655174,38,23.79310344827586,39.2,24.82758620689655,39.2C25.862068965517242,39.2,26.896551724137932,38.199999999999996,27.931034482758623,38.199999999999996C28.965517241379313,38.199999999999996,30,39.6,31.03448275862069,39.6C32.06896551724138,39.6,33.103448275862064,38.93333333333334,34.137931034482754,38.6C35.172413793103445,38.266666666666666,36.206896551724135,37.83333333333333,37.241379310344826,37.599999999999994C38.275862068965516,37.36666666666666,39.310344827586206,37.199999999999996,40.3448275862069,37.199999999999996C41.37931034482759,37.199999999999996,42.41379310344828,37.73333333333333,43.44827586206897,38.199999999999996C44.48275862068966,38.666666666666664,45.51724137931035,40,46.55172413793104,40C47.58620689655173,40,48.62068965517241,37.599999999999994,49.6551724137931,37.599999999999994C50.689655172413794,37.599999999999994,51.72413793103448,39,52.75862068965517,39C53.79310344827586,39,54.827586206896555,39,55.862068965517246,39C56.896551724137936,39,57.93103448275862,39,58.96551724137931,39C60,39,61.03448275862069,36.2,62.06896551724138,36.2C63.10344827586207,36.2,64.13793103448276,36.86666666666667,65.17241379310344,37.199999999999996C66.20689655172413,37.533333333333324,67.24137931034483,38.199999999999996,68.27586206896551,38.199999999999996C69.3103448275862,38.199999999999996,70.34482758620689,36.4,71.37931034482759,35.8C72.41379310344827,35.2,73.44827586206897,34.6,74.48275862068965,34.6C75.51724137931033,34.6,76.55172413793103,35.6,77.58620689655172,35.6C78.62068965517241,35.6,79.6551724137931,35.6,80.6896551724138,35.6C81.72413793103448,35.6,82.75862068965517,33.199999999999996,83.79310344827586,33.199999999999996C84.82758620689656,33.199999999999996,85.86206896551724,33.43333333333333,86.89655172413794,33.6C87.93103448275862,33.766666666666666,88.96551724137932,34.2,90,34.2C91.0344827586207,34.2,92.06896551724138,33.13333333333333,93.10344827586208,33C94.13793103448276,32.86666666666667,95.17241379310344,32.93333333333334,96.20689655172413,32.800000000000004C97.24137931034483,32.66666666666667,98.27586206896551,29.4,99.3103448275862,29.4C100.3448275862069,29.4,101.37931034482759,30.2,102.41379310344828,30.2C103.44827586206897,30.2,104.48275862068965,29,105.51724137931033,29C106.55172413793103,29,107.58620689655172,29.4,108.62068965517241,30.2C109.65517241379311,31,110.6896551724138,36,111.72413793103449,36C112.75862068965517,36,113.79310344827587,29.1,114.82758620689656,26.200000000000003C115.86206896551724,23.300000000000004,116.89655172413794,18.599999999999998,117.93103448275862,18.599999999999998C118.96551724137932,18.599999999999998,120,20.4,121.0344827586207,20.4C122.06896551724138,20.4,123.10344827586208,20.266666666666666,124.13793103448276,20C125.17241379310344,19.733333333333334,126.20689655172414,15,127.24137931034483,15C128.27586206896552,15,129.3103448275862,15.866666666666665,130.3448275862069,17.599999999999998C131.3793103448276,19.333333333333346,132.41379310344828,31.6,133.44827586206898,31.6C134.48275862068965,31.6,135.51724137931035,20.09999999999998,136.55172413793102,15.8C137.58620689655172,11.499999999999943,138.6206896551724,5.800000000000001,139.6551724137931,5.800000000000001C140.6896551724138,5.800000000000001,141.72413793103448,7.199999999999998,142.75862068965517,7.799999999999998C143.79310344827587,8.399999999999999,144.82758620689654,8.333333333333332,145.86206896551724,9.399999999999999C146.89655172413794,10.466666666666665,147.9310344827586,14.2,148.9655172413793,14.2C150,14.2,151.0344827586207,13.2,152.0689655172414,13.2C153.10344827586206,13.2,154.13793103448276,24,155.17241379310343,24C156.20689655172413,24,157.24137931034483,19.80000000000003,158.27586206896552,15.8C159.31034482758622,11.800000000000008,160.3448275862069,0,161.3793103448276,0C162.41379310344828,0,163.44827586206895,11.133333333333331,164.48275862068965,13.399999999999999C165.51724137931035,15.666666666666666,166.55172413793102,16.8,167.58620689655172,16.8C168.6206896551724,16.8,169.6551724137931,12.799999999999997,170.6896551724138,12.799999999999997C171.7241379310345,12.799999999999997,172.75862068965517,21.3,173.79310344827587,24C174.82758620689657,26.7,175.86206896551724,29,176.89655172413794,29C177.93103448275863,29,178.9655172413793,24.2,180,19.4L180,40C178.9655172413793,40,177.93103448275863,40,176.89655172413794,40C175.86206896551724,40,174.82758620689657,40,173.79310344827587,40C172.75862068965517,40,171.7241379310345,40,170.6896551724138,40C169.6551724137931,40,168.6206896551724,40,167.58620689655172,40C166.55172413793102,40,165.51724137931035,40,164.48275862068965,40C163.44827586206895,40,162.41379310344828,40,161.3793103448276,40C160.3448275862069,40,159.31034482758622,40,158.27586206896552,40C157.24137931034483,40,156.20689655172413,40,155.17241379310343,40C154.13793103448276,40,153.10344827586206,40,152.0689655172414,40C151.0344827586207,40,150,40,148.9655172413793,40C147.9310344827586,40,146.89655172413794,40,145.86206896551724,40C144.82758620689654,40,143.79310344827587,40,142.75862068965517,40C141.72413793103448,40,140.6896551724138,40,139.6551724137931,40C138.6206896551724,40,137.58620689655172,40,136.55172413793102,40C135.51724137931035,40,134.48275862068965,40,133.44827586206898,40C132.41379310344828,40,131.3793103448276,40,130.3448275862069,40C129.3103448275862,40,128.27586206896552,40,127.24137931034483,40C126.20689655172414,40,125.17241379310344,40,124.13793103448276,40C123.10344827586208,40,122.06896551724138,40,121.0344827586207,40C120,40,118.96551724137932,40,117.93103448275862,40C116.89655172413794,40,115.86206896551724,40,114.82758620689656,40C113.79310344827587,40,112.75862068965517,40,111.72413793103449,40C110.6896551724138,40,109.65517241379311,40,108.62068965517241,40C107.58620689655172,40,106.55172413793103,40,105.51724137931033,40C104.48275862068965,40,103.44827586206897,40,102.41379310344828,40C101.37931034482759,40,100.3448275862069,40,99.3103448275862,40C98.27586206896551,40,97.24137931034483,40,96.20689655172413,40C95.17241379310344,40,94.13793103448276,40,93.10344827586208,40C92.06896551724138,40,91.0344827586207,40,90,40C88.96551724137932,40,87.93103448275862,40,86.89655172413794,40C85.86206896551724,40,84.82758620689656,40,83.79310344827586,40C82.75862068965517,40,81.72413793103448,40,80.6896551724138,40C79.6551724137931,40,78.62068965517241,40,77.58620689655172,40C76.55172413793103,40,75.51724137931033,40,74.48275862068965,40C73.44827586206897,40,72.41379310344827,40,71.37931034482759,40C70.34482758620689,40,69.3103448275862,40,68.27586206896551,40C67.24137931034483,40,66.20689655172413,40,65.17241379310344,40C64.13793103448276,40,63.10344827586207,40,62.06896551724138,40C61.03448275862069,40,60,40,58.96551724137931,40C57.93103448275862,40,56.896551724137936,40,55.862068965517246,40C54.827586206896555,40,53.79310344827586,40,52.75862068965517,40C51.72413793103448,40,50.689655172413794,40,49.6551724137931,40C48.62068965517241,40,47.58620689655173,40,46.55172413793104,40C45.51724137931035,40,44.48275862068966,40,43.44827586206897,40C42.41379310344828,40,41.37931034482759,40,40.3448275862069,40C39.310344827586206,40,38.275862068965516,40,37.241379310344826,40C36.206896551724135,40,35.172413793103445,40,34.137931034482754,40C33.103448275862064,40,32.06896551724138,40,31.03448275862069,40C30,40,28.965517241379313,40,27.931034482758623,40C26.896551724137932,40,25.862068965517242,40,24.82758620689655,40C23.79310344827586,40,22.758620689655174,40,21.724137931034484,40C20.689655172413794,40,19.655172413793103,40,18.620689655172413,40C17.586206896551722,40,16.551724137931036,40,15.517241379310345,40C14.482758620689655,40,13.448275862068966,40,12.413793103448276,40C11.379310344827585,40,10.344827586206897,40,9.310344827586206,40C8.275862068965516,40,7.241379310344827,40,6.206896551724138,40C5.172413793103448,40,4.137931034482759,40,3.103448275862069,40C2.068965517241379,40,1.0344827586206897,40,0,40Z"></path><path class="line" stroke="black" fill="none" d="M0,38.4C1.0344827586206897,39.2,2.068965517241379,40,3.103448275862069,40C4.137931034482759,40,5.172413793103448,39.13333333333333,6.206896551724138,39C7.241379310344827,38.86666666666667,8.275862068965516,38.8,9.310344827586206,38.8C10.344827586206897,38.8,11.379310344827585,39.8,12.413793103448276,39.8C13.448275862068966,39.8,14.482758620689655,39.733333333333334,15.517241379310345,39.6C16.551724137931036,39.46666666666667,17.586206896551722,39.266666666666666,18.620689655172413,39C19.655172413793103,38.733333333333334,20.689655172413794,38,21.724137931034484,38C22.758620689655174,38,23.79310344827586,39.2,24.82758620689655,39.2C25.862068965517242,39.2,26.896551724137932,38.199999999999996,27.931034482758623,38.199999999999996C28.965517241379313,38.199999999999996,30,39.6,31.03448275862069,39.6C32.06896551724138,39.6,33.103448275862064,38.93333333333334,34.137931034482754,38.6C35.172413793103445,38.266666666666666,36.206896551724135,37.83333333333333,37.241379310344826,37.599999999999994C38.275862068965516,37.36666666666666,39.310344827586206,37.199999999999996,40.3448275862069,37.199999999999996C41.37931034482759,37.199999999999996,42.41379310344828,37.73333333333333,43.44827586206897,38.199999999999996C44.48275862068966,38.666666666666664,45.51724137931035,40,46.55172413793104,40C47.58620689655173,40,48.62068965517241,37.599999999999994,49.6551724137931,37.599999999999994C50.689655172413794,37.599999999999994,51.72413793103448,39,52.75862068965517,39C53.79310344827586,39,54.827586206896555,39,55.862068965517246,39C56.896551724137936,39,57.93103448275862,39,58.96551724137931,39C60,39,61.03448275862069,36.2,62.06896551724138,36.2C63.10344827586207,36.2,64.13793103448276,36.86666666666667,65.17241379310344,37.199999999999996C66.20689655172413,37.533333333333324,67.24137931034483,38.199999999999996,68.27586206896551,38.199999999999996C69.3103448275862,38.199999999999996,70.34482758620689,36.4,71.37931034482759,35.8C72.41379310344827,35.2,73.44827586206897,34.6,74.48275862068965,34.6C75.51724137931033,34.6,76.55172413793103,35.6,77.58620689655172,35.6C78.62068965517241,35.6,79.6551724137931,35.6,80.6896551724138,35.6C81.72413793103448,35.6,82.75862068965517,33.199999999999996,83.79310344827586,33.199999999999996C84.82758620689656,33.199999999999996,85.86206896551724,33.43333333333333,86.89655172413794,33.6C87.93103448275862,33.766666666666666,88.96551724137932,34.2,90,34.2C91.0344827586207,34.2,92.06896551724138,33.13333333333333,93.10344827586208,33C94.13793103448276,32.86666666666667,95.17241379310344,32.93333333333334,96.20689655172413,32.800000000000004C97.24137931034483,32.66666666666667,98.27586206896551,29.4,99.3103448275862,29.4C100.3448275862069,29.4,101.37931034482759,30.2,102.41379310344828,30.2C103.44827586206897,30.2,104.48275862068965,29,105.51724137931033,29C106.55172413793103,29,107.58620689655172,29.4,108.62068965517241,30.2C109.65517241379311,31,110.6896551724138,36,111.72413793103449,36C112.75862068965517,36,113.79310344827587,29.1,114.82758620689656,26.200000000000003C115.86206896551724,23.300000000000004,116.89655172413794,18.599999999999998,117.93103448275862,18.599999999999998C118.96551724137932,18.599999999999998,120,20.4,121.0344827586207,20.4C122.06896551724138,20.4,123.10344827586208,20.266666666666666,124.13793103448276,20C125.17241379310344,19.733333333333334,126.20689655172414,15,127.24137931034483,15C128.27586206896552,15,129.3103448275862,15.866666666666665,130.3448275862069,17.599999999999998C131.3793103448276,19.333333333333346,132.41379310344828,31.6,133.44827586206898,31.6C134.48275862068965,31.6,135.51724137931035,20.09999999999998,136.55172413793102,15.8C137.58620689655172,11.499999999999943,138.6206896551724,5.800000000000001,139.6551724137931,5.800000000000001C140.6896551724138,5.800000000000001,141.72413793103448,7.199999999999998,142.75862068965517,7.799999999999998C143.79310344827587,8.399999999999999,144.82758620689654,8.333333333333332,145.86206896551724,9.399999999999999C146.89655172413794,10.466666666666665,147.9310344827586,14.2,148.9655172413793,14.2C150,14.2,151.0344827586207,13.2,152.0689655172414,13.2C153.10344827586206,13.2,154.13793103448276,24,155.17241379310343,24C156.20689655172413,24,157.24137931034483,19.80000000000003,158.27586206896552,15.8C159.31034482758622,11.800000000000008,160.3448275862069,0,161.3793103448276,0C162.41379310344828,0,163.44827586206895,11.133333333333331,164.48275862068965,13.399999999999999C165.51724137931035,15.666666666666666,166.55172413793102,16.8,167.58620689655172,16.8C168.6206896551724,16.8,169.6551724137931,12.799999999999997,170.6896551724138,12.799999999999997C171.7241379310345,12.799999999999997,172.75862068965517,21.3,173.79310344827587,24C174.82758620689657,26.7,175.86206896551724,29,176.89655172413794,29C177.93103448275863,29,178.9655172413793,24.2,180,19.4"></path><path class="axis-ceiling" stroke-width="1" stroke="black" fill="none" d="M175,0L180,0"></path><text class="axis-ceiling-label" font-family="sans-serif" text-anchor="end" font-size="10px" x="170" y="2.5">200</text></g></svg>