<svg xmlns="http://www.w3.org/2000/svg" viewBox="0 0 180 60"><g transform="translate(0,20)"><path class="area" fill="rgba(0, 0, 0, 0.2)" d="M0,39.96C1.0169491525423728,39.95333333333333,2.0338983050847457,39.946666666666665,3.0508474576271185,39.92C4.067796610169491,39.89333333333334,5.084745762711864,39.76,6.101694915254237,39.76C7.11864406779661,39.76,8.135593220338983,39.76,9.152542372881356,39.76C10.169491525423728,39.76,11.186440677966102,39.519999999999996,12.203389830508474,39.519999999999996C13.220338983050846,39.519999999999996,14.23728813559322,39.72,15.254237288135592,39.72C16.271186440677965,39.72,17.28813559322034,38.76,18.305084745762713,38.76C19.322033898305087,38.76,20.338983050847457,38.88666666666667,21.35593220338983,39C22.372881355932204,39.11333333333333,23.389830508474574,39.44,24.406779661016948,39.44C25.423728813559322,39.44,26.440677966101696,39.4,27.45762711864407,39.32C28.47457627118644,39.24,29.491525423728813,38.66,30.508474576271183,38.199999999999996C31.525423728813557,37.739999999999995,32.54237288135593,36.56,33.559322033898304,36.56C34.57627118644068,36.56,35.59322033898305,36.96,36.610169491525426,36.96C37.6271186440678,36.96,38.644067796610166,35.76,39.66101694915254,35.76C40.67796610169491,35.76,41.69491525423729,36.42666666666667,42.71186440677966,36.84C43.728813559322035,37.25333333333334,44.7457627118644,38.239999999999995,45.762711864406775,38.239999999999995C46.77966101694915,38.239999999999995,47.79661016949152,35.54666666666667,48.813559322033896,34.76C49.83050847457627,33.97333333333333,50.847457627118644,33.946666666666665,51.86440677966102,33.519999999999996C52.88135593220339,33.09333333333333,53.898305084745765,32.56666666666666,54.91525423728814,32.199999999999996C55.93220338983051,31.83333333333333,56.94915254237288,31.706666666666667,57.96610169491525,31.32C58.983050847457626,30.933333333333334,59.99999999999999,30.333333333333332,61.01694915254237,29.88C62.03389830508474,29.426666666666666,63.05084745762712,28.6,64.0677966101695,28.6C65.08474576271186,28.6,66.10169491525424,32.32,67.11864406779661,32.32C68.13559322033899,32.32,69.15254237288136,28.786666666666672,70.16949152542374,26.76C71.1864406779661,24.733333333333338,72.20338983050848,20.186666666666667,73.22033898305085,20.16C74.23728813559322,20.133333333333333,75.2542372881356,20.14666666666667,76.27118644067797,20.12C77.28813559322033,20.093333333333334,78.30508474576271,18.306666666666665,79.32203389830508,18.119999999999997C80.33898305084746,17.93333333333333,81.35593220338983,17.839999999999996,82.37288135593221,17.839999999999996C83.38983050847457,17.839999999999996,84.40677966101696,18.226666666666663,85.42372881355932,19C86.4406779661017,19.77333333333334,87.45762711864407,25.12,88.47457627118645,25.12C89.49152542372882,25.12,90.50847457627118,22.479999999999976,91.52542372881355,20.16C92.54237288135593,17.839999999999993,93.55932203389831,11.200000000000001,94.57627118644069,11.200000000000001C95.59322033898306,11.200000000000001,96.61016949152543,12.679999999999998,97.62711864406779,12.679999999999998C98.64406779661016,12.679999999999998,99.66101694915254,12.493333333333332,100.6779661016949,12.120000000000001C101.69491525423729,11.746666666666668,102.71186440677965,10.24,103.72881355932203,10.24C104.7457627118644,10.24,105.76271186440678,13.180000000000007,106.77966101694915,15.32C107.79661016949153,17.460000000000004,108.8135593220339,23.08,109.83050847457628,23.08C110.84745762711864,23.08,111.86440677966102,16.366666666666664,112.88135593220339,12.959999999999997C113.89830508474576,9.553333333333331,114.91525423728814,2.639999999999998,115.9322033898305,2.639999999999998C116.94915254237289,2.639999999999998,117.96610169491525,11.48,118.98305084745763,11.48C120,11.48,121.01694915254237,9.64,122.03389830508473,9.64C123.05084745762711,9.64,124.0677966101695,16.32,125.08474576271188,16.32C126.10169491525424,16.32,127.11864406779662,13.119999999999997,128.135593220339,13.119999999999997C129.15254237288136,13.119999999999997,130.16949152542372,24.28,131.1864406779661,24.28C132.20338983050846,24.28,133.22033898305085,8.359999999999996,134.23728813559322,7.879999999999998C135.25423728813558,7.4,136.27118644067798,7.64,137.28813559322035,7.160000000000002C138.3050847457627,6.680000000000004,139.3220338983051,3.759999999999999,140.33898305084747,3.759999999999999C141.35593220338984,3.759999999999999,142.3728813559322,8.719999999999999,143.38983050847457,8.719999999999999C144.40677966101694,8.719999999999999,145.42372881355934,6.560000000000001,146.4406779661017,6.560000000000001C147.45762711864407,6.560000000000001,148.47457627118644,9.306666666666693,149.4915254237288,12.200000000000003C150.50847457627117,15.09333333333334,151.52542372881356,23.919999999999998,152.54237288135593,23.919999999999998C153.5593220338983,23.919999999999998,154.5762711864407,15.646666666666672,155.59322033898306,12.679999999999998C156.61016949152543,9.713333333333352,157.6271186440678,6.120000000000001,158.64406779661016,6.120000000000001C159.66101694915253,6.120000000000001,160.67796610169492,21.16,161.6949152542373,21.16C162.71186440677965,21.16,163.72881355932205,17.70666666666668,164.74576271186442,15.56C165.76271186440678,13.413333333333341,166.77966101694915,8.279999999999998,167.79661016949152,8.279999999999998C168.81355932203388,8.279999999999998,169.83050847457628,15.599999999999998,170.84745762711864,17.759999999999998C171.864406779661,19.919999999999998,172.8813559322034,21.240000000000002,173.89830508474577,21.240000000000002C174.91525423728814,21.240000000000002,175.93220338983053,16.533333333333342,176.9491525423729,14.44C177.96610169491527,12.346666666666678,178.98305084745763,10.513333333333339,180,8.68L180,40C178.98305084745763,40,177.96610169491527,40,176.9491525423729,40C175.93220338983053,40,174.91525423728814,40,173.89830508474577,40C172.8813559322034,40,171.864406779661,40,170.84745762711864,40C169.83050847457628,40,168.81355932203388,40,167.79661016949152,40C166.77966101694915,40,165.76271186440678,40,164.74576271186442,40C163.72881355932205,40,162.71186440677965,40,161.6949152542373,40C160.67796610169492,40,159.66101694915253,40,158.64406779661016,40C157.6271186440678,40,156.61016949152543,40,155.59322033898306,40C154.5762711864407,40,153.5593220338983,40,152.54237288135593,40C151.52542372881356,40,150.50847457627117,40,149.4915254237288,40C148.47457627118644,40,147.45762711864407,40,146.4406779661017,40C145.42372881355934,40,144.40677966101694,40,143.38983050847457,40C142.3728813559322,40,141.35593220338984,40,140.33898305084747,40C139.3220338983051,40,138.3050847457627,40,137.28813559322035,40C136.27118644067798,40,135.25423728813558,40,134.23728813559322,40C133.22033898305085,40,132.20338983050846,40,131.1864406779661,40C130.16949152542372,40,129.15254237288136,40,128.135593220339,40C127.11864406779662,40,126.10169491525424,40,125.08474576271188,40C124.0677966101695,40,123.05084745762711,40,122.03389830508473,40C121.01694915254237,40,120,40,118.98305084745763,40C117.96610169491525,40,116.94915254237289,40,115.9322033898305,40C114.91525423728814,40,113.89830508474576,40,112.88135593220339,40C111.86440677966102,40,110.84745762711864,40,109.83050847457628,40C108.8135593220339,40,107.79661016949153,40,106.77966101694915,40C105.76271186440678,40,104.7457627118644,40,103.72881355932203,40C102.71186440677965,40,101.69491525423729,40,100.6779661016949,40C99.66101694915254,40,98.64406779661016,40,97.62711864406779,40C96.61016949152543,40,95.59322033898306,40,94.57627118644069,40C93.55932203389831,40,92.54237288135593,40,91.52542372881355,40C90.50847457627118,40,89.49152542372882,40,88.47457627118645,40C87.45762711864407,40,86.4406779661017,40,85.42372881355932,40C84.40677966101696,40,83.38983050847457,40,82.37288135593221,40C81.35593220338983,40,80.33898305084746,40,79.32203389830508,40C78.30508474576271,40,77.28813559322033,40,76.27118644067797,40C75.2542372881356,40,74.23728813559322,40,73.22033898305085,40C72.20338983050848,40,71.1864406779661,40,70.16949152542374,40C69.15254237288136,40,68.13559322033899,40,67.11864406779661,40C66.10169491525424,40,65.08474576271186,40,64.0677966101695,40C63.05084745762712,40,62.03389830508474,40,61.01694915254237,40C59.99999999999999,40,58.983050847457626,40,57.96610169491525,40C56.94915254237288,40,55.93220338983051,40,54.91525423728814,40C53.898305084745765,40,52.88135593220339,40,51.86440677966102,40C50.847457627118644,40,49.83050847457627,40,48.813559322033896,40C47.79661016949152,40,46.77966101694915,40,45.762711864406775,40C44.7457627118644,40,43.728813559322035,40,42.71186440677966,40C41.69491525423729,40,40.67796610169491,40,39.66101694915254,40C38.644067796610166,40,37.6271186440678,40,36.610169491525426,40C35.59322033898305,40,34.57627118644068,40,33.559322033898304,40C32.54237288135593,40,31.525423728813557,40,30.508474576271183,40C29.491525423728813,40,28.47457627118644,40,27.45762711864407,40C26.440677966101696,40,25.423728813559322,40,24.406779661016948,40C23.389830508474574,40,22.372881355932204,40,21.35593220338983,40C20.338983050847457,40,19.322033898305087,40,18.305084745762713,40C17.28813559322034,40,16.271186440677965,40,15.254237288135592,40C14.23728813559322,40,13.220338983050846,40,12.203389830508474,40C11.186440677966102,40,10.169491525423728,40,9.152542372881356,40C8.135593220338983,40,7.11864406779661,40,6.101694915254237,40C5.084745762711864,40,4.067796610169491,40,3.0508474576271185,40C2.0338983050847457,40,1.0169491525423728,40,0,40Z"></path><path class="line" stroke="black" fill="none" d="M0,39.96C1.0169491525423728,39.95333333333333,2.0338983050847457,39.946666666666665,3.0508474576271185,39.92C4.067796610169491,39.89333333333334,5.084745762711864,39.76,6.101694915254237,39.76C7.11864406779661,39.76,8.135593220338983,39.76,9.152542372881356,39.76C10.169491525423728,39.76,11.186440677966102,39.519999999999996,12.203389830508474,39.519999999999996C13.220338983050846,39.519999999999996,14.23728813559322,39.72,15.254237288135592,39.72C16.271186440677965,39.72,17.28813559322034,38.76,18.305084745762713,38.76C19.322033898305087,38.76,20.338983050847457,38.88666666666667,21.35593220338983,39C22.372881355932204,39.11333333333333,23.389830508474574,39.44,24.406779661016948,39.44C25.423728813559322,39.44,26.440677966101696,39.4,27.45762711864407,39.32C28.47457627118644,39.24,29.491525423728813,38.66,30.508474576271183,38.199999999999996C31.525423728813557,37.739999999999995,32.54237288135593,36.56,33.559322033898304,36.56C34.57627118644068,36.56,35.59322033898305,36.96,36.610169491525426,36.96C37.6271186440678,36.96,38.644067796610166,35.76,39.66101694915254,35.76C40.67796610169491,35.76,41.69491525423729,36.42666666666667,42.71186440677966,36.84C43.728813559322035,37.25333333333334,44.7457627118644,38.239999999999995,45.762711864406775,38.239999999999995C46.77966101694915,38.239999999999995,47.79661016949152,35.54666666666667,48.813559322033896,34.76C49.83050847457627,33.97333333333333,50.847457627118644,33.946666666666665,51.86440677966102,33.519999999999996C52.88135593220339,33.09333333333333,53.898305084745765,32.56666666666666,54.91525423728814,32.199999999999996C55.93220338983051,31.83333333333333,56.94915254237288,31.706666666666667,57.96610169491525,31.32C58.983050847457626,30.933333333333334,59.99999999999999,30.333333333333332,61.01694915254237,29.88C62.03389830508474,29.426666666666666,63.05084745762712,28.6,64.0677966101695,28.6C65.08474576271186,28.6,66.10169491525424,32.32,67.11864406779661,32.32C68.13559322033899,32.32,69.15254237288136,28.786666666666672,70.16949152542374,26.76C71.1864406779661,24.733333333333338,72.20338983050848,20.186666666666667,73.22033898305085,20.16C74.23728813559322,20.133333333333333,75.2542372881356,20.14666666666667,76.27118644067797,20.12C77.28813559322033,20.093333333333334,78.30508474576271,18.306666666666665,79.32203389830508,18.119999999999997C80.33898305084746,17.93333333333333,81.35593220338983,17.839999999999996,82.37288135593221,17.839999999999996C83.38983050847457,17.839999999999996,84.40677966101696,18.226666666666663,85.42372881355932,19C86.4406779661017,19.77333333333334,87.45762711864407,25.12,88.47457627118645,25.12C89.49152542372882,25.12,90.50847457627118,22.479999999999976,91.52542372881355,20.16C92.54237288135593,17.839999999999993,93.55932203389831,11.200000000000001,94.57627118644069,11.200000000000001C95.59322033898306,11.200000000000001,96.61016949152543,12.679999999999998,97.62711864406779,12.679999999999998C98.64406779661016,12.679999999999998,99.66101694915254,12.493333333333332,100.6779661016949,12.120000000000001C101.69491525423729,11.746666666666668,102.71186440677965,10.24,103.72881355932203,10.24C104.7457627118644,10.24,105.76271186440678,13.180000000000007,106.77966101694915,15.32C107.79661016949153,17.460000000000004,108.8135593220339,23.08,109.83050847457628,23.08C110.84745762711864,23.08,111.86440677966102,16.366666666666664,112.88135593220339,12.959999999999997C113.89830508474576,9.553333333333331,114.91525423728814,2.639999999999998,115.9322033898305,2.639999999999998C116.94915254237289,2.639999999999998,117.96610169491525,11.48,118.98305084745763,11.48C120,11.48,121.01694915254237,9.64,122.03389830508473,9.64C123.05084745762711,9.64,124.0677966101695,16.32,125.08474576271188,16.32C126.10169491525424,16.32,127.11864406779662,13.119999999999997,128.135593220339,13.119999999999997C129.15254237288136,13.119999999999997,130.16949152542372,24.28,131.1864406779661,24.28C132.20338983050846,24.28,133.22033898305085,8.359999999999996,134.23728813559322,7.879999999999998C135.25423728813558,7.4,136.27118644067798,7.64,137.28813559322035,7.160000000000002C138.3050847457627,6.680000000000004,139.3220338983051,3.759999999999999,140.33898305084747,3.759999999999999C141.35593220338984,3.759999999999999,142.3728813559322,8.719999999999999,143.38983050847457,8.719999999999999C144.40677966101694,8.719999999999999,145.42372881355934,6.560000000000001,146.4406779661017,6.560000000000001C147.45762711864407,6.560000000000001,148.47457627118644,9.306666666666693,149.4915254237288,12.200000000000003C150.50847457627117,15.09333333333334,151.52542372881356,23.919999999999998,152.54237288135593,23.919999999999998C153.5593220338983,23.919999999999998,154.5762711864407,15.646666666666672,155.59322033898306,12.679999999999998C156.61016949152543,9.713333333333352,157.6271186440678,6.120000000000001,158.64406779661016,6.120000000000001C159.66101694915253,6.120000000000001,160.67796610169492,21.16,161.6949152542373,21.16C162.71186440677965,21.16,163.72881355932205,17.70666666666668,164.74576271186442,15.56C165.76271186440678,13.413333333333341,166.77966101694915,8.279999999999998,167.79661016949152,8.279999999999998C168.81355932203388,8.279999999999998,169.83050847457628,15.599999999999998,170.84745762711864,17.759999999999998C171.864406779661,19.919999999999998,172.8813559322034,21.240000000000002,173.89830508474577,21.240000000000002C174.91525423728814,21.240000000000002,175.93220338983053,16.533333333333342,176.9491525423729,14.44C177.96610169491527,12.346666666666678,178.98305084745763,10.513333333333339,180,8.68"></path><path class="axis-ceiling" stroke-width="1" stroke="black" fill="none" d="M175,0L180,0"></path><text class="axis-ceiling-label" font-family="sans-serif" text-anchor="end" font-size="10px" x="170" y="2.5">1000</text></g></svg>