<svg xmlns="http://www.w3.org/2000/svg" viewBox="0 0 180 60"><g transform="translate(0,20)"><path class="area" fill="rgba(0, 0, 0, 0.2)" d="M0,38.53333333333333C1.0169491525423728,38.54,2.0338983050847457,38.54666666666667,3.0508474576271185,38.54666666666667C4.067796610169491,38.54666666666667,5.084745762711864,38.48444444444444,6.101694915254237,38.45333333333333C7.11864406779661,38.422222222222224,8.135593220338983,38.422222222222224,9.152542372881356,38.36C10.169491525423728,38.297777777777775,11.186440677966102,38.15555555555556,12.203389830508474,38.053333333333335C13.220338983050846,37.95111111111111,14.23728813559322,37.855555555555554,15.254237288135592,37.74666666666667C16.271186440677965,37.63777777777778,17.28813559322034,37.52444444444445,18.305084745762713,37.400000000000006C19.322033898305087,37.27555555555556,20.338983050847457,37.15555555555556,21.35593220338983,37C22.372881355932204,36.84444444444444,23.389830508474574,36.62888888888889,24.406779661016948,36.46666666666667C25.423728813559322,36.30444444444445,26.440677966101696,36.14888888888889,27.45762711864407,36.02666666666667C28.47457627118644,35.90444444444445,29.491525423728813,35.906666666666666,30.508474576271183,35.733333333333334C31.525423728813557,35.56,32.54237288135593,35.23777777777778,33.559322033898304,34.986666666666665C34.57627118644068,34.73555555555555,35.59322033898305,34.471111111111114,36.610169491525426,34.22666666666667C37.6271186440678,33.98222222222222,38.644067796610166,33.76888888888888,39.66101694915254,33.519999999999996C40.67796610169491,33.271111111111104,41.69491525423729,32.99111111111111,42.71186440677966,32.733333333333334C43.728813559322035,32.47555555555556,44.7457627118644,32.215555555555554,45.762711864406775,31.973333333333333C46.77966101694915,31.73111111111111,47.79661016949152,31.48,48.813559322033896,31.28C49.83050847457627,31.080000000000002,50.847457627118644,30.773333333333333,51.86440677966102,30.773333333333333C52.88135593220339,30.773333333333333,53.898305084745765,31.093333333333334,54.91525423728814,31.093333333333334C55.93220338983051,31.093333333333334,56.94915254237288,29.966666666666665,57.96610169491525,29.4C58.983050847457626,28.833333333333332,59.99999999999999,28.235555555555557,61.01694915254237,27.693333333333335C62.03389830508474,27.15111111111111,63.05084745762712,26.662222222222223,64.0677966101695,26.146666666666665C65.08474576271186,25.63111111111111,66.10169491525424,25.102222222222224,67.11864406779661,24.6C68.13559322033899,24.09777777777778,69.15254237288136,23.40888888888889,70.16949152542374,23.133333333333333C71.1864406779661,22.85777777777778,72.20338983050848,22.995555555555555,73.22033898305085,22.720000000000002C74.23728813559322,22.44444444444445,75.2542372881356,20.777777777777775,76.27118644067797,20.173333333333332C77.28813559322033,19.56888888888889,78.30508474576271,19.448888888888888,79.32203389830508,19.093333333333334C80.33898305084746,18.737777777777776,81.35593220338983,18.27777777777778,82.37288135593221,18.04C83.38983050847457,17.802222222222223,84.40677966101696,17.808888888888887,85.42372881355932,17.666666666666664C86.4406779661017,17.52444444444444,87.45762711864407,17.32,88.47457627118645,17.186666666666667C89.49152542372882,17.053333333333335,90.50847457627118,16.884444444444444,91.52542372881355,16.866666666666667C92.54237288135593,16.84888888888889,93.55932203389831,16.85777777777778,94.57627118644069,16.840000000000003C95.59322033898306,16.822222222222226,96.61016949152543,16.29111111111111,97.62711864406779,16.106666666666666C98.64406779661016,15.922222222222219,99.66101694915254,15.84222222222222,100.6779661016949,15.733333333333333C101.69491525423729,15.624444444444443,102.71186440677965,15.571111111111112,103.72881355932203,15.453333333333333C104.7457627118644,15.335555555555556,105.76271186440678,15.18,106.77966101694915,15.026666666666667C107.79661016949153,14.873333333333333,108.8135593220339,14.662222222222221,109.83050847457628,14.533333333333331C110.84745762711864,14.404444444444442,111.86440677966102,14.366666666666664,112.88135593220339,14.25333333333333C113.89830508474576,14.139999999999997,114.91525423728814,14.075555555555557,115.9322033898305,13.853333333333335C116.94915254237289,13.631111111111114,117.96610169491525,12.96444444444444,118.98305084745763,12.919999999999998C120,12.875555555555556,121.01694915254237,12.897777777777778,122.03389830508473,12.853333333333335C123.05084745762711,12.808888888888893,124.0677966101695,12.373333333333335,125.08474576271188,12.373333333333335C126.10169491525424,12.373333333333335,127.11864406779662,13.333333333333336,128.135593220339,13.333333333333336C129.15254237288136,13.333333333333336,130.16949152542372,13.048888888888888,131.1864406779661,12.959999999999997C132.20338983050846,12.871111111111107,133.22033898305085,12.906666666666663,134.23728813559322,12.799999999999997C135.25423728813558,12.693333333333332,136.27118644067798,12.320000000000002,137.28813559322035,12.320000000000002C138.3050847457627,12.320000000000002,139.3220338983051,13.924444444444443,140.33898305084747,14.066666666666666C141.35593220338984,14.208888888888888,142.3728813559322,14.28,143.38983050847457,14.28C144.40677966101694,14.28,145.42372881355934,13.308888888888898,146.4406779661017,12.280000000000001C147.45762711864407,11.251111111111113,148.47457627118644,9.12222222222222,149.4915254237288,8.106666666666666C150.50847457627117,7.091111111111101,151.52542372881356,6.724444444444442,152.54237288135593,6.186666666666665C153.5593220338983,5.648888888888887,154.5762711864407,4.88,155.59322033898306,4.88C156.61016949152543,4.88,157.6271186440678,4.893333333333332,158.64406779661016,4.893333333333332C159.66101694915253,4.893333333333332,160.67796610169492,3.322222222222221,161.6949152542373,2.666666666666666C162.71186440677965,2.011111111111111,163.72881355932205,0.9600000000000009,164.74576271186442,0.9600000000000009C165.76271186440678,0.9600000000000009,166.77966101694915,1.9222222222222283,167.79661016949152,2.6933333333333342C168.81355932203388,3.4644444444444473,169.83050847457628,4.733333333333335,170.84745762711864,5.586666666666669C171.864406779661,6.440000000000002,172.8813559322034,7.255555555555556,173.89830508474577,7.813333333333334C174.91525423728814,8.371111111111112,175.93220338983053,8.36222222222222,176.9491525423729,8.933333333333335C177.96610169491527,9.504444444444445,178.98305084745763,10.372222222222224,180,11.240000000000002L180,40C178.98305084745763,40,177.96610169491527,40,176.9491525423729,40C175.93220338983053,40,174.91525423728814,40,173.89830508474577,40C172.8813559322034,40,171.864406779661,40,170.84745762711864,40C169.83050847457628,40,168.81355932203388,40,167.79661016949152,40C166.77966101694915,40,165.76271186440678,40,164.74576271186442,40C163.72881355932205,40,162.71186440677965,40,161.6949152542373,40C160.67796610169492,40,159.66101694915253,40,158.64406779661016,40C157.6271186440678,40,156.61016949152543,40,155.59322033898306,40C154.5762711864407,40,153.5593220338983,40,152.54237288135593,40C151.52542372881356,40,150.50847457627117,40,149.4915254237288,40C148.47457627118644,40,147.45762711864407,40,146.4406779661017,40C145.42372881355934,40,144.40677966101694,40,143.38983050847457,40C142.3728813559322,40,141.35593220338984,40,140.33898305084747,40C139.3220338983051,40,138.3050847457627,40,137.28813559322035,40C136.27118644067798,40,135.25423728813558,40,134.23728813559322,40C133.22033898305085,40,132.20338983050846,40,131.1864406779661,40C130.16949152542372,40,129.15254237288136,40,128.135593220339,40C127.11864406779662,40,126.10169491525424,40,125.08474576271188,40C124.0677966101695,40,123.05084745762711,40,122.03389830508473,40C121.01694915254237,40,120,40,118.98305084745763,40C117.96610169491525,40,116.94915254237289,40,115.9322033898305,40C114.91525423728814,40,113.89830508474576,40,112.88135593220339,40C111.86440677966102,40,110.84745762711864,40,109.83050847457628,40C108.8135593220339,40,107.79661016949153,40,106.77966101694915,40C105.76271186440678,40,104.7457627118644,40,103.72881355932203,40C102.71186440677965,40,101.69491525423729,40,100.6779661016949,40C99.66101694915254,40,98.64406779661016,40,97.62711864406779,40C96.61016949152543,40,95.59322033898306,40,94.57627118644069,40C93.55932203389831,40,92.54237288135593,40,91.52542372881355,40C90.50847457627118,40,89.49152542372882,40,88.47457627118645,40C87.45762711864407,40,86.4406779661017,40,85.42372881355932,40C84.40677966101696,40,83.38983050847457,40,82.37288135593221,40C81.35593220338983,40,80.33898305084746,40,79.32203389830508,40C78.30508474576271,40,77.28813559322033,40,76.27118644067797,40C75.2542372881356,40,74.23728813559322,40,73.22033898305085,40C72.20338983050848,40,71.1864406779661,40,70.16949152542374,40C69.15254237288136,40,68.13559322033899,40,67.11864406779661,40C66.10169491525424,40,65.08474576271186,40,64.0677966101695,40C63.05084745762712,40,62.03389830508474,40,61.01694915254237,40C59.99999999999999,40,58.983050847457626,40,57.96610169491525,40C56.94915254237288,40,55.93220338983051,40,54.91525423728814,40C53.898305084745765,40,52.88135593220339,40,51.86440677966102,40C50.847457627118644,40,49.83050847457627,40,48.813559322033896,40C47.79661016949152,40,46.77966101694915,40,45.762711864406775,40C44.7457627118644,40,43.728813559322035,40,42.71186440677966,40C41.69491525423729,40,40.67796610169491,40,39.66101694915254,40C38.644067796610166,40,37.6271186440678,40,36.610169491525426,40C35.59322033898305,40,34.57627118644068,40,33.559322033898304,40C32.54237288135593,40,31.525423728813557,40,30.508474576271183,40C29.491525423728813,40,28.47457627118644,40,27.45762711864407,40C26.440677966101696,40,25.423728813559322,40,24.406779661016948,40C23.389830508474574,40,22.372881355932204,40,21.35593220338983,40C20.338983050847457,40,19.322033898305087,40,18.305084745762713,40C17.28813559322034,40,16.271186440677965,40,15.254237288135592,40C14.23728813559322,40,13.220338983050846,40,12.203389830508474,40C11.186440677966102,40,10.169491525423728,40,9.152542372881356,40C8.135593220338983,40,7.11864406779661,40,6.101694915254237,40C5.084745762711864,40,4.067796610169491,40,3.0508474576271185,40C2.0338983050847457,40,1.0169491525423728,40,0,40Z"></path><path class="line" stroke="black" fill="none" d="M0,38.53333333333333C1.0169491525423728,38.54,2.0338983050847457,38.54666666666667,3.0508474576271185,38.54666666666667C4.067796610169491,38.54666666666667,5.084745762711864,38.48444444444444,6.101694915254237,38.45333333333333C7.11864406779661,38.422222222222224,8.135593220338983,38.422222222222224,9.152542372881356,38.36C10.169491525423728,38.297777777777775,11.186440677966102,38.15555555555556,12.203389830508474,38.053333333333335C13.220338983050846,37.95111111111111,14.23728813559322,37.855555555555554,15.254237288135592,37.74666666666667C16.271186440677965,37.63777777777778,17.28813559322034,37.52444444444445,18.305084745762713,37.400000000000006C19.322033898305087,37.27555555555556,20.338983050847457,37.15555555555556,21.35593220338983,37C22.372881355932204,36.84444444444444,23.389830508474574,36.62888888888889,24.406779661016948,36.46666666666667C25.423728813559322,36.30444444444445,26.440677966101696,36.14888888888889,27.45762711864407,36.02666666666667C28.47457627118644,35.90444444444445,29.491525423728813,35.906666666666666,30.508474576271183,35.733333333333334C31.525423728813557,35.56,32.54237288135593,35.23777777777778,33.559322033898304,34.986666666666665C34.57627118644068,34.73555555555555,35.59322033898305,34.471111111111114,36.610169491525426,34.22666666666667C37.6271186440678,33.98222222222222,38.644067796610166,33.76888888888888,39.66101694915254,33.519999999999996C40.67796610169491,33.271111111111104,41.69491525423729,32.99111111111111,42.71186440677966,32.733333333333334C43.728813559322035,32.47555555555556,44.7457627118644,32.215555555555554,45.762711864406775,31.973333333333333C46.77966101694915,31.73111111111111,47.79661016949152,31.48,48.813559322033896,31.28C49.83050847457627,31.080000000000002,50.847457627118644,30.773333333333333,51.86440677966102,30.773333333333333C52.88135593220339,30.773333333333333,53.898305084745765,31.093333333333334,54.91525423728814,31.093333333333334C55.93220338983051,31.093333333333334,56.94915254237288,29.966666666666665,57.96610169491525,29.4C58.983050847457626,28.833333333333332,59.99999999999999,28.235555555555557,61.01694915254237,27.693333333333335C62.03389830508474,27.15111111111111,63.05084745762712,26.662222222222223,64.0677966101695,26.146666666666665C65.08474576271186,25.63111111111111,66.10169491525424,25.102222222222224,67.11864406779661,24.6C68.13559322033899,24.09777777777778,69.15254237288136,23.40888888888889,70.16949152542374,23.133333333333333C71.1864406779661,22.85777777777778,72.20338983050848,22.995555555555555,73.22033898305085,22.720000000000002C74.23728813559322,22.44444444444445,75.2542372881356,20.777777777777775,76.27118644067797,20.173333333333332C77.28813559322033,19.56888888888889,78.30508474576271,19.448888888888888,79.32203389830508,19.093333333333334C80.33898305084746,18.737777777777776,81.35593220338983,18.27777777777778,82.37288135593221,18.04C83.38983050847457,17.802222222222223,84.40677966101696,17.808888888888887,85.42372881355932,17.666666666666664C86.4406779661017,17.52444444444444,87.45762711864407,17.32,88.47457627118645,17.186666666666667C89.49152542372882,17.053333333333335,90.50847457627118,16.884444444444444,91.52542372881355,16.866666666666667C92.54237288135593,16.84888888888889,93.55932203389831,16.85777777777778,94.57627118644069,16.840000000000003C95.59322033898306,16.822222222222226,96.61016949152543,16.29111111111111,97.62711864406779,16.106666666666666C98.64406779661016,15.922222222222219,99.66101694915254,15.84222222222222,100.6779661016949,15.733333333333333C101.69491525423729,15.624444444444443,102.71186440677965,15.571111111111112,103.72881355932203,15.453333333333333C104.7457627118644,15.335555555555556,105.76271186440678,15.18,106.77966101694915,15.026666666666667C107.79661016949153,14.873333333333333,108.8135593220339,14.662222222222221,109.83050847457628,14.533333333333331C110.84745762711864,14.404444444444442,111.86440677966102,14.366666666666664,112.88135593220339,14.25333333333333C113.89830508474576,14.139999999999997,114.91525423728814,14.075555555555557,115.9322033898305,13.853333333333335C116.94915254237289,13.631111111111114,117.96610169491525,12.96444444444444,118.98305084745763,12.919999999999998C120,12.875555555555556,121.01694915254237,12.897777777777778,122.03389830508473,12.853333333333335C123.05084745762711,12.808888888888893,124.0677966101695,12.373333333333335,125.08474576271188,12.373333333333335C126.10169491525424,12.373333333333335,127.11864406779662,13.333333333333336,128.135593220339,13.333333333333336C129.15254237288136,13.333333333333336,130.16949152542372,13.048888888888888,131.1864406779661,12.959999999999997C132.20338983050846,12.871111111111107,133.22033898305085,12.906666666666663,134.23728813559322,12.799999999999997C135.25423728813558,12.693333333333332,136.27118644067798,12.320000000000002,137.28813559322035,12.320000000000002C138.3050847457627,12.320000000000002,139.3220338983051,13.924444444444443,140.33898305084747,14.066666666666666C141.35593220338984,14.208888888888888,142.3728813559322,14.28,143.38983050847457,14.28C144.40677966101694,14.28,145.42372881355934,13.308888888888898,146.4406779661017,12.280000000000001C147.45762711864407,11.251111111111113,148.47457627118644,9.12222222222222,149.4915254237288,8.106666666666666C150.50847457627117,7.091111111111101,151.52542372881356,6.724444444444442,152.54237288135593,6.186666666666665C153.5593220338983,5.648888888888887,154.5762711864407,4.88,155.59322033898306,4.88C156.61016949152543,4.88,157.6271186440678,4.893333333333332,158.64406779661016,4.893333333333332C159.66101694915253,4.893333333333332,160.67796610169492,3.322222222222221,161.6949152542373,2.666666666666666C162.71186440677965,2.011111111111111,163.72881355932205,0.9600000000000009,164.74576271186442,0.9600000000000009C165.76271186440678,0.9600000000000009,166.77966101694915,1.9222222222222283,167.79661016949152,2.6933333333333342C168.81355932203388,3.4644444444444473,169.83050847457628,4.733333333333335,170.84745762711864,5.586666666666669C171.864406779661,6.440000000000002,172.8813559322034,7.255555555555556,173.89830508474577,7.813333333333334C174.91525423728814,8.371111111111112,175.93220338983053,8.36222222222222,176.9491525423729,8.933333333333335C177.96610169491527,9.504444444444445,178.98305084745763,10.372222222222224,180,11.240000000000002"></path><path class="axis-ceiling" stroke-width="1" stroke="black" fill="none" d="M175,0L180,0"></path><text class="axis-ceiling-label" font-family="sans-serif" text-anchor="end" font-size="10px" x="170" y="2.5">3000</text></g></svg>