<svg xmlns="http://www.w3.org/2000/svg" viewBox="0 0 180 60"><g transform="translate(0,20)"><path class="area" fill="rgba(0, 0, 0, 0.2)" d="M0,24.119999999999997C1.0169491525423728,24.19333333333333,2.0338983050847457,24.266666666666666,3.0508474576271185,24.32C4.067796610169491,24.373333333333335,5.084745762711864,24.439999999999998,6.101694915254237,24.439999999999998C7.11864406779661,24.439999999999998,8.135593220338983,24.439999999999998,9.152542372881356,24.439999999999998C10.169491525423728,24.439999999999998,11.186440677966102,32.32,12.203389830508474,32.32C13.220338983050846,32.32,14.23728813559322,20.4,15.254237288135592,20.4C16.271186440677965,20.4,17.28813559322034,20.96666666666667,18.305084745762713,21.240000000000002C19.322033898305087,21.513333333333335,20.338983050847457,22.04,21.35593220338983,22.04C22.372881355932204,22.04,23.389830508474574,19.04,24.406779661016948,19.04C25.423728813559322,19.04,26.440677966101696,23.05333333333333,27.45762711864407,24.24C28.47457627118644,25.426666666666662,29.491525423728813,24.880000000000003,30.508474576271183,26.16C31.525423728813557,27.44,32.54237288135593,31.92,33.559322033898304,31.92C34.57627118644068,31.92,35.59322033898305,18.266666666666666,36.610169491525426,17.759999999999998C37.6271186440678,17.253333333333334,38.644067796610166,17,39.66101694915254,17C40.67796610169491,17,41.69491525423729,21.840000000000003,42.71186440677966,21.840000000000003C43.728813559322035,21.840000000000003,44.7457627118644,20.126666666666665,45.762711864406775,19.52C46.77966101694915,18.91333333333333,47.79661016949152,18.2,48.813559322033896,18.2C49.83050847457627,18.2,50.847457627118644,20.1,51.86440677966102,21.840000000000003C52.88135593220339,23.580000000000005,53.898305084745765,28.64,54.91525423728814,28.64C55.93220338983051,28.64,56.94915254237288,16.546666666666667,57.96610169491525,15.08C58.983050847457626,13.613333333333333,59.99999999999999,12.879999999999999,61.01694915254237,12.879999999999999C62.03389830508474,12.879999999999999,63.05084745762712,13.066666666666665,64.0677966101695,13.439999999999998C65.08474576271186,13.813333333333329,66.10169491525424,17.580000000000005,67.11864406779661,20C68.13559322033899,22.420000000000005,69.15254237288136,27.96,70.16949152542374,27.96C71.1864406779661,27.96,72.20338983050848,26.36,73.22033898305085,26.36C74.23728813559322,26.36,75.2542372881356,31.6,76.27118644067797,31.6C77.28813559322033,31.6,78.30508474576271,23.520000000000003,79.32203389830508,23.520000000000003C80.33898305084746,23.520000000000003,81.35593220338983,24.339999999999996,82.37288135593221,25.560000000000002C83.38983050847457,26.78,84.40677966101696,30.146666666666672,85.42372881355932,30.84C86.4406779661017,31.53333333333333,87.45762711864407,31.879999999999995,88.47457627118645,31.879999999999995C89.49152542372882,31.879999999999995,90.50847457627118,17.066666666666666,91.52542372881355,16.880000000000003C92.54237288135593,16.693333333333335,93.55932203389831,16.6,94.57627118644069,16.6C95.59322033898306,16.6,96.61016949152543,26.68,97.62711864406779,26.68C98.64406779661016,26.68,99.66101694915254,21.373333333333335,100.6779661016949,19.8C101.69491525423729,18.22666666666666,102.71186440677965,17.240000000000002,103.72881355932203,17.240000000000002C104.7457627118644,17.240000000000002,105.76271186440678,19.593333333333337,106.77966101694915,20.76C107.79661016949153,21.92666666666667,108.8135593220339,24.24,109.83050847457628,24.24C110.84745762711864,24.24,111.86440677966102,23.4,112.88135593220339,23.4C113.89830508474576,23.4,114.91525423728814,23.85333333333333,115.9322033898305,24.759999999999998C116.94915254237289,25.666666666666668,117.96610169491525,32.800000000000004,118.98305084745763,32.800000000000004C120,32.800000000000004,121.01694915254237,20.4,122.03389830508473,20.4C123.05084745762711,20.4,124.0677966101695,20.52,125.08474576271188,20.76C126.10169491525424,21,127.11864406779662,23.17333333333334,128.135593220339,23.200000000000003C129.15254237288136,23.226666666666667,130.16949152542372,23.24,131.1864406779661,23.24C132.20338983050846,23.24,133.22033898305085,19.4,134.23728813559322,19.4C135.25423728813558,19.4,136.27118644067798,23.326666666666668,137.28813559322035,25.8C138.3050847457627,28.273333333333333,139.3220338983051,34.24,140.33898305084747,34.24C141.35593220338984,34.24,142.3728813559322,20.64,143.38983050847457,20.64C144.40677966101694,20.64,145.42372881355934,22.9,146.4406779661017,23.56C147.45762711864407,24.21999999999999,148.47457627118644,24.360000000000003,149.4915254237288,24.6C150.50847457627117,24.840000000000003,151.52542372881356,24.733333333333334,152.54237288135593,25C153.5593220338983,25.266666666666666,154.5762711864407,27.893333333333324,155.59322033898306,28.479999999999997C156.61016949152543,29.066666666666666,157.6271186440678,28.77333333333333,158.64406779661016,29.36C159.66101694915253,29.946666666666673,160.67796610169492,35.52,161.6949152542373,35.52C162.71186440677965,35.52,163.72881355932205,25.680000000000003,164.74576271186442,25.2C165.76271186440678,24.72,166.77966101694915,24.48,167.79661016949152,24.48C168.81355932203388,24.48,169.83050847457628,26.959999999999997,170.84745762711864,26.959999999999997C171.864406779661,26.959999999999997,172.8813559322034,25.52,173.89830508474577,25.52C174.91525423728814,25.52,175.93220338983053,27.206666666666663,176.9491525423729,28.200000000000003C177.96610169491527,29.19333333333333,178.98305084745763,30.336666666666666,180,31.48L180,40C178.98305084745763,40,177.96610169491527,40,176.9491525423729,40C175.93220338983053,40,174.91525423728814,40,173.89830508474577,40C172.8813559322034,40,171.864406779661,40,170.84745762711864,40C169.83050847457628,40,168.81355932203388,40,167.79661016949152,40C166.77966101694915,40,165.76271186440678,40,164.74576271186442,40C163.72881355932205,40,162.71186440677965,40,161.6949152542373,40C160.67796610169492,40,159.66101694915253,40,158.64406779661016,40C157.6271186440678,40,156.61016949152543,40,155.59322033898306,40C154.5762711864407,40,153.5593220338983,40,152.54237288135593,40C151.52542372881356,40,150.50847457627117,40,149.4915254237288,40C148.47457627118644,40,147.45762711864407,40,146.4406779661017,40C145.42372881355934,40,144.40677966101694,40,143.38983050847457,40C142.3728813559322,40,141.35593220338984,40,140.33898305084747,40C139.3220338983051,40,138.3050847457627,40,137.28813559322035,40C136.27118644067798,40,135.25423728813558,40,134.23728813559322,40C133.22033898305085,40,132.20338983050846,40,131.1864406779661,40C130.16949152542372,40,129.15254237288136,40,128.135593220339,40C127.11864406779662,40,126.10169491525424,40,125.08474576271188,40C124.0677966101695,40,123.05084745762711,40,122.03389830508473,40C121.01694915254237,40,120,40,118.98305084745763,40C117.96610169491525,40,116.94915254237289,40,115.9322033898305,40C114.91525423728814,40,113.89830508474576,40,112.88135593220339,40C111.86440677966102,40,110.84745762711864,40,109.83050847457628,40C108.8135593220339,40,107.79661016949153,40,106.77966101694915,40C105.76271186440678,40,104.7457627118644,40,103.72881355932203,40C102.71186440677965,40,101.69491525423729,40,100.6779661016949,40C99.66101694915254,40,98.64406779661016,40,97.62711864406779,40C96.61016949152543,40,95.59322033898306,40,94.57627118644069,40C93.55932203389831,40,92.54237288135593,40,91.52542372881355,40C90.50847457627118,40,89.49152542372882,40,88.47457627118645,40C87.45762711864407,40,86.4406779661017,40,85.42372881355932,40C84.40677966101696,40,83.38983050847457,40,82.37288135593221,40C81.35593220338983,40,80.33898305084746,40,79.32203389830508,40C78.30508474576271,40,77.28813559322033,40,76.27118644067797,40C75.2542372881356,40,74.23728813559322,40,73.22033898305085,40C72.20338983050848,40,71.1864406779661,40,70.16949152542374,40C69.15254237288136,40,68.13559322033899,40,67.11864406779661,40C66.10169491525424,40,65.08474576271186,40,64.0677966101695,40C63.05084745762712,40,62.03389830508474,40,61.01694915254237,40C59.99999999999999,40,58.983050847457626,40,57.96610169491525,40C56.94915254237288,40,55.93220338983051,40,54.91525423728814,40C53.898305084745765,40,52.88135593220339,40,51.86440677966102,40C50.847457627118644,40,49.83050847457627,40,48.813559322033896,40C47.79661016949152,40,46.77966101694915,40,45.762711864406775,40C44.7457627118644,40,43.728813559322035,40,42.71186440677966,40C41.69491525423729,40,40.67796610169491,40,39.66101694915254,40C38.644067796610166,40,37.6271186440678,40,36.610169491525426,40C35.59322033898305,40,34.57627118644068,40,33.559322033898304,40C32.54237288135593,40,31.525423728813557,40,30.508474576271183,40C29.491525423728813,40,28.47457627118644,40,27.45762711864407,40C26.440677966101696,40,25.423728813559322,40,24.406779661016948,40C23.389830508474574,40,22.372881355932204,40,21.35593220338983,40C20.338983050847457,40,19.322033898305087,40,18.305084745762713,40C17.28813559322034,40,16.271186440677965,40,15.254237288135592,40C14.23728813559322,40,13.220338983050846,40,12.203389830508474,40C11.186440677966102,40,10.169491525423728,40,9.152542372881356,40C8.135593220338983,40,7.11864406779661,40,6.101694915254237,40C5.084745762711864,40,4.067796610169491,40,3.0508474576271185,40C2.0338983050847457,40,1.0169491525423728,40,0,40Z"></path><path class="line" stroke="black" fill="none" d="M0,24.119999999999997C1.0169491525423728,24.19333333333333,2.0338983050847457,24.266666666666666,3.0508474576271185,24.32C4.067796610169491,24.373333333333335,5.084745762711864,24.439999999999998,6.101694915254237,24.439999999999998C7.11864406779661,24.439999999999998,8.135593220338983,24.439999999999998,9.152542372881356,24.439999999999998C10.169491525423728,24.439999999999998,11.186440677966102,32.32,12.203389830508474,32.32C13.220338983050846,32.32,14.23728813559322,20.4,15.254237288135592,20.4C16.271186440677965,20.4,17.28813559322034,20.96666666666667,18.305084745762713,21.240000000000002C19.322033898305087,21.513333333333335,20.338983050847457,22.04,21.35593220338983,22.04C22.372881355932204,22.04,23.389830508474574,19.04,24.406779661016948,19.04C25.423728813559322,19.04,26.440677966101696,23.05333333333333,27.45762711864407,24.24C28.47457627118644,25.426666666666662,29.491525423728813,24.880000000000003,30.508474576271183,26.16C31.525423728813557,27.44,32.54237288135593,31.92,33.559322033898304,31.92C34.57627118644068,31.92,35.59322033898305,18.266666666666666,36.610169491525426,17.759999999999998C37.6271186440678,17.253333333333334,38.644067796610166,17,39.66101694915254,17C40.67796610169491,17,41.69491525423729,21.840000000000003,42.71186440677966,21.840000000000003C43.728813559322035,21.840000000000003,44.7457627118644,20.126666666666665,45.762711864406775,19.52C46.77966101694915,18.91333333333333,47.79661016949152,18.2,48.813559322033896,18.2C49.83050847457627,18.2,50.847457627118644,20.1,51.86440677966102,21.840000000000003C52.88135593220339,23.580000000000005,53.898305084745765,28.64,54.91525423728814,28.64C55.93220338983051,28.64,56.94915254237288,16.546666666666667,57.96610169491525,15.08C58.983050847457626,13.613333333333333,59.99999999999999,12.879999999999999,61.01694915254237,12.879999999999999C62.03389830508474,12.879999999999999,63.05084745762712,13.066666666666665,64.0677966101695,13.439999999999998C65.08474576271186,13.813333333333329,66.10169491525424,17.580000000000005,67.11864406779661,20C68.13559322033899,22.420000000000005,69.15254237288136,27.96,70.16949152542374,27.96C71.1864406779661,27.96,72.20338983050848,26.36,73.22033898305085,26.36C74.23728813559322,26.36,75.2542372881356,31.6,76.27118644067797,31.6C77.28813559322033,31.6,78.30508474576271,23.520000000000003,79.32203389830508,23.520000000000003C80.33898305084746,23.520000000000003,81.35593220338983,24.339999999999996,82.37288135593221,25.560000000000002C83.38983050847457,26.78,84.40677966101696,30.146666666666672,85.42372881355932,30.84C86.4406779661017,31.53333333333333,87.45762711864407,31.879999999999995,88.47457627118645,31.879999999999995C89.49152542372882,31.879999999999995,90.50847457627118,17.066666666666666,91.52542372881355,16.880000000000003C92.54237288135593,16.693333333333335,93.55932203389831,16.6,94.57627118644069,16.6C95.59322033898306,16.6,96.61016949152543,26.68,97.62711864406779,26.68C98.64406779661016,26.68,99.66101694915254,21.373333333333335,100.6779661016949,19.8C101.69491525423729,18.22666666666666,102.71186440677965,17.240000000000002,103.72881355932203,17.240000000000002C104.7457627118644,17.240000000000002,105.76271186440678,19.593333333333337,106.77966101694915,20.76C107.79661016949153,21.92666666666667,108.8135593220339,24.24,109.83050847457628,24.24C110.84745762711864,24.24,111.86440677966102,23.4,112.88135593220339,23.4C113.89830508474576,23.4,114.91525423728814,23.85333333333333,115.9322033898305,24.759999999999998C116.94915254237289,25.666666666666668,117.96610169491525,32.800000000000004,118.98305084745763,32.800000000000004C120,32.800000000000004,121.01694915254237,20.4,122.03389830508473,20.4C123.05084745762711,20.4,124.0677966101695,20.52,125.08474576271188,20.76C126.10169491525424,21,127.11864406779662,23.17333333333334,128.135593220339,23.200000000000003C129.15254237288136,23.226666666666667,130.16949152542372,23.24,131.1864406779661,23.24C132.20338983050846,23.24,133.22033898305085,19.4,134.23728813559322,19.4C135.25423728813558,19.4,136.27118644067798,23.326666666666668,137.28813559322035,25.8C138.3050847457627,28.273333333333333,139.3220338983051,34.24,140.33898305084747,34.24C141.35593220338984,34.24,142.3728813559322,20.64,143.38983050847457,20.64C144.40677966101694,20.64,145.42372881355934,22.9,146.4406779661017,23.56C147.45762711864407,24.21999999999999,148.47457627118644,24.360000000000003,149.4915254237288,24.6C150.50847457627117,24.840000000000003,151.52542372881356,24.733333333333334,152.54237288135593,25C153.5593220338983,25.266666666666666,154.5762711864407,27.893333333333324,155.59322033898306,28.479999999999997C156.61016949152543,29.066666666666666,157.6271186440678,28.77333333333333,158.64406779661016,29.36C159.66101694915253,29.946666666666673,160.67796610169492,35.52,161.6949152542373,35.52C162.71186440677965,35.52,163.72881355932205,25.680000000000003,164.74576271186442,25.2C165.76271186440678,24.72,166.77966101694915,24.48,167.79661016949152,24.48C168.81355932203388,24.48,169.83050847457628,26.959999999999997,170.84745762711864,26.959999999999997C171.864406779661,26.959999999999997,172.8813559322034,25.52,173.89830508474577,25.52C174.91525423728814,25.52,175.93220338983053,27.206666666666663,176.9491525423729,28.200000000000003C177.96610169491527,29.19333333333333,178.98305084745763,30.336666666666666,180,31.48"></path><path class="axis-ceiling" stroke-width="1" stroke="black" fill="none" d="M175,0L180,0"></path><text class="axis-ceiling-label" font-family="sans-serif" text-anchor="end" font-size="10px" x="170" y="2.5">1000</text></g></svg>