<svg xmlns="http://www.w3.org/2000/svg" viewBox="0 0 180 60"><g transform="translate(0,20)"><path class="area" fill="rgba(0, 0, 0, 0.2)" d="M0,29.6C1.0169491525423728,29.817777777777778,2.0338983050847457,30.035555555555554,3.0508474576271185,30.21333333333333C4.067796610169491,30.39111111111111,5.084745762711864,30.479999999999997,6.101694915254237,30.666666666666664C7.11864406779661,30.85333333333333,8.135593220338983,31.177777777777777,9.152542372881356,31.333333333333332C10.169491525423728,31.488888888888887,11.186440677966102,31.42222222222222,12.203389830508474,31.6C13.220338983050846,31.777777777777782,14.23728813559322,32.15111111111112,15.254237288135592,32.400000000000006C16.271186440677965,32.6488888888889,17.28813559322034,32.91111111111111,18.305084745762713,33.093333333333334C19.322033898305087,33.275555555555556,20.338983050847457,33.364444444444445,21.35593220338983,33.49333333333333C22.372881355932204,33.62222222222222,23.389830508474574,33.72,24.406779661016948,33.86666666666667C25.423728813559322,34.013333333333335,26.440677966101696,34.22666666666667,27.45762711864407,34.373333333333335C28.47457627118644,34.52,29.491525423728813,34.693333333333335,30.508474576271183,34.74666666666667C31.525423728813557,34.800000000000004,32.54237288135593,34.77333333333333,33.559322033898304,34.82666666666667C34.57627118644068,34.88,35.59322033898305,34.96888888888889,36.610169491525426,35.06666666666667C37.6271186440678,35.16444444444445,38.644067796610166,35.333333333333336,39.66101694915254,35.413333333333334C40.67796610169491,35.49333333333333,41.69491525423729,35.49333333333333,42.71186440677966,35.54666666666667C43.728813559322035,35.6,44.7457627118644,35.733333333333334,45.762711864406775,35.733333333333334C46.77966101694915,35.733333333333334,47.79661016949152,35.68,48.813559322033896,35.68C49.83050847457627,35.68,50.847457627118644,35.68,51.86440677966102,35.68C52.88135593220339,35.68,53.898305084745765,35.72,54.91525423728814,35.76C55.93220338983051,35.8,56.94915254237288,35.92,57.96610169491525,35.92C58.983050847457626,35.92,59.99999999999999,35.89333333333333,61.01694915254237,35.89333333333333C62.03389830508474,35.89333333333333,63.05084745762712,36.12444444444445,64.0677966101695,36.160000000000004C65.08474576271186,36.19555555555556,66.10169491525424,36.199999999999996,67.11864406779661,36.21333333333333C68.13559322033899,36.22666666666667,69.15254237288136,36.22222222222222,70.16949152542374,36.24C71.1864406779661,36.25777777777778,72.20338983050848,36.36,73.22033898305085,36.4C74.23728813559322,36.44,75.2542372881356,36.440000000000005,76.27118644067797,36.480000000000004C77.28813559322033,36.52,78.30508474576271,36.586666666666666,79.32203389830508,36.64C80.33898305084746,36.693333333333335,81.35593220338983,36.760000000000005,82.37288135593221,36.800000000000004C83.38983050847457,36.84,84.40677966101696,36.85333333333334,85.42372881355932,36.88C86.4406779661017,36.906666666666666,87.45762711864407,36.937777777777775,88.47457627118645,36.96C89.49152542372882,36.98222222222222,90.50847457627118,36.99555555555556,91.52542372881355,37.013333333333335C92.54237288135593,37.031111111111116,93.55932203389831,37.04888888888888,94.57627118644069,37.06666666666666C95.59322033898306,37.08444444444444,96.61016949152543,37.097777777777786,97.62711864406779,37.120000000000005C98.64406779661016,37.14222222222223,99.66101694915254,37.199999999999996,100.6779661016949,37.199999999999996C101.69491525423729,37.199999999999996,102.71186440677965,37.17333333333333,103.72881355932203,37.14666666666667C104.7457627118644,37.120000000000005,105.76271186440678,37.04,106.77966101694915,37.04C107.79661016949153,37.04,108.8135593220339,37.05777777777777,109.83050847457628,37.06666666666666C110.84745762711864,37.07555555555555,111.86440677966102,37.093333333333334,112.88135593220339,37.093333333333334C113.89830508474576,37.093333333333334,114.91525423728814,36.96888888888889,115.9322033898305,36.906666666666666C116.94915254237289,36.84444444444444,117.96610169491525,36.84444444444444,118.98305084745763,36.72C120,36.595555555555556,121.01694915254237,36.31111111111111,122.03389830508473,36.10666666666667C123.05084745762711,35.90222222222222,124.0677966101695,35.71111111111111,125.08474576271188,35.49333333333333C126.10169491525424,35.275555555555556,127.11864406779662,35.04888888888889,128.135593220339,34.8C129.15254237288136,34.55111111111111,130.16949152542372,34.31111111111111,131.1864406779661,34C132.20338983050846,33.68888888888889,133.22033898305085,33.25777777777778,134.23728813559322,32.93333333333334C135.25423728813558,32.60888888888889,136.27118644067798,32.29777777777778,137.28813559322035,32.053333333333335C138.3050847457627,31.808888888888887,139.3220338983051,31.813333333333336,140.33898305084747,31.466666666666665C141.35593220338984,31.119999999999997,142.3728813559322,30.475555555555555,143.38983050847457,29.973333333333336C144.40677966101694,29.471111111111114,145.42372881355934,28.942222222222224,146.4406779661017,28.453333333333333C147.45762711864407,27.964444444444446,148.47457627118644,27.537777777777773,149.4915254237288,27.04C150.50847457627117,26.542222222222218,151.52542372881356,25.982222222222223,152.54237288135593,25.46666666666667C153.5593220338983,24.951111111111114,154.5762711864407,24.43111111111111,155.59322033898306,23.946666666666665C156.61016949152543,23.462222222222223,157.6271186440678,22.96,158.64406779661016,22.560000000000002C159.66101694915253,22.16,160.67796610169492,21.546666666666667,161.6949152542373,21.546666666666667C162.71186440677965,21.546666666666667,163.72881355932205,22.186666666666667,164.74576271186442,22.186666666666667C165.76271186440678,22.186666666666667,166.77966101694915,19.933333333333326,167.79661016949152,18.799999999999997C168.81355932203388,17.666666666666657,169.83050847457628,16.471111111111114,170.84745762711864,15.386666666666668C171.864406779661,14.302222222222225,172.8813559322034,13.324444444444445,173.89830508474577,12.293333333333333C174.91525423728814,11.26222222222222,175.93220338983053,10.204444444444448,176.9491525423729,9.2C177.96610169491527,8.19555555555556,178.98305084745763,7.231111111111113,180,6.266666666666665L180,40C178.98305084745763,40,177.96610169491527,40,176.9491525423729,40C175.93220338983053,40,174.91525423728814,40,173.89830508474577,40C172.8813559322034,40,171.864406779661,40,170.84745762711864,40C169.83050847457628,40,168.81355932203388,40,167.79661016949152,40C166.77966101694915,40,165.76271186440678,40,164.74576271186442,40C163.72881355932205,40,162.71186440677965,40,161.6949152542373,40C160.67796610169492,40,159.66101694915253,40,158.64406779661016,40C157.6271186440678,40,156.61016949152543,40,155.59322033898306,40C154.5762711864407,40,153.5593220338983,40,152.54237288135593,40C151.52542372881356,40,150.50847457627117,40,149.4915254237288,40C148.47457627118644,40,147.45762711864407,40,146.4406779661017,40C145.42372881355934,40,144.40677966101694,40,143.38983050847457,40C142.3728813559322,40,141.35593220338984,40,140.33898305084747,40C139.3220338983051,40,138.3050847457627,40,137.28813559322035,40C136.27118644067798,40,135.25423728813558,40,134.23728813559322,40C133.22033898305085,40,132.20338983050846,40,131.1864406779661,40C130.16949152542372,40,129.15254237288136,40,128.135593220339,40C127.11864406779662,40,126.10169491525424,40,125.08474576271188,40C124.0677966101695,40,123.05084745762711,40,122.03389830508473,40C121.01694915254237,40,120,40,118.98305084745763,40C117.96610169491525,40,116.94915254237289,40,115.9322033898305,40C114.91525423728814,40,113.89830508474576,40,112.88135593220339,40C111.86440677966102,40,110.84745762711864,40,109.83050847457628,40C108.8135593220339,40,107.79661016949153,40,106.77966101694915,40C105.76271186440678,40,104.7457627118644,40,103.72881355932203,40C102.71186440677965,40,101.69491525423729,40,100.6779661016949,40C99.66101694915254,40,98.64406779661016,40,97.62711864406779,40C96.61016949152543,40,95.59322033898306,40,94.57627118644069,40C93.55932203389831,40,92.54237288135593,40,91.52542372881355,40C90.50847457627118,40,89.49152542372882,40,88.47457627118645,40C87.45762711864407,40,86.4406779661017,40,85.42372881355932,40C84.40677966101696,40,83.38983050847457,40,82.37288135593221,40C81.35593220338983,40,80.33898305084746,40,79.32203389830508,40C78.30508474576271,40,77.28813559322033,40,76.27118644067797,40C75.2542372881356,40,74.23728813559322,40,73.22033898305085,40C72.20338983050848,40,71.1864406779661,40,70.16949152542374,40C69.15254237288136,40,68.13559322033899,40,67.11864406779661,40C66.10169491525424,40,65.08474576271186,40,64.0677966101695,40C63.05084745762712,40,62.03389830508474,40,61.01694915254237,40C59.99999999999999,40,58.983050847457626,40,57.96610169491525,40C56.94915254237288,40,55.93220338983051,40,54.91525423728814,40C53.898305084745765,40,52.88135593220339,40,51.86440677966102,40C50.847457627118644,40,49.83050847457627,40,48.813559322033896,40C47.79661016949152,40,46.77966101694915,40,45.762711864406775,40C44.7457627118644,40,43.728813559322035,40,42.71186440677966,40C41.69491525423729,40,40.67796610169491,40,39.66101694915254,40C38.644067796610166,40,37.6271186440678,40,36.610169491525426,40C35.59322033898305,40,34.57627118644068,40,33.559322033898304,40C32.54237288135593,40,31.525423728813557,40,30.508474576271183,40C29.491525423728813,40,28.47457627118644,40,27.45762711864407,40C26.440677966101696,40,25.423728813559322,40,24.406779661016948,40C23.389830508474574,40,22.372881355932204,40,21.35593220338983,40C20.338983050847457,40,19.322033898305087,40,18.305084745762713,40C17.28813559322034,40,16.271186440677965,40,15.254237288135592,40C14.23728813559322,40,13.220338983050846,40,12.203389830508474,40C11.186440677966102,40,10.169491525423728,40,9.152542372881356,40C8.135593220338983,40,7.11864406779661,40,6.101694915254237,40C5.084745762711864,40,4.067796610169491,40,3.0508474576271185,40C2.0338983050847457,40,1.0169491525423728,40,0,40Z"></path><path class="line" stroke="black" fill="none" d="M0,29.6C1.0169491525423728,29.817777777777778,2.0338983050847457,30.035555555555554,3.0508474576271185,30.21333333333333C4.067796610169491,30.39111111111111,5.084745762711864,30.479999999999997,6.101694915254237,30.666666666666664C7.11864406779661,30.85333333333333,8.135593220338983,31.177777777777777,9.152542372881356,31.333333333333332C10.169491525423728,31.488888888888887,11.186440677966102,31.42222222222222,12.203389830508474,31.6C13.220338983050846,31.777777777777782,14.23728813559322,32.15111111111112,15.254237288135592,32.400000000000006C16.271186440677965,32.6488888888889,17.28813559322034,32.91111111111111,18.305084745762713,33.093333333333334C19.322033898305087,33.275555555555556,20.338983050847457,33.364444444444445,21.35593220338983,33.49333333333333C22.372881355932204,33.62222222222222,23.389830508474574,33.72,24.406779661016948,33.86666666666667C25.423728813559322,34.013333333333335,26.440677966101696,34.22666666666667,27.45762711864407,34.373333333333335C28.47457627118644,34.52,29.491525423728813,34.693333333333335,30.508474576271183,34.74666666666667C31.525423728813557,34.800000000000004,32.54237288135593,34.77333333333333,33.559322033898304,34.82666666666667C34.57627118644068,34.88,35.59322033898305,34.96888888888889,36.610169491525426,35.06666666666667C37.6271186440678,35.16444444444445,38.644067796610166,35.333333333333336,39.66101694915254,35.413333333333334C40.67796610169491,35.49333333333333,41.69491525423729,35.49333333333333,42.71186440677966,35.54666666666667C43.728813559322035,35.6,44.7457627118644,35.733333333333334,45.762711864406775,35.733333333333334C46.77966101694915,35.733333333333334,47.79661016949152,35.68,48.813559322033896,35.68C49.83050847457627,35.68,50.847457627118644,35.68,51.86440677966102,35.68C52.88135593220339,35.68,53.898305084745765,35.72,54.91525423728814,35.76C55.93220338983051,35.8,56.94915254237288,35.92,57.96610169491525,35.92C58.983050847457626,35.92,59.99999999999999,35.89333333333333,61.01694915254237,35.89333333333333C62.03389830508474,35.89333333333333,63.05084745762712,36.12444444444445,64.0677966101695,36.160000000000004C65.08474576271186,36.19555555555556,66.10169491525424,36.199999999999996,67.11864406779661,36.21333333333333C68.13559322033899,36.22666666666667,69.15254237288136,36.22222222222222,70.16949152542374,36.24C71.1864406779661,36.25777777777778,72.20338983050848,36.36,73.22033898305085,36.4C74.23728813559322,36.44,75.2542372881356,36.440000000000005,76.27118644067797,36.480000000000004C77.28813559322033,36.52,78.30508474576271,36.586666666666666,79.32203389830508,36.64C80.33898305084746,36.693333333333335,81.35593220338983,36.760000000000005,82.37288135593221,36.800000000000004C83.38983050847457,36.84,84.40677966101696,36.85333333333334,85.42372881355932,36.88C86.4406779661017,36.906666666666666,87.45762711864407,36.937777777777775,88.47457627118645,36.96C89.49152542372882,36.98222222222222,90.50847457627118,36.99555555555556,91.52542372881355,37.013333333333335C92.54237288135593,37.031111111111116,93.55932203389831,37.04888888888888,94.57627118644069,37.06666666666666C95.59322033898306,37.08444444444444,96.61016949152543,37.097777777777786,97.62711864406779,37.120000000000005C98.64406779661016,37.14222222222223,99.66101694915254,37.199999999999996,100.6779661016949,37.199999999999996C101.69491525423729,37.199999999999996,102.71186440677965,37.17333333333333,103.72881355932203,37.14666666666667C104.7457627118644,37.120000000000005,105.76271186440678,37.04,106.77966101694915,37.04C107.79661016949153,37.04,108.8135593220339,37.05777777777777,109.83050847457628,37.06666666666666C110.84745762711864,37.07555555555555,111.86440677966102,37.093333333333334,112.88135593220339,37.093333333333334C113.89830508474576,37.093333333333334,114.91525423728814,36.96888888888889,115.9322033898305,36.906666666666666C116.94915254237289,36.84444444444444,117.96610169491525,36.84444444444444,118.98305084745763,36.72C120,36.595555555555556,121.01694915254237,36.31111111111111,122.03389830508473,36.10666666666667C123.05084745762711,35.90222222222222,124.0677966101695,35.71111111111111,125.08474576271188,35.49333333333333C126.10169491525424,35.275555555555556,127.11864406779662,35.04888888888889,128.135593220339,34.8C129.15254237288136,34.55111111111111,130.16949152542372,34.31111111111111,131.1864406779661,34C132.20338983050846,33.68888888888889,133.22033898305085,33.25777777777778,134.23728813559322,32.93333333333334C135.25423728813558,32.60888888888889,136.27118644067798,32.29777777777778,137.28813559322035,32.053333333333335C138.3050847457627,31.808888888888887,139.3220338983051,31.813333333333336,140.33898305084747,31.466666666666665C141.35593220338984,31.119999999999997,142.3728813559322,30.475555555555555,143.38983050847457,29.973333333333336C144.40677966101694,29.471111111111114,145.42372881355934,28.942222222222224,146.4406779661017,28.453333333333333C147.45762711864407,27.964444444444446,148.47457627118644,27.537777777777773,149.4915254237288,27.04C150.50847457627117,26.542222222222218,151.52542372881356,25.982222222222223,152.54237288135593,25.46666666666667C153.5593220338983,24.951111111111114,154.5762711864407,24.43111111111111,155.59322033898306,23.946666666666665C156.61016949152543,23.462222222222223,157.6271186440678,22.96,158.64406779661016,22.560000000000002C159.66101694915253,22.16,160.67796610169492,21.546666666666667,161.6949152542373,21.546666666666667C162.71186440677965,21.546666666666667,163.72881355932205,22.186666666666667,164.74576271186442,22.186666666666667C165.76271186440678,22.186666666666667,166.77966101694915,19.933333333333326,167.79661016949152,18.799999999999997C168.81355932203388,17.666666666666657,169.83050847457628,16.471111111111114,170.84745762711864,15.386666666666668C171.864406779661,14.302222222222225,172.8813559322034,13.324444444444445,173.89830508474577,12.293333333333333C174.91525423728814,11.26222222222222,175.93220338983053,10.204444444444448,176.9491525423729,9.2C177.96610169491527,8.19555555555556,178.98305084745763,7.231111111111113,180,6.266666666666665"></path><path class="axis-ceiling" stroke-width="1" stroke="black" fill="none" d="M175,0L180,0"></path><text class="axis-ceiling-label" font-family="sans-serif" text-anchor="end" font-size="10px" x="170" y="2.5">1500</text></g></svg>