<svg xmlns="http://www.w3.org/2000/svg" viewBox="0 0 180 60"><g transform="translate(0,20)"><path class="area" fill="rgba(0, 0, 0, 0.2)" d="M0,29.68C1.0169491525423728,29.706666666666667,2.0338983050847457,29.733333333333334,3.0508474576271185,29.84C4.067796610169491,29.946666666666665,5.084745762711864,30.52,6.101694915254237,30.72C7.11864406779661,30.919999999999998,8.135593220338983,30.964444444444442,9.152542372881356,31.04C10.169491525423728,31.115555555555556,11.186440677966102,31.084444444444443,12.203389830508474,31.173333333333332C13.220338983050846,31.26222222222222,14.23728813559322,31.54666666666667,15.254237288135592,31.6C16.271186440677965,31.653333333333332,17.28813559322034,31.62666666666667,18.305084745762713,31.68C19.322033898305087,31.73333333333333,20.338983050847457,31.884444444444448,21.35593220338983,31.92C22.372881355932204,31.955555555555556,23.389830508474574,31.973333333333333,24.406779661016948,31.973333333333333C25.423728813559322,31.973333333333333,26.440677966101696,31.946666666666665,27.45762711864407,31.946666666666665C28.47457627118644,31.946666666666665,29.491525423728813,32.08888888888889,30.508474576271183,32.13333333333333C31.525423728813557,32.17777777777778,32.54237288135593,32.16888888888889,33.559322033898304,32.21333333333333C34.57627118644068,32.257777777777775,35.59322033898305,32.29777777777778,36.610169491525426,32.400000000000006C37.6271186440678,32.50222222222223,38.644067796610166,32.69777777777778,39.66101694915254,32.82666666666667C40.67796610169491,32.955555555555556,41.69491525423729,33.035555555555554,42.71186440677966,33.17333333333333C43.728813559322035,33.31111111111111,44.7457627118644,33.502222222222215,45.762711864406775,33.65333333333333C46.77966101694915,33.80444444444444,47.79661016949152,33.99111111111111,48.813559322033896,34.08C49.83050847457627,34.16888888888889,50.847457627118644,34.17777777777778,51.86440677966102,34.21333333333333C52.88135593220339,34.248888888888885,53.898305084745765,34.25333333333333,54.91525423728814,34.29333333333333C55.93220338983051,34.33333333333333,56.94915254237288,34.40888888888889,57.96610169491525,34.45333333333333C58.983050847457626,34.49777777777778,59.99999999999999,34.56,61.01694915254237,34.56C62.03389830508474,34.56,63.05084745762712,34.56,64.0677966101695,34.56C65.08474576271186,34.56,66.10169491525424,34.56,67.11864406779661,34.56C68.13559322033899,34.56,69.15254237288136,34.44,70.16949152542374,34.4C71.1864406779661,34.36,72.20338983050848,34.355555555555554,73.22033898305085,34.32C74.23728813559322,34.284444444444446,75.2542372881356,34.18666666666667,76.27118644067797,34.18666666666667C77.28813559322033,34.18666666666667,78.30508474576271,34.18666666666667,79.32203389830508,34.18666666666667C80.33898305084746,34.18666666666667,81.35593220338983,34.13333333333333,82.37288135593221,34.13333333333333C83.38983050847457,34.13333333333333,84.40677966101696,34.13333333333333,85.42372881355932,34.13333333333333C86.4406779661017,34.13333333333333,87.45762711864407,34.10666666666667,88.47457627118645,34.10666666666667C89.49152542372882,34.10666666666667,90.50847457627118,34.29333333333333,91.52542372881355,34.29333333333333C92.54237288135593,34.29333333333333,93.55932203389831,34.08,94.57627118644069,34.08C95.59322033898306,34.08,96.61016949152543,34.08,97.62711864406779,34.08C98.64406779661016,34.08,99.66101694915254,33.93777777777778,100.6779661016949,33.78666666666667C101.69491525423729,33.635555555555555,102.71186440677965,33.32,103.72881355932203,33.17333333333333C104.7457627118644,33.026666666666664,105.76271186440678,33.026666666666664,106.77966101694915,32.906666666666666C107.79661016949153,32.78666666666667,108.8135593220339,32.59111111111111,109.83050847457628,32.45333333333333C110.84745762711864,32.315555555555555,111.86440677966102,32.22222222222222,112.88135593220339,32.08C113.89830508474576,31.937777777777775,114.91525423728814,31.733333333333334,115.9322033898305,31.6C116.94915254237289,31.46666666666667,117.96610169491525,31.444444444444446,118.98305084745763,31.28C120,31.115555555555556,121.01694915254237,30.804444444444442,122.03389830508473,30.613333333333333C123.05084745762711,30.42222222222222,124.0677966101695,30.351111111111113,125.08474576271188,30.133333333333333C126.10169491525424,29.915555555555557,127.11864406779662,29.568888888888893,128.135593220339,29.30666666666667C129.15254237288136,29.044444444444448,130.16949152542372,28.857777777777777,131.1864406779661,28.56C132.20338983050846,28.26222222222222,133.22033898305085,27.83555555555555,134.23728813559322,27.519999999999996C135.25423728813558,27.20444444444444,136.27118644067798,26.871111111111116,137.28813559322035,26.66666666666667C138.3050847457627,26.462222222222227,139.3220338983051,26.542222222222225,140.33898305084747,26.293333333333333C141.35593220338984,26.044444444444444,142.3728813559322,25.52,143.38983050847457,25.12C144.40677966101694,24.72,145.42372881355934,24.337777777777777,146.4406779661017,23.89333333333333C147.45762711864407,23.448888888888888,148.47457627118644,22.866666666666664,149.4915254237288,22.453333333333333C150.50847457627117,22.04,151.52542372881356,21.813333333333333,152.54237288135593,21.413333333333334C153.5593220338983,21.013333333333335,154.5762711864407,20.43555555555556,155.59322033898306,20.053333333333335C156.61016949152543,19.671111111111113,157.6271186440678,19.448888888888884,158.64406779661016,19.119999999999997C159.66101694915253,18.791111111111107,160.67796610169492,18.08,161.6949152542373,18.08C162.71186440677965,18.08,163.72881355932205,19.30666666666667,164.74576271186442,19.30666666666667C165.76271186440678,19.30666666666667,166.77966101694915,17.44888888888888,167.79661016949152,16.53333333333333C168.81355932203388,15.617777777777771,169.83050847457628,14.822222222222225,170.84745762711864,13.813333333333336C171.864406779661,12.804444444444448,172.8813559322034,11.44888888888889,173.89830508474577,10.48C174.91525423728814,9.511111111111111,175.93220338983053,8.920000000000003,176.9491525423729,7.999999999999998C177.96610169491527,7.080000000000002,178.98305084745763,6.0200000000000005,180,4.96L180,40C178.98305084745763,40,177.96610169491527,40,176.9491525423729,40C175.93220338983053,40,174.91525423728814,40,173.89830508474577,40C172.8813559322034,40,171.864406779661,40,170.84745762711864,40C169.83050847457628,40,168.81355932203388,40,167.79661016949152,40C166.77966101694915,40,165.76271186440678,40,164.74576271186442,40C163.72881355932205,40,162.71186440677965,40,161.6949152542373,40C160.67796610169492,40,159.66101694915253,40,158.64406779661016,40C157.6271186440678,40,156.61016949152543,40,155.59322033898306,40C154.5762711864407,40,153.5593220338983,40,152.54237288135593,40C151.52542372881356,40,150.50847457627117,40,149.4915254237288,40C148.47457627118644,40,147.45762711864407,40,146.4406779661017,40C145.42372881355934,40,144.40677966101694,40,143.38983050847457,40C142.3728813559322,40,141.35593220338984,40,140.33898305084747,40C139.3220338983051,40,138.3050847457627,40,137.28813559322035,40C136.27118644067798,40,135.25423728813558,40,134.23728813559322,40C133.22033898305085,40,132.20338983050846,40,131.1864406779661,40C130.16949152542372,40,129.15254237288136,40,128.135593220339,40C127.11864406779662,40,126.10169491525424,40,125.08474576271188,40C124.0677966101695,40,123.05084745762711,40,122.03389830508473,40C121.01694915254237,40,120,40,118.98305084745763,40C117.96610169491525,40,116.94915254237289,40,115.9322033898305,40C114.91525423728814,40,113.89830508474576,40,112.88135593220339,40C111.86440677966102,40,110.84745762711864,40,109.83050847457628,40C108.8135593220339,40,107.79661016949153,40,106.77966101694915,40C105.76271186440678,40,104.7457627118644,40,103.72881355932203,40C102.71186440677965,40,101.69491525423729,40,100.6779661016949,40C99.66101694915254,40,98.64406779661016,40,97.62711864406779,40C96.61016949152543,40,95.59322033898306,40,94.57627118644069,40C93.55932203389831,40,92.54237288135593,40,91.52542372881355,40C90.50847457627118,40,89.49152542372882,40,88.47457627118645,40C87.45762711864407,40,86.4406779661017,40,85.42372881355932,40C84.40677966101696,40,83.38983050847457,40,82.37288135593221,40C81.35593220338983,40,80.33898305084746,40,79.32203389830508,40C78.30508474576271,40,77.28813559322033,40,76.27118644067797,40C75.2542372881356,40,74.23728813559322,40,73.22033898305085,40C72.20338983050848,40,71.1864406779661,40,70.16949152542374,40C69.15254237288136,40,68.13559322033899,40,67.11864406779661,40C66.10169491525424,40,65.08474576271186,40,64.0677966101695,40C63.05084745762712,40,62.03389830508474,40,61.01694915254237,40C59.99999999999999,40,58.983050847457626,40,57.96610169491525,40C56.94915254237288,40,55.93220338983051,40,54.91525423728814,40C53.898305084745765,40,52.88135593220339,40,51.86440677966102,40C50.847457627118644,40,49.83050847457627,40,48.813559322033896,40C47.79661016949152,40,46.77966101694915,40,45.762711864406775,40C44.7457627118644,40,43.728813559322035,40,42.71186440677966,40C41.69491525423729,40,40.67796610169491,40,39.66101694915254,40C38.644067796610166,40,37.6271186440678,40,36.610169491525426,40C35.59322033898305,40,34.57627118644068,40,33.559322033898304,40C32.54237288135593,40,31.525423728813557,40,30.508474576271183,40C29.491525423728813,40,28.47457627118644,40,27.45762711864407,40C26.440677966101696,40,25.423728813559322,40,24.406779661016948,40C23.389830508474574,40,22.372881355932204,40,21.35593220338983,40C20.338983050847457,40,19.322033898305087,40,18.305084745762713,40C17.28813559322034,40,16.271186440677965,40,15.254237288135592,40C14.23728813559322,40,13.220338983050846,40,12.203389830508474,40C11.186440677966102,40,10.169491525423728,40,9.152542372881356,40C8.135593220338983,40,7.11864406779661,40,6.101694915254237,40C5.084745762711864,40,4.067796610169491,40,3.0508474576271185,40C2.0338983050847457,40,1.0169491525423728,40,0,40Z"></path><path class="line" stroke="black" fill="none" d="M0,29.68C1.0169491525423728,29.706666666666667,2.0338983050847457,29.733333333333334,3.0508474576271185,29.84C4.067796610169491,29.946666666666665,5.084745762711864,30.52,6.101694915254237,30.72C7.11864406779661,30.919999999999998,8.135593220338983,30.964444444444442,9.152542372881356,31.04C10.169491525423728,31.115555555555556,11.186440677966102,31.084444444444443,12.203389830508474,31.173333333333332C13.220338983050846,31.26222222222222,14.23728813559322,31.54666666666667,15.254237288135592,31.6C16.271186440677965,31.653333333333332,17.28813559322034,31.62666666666667,18.305084745762713,31.68C19.322033898305087,31.73333333333333,20.338983050847457,31.884444444444448,21.35593220338983,31.92C22.372881355932204,31.955555555555556,23.389830508474574,31.973333333333333,24.406779661016948,31.973333333333333C25.423728813559322,31.973333333333333,26.440677966101696,31.946666666666665,27.45762711864407,31.946666666666665C28.47457627118644,31.946666666666665,29.491525423728813,32.08888888888889,30.508474576271183,32.13333333333333C31.525423728813557,32.17777777777778,32.54237288135593,32.16888888888889,33.559322033898304,32.21333333333333C34.57627118644068,32.257777777777775,35.59322033898305,32.29777777777778,36.610169491525426,32.400000000000006C37.6271186440678,32.50222222222223,38.644067796610166,32.69777777777778,39.66101694915254,32.82666666666667C40.67796610169491,32.955555555555556,41.69491525423729,33.035555555555554,42.71186440677966,33.17333333333333C43.728813559322035,33.31111111111111,44.7457627118644,33.502222222222215,45.762711864406775,33.65333333333333C46.77966101694915,33.80444444444444,47.79661016949152,33.99111111111111,48.813559322033896,34.08C49.83050847457627,34.16888888888889,50.847457627118644,34.17777777777778,51.86440677966102,34.21333333333333C52.88135593220339,34.248888888888885,53.898305084745765,34.25333333333333,54.91525423728814,34.29333333333333C55.93220338983051,34.33333333333333,56.94915254237288,34.40888888888889,57.96610169491525,34.45333333333333C58.983050847457626,34.49777777777778,59.99999999999999,34.56,61.01694915254237,34.56C62.03389830508474,34.56,63.05084745762712,34.56,64.0677966101695,34.56C65.08474576271186,34.56,66.10169491525424,34.56,67.11864406779661,34.56C68.13559322033899,34.56,69.15254237288136,34.44,70.16949152542374,34.4C71.1864406779661,34.36,72.20338983050848,34.355555555555554,73.22033898305085,34.32C74.23728813559322,34.284444444444446,75.2542372881356,34.18666666666667,76.27118644067797,34.18666666666667C77.28813559322033,34.18666666666667,78.30508474576271,34.18666666666667,79.32203389830508,34.18666666666667C80.33898305084746,34.18666666666667,81.35593220338983,34.13333333333333,82.37288135593221,34.13333333333333C83.38983050847457,34.13333333333333,84.40677966101696,34.13333333333333,85.42372881355932,34.13333333333333C86.4406779661017,34.13333333333333,87.45762711864407,34.10666666666667,88.47457627118645,34.10666666666667C89.49152542372882,34.10666666666667,90.50847457627118,34.29333333333333,91.52542372881355,34.29333333333333C92.54237288135593,34.29333333333333,93.55932203389831,34.08,94.57627118644069,34.08C95.59322033898306,34.08,96.61016949152543,34.08,97.62711864406779,34.08C98.64406779661016,34.08,99.66101694915254,33.93777777777778,100.6779661016949,33.78666666666667C101.69491525423729,33.635555555555555,102.71186440677965,33.32,103.72881355932203,33.17333333333333C104.7457627118644,33.026666666666664,105.76271186440678,33.026666666666664,106.77966101694915,32.906666666666666C107.79661016949153,32.78666666666667,108.8135593220339,32.59111111111111,109.83050847457628,32.45333333333333C110.84745762711864,32.315555555555555,111.86440677966102,32.22222222222222,112.88135593220339,32.08C113.89830508474576,31.937777777777775,114.91525423728814,31.733333333333334,115.9322033898305,31.6C116.94915254237289,31.46666666666667,117.96610169491525,31.444444444444446,118.98305084745763,31.28C120,31.115555555555556,121.01694915254237,30.804444444444442,122.03389830508473,30.613333333333333C123.05084745762711,30.42222222222222,124.0677966101695,30.351111111111113,125.08474576271188,30.133333333333333C126.10169491525424,29.915555555555557,127.11864406779662,29.568888888888893,128.135593220339,29.30666666666667C129.15254237288136,29.044444444444448,130.16949152542372,28.857777777777777,131.1864406779661,28.56C132.20338983050846,28.26222222222222,133.22033898305085,27.83555555555555,134.23728813559322,27.519999999999996C135.25423728813558,27.20444444444444,136.27118644067798,26.871111111111116,137.28813559322035,26.66666666666667C138.3050847457627,26.462222222222227,139.3220338983051,26.542222222222225,140.33898305084747,26.293333333333333C141.35593220338984,26.044444444444444,142.3728813559322,25.52,143.38983050847457,25.12C144.40677966101694,24.72,145.42372881355934,24.337777777777777,146.4406779661017,23.89333333333333C147.45762711864407,23.448888888888888,148.47457627118644,22.866666666666664,149.4915254237288,22.453333333333333C150.50847457627117,22.04,151.52542372881356,21.813333333333333,152.54237288135593,21.413333333333334C153.5593220338983,21.013333333333335,154.5762711864407,20.43555555555556,155.59322033898306,20.053333333333335C156.61016949152543,19.671111111111113,157.6271186440678,19.448888888888884,158.64406779661016,19.119999999999997C159.66101694915253,18.791111111111107,160.67796610169492,18.08,161.6949152542373,18.08C162.71186440677965,18.08,163.72881355932205,19.30666666666667,164.74576271186442,19.30666666666667C165.76271186440678,19.30666666666667,166.77966101694915,17.44888888888888,167.79661016949152,16.53333333333333C168.81355932203388,15.617777777777771,169.83050847457628,14.822222222222225,170.84745762711864,13.813333333333336C171.864406779661,12.804444444444448,172.8813559322034,11.44888888888889,173.89830508474577,10.48C174.91525423728814,9.511111111111111,175.93220338983053,8.920000000000003,176.9491525423729,7.999999999999998C177.96610169491527,7.080000000000002,178.98305084745763,6.0200000000000005,180,4.96"></path><path class="axis-ceiling" stroke-width="1" stroke="black" fill="none" d="M175,0L180,0"></path><text class="axis-ceiling-label" font-family="sans-serif" text-anchor="end" font-size="10px" x="170" y="2.5">1500</text></g></svg>