<svg xmlns="http://www.w3.org/2000/svg" viewBox="0 0 180 60"><g transform="translate(0,20)"><path class="area" fill="rgba(0, 0, 0, 0.2)" d="M0,37.333333333333336C1.0344827586206897,38.66666666666667,2.068965517241379,40,3.103448275862069,40C4.137931034482759,40,5.172413793103448,40,6.206896551724138,40C7.241379310344827,40,8.275862068965516,40,9.310344827586206,40C10.344827586206897,40,11.379310344827585,40,12.413793103448276,40C13.448275862068966,40,14.482758620689655,40,15.517241379310345,40C16.551724137931036,40,17.586206896551722,36,18.620689655172413,36C19.655172413793103,36,20.689655172413794,36,21.724137931034484,36C22.758620689655174,36,23.79310344827586,40,24.82758620689655,40C25.862068965517242,40,26.896551724137932,40,27.931034482758623,40C28.965517241379313,40,30,40,31.03448275862069,40C32.06896551724138,40,33.103448275862064,39.11111111111111,34.137931034482754,38.666666666666664C35.172413793103445,38.22222222222222,36.206896551724135,37.333333333333336,37.241379310344826,37.333333333333336C38.275862068965516,37.333333333333336,39.310344827586206,38.666666666666664,40.3448275862069,38.666666666666664C41.37931034482759,38.666666666666664,42.41379310344828,38.666666666666664,43.44827586206897,38.666666666666664C44.48275862068966,38.666666666666664,45.51724137931035,36,46.55172413793104,36C47.58620689655173,36,48.62068965517241,40,49.6551724137931,40C50.689655172413794,40,51.72413793103448,40,52.75862068965517,40C53.79310344827586,40,54.827586206896555,39.333333333333336,55.862068965517246,38.666666666666664C56.896551724137936,38,57.93103448275862,36,58.96551724137931,36C60,36,61.03448275862069,38.666666666666664,62.06896551724138,38.666666666666664C63.10344827586207,38.666666666666664,64.13793103448276,37.333333333333336,65.17241379310344,37.333333333333336C66.20689655172413,37.333333333333336,67.24137931034483,37.333333333333336,68.27586206896551,37.333333333333336C69.3103448275862,37.333333333333336,70.34482758620689,38.666666666666664,71.37931034482759,38.666666666666664C72.41379310344827,38.666666666666664,73.44827586206897,33.333333333333336,74.48275862068965,33.333333333333336C75.51724137931033,33.333333333333336,76.55172413793103,37.77777777777778,77.58620689655172,38.666666666666664C78.62068965517241,39.55555555555556,79.6551724137931,40,80.6896551724138,40C81.72413793103448,40,82.75862068965517,39.55555555555556,83.79310344827586,38.666666666666664C84.82758620689656,37.77777777777777,85.86206896551724,16,86.89655172413794,16C87.93103448275862,16,88.96551724137932,38.666666666666664,90,38.666666666666664C91.0344827586207,38.666666666666664,92.06896551724138,21.333333333333332,93.10344827586208,21.333333333333332C94.13793103448276,21.333333333333332,95.17241379310344,36,96.20689655172413,36C97.24137931034483,36,98.27586206896551,34.22222222222222,99.3103448275862,32C100.3448275862069,29.77777777777778,101.37931034482759,26.444444444444464,102.41379310344828,22.666666666666664C103.44827586206897,18.888888888888896,104.48275862068965,9.333333333333332,105.51724137931033,9.333333333333332C106.55172413793103,9.333333333333332,107.58620689655172,12.444444444444446,108.62068965517241,14.666666666666668C109.65517241379311,16.88888888888889,110.6896551724138,20.66666666666666,111.72413793103449,22.666666666666664C112.75862068965517,24.666666666666657,113.79310344827587,26.66666666666667,114.82758620689656,26.66666666666667C115.86206896551724,26.66666666666667,116.89655172413794,12.44444444444444,117.93103448275862,7.999999999999998C118.96551724137932,3.555555555555535,120,0,121.0344827586207,0C122.06896551724138,0,123.10344827586208,13.333333333333336,124.13793103448276,13.333333333333336C125.17241379310344,13.333333333333336,126.20689655172414,11.777777777777779,127.24137931034483,10.666666666666668C128.27586206896552,9.555555555555557,129.3103448275862,6.666666666666665,130.3448275862069,6.666666666666665C131.3793103448276,6.666666666666665,132.41379310344828,19.55555555555552,133.44827586206898,21.333333333333332C134.48275862068965,23.11111111111111,135.51724137931035,23.333333333333336,136.55172413793102,24C137.58620689655172,24.66666666666668,138.6206896551724,24.66666666666666,139.6551724137931,25.333333333333332C140.6896551724138,25.999999999999996,141.72413793103448,28,142.75862068965517,28C143.79310344827587,28,144.82758620689654,18.666666666666668,145.86206896551724,18.666666666666668C146.89655172413794,18.666666666666668,147.9310344827586,18.666666666666668,148.9655172413793,18.666666666666668C150,18.666666666666668,151.0344827586207,12.000000000000002,152.0689655172414,12.000000000000002C153.10344827586206,12.000000000000002,154.13793103448276,24,155.17241379310343,24C156.20689655172413,24,157.24137931034483,21.33333333333334,158.27586206896552,20C159.31034482758622,18.66666666666667,160.3448275862069,16,161.3793103448276,16C162.41379310344828,16,163.44827586206895,24,164.48275862068965,24C165.51724137931035,24,166.55172413793102,24,167.58620689655172,24C168.6206896551724,24,169.6551724137931,21.333333333333332,170.6896551724138,21.333333333333332C171.7241379310345,21.333333333333332,172.75862068965517,24,173.79310344827587,24C174.82758620689657,24,175.86206896551724,19.111111111111114,176.89655172413794,17.333333333333336C177.93103448275863,15.555555555555559,178.9655172413793,14.444444444444446,180,13.333333333333336L180,40C178.9655172413793,40,177.93103448275863,40,176.89655172413794,40C175.86206896551724,40,174.82758620689657,40,173.79310344827587,40C172.75862068965517,40,171.7241379310345,40,170.6896551724138,40C169.6551724137931,40,168.6206896551724,40,167.58620689655172,40C166.55172413793102,40,165.51724137931035,40,164.48275862068965,40C163.44827586206895,40,162.41379310344828,40,161.3793103448276,40C160.3448275862069,40,159.31034482758622,40,158.27586206896552,40C157.24137931034483,40,156.20689655172413,40,155.17241379310343,40C154.13793103448276,40,153.10344827586206,40,152.0689655172414,40C151.0344827586207,40,150,40,148.9655172413793,40C147.9310344827586,40,146.89655172413794,40,145.86206896551724,40C144.82758620689654,40,143.79310344827587,40,142.75862068965517,40C141.72413793103448,40,140.6896551724138,40,139.6551724137931,40C138.6206896551724,40,137.58620689655172,40,136.55172413793102,40C135.51724137931035,40,134.48275862068965,40,133.44827586206898,40C132.41379310344828,40,131.3793103448276,40,130.3448275862069,40C129.3103448275862,40,128.27586206896552,40,127.24137931034483,40C126.20689655172414,40,125.17241379310344,40,124.13793103448276,40C123.10344827586208,40,122.06896551724138,40,121.0344827586207,40C120,40,118.96551724137932,40,117.93103448275862,40C116.89655172413794,40,115.86206896551724,40,114.82758620689656,40C113.79310344827587,40,112.75862068965517,40,111.72413793103449,40C110.6896551724138,40,109.65517241379311,40,108.62068965517241,40C107.58620689655172,40,106.55172413793103,40,105.51724137931033,40C104.48275862068965,40,103.44827586206897,40,102.41379310344828,40C101.37931034482759,40,100.3448275862069,40,99.3103448275862,40C98.27586206896551,40,97.24137931034483,40,96.20689655172413,40C95.17241379310344,40,94.13793103448276,40,93.10344827586208,40C92.06896551724138,40,91.0344827586207,40,90,40C88.96551724137932,40,87.93103448275862,40,86.89655172413794,40C85.86206896551724,40,84.82758620689656,40,83.79310344827586,40C82.75862068965517,40,81.72413793103448,40,80.6896551724138,40C79.6551724137931,40,78.62068965517241,40,77.58620689655172,40C76.55172413793103,40,75.51724137931033,40,74.48275862068965,40C73.44827586206897,40,72.41379310344827,40,71.37931034482759,40C70.34482758620689,40,69.3103448275862,40,68.27586206896551,40C67.24137931034483,40,66.20689655172413,40,65.17241379310344,40C64.13793103448276,40,63.10344827586207,40,62.06896551724138,40C61.03448275862069,40,60,40,58.96551724137931,40C57.93103448275862,40,56.896551724137936,40,55.862068965517246,40C54.827586206896555,40,53.79310344827586,40,52.75862068965517,40C51.72413793103448,40,50.689655172413794,40,49.6551724137931,40C48.62068965517241,40,47.58620689655173,40,46.55172413793104,40C45.51724137931035,40,44.48275862068966,40,43.44827586206897,40C42.41379310344828,40,41.37931034482759,40,40.3448275862069,40C39.310344827586206,40,38.275862068965516,40,37.241379310344826,40C36.206896551724135,40,35.172413793103445,40,34.137931034482754,40C33.103448275862064,40,32.06896551724138,40,31.03448275862069,40C30,40,28.965517241379313,40,27.931034482758623,40C26.896551724137932,40,25.862068965517242,40,24.82758620689655,40C23.79310344827586,40,22.758620689655174,40,21.724137931034484,40C20.689655172413794,40,19.655172413793103,40,18.620689655172413,40C17.586206896551722,40,16.551724137931036,40,15.517241379310345,40C14.482758620689655,40,13.448275862068966,40,12.413793103448276,40C11.379310344827585,40,10.344827586206897,40,9.310344827586206,40C8.275862068965516,40,7.241379310344827,40,6.206896551724138,40C5.172413793103448,40,4.137931034482759,40,3.103448275862069,40C2.068965517241379,40,1.0344827586206897,40,0,40Z"></path><path class="line" stroke="black" fill="none" d="M0,37.333333333333336C1.0344827586206897,38.66666666666667,2.068965517241379,40,3.103448275862069,40C4.137931034482759,40,5.172413793103448,40,6.206896551724138,40C7.241379310344827,40,8.275862068965516,40,9.310344827586206,40C10.344827586206897,40,11.379310344827585,40,12.413793103448276,40C13.448275862068966,40,14.482758620689655,40,15.517241379310345,40C16.551724137931036,40,17.586206896551722,36,18.620689655172413,36C19.655172413793103,36,20.689655172413794,36,21.724137931034484,36C22.758620689655174,36,23.79310344827586,40,24.82758620689655,40C25.862068965517242,40,26.896551724137932,40,27.931034482758623,40C28.965517241379313,40,30,40,31.03448275862069,40C32.06896551724138,40,33.103448275862064,39.11111111111111,34.137931034482754,38.666666666666664C35.172413793103445,38.22222222222222,36.206896551724135,37.333333333333336,37.241379310344826,37.333333333333336C38.275862068965516,37.333333333333336,39.310344827586206,38.666666666666664,40.3448275862069,38.666666666666664C41.37931034482759,38.666666666666664,42.41379310344828,38.666666666666664,43.44827586206897,38.666666666666664C44.48275862068966,38.666666666666664,45.51724137931035,36,46.55172413793104,36C47.58620689655173,36,48.62068965517241,40,49.6551724137931,40C50.689655172413794,40,51.72413793103448,40,52.75862068965517,40C53.79310344827586,40,54.827586206896555,39.333333333333336,55.862068965517246,38.666666666666664C56.896551724137936,38,57.93103448275862,36,58.96551724137931,36C60,36,61.03448275862069,38.666666666666664,62.06896551724138,38.666666666666664C63.10344827586207,38.666666666666664,64.13793103448276,37.333333333333336,65.17241379310344,37.333333333333336C66.20689655172413,37.333333333333336,67.24137931034483,37.333333333333336,68.27586206896551,37.333333333333336C69.3103448275862,37.333333333333336,70.34482758620689,38.666666666666664,71.37931034482759,38.666666666666664C72.41379310344827,38.666666666666664,73.44827586206897,33.333333333333336,74.48275862068965,33.333333333333336C75.51724137931033,33.333333333333336,76.55172413793103,37.77777777777778,77.58620689655172,38.666666666666664C78.62068965517241,39.55555555555556,79.6551724137931,40,80.6896551724138,40C81.72413793103448,40,82.75862068965517,39.55555555555556,83.79310344827586,38.666666666666664C84.82758620689656,37.77777777777777,85.86206896551724,16,86.89655172413794,16C87.93103448275862,16,88.96551724137932,38.666666666666664,90,38.666666666666664C91.0344827586207,38.666666666666664,92.06896551724138,21.333333333333332,93.10344827586208,21.333333333333332C94.13793103448276,21.333333333333332,95.17241379310344,36,96.20689655172413,36C97.24137931034483,36,98.27586206896551,34.22222222222222,99.3103448275862,32C100.3448275862069,29.77777777777778,101.37931034482759,26.444444444444464,102.41379310344828,22.666666666666664C103.44827586206897,18.888888888888896,104.48275862068965,9.333333333333332,105.51724137931033,9.333333333333332C106.55172413793103,9.333333333333332,107.58620689655172,12.444444444444446,108.62068965517241,14.666666666666668C109.65517241379311,16.88888888888889,110.6896551724138,20.66666666666666,111.72413793103449,22.666666666666664C112.75862068965517,24.666666666666657,113.79310344827587,26.66666666666667,114.82758620689656,26.66666666666667C115.86206896551724,26.66666666666667,116.89655172413794,12.44444444444444,117.93103448275862,7.999999999999998C118.96551724137932,3.555555555555535,120,0,121.0344827586207,0C122.06896551724138,0,123.10344827586208,13.333333333333336,124.13793103448276,13.333333333333336C125.17241379310344,13.333333333333336,126.20689655172414,11.777777777777779,127.24137931034483,10.666666666666668C128.27586206896552,9.555555555555557,129.3103448275862,6.666666666666665,130.3448275862069,6.666666666666665C131.3793103448276,6.666666666666665,132.41379310344828,19.55555555555552,133.44827586206898,21.333333333333332C134.48275862068965,23.11111111111111,135.51724137931035,23.333333333333336,136.55172413793102,24C137.58620689655172,24.66666666666668,138.6206896551724,24.66666666666666,139.6551724137931,25.333333333333332C140.6896551724138,25.999999999999996,141.72413793103448,28,142.75862068965517,28C143.79310344827587,28,144.82758620689654,18.666666666666668,145.86206896551724,18.666666666666668C146.89655172413794,18.666666666666668,147.9310344827586,18.666666666666668,148.9655172413793,18.666666666666668C150,18.666666666666668,151.0344827586207,12.000000000000002,152.0689655172414,12.000000000000002C153.10344827586206,12.000000000000002,154.13793103448276,24,155.17241379310343,24C156.20689655172413,24,157.24137931034483,21.33333333333334,158.27586206896552,20C159.31034482758622,18.66666666666667,160.3448275862069,16,161.3793103448276,16C162.41379310344828,16,163.44827586206895,24,164.48275862068965,24C165.51724137931035,24,166.55172413793102,24,167.58620689655172,24C168.6206896551724,24,169.6551724137931,21.333333333333332,170.6896551724138,21.333333333333332C171.7241379310345,21.333333333333332,172.75862068965517,24,173.79310344827587,24C174.82758620689657,24,175.86206896551724,19.111111111111114,176.89655172413794,17.333333333333336C177.93103448275863,15.555555555555559,178.9655172413793,14.444444444444446,180,13.333333333333336"></path><path class="axis-ceiling" stroke-width="1" stroke="black" fill="none" d="M175,0L180,0"></path><text class="axis-ceiling-label" font-family="sans-serif" text-anchor="end" font-size="10px" x="170" y="2.5">30</text></g></svg>