<svg xmlns="http://www.w3.org/2000/svg" viewBox="0 0 180 60"><g transform="translate(0,20)"><path class="area" fill="rgba(0, 0, 0, 0.2)" d="M0,39.12C1.0169491525423728,39.34,2.0338983050847457,39.56,3.0508474576271185,39.56C4.067796610169491,39.56,5.084745762711864,39.071666666666665,6.101694915254237,38.91C7.11864406779661,38.74833333333333,8.135593220338983,38.62333333333334,9.152542372881356,38.59C10.169491525423728,38.556666666666665,11.186440677966102,38.54,12.203389830508474,38.54C13.220338983050846,38.54,14.23728813559322,38.96,15.254237288135592,38.96C16.271186440677965,38.96,17.28813559322034,38.63,18.305084745762713,38.63C19.322033898305087,38.63,20.338983050847457,38.64,21.35593220338983,38.660000000000004C22.372881355932204,38.68000000000001,23.389830508474574,39.06,24.406779661016948,39.06C25.423728813559322,39.06,26.440677966101696,37.57,27.45762711864407,37.33C28.47457627118644,37.089999999999996,29.491525423728813,37.07,30.508474576271183,36.97C31.525423728813557,36.87,32.54237288135593,36.730000000000004,33.559322033898304,36.730000000000004C34.57627118644068,36.730000000000004,35.59322033898305,36.83,36.610169491525426,36.83C37.6271186440678,36.83,38.644067796610166,35.86,39.66101694915254,35.86C40.67796610169491,35.86,41.69491525423729,36.08166666666666,42.71186440677966,36.349999999999994C43.728813559322035,36.618333333333325,44.7457627118644,37.47,45.762711864406775,37.47C46.77966101694915,37.47,47.79661016949152,33.709999999999994,48.813559322033896,33.43C49.83050847457627,33.150000000000006,50.847457627118644,33.010000000000005,51.86440677966102,33.010000000000005C52.88135593220339,33.010000000000005,53.898305084745765,33.010000000000005,54.91525423728814,33.010000000000005C55.93220338983051,33.010000000000005,56.94915254237288,32.873333333333335,57.96610169491525,32.68C58.983050847457626,32.486666666666665,59.99999999999999,31.85,61.01694915254237,31.85C62.03389830508474,31.85,63.05084745762712,32.21666666666667,64.0677966101695,32.71C65.08474576271186,33.20333333333333,66.10169491525424,34.57,67.11864406779661,34.81C68.13559322033899,35.050000000000004,69.15254237288136,35.17,70.16949152542374,35.17C71.1864406779661,35.17,72.20338983050848,24.059999999999995,73.22033898305085,24.059999999999995C74.23728813559322,24.059999999999995,75.2542372881356,24.069999999999997,76.27118644067797,24.089999999999996C77.28813559322033,24.109999999999996,78.30508474576271,24.55,79.32203389830508,24.55C80.33898305084746,24.55,81.35593220338983,23.740000000000002,82.37288135593221,23.740000000000002C83.38983050847457,23.740000000000002,84.40677966101696,24.16,85.42372881355932,25C86.4406779661017,25.840000000000003,87.45762711864407,32.62,88.47457627118645,32.62C89.49152542372882,32.62,90.50847457627118,24.016666666666637,91.52542372881355,21.790000000000003C92.54237288135593,19.563333333333336,93.55932203389831,18.450000000000003,94.57627118644069,18.450000000000003C95.59322033898306,18.450000000000003,96.61016949152543,18.46666666666667,97.62711864406779,18.5C98.64406779661016,18.53333333333333,99.66101694915254,22.599999999999998,100.6779661016949,22.599999999999998C101.69491525423729,22.599999999999998,102.71186440677965,21.25,103.72881355932203,21.25C104.7457627118644,21.25,105.76271186440678,21.933333333333334,106.77966101694915,23.3C107.79661016949153,24.666666666666675,108.8135593220339,32.47,109.83050847457628,32.47C110.84745762711864,32.47,111.86440677966102,18.916666666666664,112.88135593220339,17.95C113.89830508474576,16.983333333333334,114.91525423728814,16.5,115.9322033898305,16.5C116.94915254237289,16.5,117.96610169491525,16.68,118.98305084745763,17.040000000000003C120,17.400000000000002,121.01694915254237,20.339999999999996,122.03389830508473,20.339999999999996C123.05084745762711,20.339999999999996,124.0677966101695,18.700000000000003,125.08474576271188,18.700000000000003C126.10169491525424,18.700000000000003,127.11864406779662,19.863333333333326,128.135593220339,21.810000000000002C129.15254237288136,23.756666666666668,130.16949152542372,30.380000000000003,131.1864406779661,30.380000000000003C132.20338983050846,30.380000000000003,133.22033898305085,13.05,134.23728813559322,13.05C135.25423728813558,13.05,136.27118644067798,16.13,137.28813559322035,16.13C138.3050847457627,16.13,139.3220338983051,14.540000000000003,140.33898305084747,14.540000000000003C141.35593220338984,14.540000000000003,142.3728813559322,25.389999999999997,143.38983050847457,25.389999999999997C144.40677966101694,25.389999999999997,145.42372881355934,16.74,146.4406779661017,16.74C147.45762711864407,16.74,148.47457627118644,19.110000000000014,149.4915254237288,20.96C150.50847457627117,22.810000000000006,151.52542372881356,27.839999999999996,152.54237288135593,27.839999999999996C153.5593220338983,27.839999999999996,154.5762711864407,23.958333333333336,155.59322033898306,22.199999999999996C156.61016949152543,20.441666666666674,157.6271186440678,20.321666666666637,158.64406779661016,17.29C159.66101694915253,14.258333333333331,160.67796610169492,4.34333333333333,161.6949152542373,4.009999999999998C162.71186440677965,3.676666666666666,163.72881355932205,3.51,164.74576271186442,3.51C165.76271186440678,3.51,166.77966101694915,4.895000000000014,167.79661016949152,6.659999999999999C168.81355932203388,8.425,169.83050847457628,10.560000000000002,170.84745762711864,14.100000000000001C171.864406779661,17.64,172.8813559322034,27.9,173.89830508474577,27.9C174.91525423728814,27.9,175.93220338983053,11.960000000000012,176.9491525423729,10.499999999999998C177.96610169491527,9.04,178.98305084745763,8.674999999999999,180,8.309999999999999L180,40C178.98305084745763,40,177.96610169491527,40,176.9491525423729,40C175.93220338983053,40,174.91525423728814,40,173.89830508474577,40C172.8813559322034,40,171.864406779661,40,170.84745762711864,40C169.83050847457628,40,168.81355932203388,40,167.79661016949152,40C166.77966101694915,40,165.76271186440678,40,164.74576271186442,40C163.72881355932205,40,162.71186440677965,40,161.6949152542373,40C160.67796610169492,40,159.66101694915253,40,158.64406779661016,40C157.6271186440678,40,156.61016949152543,40,155.59322033898306,40C154.5762711864407,40,153.5593220338983,40,152.54237288135593,40C151.52542372881356,40,150.50847457627117,40,149.4915254237288,40C148.47457627118644,40,147.45762711864407,40,146.4406779661017,40C145.42372881355934,40,144.40677966101694,40,143.38983050847457,40C142.3728813559322,40,141.35593220338984,40,140.33898305084747,40C139.3220338983051,40,138.3050847457627,40,137.28813559322035,40C136.27118644067798,40,135.25423728813558,40,134.23728813559322,40C133.22033898305085,40,132.20338983050846,40,131.1864406779661,40C130.16949152542372,40,129.15254237288136,40,128.135593220339,40C127.11864406779662,40,126.10169491525424,40,125.08474576271188,40C124.0677966101695,40,123.05084745762711,40,122.03389830508473,40C121.01694915254237,40,120,40,118.98305084745763,40C117.96610169491525,40,116.94915254237289,40,115.9322033898305,40C114.91525423728814,40,113.89830508474576,40,112.88135593220339,40C111.86440677966102,40,110.84745762711864,40,109.83050847457628,40C108.8135593220339,40,107.79661016949153,40,106.77966101694915,40C105.76271186440678,40,104.7457627118644,40,103.72881355932203,40C102.71186440677965,40,101.69491525423729,40,100.6779661016949,40C99.66101694915254,40,98.64406779661016,40,97.62711864406779,40C96.61016949152543,40,95.59322033898306,40,94.57627118644069,40C93.55932203389831,40,92.54237288135593,40,91.52542372881355,40C90.50847457627118,40,89.49152542372882,40,88.47457627118645,40C87.45762711864407,40,86.4406779661017,40,85.42372881355932,40C84.40677966101696,40,83.38983050847457,40,82.37288135593221,40C81.35593220338983,40,80.33898305084746,40,79.32203389830508,40C78.30508474576271,40,77.28813559322033,40,76.27118644067797,40C75.2542372881356,40,74.23728813559322,40,73.22033898305085,40C72.20338983050848,40,71.1864406779661,40,70.16949152542374,40C69.15254237288136,40,68.13559322033899,40,67.11864406779661,40C66.10169491525424,40,65.08474576271186,40,64.0677966101695,40C63.05084745762712,40,62.03389830508474,40,61.01694915254237,40C59.99999999999999,40,58.983050847457626,40,57.96610169491525,40C56.94915254237288,40,55.93220338983051,40,54.91525423728814,40C53.898305084745765,40,52.88135593220339,40,51.86440677966102,40C50.847457627118644,40,49.83050847457627,40,48.813559322033896,40C47.79661016949152,40,46.77966101694915,40,45.762711864406775,40C44.7457627118644,40,43.728813559322035,40,42.71186440677966,40C41.69491525423729,40,40.67796610169491,40,39.66101694915254,40C38.644067796610166,40,37.6271186440678,40,36.610169491525426,40C35.59322033898305,40,34.57627118644068,40,33.559322033898304,40C32.54237288135593,40,31.525423728813557,40,30.508474576271183,40C29.491525423728813,40,28.47457627118644,40,27.45762711864407,40C26.440677966101696,40,25.423728813559322,40,24.406779661016948,40C23.389830508474574,40,22.372881355932204,40,21.35593220338983,40C20.338983050847457,40,19.322033898305087,40,18.305084745762713,40C17.28813559322034,40,16.271186440677965,40,15.254237288135592,40C14.23728813559322,40,13.220338983050846,40,12.203389830508474,40C11.186440677966102,40,10.169491525423728,40,9.152542372881356,40C8.135593220338983,40,7.11864406779661,40,6.101694915254237,40C5.084745762711864,40,4.067796610169491,40,3.0508474576271185,40C2.0338983050847457,40,1.0169491525423728,40,0,40Z"></path><path class="line" stroke="black" fill="none" d="M0,39.12C1.0169491525423728,39.34,2.0338983050847457,39.56,3.0508474576271185,39.56C4.067796610169491,39.56,5.084745762711864,39.071666666666665,6.101694915254237,38.91C7.11864406779661,38.74833333333333,8.135593220338983,38.62333333333334,9.152542372881356,38.59C10.169491525423728,38.556666666666665,11.186440677966102,38.54,12.203389830508474,38.54C13.220338983050846,38.54,14.23728813559322,38.96,15.254237288135592,38.96C16.271186440677965,38.96,17.28813559322034,38.63,18.305084745762713,38.63C19.322033898305087,38.63,20.338983050847457,38.64,21.35593220338983,38.660000000000004C22.372881355932204,38.68000000000001,23.389830508474574,39.06,24.406779661016948,39.06C25.423728813559322,39.06,26.440677966101696,37.57,27.45762711864407,37.33C28.47457627118644,37.089999999999996,29.491525423728813,37.07,30.508474576271183,36.97C31.525423728813557,36.87,32.54237288135593,36.730000000000004,33.559322033898304,36.730000000000004C34.57627118644068,36.730000000000004,35.59322033898305,36.83,36.610169491525426,36.83C37.6271186440678,36.83,38.644067796610166,35.86,39.66101694915254,35.86C40.67796610169491,35.86,41.69491525423729,36.08166666666666,42.71186440677966,36.349999999999994C43.728813559322035,36.618333333333325,44.7457627118644,37.47,45.762711864406775,37.47C46.77966101694915,37.47,47.79661016949152,33.709999999999994,48.813559322033896,33.43C49.83050847457627,33.150000000000006,50.847457627118644,33.010000000000005,51.86440677966102,33.010000000000005C52.88135593220339,33.010000000000005,53.898305084745765,33.010000000000005,54.91525423728814,33.010000000000005C55.93220338983051,33.010000000000005,56.94915254237288,32.873333333333335,57.96610169491525,32.68C58.983050847457626,32.486666666666665,59.99999999999999,31.85,61.01694915254237,31.85C62.03389830508474,31.85,63.05084745762712,32.21666666666667,64.0677966101695,32.71C65.08474576271186,33.20333333333333,66.10169491525424,34.57,67.11864406779661,34.81C68.13559322033899,35.050000000000004,69.15254237288136,35.17,70.16949152542374,35.17C71.1864406779661,35.17,72.20338983050848,24.059999999999995,73.22033898305085,24.059999999999995C74.23728813559322,24.059999999999995,75.2542372881356,24.069999999999997,76.27118644067797,24.089999999999996C77.28813559322033,24.109999999999996,78.30508474576271,24.55,79.32203389830508,24.55C80.33898305084746,24.55,81.35593220338983,23.740000000000002,82.37288135593221,23.740000000000002C83.38983050847457,23.740000000000002,84.40677966101696,24.16,85.42372881355932,25C86.4406779661017,25.840000000000003,87.45762711864407,32.62,88.47457627118645,32.62C89.49152542372882,32.62,90.50847457627118,24.016666666666637,91.52542372881355,21.790000000000003C92.54237288135593,19.563333333333336,93.55932203389831,18.450000000000003,94.57627118644069,18.450000000000003C95.59322033898306,18.450000000000003,96.61016949152543,18.46666666666667,97.62711864406779,18.5C98.64406779661016,18.53333333333333,99.66101694915254,22.599999999999998,100.6779661016949,22.599999999999998C101.69491525423729,22.599999999999998,102.71186440677965,21.25,103.72881355932203,21.25C104.7457627118644,21.25,105.76271186440678,21.933333333333334,106.77966101694915,23.3C107.79661016949153,24.666666666666675,108.8135593220339,32.47,109.83050847457628,32.47C110.84745762711864,32.47,111.86440677966102,18.916666666666664,112.88135593220339,17.95C113.89830508474576,16.983333333333334,114.91525423728814,16.5,115.9322033898305,16.5C116.94915254237289,16.5,117.96610169491525,16.68,118.98305084745763,17.040000000000003C120,17.400000000000002,121.01694915254237,20.339999999999996,122.03389830508473,20.339999999999996C123.05084745762711,20.339999999999996,124.0677966101695,18.700000000000003,125.08474576271188,18.700000000000003C126.10169491525424,18.700000000000003,127.11864406779662,19.863333333333326,128.135593220339,21.810000000000002C129.15254237288136,23.756666666666668,130.16949152542372,30.380000000000003,131.1864406779661,30.380000000000003C132.20338983050846,30.380000000000003,133.22033898305085,13.05,134.23728813559322,13.05C135.25423728813558,13.05,136.27118644067798,16.13,137.28813559322035,16.13C138.3050847457627,16.13,139.3220338983051,14.540000000000003,140.33898305084747,14.540000000000003C141.35593220338984,14.540000000000003,142.3728813559322,25.389999999999997,143.38983050847457,25.389999999999997C144.40677966101694,25.389999999999997,145.42372881355934,16.74,146.4406779661017,16.74C147.45762711864407,16.74,148.47457627118644,19.110000000000014,149.4915254237288,20.96C150.50847457627117,22.810000000000006,151.52542372881356,27.839999999999996,152.54237288135593,27.839999999999996C153.5593220338983,27.839999999999996,154.5762711864407,23.958333333333336,155.59322033898306,22.199999999999996C156.61016949152543,20.441666666666674,157.6271186440678,20.321666666666637,158.64406779661016,17.29C159.66101694915253,14.258333333333331,160.67796610169492,4.34333333333333,161.6949152542373,4.009999999999998C162.71186440677965,3.676666666666666,163.72881355932205,3.51,164.74576271186442,3.51C165.76271186440678,3.51,166.77966101694915,4.895000000000014,167.79661016949152,6.659999999999999C168.81355932203388,8.425,169.83050847457628,10.560000000000002,170.84745762711864,14.100000000000001C171.864406779661,17.64,172.8813559322034,27.9,173.89830508474577,27.9C174.91525423728814,27.9,175.93220338983053,11.960000000000012,176.9491525423729,10.499999999999998C177.96610169491527,9.04,178.98305084745763,8.674999999999999,180,8.309999999999999"></path><path class="axis-ceiling" stroke-width="1" stroke="black" fill="none" d="M175,0L180,0"></path><text class="axis-ceiling-label" font-family="sans-serif" text-anchor="end" font-size="10px" x="170" y="2.5">4000</text></g></svg>