<svg xmlns="http://www.w3.org/2000/svg" viewBox="0 0 180 60"><g transform="translate(0,20)"><path class="area" fill="rgba(0, 0, 0, 0.2)" d="M0,37.906666666666666C1.0169491525423728,37.69555555555556,2.0338983050847457,37.48444444444444,3.0508474576271185,37.306666666666665C4.067796610169491,37.12888888888889,5.084745762711864,37.013333333333335,6.101694915254237,36.84C7.11864406779661,36.66666666666667,8.135593220338983,36.46222222222222,9.152542372881356,36.266666666666666C10.169491525423728,36.07111111111111,11.186440677966102,35.90222222222222,12.203389830508474,35.666666666666664C13.220338983050846,35.43111111111111,14.23728813559322,35.12444444444444,15.254237288135592,34.85333333333333C16.271186440677965,34.58222222222222,17.28813559322034,34.233333333333334,18.305084745762713,34.04C19.322033898305087,33.846666666666664,20.338983050847457,33.92444444444445,21.35593220338983,33.693333333333335C22.372881355932204,33.46222222222222,23.389830508474574,32.986666666666665,24.406779661016948,32.586666666666666C25.423728813559322,32.18666666666667,26.440677966101696,31.68,27.45762711864407,31.293333333333333C28.47457627118644,30.906666666666666,29.491525423728813,30.673333333333332,30.508474576271183,30.266666666666666C31.525423728813557,29.86,32.54237288135593,29.275555555555556,33.559322033898304,28.853333333333335C34.57627118644068,28.431111111111115,35.59322033898305,28.062222222222225,36.610169491525426,27.733333333333334C37.6271186440678,27.404444444444444,38.644067796610166,27.168888888888883,39.66101694915254,26.879999999999995C40.67796610169491,26.591111111111108,41.69491525423729,26,42.71186440677966,26C43.728813559322035,26,44.7457627118644,26.613333333333333,45.762711864406775,26.613333333333333C46.77966101694915,26.613333333333333,47.79661016949152,26.155555555555555,48.813559322033896,25.653333333333332C49.83050847457627,25.15111111111111,50.847457627118644,24.035555555555558,51.86440677966102,23.6C52.88135593220339,23.164444444444445,53.898305084745765,23.168888888888887,54.91525423728814,22.946666666666665C55.93220338983051,22.724444444444444,56.94915254237288,22.72,57.96610169491525,22.266666666666666C58.983050847457626,21.813333333333333,59.99999999999999,20.715555555555554,61.01694915254237,20.2C62.03389830508474,19.68444444444444,63.05084745762712,19.593333333333334,64.0677966101695,19.173333333333332C65.08474576271186,18.753333333333334,66.10169491525424,18.057777777777776,67.11864406779661,17.68C68.13559322033899,17.30222222222222,69.15254237288136,17.135555555555555,70.16949152542374,16.906666666666666C71.1864406779661,16.677777777777777,72.20338983050848,16.548888888888886,73.22033898305085,16.306666666666665C74.23728813559322,16.064444444444444,75.2542372881356,15.604444444444443,76.27118644067797,15.453333333333333C77.28813559322033,15.302222222222223,78.30508474576271,15.311111111111112,79.32203389830508,15.226666666666668C80.33898305084746,15.142222222222225,81.35593220338983,15.104444444444448,82.37288135593221,14.946666666666669C83.38983050847457,14.788888888888891,84.40677966101696,14.464444444444444,85.42372881355932,14.28C86.4406779661017,14.095555555555555,87.45762711864407,14.011111111111111,88.47457627118645,13.84C89.49152542372882,13.668888888888889,90.50847457627118,13.253333333333334,91.52542372881355,13.253333333333334C92.54237288135593,13.253333333333334,93.55932203389831,13.306666666666667,94.57627118644069,13.306666666666667C95.59322033898306,13.306666666666667,96.61016949152543,12.813333333333333,97.62711864406779,12.666666666666666C98.64406779661016,12.519999999999998,99.66101694915254,12.426666666666666,100.6779661016949,12.426666666666666C101.69491525423729,12.426666666666666,102.71186440677965,12.426666666666666,103.72881355932203,12.426666666666666C104.7457627118644,12.426666666666666,105.76271186440678,12.131111111111109,106.77966101694915,11.866666666666665C107.79661016949153,11.60222222222222,108.8135593220339,10.84,109.83050847457628,10.84C110.84745762711864,10.84,111.86440677966102,10.937777777777779,112.88135593220339,11.120000000000001C113.89830508474576,11.302222222222223,114.91525423728814,11.933333333333334,115.9322033898305,11.933333333333334C116.94915254237289,11.933333333333334,117.96610169491525,11.826666666666664,118.98305084745763,11.826666666666664C120,11.826666666666664,121.01694915254237,12.071111111111112,122.03389830508473,12.173333333333334C123.05084745762711,12.275555555555558,124.0677966101695,12.395555555555557,125.08474576271188,12.440000000000001C126.10169491525424,12.484444444444444,127.11864406779662,12.486666666666666,128.135593220339,12.506666666666666C129.15254237288136,12.526666666666666,130.16949152542372,12.559999999999999,131.1864406779661,12.559999999999999C132.20338983050846,12.559999999999999,133.22033898305085,12.52,134.23728813559322,12.440000000000001C135.25423728813558,12.360000000000003,136.27118644067798,10.748888888888889,137.28813559322035,10.2C138.3050847457627,9.65111111111111,139.3220338983051,9.73333333333334,140.33898305084747,9.146666666666668C141.35593220338984,8.560000000000002,142.3728813559322,7.282222222222224,143.38983050847457,6.6800000000000015C144.40677966101694,6.077777777777774,145.42372881355934,5.728888888888889,146.4406779661017,5.533333333333332C147.45762711864407,5.337777777777777,148.47457627118644,5.375555555555555,149.4915254237288,5.24C150.50847457627117,5.104444444444445,151.52542372881356,4.97111111111111,152.54237288135593,4.72C153.5593220338983,4.468888888888889,154.5762711864407,3.733333333333335,155.59322033898306,3.733333333333335C156.61016949152543,3.733333333333335,157.6271186440678,3.800000000000002,158.64406779661016,3.9333333333333353C159.66101694915253,4.06666666666667,160.67796610169492,4.719999999999999,161.6949152542373,5.213333333333332C162.71186440677965,5.706666666666665,163.72881355932205,6.23333333333333,164.74576271186442,6.8933333333333335C165.76271186440678,7.553333333333331,166.77966101694915,8.391111111111114,167.79661016949152,9.173333333333332C168.81355932203388,9.955555555555557,169.83050847457628,11.02,170.84745762711864,11.586666666666666C171.864406779661,12.153333333333332,172.8813559322034,12.04888888888889,173.89830508474577,12.573333333333334C174.91525423728814,13.097777777777779,175.93220338983053,13.422222222222208,176.9491525423729,14.73333333333333C177.96610169491527,16.04444444444444,178.98305084745763,18.24222222222222,180,20.44L180,40C178.98305084745763,40,177.96610169491527,40,176.9491525423729,40C175.93220338983053,40,174.91525423728814,40,173.89830508474577,40C172.8813559322034,40,171.864406779661,40,170.84745762711864,40C169.83050847457628,40,168.81355932203388,40,167.79661016949152,40C166.77966101694915,40,165.76271186440678,40,164.74576271186442,40C163.72881355932205,40,162.71186440677965,40,161.6949152542373,40C160.67796610169492,40,159.66101694915253,40,158.64406779661016,40C157.6271186440678,40,156.61016949152543,40,155.59322033898306,40C154.5762711864407,40,153.5593220338983,40,152.54237288135593,40C151.52542372881356,40,150.50847457627117,40,149.4915254237288,40C148.47457627118644,40,147.45762711864407,40,146.4406779661017,40C145.42372881355934,40,144.40677966101694,40,143.38983050847457,40C142.3728813559322,40,141.35593220338984,40,140.33898305084747,40C139.3220338983051,40,138.3050847457627,40,137.28813559322035,40C136.27118644067798,40,135.25423728813558,40,134.23728813559322,40C133.22033898305085,40,132.20338983050846,40,131.1864406779661,40C130.16949152542372,40,129.15254237288136,40,128.135593220339,40C127.11864406779662,40,126.10169491525424,40,125.08474576271188,40C124.0677966101695,40,123.05084745762711,40,122.03389830508473,40C121.01694915254237,40,120,40,118.98305084745763,40C117.96610169491525,40,116.94915254237289,40,115.9322033898305,40C114.91525423728814,40,113.89830508474576,40,112.88135593220339,40C111.86440677966102,40,110.84745762711864,40,109.83050847457628,40C108.8135593220339,40,107.79661016949153,40,106.77966101694915,40C105.76271186440678,40,104.7457627118644,40,103.72881355932203,40C102.71186440677965,40,101.69491525423729,40,100.6779661016949,40C99.66101694915254,40,98.64406779661016,40,97.62711864406779,40C96.61016949152543,40,95.59322033898306,40,94.57627118644069,40C93.55932203389831,40,92.54237288135593,40,91.52542372881355,40C90.50847457627118,40,89.49152542372882,40,88.47457627118645,40C87.45762711864407,40,86.4406779661017,40,85.42372881355932,40C84.40677966101696,40,83.38983050847457,40,82.37288135593221,40C81.35593220338983,40,80.33898305084746,40,79.32203389830508,40C78.30508474576271,40,77.28813559322033,40,76.27118644067797,40C75.2542372881356,40,74.23728813559322,40,73.22033898305085,40C72.20338983050848,40,71.1864406779661,40,70.16949152542374,40C69.15254237288136,40,68.13559322033899,40,67.11864406779661,40C66.10169491525424,40,65.08474576271186,40,64.0677966101695,40C63.05084745762712,40,62.03389830508474,40,61.01694915254237,40C59.99999999999999,40,58.983050847457626,40,57.96610169491525,40C56.94915254237288,40,55.93220338983051,40,54.91525423728814,40C53.898305084745765,40,52.88135593220339,40,51.86440677966102,40C50.847457627118644,40,49.83050847457627,40,48.813559322033896,40C47.79661016949152,40,46.77966101694915,40,45.762711864406775,40C44.7457627118644,40,43.728813559322035,40,42.71186440677966,40C41.69491525423729,40,40.67796610169491,40,39.66101694915254,40C38.644067796610166,40,37.6271186440678,40,36.610169491525426,40C35.59322033898305,40,34.57627118644068,40,33.559322033898304,40C32.54237288135593,40,31.525423728813557,40,30.508474576271183,40C29.491525423728813,40,28.47457627118644,40,27.45762711864407,40C26.440677966101696,40,25.423728813559322,40,24.406779661016948,40C23.389830508474574,40,22.372881355932204,40,21.35593220338983,40C20.338983050847457,40,19.322033898305087,40,18.305084745762713,40C17.28813559322034,40,16.271186440677965,40,15.254237288135592,40C14.23728813559322,40,13.220338983050846,40,12.203389830508474,40C11.186440677966102,40,10.169491525423728,40,9.152542372881356,40C8.135593220338983,40,7.11864406779661,40,6.101694915254237,40C5.084745762711864,40,4.067796610169491,40,3.0508474576271185,40C2.0338983050847457,40,1.0169491525423728,40,0,40Z"></path><path class="line" stroke="black" fill="none" d="M0,37.906666666666666C1.0169491525423728,37.69555555555556,2.0338983050847457,37.48444444444444,3.0508474576271185,37.306666666666665C4.067796610169491,37.12888888888889,5.084745762711864,37.013333333333335,6.101694915254237,36.84C7.11864406779661,36.66666666666667,8.135593220338983,36.46222222222222,9.152542372881356,36.266666666666666C10.169491525423728,36.07111111111111,11.186440677966102,35.90222222222222,12.203389830508474,35.666666666666664C13.220338983050846,35.43111111111111,14.23728813559322,35.12444444444444,15.254237288135592,34.85333333333333C16.271186440677965,34.58222222222222,17.28813559322034,34.233333333333334,18.305084745762713,34.04C19.322033898305087,33.846666666666664,20.338983050847457,33.92444444444445,21.35593220338983,33.693333333333335C22.372881355932204,33.46222222222222,23.389830508474574,32.986666666666665,24.406779661016948,32.586666666666666C25.423728813559322,32.18666666666667,26.440677966101696,31.68,27.45762711864407,31.293333333333333C28.47457627118644,30.906666666666666,29.491525423728813,30.673333333333332,30.508474576271183,30.266666666666666C31.525423728813557,29.86,32.54237288135593,29.275555555555556,33.559322033898304,28.853333333333335C34.57627118644068,28.431111111111115,35.59322033898305,28.062222222222225,36.610169491525426,27.733333333333334C37.6271186440678,27.404444444444444,38.644067796610166,27.168888888888883,39.66101694915254,26.879999999999995C40.67796610169491,26.591111111111108,41.69491525423729,26,42.71186440677966,26C43.728813559322035,26,44.7457627118644,26.613333333333333,45.762711864406775,26.613333333333333C46.77966101694915,26.613333333333333,47.79661016949152,26.155555555555555,48.813559322033896,25.653333333333332C49.83050847457627,25.15111111111111,50.847457627118644,24.035555555555558,51.86440677966102,23.6C52.88135593220339,23.164444444444445,53.898305084745765,23.168888888888887,54.91525423728814,22.946666666666665C55.93220338983051,22.724444444444444,56.94915254237288,22.72,57.96610169491525,22.266666666666666C58.983050847457626,21.813333333333333,59.99999999999999,20.715555555555554,61.01694915254237,20.2C62.03389830508474,19.68444444444444,63.05084745762712,19.593333333333334,64.0677966101695,19.173333333333332C65.08474576271186,18.753333333333334,66.10169491525424,18.057777777777776,67.11864406779661,17.68C68.13559322033899,17.30222222222222,69.15254237288136,17.135555555555555,70.16949152542374,16.906666666666666C71.1864406779661,16.677777777777777,72.20338983050848,16.548888888888886,73.22033898305085,16.306666666666665C74.23728813559322,16.064444444444444,75.2542372881356,15.604444444444443,76.27118644067797,15.453333333333333C77.28813559322033,15.302222222222223,78.30508474576271,15.311111111111112,79.32203389830508,15.226666666666668C80.33898305084746,15.142222222222225,81.35593220338983,15.104444444444448,82.37288135593221,14.946666666666669C83.38983050847457,14.788888888888891,84.40677966101696,14.464444444444444,85.42372881355932,14.28C86.4406779661017,14.095555555555555,87.45762711864407,14.011111111111111,88.47457627118645,13.84C89.49152542372882,13.668888888888889,90.50847457627118,13.253333333333334,91.52542372881355,13.253333333333334C92.54237288135593,13.253333333333334,93.55932203389831,13.306666666666667,94.57627118644069,13.306666666666667C95.59322033898306,13.306666666666667,96.61016949152543,12.813333333333333,97.62711864406779,12.666666666666666C98.64406779661016,12.519999999999998,99.66101694915254,12.426666666666666,100.6779661016949,12.426666666666666C101.69491525423729,12.426666666666666,102.71186440677965,12.426666666666666,103.72881355932203,12.426666666666666C104.7457627118644,12.426666666666666,105.76271186440678,12.131111111111109,106.77966101694915,11.866666666666665C107.79661016949153,11.60222222222222,108.8135593220339,10.84,109.83050847457628,10.84C110.84745762711864,10.84,111.86440677966102,10.937777777777779,112.88135593220339,11.120000000000001C113.89830508474576,11.302222222222223,114.91525423728814,11.933333333333334,115.9322033898305,11.933333333333334C116.94915254237289,11.933333333333334,117.96610169491525,11.826666666666664,118.98305084745763,11.826666666666664C120,11.826666666666664,121.01694915254237,12.071111111111112,122.03389830508473,12.173333333333334C123.05084745762711,12.275555555555558,124.0677966101695,12.395555555555557,125.08474576271188,12.440000000000001C126.10169491525424,12.484444444444444,127.11864406779662,12.486666666666666,128.135593220339,12.506666666666666C129.15254237288136,12.526666666666666,130.16949152542372,12.559999999999999,131.1864406779661,12.559999999999999C132.20338983050846,12.559999999999999,133.22033898305085,12.52,134.23728813559322,12.440000000000001C135.25423728813558,12.360000000000003,136.27118644067798,10.748888888888889,137.28813559322035,10.2C138.3050847457627,9.65111111111111,139.3220338983051,9.73333333333334,140.33898305084747,9.146666666666668C141.35593220338984,8.560000000000002,142.3728813559322,7.282222222222224,143.38983050847457,6.6800000000000015C144.40677966101694,6.077777777777774,145.42372881355934,5.728888888888889,146.4406779661017,5.533333333333332C147.45762711864407,5.337777777777777,148.47457627118644,5.375555555555555,149.4915254237288,5.24C150.50847457627117,5.104444444444445,151.52542372881356,4.97111111111111,152.54237288135593,4.72C153.5593220338983,4.468888888888889,154.5762711864407,3.733333333333335,155.59322033898306,3.733333333333335C156.61016949152543,3.733333333333335,157.6271186440678,3.800000000000002,158.64406779661016,3.9333333333333353C159.66101694915253,4.06666666666667,160.67796610169492,4.719999999999999,161.6949152542373,5.213333333333332C162.71186440677965,5.706666666666665,163.72881355932205,6.23333333333333,164.74576271186442,6.8933333333333335C165.76271186440678,7.553333333333331,166.77966101694915,8.391111111111114,167.79661016949152,9.173333333333332C168.81355932203388,9.955555555555557,169.83050847457628,11.02,170.84745762711864,11.586666666666666C171.864406779661,12.153333333333332,172.8813559322034,12.04888888888889,173.89830508474577,12.573333333333334C174.91525423728814,13.097777777777779,175.93220338983053,13.422222222222208,176.9491525423729,14.73333333333333C177.96610169491527,16.04444444444444,178.98305084745763,18.24222222222222,180,20.44"></path><path class="axis-ceiling" stroke-width="1" stroke="black" fill="none" d="M175,0L180,0"></path><text class="axis-ceiling-label" font-family="sans-serif" text-anchor="end" font-size="10px" x="170" y="2.5">3000</text></g></svg>