<svg xmlns="http://www.w3.org/2000/svg" viewBox="0 0 180 60"><g transform="translate(0,20)"><path class="area" fill="rgba(0, 0, 0, 0.2)" d="M0,38.144C1.0344827586206897,38.20666666666666,2.068965517241379,38.269333333333336,3.103448275862069,38.4C4.137931034482759,38.53066666666666,5.172413793103448,38.928,6.206896551724138,38.928C7.241379310344827,38.928,8.275862068965516,37.744,9.310344827586206,37.744C10.344827586206897,37.744,11.379310344827585,38.128,12.413793103448276,38.128C13.448275862068966,38.128,14.482758620689655,38.128,15.517241379310345,38.128C16.551724137931036,38.128,17.586206896551722,38.4,18.620689655172413,38.4C19.655172413793103,38.4,20.689655172413794,37.872,21.724137931034484,37.872C22.758620689655174,37.872,23.79310344827586,38.38933333333333,24.82758620689655,38.656C25.862068965517242,38.922666666666665,26.896551724137932,39.472,27.931034482758623,39.472C28.965517241379313,39.472,30,37.456,31.03448275862069,37.456C32.06896551724138,37.456,33.103448275862064,38.064,34.137931034482754,38.128C35.172413793103445,38.192,36.206896551724135,38.2,37.241379310344826,38.224000000000004C38.275862068965516,38.248000000000005,39.310344827586206,38.24,40.3448275862069,38.272C41.37931034482759,38.303999999999995,42.41379310344828,38.592,43.44827586206897,38.592C44.48275862068966,38.592,45.51724137931035,38.272,46.55172413793104,38.272C47.58620689655173,38.272,48.62068965517241,39.296,49.6551724137931,39.296C50.689655172413794,39.296,51.72413793103448,38.14666666666667,52.75862068965517,37.744C53.79310344827586,37.34133333333333,54.827586206896555,36.88,55.862068965517246,36.88C56.896551724137936,36.88,57.93103448275862,37.552,58.96551724137931,37.552C60,37.552,61.03448275862069,37.35466666666667,62.06896551724138,37.344C63.10344827586207,37.333333333333336,64.13793103448276,37.33866666666667,65.17241379310344,37.328C66.20689655172413,37.31733333333334,67.24137931034483,37.28,68.27586206896551,37.28C69.3103448275862,37.28,70.34482758620689,38.272,71.37931034482759,38.272C72.41379310344827,38.272,73.44827586206897,32.656,74.48275862068965,32.656C75.51724137931033,32.656,76.55172413793103,32.944,77.58620689655172,32.944C78.62068965517241,32.944,79.6551724137931,32.845333333333336,80.6896551724138,32.736000000000004C81.72413793103448,32.62666666666667,82.75862068965517,32.58666666666667,83.79310344827586,32.288000000000004C84.82758620689656,31.989333333333335,85.86206896551724,30.677333333333337,86.89655172413794,30.560000000000002C87.93103448275862,30.442666666666668,88.96551724137932,30.384,90,30.384C91.0344827586207,30.384,92.06896551724138,35.424,93.10344827586208,35.424C94.13793103448276,35.424,95.17241379310344,24.223999999999997,96.20689655172413,23.360000000000003C97.24137931034483,22.496000000000002,98.27586206896551,22.064,99.3103448275862,22.064C100.3448275862069,22.064,101.37931034482759,24.112000000000002,102.41379310344828,24.112000000000002C103.44827586206897,24.112000000000002,104.48275862068965,20.431999999999995,105.51724137931033,20.431999999999995C106.55172413793103,20.431999999999995,107.58620689655172,20.66133333333333,108.62068965517241,21.12C109.65517241379311,21.57866666666667,110.6896551724138,22.06133333333333,111.72413793103449,23.216C112.75862068965517,24.37066666666667,113.79310344827587,27.77066666666667,114.82758620689656,28.048000000000002C115.86206896551724,28.325333333333333,116.89655172413794,28.464,117.93103448275862,28.464C118.96551724137932,28.464,120,17.605333333333338,121.0344827586207,14.016000000000002C122.06896551724138,10.426666666666684,123.10344827586208,6.928000000000001,124.13793103448276,6.928000000000001C125.17241379310344,6.928000000000001,126.20689655172414,14.533333333333328,127.24137931034483,14.895999999999997C128.27586206896552,15.258666666666667,129.3103448275862,15.440000000000001,130.3448275862069,15.440000000000001C131.3793103448276,15.440000000000001,132.41379310344828,5.855999999999999,133.44827586206898,5.855999999999999C134.48275862068965,5.855999999999999,135.51724137931035,19.456000000000003,136.55172413793102,19.456000000000003C137.58620689655172,19.456000000000003,138.6206896551724,17.86933333333335,139.6551724137931,15.872000000000002C140.6896551724138,13.87466666666667,141.72413793103448,9.789333333333332,142.75862068965517,7.471999999999999C143.79310344827587,5.154666666666666,144.82758620689654,1.9680000000000009,145.86206896551724,1.9680000000000009C146.89655172413794,1.9680000000000009,147.9310344827586,5.7573333333333405,148.9655172413793,7.679999999999998C150,9.602666666666673,151.0344827586207,13.504000000000001,152.0689655172414,13.504000000000001C153.10344827586206,13.504000000000001,154.13793103448276,3.5040000000000004,155.17241379310343,3.5040000000000004C156.20689655172413,3.5040000000000004,157.24137931034483,13.856000000000002,158.27586206896552,13.856000000000002C159.31034482758622,13.856000000000002,160.3448275862069,13.301333333333334,161.3793103448276,12.191999999999998C162.41379310344828,11.082666666666663,163.44827586206895,2.709333333333331,164.48275862068965,2.5919999999999987C165.51724137931035,2.4746666666666663,166.55172413793102,2.4693333333333336,167.58620689655172,2.4160000000000004C168.6206896551724,2.3626666666666667,169.6551724137931,2.2719999999999985,170.6896551724138,2.2719999999999985C171.7241379310345,2.2719999999999985,172.75862068965517,11.536,173.79310344827587,11.536C174.82758620689657,11.536,175.86206896551724,3.5199999999999987,176.89655172413794,3.5199999999999987C177.93103448275863,3.5199999999999987,178.9655172413793,6.288,180,9.056000000000001L180,40C178.9655172413793,40,177.93103448275863,40,176.89655172413794,40C175.86206896551724,40,174.82758620689657,40,173.79310344827587,40C172.75862068965517,40,171.7241379310345,40,170.6896551724138,40C169.6551724137931,40,168.6206896551724,40,167.58620689655172,40C166.55172413793102,40,165.51724137931035,40,164.48275862068965,40C163.44827586206895,40,162.41379310344828,40,161.3793103448276,40C160.3448275862069,40,159.31034482758622,40,158.27586206896552,40C157.24137931034483,40,156.20689655172413,40,155.17241379310343,40C154.13793103448276,40,153.10344827586206,40,152.0689655172414,40C151.0344827586207,40,150,40,148.9655172413793,40C147.9310344827586,40,146.89655172413794,40,145.86206896551724,40C144.82758620689654,40,143.79310344827587,40,142.75862068965517,40C141.72413793103448,40,140.6896551724138,40,139.6551724137931,40C138.6206896551724,40,137.58620689655172,40,136.55172413793102,40C135.51724137931035,40,134.48275862068965,40,133.44827586206898,40C132.41379310344828,40,131.3793103448276,40,130.3448275862069,40C129.3103448275862,40,128.27586206896552,40,127.24137931034483,40C126.20689655172414,40,125.17241379310344,40,124.13793103448276,40C123.10344827586208,40,122.06896551724138,40,121.0344827586207,40C120,40,118.96551724137932,40,117.93103448275862,40C116.89655172413794,40,115.86206896551724,40,114.82758620689656,40C113.79310344827587,40,112.75862068965517,40,111.72413793103449,40C110.6896551724138,40,109.65517241379311,40,108.62068965517241,40C107.58620689655172,40,106.55172413793103,40,105.51724137931033,40C104.48275862068965,40,103.44827586206897,40,102.41379310344828,40C101.37931034482759,40,100.3448275862069,40,99.3103448275862,40C98.27586206896551,40,97.24137931034483,40,96.20689655172413,40C95.17241379310344,40,94.13793103448276,40,93.10344827586208,40C92.06896551724138,40,91.0344827586207,40,90,40C88.96551724137932,40,87.93103448275862,40,86.89655172413794,40C85.86206896551724,40,84.82758620689656,40,83.79310344827586,40C82.75862068965517,40,81.72413793103448,40,80.6896551724138,40C79.6551724137931,40,78.62068965517241,40,77.58620689655172,40C76.55172413793103,40,75.51724137931033,40,74.48275862068965,40C73.44827586206897,40,72.41379310344827,40,71.37931034482759,40C70.34482758620689,40,69.3103448275862,40,68.27586206896551,40C67.24137931034483,40,66.20689655172413,40,65.17241379310344,40C64.13793103448276,40,63.10344827586207,40,62.06896551724138,40C61.03448275862069,40,60,40,58.96551724137931,40C57.93103448275862,40,56.896551724137936,40,55.862068965517246,40C54.827586206896555,40,53.79310344827586,40,52.75862068965517,40C51.72413793103448,40,50.689655172413794,40,49.6551724137931,40C48.62068965517241,40,47.58620689655173,40,46.55172413793104,40C45.51724137931035,40,44.48275862068966,40,43.44827586206897,40C42.41379310344828,40,41.37931034482759,40,40.3448275862069,40C39.310344827586206,40,38.275862068965516,40,37.241379310344826,40C36.206896551724135,40,35.172413793103445,40,34.137931034482754,40C33.103448275862064,40,32.06896551724138,40,31.03448275862069,40C30,40,28.965517241379313,40,27.931034482758623,40C26.896551724137932,40,25.862068965517242,40,24.82758620689655,40C23.79310344827586,40,22.758620689655174,40,21.724137931034484,40C20.689655172413794,40,19.655172413793103,40,18.620689655172413,40C17.586206896551722,40,16.551724137931036,40,15.517241379310345,40C14.482758620689655,40,13.448275862068966,40,12.413793103448276,40C11.379310344827585,40,10.344827586206897,40,9.310344827586206,40C8.275862068965516,40,7.241379310344827,40,6.206896551724138,40C5.172413793103448,40,4.137931034482759,40,3.103448275862069,40C2.068965517241379,40,1.0344827586206897,40,0,40Z"></path><path class="line" stroke="black" fill="none" d="M0,38.144C1.0344827586206897,38.20666666666666,2.068965517241379,38.269333333333336,3.103448275862069,38.4C4.137931034482759,38.53066666666666,5.172413793103448,38.928,6.206896551724138,38.928C7.241379310344827,38.928,8.275862068965516,37.744,9.310344827586206,37.744C10.344827586206897,37.744,11.379310344827585,38.128,12.413793103448276,38.128C13.448275862068966,38.128,14.482758620689655,38.128,15.517241379310345,38.128C16.551724137931036,38.128,17.586206896551722,38.4,18.620689655172413,38.4C19.655172413793103,38.4,20.689655172413794,37.872,21.724137931034484,37.872C22.758620689655174,37.872,23.79310344827586,38.38933333333333,24.82758620689655,38.656C25.862068965517242,38.922666666666665,26.896551724137932,39.472,27.931034482758623,39.472C28.965517241379313,39.472,30,37.456,31.03448275862069,37.456C32.06896551724138,37.456,33.103448275862064,38.064,34.137931034482754,38.128C35.172413793103445,38.192,36.206896551724135,38.2,37.241379310344826,38.224000000000004C38.275862068965516,38.248000000000005,39.310344827586206,38.24,40.3448275862069,38.272C41.37931034482759,38.303999999999995,42.41379310344828,38.592,43.44827586206897,38.592C44.48275862068966,38.592,45.51724137931035,38.272,46.55172413793104,38.272C47.58620689655173,38.272,48.62068965517241,39.296,49.6551724137931,39.296C50.689655172413794,39.296,51.72413793103448,38.14666666666667,52.75862068965517,37.744C53.79310344827586,37.34133333333333,54.827586206896555,36.88,55.862068965517246,36.88C56.896551724137936,36.88,57.93103448275862,37.552,58.96551724137931,37.552C60,37.552,61.03448275862069,37.35466666666667,62.06896551724138,37.344C63.10344827586207,37.333333333333336,64.13793103448276,37.33866666666667,65.17241379310344,37.328C66.20689655172413,37.31733333333334,67.24137931034483,37.28,68.27586206896551,37.28C69.3103448275862,37.28,70.34482758620689,38.272,71.37931034482759,38.272C72.41379310344827,38.272,73.44827586206897,32.656,74.48275862068965,32.656C75.51724137931033,32.656,76.55172413793103,32.944,77.58620689655172,32.944C78.62068965517241,32.944,79.6551724137931,32.845333333333336,80.6896551724138,32.736000000000004C81.72413793103448,32.62666666666667,82.75862068965517,32.58666666666667,83.79310344827586,32.288000000000004C84.82758620689656,31.989333333333335,85.86206896551724,30.677333333333337,86.89655172413794,30.560000000000002C87.93103448275862,30.442666666666668,88.96551724137932,30.384,90,30.384C91.0344827586207,30.384,92.06896551724138,35.424,93.10344827586208,35.424C94.13793103448276,35.424,95.17241379310344,24.223999999999997,96.20689655172413,23.360000000000003C97.24137931034483,22.496000000000002,98.27586206896551,22.064,99.3103448275862,22.064C100.3448275862069,22.064,101.37931034482759,24.112000000000002,102.41379310344828,24.112000000000002C103.44827586206897,24.112000000000002,104.48275862068965,20.431999999999995,105.51724137931033,20.431999999999995C106.55172413793103,20.431999999999995,107.58620689655172,20.66133333333333,108.62068965517241,21.12C109.65517241379311,21.57866666666667,110.6896551724138,22.06133333333333,111.72413793103449,23.216C112.75862068965517,24.37066666666667,113.79310344827587,27.77066666666667,114.82758620689656,28.048000000000002C115.86206896551724,28.325333333333333,116.89655172413794,28.464,117.93103448275862,28.464C118.96551724137932,28.464,120,17.605333333333338,121.0344827586207,14.016000000000002C122.06896551724138,10.426666666666684,123.10344827586208,6.928000000000001,124.13793103448276,6.928000000000001C125.17241379310344,6.928000000000001,126.20689655172414,14.533333333333328,127.24137931034483,14.895999999999997C128.27586206896552,15.258666666666667,129.3103448275862,15.440000000000001,130.3448275862069,15.440000000000001C131.3793103448276,15.440000000000001,132.41379310344828,5.855999999999999,133.44827586206898,5.855999999999999C134.48275862068965,5.855999999999999,135.51724137931035,19.456000000000003,136.55172413793102,19.456000000000003C137.58620689655172,19.456000000000003,138.6206896551724,17.86933333333335,139.6551724137931,15.872000000000002C140.6896551724138,13.87466666666667,141.72413793103448,9.789333333333332,142.75862068965517,7.471999999999999C143.79310344827587,5.154666666666666,144.82758620689654,1.9680000000000009,145.86206896551724,1.9680000000000009C146.89655172413794,1.9680000000000009,147.9310344827586,5.7573333333333405,148.9655172413793,7.679999999999998C150,9.602666666666673,151.0344827586207,13.504000000000001,152.0689655172414,13.504000000000001C153.10344827586206,13.504000000000001,154.13793103448276,3.5040000000000004,155.17241379310343,3.5040000000000004C156.20689655172413,3.5040000000000004,157.24137931034483,13.856000000000002,158.27586206896552,13.856000000000002C159.31034482758622,13.856000000000002,160.3448275862069,13.301333333333334,161.3793103448276,12.191999999999998C162.41379310344828,11.082666666666663,163.44827586206895,2.709333333333331,164.48275862068965,2.5919999999999987C165.51724137931035,2.4746666666666663,166.55172413793102,2.4693333333333336,167.58620689655172,2.4160000000000004C168.6206896551724,2.3626666666666667,169.6551724137931,2.2719999999999985,170.6896551724138,2.2719999999999985C171.7241379310345,2.2719999999999985,172.75862068965517,11.536,173.79310344827587,11.536C174.82758620689657,11.536,175.86206896551724,3.5199999999999987,176.89655172413794,3.5199999999999987C177.93103448275863,3.5199999999999987,178.9655172413793,6.288,180,9.056000000000001"></path><path class="axis-ceiling" stroke-width="1" stroke="black" fill="none" d="M175,0L180,0"></path><text class="axis-ceiling-label" font-family="sans-serif" text-anchor="end" font-size="10px" x="170" y="2.5">2500</text></g></svg>