<svg xmlns="http://www.w3.org/2000/svg" viewBox="0 0 180 60"><g transform="translate(0,20)"><path class="area" fill="rgba(0, 0, 0, 0.2)" d="M0,14.222222222222221C1.0169491525423728,13.777777777777779,2.0338983050847457,13.333333333333336,3.0508474576271185,13.333333333333336C4.067796610169491,13.333333333333336,5.084745762711864,13.333333333333336,6.101694915254237,13.333333333333336C7.11864406779661,13.333333333333336,8.135593220338983,13.333333333333336,9.152542372881356,13.333333333333336C10.169491525423728,13.333333333333336,11.186440677966102,11.555555555555554,12.203389830508474,11.555555555555554C13.220338983050846,11.555555555555554,14.23728813559322,12.444444444444445,15.254237288135592,12.444444444444445C16.271186440677965,12.444444444444445,17.28813559322034,11.555555555555554,18.305084745762713,11.555555555555554C19.322033898305087,11.555555555555554,20.338983050847457,11.555555555555554,21.35593220338983,11.555555555555554C22.372881355932204,11.555555555555554,23.389830508474574,9.777777777777779,24.406779661016948,9.777777777777779C25.423728813559322,9.777777777777779,26.440677966101696,9.777777777777779,27.45762711864407,9.777777777777779C28.47457627118644,9.777777777777779,29.491525423728813,10.074074074074074,30.508474576271183,10.666666666666668C31.525423728813557,11.259259259259261,32.54237288135593,14.222222222222221,33.559322033898304,14.222222222222221C34.57627118644068,14.222222222222221,35.59322033898305,14.222222222222221,36.610169491525426,14.222222222222221C37.6271186440678,14.222222222222221,38.644067796610166,16.88888888888889,39.66101694915254,17.77777777777778C40.67796610169491,18.666666666666668,41.69491525423729,19.555555555555557,42.71186440677966,19.555555555555557C43.728813559322035,19.555555555555557,44.7457627118644,19.555555555555557,45.762711864406775,19.555555555555557C46.77966101694915,19.555555555555557,47.79661016949152,16,48.813559322033896,16C49.83050847457627,16,50.847457627118644,16.888888888888893,51.86440677966102,16.888888888888893C52.88135593220339,16.888888888888893,53.898305084745765,16,54.91525423728814,16C55.93220338983051,16,56.94915254237288,17.77777777777778,57.96610169491525,17.77777777777778C58.983050847457626,17.77777777777778,59.99999999999999,16.888888888888886,61.01694915254237,16C62.03389830508474,15.11111111111111,63.05084745762712,13.333333333333334,64.0677966101695,12.444444444444445C65.08474576271186,11.555555555555559,66.10169491525424,10.666666666666668,67.11864406779661,10.666666666666668C68.13559322033899,10.666666666666668,69.15254237288136,14.222222222222221,70.16949152542374,14.222222222222221C71.1864406779661,14.222222222222221,72.20338983050848,10.962962962962964,73.22033898305085,9.777777777777779C74.23728813559322,8.592592592592593,75.2542372881356,8.148148148148149,76.27118644067797,7.1111111111111125C77.28813559322033,6.074074074074075,78.30508474576271,4.148148148148147,79.32203389830508,3.5555555555555562C80.33898305084746,2.962962962962963,81.35593220338983,2.666666666666666,82.37288135593221,2.666666666666666C83.38983050847457,2.666666666666666,84.40677966101696,4.444444444444446,85.42372881355932,4.444444444444446C86.4406779661017,4.444444444444446,87.45762711864407,4.444444444444446,88.47457627118645,4.444444444444446C89.49152542372882,4.444444444444446,90.50847457627118,5.481481481481489,91.52542372881355,6.222222222222222C92.54237288135593,6.9629629629629655,93.55932203389831,8.148148148148145,94.57627118644069,8.88888888888889C95.59322033898306,9.629629629629623,96.61016949152543,9.777777777777782,97.62711864406779,10.666666666666668C98.64406779661016,11.555555555555557,99.66101694915254,14.222222222222221,100.6779661016949,14.222222222222221C101.69491525423729,14.222222222222221,102.71186440677965,14.222222222222221,103.72881355932203,14.222222222222221C104.7457627118644,14.222222222222221,105.76271186440678,15.11111111111111,106.77966101694915,15.11111111111111C107.79661016949153,15.11111111111111,108.8135593220339,15.11111111111111,109.83050847457628,15.11111111111111C110.84745762711864,15.11111111111111,111.86440677966102,14.222222222222221,112.88135593220339,14.222222222222221C113.89830508474576,14.222222222222221,114.91525423728814,14.222222222222221,115.9322033898305,14.222222222222221C116.94915254237289,14.222222222222221,117.96610169491525,16,118.98305084745763,16C120,16,121.01694915254237,16,122.03389830508473,16C123.05084745762711,16,124.0677966101695,17.185185185185183,125.08474576271188,17.77777777777778C126.10169491525424,18.37037037037037,127.11864406779662,18.962962962962962,128.135593220339,19.555555555555557C129.15254237288136,20.14814814814815,130.16949152542372,20.740740740740744,131.1864406779661,21.333333333333332C132.20338983050846,21.925925925925927,133.22033898305085,23.111111111111107,134.23728813559322,23.111111111111107C135.25423728813558,23.111111111111107,136.27118644067798,23.111111111111107,137.28813559322035,23.111111111111107C138.3050847457627,23.111111111111107,139.3220338983051,23.703703703703702,140.33898305084747,24C141.35593220338984,24.296296296296294,142.3728813559322,24.592592592592595,143.38983050847457,24.88888888888889C144.40677966101694,25.185185185185187,145.42372881355934,25.481481481481477,146.4406779661017,25.777777777777775C147.45762711864407,26.07407407407407,148.47457627118644,26.370370370370377,149.4915254237288,26.66666666666667C150.50847457627117,26.96296296296297,151.52542372881356,27.25925925925926,152.54237288135593,27.555555555555557C153.5593220338983,27.851851851851855,154.5762711864407,27.851851851851855,155.59322033898306,28.444444444444446C156.61016949152543,29.037037037037035,157.6271186440678,30.518518518518523,158.64406779661016,31.11111111111111C159.66101694915253,31.703703703703702,160.67796610169492,32,161.6949152542373,32C162.71186440677965,32,163.72881355932205,32,164.74576271186442,32C165.76271186440678,32,166.77966101694915,32,167.79661016949152,32C168.81355932203388,32,169.83050847457628,32,170.84745762711864,32C171.864406779661,32,172.8813559322034,32,173.89830508474577,32C174.91525423728814,32,175.93220338983053,32,176.9491525423729,32C177.96610169491527,32,178.98305084745763,32.44444444444444,180,32.888888888888886L180,40C178.98305084745763,40,177.96610169491527,40,176.9491525423729,40C175.93220338983053,40,174.91525423728814,40,173.89830508474577,40C172.8813559322034,40,171.864406779661,40,170.84745762711864,40C169.83050847457628,40,168.81355932203388,40,167.79661016949152,40C166.77966101694915,40,165.76271186440678,40,164.74576271186442,40C163.72881355932205,40,162.71186440677965,40,161.6949152542373,40C160.67796610169492,40,159.66101694915253,40,158.64406779661016,40C157.6271186440678,40,156.61016949152543,40,155.59322033898306,40C154.5762711864407,40,153.5593220338983,40,152.54237288135593,40C151.52542372881356,40,150.50847457627117,40,149.4915254237288,40C148.47457627118644,40,147.45762711864407,40,146.4406779661017,40C145.42372881355934,40,144.40677966101694,40,143.38983050847457,40C142.3728813559322,40,141.35593220338984,40,140.33898305084747,40C139.3220338983051,40,138.3050847457627,40,137.28813559322035,40C136.27118644067798,40,135.25423728813558,40,134.23728813559322,40C133.22033898305085,40,132.20338983050846,40,131.1864406779661,40C130.16949152542372,40,129.15254237288136,40,128.135593220339,40C127.11864406779662,40,126.10169491525424,40,125.08474576271188,40C124.0677966101695,40,123.05084745762711,40,122.03389830508473,40C121.01694915254237,40,120,40,118.98305084745763,40C117.96610169491525,40,116.94915254237289,40,115.9322033898305,40C114.91525423728814,40,113.89830508474576,40,112.88135593220339,40C111.86440677966102,40,110.84745762711864,40,109.83050847457628,40C108.8135593220339,40,107.79661016949153,40,106.77966101694915,40C105.76271186440678,40,104.7457627118644,40,103.72881355932203,40C102.71186440677965,40,101.69491525423729,40,100.6779661016949,40C99.66101694915254,40,98.64406779661016,40,97.62711864406779,40C96.61016949152543,40,95.59322033898306,40,94.57627118644069,40C93.55932203389831,40,92.54237288135593,40,91.52542372881355,40C90.50847457627118,40,89.49152542372882,40,88.47457627118645,40C87.45762711864407,40,86.4406779661017,40,85.42372881355932,40C84.40677966101696,40,83.38983050847457,40,82.37288135593221,40C81.35593220338983,40,80.33898305084746,40,79.32203389830508,40C78.30508474576271,40,77.28813559322033,40,76.27118644067797,40C75.2542372881356,40,74.23728813559322,40,73.22033898305085,40C72.20338983050848,40,71.1864406779661,40,70.16949152542374,40C69.15254237288136,40,68.13559322033899,40,67.11864406779661,40C66.10169491525424,40,65.08474576271186,40,64.0677966101695,40C63.05084745762712,40,62.03389830508474,40,61.01694915254237,40C59.99999999999999,40,58.983050847457626,40,57.96610169491525,40C56.94915254237288,40,55.93220338983051,40,54.91525423728814,40C53.898305084745765,40,52.88135593220339,40,51.86440677966102,40C50.847457627118644,40,49.83050847457627,40,48.813559322033896,40C47.79661016949152,40,46.77966101694915,40,45.762711864406775,40C44.7457627118644,40,43.728813559322035,40,42.71186440677966,40C41.69491525423729,40,40.67796610169491,40,39.66101694915254,40C38.644067796610166,40,37.6271186440678,40,36.610169491525426,40C35.59322033898305,40,34.57627118644068,40,33.559322033898304,40C32.54237288135593,40,31.525423728813557,40,30.508474576271183,40C29.491525423728813,40,28.47457627118644,40,27.45762711864407,40C26.440677966101696,40,25.423728813559322,40,24.406779661016948,40C23.389830508474574,40,22.372881355932204,40,21.35593220338983,40C20.338983050847457,40,19.322033898305087,40,18.305084745762713,40C17.28813559322034,40,16.271186440677965,40,15.254237288135592,40C14.23728813559322,40,13.220338983050846,40,12.203389830508474,40C11.186440677966102,40,10.169491525423728,40,9.152542372881356,40C8.135593220338983,40,7.11864406779661,40,6.101694915254237,40C5.084745762711864,40,4.067796610169491,40,3.0508474576271185,40C2.0338983050847457,40,1.0169491525423728,40,0,40Z"></path><path class="line" stroke="black" fill="none" d="M0,14.222222222222221C1.0169491525423728,13.777777777777779,2.0338983050847457,13.333333333333336,3.0508474576271185,13.333333333333336C4.067796610169491,13.333333333333336,5.084745762711864,13.333333333333336,6.101694915254237,13.333333333333336C7.11864406779661,13.333333333333336,8.135593220338983,13.333333333333336,9.152542372881356,13.333333333333336C10.169491525423728,13.333333333333336,11.186440677966102,11.555555555555554,12.203389830508474,11.555555555555554C13.220338983050846,11.555555555555554,14.23728813559322,12.444444444444445,15.254237288135592,12.444444444444445C16.271186440677965,12.444444444444445,17.28813559322034,11.555555555555554,18.305084745762713,11.555555555555554C19.322033898305087,11.555555555555554,20.338983050847457,11.555555555555554,21.35593220338983,11.555555555555554C22.372881355932204,11.555555555555554,23.389830508474574,9.777777777777779,24.406779661016948,9.777777777777779C25.423728813559322,9.777777777777779,26.440677966101696,9.777777777777779,27.45762711864407,9.777777777777779C28.47457627118644,9.777777777777779,29.491525423728813,10.074074074074074,30.508474576271183,10.666666666666668C31.525423728813557,11.259259259259261,32.54237288135593,14.222222222222221,33.559322033898304,14.222222222222221C34.57627118644068,14.222222222222221,35.59322033898305,14.222222222222221,36.610169491525426,14.222222222222221C37.6271186440678,14.222222222222221,38.644067796610166,16.88888888888889,39.66101694915254,17.77777777777778C40.67796610169491,18.666666666666668,41.69491525423729,19.555555555555557,42.71186440677966,19.555555555555557C43.728813559322035,19.555555555555557,44.7457627118644,19.555555555555557,45.762711864406775,19.555555555555557C46.77966101694915,19.555555555555557,47.79661016949152,16,48.813559322033896,16C49.83050847457627,16,50.847457627118644,16.888888888888893,51.86440677966102,16.888888888888893C52.88135593220339,16.888888888888893,53.898305084745765,16,54.91525423728814,16C55.93220338983051,16,56.94915254237288,17.77777777777778,57.96610169491525,17.77777777777778C58.983050847457626,17.77777777777778,59.99999999999999,16.888888888888886,61.01694915254237,16C62.03389830508474,15.11111111111111,63.05084745762712,13.333333333333334,64.0677966101695,12.444444444444445C65.08474576271186,11.555555555555559,66.10169491525424,10.666666666666668,67.11864406779661,10.666666666666668C68.13559322033899,10.666666666666668,69.15254237288136,14.222222222222221,70.16949152542374,14.222222222222221C71.1864406779661,14.222222222222221,72.20338983050848,10.962962962962964,73.22033898305085,9.777777777777779C74.23728813559322,8.592592592592593,75.2542372881356,8.148148148148149,76.27118644067797,7.1111111111111125C77.28813559322033,6.074074074074075,78.30508474576271,4.148148148148147,79.32203389830508,3.5555555555555562C80.33898305084746,2.962962962962963,81.35593220338983,2.666666666666666,82.37288135593221,2.666666666666666C83.38983050847457,2.666666666666666,84.40677966101696,4.444444444444446,85.42372881355932,4.444444444444446C86.4406779661017,4.444444444444446,87.45762711864407,4.444444444444446,88.47457627118645,4.444444444444446C89.49152542372882,4.444444444444446,90.50847457627118,5.481481481481489,91.52542372881355,6.222222222222222C92.54237288135593,6.9629629629629655,93.55932203389831,8.148148148148145,94.57627118644069,8.88888888888889C95.59322033898306,9.629629629629623,96.61016949152543,9.777777777777782,97.62711864406779,10.666666666666668C98.64406779661016,11.555555555555557,99.66101694915254,14.222222222222221,100.6779661016949,14.222222222222221C101.69491525423729,14.222222222222221,102.71186440677965,14.222222222222221,103.72881355932203,14.222222222222221C104.7457627118644,14.222222222222221,105.76271186440678,15.11111111111111,106.77966101694915,15.11111111111111C107.79661016949153,15.11111111111111,108.8135593220339,15.11111111111111,109.83050847457628,15.11111111111111C110.84745762711864,15.11111111111111,111.86440677966102,14.222222222222221,112.88135593220339,14.222222222222221C113.89830508474576,14.222222222222221,114.91525423728814,14.222222222222221,115.9322033898305,14.222222222222221C116.94915254237289,14.222222222222221,117.96610169491525,16,118.98305084745763,16C120,16,121.01694915254237,16,122.03389830508473,16C123.05084745762711,16,124.0677966101695,17.185185185185183,125.08474576271188,17.77777777777778C126.10169491525424,18.37037037037037,127.11864406779662,18.962962962962962,128.135593220339,19.555555555555557C129.15254237288136,20.14814814814815,130.16949152542372,20.740740740740744,131.1864406779661,21.333333333333332C132.20338983050846,21.925925925925927,133.22033898305085,23.111111111111107,134.23728813559322,23.111111111111107C135.25423728813558,23.111111111111107,136.27118644067798,23.111111111111107,137.28813559322035,23.111111111111107C138.3050847457627,23.111111111111107,139.3220338983051,23.703703703703702,140.33898305084747,24C141.35593220338984,24.296296296296294,142.3728813559322,24.592592592592595,143.38983050847457,24.88888888888889C144.40677966101694,25.185185185185187,145.42372881355934,25.481481481481477,146.4406779661017,25.777777777777775C147.45762711864407,26.07407407407407,148.47457627118644,26.370370370370377,149.4915254237288,26.66666666666667C150.50847457627117,26.96296296296297,151.52542372881356,27.25925925925926,152.54237288135593,27.555555555555557C153.5593220338983,27.851851851851855,154.5762711864407,27.851851851851855,155.59322033898306,28.444444444444446C156.61016949152543,29.037037037037035,157.6271186440678,30.518518518518523,158.64406779661016,31.11111111111111C159.66101694915253,31.703703703703702,160.67796610169492,32,161.6949152542373,32C162.71186440677965,32,163.72881355932205,32,164.74576271186442,32C165.76271186440678,32,166.77966101694915,32,167.79661016949152,32C168.81355932203388,32,169.83050847457628,32,170.84745762711864,32C171.864406779661,32,172.8813559322034,32,173.89830508474577,32C174.91525423728814,32,175.93220338983053,32,176.9491525423729,32C177.96610169491527,32,178.98305084745763,32.44444444444444,180,32.888888888888886"></path><path class="axis-ceiling" stroke-width="1" stroke="black" fill="none" d="M175,0L180,0"></path><text class="axis-ceiling-label" font-family="sans-serif" text-anchor="end" font-size="10px" x="170" y="2.5">45</text></g></svg>