<svg xmlns="http://www.w3.org/2000/svg" viewBox="0 0 180 60"><g transform="translate(0,20)"><path class="area" fill="rgba(0, 0, 0, 0.2)" d="M0,39.76C1.0169491525423728,39.8,2.0338983050847457,39.84,3.0508474576271185,39.84C4.067796610169491,39.84,5.084745762711864,39.84,6.101694915254237,39.84C7.11864406779661,39.84,8.135593220338983,39.84,9.152542372881356,39.84C10.169491525423728,39.84,11.186440677966102,39.84,12.203389830508474,39.84C13.220338983050846,39.84,14.23728813559322,39.84,15.254237288135592,39.84C16.271186440677965,39.84,17.28813559322034,39.84,18.305084745762713,39.84C19.322033898305087,39.84,20.338983050847457,39.75333333333333,21.35593220338983,39.72C22.372881355932204,39.68666666666667,23.389830508474574,39.64,24.406779661016948,39.64C25.423728813559322,39.64,26.440677966101696,39.64,27.45762711864407,39.64C28.47457627118644,39.64,29.491525423728813,39.64,30.508474576271183,39.64C31.525423728813557,39.64,32.54237288135593,39.68,33.559322033898304,39.68C34.57627118644068,39.68,35.59322033898305,39.68,36.610169491525426,39.68C37.6271186440678,39.68,38.644067796610166,39.66,39.66101694915254,39.64C40.67796610169491,39.62,41.69491525423729,39.61333333333334,42.71186440677966,39.56C43.728813559322035,39.50666666666667,44.7457627118644,39.38666666666667,45.762711864406775,39.24C46.77966101694915,39.093333333333334,47.79661016949152,38.846666666666664,48.813559322033896,38.68C49.83050847457627,38.513333333333335,50.847457627118644,38.379999999999995,51.86440677966102,38.239999999999995C52.88135593220339,38.099999999999994,53.898305084745765,37.959999999999994,54.91525423728814,37.839999999999996C55.93220338983051,37.72,56.94915254237288,37.68666666666666,57.96610169491525,37.519999999999996C58.983050847457626,37.35333333333333,59.99999999999999,37.13333333333333,61.01694915254237,36.84C62.03389830508474,36.54666666666667,63.05084745762712,36.06,64.0677966101695,35.76C65.08474576271186,35.46,66.10169491525424,35.33333333333333,67.11864406779661,35.04C68.13559322033899,34.74666666666666,69.15254237288136,34.346666666666664,70.16949152542374,34C71.1864406779661,33.653333333333336,72.20338983050848,33.27333333333333,73.22033898305085,32.96C74.23728813559322,32.64666666666667,75.2542372881356,32.46666666666666,76.27118644067797,32.12C77.28813559322033,31.77333333333333,78.30508474576271,31.380000000000003,79.32203389830508,30.880000000000003C80.33898305084746,30.380000000000003,81.35593220338983,29.653333333333332,82.37288135593221,29.119999999999997C83.38983050847457,28.586666666666666,84.40677966101696,28.179999999999996,85.42372881355932,27.68C86.4406779661017,27.18,87.45762711864407,26.580000000000002,88.47457627118645,26.12C89.49152542372882,25.660000000000004,90.50847457627118,25.253333333333334,91.52542372881355,24.92C92.54237288135593,24.586666666666666,93.55932203389831,24.406666666666666,94.57627118644069,24.119999999999997C95.59322033898306,23.833333333333332,96.61016949152543,23.5,97.62711864406779,23.200000000000003C98.64406779661016,22.900000000000002,99.66101694915254,22.64,100.6779661016949,22.32C101.69491525423729,22,102.71186440677965,21.593333333333334,103.72881355932203,21.28C104.7457627118644,20.96666666666667,105.76271186440678,20.653333333333336,106.77966101694915,20.44C107.79661016949153,20.226666666666667,108.8135593220339,20,109.83050847457628,20C110.84745762711864,20,111.86440677966102,20.04,112.88135593220339,20.04C113.89830508474576,20.04,114.91525423728814,19.759999999999998,115.9322033898305,19.759999999999998C116.94915254237289,19.759999999999998,117.96610169491525,20.246666666666666,118.98305084745763,20.44C120,20.633333333333333,121.01694915254237,20.92,122.03389830508473,20.92C123.05084745762711,20.92,124.0677966101695,20.48,125.08474576271188,20.48C126.10169491525424,20.48,127.11864406779662,20.626666666666665,128.135593220339,20.72C129.15254237288136,20.813333333333333,130.16949152542372,21.04,131.1864406779661,21.04C132.20338983050846,21.04,133.22033898305085,20.64,134.23728813559322,20.64C135.25423728813558,20.64,136.27118644067798,21.12,137.28813559322035,21.12C138.3050847457627,21.12,139.3220338983051,20.873333333333335,140.33898305084747,20.76C141.35593220338984,20.64666666666667,142.3728813559322,20.44,143.38983050847457,20.44C144.40677966101694,20.44,145.42372881355934,20.813333333333336,146.4406779661017,20.92C147.45762711864407,21.026666666666667,148.47457627118644,21.080000000000002,149.4915254237288,21.080000000000002C150.50847457627117,21.080000000000002,151.52542372881356,20.44,152.54237288135593,20.44C153.5593220338983,20.44,154.5762711864407,21.333333333333332,155.59322033898306,21.44C156.61016949152543,21.546666666666667,157.6271186440678,21.6,158.64406779661016,21.6C159.66101694915253,21.6,160.67796610169492,21.3,161.6949152542373,21.16C162.71186440677965,21.02,163.72881355932205,20.76,164.74576271186442,20.76C165.76271186440678,20.76,166.77966101694915,20.76,167.79661016949152,20.76C168.81355932203388,20.76,169.83050847457628,20.76,170.84745762711864,20.76C171.864406779661,20.76,172.8813559322034,21.200000000000003,173.89830508474577,21.200000000000003C174.91525423728814,21.200000000000003,175.93220338983053,20.560000000000002,176.9491525423729,20.560000000000002C177.96610169491527,20.560000000000002,178.98305084745763,21.560000000000002,180,22.560000000000002L180,40C178.98305084745763,40,177.96610169491527,40,176.9491525423729,40C175.93220338983053,40,174.91525423728814,40,173.89830508474577,40C172.8813559322034,40,171.864406779661,40,170.84745762711864,40C169.83050847457628,40,168.81355932203388,40,167.79661016949152,40C166.77966101694915,40,165.76271186440678,40,164.74576271186442,40C163.72881355932205,40,162.71186440677965,40,161.6949152542373,40C160.67796610169492,40,159.66101694915253,40,158.64406779661016,40C157.6271186440678,40,156.61016949152543,40,155.59322033898306,40C154.5762711864407,40,153.5593220338983,40,152.54237288135593,40C151.52542372881356,40,150.50847457627117,40,149.4915254237288,40C148.47457627118644,40,147.45762711864407,40,146.4406779661017,40C145.42372881355934,40,144.40677966101694,40,143.38983050847457,40C142.3728813559322,40,141.35593220338984,40,140.33898305084747,40C139.3220338983051,40,138.3050847457627,40,137.28813559322035,40C136.27118644067798,40,135.25423728813558,40,134.23728813559322,40C133.22033898305085,40,132.20338983050846,40,131.1864406779661,40C130.16949152542372,40,129.15254237288136,40,128.135593220339,40C127.11864406779662,40,126.10169491525424,40,125.08474576271188,40C124.0677966101695,40,123.05084745762711,40,122.03389830508473,40C121.01694915254237,40,120,40,118.98305084745763,40C117.96610169491525,40,116.94915254237289,40,115.9322033898305,40C114.91525423728814,40,113.89830508474576,40,112.88135593220339,40C111.86440677966102,40,110.84745762711864,40,109.83050847457628,40C108.8135593220339,40,107.79661016949153,40,106.77966101694915,40C105.76271186440678,40,104.7457627118644,40,103.72881355932203,40C102.71186440677965,40,101.69491525423729,40,100.6779661016949,40C99.66101694915254,40,98.64406779661016,40,97.62711864406779,40C96.61016949152543,40,95.59322033898306,40,94.57627118644069,40C93.55932203389831,40,92.54237288135593,40,91.52542372881355,40C90.50847457627118,40,89.49152542372882,40,88.47457627118645,40C87.45762711864407,40,86.4406779661017,40,85.42372881355932,40C84.40677966101696,40,83.38983050847457,40,82.37288135593221,40C81.35593220338983,40,80.33898305084746,40,79.32203389830508,40C78.30508474576271,40,77.28813559322033,40,76.27118644067797,40C75.2542372881356,40,74.23728813559322,40,73.22033898305085,40C72.20338983050848,40,71.1864406779661,40,70.16949152542374,40C69.15254237288136,40,68.13559322033899,40,67.11864406779661,40C66.10169491525424,40,65.08474576271186,40,64.0677966101695,40C63.05084745762712,40,62.03389830508474,40,61.01694915254237,40C59.99999999999999,40,58.983050847457626,40,57.96610169491525,40C56.94915254237288,40,55.93220338983051,40,54.91525423728814,40C53.898305084745765,40,52.88135593220339,40,51.86440677966102,40C50.847457627118644,40,49.83050847457627,40,48.813559322033896,40C47.79661016949152,40,46.77966101694915,40,45.762711864406775,40C44.7457627118644,40,43.728813559322035,40,42.71186440677966,40C41.69491525423729,40,40.67796610169491,40,39.66101694915254,40C38.644067796610166,40,37.6271186440678,40,36.610169491525426,40C35.59322033898305,40,34.57627118644068,40,33.559322033898304,40C32.54237288135593,40,31.525423728813557,40,30.508474576271183,40C29.491525423728813,40,28.47457627118644,40,27.45762711864407,40C26.440677966101696,40,25.423728813559322,40,24.406779661016948,40C23.389830508474574,40,22.372881355932204,40,21.35593220338983,40C20.338983050847457,40,19.322033898305087,40,18.305084745762713,40C17.28813559322034,40,16.271186440677965,40,15.254237288135592,40C14.23728813559322,40,13.220338983050846,40,12.203389830508474,40C11.186440677966102,40,10.169491525423728,40,9.152542372881356,40C8.135593220338983,40,7.11864406779661,40,6.101694915254237,40C5.084745762711864,40,4.067796610169491,40,3.0508474576271185,40C2.0338983050847457,40,1.0169491525423728,40,0,40Z"></path><path class="line" stroke="black" fill="none" d="M0,39.76C1.0169491525423728,39.8,2.0338983050847457,39.84,3.0508474576271185,39.84C4.067796610169491,39.84,5.084745762711864,39.84,6.101694915254237,39.84C7.11864406779661,39.84,8.135593220338983,39.84,9.152542372881356,39.84C10.169491525423728,39.84,11.186440677966102,39.84,12.203389830508474,39.84C13.220338983050846,39.84,14.23728813559322,39.84,15.254237288135592,39.84C16.271186440677965,39.84,17.28813559322034,39.84,18.305084745762713,39.84C19.322033898305087,39.84,20.338983050847457,39.75333333333333,21.35593220338983,39.72C22.372881355932204,39.68666666666667,23.389830508474574,39.64,24.406779661016948,39.64C25.423728813559322,39.64,26.440677966101696,39.64,27.45762711864407,39.64C28.47457627118644,39.64,29.491525423728813,39.64,30.508474576271183,39.64C31.525423728813557,39.64,32.54237288135593,39.68,33.559322033898304,39.68C34.57627118644068,39.68,35.59322033898305,39.68,36.610169491525426,39.68C37.6271186440678,39.68,38.644067796610166,39.66,39.66101694915254,39.64C40.67796610169491,39.62,41.69491525423729,39.61333333333334,42.71186440677966,39.56C43.728813559322035,39.50666666666667,44.7457627118644,39.38666666666667,45.762711864406775,39.24C46.77966101694915,39.093333333333334,47.79661016949152,38.846666666666664,48.813559322033896,38.68C49.83050847457627,38.513333333333335,50.847457627118644,38.379999999999995,51.86440677966102,38.239999999999995C52.88135593220339,38.099999999999994,53.898305084745765,37.959999999999994,54.91525423728814,37.839999999999996C55.93220338983051,37.72,56.94915254237288,37.68666666666666,57.96610169491525,37.519999999999996C58.983050847457626,37.35333333333333,59.99999999999999,37.13333333333333,61.01694915254237,36.84C62.03389830508474,36.54666666666667,63.05084745762712,36.06,64.0677966101695,35.76C65.08474576271186,35.46,66.10169491525424,35.33333333333333,67.11864406779661,35.04C68.13559322033899,34.74666666666666,69.15254237288136,34.346666666666664,70.16949152542374,34C71.1864406779661,33.653333333333336,72.20338983050848,33.27333333333333,73.22033898305085,32.96C74.23728813559322,32.64666666666667,75.2542372881356,32.46666666666666,76.27118644067797,32.12C77.28813559322033,31.77333333333333,78.30508474576271,31.380000000000003,79.32203389830508,30.880000000000003C80.33898305084746,30.380000000000003,81.35593220338983,29.653333333333332,82.37288135593221,29.119999999999997C83.38983050847457,28.586666666666666,84.40677966101696,28.179999999999996,85.42372881355932,27.68C86.4406779661017,27.18,87.45762711864407,26.580000000000002,88.47457627118645,26.12C89.49152542372882,25.660000000000004,90.50847457627118,25.253333333333334,91.52542372881355,24.92C92.54237288135593,24.586666666666666,93.55932203389831,24.406666666666666,94.57627118644069,24.119999999999997C95.59322033898306,23.833333333333332,96.61016949152543,23.5,97.62711864406779,23.200000000000003C98.64406779661016,22.900000000000002,99.66101694915254,22.64,100.6779661016949,22.32C101.69491525423729,22,102.71186440677965,21.593333333333334,103.72881355932203,21.28C104.7457627118644,20.96666666666667,105.76271186440678,20.653333333333336,106.77966101694915,20.44C107.79661016949153,20.226666666666667,108.8135593220339,20,109.83050847457628,20C110.84745762711864,20,111.86440677966102,20.04,112.88135593220339,20.04C113.89830508474576,20.04,114.91525423728814,19.759999999999998,115.9322033898305,19.759999999999998C116.94915254237289,19.759999999999998,117.96610169491525,20.246666666666666,118.98305084745763,20.44C120,20.633333333333333,121.01694915254237,20.92,122.03389830508473,20.92C123.05084745762711,20.92,124.0677966101695,20.48,125.08474576271188,20.48C126.10169491525424,20.48,127.11864406779662,20.626666666666665,128.135593220339,20.72C129.15254237288136,20.813333333333333,130.16949152542372,21.04,131.1864406779661,21.04C132.20338983050846,21.04,133.22033898305085,20.64,134.23728813559322,20.64C135.25423728813558,20.64,136.27118644067798,21.12,137.28813559322035,21.12C138.3050847457627,21.12,139.3220338983051,20.873333333333335,140.33898305084747,20.76C141.35593220338984,20.64666666666667,142.3728813559322,20.44,143.38983050847457,20.44C144.40677966101694,20.44,145.42372881355934,20.813333333333336,146.4406779661017,20.92C147.45762711864407,21.026666666666667,148.47457627118644,21.080000000000002,149.4915254237288,21.080000000000002C150.50847457627117,21.080000000000002,151.52542372881356,20.44,152.54237288135593,20.44C153.5593220338983,20.44,154.5762711864407,21.333333333333332,155.59322033898306,21.44C156.61016949152543,21.546666666666667,157.6271186440678,21.6,158.64406779661016,21.6C159.66101694915253,21.6,160.67796610169492,21.3,161.6949152542373,21.16C162.71186440677965,21.02,163.72881355932205,20.76,164.74576271186442,20.76C165.76271186440678,20.76,166.77966101694915,20.76,167.79661016949152,20.76C168.81355932203388,20.76,169.83050847457628,20.76,170.84745762711864,20.76C171.864406779661,20.76,172.8813559322034,21.200000000000003,173.89830508474577,21.200000000000003C174.91525423728814,21.200000000000003,175.93220338983053,20.560000000000002,176.9491525423729,20.560000000000002C177.96610169491527,20.560000000000002,178.98305084745763,21.560000000000002,180,22.560000000000002"></path><path class="axis-ceiling" stroke-width="1" stroke="black" fill="none" d="M175,0L180,0"></path><text class="axis-ceiling-label" font-family="sans-serif" text-anchor="end" font-size="10px" x="170" y="2.5">1000</text></g></svg>