<svg xmlns="http://www.w3.org/2000/svg" viewBox="0 0 180 60"><g transform="translate(0,20)"><path class="area" fill="rgba(0, 0, 0, 0.2)" d="M0,25.142857142857142C1.0344827586206897,31.42857142857143,2.068965517241379,37.714285714285715,3.103448275862069,37.714285714285715C4.137931034482759,37.714285714285715,5.172413793103448,32,6.206896551724138,32C7.241379310344827,32,8.275862068965516,35.8095238095238,9.310344827586206,36.57142857142857C10.344827586206897,37.333333333333336,11.379310344827585,37.714285714285715,12.413793103448276,37.714285714285715C13.448275862068966,37.714285714285715,14.482758620689655,28.571428571428573,15.517241379310345,28.571428571428573C16.551724137931036,28.571428571428573,17.586206896551722,32,18.620689655172413,32C19.655172413793103,32,20.689655172413794,24,21.724137931034484,24C22.758620689655174,24,23.79310344827586,32,24.82758620689655,32C25.862068965517242,32,26.896551724137932,28.571428571428573,27.931034482758623,28.571428571428573C28.965517241379313,28.571428571428573,30,37.714285714285715,31.03448275862069,37.714285714285715C32.06896551724138,37.714285714285715,33.103448275862064,36.57142857142857,34.137931034482754,36.57142857142857C35.172413793103445,36.57142857142857,36.206896551724135,36.57142857142857,37.241379310344826,36.57142857142857C38.275862068965516,36.57142857142857,39.310344827586206,30.857142857142858,40.3448275862069,30.857142857142858C41.37931034482759,30.857142857142858,42.41379310344828,33.52380952380953,43.44827586206897,34.28571428571429C44.48275862068966,35.04761904761905,45.51724137931035,34.85714285714286,46.55172413793104,35.42857142857143C47.58620689655173,36,48.62068965517241,37.714285714285715,49.6551724137931,37.714285714285715C50.689655172413794,37.714285714285715,51.72413793103448,37.714285714285715,52.75862068965517,37.714285714285715C53.79310344827586,37.714285714285715,54.827586206896555,40,55.862068965517246,40C56.896551724137936,40,57.93103448275862,31.238095238095234,58.96551724137931,29.714285714285715C60,28.190476190476193,61.03448275862069,27.42857142857143,62.06896551724138,27.42857142857143C63.10344827586207,27.42857142857143,64.13793103448276,36.57142857142857,65.17241379310344,36.57142857142857C66.20689655172413,36.57142857142857,67.24137931034483,22.857142857142854,68.27586206896551,22.857142857142854C69.3103448275862,22.857142857142854,70.34482758620689,31.619047619047603,71.37931034482759,33.14285714285714C72.41379310344827,34.666666666666664,73.44827586206897,35.42857142857143,74.48275862068965,35.42857142857143C75.51724137931033,35.42857142857143,76.55172413793103,34.66666666666667,77.58620689655172,34.28571428571429C78.62068965517241,33.90476190476191,79.6551724137931,33.14285714285714,80.6896551724138,33.14285714285714C81.72413793103448,33.14285714285714,82.75862068965517,38.857142857142854,83.79310344827586,38.857142857142854C84.82758620689656,38.857142857142854,85.86206896551724,38.095238095238095,86.89655172413794,36.57142857142857C87.93103448275862,35.04761904761905,88.96551724137932,28.571428571428573,90,28.571428571428573C91.0344827586207,28.571428571428573,92.06896551724138,34.28571428571429,93.10344827586208,34.28571428571429C94.13793103448276,34.28571428571429,95.17241379310344,32,96.20689655172413,32C97.24137931034483,32,98.27586206896551,32,99.3103448275862,32C100.3448275862069,32,101.37931034482759,22.857142857142854,102.41379310344828,22.857142857142854C103.44827586206897,22.857142857142854,104.48275862068965,24.190476190476197,105.51724137931033,25.142857142857142C106.55172413793103,26.0952380952381,107.58620689655172,28.571428571428573,108.62068965517241,28.571428571428573C109.65517241379311,28.571428571428573,110.6896551724138,26.285714285714285,111.72413793103449,26.285714285714285C112.75862068965517,26.285714285714285,113.79310344827587,31.238095238095234,114.82758620689656,33.14285714285714C115.86206896551724,35.047619047619044,116.89655172413794,37.714285714285715,117.93103448275862,37.714285714285715C118.96551724137932,37.714285714285715,120,34.285714285714285,121.0344827586207,33.14285714285714C122.06896551724138,32,123.10344827586208,32.38095238095238,124.13793103448276,30.857142857142858C125.17241379310344,29.333333333333336,126.20689655172414,19.42857142857143,127.24137931034483,19.42857142857143C128.27586206896552,19.42857142857143,129.3103448275862,26.285714285714285,130.3448275862069,26.285714285714285C131.3793103448276,26.285714285714285,132.41379310344828,18.28571428571429,133.44827586206898,18.28571428571429C134.48275862068965,18.28571428571429,135.51724137931035,27.42857142857143,136.55172413793102,27.42857142857143C137.58620689655172,27.42857142857143,138.6206896551724,21.333333333333336,139.6551724137931,19.42857142857143C140.6896551724138,17.52380952380954,141.72413793103448,16,142.75862068965517,16C143.79310344827587,16,144.82758620689654,17.523809523809526,145.86206896551724,19.42857142857143C146.89655172413794,21.333333333333336,147.9310344827586,27.42857142857143,148.9655172413793,27.42857142857143C150,27.42857142857143,151.0344827586207,12.571428571428571,152.0689655172414,12.571428571428571C153.10344827586206,12.571428571428571,154.13793103448276,19.80952380952382,155.17241379310343,20.57142857142857C156.20689655172413,21.333333333333332,157.24137931034483,20.952380952380953,158.27586206896552,21.714285714285715C159.31034482758622,22.47619047619047,160.3448275862069,24.76190476190476,161.3793103448276,26.285714285714285C162.41379310344828,27.80952380952381,163.44827586206895,30.857142857142858,164.48275862068965,30.857142857142858C165.51724137931035,30.857142857142858,166.55172413793102,11.809523809523771,167.58620689655172,7.999999999999998C168.6206896551724,4.19047619047619,169.6551724137931,2.2857142857142865,170.6896551724138,2.2857142857142865C171.7241379310345,2.2857142857142865,172.75862068965517,11.428571428571427,173.79310344827587,11.428571428571427C174.82758620689657,11.428571428571427,175.86206896551724,5.714285714285716,176.89655172413794,5.714285714285716C177.93103448275863,5.714285714285716,178.9655172413793,13.142857142857142,180,20.57142857142857L180,40C178.9655172413793,40,177.93103448275863,40,176.89655172413794,40C175.86206896551724,40,174.82758620689657,40,173.79310344827587,40C172.75862068965517,40,171.7241379310345,40,170.6896551724138,40C169.6551724137931,40,168.6206896551724,40,167.58620689655172,40C166.55172413793102,40,165.51724137931035,40,164.48275862068965,40C163.44827586206895,40,162.41379310344828,40,161.3793103448276,40C160.3448275862069,40,159.31034482758622,40,158.27586206896552,40C157.24137931034483,40,156.20689655172413,40,155.17241379310343,40C154.13793103448276,40,153.10344827586206,40,152.0689655172414,40C151.0344827586207,40,150,40,148.9655172413793,40C147.9310344827586,40,146.89655172413794,40,145.86206896551724,40C144.82758620689654,40,143.79310344827587,40,142.75862068965517,40C141.72413793103448,40,140.6896551724138,40,139.6551724137931,40C138.6206896551724,40,137.58620689655172,40,136.55172413793102,40C135.51724137931035,40,134.48275862068965,40,133.44827586206898,40C132.41379310344828,40,131.3793103448276,40,130.3448275862069,40C129.3103448275862,40,128.27586206896552,40,127.24137931034483,40C126.20689655172414,40,125.17241379310344,40,124.13793103448276,40C123.10344827586208,40,122.06896551724138,40,121.0344827586207,40C120,40,118.96551724137932,40,117.93103448275862,40C116.89655172413794,40,115.86206896551724,40,114.82758620689656,40C113.79310344827587,40,112.75862068965517,40,111.72413793103449,40C110.6896551724138,40,109.65517241379311,40,108.62068965517241,40C107.58620689655172,40,106.55172413793103,40,105.51724137931033,40C104.48275862068965,40,103.44827586206897,40,102.41379310344828,40C101.37931034482759,40,100.3448275862069,40,99.3103448275862,40C98.27586206896551,40,97.24137931034483,40,96.20689655172413,40C95.17241379310344,40,94.13793103448276,40,93.10344827586208,40C92.06896551724138,40,91.0344827586207,40,90,40C88.96551724137932,40,87.93103448275862,40,86.89655172413794,40C85.86206896551724,40,84.82758620689656,40,83.79310344827586,40C82.75862068965517,40,81.72413793103448,40,80.6896551724138,40C79.6551724137931,40,78.62068965517241,40,77.58620689655172,40C76.55172413793103,40,75.51724137931033,40,74.48275862068965,40C73.44827586206897,40,72.41379310344827,40,71.37931034482759,40C70.34482758620689,40,69.3103448275862,40,68.27586206896551,40C67.24137931034483,40,66.20689655172413,40,65.17241379310344,40C64.13793103448276,40,63.10344827586207,40,62.06896551724138,40C61.03448275862069,40,60,40,58.96551724137931,40C57.93103448275862,40,56.896551724137936,40,55.862068965517246,40C54.827586206896555,40,53.79310344827586,40,52.75862068965517,40C51.72413793103448,40,50.689655172413794,40,49.6551724137931,40C48.62068965517241,40,47.58620689655173,40,46.55172413793104,40C45.51724137931035,40,44.48275862068966,40,43.44827586206897,40C42.41379310344828,40,41.37931034482759,40,40.3448275862069,40C39.310344827586206,40,38.275862068965516,40,37.241379310344826,40C36.206896551724135,40,35.172413793103445,40,34.137931034482754,40C33.103448275862064,40,32.06896551724138,40,31.03448275862069,40C30,40,28.965517241379313,40,27.931034482758623,40C26.896551724137932,40,25.862068965517242,40,24.82758620689655,40C23.79310344827586,40,22.758620689655174,40,21.724137931034484,40C20.689655172413794,40,19.655172413793103,40,18.620689655172413,40C17.586206896551722,40,16.551724137931036,40,15.517241379310345,40C14.482758620689655,40,13.448275862068966,40,12.413793103448276,40C11.379310344827585,40,10.344827586206897,40,9.310344827586206,40C8.275862068965516,40,7.241379310344827,40,6.206896551724138,40C5.172413793103448,40,4.137931034482759,40,3.103448275862069,40C2.068965517241379,40,1.0344827586206897,40,0,40Z"></path><path class="line" stroke="black" fill="none" d="M0,25.142857142857142C1.0344827586206897,31.42857142857143,2.068965517241379,37.714285714285715,3.103448275862069,37.714285714285715C4.137931034482759,37.714285714285715,5.172413793103448,32,6.206896551724138,32C7.241379310344827,32,8.275862068965516,35.8095238095238,9.310344827586206,36.57142857142857C10.344827586206897,37.333333333333336,11.379310344827585,37.714285714285715,12.413793103448276,37.714285714285715C13.448275862068966,37.714285714285715,14.482758620689655,28.571428571428573,15.517241379310345,28.571428571428573C16.551724137931036,28.571428571428573,17.586206896551722,32,18.620689655172413,32C19.655172413793103,32,20.689655172413794,24,21.724137931034484,24C22.758620689655174,24,23.79310344827586,32,24.82758620689655,32C25.862068965517242,32,26.896551724137932,28.571428571428573,27.931034482758623,28.571428571428573C28.965517241379313,28.571428571428573,30,37.714285714285715,31.03448275862069,37.714285714285715C32.06896551724138,37.714285714285715,33.103448275862064,36.57142857142857,34.137931034482754,36.57142857142857C35.172413793103445,36.57142857142857,36.206896551724135,36.57142857142857,37.241379310344826,36.57142857142857C38.275862068965516,36.57142857142857,39.310344827586206,30.857142857142858,40.3448275862069,30.857142857142858C41.37931034482759,30.857142857142858,42.41379310344828,33.52380952380953,43.44827586206897,34.28571428571429C44.48275862068966,35.04761904761905,45.51724137931035,34.85714285714286,46.55172413793104,35.42857142857143C47.58620689655173,36,48.62068965517241,37.714285714285715,49.6551724137931,37.714285714285715C50.689655172413794,37.714285714285715,51.72413793103448,37.714285714285715,52.75862068965517,37.714285714285715C53.79310344827586,37.714285714285715,54.827586206896555,40,55.862068965517246,40C56.896551724137936,40,57.93103448275862,31.238095238095234,58.96551724137931,29.714285714285715C60,28.190476190476193,61.03448275862069,27.42857142857143,62.06896551724138,27.42857142857143C63.10344827586207,27.42857142857143,64.13793103448276,36.57142857142857,65.17241379310344,36.57142857142857C66.20689655172413,36.57142857142857,67.24137931034483,22.857142857142854,68.27586206896551,22.857142857142854C69.3103448275862,22.857142857142854,70.34482758620689,31.619047619047603,71.37931034482759,33.14285714285714C72.41379310344827,34.666666666666664,73.44827586206897,35.42857142857143,74.48275862068965,35.42857142857143C75.51724137931033,35.42857142857143,76.55172413793103,34.66666666666667,77.58620689655172,34.28571428571429C78.62068965517241,33.90476190476191,79.6551724137931,33.14285714285714,80.6896551724138,33.14285714285714C81.72413793103448,33.14285714285714,82.75862068965517,38.857142857142854,83.79310344827586,38.857142857142854C84.82758620689656,38.857142857142854,85.86206896551724,38.095238095238095,86.89655172413794,36.57142857142857C87.93103448275862,35.04761904761905,88.96551724137932,28.571428571428573,90,28.571428571428573C91.0344827586207,28.571428571428573,92.06896551724138,34.28571428571429,93.10344827586208,34.28571428571429C94.13793103448276,34.28571428571429,95.17241379310344,32,96.20689655172413,32C97.24137931034483,32,98.27586206896551,32,99.3103448275862,32C100.3448275862069,32,101.37931034482759,22.857142857142854,102.41379310344828,22.857142857142854C103.44827586206897,22.857142857142854,104.48275862068965,24.190476190476197,105.51724137931033,25.142857142857142C106.55172413793103,26.0952380952381,107.58620689655172,28.571428571428573,108.62068965517241,28.571428571428573C109.65517241379311,28.571428571428573,110.6896551724138,26.285714285714285,111.72413793103449,26.285714285714285C112.75862068965517,26.285714285714285,113.79310344827587,31.238095238095234,114.82758620689656,33.14285714285714C115.86206896551724,35.047619047619044,116.89655172413794,37.714285714285715,117.93103448275862,37.714285714285715C118.96551724137932,37.714285714285715,120,34.285714285714285,121.0344827586207,33.14285714285714C122.06896551724138,32,123.10344827586208,32.38095238095238,124.13793103448276,30.857142857142858C125.17241379310344,29.333333333333336,126.20689655172414,19.42857142857143,127.24137931034483,19.42857142857143C128.27586206896552,19.42857142857143,129.3103448275862,26.285714285714285,130.3448275862069,26.285714285714285C131.3793103448276,26.285714285714285,132.41379310344828,18.28571428571429,133.44827586206898,18.28571428571429C134.48275862068965,18.28571428571429,135.51724137931035,27.42857142857143,136.55172413793102,27.42857142857143C137.58620689655172,27.42857142857143,138.6206896551724,21.333333333333336,139.6551724137931,19.42857142857143C140.6896551724138,17.52380952380954,141.72413793103448,16,142.75862068965517,16C143.79310344827587,16,144.82758620689654,17.523809523809526,145.86206896551724,19.42857142857143C146.89655172413794,21.333333333333336,147.9310344827586,27.42857142857143,148.9655172413793,27.42857142857143C150,27.42857142857143,151.0344827586207,12.571428571428571,152.0689655172414,12.571428571428571C153.10344827586206,12.571428571428571,154.13793103448276,19.80952380952382,155.17241379310343,20.57142857142857C156.20689655172413,21.333333333333332,157.24137931034483,20.952380952380953,158.27586206896552,21.714285714285715C159.31034482758622,22.47619047619047,160.3448275862069,24.76190476190476,161.3793103448276,26.285714285714285C162.41379310344828,27.80952380952381,163.44827586206895,30.857142857142858,164.48275862068965,30.857142857142858C165.51724137931035,30.857142857142858,166.55172413793102,11.809523809523771,167.58620689655172,7.999999999999998C168.6206896551724,4.19047619047619,169.6551724137931,2.2857142857142865,170.6896551724138,2.2857142857142865C171.7241379310345,2.2857142857142865,172.75862068965517,11.428571428571427,173.79310344827587,11.428571428571427C174.82758620689657,11.428571428571427,175.86206896551724,5.714285714285716,176.89655172413794,5.714285714285716C177.93103448275863,5.714285714285716,178.9655172413793,13.142857142857142,180,20.57142857142857"></path><path class="axis-ceiling" stroke-width="1" stroke="black" fill="none" d="M175,0L180,0"></path><text class="axis-ceiling-label" font-family="sans-serif" text-anchor="end" font-size="10px" x="170" y="2.5">35</text></g></svg>