<svg xmlns="http://www.w3.org/2000/svg" viewBox="0 0 180 60"><g transform="translate(0,20)"><path class="area" fill="rgba(0, 0, 0, 0.2)" d="M0,20.266666666666666C1.0169491525423728,19.955555555555556,2.0338983050847457,19.644444444444446,3.0508474576271185,19.2C4.067796610169491,18.755555555555553,5.084745762711864,17.999999999999996,6.101694915254237,17.599999999999998C7.11864406779661,17.2,8.135593220338983,16.8,9.152542372881356,16.8C10.169491525423728,16.8,11.186440677966102,16.8,12.203389830508474,16.8C13.220338983050846,16.8,14.23728813559322,16.53333333333333,15.254237288135592,16.53333333333333C16.271186440677965,16.53333333333333,17.28813559322034,17.066666666666666,18.305084745762713,17.066666666666666C19.322033898305087,17.066666666666666,20.338983050847457,15.911111111111113,21.35593220338983,15.466666666666669C22.372881355932204,15.022222222222224,23.389830508474574,14.399999999999999,24.406779661016948,14.399999999999999C25.423728813559322,14.399999999999999,26.440677966101696,15.2,27.45762711864407,15.2C28.47457627118644,15.2,29.491525423728813,14.400000000000004,30.508474576271183,14.133333333333336C31.525423728813557,13.866666666666669,32.54237288135593,13.73333333333333,33.559322033898304,13.599999999999998C34.57627118644068,13.466666666666665,35.59322033898305,13.511111111111111,36.610169491525426,13.333333333333336C37.6271186440678,13.155555555555562,38.644067796610166,12.266666666666667,39.66101694915254,11.733333333333334C40.67796610169491,11.2,41.69491525423729,10.133333333333333,42.71186440677966,10.133333333333333C43.728813559322035,10.133333333333333,44.7457627118644,10.4,45.762711864406775,10.4C46.77966101694915,10.4,47.79661016949152,9.333333333333332,48.813559322033896,9.333333333333332C49.83050847457627,9.333333333333332,50.847457627118644,9.511111111111111,51.86440677966102,9.6C52.88135593220339,9.688888888888888,53.898305084745765,9.733333333333334,54.91525423728814,9.866666666666667C55.93220338983051,10,56.94915254237288,10.044444444444444,57.96610169491525,10.4C58.983050847457626,10.755555555555556,59.99999999999999,11.466666666666669,61.01694915254237,12.266666666666666C62.03389830508474,13.066666666666666,63.05084745762712,14.311111111111108,64.0677966101695,15.2C65.08474576271186,16.088888888888885,66.10169491525424,16.57777777777778,67.11864406779661,17.599999999999998C68.13559322033899,18.62222222222222,69.15254237288136,20.355555555555554,70.16949152542374,21.333333333333332C71.1864406779661,22.311111111111106,72.20338983050848,22.97777777777778,73.22033898305085,23.46666666666667C74.23728813559322,23.955555555555556,75.2542372881356,23.91111111111111,76.27118644067797,24.266666666666666C77.28813559322033,24.62222222222222,78.30508474576271,25.244444444444447,79.32203389830508,25.6C80.33898305084746,25.95555555555556,81.35593220338983,26.133333333333333,82.37288135593221,26.4C83.38983050847457,26.666666666666664,84.40677966101696,27.199999999999996,85.42372881355932,27.199999999999996C86.4406779661017,27.199999999999996,87.45762711864407,27.111111111111107,88.47457627118645,26.933333333333334C89.49152542372882,26.75555555555556,90.50847457627118,26.133333333333333,91.52542372881355,26.133333333333333C92.54237288135593,26.133333333333333,93.55932203389831,26.22222222222222,94.57627118644069,26.4C95.59322033898306,26.577777777777772,96.61016949152543,27.422222222222224,97.62711864406779,27.733333333333334C98.64406779661016,28.044444444444448,99.66101694915254,28.133333333333333,100.6779661016949,28.266666666666666C101.69491525423729,28.4,102.71186440677965,28.355555555555554,103.72881355932203,28.533333333333335C104.7457627118644,28.711111111111112,105.76271186440678,28.97777777777778,106.77966101694915,29.333333333333336C107.79661016949153,29.68888888888889,108.8135593220339,30.31111111111111,109.83050847457628,30.666666666666664C110.84745762711864,31.02222222222222,111.86440677966102,31.288888888888888,112.88135593220339,31.466666666666665C113.89830508474576,31.644444444444442,114.91525423728814,31.733333333333334,115.9322033898305,31.733333333333334C116.94915254237289,31.733333333333334,117.96610169491525,31.733333333333334,118.98305084745763,31.733333333333334C120,31.733333333333334,121.01694915254237,31.466666666666665,122.03389830508473,31.466666666666665C123.05084745762711,31.466666666666665,124.0677966101695,32.044444444444444,125.08474576271188,32.266666666666666C126.10169491525424,32.48888888888889,127.11864406779662,32.800000000000004,128.135593220339,32.800000000000004C129.15254237288136,32.800000000000004,130.16949152542372,32.53333333333333,131.1864406779661,32.53333333333333C132.20338983050846,32.53333333333333,133.22033898305085,32.84444444444444,134.23728813559322,33.06666666666666C135.25423728813558,33.288888888888884,136.27118644067798,33.68888888888889,137.28813559322035,33.86666666666667C138.3050847457627,34.044444444444444,139.3220338983051,34.044444444444444,140.33898305084747,34.13333333333333C141.35593220338984,34.22222222222222,142.3728813559322,34.4,143.38983050847457,34.4C144.40677966101694,34.4,145.42372881355934,34.13333333333333,146.4406779661017,34.13333333333333C147.45762711864407,34.13333333333333,148.47457627118644,34.13333333333333,149.4915254237288,34.13333333333333C150.50847457627117,34.13333333333333,151.52542372881356,34.93333333333333,152.54237288135593,34.93333333333333C153.5593220338983,34.93333333333333,154.5762711864407,34.93333333333333,155.59322033898306,34.93333333333333C156.61016949152543,34.93333333333333,157.6271186440678,34.93333333333333,158.64406779661016,34.93333333333333C159.66101694915253,34.93333333333333,160.67796610169492,35.46666666666667,161.6949152542373,35.46666666666667C162.71186440677965,35.46666666666667,163.72881355932205,35.2,164.74576271186442,35.2C165.76271186440678,35.2,166.77966101694915,35.55555555555556,167.79661016949152,35.733333333333334C168.81355932203388,35.91111111111111,169.83050847457628,36.13333333333333,170.84745762711864,36.266666666666666C171.864406779661,36.4,172.8813559322034,36.4,173.89830508474577,36.53333333333333C174.91525423728814,36.666666666666664,175.93220338983053,36.84444444444444,176.9491525423729,37.06666666666666C177.96610169491527,37.288888888888884,178.98305084745763,37.577777777777776,180,37.86666666666667L180,40C178.98305084745763,40,177.96610169491527,40,176.9491525423729,40C175.93220338983053,40,174.91525423728814,40,173.89830508474577,40C172.8813559322034,40,171.864406779661,40,170.84745762711864,40C169.83050847457628,40,168.81355932203388,40,167.79661016949152,40C166.77966101694915,40,165.76271186440678,40,164.74576271186442,40C163.72881355932205,40,162.71186440677965,40,161.6949152542373,40C160.67796610169492,40,159.66101694915253,40,158.64406779661016,40C157.6271186440678,40,156.61016949152543,40,155.59322033898306,40C154.5762711864407,40,153.5593220338983,40,152.54237288135593,40C151.52542372881356,40,150.50847457627117,40,149.4915254237288,40C148.47457627118644,40,147.45762711864407,40,146.4406779661017,40C145.42372881355934,40,144.40677966101694,40,143.38983050847457,40C142.3728813559322,40,141.35593220338984,40,140.33898305084747,40C139.3220338983051,40,138.3050847457627,40,137.28813559322035,40C136.27118644067798,40,135.25423728813558,40,134.23728813559322,40C133.22033898305085,40,132.20338983050846,40,131.1864406779661,40C130.16949152542372,40,129.15254237288136,40,128.135593220339,40C127.11864406779662,40,126.10169491525424,40,125.08474576271188,40C124.0677966101695,40,123.05084745762711,40,122.03389830508473,40C121.01694915254237,40,120,40,118.98305084745763,40C117.96610169491525,40,116.94915254237289,40,115.9322033898305,40C114.91525423728814,40,113.89830508474576,40,112.88135593220339,40C111.86440677966102,40,110.84745762711864,40,109.83050847457628,40C108.8135593220339,40,107.79661016949153,40,106.77966101694915,40C105.76271186440678,40,104.7457627118644,40,103.72881355932203,40C102.71186440677965,40,101.69491525423729,40,100.6779661016949,40C99.66101694915254,40,98.64406779661016,40,97.62711864406779,40C96.61016949152543,40,95.59322033898306,40,94.57627118644069,40C93.55932203389831,40,92.54237288135593,40,91.52542372881355,40C90.50847457627118,40,89.49152542372882,40,88.47457627118645,40C87.45762711864407,40,86.4406779661017,40,85.42372881355932,40C84.40677966101696,40,83.38983050847457,40,82.37288135593221,40C81.35593220338983,40,80.33898305084746,40,79.32203389830508,40C78.30508474576271,40,77.28813559322033,40,76.27118644067797,40C75.2542372881356,40,74.23728813559322,40,73.22033898305085,40C72.20338983050848,40,71.1864406779661,40,70.16949152542374,40C69.15254237288136,40,68.13559322033899,40,67.11864406779661,40C66.10169491525424,40,65.08474576271186,40,64.0677966101695,40C63.05084745762712,40,62.03389830508474,40,61.01694915254237,40C59.99999999999999,40,58.983050847457626,40,57.96610169491525,40C56.94915254237288,40,55.93220338983051,40,54.91525423728814,40C53.898305084745765,40,52.88135593220339,40,51.86440677966102,40C50.847457627118644,40,49.83050847457627,40,48.813559322033896,40C47.79661016949152,40,46.77966101694915,40,45.762711864406775,40C44.7457627118644,40,43.728813559322035,40,42.71186440677966,40C41.69491525423729,40,40.67796610169491,40,39.66101694915254,40C38.644067796610166,40,37.6271186440678,40,36.610169491525426,40C35.59322033898305,40,34.57627118644068,40,33.559322033898304,40C32.54237288135593,40,31.525423728813557,40,30.508474576271183,40C29.491525423728813,40,28.47457627118644,40,27.45762711864407,40C26.440677966101696,40,25.423728813559322,40,24.406779661016948,40C23.389830508474574,40,22.372881355932204,40,21.35593220338983,40C20.338983050847457,40,19.322033898305087,40,18.305084745762713,40C17.28813559322034,40,16.271186440677965,40,15.254237288135592,40C14.23728813559322,40,13.220338983050846,40,12.203389830508474,40C11.186440677966102,40,10.169491525423728,40,9.152542372881356,40C8.135593220338983,40,7.11864406779661,40,6.101694915254237,40C5.084745762711864,40,4.067796610169491,40,3.0508474576271185,40C2.0338983050847457,40,1.0169491525423728,40,0,40Z"></path><path class="line" stroke="black" fill="none" d="M0,20.266666666666666C1.0169491525423728,19.955555555555556,2.0338983050847457,19.644444444444446,3.0508474576271185,19.2C4.067796610169491,18.755555555555553,5.084745762711864,17.999999999999996,6.101694915254237,17.599999999999998C7.11864406779661,17.2,8.135593220338983,16.8,9.152542372881356,16.8C10.169491525423728,16.8,11.186440677966102,16.8,12.203389830508474,16.8C13.220338983050846,16.8,14.23728813559322,16.53333333333333,15.254237288135592,16.53333333333333C16.271186440677965,16.53333333333333,17.28813559322034,17.066666666666666,18.305084745762713,17.066666666666666C19.322033898305087,17.066666666666666,20.338983050847457,15.911111111111113,21.35593220338983,15.466666666666669C22.372881355932204,15.022222222222224,23.389830508474574,14.399999999999999,24.406779661016948,14.399999999999999C25.423728813559322,14.399999999999999,26.440677966101696,15.2,27.45762711864407,15.2C28.47457627118644,15.2,29.491525423728813,14.400000000000004,30.508474576271183,14.133333333333336C31.525423728813557,13.866666666666669,32.54237288135593,13.73333333333333,33.559322033898304,13.599999999999998C34.57627118644068,13.466666666666665,35.59322033898305,13.511111111111111,36.610169491525426,13.333333333333336C37.6271186440678,13.155555555555562,38.644067796610166,12.266666666666667,39.66101694915254,11.733333333333334C40.67796610169491,11.2,41.69491525423729,10.133333333333333,42.71186440677966,10.133333333333333C43.728813559322035,10.133333333333333,44.7457627118644,10.4,45.762711864406775,10.4C46.77966101694915,10.4,47.79661016949152,9.333333333333332,48.813559322033896,9.333333333333332C49.83050847457627,9.333333333333332,50.847457627118644,9.511111111111111,51.86440677966102,9.6C52.88135593220339,9.688888888888888,53.898305084745765,9.733333333333334,54.91525423728814,9.866666666666667C55.93220338983051,10,56.94915254237288,10.044444444444444,57.96610169491525,10.4C58.983050847457626,10.755555555555556,59.99999999999999,11.466666666666669,61.01694915254237,12.266666666666666C62.03389830508474,13.066666666666666,63.05084745762712,14.311111111111108,64.0677966101695,15.2C65.08474576271186,16.088888888888885,66.10169491525424,16.57777777777778,67.11864406779661,17.599999999999998C68.13559322033899,18.62222222222222,69.15254237288136,20.355555555555554,70.16949152542374,21.333333333333332C71.1864406779661,22.311111111111106,72.20338983050848,22.97777777777778,73.22033898305085,23.46666666666667C74.23728813559322,23.955555555555556,75.2542372881356,23.91111111111111,76.27118644067797,24.266666666666666C77.28813559322033,24.62222222222222,78.30508474576271,25.244444444444447,79.32203389830508,25.6C80.33898305084746,25.95555555555556,81.35593220338983,26.133333333333333,82.37288135593221,26.4C83.38983050847457,26.666666666666664,84.40677966101696,27.199999999999996,85.42372881355932,27.199999999999996C86.4406779661017,27.199999999999996,87.45762711864407,27.111111111111107,88.47457627118645,26.933333333333334C89.49152542372882,26.75555555555556,90.50847457627118,26.133333333333333,91.52542372881355,26.133333333333333C92.54237288135593,26.133333333333333,93.55932203389831,26.22222222222222,94.57627118644069,26.4C95.59322033898306,26.577777777777772,96.61016949152543,27.422222222222224,97.62711864406779,27.733333333333334C98.64406779661016,28.044444444444448,99.66101694915254,28.133333333333333,100.6779661016949,28.266666666666666C101.69491525423729,28.4,102.71186440677965,28.355555555555554,103.72881355932203,28.533333333333335C104.7457627118644,28.711111111111112,105.76271186440678,28.97777777777778,106.77966101694915,29.333333333333336C107.79661016949153,29.68888888888889,108.8135593220339,30.31111111111111,109.83050847457628,30.666666666666664C110.84745762711864,31.02222222222222,111.86440677966102,31.288888888888888,112.88135593220339,31.466666666666665C113.89830508474576,31.644444444444442,114.91525423728814,31.733333333333334,115.9322033898305,31.733333333333334C116.94915254237289,31.733333333333334,117.96610169491525,31.733333333333334,118.98305084745763,31.733333333333334C120,31.733333333333334,121.01694915254237,31.466666666666665,122.03389830508473,31.466666666666665C123.05084745762711,31.466666666666665,124.0677966101695,32.044444444444444,125.08474576271188,32.266666666666666C126.10169491525424,32.48888888888889,127.11864406779662,32.800000000000004,128.135593220339,32.800000000000004C129.15254237288136,32.800000000000004,130.16949152542372,32.53333333333333,131.1864406779661,32.53333333333333C132.20338983050846,32.53333333333333,133.22033898305085,32.84444444444444,134.23728813559322,33.06666666666666C135.25423728813558,33.288888888888884,136.27118644067798,33.68888888888889,137.28813559322035,33.86666666666667C138.3050847457627,34.044444444444444,139.3220338983051,34.044444444444444,140.33898305084747,34.13333333333333C141.35593220338984,34.22222222222222,142.3728813559322,34.4,143.38983050847457,34.4C144.40677966101694,34.4,145.42372881355934,34.13333333333333,146.4406779661017,34.13333333333333C147.45762711864407,34.13333333333333,148.47457627118644,34.13333333333333,149.4915254237288,34.13333333333333C150.50847457627117,34.13333333333333,151.52542372881356,34.93333333333333,152.54237288135593,34.93333333333333C153.5593220338983,34.93333333333333,154.5762711864407,34.93333333333333,155.59322033898306,34.93333333333333C156.61016949152543,34.93333333333333,157.6271186440678,34.93333333333333,158.64406779661016,34.93333333333333C159.66101694915253,34.93333333333333,160.67796610169492,35.46666666666667,161.6949152542373,35.46666666666667C162.71186440677965,35.46666666666667,163.72881355932205,35.2,164.74576271186442,35.2C165.76271186440678,35.2,166.77966101694915,35.55555555555556,167.79661016949152,35.733333333333334C168.81355932203388,35.91111111111111,169.83050847457628,36.13333333333333,170.84745762711864,36.266666666666666C171.864406779661,36.4,172.8813559322034,36.4,173.89830508474577,36.53333333333333C174.91525423728814,36.666666666666664,175.93220338983053,36.84444444444444,176.9491525423729,37.06666666666666C177.96610169491527,37.288888888888884,178.98305084745763,37.577777777777776,180,37.86666666666667"></path><path class="axis-ceiling" stroke-width="1" stroke="black" fill="none" d="M175,0L180,0"></path><text class="axis-ceiling-label" font-family="sans-serif" text-anchor="end" font-size="10px" x="170" y="2.5">150</text></g></svg>