<svg xmlns="http://www.w3.org/2000/svg" viewBox="0 0 180 60"><g transform="translate(0,20)"><path class="area" fill="rgba(0, 0, 0, 0.2)" d="M0,20.57142857142857C1.0344827586206897,22,2.068965517241379,23.428571428571427,3.103448275862069,25.142857142857142C4.137931034482759,26.857142857142858,5.172413793103448,30.857142857142858,6.206896551724138,30.857142857142858C7.241379310344827,30.857142857142858,8.275862068965516,30.476190476190478,9.310344827586206,29.714285714285715C10.344827586206897,28.952380952380953,11.379310344827585,25.523809523809526,12.413793103448276,24C13.448275862068966,22.476190476190474,14.482758620689655,20.57142857142857,15.517241379310345,20.57142857142857C16.551724137931036,20.57142857142857,17.586206896551722,20.952380952380953,18.620689655172413,21.714285714285715C19.655172413793103,22.47619047619048,20.689655172413794,26.285714285714285,21.724137931034484,26.285714285714285C22.758620689655174,26.285714285714285,23.79310344827586,18.28571428571429,24.82758620689655,18.28571428571429C25.862068965517242,18.28571428571429,26.896551724137932,26.28571428571429,27.931034482758623,28.571428571428573C28.965517241379313,30.857142857142854,30,31.23809523809524,31.03448275862069,32C32.06896551724138,32.76190476190476,33.103448275862064,33.14285714285714,34.137931034482754,33.14285714285714C35.172413793103445,33.14285714285714,36.206896551724135,26.857142857142858,37.241379310344826,21.714285714285715C38.275862068965516,16.571428571428573,39.310344827586206,2.2857142857142865,40.3448275862069,2.2857142857142865C41.37931034482759,2.2857142857142865,42.41379310344828,7.428571428571427,43.44827586206897,10.285714285714285C44.48275862068966,13.142857142857142,45.51724137931035,16.38095238095238,46.55172413793104,19.42857142857143C47.58620689655173,22.476190476190474,48.62068965517241,26.28571428571429,49.6551724137931,28.571428571428573C50.689655172413794,30.857142857142858,51.72413793103448,33.14285714285714,52.75862068965517,33.14285714285714C53.79310344827586,33.14285714285714,54.827586206896555,4.571428571428573,55.862068965517246,4.571428571428573C56.896551724137936,4.571428571428573,57.93103448275862,24,58.96551724137931,24C60,24,61.03448275862069,14.857142857142858,62.06896551724138,14.857142857142858C63.10344827586207,14.857142857142858,64.13793103448276,15.61904761904762,65.17241379310344,17.142857142857146C66.20689655172413,18.66666666666667,67.24137931034483,28.571428571428573,68.27586206896551,28.571428571428573C69.3103448275862,28.571428571428573,70.34482758620689,25.142857142857142,71.37931034482759,25.142857142857142C72.41379310344827,25.142857142857142,73.44827586206897,30.857142857142858,74.48275862068965,30.857142857142858C75.51724137931033,30.857142857142858,76.55172413793103,28.57142857142857,77.58620689655172,27.42857142857143C78.62068965517241,26.285714285714285,79.6551724137931,24.761904761904763,80.6896551724138,24C81.72413793103448,23.23809523809524,82.75862068965517,22.857142857142854,83.79310344827586,22.857142857142854C84.82758620689656,22.857142857142854,85.86206896551724,28.95238095238095,86.89655172413794,29.714285714285715C87.93103448275862,30.476190476190478,88.96551724137932,30.095238095238095,90,30.857142857142858C91.0344827586207,31.619047619047624,92.06896551724138,36.57142857142857,93.10344827586208,36.57142857142857C94.13793103448276,36.57142857142857,95.17241379310344,32,96.20689655172413,32C97.24137931034483,32,98.27586206896551,35.42857142857143,99.3103448275862,35.42857142857143C100.3448275862069,35.42857142857143,101.37931034482759,34.85714285714287,102.41379310344828,34.28571428571429C103.44827586206897,33.71428571428572,104.48275862068965,32,105.51724137931033,32C106.55172413793103,32,107.58620689655172,37.714285714285715,108.62068965517241,37.714285714285715C109.65517241379311,37.714285714285715,110.6896551724138,28.571428571428573,111.72413793103449,28.571428571428573C112.75862068965517,28.571428571428573,113.79310344827587,38.857142857142854,114.82758620689656,38.857142857142854C115.86206896551724,38.857142857142854,116.89655172413794,38.857142857142854,117.93103448275862,38.857142857142854C118.96551724137932,38.857142857142854,120,35.42857142857143,121.0344827586207,35.42857142857143C122.06896551724138,35.42857142857143,123.10344827586208,35.42857142857143,124.13793103448276,35.42857142857143C125.17241379310344,35.42857142857143,126.20689655172414,34.28571428571429,127.24137931034483,34.28571428571429C128.27586206896552,34.28571428571429,129.3103448275862,35.04761904761905,130.3448275862069,35.42857142857143C131.3793103448276,35.80952380952381,132.41379310344828,36.19047619047618,133.44827586206898,36.57142857142857C134.48275862068965,36.95238095238095,135.51724137931035,37.333333333333336,136.55172413793102,37.714285714285715C137.58620689655172,38.0952380952381,138.6206896551724,38.857142857142854,139.6551724137931,38.857142857142854C140.6896551724138,38.857142857142854,141.72413793103448,37.714285714285715,142.75862068965517,37.714285714285715C143.79310344827587,37.714285714285715,144.82758620689654,40,145.86206896551724,40C146.89655172413794,40,147.9310344827586,38.857142857142854,148.9655172413793,38.857142857142854C150,38.857142857142854,151.0344827586207,40,152.0689655172414,40C153.10344827586206,40,154.13793103448276,37.714285714285715,155.17241379310343,37.714285714285715C156.20689655172413,37.714285714285715,157.24137931034483,37.714285714285715,158.27586206896552,37.714285714285715C159.31034482758622,37.714285714285715,160.3448275862069,40,161.3793103448276,40C162.41379310344828,40,163.44827586206895,38.857142857142854,164.48275862068965,38.857142857142854C165.51724137931035,38.857142857142854,166.55172413793102,38.857142857142854,167.58620689655172,38.857142857142854C168.6206896551724,38.857142857142854,169.6551724137931,38.857142857142854,170.6896551724138,38.857142857142854C171.7241379310345,38.857142857142854,172.75862068965517,38.857142857142854,173.79310344827587,38.857142857142854C174.82758620689657,38.857142857142854,175.86206896551724,40,176.89655172413794,40C177.93103448275863,40,178.9655172413793,40,180,40L180,40C178.9655172413793,40,177.93103448275863,40,176.89655172413794,40C175.86206896551724,40,174.82758620689657,40,173.79310344827587,40C172.75862068965517,40,171.7241379310345,40,170.6896551724138,40C169.6551724137931,40,168.6206896551724,40,167.58620689655172,40C166.55172413793102,40,165.51724137931035,40,164.48275862068965,40C163.44827586206895,40,162.41379310344828,40,161.3793103448276,40C160.3448275862069,40,159.31034482758622,40,158.27586206896552,40C157.24137931034483,40,156.20689655172413,40,155.17241379310343,40C154.13793103448276,40,153.10344827586206,40,152.0689655172414,40C151.0344827586207,40,150,40,148.9655172413793,40C147.9310344827586,40,146.89655172413794,40,145.86206896551724,40C144.82758620689654,40,143.79310344827587,40,142.75862068965517,40C141.72413793103448,40,140.6896551724138,40,139.6551724137931,40C138.6206896551724,40,137.58620689655172,40,136.55172413793102,40C135.51724137931035,40,134.48275862068965,40,133.44827586206898,40C132.41379310344828,40,131.3793103448276,40,130.3448275862069,40C129.3103448275862,40,128.27586206896552,40,127.24137931034483,40C126.20689655172414,40,125.17241379310344,40,124.13793103448276,40C123.10344827586208,40,122.06896551724138,40,121.0344827586207,40C120,40,118.96551724137932,40,117.93103448275862,40C116.89655172413794,40,115.86206896551724,40,114.82758620689656,40C113.79310344827587,40,112.75862068965517,40,111.72413793103449,40C110.6896551724138,40,109.65517241379311,40,108.62068965517241,40C107.58620689655172,40,106.55172413793103,40,105.51724137931033,40C104.48275862068965,40,103.44827586206897,40,102.41379310344828,40C101.37931034482759,40,100.3448275862069,40,99.3103448275862,40C98.27586206896551,40,97.24137931034483,40,96.20689655172413,40C95.17241379310344,40,94.13793103448276,40,93.10344827586208,40C92.06896551724138,40,91.0344827586207,40,90,40C88.96551724137932,40,87.93103448275862,40,86.89655172413794,40C85.86206896551724,40,84.82758620689656,40,83.79310344827586,40C82.75862068965517,40,81.72413793103448,40,80.6896551724138,40C79.6551724137931,40,78.62068965517241,40,77.58620689655172,40C76.55172413793103,40,75.51724137931033,40,74.48275862068965,40C73.44827586206897,40,72.41379310344827,40,71.37931034482759,40C70.34482758620689,40,69.3103448275862,40,68.27586206896551,40C67.24137931034483,40,66.20689655172413,40,65.17241379310344,40C64.13793103448276,40,63.10344827586207,40,62.06896551724138,40C61.03448275862069,40,60,40,58.96551724137931,40C57.93103448275862,40,56.896551724137936,40,55.862068965517246,40C54.827586206896555,40,53.79310344827586,40,52.75862068965517,40C51.72413793103448,40,50.689655172413794,40,49.6551724137931,40C48.62068965517241,40,47.58620689655173,40,46.55172413793104,40C45.51724137931035,40,44.48275862068966,40,43.44827586206897,40C42.41379310344828,40,41.37931034482759,40,40.3448275862069,40C39.310344827586206,40,38.275862068965516,40,37.241379310344826,40C36.206896551724135,40,35.172413793103445,40,34.137931034482754,40C33.103448275862064,40,32.06896551724138,40,31.03448275862069,40C30,40,28.965517241379313,40,27.931034482758623,40C26.896551724137932,40,25.862068965517242,40,24.82758620689655,40C23.79310344827586,40,22.758620689655174,40,21.724137931034484,40C20.689655172413794,40,19.655172413793103,40,18.620689655172413,40C17.586206896551722,40,16.551724137931036,40,15.517241379310345,40C14.482758620689655,40,13.448275862068966,40,12.413793103448276,40C11.379310344827585,40,10.344827586206897,40,9.310344827586206,40C8.275862068965516,40,7.241379310344827,40,6.206896551724138,40C5.172413793103448,40,4.137931034482759,40,3.103448275862069,40C2.068965517241379,40,1.0344827586206897,40,0,40Z"></path><path class="line" stroke="black" fill="none" d="M0,20.57142857142857C1.0344827586206897,22,2.068965517241379,23.428571428571427,3.103448275862069,25.142857142857142C4.137931034482759,26.857142857142858,5.172413793103448,30.857142857142858,6.206896551724138,30.857142857142858C7.241379310344827,30.857142857142858,8.275862068965516,30.476190476190478,9.310344827586206,29.714285714285715C10.344827586206897,28.952380952380953,11.379310344827585,25.523809523809526,12.413793103448276,24C13.448275862068966,22.476190476190474,14.482758620689655,20.57142857142857,15.517241379310345,20.57142857142857C16.551724137931036,20.57142857142857,17.586206896551722,20.952380952380953,18.620689655172413,21.714285714285715C19.655172413793103,22.47619047619048,20.689655172413794,26.285714285714285,21.724137931034484,26.285714285714285C22.758620689655174,26.285714285714285,23.79310344827586,18.28571428571429,24.82758620689655,18.28571428571429C25.862068965517242,18.28571428571429,26.896551724137932,26.28571428571429,27.931034482758623,28.571428571428573C28.965517241379313,30.857142857142854,30,31.23809523809524,31.03448275862069,32C32.06896551724138,32.76190476190476,33.103448275862064,33.14285714285714,34.137931034482754,33.14285714285714C35.172413793103445,33.14285714285714,36.206896551724135,26.857142857142858,37.241379310344826,21.714285714285715C38.275862068965516,16.571428571428573,39.310344827586206,2.2857142857142865,40.3448275862069,2.2857142857142865C41.37931034482759,2.2857142857142865,42.41379310344828,7.428571428571427,43.44827586206897,10.285714285714285C44.48275862068966,13.142857142857142,45.51724137931035,16.38095238095238,46.55172413793104,19.42857142857143C47.58620689655173,22.476190476190474,48.62068965517241,26.28571428571429,49.6551724137931,28.571428571428573C50.689655172413794,30.857142857142858,51.72413793103448,33.14285714285714,52.75862068965517,33.14285714285714C53.79310344827586,33.14285714285714,54.827586206896555,4.571428571428573,55.862068965517246,4.571428571428573C56.896551724137936,4.571428571428573,57.93103448275862,24,58.96551724137931,24C60,24,61.03448275862069,14.857142857142858,62.06896551724138,14.857142857142858C63.10344827586207,14.857142857142858,64.13793103448276,15.61904761904762,65.17241379310344,17.142857142857146C66.20689655172413,18.66666666666667,67.24137931034483,28.571428571428573,68.27586206896551,28.571428571428573C69.3103448275862,28.571428571428573,70.34482758620689,25.142857142857142,71.37931034482759,25.142857142857142C72.41379310344827,25.142857142857142,73.44827586206897,30.857142857142858,74.48275862068965,30.857142857142858C75.51724137931033,30.857142857142858,76.55172413793103,28.57142857142857,77.58620689655172,27.42857142857143C78.62068965517241,26.285714285714285,79.6551724137931,24.761904761904763,80.6896551724138,24C81.72413793103448,23.23809523809524,82.75862068965517,22.857142857142854,83.79310344827586,22.857142857142854C84.82758620689656,22.857142857142854,85.86206896551724,28.95238095238095,86.89655172413794,29.714285714285715C87.93103448275862,30.476190476190478,88.96551724137932,30.095238095238095,90,30.857142857142858C91.0344827586207,31.619047619047624,92.06896551724138,36.57142857142857,93.10344827586208,36.57142857142857C94.13793103448276,36.57142857142857,95.17241379310344,32,96.20689655172413,32C97.24137931034483,32,98.27586206896551,35.42857142857143,99.3103448275862,35.42857142857143C100.3448275862069,35.42857142857143,101.37931034482759,34.85714285714287,102.41379310344828,34.28571428571429C103.44827586206897,33.71428571428572,104.48275862068965,32,105.51724137931033,32C106.55172413793103,32,107.58620689655172,37.714285714285715,108.62068965517241,37.714285714285715C109.65517241379311,37.714285714285715,110.6896551724138,28.571428571428573,111.72413793103449,28.571428571428573C112.75862068965517,28.571428571428573,113.79310344827587,38.857142857142854,114.82758620689656,38.857142857142854C115.86206896551724,38.857142857142854,116.89655172413794,38.857142857142854,117.93103448275862,38.857142857142854C118.96551724137932,38.857142857142854,120,35.42857142857143,121.0344827586207,35.42857142857143C122.06896551724138,35.42857142857143,123.10344827586208,35.42857142857143,124.13793103448276,35.42857142857143C125.17241379310344,35.42857142857143,126.20689655172414,34.28571428571429,127.24137931034483,34.28571428571429C128.27586206896552,34.28571428571429,129.3103448275862,35.04761904761905,130.3448275862069,35.42857142857143C131.3793103448276,35.80952380952381,132.41379310344828,36.19047619047618,133.44827586206898,36.57142857142857C134.48275862068965,36.95238095238095,135.51724137931035,37.333333333333336,136.55172413793102,37.714285714285715C137.58620689655172,38.0952380952381,138.6206896551724,38.857142857142854,139.6551724137931,38.857142857142854C140.6896551724138,38.857142857142854,141.72413793103448,37.714285714285715,142.75862068965517,37.714285714285715C143.79310344827587,37.714285714285715,144.82758620689654,40,145.86206896551724,40C146.89655172413794,40,147.9310344827586,38.857142857142854,148.9655172413793,38.857142857142854C150,38.857142857142854,151.0344827586207,40,152.0689655172414,40C153.10344827586206,40,154.13793103448276,37.714285714285715,155.17241379310343,37.714285714285715C156.20689655172413,37.714285714285715,157.24137931034483,37.714285714285715,158.27586206896552,37.714285714285715C159.31034482758622,37.714285714285715,160.3448275862069,40,161.3793103448276,40C162.41379310344828,40,163.44827586206895,38.857142857142854,164.48275862068965,38.857142857142854C165.51724137931035,38.857142857142854,166.55172413793102,38.857142857142854,167.58620689655172,38.857142857142854C168.6206896551724,38.857142857142854,169.6551724137931,38.857142857142854,170.6896551724138,38.857142857142854C171.7241379310345,38.857142857142854,172.75862068965517,38.857142857142854,173.79310344827587,38.857142857142854C174.82758620689657,38.857142857142854,175.86206896551724,40,176.89655172413794,40C177.93103448275863,40,178.9655172413793,40,180,40"></path><path class="axis-ceiling" stroke-width="1" stroke="black" fill="none" d="M175,0L180,0"></path><text class="axis-ceiling-label" font-family="sans-serif" text-anchor="end" font-size="10px" x="170" y="2.5">35</text></g></svg>