<svg xmlns="http://www.w3.org/2000/svg" viewBox="0 0 180 60"><g transform="translate(0,20)"><path class="area" fill="rgba(0, 0, 0, 0.2)" d="M0,19.2C1.0344827586206897,17.2,2.068965517241379,15.199999999999998,3.103448275862069,12.799999999999997C4.137931034482759,10.399999999999997,5.172413793103448,4.8,6.206896551724138,4.8C7.241379310344827,4.8,8.275862068965516,16,9.310344827586206,20.8C10.344827586206897,25.6,11.379310344827585,33.6,12.413793103448276,33.6C13.448275862068966,33.6,14.482758620689655,27.199999999999996,15.517241379310345,27.199999999999996C16.551724137931036,27.199999999999996,17.586206896551722,27.73333333333333,18.620689655172413,28.799999999999997C19.655172413793103,29.866666666666667,20.689655172413794,40,21.724137931034484,40C22.758620689655174,40,23.79310344827586,35.2,24.82758620689655,33.6C25.862068965517242,32,26.896551724137932,30.4,27.931034482758623,30.4C28.965517241379313,30.4,30,33.6,31.03448275862069,33.6C32.06896551724138,33.6,33.103448275862064,28.799999999999997,34.137931034482754,28.799999999999997C35.172413793103445,28.799999999999997,36.206896551724135,28.799999999999997,37.241379310344826,28.799999999999997C38.275862068965516,28.799999999999997,39.310344827586206,40,40.3448275862069,40C41.37931034482759,40,42.41379310344828,38.4,43.44827586206897,38.4C44.48275862068966,38.4,45.51724137931035,38.4,46.55172413793104,38.4C47.58620689655173,38.4,48.62068965517241,33.6,49.6551724137931,33.6C50.689655172413794,33.6,51.72413793103448,35.73333333333334,52.75862068965517,36.800000000000004C53.79310344827586,37.866666666666674,54.827586206896555,40,55.862068965517246,40C56.896551724137936,40,57.93103448275862,32,58.96551724137931,32C60,32,61.03448275862069,38.4,62.06896551724138,38.4C63.10344827586207,38.4,64.13793103448276,32,65.17241379310344,32C66.20689655172413,32,67.24137931034483,40,68.27586206896551,40C69.3103448275862,40,70.34482758620689,38.93333333333333,71.37931034482759,38.4C72.41379310344827,37.86666666666667,73.44827586206897,36.800000000000004,74.48275862068965,36.800000000000004C75.51724137931033,36.800000000000004,76.55172413793103,36.800000000000004,77.58620689655172,36.800000000000004C78.62068965517241,36.800000000000004,79.6551724137931,40,80.6896551724138,40C81.72413793103448,40,82.75862068965517,40,83.79310344827586,40C84.82758620689656,40,85.86206896551724,40,86.89655172413794,40C87.93103448275862,40,88.96551724137932,40,90,40C91.0344827586207,40,92.06896551724138,40,93.10344827586208,40C94.13793103448276,40,95.17241379310344,38.4,96.20689655172413,38.4C97.24137931034483,38.4,98.27586206896551,40,99.3103448275862,40C100.3448275862069,40,101.37931034482759,36.800000000000004,102.41379310344828,36.800000000000004C103.44827586206897,36.800000000000004,104.48275862068965,40,105.51724137931033,40C106.55172413793103,40,107.58620689655172,40,108.62068965517241,40C109.65517241379311,40,110.6896551724138,38.4,111.72413793103449,38.4C112.75862068965517,38.4,113.79310344827587,38.4,114.82758620689656,38.4C115.86206896551724,38.4,116.89655172413794,32,117.93103448275862,32C118.96551724137932,32,120,33.86666666666667,121.0344827586207,35.2C122.06896551724138,36.53333333333333,123.10344827586208,40,124.13793103448276,40C125.17241379310344,40,126.20689655172414,40,127.24137931034483,40C128.27586206896552,40,129.3103448275862,38.4,130.3448275862069,38.4C131.3793103448276,38.4,132.41379310344828,38.4,133.44827586206898,38.4C134.48275862068965,38.4,135.51724137931035,38.4,136.55172413793102,38.4C137.58620689655172,38.4,138.6206896551724,32.800000000000026,139.6551724137931,28.799999999999997C140.6896551724138,24.800000000000008,141.72413793103448,14.399999999999999,142.75862068965517,14.399999999999999C143.79310344827587,14.399999999999999,144.82758620689654,35.2,145.86206896551724,35.2C146.89655172413794,35.2,147.9310344827586,33.6,148.9655172413793,33.6C150,33.6,151.0344827586207,35.2,152.0689655172414,35.2C153.10344827586206,35.2,154.13793103448276,20.8,155.17241379310343,20.8C156.20689655172413,20.8,157.24137931034483,38.4,158.27586206896552,38.4C159.31034482758622,38.4,160.3448275862069,37.86666666666667,161.3793103448276,36.800000000000004C162.41379310344828,35.73333333333334,163.44827586206895,34.4,164.48275862068965,32C165.51724137931035,29.6,166.55172413793102,22.400000000000002,167.58620689655172,22.400000000000002C168.6206896551724,22.400000000000002,169.6551724137931,35.2,170.6896551724138,35.2C171.7241379310345,35.2,172.75862068965517,32.8,173.79310344827587,30.4C174.82758620689657,28,175.86206896551724,20.8,176.89655172413794,20.8C177.93103448275863,20.8,178.9655172413793,20.8,180,20.8L180,40C178.9655172413793,40,177.93103448275863,40,176.89655172413794,40C175.86206896551724,40,174.82758620689657,40,173.79310344827587,40C172.75862068965517,40,171.7241379310345,40,170.6896551724138,40C169.6551724137931,40,168.6206896551724,40,167.58620689655172,40C166.55172413793102,40,165.51724137931035,40,164.48275862068965,40C163.44827586206895,40,162.41379310344828,40,161.3793103448276,40C160.3448275862069,40,159.31034482758622,40,158.27586206896552,40C157.24137931034483,40,156.20689655172413,40,155.17241379310343,40C154.13793103448276,40,153.10344827586206,40,152.0689655172414,40C151.0344827586207,40,150,40,148.9655172413793,40C147.9310344827586,40,146.89655172413794,40,145.86206896551724,40C144.82758620689654,40,143.79310344827587,40,142.75862068965517,40C141.72413793103448,40,140.6896551724138,40,139.6551724137931,40C138.6206896551724,40,137.58620689655172,40,136.55172413793102,40C135.51724137931035,40,134.48275862068965,40,133.44827586206898,40C132.41379310344828,40,131.3793103448276,40,130.3448275862069,40C129.3103448275862,40,128.27586206896552,40,127.24137931034483,40C126.20689655172414,40,125.17241379310344,40,124.13793103448276,40C123.10344827586208,40,122.06896551724138,40,121.0344827586207,40C120,40,118.96551724137932,40,117.93103448275862,40C116.89655172413794,40,115.86206896551724,40,114.82758620689656,40C113.79310344827587,40,112.75862068965517,40,111.72413793103449,40C110.6896551724138,40,109.65517241379311,40,108.62068965517241,40C107.58620689655172,40,106.55172413793103,40,105.51724137931033,40C104.48275862068965,40,103.44827586206897,40,102.41379310344828,40C101.37931034482759,40,100.3448275862069,40,99.3103448275862,40C98.27586206896551,40,97.24137931034483,40,96.20689655172413,40C95.17241379310344,40,94.13793103448276,40,93.10344827586208,40C92.06896551724138,40,91.0344827586207,40,90,40C88.96551724137932,40,87.93103448275862,40,86.89655172413794,40C85.86206896551724,40,84.82758620689656,40,83.79310344827586,40C82.75862068965517,40,81.72413793103448,40,80.6896551724138,40C79.6551724137931,40,78.62068965517241,40,77.58620689655172,40C76.55172413793103,40,75.51724137931033,40,74.48275862068965,40C73.44827586206897,40,72.41379310344827,40,71.37931034482759,40C70.34482758620689,40,69.3103448275862,40,68.27586206896551,40C67.24137931034483,40,66.20689655172413,40,65.17241379310344,40C64.13793103448276,40,63.10344827586207,40,62.06896551724138,40C61.03448275862069,40,60,40,58.96551724137931,40C57.93103448275862,40,56.896551724137936,40,55.862068965517246,40C54.827586206896555,40,53.79310344827586,40,52.75862068965517,40C51.72413793103448,40,50.689655172413794,40,49.6551724137931,40C48.62068965517241,40,47.58620689655173,40,46.55172413793104,40C45.51724137931035,40,44.48275862068966,40,43.44827586206897,40C42.41379310344828,40,41.37931034482759,40,40.3448275862069,40C39.310344827586206,40,38.275862068965516,40,37.241379310344826,40C36.206896551724135,40,35.172413793103445,40,34.137931034482754,40C33.103448275862064,40,32.06896551724138,40,31.03448275862069,40C30,40,28.965517241379313,40,27.931034482758623,40C26.896551724137932,40,25.862068965517242,40,24.82758620689655,40C23.79310344827586,40,22.758620689655174,40,21.724137931034484,40C20.689655172413794,40,19.655172413793103,40,18.620689655172413,40C17.586206896551722,40,16.551724137931036,40,15.517241379310345,40C14.482758620689655,40,13.448275862068966,40,12.413793103448276,40C11.379310344827585,40,10.344827586206897,40,9.310344827586206,40C8.275862068965516,40,7.241379310344827,40,6.206896551724138,40C5.172413793103448,40,4.137931034482759,40,3.103448275862069,40C2.068965517241379,40,1.0344827586206897,40,0,40Z"></path><path class="line" stroke="black" fill="none" d="M0,19.2C1.0344827586206897,17.2,2.068965517241379,15.199999999999998,3.103448275862069,12.799999999999997C4.137931034482759,10.399999999999997,5.172413793103448,4.8,6.206896551724138,4.8C7.241379310344827,4.8,8.275862068965516,16,9.310344827586206,20.8C10.344827586206897,25.6,11.379310344827585,33.6,12.413793103448276,33.6C13.448275862068966,33.6,14.482758620689655,27.199999999999996,15.517241379310345,27.199999999999996C16.551724137931036,27.199999999999996,17.586206896551722,27.73333333333333,18.620689655172413,28.799999999999997C19.655172413793103,29.866666666666667,20.689655172413794,40,21.724137931034484,40C22.758620689655174,40,23.79310344827586,35.2,24.82758620689655,33.6C25.862068965517242,32,26.896551724137932,30.4,27.931034482758623,30.4C28.965517241379313,30.4,30,33.6,31.03448275862069,33.6C32.06896551724138,33.6,33.103448275862064,28.799999999999997,34.137931034482754,28.799999999999997C35.172413793103445,28.799999999999997,36.206896551724135,28.799999999999997,37.241379310344826,28.799999999999997C38.275862068965516,28.799999999999997,39.310344827586206,40,40.3448275862069,40C41.37931034482759,40,42.41379310344828,38.4,43.44827586206897,38.4C44.48275862068966,38.4,45.51724137931035,38.4,46.55172413793104,38.4C47.58620689655173,38.4,48.62068965517241,33.6,49.6551724137931,33.6C50.689655172413794,33.6,51.72413793103448,35.73333333333334,52.75862068965517,36.800000000000004C53.79310344827586,37.866666666666674,54.827586206896555,40,55.862068965517246,40C56.896551724137936,40,57.93103448275862,32,58.96551724137931,32C60,32,61.03448275862069,38.4,62.06896551724138,38.4C63.10344827586207,38.4,64.13793103448276,32,65.17241379310344,32C66.20689655172413,32,67.24137931034483,40,68.27586206896551,40C69.3103448275862,40,70.34482758620689,38.93333333333333,71.37931034482759,38.4C72.41379310344827,37.86666666666667,73.44827586206897,36.800000000000004,74.48275862068965,36.800000000000004C75.51724137931033,36.800000000000004,76.55172413793103,36.800000000000004,77.58620689655172,36.800000000000004C78.62068965517241,36.800000000000004,79.6551724137931,40,80.6896551724138,40C81.72413793103448,40,82.75862068965517,40,83.79310344827586,40C84.82758620689656,40,85.86206896551724,40,86.89655172413794,40C87.93103448275862,40,88.96551724137932,40,90,40C91.0344827586207,40,92.06896551724138,40,93.10344827586208,40C94.13793103448276,40,95.17241379310344,38.4,96.20689655172413,38.4C97.24137931034483,38.4,98.27586206896551,40,99.3103448275862,40C100.3448275862069,40,101.37931034482759,36.800000000000004,102.41379310344828,36.800000000000004C103.44827586206897,36.800000000000004,104.48275862068965,40,105.51724137931033,40C106.55172413793103,40,107.58620689655172,40,108.62068965517241,40C109.65517241379311,40,110.6896551724138,38.4,111.72413793103449,38.4C112.75862068965517,38.4,113.79310344827587,38.4,114.82758620689656,38.4C115.86206896551724,38.4,116.89655172413794,32,117.93103448275862,32C118.96551724137932,32,120,33.86666666666667,121.0344827586207,35.2C122.06896551724138,36.53333333333333,123.10344827586208,40,124.13793103448276,40C125.17241379310344,40,126.20689655172414,40,127.24137931034483,40C128.27586206896552,40,129.3103448275862,38.4,130.3448275862069,38.4C131.3793103448276,38.4,132.41379310344828,38.4,133.44827586206898,38.4C134.48275862068965,38.4,135.51724137931035,38.4,136.55172413793102,38.4C137.58620689655172,38.4,138.6206896551724,32.800000000000026,139.6551724137931,28.799999999999997C140.6896551724138,24.800000000000008,141.72413793103448,14.399999999999999,142.75862068965517,14.399999999999999C143.79310344827587,14.399999999999999,144.82758620689654,35.2,145.86206896551724,35.2C146.89655172413794,35.2,147.9310344827586,33.6,148.9655172413793,33.6C150,33.6,151.0344827586207,35.2,152.0689655172414,35.2C153.10344827586206,35.2,154.13793103448276,20.8,155.17241379310343,20.8C156.20689655172413,20.8,157.24137931034483,38.4,158.27586206896552,38.4C159.31034482758622,38.4,160.3448275862069,37.86666666666667,161.3793103448276,36.800000000000004C162.41379310344828,35.73333333333334,163.44827586206895,34.4,164.48275862068965,32C165.51724137931035,29.6,166.55172413793102,22.400000000000002,167.58620689655172,22.400000000000002C168.6206896551724,22.400000000000002,169.6551724137931,35.2,170.6896551724138,35.2C171.7241379310345,35.2,172.75862068965517,32.8,173.79310344827587,30.4C174.82758620689657,28,175.86206896551724,20.8,176.89655172413794,20.8C177.93103448275863,20.8,178.9655172413793,20.8,180,20.8"></path><path class="axis-ceiling" stroke-width="1" stroke="black" fill="none" d="M175,0L180,0"></path><text class="axis-ceiling-label" font-family="sans-serif" text-anchor="end" font-size="10px" x="170" y="2.5">25</text></g></svg>