<svg xmlns="http://www.w3.org/2000/svg" viewBox="0 0 180 60"><g transform="translate(0,20)"><path class="area" fill="rgba(0, 0, 0, 0.2)" d="M0,30.48C1.0169491525423728,30.497777777777777,2.0338983050847457,30.515555555555554,3.0508474576271185,30.586666666666666C4.067796610169491,30.657777777777778,5.084745762711864,30.835555555555555,6.101694915254237,30.933333333333334C7.11864406779661,31.031111111111112,8.135593220338983,31.057777777777776,9.152542372881356,31.173333333333332C10.169491525423728,31.288888888888888,11.186440677966102,31.484444444444442,12.203389830508474,31.626666666666665C13.220338983050846,31.76888888888889,14.23728813559322,31.92444444444444,15.254237288135592,32.026666666666664C16.271186440677965,32.12888888888889,17.28813559322034,32.111111111111114,18.305084745762713,32.24C19.322033898305087,32.36888888888889,20.338983050847457,32.64000000000001,21.35593220338983,32.800000000000004C22.372881355932204,32.96,23.389830508474574,33.08888888888889,24.406779661016948,33.199999999999996C25.423728813559322,33.31111111111111,26.440677966101696,33.346666666666664,27.45762711864407,33.46666666666667C28.47457627118644,33.586666666666666,29.491525423728813,33.80444444444445,30.508474576271183,33.92C31.525423728813557,34.035555555555554,32.54237288135593,34.06222222222222,33.559322033898304,34.16C34.57627118644068,34.257777777777775,35.59322033898305,34.41777777777778,36.610169491525426,34.50666666666667C37.6271186440678,34.595555555555556,38.644067796610166,34.568888888888885,39.66101694915254,34.69333333333333C40.67796610169491,34.81777777777777,41.69491525423729,35.11555555555556,42.71186440677966,35.30666666666667C43.728813559322035,35.497777777777785,44.7457627118644,35.67555555555556,45.762711864406775,35.84C46.77966101694915,36.004444444444445,47.79661016949152,36.22222222222223,48.813559322033896,36.29333333333334C49.83050847457627,36.364444444444445,50.847457627118644,36.34222222222222,51.86440677966102,36.4C52.88135593220339,36.45777777777778,53.898305084745765,36.62222222222223,54.91525423728814,36.64C55.93220338983051,36.657777777777774,56.94915254237288,36.64888888888889,57.96610169491525,36.666666666666664C58.983050847457626,36.68444444444444,59.99999999999999,36.72,61.01694915254237,36.74666666666666C62.03389830508474,36.77333333333333,63.05084745762712,36.79555555555555,64.0677966101695,36.82666666666667C65.08474576271186,36.85777777777778,66.10169491525424,36.93333333333334,67.11864406779661,36.93333333333334C68.13559322033899,36.93333333333334,69.15254237288136,36.93333333333334,70.16949152542374,36.93333333333334C71.1864406779661,36.93333333333334,72.20338983050848,36.98222222222223,73.22033898305085,37.013333333333335C74.23728813559322,37.044444444444444,75.2542372881356,37.120000000000005,76.27118644067797,37.120000000000005C77.28813559322033,37.120000000000005,78.30508474576271,37.093333333333334,79.32203389830508,37.093333333333334C80.33898305084746,37.093333333333334,81.35593220338983,37.16444444444444,82.37288135593221,37.199999999999996C83.38983050847457,37.23555555555555,84.40677966101696,37.288888888888884,85.42372881355932,37.306666666666665C86.4406779661017,37.324444444444445,87.45762711864407,37.315555555555555,88.47457627118645,37.333333333333336C89.49152542372882,37.351111111111116,90.50847457627118,37.45333333333333,91.52542372881355,37.49333333333333C92.54237288135593,37.53333333333333,93.55932203389831,37.57333333333334,94.57627118644069,37.57333333333334C95.59322033898306,37.57333333333334,96.61016949152543,37.49333333333333,97.62711864406779,37.49333333333333C98.64406779661016,37.49333333333333,99.66101694915254,37.599999999999994,100.6779661016949,37.599999999999994C101.69491525423729,37.599999999999994,102.71186440677965,37.55555555555555,103.72881355932203,37.46666666666667C104.7457627118644,37.37777777777779,105.76271186440678,37.239999999999995,106.77966101694915,37.06666666666666C107.79661016949153,36.89333333333333,108.8135593220339,36.63999999999999,109.83050847457628,36.42666666666666C110.84745762711864,36.21333333333333,111.86440677966102,35.99111111111111,112.88135593220339,35.78666666666667C113.89830508474576,35.58222222222223,114.91525423728814,35.382222222222225,115.9322033898305,35.2C116.94915254237289,35.01777777777778,117.96610169491525,34.919999999999995,118.98305084745763,34.69333333333333C120,34.46666666666666,121.01694915254237,34.05333333333333,122.03389830508473,33.839999999999996C123.05084745762711,33.62666666666666,124.0677966101695,33.66666666666667,125.08474576271188,33.413333333333334C126.10169491525424,33.160000000000004,127.11864406779662,32.662222222222226,128.135593220339,32.32C129.15254237288136,31.977777777777778,130.16949152542372,31.706666666666663,131.1864406779661,31.36C132.20338983050846,31.013333333333332,133.22033898305085,30.644444444444446,134.23728813559322,30.240000000000002C135.25423728813558,29.83555555555556,136.27118644067798,29.400000000000006,137.28813559322035,28.933333333333337C138.3050847457627,28.46666666666667,139.3220338983051,27.92,140.33898305084747,27.439999999999998C141.35593220338984,26.96,142.3728813559322,26.44,143.38983050847457,26.053333333333335C144.40677966101694,25.666666666666664,145.42372881355934,25.662222222222226,146.4406779661017,25.12C147.45762711864407,24.57777777777778,148.47457627118644,23.56888888888889,149.4915254237288,22.800000000000004C150.50847457627117,22.031111111111112,151.52542372881356,21.235555555555553,152.54237288135593,20.506666666666664C153.5593220338983,19.777777777777775,154.5762711864407,19.06666666666667,155.59322033898306,18.426666666666666C156.61016949152543,17.78666666666667,157.6271186440678,17.248888888888885,158.64406779661016,16.666666666666664C159.66101694915253,16.08444444444444,160.67796610169492,15.484444444444442,161.6949152542373,14.933333333333332C162.71186440677965,14.382222222222222,163.72881355932205,13.755555555555556,164.74576271186442,13.36C165.76271186440678,12.964444444444448,166.77966101694915,12.559999999999999,167.79661016949152,12.559999999999999C168.81355932203388,12.559999999999999,169.83050847457628,13.866666666666667,170.84745762711864,13.866666666666667C171.864406779661,13.866666666666667,172.8813559322034,11.835555555555558,173.89830508474577,10.74666666666667C174.91525423728814,9.657777777777781,175.93220338983053,8.25777777777778,176.9491525423729,7.333333333333334C177.96610169491527,6.408888888888895,178.98305084745763,5.804444444444448,180,5.2L180,40C178.98305084745763,40,177.96610169491527,40,176.9491525423729,40C175.93220338983053,40,174.91525423728814,40,173.89830508474577,40C172.8813559322034,40,171.864406779661,40,170.84745762711864,40C169.83050847457628,40,168.81355932203388,40,167.79661016949152,40C166.77966101694915,40,165.76271186440678,40,164.74576271186442,40C163.72881355932205,40,162.71186440677965,40,161.6949152542373,40C160.67796610169492,40,159.66101694915253,40,158.64406779661016,40C157.6271186440678,40,156.61016949152543,40,155.59322033898306,40C154.5762711864407,40,153.5593220338983,40,152.54237288135593,40C151.52542372881356,40,150.50847457627117,40,149.4915254237288,40C148.47457627118644,40,147.45762711864407,40,146.4406779661017,40C145.42372881355934,40,144.40677966101694,40,143.38983050847457,40C142.3728813559322,40,141.35593220338984,40,140.33898305084747,40C139.3220338983051,40,138.3050847457627,40,137.28813559322035,40C136.27118644067798,40,135.25423728813558,40,134.23728813559322,40C133.22033898305085,40,132.20338983050846,40,131.1864406779661,40C130.16949152542372,40,129.15254237288136,40,128.135593220339,40C127.11864406779662,40,126.10169491525424,40,125.08474576271188,40C124.0677966101695,40,123.05084745762711,40,122.03389830508473,40C121.01694915254237,40,120,40,118.98305084745763,40C117.96610169491525,40,116.94915254237289,40,115.9322033898305,40C114.91525423728814,40,113.89830508474576,40,112.88135593220339,40C111.86440677966102,40,110.84745762711864,40,109.83050847457628,40C108.8135593220339,40,107.79661016949153,40,106.77966101694915,40C105.76271186440678,40,104.7457627118644,40,103.72881355932203,40C102.71186440677965,40,101.69491525423729,40,100.6779661016949,40C99.66101694915254,40,98.64406779661016,40,97.62711864406779,40C96.61016949152543,40,95.59322033898306,40,94.57627118644069,40C93.55932203389831,40,92.54237288135593,40,91.52542372881355,40C90.50847457627118,40,89.49152542372882,40,88.47457627118645,40C87.45762711864407,40,86.4406779661017,40,85.42372881355932,40C84.40677966101696,40,83.38983050847457,40,82.37288135593221,40C81.35593220338983,40,80.33898305084746,40,79.32203389830508,40C78.30508474576271,40,77.28813559322033,40,76.27118644067797,40C75.2542372881356,40,74.23728813559322,40,73.22033898305085,40C72.20338983050848,40,71.1864406779661,40,70.16949152542374,40C69.15254237288136,40,68.13559322033899,40,67.11864406779661,40C66.10169491525424,40,65.08474576271186,40,64.0677966101695,40C63.05084745762712,40,62.03389830508474,40,61.01694915254237,40C59.99999999999999,40,58.983050847457626,40,57.96610169491525,40C56.94915254237288,40,55.93220338983051,40,54.91525423728814,40C53.898305084745765,40,52.88135593220339,40,51.86440677966102,40C50.847457627118644,40,49.83050847457627,40,48.813559322033896,40C47.79661016949152,40,46.77966101694915,40,45.762711864406775,40C44.7457627118644,40,43.728813559322035,40,42.71186440677966,40C41.69491525423729,40,40.67796610169491,40,39.66101694915254,40C38.644067796610166,40,37.6271186440678,40,36.610169491525426,40C35.59322033898305,40,34.57627118644068,40,33.559322033898304,40C32.54237288135593,40,31.525423728813557,40,30.508474576271183,40C29.491525423728813,40,28.47457627118644,40,27.45762711864407,40C26.440677966101696,40,25.423728813559322,40,24.406779661016948,40C23.389830508474574,40,22.372881355932204,40,21.35593220338983,40C20.338983050847457,40,19.322033898305087,40,18.305084745762713,40C17.28813559322034,40,16.271186440677965,40,15.254237288135592,40C14.23728813559322,40,13.220338983050846,40,12.203389830508474,40C11.186440677966102,40,10.169491525423728,40,9.152542372881356,40C8.135593220338983,40,7.11864406779661,40,6.101694915254237,40C5.084745762711864,40,4.067796610169491,40,3.0508474576271185,40C2.0338983050847457,40,1.0169491525423728,40,0,40Z"></path><path class="line" stroke="black" fill="none" d="M0,30.48C1.0169491525423728,30.497777777777777,2.0338983050847457,30.515555555555554,3.0508474576271185,30.586666666666666C4.067796610169491,30.657777777777778,5.084745762711864,30.835555555555555,6.101694915254237,30.933333333333334C7.11864406779661,31.031111111111112,8.135593220338983,31.057777777777776,9.152542372881356,31.173333333333332C10.169491525423728,31.288888888888888,11.186440677966102,31.484444444444442,12.203389830508474,31.626666666666665C13.220338983050846,31.76888888888889,14.23728813559322,31.92444444444444,15.254237288135592,32.026666666666664C16.271186440677965,32.12888888888889,17.28813559322034,32.111111111111114,18.305084745762713,32.24C19.322033898305087,32.36888888888889,20.338983050847457,32.64000000000001,21.35593220338983,32.800000000000004C22.372881355932204,32.96,23.389830508474574,33.08888888888889,24.406779661016948,33.199999999999996C25.423728813559322,33.31111111111111,26.440677966101696,33.346666666666664,27.45762711864407,33.46666666666667C28.47457627118644,33.586666666666666,29.491525423728813,33.80444444444445,30.508474576271183,33.92C31.525423728813557,34.035555555555554,32.54237288135593,34.06222222222222,33.559322033898304,34.16C34.57627118644068,34.257777777777775,35.59322033898305,34.41777777777778,36.610169491525426,34.50666666666667C37.6271186440678,34.595555555555556,38.644067796610166,34.568888888888885,39.66101694915254,34.69333333333333C40.67796610169491,34.81777777777777,41.69491525423729,35.11555555555556,42.71186440677966,35.30666666666667C43.728813559322035,35.497777777777785,44.7457627118644,35.67555555555556,45.762711864406775,35.84C46.77966101694915,36.004444444444445,47.79661016949152,36.22222222222223,48.813559322033896,36.29333333333334C49.83050847457627,36.364444444444445,50.847457627118644,36.34222222222222,51.86440677966102,36.4C52.88135593220339,36.45777777777778,53.898305084745765,36.62222222222223,54.91525423728814,36.64C55.93220338983051,36.657777777777774,56.94915254237288,36.64888888888889,57.96610169491525,36.666666666666664C58.983050847457626,36.68444444444444,59.99999999999999,36.72,61.01694915254237,36.74666666666666C62.03389830508474,36.77333333333333,63.05084745762712,36.79555555555555,64.0677966101695,36.82666666666667C65.08474576271186,36.85777777777778,66.10169491525424,36.93333333333334,67.11864406779661,36.93333333333334C68.13559322033899,36.93333333333334,69.15254237288136,36.93333333333334,70.16949152542374,36.93333333333334C71.1864406779661,36.93333333333334,72.20338983050848,36.98222222222223,73.22033898305085,37.013333333333335C74.23728813559322,37.044444444444444,75.2542372881356,37.120000000000005,76.27118644067797,37.120000000000005C77.28813559322033,37.120000000000005,78.30508474576271,37.093333333333334,79.32203389830508,37.093333333333334C80.33898305084746,37.093333333333334,81.35593220338983,37.16444444444444,82.37288135593221,37.199999999999996C83.38983050847457,37.23555555555555,84.40677966101696,37.288888888888884,85.42372881355932,37.306666666666665C86.4406779661017,37.324444444444445,87.45762711864407,37.315555555555555,88.47457627118645,37.333333333333336C89.49152542372882,37.351111111111116,90.50847457627118,37.45333333333333,91.52542372881355,37.49333333333333C92.54237288135593,37.53333333333333,93.55932203389831,37.57333333333334,94.57627118644069,37.57333333333334C95.59322033898306,37.57333333333334,96.61016949152543,37.49333333333333,97.62711864406779,37.49333333333333C98.64406779661016,37.49333333333333,99.66101694915254,37.599999999999994,100.6779661016949,37.599999999999994C101.69491525423729,37.599999999999994,102.71186440677965,37.55555555555555,103.72881355932203,37.46666666666667C104.7457627118644,37.37777777777779,105.76271186440678,37.239999999999995,106.77966101694915,37.06666666666666C107.79661016949153,36.89333333333333,108.8135593220339,36.63999999999999,109.83050847457628,36.42666666666666C110.84745762711864,36.21333333333333,111.86440677966102,35.99111111111111,112.88135593220339,35.78666666666667C113.89830508474576,35.58222222222223,114.91525423728814,35.382222222222225,115.9322033898305,35.2C116.94915254237289,35.01777777777778,117.96610169491525,34.919999999999995,118.98305084745763,34.69333333333333C120,34.46666666666666,121.01694915254237,34.05333333333333,122.03389830508473,33.839999999999996C123.05084745762711,33.62666666666666,124.0677966101695,33.66666666666667,125.08474576271188,33.413333333333334C126.10169491525424,33.160000000000004,127.11864406779662,32.662222222222226,128.135593220339,32.32C129.15254237288136,31.977777777777778,130.16949152542372,31.706666666666663,131.1864406779661,31.36C132.20338983050846,31.013333333333332,133.22033898305085,30.644444444444446,134.23728813559322,30.240000000000002C135.25423728813558,29.83555555555556,136.27118644067798,29.400000000000006,137.28813559322035,28.933333333333337C138.3050847457627,28.46666666666667,139.3220338983051,27.92,140.33898305084747,27.439999999999998C141.35593220338984,26.96,142.3728813559322,26.44,143.38983050847457,26.053333333333335C144.40677966101694,25.666666666666664,145.42372881355934,25.662222222222226,146.4406779661017,25.12C147.45762711864407,24.57777777777778,148.47457627118644,23.56888888888889,149.4915254237288,22.800000000000004C150.50847457627117,22.031111111111112,151.52542372881356,21.235555555555553,152.54237288135593,20.506666666666664C153.5593220338983,19.777777777777775,154.5762711864407,19.06666666666667,155.59322033898306,18.426666666666666C156.61016949152543,17.78666666666667,157.6271186440678,17.248888888888885,158.64406779661016,16.666666666666664C159.66101694915253,16.08444444444444,160.67796610169492,15.484444444444442,161.6949152542373,14.933333333333332C162.71186440677965,14.382222222222222,163.72881355932205,13.755555555555556,164.74576271186442,13.36C165.76271186440678,12.964444444444448,166.77966101694915,12.559999999999999,167.79661016949152,12.559999999999999C168.81355932203388,12.559999999999999,169.83050847457628,13.866666666666667,170.84745762711864,13.866666666666667C171.864406779661,13.866666666666667,172.8813559322034,11.835555555555558,173.89830508474577,10.74666666666667C174.91525423728814,9.657777777777781,175.93220338983053,8.25777777777778,176.9491525423729,7.333333333333334C177.96610169491527,6.408888888888895,178.98305084745763,5.804444444444448,180,5.2"></path><path class="axis-ceiling" stroke-width="1" stroke="black" fill="none" d="M175,0L180,0"></path><text class="axis-ceiling-label" font-family="sans-serif" text-anchor="end" font-size="10px" x="170" y="2.5">1500</text></g></svg>