<svg xmlns="http://www.w3.org/2000/svg" viewBox="0 0 180 60"><g transform="translate(0,20)"><path class="area" fill="rgba(0, 0, 0, 0.2)" d="M0,38.666666666666664C1.0169491525423728,38.666666666666664,2.0338983050847457,38.666666666666664,3.0508474576271185,38.666666666666664C4.067796610169491,38.666666666666664,5.084745762711864,39.2,6.101694915254237,39.2C7.11864406779661,39.2,8.135593220338983,38.4,9.152542372881356,38.4C10.169491525423728,38.4,11.186440677966102,38.4,12.203389830508474,38.4C13.220338983050846,38.4,14.23728813559322,38.48888888888889,15.254237288135592,38.666666666666664C16.271186440677965,38.84444444444444,17.28813559322034,39.733333333333334,18.305084745762713,39.733333333333334C19.322033898305087,39.733333333333334,20.338983050847457,39.28888888888889,21.35593220338983,38.4C22.372881355932204,37.511111111111106,23.389830508474574,33.6,24.406779661016948,32C25.423728813559322,30.4,26.440677966101696,29.33333333333333,27.45762711864407,28.799999999999997C28.47457627118644,28.266666666666666,29.491525423728813,28.53333333333333,30.508474576271183,28C31.525423728813557,27.46666666666667,32.54237288135593,19.73333333333333,33.559322033898304,19.73333333333333C34.57627118644068,19.73333333333333,35.59322033898305,21.288888888888888,36.610169491525426,23.200000000000003C37.6271186440678,25.111111111111114,38.644067796610166,31.200000000000003,39.66101694915254,31.200000000000003C40.67796610169491,31.200000000000003,41.69491525423729,26.4,42.71186440677966,26.4C43.728813559322035,26.4,44.7457627118644,30.933333333333334,45.762711864406775,30.933333333333334C46.77966101694915,30.933333333333334,47.79661016949152,30,48.813559322033896,29.066666666666666C49.83050847457627,28.133333333333333,50.847457627118644,25.333333333333332,51.86440677966102,25.333333333333332C52.88135593220339,25.333333333333332,53.898305084745765,25.599999999999998,54.91525423728814,26.133333333333333C55.93220338983051,26.666666666666664,56.94915254237288,28.533333333333335,57.96610169491525,28.533333333333335C58.983050847457626,28.533333333333335,59.99999999999999,25.866666666666667,61.01694915254237,25.866666666666667C62.03389830508474,25.866666666666667,63.05084745762712,28.266666666666666,64.0677966101695,28.266666666666666C65.08474576271186,28.266666666666666,66.10169491525424,26.133333333333333,67.11864406779661,26.133333333333333C68.13559322033899,26.133333333333333,69.15254237288136,27.466666666666665,70.16949152542374,27.466666666666665C71.1864406779661,27.466666666666665,72.20338983050848,21.244444444444444,73.22033898305085,19.2C74.23728813559322,17.155555555555555,75.2542372881356,15.2,76.27118644067797,15.2C77.28813559322033,15.2,78.30508474576271,20.266666666666666,79.32203389830508,20.266666666666666C80.33898305084746,20.266666666666666,81.35593220338983,20,82.37288135593221,20C83.38983050847457,20,84.40677966101696,24.266666666666666,85.42372881355932,24.266666666666666C86.4406779661017,24.266666666666666,87.45762711864407,23.422222222222224,88.47457627118645,22.666666666666664C89.49152542372882,21.91111111111111,90.50847457627118,21.377777777777755,91.52542372881355,19.73333333333333C92.54237288135593,18.088888888888885,93.55932203389831,12.799999999999997,94.57627118644069,12.799999999999997C95.59322033898306,12.799999999999997,96.61016949152543,22.755555555555564,97.62711864406779,23.46666666666667C98.64406779661016,24.177777777777777,99.66101694915254,23.822222222222223,100.6779661016949,24.53333333333333C101.69491525423729,25.244444444444444,102.71186440677965,32.53333333333333,103.72881355932203,32.53333333333333C104.7457627118644,32.53333333333333,105.76271186440678,29.288888888888888,106.77966101694915,28.266666666666666C107.79661016949153,27.24444444444444,108.8135593220339,26.4,109.83050847457628,26.4C110.84745762711864,26.4,111.86440677966102,28.266666666666666,112.88135593220339,28.266666666666666C113.89830508474576,28.266666666666666,114.91525423728814,27.466666666666665,115.9322033898305,27.466666666666665C116.94915254237289,27.466666666666665,117.96610169491525,29.77777777777777,118.98305084745763,30.666666666666664C120,31.55555555555555,121.01694915254237,32.800000000000004,122.03389830508473,32.800000000000004C123.05084745762711,32.800000000000004,124.0677966101695,32.13333333333334,125.08474576271188,31.733333333333334C126.10169491525424,31.333333333333336,127.11864406779662,30.711111111111112,128.135593220339,30.4C129.15254237288136,30.08888888888889,130.16949152542372,29.866666666666664,131.1864406779661,29.866666666666664C132.20338983050846,29.866666666666664,133.22033898305085,33.42222222222222,134.23728813559322,34.13333333333333C135.25423728813558,34.84444444444445,136.27118644067798,35.2,137.28813559322035,35.2C138.3050847457627,35.2,139.3220338983051,33.6,140.33898305084747,33.6C141.35593220338984,33.6,142.3728813559322,33.68888888888889,143.38983050847457,33.86666666666667C144.40677966101694,34.044444444444444,145.42372881355934,36.53333333333333,146.4406779661017,36.53333333333333C147.45762711864407,36.53333333333333,148.47457627118644,35.86666666666667,149.4915254237288,35.46666666666667C150.50847457627117,35.06666666666667,151.52542372881356,34.13333333333333,152.54237288135593,34.13333333333333C153.5593220338983,34.13333333333333,154.5762711864407,36,155.59322033898306,36.800000000000004C156.61016949152543,37.6,157.6271186440678,38.93333333333334,158.64406779661016,38.93333333333334C159.66101694915253,38.93333333333334,160.67796610169492,37.86666666666667,161.6949152542373,37.86666666666667C162.71186440677965,37.86666666666667,163.72881355932205,37.955555555555556,164.74576271186442,38.13333333333333C165.76271186440678,38.31111111111111,166.77966101694915,40,167.79661016949152,40C168.81355932203388,40,169.83050847457628,39.2,170.84745762711864,38.93333333333334C171.864406779661,38.66666666666667,172.8813559322034,38.4,173.89830508474577,38.4C174.91525423728814,38.4,175.93220338983053,38.93333333333334,176.9491525423729,38.93333333333334C177.96610169491527,38.93333333333334,178.98305084745763,38.53333333333333,180,38.13333333333333L180,40C178.98305084745763,40,177.96610169491527,40,176.9491525423729,40C175.93220338983053,40,174.91525423728814,40,173.89830508474577,40C172.8813559322034,40,171.864406779661,40,170.84745762711864,40C169.83050847457628,40,168.81355932203388,40,167.79661016949152,40C166.77966101694915,40,165.76271186440678,40,164.74576271186442,40C163.72881355932205,40,162.71186440677965,40,161.6949152542373,40C160.67796610169492,40,159.66101694915253,40,158.64406779661016,40C157.6271186440678,40,156.61016949152543,40,155.59322033898306,40C154.5762711864407,40,153.5593220338983,40,152.54237288135593,40C151.52542372881356,40,150.50847457627117,40,149.4915254237288,40C148.47457627118644,40,147.45762711864407,40,146.4406779661017,40C145.42372881355934,40,144.40677966101694,40,143.38983050847457,40C142.3728813559322,40,141.35593220338984,40,140.33898305084747,40C139.3220338983051,40,138.3050847457627,40,137.28813559322035,40C136.27118644067798,40,135.25423728813558,40,134.23728813559322,40C133.22033898305085,40,132.20338983050846,40,131.1864406779661,40C130.16949152542372,40,129.15254237288136,40,128.135593220339,40C127.11864406779662,40,126.10169491525424,40,125.08474576271188,40C124.0677966101695,40,123.05084745762711,40,122.03389830508473,40C121.01694915254237,40,120,40,118.98305084745763,40C117.96610169491525,40,116.94915254237289,40,115.9322033898305,40C114.91525423728814,40,113.89830508474576,40,112.88135593220339,40C111.86440677966102,40,110.84745762711864,40,109.83050847457628,40C108.8135593220339,40,107.79661016949153,40,106.77966101694915,40C105.76271186440678,40,104.7457627118644,40,103.72881355932203,40C102.71186440677965,40,101.69491525423729,40,100.6779661016949,40C99.66101694915254,40,98.64406779661016,40,97.62711864406779,40C96.61016949152543,40,95.59322033898306,40,94.57627118644069,40C93.55932203389831,40,92.54237288135593,40,91.52542372881355,40C90.50847457627118,40,89.49152542372882,40,88.47457627118645,40C87.45762711864407,40,86.4406779661017,40,85.42372881355932,40C84.40677966101696,40,83.38983050847457,40,82.37288135593221,40C81.35593220338983,40,80.33898305084746,40,79.32203389830508,40C78.30508474576271,40,77.28813559322033,40,76.27118644067797,40C75.2542372881356,40,74.23728813559322,40,73.22033898305085,40C72.20338983050848,40,71.1864406779661,40,70.16949152542374,40C69.15254237288136,40,68.13559322033899,40,67.11864406779661,40C66.10169491525424,40,65.08474576271186,40,64.0677966101695,40C63.05084745762712,40,62.03389830508474,40,61.01694915254237,40C59.99999999999999,40,58.983050847457626,40,57.96610169491525,40C56.94915254237288,40,55.93220338983051,40,54.91525423728814,40C53.898305084745765,40,52.88135593220339,40,51.86440677966102,40C50.847457627118644,40,49.83050847457627,40,48.813559322033896,40C47.79661016949152,40,46.77966101694915,40,45.762711864406775,40C44.7457627118644,40,43.728813559322035,40,42.71186440677966,40C41.69491525423729,40,40.67796610169491,40,39.66101694915254,40C38.644067796610166,40,37.6271186440678,40,36.610169491525426,40C35.59322033898305,40,34.57627118644068,40,33.559322033898304,40C32.54237288135593,40,31.525423728813557,40,30.508474576271183,40C29.491525423728813,40,28.47457627118644,40,27.45762711864407,40C26.440677966101696,40,25.423728813559322,40,24.406779661016948,40C23.389830508474574,40,22.372881355932204,40,21.35593220338983,40C20.338983050847457,40,19.322033898305087,40,18.305084745762713,40C17.28813559322034,40,16.271186440677965,40,15.254237288135592,40C14.23728813559322,40,13.220338983050846,40,12.203389830508474,40C11.186440677966102,40,10.169491525423728,40,9.152542372881356,40C8.135593220338983,40,7.11864406779661,40,6.101694915254237,40C5.084745762711864,40,4.067796610169491,40,3.0508474576271185,40C2.0338983050847457,40,1.0169491525423728,40,0,40Z"></path><path class="line" stroke="black" fill="none" d="M0,38.666666666666664C1.0169491525423728,38.666666666666664,2.0338983050847457,38.666666666666664,3.0508474576271185,38.666666666666664C4.067796610169491,38.666666666666664,5.084745762711864,39.2,6.101694915254237,39.2C7.11864406779661,39.2,8.135593220338983,38.4,9.152542372881356,38.4C10.169491525423728,38.4,11.186440677966102,38.4,12.203389830508474,38.4C13.220338983050846,38.4,14.23728813559322,38.48888888888889,15.254237288135592,38.666666666666664C16.271186440677965,38.84444444444444,17.28813559322034,39.733333333333334,18.305084745762713,39.733333333333334C19.322033898305087,39.733333333333334,20.338983050847457,39.28888888888889,21.35593220338983,38.4C22.372881355932204,37.511111111111106,23.389830508474574,33.6,24.406779661016948,32C25.423728813559322,30.4,26.440677966101696,29.33333333333333,27.45762711864407,28.799999999999997C28.47457627118644,28.266666666666666,29.491525423728813,28.53333333333333,30.508474576271183,28C31.525423728813557,27.46666666666667,32.54237288135593,19.73333333333333,33.559322033898304,19.73333333333333C34.57627118644068,19.73333333333333,35.59322033898305,21.288888888888888,36.610169491525426,23.200000000000003C37.6271186440678,25.111111111111114,38.644067796610166,31.200000000000003,39.66101694915254,31.200000000000003C40.67796610169491,31.200000000000003,41.69491525423729,26.4,42.71186440677966,26.4C43.728813559322035,26.4,44.7457627118644,30.933333333333334,45.762711864406775,30.933333333333334C46.77966101694915,30.933333333333334,47.79661016949152,30,48.813559322033896,29.066666666666666C49.83050847457627,28.133333333333333,50.847457627118644,25.333333333333332,51.86440677966102,25.333333333333332C52.88135593220339,25.333333333333332,53.898305084745765,25.599999999999998,54.91525423728814,26.133333333333333C55.93220338983051,26.666666666666664,56.94915254237288,28.533333333333335,57.96610169491525,28.533333333333335C58.983050847457626,28.533333333333335,59.99999999999999,25.866666666666667,61.01694915254237,25.866666666666667C62.03389830508474,25.866666666666667,63.05084745762712,28.266666666666666,64.0677966101695,28.266666666666666C65.08474576271186,28.266666666666666,66.10169491525424,26.133333333333333,67.11864406779661,26.133333333333333C68.13559322033899,26.133333333333333,69.15254237288136,27.466666666666665,70.16949152542374,27.466666666666665C71.1864406779661,27.466666666666665,72.20338983050848,21.244444444444444,73.22033898305085,19.2C74.23728813559322,17.155555555555555,75.2542372881356,15.2,76.27118644067797,15.2C77.28813559322033,15.2,78.30508474576271,20.266666666666666,79.32203389830508,20.266666666666666C80.33898305084746,20.266666666666666,81.35593220338983,20,82.37288135593221,20C83.38983050847457,20,84.40677966101696,24.266666666666666,85.42372881355932,24.266666666666666C86.4406779661017,24.266666666666666,87.45762711864407,23.422222222222224,88.47457627118645,22.666666666666664C89.49152542372882,21.91111111111111,90.50847457627118,21.377777777777755,91.52542372881355,19.73333333333333C92.54237288135593,18.088888888888885,93.55932203389831,12.799999999999997,94.57627118644069,12.799999999999997C95.59322033898306,12.799999999999997,96.61016949152543,22.755555555555564,97.62711864406779,23.46666666666667C98.64406779661016,24.177777777777777,99.66101694915254,23.822222222222223,100.6779661016949,24.53333333333333C101.69491525423729,25.244444444444444,102.71186440677965,32.53333333333333,103.72881355932203,32.53333333333333C104.7457627118644,32.53333333333333,105.76271186440678,29.288888888888888,106.77966101694915,28.266666666666666C107.79661016949153,27.24444444444444,108.8135593220339,26.4,109.83050847457628,26.4C110.84745762711864,26.4,111.86440677966102,28.266666666666666,112.88135593220339,28.266666666666666C113.89830508474576,28.266666666666666,114.91525423728814,27.466666666666665,115.9322033898305,27.466666666666665C116.94915254237289,27.466666666666665,117.96610169491525,29.77777777777777,118.98305084745763,30.666666666666664C120,31.55555555555555,121.01694915254237,32.800000000000004,122.03389830508473,32.800000000000004C123.05084745762711,32.800000000000004,124.0677966101695,32.13333333333334,125.08474576271188,31.733333333333334C126.10169491525424,31.333333333333336,127.11864406779662,30.711111111111112,128.135593220339,30.4C129.15254237288136,30.08888888888889,130.16949152542372,29.866666666666664,131.1864406779661,29.866666666666664C132.20338983050846,29.866666666666664,133.22033898305085,33.42222222222222,134.23728813559322,34.13333333333333C135.25423728813558,34.84444444444445,136.27118644067798,35.2,137.28813559322035,35.2C138.3050847457627,35.2,139.3220338983051,33.6,140.33898305084747,33.6C141.35593220338984,33.6,142.3728813559322,33.68888888888889,143.38983050847457,33.86666666666667C144.40677966101694,34.044444444444444,145.42372881355934,36.53333333333333,146.4406779661017,36.53333333333333C147.45762711864407,36.53333333333333,148.47457627118644,35.86666666666667,149.4915254237288,35.46666666666667C150.50847457627117,35.06666666666667,151.52542372881356,34.13333333333333,152.54237288135593,34.13333333333333C153.5593220338983,34.13333333333333,154.5762711864407,36,155.59322033898306,36.800000000000004C156.61016949152543,37.6,157.6271186440678,38.93333333333334,158.64406779661016,38.93333333333334C159.66101694915253,38.93333333333334,160.67796610169492,37.86666666666667,161.6949152542373,37.86666666666667C162.71186440677965,37.86666666666667,163.72881355932205,37.955555555555556,164.74576271186442,38.13333333333333C165.76271186440678,38.31111111111111,166.77966101694915,40,167.79661016949152,40C168.81355932203388,40,169.83050847457628,39.2,170.84745762711864,38.93333333333334C171.864406779661,38.66666666666667,172.8813559322034,38.4,173.89830508474577,38.4C174.91525423728814,38.4,175.93220338983053,38.93333333333334,176.9491525423729,38.93333333333334C177.96610169491527,38.93333333333334,178.98305084745763,38.53333333333333,180,38.13333333333333"></path><path class="axis-ceiling" stroke-width="1" stroke="black" fill="none" d="M175,0L180,0"></path><text class="axis-ceiling-label" font-family="sans-serif" text-anchor="end" font-size="10px" x="170" y="2.5">150</text></g></svg>