<svg xmlns="http://www.w3.org/2000/svg" viewBox="0 0 180 60"><g transform="translate(0,20)"><path class="area" fill="rgba(0, 0, 0, 0.2)" d="M0,37C1.0169491525423728,36.900000000000006,2.0338983050847457,36.800000000000004,3.0508474576271185,36.800000000000004C4.067796610169491,36.800000000000004,5.084745762711864,37,6.101694915254237,37C7.11864406779661,37,8.135593220338983,37,9.152542372881356,37C10.169491525423728,37,11.186440677966102,36.6,12.203389830508474,36.4C13.220338983050846,36.199999999999996,14.23728813559322,35.99999999999999,15.254237288135592,35.8C16.271186440677965,35.599999999999994,17.28813559322034,35.43333333333334,18.305084745762713,35.2C19.322033898305087,34.96666666666667,20.338983050847457,34.6,21.35593220338983,34.4C22.372881355932204,34.199999999999996,23.389830508474574,34,24.406779661016948,34C25.423728813559322,34,26.440677966101696,34,27.45762711864407,34C28.47457627118644,34,29.491525423728813,33.93333333333333,30.508474576271183,33.8C31.525423728813557,33.666666666666664,32.54237288135593,33.199999999999996,33.559322033898304,33.199999999999996C34.57627118644068,33.199999999999996,35.59322033898305,33.4,36.610169491525426,33.4C37.6271186440678,33.4,38.644067796610166,33.33333333333333,39.66101694915254,33.199999999999996C40.67796610169491,33.06666666666666,41.69491525423729,32.73333333333332,42.71186440677966,32.599999999999994C43.728813559322035,32.46666666666667,44.7457627118644,32.53333333333333,45.762711864406775,32.400000000000006C46.77966101694915,32.26666666666668,47.79661016949152,32.03333333333333,48.813559322033896,31.8C49.83050847457627,31.566666666666666,50.847457627118644,31,51.86440677966102,31C52.88135593220339,31,53.898305084745765,31,54.91525423728814,31C55.93220338983051,31,56.94915254237288,30.5,57.96610169491525,30.2C58.983050847457626,29.9,59.99999999999999,29.333333333333332,61.01694915254237,29.2C62.03389830508474,29.066666666666666,63.05084745762712,29.066666666666666,64.0677966101695,29C65.08474576271186,28.933333333333334,66.10169491525424,28.866666666666664,67.11864406779661,28.799999999999997C68.13559322033899,28.73333333333333,69.15254237288136,28.73333333333333,70.16949152542374,28.6C71.1864406779661,28.466666666666672,72.20338983050848,28.200000000000003,73.22033898305085,27.800000000000004C74.23728813559322,27.400000000000006,75.2542372881356,26.466666666666672,76.27118644067797,26.200000000000003C77.28813559322033,25.933333333333334,78.30508474576271,25.8,79.32203389830508,25.8C80.33898305084746,25.8,81.35593220338983,26.200000000000003,82.37288135593221,26.200000000000003C83.38983050847457,26.200000000000003,84.40677966101696,25.366666666666664,85.42372881355932,24.8C86.4406779661017,24.233333333333334,87.45762711864407,23.200000000000014,88.47457627118645,22.800000000000004C89.49152542372882,22.4,90.50847457627118,22.333333333333325,91.52542372881355,22.199999999999996C92.54237288135593,22.066666666666666,93.55932203389831,22.1,94.57627118644069,22C95.59322033898306,21.900000000000002,96.61016949152543,21.866666666666667,97.62711864406779,21.6C98.64406779661016,21.333333333333336,99.66101694915254,20.799999999999997,100.6779661016949,20C101.69491525423729,19.2,102.71186440677965,17.466666666666672,103.72881355932203,16.8C104.7457627118644,16.133333333333333,105.76271186440678,16.1,106.77966101694915,15.8C107.79661016949153,15.5,108.8135593220339,15.433333333333335,109.83050847457628,15C110.84745762711864,14.566666666666666,111.86440677966102,13.966666666666665,112.88135593220339,13.2C113.89830508474576,12.433333333333334,114.91525423728814,11.133333333333333,115.9322033898305,10.4C116.94915254237289,9.666666666666664,117.96610169491525,9.233333333333334,118.98305084745763,8.799999999999999C120,8.366666666666669,121.01694915254237,7.799999999999998,122.03389830508473,7.799999999999998C123.05084745762711,7.799999999999998,124.0677966101695,7.799999999999998,125.08474576271188,7.799999999999998C126.10169491525424,7.799999999999998,127.11864406779662,7.200000000000002,128.135593220339,7.200000000000002C129.15254237288136,7.200000000000002,130.16949152542372,7.866666666666665,131.1864406779661,7.999999999999998C132.20338983050846,8.133333333333333,133.22033898305085,8.066666666666665,134.23728813559322,8.2C135.25423728813558,8.333333333333334,136.27118644067798,9.133333333333333,137.28813559322035,9.6C138.3050847457627,10.066666666666666,139.3220338983051,10.499999999999998,140.33898305084747,11C141.35593220338984,11.499999999999998,142.3728813559322,11.966666666666669,143.38983050847457,12.599999999999998C144.40677966101694,13.233333333333334,145.42372881355934,13.999999999999996,146.4406779661017,14.8C147.45762711864407,15.599999999999998,148.47457627118644,16.63333333333334,149.4915254237288,17.400000000000002C150.50847457627117,18.16666666666667,151.52542372881356,18.733333333333334,152.54237288135593,19.4C153.5593220338983,20.066666666666663,154.5762711864407,20.83333333333333,155.59322033898306,21.4C156.61016949152543,21.96666666666666,157.6271186440678,22.33333333333334,158.64406779661016,22.800000000000004C159.66101694915253,23.266666666666673,160.67796610169492,23.7,161.6949152542373,24.2C162.71186440677965,24.7,163.72881355932205,25.266666666666666,164.74576271186442,25.8C165.76271186440678,26.333333333333332,166.77966101694915,26.86666666666667,167.79661016949152,27.400000000000002C168.81355932203388,27.933333333333337,169.83050847457628,28.633333333333333,170.84745762711864,29C171.864406779661,29.366666666666667,172.8813559322034,29.333333333333336,173.89830508474577,29.6C174.91525423728814,29.866666666666667,175.93220338983053,30.2,176.9491525423729,30.6C177.96610169491527,31,178.98305084745763,31.5,180,32L180,40C178.98305084745763,40,177.96610169491527,40,176.9491525423729,40C175.93220338983053,40,174.91525423728814,40,173.89830508474577,40C172.8813559322034,40,171.864406779661,40,170.84745762711864,40C169.83050847457628,40,168.81355932203388,40,167.79661016949152,40C166.77966101694915,40,165.76271186440678,40,164.74576271186442,40C163.72881355932205,40,162.71186440677965,40,161.6949152542373,40C160.67796610169492,40,159.66101694915253,40,158.64406779661016,40C157.6271186440678,40,156.61016949152543,40,155.59322033898306,40C154.5762711864407,40,153.5593220338983,40,152.54237288135593,40C151.52542372881356,40,150.50847457627117,40,149.4915254237288,40C148.47457627118644,40,147.45762711864407,40,146.4406779661017,40C145.42372881355934,40,144.40677966101694,40,143.38983050847457,40C142.3728813559322,40,141.35593220338984,40,140.33898305084747,40C139.3220338983051,40,138.3050847457627,40,137.28813559322035,40C136.27118644067798,40,135.25423728813558,40,134.23728813559322,40C133.22033898305085,40,132.20338983050846,40,131.1864406779661,40C130.16949152542372,40,129.15254237288136,40,128.135593220339,40C127.11864406779662,40,126.10169491525424,40,125.08474576271188,40C124.0677966101695,40,123.05084745762711,40,122.03389830508473,40C121.01694915254237,40,120,40,118.98305084745763,40C117.96610169491525,40,116.94915254237289,40,115.9322033898305,40C114.91525423728814,40,113.89830508474576,40,112.88135593220339,40C111.86440677966102,40,110.84745762711864,40,109.83050847457628,40C108.8135593220339,40,107.79661016949153,40,106.77966101694915,40C105.76271186440678,40,104.7457627118644,40,103.72881355932203,40C102.71186440677965,40,101.69491525423729,40,100.6779661016949,40C99.66101694915254,40,98.64406779661016,40,97.62711864406779,40C96.61016949152543,40,95.59322033898306,40,94.57627118644069,40C93.55932203389831,40,92.54237288135593,40,91.52542372881355,40C90.50847457627118,40,89.49152542372882,40,88.47457627118645,40C87.45762711864407,40,86.4406779661017,40,85.42372881355932,40C84.40677966101696,40,83.38983050847457,40,82.37288135593221,40C81.35593220338983,40,80.33898305084746,40,79.32203389830508,40C78.30508474576271,40,77.28813559322033,40,76.27118644067797,40C75.2542372881356,40,74.23728813559322,40,73.22033898305085,40C72.20338983050848,40,71.1864406779661,40,70.16949152542374,40C69.15254237288136,40,68.13559322033899,40,67.11864406779661,40C66.10169491525424,40,65.08474576271186,40,64.0677966101695,40C63.05084745762712,40,62.03389830508474,40,61.01694915254237,40C59.99999999999999,40,58.983050847457626,40,57.96610169491525,40C56.94915254237288,40,55.93220338983051,40,54.91525423728814,40C53.898305084745765,40,52.88135593220339,40,51.86440677966102,40C50.847457627118644,40,49.83050847457627,40,48.813559322033896,40C47.79661016949152,40,46.77966101694915,40,45.762711864406775,40C44.7457627118644,40,43.728813559322035,40,42.71186440677966,40C41.69491525423729,40,40.67796610169491,40,39.66101694915254,40C38.644067796610166,40,37.6271186440678,40,36.610169491525426,40C35.59322033898305,40,34.57627118644068,40,33.559322033898304,40C32.54237288135593,40,31.525423728813557,40,30.508474576271183,40C29.491525423728813,40,28.47457627118644,40,27.45762711864407,40C26.440677966101696,40,25.423728813559322,40,24.406779661016948,40C23.389830508474574,40,22.372881355932204,40,21.35593220338983,40C20.338983050847457,40,19.322033898305087,40,18.305084745762713,40C17.28813559322034,40,16.271186440677965,40,15.254237288135592,40C14.23728813559322,40,13.220338983050846,40,12.203389830508474,40C11.186440677966102,40,10.169491525423728,40,9.152542372881356,40C8.135593220338983,40,7.11864406779661,40,6.101694915254237,40C5.084745762711864,40,4.067796610169491,40,3.0508474576271185,40C2.0338983050847457,40,1.0169491525423728,40,0,40Z"></path><path class="line" stroke="black" fill="none" d="M0,37C1.0169491525423728,36.900000000000006,2.0338983050847457,36.800000000000004,3.0508474576271185,36.800000000000004C4.067796610169491,36.800000000000004,5.084745762711864,37,6.101694915254237,37C7.11864406779661,37,8.135593220338983,37,9.152542372881356,37C10.169491525423728,37,11.186440677966102,36.6,12.203389830508474,36.4C13.220338983050846,36.199999999999996,14.23728813559322,35.99999999999999,15.254237288135592,35.8C16.271186440677965,35.599999999999994,17.28813559322034,35.43333333333334,18.305084745762713,35.2C19.322033898305087,34.96666666666667,20.338983050847457,34.6,21.35593220338983,34.4C22.372881355932204,34.199999999999996,23.389830508474574,34,24.406779661016948,34C25.423728813559322,34,26.440677966101696,34,27.45762711864407,34C28.47457627118644,34,29.491525423728813,33.93333333333333,30.508474576271183,33.8C31.525423728813557,33.666666666666664,32.54237288135593,33.199999999999996,33.559322033898304,33.199999999999996C34.57627118644068,33.199999999999996,35.59322033898305,33.4,36.610169491525426,33.4C37.6271186440678,33.4,38.644067796610166,33.33333333333333,39.66101694915254,33.199999999999996C40.67796610169491,33.06666666666666,41.69491525423729,32.73333333333332,42.71186440677966,32.599999999999994C43.728813559322035,32.46666666666667,44.7457627118644,32.53333333333333,45.762711864406775,32.400000000000006C46.77966101694915,32.26666666666668,47.79661016949152,32.03333333333333,48.813559322033896,31.8C49.83050847457627,31.566666666666666,50.847457627118644,31,51.86440677966102,31C52.88135593220339,31,53.898305084745765,31,54.91525423728814,31C55.93220338983051,31,56.94915254237288,30.5,57.96610169491525,30.2C58.983050847457626,29.9,59.99999999999999,29.333333333333332,61.01694915254237,29.2C62.03389830508474,29.066666666666666,63.05084745762712,29.066666666666666,64.0677966101695,29C65.08474576271186,28.933333333333334,66.10169491525424,28.866666666666664,67.11864406779661,28.799999999999997C68.13559322033899,28.73333333333333,69.15254237288136,28.73333333333333,70.16949152542374,28.6C71.1864406779661,28.466666666666672,72.20338983050848,28.200000000000003,73.22033898305085,27.800000000000004C74.23728813559322,27.400000000000006,75.2542372881356,26.466666666666672,76.27118644067797,26.200000000000003C77.28813559322033,25.933333333333334,78.30508474576271,25.8,79.32203389830508,25.8C80.33898305084746,25.8,81.35593220338983,26.200000000000003,82.37288135593221,26.200000000000003C83.38983050847457,26.200000000000003,84.40677966101696,25.366666666666664,85.42372881355932,24.8C86.4406779661017,24.233333333333334,87.45762711864407,23.200000000000014,88.47457627118645,22.800000000000004C89.49152542372882,22.4,90.50847457627118,22.333333333333325,91.52542372881355,22.199999999999996C92.54237288135593,22.066666666666666,93.55932203389831,22.1,94.57627118644069,22C95.59322033898306,21.900000000000002,96.61016949152543,21.866666666666667,97.62711864406779,21.6C98.64406779661016,21.333333333333336,99.66101694915254,20.799999999999997,100.6779661016949,20C101.69491525423729,19.2,102.71186440677965,17.466666666666672,103.72881355932203,16.8C104.7457627118644,16.133333333333333,105.76271186440678,16.1,106.77966101694915,15.8C107.79661016949153,15.5,108.8135593220339,15.433333333333335,109.83050847457628,15C110.84745762711864,14.566666666666666,111.86440677966102,13.966666666666665,112.88135593220339,13.2C113.89830508474576,12.433333333333334,114.91525423728814,11.133333333333333,115.9322033898305,10.4C116.94915254237289,9.666666666666664,117.96610169491525,9.233333333333334,118.98305084745763,8.799999999999999C120,8.366666666666669,121.01694915254237,7.799999999999998,122.03389830508473,7.799999999999998C123.05084745762711,7.799999999999998,124.0677966101695,7.799999999999998,125.08474576271188,7.799999999999998C126.10169491525424,7.799999999999998,127.11864406779662,7.200000000000002,128.135593220339,7.200000000000002C129.15254237288136,7.200000000000002,130.16949152542372,7.866666666666665,131.1864406779661,7.999999999999998C132.20338983050846,8.133333333333333,133.22033898305085,8.066666666666665,134.23728813559322,8.2C135.25423728813558,8.333333333333334,136.27118644067798,9.133333333333333,137.28813559322035,9.6C138.3050847457627,10.066666666666666,139.3220338983051,10.499999999999998,140.33898305084747,11C141.35593220338984,11.499999999999998,142.3728813559322,11.966666666666669,143.38983050847457,12.599999999999998C144.40677966101694,13.233333333333334,145.42372881355934,13.999999999999996,146.4406779661017,14.8C147.45762711864407,15.599999999999998,148.47457627118644,16.63333333333334,149.4915254237288,17.400000000000002C150.50847457627117,18.16666666666667,151.52542372881356,18.733333333333334,152.54237288135593,19.4C153.5593220338983,20.066666666666663,154.5762711864407,20.83333333333333,155.59322033898306,21.4C156.61016949152543,21.96666666666666,157.6271186440678,22.33333333333334,158.64406779661016,22.800000000000004C159.66101694915253,23.266666666666673,160.67796610169492,23.7,161.6949152542373,24.2C162.71186440677965,24.7,163.72881355932205,25.266666666666666,164.74576271186442,25.8C165.76271186440678,26.333333333333332,166.77966101694915,26.86666666666667,167.79661016949152,27.400000000000002C168.81355932203388,27.933333333333337,169.83050847457628,28.633333333333333,170.84745762711864,29C171.864406779661,29.366666666666667,172.8813559322034,29.333333333333336,173.89830508474577,29.6C174.91525423728814,29.866666666666667,175.93220338983053,30.2,176.9491525423729,30.6C177.96610169491527,31,178.98305084745763,31.5,180,32"></path><path class="axis-ceiling" stroke-width="1" stroke="black" fill="none" d="M175,0L180,0"></path><text class="axis-ceiling-label" font-family="sans-serif" text-anchor="end" font-size="10px" x="170" y="2.5">200</text></g></svg>