<svg xmlns="http://www.w3.org/2000/svg" viewBox="0 0 180 60"><g transform="translate(0,20)"><path class="area" fill="rgba(0, 0, 0, 0.2)" d="M0,30.72C1.0169491525423728,30.53333333333333,2.0338983050847457,30.346666666666664,3.0508474576271185,30.08C4.067796610169491,29.813333333333333,5.084745762711864,29.57333333333333,6.101694915254237,29.119999999999997C7.11864406779661,28.666666666666664,8.135593220338983,27.759999999999998,9.152542372881356,27.36C10.169491525423728,26.96,11.186440677966102,26.906666666666666,12.203389830508474,26.72C13.220338983050846,26.53333333333333,14.23728813559322,26.533333333333335,15.254237288135592,26.240000000000002C16.271186440677965,25.94666666666667,17.28813559322034,24.96,18.305084745762713,24.96C19.322033898305087,24.96,20.338983050847457,25.12,21.35593220338983,25.12C22.372881355932204,25.12,23.389830508474574,24.16,24.406779661016948,24.16C25.423728813559322,24.16,26.440677966101696,24.48,27.45762711864407,24.48C28.47457627118644,24.48,29.491525423728813,24.426666666666666,30.508474576271183,24.32C31.525423728813557,24.213333333333335,32.54237288135593,22.16,33.559322033898304,21.44C34.57627118644068,20.720000000000002,35.59322033898305,20.560000000000002,36.610169491525426,20C37.6271186440678,19.44,38.644067796610166,18.69333333333333,39.66101694915254,18.08C40.67796610169491,17.466666666666665,41.69491525423729,16.826666666666668,42.71186440677966,16.32C43.728813559322035,15.813333333333334,44.7457627118644,15.626666666666665,45.762711864406775,15.04C46.77966101694915,14.453333333333331,47.79661016949152,13.81333333333333,48.813559322033896,12.799999999999997C49.83050847457627,11.786666666666664,50.847457627118644,9.6,51.86440677966102,8.959999999999999C52.88135593220339,8.319999999999999,53.898305084745765,8.559999999999999,54.91525423728814,7.999999999999998C55.93220338983051,7.439999999999999,56.94915254237288,6.186666666666667,57.96610169491525,5.6000000000000005C58.983050847457626,5.013333333333334,59.99999999999999,4.959999999999998,61.01694915254237,4.4799999999999995C62.03389830508474,3.9999999999999982,63.05084745762712,3.1199999999999974,64.0677966101695,2.719999999999998C65.08474576271186,2.3200000000000003,66.10169491525424,2.080000000000002,67.11864406779661,2.080000000000002C68.13559322033899,2.080000000000002,69.15254237288136,2.080000000000002,70.16949152542374,2.080000000000002C71.1864406779661,2.080000000000002,72.20338983050848,2.133333333333335,73.22033898305085,2.240000000000002C74.23728813559322,2.346666666666669,75.2542372881356,3.0666666666666655,76.27118644067797,3.3599999999999985C77.28813559322033,3.6533333333333315,78.30508474576271,3.733333333333333,79.32203389830508,3.999999999999999C80.33898305084746,4.266666666666667,81.35593220338983,4.586666666666665,82.37288135593221,4.96C83.38983050847457,5.333333333333333,84.40677966101696,6.026666666666668,85.42372881355932,6.240000000000001C86.4406779661017,6.453333333333335,87.45762711864407,6.426666666666667,88.47457627118645,6.560000000000001C89.49152542372882,6.693333333333334,90.50847457627118,6.7200000000000015,91.52542372881355,7.040000000000002C92.54237288135593,7.3600000000000065,93.55932203389831,8.479999999999999,94.57627118644069,8.959999999999999C95.59322033898306,9.439999999999992,96.61016949152543,9.520000000000001,97.62711864406779,9.92C98.64406779661016,10.32,99.66101694915254,10.853333333333337,100.6779661016949,11.360000000000001C101.69491525423729,11.866666666666669,102.71186440677965,12.479999999999997,103.72881355932203,12.959999999999997C104.7457627118644,13.439999999999996,105.76271186440678,13.706666666666667,106.77966101694915,14.239999999999998C107.79661016949153,14.773333333333333,108.8135593220339,15.546666666666665,109.83050847457628,16.16C110.84745762711864,16.773333333333333,111.86440677966102,17.226666666666667,112.88135593220339,17.919999999999998C113.89830508474576,18.61333333333333,114.91525423728814,19.573333333333334,115.9322033898305,20.32C116.94915254237289,21.06666666666667,117.96610169491525,21.68,118.98305084745763,22.400000000000002C120,23.119999999999997,121.01694915254237,23.89333333333334,122.03389830508473,24.64C123.05084745762711,25.38666666666667,124.0677966101695,26.239999999999995,125.08474576271188,26.879999999999995C126.10169491525424,27.519999999999992,127.11864406779662,28.05333333333333,128.135593220339,28.479999999999997C129.15254237288136,28.906666666666663,130.16949152542372,29.173333333333332,131.1864406779661,29.439999999999998C132.20338983050846,29.706666666666667,133.22033898305085,29.73333333333333,134.23728813559322,30.08C135.25423728813558,30.426666666666666,136.27118644067798,31.173333333333336,137.28813559322035,31.520000000000003C138.3050847457627,31.86666666666667,139.3220338983051,31.840000000000003,140.33898305084747,32.160000000000004C141.35593220338984,32.480000000000004,142.3728813559322,33.33333333333333,143.38983050847457,33.44C144.40677966101694,33.54666666666667,145.42372881355934,33.49333333333333,146.4406779661017,33.6C147.45762711864407,33.70666666666667,148.47457627118644,34.34666666666667,149.4915254237288,34.56C150.50847457627117,34.77333333333333,151.52542372881356,34.693333333333335,152.54237288135593,34.88C153.5593220338983,35.06666666666667,154.5762711864407,35.413333333333334,155.59322033898306,35.68C156.61016949152543,35.946666666666665,157.6271186440678,36.26666666666667,158.64406779661016,36.480000000000004C159.66101694915253,36.69333333333334,160.67796610169492,36.85333333333333,161.6949152542373,36.96C162.71186440677965,37.06666666666667,163.72881355932205,37.013333333333335,164.74576271186442,37.120000000000005C165.76271186440678,37.226666666666674,166.77966101694915,37.65333333333333,167.79661016949152,37.76C168.81355932203388,37.86666666666667,169.83050847457628,37.86666666666667,170.84745762711864,37.92C171.864406779661,37.973333333333336,172.8813559322034,38.08,173.89830508474577,38.08C174.91525423728814,38.08,175.93220338983053,38.08,176.9491525423729,38.08C177.96610169491527,38.08,178.98305084745763,38.16,180,38.239999999999995L180,40C178.98305084745763,40,177.96610169491527,40,176.9491525423729,40C175.93220338983053,40,174.91525423728814,40,173.89830508474577,40C172.8813559322034,40,171.864406779661,40,170.84745762711864,40C169.83050847457628,40,168.81355932203388,40,167.79661016949152,40C166.77966101694915,40,165.76271186440678,40,164.74576271186442,40C163.72881355932205,40,162.71186440677965,40,161.6949152542373,40C160.67796610169492,40,159.66101694915253,40,158.64406779661016,40C157.6271186440678,40,156.61016949152543,40,155.59322033898306,40C154.5762711864407,40,153.5593220338983,40,152.54237288135593,40C151.52542372881356,40,150.50847457627117,40,149.4915254237288,40C148.47457627118644,40,147.45762711864407,40,146.4406779661017,40C145.42372881355934,40,144.40677966101694,40,143.38983050847457,40C142.3728813559322,40,141.35593220338984,40,140.33898305084747,40C139.3220338983051,40,138.3050847457627,40,137.28813559322035,40C136.27118644067798,40,135.25423728813558,40,134.23728813559322,40C133.22033898305085,40,132.20338983050846,40,131.1864406779661,40C130.16949152542372,40,129.15254237288136,40,128.135593220339,40C127.11864406779662,40,126.10169491525424,40,125.08474576271188,40C124.0677966101695,40,123.05084745762711,40,122.03389830508473,40C121.01694915254237,40,120,40,118.98305084745763,40C117.96610169491525,40,116.94915254237289,40,115.9322033898305,40C114.91525423728814,40,113.89830508474576,40,112.88135593220339,40C111.86440677966102,40,110.84745762711864,40,109.83050847457628,40C108.8135593220339,40,107.79661016949153,40,106.77966101694915,40C105.76271186440678,40,104.7457627118644,40,103.72881355932203,40C102.71186440677965,40,101.69491525423729,40,100.6779661016949,40C99.66101694915254,40,98.64406779661016,40,97.62711864406779,40C96.61016949152543,40,95.59322033898306,40,94.57627118644069,40C93.55932203389831,40,92.54237288135593,40,91.52542372881355,40C90.50847457627118,40,89.49152542372882,40,88.47457627118645,40C87.45762711864407,40,86.4406779661017,40,85.42372881355932,40C84.40677966101696,40,83.38983050847457,40,82.37288135593221,40C81.35593220338983,40,80.33898305084746,40,79.32203389830508,40C78.30508474576271,40,77.28813559322033,40,76.27118644067797,40C75.2542372881356,40,74.23728813559322,40,73.22033898305085,40C72.20338983050848,40,71.1864406779661,40,70.16949152542374,40C69.15254237288136,40,68.13559322033899,40,67.11864406779661,40C66.10169491525424,40,65.08474576271186,40,64.0677966101695,40C63.05084745762712,40,62.03389830508474,40,61.01694915254237,40C59.99999999999999,40,58.983050847457626,40,57.96610169491525,40C56.94915254237288,40,55.93220338983051,40,54.91525423728814,40C53.898305084745765,40,52.88135593220339,40,51.86440677966102,40C50.847457627118644,40,49.83050847457627,40,48.813559322033896,40C47.79661016949152,40,46.77966101694915,40,45.762711864406775,40C44.7457627118644,40,43.728813559322035,40,42.71186440677966,40C41.69491525423729,40,40.67796610169491,40,39.66101694915254,40C38.644067796610166,40,37.6271186440678,40,36.610169491525426,40C35.59322033898305,40,34.57627118644068,40,33.559322033898304,40C32.54237288135593,40,31.525423728813557,40,30.508474576271183,40C29.491525423728813,40,28.47457627118644,40,27.45762711864407,40C26.440677966101696,40,25.423728813559322,40,24.406779661016948,40C23.389830508474574,40,22.372881355932204,40,21.35593220338983,40C20.338983050847457,40,19.322033898305087,40,18.305084745762713,40C17.28813559322034,40,16.271186440677965,40,15.254237288135592,40C14.23728813559322,40,13.220338983050846,40,12.203389830508474,40C11.186440677966102,40,10.169491525423728,40,9.152542372881356,40C8.135593220338983,40,7.11864406779661,40,6.101694915254237,40C5.084745762711864,40,4.067796610169491,40,3.0508474576271185,40C2.0338983050847457,40,1.0169491525423728,40,0,40Z"></path><path class="line" stroke="black" fill="none" d="M0,30.72C1.0169491525423728,30.53333333333333,2.0338983050847457,30.346666666666664,3.0508474576271185,30.08C4.067796610169491,29.813333333333333,5.084745762711864,29.57333333333333,6.101694915254237,29.119999999999997C7.11864406779661,28.666666666666664,8.135593220338983,27.759999999999998,9.152542372881356,27.36C10.169491525423728,26.96,11.186440677966102,26.906666666666666,12.203389830508474,26.72C13.220338983050846,26.53333333333333,14.23728813559322,26.533333333333335,15.254237288135592,26.240000000000002C16.271186440677965,25.94666666666667,17.28813559322034,24.96,18.305084745762713,24.96C19.322033898305087,24.96,20.338983050847457,25.12,21.35593220338983,25.12C22.372881355932204,25.12,23.389830508474574,24.16,24.406779661016948,24.16C25.423728813559322,24.16,26.440677966101696,24.48,27.45762711864407,24.48C28.47457627118644,24.48,29.491525423728813,24.426666666666666,30.508474576271183,24.32C31.525423728813557,24.213333333333335,32.54237288135593,22.16,33.559322033898304,21.44C34.57627118644068,20.720000000000002,35.59322033898305,20.560000000000002,36.610169491525426,20C37.6271186440678,19.44,38.644067796610166,18.69333333333333,39.66101694915254,18.08C40.67796610169491,17.466666666666665,41.69491525423729,16.826666666666668,42.71186440677966,16.32C43.728813559322035,15.813333333333334,44.7457627118644,15.626666666666665,45.762711864406775,15.04C46.77966101694915,14.453333333333331,47.79661016949152,13.81333333333333,48.813559322033896,12.799999999999997C49.83050847457627,11.786666666666664,50.847457627118644,9.6,51.86440677966102,8.959999999999999C52.88135593220339,8.319999999999999,53.898305084745765,8.559999999999999,54.91525423728814,7.999999999999998C55.93220338983051,7.439999999999999,56.94915254237288,6.186666666666667,57.96610169491525,5.6000000000000005C58.983050847457626,5.013333333333334,59.99999999999999,4.959999999999998,61.01694915254237,4.4799999999999995C62.03389830508474,3.9999999999999982,63.05084745762712,3.1199999999999974,64.0677966101695,2.719999999999998C65.08474576271186,2.3200000000000003,66.10169491525424,2.080000000000002,67.11864406779661,2.080000000000002C68.13559322033899,2.080000000000002,69.15254237288136,2.080000000000002,70.16949152542374,2.080000000000002C71.1864406779661,2.080000000000002,72.20338983050848,2.133333333333335,73.22033898305085,2.240000000000002C74.23728813559322,2.346666666666669,75.2542372881356,3.0666666666666655,76.27118644067797,3.3599999999999985C77.28813559322033,3.6533333333333315,78.30508474576271,3.733333333333333,79.32203389830508,3.999999999999999C80.33898305084746,4.266666666666667,81.35593220338983,4.586666666666665,82.37288135593221,4.96C83.38983050847457,5.333333333333333,84.40677966101696,6.026666666666668,85.42372881355932,6.240000000000001C86.4406779661017,6.453333333333335,87.45762711864407,6.426666666666667,88.47457627118645,6.560000000000001C89.49152542372882,6.693333333333334,90.50847457627118,6.7200000000000015,91.52542372881355,7.040000000000002C92.54237288135593,7.3600000000000065,93.55932203389831,8.479999999999999,94.57627118644069,8.959999999999999C95.59322033898306,9.439999999999992,96.61016949152543,9.520000000000001,97.62711864406779,9.92C98.64406779661016,10.32,99.66101694915254,10.853333333333337,100.6779661016949,11.360000000000001C101.69491525423729,11.866666666666669,102.71186440677965,12.479999999999997,103.72881355932203,12.959999999999997C104.7457627118644,13.439999999999996,105.76271186440678,13.706666666666667,106.77966101694915,14.239999999999998C107.79661016949153,14.773333333333333,108.8135593220339,15.546666666666665,109.83050847457628,16.16C110.84745762711864,16.773333333333333,111.86440677966102,17.226666666666667,112.88135593220339,17.919999999999998C113.89830508474576,18.61333333333333,114.91525423728814,19.573333333333334,115.9322033898305,20.32C116.94915254237289,21.06666666666667,117.96610169491525,21.68,118.98305084745763,22.400000000000002C120,23.119999999999997,121.01694915254237,23.89333333333334,122.03389830508473,24.64C123.05084745762711,25.38666666666667,124.0677966101695,26.239999999999995,125.08474576271188,26.879999999999995C126.10169491525424,27.519999999999992,127.11864406779662,28.05333333333333,128.135593220339,28.479999999999997C129.15254237288136,28.906666666666663,130.16949152542372,29.173333333333332,131.1864406779661,29.439999999999998C132.20338983050846,29.706666666666667,133.22033898305085,29.73333333333333,134.23728813559322,30.08C135.25423728813558,30.426666666666666,136.27118644067798,31.173333333333336,137.28813559322035,31.520000000000003C138.3050847457627,31.86666666666667,139.3220338983051,31.840000000000003,140.33898305084747,32.160000000000004C141.35593220338984,32.480000000000004,142.3728813559322,33.33333333333333,143.38983050847457,33.44C144.40677966101694,33.54666666666667,145.42372881355934,33.49333333333333,146.4406779661017,33.6C147.45762711864407,33.70666666666667,148.47457627118644,34.34666666666667,149.4915254237288,34.56C150.50847457627117,34.77333333333333,151.52542372881356,34.693333333333335,152.54237288135593,34.88C153.5593220338983,35.06666666666667,154.5762711864407,35.413333333333334,155.59322033898306,35.68C156.61016949152543,35.946666666666665,157.6271186440678,36.26666666666667,158.64406779661016,36.480000000000004C159.66101694915253,36.69333333333334,160.67796610169492,36.85333333333333,161.6949152542373,36.96C162.71186440677965,37.06666666666667,163.72881355932205,37.013333333333335,164.74576271186442,37.120000000000005C165.76271186440678,37.226666666666674,166.77966101694915,37.65333333333333,167.79661016949152,37.76C168.81355932203388,37.86666666666667,169.83050847457628,37.86666666666667,170.84745762711864,37.92C171.864406779661,37.973333333333336,172.8813559322034,38.08,173.89830508474577,38.08C174.91525423728814,38.08,175.93220338983053,38.08,176.9491525423729,38.08C177.96610169491527,38.08,178.98305084745763,38.16,180,38.239999999999995"></path><path class="axis-ceiling" stroke-width="1" stroke="black" fill="none" d="M175,0L180,0"></path><text class="axis-ceiling-label" font-family="sans-serif" text-anchor="end" font-size="10px" x="170" y="2.5">250</text></g></svg>