<svg xmlns="http://www.w3.org/2000/svg" viewBox="0 0 180 60"><g transform="translate(0,20)"><path class="area" fill="rgba(0, 0, 0, 0.2)" d="M0,37.333333333333336C1.0344827586206897,38,2.068965517241379,38.666666666666664,3.103448275862069,38.666666666666664C4.137931034482759,38.666666666666664,5.172413793103448,37.24444444444443,6.206896551724138,37.06666666666666C7.241379310344827,36.88888888888889,8.275862068965516,36.800000000000004,9.310344827586206,36.800000000000004C10.344827586206897,36.800000000000004,11.379310344827585,37.599999999999994,12.413793103448276,37.599999999999994C13.448275862068966,37.599999999999994,14.482758620689655,36.800000000000004,15.517241379310345,36.800000000000004C16.551724137931036,36.800000000000004,17.586206896551722,37.06666666666666,18.620689655172413,37.06666666666666C19.655172413793103,37.06666666666666,20.689655172413794,36.75555555555555,21.724137931034484,36.53333333333333C22.758620689655174,36.31111111111111,23.79310344827586,36.13333333333333,24.82758620689655,35.733333333333334C25.862068965517242,35.333333333333336,26.896551724137932,35.111111111111114,27.931034482758623,34.13333333333333C28.965517241379313,33.15555555555555,30,29.866666666666664,31.03448275862069,29.866666666666664C32.06896551724138,29.866666666666664,33.103448275862064,32.04444444444445,34.137931034482754,32.800000000000004C35.172413793103445,33.555555555555564,36.206896551724135,34.4,37.241379310344826,34.4C38.275862068965516,34.4,39.310344827586206,31.466666666666665,40.3448275862069,31.466666666666665C41.37931034482759,31.466666666666665,42.41379310344828,32.622222222222234,43.44827586206897,32.800000000000004C44.48275862068966,32.977777777777774,45.51724137931035,33.06666666666666,46.55172413793104,33.06666666666666C47.58620689655173,33.06666666666666,48.62068965517241,27.77777777777778,49.6551724137931,24C50.689655172413794,20.22222222222222,51.72413793103448,10.4,52.75862068965517,10.4C53.79310344827586,10.4,54.827586206896555,29.42222222222221,55.862068965517246,32.266666666666666C56.896551724137936,35.11111111111111,57.93103448275862,36.53333333333333,58.96551724137931,36.53333333333333C60,36.53333333333333,61.03448275862069,30.666666666666664,62.06896551724138,30.666666666666664C63.10344827586207,30.666666666666664,64.13793103448276,32.800000000000004,65.17241379310344,32.800000000000004C66.20689655172413,32.800000000000004,67.24137931034483,31.733333333333334,68.27586206896551,31.733333333333334C69.3103448275862,31.733333333333334,70.34482758620689,32.08888888888889,71.37931034482759,32.53333333333333C72.41379310344827,32.977777777777774,73.44827586206897,34.044444444444444,74.48275862068965,34.4C75.51724137931033,34.75555555555555,76.55172413793103,34.93333333333333,77.58620689655172,34.93333333333333C78.62068965517241,34.93333333333333,79.6551724137931,34.44444444444445,80.6896551724138,33.86666666666667C81.72413793103448,33.28888888888889,82.75862068965517,31.466666666666665,83.79310344827586,31.466666666666665C84.82758620689656,31.466666666666665,85.86206896551724,33.86666666666667,86.89655172413794,33.86666666666667C87.93103448275862,33.86666666666667,88.96551724137932,32.800000000000004,90,32.800000000000004C91.0344827586207,32.800000000000004,92.06896551724138,33.86666666666667,93.10344827586208,33.86666666666667C94.13793103448276,33.86666666666667,95.17241379310344,33.24444444444445,96.20689655172413,32.800000000000004C97.24137931034483,32.35555555555556,98.27586206896551,32.26666666666667,99.3103448275862,31.200000000000003C100.3448275862069,30.133333333333336,101.37931034482759,27.555555555555557,102.41379310344828,26.4C103.44827586206897,25.24444444444445,104.48275862068965,24.93333333333333,105.51724137931033,24.266666666666666C106.55172413793103,23.599999999999998,107.58620689655172,22.400000000000002,108.62068965517241,22.400000000000002C109.65517241379311,22.400000000000002,110.6896551724138,27.733333333333334,111.72413793103449,27.733333333333334C112.75862068965517,27.733333333333334,113.79310344827587,18.666666666666668,114.82758620689656,18.666666666666668C115.86206896551724,18.666666666666668,116.89655172413794,31.466666666666665,117.93103448275862,31.466666666666665C118.96551724137932,31.466666666666665,120,26.133333333333333,121.0344827586207,26.133333333333333C122.06896551724138,26.133333333333333,123.10344827586208,31.200000000000003,124.13793103448276,31.200000000000003C125.17241379310344,31.200000000000003,126.20689655172414,30.311111111111114,127.24137931034483,30.133333333333333C128.27586206896552,29.955555555555552,129.3103448275862,29.866666666666664,130.3448275862069,29.866666666666664C131.3793103448276,29.866666666666664,132.41379310344828,30.666666666666664,133.44827586206898,30.666666666666664C134.48275862068965,30.666666666666664,135.51724137931035,30.666666666666664,136.55172413793102,30.666666666666664C137.58620689655172,30.666666666666664,138.6206896551724,30.755555555555553,139.6551724137931,30.933333333333334C140.6896551724138,31.11111111111111,141.72413793103448,31.200000000000003,142.75862068965517,31.733333333333334C143.79310344827587,32.266666666666666,144.82758620689654,34.13333333333333,145.86206896551724,34.13333333333333C146.89655172413794,34.13333333333333,147.9310344827586,32,148.9655172413793,32C150,32,151.0344827586207,32.08888888888889,152.0689655172414,32.266666666666666C153.10344827586206,32.44444444444444,154.13793103448276,34.088888888888896,155.17241379310343,34.66666666666667C156.20689655172413,35.24444444444446,157.24137931034483,35.24444444444445,158.27586206896552,35.733333333333334C159.31034482758622,36.22222222222222,160.3448275862069,37.599999999999994,161.3793103448276,37.599999999999994C162.41379310344828,37.599999999999994,163.44827586206895,34.4,164.48275862068965,34.4C165.51724137931035,34.4,166.55172413793102,35.2,167.58620689655172,35.2C168.6206896551724,35.2,169.6551724137931,35.2,170.6896551724138,35.2C171.7241379310345,35.2,172.75862068965517,35.2,173.79310344827587,35.2C174.82758620689657,35.2,175.86206896551724,36.800000000000004,176.89655172413794,36.800000000000004C177.93103448275863,36.800000000000004,178.9655172413793,36.53333333333333,180,36.266666666666666L180,40C178.9655172413793,40,177.93103448275863,40,176.89655172413794,40C175.86206896551724,40,174.82758620689657,40,173.79310344827587,40C172.75862068965517,40,171.7241379310345,40,170.6896551724138,40C169.6551724137931,40,168.6206896551724,40,167.58620689655172,40C166.55172413793102,40,165.51724137931035,40,164.48275862068965,40C163.44827586206895,40,162.41379310344828,40,161.3793103448276,40C160.3448275862069,40,159.31034482758622,40,158.27586206896552,40C157.24137931034483,40,156.20689655172413,40,155.17241379310343,40C154.13793103448276,40,153.10344827586206,40,152.0689655172414,40C151.0344827586207,40,150,40,148.9655172413793,40C147.9310344827586,40,146.89655172413794,40,145.86206896551724,40C144.82758620689654,40,143.79310344827587,40,142.75862068965517,40C141.72413793103448,40,140.6896551724138,40,139.6551724137931,40C138.6206896551724,40,137.58620689655172,40,136.55172413793102,40C135.51724137931035,40,134.48275862068965,40,133.44827586206898,40C132.41379310344828,40,131.3793103448276,40,130.3448275862069,40C129.3103448275862,40,128.27586206896552,40,127.24137931034483,40C126.20689655172414,40,125.17241379310344,40,124.13793103448276,40C123.10344827586208,40,122.06896551724138,40,121.0344827586207,40C120,40,118.96551724137932,40,117.93103448275862,40C116.89655172413794,40,115.86206896551724,40,114.82758620689656,40C113.79310344827587,40,112.75862068965517,40,111.72413793103449,40C110.6896551724138,40,109.65517241379311,40,108.62068965517241,40C107.58620689655172,40,106.55172413793103,40,105.51724137931033,40C104.48275862068965,40,103.44827586206897,40,102.41379310344828,40C101.37931034482759,40,100.3448275862069,40,99.3103448275862,40C98.27586206896551,40,97.24137931034483,40,96.20689655172413,40C95.17241379310344,40,94.13793103448276,40,93.10344827586208,40C92.06896551724138,40,91.0344827586207,40,90,40C88.96551724137932,40,87.93103448275862,40,86.89655172413794,40C85.86206896551724,40,84.82758620689656,40,83.79310344827586,40C82.75862068965517,40,81.72413793103448,40,80.6896551724138,40C79.6551724137931,40,78.62068965517241,40,77.58620689655172,40C76.55172413793103,40,75.51724137931033,40,74.48275862068965,40C73.44827586206897,40,72.41379310344827,40,71.37931034482759,40C70.34482758620689,40,69.3103448275862,40,68.27586206896551,40C67.24137931034483,40,66.20689655172413,40,65.17241379310344,40C64.13793103448276,40,63.10344827586207,40,62.06896551724138,40C61.03448275862069,40,60,40,58.96551724137931,40C57.93103448275862,40,56.896551724137936,40,55.862068965517246,40C54.827586206896555,40,53.79310344827586,40,52.75862068965517,40C51.72413793103448,40,50.689655172413794,40,49.6551724137931,40C48.62068965517241,40,47.58620689655173,40,46.55172413793104,40C45.51724137931035,40,44.48275862068966,40,43.44827586206897,40C42.41379310344828,40,41.37931034482759,40,40.3448275862069,40C39.310344827586206,40,38.275862068965516,40,37.241379310344826,40C36.206896551724135,40,35.172413793103445,40,34.137931034482754,40C33.103448275862064,40,32.06896551724138,40,31.03448275862069,40C30,40,28.965517241379313,40,27.931034482758623,40C26.896551724137932,40,25.862068965517242,40,24.82758620689655,40C23.79310344827586,40,22.758620689655174,40,21.724137931034484,40C20.689655172413794,40,19.655172413793103,40,18.620689655172413,40C17.586206896551722,40,16.551724137931036,40,15.517241379310345,40C14.482758620689655,40,13.448275862068966,40,12.413793103448276,40C11.379310344827585,40,10.344827586206897,40,9.310344827586206,40C8.275862068965516,40,7.241379310344827,40,6.206896551724138,40C5.172413793103448,40,4.137931034482759,40,3.103448275862069,40C2.068965517241379,40,1.0344827586206897,40,0,40Z"></path><path class="line" stroke="black" fill="none" d="M0,37.333333333333336C1.0344827586206897,38,2.068965517241379,38.666666666666664,3.103448275862069,38.666666666666664C4.137931034482759,38.666666666666664,5.172413793103448,37.24444444444443,6.206896551724138,37.06666666666666C7.241379310344827,36.88888888888889,8.275862068965516,36.800000000000004,9.310344827586206,36.800000000000004C10.344827586206897,36.800000000000004,11.379310344827585,37.599999999999994,12.413793103448276,37.599999999999994C13.448275862068966,37.599999999999994,14.482758620689655,36.800000000000004,15.517241379310345,36.800000000000004C16.551724137931036,36.800000000000004,17.586206896551722,37.06666666666666,18.620689655172413,37.06666666666666C19.655172413793103,37.06666666666666,20.689655172413794,36.75555555555555,21.724137931034484,36.53333333333333C22.758620689655174,36.31111111111111,23.79310344827586,36.13333333333333,24.82758620689655,35.733333333333334C25.862068965517242,35.333333333333336,26.896551724137932,35.111111111111114,27.931034482758623,34.13333333333333C28.965517241379313,33.15555555555555,30,29.866666666666664,31.03448275862069,29.866666666666664C32.06896551724138,29.866666666666664,33.103448275862064,32.04444444444445,34.137931034482754,32.800000000000004C35.172413793103445,33.555555555555564,36.206896551724135,34.4,37.241379310344826,34.4C38.275862068965516,34.4,39.310344827586206,31.466666666666665,40.3448275862069,31.466666666666665C41.37931034482759,31.466666666666665,42.41379310344828,32.622222222222234,43.44827586206897,32.800000000000004C44.48275862068966,32.977777777777774,45.51724137931035,33.06666666666666,46.55172413793104,33.06666666666666C47.58620689655173,33.06666666666666,48.62068965517241,27.77777777777778,49.6551724137931,24C50.689655172413794,20.22222222222222,51.72413793103448,10.4,52.75862068965517,10.4C53.79310344827586,10.4,54.827586206896555,29.42222222222221,55.862068965517246,32.266666666666666C56.896551724137936,35.11111111111111,57.93103448275862,36.53333333333333,58.96551724137931,36.53333333333333C60,36.53333333333333,61.03448275862069,30.666666666666664,62.06896551724138,30.666666666666664C63.10344827586207,30.666666666666664,64.13793103448276,32.800000000000004,65.17241379310344,32.800000000000004C66.20689655172413,32.800000000000004,67.24137931034483,31.733333333333334,68.27586206896551,31.733333333333334C69.3103448275862,31.733333333333334,70.34482758620689,32.08888888888889,71.37931034482759,32.53333333333333C72.41379310344827,32.977777777777774,73.44827586206897,34.044444444444444,74.48275862068965,34.4C75.51724137931033,34.75555555555555,76.55172413793103,34.93333333333333,77.58620689655172,34.93333333333333C78.62068965517241,34.93333333333333,79.6551724137931,34.44444444444445,80.6896551724138,33.86666666666667C81.72413793103448,33.28888888888889,82.75862068965517,31.466666666666665,83.79310344827586,31.466666666666665C84.82758620689656,31.466666666666665,85.86206896551724,33.86666666666667,86.89655172413794,33.86666666666667C87.93103448275862,33.86666666666667,88.96551724137932,32.800000000000004,90,32.800000000000004C91.0344827586207,32.800000000000004,92.06896551724138,33.86666666666667,93.10344827586208,33.86666666666667C94.13793103448276,33.86666666666667,95.17241379310344,33.24444444444445,96.20689655172413,32.800000000000004C97.24137931034483,32.35555555555556,98.27586206896551,32.26666666666667,99.3103448275862,31.200000000000003C100.3448275862069,30.133333333333336,101.37931034482759,27.555555555555557,102.41379310344828,26.4C103.44827586206897,25.24444444444445,104.48275862068965,24.93333333333333,105.51724137931033,24.266666666666666C106.55172413793103,23.599999999999998,107.58620689655172,22.400000000000002,108.62068965517241,22.400000000000002C109.65517241379311,22.400000000000002,110.6896551724138,27.733333333333334,111.72413793103449,27.733333333333334C112.75862068965517,27.733333333333334,113.79310344827587,18.666666666666668,114.82758620689656,18.666666666666668C115.86206896551724,18.666666666666668,116.89655172413794,31.466666666666665,117.93103448275862,31.466666666666665C118.96551724137932,31.466666666666665,120,26.133333333333333,121.0344827586207,26.133333333333333C122.06896551724138,26.133333333333333,123.10344827586208,31.200000000000003,124.13793103448276,31.200000000000003C125.17241379310344,31.200000000000003,126.20689655172414,30.311111111111114,127.24137931034483,30.133333333333333C128.27586206896552,29.955555555555552,129.3103448275862,29.866666666666664,130.3448275862069,29.866666666666664C131.3793103448276,29.866666666666664,132.41379310344828,30.666666666666664,133.44827586206898,30.666666666666664C134.48275862068965,30.666666666666664,135.51724137931035,30.666666666666664,136.55172413793102,30.666666666666664C137.58620689655172,30.666666666666664,138.6206896551724,30.755555555555553,139.6551724137931,30.933333333333334C140.6896551724138,31.11111111111111,141.72413793103448,31.200000000000003,142.75862068965517,31.733333333333334C143.79310344827587,32.266666666666666,144.82758620689654,34.13333333333333,145.86206896551724,34.13333333333333C146.89655172413794,34.13333333333333,147.9310344827586,32,148.9655172413793,32C150,32,151.0344827586207,32.08888888888889,152.0689655172414,32.266666666666666C153.10344827586206,32.44444444444444,154.13793103448276,34.088888888888896,155.17241379310343,34.66666666666667C156.20689655172413,35.24444444444446,157.24137931034483,35.24444444444445,158.27586206896552,35.733333333333334C159.31034482758622,36.22222222222222,160.3448275862069,37.599999999999994,161.3793103448276,37.599999999999994C162.41379310344828,37.599999999999994,163.44827586206895,34.4,164.48275862068965,34.4C165.51724137931035,34.4,166.55172413793102,35.2,167.58620689655172,35.2C168.6206896551724,35.2,169.6551724137931,35.2,170.6896551724138,35.2C171.7241379310345,35.2,172.75862068965517,35.2,173.79310344827587,35.2C174.82758620689657,35.2,175.86206896551724,36.800000000000004,176.89655172413794,36.800000000000004C177.93103448275863,36.800000000000004,178.9655172413793,36.53333333333333,180,36.266666666666666"></path><path class="axis-ceiling" stroke-width="1" stroke="black" fill="none" d="M175,0L180,0"></path><text class="axis-ceiling-label" font-family="sans-serif" text-anchor="end" font-size="10px" x="170" y="2.5">150</text></g></svg>