<svg xmlns="http://www.w3.org/2000/svg" viewBox="0 0 180 60"><g transform="translate(0,20)"><path class="area" fill="rgba(0, 0, 0, 0.2)" d="M0,18.4C1.0169491525423728,18.38,2.0338983050847457,18.360000000000003,3.0508474576271185,18.304000000000002C4.067796610169491,18.248,5.084745762711864,18.168,6.101694915254237,18.064C7.11864406779661,17.96,8.135593220338983,17.68,9.152542372881356,17.68C10.169491525423728,17.68,11.186440677966102,19.504,12.203389830508474,19.504C13.220338983050846,19.504,14.23728813559322,19.144000000000002,15.254237288135592,18.944000000000003C16.271186440677965,18.744000000000003,17.28813559322034,18.541333333333338,18.305084745762713,18.304000000000002C19.322033898305087,18.066666666666666,20.338983050847457,17.519999999999996,21.35593220338983,17.519999999999996C22.372881355932204,17.519999999999996,23.389830508474574,18.186666666666664,24.406779661016948,18.479999999999997C25.423728813559322,18.77333333333333,26.440677966101696,19.074666666666666,27.45762711864407,19.28C28.47457627118644,19.485333333333333,29.491525423728813,19.712,30.508474576271183,19.712C31.525423728813557,19.712,32.54237288135593,17.040000000000003,33.559322033898304,16.272000000000002C34.57627118644068,15.504000000000003,35.59322033898305,15.413333333333336,36.610169491525426,15.104000000000003C37.6271186440678,14.79466666666667,38.644067796610166,14.722666666666669,39.66101694915254,14.416000000000002C40.67796610169491,14.109333333333336,41.69491525423729,14.026666666666667,42.71186440677966,13.264C43.728813559322035,12.501333333333333,44.7457627118644,10.792,45.762711864406775,9.84C46.77966101694915,8.887999999999998,47.79661016949152,8.255999999999998,48.813559322033896,7.551999999999999C49.83050847457627,6.847999999999999,50.847457627118644,5.754666666666665,51.86440677966102,5.615999999999999C52.88135593220339,5.477333333333332,53.898305084745765,5.4079999999999995,54.91525423728814,5.4079999999999995C55.93220338983051,5.4079999999999995,56.94915254237288,5.503999999999998,57.96610169491525,5.503999999999998C58.983050847457626,5.503999999999998,59.99999999999999,5.455999999999999,61.01694915254237,5.455999999999999C62.03389830508474,5.455999999999999,63.05084745762712,5.573333333333331,64.0677966101695,5.663999999999998C65.08474576271186,5.754666666666665,66.10169491525424,5.968000000000002,67.11864406779661,6.000000000000001C68.13559322033899,6.032,69.15254237288136,6.048,70.16949152542374,6.048C71.1864406779661,6.048,72.20338983050848,6.015999999999999,73.22033898305085,6.015999999999999C74.23728813559322,6.015999999999999,75.2542372881356,6.394666666666664,76.27118644067797,6.591999999999998C77.28813559322033,6.789333333333332,78.30508474576271,6.933333333333336,79.32203389830508,7.200000000000002C80.33898305084746,7.4666666666666694,81.35593220338983,7.930666666666667,82.37288135593221,8.192C83.38983050847457,8.453333333333331,84.40677966101696,8.490666666666666,85.42372881355932,8.767999999999997C86.4406779661017,9.04533333333333,87.45762711864407,9.405333333333328,88.47457627118645,9.855999999999998C89.49152542372882,10.306666666666665,90.50847457627118,10.93066666666667,91.52542372881355,11.472000000000001C92.54237288135593,12.013333333333339,93.55932203389831,12.562666666666662,94.57627118644069,13.104C95.59322033898306,13.645333333333328,96.61016949152543,14.229333333333333,97.62711864406779,14.719999999999999C98.64406779661016,15.210666666666667,99.66101694915254,15.752000000000002,100.6779661016949,16.048000000000002C101.69491525423729,16.344000000000005,102.71186440677965,16.250666666666664,103.72881355932203,16.496C104.7457627118644,16.74133333333333,105.76271186440678,17.11733333333333,106.77966101694915,17.519999999999996C107.79661016949153,17.922666666666665,108.8135593220339,18.592,109.83050847457628,18.912C110.84745762711864,19.232,111.86440677966102,19.272,112.88135593220339,19.439999999999998C113.89830508474576,19.607999999999997,114.91525423728814,19.776,115.9322033898305,19.92C116.94915254237289,20.064000000000004,117.96610169491525,20.304000000000002,118.98305084745763,20.304000000000002C120,20.304000000000002,121.01694915254237,20.128,122.03389830508473,20.128C123.05084745762711,20.128,124.0677966101695,20.208,125.08474576271188,20.208C126.10169491525424,20.208,127.11864406779662,20.208,128.135593220339,20.208C129.15254237288136,20.208,130.16949152542372,20.016,131.1864406779661,20.016C132.20338983050846,20.016,133.22033898305085,20.064,134.23728813559322,20.064C135.25423728813558,20.064,136.27118644067798,19.850666666666665,137.28813559322035,19.808C138.3050847457627,19.765333333333334,139.3220338983051,19.744,140.33898305084747,19.744C141.35593220338984,19.744,142.3728813559322,20.016,143.38983050847457,20.016C144.40677966101694,20.016,145.42372881355934,19.887999999999998,146.4406779661017,19.887999999999998C147.45762711864407,19.887999999999998,148.47457627118644,20.074666666666666,149.4915254237288,20.176C150.50847457627117,20.27733333333333,151.52542372881356,20.496,152.54237288135593,20.496C153.5593220338983,20.496,154.5762711864407,20.384,155.59322033898306,20.384C156.61016949152543,20.384,157.6271186440678,20.773333333333333,158.64406779661016,20.896C159.66101694915253,21.018666666666668,160.67796610169492,21.040000000000003,161.6949152542373,21.12C162.71186440677965,21.2,163.72881355932205,21.306666666666665,164.74576271186442,21.375999999999998C165.76271186440678,21.44533333333333,166.77966101694915,21.536,167.79661016949152,21.536C168.81355932203388,21.536,169.83050847457628,21.453333333333333,170.84745762711864,21.36C171.864406779661,21.266666666666666,172.8813559322034,21.090666666666667,173.89830508474577,20.976C174.91525423728814,20.86133333333333,175.93220338983053,20.671999999999997,176.9491525423729,20.671999999999997C177.96610169491527,20.671999999999997,178.98305084745763,22.056,180,23.440000000000005L180,40C178.98305084745763,40,177.96610169491527,40,176.9491525423729,40C175.93220338983053,40,174.91525423728814,40,173.89830508474577,40C172.8813559322034,40,171.864406779661,40,170.84745762711864,40C169.83050847457628,40,168.81355932203388,40,167.79661016949152,40C166.77966101694915,40,165.76271186440678,40,164.74576271186442,40C163.72881355932205,40,162.71186440677965,40,161.6949152542373,40C160.67796610169492,40,159.66101694915253,40,158.64406779661016,40C157.6271186440678,40,156.61016949152543,40,155.59322033898306,40C154.5762711864407,40,153.5593220338983,40,152.54237288135593,40C151.52542372881356,40,150.50847457627117,40,149.4915254237288,40C148.47457627118644,40,147.45762711864407,40,146.4406779661017,40C145.42372881355934,40,144.40677966101694,40,143.38983050847457,40C142.3728813559322,40,141.35593220338984,40,140.33898305084747,40C139.3220338983051,40,138.3050847457627,40,137.28813559322035,40C136.27118644067798,40,135.25423728813558,40,134.23728813559322,40C133.22033898305085,40,132.20338983050846,40,131.1864406779661,40C130.16949152542372,40,129.15254237288136,40,128.135593220339,40C127.11864406779662,40,126.10169491525424,40,125.08474576271188,40C124.0677966101695,40,123.05084745762711,40,122.03389830508473,40C121.01694915254237,40,120,40,118.98305084745763,40C117.96610169491525,40,116.94915254237289,40,115.9322033898305,40C114.91525423728814,40,113.89830508474576,40,112.88135593220339,40C111.86440677966102,40,110.84745762711864,40,109.83050847457628,40C108.8135593220339,40,107.79661016949153,40,106.77966101694915,40C105.76271186440678,40,104.7457627118644,40,103.72881355932203,40C102.71186440677965,40,101.69491525423729,40,100.6779661016949,40C99.66101694915254,40,98.64406779661016,40,97.62711864406779,40C96.61016949152543,40,95.59322033898306,40,94.57627118644069,40C93.55932203389831,40,92.54237288135593,40,91.52542372881355,40C90.50847457627118,40,89.49152542372882,40,88.47457627118645,40C87.45762711864407,40,86.4406779661017,40,85.42372881355932,40C84.40677966101696,40,83.38983050847457,40,82.37288135593221,40C81.35593220338983,40,80.33898305084746,40,79.32203389830508,40C78.30508474576271,40,77.28813559322033,40,76.27118644067797,40C75.2542372881356,40,74.23728813559322,40,73.22033898305085,40C72.20338983050848,40,71.1864406779661,40,70.16949152542374,40C69.15254237288136,40,68.13559322033899,40,67.11864406779661,40C66.10169491525424,40,65.08474576271186,40,64.0677966101695,40C63.05084745762712,40,62.03389830508474,40,61.01694915254237,40C59.99999999999999,40,58.983050847457626,40,57.96610169491525,40C56.94915254237288,40,55.93220338983051,40,54.91525423728814,40C53.898305084745765,40,52.88135593220339,40,51.86440677966102,40C50.847457627118644,40,49.83050847457627,40,48.813559322033896,40C47.79661016949152,40,46.77966101694915,40,45.762711864406775,40C44.7457627118644,40,43.728813559322035,40,42.71186440677966,40C41.69491525423729,40,40.67796610169491,40,39.66101694915254,40C38.644067796610166,40,37.6271186440678,40,36.610169491525426,40C35.59322033898305,40,34.57627118644068,40,33.559322033898304,40C32.54237288135593,40,31.525423728813557,40,30.508474576271183,40C29.491525423728813,40,28.47457627118644,40,27.45762711864407,40C26.440677966101696,40,25.423728813559322,40,24.406779661016948,40C23.389830508474574,40,22.372881355932204,40,21.35593220338983,40C20.338983050847457,40,19.322033898305087,40,18.305084745762713,40C17.28813559322034,40,16.271186440677965,40,15.254237288135592,40C14.23728813559322,40,13.220338983050846,40,12.203389830508474,40C11.186440677966102,40,10.169491525423728,40,9.152542372881356,40C8.135593220338983,40,7.11864406779661,40,6.101694915254237,40C5.084745762711864,40,4.067796610169491,40,3.0508474576271185,40C2.0338983050847457,40,1.0169491525423728,40,0,40Z"></path><path class="line" stroke="black" fill="none" d="M0,18.4C1.0169491525423728,18.38,2.0338983050847457,18.360000000000003,3.0508474576271185,18.304000000000002C4.067796610169491,18.248,5.084745762711864,18.168,6.101694915254237,18.064C7.11864406779661,17.96,8.135593220338983,17.68,9.152542372881356,17.68C10.169491525423728,17.68,11.186440677966102,19.504,12.203389830508474,19.504C13.220338983050846,19.504,14.23728813559322,19.144000000000002,15.254237288135592,18.944000000000003C16.271186440677965,18.744000000000003,17.28813559322034,18.541333333333338,18.305084745762713,18.304000000000002C19.322033898305087,18.066666666666666,20.338983050847457,17.519999999999996,21.35593220338983,17.519999999999996C22.372881355932204,17.519999999999996,23.389830508474574,18.186666666666664,24.406779661016948,18.479999999999997C25.423728813559322,18.77333333333333,26.440677966101696,19.074666666666666,27.45762711864407,19.28C28.47457627118644,19.485333333333333,29.491525423728813,19.712,30.508474576271183,19.712C31.525423728813557,19.712,32.54237288135593,17.040000000000003,33.559322033898304,16.272000000000002C34.57627118644068,15.504000000000003,35.59322033898305,15.413333333333336,36.610169491525426,15.104000000000003C37.6271186440678,14.79466666666667,38.644067796610166,14.722666666666669,39.66101694915254,14.416000000000002C40.67796610169491,14.109333333333336,41.69491525423729,14.026666666666667,42.71186440677966,13.264C43.728813559322035,12.501333333333333,44.7457627118644,10.792,45.762711864406775,9.84C46.77966101694915,8.887999999999998,47.79661016949152,8.255999999999998,48.813559322033896,7.551999999999999C49.83050847457627,6.847999999999999,50.847457627118644,5.754666666666665,51.86440677966102,5.615999999999999C52.88135593220339,5.477333333333332,53.898305084745765,5.4079999999999995,54.91525423728814,5.4079999999999995C55.93220338983051,5.4079999999999995,56.94915254237288,5.503999999999998,57.96610169491525,5.503999999999998C58.983050847457626,5.503999999999998,59.99999999999999,5.455999999999999,61.01694915254237,5.455999999999999C62.03389830508474,5.455999999999999,63.05084745762712,5.573333333333331,64.0677966101695,5.663999999999998C65.08474576271186,5.754666666666665,66.10169491525424,5.968000000000002,67.11864406779661,6.000000000000001C68.13559322033899,6.032,69.15254237288136,6.048,70.16949152542374,6.048C71.1864406779661,6.048,72.20338983050848,6.015999999999999,73.22033898305085,6.015999999999999C74.23728813559322,6.015999999999999,75.2542372881356,6.394666666666664,76.27118644067797,6.591999999999998C77.28813559322033,6.789333333333332,78.30508474576271,6.933333333333336,79.32203389830508,7.200000000000002C80.33898305084746,7.4666666666666694,81.35593220338983,7.930666666666667,82.37288135593221,8.192C83.38983050847457,8.453333333333331,84.40677966101696,8.490666666666666,85.42372881355932,8.767999999999997C86.4406779661017,9.04533333333333,87.45762711864407,9.405333333333328,88.47457627118645,9.855999999999998C89.49152542372882,10.306666666666665,90.50847457627118,10.93066666666667,91.52542372881355,11.472000000000001C92.54237288135593,12.013333333333339,93.55932203389831,12.562666666666662,94.57627118644069,13.104C95.59322033898306,13.645333333333328,96.61016949152543,14.229333333333333,97.62711864406779,14.719999999999999C98.64406779661016,15.210666666666667,99.66101694915254,15.752000000000002,100.6779661016949,16.048000000000002C101.69491525423729,16.344000000000005,102.71186440677965,16.250666666666664,103.72881355932203,16.496C104.7457627118644,16.74133333333333,105.76271186440678,17.11733333333333,106.77966101694915,17.519999999999996C107.79661016949153,17.922666666666665,108.8135593220339,18.592,109.83050847457628,18.912C110.84745762711864,19.232,111.86440677966102,19.272,112.88135593220339,19.439999999999998C113.89830508474576,19.607999999999997,114.91525423728814,19.776,115.9322033898305,19.92C116.94915254237289,20.064000000000004,117.96610169491525,20.304000000000002,118.98305084745763,20.304000000000002C120,20.304000000000002,121.01694915254237,20.128,122.03389830508473,20.128C123.05084745762711,20.128,124.0677966101695,20.208,125.08474576271188,20.208C126.10169491525424,20.208,127.11864406779662,20.208,128.135593220339,20.208C129.15254237288136,20.208,130.16949152542372,20.016,131.1864406779661,20.016C132.20338983050846,20.016,133.22033898305085,20.064,134.23728813559322,20.064C135.25423728813558,20.064,136.27118644067798,19.850666666666665,137.28813559322035,19.808C138.3050847457627,19.765333333333334,139.3220338983051,19.744,140.33898305084747,19.744C141.35593220338984,19.744,142.3728813559322,20.016,143.38983050847457,20.016C144.40677966101694,20.016,145.42372881355934,19.887999999999998,146.4406779661017,19.887999999999998C147.45762711864407,19.887999999999998,148.47457627118644,20.074666666666666,149.4915254237288,20.176C150.50847457627117,20.27733333333333,151.52542372881356,20.496,152.54237288135593,20.496C153.5593220338983,20.496,154.5762711864407,20.384,155.59322033898306,20.384C156.61016949152543,20.384,157.6271186440678,20.773333333333333,158.64406779661016,20.896C159.66101694915253,21.018666666666668,160.67796610169492,21.040000000000003,161.6949152542373,21.12C162.71186440677965,21.2,163.72881355932205,21.306666666666665,164.74576271186442,21.375999999999998C165.76271186440678,21.44533333333333,166.77966101694915,21.536,167.79661016949152,21.536C168.81355932203388,21.536,169.83050847457628,21.453333333333333,170.84745762711864,21.36C171.864406779661,21.266666666666666,172.8813559322034,21.090666666666667,173.89830508474577,20.976C174.91525423728814,20.86133333333333,175.93220338983053,20.671999999999997,176.9491525423729,20.671999999999997C177.96610169491527,20.671999999999997,178.98305084745763,22.056,180,23.440000000000005"></path><path class="axis-ceiling" stroke-width="1" stroke="black" fill="none" d="M175,0L180,0"></path><text class="axis-ceiling-label" font-family="sans-serif" text-anchor="end" font-size="10px" x="170" y="2.5">2500</text></g></svg>