<svg xmlns="http://www.w3.org/2000/svg" viewBox="0 0 180 60"><g transform="translate(0,20)"><path class="area" fill="rgba(0, 0, 0, 0.2)" d="M0,32.400000000000006C1.0344827586206897,32.95,2.068965517241379,33.5,3.103448275862069,34C4.137931034482759,34.5,5.172413793103448,34.93333333333333,6.206896551724138,35.4C7.241379310344827,35.86666666666667,8.275862068965516,36.800000000000004,9.310344827586206,36.800000000000004C10.344827586206897,36.800000000000004,11.379310344827585,35.03333333333333,12.413793103448276,34.4C13.448275862068966,33.766666666666666,14.482758620689655,33.5,15.517241379310345,33C16.551724137931036,32.5,17.586206896551722,31.533333333333335,18.620689655172413,31.400000000000002C19.655172413793103,31.26666666666667,20.689655172413794,31.333333333333336,21.724137931034484,31.200000000000003C22.758620689655174,31.06666666666667,23.79310344827586,26.799999999999997,24.82758620689655,26.799999999999997C25.862068965517242,26.799999999999997,26.896551724137932,34.400000000000006,27.931034482758623,35.2C28.965517241379313,36,30,36.4,31.03448275862069,36.4C32.06896551724138,36.4,33.103448275862064,25,34.137931034482754,25C35.172413793103445,25,36.206896551724135,26.4,37.241379310344826,26.4C38.275862068965516,26.4,39.310344827586206,25.3,40.3448275862069,24.6C41.37931034482759,23.900000000000002,42.41379310344828,22.899999999999995,43.44827586206897,22.199999999999996C44.48275862068966,21.499999999999996,45.51724137931035,20.4,46.55172413793104,20.4C47.58620689655173,20.4,48.62068965517241,24.53333333333333,49.6551724137931,26.4C50.689655172413794,28.266666666666666,51.72413793103448,31.6,52.75862068965517,31.6C53.79310344827586,31.6,54.827586206896555,24.900000000000002,55.862068965517246,22.599999999999998C56.896551724137936,20.300000000000004,57.93103448275862,17.799999999999997,58.96551724137931,17.799999999999997C60,17.799999999999997,61.03448275862069,21.4,62.06896551724138,21.4C63.10344827586207,21.4,64.13793103448276,20.2,65.17241379310344,19.4C66.20689655172413,18.599999999999998,67.24137931034483,16.6,68.27586206896551,16.6C69.3103448275862,16.6,70.34482758620689,18.56666666666666,71.37931034482759,20.8C72.41379310344827,23.03333333333333,73.44827586206897,30,74.48275862068965,30C75.51724137931033,30,76.55172413793103,23.899999999999988,77.58620689655172,20.4C78.62068965517241,16.89999999999999,79.6551724137931,9,80.6896551724138,9C81.72413793103448,9,82.75862068965517,11.200000000000003,83.79310344827586,12.000000000000002C84.82758620689656,12.800000000000004,85.86206896551724,13.799999999999999,86.89655172413794,13.799999999999999C87.93103448275862,13.799999999999999,88.96551724137932,10.8,90,10.8C91.0344827586207,10.8,92.06896551724138,17.766666666666648,93.10344827586208,21.4C94.13793103448276,25.033333333333314,95.17241379310344,32.599999999999994,96.20689655172413,32.599999999999994C97.24137931034483,32.599999999999994,98.27586206896551,16.6,99.3103448275862,15C100.3448275862069,13.399999999999999,101.37931034482759,12.599999999999998,102.41379310344828,12.599999999999998C103.44827586206897,12.599999999999998,104.48275862068965,12.799999999999999,105.51724137931033,13.2C106.55172413793103,13.600000000000003,107.58620689655172,19.4,108.62068965517241,19.4C109.65517241379311,19.4,110.6896551724138,6.600000000000001,111.72413793103449,6.600000000000001C112.75862068965517,6.600000000000001,113.79310344827587,17.633333333333336,114.82758620689656,21.6C115.86206896551724,25.566666666666666,116.89655172413794,30.4,117.93103448275862,30.4C118.96551724137932,30.4,120,17,121.0344827586207,17C122.06896551724138,17,123.10344827586208,21,124.13793103448276,21C125.17241379310344,21,126.20689655172414,16,127.24137931034483,16C128.27586206896552,16,129.3103448275862,23,130.3448275862069,23C131.3793103448276,23,132.41379310344828,16.6,133.44827586206898,16.6C134.48275862068965,16.6,135.51724137931035,24.366666666666667,136.55172413793102,26.799999999999997C137.58620689655172,29.23333333333337,138.6206896551724,31.200000000000003,139.6551724137931,31.200000000000003C140.6896551724138,31.200000000000003,141.72413793103448,22.800000000000004,142.75862068965517,22.800000000000004C143.79310344827587,22.800000000000004,144.82758620689654,27.400000000000002,145.86206896551724,27.400000000000002C146.89655172413794,27.400000000000002,147.9310344827586,24.8,148.9655172413793,24.8C150,24.8,151.0344827586207,28.200000000000003,152.0689655172414,28.200000000000003C153.10344827586206,28.200000000000003,154.13793103448276,19,155.17241379310343,19C156.20689655172413,19,157.24137931034483,28.6,158.27586206896552,28.6C159.31034482758622,28.6,160.3448275862069,28.6,161.3793103448276,28.6C162.41379310344828,28.6,163.44827586206895,33.4,164.48275862068965,33.4C165.51724137931035,33.4,166.55172413793102,27.400000000000002,167.58620689655172,27.400000000000002C168.6206896551724,27.400000000000002,169.6551724137931,32.199999999999996,170.6896551724138,32.199999999999996C171.7241379310345,32.199999999999996,172.75862068965517,25.06666666666667,173.79310344827587,23.6C174.82758620689657,22.133333333333333,175.86206896551724,22.099999999999998,176.89655172413794,21.4C177.93103448275863,20.7,178.9655172413793,20.049999999999997,180,19.4L180,40C178.9655172413793,40,177.93103448275863,40,176.89655172413794,40C175.86206896551724,40,174.82758620689657,40,173.79310344827587,40C172.75862068965517,40,171.7241379310345,40,170.6896551724138,40C169.6551724137931,40,168.6206896551724,40,167.58620689655172,40C166.55172413793102,40,165.51724137931035,40,164.48275862068965,40C163.44827586206895,40,162.41379310344828,40,161.3793103448276,40C160.3448275862069,40,159.31034482758622,40,158.27586206896552,40C157.24137931034483,40,156.20689655172413,40,155.17241379310343,40C154.13793103448276,40,153.10344827586206,40,152.0689655172414,40C151.0344827586207,40,150,40,148.9655172413793,40C147.9310344827586,40,146.89655172413794,40,145.86206896551724,40C144.82758620689654,40,143.79310344827587,40,142.75862068965517,40C141.72413793103448,40,140.6896551724138,40,139.6551724137931,40C138.6206896551724,40,137.58620689655172,40,136.55172413793102,40C135.51724137931035,40,134.48275862068965,40,133.44827586206898,40C132.41379310344828,40,131.3793103448276,40,130.3448275862069,40C129.3103448275862,40,128.27586206896552,40,127.24137931034483,40C126.20689655172414,40,125.17241379310344,40,124.13793103448276,40C123.10344827586208,40,122.06896551724138,40,121.0344827586207,40C120,40,118.96551724137932,40,117.93103448275862,40C116.89655172413794,40,115.86206896551724,40,114.82758620689656,40C113.79310344827587,40,112.75862068965517,40,111.72413793103449,40C110.6896551724138,40,109.65517241379311,40,108.62068965517241,40C107.58620689655172,40,106.55172413793103,40,105.51724137931033,40C104.48275862068965,40,103.44827586206897,40,102.41379310344828,40C101.37931034482759,40,100.3448275862069,40,99.3103448275862,40C98.27586206896551,40,97.24137931034483,40,96.20689655172413,40C95.17241379310344,40,94.13793103448276,40,93.10344827586208,40C92.06896551724138,40,91.0344827586207,40,90,40C88.96551724137932,40,87.93103448275862,40,86.89655172413794,40C85.86206896551724,40,84.82758620689656,40,83.79310344827586,40C82.75862068965517,40,81.72413793103448,40,80.6896551724138,40C79.6551724137931,40,78.62068965517241,40,77.58620689655172,40C76.55172413793103,40,75.51724137931033,40,74.48275862068965,40C73.44827586206897,40,72.41379310344827,40,71.37931034482759,40C70.34482758620689,40,69.3103448275862,40,68.27586206896551,40C67.24137931034483,40,66.20689655172413,40,65.17241379310344,40C64.13793103448276,40,63.10344827586207,40,62.06896551724138,40C61.03448275862069,40,60,40,58.96551724137931,40C57.93103448275862,40,56.896551724137936,40,55.862068965517246,40C54.827586206896555,40,53.79310344827586,40,52.75862068965517,40C51.72413793103448,40,50.689655172413794,40,49.6551724137931,40C48.62068965517241,40,47.58620689655173,40,46.55172413793104,40C45.51724137931035,40,44.48275862068966,40,43.44827586206897,40C42.41379310344828,40,41.37931034482759,40,40.3448275862069,40C39.310344827586206,40,38.275862068965516,40,37.241379310344826,40C36.206896551724135,40,35.172413793103445,40,34.137931034482754,40C33.103448275862064,40,32.06896551724138,40,31.03448275862069,40C30,40,28.965517241379313,40,27.931034482758623,40C26.896551724137932,40,25.862068965517242,40,24.82758620689655,40C23.79310344827586,40,22.758620689655174,40,21.724137931034484,40C20.689655172413794,40,19.655172413793103,40,18.620689655172413,40C17.586206896551722,40,16.551724137931036,40,15.517241379310345,40C14.482758620689655,40,13.448275862068966,40,12.413793103448276,40C11.379310344827585,40,10.344827586206897,40,9.310344827586206,40C8.275862068965516,40,7.241379310344827,40,6.206896551724138,40C5.172413793103448,40,4.137931034482759,40,3.103448275862069,40C2.068965517241379,40,1.0344827586206897,40,0,40Z"></path><path class="line" stroke="black" fill="none" d="M0,32.400000000000006C1.0344827586206897,32.95,2.068965517241379,33.5,3.103448275862069,34C4.137931034482759,34.5,5.172413793103448,34.93333333333333,6.206896551724138,35.4C7.241379310344827,35.86666666666667,8.275862068965516,36.800000000000004,9.310344827586206,36.800000000000004C10.344827586206897,36.800000000000004,11.379310344827585,35.03333333333333,12.413793103448276,34.4C13.448275862068966,33.766666666666666,14.482758620689655,33.5,15.517241379310345,33C16.551724137931036,32.5,17.586206896551722,31.533333333333335,18.620689655172413,31.400000000000002C19.655172413793103,31.26666666666667,20.689655172413794,31.333333333333336,21.724137931034484,31.200000000000003C22.758620689655174,31.06666666666667,23.79310344827586,26.799999999999997,24.82758620689655,26.799999999999997C25.862068965517242,26.799999999999997,26.896551724137932,34.400000000000006,27.931034482758623,35.2C28.965517241379313,36,30,36.4,31.03448275862069,36.4C32.06896551724138,36.4,33.103448275862064,25,34.137931034482754,25C35.172413793103445,25,36.206896551724135,26.4,37.241379310344826,26.4C38.275862068965516,26.4,39.310344827586206,25.3,40.3448275862069,24.6C41.37931034482759,23.900000000000002,42.41379310344828,22.899999999999995,43.44827586206897,22.199999999999996C44.48275862068966,21.499999999999996,45.51724137931035,20.4,46.55172413793104,20.4C47.58620689655173,20.4,48.62068965517241,24.53333333333333,49.6551724137931,26.4C50.689655172413794,28.266666666666666,51.72413793103448,31.6,52.75862068965517,31.6C53.79310344827586,31.6,54.827586206896555,24.900000000000002,55.862068965517246,22.599999999999998C56.896551724137936,20.300000000000004,57.93103448275862,17.799999999999997,58.96551724137931,17.799999999999997C60,17.799999999999997,61.03448275862069,21.4,62.06896551724138,21.4C63.10344827586207,21.4,64.13793103448276,20.2,65.17241379310344,19.4C66.20689655172413,18.599999999999998,67.24137931034483,16.6,68.27586206896551,16.6C69.3103448275862,16.6,70.34482758620689,18.56666666666666,71.37931034482759,20.8C72.41379310344827,23.03333333333333,73.44827586206897,30,74.48275862068965,30C75.51724137931033,30,76.55172413793103,23.899999999999988,77.58620689655172,20.4C78.62068965517241,16.89999999999999,79.6551724137931,9,80.6896551724138,9C81.72413793103448,9,82.75862068965517,11.200000000000003,83.79310344827586,12.000000000000002C84.82758620689656,12.800000000000004,85.86206896551724,13.799999999999999,86.89655172413794,13.799999999999999C87.93103448275862,13.799999999999999,88.96551724137932,10.8,90,10.8C91.0344827586207,10.8,92.06896551724138,17.766666666666648,93.10344827586208,21.4C94.13793103448276,25.033333333333314,95.17241379310344,32.599999999999994,96.20689655172413,32.599999999999994C97.24137931034483,32.599999999999994,98.27586206896551,16.6,99.3103448275862,15C100.3448275862069,13.399999999999999,101.37931034482759,12.599999999999998,102.41379310344828,12.599999999999998C103.44827586206897,12.599999999999998,104.48275862068965,12.799999999999999,105.51724137931033,13.2C106.55172413793103,13.600000000000003,107.58620689655172,19.4,108.62068965517241,19.4C109.65517241379311,19.4,110.6896551724138,6.600000000000001,111.72413793103449,6.600000000000001C112.75862068965517,6.600000000000001,113.79310344827587,17.633333333333336,114.82758620689656,21.6C115.86206896551724,25.566666666666666,116.89655172413794,30.4,117.93103448275862,30.4C118.96551724137932,30.4,120,17,121.0344827586207,17C122.06896551724138,17,123.10344827586208,21,124.13793103448276,21C125.17241379310344,21,126.20689655172414,16,127.24137931034483,16C128.27586206896552,16,129.3103448275862,23,130.3448275862069,23C131.3793103448276,23,132.41379310344828,16.6,133.44827586206898,16.6C134.48275862068965,16.6,135.51724137931035,24.366666666666667,136.55172413793102,26.799999999999997C137.58620689655172,29.23333333333337,138.6206896551724,31.200000000000003,139.6551724137931,31.200000000000003C140.6896551724138,31.200000000000003,141.72413793103448,22.800000000000004,142.75862068965517,22.800000000000004C143.79310344827587,22.800000000000004,144.82758620689654,27.400000000000002,145.86206896551724,27.400000000000002C146.89655172413794,27.400000000000002,147.9310344827586,24.8,148.9655172413793,24.8C150,24.8,151.0344827586207,28.200000000000003,152.0689655172414,28.200000000000003C153.10344827586206,28.200000000000003,154.13793103448276,19,155.17241379310343,19C156.20689655172413,19,157.24137931034483,28.6,158.27586206896552,28.6C159.31034482758622,28.6,160.3448275862069,28.6,161.3793103448276,28.6C162.41379310344828,28.6,163.44827586206895,33.4,164.48275862068965,33.4C165.51724137931035,33.4,166.55172413793102,27.400000000000002,167.58620689655172,27.400000000000002C168.6206896551724,27.400000000000002,169.6551724137931,32.199999999999996,170.6896551724138,32.199999999999996C171.7241379310345,32.199999999999996,172.75862068965517,25.06666666666667,173.79310344827587,23.6C174.82758620689657,22.133333333333333,175.86206896551724,22.099999999999998,176.89655172413794,21.4C177.93103448275863,20.7,178.9655172413793,20.049999999999997,180,19.4"></path><path class="axis-ceiling" stroke-width="1" stroke="black" fill="none" d="M175,0L180,0"></path><text class="axis-ceiling-label" font-family="sans-serif" text-anchor="end" font-size="10px" x="170" y="2.5">200</text></g></svg>