<svg xmlns="http://www.w3.org/2000/svg" viewBox="0 0 180 60"><g transform="translate(0,20)"><path class="area" fill="rgba(0, 0, 0, 0.2)" d="M0,26.116C1.0169491525423728,25.771,2.0338983050847457,25.426000000000002,3.0508474576271185,25.152C4.067796610169491,24.878,5.084745762711864,24.718,6.101694915254237,24.472C7.11864406779661,24.226,8.135593220338983,23.851999999999997,9.152542372881356,23.676C10.169491525423728,23.5,11.186440677966102,23.510666666666665,12.203389830508474,23.412C13.220338983050846,23.313333333333333,14.23728813559322,23.302666666666664,15.254237288135592,23.083999999999996C16.271186440677965,22.86533333333333,17.28813559322034,21.048000000000002,18.305084745762713,21.048000000000002C19.322033898305087,21.048000000000002,20.338983050847457,21.244,21.35593220338983,21.244C22.372881355932204,21.244,23.389830508474574,21.208,24.406779661016948,21.136C25.423728813559322,21.064,26.440677966101696,20.893333333333334,27.45762711864407,20.792C28.47457627118644,20.69066666666667,29.491525423728813,20.528,30.508474576271183,20.528C31.525423728813557,20.528,32.54237288135593,20.652,33.559322033898304,20.652C34.57627118644068,20.652,35.59322033898305,20.252,36.610169491525426,20.252C37.6271186440678,20.252,38.644067796610166,20.267999999999997,39.66101694915254,20.267999999999997C40.67796610169491,20.267999999999997,41.69491525423729,19.488,42.71186440677966,19.488C43.728813559322035,19.488,44.7457627118644,19.712,45.762711864406775,19.712C46.77966101694915,19.712,47.79661016949152,19.448,48.813559322033896,19.448C49.83050847457627,19.448,50.847457627118644,19.793333333333333,51.86440677966102,19.844C52.88135593220339,19.89466666666667,53.898305084745765,19.869333333333334,54.91525423728814,19.92C55.93220338983051,19.97066666666667,56.94915254237288,20.105999999999998,57.96610169491525,20.291999999999998C58.983050847457626,20.477999999999998,59.99999999999999,20.805333333333333,61.01694915254237,21.036C62.03389830508474,21.26666666666667,63.05084745762712,21.477333333333334,64.0677966101695,21.676000000000002C65.08474576271186,21.87466666666667,66.10169491525424,21.93466666666667,67.11864406779661,22.228C68.13559322033899,22.521333333333335,69.15254237288136,23.049333333333333,70.16949152542374,23.436C71.1864406779661,23.822666666666667,72.20338983050848,24.32133333333334,73.22033898305085,24.548000000000002C74.23728813559322,24.774666666666665,75.2542372881356,24.781333333333333,76.27118644067797,24.887999999999998C77.28813559322033,24.994666666666664,78.30508474576271,25.187999999999995,79.32203389830508,25.187999999999995C80.33898305084746,25.187999999999995,81.35593220338983,25.176,82.37288135593221,25.176C83.38983050847457,25.176,84.40677966101696,25.304000000000002,85.42372881355932,25.304000000000002C86.4406779661017,25.304000000000002,87.45762711864407,25.111333333333338,88.47457627118645,25.056000000000004C89.49152542372882,25.00066666666667,90.50847457627118,25.028000000000002,91.52542372881355,24.972C92.54237288135593,24.915999999999997,93.55932203389831,24.504,94.57627118644069,24.504C95.59322033898306,24.504,96.61016949152543,24.674000000000003,97.62711864406779,24.752000000000002C98.64406779661016,24.830000000000002,99.66101694915254,24.88666666666667,100.6779661016949,24.972C101.69491525423729,25.057333333333332,102.71186440677965,25.109999999999996,103.72881355932203,25.263999999999996C104.7457627118644,25.417999999999996,105.76271186440678,25.675333333333334,106.77966101694915,25.896C107.79661016949153,26.116666666666667,108.8135593220339,26.402,109.83050847457628,26.588C110.84745762711864,26.774,111.86440677966102,26.842000000000002,112.88135593220339,27.012C113.89830508474576,27.182,114.91525423728814,27.414666666666665,115.9322033898305,27.607999999999997C116.94915254237289,27.80133333333333,117.96610169491525,28.12666666666666,118.98305084745763,28.171999999999997C120,28.217333333333332,121.01694915254237,28.194666666666663,122.03389830508473,28.24C123.05084745762711,28.285333333333334,124.0677966101695,28.640666666666668,125.08474576271188,28.856C126.10169491525424,29.071333333333335,127.11864406779662,29.298666666666662,128.135593220339,29.531999999999996C129.15254237288136,29.76533333333333,130.16949152542372,30.038,131.1864406779661,30.256C132.20338983050846,30.474000000000004,133.22033898305085,30.659333333333333,134.23728813559322,30.84C135.25423728813558,31.020666666666667,136.27118644067798,31.151333333333334,137.28813559322035,31.34C138.3050847457627,31.528666666666666,139.3220338983051,31.777333333333335,140.33898305084747,31.972C141.35593220338984,32.166666666666664,142.3728813559322,32.31533333333333,143.38983050847457,32.507999999999996C144.40677966101694,32.70066666666666,145.42372881355934,32.943333333333335,146.4406779661017,33.128C147.45762711864407,33.312666666666665,148.47457627118644,33.438,149.4915254237288,33.616C150.50847457627117,33.794,151.52542372881356,34.022666666666666,152.54237288135593,34.196C153.5593220338983,34.36933333333333,154.5762711864407,34.47066666666667,155.59322033898306,34.656000000000006C156.61016949152543,34.84133333333334,157.6271186440678,35.15866666666667,158.64406779661016,35.308C159.66101694915253,35.45733333333333,160.67796610169492,35.492666666666665,161.6949152542373,35.552C162.71186440677965,35.611333333333334,163.72881355932205,35.589333333333336,164.74576271186442,35.664C165.76271186440678,35.73866666666667,166.77966101694915,35.96466666666667,167.79661016949152,36.124C168.81355932203388,36.28333333333334,169.83050847457628,36.516,170.84745762711864,36.62C171.864406779661,36.724,172.8813559322034,36.70266666666666,173.89830508474577,36.775999999999996C174.91525423728814,36.849333333333334,175.93220338983053,36.992000000000004,176.9491525423729,37.06C177.96610169491527,37.128,178.98305084745763,37.156,180,37.184L180,40C178.98305084745763,40,177.96610169491527,40,176.9491525423729,40C175.93220338983053,40,174.91525423728814,40,173.89830508474577,40C172.8813559322034,40,171.864406779661,40,170.84745762711864,40C169.83050847457628,40,168.81355932203388,40,167.79661016949152,40C166.77966101694915,40,165.76271186440678,40,164.74576271186442,40C163.72881355932205,40,162.71186440677965,40,161.6949152542373,40C160.67796610169492,40,159.66101694915253,40,158.64406779661016,40C157.6271186440678,40,156.61016949152543,40,155.59322033898306,40C154.5762711864407,40,153.5593220338983,40,152.54237288135593,40C151.52542372881356,40,150.50847457627117,40,149.4915254237288,40C148.47457627118644,40,147.45762711864407,40,146.4406779661017,40C145.42372881355934,40,144.40677966101694,40,143.38983050847457,40C142.3728813559322,40,141.35593220338984,40,140.33898305084747,40C139.3220338983051,40,138.3050847457627,40,137.28813559322035,40C136.27118644067798,40,135.25423728813558,40,134.23728813559322,40C133.22033898305085,40,132.20338983050846,40,131.1864406779661,40C130.16949152542372,40,129.15254237288136,40,128.135593220339,40C127.11864406779662,40,126.10169491525424,40,125.08474576271188,40C124.0677966101695,40,123.05084745762711,40,122.03389830508473,40C121.01694915254237,40,120,40,118.98305084745763,40C117.96610169491525,40,116.94915254237289,40,115.9322033898305,40C114.91525423728814,40,113.89830508474576,40,112.88135593220339,40C111.86440677966102,40,110.84745762711864,40,109.83050847457628,40C108.8135593220339,40,107.79661016949153,40,106.77966101694915,40C105.76271186440678,40,104.7457627118644,40,103.72881355932203,40C102.71186440677965,40,101.69491525423729,40,100.6779661016949,40C99.66101694915254,40,98.64406779661016,40,97.62711864406779,40C96.61016949152543,40,95.59322033898306,40,94.57627118644069,40C93.55932203389831,40,92.54237288135593,40,91.52542372881355,40C90.50847457627118,40,89.49152542372882,40,88.47457627118645,40C87.45762711864407,40,86.4406779661017,40,85.42372881355932,40C84.40677966101696,40,83.38983050847457,40,82.37288135593221,40C81.35593220338983,40,80.33898305084746,40,79.32203389830508,40C78.30508474576271,40,77.28813559322033,40,76.27118644067797,40C75.2542372881356,40,74.23728813559322,40,73.22033898305085,40C72.20338983050848,40,71.1864406779661,40,70.16949152542374,40C69.15254237288136,40,68.13559322033899,40,67.11864406779661,40C66.10169491525424,40,65.08474576271186,40,64.0677966101695,40C63.05084745762712,40,62.03389830508474,40,61.01694915254237,40C59.99999999999999,40,58.983050847457626,40,57.96610169491525,40C56.94915254237288,40,55.93220338983051,40,54.91525423728814,40C53.898305084745765,40,52.88135593220339,40,51.86440677966102,40C50.847457627118644,40,49.83050847457627,40,48.813559322033896,40C47.79661016949152,40,46.77966101694915,40,45.762711864406775,40C44.7457627118644,40,43.728813559322035,40,42.71186440677966,40C41.69491525423729,40,40.67796610169491,40,39.66101694915254,40C38.644067796610166,40,37.6271186440678,40,36.610169491525426,40C35.59322033898305,40,34.57627118644068,40,33.559322033898304,40C32.54237288135593,40,31.525423728813557,40,30.508474576271183,40C29.491525423728813,40,28.47457627118644,40,27.45762711864407,40C26.440677966101696,40,25.423728813559322,40,24.406779661016948,40C23.389830508474574,40,22.372881355932204,40,21.35593220338983,40C20.338983050847457,40,19.322033898305087,40,18.305084745762713,40C17.28813559322034,40,16.271186440677965,40,15.254237288135592,40C14.23728813559322,40,13.220338983050846,40,12.203389830508474,40C11.186440677966102,40,10.169491525423728,40,9.152542372881356,40C8.135593220338983,40,7.11864406779661,40,6.101694915254237,40C5.084745762711864,40,4.067796610169491,40,3.0508474576271185,40C2.0338983050847457,40,1.0169491525423728,40,0,40Z"></path><path class="line" stroke="black" fill="none" d="M0,26.116C1.0169491525423728,25.771,2.0338983050847457,25.426000000000002,3.0508474576271185,25.152C4.067796610169491,24.878,5.084745762711864,24.718,6.101694915254237,24.472C7.11864406779661,24.226,8.135593220338983,23.851999999999997,9.152542372881356,23.676C10.169491525423728,23.5,11.186440677966102,23.510666666666665,12.203389830508474,23.412C13.220338983050846,23.313333333333333,14.23728813559322,23.302666666666664,15.254237288135592,23.083999999999996C16.271186440677965,22.86533333333333,17.28813559322034,21.048000000000002,18.305084745762713,21.048000000000002C19.322033898305087,21.048000000000002,20.338983050847457,21.244,21.35593220338983,21.244C22.372881355932204,21.244,23.389830508474574,21.208,24.406779661016948,21.136C25.423728813559322,21.064,26.440677966101696,20.893333333333334,27.45762711864407,20.792C28.47457627118644,20.69066666666667,29.491525423728813,20.528,30.508474576271183,20.528C31.525423728813557,20.528,32.54237288135593,20.652,33.559322033898304,20.652C34.57627118644068,20.652,35.59322033898305,20.252,36.610169491525426,20.252C37.6271186440678,20.252,38.644067796610166,20.267999999999997,39.66101694915254,20.267999999999997C40.67796610169491,20.267999999999997,41.69491525423729,19.488,42.71186440677966,19.488C43.728813559322035,19.488,44.7457627118644,19.712,45.762711864406775,19.712C46.77966101694915,19.712,47.79661016949152,19.448,48.813559322033896,19.448C49.83050847457627,19.448,50.847457627118644,19.793333333333333,51.86440677966102,19.844C52.88135593220339,19.89466666666667,53.898305084745765,19.869333333333334,54.91525423728814,19.92C55.93220338983051,19.97066666666667,56.94915254237288,20.105999999999998,57.96610169491525,20.291999999999998C58.983050847457626,20.477999999999998,59.99999999999999,20.805333333333333,61.01694915254237,21.036C62.03389830508474,21.26666666666667,63.05084745762712,21.477333333333334,64.0677966101695,21.676000000000002C65.08474576271186,21.87466666666667,66.10169491525424,21.93466666666667,67.11864406779661,22.228C68.13559322033899,22.521333333333335,69.15254237288136,23.049333333333333,70.16949152542374,23.436C71.1864406779661,23.822666666666667,72.20338983050848,24.32133333333334,73.22033898305085,24.548000000000002C74.23728813559322,24.774666666666665,75.2542372881356,24.781333333333333,76.27118644067797,24.887999999999998C77.28813559322033,24.994666666666664,78.30508474576271,25.187999999999995,79.32203389830508,25.187999999999995C80.33898305084746,25.187999999999995,81.35593220338983,25.176,82.37288135593221,25.176C83.38983050847457,25.176,84.40677966101696,25.304000000000002,85.42372881355932,25.304000000000002C86.4406779661017,25.304000000000002,87.45762711864407,25.111333333333338,88.47457627118645,25.056000000000004C89.49152542372882,25.00066666666667,90.50847457627118,25.028000000000002,91.52542372881355,24.972C92.54237288135593,24.915999999999997,93.55932203389831,24.504,94.57627118644069,24.504C95.59322033898306,24.504,96.61016949152543,24.674000000000003,97.62711864406779,24.752000000000002C98.64406779661016,24.830000000000002,99.66101694915254,24.88666666666667,100.6779661016949,24.972C101.69491525423729,25.057333333333332,102.71186440677965,25.109999999999996,103.72881355932203,25.263999999999996C104.7457627118644,25.417999999999996,105.76271186440678,25.675333333333334,106.77966101694915,25.896C107.79661016949153,26.116666666666667,108.8135593220339,26.402,109.83050847457628,26.588C110.84745762711864,26.774,111.86440677966102,26.842000000000002,112.88135593220339,27.012C113.89830508474576,27.182,114.91525423728814,27.414666666666665,115.9322033898305,27.607999999999997C116.94915254237289,27.80133333333333,117.96610169491525,28.12666666666666,118.98305084745763,28.171999999999997C120,28.217333333333332,121.01694915254237,28.194666666666663,122.03389830508473,28.24C123.05084745762711,28.285333333333334,124.0677966101695,28.640666666666668,125.08474576271188,28.856C126.10169491525424,29.071333333333335,127.11864406779662,29.298666666666662,128.135593220339,29.531999999999996C129.15254237288136,29.76533333333333,130.16949152542372,30.038,131.1864406779661,30.256C132.20338983050846,30.474000000000004,133.22033898305085,30.659333333333333,134.23728813559322,30.84C135.25423728813558,31.020666666666667,136.27118644067798,31.151333333333334,137.28813559322035,31.34C138.3050847457627,31.528666666666666,139.3220338983051,31.777333333333335,140.33898305084747,31.972C141.35593220338984,32.166666666666664,142.3728813559322,32.31533333333333,143.38983050847457,32.507999999999996C144.40677966101694,32.70066666666666,145.42372881355934,32.943333333333335,146.4406779661017,33.128C147.45762711864407,33.312666666666665,148.47457627118644,33.438,149.4915254237288,33.616C150.50847457627117,33.794,151.52542372881356,34.022666666666666,152.54237288135593,34.196C153.5593220338983,34.36933333333333,154.5762711864407,34.47066666666667,155.59322033898306,34.656000000000006C156.61016949152543,34.84133333333334,157.6271186440678,35.15866666666667,158.64406779661016,35.308C159.66101694915253,35.45733333333333,160.67796610169492,35.492666666666665,161.6949152542373,35.552C162.71186440677965,35.611333333333334,163.72881355932205,35.589333333333336,164.74576271186442,35.664C165.76271186440678,35.73866666666667,166.77966101694915,35.96466666666667,167.79661016949152,36.124C168.81355932203388,36.28333333333334,169.83050847457628,36.516,170.84745762711864,36.62C171.864406779661,36.724,172.8813559322034,36.70266666666666,173.89830508474577,36.775999999999996C174.91525423728814,36.849333333333334,175.93220338983053,36.992000000000004,176.9491525423729,37.06C177.96610169491527,37.128,178.98305084745763,37.156,180,37.184"></path><path class="axis-ceiling" stroke-width="1" stroke="black" fill="none" d="M175,0L180,0"></path><text class="axis-ceiling-label" font-family="sans-serif" text-anchor="end" font-size="10px" x="170" y="2.5">10000</text></g></svg>