<svg xmlns="http://www.w3.org/2000/svg" viewBox="0 0 180 60"><g transform="translate(0,20)"><path class="area" fill="rgba(0, 0, 0, 0.2)" d="M0,33.22666666666667C1.0169491525423728,29.446666666666665,2.0338983050847457,25.666666666666664,3.0508474576271185,23.88C4.067796610169491,22.093333333333334,5.084745762711864,21.200000000000003,6.101694915254237,21.200000000000003C7.11864406779661,21.200000000000003,8.135593220338983,21.75111111111111,9.152542372881356,21.933333333333334C10.169491525423728,22.115555555555556,11.186440677966102,22.293333333333333,12.203389830508474,22.293333333333333C13.220338983050846,22.293333333333333,14.23728813559322,19.68,15.254237288135592,19.68C16.271186440677965,19.68,17.28813559322034,22.52222222222222,18.305084745762713,24.626666666666665C19.322033898305087,26.731111111111108,20.338983050847457,32.306666666666665,21.35593220338983,32.306666666666665C22.372881355932204,32.306666666666665,23.389830508474574,21.186666666666664,24.406779661016948,19.88C25.423728813559322,18.57333333333333,26.440677966101696,17.919999999999998,27.45762711864407,17.919999999999998C28.47457627118644,17.919999999999998,29.491525423728813,20.986666666666665,30.508474576271183,20.986666666666665C31.525423728813557,20.986666666666665,32.54237288135593,19.6,33.559322033898304,19.6C34.57627118644068,19.6,35.59322033898305,20.335555555555555,36.610169491525426,20.813333333333333C37.6271186440678,21.29111111111111,38.644067796610166,21.364444444444445,39.66101694915254,22.466666666666665C40.67796610169491,23.56888888888889,41.69491525423729,32.333333333333336,42.71186440677966,32.333333333333336C43.728813559322035,32.333333333333336,44.7457627118644,19.67555555555555,45.762711864406775,19.37333333333333C46.77966101694915,19.071111111111108,47.79661016949152,18.919999999999998,48.813559322033896,18.919999999999998C49.83050847457627,18.919999999999998,50.847457627118644,18.955555555555556,51.86440677966102,19.026666666666667C52.88135593220339,19.09777777777778,53.898305084745765,21.053333333333335,54.91525423728814,21.053333333333335C55.93220338983051,21.053333333333335,56.94915254237288,17.839999999999996,57.96610169491525,17.839999999999996C58.983050847457626,17.839999999999996,59.99999999999999,19.91333333333334,61.01694915254237,22.519999999999996C62.03389830508474,25.126666666666665,63.05084745762712,33.48,64.0677966101695,33.48C65.08474576271186,33.48,66.10169491525424,22.879999999999992,67.11864406779661,21.093333333333334C68.13559322033899,19.30666666666667,69.15254237288136,18.982222222222227,70.16949152542374,18.413333333333334C71.1864406779661,17.844444444444445,72.20338983050848,17.56,73.22033898305085,17.56C74.23728813559322,17.56,75.2542372881356,17.995555555555555,76.27118644067797,18.866666666666667C77.28813559322033,19.73777777777778,78.30508474576271,28.440000000000005,79.32203389830508,28.440000000000005C80.33898305084746,28.440000000000005,81.35593220338983,19.28,82.37288135593221,19.28C83.38983050847457,19.28,84.40677966101696,29.733333333333334,85.42372881355932,29.733333333333334C86.4406779661017,29.733333333333334,87.45762711864407,16.520000000000003,88.47457627118645,16.520000000000003C89.49152542372882,16.520000000000003,90.50847457627118,23.986666666666668,91.52542372881355,23.986666666666668C92.54237288135593,23.986666666666668,93.55932203389831,22.744444444444444,94.57627118644069,22.306666666666665C95.59322033898306,21.86888888888889,96.61016949152543,21.99111111111111,97.62711864406779,21.36C98.64406779661016,20.728888888888886,99.66101694915254,8.333333333333336,100.6779661016949,8.333333333333336C101.69491525423729,8.333333333333336,102.71186440677965,9.733333333333334,103.72881355932203,12.533333333333335C104.7457627118644,15.333333333333321,105.76271186440678,25.72,106.77966101694915,25.72C107.79661016949153,25.72,108.8135593220339,13.424444444444445,109.83050847457628,9.8C110.84745762711864,6.175555555555573,111.86440677966102,3.9733333333333354,112.88135593220339,3.9733333333333354C113.89830508474576,3.9733333333333354,114.91525423728814,8.151111111111117,115.9322033898305,8.933333333333335C116.94915254237289,9.715555555555557,117.96610169491525,10.10666666666667,118.98305084745763,10.10666666666667C120,10.10666666666667,121.01694915254237,7.146666666666666,122.03389830508473,7.146666666666666C123.05084745762711,7.146666666666666,124.0677966101695,9.986666666666641,125.08474576271188,13.04C126.10169491525424,16.09333333333333,127.11864406779662,25.46666666666667,128.135593220339,25.46666666666667C129.15254237288136,25.46666666666667,130.16949152542372,14.29333333333333,131.1864406779661,11.026666666666664C132.20338983050846,7.759999999999967,133.22033898305085,5.8666666666666645,134.23728813559322,5.8666666666666645C135.25423728813558,5.8666666666666645,136.27118644067798,8.777777777777777,137.28813559322035,9.239999999999998C138.3050847457627,9.70222222222222,139.3220338983051,9.728888888888886,140.33898305084747,9.933333333333332C141.35593220338984,10.137777777777776,142.3728813559322,10.11111111111111,143.38983050847457,10.466666666666669C144.40677966101694,10.82222222222223,145.42372881355934,13.215555555555525,146.4406779661017,16.666666666666664C147.45762711864407,20.11777777777777,148.47457627118644,31.173333333333332,149.4915254237288,31.173333333333332C150.50847457627117,31.173333333333332,151.52542372881356,15.875555555555557,152.54237288135593,14.426666666666668C153.5593220338983,12.977777777777778,154.5762711864407,12.253333333333334,155.59322033898306,12.253333333333334C156.61016949152543,12.253333333333334,157.6271186440678,18.048888888888893,158.64406779661016,18.626666666666665C159.66101694915253,19.204444444444444,160.67796610169492,19.284444444444443,161.6949152542373,19.493333333333332C162.71186440677965,19.702222222222222,163.72881355932205,19.62222222222222,164.74576271186442,19.88C165.76271186440678,20.137777777777774,166.77966101694915,22.04222222222224,167.79661016949152,24.36C168.81355932203388,26.67777777777778,169.83050847457628,33.78666666666667,170.84745762711864,33.78666666666667C171.864406779661,33.78666666666667,172.8813559322034,20.44,173.89830508474577,20.413333333333334C174.91525423728814,20.386666666666667,175.93220338983053,20.373333333333335,176.9491525423729,20.373333333333335C177.96610169491527,20.373333333333335,178.98305084745763,21.033333333333335,180,21.693333333333335L180,40C178.98305084745763,40,177.96610169491527,40,176.9491525423729,40C175.93220338983053,40,174.91525423728814,40,173.89830508474577,40C172.8813559322034,40,171.864406779661,40,170.84745762711864,40C169.83050847457628,40,168.81355932203388,40,167.79661016949152,40C166.77966101694915,40,165.76271186440678,40,164.74576271186442,40C163.72881355932205,40,162.71186440677965,40,161.6949152542373,40C160.67796610169492,40,159.66101694915253,40,158.64406779661016,40C157.6271186440678,40,156.61016949152543,40,155.59322033898306,40C154.5762711864407,40,153.5593220338983,40,152.54237288135593,40C151.52542372881356,40,150.50847457627117,40,149.4915254237288,40C148.47457627118644,40,147.45762711864407,40,146.4406779661017,40C145.42372881355934,40,144.40677966101694,40,143.38983050847457,40C142.3728813559322,40,141.35593220338984,40,140.33898305084747,40C139.3220338983051,40,138.3050847457627,40,137.28813559322035,40C136.27118644067798,40,135.25423728813558,40,134.23728813559322,40C133.22033898305085,40,132.20338983050846,40,131.1864406779661,40C130.16949152542372,40,129.15254237288136,40,128.135593220339,40C127.11864406779662,40,126.10169491525424,40,125.08474576271188,40C124.0677966101695,40,123.05084745762711,40,122.03389830508473,40C121.01694915254237,40,120,40,118.98305084745763,40C117.96610169491525,40,116.94915254237289,40,115.9322033898305,40C114.91525423728814,40,113.89830508474576,40,112.88135593220339,40C111.86440677966102,40,110.84745762711864,40,109.83050847457628,40C108.8135593220339,40,107.79661016949153,40,106.77966101694915,40C105.76271186440678,40,104.7457627118644,40,103.72881355932203,40C102.71186440677965,40,101.69491525423729,40,100.6779661016949,40C99.66101694915254,40,98.64406779661016,40,97.62711864406779,40C96.61016949152543,40,95.59322033898306,40,94.57627118644069,40C93.55932203389831,40,92.54237288135593,40,91.52542372881355,40C90.50847457627118,40,89.49152542372882,40,88.47457627118645,40C87.45762711864407,40,86.4406779661017,40,85.42372881355932,40C84.40677966101696,40,83.38983050847457,40,82.37288135593221,40C81.35593220338983,40,80.33898305084746,40,79.32203389830508,40C78.30508474576271,40,77.28813559322033,40,76.27118644067797,40C75.2542372881356,40,74.23728813559322,40,73.22033898305085,40C72.20338983050848,40,71.1864406779661,40,70.16949152542374,40C69.15254237288136,40,68.13559322033899,40,67.11864406779661,40C66.10169491525424,40,65.08474576271186,40,64.0677966101695,40C63.05084745762712,40,62.03389830508474,40,61.01694915254237,40C59.99999999999999,40,58.983050847457626,40,57.96610169491525,40C56.94915254237288,40,55.93220338983051,40,54.91525423728814,40C53.898305084745765,40,52.88135593220339,40,51.86440677966102,40C50.847457627118644,40,49.83050847457627,40,48.813559322033896,40C47.79661016949152,40,46.77966101694915,40,45.762711864406775,40C44.7457627118644,40,43.728813559322035,40,42.71186440677966,40C41.69491525423729,40,40.67796610169491,40,39.66101694915254,40C38.644067796610166,40,37.6271186440678,40,36.610169491525426,40C35.59322033898305,40,34.57627118644068,40,33.559322033898304,40C32.54237288135593,40,31.525423728813557,40,30.508474576271183,40C29.491525423728813,40,28.47457627118644,40,27.45762711864407,40C26.440677966101696,40,25.423728813559322,40,24.406779661016948,40C23.389830508474574,40,22.372881355932204,40,21.35593220338983,40C20.338983050847457,40,19.322033898305087,40,18.305084745762713,40C17.28813559322034,40,16.271186440677965,40,15.254237288135592,40C14.23728813559322,40,13.220338983050846,40,12.203389830508474,40C11.186440677966102,40,10.169491525423728,40,9.152542372881356,40C8.135593220338983,40,7.11864406779661,40,6.101694915254237,40C5.084745762711864,40,4.067796610169491,40,3.0508474576271185,40C2.0338983050847457,40,1.0169491525423728,40,0,40Z"></path><path class="line" stroke="black" fill="none" d="M0,33.22666666666667C1.0169491525423728,29.446666666666665,2.0338983050847457,25.666666666666664,3.0508474576271185,23.88C4.067796610169491,22.093333333333334,5.084745762711864,21.200000000000003,6.101694915254237,21.200000000000003C7.11864406779661,21.200000000000003,8.135593220338983,21.75111111111111,9.152542372881356,21.933333333333334C10.169491525423728,22.115555555555556,11.186440677966102,22.293333333333333,12.203389830508474,22.293333333333333C13.220338983050846,22.293333333333333,14.23728813559322,19.68,15.254237288135592,19.68C16.271186440677965,19.68,17.28813559322034,22.52222222222222,18.305084745762713,24.626666666666665C19.322033898305087,26.731111111111108,20.338983050847457,32.306666666666665,21.35593220338983,32.306666666666665C22.372881355932204,32.306666666666665,23.389830508474574,21.186666666666664,24.406779661016948,19.88C25.423728813559322,18.57333333333333,26.440677966101696,17.919999999999998,27.45762711864407,17.919999999999998C28.47457627118644,17.919999999999998,29.491525423728813,20.986666666666665,30.508474576271183,20.986666666666665C31.525423728813557,20.986666666666665,32.54237288135593,19.6,33.559322033898304,19.6C34.57627118644068,19.6,35.59322033898305,20.335555555555555,36.610169491525426,20.813333333333333C37.6271186440678,21.29111111111111,38.644067796610166,21.364444444444445,39.66101694915254,22.466666666666665C40.67796610169491,23.56888888888889,41.69491525423729,32.333333333333336,42.71186440677966,32.333333333333336C43.728813559322035,32.333333333333336,44.7457627118644,19.67555555555555,45.762711864406775,19.37333333333333C46.77966101694915,19.071111111111108,47.79661016949152,18.919999999999998,48.813559322033896,18.919999999999998C49.83050847457627,18.919999999999998,50.847457627118644,18.955555555555556,51.86440677966102,19.026666666666667C52.88135593220339,19.09777777777778,53.898305084745765,21.053333333333335,54.91525423728814,21.053333333333335C55.93220338983051,21.053333333333335,56.94915254237288,17.839999999999996,57.96610169491525,17.839999999999996C58.983050847457626,17.839999999999996,59.99999999999999,19.91333333333334,61.01694915254237,22.519999999999996C62.03389830508474,25.126666666666665,63.05084745762712,33.48,64.0677966101695,33.48C65.08474576271186,33.48,66.10169491525424,22.879999999999992,67.11864406779661,21.093333333333334C68.13559322033899,19.30666666666667,69.15254237288136,18.982222222222227,70.16949152542374,18.413333333333334C71.1864406779661,17.844444444444445,72.20338983050848,17.56,73.22033898305085,17.56C74.23728813559322,17.56,75.2542372881356,17.995555555555555,76.27118644067797,18.866666666666667C77.28813559322033,19.73777777777778,78.30508474576271,28.440000000000005,79.32203389830508,28.440000000000005C80.33898305084746,28.440000000000005,81.35593220338983,19.28,82.37288135593221,19.28C83.38983050847457,19.28,84.40677966101696,29.733333333333334,85.42372881355932,29.733333333333334C86.4406779661017,29.733333333333334,87.45762711864407,16.520000000000003,88.47457627118645,16.520000000000003C89.49152542372882,16.520000000000003,90.50847457627118,23.986666666666668,91.52542372881355,23.986666666666668C92.54237288135593,23.986666666666668,93.55932203389831,22.744444444444444,94.57627118644069,22.306666666666665C95.59322033898306,21.86888888888889,96.61016949152543,21.99111111111111,97.62711864406779,21.36C98.64406779661016,20.728888888888886,99.66101694915254,8.333333333333336,100.6779661016949,8.333333333333336C101.69491525423729,8.333333333333336,102.71186440677965,9.733333333333334,103.72881355932203,12.533333333333335C104.7457627118644,15.333333333333321,105.76271186440678,25.72,106.77966101694915,25.72C107.79661016949153,25.72,108.8135593220339,13.424444444444445,109.83050847457628,9.8C110.84745762711864,6.175555555555573,111.86440677966102,3.9733333333333354,112.88135593220339,3.9733333333333354C113.89830508474576,3.9733333333333354,114.91525423728814,8.151111111111117,115.9322033898305,8.933333333333335C116.94915254237289,9.715555555555557,117.96610169491525,10.10666666666667,118.98305084745763,10.10666666666667C120,10.10666666666667,121.01694915254237,7.146666666666666,122.03389830508473,7.146666666666666C123.05084745762711,7.146666666666666,124.0677966101695,9.986666666666641,125.08474576271188,13.04C126.10169491525424,16.09333333333333,127.11864406779662,25.46666666666667,128.135593220339,25.46666666666667C129.15254237288136,25.46666666666667,130.16949152542372,14.29333333333333,131.1864406779661,11.026666666666664C132.20338983050846,7.759999999999967,133.22033898305085,5.8666666666666645,134.23728813559322,5.8666666666666645C135.25423728813558,5.8666666666666645,136.27118644067798,8.777777777777777,137.28813559322035,9.239999999999998C138.3050847457627,9.70222222222222,139.3220338983051,9.728888888888886,140.33898305084747,9.933333333333332C141.35593220338984,10.137777777777776,142.3728813559322,10.11111111111111,143.38983050847457,10.466666666666669C144.40677966101694,10.82222222222223,145.42372881355934,13.215555555555525,146.4406779661017,16.666666666666664C147.45762711864407,20.11777777777777,148.47457627118644,31.173333333333332,149.4915254237288,31.173333333333332C150.50847457627117,31.173333333333332,151.52542372881356,15.875555555555557,152.54237288135593,14.426666666666668C153.5593220338983,12.977777777777778,154.5762711864407,12.253333333333334,155.59322033898306,12.253333333333334C156.61016949152543,12.253333333333334,157.6271186440678,18.048888888888893,158.64406779661016,18.626666666666665C159.66101694915253,19.204444444444444,160.67796610169492,19.284444444444443,161.6949152542373,19.493333333333332C162.71186440677965,19.702222222222222,163.72881355932205,19.62222222222222,164.74576271186442,19.88C165.76271186440678,20.137777777777774,166.77966101694915,22.04222222222224,167.79661016949152,24.36C168.81355932203388,26.67777777777778,169.83050847457628,33.78666666666667,170.84745762711864,33.78666666666667C171.864406779661,33.78666666666667,172.8813559322034,20.44,173.89830508474577,20.413333333333334C174.91525423728814,20.386666666666667,175.93220338983053,20.373333333333335,176.9491525423729,20.373333333333335C177.96610169491527,20.373333333333335,178.98305084745763,21.033333333333335,180,21.693333333333335"></path><path class="axis-ceiling" stroke-width="1" stroke="black" fill="none" d="M175,0L180,0"></path><text class="axis-ceiling-label" font-family="sans-serif" text-anchor="end" font-size="10px" x="170" y="2.5">3000</text></g></svg>