<svg xmlns="http://www.w3.org/2000/svg" viewBox="0 0 180 60"><g transform="translate(0,20)"><path class="area" fill="rgba(0, 0, 0, 0.2)" d="M0,32.53333333333333C1.0344827586206897,30.8,2.068965517241379,29.06666666666667,3.103448275862069,28.533333333333335C4.137931034482759,28,5.172413793103448,27.733333333333334,6.206896551724138,27.733333333333334C7.241379310344827,27.733333333333334,8.275862068965516,31.200000000000003,9.310344827586206,31.200000000000003C10.344827586206897,31.200000000000003,11.379310344827585,26.4,12.413793103448276,26.4C13.448275862068966,26.4,14.482758620689655,34.4888888888889,15.517241379310345,34.66666666666667C16.551724137931036,34.84444444444444,17.586206896551722,34.93333333333333,18.620689655172413,34.93333333333333C19.655172413793103,34.93333333333333,20.689655172413794,34.75555555555555,21.724137931034484,34.4C22.758620689655174,34.044444444444444,23.79310344827586,30.4,24.82758620689655,30.4C25.862068965517242,30.4,26.896551724137932,35.2,27.931034482758623,35.2C28.965517241379313,35.2,30,31.466666666666665,31.03448275862069,31.466666666666665C32.06896551724138,31.466666666666665,33.103448275862064,34.66666666666667,34.137931034482754,34.66666666666667C35.172413793103445,34.66666666666667,36.206896551724135,34.13333333333333,37.241379310344826,34.13333333333333C38.275862068965516,34.13333333333333,39.310344827586206,34.4,40.3448275862069,34.4C41.37931034482759,34.4,42.41379310344828,34.4,43.44827586206897,34.4C44.48275862068966,34.4,45.51724137931035,31.333333333333336,46.55172413793104,30.133333333333333C47.58620689655173,28.933333333333334,48.62068965517241,27.199999999999996,49.6551724137931,27.199999999999996C50.689655172413794,27.199999999999996,51.72413793103448,28.533333333333335,52.75862068965517,29.066666666666666C53.79310344827586,29.6,54.827586206896555,29.911111111111108,55.862068965517246,30.4C56.896551724137936,30.888888888888886,57.93103448275862,31.333333333333336,58.96551724137931,32C60,32.666666666666664,61.03448275862069,34.4,62.06896551724138,34.4C63.10344827586207,34.4,64.13793103448276,30.48888888888889,65.17241379310344,29.333333333333336C66.20689655172413,28.17777777777778,67.24137931034483,28.266666666666662,68.27586206896551,27.466666666666665C69.3103448275862,26.666666666666664,70.34482758620689,24.53333333333333,71.37931034482759,24.53333333333333C72.41379310344827,24.53333333333333,73.44827586206897,25.42222222222222,74.48275862068965,27.199999999999996C75.51724137931033,28.97777777777777,76.55172413793103,36.800000000000004,77.58620689655172,36.800000000000004C78.62068965517241,36.800000000000004,79.6551724137931,33.866666666666674,80.6896551724138,32.800000000000004C81.72413793103448,31.73333333333334,82.75862068965517,31.55555555555555,83.79310344827586,30.4C84.82758620689656,29.24444444444444,85.86206896551724,27.466666666666672,86.89655172413794,25.866666666666667C87.93103448275862,24.26666666666667,88.96551724137932,20.8,90,20.8C91.0344827586207,20.8,92.06896551724138,22.400000000000002,93.10344827586208,22.400000000000002C94.13793103448276,22.400000000000002,95.17241379310344,18.133333333333333,96.20689655172413,18.133333333333333C97.24137931034483,18.133333333333333,98.27586206896551,21.333333333333332,99.3103448275862,21.333333333333332C100.3448275862069,21.333333333333332,101.37931034482759,20.266666666666666,102.41379310344828,20.266666666666666C103.44827586206897,20.266666666666666,104.48275862068965,26.977777777777778,105.51724137931033,29.066666666666666C106.55172413793103,31.155555555555573,107.58620689655172,32.800000000000004,108.62068965517241,32.800000000000004C109.65517241379311,32.800000000000004,110.6896551724138,23.111111111111118,111.72413793103449,22.400000000000002C112.75862068965517,21.68888888888889,113.79310344827587,21.688888888888886,114.82758620689656,21.333333333333332C115.86206896551724,20.977777777777778,116.89655172413794,20.977777777777778,117.93103448275862,20.266666666666666C118.96551724137932,19.55555555555555,120,5.333333333333332,121.0344827586207,5.333333333333332C122.06896551724138,5.333333333333332,123.10344827586208,13.466666666666665,124.13793103448276,16.266666666666666C125.17241379310344,19.066666666666666,126.20689655172414,22.133333333333333,127.24137931034483,22.133333333333333C128.27586206896552,22.133333333333333,129.3103448275862,9.866666666666667,130.3448275862069,9.866666666666667C131.3793103448276,9.866666666666667,132.41379310344828,10.044444444444444,133.44827586206898,10.4C134.48275862068965,10.75555555555555,135.51724137931035,21.866666666666667,136.55172413793102,21.866666666666667C137.58620689655172,21.866666666666667,138.6206896551724,12.533333333333335,139.6551724137931,12.533333333333335C140.6896551724138,12.533333333333335,141.72413793103448,18.40000000000001,142.75862068965517,18.933333333333337C143.79310344827587,19.466666666666665,144.82758620689654,19.200000000000003,145.86206896551724,19.73333333333333C146.89655172413794,20.26666666666666,147.9310344827586,29.066666666666666,148.9655172413793,29.066666666666666C150,29.066666666666666,151.0344827586207,21.600000000000037,152.0689655172414,17.599999999999998C153.10344827586206,13.600000000000032,154.13793103448276,5.066666666666668,155.17241379310343,5.066666666666668C156.20689655172413,5.066666666666668,157.24137931034483,10.84444444444443,158.27586206896552,13.866666666666667C159.31034482758622,16.888888888888875,160.3448275862069,23.200000000000003,161.3793103448276,23.200000000000003C162.41379310344828,23.200000000000003,163.44827586206895,18.666666666666668,164.48275862068965,18.666666666666668C165.51724137931035,18.666666666666668,166.55172413793102,28.8888888888889,167.58620689655172,29.6C168.6206896551724,30.31111111111111,169.6551724137931,30.666666666666664,170.6896551724138,30.666666666666664C171.7241379310345,30.666666666666664,172.75862068965517,28.844444444444445,173.79310344827587,27.733333333333334C174.82758620689657,26.622222222222224,175.86206896551724,24,176.89655172413794,24C177.93103448275863,24,178.9655172413793,24.266666666666666,180,24.53333333333333L180,40C178.9655172413793,40,177.93103448275863,40,176.89655172413794,40C175.86206896551724,40,174.82758620689657,40,173.79310344827587,40C172.75862068965517,40,171.7241379310345,40,170.6896551724138,40C169.6551724137931,40,168.6206896551724,40,167.58620689655172,40C166.55172413793102,40,165.51724137931035,40,164.48275862068965,40C163.44827586206895,40,162.41379310344828,40,161.3793103448276,40C160.3448275862069,40,159.31034482758622,40,158.27586206896552,40C157.24137931034483,40,156.20689655172413,40,155.17241379310343,40C154.13793103448276,40,153.10344827586206,40,152.0689655172414,40C151.0344827586207,40,150,40,148.9655172413793,40C147.9310344827586,40,146.89655172413794,40,145.86206896551724,40C144.82758620689654,40,143.79310344827587,40,142.75862068965517,40C141.72413793103448,40,140.6896551724138,40,139.6551724137931,40C138.6206896551724,40,137.58620689655172,40,136.55172413793102,40C135.51724137931035,40,134.48275862068965,40,133.44827586206898,40C132.41379310344828,40,131.3793103448276,40,130.3448275862069,40C129.3103448275862,40,128.27586206896552,40,127.24137931034483,40C126.20689655172414,40,125.17241379310344,40,124.13793103448276,40C123.10344827586208,40,122.06896551724138,40,121.0344827586207,40C120,40,118.96551724137932,40,117.93103448275862,40C116.89655172413794,40,115.86206896551724,40,114.82758620689656,40C113.79310344827587,40,112.75862068965517,40,111.72413793103449,40C110.6896551724138,40,109.65517241379311,40,108.62068965517241,40C107.58620689655172,40,106.55172413793103,40,105.51724137931033,40C104.48275862068965,40,103.44827586206897,40,102.41379310344828,40C101.37931034482759,40,100.3448275862069,40,99.3103448275862,40C98.27586206896551,40,97.24137931034483,40,96.20689655172413,40C95.17241379310344,40,94.13793103448276,40,93.10344827586208,40C92.06896551724138,40,91.0344827586207,40,90,40C88.96551724137932,40,87.93103448275862,40,86.89655172413794,40C85.86206896551724,40,84.82758620689656,40,83.79310344827586,40C82.75862068965517,40,81.72413793103448,40,80.6896551724138,40C79.6551724137931,40,78.62068965517241,40,77.58620689655172,40C76.55172413793103,40,75.51724137931033,40,74.48275862068965,40C73.44827586206897,40,72.41379310344827,40,71.37931034482759,40C70.34482758620689,40,69.3103448275862,40,68.27586206896551,40C67.24137931034483,40,66.20689655172413,40,65.17241379310344,40C64.13793103448276,40,63.10344827586207,40,62.06896551724138,40C61.03448275862069,40,60,40,58.96551724137931,40C57.93103448275862,40,56.896551724137936,40,55.862068965517246,40C54.827586206896555,40,53.79310344827586,40,52.75862068965517,40C51.72413793103448,40,50.689655172413794,40,49.6551724137931,40C48.62068965517241,40,47.58620689655173,40,46.55172413793104,40C45.51724137931035,40,44.48275862068966,40,43.44827586206897,40C42.41379310344828,40,41.37931034482759,40,40.3448275862069,40C39.310344827586206,40,38.275862068965516,40,37.241379310344826,40C36.206896551724135,40,35.172413793103445,40,34.137931034482754,40C33.103448275862064,40,32.06896551724138,40,31.03448275862069,40C30,40,28.965517241379313,40,27.931034482758623,40C26.896551724137932,40,25.862068965517242,40,24.82758620689655,40C23.79310344827586,40,22.758620689655174,40,21.724137931034484,40C20.689655172413794,40,19.655172413793103,40,18.620689655172413,40C17.586206896551722,40,16.551724137931036,40,15.517241379310345,40C14.482758620689655,40,13.448275862068966,40,12.413793103448276,40C11.379310344827585,40,10.344827586206897,40,9.310344827586206,40C8.275862068965516,40,7.241379310344827,40,6.206896551724138,40C5.172413793103448,40,4.137931034482759,40,3.103448275862069,40C2.068965517241379,40,1.0344827586206897,40,0,40Z"></path><path class="line" stroke="black" fill="none" d="M0,32.53333333333333C1.0344827586206897,30.8,2.068965517241379,29.06666666666667,3.103448275862069,28.533333333333335C4.137931034482759,28,5.172413793103448,27.733333333333334,6.206896551724138,27.733333333333334C7.241379310344827,27.733333333333334,8.275862068965516,31.200000000000003,9.310344827586206,31.200000000000003C10.344827586206897,31.200000000000003,11.379310344827585,26.4,12.413793103448276,26.4C13.448275862068966,26.4,14.482758620689655,34.4888888888889,15.517241379310345,34.66666666666667C16.551724137931036,34.84444444444444,17.586206896551722,34.93333333333333,18.620689655172413,34.93333333333333C19.655172413793103,34.93333333333333,20.689655172413794,34.75555555555555,21.724137931034484,34.4C22.758620689655174,34.044444444444444,23.79310344827586,30.4,24.82758620689655,30.4C25.862068965517242,30.4,26.896551724137932,35.2,27.931034482758623,35.2C28.965517241379313,35.2,30,31.466666666666665,31.03448275862069,31.466666666666665C32.06896551724138,31.466666666666665,33.103448275862064,34.66666666666667,34.137931034482754,34.66666666666667C35.172413793103445,34.66666666666667,36.206896551724135,34.13333333333333,37.241379310344826,34.13333333333333C38.275862068965516,34.13333333333333,39.310344827586206,34.4,40.3448275862069,34.4C41.37931034482759,34.4,42.41379310344828,34.4,43.44827586206897,34.4C44.48275862068966,34.4,45.51724137931035,31.333333333333336,46.55172413793104,30.133333333333333C47.58620689655173,28.933333333333334,48.62068965517241,27.199999999999996,49.6551724137931,27.199999999999996C50.689655172413794,27.199999999999996,51.72413793103448,28.533333333333335,52.75862068965517,29.066666666666666C53.79310344827586,29.6,54.827586206896555,29.911111111111108,55.862068965517246,30.4C56.896551724137936,30.888888888888886,57.93103448275862,31.333333333333336,58.96551724137931,32C60,32.666666666666664,61.03448275862069,34.4,62.06896551724138,34.4C63.10344827586207,34.4,64.13793103448276,30.48888888888889,65.17241379310344,29.333333333333336C66.20689655172413,28.17777777777778,67.24137931034483,28.266666666666662,68.27586206896551,27.466666666666665C69.3103448275862,26.666666666666664,70.34482758620689,24.53333333333333,71.37931034482759,24.53333333333333C72.41379310344827,24.53333333333333,73.44827586206897,25.42222222222222,74.48275862068965,27.199999999999996C75.51724137931033,28.97777777777777,76.55172413793103,36.800000000000004,77.58620689655172,36.800000000000004C78.62068965517241,36.800000000000004,79.6551724137931,33.866666666666674,80.6896551724138,32.800000000000004C81.72413793103448,31.73333333333334,82.75862068965517,31.55555555555555,83.79310344827586,30.4C84.82758620689656,29.24444444444444,85.86206896551724,27.466666666666672,86.89655172413794,25.866666666666667C87.93103448275862,24.26666666666667,88.96551724137932,20.8,90,20.8C91.0344827586207,20.8,92.06896551724138,22.400000000000002,93.10344827586208,22.400000000000002C94.13793103448276,22.400000000000002,95.17241379310344,18.133333333333333,96.20689655172413,18.133333333333333C97.24137931034483,18.133333333333333,98.27586206896551,21.333333333333332,99.3103448275862,21.333333333333332C100.3448275862069,21.333333333333332,101.37931034482759,20.266666666666666,102.41379310344828,20.266666666666666C103.44827586206897,20.266666666666666,104.48275862068965,26.977777777777778,105.51724137931033,29.066666666666666C106.55172413793103,31.155555555555573,107.58620689655172,32.800000000000004,108.62068965517241,32.800000000000004C109.65517241379311,32.800000000000004,110.6896551724138,23.111111111111118,111.72413793103449,22.400000000000002C112.75862068965517,21.68888888888889,113.79310344827587,21.688888888888886,114.82758620689656,21.333333333333332C115.86206896551724,20.977777777777778,116.89655172413794,20.977777777777778,117.93103448275862,20.266666666666666C118.96551724137932,19.55555555555555,120,5.333333333333332,121.0344827586207,5.333333333333332C122.06896551724138,5.333333333333332,123.10344827586208,13.466666666666665,124.13793103448276,16.266666666666666C125.17241379310344,19.066666666666666,126.20689655172414,22.133333333333333,127.24137931034483,22.133333333333333C128.27586206896552,22.133333333333333,129.3103448275862,9.866666666666667,130.3448275862069,9.866666666666667C131.3793103448276,9.866666666666667,132.41379310344828,10.044444444444444,133.44827586206898,10.4C134.48275862068965,10.75555555555555,135.51724137931035,21.866666666666667,136.55172413793102,21.866666666666667C137.58620689655172,21.866666666666667,138.6206896551724,12.533333333333335,139.6551724137931,12.533333333333335C140.6896551724138,12.533333333333335,141.72413793103448,18.40000000000001,142.75862068965517,18.933333333333337C143.79310344827587,19.466666666666665,144.82758620689654,19.200000000000003,145.86206896551724,19.73333333333333C146.89655172413794,20.26666666666666,147.9310344827586,29.066666666666666,148.9655172413793,29.066666666666666C150,29.066666666666666,151.0344827586207,21.600000000000037,152.0689655172414,17.599999999999998C153.10344827586206,13.600000000000032,154.13793103448276,5.066666666666668,155.17241379310343,5.066666666666668C156.20689655172413,5.066666666666668,157.24137931034483,10.84444444444443,158.27586206896552,13.866666666666667C159.31034482758622,16.888888888888875,160.3448275862069,23.200000000000003,161.3793103448276,23.200000000000003C162.41379310344828,23.200000000000003,163.44827586206895,18.666666666666668,164.48275862068965,18.666666666666668C165.51724137931035,18.666666666666668,166.55172413793102,28.8888888888889,167.58620689655172,29.6C168.6206896551724,30.31111111111111,169.6551724137931,30.666666666666664,170.6896551724138,30.666666666666664C171.7241379310345,30.666666666666664,172.75862068965517,28.844444444444445,173.79310344827587,27.733333333333334C174.82758620689657,26.622222222222224,175.86206896551724,24,176.89655172413794,24C177.93103448275863,24,178.9655172413793,24.266666666666666,180,24.53333333333333"></path><path class="axis-ceiling" stroke-width="1" stroke="black" fill="none" d="M175,0L180,0"></path><text class="axis-ceiling-label" font-family="sans-serif" text-anchor="end" font-size="10px" x="170" y="2.5">150</text></g></svg>