<svg xmlns="http://www.w3.org/2000/svg" viewBox="0 0 180 60"><g transform="translate(0,20)"><path class="area" fill="rgba(0, 0, 0, 0.2)" d="M0,37.328C1.0169491525423728,34.132000000000005,2.0338983050847457,30.936,3.0508474576271185,30.936C4.067796610169491,30.936,5.084745762711864,31.036,6.101694915254237,31.036C7.11864406779661,31.036,8.135593220338983,30.518666666666665,9.152542372881356,30.444C10.169491525423728,30.369333333333334,11.186440677966102,30.406666666666666,12.203389830508474,30.332C13.220338983050846,30.257333333333335,14.23728813559322,29.927999999999997,15.254237288135592,29.927999999999997C16.271186440677965,29.927999999999997,17.28813559322034,30.008,18.305084745762713,30.168C19.322033898305087,30.328,20.338983050847457,36.227999999999994,21.35593220338983,36.227999999999994C22.372881355932204,36.227999999999994,23.389830508474574,26.474666666666668,24.406779661016948,26.256C25.423728813559322,26.037333333333333,26.440677966101696,26.014000000000003,27.45762711864407,25.928C28.47457627118644,25.842000000000002,29.491525423728813,25.74,30.508474576271183,25.74C31.525423728813557,25.74,32.54237288135593,26.151999999999997,33.559322033898304,26.151999999999997C34.57627118644068,26.151999999999997,35.59322033898305,24.852666666666664,36.610169491525426,24.383999999999997C37.6271186440678,23.915333333333333,38.644067796610166,23.34,39.66101694915254,23.34C40.67796610169491,23.34,41.69491525423729,32.04,42.71186440677966,32.04C43.728813559322035,32.04,44.7457627118644,31.953333333333333,45.762711864406775,31.78C46.77966101694915,31.60666666666667,47.79661016949152,19.599999999999998,48.813559322033896,19.36C49.83050847457627,19.12,50.847457627118644,19,51.86440677966102,19C52.88135593220339,19,53.898305084745765,21.384,54.91525423728814,21.384C55.93220338983051,21.384,56.94915254237288,18.812,57.96610169491525,18.812C58.983050847457626,18.812,59.99999999999999,19.708000000000002,61.01694915254237,21.5C62.03389830508474,23.29200000000001,63.05084745762712,29.752000000000002,64.0677966101695,29.752000000000002C65.08474576271186,29.752000000000002,66.10169491525424,17.512,67.11864406779661,17.512C68.13559322033899,17.512,69.15254237288136,20.735999999999997,70.16949152542374,20.735999999999997C71.1864406779661,20.735999999999997,72.20338983050848,18.232,73.22033898305085,18.232C74.23728813559322,18.232,75.2542372881356,18.988,76.27118644067797,18.988C77.28813559322033,18.988,78.30508474576271,16.951999999999998,79.32203389830508,16.951999999999998C80.33898305084746,16.951999999999998,81.35593220338983,20.70733333333333,82.37288135593221,22.376C83.38983050847457,24.044666666666664,84.40677966101696,26.964,85.42372881355932,26.964C86.4406779661017,26.964,87.45762711864407,19.186666666666678,88.47457627118645,17.624C89.49152542372882,16.061333333333334,90.50847457627118,15.280000000000001,91.52542372881355,15.280000000000001C92.54237288135593,15.280000000000001,93.55932203389831,19.8,94.57627118644069,19.8C95.59322033898306,19.8,96.61016949152543,17.12,97.62711864406779,17.12C98.64406779661016,17.12,99.66101694915254,18.774,100.6779661016949,19.735999999999997C101.69491525423729,20.698,102.71186440677965,21.25333333333333,103.72881355932203,22.892000000000003C104.7457627118644,24.53066666666667,105.76271186440678,29.568000000000005,106.77966101694915,29.568000000000005C107.79661016949153,29.568000000000005,108.8135593220339,24.480666666666664,109.83050847457628,22.843999999999998C110.84745762711864,21.207333333333338,111.86440677966102,19.748,112.88135593220339,19.748C113.89830508474576,19.748,114.91525423728814,22.712000000000007,115.9322033898305,23.684000000000005C116.94915254237289,24.65600000000001,117.96610169491525,24.943999999999996,118.98305084745763,25.58C120,26.215999999999994,121.01694915254237,27.5,122.03389830508473,27.5C123.05084745762711,27.5,124.0677966101695,25.284,125.08474576271188,25.284C126.10169491525424,25.284,127.11864406779662,31.672000000000004,128.135593220339,31.672000000000004C129.15254237288136,31.672000000000004,130.16949152542372,24.13199999999999,131.1864406779661,22.740000000000002C132.20338983050846,21.348000000000003,133.22033898305085,20.652,134.23728813559322,20.652C135.25423728813558,20.652,136.27118644067798,21.23533333333333,137.28813559322035,21.955999999999996C138.3050847457627,22.676666666666662,139.3220338983051,24.976000000000003,140.33898305084747,24.976000000000003C141.35593220338984,24.976000000000003,142.3728813559322,24.236,143.38983050847457,24.236C144.40677966101694,24.236,145.42372881355934,25.52999999999999,146.4406779661017,27.024C147.45762711864407,28.517999999999997,148.47457627118644,33.199999999999996,149.4915254237288,33.199999999999996C150.50847457627117,33.199999999999996,151.52542372881356,24.787999999999997,152.54237288135593,24.787999999999997C153.5593220338983,24.787999999999997,154.5762711864407,24.886666666666663,155.59322033898306,25.084C156.61016949152543,25.281333333333333,157.6271186440678,26.316,158.64406779661016,26.791999999999998C159.66101694915253,27.268,160.67796610169492,27.67066666666667,161.6949152542373,27.94C162.71186440677965,28.209333333333333,163.72881355932205,28.096,164.74576271186442,28.407999999999998C165.76271186440678,28.71999999999999,166.77966101694915,30.116,167.79661016949152,30.991999999999997C168.81355932203388,31.868000000000002,169.83050847457628,33.664,170.84745762711864,33.664C171.864406779661,33.664,172.8813559322034,29.108,173.89830508474577,29.108C174.91525423728814,29.108,175.93220338983053,29.360666666666663,176.9491525423729,29.816000000000003C177.96610169491527,30.271333333333335,178.98305084745763,31.05566666666667,180,31.840000000000003L180,40C178.98305084745763,40,177.96610169491527,40,176.9491525423729,40C175.93220338983053,40,174.91525423728814,40,173.89830508474577,40C172.8813559322034,40,171.864406779661,40,170.84745762711864,40C169.83050847457628,40,168.81355932203388,40,167.79661016949152,40C166.77966101694915,40,165.76271186440678,40,164.74576271186442,40C163.72881355932205,40,162.71186440677965,40,161.6949152542373,40C160.67796610169492,40,159.66101694915253,40,158.64406779661016,40C157.6271186440678,40,156.61016949152543,40,155.59322033898306,40C154.5762711864407,40,153.5593220338983,40,152.54237288135593,40C151.52542372881356,40,150.50847457627117,40,149.4915254237288,40C148.47457627118644,40,147.45762711864407,40,146.4406779661017,40C145.42372881355934,40,144.40677966101694,40,143.38983050847457,40C142.3728813559322,40,141.35593220338984,40,140.33898305084747,40C139.3220338983051,40,138.3050847457627,40,137.28813559322035,40C136.27118644067798,40,135.25423728813558,40,134.23728813559322,40C133.22033898305085,40,132.20338983050846,40,131.1864406779661,40C130.16949152542372,40,129.15254237288136,40,128.135593220339,40C127.11864406779662,40,126.10169491525424,40,125.08474576271188,40C124.0677966101695,40,123.05084745762711,40,122.03389830508473,40C121.01694915254237,40,120,40,118.98305084745763,40C117.96610169491525,40,116.94915254237289,40,115.9322033898305,40C114.91525423728814,40,113.89830508474576,40,112.88135593220339,40C111.86440677966102,40,110.84745762711864,40,109.83050847457628,40C108.8135593220339,40,107.79661016949153,40,106.77966101694915,40C105.76271186440678,40,104.7457627118644,40,103.72881355932203,40C102.71186440677965,40,101.69491525423729,40,100.6779661016949,40C99.66101694915254,40,98.64406779661016,40,97.62711864406779,40C96.61016949152543,40,95.59322033898306,40,94.57627118644069,40C93.55932203389831,40,92.54237288135593,40,91.52542372881355,40C90.50847457627118,40,89.49152542372882,40,88.47457627118645,40C87.45762711864407,40,86.4406779661017,40,85.42372881355932,40C84.40677966101696,40,83.38983050847457,40,82.37288135593221,40C81.35593220338983,40,80.33898305084746,40,79.32203389830508,40C78.30508474576271,40,77.28813559322033,40,76.27118644067797,40C75.2542372881356,40,74.23728813559322,40,73.22033898305085,40C72.20338983050848,40,71.1864406779661,40,70.16949152542374,40C69.15254237288136,40,68.13559322033899,40,67.11864406779661,40C66.10169491525424,40,65.08474576271186,40,64.0677966101695,40C63.05084745762712,40,62.03389830508474,40,61.01694915254237,40C59.99999999999999,40,58.983050847457626,40,57.96610169491525,40C56.94915254237288,40,55.93220338983051,40,54.91525423728814,40C53.898305084745765,40,52.88135593220339,40,51.86440677966102,40C50.847457627118644,40,49.83050847457627,40,48.813559322033896,40C47.79661016949152,40,46.77966101694915,40,45.762711864406775,40C44.7457627118644,40,43.728813559322035,40,42.71186440677966,40C41.69491525423729,40,40.67796610169491,40,39.66101694915254,40C38.644067796610166,40,37.6271186440678,40,36.610169491525426,40C35.59322033898305,40,34.57627118644068,40,33.559322033898304,40C32.54237288135593,40,31.525423728813557,40,30.508474576271183,40C29.491525423728813,40,28.47457627118644,40,27.45762711864407,40C26.440677966101696,40,25.423728813559322,40,24.406779661016948,40C23.389830508474574,40,22.372881355932204,40,21.35593220338983,40C20.338983050847457,40,19.322033898305087,40,18.305084745762713,40C17.28813559322034,40,16.271186440677965,40,15.254237288135592,40C14.23728813559322,40,13.220338983050846,40,12.203389830508474,40C11.186440677966102,40,10.169491525423728,40,9.152542372881356,40C8.135593220338983,40,7.11864406779661,40,6.101694915254237,40C5.084745762711864,40,4.067796610169491,40,3.0508474576271185,40C2.0338983050847457,40,1.0169491525423728,40,0,40Z"></path><path class="line" stroke="black" fill="none" d="M0,37.328C1.0169491525423728,34.132000000000005,2.0338983050847457,30.936,3.0508474576271185,30.936C4.067796610169491,30.936,5.084745762711864,31.036,6.101694915254237,31.036C7.11864406779661,31.036,8.135593220338983,30.518666666666665,9.152542372881356,30.444C10.169491525423728,30.369333333333334,11.186440677966102,30.406666666666666,12.203389830508474,30.332C13.220338983050846,30.257333333333335,14.23728813559322,29.927999999999997,15.254237288135592,29.927999999999997C16.271186440677965,29.927999999999997,17.28813559322034,30.008,18.305084745762713,30.168C19.322033898305087,30.328,20.338983050847457,36.227999999999994,21.35593220338983,36.227999999999994C22.372881355932204,36.227999999999994,23.389830508474574,26.474666666666668,24.406779661016948,26.256C25.423728813559322,26.037333333333333,26.440677966101696,26.014000000000003,27.45762711864407,25.928C28.47457627118644,25.842000000000002,29.491525423728813,25.74,30.508474576271183,25.74C31.525423728813557,25.74,32.54237288135593,26.151999999999997,33.559322033898304,26.151999999999997C34.57627118644068,26.151999999999997,35.59322033898305,24.852666666666664,36.610169491525426,24.383999999999997C37.6271186440678,23.915333333333333,38.644067796610166,23.34,39.66101694915254,23.34C40.67796610169491,23.34,41.69491525423729,32.04,42.71186440677966,32.04C43.728813559322035,32.04,44.7457627118644,31.953333333333333,45.762711864406775,31.78C46.77966101694915,31.60666666666667,47.79661016949152,19.599999999999998,48.813559322033896,19.36C49.83050847457627,19.12,50.847457627118644,19,51.86440677966102,19C52.88135593220339,19,53.898305084745765,21.384,54.91525423728814,21.384C55.93220338983051,21.384,56.94915254237288,18.812,57.96610169491525,18.812C58.983050847457626,18.812,59.99999999999999,19.708000000000002,61.01694915254237,21.5C62.03389830508474,23.29200000000001,63.05084745762712,29.752000000000002,64.0677966101695,29.752000000000002C65.08474576271186,29.752000000000002,66.10169491525424,17.512,67.11864406779661,17.512C68.13559322033899,17.512,69.15254237288136,20.735999999999997,70.16949152542374,20.735999999999997C71.1864406779661,20.735999999999997,72.20338983050848,18.232,73.22033898305085,18.232C74.23728813559322,18.232,75.2542372881356,18.988,76.27118644067797,18.988C77.28813559322033,18.988,78.30508474576271,16.951999999999998,79.32203389830508,16.951999999999998C80.33898305084746,16.951999999999998,81.35593220338983,20.70733333333333,82.37288135593221,22.376C83.38983050847457,24.044666666666664,84.40677966101696,26.964,85.42372881355932,26.964C86.4406779661017,26.964,87.45762711864407,19.186666666666678,88.47457627118645,17.624C89.49152542372882,16.061333333333334,90.50847457627118,15.280000000000001,91.52542372881355,15.280000000000001C92.54237288135593,15.280000000000001,93.55932203389831,19.8,94.57627118644069,19.8C95.59322033898306,19.8,96.61016949152543,17.12,97.62711864406779,17.12C98.64406779661016,17.12,99.66101694915254,18.774,100.6779661016949,19.735999999999997C101.69491525423729,20.698,102.71186440677965,21.25333333333333,103.72881355932203,22.892000000000003C104.7457627118644,24.53066666666667,105.76271186440678,29.568000000000005,106.77966101694915,29.568000000000005C107.79661016949153,29.568000000000005,108.8135593220339,24.480666666666664,109.83050847457628,22.843999999999998C110.84745762711864,21.207333333333338,111.86440677966102,19.748,112.88135593220339,19.748C113.89830508474576,19.748,114.91525423728814,22.712000000000007,115.9322033898305,23.684000000000005C116.94915254237289,24.65600000000001,117.96610169491525,24.943999999999996,118.98305084745763,25.58C120,26.215999999999994,121.01694915254237,27.5,122.03389830508473,27.5C123.05084745762711,27.5,124.0677966101695,25.284,125.08474576271188,25.284C126.10169491525424,25.284,127.11864406779662,31.672000000000004,128.135593220339,31.672000000000004C129.15254237288136,31.672000000000004,130.16949152542372,24.13199999999999,131.1864406779661,22.740000000000002C132.20338983050846,21.348000000000003,133.22033898305085,20.652,134.23728813559322,20.652C135.25423728813558,20.652,136.27118644067798,21.23533333333333,137.28813559322035,21.955999999999996C138.3050847457627,22.676666666666662,139.3220338983051,24.976000000000003,140.33898305084747,24.976000000000003C141.35593220338984,24.976000000000003,142.3728813559322,24.236,143.38983050847457,24.236C144.40677966101694,24.236,145.42372881355934,25.52999999999999,146.4406779661017,27.024C147.45762711864407,28.517999999999997,148.47457627118644,33.199999999999996,149.4915254237288,33.199999999999996C150.50847457627117,33.199999999999996,151.52542372881356,24.787999999999997,152.54237288135593,24.787999999999997C153.5593220338983,24.787999999999997,154.5762711864407,24.886666666666663,155.59322033898306,25.084C156.61016949152543,25.281333333333333,157.6271186440678,26.316,158.64406779661016,26.791999999999998C159.66101694915253,27.268,160.67796610169492,27.67066666666667,161.6949152542373,27.94C162.71186440677965,28.209333333333333,163.72881355932205,28.096,164.74576271186442,28.407999999999998C165.76271186440678,28.71999999999999,166.77966101694915,30.116,167.79661016949152,30.991999999999997C168.81355932203388,31.868000000000002,169.83050847457628,33.664,170.84745762711864,33.664C171.864406779661,33.664,172.8813559322034,29.108,173.89830508474577,29.108C174.91525423728814,29.108,175.93220338983053,29.360666666666663,176.9491525423729,29.816000000000003C177.96610169491527,30.271333333333335,178.98305084745763,31.05566666666667,180,31.840000000000003"></path><path class="axis-ceiling" stroke-width="1" stroke="black" fill="none" d="M175,0L180,0"></path><text class="axis-ceiling-label" font-family="sans-serif" text-anchor="end" font-size="10px" x="170" y="2.5">10000</text></g></svg>