<svg xmlns="http://www.w3.org/2000/svg" viewBox="0 0 180 60"><g transform="translate(0,20)"><path class="area" fill="rgba(0, 0, 0, 0.2)" d="M0,33.714285714285715C1.0169491525423728,33.65714285714286,2.0338983050847457,33.6,3.0508474576271185,33.6C4.067796610169491,33.6,5.084745762711864,33.65714285714286,6.101694915254237,33.714285714285715C7.11864406779661,33.77142857142857,8.135593220338983,33.86666666666667,9.152542372881356,33.94285714285714C10.169491525423728,34.01904761904762,11.186440677966102,34.17142857142857,12.203389830508474,34.17142857142857C13.220338983050846,34.17142857142857,14.23728813559322,34.17142857142857,15.254237288135592,34.17142857142857C16.271186440677965,34.17142857142857,17.28813559322034,34.05714285714286,18.305084745762713,34.05714285714286C19.322033898305087,34.05714285714286,20.338983050847457,34.095238095238095,21.35593220338983,34.17142857142857C22.372881355932204,34.24761904761905,23.389830508474574,34.628571428571426,24.406779661016948,34.628571428571426C25.423728813559322,34.628571428571426,26.440677966101696,34.51428571428571,27.45762711864407,34.51428571428571C28.47457627118644,34.51428571428571,29.491525423728813,34.51428571428571,30.508474576271183,34.51428571428571C31.525423728813557,34.51428571428571,32.54237288135593,34.4,33.559322033898304,34.4C34.57627118644068,34.4,35.59322033898305,34.51428571428571,36.610169491525426,34.51428571428571C37.6271186440678,34.51428571428571,38.644067796610166,34.34285714285715,39.66101694915254,34.28571428571429C40.67796610169491,34.228571428571435,41.69491525423729,34.17142857142857,42.71186440677966,34.17142857142857C43.728813559322035,34.17142857142857,44.7457627118644,34.17142857142857,45.762711864406775,34.17142857142857C46.77966101694915,34.17142857142857,47.79661016949152,34.17142857142857,48.813559322033896,34.17142857142857C49.83050847457627,34.17142857142857,50.847457627118644,34.28571428571429,51.86440677966102,34.28571428571429C52.88135593220339,34.28571428571429,53.898305084745765,34.22857142857143,54.91525423728814,34.17142857142857C55.93220338983051,34.114285714285714,56.94915254237288,33.94285714285714,57.96610169491525,33.94285714285714C58.983050847457626,33.94285714285714,59.99999999999999,33.94285714285714,61.01694915254237,33.94285714285714C62.03389830508474,33.94285714285714,63.05084745762712,33.714285714285715,64.0677966101695,33.6C65.08474576271186,33.48571428571429,66.10169491525424,33.44761904761904,67.11864406779661,33.25714285714285C68.13559322033899,33.06666666666666,69.15254237288136,32.72380952380952,70.16949152542374,32.457142857142856C71.1864406779661,32.19047619047619,72.20338983050848,31.847619047619045,73.22033898305085,31.657142857142855C74.23728813559322,31.466666666666665,75.2542372881356,31.314285714285717,76.27118644067797,31.314285714285717C77.28813559322033,31.314285714285717,78.30508474576271,31.314285714285717,79.32203389830508,31.314285714285717C80.33898305084746,31.314285714285717,81.35593220338983,30.361904761904764,82.37288135593221,30.057142857142857C83.38983050847457,29.752380952380953,84.40677966101696,29.71428571428571,85.42372881355932,29.485714285714284C86.4406779661017,29.257142857142856,87.45762711864407,28.91428571428571,88.47457627118645,28.685714285714283C89.49152542372882,28.457142857142856,90.50847457627118,28.34285714285714,91.52542372881355,28.114285714285714C92.54237288135593,27.885714285714286,93.55932203389831,27.580952380952382,94.57627118644069,27.314285714285713C95.59322033898306,27.047619047619047,96.61016949152543,26.74285714285714,97.62711864406779,26.514285714285712C98.64406779661016,26.285714285714285,99.66101694915254,26.076190476190476,100.6779661016949,25.942857142857143C101.69491525423729,25.80952380952381,102.71186440677965,25.71428571428571,103.72881355932203,25.71428571428571C104.7457627118644,25.71428571428571,105.76271186440678,26.285714285714285,106.77966101694915,26.285714285714285C107.79661016949153,26.285714285714285,108.8135593220339,26.285714285714285,109.83050847457628,26.285714285714285C110.84745762711864,26.285714285714285,111.86440677966102,25.92380952380952,112.88135593220339,25.71428571428571C113.89830508474576,25.504761904761903,114.91525423728814,25.199999999999996,115.9322033898305,25.028571428571425C116.94915254237289,24.857142857142854,117.96610169491525,24.68571428571429,118.98305084745763,24.68571428571429C120,24.68571428571429,121.01694915254237,24.68571428571429,122.03389830508473,24.68571428571429C123.05084745762711,24.68571428571429,124.0677966101695,24.209523809523816,125.08474576271188,23.54285714285714C126.10169491525424,22.876190476190473,127.11864406779662,21.447619047619046,128.135593220339,20.685714285714283C129.15254237288136,19.923809523809524,130.16949152542372,19.504761904761903,131.1864406779661,18.97142857142857C132.20338983050846,18.438095238095237,133.22033898305085,18.000000000000004,134.23728813559322,17.485714285714288C135.25423728813558,16.97142857142857,136.27118644067798,16.495238095238097,137.28813559322035,15.885714285714286C138.3050847457627,15.276190476190477,139.3220338983051,13.82857142857143,140.33898305084747,13.82857142857143C141.35593220338984,13.82857142857143,142.3728813559322,13.942857142857141,143.38983050847457,13.942857142857141C144.40677966101694,13.942857142857141,145.42372881355934,13.428571428571427,146.4406779661017,13.257142857142856C147.45762711864407,13.085714285714287,148.47457627118644,13.142857142857142,149.4915254237288,12.914285714285715C150.50847457627117,12.685714285714285,151.52542372881356,11.771428571428572,152.54237288135593,11.200000000000001C153.5593220338983,10.62857142857143,154.5762711864407,10.133333333333336,155.59322033898306,9.485714285714284C156.61016949152543,8.838095238095239,157.6271186440678,8.285714285714278,158.64406779661016,7.314285714285713C159.66101694915253,6.34285714285714,160.67796610169492,4.838095238095238,161.6949152542373,3.6571428571428566C162.71186440677965,2.4761904761904754,163.72881355932205,0.22857142857142687,164.74576271186442,0.22857142857142687C165.76271186440678,0.22857142857142687,166.77966101694915,1.257142857142859,167.79661016949152,1.257142857142859C168.81355932203388,1.257142857142859,169.83050847457628,0.4571428571428582,170.84745762711864,0.4571428571428582C171.864406779661,0.4571428571428582,172.8813559322034,0.685714285714285,173.89830508474577,0.685714285714285C174.91525423728814,0.685714285714285,175.93220338983053,0.4571428571428582,176.9491525423729,0.4571428571428582C177.96610169491527,0.4571428571428582,178.98305084745763,3.82857142857143,180,7.200000000000002L180,40C178.98305084745763,40,177.96610169491527,40,176.9491525423729,40C175.93220338983053,40,174.91525423728814,40,173.89830508474577,40C172.8813559322034,40,171.864406779661,40,170.84745762711864,40C169.83050847457628,40,168.81355932203388,40,167.79661016949152,40C166.77966101694915,40,165.76271186440678,40,164.74576271186442,40C163.72881355932205,40,162.71186440677965,40,161.6949152542373,40C160.67796610169492,40,159.66101694915253,40,158.64406779661016,40C157.6271186440678,40,156.61016949152543,40,155.59322033898306,40C154.5762711864407,40,153.5593220338983,40,152.54237288135593,40C151.52542372881356,40,150.50847457627117,40,149.4915254237288,40C148.47457627118644,40,147.45762711864407,40,146.4406779661017,40C145.42372881355934,40,144.40677966101694,40,143.38983050847457,40C142.3728813559322,40,141.35593220338984,40,140.33898305084747,40C139.3220338983051,40,138.3050847457627,40,137.28813559322035,40C136.27118644067798,40,135.25423728813558,40,134.23728813559322,40C133.22033898305085,40,132.20338983050846,40,131.1864406779661,40C130.16949152542372,40,129.15254237288136,40,128.135593220339,40C127.11864406779662,40,126.10169491525424,40,125.08474576271188,40C124.0677966101695,40,123.05084745762711,40,122.03389830508473,40C121.01694915254237,40,120,40,118.98305084745763,40C117.96610169491525,40,116.94915254237289,40,115.9322033898305,40C114.91525423728814,40,113.89830508474576,40,112.88135593220339,40C111.86440677966102,40,110.84745762711864,40,109.83050847457628,40C108.8135593220339,40,107.79661016949153,40,106.77966101694915,40C105.76271186440678,40,104.7457627118644,40,103.72881355932203,40C102.71186440677965,40,101.69491525423729,40,100.6779661016949,40C99.66101694915254,40,98.64406779661016,40,97.62711864406779,40C96.61016949152543,40,95.59322033898306,40,94.57627118644069,40C93.55932203389831,40,92.54237288135593,40,91.52542372881355,40C90.50847457627118,40,89.49152542372882,40,88.47457627118645,40C87.45762711864407,40,86.4406779661017,40,85.42372881355932,40C84.40677966101696,40,83.38983050847457,40,82.37288135593221,40C81.35593220338983,40,80.33898305084746,40,79.32203389830508,40C78.30508474576271,40,77.28813559322033,40,76.27118644067797,40C75.2542372881356,40,74.23728813559322,40,73.22033898305085,40C72.20338983050848,40,71.1864406779661,40,70.16949152542374,40C69.15254237288136,40,68.13559322033899,40,67.11864406779661,40C66.10169491525424,40,65.08474576271186,40,64.0677966101695,40C63.05084745762712,40,62.03389830508474,40,61.01694915254237,40C59.99999999999999,40,58.983050847457626,40,57.96610169491525,40C56.94915254237288,40,55.93220338983051,40,54.91525423728814,40C53.898305084745765,40,52.88135593220339,40,51.86440677966102,40C50.847457627118644,40,49.83050847457627,40,48.813559322033896,40C47.79661016949152,40,46.77966101694915,40,45.762711864406775,40C44.7457627118644,40,43.728813559322035,40,42.71186440677966,40C41.69491525423729,40,40.67796610169491,40,39.66101694915254,40C38.644067796610166,40,37.6271186440678,40,36.610169491525426,40C35.59322033898305,40,34.57627118644068,40,33.559322033898304,40C32.54237288135593,40,31.525423728813557,40,30.508474576271183,40C29.491525423728813,40,28.47457627118644,40,27.45762711864407,40C26.440677966101696,40,25.423728813559322,40,24.406779661016948,40C23.389830508474574,40,22.372881355932204,40,21.35593220338983,40C20.338983050847457,40,19.322033898305087,40,18.305084745762713,40C17.28813559322034,40,16.271186440677965,40,15.254237288135592,40C14.23728813559322,40,13.220338983050846,40,12.203389830508474,40C11.186440677966102,40,10.169491525423728,40,9.152542372881356,40C8.135593220338983,40,7.11864406779661,40,6.101694915254237,40C5.084745762711864,40,4.067796610169491,40,3.0508474576271185,40C2.0338983050847457,40,1.0169491525423728,40,0,40Z"></path><path class="line" stroke="black" fill="none" d="M0,33.714285714285715C1.0169491525423728,33.65714285714286,2.0338983050847457,33.6,3.0508474576271185,33.6C4.067796610169491,33.6,5.084745762711864,33.65714285714286,6.101694915254237,33.714285714285715C7.11864406779661,33.77142857142857,8.135593220338983,33.86666666666667,9.152542372881356,33.94285714285714C10.169491525423728,34.01904761904762,11.186440677966102,34.17142857142857,12.203389830508474,34.17142857142857C13.220338983050846,34.17142857142857,14.23728813559322,34.17142857142857,15.254237288135592,34.17142857142857C16.271186440677965,34.17142857142857,17.28813559322034,34.05714285714286,18.305084745762713,34.05714285714286C19.322033898305087,34.05714285714286,20.338983050847457,34.095238095238095,21.35593220338983,34.17142857142857C22.372881355932204,34.24761904761905,23.389830508474574,34.628571428571426,24.406779661016948,34.628571428571426C25.423728813559322,34.628571428571426,26.440677966101696,34.51428571428571,27.45762711864407,34.51428571428571C28.47457627118644,34.51428571428571,29.491525423728813,34.51428571428571,30.508474576271183,34.51428571428571C31.525423728813557,34.51428571428571,32.54237288135593,34.4,33.559322033898304,34.4C34.57627118644068,34.4,35.59322033898305,34.51428571428571,36.610169491525426,34.51428571428571C37.6271186440678,34.51428571428571,38.644067796610166,34.34285714285715,39.66101694915254,34.28571428571429C40.67796610169491,34.228571428571435,41.69491525423729,34.17142857142857,42.71186440677966,34.17142857142857C43.728813559322035,34.17142857142857,44.7457627118644,34.17142857142857,45.762711864406775,34.17142857142857C46.77966101694915,34.17142857142857,47.79661016949152,34.17142857142857,48.813559322033896,34.17142857142857C49.83050847457627,34.17142857142857,50.847457627118644,34.28571428571429,51.86440677966102,34.28571428571429C52.88135593220339,34.28571428571429,53.898305084745765,34.22857142857143,54.91525423728814,34.17142857142857C55.93220338983051,34.114285714285714,56.94915254237288,33.94285714285714,57.96610169491525,33.94285714285714C58.983050847457626,33.94285714285714,59.99999999999999,33.94285714285714,61.01694915254237,33.94285714285714C62.03389830508474,33.94285714285714,63.05084745762712,33.714285714285715,64.0677966101695,33.6C65.08474576271186,33.48571428571429,66.10169491525424,33.44761904761904,67.11864406779661,33.25714285714285C68.13559322033899,33.06666666666666,69.15254237288136,32.72380952380952,70.16949152542374,32.457142857142856C71.1864406779661,32.19047619047619,72.20338983050848,31.847619047619045,73.22033898305085,31.657142857142855C74.23728813559322,31.466666666666665,75.2542372881356,31.314285714285717,76.27118644067797,31.314285714285717C77.28813559322033,31.314285714285717,78.30508474576271,31.314285714285717,79.32203389830508,31.314285714285717C80.33898305084746,31.314285714285717,81.35593220338983,30.361904761904764,82.37288135593221,30.057142857142857C83.38983050847457,29.752380952380953,84.40677966101696,29.71428571428571,85.42372881355932,29.485714285714284C86.4406779661017,29.257142857142856,87.45762711864407,28.91428571428571,88.47457627118645,28.685714285714283C89.49152542372882,28.457142857142856,90.50847457627118,28.34285714285714,91.52542372881355,28.114285714285714C92.54237288135593,27.885714285714286,93.55932203389831,27.580952380952382,94.57627118644069,27.314285714285713C95.59322033898306,27.047619047619047,96.61016949152543,26.74285714285714,97.62711864406779,26.514285714285712C98.64406779661016,26.285714285714285,99.66101694915254,26.076190476190476,100.6779661016949,25.942857142857143C101.69491525423729,25.80952380952381,102.71186440677965,25.71428571428571,103.72881355932203,25.71428571428571C104.7457627118644,25.71428571428571,105.76271186440678,26.285714285714285,106.77966101694915,26.285714285714285C107.79661016949153,26.285714285714285,108.8135593220339,26.285714285714285,109.83050847457628,26.285714285714285C110.84745762711864,26.285714285714285,111.86440677966102,25.92380952380952,112.88135593220339,25.71428571428571C113.89830508474576,25.504761904761903,114.91525423728814,25.199999999999996,115.9322033898305,25.028571428571425C116.94915254237289,24.857142857142854,117.96610169491525,24.68571428571429,118.98305084745763,24.68571428571429C120,24.68571428571429,121.01694915254237,24.68571428571429,122.03389830508473,24.68571428571429C123.05084745762711,24.68571428571429,124.0677966101695,24.209523809523816,125.08474576271188,23.54285714285714C126.10169491525424,22.876190476190473,127.11864406779662,21.447619047619046,128.135593220339,20.685714285714283C129.15254237288136,19.923809523809524,130.16949152542372,19.504761904761903,131.1864406779661,18.97142857142857C132.20338983050846,18.438095238095237,133.22033898305085,18.000000000000004,134.23728813559322,17.485714285714288C135.25423728813558,16.97142857142857,136.27118644067798,16.495238095238097,137.28813559322035,15.885714285714286C138.3050847457627,15.276190476190477,139.3220338983051,13.82857142857143,140.33898305084747,13.82857142857143C141.35593220338984,13.82857142857143,142.3728813559322,13.942857142857141,143.38983050847457,13.942857142857141C144.40677966101694,13.942857142857141,145.42372881355934,13.428571428571427,146.4406779661017,13.257142857142856C147.45762711864407,13.085714285714287,148.47457627118644,13.142857142857142,149.4915254237288,12.914285714285715C150.50847457627117,12.685714285714285,151.52542372881356,11.771428571428572,152.54237288135593,11.200000000000001C153.5593220338983,10.62857142857143,154.5762711864407,10.133333333333336,155.59322033898306,9.485714285714284C156.61016949152543,8.838095238095239,157.6271186440678,8.285714285714278,158.64406779661016,7.314285714285713C159.66101694915253,6.34285714285714,160.67796610169492,4.838095238095238,161.6949152542373,3.6571428571428566C162.71186440677965,2.4761904761904754,163.72881355932205,0.22857142857142687,164.74576271186442,0.22857142857142687C165.76271186440678,0.22857142857142687,166.77966101694915,1.257142857142859,167.79661016949152,1.257142857142859C168.81355932203388,1.257142857142859,169.83050847457628,0.4571428571428582,170.84745762711864,0.4571428571428582C171.864406779661,0.4571428571428582,172.8813559322034,0.685714285714285,173.89830508474577,0.685714285714285C174.91525423728814,0.685714285714285,175.93220338983053,0.4571428571428582,176.9491525423729,0.4571428571428582C177.96610169491527,0.4571428571428582,178.98305084745763,3.82857142857143,180,7.200000000000002"></path><path class="axis-ceiling" stroke-width="1" stroke="black" fill="none" d="M175,0L180,0"></path><text class="axis-ceiling-label" font-family="sans-serif" text-anchor="end" font-size="10px" x="170" y="2.5">350</text></g></svg>