<svg xmlns="http://www.w3.org/2000/svg" viewBox="0 0 180 60"><g transform="translate(0,20)"><path class="area" fill="rgba(0, 0, 0, 0.2)" d="M0,27.461333333333332C1.0169491525423728,19.619111111111113,2.0338983050847457,11.776888888888893,3.0508474576271185,10.829333333333334C4.067796610169491,9.881777777777776,5.084745762711864,9.407999999999998,6.101694915254237,9.407999999999998C7.11864406779661,9.407999999999998,8.135593220338983,24.91466666666667,9.152542372881356,24.91466666666667C10.169491525423728,24.91466666666667,11.186440677966102,19.35377777777778,12.203389830508474,17.24266666666667C13.220338983050846,15.131555555555558,14.23728813559322,12.248000000000001,15.254237288135592,12.248000000000001C16.271186440677965,12.248000000000001,17.28813559322034,19.547555555555554,18.305084745762713,22.114666666666665C19.322033898305087,24.681777777777775,20.338983050847457,27.650666666666666,21.35593220338983,27.650666666666666C22.372881355932204,27.650666666666666,23.389830508474574,16.540444444444447,24.406779661016948,16.090666666666667C25.423728813559322,15.640888888888888,26.440677966101696,15.415999999999999,27.45762711864407,15.415999999999999C28.47457627118644,15.415999999999999,29.491525423728813,18.21466666666667,30.508474576271183,19.336000000000002C31.525423728813557,20.457333333333338,32.54237288135593,22.144,33.559322033898304,22.144C34.57627118644068,22.144,35.59322033898305,20.970666666666666,36.610169491525426,20.970666666666666C37.6271186440678,20.970666666666666,38.644067796610166,23.24844444444445,39.66101694915254,25.514666666666667C40.67796610169491,27.78088888888889,41.69491525423729,34.568,42.71186440677966,34.568C43.728813559322035,34.568,44.7457627118644,23.65777777777778,45.762711864406775,22.64266666666667C46.77966101694915,21.627555555555556,47.79661016949152,21.12,48.813559322033896,21.12C49.83050847457627,21.12,50.847457627118644,22.198666666666668,51.86440677966102,23.141333333333336C52.88135593220339,24.084000000000003,53.898305084745765,26.776,54.91525423728814,26.776C55.93220338983051,26.776,56.94915254237288,25.122666666666667,57.96610169491525,25.122666666666667C58.983050847457626,25.122666666666667,59.99999999999999,25.72888888888889,61.01694915254237,26.941333333333333C62.03389830508474,28.153777777777783,63.05084745762712,36.088,64.0677966101695,36.088C65.08474576271186,36.088,66.10169491525424,24.05333333333333,67.11864406779661,24.05333333333333C68.13559322033899,24.05333333333333,69.15254237288136,24.267555555555553,70.16949152542374,24.695999999999998C71.1864406779661,25.12444444444444,72.20338983050848,25.809777777777775,73.22033898305085,26.642666666666663C74.23728813559322,27.47555555555555,75.2542372881356,29.291555555555554,76.27118644067797,29.69333333333333C77.28813559322033,30.09511111111111,78.30508474576271,29.894222222222222,79.32203389830508,30.296C80.33898305084746,30.69777777777778,81.35593220338983,31.355999999999998,82.37288135593221,32.245333333333335C83.38983050847457,33.13466666666667,84.40677966101696,34.78311111111112,85.42372881355932,35.632000000000005C86.4406779661017,36.4808888888889,87.45762711864407,37.33866666666667,88.47457627118645,37.33866666666667C89.49152542372882,37.33866666666667,90.50847457627118,27.226666666666667,91.52542372881355,27.226666666666667C92.54237288135593,27.226666666666667,93.55932203389831,27.579111111111107,94.57627118644069,28.026666666666667C95.59322033898306,28.474222222222224,96.61016949152543,29.666666666666664,97.62711864406779,29.912C98.64406779661016,30.157333333333334,99.66101694915254,30.151111111111113,100.6779661016949,30.28C101.69491525423729,30.40888888888889,102.71186440677965,30.415111111111113,103.72881355932203,30.685333333333332C104.7457627118644,30.955555555555552,105.76271186440678,36.96,106.77966101694915,36.96C107.79661016949153,36.96,108.8135593220339,28.741333333333333,109.83050847457628,28.426666666666666C110.84745762711864,28.112000000000002,111.86440677966102,27.954666666666668,112.88135593220339,27.954666666666668C113.89830508474576,27.954666666666668,114.91525423728814,29.92888888888889,115.9322033898305,30.042666666666666C116.94915254237289,30.156444444444443,117.96610169491525,30.206222222222216,118.98305084745763,30.21333333333333C120,30.220444444444446,121.01694915254237,30.224000000000004,122.03389830508473,30.224000000000004C123.05084745762711,30.224000000000004,124.0677966101695,29.973333333333336,125.08474576271188,29.973333333333336C126.10169491525424,29.973333333333336,127.11864406779662,36.690666666666665,128.135593220339,36.690666666666665C129.15254237288136,36.690666666666665,130.16949152542372,29.383999999999986,131.1864406779661,28.407999999999998C132.20338983050846,27.432,133.22033898305085,26.944,134.23728813559322,26.944C135.25423728813558,26.944,136.27118644067798,27.142222222222223,137.28813559322035,27.538666666666668C138.3050847457627,27.935111111111112,139.3220338983051,29.57866666666667,140.33898305084747,29.57866666666667C141.35593220338984,29.57866666666667,142.3728813559322,28.799999999999997,143.38983050847457,28.799999999999997C144.40677966101694,28.799999999999997,145.42372881355934,29.28711111111111,146.4406779661017,30.261333333333333C147.45762711864407,31.235555555555546,148.47457627118644,36.135999999999996,149.4915254237288,36.135999999999996C150.50847457627117,36.135999999999996,151.52542372881356,26.655111111111115,152.54237288135593,26.53066666666667C153.5593220338983,26.406222222222222,154.5762711864407,26.344,155.59322033898306,26.344C156.61016949152543,26.344,157.6271186440678,27.860888888888887,158.64406779661016,28.495999999999995C159.66101694915253,29.13111111111111,160.67796610169492,30.069333333333333,161.6949152542373,30.154666666666667C162.71186440677965,30.240000000000002,163.72881355932205,30.197333333333333,164.74576271186442,30.282666666666668C165.76271186440678,30.368,166.77966101694915,31.584444444444458,167.79661016949152,32.781333333333336C168.81355932203388,33.97822222222223,169.83050847457628,37.464,170.84745762711864,37.464C171.864406779661,37.464,172.8813559322034,30.022222222222226,173.89830508474577,29.816000000000003C174.91525423728814,29.60977777777778,175.93220338983053,29.506666666666668,176.9491525423729,29.506666666666668C177.96610169491527,29.506666666666668,178.98305084745763,30,180,30.493333333333332L180,40C178.98305084745763,40,177.96610169491527,40,176.9491525423729,40C175.93220338983053,40,174.91525423728814,40,173.89830508474577,40C172.8813559322034,40,171.864406779661,40,170.84745762711864,40C169.83050847457628,40,168.81355932203388,40,167.79661016949152,40C166.77966101694915,40,165.76271186440678,40,164.74576271186442,40C163.72881355932205,40,162.71186440677965,40,161.6949152542373,40C160.67796610169492,40,159.66101694915253,40,158.64406779661016,40C157.6271186440678,40,156.61016949152543,40,155.59322033898306,40C154.5762711864407,40,153.5593220338983,40,152.54237288135593,40C151.52542372881356,40,150.50847457627117,40,149.4915254237288,40C148.47457627118644,40,147.45762711864407,40,146.4406779661017,40C145.42372881355934,40,144.40677966101694,40,143.38983050847457,40C142.3728813559322,40,141.35593220338984,40,140.33898305084747,40C139.3220338983051,40,138.3050847457627,40,137.28813559322035,40C136.27118644067798,40,135.25423728813558,40,134.23728813559322,40C133.22033898305085,40,132.20338983050846,40,131.1864406779661,40C130.16949152542372,40,129.15254237288136,40,128.135593220339,40C127.11864406779662,40,126.10169491525424,40,125.08474576271188,40C124.0677966101695,40,123.05084745762711,40,122.03389830508473,40C121.01694915254237,40,120,40,118.98305084745763,40C117.96610169491525,40,116.94915254237289,40,115.9322033898305,40C114.91525423728814,40,113.89830508474576,40,112.88135593220339,40C111.86440677966102,40,110.84745762711864,40,109.83050847457628,40C108.8135593220339,40,107.79661016949153,40,106.77966101694915,40C105.76271186440678,40,104.7457627118644,40,103.72881355932203,40C102.71186440677965,40,101.69491525423729,40,100.6779661016949,40C99.66101694915254,40,98.64406779661016,40,97.62711864406779,40C96.61016949152543,40,95.59322033898306,40,94.57627118644069,40C93.55932203389831,40,92.54237288135593,40,91.52542372881355,40C90.50847457627118,40,89.49152542372882,40,88.47457627118645,40C87.45762711864407,40,86.4406779661017,40,85.42372881355932,40C84.40677966101696,40,83.38983050847457,40,82.37288135593221,40C81.35593220338983,40,80.33898305084746,40,79.32203389830508,40C78.30508474576271,40,77.28813559322033,40,76.27118644067797,40C75.2542372881356,40,74.23728813559322,40,73.22033898305085,40C72.20338983050848,40,71.1864406779661,40,70.16949152542374,40C69.15254237288136,40,68.13559322033899,40,67.11864406779661,40C66.10169491525424,40,65.08474576271186,40,64.0677966101695,40C63.05084745762712,40,62.03389830508474,40,61.01694915254237,40C59.99999999999999,40,58.983050847457626,40,57.96610169491525,40C56.94915254237288,40,55.93220338983051,40,54.91525423728814,40C53.898305084745765,40,52.88135593220339,40,51.86440677966102,40C50.847457627118644,40,49.83050847457627,40,48.813559322033896,40C47.79661016949152,40,46.77966101694915,40,45.762711864406775,40C44.7457627118644,40,43.728813559322035,40,42.71186440677966,40C41.69491525423729,40,40.67796610169491,40,39.66101694915254,40C38.644067796610166,40,37.6271186440678,40,36.610169491525426,40C35.59322033898305,40,34.57627118644068,40,33.559322033898304,40C32.54237288135593,40,31.525423728813557,40,30.508474576271183,40C29.491525423728813,40,28.47457627118644,40,27.45762711864407,40C26.440677966101696,40,25.423728813559322,40,24.406779661016948,40C23.389830508474574,40,22.372881355932204,40,21.35593220338983,40C20.338983050847457,40,19.322033898305087,40,18.305084745762713,40C17.28813559322034,40,16.271186440677965,40,15.254237288135592,40C14.23728813559322,40,13.220338983050846,40,12.203389830508474,40C11.186440677966102,40,10.169491525423728,40,9.152542372881356,40C8.135593220338983,40,7.11864406779661,40,6.101694915254237,40C5.084745762711864,40,4.067796610169491,40,3.0508474576271185,40C2.0338983050847457,40,1.0169491525423728,40,0,40Z"></path><path class="line" stroke="black" fill="none" d="M0,27.461333333333332C1.0169491525423728,19.619111111111113,2.0338983050847457,11.776888888888893,3.0508474576271185,10.829333333333334C4.067796610169491,9.881777777777776,5.084745762711864,9.407999999999998,6.101694915254237,9.407999999999998C7.11864406779661,9.407999999999998,8.135593220338983,24.91466666666667,9.152542372881356,24.91466666666667C10.169491525423728,24.91466666666667,11.186440677966102,19.35377777777778,12.203389830508474,17.24266666666667C13.220338983050846,15.131555555555558,14.23728813559322,12.248000000000001,15.254237288135592,12.248000000000001C16.271186440677965,12.248000000000001,17.28813559322034,19.547555555555554,18.305084745762713,22.114666666666665C19.322033898305087,24.681777777777775,20.338983050847457,27.650666666666666,21.35593220338983,27.650666666666666C22.372881355932204,27.650666666666666,23.389830508474574,16.540444444444447,24.406779661016948,16.090666666666667C25.423728813559322,15.640888888888888,26.440677966101696,15.415999999999999,27.45762711864407,15.415999999999999C28.47457627118644,15.415999999999999,29.491525423728813,18.21466666666667,30.508474576271183,19.336000000000002C31.525423728813557,20.457333333333338,32.54237288135593,22.144,33.559322033898304,22.144C34.57627118644068,22.144,35.59322033898305,20.970666666666666,36.610169491525426,20.970666666666666C37.6271186440678,20.970666666666666,38.644067796610166,23.24844444444445,39.66101694915254,25.514666666666667C40.67796610169491,27.78088888888889,41.69491525423729,34.568,42.71186440677966,34.568C43.728813559322035,34.568,44.7457627118644,23.65777777777778,45.762711864406775,22.64266666666667C46.77966101694915,21.627555555555556,47.79661016949152,21.12,48.813559322033896,21.12C49.83050847457627,21.12,50.847457627118644,22.198666666666668,51.86440677966102,23.141333333333336C52.88135593220339,24.084000000000003,53.898305084745765,26.776,54.91525423728814,26.776C55.93220338983051,26.776,56.94915254237288,25.122666666666667,57.96610169491525,25.122666666666667C58.983050847457626,25.122666666666667,59.99999999999999,25.72888888888889,61.01694915254237,26.941333333333333C62.03389830508474,28.153777777777783,63.05084745762712,36.088,64.0677966101695,36.088C65.08474576271186,36.088,66.10169491525424,24.05333333333333,67.11864406779661,24.05333333333333C68.13559322033899,24.05333333333333,69.15254237288136,24.267555555555553,70.16949152542374,24.695999999999998C71.1864406779661,25.12444444444444,72.20338983050848,25.809777777777775,73.22033898305085,26.642666666666663C74.23728813559322,27.47555555555555,75.2542372881356,29.291555555555554,76.27118644067797,29.69333333333333C77.28813559322033,30.09511111111111,78.30508474576271,29.894222222222222,79.32203389830508,30.296C80.33898305084746,30.69777777777778,81.35593220338983,31.355999999999998,82.37288135593221,32.245333333333335C83.38983050847457,33.13466666666667,84.40677966101696,34.78311111111112,85.42372881355932,35.632000000000005C86.4406779661017,36.4808888888889,87.45762711864407,37.33866666666667,88.47457627118645,37.33866666666667C89.49152542372882,37.33866666666667,90.50847457627118,27.226666666666667,91.52542372881355,27.226666666666667C92.54237288135593,27.226666666666667,93.55932203389831,27.579111111111107,94.57627118644069,28.026666666666667C95.59322033898306,28.474222222222224,96.61016949152543,29.666666666666664,97.62711864406779,29.912C98.64406779661016,30.157333333333334,99.66101694915254,30.151111111111113,100.6779661016949,30.28C101.69491525423729,30.40888888888889,102.71186440677965,30.415111111111113,103.72881355932203,30.685333333333332C104.7457627118644,30.955555555555552,105.76271186440678,36.96,106.77966101694915,36.96C107.79661016949153,36.96,108.8135593220339,28.741333333333333,109.83050847457628,28.426666666666666C110.84745762711864,28.112000000000002,111.86440677966102,27.954666666666668,112.88135593220339,27.954666666666668C113.89830508474576,27.954666666666668,114.91525423728814,29.92888888888889,115.9322033898305,30.042666666666666C116.94915254237289,30.156444444444443,117.96610169491525,30.206222222222216,118.98305084745763,30.21333333333333C120,30.220444444444446,121.01694915254237,30.224000000000004,122.03389830508473,30.224000000000004C123.05084745762711,30.224000000000004,124.0677966101695,29.973333333333336,125.08474576271188,29.973333333333336C126.10169491525424,29.973333333333336,127.11864406779662,36.690666666666665,128.135593220339,36.690666666666665C129.15254237288136,36.690666666666665,130.16949152542372,29.383999999999986,131.1864406779661,28.407999999999998C132.20338983050846,27.432,133.22033898305085,26.944,134.23728813559322,26.944C135.25423728813558,26.944,136.27118644067798,27.142222222222223,137.28813559322035,27.538666666666668C138.3050847457627,27.935111111111112,139.3220338983051,29.57866666666667,140.33898305084747,29.57866666666667C141.35593220338984,29.57866666666667,142.3728813559322,28.799999999999997,143.38983050847457,28.799999999999997C144.40677966101694,28.799999999999997,145.42372881355934,29.28711111111111,146.4406779661017,30.261333333333333C147.45762711864407,31.235555555555546,148.47457627118644,36.135999999999996,149.4915254237288,36.135999999999996C150.50847457627117,36.135999999999996,151.52542372881356,26.655111111111115,152.54237288135593,26.53066666666667C153.5593220338983,26.406222222222222,154.5762711864407,26.344,155.59322033898306,26.344C156.61016949152543,26.344,157.6271186440678,27.860888888888887,158.64406779661016,28.495999999999995C159.66101694915253,29.13111111111111,160.67796610169492,30.069333333333333,161.6949152542373,30.154666666666667C162.71186440677965,30.240000000000002,163.72881355932205,30.197333333333333,164.74576271186442,30.282666666666668C165.76271186440678,30.368,166.77966101694915,31.584444444444458,167.79661016949152,32.781333333333336C168.81355932203388,33.97822222222223,169.83050847457628,37.464,170.84745762711864,37.464C171.864406779661,37.464,172.8813559322034,30.022222222222226,173.89830508474577,29.816000000000003C174.91525423728814,29.60977777777778,175.93220338983053,29.506666666666668,176.9491525423729,29.506666666666668C177.96610169491527,29.506666666666668,178.98305084745763,30,180,30.493333333333332"></path><path class="axis-ceiling" stroke-width="1" stroke="black" fill="none" d="M175,0L180,0"></path><text class="axis-ceiling-label" font-family="sans-serif" text-anchor="end" font-size="10px" x="170" y="2.5">15000</text></g></svg>