<svg xmlns="http://www.w3.org/2000/svg" viewBox="0 0 180 60"><g transform="translate(0,20)"><path class="area" fill="rgba(0, 0, 0, 0.2)" d="M0,17.946666666666665C1.0169491525423728,20.93333333333333,2.0338983050847457,23.919999999999998,3.0508474576271185,23.919999999999998C4.067796610169491,23.919999999999998,5.084745762711864,11.244444444444442,6.101694915254237,10.693333333333332C7.11864406779661,10.142222222222221,8.135593220338983,10.351111111111111,9.152542372881356,9.866666666666667C10.169491525423728,9.382222222222223,11.186440677966102,7.804444444444445,12.203389830508474,7.786666666666666C13.220338983050846,7.768888888888887,14.23728813559322,7.759999999999998,15.254237288135592,7.759999999999998C16.271186440677965,7.759999999999998,17.28813559322034,9.04,18.305084745762713,9.04C19.322033898305087,9.04,20.338983050847457,7.466666666666666,21.35593220338983,7.466666666666666C22.372881355932204,7.466666666666666,23.389830508474574,20.826666666666664,24.406779661016948,20.826666666666664C25.423728813559322,20.826666666666664,26.440677966101696,10.835555555555553,27.45762711864407,9.25333333333333C28.47457627118644,7.671111111111111,29.491525423728813,6.880000000000002,30.508474576271183,6.880000000000002C31.525423728813557,6.880000000000002,32.54237288135593,8.791111111111109,33.559322033898304,8.879999999999999C34.57627118644068,8.96888888888889,35.59322033898305,8.924444444444445,36.610169491525426,9.013333333333335C37.6271186440678,9.102222222222226,38.644067796610166,10.248888888888892,39.66101694915254,10.74666666666667C40.67796610169491,11.244444444444449,41.69491525423729,11.231111111111112,42.71186440677966,12.000000000000002C43.728813559322035,12.76888888888889,44.7457627118644,15.36,45.762711864406775,15.36C46.77966101694915,15.36,47.79661016949152,7.733333333333336,48.813559322033896,7.200000000000002C49.83050847457627,6.666666666666668,50.847457627118644,6.400000000000001,51.86440677966102,6.400000000000001C52.88135593220339,6.400000000000001,53.898305084745765,7.78222222222222,54.91525423728814,8.746666666666666C55.93220338983051,9.711111111111109,56.94915254237288,12.186666666666666,57.96610169491525,12.186666666666666C58.983050847457626,12.186666666666666,59.99999999999999,6.346666666666665,61.01694915254237,6.346666666666665C62.03389830508474,6.346666666666665,63.05084745762712,9.968888888888884,64.0677966101695,11.813333333333333C65.08474576271186,13.657777777777774,66.10169491525424,17.413333333333334,67.11864406779661,17.413333333333334C68.13559322033899,17.413333333333334,69.15254237288136,16.426666666666666,70.16949152542374,16.426666666666666C71.1864406779661,16.426666666666666,72.20338983050848,22.186666666666667,73.22033898305085,22.186666666666667C74.23728813559322,22.186666666666667,75.2542372881356,21.484444444444446,76.27118644067797,20.08C77.28813559322033,18.67555555555555,78.30508474576271,13.484444444444442,79.32203389830508,13.2C80.33898305084746,12.915555555555555,81.35593220338983,12.773333333333333,82.37288135593221,12.773333333333333C83.38983050847457,12.773333333333333,84.40677966101696,15.124444444444451,85.42372881355932,16.693333333333335C86.4406779661017,18.262222222222228,87.45762711864407,22.186666666666667,88.47457627118645,22.186666666666667C89.49152542372882,22.186666666666667,90.50847457627118,14.026666666666667,91.52542372881355,14.026666666666667C92.54237288135593,14.026666666666667,93.55932203389831,16.359999999999992,94.57627118644069,17.306666666666665C95.59322033898306,18.253333333333323,96.61016949152543,18.48444444444445,97.62711864406779,19.706666666666667C98.64406779661016,20.928888888888892,99.66101694915254,24.64,100.6779661016949,24.64C101.69491525423729,24.64,102.71186440677965,19.066666666666666,103.72881355932203,19.066666666666666C104.7457627118644,19.066666666666666,105.76271186440678,21.67555555555556,106.77966101694915,23.46666666666667C107.79661016949153,25.257777777777783,108.8135593220339,29.813333333333336,109.83050847457628,29.813333333333336C110.84745762711864,29.813333333333336,111.86440677966102,26.42666666666667,112.88135593220339,26.42666666666667C113.89830508474576,26.42666666666667,114.91525423728814,27.279999999999998,115.9322033898305,27.279999999999998C116.94915254237289,27.279999999999998,117.96610169491525,26.639999999999997,118.98305084745763,26.639999999999997C120,26.639999999999997,121.01694915254237,28.77333333333334,122.03389830508473,28.933333333333337C123.05084745762711,29.093333333333337,124.0677966101695,29.013333333333335,125.08474576271188,29.173333333333336C126.10169491525424,29.333333333333332,127.11864406779662,31.84888888888889,128.135593220339,32.693333333333335C129.15254237288136,33.53777777777778,130.16949152542372,34.24,131.1864406779661,34.24C132.20338983050846,34.24,133.22033898305085,31.351111111111113,134.23728813559322,31.28C135.25423728813558,31.20888888888889,136.27118644067798,31.173333333333332,137.28813559322035,31.173333333333332C138.3050847457627,31.173333333333332,139.3220338983051,31.57777777777778,140.33898305084747,31.76C141.35593220338984,31.942222222222224,142.3728813559322,31.92888888888889,143.38983050847457,32.266666666666666C144.40677966101694,32.60444444444445,145.42372881355934,33.90222222222222,146.4406779661017,34.24C147.45762711864407,34.57777777777778,148.47457627118644,34.40888888888889,149.4915254237288,34.74666666666667C150.50847457627117,35.08444444444445,151.52542372881356,37.38666666666666,152.54237288135593,37.38666666666666C153.5593220338983,37.38666666666666,154.5762711864407,34.85333333333334,155.59322033898306,34.64C156.61016949152543,34.42666666666667,157.6271186440678,34.431111111111115,158.64406779661016,34.32C159.66101694915253,34.208888888888886,160.67796610169492,33.97333333333333,161.6949152542373,33.97333333333333C162.71186440677965,33.97333333333333,163.72881355932205,34.72888888888889,164.74576271186442,34.96C165.76271186440678,35.19111111111111,166.77966101694915,35.16444444444445,167.79661016949152,35.36C168.81355932203388,35.55555555555556,169.83050847457628,35.68,170.84745762711864,36.13333333333333C171.864406779661,36.586666666666666,172.8813559322034,38.08,173.89830508474577,38.08C174.91525423728814,38.08,175.93220338983053,34.93333333333333,176.9491525423729,34.93333333333333C177.96610169491527,34.93333333333333,178.98305084745763,35.42666666666666,180,35.92L180,40C178.98305084745763,40,177.96610169491527,40,176.9491525423729,40C175.93220338983053,40,174.91525423728814,40,173.89830508474577,40C172.8813559322034,40,171.864406779661,40,170.84745762711864,40C169.83050847457628,40,168.81355932203388,40,167.79661016949152,40C166.77966101694915,40,165.76271186440678,40,164.74576271186442,40C163.72881355932205,40,162.71186440677965,40,161.6949152542373,40C160.67796610169492,40,159.66101694915253,40,158.64406779661016,40C157.6271186440678,40,156.61016949152543,40,155.59322033898306,40C154.5762711864407,40,153.5593220338983,40,152.54237288135593,40C151.52542372881356,40,150.50847457627117,40,149.4915254237288,40C148.47457627118644,40,147.45762711864407,40,146.4406779661017,40C145.42372881355934,40,144.40677966101694,40,143.38983050847457,40C142.3728813559322,40,141.35593220338984,40,140.33898305084747,40C139.3220338983051,40,138.3050847457627,40,137.28813559322035,40C136.27118644067798,40,135.25423728813558,40,134.23728813559322,40C133.22033898305085,40,132.20338983050846,40,131.1864406779661,40C130.16949152542372,40,129.15254237288136,40,128.135593220339,40C127.11864406779662,40,126.10169491525424,40,125.08474576271188,40C124.0677966101695,40,123.05084745762711,40,122.03389830508473,40C121.01694915254237,40,120,40,118.98305084745763,40C117.96610169491525,40,116.94915254237289,40,115.9322033898305,40C114.91525423728814,40,113.89830508474576,40,112.88135593220339,40C111.86440677966102,40,110.84745762711864,40,109.83050847457628,40C108.8135593220339,40,107.79661016949153,40,106.77966101694915,40C105.76271186440678,40,104.7457627118644,40,103.72881355932203,40C102.71186440677965,40,101.69491525423729,40,100.6779661016949,40C99.66101694915254,40,98.64406779661016,40,97.62711864406779,40C96.61016949152543,40,95.59322033898306,40,94.57627118644069,40C93.55932203389831,40,92.54237288135593,40,91.52542372881355,40C90.50847457627118,40,89.49152542372882,40,88.47457627118645,40C87.45762711864407,40,86.4406779661017,40,85.42372881355932,40C84.40677966101696,40,83.38983050847457,40,82.37288135593221,40C81.35593220338983,40,80.33898305084746,40,79.32203389830508,40C78.30508474576271,40,77.28813559322033,40,76.27118644067797,40C75.2542372881356,40,74.23728813559322,40,73.22033898305085,40C72.20338983050848,40,71.1864406779661,40,70.16949152542374,40C69.15254237288136,40,68.13559322033899,40,67.11864406779661,40C66.10169491525424,40,65.08474576271186,40,64.0677966101695,40C63.05084745762712,40,62.03389830508474,40,61.01694915254237,40C59.99999999999999,40,58.983050847457626,40,57.96610169491525,40C56.94915254237288,40,55.93220338983051,40,54.91525423728814,40C53.898305084745765,40,52.88135593220339,40,51.86440677966102,40C50.847457627118644,40,49.83050847457627,40,48.813559322033896,40C47.79661016949152,40,46.77966101694915,40,45.762711864406775,40C44.7457627118644,40,43.728813559322035,40,42.71186440677966,40C41.69491525423729,40,40.67796610169491,40,39.66101694915254,40C38.644067796610166,40,37.6271186440678,40,36.610169491525426,40C35.59322033898305,40,34.57627118644068,40,33.559322033898304,40C32.54237288135593,40,31.525423728813557,40,30.508474576271183,40C29.491525423728813,40,28.47457627118644,40,27.45762711864407,40C26.440677966101696,40,25.423728813559322,40,24.406779661016948,40C23.389830508474574,40,22.372881355932204,40,21.35593220338983,40C20.338983050847457,40,19.322033898305087,40,18.305084745762713,40C17.28813559322034,40,16.271186440677965,40,15.254237288135592,40C14.23728813559322,40,13.220338983050846,40,12.203389830508474,40C11.186440677966102,40,10.169491525423728,40,9.152542372881356,40C8.135593220338983,40,7.11864406779661,40,6.101694915254237,40C5.084745762711864,40,4.067796610169491,40,3.0508474576271185,40C2.0338983050847457,40,1.0169491525423728,40,0,40Z"></path><path class="line" stroke="black" fill="none" d="M0,17.946666666666665C1.0169491525423728,20.93333333333333,2.0338983050847457,23.919999999999998,3.0508474576271185,23.919999999999998C4.067796610169491,23.919999999999998,5.084745762711864,11.244444444444442,6.101694915254237,10.693333333333332C7.11864406779661,10.142222222222221,8.135593220338983,10.351111111111111,9.152542372881356,9.866666666666667C10.169491525423728,9.382222222222223,11.186440677966102,7.804444444444445,12.203389830508474,7.786666666666666C13.220338983050846,7.768888888888887,14.23728813559322,7.759999999999998,15.254237288135592,7.759999999999998C16.271186440677965,7.759999999999998,17.28813559322034,9.04,18.305084745762713,9.04C19.322033898305087,9.04,20.338983050847457,7.466666666666666,21.35593220338983,7.466666666666666C22.372881355932204,7.466666666666666,23.389830508474574,20.826666666666664,24.406779661016948,20.826666666666664C25.423728813559322,20.826666666666664,26.440677966101696,10.835555555555553,27.45762711864407,9.25333333333333C28.47457627118644,7.671111111111111,29.491525423728813,6.880000000000002,30.508474576271183,6.880000000000002C31.525423728813557,6.880000000000002,32.54237288135593,8.791111111111109,33.559322033898304,8.879999999999999C34.57627118644068,8.96888888888889,35.59322033898305,8.924444444444445,36.610169491525426,9.013333333333335C37.6271186440678,9.102222222222226,38.644067796610166,10.248888888888892,39.66101694915254,10.74666666666667C40.67796610169491,11.244444444444449,41.69491525423729,11.231111111111112,42.71186440677966,12.000000000000002C43.728813559322035,12.76888888888889,44.7457627118644,15.36,45.762711864406775,15.36C46.77966101694915,15.36,47.79661016949152,7.733333333333336,48.813559322033896,7.200000000000002C49.83050847457627,6.666666666666668,50.847457627118644,6.400000000000001,51.86440677966102,6.400000000000001C52.88135593220339,6.400000000000001,53.898305084745765,7.78222222222222,54.91525423728814,8.746666666666666C55.93220338983051,9.711111111111109,56.94915254237288,12.186666666666666,57.96610169491525,12.186666666666666C58.983050847457626,12.186666666666666,59.99999999999999,6.346666666666665,61.01694915254237,6.346666666666665C62.03389830508474,6.346666666666665,63.05084745762712,9.968888888888884,64.0677966101695,11.813333333333333C65.08474576271186,13.657777777777774,66.10169491525424,17.413333333333334,67.11864406779661,17.413333333333334C68.13559322033899,17.413333333333334,69.15254237288136,16.426666666666666,70.16949152542374,16.426666666666666C71.1864406779661,16.426666666666666,72.20338983050848,22.186666666666667,73.22033898305085,22.186666666666667C74.23728813559322,22.186666666666667,75.2542372881356,21.484444444444446,76.27118644067797,20.08C77.28813559322033,18.67555555555555,78.30508474576271,13.484444444444442,79.32203389830508,13.2C80.33898305084746,12.915555555555555,81.35593220338983,12.773333333333333,82.37288135593221,12.773333333333333C83.38983050847457,12.773333333333333,84.40677966101696,15.124444444444451,85.42372881355932,16.693333333333335C86.4406779661017,18.262222222222228,87.45762711864407,22.186666666666667,88.47457627118645,22.186666666666667C89.49152542372882,22.186666666666667,90.50847457627118,14.026666666666667,91.52542372881355,14.026666666666667C92.54237288135593,14.026666666666667,93.55932203389831,16.359999999999992,94.57627118644069,17.306666666666665C95.59322033898306,18.253333333333323,96.61016949152543,18.48444444444445,97.62711864406779,19.706666666666667C98.64406779661016,20.928888888888892,99.66101694915254,24.64,100.6779661016949,24.64C101.69491525423729,24.64,102.71186440677965,19.066666666666666,103.72881355932203,19.066666666666666C104.7457627118644,19.066666666666666,105.76271186440678,21.67555555555556,106.77966101694915,23.46666666666667C107.79661016949153,25.257777777777783,108.8135593220339,29.813333333333336,109.83050847457628,29.813333333333336C110.84745762711864,29.813333333333336,111.86440677966102,26.42666666666667,112.88135593220339,26.42666666666667C113.89830508474576,26.42666666666667,114.91525423728814,27.279999999999998,115.9322033898305,27.279999999999998C116.94915254237289,27.279999999999998,117.96610169491525,26.639999999999997,118.98305084745763,26.639999999999997C120,26.639999999999997,121.01694915254237,28.77333333333334,122.03389830508473,28.933333333333337C123.05084745762711,29.093333333333337,124.0677966101695,29.013333333333335,125.08474576271188,29.173333333333336C126.10169491525424,29.333333333333332,127.11864406779662,31.84888888888889,128.135593220339,32.693333333333335C129.15254237288136,33.53777777777778,130.16949152542372,34.24,131.1864406779661,34.24C132.20338983050846,34.24,133.22033898305085,31.351111111111113,134.23728813559322,31.28C135.25423728813558,31.20888888888889,136.27118644067798,31.173333333333332,137.28813559322035,31.173333333333332C138.3050847457627,31.173333333333332,139.3220338983051,31.57777777777778,140.33898305084747,31.76C141.35593220338984,31.942222222222224,142.3728813559322,31.92888888888889,143.38983050847457,32.266666666666666C144.40677966101694,32.60444444444445,145.42372881355934,33.90222222222222,146.4406779661017,34.24C147.45762711864407,34.57777777777778,148.47457627118644,34.40888888888889,149.4915254237288,34.74666666666667C150.50847457627117,35.08444444444445,151.52542372881356,37.38666666666666,152.54237288135593,37.38666666666666C153.5593220338983,37.38666666666666,154.5762711864407,34.85333333333334,155.59322033898306,34.64C156.61016949152543,34.42666666666667,157.6271186440678,34.431111111111115,158.64406779661016,34.32C159.66101694915253,34.208888888888886,160.67796610169492,33.97333333333333,161.6949152542373,33.97333333333333C162.71186440677965,33.97333333333333,163.72881355932205,34.72888888888889,164.74576271186442,34.96C165.76271186440678,35.19111111111111,166.77966101694915,35.16444444444445,167.79661016949152,35.36C168.81355932203388,35.55555555555556,169.83050847457628,35.68,170.84745762711864,36.13333333333333C171.864406779661,36.586666666666666,172.8813559322034,38.08,173.89830508474577,38.08C174.91525423728814,38.08,175.93220338983053,34.93333333333333,176.9491525423729,34.93333333333333C177.96610169491527,34.93333333333333,178.98305084745763,35.42666666666666,180,35.92"></path><path class="axis-ceiling" stroke-width="1" stroke="black" fill="none" d="M175,0L180,0"></path><text class="axis-ceiling-label" font-family="sans-serif" text-anchor="end" font-size="10px" x="170" y="2.5">1500</text></g></svg>