<svg xmlns="http://www.w3.org/2000/svg" viewBox="0 0 180 60"><g transform="translate(0,20)"><path class="area" fill="rgba(0, 0, 0, 0.2)" d="M0,37.81333333333333C1.0169491525423728,37.85111111111111,2.0338983050847457,37.888888888888886,3.0508474576271185,37.946666666666665C4.067796610169491,38.004444444444445,5.084745762711864,38.05777777777777,6.101694915254237,38.16C7.11864406779661,38.26222222222222,8.135593220338983,38.56,9.152542372881356,38.56C10.169491525423728,38.56,11.186440677966102,38.54222222222222,12.203389830508474,38.50666666666667C13.220338983050846,38.471111111111114,14.23728813559322,38.026666666666664,15.254237288135592,37.839999999999996C16.271186440677965,37.65333333333333,17.28813559322034,37.38666666666666,18.305084745762713,37.38666666666666C19.322033898305087,37.38666666666666,20.338983050847457,37.73333333333333,21.35593220338983,37.839999999999996C22.372881355932204,37.946666666666665,23.389830508474574,38.026666666666664,24.406779661016948,38.026666666666664C25.423728813559322,38.026666666666664,26.440677966101696,37.81333333333333,27.45762711864407,37.81333333333333C28.47457627118644,37.81333333333333,29.491525423728813,37.86666666666667,30.508474576271183,37.973333333333336C31.525423728813557,38.080000000000005,32.54237288135593,38.986666666666665,33.559322033898304,38.986666666666665C34.57627118644068,38.986666666666665,35.59322033898305,37.25333333333333,36.610169491525426,37.25333333333333C37.6271186440678,37.25333333333333,38.644067796610166,37.76,39.66101694915254,37.76C40.67796610169491,37.76,41.69491525423729,37.724444444444444,42.71186440677966,37.653333333333336C43.728813559322035,37.58222222222223,44.7457627118644,37.18222222222222,45.762711864406775,37.04C46.77966101694915,36.897777777777776,47.79661016949152,36.800000000000004,48.813559322033896,36.800000000000004C49.83050847457627,36.800000000000004,50.847457627118644,37.31111111111111,51.86440677966102,37.54666666666667C52.88135593220339,37.782222222222224,53.898305084745765,38.21333333333334,54.91525423728814,38.21333333333334C55.93220338983051,38.21333333333334,56.94915254237288,38.044444444444444,57.96610169491525,37.70666666666666C58.983050847457626,37.36888888888888,59.99999999999999,36.08,61.01694915254237,36.08C62.03389830508474,36.08,63.05084745762712,36.24,64.0677966101695,36.24C65.08474576271186,36.24,66.10169491525424,35.78666666666667,67.11864406779661,35.78666666666667C68.13559322033899,35.78666666666667,69.15254237288136,35.83111111111111,70.16949152542374,35.92C71.1864406779661,36.00888888888889,72.20338983050848,37.004444444444445,73.22033898305085,37.333333333333336C74.23728813559322,37.662222222222226,75.2542372881356,37.89333333333333,76.27118644067797,37.89333333333333C77.28813559322033,37.89333333333333,78.30508474576271,35.93333333333333,79.32203389830508,35.12C80.33898305084746,34.306666666666665,81.35593220338983,33.08444444444445,82.37288135593221,33.013333333333335C83.38983050847457,32.94222222222222,84.40677966101696,32.97777777777778,85.42372881355932,32.906666666666666C86.4406779661017,32.83555555555555,87.45762711864407,32.53333333333334,88.47457627118645,32C89.49152542372882,31.466666666666665,90.50847457627118,29.706666666666663,91.52542372881355,29.706666666666663C92.54237288135593,29.706666666666663,93.55932203389831,30.617777777777764,94.57627118644069,31.386666666666663C95.59322033898306,32.15555555555555,96.61016949152543,34.32,97.62711864406779,34.32C98.64406779661016,34.32,99.66101694915254,30.199999999999996,100.6779661016949,28.479999999999997C101.69491525423729,26.75999999999999,102.71186440677965,24.284444444444446,103.72881355932203,24C104.7457627118644,23.715555555555554,105.76271186440678,23.57333333333333,106.77966101694915,23.57333333333333C107.79661016949153,23.57333333333333,108.8135593220339,23.65333333333333,109.83050847457628,23.65333333333333C110.84745762711864,23.65333333333333,111.86440677966102,22.240000000000002,112.88135593220339,22.240000000000002C113.89830508474576,22.240000000000002,114.91525423728814,22.88888888888889,115.9322033898305,24.186666666666667C116.94915254237289,25.48444444444445,117.96610169491525,30.8,118.98305084745763,30.8C120,30.8,121.01694915254237,22.85333333333333,122.03389830508473,20.48C123.05084745762711,18.106666666666637,124.0677966101695,17.560000000000002,125.08474576271188,16.560000000000002C126.10169491525424,15.56000000000001,127.11864406779662,14.48,128.135593220339,14.48C129.15254237288136,14.48,130.16949152542372,15.280000000000001,131.1864406779661,15.280000000000001C132.20338983050846,15.280000000000001,133.22033898305085,13.573333333333334,134.23728813559322,13.573333333333334C135.25423728813558,13.573333333333334,136.27118644067798,16.22222222222222,137.28813559322035,17.946666666666665C138.3050847457627,19.67111111111111,139.3220338983051,23.919999999999998,140.33898305084747,23.919999999999998C141.35593220338984,23.919999999999998,142.3728813559322,11.244444444444436,143.38983050847457,10.693333333333332C144.40677966101694,10.142222222222221,145.42372881355934,10.351111111111116,146.4406779661017,9.866666666666667C147.45762711864407,9.382222222222223,148.47457627118644,7.804444444444445,149.4915254237288,7.786666666666666C150.50847457627117,7.768888888888887,151.52542372881356,7.759999999999998,152.54237288135593,7.759999999999998C153.5593220338983,7.759999999999998,154.5762711864407,9.04,155.59322033898306,9.04C156.61016949152543,9.04,157.6271186440678,7.466666666666666,158.64406779661016,7.466666666666666C159.66101694915253,7.466666666666666,160.67796610169492,20.826666666666664,161.6949152542373,20.826666666666664C162.71186440677965,20.826666666666664,163.72881355932205,10.835555555555564,164.74576271186442,9.25333333333333C165.76271186440678,7.671111111111111,166.77966101694915,6.880000000000002,167.79661016949152,6.880000000000002C168.81355932203388,6.880000000000002,169.83050847457628,8.791111111111109,170.84745762711864,8.879999999999999C171.864406779661,8.96888888888889,172.8813559322034,8.924444444444445,173.89830508474577,9.013333333333335C174.91525423728814,9.102222222222226,175.93220338983053,10.24888888888889,176.9491525423729,10.74666666666667C177.96610169491527,11.244444444444444,178.98305084745763,11.622222222222224,180,12.000000000000002L180,40C178.98305084745763,40,177.96610169491527,40,176.9491525423729,40C175.93220338983053,40,174.91525423728814,40,173.89830508474577,40C172.8813559322034,40,171.864406779661,40,170.84745762711864,40C169.83050847457628,40,168.81355932203388,40,167.79661016949152,40C166.77966101694915,40,165.76271186440678,40,164.74576271186442,40C163.72881355932205,40,162.71186440677965,40,161.6949152542373,40C160.67796610169492,40,159.66101694915253,40,158.64406779661016,40C157.6271186440678,40,156.61016949152543,40,155.59322033898306,40C154.5762711864407,40,153.5593220338983,40,152.54237288135593,40C151.52542372881356,40,150.50847457627117,40,149.4915254237288,40C148.47457627118644,40,147.45762711864407,40,146.4406779661017,40C145.42372881355934,40,144.40677966101694,40,143.38983050847457,40C142.3728813559322,40,141.35593220338984,40,140.33898305084747,40C139.3220338983051,40,138.3050847457627,40,137.28813559322035,40C136.27118644067798,40,135.25423728813558,40,134.23728813559322,40C133.22033898305085,40,132.20338983050846,40,131.1864406779661,40C130.16949152542372,40,129.15254237288136,40,128.135593220339,40C127.11864406779662,40,126.10169491525424,40,125.08474576271188,40C124.0677966101695,40,123.05084745762711,40,122.03389830508473,40C121.01694915254237,40,120,40,118.98305084745763,40C117.96610169491525,40,116.94915254237289,40,115.9322033898305,40C114.91525423728814,40,113.89830508474576,40,112.88135593220339,40C111.86440677966102,40,110.84745762711864,40,109.83050847457628,40C108.8135593220339,40,107.79661016949153,40,106.77966101694915,40C105.76271186440678,40,104.7457627118644,40,103.72881355932203,40C102.71186440677965,40,101.69491525423729,40,100.6779661016949,40C99.66101694915254,40,98.64406779661016,40,97.62711864406779,40C96.61016949152543,40,95.59322033898306,40,94.57627118644069,40C93.55932203389831,40,92.54237288135593,40,91.52542372881355,40C90.50847457627118,40,89.49152542372882,40,88.47457627118645,40C87.45762711864407,40,86.4406779661017,40,85.42372881355932,40C84.40677966101696,40,83.38983050847457,40,82.37288135593221,40C81.35593220338983,40,80.33898305084746,40,79.32203389830508,40C78.30508474576271,40,77.28813559322033,40,76.27118644067797,40C75.2542372881356,40,74.23728813559322,40,73.22033898305085,40C72.20338983050848,40,71.1864406779661,40,70.16949152542374,40C69.15254237288136,40,68.13559322033899,40,67.11864406779661,40C66.10169491525424,40,65.08474576271186,40,64.0677966101695,40C63.05084745762712,40,62.03389830508474,40,61.01694915254237,40C59.99999999999999,40,58.983050847457626,40,57.96610169491525,40C56.94915254237288,40,55.93220338983051,40,54.91525423728814,40C53.898305084745765,40,52.88135593220339,40,51.86440677966102,40C50.847457627118644,40,49.83050847457627,40,48.813559322033896,40C47.79661016949152,40,46.77966101694915,40,45.762711864406775,40C44.7457627118644,40,43.728813559322035,40,42.71186440677966,40C41.69491525423729,40,40.67796610169491,40,39.66101694915254,40C38.644067796610166,40,37.6271186440678,40,36.610169491525426,40C35.59322033898305,40,34.57627118644068,40,33.559322033898304,40C32.54237288135593,40,31.525423728813557,40,30.508474576271183,40C29.491525423728813,40,28.47457627118644,40,27.45762711864407,40C26.440677966101696,40,25.423728813559322,40,24.406779661016948,40C23.389830508474574,40,22.372881355932204,40,21.35593220338983,40C20.338983050847457,40,19.322033898305087,40,18.305084745762713,40C17.28813559322034,40,16.271186440677965,40,15.254237288135592,40C14.23728813559322,40,13.220338983050846,40,12.203389830508474,40C11.186440677966102,40,10.169491525423728,40,9.152542372881356,40C8.135593220338983,40,7.11864406779661,40,6.101694915254237,40C5.084745762711864,40,4.067796610169491,40,3.0508474576271185,40C2.0338983050847457,40,1.0169491525423728,40,0,40Z"></path><path class="line" stroke="black" fill="none" d="M0,37.81333333333333C1.0169491525423728,37.85111111111111,2.0338983050847457,37.888888888888886,3.0508474576271185,37.946666666666665C4.067796610169491,38.004444444444445,5.084745762711864,38.05777777777777,6.101694915254237,38.16C7.11864406779661,38.26222222222222,8.135593220338983,38.56,9.152542372881356,38.56C10.169491525423728,38.56,11.186440677966102,38.54222222222222,12.203389830508474,38.50666666666667C13.220338983050846,38.471111111111114,14.23728813559322,38.026666666666664,15.254237288135592,37.839999999999996C16.271186440677965,37.65333333333333,17.28813559322034,37.38666666666666,18.305084745762713,37.38666666666666C19.322033898305087,37.38666666666666,20.338983050847457,37.73333333333333,21.35593220338983,37.839999999999996C22.372881355932204,37.946666666666665,23.389830508474574,38.026666666666664,24.406779661016948,38.026666666666664C25.423728813559322,38.026666666666664,26.440677966101696,37.81333333333333,27.45762711864407,37.81333333333333C28.47457627118644,37.81333333333333,29.491525423728813,37.86666666666667,30.508474576271183,37.973333333333336C31.525423728813557,38.080000000000005,32.54237288135593,38.986666666666665,33.559322033898304,38.986666666666665C34.57627118644068,38.986666666666665,35.59322033898305,37.25333333333333,36.610169491525426,37.25333333333333C37.6271186440678,37.25333333333333,38.644067796610166,37.76,39.66101694915254,37.76C40.67796610169491,37.76,41.69491525423729,37.724444444444444,42.71186440677966,37.653333333333336C43.728813559322035,37.58222222222223,44.7457627118644,37.18222222222222,45.762711864406775,37.04C46.77966101694915,36.897777777777776,47.79661016949152,36.800000000000004,48.813559322033896,36.800000000000004C49.83050847457627,36.800000000000004,50.847457627118644,37.31111111111111,51.86440677966102,37.54666666666667C52.88135593220339,37.782222222222224,53.898305084745765,38.21333333333334,54.91525423728814,38.21333333333334C55.93220338983051,38.21333333333334,56.94915254237288,38.044444444444444,57.96610169491525,37.70666666666666C58.983050847457626,37.36888888888888,59.99999999999999,36.08,61.01694915254237,36.08C62.03389830508474,36.08,63.05084745762712,36.24,64.0677966101695,36.24C65.08474576271186,36.24,66.10169491525424,35.78666666666667,67.11864406779661,35.78666666666667C68.13559322033899,35.78666666666667,69.15254237288136,35.83111111111111,70.16949152542374,35.92C71.1864406779661,36.00888888888889,72.20338983050848,37.004444444444445,73.22033898305085,37.333333333333336C74.23728813559322,37.662222222222226,75.2542372881356,37.89333333333333,76.27118644067797,37.89333333333333C77.28813559322033,37.89333333333333,78.30508474576271,35.93333333333333,79.32203389830508,35.12C80.33898305084746,34.306666666666665,81.35593220338983,33.08444444444445,82.37288135593221,33.013333333333335C83.38983050847457,32.94222222222222,84.40677966101696,32.97777777777778,85.42372881355932,32.906666666666666C86.4406779661017,32.83555555555555,87.45762711864407,32.53333333333334,88.47457627118645,32C89.49152542372882,31.466666666666665,90.50847457627118,29.706666666666663,91.52542372881355,29.706666666666663C92.54237288135593,29.706666666666663,93.55932203389831,30.617777777777764,94.57627118644069,31.386666666666663C95.59322033898306,32.15555555555555,96.61016949152543,34.32,97.62711864406779,34.32C98.64406779661016,34.32,99.66101694915254,30.199999999999996,100.6779661016949,28.479999999999997C101.69491525423729,26.75999999999999,102.71186440677965,24.284444444444446,103.72881355932203,24C104.7457627118644,23.715555555555554,105.76271186440678,23.57333333333333,106.77966101694915,23.57333333333333C107.79661016949153,23.57333333333333,108.8135593220339,23.65333333333333,109.83050847457628,23.65333333333333C110.84745762711864,23.65333333333333,111.86440677966102,22.240000000000002,112.88135593220339,22.240000000000002C113.89830508474576,22.240000000000002,114.91525423728814,22.88888888888889,115.9322033898305,24.186666666666667C116.94915254237289,25.48444444444445,117.96610169491525,30.8,118.98305084745763,30.8C120,30.8,121.01694915254237,22.85333333333333,122.03389830508473,20.48C123.05084745762711,18.106666666666637,124.0677966101695,17.560000000000002,125.08474576271188,16.560000000000002C126.10169491525424,15.56000000000001,127.11864406779662,14.48,128.135593220339,14.48C129.15254237288136,14.48,130.16949152542372,15.280000000000001,131.1864406779661,15.280000000000001C132.20338983050846,15.280000000000001,133.22033898305085,13.573333333333334,134.23728813559322,13.573333333333334C135.25423728813558,13.573333333333334,136.27118644067798,16.22222222222222,137.28813559322035,17.946666666666665C138.3050847457627,19.67111111111111,139.3220338983051,23.919999999999998,140.33898305084747,23.919999999999998C141.35593220338984,23.919999999999998,142.3728813559322,11.244444444444436,143.38983050847457,10.693333333333332C144.40677966101694,10.142222222222221,145.42372881355934,10.351111111111116,146.4406779661017,9.866666666666667C147.45762711864407,9.382222222222223,148.47457627118644,7.804444444444445,149.4915254237288,7.786666666666666C150.50847457627117,7.768888888888887,151.52542372881356,7.759999999999998,152.54237288135593,7.759999999999998C153.5593220338983,7.759999999999998,154.5762711864407,9.04,155.59322033898306,9.04C156.61016949152543,9.04,157.6271186440678,7.466666666666666,158.64406779661016,7.466666666666666C159.66101694915253,7.466666666666666,160.67796610169492,20.826666666666664,161.6949152542373,20.826666666666664C162.71186440677965,20.826666666666664,163.72881355932205,10.835555555555564,164.74576271186442,9.25333333333333C165.76271186440678,7.671111111111111,166.77966101694915,6.880000000000002,167.79661016949152,6.880000000000002C168.81355932203388,6.880000000000002,169.83050847457628,8.791111111111109,170.84745762711864,8.879999999999999C171.864406779661,8.96888888888889,172.8813559322034,8.924444444444445,173.89830508474577,9.013333333333335C174.91525423728814,9.102222222222226,175.93220338983053,10.24888888888889,176.9491525423729,10.74666666666667C177.96610169491527,11.244444444444444,178.98305084745763,11.622222222222224,180,12.000000000000002"></path><path class="axis-ceiling" stroke-width="1" stroke="black" fill="none" d="M175,0L180,0"></path><text class="axis-ceiling-label" font-family="sans-serif" text-anchor="end" font-size="10px" x="170" y="2.5">1500</text></g></svg>