<svg xmlns="http://www.w3.org/2000/svg" viewBox="0 0 480 160"><g transform="translate(10,10)"><rect class="bar" x="0.15328223925359907" width="13.174941686104631" y="139.61102106969207" height="0.3889789303079283" fill="rgb(164,173,192)"></rect><rect class="bar" x="15.481506164611814" width="13.174941686104631" y="139.46515397082658" height="0.5348460291734227" fill="rgb(164,173,192)"></rect><rect class="bar" x="30.809730089970028" width="13.174941686104631" y="139.57860615883305" height="0.421393841166946" fill="rgb(164,173,192)"></rect><rect class="bar" x="46.13795401532824" width="13.174941686104631" y="139.64343598055106" height="0.356564019448939" fill="rgb(164,173,192)"></rect><rect class="bar" x="61.46617794068646" width="13.174941686104631" y="139.51377633711508" height="0.4862236628849246" fill="rgb(164,173,192)"></rect><rect class="bar" x="76.79440186604467" width="13.174941686104631" y="139.82171799027552" height="0.17828200972448371" fill="rgb(164,173,192)"></rect><rect class="bar" x="92.12262579140288" width="13.174941686104631" y="139.17341977309562" height="0.8265802269043832" fill="rgb(164,173,192)"></rect><rect class="bar" x="107.4508497167611" width="13.174941686104631" y="139.01134521880064" height="0.988654781199358" fill="rgb(164,173,192)"></rect><rect class="bar" x="122.77907364211931" width="13.174941686104631" y="139.15721231766614" height="0.8427876823338636" fill="rgb(164,173,192)"></rect><rect class="bar" x="138.10729756747753" width="13.174941686104631" y="138.7358184764992" height="1.2641815235008096" fill="rgb(164,173,192)"></rect><rect class="bar" x="153.43552149283573" width="13.174941686104631" y="138.86547811993518" height="1.134521880064824" fill="rgb(164,173,192)"></rect><rect class="bar" x="168.76374541819396" width="13.174941686104631" y="139.07617504051865" height="0.923824959481351" fill="rgb(164,173,192)"></rect><rect class="bar" x="184.09196934355217" width="13.174941686104631" y="138.71961102106968" height="1.2803889789303184" fill="rgb(164,173,192)"></rect><rect class="bar" x="199.4201932689104" width="13.174941686104631" y="137.9902755267423" height="2.0097244732577053" fill="rgb(164,173,192)"></rect><rect class="bar" x="214.7484171942686" width="13.174941686104631" y="136.0453808752026" height="3.9546191247974036" fill="rgb(164,173,192)"></rect><rect class="bar" x="230.07664111962683" width="13.174941686104631" y="131.8152350081037" height="8.184764991896287" fill="rgb(164,173,192)"></rect><rect class="bar" x="245.40486504498503" width="13.174941686104631" y="129.04376012965966" height="10.95623987034034" fill="rgb(164,173,192)"></rect><rect class="bar" x="260.73308897034326" width="13.174941686104631" y="125.55915721231766" height="14.440842787682342" fill="rgb(164,173,192)"></rect><rect class="bar" x="276.06131289570146" width="13.174941686104631" y="125.73743922204214" height="14.262560777957859" fill="rgb(164,173,192)"></rect><rect class="bar" x="291.38953682105966" width="13.174941686104631" y="131.9124797406807" height="8.087520259319291" fill="rgb(164,173,192)"></rect><rect class="bar" x="306.71776074641787" width="13.174941686104631" y="130.06482982171798" height="9.935170178282021" fill="rgb(164,173,192)"></rect><rect class="bar" x="322.0459846717761" width="13.174941686104631" y="112.26904376012966" height="27.730956239870338" fill="rgb(164,173,192)"></rect><rect class="bar" x="337.3742085971343" width="13.174941686104631" y="100.25931928687197" height="39.74068071312803" fill="rgb(164,173,192)"></rect><rect class="bar" x="352.70243252249253" width="13.174941686104631" y="94.19773095623987" height="45.802269043760134" fill="rgb(164,173,192)"></rect><rect class="bar" x="368.03065644785073" width="13.174941686104631" y="80.16207455429497" height="59.837925445705025" fill="rgb(164,173,192)"></rect><rect class="bar" x="383.35888037320893" width="13.174941686104631" y="79.05996758508914" height="60.94003241491086" fill="rgb(164,173,192)"></rect><rect class="bar" x="398.6871042985672" width="13.174941686104631" y="98.68719611021069" height="41.31280388978931" fill="rgb(164,173,192)"></rect><rect class="bar" x="414.0153282239254" width="13.174941686104631" y="52.544570502431114" height="87.45542949756889" fill="rgb(164,173,192)"></rect><rect class="bar" x="429.3435521492836" width="13.174941686104631" y="41.11831442463534" height="98.88168557536466" fill="rgb(164,173,192)"></rect><rect class="bar" x="444.6717760746418" width="13.174941686104631" y="140" height="0" fill="rgb(164,173,192)"></rect></g></svg>