<svg xmlns="http://www.w3.org/2000/svg" viewBox="0 0 180 60"><g transform="translate(0,20)"><path class="area" fill="rgba(0, 0, 0, 0.2)" d="M0,39C1.0169491525423728,38.96666666666667,2.0338983050847457,38.93333333333333,3.0508474576271185,38.8C4.067796610169491,38.666666666666664,5.084745762711864,38.199999999999996,6.101694915254237,38.199999999999996C7.11864406779661,38.199999999999996,8.135593220338983,38.199999999999996,9.152542372881356,38.199999999999996C10.169491525423728,38.199999999999996,11.186440677966102,38.199999999999996,12.203389830508474,38.199999999999996C13.220338983050846,38.199999999999996,14.23728813559322,38,15.254237288135592,38C16.271186440677965,38,17.28813559322034,38,18.305084745762713,38C19.322033898305087,38,20.338983050847457,37.56666666666667,21.35593220338983,37.400000000000006C22.372881355932204,37.23333333333334,23.389830508474574,37.1,24.406779661016948,37C25.423728813559322,36.9,26.440677966101696,36.93333333333334,27.45762711864407,36.800000000000004C28.47457627118644,36.66666666666667,29.491525423728813,36.13333333333333,30.508474576271183,36C31.525423728813557,35.86666666666667,32.54237288135593,35.86666666666666,33.559322033898304,35.8C34.57627118644068,35.733333333333334,35.59322033898305,35.733333333333334,36.610169491525426,35.6C37.6271186440678,35.46666666666667,38.644067796610166,34.43333333333333,39.66101694915254,34C40.67796610169491,33.56666666666666,41.69491525423729,33.300000000000004,42.71186440677966,33C43.728813559322035,32.7,44.7457627118644,32.633333333333326,45.762711864406775,32.199999999999996C46.77966101694915,31.766666666666662,47.79661016949152,30.966666666666665,48.813559322033896,30.4C49.83050847457627,29.833333333333332,50.847457627118644,29.199999999999996,51.86440677966102,28.799999999999997C52.88135593220339,28.4,53.898305084745765,28.400000000000002,54.91525423728814,28C55.93220338983051,27.6,56.94915254237288,26.93333333333333,57.96610169491525,26.4C58.983050847457626,25.866666666666667,59.99999999999999,25.266666666666666,61.01694915254237,24.8C62.03389830508474,24.333333333333332,63.05084745762712,24.233333333333338,64.0677966101695,23.6C65.08474576271186,22.96666666666667,66.10169491525424,21.666666666666664,67.11864406779661,21C68.13559322033899,20.333333333333332,69.15254237288136,20.06666666666667,70.16949152542374,19.6C71.1864406779661,19.133333333333336,72.20338983050848,18.633333333333333,73.22033898305085,18.2C74.23728813559322,17.766666666666666,75.2542372881356,17.6,76.27118644067797,17C77.28813559322033,16.4,78.30508474576271,15.466666666666663,79.32203389830508,14.6C80.33898305084746,13.73333333333333,81.35593220338983,12.66666666666667,82.37288135593221,11.8C83.38983050847457,10.933333333333337,84.40677966101696,10.13333333333333,85.42372881355932,9.399999999999999C86.4406779661017,8.666666666666664,87.45762711864407,8.033333333333339,88.47457627118645,7.400000000000002C89.49152542372882,6.766666666666673,90.50847457627118,6.133333333333331,91.52542372881355,5.6000000000000005C92.54237288135593,5.066666666666662,93.55932203389831,4.199999999999999,94.57627118644069,4.199999999999999C95.59322033898306,4.199999999999999,96.61016949152543,4.3999999999999995,97.62711864406779,4.3999999999999995C98.64406779661016,4.3999999999999995,99.66101694915254,3.1999999999999984,100.6779661016949,3.1999999999999984C101.69491525423729,3.1999999999999984,102.71186440677965,3.999999999999999,103.72881355932203,3.999999999999999C104.7457627118644,3.999999999999999,105.76271186440678,3.3666666666666636,106.77966101694915,2.9999999999999982C107.79661016949153,2.633333333333331,108.8135593220339,1.8000000000000016,109.83050847457628,1.8000000000000016C110.84745762711864,1.8000000000000016,111.86440677966102,2.400000000000002,112.88135593220339,2.400000000000002C113.89830508474576,2.400000000000002,114.91525423728814,2.3333333333333353,115.9322033898305,2.200000000000002C116.94915254237289,2.0666666666666678,117.96610169491525,1.0000000000000009,118.98305084745763,1.0000000000000009C120,1.0000000000000009,121.01694915254237,3.3333333333333357,122.03389830508473,3.5999999999999988C123.05084745762711,3.866666666666666,124.0677966101695,3.733333333333332,125.08474576271188,3.999999999999999C126.10169491525424,4.266666666666664,127.11864406779662,4.866666666666665,128.135593220339,5.4C129.15254237288136,5.933333333333334,130.16949152542372,6.766666666666669,131.1864406779661,7.200000000000002C132.20338983050846,7.633333333333338,133.22033898305085,7.633333333333332,134.23728813559322,7.999999999999998C135.25423728813558,8.366666666666664,136.27118644067798,8.933333333333332,137.28813559322035,9.399999999999999C138.3050847457627,9.866666666666665,139.3220338983051,10.8,140.33898305084747,10.8C141.35593220338984,10.8,142.3728813559322,8.399999999999999,143.38983050847457,8.399999999999999C144.40677966101694,8.399999999999999,145.42372881355934,8.399999999999999,146.4406779661017,8.399999999999999C147.45762711864407,8.399999999999999,148.47457627118644,9.266666666666667,149.4915254237288,9.6C150.50847457627117,9.933333333333335,151.52542372881356,10.2,152.54237288135593,10.4C153.5593220338983,10.600000000000001,154.5762711864407,10.6,155.59322033898306,10.8C156.61016949152543,11,157.6271186440678,11.400000000000002,158.64406779661016,11.600000000000001C159.66101694915253,11.800000000000002,160.67796610169492,11.733333333333334,161.6949152542373,12.000000000000002C162.71186440677965,12.26666666666667,163.72881355932205,13.166666666666663,164.74576271186442,13.799999999999999C165.76271186440678,14.43333333333333,166.77966101694915,15.3,167.79661016949152,15.8C168.81355932203388,16.300000000000004,169.83050847457628,16.333333333333336,170.84745762711864,16.8C171.864406779661,17.266666666666666,172.8813559322034,18.099999999999998,173.89830508474577,18.599999999999998C174.91525423728814,19.099999999999998,175.93220338983053,19.299999999999997,176.9491525423729,19.8C177.96610169491527,20.3,178.98305084745763,20.95,180,21.6L180,40C178.98305084745763,40,177.96610169491527,40,176.9491525423729,40C175.93220338983053,40,174.91525423728814,40,173.89830508474577,40C172.8813559322034,40,171.864406779661,40,170.84745762711864,40C169.83050847457628,40,168.81355932203388,40,167.79661016949152,40C166.77966101694915,40,165.76271186440678,40,164.74576271186442,40C163.72881355932205,40,162.71186440677965,40,161.6949152542373,40C160.67796610169492,40,159.66101694915253,40,158.64406779661016,40C157.6271186440678,40,156.61016949152543,40,155.59322033898306,40C154.5762711864407,40,153.5593220338983,40,152.54237288135593,40C151.52542372881356,40,150.50847457627117,40,149.4915254237288,40C148.47457627118644,40,147.45762711864407,40,146.4406779661017,40C145.42372881355934,40,144.40677966101694,40,143.38983050847457,40C142.3728813559322,40,141.35593220338984,40,140.33898305084747,40C139.3220338983051,40,138.3050847457627,40,137.28813559322035,40C136.27118644067798,40,135.25423728813558,40,134.23728813559322,40C133.22033898305085,40,132.20338983050846,40,131.1864406779661,40C130.16949152542372,40,129.15254237288136,40,128.135593220339,40C127.11864406779662,40,126.10169491525424,40,125.08474576271188,40C124.0677966101695,40,123.05084745762711,40,122.03389830508473,40C121.01694915254237,40,120,40,118.98305084745763,40C117.96610169491525,40,116.94915254237289,40,115.9322033898305,40C114.91525423728814,40,113.89830508474576,40,112.88135593220339,40C111.86440677966102,40,110.84745762711864,40,109.83050847457628,40C108.8135593220339,40,107.79661016949153,40,106.77966101694915,40C105.76271186440678,40,104.7457627118644,40,103.72881355932203,40C102.71186440677965,40,101.69491525423729,40,100.6779661016949,40C99.66101694915254,40,98.64406779661016,40,97.62711864406779,40C96.61016949152543,40,95.59322033898306,40,94.57627118644069,40C93.55932203389831,40,92.54237288135593,40,91.52542372881355,40C90.50847457627118,40,89.49152542372882,40,88.47457627118645,40C87.45762711864407,40,86.4406779661017,40,85.42372881355932,40C84.40677966101696,40,83.38983050847457,40,82.37288135593221,40C81.35593220338983,40,80.33898305084746,40,79.32203389830508,40C78.30508474576271,40,77.28813559322033,40,76.27118644067797,40C75.2542372881356,40,74.23728813559322,40,73.22033898305085,40C72.20338983050848,40,71.1864406779661,40,70.16949152542374,40C69.15254237288136,40,68.13559322033899,40,67.11864406779661,40C66.10169491525424,40,65.08474576271186,40,64.0677966101695,40C63.05084745762712,40,62.03389830508474,40,61.01694915254237,40C59.99999999999999,40,58.983050847457626,40,57.96610169491525,40C56.94915254237288,40,55.93220338983051,40,54.91525423728814,40C53.898305084745765,40,52.88135593220339,40,51.86440677966102,40C50.847457627118644,40,49.83050847457627,40,48.813559322033896,40C47.79661016949152,40,46.77966101694915,40,45.762711864406775,40C44.7457627118644,40,43.728813559322035,40,42.71186440677966,40C41.69491525423729,40,40.67796610169491,40,39.66101694915254,40C38.644067796610166,40,37.6271186440678,40,36.610169491525426,40C35.59322033898305,40,34.57627118644068,40,33.559322033898304,40C32.54237288135593,40,31.525423728813557,40,30.508474576271183,40C29.491525423728813,40,28.47457627118644,40,27.45762711864407,40C26.440677966101696,40,25.423728813559322,40,24.406779661016948,40C23.389830508474574,40,22.372881355932204,40,21.35593220338983,40C20.338983050847457,40,19.322033898305087,40,18.305084745762713,40C17.28813559322034,40,16.271186440677965,40,15.254237288135592,40C14.23728813559322,40,13.220338983050846,40,12.203389830508474,40C11.186440677966102,40,10.169491525423728,40,9.152542372881356,40C8.135593220338983,40,7.11864406779661,40,6.101694915254237,40C5.084745762711864,40,4.067796610169491,40,3.0508474576271185,40C2.0338983050847457,40,1.0169491525423728,40,0,40Z"></path><path class="line" stroke="black" fill="none" d="M0,39C1.0169491525423728,38.96666666666667,2.0338983050847457,38.93333333333333,3.0508474576271185,38.8C4.067796610169491,38.666666666666664,5.084745762711864,38.199999999999996,6.101694915254237,38.199999999999996C7.11864406779661,38.199999999999996,8.135593220338983,38.199999999999996,9.152542372881356,38.199999999999996C10.169491525423728,38.199999999999996,11.186440677966102,38.199999999999996,12.203389830508474,38.199999999999996C13.220338983050846,38.199999999999996,14.23728813559322,38,15.254237288135592,38C16.271186440677965,38,17.28813559322034,38,18.305084745762713,38C19.322033898305087,38,20.338983050847457,37.56666666666667,21.35593220338983,37.400000000000006C22.372881355932204,37.23333333333334,23.389830508474574,37.1,24.406779661016948,37C25.423728813559322,36.9,26.440677966101696,36.93333333333334,27.45762711864407,36.800000000000004C28.47457627118644,36.66666666666667,29.491525423728813,36.13333333333333,30.508474576271183,36C31.525423728813557,35.86666666666667,32.54237288135593,35.86666666666666,33.559322033898304,35.8C34.57627118644068,35.733333333333334,35.59322033898305,35.733333333333334,36.610169491525426,35.6C37.6271186440678,35.46666666666667,38.644067796610166,34.43333333333333,39.66101694915254,34C40.67796610169491,33.56666666666666,41.69491525423729,33.300000000000004,42.71186440677966,33C43.728813559322035,32.7,44.7457627118644,32.633333333333326,45.762711864406775,32.199999999999996C46.77966101694915,31.766666666666662,47.79661016949152,30.966666666666665,48.813559322033896,30.4C49.83050847457627,29.833333333333332,50.847457627118644,29.199999999999996,51.86440677966102,28.799999999999997C52.88135593220339,28.4,53.898305084745765,28.400000000000002,54.91525423728814,28C55.93220338983051,27.6,56.94915254237288,26.93333333333333,57.96610169491525,26.4C58.983050847457626,25.866666666666667,59.99999999999999,25.266666666666666,61.01694915254237,24.8C62.03389830508474,24.333333333333332,63.05084745762712,24.233333333333338,64.0677966101695,23.6C65.08474576271186,22.96666666666667,66.10169491525424,21.666666666666664,67.11864406779661,21C68.13559322033899,20.333333333333332,69.15254237288136,20.06666666666667,70.16949152542374,19.6C71.1864406779661,19.133333333333336,72.20338983050848,18.633333333333333,73.22033898305085,18.2C74.23728813559322,17.766666666666666,75.2542372881356,17.6,76.27118644067797,17C77.28813559322033,16.4,78.30508474576271,15.466666666666663,79.32203389830508,14.6C80.33898305084746,13.73333333333333,81.35593220338983,12.66666666666667,82.37288135593221,11.8C83.38983050847457,10.933333333333337,84.40677966101696,10.13333333333333,85.42372881355932,9.399999999999999C86.4406779661017,8.666666666666664,87.45762711864407,8.033333333333339,88.47457627118645,7.400000000000002C89.49152542372882,6.766666666666673,90.50847457627118,6.133333333333331,91.52542372881355,5.6000000000000005C92.54237288135593,5.066666666666662,93.55932203389831,4.199999999999999,94.57627118644069,4.199999999999999C95.59322033898306,4.199999999999999,96.61016949152543,4.3999999999999995,97.62711864406779,4.3999999999999995C98.64406779661016,4.3999999999999995,99.66101694915254,3.1999999999999984,100.6779661016949,3.1999999999999984C101.69491525423729,3.1999999999999984,102.71186440677965,3.999999999999999,103.72881355932203,3.999999999999999C104.7457627118644,3.999999999999999,105.76271186440678,3.3666666666666636,106.77966101694915,2.9999999999999982C107.79661016949153,2.633333333333331,108.8135593220339,1.8000000000000016,109.83050847457628,1.8000000000000016C110.84745762711864,1.8000000000000016,111.86440677966102,2.400000000000002,112.88135593220339,2.400000000000002C113.89830508474576,2.400000000000002,114.91525423728814,2.3333333333333353,115.9322033898305,2.200000000000002C116.94915254237289,2.0666666666666678,117.96610169491525,1.0000000000000009,118.98305084745763,1.0000000000000009C120,1.0000000000000009,121.01694915254237,3.3333333333333357,122.03389830508473,3.5999999999999988C123.05084745762711,3.866666666666666,124.0677966101695,3.733333333333332,125.08474576271188,3.999999999999999C126.10169491525424,4.266666666666664,127.11864406779662,4.866666666666665,128.135593220339,5.4C129.15254237288136,5.933333333333334,130.16949152542372,6.766666666666669,131.1864406779661,7.200000000000002C132.20338983050846,7.633333333333338,133.22033898305085,7.633333333333332,134.23728813559322,7.999999999999998C135.25423728813558,8.366666666666664,136.27118644067798,8.933333333333332,137.28813559322035,9.399999999999999C138.3050847457627,9.866666666666665,139.3220338983051,10.8,140.33898305084747,10.8C141.35593220338984,10.8,142.3728813559322,8.399999999999999,143.38983050847457,8.399999999999999C144.40677966101694,8.399999999999999,145.42372881355934,8.399999999999999,146.4406779661017,8.399999999999999C147.45762711864407,8.399999999999999,148.47457627118644,9.266666666666667,149.4915254237288,9.6C150.50847457627117,9.933333333333335,151.52542372881356,10.2,152.54237288135593,10.4C153.5593220338983,10.600000000000001,154.5762711864407,10.6,155.59322033898306,10.8C156.61016949152543,11,157.6271186440678,11.400000000000002,158.64406779661016,11.600000000000001C159.66101694915253,11.800000000000002,160.67796610169492,11.733333333333334,161.6949152542373,12.000000000000002C162.71186440677965,12.26666666666667,163.72881355932205,13.166666666666663,164.74576271186442,13.799999999999999C165.76271186440678,14.43333333333333,166.77966101694915,15.3,167.79661016949152,15.8C168.81355932203388,16.300000000000004,169.83050847457628,16.333333333333336,170.84745762711864,16.8C171.864406779661,17.266666666666666,172.8813559322034,18.099999999999998,173.89830508474577,18.599999999999998C174.91525423728814,19.099999999999998,175.93220338983053,19.299999999999997,176.9491525423729,19.8C177.96610169491527,20.3,178.98305084745763,20.95,180,21.6"></path><path class="axis-ceiling" stroke-width="1" stroke="black" fill="none" d="M175,0L180,0"></path><text class="axis-ceiling-label" font-family="sans-serif" text-anchor="end" font-size="10px" x="170" y="2.5">200</text></g></svg>