<svg xmlns="http://www.w3.org/2000/svg" viewBox="0 0 180 60"><g transform="translate(0,20)"><path class="area" fill="rgba(0, 0, 0, 0.2)" d="M0,36.464C1.0169491525423728,36.4376,2.0338983050847457,36.4112,3.0508474576271185,36.4112C4.067796610169491,36.4112,5.084745762711864,37.144800000000004,6.101694915254237,37.5968C7.11864406779661,38.0488,8.135593220338983,39.1232,9.152542372881356,39.1232C10.169491525423728,39.1232,11.186440677966102,36.2976,12.203389830508474,36.2976C13.220338983050846,36.2976,14.23728813559322,36.628,15.254237288135592,36.8368C16.271186440677965,37.0456,17.28813559322034,37.54933333333334,18.305084745762713,37.5504C19.322033898305087,37.55146666666667,20.338983050847457,37.55093333333333,21.35593220338983,37.552C22.372881355932204,37.553066666666666,23.389830508474574,37.571733333333334,24.406779661016948,37.6112C25.423728813559322,37.65066666666666,26.440677966101696,37.88,27.45762711864407,38.1552C28.47457627118644,38.4304,29.491525423728813,39.2624,30.508474576271183,39.2624C31.525423728813557,39.2624,32.54237288135593,36.92,33.559322033898304,36.92C34.57627118644068,36.92,35.59322033898305,37.23466666666666,36.610169491525426,37.3696C37.6271186440678,37.50453333333333,38.644067796610166,37.60906666666666,39.66101694915254,37.7296C40.67796610169491,37.85013333333333,41.69491525423729,38.092800000000004,42.71186440677966,38.092800000000004C43.728813559322035,38.092800000000004,44.7457627118644,37.992,45.762711864406775,37.992C46.77966101694915,37.992,47.79661016949152,38.047466666666665,48.813559322033896,38.1584C49.83050847457627,38.269333333333336,50.847457627118644,39.321600000000004,51.86440677966102,39.321600000000004C52.88135593220339,39.321600000000004,53.898305084745765,37.456,54.91525423728814,37.456C55.93220338983051,37.456,56.94915254237288,37.787466666666674,57.96610169491525,37.888000000000005C58.983050847457626,37.988533333333336,59.99999999999999,38.0072,61.01694915254237,38.0592C62.03389830508474,38.1112,63.05084745762712,38.199999999999996,64.0677966101695,38.199999999999996C65.08474576271186,38.199999999999996,66.10169491525424,37.992,67.11864406779661,37.992C68.13559322033899,37.992,69.15254237288136,38.3576,70.16949152542374,38.587199999999996C71.1864406779661,38.81679999999999,72.20338983050848,39.3696,73.22033898305085,39.3696C74.23728813559322,39.3696,75.2542372881356,37.5824,76.27118644067797,37.5824C77.28813559322033,37.5824,78.30508474576271,37.66746666666667,79.32203389830508,37.7376C80.33898305084746,37.80773333333333,81.35593220338983,38.0032,82.37288135593221,38.0032C83.38983050847457,38.0032,84.40677966101696,37.875733333333336,85.42372881355932,37.816C86.4406779661017,37.75626666666667,87.45762711864407,37.6448,88.47457627118645,37.6448C89.49152542372882,37.6448,90.50847457627118,37.949333333333335,91.52542372881355,38.1856C92.54237288135593,38.421866666666666,93.55932203389831,39.0624,94.57627118644069,39.0624C95.59322033898306,39.0624,96.61016949152543,36.3168,97.62711864406779,36.3168C98.64406779661016,36.3168,99.66101694915254,36.415733333333336,100.6779661016949,36.4448C101.69491525423729,36.473866666666666,102.71186440677965,36.467999999999996,103.72881355932203,36.4912C104.7457627118644,36.514399999999995,105.76271186440678,36.583999999999996,106.77966101694915,36.583999999999996C107.79661016949153,36.583999999999996,108.8135593220339,35.928,109.83050847457628,35.928C110.84745762711864,35.928,111.86440677966102,36.412,112.88135593220339,36.784C113.89830508474576,37.156,114.91525423728814,38.16,115.9322033898305,38.16C116.94915254237289,38.16,117.96610169491525,32.86773333333333,118.98305084745763,32.7632C120,32.65866666666667,121.01694915254237,32.6064,122.03389830508473,32.6064C123.05084745762711,32.6064,124.0677966101695,32.616,125.08474576271188,32.616C126.10169491525424,32.616,127.11864406779662,32.51466666666666,128.135593220339,32.312C129.15254237288136,32.10933333333333,130.16949152542372,31.0928,131.1864406779661,31.0928C132.20338983050846,31.0928,133.22033898305085,31.352,134.23728813559322,31.8704C135.25423728813558,32.3888,136.27118644067798,35.976,137.28813559322035,35.976C138.3050847457627,35.976,139.3220338983051,24.588800000000003,140.33898305084747,24.064C141.35593220338984,23.5392,142.3728813559322,23.2768,143.38983050847457,23.2768C144.40677966101694,23.2768,145.42372881355934,23.88026666666667,146.4406779661017,24.068800000000003C147.45762711864407,24.257333333333335,148.47457627118644,24.408,149.4915254237288,24.408C150.50847457627117,24.408,151.52542372881356,20.2384,152.54237288135593,20.2384C153.5593220338983,20.2384,154.5762711864407,21.063466666666667,155.59322033898306,22.7136C156.61016949152543,24.363733333333318,157.6271186440678,32.2256,158.64406779661016,32.2256C159.66101694915253,32.2256,160.67796610169492,32.14026666666667,161.6949152542373,31.9696C162.71186440677965,31.798933333333334,163.72881355932205,4.914133333333331,164.74576271186442,4.838399999999998C165.76271186440678,4.762666666666666,166.77966101694915,4.7248,167.79661016949152,4.7248C168.81355932203388,4.7248,169.83050847457628,8.076799999999999,170.84745762711864,8.076799999999999C171.864406779661,8.076799999999999,172.8813559322034,3.998400000000002,173.89830508474577,3.998400000000002C174.91525423728814,3.998400000000002,175.93220338983053,8.163733333333305,176.9491525423729,12.088000000000001C177.96610169491527,16.01226666666666,178.98305084745763,21.77813333333333,180,27.544L180,40C178.98305084745763,40,177.96610169491527,40,176.9491525423729,40C175.93220338983053,40,174.91525423728814,40,173.89830508474577,40C172.8813559322034,40,171.864406779661,40,170.84745762711864,40C169.83050847457628,40,168.81355932203388,40,167.79661016949152,40C166.77966101694915,40,165.76271186440678,40,164.74576271186442,40C163.72881355932205,40,162.71186440677965,40,161.6949152542373,40C160.67796610169492,40,159.66101694915253,40,158.64406779661016,40C157.6271186440678,40,156.61016949152543,40,155.59322033898306,40C154.5762711864407,40,153.5593220338983,40,152.54237288135593,40C151.52542372881356,40,150.50847457627117,40,149.4915254237288,40C148.47457627118644,40,147.45762711864407,40,146.4406779661017,40C145.42372881355934,40,144.40677966101694,40,143.38983050847457,40C142.3728813559322,40,141.35593220338984,40,140.33898305084747,40C139.3220338983051,40,138.3050847457627,40,137.28813559322035,40C136.27118644067798,40,135.25423728813558,40,134.23728813559322,40C133.22033898305085,40,132.20338983050846,40,131.1864406779661,40C130.16949152542372,40,129.15254237288136,40,128.135593220339,40C127.11864406779662,40,126.10169491525424,40,125.08474576271188,40C124.0677966101695,40,123.05084745762711,40,122.03389830508473,40C121.01694915254237,40,120,40,118.98305084745763,40C117.96610169491525,40,116.94915254237289,40,115.9322033898305,40C114.91525423728814,40,113.89830508474576,40,112.88135593220339,40C111.86440677966102,40,110.84745762711864,40,109.83050847457628,40C108.8135593220339,40,107.79661016949153,40,106.77966101694915,40C105.76271186440678,40,104.7457627118644,40,103.72881355932203,40C102.71186440677965,40,101.69491525423729,40,100.6779661016949,40C99.66101694915254,40,98.64406779661016,40,97.62711864406779,40C96.61016949152543,40,95.59322033898306,40,94.57627118644069,40C93.55932203389831,40,92.54237288135593,40,91.52542372881355,40C90.50847457627118,40,89.49152542372882,40,88.47457627118645,40C87.45762711864407,40,86.4406779661017,40,85.42372881355932,40C84.40677966101696,40,83.38983050847457,40,82.37288135593221,40C81.35593220338983,40,80.33898305084746,40,79.32203389830508,40C78.30508474576271,40,77.28813559322033,40,76.27118644067797,40C75.2542372881356,40,74.23728813559322,40,73.22033898305085,40C72.20338983050848,40,71.1864406779661,40,70.16949152542374,40C69.15254237288136,40,68.13559322033899,40,67.11864406779661,40C66.10169491525424,40,65.08474576271186,40,64.0677966101695,40C63.05084745762712,40,62.03389830508474,40,61.01694915254237,40C59.99999999999999,40,58.983050847457626,40,57.96610169491525,40C56.94915254237288,40,55.93220338983051,40,54.91525423728814,40C53.898305084745765,40,52.88135593220339,40,51.86440677966102,40C50.847457627118644,40,49.83050847457627,40,48.813559322033896,40C47.79661016949152,40,46.77966101694915,40,45.762711864406775,40C44.7457627118644,40,43.728813559322035,40,42.71186440677966,40C41.69491525423729,40,40.67796610169491,40,39.66101694915254,40C38.644067796610166,40,37.6271186440678,40,36.610169491525426,40C35.59322033898305,40,34.57627118644068,40,33.559322033898304,40C32.54237288135593,40,31.525423728813557,40,30.508474576271183,40C29.491525423728813,40,28.47457627118644,40,27.45762711864407,40C26.440677966101696,40,25.423728813559322,40,24.406779661016948,40C23.389830508474574,40,22.372881355932204,40,21.35593220338983,40C20.338983050847457,40,19.322033898305087,40,18.305084745762713,40C17.28813559322034,40,16.271186440677965,40,15.254237288135592,40C14.23728813559322,40,13.220338983050846,40,12.203389830508474,40C11.186440677966102,40,10.169491525423728,40,9.152542372881356,40C8.135593220338983,40,7.11864406779661,40,6.101694915254237,40C5.084745762711864,40,4.067796610169491,40,3.0508474576271185,40C2.0338983050847457,40,1.0169491525423728,40,0,40Z"></path><path class="line" stroke="black" fill="none" d="M0,36.464C1.0169491525423728,36.4376,2.0338983050847457,36.4112,3.0508474576271185,36.4112C4.067796610169491,36.4112,5.084745762711864,37.144800000000004,6.101694915254237,37.5968C7.11864406779661,38.0488,8.135593220338983,39.1232,9.152542372881356,39.1232C10.169491525423728,39.1232,11.186440677966102,36.2976,12.203389830508474,36.2976C13.220338983050846,36.2976,14.23728813559322,36.628,15.254237288135592,36.8368C16.271186440677965,37.0456,17.28813559322034,37.54933333333334,18.305084745762713,37.5504C19.322033898305087,37.55146666666667,20.338983050847457,37.55093333333333,21.35593220338983,37.552C22.372881355932204,37.553066666666666,23.389830508474574,37.571733333333334,24.406779661016948,37.6112C25.423728813559322,37.65066666666666,26.440677966101696,37.88,27.45762711864407,38.1552C28.47457627118644,38.4304,29.491525423728813,39.2624,30.508474576271183,39.2624C31.525423728813557,39.2624,32.54237288135593,36.92,33.559322033898304,36.92C34.57627118644068,36.92,35.59322033898305,37.23466666666666,36.610169491525426,37.3696C37.6271186440678,37.50453333333333,38.644067796610166,37.60906666666666,39.66101694915254,37.7296C40.67796610169491,37.85013333333333,41.69491525423729,38.092800000000004,42.71186440677966,38.092800000000004C43.728813559322035,38.092800000000004,44.7457627118644,37.992,45.762711864406775,37.992C46.77966101694915,37.992,47.79661016949152,38.047466666666665,48.813559322033896,38.1584C49.83050847457627,38.269333333333336,50.847457627118644,39.321600000000004,51.86440677966102,39.321600000000004C52.88135593220339,39.321600000000004,53.898305084745765,37.456,54.91525423728814,37.456C55.93220338983051,37.456,56.94915254237288,37.787466666666674,57.96610169491525,37.888000000000005C58.983050847457626,37.988533333333336,59.99999999999999,38.0072,61.01694915254237,38.0592C62.03389830508474,38.1112,63.05084745762712,38.199999999999996,64.0677966101695,38.199999999999996C65.08474576271186,38.199999999999996,66.10169491525424,37.992,67.11864406779661,37.992C68.13559322033899,37.992,69.15254237288136,38.3576,70.16949152542374,38.587199999999996C71.1864406779661,38.81679999999999,72.20338983050848,39.3696,73.22033898305085,39.3696C74.23728813559322,39.3696,75.2542372881356,37.5824,76.27118644067797,37.5824C77.28813559322033,37.5824,78.30508474576271,37.66746666666667,79.32203389830508,37.7376C80.33898305084746,37.80773333333333,81.35593220338983,38.0032,82.37288135593221,38.0032C83.38983050847457,38.0032,84.40677966101696,37.875733333333336,85.42372881355932,37.816C86.4406779661017,37.75626666666667,87.45762711864407,37.6448,88.47457627118645,37.6448C89.49152542372882,37.6448,90.50847457627118,37.949333333333335,91.52542372881355,38.1856C92.54237288135593,38.421866666666666,93.55932203389831,39.0624,94.57627118644069,39.0624C95.59322033898306,39.0624,96.61016949152543,36.3168,97.62711864406779,36.3168C98.64406779661016,36.3168,99.66101694915254,36.415733333333336,100.6779661016949,36.4448C101.69491525423729,36.473866666666666,102.71186440677965,36.467999999999996,103.72881355932203,36.4912C104.7457627118644,36.514399999999995,105.76271186440678,36.583999999999996,106.77966101694915,36.583999999999996C107.79661016949153,36.583999999999996,108.8135593220339,35.928,109.83050847457628,35.928C110.84745762711864,35.928,111.86440677966102,36.412,112.88135593220339,36.784C113.89830508474576,37.156,114.91525423728814,38.16,115.9322033898305,38.16C116.94915254237289,38.16,117.96610169491525,32.86773333333333,118.98305084745763,32.7632C120,32.65866666666667,121.01694915254237,32.6064,122.03389830508473,32.6064C123.05084745762711,32.6064,124.0677966101695,32.616,125.08474576271188,32.616C126.10169491525424,32.616,127.11864406779662,32.51466666666666,128.135593220339,32.312C129.15254237288136,32.10933333333333,130.16949152542372,31.0928,131.1864406779661,31.0928C132.20338983050846,31.0928,133.22033898305085,31.352,134.23728813559322,31.8704C135.25423728813558,32.3888,136.27118644067798,35.976,137.28813559322035,35.976C138.3050847457627,35.976,139.3220338983051,24.588800000000003,140.33898305084747,24.064C141.35593220338984,23.5392,142.3728813559322,23.2768,143.38983050847457,23.2768C144.40677966101694,23.2768,145.42372881355934,23.88026666666667,146.4406779661017,24.068800000000003C147.45762711864407,24.257333333333335,148.47457627118644,24.408,149.4915254237288,24.408C150.50847457627117,24.408,151.52542372881356,20.2384,152.54237288135593,20.2384C153.5593220338983,20.2384,154.5762711864407,21.063466666666667,155.59322033898306,22.7136C156.61016949152543,24.363733333333318,157.6271186440678,32.2256,158.64406779661016,32.2256C159.66101694915253,32.2256,160.67796610169492,32.14026666666667,161.6949152542373,31.9696C162.71186440677965,31.798933333333334,163.72881355932205,4.914133333333331,164.74576271186442,4.838399999999998C165.76271186440678,4.762666666666666,166.77966101694915,4.7248,167.79661016949152,4.7248C168.81355932203388,4.7248,169.83050847457628,8.076799999999999,170.84745762711864,8.076799999999999C171.864406779661,8.076799999999999,172.8813559322034,3.998400000000002,173.89830508474577,3.998400000000002C174.91525423728814,3.998400000000002,175.93220338983053,8.163733333333305,176.9491525423729,12.088000000000001C177.96610169491527,16.01226666666666,178.98305084745763,21.77813333333333,180,27.544"></path><path class="axis-ceiling" stroke-width="1" stroke="black" fill="none" d="M175,0L180,0"></path><text class="axis-ceiling-label" font-family="sans-serif" text-anchor="end" font-size="10px" x="170" y="2.5">25000</text></g></svg>