<svg xmlns="http://www.w3.org/2000/svg" viewBox="0 0 180 60"><g transform="translate(0,20)"><path class="area" fill="rgba(0, 0, 0, 0.2)" d="M0,10.853333333333332C1.0169491525423728,9.229333333333333,2.0338983050847457,7.605333333333335,3.0508474576271185,7.605333333333335C4.067796610169491,7.605333333333335,5.084745762711864,11.484000000000002,6.101694915254237,11.484000000000002C7.11864406779661,11.484000000000002,8.135593220338983,9.556000000000001,9.152542372881356,9.556000000000001C10.169491525423728,9.556000000000001,11.186440677966102,14.58022222222222,12.203389830508474,18.035999999999998C13.220338983050846,21.491777777777774,14.23728813559322,30.290666666666667,15.254237288135592,30.290666666666667C16.271186440677965,30.290666666666667,17.28813559322034,6.488,18.305084745762713,6.488C19.322033898305087,6.488,20.338983050847457,7.335333333333333,21.35593220338983,7.949333333333333C22.372881355932204,8.563333333333333,23.389830508474574,9.347333333333333,24.406779661016948,10.171999999999999C25.423728813559322,10.996666666666666,26.440677966101696,12.897333333333334,27.45762711864407,12.897333333333334C28.47457627118644,12.897333333333334,29.491525423728813,9.933333333333332,30.508474576271183,9.933333333333332C31.525423728813557,9.933333333333332,32.54237288135593,12.391111111111112,33.559322033898304,15.588000000000001C34.57627118644068,18.78488888888889,35.59322033898305,29.114666666666665,36.610169491525426,29.114666666666665C37.6271186440678,29.114666666666665,38.644067796610166,6.272000000000002,39.66101694915254,6.272000000000002C40.67796610169491,6.272000000000002,41.69491525423729,7.6388888888888875,42.71186440677966,8.36C43.728813559322035,9.08111111111111,44.7457627118644,9.106222222222222,45.762711864406775,10.598666666666666C46.77966101694915,12.091111111111115,47.79661016949152,26.62533333333333,48.813559322033896,26.62533333333333C49.83050847457627,26.62533333333333,50.847457627118644,16.590666666666664,51.86440677966102,16.590666666666664C52.88135593220339,16.590666666666664,53.898305084745765,18.823999999999998,54.91525423728814,20.605333333333334C55.93220338983051,22.386666666666667,56.94915254237288,27.278666666666666,57.96610169491525,27.278666666666666C58.983050847457626,27.278666666666666,59.99999999999999,17.84844444444444,61.01694915254237,14.898666666666664C62.03389830508474,11.948888888888874,63.05084745762712,10.801555555555558,64.0677966101695,9.580000000000002C65.08474576271186,8.358444444444453,66.10169491525424,7.569333333333335,67.11864406779661,7.569333333333335C68.13559322033899,7.569333333333335,69.15254237288136,9.602666666666666,70.16949152542374,9.602666666666666C71.1864406779661,9.602666666666666,72.20338983050848,9.202666666666666,73.22033898305085,9.202666666666666C74.23728813559322,9.202666666666666,75.2542372881356,13.059555555555558,76.27118644067797,16.43866666666667C77.28813559322033,19.81777777777778,78.30508474576271,29.477333333333334,79.32203389830508,29.477333333333334C80.33898305084746,29.477333333333334,81.35593220338983,9.434666666666667,82.37288135593221,9.434666666666667C83.38983050847457,9.434666666666667,84.40677966101696,10.981333333333339,85.42372881355932,12.257333333333333C86.4406779661017,13.533333333333335,87.45762711864407,15.910888888888888,88.47457627118645,17.090666666666667C89.49152542372882,18.270444444444436,90.50847457627118,18.891555555555566,91.52542372881355,19.336000000000002C92.54237288135593,19.780444444444445,93.55932203389831,19.558222222222224,94.57627118644069,20.002666666666666C95.59322033898306,20.447111111111102,96.61016949152543,22.368000000000006,97.62711864406779,24.525333333333332C98.64406779661016,26.682666666666666,99.66101694915254,32.946666666666665,100.6779661016949,32.946666666666665C101.69491525423729,32.946666666666665,102.71186440677965,18.181333333333335,103.72881355932203,18.181333333333335C104.7457627118644,18.181333333333335,105.76271186440678,20.591777777777782,106.77966101694915,21.762666666666668C107.79661016949153,22.93355555555556,108.8135593220339,24.287111111111113,109.83050847457628,25.206666666666667C110.84745762711864,26.126222222222218,111.86440677966102,27.142222222222216,112.88135593220339,27.279999999999998C113.89830508474576,27.41777777777778,114.91525423728814,27.348888888888887,115.9322033898305,27.486666666666668C116.94915254237289,27.62444444444445,117.96610169491525,28.597333333333324,118.98305084745763,29.892000000000003C120,31.186666666666667,121.01694915254237,35.254666666666665,122.03389830508473,35.254666666666665C123.05084745762711,35.254666666666665,124.0677966101695,23.875999999999998,125.08474576271188,23.875999999999998C126.10169491525424,23.875999999999998,127.11864406779662,26.353777777777776,128.135593220339,27.198666666666664C129.15254237288136,28.04355555555555,130.16949152542372,28.430666666666667,131.1864406779661,28.945333333333334C132.20338983050846,29.460000000000004,133.22033898305085,30.286666666666665,134.23728813559322,30.286666666666665C135.25423728813558,30.286666666666665,136.27118644067798,30.086666666666666,137.28813559322035,30.086666666666666C138.3050847457627,30.086666666666666,139.3220338983051,31.231777777777772,140.33898305084747,32.29866666666667C141.35593220338984,33.36555555555556,142.3728813559322,36.488,143.38983050847457,36.488C144.40677966101694,36.488,145.42372881355934,27.177333333333333,146.4406779661017,27.177333333333333C147.45762711864407,27.177333333333333,148.47457627118644,29.015555555555558,149.4915254237288,29.708000000000002C150.50847457627117,30.400444444444453,151.52542372881356,30.88111111111111,152.54237288135593,31.332C153.5593220338983,31.78288888888889,154.5762711864407,32.413333333333334,155.59322033898306,32.413333333333334C156.61016949152543,32.413333333333334,157.6271186440678,32.292,158.64406779661016,32.292C159.66101694915253,32.292,160.67796610169492,33.518,161.6949152542373,34.285333333333334C162.71186440677965,35.05266666666667,163.72881355932205,36.71733333333333,164.74576271186442,36.896C165.76271186440678,37.074666666666666,166.77966101694915,37.164,167.79661016949152,37.164C168.81355932203388,37.164,169.83050847457628,29.962666666666667,170.84745762711864,29.962666666666667C171.864406779661,29.962666666666667,172.8813559322034,31.6,173.89830508474577,32.17733333333334C174.91525423728814,32.75466666666667,175.93220338983053,32.63533333333333,176.9491525423729,33.42666666666667C177.96610169491527,34.218,178.98305084745763,35.571666666666665,180,36.925333333333334L180,40C178.98305084745763,40,177.96610169491527,40,176.9491525423729,40C175.93220338983053,40,174.91525423728814,40,173.89830508474577,40C172.8813559322034,40,171.864406779661,40,170.84745762711864,40C169.83050847457628,40,168.81355932203388,40,167.79661016949152,40C166.77966101694915,40,165.76271186440678,40,164.74576271186442,40C163.72881355932205,40,162.71186440677965,40,161.6949152542373,40C160.67796610169492,40,159.66101694915253,40,158.64406779661016,40C157.6271186440678,40,156.61016949152543,40,155.59322033898306,40C154.5762711864407,40,153.5593220338983,40,152.54237288135593,40C151.52542372881356,40,150.50847457627117,40,149.4915254237288,40C148.47457627118644,40,147.45762711864407,40,146.4406779661017,40C145.42372881355934,40,144.40677966101694,40,143.38983050847457,40C142.3728813559322,40,141.35593220338984,40,140.33898305084747,40C139.3220338983051,40,138.3050847457627,40,137.28813559322035,40C136.27118644067798,40,135.25423728813558,40,134.23728813559322,40C133.22033898305085,40,132.20338983050846,40,131.1864406779661,40C130.16949152542372,40,129.15254237288136,40,128.135593220339,40C127.11864406779662,40,126.10169491525424,40,125.08474576271188,40C124.0677966101695,40,123.05084745762711,40,122.03389830508473,40C121.01694915254237,40,120,40,118.98305084745763,40C117.96610169491525,40,116.94915254237289,40,115.9322033898305,40C114.91525423728814,40,113.89830508474576,40,112.88135593220339,40C111.86440677966102,40,110.84745762711864,40,109.83050847457628,40C108.8135593220339,40,107.79661016949153,40,106.77966101694915,40C105.76271186440678,40,104.7457627118644,40,103.72881355932203,40C102.71186440677965,40,101.69491525423729,40,100.6779661016949,40C99.66101694915254,40,98.64406779661016,40,97.62711864406779,40C96.61016949152543,40,95.59322033898306,40,94.57627118644069,40C93.55932203389831,40,92.54237288135593,40,91.52542372881355,40C90.50847457627118,40,89.49152542372882,40,88.47457627118645,40C87.45762711864407,40,86.4406779661017,40,85.42372881355932,40C84.40677966101696,40,83.38983050847457,40,82.37288135593221,40C81.35593220338983,40,80.33898305084746,40,79.32203389830508,40C78.30508474576271,40,77.28813559322033,40,76.27118644067797,40C75.2542372881356,40,74.23728813559322,40,73.22033898305085,40C72.20338983050848,40,71.1864406779661,40,70.16949152542374,40C69.15254237288136,40,68.13559322033899,40,67.11864406779661,40C66.10169491525424,40,65.08474576271186,40,64.0677966101695,40C63.05084745762712,40,62.03389830508474,40,61.01694915254237,40C59.99999999999999,40,58.983050847457626,40,57.96610169491525,40C56.94915254237288,40,55.93220338983051,40,54.91525423728814,40C53.898305084745765,40,52.88135593220339,40,51.86440677966102,40C50.847457627118644,40,49.83050847457627,40,48.813559322033896,40C47.79661016949152,40,46.77966101694915,40,45.762711864406775,40C44.7457627118644,40,43.728813559322035,40,42.71186440677966,40C41.69491525423729,40,40.67796610169491,40,39.66101694915254,40C38.644067796610166,40,37.6271186440678,40,36.610169491525426,40C35.59322033898305,40,34.57627118644068,40,33.559322033898304,40C32.54237288135593,40,31.525423728813557,40,30.508474576271183,40C29.491525423728813,40,28.47457627118644,40,27.45762711864407,40C26.440677966101696,40,25.423728813559322,40,24.406779661016948,40C23.389830508474574,40,22.372881355932204,40,21.35593220338983,40C20.338983050847457,40,19.322033898305087,40,18.305084745762713,40C17.28813559322034,40,16.271186440677965,40,15.254237288135592,40C14.23728813559322,40,13.220338983050846,40,12.203389830508474,40C11.186440677966102,40,10.169491525423728,40,9.152542372881356,40C8.135593220338983,40,7.11864406779661,40,6.101694915254237,40C5.084745762711864,40,4.067796610169491,40,3.0508474576271185,40C2.0338983050847457,40,1.0169491525423728,40,0,40Z"></path><path class="line" stroke="black" fill="none" d="M0,10.853333333333332C1.0169491525423728,9.229333333333333,2.0338983050847457,7.605333333333335,3.0508474576271185,7.605333333333335C4.067796610169491,7.605333333333335,5.084745762711864,11.484000000000002,6.101694915254237,11.484000000000002C7.11864406779661,11.484000000000002,8.135593220338983,9.556000000000001,9.152542372881356,9.556000000000001C10.169491525423728,9.556000000000001,11.186440677966102,14.58022222222222,12.203389830508474,18.035999999999998C13.220338983050846,21.491777777777774,14.23728813559322,30.290666666666667,15.254237288135592,30.290666666666667C16.271186440677965,30.290666666666667,17.28813559322034,6.488,18.305084745762713,6.488C19.322033898305087,6.488,20.338983050847457,7.335333333333333,21.35593220338983,7.949333333333333C22.372881355932204,8.563333333333333,23.389830508474574,9.347333333333333,24.406779661016948,10.171999999999999C25.423728813559322,10.996666666666666,26.440677966101696,12.897333333333334,27.45762711864407,12.897333333333334C28.47457627118644,12.897333333333334,29.491525423728813,9.933333333333332,30.508474576271183,9.933333333333332C31.525423728813557,9.933333333333332,32.54237288135593,12.391111111111112,33.559322033898304,15.588000000000001C34.57627118644068,18.78488888888889,35.59322033898305,29.114666666666665,36.610169491525426,29.114666666666665C37.6271186440678,29.114666666666665,38.644067796610166,6.272000000000002,39.66101694915254,6.272000000000002C40.67796610169491,6.272000000000002,41.69491525423729,7.6388888888888875,42.71186440677966,8.36C43.728813559322035,9.08111111111111,44.7457627118644,9.106222222222222,45.762711864406775,10.598666666666666C46.77966101694915,12.091111111111115,47.79661016949152,26.62533333333333,48.813559322033896,26.62533333333333C49.83050847457627,26.62533333333333,50.847457627118644,16.590666666666664,51.86440677966102,16.590666666666664C52.88135593220339,16.590666666666664,53.898305084745765,18.823999999999998,54.91525423728814,20.605333333333334C55.93220338983051,22.386666666666667,56.94915254237288,27.278666666666666,57.96610169491525,27.278666666666666C58.983050847457626,27.278666666666666,59.99999999999999,17.84844444444444,61.01694915254237,14.898666666666664C62.03389830508474,11.948888888888874,63.05084745762712,10.801555555555558,64.0677966101695,9.580000000000002C65.08474576271186,8.358444444444453,66.10169491525424,7.569333333333335,67.11864406779661,7.569333333333335C68.13559322033899,7.569333333333335,69.15254237288136,9.602666666666666,70.16949152542374,9.602666666666666C71.1864406779661,9.602666666666666,72.20338983050848,9.202666666666666,73.22033898305085,9.202666666666666C74.23728813559322,9.202666666666666,75.2542372881356,13.059555555555558,76.27118644067797,16.43866666666667C77.28813559322033,19.81777777777778,78.30508474576271,29.477333333333334,79.32203389830508,29.477333333333334C80.33898305084746,29.477333333333334,81.35593220338983,9.434666666666667,82.37288135593221,9.434666666666667C83.38983050847457,9.434666666666667,84.40677966101696,10.981333333333339,85.42372881355932,12.257333333333333C86.4406779661017,13.533333333333335,87.45762711864407,15.910888888888888,88.47457627118645,17.090666666666667C89.49152542372882,18.270444444444436,90.50847457627118,18.891555555555566,91.52542372881355,19.336000000000002C92.54237288135593,19.780444444444445,93.55932203389831,19.558222222222224,94.57627118644069,20.002666666666666C95.59322033898306,20.447111111111102,96.61016949152543,22.368000000000006,97.62711864406779,24.525333333333332C98.64406779661016,26.682666666666666,99.66101694915254,32.946666666666665,100.6779661016949,32.946666666666665C101.69491525423729,32.946666666666665,102.71186440677965,18.181333333333335,103.72881355932203,18.181333333333335C104.7457627118644,18.181333333333335,105.76271186440678,20.591777777777782,106.77966101694915,21.762666666666668C107.79661016949153,22.93355555555556,108.8135593220339,24.287111111111113,109.83050847457628,25.206666666666667C110.84745762711864,26.126222222222218,111.86440677966102,27.142222222222216,112.88135593220339,27.279999999999998C113.89830508474576,27.41777777777778,114.91525423728814,27.348888888888887,115.9322033898305,27.486666666666668C116.94915254237289,27.62444444444445,117.96610169491525,28.597333333333324,118.98305084745763,29.892000000000003C120,31.186666666666667,121.01694915254237,35.254666666666665,122.03389830508473,35.254666666666665C123.05084745762711,35.254666666666665,124.0677966101695,23.875999999999998,125.08474576271188,23.875999999999998C126.10169491525424,23.875999999999998,127.11864406779662,26.353777777777776,128.135593220339,27.198666666666664C129.15254237288136,28.04355555555555,130.16949152542372,28.430666666666667,131.1864406779661,28.945333333333334C132.20338983050846,29.460000000000004,133.22033898305085,30.286666666666665,134.23728813559322,30.286666666666665C135.25423728813558,30.286666666666665,136.27118644067798,30.086666666666666,137.28813559322035,30.086666666666666C138.3050847457627,30.086666666666666,139.3220338983051,31.231777777777772,140.33898305084747,32.29866666666667C141.35593220338984,33.36555555555556,142.3728813559322,36.488,143.38983050847457,36.488C144.40677966101694,36.488,145.42372881355934,27.177333333333333,146.4406779661017,27.177333333333333C147.45762711864407,27.177333333333333,148.47457627118644,29.015555555555558,149.4915254237288,29.708000000000002C150.50847457627117,30.400444444444453,151.52542372881356,30.88111111111111,152.54237288135593,31.332C153.5593220338983,31.78288888888889,154.5762711864407,32.413333333333334,155.59322033898306,32.413333333333334C156.61016949152543,32.413333333333334,157.6271186440678,32.292,158.64406779661016,32.292C159.66101694915253,32.292,160.67796610169492,33.518,161.6949152542373,34.285333333333334C162.71186440677965,35.05266666666667,163.72881355932205,36.71733333333333,164.74576271186442,36.896C165.76271186440678,37.074666666666666,166.77966101694915,37.164,167.79661016949152,37.164C168.81355932203388,37.164,169.83050847457628,29.962666666666667,170.84745762711864,29.962666666666667C171.864406779661,29.962666666666667,172.8813559322034,31.6,173.89830508474577,32.17733333333334C174.91525423728814,32.75466666666667,175.93220338983053,32.63533333333333,176.9491525423729,33.42666666666667C177.96610169491527,34.218,178.98305084745763,35.571666666666665,180,36.925333333333334"></path><path class="axis-ceiling" stroke-width="1" stroke="black" fill="none" d="M175,0L180,0"></path><text class="axis-ceiling-label" font-family="sans-serif" text-anchor="end" font-size="10px" x="170" y="2.5">30000</text></g></svg>