<svg xmlns="http://www.w3.org/2000/svg" viewBox="0 0 180 60"><g transform="translate(0,20)"><path class="area" fill="rgba(0, 0, 0, 0.2)" d="M0,14.72488888888889C1.0169491525423728,14.540096296296298,2.0338983050847457,14.355303703703706,3.0508474576271185,14.176622222222225C4.067796610169491,13.997940740740743,5.084745762711864,13.826948148148148,6.101694915254237,13.6528C7.11864406779661,13.47865185185185,8.135593220338983,13.303377777777778,9.152542372881356,13.131733333333333C10.169491525423728,12.960088888888889,11.186440677966102,12.792222222222225,12.203389830508474,12.622933333333336C13.220338983050846,12.453644444444446,14.23728813559322,12.282399999999999,15.254237288135592,12.115999999999998C16.271186440677965,11.949599999999997,17.28813559322034,11.786518518518518,18.305084745762713,11.624533333333332C19.322033898305087,11.462548148148148,20.338983050847457,11.300296296296295,21.35593220338983,11.144088888888888C22.372881355932204,10.98788148148148,23.389830508474574,10.837274074074074,24.406779661016948,10.687288888888888C25.423728813559322,10.537303703703703,26.440677966101696,10.390474074074076,27.45762711864407,10.244177777777779C28.47457627118644,10.097881481481483,29.491525423728813,9.952385185185184,30.508474576271183,9.80951111111111C31.525423728813557,9.666637037037036,32.54237288135593,9.52459259259259,33.559322033898304,9.386933333333332C34.57627118644068,9.249274074074073,35.59322033898305,9.116637037037036,36.610169491525426,8.983555555555554C37.6271186440678,8.850474074074073,38.644067796610166,8.71659259259259,39.66101694915254,8.588444444444443C40.67796610169491,8.460296296296296,41.69491525423729,8.337066666666667,42.71186440677966,8.214666666666668C43.728813559322035,8.092266666666669,44.7457627118644,7.9694222222222235,45.762711864406775,7.854044444444446C46.77966101694915,7.738666666666668,47.79661016949152,7.6275259259259265,48.813559322033896,7.5224C49.83050847457627,7.417274074074074,50.847457627118644,7.31905185185185,51.86440677966102,7.223288888888888C52.88135593220339,7.127525925925926,53.898305084745765,7.037451851851853,54.91525423728814,6.947822222222224C55.93220338983051,6.858192592592595,56.94915254237288,6.771259259259262,57.96610169491525,6.685511111111113C58.983050847457626,6.599762962962965,59.99999999999999,6.515422222222225,61.01694915254237,6.433333333333335C62.03389830508474,6.351244444444446,63.05084745762712,6.272548148148148,64.0677966101695,6.192977777777777C65.08474576271186,6.113407407407407,66.10169491525424,6.033614814814815,67.11864406779661,5.955911111111112C68.13559322033899,5.878207407407408,69.15254237288136,5.801911111111112,70.16949152542374,5.726755555555556C71.1864406779661,5.6516,72.20338983050848,5.577333333333334,73.22033898305085,5.5049777777777775C74.23728813559322,5.432622222222221,75.2542372881356,5.361955555555554,76.27118644067797,5.292622222222221C77.28813559322033,5.223288888888888,78.30508474576271,5.154992592592593,79.32203389830508,5.088977777777779C80.33898305084746,5.022962962962964,81.35593220338983,4.958370370370372,82.37288135593221,4.896533333333335C83.38983050847457,4.834696296296298,84.40677966101696,4.773481481481482,85.42372881355932,4.717955555555555C86.4406779661017,4.662429629629629,87.45762711864407,4.614044444444444,88.47457627118645,4.563377777777777C89.49152542372882,4.512711111111111,90.50847457627118,4.462325925925928,91.52542372881355,4.413955555555558C92.54237288135593,4.365585185185187,93.55932203389831,4.319333333333333,94.57627118644069,4.2731555555555545C95.59322033898306,4.226977777777776,96.61016949152543,4.181599999999999,97.62711864406779,4.136888888888888C98.64406779661016,4.092177777777777,99.66101694915254,4.0488,100.6779661016949,4.004888888888889C101.69491525423729,3.960977777777778,102.71186440677965,3.917155555555556,103.72881355932203,3.8734222222222225C104.7457627118644,3.829688888888889,105.76271186440678,3.785377777777777,106.77966101694915,3.7424888888888885C107.79661016949153,3.6995999999999998,108.8135593220339,3.657288888888891,109.83050847457628,3.616088888888891C110.84745762711864,3.5748888888888914,111.86440677966102,3.5354074074074084,112.88135593220339,3.49528888888889C113.89830508474576,3.4551703703703716,114.91525423728814,3.4149777777777794,115.9322033898305,3.3753777777777794C116.94915254237289,3.335777777777779,117.96610169491525,3.296237037037036,118.98305084745763,3.2576888888888877C120,3.2191407407407397,121.01694915254237,3.1812740740740746,122.03389830508473,3.1440888888888896C123.05084745762711,3.106903703703704,124.0677966101695,3.0700592592592577,125.08474576271188,3.034577777777776C126.10169491525424,2.999096296296295,127.11864406779662,2.9655555555555564,128.135593220339,2.9312000000000005C129.15254237288136,2.896844444444445,130.16949152542372,2.861999999999998,131.1864406779661,2.8284444444444423C132.20338983050846,2.7948888888888868,133.22033898305085,2.7623703703703706,134.23728813559322,2.729866666666667C135.25423728813558,2.6973629629629636,136.27118644067798,2.665155555555555,137.28813559322035,2.6334222222222214C138.3050847457627,2.601688888888888,139.3220338983051,2.5707851851851866,140.33898305084747,2.5394666666666676C141.35593220338984,2.508148148148149,142.3728813559322,2.4769481481481463,143.38983050847457,2.4455111111111094C144.40677966101694,2.414074074074072,145.42372881355934,2.3821185185185185,146.4406779661017,2.3508444444444443C147.45762711864407,2.3195703703703705,148.47457627118644,2.288948148148147,149.4915254237288,2.257866666666666C150.50847457627117,2.226785185185184,151.52542372881356,2.1955111111111103,152.54237288135593,2.164355555555555C153.5593220338983,2.1331999999999995,154.5762711864407,2.1019703703703705,155.59322033898306,2.0709333333333335C156.61016949152543,2.039896296296297,157.6271186440678,2.009348148148149,158.64406779661016,1.978133333333334C159.66101694915253,1.9469185185185187,160.67796610169492,1.9152444444444432,161.6949152542373,1.8836444444444433C162.71186440677965,1.8520444444444435,163.72881355932205,1.820444444444446,164.74576271186442,1.7885333333333353C165.76271186440678,1.7566222222222247,166.77966101694915,1.7246962962962982,167.79661016949152,1.6921777777777791C168.81355932203388,1.6596592592592598,169.83050847457628,1.626133333333332,170.84745762711864,1.5934222222222205C171.864406779661,1.560711111111109,172.8813559322034,1.5286814814814804,173.89830508474577,1.49591111111111C174.91525423728814,1.4631407407407397,175.93220338983053,1.4276592592592576,176.9491525423729,1.396799999999998C177.96610169491527,1.365940740740739,178.98305084745763,1.3383481481481463,180,1.310755555555554L180,40C178.98305084745763,40,177.96610169491527,40,176.9491525423729,40C175.93220338983053,40,174.91525423728814,40,173.89830508474577,40C172.8813559322034,40,171.864406779661,40,170.84745762711864,40C169.83050847457628,40,168.81355932203388,40,167.79661016949152,40C166.77966101694915,40,165.76271186440678,40,164.74576271186442,40C163.72881355932205,40,162.71186440677965,40,161.6949152542373,40C160.67796610169492,40,159.66101694915253,40,158.64406779661016,40C157.6271186440678,40,156.61016949152543,40,155.59322033898306,40C154.5762711864407,40,153.5593220338983,40,152.54237288135593,40C151.52542372881356,40,150.50847457627117,40,149.4915254237288,40C148.47457627118644,40,147.45762711864407,40,146.4406779661017,40C145.42372881355934,40,144.40677966101694,40,143.38983050847457,40C142.3728813559322,40,141.35593220338984,40,140.33898305084747,40C139.3220338983051,40,138.3050847457627,40,137.28813559322035,40C136.27118644067798,40,135.25423728813558,40,134.23728813559322,40C133.22033898305085,40,132.20338983050846,40,131.1864406779661,40C130.16949152542372,40,129.15254237288136,40,128.135593220339,40C127.11864406779662,40,126.10169491525424,40,125.08474576271188,40C124.0677966101695,40,123.05084745762711,40,122.03389830508473,40C121.01694915254237,40,120,40,118.98305084745763,40C117.96610169491525,40,116.94915254237289,40,115.9322033898305,40C114.91525423728814,40,113.89830508474576,40,112.88135593220339,40C111.86440677966102,40,110.84745762711864,40,109.83050847457628,40C108.8135593220339,40,107.79661016949153,40,106.77966101694915,40C105.76271186440678,40,104.7457627118644,40,103.72881355932203,40C102.71186440677965,40,101.69491525423729,40,100.6779661016949,40C99.66101694915254,40,98.64406779661016,40,97.62711864406779,40C96.61016949152543,40,95.59322033898306,40,94.57627118644069,40C93.55932203389831,40,92.54237288135593,40,91.52542372881355,40C90.50847457627118,40,89.49152542372882,40,88.47457627118645,40C87.45762711864407,40,86.4406779661017,40,85.42372881355932,40C84.40677966101696,40,83.38983050847457,40,82.37288135593221,40C81.35593220338983,40,80.33898305084746,40,79.32203389830508,40C78.30508474576271,40,77.28813559322033,40,76.27118644067797,40C75.2542372881356,40,74.23728813559322,40,73.22033898305085,40C72.20338983050848,40,71.1864406779661,40,70.16949152542374,40C69.15254237288136,40,68.13559322033899,40,67.11864406779661,40C66.10169491525424,40,65.08474576271186,40,64.0677966101695,40C63.05084745762712,40,62.03389830508474,40,61.01694915254237,40C59.99999999999999,40,58.983050847457626,40,57.96610169491525,40C56.94915254237288,40,55.93220338983051,40,54.91525423728814,40C53.898305084745765,40,52.88135593220339,40,51.86440677966102,40C50.847457627118644,40,49.83050847457627,40,48.813559322033896,40C47.79661016949152,40,46.77966101694915,40,45.762711864406775,40C44.7457627118644,40,43.728813559322035,40,42.71186440677966,40C41.69491525423729,40,40.67796610169491,40,39.66101694915254,40C38.644067796610166,40,37.6271186440678,40,36.610169491525426,40C35.59322033898305,40,34.57627118644068,40,33.559322033898304,40C32.54237288135593,40,31.525423728813557,40,30.508474576271183,40C29.491525423728813,40,28.47457627118644,40,27.45762711864407,40C26.440677966101696,40,25.423728813559322,40,24.406779661016948,40C23.389830508474574,40,22.372881355932204,40,21.35593220338983,40C20.338983050847457,40,19.322033898305087,40,18.305084745762713,40C17.28813559322034,40,16.271186440677965,40,15.254237288135592,40C14.23728813559322,40,13.220338983050846,40,12.203389830508474,40C11.186440677966102,40,10.169491525423728,40,9.152542372881356,40C8.135593220338983,40,7.11864406779661,40,6.101694915254237,40C5.084745762711864,40,4.067796610169491,40,3.0508474576271185,40C2.0338983050847457,40,1.0169491525423728,40,0,40Z"></path><path class="line" stroke="black" fill="none" d="M0,14.72488888888889C1.0169491525423728,14.540096296296298,2.0338983050847457,14.355303703703706,3.0508474576271185,14.176622222222225C4.067796610169491,13.997940740740743,5.084745762711864,13.826948148148148,6.101694915254237,13.6528C7.11864406779661,13.47865185185185,8.135593220338983,13.303377777777778,9.152542372881356,13.131733333333333C10.169491525423728,12.960088888888889,11.186440677966102,12.792222222222225,12.203389830508474,12.622933333333336C13.220338983050846,12.453644444444446,14.23728813559322,12.282399999999999,15.254237288135592,12.115999999999998C16.271186440677965,11.949599999999997,17.28813559322034,11.786518518518518,18.305084745762713,11.624533333333332C19.322033898305087,11.462548148148148,20.338983050847457,11.300296296296295,21.35593220338983,11.144088888888888C22.372881355932204,10.98788148148148,23.389830508474574,10.837274074074074,24.406779661016948,10.687288888888888C25.423728813559322,10.537303703703703,26.440677966101696,10.390474074074076,27.45762711864407,10.244177777777779C28.47457627118644,10.097881481481483,29.491525423728813,9.952385185185184,30.508474576271183,9.80951111111111C31.525423728813557,9.666637037037036,32.54237288135593,9.52459259259259,33.559322033898304,9.386933333333332C34.57627118644068,9.249274074074073,35.59322033898305,9.116637037037036,36.610169491525426,8.983555555555554C37.6271186440678,8.850474074074073,38.644067796610166,8.71659259259259,39.66101694915254,8.588444444444443C40.67796610169491,8.460296296296296,41.69491525423729,8.337066666666667,42.71186440677966,8.214666666666668C43.728813559322035,8.092266666666669,44.7457627118644,7.9694222222222235,45.762711864406775,7.854044444444446C46.77966101694915,7.738666666666668,47.79661016949152,7.6275259259259265,48.813559322033896,7.5224C49.83050847457627,7.417274074074074,50.847457627118644,7.31905185185185,51.86440677966102,7.223288888888888C52.88135593220339,7.127525925925926,53.898305084745765,7.037451851851853,54.91525423728814,6.947822222222224C55.93220338983051,6.858192592592595,56.94915254237288,6.771259259259262,57.96610169491525,6.685511111111113C58.983050847457626,6.599762962962965,59.99999999999999,6.515422222222225,61.01694915254237,6.433333333333335C62.03389830508474,6.351244444444446,63.05084745762712,6.272548148148148,64.0677966101695,6.192977777777777C65.08474576271186,6.113407407407407,66.10169491525424,6.033614814814815,67.11864406779661,5.955911111111112C68.13559322033899,5.878207407407408,69.15254237288136,5.801911111111112,70.16949152542374,5.726755555555556C71.1864406779661,5.6516,72.20338983050848,5.577333333333334,73.22033898305085,5.5049777777777775C74.23728813559322,5.432622222222221,75.2542372881356,5.361955555555554,76.27118644067797,5.292622222222221C77.28813559322033,5.223288888888888,78.30508474576271,5.154992592592593,79.32203389830508,5.088977777777779C80.33898305084746,5.022962962962964,81.35593220338983,4.958370370370372,82.37288135593221,4.896533333333335C83.38983050847457,4.834696296296298,84.40677966101696,4.773481481481482,85.42372881355932,4.717955555555555C86.4406779661017,4.662429629629629,87.45762711864407,4.614044444444444,88.47457627118645,4.563377777777777C89.49152542372882,4.512711111111111,90.50847457627118,4.462325925925928,91.52542372881355,4.413955555555558C92.54237288135593,4.365585185185187,93.55932203389831,4.319333333333333,94.57627118644069,4.2731555555555545C95.59322033898306,4.226977777777776,96.61016949152543,4.181599999999999,97.62711864406779,4.136888888888888C98.64406779661016,4.092177777777777,99.66101694915254,4.0488,100.6779661016949,4.004888888888889C101.69491525423729,3.960977777777778,102.71186440677965,3.917155555555556,103.72881355932203,3.8734222222222225C104.7457627118644,3.829688888888889,105.76271186440678,3.785377777777777,106.77966101694915,3.7424888888888885C107.79661016949153,3.6995999999999998,108.8135593220339,3.657288888888891,109.83050847457628,3.616088888888891C110.84745762711864,3.5748888888888914,111.86440677966102,3.5354074074074084,112.88135593220339,3.49528888888889C113.89830508474576,3.4551703703703716,114.91525423728814,3.4149777777777794,115.9322033898305,3.3753777777777794C116.94915254237289,3.335777777777779,117.96610169491525,3.296237037037036,118.98305084745763,3.2576888888888877C120,3.2191407407407397,121.01694915254237,3.1812740740740746,122.03389830508473,3.1440888888888896C123.05084745762711,3.106903703703704,124.0677966101695,3.0700592592592577,125.08474576271188,3.034577777777776C126.10169491525424,2.999096296296295,127.11864406779662,2.9655555555555564,128.135593220339,2.9312000000000005C129.15254237288136,2.896844444444445,130.16949152542372,2.861999999999998,131.1864406779661,2.8284444444444423C132.20338983050846,2.7948888888888868,133.22033898305085,2.7623703703703706,134.23728813559322,2.729866666666667C135.25423728813558,2.6973629629629636,136.27118644067798,2.665155555555555,137.28813559322035,2.6334222222222214C138.3050847457627,2.601688888888888,139.3220338983051,2.5707851851851866,140.33898305084747,2.5394666666666676C141.35593220338984,2.508148148148149,142.3728813559322,2.4769481481481463,143.38983050847457,2.4455111111111094C144.40677966101694,2.414074074074072,145.42372881355934,2.3821185185185185,146.4406779661017,2.3508444444444443C147.45762711864407,2.3195703703703705,148.47457627118644,2.288948148148147,149.4915254237288,2.257866666666666C150.50847457627117,2.226785185185184,151.52542372881356,2.1955111111111103,152.54237288135593,2.164355555555555C153.5593220338983,2.1331999999999995,154.5762711864407,2.1019703703703705,155.59322033898306,2.0709333333333335C156.61016949152543,2.039896296296297,157.6271186440678,2.009348148148149,158.64406779661016,1.978133333333334C159.66101694915253,1.9469185185185187,160.67796610169492,1.9152444444444432,161.6949152542373,1.8836444444444433C162.71186440677965,1.8520444444444435,163.72881355932205,1.820444444444446,164.74576271186442,1.7885333333333353C165.76271186440678,1.7566222222222247,166.77966101694915,1.7246962962962982,167.79661016949152,1.6921777777777791C168.81355932203388,1.6596592592592598,169.83050847457628,1.626133333333332,170.84745762711864,1.5934222222222205C171.864406779661,1.560711111111109,172.8813559322034,1.5286814814814804,173.89830508474577,1.49591111111111C174.91525423728814,1.4631407407407397,175.93220338983053,1.4276592592592576,176.9491525423729,1.396799999999998C177.96610169491527,1.365940740740739,178.98305084745763,1.3383481481481463,180,1.310755555555554"></path><path class="axis-ceiling" stroke-width="1" stroke="black" fill="none" d="M175,0L180,0"></path><text class="axis-ceiling-label" font-family="sans-serif" text-anchor="end" font-size="10px" x="170" y="2.5">450000</text></g></svg>