<svg xmlns="http://www.w3.org/2000/svg" viewBox="0 0 180 60"><g transform="translate(0,20)"><path class="area" fill="rgba(0, 0, 0, 0.2)" d="M0,26.559999999999995C1.0344827586206897,26.546,2.068965517241379,26.532,3.103448275862069,26.532C4.137931034482759,26.532,5.172413793103448,27.484,6.206896551724138,27.484C7.241379310344827,27.484,8.275862068965516,25.482666666666663,9.310344827586206,25.4C10.344827586206897,25.317333333333334,11.379310344827585,25.276,12.413793103448276,25.276C13.448275862068966,25.276,14.482758620689655,26.025333333333336,15.517241379310345,26.036C16.551724137931036,26.046666666666667,17.586206896551722,26.052,18.620689655172413,26.052C19.655172413793103,26.052,20.689655172413794,23.28,21.724137931034484,23.28C22.758620689655174,23.28,23.79310344827586,23.746666666666666,24.82758620689655,23.976C25.862068965517242,24.205333333333332,26.896551724137932,24.49666666666667,27.931034482758623,24.656000000000002C28.965517241379313,24.815333333333335,30,24.932,31.03448275862069,24.932C32.06896551724138,24.932,33.103448275862064,23.56,34.137931034482754,23.56C35.172413793103445,23.56,36.206896551724135,25.10799999999999,37.241379310344826,25.507999999999996C38.275862068965516,25.908,39.310344827586206,26.108000000000004,40.3448275862069,26.108000000000004C41.37931034482759,26.108000000000004,42.41379310344828,18.996,43.44827586206897,18.996C44.48275862068966,18.996,45.51724137931035,23.567999999999998,46.55172413793104,23.567999999999998C47.58620689655173,23.567999999999998,48.62068965517241,23.50933333333333,49.6551724137931,23.392C50.689655172413794,23.27466666666667,51.72413793103448,21.7,52.75862068965517,21.7C53.79310344827586,21.7,54.827586206896555,22.279999999999998,55.862068965517246,22.279999999999998C56.896551724137936,22.279999999999998,57.93103448275862,19.05466666666667,58.96551724137931,18.580000000000002C60,18.105333333333334,61.03448275862069,17.868,62.06896551724138,17.868C63.10344827586207,17.868,64.13793103448276,18.570666666666668,65.17241379310344,18.704C66.20689655172413,18.837333333333333,67.24137931034483,18.776666666666667,68.27586206896551,18.904C69.3103448275862,19.031333333333333,70.34482758620689,19.468,71.37931034482759,19.468C72.41379310344827,19.468,73.44827586206897,11.284,74.48275862068965,11.284C75.51724137931033,11.284,76.55172413793103,12.452666666666667,77.58620689655172,13.079999999999998C78.62068965517241,13.707333333333333,79.6551724137931,15.047999999999998,80.6896551724138,15.047999999999998C81.72413793103448,15.047999999999998,82.75862068965517,14.986666666666666,83.79310344827586,14.864C84.82758620689656,14.741333333333335,85.86206896551724,12.344,86.89655172413794,12.344C87.93103448275862,12.344,88.96551724137932,17.676,90,17.676C91.0344827586207,17.676,92.06896551724138,16.863999999999997,93.10344827586208,16.863999999999997C94.13793103448276,16.863999999999997,95.17241379310344,18.366666666666667,96.20689655172413,18.919999999999998C97.24137931034483,19.473333333333336,98.27586206896551,20.183999999999997,99.3103448275862,20.183999999999997C100.3448275862069,20.183999999999997,101.37931034482759,19.556,102.41379310344828,19.556C103.44827586206897,19.556,104.48275862068965,21.959999999999997,105.51724137931033,21.959999999999997C106.55172413793103,21.959999999999997,107.58620689655172,11.16,108.62068965517241,11.16C109.65517241379311,11.16,110.6896551724138,18.746666666666655,111.72413793103449,20.68C112.75862068965517,22.613333333333333,113.79310344827587,23.580000000000002,114.82758620689656,23.580000000000002C115.86206896551724,23.580000000000002,116.89655172413794,21.024,117.93103448275862,21.024C118.96551724137932,21.024,120,21.024,121.0344827586207,21.024C122.06896551724138,21.024,123.10344827586208,18.967999999999996,124.13793103448276,18.967999999999996C125.17241379310344,18.967999999999996,126.20689655172414,22.452,127.24137931034483,22.452C128.27586206896552,22.452,129.3103448275862,21.075999999999997,130.3448275862069,21.075999999999997C131.3793103448276,21.075999999999997,132.41379310344828,23.789333333333325,133.44827586206898,24.863999999999997C134.48275862068965,25.938666666666652,135.51724137931035,27.523999999999997,136.55172413793102,27.523999999999997C137.58620689655172,27.523999999999997,138.6206896551724,25.76266666666667,139.6551724137931,25.712000000000003C140.6896551724138,25.661333333333335,141.72413793103448,25.68666666666667,142.75862068965517,25.636000000000003C143.79310344827587,25.585333333333335,144.82758620689654,23.700000000000003,145.86206896551724,23.700000000000003C146.89655172413794,23.700000000000003,147.9310344827586,26.488,148.9655172413793,26.488C150,26.488,151.0344827586207,25.823999999999998,152.0689655172414,25.823999999999998C153.10344827586206,25.823999999999998,154.13793103448276,27.744,155.17241379310343,28.296C156.20689655172413,28.84800000000001,157.24137931034483,29.135999999999996,158.27586206896552,29.135999999999996C159.31034482758622,29.135999999999996,160.3448275862069,28.930666666666664,161.3793103448276,28.520000000000003C162.41379310344828,28.109333333333343,163.44827586206895,25.5,164.48275862068965,25.5C165.51724137931035,25.5,166.55172413793102,26.25200000000001,167.58620689655172,26.912000000000003C168.6206896551724,27.572000000000003,169.6551724137931,29.459999999999997,170.6896551724138,29.459999999999997C171.7241379310345,29.459999999999997,172.75862068965517,25.668,173.79310344827587,25.668C174.82758620689657,25.668,175.86206896551724,30.13066666666667,176.89655172413794,31.200000000000003C177.93103448275863,32.269333333333336,178.9655172413793,32.53666666666667,180,32.804L180,40C178.9655172413793,40,177.93103448275863,40,176.89655172413794,40C175.86206896551724,40,174.82758620689657,40,173.79310344827587,40C172.75862068965517,40,171.7241379310345,40,170.6896551724138,40C169.6551724137931,40,168.6206896551724,40,167.58620689655172,40C166.55172413793102,40,165.51724137931035,40,164.48275862068965,40C163.44827586206895,40,162.41379310344828,40,161.3793103448276,40C160.3448275862069,40,159.31034482758622,40,158.27586206896552,40C157.24137931034483,40,156.20689655172413,40,155.17241379310343,40C154.13793103448276,40,153.10344827586206,40,152.0689655172414,40C151.0344827586207,40,150,40,148.9655172413793,40C147.9310344827586,40,146.89655172413794,40,145.86206896551724,40C144.82758620689654,40,143.79310344827587,40,142.75862068965517,40C141.72413793103448,40,140.6896551724138,40,139.6551724137931,40C138.6206896551724,40,137.58620689655172,40,136.55172413793102,40C135.51724137931035,40,134.48275862068965,40,133.44827586206898,40C132.41379310344828,40,131.3793103448276,40,130.3448275862069,40C129.3103448275862,40,128.27586206896552,40,127.24137931034483,40C126.20689655172414,40,125.17241379310344,40,124.13793103448276,40C123.10344827586208,40,122.06896551724138,40,121.0344827586207,40C120,40,118.96551724137932,40,117.93103448275862,40C116.89655172413794,40,115.86206896551724,40,114.82758620689656,40C113.79310344827587,40,112.75862068965517,40,111.72413793103449,40C110.6896551724138,40,109.65517241379311,40,108.62068965517241,40C107.58620689655172,40,106.55172413793103,40,105.51724137931033,40C104.48275862068965,40,103.44827586206897,40,102.41379310344828,40C101.37931034482759,40,100.3448275862069,40,99.3103448275862,40C98.27586206896551,40,97.24137931034483,40,96.20689655172413,40C95.17241379310344,40,94.13793103448276,40,93.10344827586208,40C92.06896551724138,40,91.0344827586207,40,90,40C88.96551724137932,40,87.93103448275862,40,86.89655172413794,40C85.86206896551724,40,84.82758620689656,40,83.79310344827586,40C82.75862068965517,40,81.72413793103448,40,80.6896551724138,40C79.6551724137931,40,78.62068965517241,40,77.58620689655172,40C76.55172413793103,40,75.51724137931033,40,74.48275862068965,40C73.44827586206897,40,72.41379310344827,40,71.37931034482759,40C70.34482758620689,40,69.3103448275862,40,68.27586206896551,40C67.24137931034483,40,66.20689655172413,40,65.17241379310344,40C64.13793103448276,40,63.10344827586207,40,62.06896551724138,40C61.03448275862069,40,60,40,58.96551724137931,40C57.93103448275862,40,56.896551724137936,40,55.862068965517246,40C54.827586206896555,40,53.79310344827586,40,52.75862068965517,40C51.72413793103448,40,50.689655172413794,40,49.6551724137931,40C48.62068965517241,40,47.58620689655173,40,46.55172413793104,40C45.51724137931035,40,44.48275862068966,40,43.44827586206897,40C42.41379310344828,40,41.37931034482759,40,40.3448275862069,40C39.310344827586206,40,38.275862068965516,40,37.241379310344826,40C36.206896551724135,40,35.172413793103445,40,34.137931034482754,40C33.103448275862064,40,32.06896551724138,40,31.03448275862069,40C30,40,28.965517241379313,40,27.931034482758623,40C26.896551724137932,40,25.862068965517242,40,24.82758620689655,40C23.79310344827586,40,22.758620689655174,40,21.724137931034484,40C20.689655172413794,40,19.655172413793103,40,18.620689655172413,40C17.586206896551722,40,16.551724137931036,40,15.517241379310345,40C14.482758620689655,40,13.448275862068966,40,12.413793103448276,40C11.379310344827585,40,10.344827586206897,40,9.310344827586206,40C8.275862068965516,40,7.241379310344827,40,6.206896551724138,40C5.172413793103448,40,4.137931034482759,40,3.103448275862069,40C2.068965517241379,40,1.0344827586206897,40,0,40Z"></path><path class="line" stroke="black" fill="none" d="M0,26.559999999999995C1.0344827586206897,26.546,2.068965517241379,26.532,3.103448275862069,26.532C4.137931034482759,26.532,5.172413793103448,27.484,6.206896551724138,27.484C7.241379310344827,27.484,8.275862068965516,25.482666666666663,9.310344827586206,25.4C10.344827586206897,25.317333333333334,11.379310344827585,25.276,12.413793103448276,25.276C13.448275862068966,25.276,14.482758620689655,26.025333333333336,15.517241379310345,26.036C16.551724137931036,26.046666666666667,17.586206896551722,26.052,18.620689655172413,26.052C19.655172413793103,26.052,20.689655172413794,23.28,21.724137931034484,23.28C22.758620689655174,23.28,23.79310344827586,23.746666666666666,24.82758620689655,23.976C25.862068965517242,24.205333333333332,26.896551724137932,24.49666666666667,27.931034482758623,24.656000000000002C28.965517241379313,24.815333333333335,30,24.932,31.03448275862069,24.932C32.06896551724138,24.932,33.103448275862064,23.56,34.137931034482754,23.56C35.172413793103445,23.56,36.206896551724135,25.10799999999999,37.241379310344826,25.507999999999996C38.275862068965516,25.908,39.310344827586206,26.108000000000004,40.3448275862069,26.108000000000004C41.37931034482759,26.108000000000004,42.41379310344828,18.996,43.44827586206897,18.996C44.48275862068966,18.996,45.51724137931035,23.567999999999998,46.55172413793104,23.567999999999998C47.58620689655173,23.567999999999998,48.62068965517241,23.50933333333333,49.6551724137931,23.392C50.689655172413794,23.27466666666667,51.72413793103448,21.7,52.75862068965517,21.7C53.79310344827586,21.7,54.827586206896555,22.279999999999998,55.862068965517246,22.279999999999998C56.896551724137936,22.279999999999998,57.93103448275862,19.05466666666667,58.96551724137931,18.580000000000002C60,18.105333333333334,61.03448275862069,17.868,62.06896551724138,17.868C63.10344827586207,17.868,64.13793103448276,18.570666666666668,65.17241379310344,18.704C66.20689655172413,18.837333333333333,67.24137931034483,18.776666666666667,68.27586206896551,18.904C69.3103448275862,19.031333333333333,70.34482758620689,19.468,71.37931034482759,19.468C72.41379310344827,19.468,73.44827586206897,11.284,74.48275862068965,11.284C75.51724137931033,11.284,76.55172413793103,12.452666666666667,77.58620689655172,13.079999999999998C78.62068965517241,13.707333333333333,79.6551724137931,15.047999999999998,80.6896551724138,15.047999999999998C81.72413793103448,15.047999999999998,82.75862068965517,14.986666666666666,83.79310344827586,14.864C84.82758620689656,14.741333333333335,85.86206896551724,12.344,86.89655172413794,12.344C87.93103448275862,12.344,88.96551724137932,17.676,90,17.676C91.0344827586207,17.676,92.06896551724138,16.863999999999997,93.10344827586208,16.863999999999997C94.13793103448276,16.863999999999997,95.17241379310344,18.366666666666667,96.20689655172413,18.919999999999998C97.24137931034483,19.473333333333336,98.27586206896551,20.183999999999997,99.3103448275862,20.183999999999997C100.3448275862069,20.183999999999997,101.37931034482759,19.556,102.41379310344828,19.556C103.44827586206897,19.556,104.48275862068965,21.959999999999997,105.51724137931033,21.959999999999997C106.55172413793103,21.959999999999997,107.58620689655172,11.16,108.62068965517241,11.16C109.65517241379311,11.16,110.6896551724138,18.746666666666655,111.72413793103449,20.68C112.75862068965517,22.613333333333333,113.79310344827587,23.580000000000002,114.82758620689656,23.580000000000002C115.86206896551724,23.580000000000002,116.89655172413794,21.024,117.93103448275862,21.024C118.96551724137932,21.024,120,21.024,121.0344827586207,21.024C122.06896551724138,21.024,123.10344827586208,18.967999999999996,124.13793103448276,18.967999999999996C125.17241379310344,18.967999999999996,126.20689655172414,22.452,127.24137931034483,22.452C128.27586206896552,22.452,129.3103448275862,21.075999999999997,130.3448275862069,21.075999999999997C131.3793103448276,21.075999999999997,132.41379310344828,23.789333333333325,133.44827586206898,24.863999999999997C134.48275862068965,25.938666666666652,135.51724137931035,27.523999999999997,136.55172413793102,27.523999999999997C137.58620689655172,27.523999999999997,138.6206896551724,25.76266666666667,139.6551724137931,25.712000000000003C140.6896551724138,25.661333333333335,141.72413793103448,25.68666666666667,142.75862068965517,25.636000000000003C143.79310344827587,25.585333333333335,144.82758620689654,23.700000000000003,145.86206896551724,23.700000000000003C146.89655172413794,23.700000000000003,147.9310344827586,26.488,148.9655172413793,26.488C150,26.488,151.0344827586207,25.823999999999998,152.0689655172414,25.823999999999998C153.10344827586206,25.823999999999998,154.13793103448276,27.744,155.17241379310343,28.296C156.20689655172413,28.84800000000001,157.24137931034483,29.135999999999996,158.27586206896552,29.135999999999996C159.31034482758622,29.135999999999996,160.3448275862069,28.930666666666664,161.3793103448276,28.520000000000003C162.41379310344828,28.109333333333343,163.44827586206895,25.5,164.48275862068965,25.5C165.51724137931035,25.5,166.55172413793102,26.25200000000001,167.58620689655172,26.912000000000003C168.6206896551724,27.572000000000003,169.6551724137931,29.459999999999997,170.6896551724138,29.459999999999997C171.7241379310345,29.459999999999997,172.75862068965517,25.668,173.79310344827587,25.668C174.82758620689657,25.668,175.86206896551724,30.13066666666667,176.89655172413794,31.200000000000003C177.93103448275863,32.269333333333336,178.9655172413793,32.53666666666667,180,32.804"></path><path class="axis-ceiling" stroke-width="1" stroke="black" fill="none" d="M175,0L180,0"></path><text class="axis-ceiling-label" font-family="sans-serif" text-anchor="end" font-size="10px" x="170" y="2.5">10000</text></g></svg>