<svg xmlns="http://www.w3.org/2000/svg" viewBox="0 0 180 60"><g transform="translate(0,20)"><path class="area" fill="rgba(0, 0, 0, 0.2)" d="M0,29.05658108351873C1.0169491525423728,28.986430962259234,2.0338983050847457,28.91628084099974,3.0508474576271185,28.635680355961757C4.067796610169491,28.355079870923774,5.084745762711864,27.471589200889905,6.101694915254237,27.108412001683604C7.11864406779661,26.745234802477302,8.135593220338983,26.89114705469705,9.152542372881356,26.456617160723948C10.169491525423728,26.022087266750844,11.186440677966102,23.813360591666168,12.203389830508474,22.94750766640611C13.220338983050846,22.081654741146053,14.23728813559322,21.712865532238993,15.254237288135592,21.26149960916361C16.271186440677965,20.81013368608823,17.28813559322034,20.514701461126815,18.305084745762713,20.239312127953824C19.322033898305087,19.963922794780835,20.338983050847457,19.81640711121801,21.35593220338983,19.60916361012567C22.372881355932204,19.40192010903333,23.389830508474574,19.40472611388371,24.406779661016948,18.995851121399795C25.423728813559322,18.58697612891588,26.440677966101696,16.603531557533124,27.45762711864407,16.374240875473514C28.47457627118644,16.144950193413905,29.491525423728813,16.25959553444371,30.508474576271183,16.030304852384102C31.525423728813557,15.801014170324493,32.54237288135593,15.224580602489327,33.559322033898304,14.77241296374241C34.57627118644068,14.320245324995492,35.59322033898305,13.678471929930051,36.610169491525426,13.317299019902592C37.6271186440678,12.956126109875134,38.644067796610166,12.752891187140483,39.66101694915254,12.605375503577658C40.67796610169491,12.457859820014834,41.69491525423729,12.531617661796245,42.71186440677966,12.38410197823342C43.728813559322035,12.236586294670596,44.7457627118644,11.989657867837169,45.762711864406775,11.693824785039983C46.77966101694915,11.397991702242797,47.79661016949152,10.900927985889805,48.813559322033896,10.609103481450305C49.83050847457627,10.317278977010805,50.847457627118644,10.181388170685267,51.86440677966102,9.942877758402982C52.88135593220339,9.704367346120698,53.898305084745765,9.408534263323515,54.91525423728814,9.178041007756601C55.93220338983051,8.947547752189688,56.94915254237288,8.651313811556728,57.96610169491525,8.559918225001502C58.983050847457626,8.468522638446276,59.99999999999999,8.514220431723889,61.01694915254237,8.422824845168662C62.03389830508474,8.331429258613436,63.05084745762712,8.102940292225362,64.0677966101695,7.932174854187961C65.08474576271186,7.761409416150562,66.10169491525424,7.584631110576635,67.11864406779661,7.398232216944263C68.13559322033899,7.21183332331189,69.15254237288136,6.981340067744977,70.16949152542374,6.8137814923937245C71.1864406779661,6.646222917042473,72.20338983050848,6.512336399895777,73.22033898305085,6.39288076483675C74.23728813559322,6.273425129777723,75.2542372881356,6.1932535626240135,76.27118644067797,6.0970476820395625C77.28813559322033,6.0008418014551115,78.30508474576271,5.8841921712464655,79.32203389830508,5.815645481330045C80.33898305084746,5.747098791413624,81.35593220338983,5.737478203355181,82.37288135593221,5.685767542541038C83.38983050847457,5.634056881726896,84.40677966101696,5.583949652255826,85.42372881355932,5.505381516445191C86.4406779661017,5.426813380634556,87.45762711864407,5.311767181768985,88.47457627118645,5.2143587276772285C89.49152542372882,5.116950273585473,90.50847457627118,5.016735814643335,91.52542372881355,4.920930791894653C92.54237288135593,4.825125769145971,93.55932203389831,4.719700158338845,94.57627118644069,4.639528591185136C95.59322033898306,4.559357024031428,96.61016949152543,4.518870382618806,97.62711864406779,4.439901388972403C98.64406779661016,4.3609323953259995,99.66101694915254,4.210610706912797,100.6779661016949,4.165714629306718C101.69491525423729,4.12081855170064,102.71186440677965,4.132042571102159,103.72881355932203,4.0983705128976C104.7457627118644,4.064698454693041,105.76271186440678,4.010181789028519,106.77966101694915,3.963682280079368C107.79661016949153,3.917182771130217,108.8135593220339,3.8827089972541255,109.83050847457628,3.819373459202695C110.84745762711864,3.756037921151265,111.86440677966102,3.653418315194515,112.88135593220339,3.583669051770788C113.89830508474576,3.513919788347061,114.91525423728814,3.4465756719379472,115.9322033898305,3.4008778786603333C116.94915254237289,3.355180085382719,117.96610169491525,3.3539775118754127,118.98305084745763,3.3094822921051037C120,3.264987072334795,121.01694915254237,3.215681558535264,122.03389830508473,3.133906560038482C123.05084745762711,3.052131561541699,124.0677966101695,2.8933918585773566,125.08474576271188,2.8188323011244076C126.10169491525424,2.744272743671459,127.11864406779662,2.7298418615837914,128.135593220339,2.686549215320788C129.15254237288136,2.6432565690577854,130.16949152542372,2.634036838835107,131.1864406779661,2.559076423546389C132.20338983050846,2.4841160082576708,133.22033898305085,2.3113462810414265,134.23728813559322,2.2367867235884775C135.25423728813558,2.1622271661355286,136.27118644067798,2.19509750866855,137.28813559322035,2.1117190788286955C138.3050847457627,2.028340648988841,139.3220338983051,1.78822680536348,140.33898305084747,1.6860080572425007C141.35593220338984,1.5837893091215225,142.3728813559322,1.5573326919607968,143.38983050847457,1.498406590102821C144.40677966101694,1.4394804882448446,145.42372881355934,1.3725372296714993,146.4406779661017,1.3324514460946446C147.45762711864407,1.2923656625177904,148.47457627118644,1.280339927444732,149.4915254237288,1.2578918886416934C150.50847457627117,1.2354438498386546,151.52542372881356,1.2378489968532664,152.54237288135593,1.1977632132764127C153.5593220338983,1.157677429699559,154.5762711864407,1.0598681177720317,155.59322033898306,1.0077565991221205C156.61016949152543,0.9556450804722098,157.6271186440678,0.9283867476399486,158.64406779661016,0.8850941013769464C159.66101694915253,0.8418014551139439,160.67796610169492,0.7997113823582488,161.6949152542373,0.7480007215441065C162.71186440677965,0.6962900607299641,163.72881355932205,0.6277433708135415,164.74576271186442,0.5748301364920927C165.76271186440678,0.5219169021706445,166.77966101694915,0.47581825105726044,167.79661016949152,0.4305213156154153C168.81355932203388,0.38522438017356975,169.83050847457628,0.3451385965967176,170.84745762711864,0.30304852384102077C171.864406779661,0.26095845108532395,172.8813559322034,0.2284889663880711,173.89830508474577,0.17798087908123428C174.91525423728814,0.12747279177439746,175.93220338983053,0,176.9491525423729,0C177.96610169491527,0,178.98305084745763,0,180,0L180,40C178.98305084745763,40,177.96610169491527,40,176.9491525423729,40C175.93220338983053,40,174.91525423728814,40,173.89830508474577,40C172.8813559322034,40,171.864406779661,40,170.84745762711864,40C169.83050847457628,40,168.81355932203388,40,167.79661016949152,40C166.77966101694915,40,165.76271186440678,40,164.74576271186442,40C163.72881355932205,40,162.71186440677965,40,161.6949152542373,40C160.67796610169492,40,159.66101694915253,40,158.64406779661016,40C157.6271186440678,40,156.61016949152543,40,155.59322033898306,40C154.5762711864407,40,153.5593220338983,40,152.54237288135593,40C151.52542372881356,40,150.50847457627117,40,149.4915254237288,40C148.47457627118644,40,147.45762711864407,40,146.4406779661017,40C145.42372881355934,40,144.40677966101694,40,143.38983050847457,40C142.3728813559322,40,141.35593220338984,40,140.33898305084747,40C139.3220338983051,40,138.3050847457627,40,137.28813559322035,40C136.27118644067798,40,135.25423728813558,40,134.23728813559322,40C133.22033898305085,40,132.20338983050846,40,131.1864406779661,40C130.16949152542372,40,129.15254237288136,40,128.135593220339,40C127.11864406779662,40,126.10169491525424,40,125.08474576271188,40C124.0677966101695,40,123.05084745762711,40,122.03389830508473,40C121.01694915254237,40,120,40,118.98305084745763,40C117.96610169491525,40,116.94915254237289,40,115.9322033898305,40C114.91525423728814,40,113.89830508474576,40,112.88135593220339,40C111.86440677966102,40,110.84745762711864,40,109.83050847457628,40C108.8135593220339,40,107.79661016949153,40,106.77966101694915,40C105.76271186440678,40,104.7457627118644,40,103.72881355932203,40C102.71186440677965,40,101.69491525423729,40,100.6779661016949,40C99.66101694915254,40,98.64406779661016,40,97.62711864406779,40C96.61016949152543,40,95.59322033898306,40,94.57627118644069,40C93.55932203389831,40,92.54237288135593,40,91.52542372881355,40C90.50847457627118,40,89.49152542372882,40,88.47457627118645,40C87.45762711864407,40,86.4406779661017,40,85.42372881355932,40C84.40677966101696,40,83.38983050847457,40,82.37288135593221,40C81.35593220338983,40,80.33898305084746,40,79.32203389830508,40C78.30508474576271,40,77.28813559322033,40,76.27118644067797,40C75.2542372881356,40,74.23728813559322,40,73.22033898305085,40C72.20338983050848,40,71.1864406779661,40,70.16949152542374,40C69.15254237288136,40,68.13559322033899,40,67.11864406779661,40C66.10169491525424,40,65.08474576271186,40,64.0677966101695,40C63.05084745762712,40,62.03389830508474,40,61.01694915254237,40C59.99999999999999,40,58.983050847457626,40,57.96610169491525,40C56.94915254237288,40,55.93220338983051,40,54.91525423728814,40C53.898305084745765,40,52.88135593220339,40,51.86440677966102,40C50.847457627118644,40,49.83050847457627,40,48.813559322033896,40C47.79661016949152,40,46.77966101694915,40,45.762711864406775,40C44.7457627118644,40,43.728813559322035,40,42.71186440677966,40C41.69491525423729,40,40.67796610169491,40,39.66101694915254,40C38.644067796610166,40,37.6271186440678,40,36.610169491525426,40C35.59322033898305,40,34.57627118644068,40,33.559322033898304,40C32.54237288135593,40,31.525423728813557,40,30.508474576271183,40C29.491525423728813,40,28.47457627118644,40,27.45762711864407,40C26.440677966101696,40,25.423728813559322,40,24.406779661016948,40C23.389830508474574,40,22.372881355932204,40,21.35593220338983,40C20.338983050847457,40,19.322033898305087,40,18.305084745762713,40C17.28813559322034,40,16.271186440677965,40,15.254237288135592,40C14.23728813559322,40,13.220338983050846,40,12.203389830508474,40C11.186440677966102,40,10.169491525423728,40,9.152542372881356,40C8.135593220338983,40,7.11864406779661,40,6.101694915254237,40C5.084745762711864,40,4.067796610169491,40,3.0508474576271185,40C2.0338983050847457,40,1.0169491525423728,40,0,40Z"></path><path class="line" stroke="black" fill="none" d="M0,29.05658108351873C1.0169491525423728,28.986430962259234,2.0338983050847457,28.91628084099974,3.0508474576271185,28.635680355961757C4.067796610169491,28.355079870923774,5.084745762711864,27.471589200889905,6.101694915254237,27.108412001683604C7.11864406779661,26.745234802477302,8.135593220338983,26.89114705469705,9.152542372881356,26.456617160723948C10.169491525423728,26.022087266750844,11.186440677966102,23.813360591666168,12.203389830508474,22.94750766640611C13.220338983050846,22.081654741146053,14.23728813559322,21.712865532238993,15.254237288135592,21.26149960916361C16.271186440677965,20.81013368608823,17.28813559322034,20.514701461126815,18.305084745762713,20.239312127953824C19.322033898305087,19.963922794780835,20.338983050847457,19.81640711121801,21.35593220338983,19.60916361012567C22.372881355932204,19.40192010903333,23.389830508474574,19.40472611388371,24.406779661016948,18.995851121399795C25.423728813559322,18.58697612891588,26.440677966101696,16.603531557533124,27.45762711864407,16.374240875473514C28.47457627118644,16.144950193413905,29.491525423728813,16.25959553444371,30.508474576271183,16.030304852384102C31.525423728813557,15.801014170324493,32.54237288135593,15.224580602489327,33.559322033898304,14.77241296374241C34.57627118644068,14.320245324995492,35.59322033898305,13.678471929930051,36.610169491525426,13.317299019902592C37.6271186440678,12.956126109875134,38.644067796610166,12.752891187140483,39.66101694915254,12.605375503577658C40.67796610169491,12.457859820014834,41.69491525423729,12.531617661796245,42.71186440677966,12.38410197823342C43.728813559322035,12.236586294670596,44.7457627118644,11.989657867837169,45.762711864406775,11.693824785039983C46.77966101694915,11.397991702242797,47.79661016949152,10.900927985889805,48.813559322033896,10.609103481450305C49.83050847457627,10.317278977010805,50.847457627118644,10.181388170685267,51.86440677966102,9.942877758402982C52.88135593220339,9.704367346120698,53.898305084745765,9.408534263323515,54.91525423728814,9.178041007756601C55.93220338983051,8.947547752189688,56.94915254237288,8.651313811556728,57.96610169491525,8.559918225001502C58.983050847457626,8.468522638446276,59.99999999999999,8.514220431723889,61.01694915254237,8.422824845168662C62.03389830508474,8.331429258613436,63.05084745762712,8.102940292225362,64.0677966101695,7.932174854187961C65.08474576271186,7.761409416150562,66.10169491525424,7.584631110576635,67.11864406779661,7.398232216944263C68.13559322033899,7.21183332331189,69.15254237288136,6.981340067744977,70.16949152542374,6.8137814923937245C71.1864406779661,6.646222917042473,72.20338983050848,6.512336399895777,73.22033898305085,6.39288076483675C74.23728813559322,6.273425129777723,75.2542372881356,6.1932535626240135,76.27118644067797,6.0970476820395625C77.28813559322033,6.0008418014551115,78.30508474576271,5.8841921712464655,79.32203389830508,5.815645481330045C80.33898305084746,5.747098791413624,81.35593220338983,5.737478203355181,82.37288135593221,5.685767542541038C83.38983050847457,5.634056881726896,84.40677966101696,5.583949652255826,85.42372881355932,5.505381516445191C86.4406779661017,5.426813380634556,87.45762711864407,5.311767181768985,88.47457627118645,5.2143587276772285C89.49152542372882,5.116950273585473,90.50847457627118,5.016735814643335,91.52542372881355,4.920930791894653C92.54237288135593,4.825125769145971,93.55932203389831,4.719700158338845,94.57627118644069,4.639528591185136C95.59322033898306,4.559357024031428,96.61016949152543,4.518870382618806,97.62711864406779,4.439901388972403C98.64406779661016,4.3609323953259995,99.66101694915254,4.210610706912797,100.6779661016949,4.165714629306718C101.69491525423729,4.12081855170064,102.71186440677965,4.132042571102159,103.72881355932203,4.0983705128976C104.7457627118644,4.064698454693041,105.76271186440678,4.010181789028519,106.77966101694915,3.963682280079368C107.79661016949153,3.917182771130217,108.8135593220339,3.8827089972541255,109.83050847457628,3.819373459202695C110.84745762711864,3.756037921151265,111.86440677966102,3.653418315194515,112.88135593220339,3.583669051770788C113.89830508474576,3.513919788347061,114.91525423728814,3.4465756719379472,115.9322033898305,3.4008778786603333C116.94915254237289,3.355180085382719,117.96610169491525,3.3539775118754127,118.98305084745763,3.3094822921051037C120,3.264987072334795,121.01694915254237,3.215681558535264,122.03389830508473,3.133906560038482C123.05084745762711,3.052131561541699,124.0677966101695,2.8933918585773566,125.08474576271188,2.8188323011244076C126.10169491525424,2.744272743671459,127.11864406779662,2.7298418615837914,128.135593220339,2.686549215320788C129.15254237288136,2.6432565690577854,130.16949152542372,2.634036838835107,131.1864406779661,2.559076423546389C132.20338983050846,2.4841160082576708,133.22033898305085,2.3113462810414265,134.23728813559322,2.2367867235884775C135.25423728813558,2.1622271661355286,136.27118644067798,2.19509750866855,137.28813559322035,2.1117190788286955C138.3050847457627,2.028340648988841,139.3220338983051,1.78822680536348,140.33898305084747,1.6860080572425007C141.35593220338984,1.5837893091215225,142.3728813559322,1.5573326919607968,143.38983050847457,1.498406590102821C144.40677966101694,1.4394804882448446,145.42372881355934,1.3725372296714993,146.4406779661017,1.3324514460946446C147.45762711864407,1.2923656625177904,148.47457627118644,1.280339927444732,149.4915254237288,1.2578918886416934C150.50847457627117,1.2354438498386546,151.52542372881356,1.2378489968532664,152.54237288135593,1.1977632132764127C153.5593220338983,1.157677429699559,154.5762711864407,1.0598681177720317,155.59322033898306,1.0077565991221205C156.61016949152543,0.9556450804722098,157.6271186440678,0.9283867476399486,158.64406779661016,0.8850941013769464C159.66101694915253,0.8418014551139439,160.67796610169492,0.7997113823582488,161.6949152542373,0.7480007215441065C162.71186440677965,0.6962900607299641,163.72881355932205,0.6277433708135415,164.74576271186442,0.5748301364920927C165.76271186440678,0.5219169021706445,166.77966101694915,0.47581825105726044,167.79661016949152,0.4305213156154153C168.81355932203388,0.38522438017356975,169.83050847457628,0.3451385965967176,170.84745762711864,0.30304852384102077C171.864406779661,0.26095845108532395,172.8813559322034,0.2284889663880711,173.89830508474577,0.17798087908123428C174.91525423728814,0.12747279177439746,175.93220338983053,0,176.9491525423729,0C177.96610169491527,0,178.98305084745763,0,180,0"></path><path class="axis-ceiling" stroke-width="1" stroke="black" fill="none" d="M175,-11.999278455895617L180,-11.999278455895617"></path><text class="axis-ceiling-label" font-family="sans-serif" text-anchor="end" font-size="10px" x="170" y="-9.499278455895617">21620</text></g></svg>