<svg xmlns="http://www.w3.org/2000/svg" viewBox="0 0 180 60"><g transform="translate(0,20)"><path class="area" fill="rgba(0, 0, 0, 0.2)" d="M0,19.229777777777777C1.0169491525423728,19.09271111111111,2.0338983050847457,18.955644444444445,3.0508474576271185,18.802933333333335C4.067796610169491,18.650222222222226,5.084745762711864,18.46197037037037,6.101694915254237,18.31351111111111C7.11864406779661,18.165051851851853,8.135593220338983,18.042755555555555,9.152542372881356,17.912177777777778C10.169491525423728,17.7816,11.186440677966102,17.666800000000002,12.203389830508474,17.530044444444446C13.220338983050846,17.39328888888889,14.23728813559322,17.272385185185183,15.254237288135592,17.09164444444444C16.271186440677965,16.9109037037037,17.28813559322034,16.674755555555553,18.305084745762713,16.4456C19.322033898305087,16.216444444444445,20.338983050847457,15.927481481481484,21.35593220338983,15.716711111111113C22.372881355932204,15.505940740740742,23.389830508474574,15.363718518518517,24.406779661016948,15.180977777777777C25.423728813559322,14.998237037037036,26.440677966101696,14.788088888888888,27.45762711864407,14.620266666666666C28.47457627118644,14.452444444444444,29.491525423728813,14.320770370370369,30.508474576271183,14.174044444444442C31.525423728813557,14.027318518518516,32.54237288135593,13.902844444444446,33.559322033898304,13.739911111111113C34.57627118644068,13.57697777777778,35.59322033898305,13.385155555555556,36.610169491525426,13.196444444444445C37.6271186440678,13.007733333333334,38.644067796610166,12.798666666666666,39.66101694915254,12.607644444444443C40.67796610169491,12.41662222222222,41.69491525423729,12.229333333333333,42.71186440677966,12.05031111111111C43.728813559322035,11.87128888888889,44.7457627118644,11.698814814814815,45.762711864406775,11.533511111111112C46.77966101694915,11.368207407407409,47.79661016949152,11.209851851851855,48.813559322033896,11.058488888888892C49.83050847457627,10.907125925925929,50.847457627118644,10.75174814814815,51.86440677966102,10.625333333333336C52.88135593220339,10.49891851851852,53.898305084745765,10.432029629629627,54.91525423728814,10.299999999999997C55.93220338983051,10.167970370370368,56.94915254237288,9.981481481481481,57.96610169491525,9.833155555555555C58.983050847457626,9.684829629629629,59.99999999999999,9.557525925925924,61.01694915254237,9.410044444444443C62.03389830508474,9.262562962962962,63.05084745762712,9.101392592592594,64.0677966101695,8.948266666666669C65.08474576271186,8.795140740740743,66.10169491525424,8.632622222222224,67.11864406779661,8.49128888888889C68.13559322033899,8.349955555555557,69.15254237288136,8.215199999999998,70.16949152542374,8.100266666666665C71.1864406779661,7.985333333333331,72.20338983050848,7.896,73.22033898305085,7.801688888888889C74.23728813559322,7.707377777777778,75.2542372881356,7.63191111111111,76.27118644067797,7.534399999999999C77.28813559322033,7.4368888888888875,78.30508474576271,7.324725925925925,79.32203389830508,7.216622222222222C80.33898305084746,7.108518518518518,81.35593220338983,6.984162962962962,82.37288135593221,6.885777777777777C83.38983050847457,6.787392592592592,84.40677966101696,6.70762962962963,85.42372881355932,6.626311111111112C86.4406779661017,6.544992592592593,87.45762711864407,6.473644444444445,88.47457627118645,6.397866666666667C89.49152542372882,6.32208888888889,90.50847457627118,6.243674074074076,91.52542372881355,6.171644444444446C92.54237288135593,6.0996148148148155,93.55932203389831,6.032770370370369,94.57627118644069,5.965688888888887C95.59322033898306,5.898607407407406,96.61016949152543,5.841066666666665,97.62711864406779,5.769155555555554C98.64406779661016,5.6972444444444434,99.66101694915254,5.624755555555555,100.6779661016949,5.534222222222223C101.69491525423729,5.4436888888888895,102.71186440677965,5.311200000000002,103.72881355932203,5.225955555555557C104.7457627118644,5.140711111111113,105.76271186440678,5.08622222222222,106.77966101694915,5.022755555555554C107.79661016949153,4.959288888888886,108.8135593220339,4.901437037037034,109.83050847457628,4.845155555555554C110.84745762711864,4.788874074074073,111.86440677966102,4.735866666666668,112.88135593220339,4.6850666666666685C113.89830508474576,4.634266666666669,114.91525423728814,4.584162962962963,115.9322033898305,4.540355555555555C116.94915254237289,4.496548148148147,117.96610169491525,4.4650074074074055,118.98305084745763,4.422222222222221C120,4.379437037037036,121.01694915254237,4.33002962962963,122.03389830508473,4.2836444444444455C123.05084745762711,4.23725925925926,124.0677966101695,4.194992592592594,125.08474576271188,4.1439111111111115C126.10169491525424,4.09282962962963,127.11864406779662,4.024607407407408,128.135593220339,3.977155555555556C129.15254237288136,3.929703703703704,130.16949152542372,3.9001333333333337,131.1864406779661,3.8592000000000004C132.20338983050846,3.8182666666666667,133.22033898305085,3.772074074074073,134.23728813559322,3.7315555555555546C135.25423728813558,3.6910370370370362,136.27118644067798,3.6543703703703723,137.28813559322035,3.616088888888891C138.3050847457627,3.5778074074074095,139.3220338983051,3.543288888888889,140.33898305084747,3.5018666666666665C141.35593220338984,3.4604444444444438,142.3728813559322,3.407999999999999,143.38983050847457,3.3675555555555547C144.40677966101694,3.32711111111111,145.42372881355934,3.2985925925925925,146.4406779661017,3.2592C147.45762711864407,3.2198074074074077,148.47457627118644,3.171051851851852,149.4915254237288,3.1312000000000006C150.50847457627117,3.091348148148149,151.52542372881356,3.0573925925925938,152.54237288135593,3.02008888888889C153.5593220338983,2.982785185185186,154.5762711864407,2.9405185185185188,155.59322033898306,2.9073777777777776C156.61016949152543,2.874237037037037,157.6271186440678,2.84994074074074,158.64406779661016,2.821244444444444C159.66101694915253,2.7925481481481476,160.67796610169492,2.7648148148148146,161.6949152542373,2.7352C162.71186440677965,2.705585185185185,163.72881355932205,2.676029629629629,164.74576271186442,2.6435555555555545C165.76271186440678,2.6110814814814804,166.77966101694915,2.5741629629629608,167.79661016949152,2.5403555555555535C168.81355932203388,2.5065481481481457,169.83050847457628,2.4732740740740713,170.84745762711864,2.440711111111109C171.864406779661,2.408148148148147,172.8813559322034,2.3767259259259275,173.89830508474577,2.344977777777779C174.91525423728814,2.313229629629631,175.93220338983053,2.25022222222222,176.9491525423729,2.25022222222222C177.96610169491527,2.25022222222222,178.98305084745763,2.25022222222222,180,2.25022222222222L180,40C178.98305084745763,40,177.96610169491527,40,176.9491525423729,40C175.93220338983053,40,174.91525423728814,40,173.89830508474577,40C172.8813559322034,40,171.864406779661,40,170.84745762711864,40C169.83050847457628,40,168.81355932203388,40,167.79661016949152,40C166.77966101694915,40,165.76271186440678,40,164.74576271186442,40C163.72881355932205,40,162.71186440677965,40,161.6949152542373,40C160.67796610169492,40,159.66101694915253,40,158.64406779661016,40C157.6271186440678,40,156.61016949152543,40,155.59322033898306,40C154.5762711864407,40,153.5593220338983,40,152.54237288135593,40C151.52542372881356,40,150.50847457627117,40,149.4915254237288,40C148.47457627118644,40,147.45762711864407,40,146.4406779661017,40C145.42372881355934,40,144.40677966101694,40,143.38983050847457,40C142.3728813559322,40,141.35593220338984,40,140.33898305084747,40C139.3220338983051,40,138.3050847457627,40,137.28813559322035,40C136.27118644067798,40,135.25423728813558,40,134.23728813559322,40C133.22033898305085,40,132.20338983050846,40,131.1864406779661,40C130.16949152542372,40,129.15254237288136,40,128.135593220339,40C127.11864406779662,40,126.10169491525424,40,125.08474576271188,40C124.0677966101695,40,123.05084745762711,40,122.03389830508473,40C121.01694915254237,40,120,40,118.98305084745763,40C117.96610169491525,40,116.94915254237289,40,115.9322033898305,40C114.91525423728814,40,113.89830508474576,40,112.88135593220339,40C111.86440677966102,40,110.84745762711864,40,109.83050847457628,40C108.8135593220339,40,107.79661016949153,40,106.77966101694915,40C105.76271186440678,40,104.7457627118644,40,103.72881355932203,40C102.71186440677965,40,101.69491525423729,40,100.6779661016949,40C99.66101694915254,40,98.64406779661016,40,97.62711864406779,40C96.61016949152543,40,95.59322033898306,40,94.57627118644069,40C93.55932203389831,40,92.54237288135593,40,91.52542372881355,40C90.50847457627118,40,89.49152542372882,40,88.47457627118645,40C87.45762711864407,40,86.4406779661017,40,85.42372881355932,40C84.40677966101696,40,83.38983050847457,40,82.37288135593221,40C81.35593220338983,40,80.33898305084746,40,79.32203389830508,40C78.30508474576271,40,77.28813559322033,40,76.27118644067797,40C75.2542372881356,40,74.23728813559322,40,73.22033898305085,40C72.20338983050848,40,71.1864406779661,40,70.16949152542374,40C69.15254237288136,40,68.13559322033899,40,67.11864406779661,40C66.10169491525424,40,65.08474576271186,40,64.0677966101695,40C63.05084745762712,40,62.03389830508474,40,61.01694915254237,40C59.99999999999999,40,58.983050847457626,40,57.96610169491525,40C56.94915254237288,40,55.93220338983051,40,54.91525423728814,40C53.898305084745765,40,52.88135593220339,40,51.86440677966102,40C50.847457627118644,40,49.83050847457627,40,48.813559322033896,40C47.79661016949152,40,46.77966101694915,40,45.762711864406775,40C44.7457627118644,40,43.728813559322035,40,42.71186440677966,40C41.69491525423729,40,40.67796610169491,40,39.66101694915254,40C38.644067796610166,40,37.6271186440678,40,36.610169491525426,40C35.59322033898305,40,34.57627118644068,40,33.559322033898304,40C32.54237288135593,40,31.525423728813557,40,30.508474576271183,40C29.491525423728813,40,28.47457627118644,40,27.45762711864407,40C26.440677966101696,40,25.423728813559322,40,24.406779661016948,40C23.389830508474574,40,22.372881355932204,40,21.35593220338983,40C20.338983050847457,40,19.322033898305087,40,18.305084745762713,40C17.28813559322034,40,16.271186440677965,40,15.254237288135592,40C14.23728813559322,40,13.220338983050846,40,12.203389830508474,40C11.186440677966102,40,10.169491525423728,40,9.152542372881356,40C8.135593220338983,40,7.11864406779661,40,6.101694915254237,40C5.084745762711864,40,4.067796610169491,40,3.0508474576271185,40C2.0338983050847457,40,1.0169491525423728,40,0,40Z"></path><path class="line" stroke="black" fill="none" d="M0,19.229777777777777C1.0169491525423728,19.09271111111111,2.0338983050847457,18.955644444444445,3.0508474576271185,18.802933333333335C4.067796610169491,18.650222222222226,5.084745762711864,18.46197037037037,6.101694915254237,18.31351111111111C7.11864406779661,18.165051851851853,8.135593220338983,18.042755555555555,9.152542372881356,17.912177777777778C10.169491525423728,17.7816,11.186440677966102,17.666800000000002,12.203389830508474,17.530044444444446C13.220338983050846,17.39328888888889,14.23728813559322,17.272385185185183,15.254237288135592,17.09164444444444C16.271186440677965,16.9109037037037,17.28813559322034,16.674755555555553,18.305084745762713,16.4456C19.322033898305087,16.216444444444445,20.338983050847457,15.927481481481484,21.35593220338983,15.716711111111113C22.372881355932204,15.505940740740742,23.389830508474574,15.363718518518517,24.406779661016948,15.180977777777777C25.423728813559322,14.998237037037036,26.440677966101696,14.788088888888888,27.45762711864407,14.620266666666666C28.47457627118644,14.452444444444444,29.491525423728813,14.320770370370369,30.508474576271183,14.174044444444442C31.525423728813557,14.027318518518516,32.54237288135593,13.902844444444446,33.559322033898304,13.739911111111113C34.57627118644068,13.57697777777778,35.59322033898305,13.385155555555556,36.610169491525426,13.196444444444445C37.6271186440678,13.007733333333334,38.644067796610166,12.798666666666666,39.66101694915254,12.607644444444443C40.67796610169491,12.41662222222222,41.69491525423729,12.229333333333333,42.71186440677966,12.05031111111111C43.728813559322035,11.87128888888889,44.7457627118644,11.698814814814815,45.762711864406775,11.533511111111112C46.77966101694915,11.368207407407409,47.79661016949152,11.209851851851855,48.813559322033896,11.058488888888892C49.83050847457627,10.907125925925929,50.847457627118644,10.75174814814815,51.86440677966102,10.625333333333336C52.88135593220339,10.49891851851852,53.898305084745765,10.432029629629627,54.91525423728814,10.299999999999997C55.93220338983051,10.167970370370368,56.94915254237288,9.981481481481481,57.96610169491525,9.833155555555555C58.983050847457626,9.684829629629629,59.99999999999999,9.557525925925924,61.01694915254237,9.410044444444443C62.03389830508474,9.262562962962962,63.05084745762712,9.101392592592594,64.0677966101695,8.948266666666669C65.08474576271186,8.795140740740743,66.10169491525424,8.632622222222224,67.11864406779661,8.49128888888889C68.13559322033899,8.349955555555557,69.15254237288136,8.215199999999998,70.16949152542374,8.100266666666665C71.1864406779661,7.985333333333331,72.20338983050848,7.896,73.22033898305085,7.801688888888889C74.23728813559322,7.707377777777778,75.2542372881356,7.63191111111111,76.27118644067797,7.534399999999999C77.28813559322033,7.4368888888888875,78.30508474576271,7.324725925925925,79.32203389830508,7.216622222222222C80.33898305084746,7.108518518518518,81.35593220338983,6.984162962962962,82.37288135593221,6.885777777777777C83.38983050847457,6.787392592592592,84.40677966101696,6.70762962962963,85.42372881355932,6.626311111111112C86.4406779661017,6.544992592592593,87.45762711864407,6.473644444444445,88.47457627118645,6.397866666666667C89.49152542372882,6.32208888888889,90.50847457627118,6.243674074074076,91.52542372881355,6.171644444444446C92.54237288135593,6.0996148148148155,93.55932203389831,6.032770370370369,94.57627118644069,5.965688888888887C95.59322033898306,5.898607407407406,96.61016949152543,5.841066666666665,97.62711864406779,5.769155555555554C98.64406779661016,5.6972444444444434,99.66101694915254,5.624755555555555,100.6779661016949,5.534222222222223C101.69491525423729,5.4436888888888895,102.71186440677965,5.311200000000002,103.72881355932203,5.225955555555557C104.7457627118644,5.140711111111113,105.76271186440678,5.08622222222222,106.77966101694915,5.022755555555554C107.79661016949153,4.959288888888886,108.8135593220339,4.901437037037034,109.83050847457628,4.845155555555554C110.84745762711864,4.788874074074073,111.86440677966102,4.735866666666668,112.88135593220339,4.6850666666666685C113.89830508474576,4.634266666666669,114.91525423728814,4.584162962962963,115.9322033898305,4.540355555555555C116.94915254237289,4.496548148148147,117.96610169491525,4.4650074074074055,118.98305084745763,4.422222222222221C120,4.379437037037036,121.01694915254237,4.33002962962963,122.03389830508473,4.2836444444444455C123.05084745762711,4.23725925925926,124.0677966101695,4.194992592592594,125.08474576271188,4.1439111111111115C126.10169491525424,4.09282962962963,127.11864406779662,4.024607407407408,128.135593220339,3.977155555555556C129.15254237288136,3.929703703703704,130.16949152542372,3.9001333333333337,131.1864406779661,3.8592000000000004C132.20338983050846,3.8182666666666667,133.22033898305085,3.772074074074073,134.23728813559322,3.7315555555555546C135.25423728813558,3.6910370370370362,136.27118644067798,3.6543703703703723,137.28813559322035,3.616088888888891C138.3050847457627,3.5778074074074095,139.3220338983051,3.543288888888889,140.33898305084747,3.5018666666666665C141.35593220338984,3.4604444444444438,142.3728813559322,3.407999999999999,143.38983050847457,3.3675555555555547C144.40677966101694,3.32711111111111,145.42372881355934,3.2985925925925925,146.4406779661017,3.2592C147.45762711864407,3.2198074074074077,148.47457627118644,3.171051851851852,149.4915254237288,3.1312000000000006C150.50847457627117,3.091348148148149,151.52542372881356,3.0573925925925938,152.54237288135593,3.02008888888889C153.5593220338983,2.982785185185186,154.5762711864407,2.9405185185185188,155.59322033898306,2.9073777777777776C156.61016949152543,2.874237037037037,157.6271186440678,2.84994074074074,158.64406779661016,2.821244444444444C159.66101694915253,2.7925481481481476,160.67796610169492,2.7648148148148146,161.6949152542373,2.7352C162.71186440677965,2.705585185185185,163.72881355932205,2.676029629629629,164.74576271186442,2.6435555555555545C165.76271186440678,2.6110814814814804,166.77966101694915,2.5741629629629608,167.79661016949152,2.5403555555555535C168.81355932203388,2.5065481481481457,169.83050847457628,2.4732740740740713,170.84745762711864,2.440711111111109C171.864406779661,2.408148148148147,172.8813559322034,2.3767259259259275,173.89830508474577,2.344977777777779C174.91525423728814,2.313229629629631,175.93220338983053,2.25022222222222,176.9491525423729,2.25022222222222C177.96610169491527,2.25022222222222,178.98305084745763,2.25022222222222,180,2.25022222222222"></path><path class="axis-ceiling" stroke-width="1" stroke="black" fill="none" d="M175,0L180,0"></path><text class="axis-ceiling-label" font-family="sans-serif" text-anchor="end" font-size="10px" x="170" y="2.5">450000</text></g></svg>