<svg xmlns="http://www.w3.org/2000/svg" viewBox="0 0 180 60"><g transform="translate(0,20)"><path class="area" fill="rgba(0, 0, 0, 0.2)" d="M0,26.944C1.0169491525423728,26.924,2.0338983050847457,26.903999999999996,3.0508474576271185,26.8864C4.067796610169491,26.8688,5.084745762711864,26.853466666666666,6.101694915254237,26.8384C7.11864406779661,26.823333333333334,8.135593220338983,26.81,9.152542372881356,26.796C10.169491525423728,26.782,11.186440677966102,26.7712,12.203389830508474,26.7544C13.220338983050846,26.7376,14.23728813559322,26.7184,15.254237288135592,26.6952C16.271186440677965,26.672,17.28813559322034,26.634,18.305084745762713,26.6152C19.322033898305087,26.596400000000003,20.338983050847457,26.6004,21.35593220338983,26.5824C22.372881355932204,26.5644,23.389830508474574,26.53213333333333,24.406779661016948,26.507199999999997C25.423728813559322,26.482266666666664,26.440677966101696,26.457333333333334,27.45762711864407,26.4328C28.47457627118644,26.408266666666666,29.491525423728813,26.381999999999998,30.508474576271183,26.36C31.525423728813557,26.337999999999997,32.54237288135593,26.3204,33.559322033898304,26.3008C34.57627118644068,26.2812,35.59322033898305,26.27,36.610169491525426,26.2424C37.6271186440678,26.2148,38.644067796610166,26.171066666666672,39.66101694915254,26.135200000000005C40.67796610169491,26.099333333333337,41.69491525423729,26.069999999999997,42.71186440677966,26.027199999999997C43.728813559322035,25.984399999999997,44.7457627118644,25.929466666666666,45.762711864406775,25.8784C46.77966101694915,25.827333333333332,47.79661016949152,25.767599999999998,48.813559322033896,25.720799999999997C49.83050847457627,25.673999999999996,50.847457627118644,25.631466666666668,51.86440677966102,25.5976C52.88135593220339,25.56373333333333,53.898305084745765,25.554799999999997,54.91525423728814,25.517599999999998C55.93220338983051,25.4804,56.94915254237288,25.433333333333334,57.96610169491525,25.3744C58.983050847457626,25.31546666666667,59.99999999999999,25.234933333333334,61.01694915254237,25.164C62.03389830508474,25.09306666666667,63.05084745762712,25.02226666666667,64.0677966101695,24.948800000000002C65.08474576271186,24.875333333333334,66.10169491525424,24.796799999999998,67.11864406779661,24.7232C68.13559322033899,24.6496,69.15254237288136,24.5712,70.16949152542374,24.5072C71.1864406779661,24.4432,72.20338983050848,24.391333333333336,73.22033898305085,24.3392C74.23728813559322,24.287066666666668,75.2542372881356,24.2716,76.27118644067797,24.194399999999998C77.28813559322033,24.117199999999997,78.30508474576271,23.995199999999997,79.32203389830508,23.875999999999998C80.33898305084746,23.7568,81.35593220338983,23.596533333333337,82.37288135593221,23.479200000000002C83.38983050847457,23.361866666666668,84.40677966101696,23.262266666666665,85.42372881355932,23.171999999999997C86.4406779661017,23.08173333333333,87.45762711864407,23.00853333333333,88.47457627118645,22.937599999999996C89.49152542372882,22.866666666666664,90.50847457627118,22.804266666666663,91.52542372881355,22.746399999999998C92.54237288135593,22.688533333333332,93.55932203389831,22.663599999999995,94.57627118644069,22.590399999999995C95.59322033898306,22.517199999999995,96.61016949152543,22.447066666666665,97.62711864406779,22.307199999999998C98.64406779661016,22.167333333333332,99.66101694915254,21.936666666666664,100.6779661016949,21.751199999999997C101.69491525423729,21.56573333333333,102.71186440677965,21.376800000000003,103.72881355932203,21.1944C104.7457627118644,21.012000000000004,105.76271186440678,20.8464,106.77966101694915,20.6568C107.79661016949153,20.4672,108.8135593220339,20.233733333333333,109.83050847457628,20.0568C110.84745762711864,19.879866666666665,111.86440677966102,19.725466666666666,112.88135593220339,19.5952C113.89830508474576,19.46493333333333,114.91525423728814,19.406,115.9322033898305,19.275199999999998C116.94915254237289,19.144399999999997,117.96610169491525,18.982533333333336,118.98305084745763,18.8104C120,18.63826666666667,121.01694915254237,18.447866666666666,122.03389830508473,18.2424C123.05084745762711,18.036933333333334,124.0677966101695,17.801600000000004,125.08474576271188,17.577600000000004C126.10169491525424,17.353600000000004,127.11864406779662,17.181733333333334,128.135593220339,16.8984C129.15254237288136,16.615066666666664,130.16949152542372,16.201599999999996,131.1864406779661,15.877599999999997C132.20338983050846,15.553599999999996,133.22033898305085,15.242266666666666,134.23728813559322,14.9544C135.25423728813558,14.666533333333334,136.27118644067798,14.383866666666664,137.28813559322035,14.150399999999998C138.3050847457627,13.916933333333331,139.3220338983051,13.775333333333336,140.33898305084747,13.553600000000001C141.35593220338984,13.331866666666668,142.3728813559322,13.064,143.38983050847457,12.82C144.40677966101694,12.575999999999999,145.42372881355934,12.220799999999995,146.4406779661017,12.089599999999997C147.45762711864407,11.9584,148.47457627118644,12.024,149.4915254237288,11.892800000000001C150.50847457627117,11.761600000000003,151.52542372881356,10.524933333333333,152.54237288135593,10.0168C153.5593220338983,9.508666666666667,154.5762711864407,9.1908,155.59322033898306,8.843999999999998C156.61016949152543,8.4972,157.6271186440678,8.236133333333333,158.64406779661016,7.936000000000001C159.66101694915253,7.635866666666667,160.67796610169492,7.337066666666668,161.6949152542373,7.043200000000001C162.71186440677965,6.749333333333333,163.72881355932205,6.52466666666667,164.74576271186442,6.1728000000000005C165.76271186440678,5.820933333333334,166.77966101694915,5.3295999999999975,167.79661016949152,4.931999999999999C168.81355932203388,4.534399999999996,169.83050847457628,4.138133333333333,170.84745762711864,3.7871999999999995C171.864406779661,3.436266666666666,172.8813559322034,3.1405333333333307,173.89830508474577,2.826399999999998C174.91525423728814,2.512266666666665,175.93220338983053,1.9024000000000019,176.9491525423729,1.9024000000000019C177.96610169491527,1.9024000000000019,178.98305084745763,1.9024000000000019,180,1.9024000000000019L180,40C178.98305084745763,40,177.96610169491527,40,176.9491525423729,40C175.93220338983053,40,174.91525423728814,40,173.89830508474577,40C172.8813559322034,40,171.864406779661,40,170.84745762711864,40C169.83050847457628,40,168.81355932203388,40,167.79661016949152,40C166.77966101694915,40,165.76271186440678,40,164.74576271186442,40C163.72881355932205,40,162.71186440677965,40,161.6949152542373,40C160.67796610169492,40,159.66101694915253,40,158.64406779661016,40C157.6271186440678,40,156.61016949152543,40,155.59322033898306,40C154.5762711864407,40,153.5593220338983,40,152.54237288135593,40C151.52542372881356,40,150.50847457627117,40,149.4915254237288,40C148.47457627118644,40,147.45762711864407,40,146.4406779661017,40C145.42372881355934,40,144.40677966101694,40,143.38983050847457,40C142.3728813559322,40,141.35593220338984,40,140.33898305084747,40C139.3220338983051,40,138.3050847457627,40,137.28813559322035,40C136.27118644067798,40,135.25423728813558,40,134.23728813559322,40C133.22033898305085,40,132.20338983050846,40,131.1864406779661,40C130.16949152542372,40,129.15254237288136,40,128.135593220339,40C127.11864406779662,40,126.10169491525424,40,125.08474576271188,40C124.0677966101695,40,123.05084745762711,40,122.03389830508473,40C121.01694915254237,40,120,40,118.98305084745763,40C117.96610169491525,40,116.94915254237289,40,115.9322033898305,40C114.91525423728814,40,113.89830508474576,40,112.88135593220339,40C111.86440677966102,40,110.84745762711864,40,109.83050847457628,40C108.8135593220339,40,107.79661016949153,40,106.77966101694915,40C105.76271186440678,40,104.7457627118644,40,103.72881355932203,40C102.71186440677965,40,101.69491525423729,40,100.6779661016949,40C99.66101694915254,40,98.64406779661016,40,97.62711864406779,40C96.61016949152543,40,95.59322033898306,40,94.57627118644069,40C93.55932203389831,40,92.54237288135593,40,91.52542372881355,40C90.50847457627118,40,89.49152542372882,40,88.47457627118645,40C87.45762711864407,40,86.4406779661017,40,85.42372881355932,40C84.40677966101696,40,83.38983050847457,40,82.37288135593221,40C81.35593220338983,40,80.33898305084746,40,79.32203389830508,40C78.30508474576271,40,77.28813559322033,40,76.27118644067797,40C75.2542372881356,40,74.23728813559322,40,73.22033898305085,40C72.20338983050848,40,71.1864406779661,40,70.16949152542374,40C69.15254237288136,40,68.13559322033899,40,67.11864406779661,40C66.10169491525424,40,65.08474576271186,40,64.0677966101695,40C63.05084745762712,40,62.03389830508474,40,61.01694915254237,40C59.99999999999999,40,58.983050847457626,40,57.96610169491525,40C56.94915254237288,40,55.93220338983051,40,54.91525423728814,40C53.898305084745765,40,52.88135593220339,40,51.86440677966102,40C50.847457627118644,40,49.83050847457627,40,48.813559322033896,40C47.79661016949152,40,46.77966101694915,40,45.762711864406775,40C44.7457627118644,40,43.728813559322035,40,42.71186440677966,40C41.69491525423729,40,40.67796610169491,40,39.66101694915254,40C38.644067796610166,40,37.6271186440678,40,36.610169491525426,40C35.59322033898305,40,34.57627118644068,40,33.559322033898304,40C32.54237288135593,40,31.525423728813557,40,30.508474576271183,40C29.491525423728813,40,28.47457627118644,40,27.45762711864407,40C26.440677966101696,40,25.423728813559322,40,24.406779661016948,40C23.389830508474574,40,22.372881355932204,40,21.35593220338983,40C20.338983050847457,40,19.322033898305087,40,18.305084745762713,40C17.28813559322034,40,16.271186440677965,40,15.254237288135592,40C14.23728813559322,40,13.220338983050846,40,12.203389830508474,40C11.186440677966102,40,10.169491525423728,40,9.152542372881356,40C8.135593220338983,40,7.11864406779661,40,6.101694915254237,40C5.084745762711864,40,4.067796610169491,40,3.0508474576271185,40C2.0338983050847457,40,1.0169491525423728,40,0,40Z"></path><path class="line" stroke="black" fill="none" d="M0,26.944C1.0169491525423728,26.924,2.0338983050847457,26.903999999999996,3.0508474576271185,26.8864C4.067796610169491,26.8688,5.084745762711864,26.853466666666666,6.101694915254237,26.8384C7.11864406779661,26.823333333333334,8.135593220338983,26.81,9.152542372881356,26.796C10.169491525423728,26.782,11.186440677966102,26.7712,12.203389830508474,26.7544C13.220338983050846,26.7376,14.23728813559322,26.7184,15.254237288135592,26.6952C16.271186440677965,26.672,17.28813559322034,26.634,18.305084745762713,26.6152C19.322033898305087,26.596400000000003,20.338983050847457,26.6004,21.35593220338983,26.5824C22.372881355932204,26.5644,23.389830508474574,26.53213333333333,24.406779661016948,26.507199999999997C25.423728813559322,26.482266666666664,26.440677966101696,26.457333333333334,27.45762711864407,26.4328C28.47457627118644,26.408266666666666,29.491525423728813,26.381999999999998,30.508474576271183,26.36C31.525423728813557,26.337999999999997,32.54237288135593,26.3204,33.559322033898304,26.3008C34.57627118644068,26.2812,35.59322033898305,26.27,36.610169491525426,26.2424C37.6271186440678,26.2148,38.644067796610166,26.171066666666672,39.66101694915254,26.135200000000005C40.67796610169491,26.099333333333337,41.69491525423729,26.069999999999997,42.71186440677966,26.027199999999997C43.728813559322035,25.984399999999997,44.7457627118644,25.929466666666666,45.762711864406775,25.8784C46.77966101694915,25.827333333333332,47.79661016949152,25.767599999999998,48.813559322033896,25.720799999999997C49.83050847457627,25.673999999999996,50.847457627118644,25.631466666666668,51.86440677966102,25.5976C52.88135593220339,25.56373333333333,53.898305084745765,25.554799999999997,54.91525423728814,25.517599999999998C55.93220338983051,25.4804,56.94915254237288,25.433333333333334,57.96610169491525,25.3744C58.983050847457626,25.31546666666667,59.99999999999999,25.234933333333334,61.01694915254237,25.164C62.03389830508474,25.09306666666667,63.05084745762712,25.02226666666667,64.0677966101695,24.948800000000002C65.08474576271186,24.875333333333334,66.10169491525424,24.796799999999998,67.11864406779661,24.7232C68.13559322033899,24.6496,69.15254237288136,24.5712,70.16949152542374,24.5072C71.1864406779661,24.4432,72.20338983050848,24.391333333333336,73.22033898305085,24.3392C74.23728813559322,24.287066666666668,75.2542372881356,24.2716,76.27118644067797,24.194399999999998C77.28813559322033,24.117199999999997,78.30508474576271,23.995199999999997,79.32203389830508,23.875999999999998C80.33898305084746,23.7568,81.35593220338983,23.596533333333337,82.37288135593221,23.479200000000002C83.38983050847457,23.361866666666668,84.40677966101696,23.262266666666665,85.42372881355932,23.171999999999997C86.4406779661017,23.08173333333333,87.45762711864407,23.00853333333333,88.47457627118645,22.937599999999996C89.49152542372882,22.866666666666664,90.50847457627118,22.804266666666663,91.52542372881355,22.746399999999998C92.54237288135593,22.688533333333332,93.55932203389831,22.663599999999995,94.57627118644069,22.590399999999995C95.59322033898306,22.517199999999995,96.61016949152543,22.447066666666665,97.62711864406779,22.307199999999998C98.64406779661016,22.167333333333332,99.66101694915254,21.936666666666664,100.6779661016949,21.751199999999997C101.69491525423729,21.56573333333333,102.71186440677965,21.376800000000003,103.72881355932203,21.1944C104.7457627118644,21.012000000000004,105.76271186440678,20.8464,106.77966101694915,20.6568C107.79661016949153,20.4672,108.8135593220339,20.233733333333333,109.83050847457628,20.0568C110.84745762711864,19.879866666666665,111.86440677966102,19.725466666666666,112.88135593220339,19.5952C113.89830508474576,19.46493333333333,114.91525423728814,19.406,115.9322033898305,19.275199999999998C116.94915254237289,19.144399999999997,117.96610169491525,18.982533333333336,118.98305084745763,18.8104C120,18.63826666666667,121.01694915254237,18.447866666666666,122.03389830508473,18.2424C123.05084745762711,18.036933333333334,124.0677966101695,17.801600000000004,125.08474576271188,17.577600000000004C126.10169491525424,17.353600000000004,127.11864406779662,17.181733333333334,128.135593220339,16.8984C129.15254237288136,16.615066666666664,130.16949152542372,16.201599999999996,131.1864406779661,15.877599999999997C132.20338983050846,15.553599999999996,133.22033898305085,15.242266666666666,134.23728813559322,14.9544C135.25423728813558,14.666533333333334,136.27118644067798,14.383866666666664,137.28813559322035,14.150399999999998C138.3050847457627,13.916933333333331,139.3220338983051,13.775333333333336,140.33898305084747,13.553600000000001C141.35593220338984,13.331866666666668,142.3728813559322,13.064,143.38983050847457,12.82C144.40677966101694,12.575999999999999,145.42372881355934,12.220799999999995,146.4406779661017,12.089599999999997C147.45762711864407,11.9584,148.47457627118644,12.024,149.4915254237288,11.892800000000001C150.50847457627117,11.761600000000003,151.52542372881356,10.524933333333333,152.54237288135593,10.0168C153.5593220338983,9.508666666666667,154.5762711864407,9.1908,155.59322033898306,8.843999999999998C156.61016949152543,8.4972,157.6271186440678,8.236133333333333,158.64406779661016,7.936000000000001C159.66101694915253,7.635866666666667,160.67796610169492,7.337066666666668,161.6949152542373,7.043200000000001C162.71186440677965,6.749333333333333,163.72881355932205,6.52466666666667,164.74576271186442,6.1728000000000005C165.76271186440678,5.820933333333334,166.77966101694915,5.3295999999999975,167.79661016949152,4.931999999999999C168.81355932203388,4.534399999999996,169.83050847457628,4.138133333333333,170.84745762711864,3.7871999999999995C171.864406779661,3.436266666666666,172.8813559322034,3.1405333333333307,173.89830508474577,2.826399999999998C174.91525423728814,2.512266666666665,175.93220338983053,1.9024000000000019,176.9491525423729,1.9024000000000019C177.96610169491527,1.9024000000000019,178.98305084745763,1.9024000000000019,180,1.9024000000000019"></path><path class="axis-ceiling" stroke-width="1" stroke="black" fill="none" d="M175,0L180,0"></path><text class="axis-ceiling-label" font-family="sans-serif" text-anchor="end" font-size="10px" x="170" y="2.5">50000</text></g></svg>