<svg xmlns="http://www.w3.org/2000/svg" viewBox="0 0 180 60"><g transform="translate(0,20)"><path class="area" fill="rgba(0, 0, 0, 0.2)" d="M0,20.106666666666662C1.0169491525423728,19.146666666666665,2.0338983050847457,18.186666666666667,3.0508474576271185,18.186666666666667C4.067796610169491,18.186666666666667,5.084745762711864,20.4,6.101694915254237,20.4C7.11864406779661,20.4,8.135593220338983,19.866666666666667,9.152542372881356,19.866666666666667C10.169491525423728,19.866666666666667,11.186440677966102,20.99555555555556,12.203389830508474,21.6C13.220338983050846,22.204444444444444,14.23728813559322,22.23111111111111,15.254237288135592,23.493333333333332C16.271186440677965,24.755555555555553,17.28813559322034,28.72,18.305084745762713,30.85333333333333C19.322033898305087,32.986666666666665,20.338983050847457,36.29333333333334,21.35593220338983,36.29333333333334C22.372881355932204,36.29333333333334,23.389830508474574,9.306666666666668,24.406779661016948,9.306666666666668C25.423728813559322,9.306666666666668,26.440677966101696,32.13333333333333,27.45762711864407,32.13333333333333C28.47457627118644,32.13333333333333,29.491525423728813,11.413333333333334,30.508474576271183,11.413333333333334C31.525423728813557,11.413333333333334,32.54237288135593,23.022222222222226,33.559322033898304,24.10666666666667C34.57627118644068,25.191111111111113,35.59322033898305,24.746666666666666,36.610169491525426,25.733333333333334C37.6271186440678,26.72,38.644067796610166,28.733333333333334,39.66101694915254,30.026666666666667C40.67796610169491,31.32,41.69491525423729,33.49333333333333,42.71186440677966,33.49333333333333C43.728813559322035,33.49333333333333,44.7457627118644,32.511111111111106,45.762711864406775,31.12C46.77966101694915,29.72888888888889,47.79661016949152,29.12888888888889,48.813559322033896,25.14666666666667C49.83050847457627,21.164444444444445,50.847457627118644,2.613333333333334,51.86440677966102,2.613333333333334C52.88135593220339,2.613333333333334,53.898305084745765,34.373333333333335,54.91525423728814,34.373333333333335C55.93220338983051,34.373333333333335,56.94915254237288,27.839999999999996,57.96610169491525,27.839999999999996C58.983050847457626,27.839999999999996,59.99999999999999,29.78666666666666,61.01694915254237,29.78666666666666C62.03389830508474,29.78666666666666,63.05084745762712,28.30666666666667,64.0677966101695,27.493333333333332C65.08474576271186,26.68,66.10169491525424,24.906666666666666,67.11864406779661,24.906666666666666C68.13559322033899,24.906666666666666,69.15254237288136,24.93333333333333,70.16949152542374,24.93333333333333C71.1864406779661,24.93333333333333,72.20338983050848,23.226666666666667,73.22033898305085,23.226666666666667C74.23728813559322,23.226666666666667,75.2542372881356,23.782222222222224,76.27118644067797,24.32C77.28813559322033,24.857777777777777,78.30508474576271,25.146666666666672,79.32203389830508,26.453333333333333C80.33898305084746,27.76,81.35593220338983,32.160000000000004,82.37288135593221,32.160000000000004C83.38983050847457,32.160000000000004,84.40677966101696,29.06222222222222,85.42372881355932,27.68C86.4406779661017,26.297777777777775,87.45762711864407,23.866666666666667,88.47457627118645,23.866666666666667C89.49152542372882,23.866666666666667,90.50847457627118,24.86666666666667,91.52542372881355,25.30666666666667C92.54237288135593,25.746666666666673,93.55932203389831,26.506666666666668,94.57627118644069,26.506666666666668C95.59322033898306,26.506666666666668,96.61016949152543,23.386666666666667,97.62711864406779,23.386666666666667C98.64406779661016,23.386666666666667,99.66101694915254,26.035555555555554,100.6779661016949,27.519999999999996C101.69491525423729,29.004444444444445,102.71186440677965,32.29333333333334,103.72881355932203,32.29333333333334C104.7457627118644,32.29333333333334,105.76271186440678,26.968888888888888,106.77966101694915,26.453333333333333C107.79661016949153,25.93777777777778,108.8135593220339,26.195555555555554,109.83050847457628,25.68C110.84745762711864,25.164444444444445,111.86440677966102,21.893333333333334,112.88135593220339,21.893333333333334C113.89830508474576,21.893333333333334,114.91525423728814,23.182222222222222,115.9322033898305,23.626666666666665C116.94915254237289,24.07111111111111,117.96610169491525,23.937777777777775,118.98305084745763,24.56C120,25.182222222222215,121.01694915254237,27.866666666666667,122.03389830508473,27.866666666666667C123.05084745762711,27.866666666666667,124.0677966101695,27.857777777777777,125.08474576271188,27.839999999999996C126.10169491525424,27.822222222222216,127.11864406779662,25.137777777777785,128.135593220339,24.74666666666667C129.15254237288136,24.355555555555558,130.16949152542372,24.16,131.1864406779661,24.16C132.20338983050846,24.16,133.22033898305085,25.093333333333334,134.23728813559322,25.093333333333334C135.25423728813558,25.093333333333334,136.27118644067798,24.56,137.28813559322035,24.56C138.3050847457627,24.56,139.3220338983051,25.173333333333332,140.33898305084747,25.546666666666667C141.35593220338984,25.919999999999998,142.3728813559322,26.288888888888888,143.38983050847457,26.799999999999997C144.40677966101694,27.31111111111111,145.42372881355934,28.613333333333337,146.4406779661017,28.613333333333337C147.45762711864407,28.613333333333337,148.47457627118644,28.50666666666667,149.4915254237288,28.293333333333337C150.50847457627117,28.080000000000002,151.52542372881356,22.426666666666666,152.54237288135593,22.426666666666666C153.5593220338983,22.426666666666666,154.5762711864407,26.26666666666667,155.59322033898306,26.26666666666667C156.61016949152543,26.26666666666667,157.6271186440678,25.15555555555555,158.64406779661016,24.85333333333333C159.66101694915253,24.55111111111111,160.67796610169492,24.4,161.6949152542373,24.4C162.71186440677965,24.4,163.72881355932205,26.346666666666668,164.74576271186442,27.06666666666667C165.76271186440678,27.786666666666665,166.77966101694915,28.72,167.79661016949152,28.72C168.81355932203388,28.72,169.83050847457628,27.413333333333334,170.84745762711864,27.413333333333334C171.864406779661,27.413333333333334,172.8813559322034,28.266666666666666,173.89830508474577,28.266666666666666C174.91525423728814,28.266666666666666,175.93220338983053,18.186666666666667,176.9491525423729,18.186666666666667C177.96610169491527,18.186666666666667,178.98305084745763,20.520000000000003,180,22.853333333333335L180,40C178.98305084745763,40,177.96610169491527,40,176.9491525423729,40C175.93220338983053,40,174.91525423728814,40,173.89830508474577,40C172.8813559322034,40,171.864406779661,40,170.84745762711864,40C169.83050847457628,40,168.81355932203388,40,167.79661016949152,40C166.77966101694915,40,165.76271186440678,40,164.74576271186442,40C163.72881355932205,40,162.71186440677965,40,161.6949152542373,40C160.67796610169492,40,159.66101694915253,40,158.64406779661016,40C157.6271186440678,40,156.61016949152543,40,155.59322033898306,40C154.5762711864407,40,153.5593220338983,40,152.54237288135593,40C151.52542372881356,40,150.50847457627117,40,149.4915254237288,40C148.47457627118644,40,147.45762711864407,40,146.4406779661017,40C145.42372881355934,40,144.40677966101694,40,143.38983050847457,40C142.3728813559322,40,141.35593220338984,40,140.33898305084747,40C139.3220338983051,40,138.3050847457627,40,137.28813559322035,40C136.27118644067798,40,135.25423728813558,40,134.23728813559322,40C133.22033898305085,40,132.20338983050846,40,131.1864406779661,40C130.16949152542372,40,129.15254237288136,40,128.135593220339,40C127.11864406779662,40,126.10169491525424,40,125.08474576271188,40C124.0677966101695,40,123.05084745762711,40,122.03389830508473,40C121.01694915254237,40,120,40,118.98305084745763,40C117.96610169491525,40,116.94915254237289,40,115.9322033898305,40C114.91525423728814,40,113.89830508474576,40,112.88135593220339,40C111.86440677966102,40,110.84745762711864,40,109.83050847457628,40C108.8135593220339,40,107.79661016949153,40,106.77966101694915,40C105.76271186440678,40,104.7457627118644,40,103.72881355932203,40C102.71186440677965,40,101.69491525423729,40,100.6779661016949,40C99.66101694915254,40,98.64406779661016,40,97.62711864406779,40C96.61016949152543,40,95.59322033898306,40,94.57627118644069,40C93.55932203389831,40,92.54237288135593,40,91.52542372881355,40C90.50847457627118,40,89.49152542372882,40,88.47457627118645,40C87.45762711864407,40,86.4406779661017,40,85.42372881355932,40C84.40677966101696,40,83.38983050847457,40,82.37288135593221,40C81.35593220338983,40,80.33898305084746,40,79.32203389830508,40C78.30508474576271,40,77.28813559322033,40,76.27118644067797,40C75.2542372881356,40,74.23728813559322,40,73.22033898305085,40C72.20338983050848,40,71.1864406779661,40,70.16949152542374,40C69.15254237288136,40,68.13559322033899,40,67.11864406779661,40C66.10169491525424,40,65.08474576271186,40,64.0677966101695,40C63.05084745762712,40,62.03389830508474,40,61.01694915254237,40C59.99999999999999,40,58.983050847457626,40,57.96610169491525,40C56.94915254237288,40,55.93220338983051,40,54.91525423728814,40C53.898305084745765,40,52.88135593220339,40,51.86440677966102,40C50.847457627118644,40,49.83050847457627,40,48.813559322033896,40C47.79661016949152,40,46.77966101694915,40,45.762711864406775,40C44.7457627118644,40,43.728813559322035,40,42.71186440677966,40C41.69491525423729,40,40.67796610169491,40,39.66101694915254,40C38.644067796610166,40,37.6271186440678,40,36.610169491525426,40C35.59322033898305,40,34.57627118644068,40,33.559322033898304,40C32.54237288135593,40,31.525423728813557,40,30.508474576271183,40C29.491525423728813,40,28.47457627118644,40,27.45762711864407,40C26.440677966101696,40,25.423728813559322,40,24.406779661016948,40C23.389830508474574,40,22.372881355932204,40,21.35593220338983,40C20.338983050847457,40,19.322033898305087,40,18.305084745762713,40C17.28813559322034,40,16.271186440677965,40,15.254237288135592,40C14.23728813559322,40,13.220338983050846,40,12.203389830508474,40C11.186440677966102,40,10.169491525423728,40,9.152542372881356,40C8.135593220338983,40,7.11864406779661,40,6.101694915254237,40C5.084745762711864,40,4.067796610169491,40,3.0508474576271185,40C2.0338983050847457,40,1.0169491525423728,40,0,40Z"></path><path class="line" stroke="black" fill="none" d="M0,20.106666666666662C1.0169491525423728,19.146666666666665,2.0338983050847457,18.186666666666667,3.0508474576271185,18.186666666666667C4.067796610169491,18.186666666666667,5.084745762711864,20.4,6.101694915254237,20.4C7.11864406779661,20.4,8.135593220338983,19.866666666666667,9.152542372881356,19.866666666666667C10.169491525423728,19.866666666666667,11.186440677966102,20.99555555555556,12.203389830508474,21.6C13.220338983050846,22.204444444444444,14.23728813559322,22.23111111111111,15.254237288135592,23.493333333333332C16.271186440677965,24.755555555555553,17.28813559322034,28.72,18.305084745762713,30.85333333333333C19.322033898305087,32.986666666666665,20.338983050847457,36.29333333333334,21.35593220338983,36.29333333333334C22.372881355932204,36.29333333333334,23.389830508474574,9.306666666666668,24.406779661016948,9.306666666666668C25.423728813559322,9.306666666666668,26.440677966101696,32.13333333333333,27.45762711864407,32.13333333333333C28.47457627118644,32.13333333333333,29.491525423728813,11.413333333333334,30.508474576271183,11.413333333333334C31.525423728813557,11.413333333333334,32.54237288135593,23.022222222222226,33.559322033898304,24.10666666666667C34.57627118644068,25.191111111111113,35.59322033898305,24.746666666666666,36.610169491525426,25.733333333333334C37.6271186440678,26.72,38.644067796610166,28.733333333333334,39.66101694915254,30.026666666666667C40.67796610169491,31.32,41.69491525423729,33.49333333333333,42.71186440677966,33.49333333333333C43.728813559322035,33.49333333333333,44.7457627118644,32.511111111111106,45.762711864406775,31.12C46.77966101694915,29.72888888888889,47.79661016949152,29.12888888888889,48.813559322033896,25.14666666666667C49.83050847457627,21.164444444444445,50.847457627118644,2.613333333333334,51.86440677966102,2.613333333333334C52.88135593220339,2.613333333333334,53.898305084745765,34.373333333333335,54.91525423728814,34.373333333333335C55.93220338983051,34.373333333333335,56.94915254237288,27.839999999999996,57.96610169491525,27.839999999999996C58.983050847457626,27.839999999999996,59.99999999999999,29.78666666666666,61.01694915254237,29.78666666666666C62.03389830508474,29.78666666666666,63.05084745762712,28.30666666666667,64.0677966101695,27.493333333333332C65.08474576271186,26.68,66.10169491525424,24.906666666666666,67.11864406779661,24.906666666666666C68.13559322033899,24.906666666666666,69.15254237288136,24.93333333333333,70.16949152542374,24.93333333333333C71.1864406779661,24.93333333333333,72.20338983050848,23.226666666666667,73.22033898305085,23.226666666666667C74.23728813559322,23.226666666666667,75.2542372881356,23.782222222222224,76.27118644067797,24.32C77.28813559322033,24.857777777777777,78.30508474576271,25.146666666666672,79.32203389830508,26.453333333333333C80.33898305084746,27.76,81.35593220338983,32.160000000000004,82.37288135593221,32.160000000000004C83.38983050847457,32.160000000000004,84.40677966101696,29.06222222222222,85.42372881355932,27.68C86.4406779661017,26.297777777777775,87.45762711864407,23.866666666666667,88.47457627118645,23.866666666666667C89.49152542372882,23.866666666666667,90.50847457627118,24.86666666666667,91.52542372881355,25.30666666666667C92.54237288135593,25.746666666666673,93.55932203389831,26.506666666666668,94.57627118644069,26.506666666666668C95.59322033898306,26.506666666666668,96.61016949152543,23.386666666666667,97.62711864406779,23.386666666666667C98.64406779661016,23.386666666666667,99.66101694915254,26.035555555555554,100.6779661016949,27.519999999999996C101.69491525423729,29.004444444444445,102.71186440677965,32.29333333333334,103.72881355932203,32.29333333333334C104.7457627118644,32.29333333333334,105.76271186440678,26.968888888888888,106.77966101694915,26.453333333333333C107.79661016949153,25.93777777777778,108.8135593220339,26.195555555555554,109.83050847457628,25.68C110.84745762711864,25.164444444444445,111.86440677966102,21.893333333333334,112.88135593220339,21.893333333333334C113.89830508474576,21.893333333333334,114.91525423728814,23.182222222222222,115.9322033898305,23.626666666666665C116.94915254237289,24.07111111111111,117.96610169491525,23.937777777777775,118.98305084745763,24.56C120,25.182222222222215,121.01694915254237,27.866666666666667,122.03389830508473,27.866666666666667C123.05084745762711,27.866666666666667,124.0677966101695,27.857777777777777,125.08474576271188,27.839999999999996C126.10169491525424,27.822222222222216,127.11864406779662,25.137777777777785,128.135593220339,24.74666666666667C129.15254237288136,24.355555555555558,130.16949152542372,24.16,131.1864406779661,24.16C132.20338983050846,24.16,133.22033898305085,25.093333333333334,134.23728813559322,25.093333333333334C135.25423728813558,25.093333333333334,136.27118644067798,24.56,137.28813559322035,24.56C138.3050847457627,24.56,139.3220338983051,25.173333333333332,140.33898305084747,25.546666666666667C141.35593220338984,25.919999999999998,142.3728813559322,26.288888888888888,143.38983050847457,26.799999999999997C144.40677966101694,27.31111111111111,145.42372881355934,28.613333333333337,146.4406779661017,28.613333333333337C147.45762711864407,28.613333333333337,148.47457627118644,28.50666666666667,149.4915254237288,28.293333333333337C150.50847457627117,28.080000000000002,151.52542372881356,22.426666666666666,152.54237288135593,22.426666666666666C153.5593220338983,22.426666666666666,154.5762711864407,26.26666666666667,155.59322033898306,26.26666666666667C156.61016949152543,26.26666666666667,157.6271186440678,25.15555555555555,158.64406779661016,24.85333333333333C159.66101694915253,24.55111111111111,160.67796610169492,24.4,161.6949152542373,24.4C162.71186440677965,24.4,163.72881355932205,26.346666666666668,164.74576271186442,27.06666666666667C165.76271186440678,27.786666666666665,166.77966101694915,28.72,167.79661016949152,28.72C168.81355932203388,28.72,169.83050847457628,27.413333333333334,170.84745762711864,27.413333333333334C171.864406779661,27.413333333333334,172.8813559322034,28.266666666666666,173.89830508474577,28.266666666666666C174.91525423728814,28.266666666666666,175.93220338983053,18.186666666666667,176.9491525423729,18.186666666666667C177.96610169491527,18.186666666666667,178.98305084745763,20.520000000000003,180,22.853333333333335"></path><path class="axis-ceiling" stroke-width="1" stroke="black" fill="none" d="M175,0L180,0"></path><text class="axis-ceiling-label" font-family="sans-serif" text-anchor="end" font-size="10px" x="170" y="2.5">1500</text></g></svg>