<svg xmlns="http://www.w3.org/2000/svg" viewBox="0 0 180 60"><g transform="translate(0,20)"><path class="area" fill="rgba(0, 0, 0, 0.2)" d="M0,29.341333333333335C1.0169491525423728,29.003629629629632,2.0338983050847457,28.665925925925926,3.0508474576271185,28.329777777777778C4.067796610169491,27.99362962962963,5.084745762711864,27.55051851851852,6.101694915254237,27.324444444444445C7.11864406779661,27.09837037037037,8.135593220338983,26.973333333333333,9.152542372881356,26.973333333333333C10.169491525423728,26.973333333333333,11.186440677966102,26.997925925925927,12.203389830508474,27.04711111111111C13.220338983050846,27.096296296296295,14.23728813559322,28.92711111111111,15.254237288135592,28.92711111111111C16.271186440677965,28.92711111111111,17.28813559322034,28.618222222222222,18.305084745762713,28.283555555555555C19.322033898305087,27.948888888888888,20.338983050847457,26.91911111111111,21.35593220338983,26.91911111111111C22.372881355932204,26.91911111111111,23.389830508474574,27.477333333333334,24.406779661016948,27.477333333333334C25.423728813559322,27.477333333333334,26.440677966101696,21.436444444444444,27.45762711864407,21.436444444444444C28.47457627118644,21.436444444444444,29.491525423728813,25.98518518518518,30.508474576271183,26.04622222222222C31.525423728813557,26.10725925925926,32.54237288135593,26.137777777777778,33.559322033898304,26.137777777777778C34.57627118644068,26.137777777777778,35.59322033898305,24.8237037037037,36.610169491525426,24.51555555555555C37.6271186440678,24.207407407407405,38.644067796610166,24.32681481481481,39.66101694915254,24.05333333333333C40.67796610169491,23.779851851851852,41.69491525423729,22.87466666666667,42.71186440677966,22.87466666666667C43.728813559322035,22.87466666666667,44.7457627118644,24.046222222222223,45.762711864406775,24.046222222222223C46.77966101694915,24.046222222222223,47.79661016949152,4.034666666666666,48.813559322033896,4.034666666666666C49.83050847457627,4.034666666666666,50.847457627118644,19.387555555555554,51.86440677966102,19.387555555555554C52.88135593220339,19.387555555555554,53.898305084745765,19.35111111111111,54.91525423728814,19.35111111111111C55.93220338983051,19.35111111111111,56.94915254237288,23.283555555555555,57.96610169491525,23.283555555555555C58.983050847457626,23.283555555555555,59.99999999999999,20.686962962962962,61.01694915254237,19.882666666666665C62.03389830508474,19.078370370370365,63.05084745762712,18.45777777777778,64.0677966101695,18.45777777777778C65.08474576271186,18.45777777777778,66.10169491525424,20.49037037037037,67.11864406779661,21.611555555555555C68.13559322033899,22.73274074074074,69.15254237288136,25.184888888888892,70.16949152542374,25.184888888888892C71.1864406779661,25.184888888888892,72.20338983050848,19.050666666666665,73.22033898305085,19.050666666666665C74.23728813559322,19.050666666666665,75.2542372881356,22.387555555555554,76.27118644067797,22.77511111111111C77.28813559322033,23.162666666666663,78.30508474576271,23.356444444444442,79.32203389830508,23.356444444444442C80.33898305084746,23.356444444444442,81.35593220338983,23.170666666666662,82.37288135593221,23.170666666666662C83.38983050847457,23.170666666666662,84.40677966101696,25.30666666666667,85.42372881355932,25.30666666666667C86.4406779661017,25.30666666666667,87.45762711864407,24.532444444444444,88.47457627118645,24.532444444444444C89.49152542372882,24.532444444444444,90.50847457627118,24.723555555555556,91.52542372881355,25.105777777777778C92.54237288135593,25.488000000000007,93.55932203389831,27.77688888888889,94.57627118644069,27.77688888888889C95.59322033898306,27.77688888888889,96.61016949152543,27.599999999999998,97.62711864406779,27.599999999999998C98.64406779661016,27.599999999999998,99.66101694915254,29.432000000000002,100.6779661016949,29.432000000000002C101.69491525423729,29.432000000000002,102.71186440677965,29.111111111111114,103.72881355932203,29.111111111111114C104.7457627118644,29.111111111111114,105.76271186440678,29.23792592592593,106.77966101694915,29.491555555555557C107.79661016949153,29.745185185185186,108.8135593220339,30.291259259259256,109.83050847457628,30.86488888888889C110.84745762711864,31.438518518518517,111.86440677966102,32.93333333333334,112.88135593220339,32.93333333333334C113.89830508474576,32.93333333333334,114.91525423728814,31.389333333333333,115.9322033898305,31.389333333333333C116.94915254237289,31.389333333333333,117.96610169491525,31.548148148148147,118.98305084745763,31.86577777777778C120,32.18340740740741,121.01694915254237,33.47555555555556,122.03389830508473,33.47555555555556C123.05084745762711,33.47555555555556,124.0677966101695,33.394666666666666,125.08474576271188,33.394666666666666C126.10169491525424,33.394666666666666,127.11864406779662,34.2677037037037,128.135593220339,34.64888888888889C129.15254237288136,35.03007407407407,130.16949152542372,35.43303703703703,131.1864406779661,35.681777777777775C132.20338983050846,35.93051851851852,133.22033898305085,36.141333333333336,134.23728813559322,36.141333333333336C135.25423728813558,36.141333333333336,136.27118644067798,36.112,137.28813559322035,36.053333333333335C138.3050847457627,35.99466666666667,139.3220338983051,35.64088888888889,140.33898305084747,35.64088888888889C141.35593220338984,35.64088888888889,142.3728813559322,36.25644444444445,143.38983050847457,36.448C144.40677966101694,36.63955555555556,145.42372881355934,36.79022222222222,146.4406779661017,36.79022222222222C147.45762711864407,36.79022222222222,148.47457627118644,36.69511111111111,149.4915254237288,36.69511111111111C150.50847457627117,36.69511111111111,151.52542372881356,36.992148148148146,152.54237288135593,37.221333333333334C153.5593220338983,37.45051851851852,154.5762711864407,38.07022222222222,155.59322033898306,38.07022222222222C156.61016949152543,38.07022222222222,157.6271186440678,37.52444444444444,158.64406779661016,37.52444444444444C159.66101694915253,37.52444444444444,160.67796610169492,37.80474074074073,161.6949152542373,37.849777777777774C162.71186440677965,37.894814814814815,163.72881355932205,37.87229629629629,164.74576271186442,37.91733333333333C165.76271186440678,37.96237037037037,166.77966101694915,38.33007407407407,167.79661016949152,38.364444444444445C168.81355932203388,38.39881481481482,169.83050847457628,38.38162962962963,170.84745762711864,38.416000000000004C171.864406779661,38.45037037037038,172.8813559322034,39.028444444444446,173.89830508474577,39.028444444444446C174.91525423728814,39.028444444444446,175.93220338983053,38.94459259259259,176.9491525423729,38.888888888888886C177.96610169491527,38.83318518518518,178.98305084745763,38.763703703703705,180,38.69422222222222L180,40C178.98305084745763,40,177.96610169491527,40,176.9491525423729,40C175.93220338983053,40,174.91525423728814,40,173.89830508474577,40C172.8813559322034,40,171.864406779661,40,170.84745762711864,40C169.83050847457628,40,168.81355932203388,40,167.79661016949152,40C166.77966101694915,40,165.76271186440678,40,164.74576271186442,40C163.72881355932205,40,162.71186440677965,40,161.6949152542373,40C160.67796610169492,40,159.66101694915253,40,158.64406779661016,40C157.6271186440678,40,156.61016949152543,40,155.59322033898306,40C154.5762711864407,40,153.5593220338983,40,152.54237288135593,40C151.52542372881356,40,150.50847457627117,40,149.4915254237288,40C148.47457627118644,40,147.45762711864407,40,146.4406779661017,40C145.42372881355934,40,144.40677966101694,40,143.38983050847457,40C142.3728813559322,40,141.35593220338984,40,140.33898305084747,40C139.3220338983051,40,138.3050847457627,40,137.28813559322035,40C136.27118644067798,40,135.25423728813558,40,134.23728813559322,40C133.22033898305085,40,132.20338983050846,40,131.1864406779661,40C130.16949152542372,40,129.15254237288136,40,128.135593220339,40C127.11864406779662,40,126.10169491525424,40,125.08474576271188,40C124.0677966101695,40,123.05084745762711,40,122.03389830508473,40C121.01694915254237,40,120,40,118.98305084745763,40C117.96610169491525,40,116.94915254237289,40,115.9322033898305,40C114.91525423728814,40,113.89830508474576,40,112.88135593220339,40C111.86440677966102,40,110.84745762711864,40,109.83050847457628,40C108.8135593220339,40,107.79661016949153,40,106.77966101694915,40C105.76271186440678,40,104.7457627118644,40,103.72881355932203,40C102.71186440677965,40,101.69491525423729,40,100.6779661016949,40C99.66101694915254,40,98.64406779661016,40,97.62711864406779,40C96.61016949152543,40,95.59322033898306,40,94.57627118644069,40C93.55932203389831,40,92.54237288135593,40,91.52542372881355,40C90.50847457627118,40,89.49152542372882,40,88.47457627118645,40C87.45762711864407,40,86.4406779661017,40,85.42372881355932,40C84.40677966101696,40,83.38983050847457,40,82.37288135593221,40C81.35593220338983,40,80.33898305084746,40,79.32203389830508,40C78.30508474576271,40,77.28813559322033,40,76.27118644067797,40C75.2542372881356,40,74.23728813559322,40,73.22033898305085,40C72.20338983050848,40,71.1864406779661,40,70.16949152542374,40C69.15254237288136,40,68.13559322033899,40,67.11864406779661,40C66.10169491525424,40,65.08474576271186,40,64.0677966101695,40C63.05084745762712,40,62.03389830508474,40,61.01694915254237,40C59.99999999999999,40,58.983050847457626,40,57.96610169491525,40C56.94915254237288,40,55.93220338983051,40,54.91525423728814,40C53.898305084745765,40,52.88135593220339,40,51.86440677966102,40C50.847457627118644,40,49.83050847457627,40,48.813559322033896,40C47.79661016949152,40,46.77966101694915,40,45.762711864406775,40C44.7457627118644,40,43.728813559322035,40,42.71186440677966,40C41.69491525423729,40,40.67796610169491,40,39.66101694915254,40C38.644067796610166,40,37.6271186440678,40,36.610169491525426,40C35.59322033898305,40,34.57627118644068,40,33.559322033898304,40C32.54237288135593,40,31.525423728813557,40,30.508474576271183,40C29.491525423728813,40,28.47457627118644,40,27.45762711864407,40C26.440677966101696,40,25.423728813559322,40,24.406779661016948,40C23.389830508474574,40,22.372881355932204,40,21.35593220338983,40C20.338983050847457,40,19.322033898305087,40,18.305084745762713,40C17.28813559322034,40,16.271186440677965,40,15.254237288135592,40C14.23728813559322,40,13.220338983050846,40,12.203389830508474,40C11.186440677966102,40,10.169491525423728,40,9.152542372881356,40C8.135593220338983,40,7.11864406779661,40,6.101694915254237,40C5.084745762711864,40,4.067796610169491,40,3.0508474576271185,40C2.0338983050847457,40,1.0169491525423728,40,0,40Z"></path><path class="line" stroke="black" fill="none" d="M0,29.341333333333335C1.0169491525423728,29.003629629629632,2.0338983050847457,28.665925925925926,3.0508474576271185,28.329777777777778C4.067796610169491,27.99362962962963,5.084745762711864,27.55051851851852,6.101694915254237,27.324444444444445C7.11864406779661,27.09837037037037,8.135593220338983,26.973333333333333,9.152542372881356,26.973333333333333C10.169491525423728,26.973333333333333,11.186440677966102,26.997925925925927,12.203389830508474,27.04711111111111C13.220338983050846,27.096296296296295,14.23728813559322,28.92711111111111,15.254237288135592,28.92711111111111C16.271186440677965,28.92711111111111,17.28813559322034,28.618222222222222,18.305084745762713,28.283555555555555C19.322033898305087,27.948888888888888,20.338983050847457,26.91911111111111,21.35593220338983,26.91911111111111C22.372881355932204,26.91911111111111,23.389830508474574,27.477333333333334,24.406779661016948,27.477333333333334C25.423728813559322,27.477333333333334,26.440677966101696,21.436444444444444,27.45762711864407,21.436444444444444C28.47457627118644,21.436444444444444,29.491525423728813,25.98518518518518,30.508474576271183,26.04622222222222C31.525423728813557,26.10725925925926,32.54237288135593,26.137777777777778,33.559322033898304,26.137777777777778C34.57627118644068,26.137777777777778,35.59322033898305,24.8237037037037,36.610169491525426,24.51555555555555C37.6271186440678,24.207407407407405,38.644067796610166,24.32681481481481,39.66101694915254,24.05333333333333C40.67796610169491,23.779851851851852,41.69491525423729,22.87466666666667,42.71186440677966,22.87466666666667C43.728813559322035,22.87466666666667,44.7457627118644,24.046222222222223,45.762711864406775,24.046222222222223C46.77966101694915,24.046222222222223,47.79661016949152,4.034666666666666,48.813559322033896,4.034666666666666C49.83050847457627,4.034666666666666,50.847457627118644,19.387555555555554,51.86440677966102,19.387555555555554C52.88135593220339,19.387555555555554,53.898305084745765,19.35111111111111,54.91525423728814,19.35111111111111C55.93220338983051,19.35111111111111,56.94915254237288,23.283555555555555,57.96610169491525,23.283555555555555C58.983050847457626,23.283555555555555,59.99999999999999,20.686962962962962,61.01694915254237,19.882666666666665C62.03389830508474,19.078370370370365,63.05084745762712,18.45777777777778,64.0677966101695,18.45777777777778C65.08474576271186,18.45777777777778,66.10169491525424,20.49037037037037,67.11864406779661,21.611555555555555C68.13559322033899,22.73274074074074,69.15254237288136,25.184888888888892,70.16949152542374,25.184888888888892C71.1864406779661,25.184888888888892,72.20338983050848,19.050666666666665,73.22033898305085,19.050666666666665C74.23728813559322,19.050666666666665,75.2542372881356,22.387555555555554,76.27118644067797,22.77511111111111C77.28813559322033,23.162666666666663,78.30508474576271,23.356444444444442,79.32203389830508,23.356444444444442C80.33898305084746,23.356444444444442,81.35593220338983,23.170666666666662,82.37288135593221,23.170666666666662C83.38983050847457,23.170666666666662,84.40677966101696,25.30666666666667,85.42372881355932,25.30666666666667C86.4406779661017,25.30666666666667,87.45762711864407,24.532444444444444,88.47457627118645,24.532444444444444C89.49152542372882,24.532444444444444,90.50847457627118,24.723555555555556,91.52542372881355,25.105777777777778C92.54237288135593,25.488000000000007,93.55932203389831,27.77688888888889,94.57627118644069,27.77688888888889C95.59322033898306,27.77688888888889,96.61016949152543,27.599999999999998,97.62711864406779,27.599999999999998C98.64406779661016,27.599999999999998,99.66101694915254,29.432000000000002,100.6779661016949,29.432000000000002C101.69491525423729,29.432000000000002,102.71186440677965,29.111111111111114,103.72881355932203,29.111111111111114C104.7457627118644,29.111111111111114,105.76271186440678,29.23792592592593,106.77966101694915,29.491555555555557C107.79661016949153,29.745185185185186,108.8135593220339,30.291259259259256,109.83050847457628,30.86488888888889C110.84745762711864,31.438518518518517,111.86440677966102,32.93333333333334,112.88135593220339,32.93333333333334C113.89830508474576,32.93333333333334,114.91525423728814,31.389333333333333,115.9322033898305,31.389333333333333C116.94915254237289,31.389333333333333,117.96610169491525,31.548148148148147,118.98305084745763,31.86577777777778C120,32.18340740740741,121.01694915254237,33.47555555555556,122.03389830508473,33.47555555555556C123.05084745762711,33.47555555555556,124.0677966101695,33.394666666666666,125.08474576271188,33.394666666666666C126.10169491525424,33.394666666666666,127.11864406779662,34.2677037037037,128.135593220339,34.64888888888889C129.15254237288136,35.03007407407407,130.16949152542372,35.43303703703703,131.1864406779661,35.681777777777775C132.20338983050846,35.93051851851852,133.22033898305085,36.141333333333336,134.23728813559322,36.141333333333336C135.25423728813558,36.141333333333336,136.27118644067798,36.112,137.28813559322035,36.053333333333335C138.3050847457627,35.99466666666667,139.3220338983051,35.64088888888889,140.33898305084747,35.64088888888889C141.35593220338984,35.64088888888889,142.3728813559322,36.25644444444445,143.38983050847457,36.448C144.40677966101694,36.63955555555556,145.42372881355934,36.79022222222222,146.4406779661017,36.79022222222222C147.45762711864407,36.79022222222222,148.47457627118644,36.69511111111111,149.4915254237288,36.69511111111111C150.50847457627117,36.69511111111111,151.52542372881356,36.992148148148146,152.54237288135593,37.221333333333334C153.5593220338983,37.45051851851852,154.5762711864407,38.07022222222222,155.59322033898306,38.07022222222222C156.61016949152543,38.07022222222222,157.6271186440678,37.52444444444444,158.64406779661016,37.52444444444444C159.66101694915253,37.52444444444444,160.67796610169492,37.80474074074073,161.6949152542373,37.849777777777774C162.71186440677965,37.894814814814815,163.72881355932205,37.87229629629629,164.74576271186442,37.91733333333333C165.76271186440678,37.96237037037037,166.77966101694915,38.33007407407407,167.79661016949152,38.364444444444445C168.81355932203388,38.39881481481482,169.83050847457628,38.38162962962963,170.84745762711864,38.416000000000004C171.864406779661,38.45037037037038,172.8813559322034,39.028444444444446,173.89830508474577,39.028444444444446C174.91525423728814,39.028444444444446,175.93220338983053,38.94459259259259,176.9491525423729,38.888888888888886C177.96610169491527,38.83318518518518,178.98305084745763,38.763703703703705,180,38.69422222222222"></path><path class="axis-ceiling" stroke-width="1" stroke="black" fill="none" d="M175,0L180,0"></path><text class="axis-ceiling-label" font-family="sans-serif" text-anchor="end" font-size="10px" x="170" y="2.5">45000</text></g></svg>