<svg xmlns="http://www.w3.org/2000/svg" viewBox="0 0 180 60"><g transform="translate(0,20)"><path class="area" fill="rgba(0, 0, 0, 0.2)" d="M0,34.13820986502457C1.0169491525423728,34.115402956604676,2.0338983050847457,34.092596048184774,3.0508474576271185,34.01132051999751C4.067796610169491,33.93004499181025,5.084745762711864,33.78408077792291,6.101694915254237,33.650556695900974C7.11864406779661,33.51703261387904,8.135593220338983,33.370653728929526,9.152542372881356,33.21017602786589C10.169491525423728,33.04969832680226,11.186440677966102,32.92819970558354,12.203389830508474,32.687690489519184C13.220338983050846,32.44718127345483,14.23728813559322,32.00970330285501,15.254237288135592,31.767120731479753C16.271186440677965,31.5245381601045,17.28813559322034,31.42294374987042,18.305084745762713,31.232195061267653C19.322033898305087,31.041446372664886,20.338983050847457,30.89755551408845,21.35593220338983,30.62262859986316C22.372881355932204,30.34770168563787,23.389830508474574,29.827289502602063,24.406779661016948,29.582633575915906C25.423728813559322,29.33797764922975,26.440677966101696,29.305218635317534,27.45762711864407,29.15469303974622C28.47457627118644,29.004167444174907,29.491525423728813,28.83124961124588,30.508474576271183,28.679480002488027C31.525423728813557,28.527710393730175,32.54237288135593,28.534345130725054,33.559322033898304,28.244075387199103C34.57627118644068,27.953805643673153,35.59322033898305,27.0398706226286,36.610169491525426,26.66417864029359C37.6271186440678,26.288486657958575,38.644067796610166,26.439426924592066,39.66101694915254,25.989923493189025C40.67796610169491,25.54042006178598,41.69491525423729,23.255582509174598,42.71186440677966,22.359893014865957C43.728813559322035,21.46420352055732,44.7457627118644,21.082706143351785,45.762711864406775,20.61578652733719C46.77966101694915,20.148866911322592,47.79661016949152,19.84325433849599,48.813559322033896,19.55837531877838C49.83050847457627,19.273496299060774,50.847457627118644,19.120897348178556,51.86440677966102,18.906512409031535C52.88135593220339,18.692127469884515,53.898305084745765,18.695030167319775,54.91525423728814,18.27206568389625C55.93220338983051,17.84910120047273,56.94915254237288,15.797308784806454,57.96610169491525,15.560116937239536C58.983050847457626,15.32292508967262,59.99999999999999,15.441521013456077,61.01694915254237,15.20432916588916C62.03389830508474,14.96713731832224,63.05084745762712,14.370840330907507,64.0677966101695,13.90309137276855C65.08474576271186,13.435342414629595,66.10169491525424,12.771454044079533,67.11864406779661,12.397835417055422C68.13559322033899,12.024216790031307,69.15254237288136,11.81397856150609,70.16949152542374,11.661379610623875C71.1864406779661,11.50878065974166,72.20338983050848,11.585080135182768,73.22033898305085,11.432481184300553C74.23728813559322,11.279882233418338,75.2542372881356,11.024444859115505,76.27118644067797,10.71841761522672C77.28813559322033,10.412390371337935,78.30508474576271,9.898198254234828,79.32203389830508,9.596317720967843C80.33898305084746,9.294437187700856,81.35593220338983,9.153863697621864,82.37288135593221,8.907134415624807C83.38983050847457,8.660405133627751,84.40677966101696,8.354377889738965,85.42372881355932,8.115942028985508C86.4406779661017,7.87750616823205,87.45762711864407,7.571064253281088,88.47457627118645,7.4765192511040635C89.49152542372882,7.3819742489270395,90.50847457627118,7.429246750015552,91.52542372881355,7.334701747838528C92.54237288135593,7.240156745661503,93.55932203389831,7.00379424021895,94.57627118644069,6.8271443677303C95.59322033898306,6.650494495241652,96.61016949152543,6.467624556820302,97.62711864406779,6.2748025129066365C98.64406779661016,6.08198046899297,99.66101694915254,5.8435446082395135,100.6779661016949,5.6702121042483045C101.69491525423729,5.496879600257095,102.71186440677965,5.358379465489001,103.72881355932203,5.234807488959383C104.7457627118644,5.111235512429766,105.76271186440678,5.028301299993779,106.77966101694915,4.928780245070596C107.79661016949153,4.829259190147414,108.8135593220339,4.708589911053055,109.83050847457628,4.637681159420288C110.84745762711864,4.566772407787521,111.86440677966102,4.556820302295204,112.88135593220339,4.503327735273994C113.89830508474576,4.449835168252784,114.91525423728814,4.398001285480293,115.9322033898305,4.316725757293027C116.94915254237289,4.235450229105761,117.96610169491525,4.116439634260122,118.98305084745763,4.0156745661504C120,3.9149094980406787,121.01694915254237,3.811241732495697,122.03389830508473,3.7121353486346953C123.05084745762711,3.6130289647736924,124.0677966101695,3.503970475420372,125.08474576271188,3.421036262984387C126.10169491525424,3.338102050548403,127.11864406779662,3.296220273268232,128.135593220339,3.2145300740187865C129.15254237288136,3.1328398747693416,130.16949152542372,2.9773382264518675,131.1864406779661,2.9308950674877154C132.20338983050846,2.884451908523563,133.22033898305085,2.8960626982646,134.23728813559322,2.8612303290414864C135.25423728813558,2.826397959818373,136.27118644067798,2.770002695361904,137.28813559322035,2.721900852149033C138.3050847457627,2.673799008936162,139.3220338983051,2.638137297588689,140.33898305084747,2.5726192697642603C141.35593220338984,2.5071012419398317,142.3728813559322,2.400945450021768,143.38983050847457,2.328792685202461C144.40677966101694,2.256639920383153,145.42372881355934,2.1869751819369276,146.4406779661017,2.1397026808484165C147.45762711864407,2.092430179759906,148.47457627118644,2.0911861665733658,149.4915254237288,2.0451576786713943C150.50847457627117,1.9991291907694226,151.52542372881356,1.9481246501212917,152.54237288135593,1.863531753436587C153.5593220338983,1.7789388567518822,154.5762711864407,1.6147291161286326,155.59322033898306,1.5376002985631665C156.61016949152543,1.460471480997701,157.6271186440678,1.4455433227592223,158.64406779661016,1.4007588480437905C159.66101694915253,1.3559743733283582,160.67796610169492,1.3464369388982205,161.6949152542373,1.268893450270574C162.71186440677965,1.1913499616429275,163.72881355932205,1.012626733843378,164.74576271186442,0.935497916277912C165.76271186440678,0.8583690987124466,166.77966101694915,0.8923721258112005,167.79661016949152,0.8061205448777775C168.81355932203388,0.7198689639443537,169.83050847457628,0.47148099769857826,170.84745762711864,0.3657398768426967C171.864406779661,0.25999875598681516,172.8813559322034,0.23263046588293776,173.89830508474577,0.1716738197424883C174.91525423728814,0.11071717360203884,175.93220338983053,0,176.9491525423729,0C177.96610169491527,0,178.98305084745763,0,180,0L180,40C178.98305084745763,40,177.96610169491527,40,176.9491525423729,40C175.93220338983053,40,174.91525423728814,40,173.89830508474577,40C172.8813559322034,40,171.864406779661,40,170.84745762711864,40C169.83050847457628,40,168.81355932203388,40,167.79661016949152,40C166.77966101694915,40,165.76271186440678,40,164.74576271186442,40C163.72881355932205,40,162.71186440677965,40,161.6949152542373,40C160.67796610169492,40,159.66101694915253,40,158.64406779661016,40C157.6271186440678,40,156.61016949152543,40,155.59322033898306,40C154.5762711864407,40,153.5593220338983,40,152.54237288135593,40C151.52542372881356,40,150.50847457627117,40,149.4915254237288,40C148.47457627118644,40,147.45762711864407,40,146.4406779661017,40C145.42372881355934,40,144.40677966101694,40,143.38983050847457,40C142.3728813559322,40,141.35593220338984,40,140.33898305084747,40C139.3220338983051,40,138.3050847457627,40,137.28813559322035,40C136.27118644067798,40,135.25423728813558,40,134.23728813559322,40C133.22033898305085,40,132.20338983050846,40,131.1864406779661,40C130.16949152542372,40,129.15254237288136,40,128.135593220339,40C127.11864406779662,40,126.10169491525424,40,125.08474576271188,40C124.0677966101695,40,123.05084745762711,40,122.03389830508473,40C121.01694915254237,40,120,40,118.98305084745763,40C117.96610169491525,40,116.94915254237289,40,115.9322033898305,40C114.91525423728814,40,113.89830508474576,40,112.88135593220339,40C111.86440677966102,40,110.84745762711864,40,109.83050847457628,40C108.8135593220339,40,107.79661016949153,40,106.77966101694915,40C105.76271186440678,40,104.7457627118644,40,103.72881355932203,40C102.71186440677965,40,101.69491525423729,40,100.6779661016949,40C99.66101694915254,40,98.64406779661016,40,97.62711864406779,40C96.61016949152543,40,95.59322033898306,40,94.57627118644069,40C93.55932203389831,40,92.54237288135593,40,91.52542372881355,40C90.50847457627118,40,89.49152542372882,40,88.47457627118645,40C87.45762711864407,40,86.4406779661017,40,85.42372881355932,40C84.40677966101696,40,83.38983050847457,40,82.37288135593221,40C81.35593220338983,40,80.33898305084746,40,79.32203389830508,40C78.30508474576271,40,77.28813559322033,40,76.27118644067797,40C75.2542372881356,40,74.23728813559322,40,73.22033898305085,40C72.20338983050848,40,71.1864406779661,40,70.16949152542374,40C69.15254237288136,40,68.13559322033899,40,67.11864406779661,40C66.10169491525424,40,65.08474576271186,40,64.0677966101695,40C63.05084745762712,40,62.03389830508474,40,61.01694915254237,40C59.99999999999999,40,58.983050847457626,40,57.96610169491525,40C56.94915254237288,40,55.93220338983051,40,54.91525423728814,40C53.898305084745765,40,52.88135593220339,40,51.86440677966102,40C50.847457627118644,40,49.83050847457627,40,48.813559322033896,40C47.79661016949152,40,46.77966101694915,40,45.762711864406775,40C44.7457627118644,40,43.728813559322035,40,42.71186440677966,40C41.69491525423729,40,40.67796610169491,40,39.66101694915254,40C38.644067796610166,40,37.6271186440678,40,36.610169491525426,40C35.59322033898305,40,34.57627118644068,40,33.559322033898304,40C32.54237288135593,40,31.525423728813557,40,30.508474576271183,40C29.491525423728813,40,28.47457627118644,40,27.45762711864407,40C26.440677966101696,40,25.423728813559322,40,24.406779661016948,40C23.389830508474574,40,22.372881355932204,40,21.35593220338983,40C20.338983050847457,40,19.322033898305087,40,18.305084745762713,40C17.28813559322034,40,16.271186440677965,40,15.254237288135592,40C14.23728813559322,40,13.220338983050846,40,12.203389830508474,40C11.186440677966102,40,10.169491525423728,40,9.152542372881356,40C8.135593220338983,40,7.11864406779661,40,6.101694915254237,40C5.084745762711864,40,4.067796610169491,40,3.0508474576271185,40C2.0338983050847457,40,1.0169491525423728,40,0,40Z"></path><path class="line" stroke="black" fill="none" d="M0,34.13820986502457C1.0169491525423728,34.115402956604676,2.0338983050847457,34.092596048184774,3.0508474576271185,34.01132051999751C4.067796610169491,33.93004499181025,5.084745762711864,33.78408077792291,6.101694915254237,33.650556695900974C7.11864406779661,33.51703261387904,8.135593220338983,33.370653728929526,9.152542372881356,33.21017602786589C10.169491525423728,33.04969832680226,11.186440677966102,32.92819970558354,12.203389830508474,32.687690489519184C13.220338983050846,32.44718127345483,14.23728813559322,32.00970330285501,15.254237288135592,31.767120731479753C16.271186440677965,31.5245381601045,17.28813559322034,31.42294374987042,18.305084745762713,31.232195061267653C19.322033898305087,31.041446372664886,20.338983050847457,30.89755551408845,21.35593220338983,30.62262859986316C22.372881355932204,30.34770168563787,23.389830508474574,29.827289502602063,24.406779661016948,29.582633575915906C25.423728813559322,29.33797764922975,26.440677966101696,29.305218635317534,27.45762711864407,29.15469303974622C28.47457627118644,29.004167444174907,29.491525423728813,28.83124961124588,30.508474576271183,28.679480002488027C31.525423728813557,28.527710393730175,32.54237288135593,28.534345130725054,33.559322033898304,28.244075387199103C34.57627118644068,27.953805643673153,35.59322033898305,27.0398706226286,36.610169491525426,26.66417864029359C37.6271186440678,26.288486657958575,38.644067796610166,26.439426924592066,39.66101694915254,25.989923493189025C40.67796610169491,25.54042006178598,41.69491525423729,23.255582509174598,42.71186440677966,22.359893014865957C43.728813559322035,21.46420352055732,44.7457627118644,21.082706143351785,45.762711864406775,20.61578652733719C46.77966101694915,20.148866911322592,47.79661016949152,19.84325433849599,48.813559322033896,19.55837531877838C49.83050847457627,19.273496299060774,50.847457627118644,19.120897348178556,51.86440677966102,18.906512409031535C52.88135593220339,18.692127469884515,53.898305084745765,18.695030167319775,54.91525423728814,18.27206568389625C55.93220338983051,17.84910120047273,56.94915254237288,15.797308784806454,57.96610169491525,15.560116937239536C58.983050847457626,15.32292508967262,59.99999999999999,15.441521013456077,61.01694915254237,15.20432916588916C62.03389830508474,14.96713731832224,63.05084745762712,14.370840330907507,64.0677966101695,13.90309137276855C65.08474576271186,13.435342414629595,66.10169491525424,12.771454044079533,67.11864406779661,12.397835417055422C68.13559322033899,12.024216790031307,69.15254237288136,11.81397856150609,70.16949152542374,11.661379610623875C71.1864406779661,11.50878065974166,72.20338983050848,11.585080135182768,73.22033898305085,11.432481184300553C74.23728813559322,11.279882233418338,75.2542372881356,11.024444859115505,76.27118644067797,10.71841761522672C77.28813559322033,10.412390371337935,78.30508474576271,9.898198254234828,79.32203389830508,9.596317720967843C80.33898305084746,9.294437187700856,81.35593220338983,9.153863697621864,82.37288135593221,8.907134415624807C83.38983050847457,8.660405133627751,84.40677966101696,8.354377889738965,85.42372881355932,8.115942028985508C86.4406779661017,7.87750616823205,87.45762711864407,7.571064253281088,88.47457627118645,7.4765192511040635C89.49152542372882,7.3819742489270395,90.50847457627118,7.429246750015552,91.52542372881355,7.334701747838528C92.54237288135593,7.240156745661503,93.55932203389831,7.00379424021895,94.57627118644069,6.8271443677303C95.59322033898306,6.650494495241652,96.61016949152543,6.467624556820302,97.62711864406779,6.2748025129066365C98.64406779661016,6.08198046899297,99.66101694915254,5.8435446082395135,100.6779661016949,5.6702121042483045C101.69491525423729,5.496879600257095,102.71186440677965,5.358379465489001,103.72881355932203,5.234807488959383C104.7457627118644,5.111235512429766,105.76271186440678,5.028301299993779,106.77966101694915,4.928780245070596C107.79661016949153,4.829259190147414,108.8135593220339,4.708589911053055,109.83050847457628,4.637681159420288C110.84745762711864,4.566772407787521,111.86440677966102,4.556820302295204,112.88135593220339,4.503327735273994C113.89830508474576,4.449835168252784,114.91525423728814,4.398001285480293,115.9322033898305,4.316725757293027C116.94915254237289,4.235450229105761,117.96610169491525,4.116439634260122,118.98305084745763,4.0156745661504C120,3.9149094980406787,121.01694915254237,3.811241732495697,122.03389830508473,3.7121353486346953C123.05084745762711,3.6130289647736924,124.0677966101695,3.503970475420372,125.08474576271188,3.421036262984387C126.10169491525424,3.338102050548403,127.11864406779662,3.296220273268232,128.135593220339,3.2145300740187865C129.15254237288136,3.1328398747693416,130.16949152542372,2.9773382264518675,131.1864406779661,2.9308950674877154C132.20338983050846,2.884451908523563,133.22033898305085,2.8960626982646,134.23728813559322,2.8612303290414864C135.25423728813558,2.826397959818373,136.27118644067798,2.770002695361904,137.28813559322035,2.721900852149033C138.3050847457627,2.673799008936162,139.3220338983051,2.638137297588689,140.33898305084747,2.5726192697642603C141.35593220338984,2.5071012419398317,142.3728813559322,2.400945450021768,143.38983050847457,2.328792685202461C144.40677966101694,2.256639920383153,145.42372881355934,2.1869751819369276,146.4406779661017,2.1397026808484165C147.45762711864407,2.092430179759906,148.47457627118644,2.0911861665733658,149.4915254237288,2.0451576786713943C150.50847457627117,1.9991291907694226,151.52542372881356,1.9481246501212917,152.54237288135593,1.863531753436587C153.5593220338983,1.7789388567518822,154.5762711864407,1.6147291161286326,155.59322033898306,1.5376002985631665C156.61016949152543,1.460471480997701,157.6271186440678,1.4455433227592223,158.64406779661016,1.4007588480437905C159.66101694915253,1.3559743733283582,160.67796610169492,1.3464369388982205,161.6949152542373,1.268893450270574C162.71186440677965,1.1913499616429275,163.72881355932205,1.012626733843378,164.74576271186442,0.935497916277912C165.76271186440678,0.8583690987124466,166.77966101694915,0.8923721258112005,167.79661016949152,0.8061205448777775C168.81355932203388,0.7198689639443537,169.83050847457628,0.47148099769857826,170.84745762711864,0.3657398768426967C171.864406779661,0.25999875598681516,172.8813559322034,0.23263046588293776,173.89830508474577,0.1716738197424883C174.91525423728814,0.11071717360203884,175.93220338983053,0,176.9491525423729,0C177.96610169491527,0,178.98305084745763,0,180,0"></path><path class="axis-ceiling" stroke-width="1" stroke="black" fill="none" d="M175,-11.999751197362691L180,-11.999751197362691"></path><text class="axis-ceiling-label" font-family="sans-serif" text-anchor="end" font-size="10px" x="170" y="-9.499751197362691">20900</text></g></svg>