<svg xmlns="http://www.w3.org/2000/svg" viewBox="0 0 180 60"><g transform="translate(0,20)"><path class="area" fill="rgba(0, 0, 0, 0.2)" d="M0,14.81398C1.0169491525423728,14.756325000000002,2.0338983050847457,14.698670000000002,3.0508474576271185,14.640620000000002C4.067796610169491,14.582570000000002,5.084745762711864,14.523466666666668,6.101694915254237,14.46568C7.11864406779661,14.407893333333334,8.135593220338983,14.351558,9.152542372881356,14.2939C10.169491525423728,14.236242,11.186440677966102,14.178576666666666,12.203389830508474,14.119731999999999C13.220338983050846,14.060887333333332,14.23728813559322,14.000447333333332,15.254237288135592,13.940831999999999C16.271186440677965,13.881216666666665,17.28813559322034,13.821937333333333,18.305084745762713,13.762039999999999C19.322033898305087,13.702142666666665,20.338983050847457,13.641789333333332,21.35593220338983,13.581447999999998C22.372881355932204,13.521106666666665,23.389830508474574,13.460746666666664,24.406779661016948,13.399991999999997C25.423728813559322,13.339237333333331,26.440677966101696,13.278737333333336,27.45762711864407,13.216920000000002C28.47457627118644,13.15510266666667,29.491525423728813,13.091732,30.508474576271183,13.029088C31.525423728813557,12.966444,32.54237288135593,12.905094000000002,33.559322033898304,12.841056000000002C34.57627118644068,12.777018000000002,35.59322033898305,12.710472000000001,36.610169491525426,12.644860000000001C37.6271186440678,12.579248000000002,38.644067796610166,12.512676,39.66101694915254,12.447384000000001C40.67796610169491,12.382092,41.69491525423729,12.318810666666666,42.71186440677966,12.253108C43.728813559322035,12.187405333333333,44.7457627118644,12.119720666666666,45.762711864406775,12.053168C46.77966101694915,11.986615333333333,47.79661016949152,11.920185333333333,48.813559322033896,11.853791999999999C49.83050847457627,11.787398666666665,50.847457627118644,11.72067,51.86440677966102,11.654808000000001C52.88135593220339,11.588946000000002,53.898305084745765,11.523140000000001,54.91525423728814,11.458620000000002C55.93220338983051,11.394100000000002,56.94915254237288,11.330813999999998,57.96610169491525,11.267687999999998C58.983050847457626,11.204561999999997,59.99999999999999,11.142077333333333,61.01694915254237,11.079864C62.03389830508474,11.017650666666668,63.05084745762712,10.954247333333335,64.0677966101695,10.894408000000002C65.08474576271186,10.83456866666667,66.10169491525424,10.778400000000001,67.11864406779661,10.720828000000001C68.13559322033899,10.663256,69.15254237288136,10.605689333333334,70.16949152542374,10.548976C71.1864406779661,10.492262666666665,72.20338983050848,10.436046666666664,73.22033898305085,10.380547999999997C74.23728813559322,10.32504933333333,75.2542372881356,10.269915999999998,76.27118644067797,10.215983999999999C77.28813559322033,10.162052,78.30508474576271,10.109564,79.32203389830508,10.056956000000001C80.33898305084746,10.004348000000002,81.35593220338983,9.952757333333333,82.37288135593221,9.900336C83.38983050847457,9.847914666666666,84.40677966101696,9.795207999999999,85.42372881355932,9.742427999999999C86.4406779661017,9.689647999999998,87.45762711864407,9.635672666666668,88.47457627118645,9.583656000000001C89.49152542372882,9.531639333333334,90.50847457627118,9.481252666666668,91.52542372881355,9.430328000000001C92.54237288135593,9.379403333333334,93.55932203389831,9.328510666666666,94.57627118644069,9.278108C95.59322033898306,9.227705333333333,96.61016949152543,9.178396000000001,97.62711864406779,9.127912C98.64406779661016,9.077428,99.66101694915254,9.025483999999999,100.6779661016949,8.975203999999998C101.69491525423729,8.924923999999997,102.71186440677965,8.874489999999996,103.72881355932203,8.826231999999997C104.7457627118644,8.777973999999999,105.76271186440678,8.731444666666668,106.77966101694915,8.685656000000002C107.79661016949153,8.639867333333335,108.8135593220339,8.595956666666668,109.83050847457628,8.5515C110.84745762711864,8.507043333333334,111.86440677966102,8.463048666666666,112.88135593220339,8.418916C113.89830508474576,8.374783333333333,114.91525423728814,8.331336,115.9322033898305,8.286704C116.94915254237289,8.242072,117.96610169491525,8.195828666666666,118.98305084745763,8.151124C120,8.106419333333333,121.01694915254237,8.063455999999999,122.03389830508473,8.018476C123.05084745762711,7.973496,124.0677966101695,7.927897333333334,125.08474576271188,7.881244000000001C126.10169491525424,7.834590666666668,127.11864406779662,7.786986666666668,128.135593220339,7.738556000000001C129.15254237288136,7.6901253333333335,130.16949152542372,7.640423333333331,131.1864406779661,7.590659999999998C132.20338983050846,7.540896666666664,133.22033898305085,7.490140000000001,134.23728813559322,7.4399760000000015C135.25423728813558,7.389812000000002,136.27118644067798,7.339704666666665,137.28813559322035,7.289675999999998C138.3050847457627,7.239647333333331,139.3220338983051,7.189277333333334,140.33898305084747,7.139804000000001C141.35593220338984,7.0903306666666674,142.3728813559322,7.041841999999998,143.38983050847457,6.992835999999998C144.40677966101694,6.9438299999999975,145.42372881355934,6.8946679999999985,146.4406779661017,6.845767999999999C147.45762711864407,6.796867999999999,148.47457627118644,6.748073333333331,149.4915254237288,6.699435999999999C150.50847457627117,6.650798666666665,151.52542372881356,6.602286666666667,152.54237288135593,6.553944C153.5593220338983,6.505601333333334,154.5762711864407,6.457479333333332,155.59322033898306,6.409379999999998C156.61016949152543,6.361280666666665,157.6271186440678,6.313031333333332,158.64406779661016,6.2653479999999995C159.66101694915253,6.217664666666667,160.67796610169492,6.170414000000002,161.6949152542373,6.123280000000002C162.71186440677965,6.076146000000002,163.72881355932205,6.028714666666668,164.74576271186442,5.982544000000001C165.76271186440678,5.936373333333334,166.77966101694915,5.890811999999999,167.79661016949152,5.846255999999999C168.81355932203388,5.8016999999999985,169.83050847457628,5.758203333333334,170.84745762711864,5.7152080000000005C171.864406779661,5.672212666666667,172.8813559322034,5.629930666666666,173.89830508474577,5.588283999999999C174.91525423728814,5.546637333333332,175.93220338983053,5.505390666666667,176.9491525423729,5.465328C177.96610169491527,5.425265333333335,178.98305084745763,5.386586666666668,180,5.347908000000001L180,40C178.98305084745763,40,177.96610169491527,40,176.9491525423729,40C175.93220338983053,40,174.91525423728814,40,173.89830508474577,40C172.8813559322034,40,171.864406779661,40,170.84745762711864,40C169.83050847457628,40,168.81355932203388,40,167.79661016949152,40C166.77966101694915,40,165.76271186440678,40,164.74576271186442,40C163.72881355932205,40,162.71186440677965,40,161.6949152542373,40C160.67796610169492,40,159.66101694915253,40,158.64406779661016,40C157.6271186440678,40,156.61016949152543,40,155.59322033898306,40C154.5762711864407,40,153.5593220338983,40,152.54237288135593,40C151.52542372881356,40,150.50847457627117,40,149.4915254237288,40C148.47457627118644,40,147.45762711864407,40,146.4406779661017,40C145.42372881355934,40,144.40677966101694,40,143.38983050847457,40C142.3728813559322,40,141.35593220338984,40,140.33898305084747,40C139.3220338983051,40,138.3050847457627,40,137.28813559322035,40C136.27118644067798,40,135.25423728813558,40,134.23728813559322,40C133.22033898305085,40,132.20338983050846,40,131.1864406779661,40C130.16949152542372,40,129.15254237288136,40,128.135593220339,40C127.11864406779662,40,126.10169491525424,40,125.08474576271188,40C124.0677966101695,40,123.05084745762711,40,122.03389830508473,40C121.01694915254237,40,120,40,118.98305084745763,40C117.96610169491525,40,116.94915254237289,40,115.9322033898305,40C114.91525423728814,40,113.89830508474576,40,112.88135593220339,40C111.86440677966102,40,110.84745762711864,40,109.83050847457628,40C108.8135593220339,40,107.79661016949153,40,106.77966101694915,40C105.76271186440678,40,104.7457627118644,40,103.72881355932203,40C102.71186440677965,40,101.69491525423729,40,100.6779661016949,40C99.66101694915254,40,98.64406779661016,40,97.62711864406779,40C96.61016949152543,40,95.59322033898306,40,94.57627118644069,40C93.55932203389831,40,92.54237288135593,40,91.52542372881355,40C90.50847457627118,40,89.49152542372882,40,88.47457627118645,40C87.45762711864407,40,86.4406779661017,40,85.42372881355932,40C84.40677966101696,40,83.38983050847457,40,82.37288135593221,40C81.35593220338983,40,80.33898305084746,40,79.32203389830508,40C78.30508474576271,40,77.28813559322033,40,76.27118644067797,40C75.2542372881356,40,74.23728813559322,40,73.22033898305085,40C72.20338983050848,40,71.1864406779661,40,70.16949152542374,40C69.15254237288136,40,68.13559322033899,40,67.11864406779661,40C66.10169491525424,40,65.08474576271186,40,64.0677966101695,40C63.05084745762712,40,62.03389830508474,40,61.01694915254237,40C59.99999999999999,40,58.983050847457626,40,57.96610169491525,40C56.94915254237288,40,55.93220338983051,40,54.91525423728814,40C53.898305084745765,40,52.88135593220339,40,51.86440677966102,40C50.847457627118644,40,49.83050847457627,40,48.813559322033896,40C47.79661016949152,40,46.77966101694915,40,45.762711864406775,40C44.7457627118644,40,43.728813559322035,40,42.71186440677966,40C41.69491525423729,40,40.67796610169491,40,39.66101694915254,40C38.644067796610166,40,37.6271186440678,40,36.610169491525426,40C35.59322033898305,40,34.57627118644068,40,33.559322033898304,40C32.54237288135593,40,31.525423728813557,40,30.508474576271183,40C29.491525423728813,40,28.47457627118644,40,27.45762711864407,40C26.440677966101696,40,25.423728813559322,40,24.406779661016948,40C23.389830508474574,40,22.372881355932204,40,21.35593220338983,40C20.338983050847457,40,19.322033898305087,40,18.305084745762713,40C17.28813559322034,40,16.271186440677965,40,15.254237288135592,40C14.23728813559322,40,13.220338983050846,40,12.203389830508474,40C11.186440677966102,40,10.169491525423728,40,9.152542372881356,40C8.135593220338983,40,7.11864406779661,40,6.101694915254237,40C5.084745762711864,40,4.067796610169491,40,3.0508474576271185,40C2.0338983050847457,40,1.0169491525423728,40,0,40Z"></path><path class="line" stroke="black" fill="none" d="M0,14.81398C1.0169491525423728,14.756325000000002,2.0338983050847457,14.698670000000002,3.0508474576271185,14.640620000000002C4.067796610169491,14.582570000000002,5.084745762711864,14.523466666666668,6.101694915254237,14.46568C7.11864406779661,14.407893333333334,8.135593220338983,14.351558,9.152542372881356,14.2939C10.169491525423728,14.236242,11.186440677966102,14.178576666666666,12.203389830508474,14.119731999999999C13.220338983050846,14.060887333333332,14.23728813559322,14.000447333333332,15.254237288135592,13.940831999999999C16.271186440677965,13.881216666666665,17.28813559322034,13.821937333333333,18.305084745762713,13.762039999999999C19.322033898305087,13.702142666666665,20.338983050847457,13.641789333333332,21.35593220338983,13.581447999999998C22.372881355932204,13.521106666666665,23.389830508474574,13.460746666666664,24.406779661016948,13.399991999999997C25.423728813559322,13.339237333333331,26.440677966101696,13.278737333333336,27.45762711864407,13.216920000000002C28.47457627118644,13.15510266666667,29.491525423728813,13.091732,30.508474576271183,13.029088C31.525423728813557,12.966444,32.54237288135593,12.905094000000002,33.559322033898304,12.841056000000002C34.57627118644068,12.777018000000002,35.59322033898305,12.710472000000001,36.610169491525426,12.644860000000001C37.6271186440678,12.579248000000002,38.644067796610166,12.512676,39.66101694915254,12.447384000000001C40.67796610169491,12.382092,41.69491525423729,12.318810666666666,42.71186440677966,12.253108C43.728813559322035,12.187405333333333,44.7457627118644,12.119720666666666,45.762711864406775,12.053168C46.77966101694915,11.986615333333333,47.79661016949152,11.920185333333333,48.813559322033896,11.853791999999999C49.83050847457627,11.787398666666665,50.847457627118644,11.72067,51.86440677966102,11.654808000000001C52.88135593220339,11.588946000000002,53.898305084745765,11.523140000000001,54.91525423728814,11.458620000000002C55.93220338983051,11.394100000000002,56.94915254237288,11.330813999999998,57.96610169491525,11.267687999999998C58.983050847457626,11.204561999999997,59.99999999999999,11.142077333333333,61.01694915254237,11.079864C62.03389830508474,11.017650666666668,63.05084745762712,10.954247333333335,64.0677966101695,10.894408000000002C65.08474576271186,10.83456866666667,66.10169491525424,10.778400000000001,67.11864406779661,10.720828000000001C68.13559322033899,10.663256,69.15254237288136,10.605689333333334,70.16949152542374,10.548976C71.1864406779661,10.492262666666665,72.20338983050848,10.436046666666664,73.22033898305085,10.380547999999997C74.23728813559322,10.32504933333333,75.2542372881356,10.269915999999998,76.27118644067797,10.215983999999999C77.28813559322033,10.162052,78.30508474576271,10.109564,79.32203389830508,10.056956000000001C80.33898305084746,10.004348000000002,81.35593220338983,9.952757333333333,82.37288135593221,9.900336C83.38983050847457,9.847914666666666,84.40677966101696,9.795207999999999,85.42372881355932,9.742427999999999C86.4406779661017,9.689647999999998,87.45762711864407,9.635672666666668,88.47457627118645,9.583656000000001C89.49152542372882,9.531639333333334,90.50847457627118,9.481252666666668,91.52542372881355,9.430328000000001C92.54237288135593,9.379403333333334,93.55932203389831,9.328510666666666,94.57627118644069,9.278108C95.59322033898306,9.227705333333333,96.61016949152543,9.178396000000001,97.62711864406779,9.127912C98.64406779661016,9.077428,99.66101694915254,9.025483999999999,100.6779661016949,8.975203999999998C101.69491525423729,8.924923999999997,102.71186440677965,8.874489999999996,103.72881355932203,8.826231999999997C104.7457627118644,8.777973999999999,105.76271186440678,8.731444666666668,106.77966101694915,8.685656000000002C107.79661016949153,8.639867333333335,108.8135593220339,8.595956666666668,109.83050847457628,8.5515C110.84745762711864,8.507043333333334,111.86440677966102,8.463048666666666,112.88135593220339,8.418916C113.89830508474576,8.374783333333333,114.91525423728814,8.331336,115.9322033898305,8.286704C116.94915254237289,8.242072,117.96610169491525,8.195828666666666,118.98305084745763,8.151124C120,8.106419333333333,121.01694915254237,8.063455999999999,122.03389830508473,8.018476C123.05084745762711,7.973496,124.0677966101695,7.927897333333334,125.08474576271188,7.881244000000001C126.10169491525424,7.834590666666668,127.11864406779662,7.786986666666668,128.135593220339,7.738556000000001C129.15254237288136,7.6901253333333335,130.16949152542372,7.640423333333331,131.1864406779661,7.590659999999998C132.20338983050846,7.540896666666664,133.22033898305085,7.490140000000001,134.23728813559322,7.4399760000000015C135.25423728813558,7.389812000000002,136.27118644067798,7.339704666666665,137.28813559322035,7.289675999999998C138.3050847457627,7.239647333333331,139.3220338983051,7.189277333333334,140.33898305084747,7.139804000000001C141.35593220338984,7.0903306666666674,142.3728813559322,7.041841999999998,143.38983050847457,6.992835999999998C144.40677966101694,6.9438299999999975,145.42372881355934,6.8946679999999985,146.4406779661017,6.845767999999999C147.45762711864407,6.796867999999999,148.47457627118644,6.748073333333331,149.4915254237288,6.699435999999999C150.50847457627117,6.650798666666665,151.52542372881356,6.602286666666667,152.54237288135593,6.553944C153.5593220338983,6.505601333333334,154.5762711864407,6.457479333333332,155.59322033898306,6.409379999999998C156.61016949152543,6.361280666666665,157.6271186440678,6.313031333333332,158.64406779661016,6.2653479999999995C159.66101694915253,6.217664666666667,160.67796610169492,6.170414000000002,161.6949152542373,6.123280000000002C162.71186440677965,6.076146000000002,163.72881355932205,6.028714666666668,164.74576271186442,5.982544000000001C165.76271186440678,5.936373333333334,166.77966101694915,5.890811999999999,167.79661016949152,5.846255999999999C168.81355932203388,5.8016999999999985,169.83050847457628,5.758203333333334,170.84745762711864,5.7152080000000005C171.864406779661,5.672212666666667,172.8813559322034,5.629930666666666,173.89830508474577,5.588283999999999C174.91525423728814,5.546637333333332,175.93220338983053,5.505390666666667,176.9491525423729,5.465328C177.96610169491527,5.425265333333335,178.98305084745763,5.386586666666668,180,5.347908000000001"></path><path class="axis-ceiling" stroke-width="1" stroke="black" fill="none" d="M175,0L180,0"></path><text class="axis-ceiling-label" font-family="sans-serif" text-anchor="end" font-size="10px" x="170" y="2.5">10000000</text></g></svg>