<svg xmlns="http://www.w3.org/2000/svg" viewBox="0 0 180 60"><g transform="translate(0,20)"><path class="area" fill="rgba(0, 0, 0, 0.2)" d="M0,21.06284C1.0169491525423728,21.030283333333333,2.0338983050847457,20.997726666666665,3.0508474576271185,20.96492C4.067796610169491,20.932113333333334,5.084745762711864,20.899566666666665,6.101694915254237,20.866C7.11864406779661,20.832433333333334,8.135593220338983,20.797826666666666,9.152542372881356,20.76352C10.169491525423728,20.729213333333334,11.186440677966102,20.695780000000006,12.203389830508474,20.660160000000005C13.220338983050846,20.624540000000003,14.23728813559322,20.58710666666667,15.254237288135592,20.5498C16.271186440677965,20.51249333333333,17.28813559322034,20.475059999999996,18.305084745762713,20.436319999999995C19.322033898305087,20.397579999999994,20.338983050847457,20.35784,21.35593220338983,20.31736C22.372881355932204,20.276880000000002,23.389830508474574,20.23534666666667,24.406779661016948,20.193440000000002C25.423728813559322,20.151533333333337,26.440677966101696,20.109193333333334,27.45762711864407,20.06592C28.47457627118644,20.022646666666667,29.491525423728813,19.97858,30.508474576271183,19.9338C31.525423728813557,19.889020000000002,32.54237288135593,19.843013333333335,33.559322033898304,19.797240000000002C34.57627118644068,19.75146666666667,35.59322033898305,19.705973333333333,36.610169491525426,19.65916C37.6271186440678,19.612346666666667,38.644067796610166,19.56456,39.66101694915254,19.516360000000002C40.67796610169491,19.46816,41.69491525423729,19.41944,42.71186440677966,19.369960000000003C43.728813559322035,19.320480000000003,44.7457627118644,19.269746666666666,45.762711864406775,19.21948C46.77966101694915,19.169213333333335,47.79661016949152,19.11914666666667,48.813559322033896,19.068360000000002C49.83050847457627,19.017573333333335,50.847457627118644,18.96608,51.86440677966102,18.91476C52.88135593220339,18.86344,53.898305084745765,18.811873333333335,54.91525423728814,18.76044C55.93220338983051,18.709006666666667,56.94915254237288,18.6586,57.96610169491525,18.60616C58.983050847457626,18.55372,59.99999999999999,18.499353333333335,61.01694915254237,18.445800000000002C62.03389830508474,18.39224666666667,63.05084745762712,18.33879333333333,64.0677966101695,18.28484C65.08474576271186,18.230886666666667,66.10169491525424,18.177106666666667,67.11864406779661,18.12208C68.13559322033899,18.067053333333334,69.15254237288136,18.01078,70.16949152542374,17.95468C71.1864406779661,17.89858,72.20338983050848,17.843533333333333,73.22033898305085,17.78548C74.23728813559322,17.727426666666666,75.2542372881356,17.668026666666666,76.27118644067797,17.60636C77.28813559322033,17.54469333333333,78.30508474576271,17.479173333333332,79.32203389830508,17.41548C80.33898305084746,17.351786666666666,81.35593220338983,17.289073333333334,82.37288135593221,17.2242C83.38983050847457,17.15932666666667,84.40677966101696,17.09316,85.42372881355932,17.02624C86.4406779661017,16.95932,87.45762711864407,16.893013333333336,88.47457627118645,16.822680000000002C89.49152542372882,16.752346666666668,90.50847457627118,16.679246666666664,91.52542372881355,16.604239999999997C92.54237288135593,16.52923333333333,93.55932203389831,16.450680000000002,94.57627118644069,16.37264C95.59322033898306,16.294600000000003,96.61016949152543,16.21559333333333,97.62711864406779,16.136C98.64406779661016,16.056406666666664,99.66101694915254,15.9769,100.6779661016949,15.89508C101.69491525423729,15.81326,102.71186440677965,15.728713333333333,103.72881355932203,15.64508C104.7457627118644,15.561446666666667,105.76271186440678,15.477826666666664,106.77966101694915,15.393279999999997C107.79661016949153,15.30873333333333,108.8135593220339,15.221140000000002,109.83050847457628,15.137800000000002C110.84745762711864,15.054460000000002,111.86440677966102,14.973073333333332,112.88135593220339,14.893239999999999C113.89830508474576,14.813406666666666,114.91525423728814,14.735873333333332,115.9322033898305,14.6588C116.94915254237289,14.581726666666667,117.96610169491525,14.505106666666668,118.98305084745763,14.430800000000001C120,14.356493333333335,121.01694915254237,14.285853333333332,122.03389830508473,14.212959999999999C123.05084745762711,14.140066666666666,124.0677966101695,14.065906666666669,125.08474576271188,13.993440000000001C126.10169491525424,13.920973333333336,127.11864406779662,13.848313333333335,128.135593220339,13.778160000000002C129.15254237288136,13.708006666666668,130.16949152542372,13.640566666666667,131.1864406779661,13.572519999999999C132.20338983050846,13.504473333333332,133.22033898305085,13.437233333333332,134.23728813559322,13.369879999999998C135.25423728813558,13.302526666666665,136.27118644067798,13.235693333333334,137.28813559322035,13.1684C138.3050847457627,13.101106666666666,139.3220338983051,13.033433333333335,140.33898305084747,12.96612C141.35593220338984,12.898806666666667,142.3728813559322,12.829353333333332,143.38983050847457,12.76452C144.40677966101694,12.699686666666665,145.42372881355934,12.638593333333334,146.4406779661017,12.57712C147.45762711864407,12.515646666666667,148.47457627118644,12.455226666666665,149.4915254237288,12.395679999999999C150.50847457627117,12.336133333333331,151.52542372881356,12.277333333333333,152.54237288135593,12.21984C153.5593220338983,12.162346666666666,154.5762711864407,12.105993333333332,155.59322033898306,12.050719999999998C156.61016949152543,11.995446666666666,157.6271186440678,11.941246666666668,158.64406779661016,11.888200000000001C159.66101694915253,11.835153333333334,160.67796610169492,11.7834,161.6949152542373,11.73244C162.71186440677965,11.68148,163.72881355932205,11.631306666666665,164.74576271186442,11.582439999999998C165.76271186440678,11.533573333333331,166.77966101694915,11.486160000000002,167.79661016949152,11.439240000000002C168.81355932203388,11.392320000000002,169.83050847457628,11.346639999999999,170.84745762711864,11.300919999999998C171.864406779661,11.255199999999997,172.8813559322034,11.209586666666667,173.89830508474577,11.16492C174.91525423728814,11.120253333333334,175.93220338983053,11.073500000000001,176.9491525423729,11.03292C177.96610169491527,10.99234,178.98305084745763,10.956889999999998,180,10.921439999999997L180,40C178.98305084745763,40,177.96610169491527,40,176.9491525423729,40C175.93220338983053,40,174.91525423728814,40,173.89830508474577,40C172.8813559322034,40,171.864406779661,40,170.84745762711864,40C169.83050847457628,40,168.81355932203388,40,167.79661016949152,40C166.77966101694915,40,165.76271186440678,40,164.74576271186442,40C163.72881355932205,40,162.71186440677965,40,161.6949152542373,40C160.67796610169492,40,159.66101694915253,40,158.64406779661016,40C157.6271186440678,40,156.61016949152543,40,155.59322033898306,40C154.5762711864407,40,153.5593220338983,40,152.54237288135593,40C151.52542372881356,40,150.50847457627117,40,149.4915254237288,40C148.47457627118644,40,147.45762711864407,40,146.4406779661017,40C145.42372881355934,40,144.40677966101694,40,143.38983050847457,40C142.3728813559322,40,141.35593220338984,40,140.33898305084747,40C139.3220338983051,40,138.3050847457627,40,137.28813559322035,40C136.27118644067798,40,135.25423728813558,40,134.23728813559322,40C133.22033898305085,40,132.20338983050846,40,131.1864406779661,40C130.16949152542372,40,129.15254237288136,40,128.135593220339,40C127.11864406779662,40,126.10169491525424,40,125.08474576271188,40C124.0677966101695,40,123.05084745762711,40,122.03389830508473,40C121.01694915254237,40,120,40,118.98305084745763,40C117.96610169491525,40,116.94915254237289,40,115.9322033898305,40C114.91525423728814,40,113.89830508474576,40,112.88135593220339,40C111.86440677966102,40,110.84745762711864,40,109.83050847457628,40C108.8135593220339,40,107.79661016949153,40,106.77966101694915,40C105.76271186440678,40,104.7457627118644,40,103.72881355932203,40C102.71186440677965,40,101.69491525423729,40,100.6779661016949,40C99.66101694915254,40,98.64406779661016,40,97.62711864406779,40C96.61016949152543,40,95.59322033898306,40,94.57627118644069,40C93.55932203389831,40,92.54237288135593,40,91.52542372881355,40C90.50847457627118,40,89.49152542372882,40,88.47457627118645,40C87.45762711864407,40,86.4406779661017,40,85.42372881355932,40C84.40677966101696,40,83.38983050847457,40,82.37288135593221,40C81.35593220338983,40,80.33898305084746,40,79.32203389830508,40C78.30508474576271,40,77.28813559322033,40,76.27118644067797,40C75.2542372881356,40,74.23728813559322,40,73.22033898305085,40C72.20338983050848,40,71.1864406779661,40,70.16949152542374,40C69.15254237288136,40,68.13559322033899,40,67.11864406779661,40C66.10169491525424,40,65.08474576271186,40,64.0677966101695,40C63.05084745762712,40,62.03389830508474,40,61.01694915254237,40C59.99999999999999,40,58.983050847457626,40,57.96610169491525,40C56.94915254237288,40,55.93220338983051,40,54.91525423728814,40C53.898305084745765,40,52.88135593220339,40,51.86440677966102,40C50.847457627118644,40,49.83050847457627,40,48.813559322033896,40C47.79661016949152,40,46.77966101694915,40,45.762711864406775,40C44.7457627118644,40,43.728813559322035,40,42.71186440677966,40C41.69491525423729,40,40.67796610169491,40,39.66101694915254,40C38.644067796610166,40,37.6271186440678,40,36.610169491525426,40C35.59322033898305,40,34.57627118644068,40,33.559322033898304,40C32.54237288135593,40,31.525423728813557,40,30.508474576271183,40C29.491525423728813,40,28.47457627118644,40,27.45762711864407,40C26.440677966101696,40,25.423728813559322,40,24.406779661016948,40C23.389830508474574,40,22.372881355932204,40,21.35593220338983,40C20.338983050847457,40,19.322033898305087,40,18.305084745762713,40C17.28813559322034,40,16.271186440677965,40,15.254237288135592,40C14.23728813559322,40,13.220338983050846,40,12.203389830508474,40C11.186440677966102,40,10.169491525423728,40,9.152542372881356,40C8.135593220338983,40,7.11864406779661,40,6.101694915254237,40C5.084745762711864,40,4.067796610169491,40,3.0508474576271185,40C2.0338983050847457,40,1.0169491525423728,40,0,40Z"></path><path class="line" stroke="black" fill="none" d="M0,21.06284C1.0169491525423728,21.030283333333333,2.0338983050847457,20.997726666666665,3.0508474576271185,20.96492C4.067796610169491,20.932113333333334,5.084745762711864,20.899566666666665,6.101694915254237,20.866C7.11864406779661,20.832433333333334,8.135593220338983,20.797826666666666,9.152542372881356,20.76352C10.169491525423728,20.729213333333334,11.186440677966102,20.695780000000006,12.203389830508474,20.660160000000005C13.220338983050846,20.624540000000003,14.23728813559322,20.58710666666667,15.254237288135592,20.5498C16.271186440677965,20.51249333333333,17.28813559322034,20.475059999999996,18.305084745762713,20.436319999999995C19.322033898305087,20.397579999999994,20.338983050847457,20.35784,21.35593220338983,20.31736C22.372881355932204,20.276880000000002,23.389830508474574,20.23534666666667,24.406779661016948,20.193440000000002C25.423728813559322,20.151533333333337,26.440677966101696,20.109193333333334,27.45762711864407,20.06592C28.47457627118644,20.022646666666667,29.491525423728813,19.97858,30.508474576271183,19.9338C31.525423728813557,19.889020000000002,32.54237288135593,19.843013333333335,33.559322033898304,19.797240000000002C34.57627118644068,19.75146666666667,35.59322033898305,19.705973333333333,36.610169491525426,19.65916C37.6271186440678,19.612346666666667,38.644067796610166,19.56456,39.66101694915254,19.516360000000002C40.67796610169491,19.46816,41.69491525423729,19.41944,42.71186440677966,19.369960000000003C43.728813559322035,19.320480000000003,44.7457627118644,19.269746666666666,45.762711864406775,19.21948C46.77966101694915,19.169213333333335,47.79661016949152,19.11914666666667,48.813559322033896,19.068360000000002C49.83050847457627,19.017573333333335,50.847457627118644,18.96608,51.86440677966102,18.91476C52.88135593220339,18.86344,53.898305084745765,18.811873333333335,54.91525423728814,18.76044C55.93220338983051,18.709006666666667,56.94915254237288,18.6586,57.96610169491525,18.60616C58.983050847457626,18.55372,59.99999999999999,18.499353333333335,61.01694915254237,18.445800000000002C62.03389830508474,18.39224666666667,63.05084745762712,18.33879333333333,64.0677966101695,18.28484C65.08474576271186,18.230886666666667,66.10169491525424,18.177106666666667,67.11864406779661,18.12208C68.13559322033899,18.067053333333334,69.15254237288136,18.01078,70.16949152542374,17.95468C71.1864406779661,17.89858,72.20338983050848,17.843533333333333,73.22033898305085,17.78548C74.23728813559322,17.727426666666666,75.2542372881356,17.668026666666666,76.27118644067797,17.60636C77.28813559322033,17.54469333333333,78.30508474576271,17.479173333333332,79.32203389830508,17.41548C80.33898305084746,17.351786666666666,81.35593220338983,17.289073333333334,82.37288135593221,17.2242C83.38983050847457,17.15932666666667,84.40677966101696,17.09316,85.42372881355932,17.02624C86.4406779661017,16.95932,87.45762711864407,16.893013333333336,88.47457627118645,16.822680000000002C89.49152542372882,16.752346666666668,90.50847457627118,16.679246666666664,91.52542372881355,16.604239999999997C92.54237288135593,16.52923333333333,93.55932203389831,16.450680000000002,94.57627118644069,16.37264C95.59322033898306,16.294600000000003,96.61016949152543,16.21559333333333,97.62711864406779,16.136C98.64406779661016,16.056406666666664,99.66101694915254,15.9769,100.6779661016949,15.89508C101.69491525423729,15.81326,102.71186440677965,15.728713333333333,103.72881355932203,15.64508C104.7457627118644,15.561446666666667,105.76271186440678,15.477826666666664,106.77966101694915,15.393279999999997C107.79661016949153,15.30873333333333,108.8135593220339,15.221140000000002,109.83050847457628,15.137800000000002C110.84745762711864,15.054460000000002,111.86440677966102,14.973073333333332,112.88135593220339,14.893239999999999C113.89830508474576,14.813406666666666,114.91525423728814,14.735873333333332,115.9322033898305,14.6588C116.94915254237289,14.581726666666667,117.96610169491525,14.505106666666668,118.98305084745763,14.430800000000001C120,14.356493333333335,121.01694915254237,14.285853333333332,122.03389830508473,14.212959999999999C123.05084745762711,14.140066666666666,124.0677966101695,14.065906666666669,125.08474576271188,13.993440000000001C126.10169491525424,13.920973333333336,127.11864406779662,13.848313333333335,128.135593220339,13.778160000000002C129.15254237288136,13.708006666666668,130.16949152542372,13.640566666666667,131.1864406779661,13.572519999999999C132.20338983050846,13.504473333333332,133.22033898305085,13.437233333333332,134.23728813559322,13.369879999999998C135.25423728813558,13.302526666666665,136.27118644067798,13.235693333333334,137.28813559322035,13.1684C138.3050847457627,13.101106666666666,139.3220338983051,13.033433333333335,140.33898305084747,12.96612C141.35593220338984,12.898806666666667,142.3728813559322,12.829353333333332,143.38983050847457,12.76452C144.40677966101694,12.699686666666665,145.42372881355934,12.638593333333334,146.4406779661017,12.57712C147.45762711864407,12.515646666666667,148.47457627118644,12.455226666666665,149.4915254237288,12.395679999999999C150.50847457627117,12.336133333333331,151.52542372881356,12.277333333333333,152.54237288135593,12.21984C153.5593220338983,12.162346666666666,154.5762711864407,12.105993333333332,155.59322033898306,12.050719999999998C156.61016949152543,11.995446666666666,157.6271186440678,11.941246666666668,158.64406779661016,11.888200000000001C159.66101694915253,11.835153333333334,160.67796610169492,11.7834,161.6949152542373,11.73244C162.71186440677965,11.68148,163.72881355932205,11.631306666666665,164.74576271186442,11.582439999999998C165.76271186440678,11.533573333333331,166.77966101694915,11.486160000000002,167.79661016949152,11.439240000000002C168.81355932203388,11.392320000000002,169.83050847457628,11.346639999999999,170.84745762711864,11.300919999999998C171.864406779661,11.255199999999997,172.8813559322034,11.209586666666667,173.89830508474577,11.16492C174.91525423728814,11.120253333333334,175.93220338983053,11.073500000000001,176.9491525423729,11.03292C177.96610169491527,10.99234,178.98305084745763,10.956889999999998,180,10.921439999999997"></path><path class="axis-ceiling" stroke-width="1" stroke="black" fill="none" d="M175,0L180,0"></path><text class="axis-ceiling-label" font-family="sans-serif" text-anchor="end" font-size="10px" x="170" y="2.5">1000000</text></g></svg>