<svg xmlns="http://www.w3.org/2000/svg" viewBox="0 0 180 60"><g transform="translate(0,20)"><path class="area" fill="rgba(0, 0, 0, 0.2)" d="M0,17.21172C1.0169491525423728,17.21120333333333,2.0338983050847457,17.210686666666664,3.0508474576271185,17.21017333333333C4.067796610169491,17.209659999999996,5.084745762711864,17.20915777777778,6.101694915254237,17.208640000000003C7.11864406779661,17.208122222222226,8.135593220338983,17.20758222222222,9.152542372881356,17.207066666666666C10.169491525423728,17.20655111111111,11.186440677966102,17.20606888888889,12.203389830508474,17.205546666666667C13.220338983050846,17.205024444444444,14.23728813559322,17.20446666666667,15.254237288135592,17.203933333333335C16.271186440677965,17.203400000000002,17.28813559322034,17.20288222222222,18.305084745762713,17.202346666666667C19.322033898305087,17.201811111111112,20.338983050847457,17.201262222222223,21.35593220338983,17.20072C22.372881355932204,17.20017777777778,23.389830508474574,17.19964,24.406779661016948,17.199093333333334C25.423728813559322,17.198546666666665,26.440677966101696,17.198,27.45762711864407,17.19744C28.47457627118644,17.19688,29.491525423728813,17.196337777777778,30.508474576271183,17.195733333333333C31.525423728813557,17.19512888888889,32.54237288135593,17.194464444444442,33.559322033898304,17.19381333333333C34.57627118644068,17.19316222222222,35.59322033898305,17.192522222222223,36.610169491525426,17.191826666666667C37.6271186440678,17.191131111111112,38.644067796610166,17.190382222222222,39.66101694915254,17.18964C40.67796610169491,17.18889777777778,41.69491525423729,17.18814,42.71186440677966,17.187373333333333C43.728813559322035,17.186606666666666,44.7457627118644,17.185837777777774,45.762711864406775,17.185039999999997C46.77966101694915,17.18424222222222,47.79661016949152,17.18342,48.813559322033896,17.18258666666667C49.83050847457627,17.181753333333337,50.847457627118644,17.18087555555556,51.86440677966102,17.18004C52.88135593220339,17.179204444444444,53.898305084745765,17.178404444444443,54.91525423728814,17.17757333333333C55.93220338983051,17.17674222222222,56.94915254237288,17.175902222222224,57.96610169491525,17.175053333333334C58.983050847457626,17.174204444444445,59.99999999999999,17.1734,61.01694915254237,17.17248C62.03389830508474,17.17156,63.05084745762712,17.17058666666667,64.0677966101695,17.169533333333334C65.08474576271186,17.168480000000002,66.10169491525424,17.167375555555555,67.11864406779661,17.16616C68.13559322033899,17.164944444444444,69.15254237288136,17.16373777777778,70.16949152542374,17.16224C71.1864406779661,17.160742222222222,72.20338983050848,17.15902666666667,73.22033898305085,17.157173333333336C74.23728813559322,17.155320000000003,75.2542372881356,17.153388888888887,76.27118644067797,17.15112C77.28813559322033,17.14885111111111,78.30508474576271,17.14639777777778,79.32203389830508,17.14356C80.33898305084746,17.140722222222223,81.35593220338983,17.13784888888889,82.37288135593221,17.134093333333333C83.38983050847457,17.130337777777775,84.40677966101696,17.126379999999997,85.42372881355932,17.121026666666666C86.4406779661017,17.115673333333334,87.45762711864407,17.109286666666666,88.47457627118645,17.101973333333333C89.49152542372882,17.09466,90.50847457627118,17.087851111111107,91.52542372881355,17.077146666666664C92.54237288135593,17.06644222222222,93.55932203389831,17.05295333333334,94.57627118644069,17.03774666666667C95.59322033898306,17.022540000000003,96.61016949152543,17.005244444444443,97.62711864406779,16.985906666666665C98.64406779661016,16.966568888888887,99.66101694915254,16.94536222222222,100.6779661016949,16.921719999999997C101.69491525423729,16.898077777777775,102.71186440677965,16.872275555555557,103.72881355932203,16.844053333333335C104.7457627118644,16.815831111111113,105.76271186440678,16.78593111111111,106.77966101694915,16.752386666666666C107.79661016949153,16.71884222222222,108.8135593220339,16.683095555555553,109.83050847457628,16.642786666666666C110.84745762711864,16.60247777777778,111.86440677966102,16.557391111111112,112.88135593220339,16.510533333333335C113.89830508474576,16.463675555555557,114.91525423728814,16.41686,115.9322033898305,16.36164C116.94915254237289,16.30642,117.96610169491525,16.245717777777777,118.98305084745763,16.179213333333333C120,16.11270888888889,121.01694915254237,16.04097777777778,122.03389830508473,15.962613333333335C123.05084745762711,15.88424888888889,124.0677966101695,15.799131111111112,125.08474576271188,15.709026666666666C126.10169491525424,15.618922222222222,127.11864406779662,15.526273333333334,128.135593220339,15.421986666666667C129.15254237288136,15.3177,130.16949152542372,15.205444444444444,131.1864406779661,15.083306666666667C132.20338983050846,14.961168888888889,133.22033898305085,14.828162222222224,134.23728813559322,14.689160000000001C135.25423728813558,14.550157777777779,136.27118644067798,14.404328888888891,137.28813559322035,14.249293333333334C138.3050847457627,14.094257777777777,139.3220338983051,13.929664444444443,140.33898305084747,13.758946666666665C141.35593220338984,13.588228888888887,142.3728813559322,13.410297777777776,143.38983050847457,13.224986666666666C144.40677966101694,13.039675555555554,145.42372881355934,12.847180000000003,146.4406779661017,12.647080000000003C147.45762711864407,12.446980000000003,148.47457627118644,12.240933333333333,149.4915254237288,12.024386666666667C150.50847457627117,11.807839999999999,151.52542372881356,11.581553333333334,152.54237288135593,11.347800000000001C153.5593220338983,11.114046666666669,154.5762711864407,10.871611111111115,155.59322033898306,10.62186666666667C156.61016949152543,10.372122222222226,157.6271186440678,10.114473333333331,158.64406779661016,9.849333333333332C159.66101694915253,9.584193333333332,160.67796610169492,9.312051111111113,161.6949152542373,9.03102666666667C162.71186440677965,8.750002222222225,163.72881355932205,8.460011111111113,164.74576271186442,8.163186666666666C165.76271186440678,7.8663622222222225,166.77966101694915,7.5630133333333305,167.79661016949152,7.250079999999999C168.81355932203388,6.937146666666664,169.83050847457628,6.614731111111111,170.84745762711864,6.285586666666667C171.864406779661,5.956442222222223,172.8813559322034,5.613242222222224,173.89830508474577,5.275213333333335C174.91525423728814,4.937184444444446,175.93220338983053,4.5758422222222235,176.9491525423729,4.257413333333333C177.96610169491527,3.9389844444444453,178.98305084745763,3.651812222222222,180,3.3646399999999987L180,40C178.98305084745763,40,177.96610169491527,40,176.9491525423729,40C175.93220338983053,40,174.91525423728814,40,173.89830508474577,40C172.8813559322034,40,171.864406779661,40,170.84745762711864,40C169.83050847457628,40,168.81355932203388,40,167.79661016949152,40C166.77966101694915,40,165.76271186440678,40,164.74576271186442,40C163.72881355932205,40,162.71186440677965,40,161.6949152542373,40C160.67796610169492,40,159.66101694915253,40,158.64406779661016,40C157.6271186440678,40,156.61016949152543,40,155.59322033898306,40C154.5762711864407,40,153.5593220338983,40,152.54237288135593,40C151.52542372881356,40,150.50847457627117,40,149.4915254237288,40C148.47457627118644,40,147.45762711864407,40,146.4406779661017,40C145.42372881355934,40,144.40677966101694,40,143.38983050847457,40C142.3728813559322,40,141.35593220338984,40,140.33898305084747,40C139.3220338983051,40,138.3050847457627,40,137.28813559322035,40C136.27118644067798,40,135.25423728813558,40,134.23728813559322,40C133.22033898305085,40,132.20338983050846,40,131.1864406779661,40C130.16949152542372,40,129.15254237288136,40,128.135593220339,40C127.11864406779662,40,126.10169491525424,40,125.08474576271188,40C124.0677966101695,40,123.05084745762711,40,122.03389830508473,40C121.01694915254237,40,120,40,118.98305084745763,40C117.96610169491525,40,116.94915254237289,40,115.9322033898305,40C114.91525423728814,40,113.89830508474576,40,112.88135593220339,40C111.86440677966102,40,110.84745762711864,40,109.83050847457628,40C108.8135593220339,40,107.79661016949153,40,106.77966101694915,40C105.76271186440678,40,104.7457627118644,40,103.72881355932203,40C102.71186440677965,40,101.69491525423729,40,100.6779661016949,40C99.66101694915254,40,98.64406779661016,40,97.62711864406779,40C96.61016949152543,40,95.59322033898306,40,94.57627118644069,40C93.55932203389831,40,92.54237288135593,40,91.52542372881355,40C90.50847457627118,40,89.49152542372882,40,88.47457627118645,40C87.45762711864407,40,86.4406779661017,40,85.42372881355932,40C84.40677966101696,40,83.38983050847457,40,82.37288135593221,40C81.35593220338983,40,80.33898305084746,40,79.32203389830508,40C78.30508474576271,40,77.28813559322033,40,76.27118644067797,40C75.2542372881356,40,74.23728813559322,40,73.22033898305085,40C72.20338983050848,40,71.1864406779661,40,70.16949152542374,40C69.15254237288136,40,68.13559322033899,40,67.11864406779661,40C66.10169491525424,40,65.08474576271186,40,64.0677966101695,40C63.05084745762712,40,62.03389830508474,40,61.01694915254237,40C59.99999999999999,40,58.983050847457626,40,57.96610169491525,40C56.94915254237288,40,55.93220338983051,40,54.91525423728814,40C53.898305084745765,40,52.88135593220339,40,51.86440677966102,40C50.847457627118644,40,49.83050847457627,40,48.813559322033896,40C47.79661016949152,40,46.77966101694915,40,45.762711864406775,40C44.7457627118644,40,43.728813559322035,40,42.71186440677966,40C41.69491525423729,40,40.67796610169491,40,39.66101694915254,40C38.644067796610166,40,37.6271186440678,40,36.610169491525426,40C35.59322033898305,40,34.57627118644068,40,33.559322033898304,40C32.54237288135593,40,31.525423728813557,40,30.508474576271183,40C29.491525423728813,40,28.47457627118644,40,27.45762711864407,40C26.440677966101696,40,25.423728813559322,40,24.406779661016948,40C23.389830508474574,40,22.372881355932204,40,21.35593220338983,40C20.338983050847457,40,19.322033898305087,40,18.305084745762713,40C17.28813559322034,40,16.271186440677965,40,15.254237288135592,40C14.23728813559322,40,13.220338983050846,40,12.203389830508474,40C11.186440677966102,40,10.169491525423728,40,9.152542372881356,40C8.135593220338983,40,7.11864406779661,40,6.101694915254237,40C5.084745762711864,40,4.067796610169491,40,3.0508474576271185,40C2.0338983050847457,40,1.0169491525423728,40,0,40Z"></path><path class="line" stroke="black" fill="none" d="M0,17.21172C1.0169491525423728,17.21120333333333,2.0338983050847457,17.210686666666664,3.0508474576271185,17.21017333333333C4.067796610169491,17.209659999999996,5.084745762711864,17.20915777777778,6.101694915254237,17.208640000000003C7.11864406779661,17.208122222222226,8.135593220338983,17.20758222222222,9.152542372881356,17.207066666666666C10.169491525423728,17.20655111111111,11.186440677966102,17.20606888888889,12.203389830508474,17.205546666666667C13.220338983050846,17.205024444444444,14.23728813559322,17.20446666666667,15.254237288135592,17.203933333333335C16.271186440677965,17.203400000000002,17.28813559322034,17.20288222222222,18.305084745762713,17.202346666666667C19.322033898305087,17.201811111111112,20.338983050847457,17.201262222222223,21.35593220338983,17.20072C22.372881355932204,17.20017777777778,23.389830508474574,17.19964,24.406779661016948,17.199093333333334C25.423728813559322,17.198546666666665,26.440677966101696,17.198,27.45762711864407,17.19744C28.47457627118644,17.19688,29.491525423728813,17.196337777777778,30.508474576271183,17.195733333333333C31.525423728813557,17.19512888888889,32.54237288135593,17.194464444444442,33.559322033898304,17.19381333333333C34.57627118644068,17.19316222222222,35.59322033898305,17.192522222222223,36.610169491525426,17.191826666666667C37.6271186440678,17.191131111111112,38.644067796610166,17.190382222222222,39.66101694915254,17.18964C40.67796610169491,17.18889777777778,41.69491525423729,17.18814,42.71186440677966,17.187373333333333C43.728813559322035,17.186606666666666,44.7457627118644,17.185837777777774,45.762711864406775,17.185039999999997C46.77966101694915,17.18424222222222,47.79661016949152,17.18342,48.813559322033896,17.18258666666667C49.83050847457627,17.181753333333337,50.847457627118644,17.18087555555556,51.86440677966102,17.18004C52.88135593220339,17.179204444444444,53.898305084745765,17.178404444444443,54.91525423728814,17.17757333333333C55.93220338983051,17.17674222222222,56.94915254237288,17.175902222222224,57.96610169491525,17.175053333333334C58.983050847457626,17.174204444444445,59.99999999999999,17.1734,61.01694915254237,17.17248C62.03389830508474,17.17156,63.05084745762712,17.17058666666667,64.0677966101695,17.169533333333334C65.08474576271186,17.168480000000002,66.10169491525424,17.167375555555555,67.11864406779661,17.16616C68.13559322033899,17.164944444444444,69.15254237288136,17.16373777777778,70.16949152542374,17.16224C71.1864406779661,17.160742222222222,72.20338983050848,17.15902666666667,73.22033898305085,17.157173333333336C74.23728813559322,17.155320000000003,75.2542372881356,17.153388888888887,76.27118644067797,17.15112C77.28813559322033,17.14885111111111,78.30508474576271,17.14639777777778,79.32203389830508,17.14356C80.33898305084746,17.140722222222223,81.35593220338983,17.13784888888889,82.37288135593221,17.134093333333333C83.38983050847457,17.130337777777775,84.40677966101696,17.126379999999997,85.42372881355932,17.121026666666666C86.4406779661017,17.115673333333334,87.45762711864407,17.109286666666666,88.47457627118645,17.101973333333333C89.49152542372882,17.09466,90.50847457627118,17.087851111111107,91.52542372881355,17.077146666666664C92.54237288135593,17.06644222222222,93.55932203389831,17.05295333333334,94.57627118644069,17.03774666666667C95.59322033898306,17.022540000000003,96.61016949152543,17.005244444444443,97.62711864406779,16.985906666666665C98.64406779661016,16.966568888888887,99.66101694915254,16.94536222222222,100.6779661016949,16.921719999999997C101.69491525423729,16.898077777777775,102.71186440677965,16.872275555555557,103.72881355932203,16.844053333333335C104.7457627118644,16.815831111111113,105.76271186440678,16.78593111111111,106.77966101694915,16.752386666666666C107.79661016949153,16.71884222222222,108.8135593220339,16.683095555555553,109.83050847457628,16.642786666666666C110.84745762711864,16.60247777777778,111.86440677966102,16.557391111111112,112.88135593220339,16.510533333333335C113.89830508474576,16.463675555555557,114.91525423728814,16.41686,115.9322033898305,16.36164C116.94915254237289,16.30642,117.96610169491525,16.245717777777777,118.98305084745763,16.179213333333333C120,16.11270888888889,121.01694915254237,16.04097777777778,122.03389830508473,15.962613333333335C123.05084745762711,15.88424888888889,124.0677966101695,15.799131111111112,125.08474576271188,15.709026666666666C126.10169491525424,15.618922222222222,127.11864406779662,15.526273333333334,128.135593220339,15.421986666666667C129.15254237288136,15.3177,130.16949152542372,15.205444444444444,131.1864406779661,15.083306666666667C132.20338983050846,14.961168888888889,133.22033898305085,14.828162222222224,134.23728813559322,14.689160000000001C135.25423728813558,14.550157777777779,136.27118644067798,14.404328888888891,137.28813559322035,14.249293333333334C138.3050847457627,14.094257777777777,139.3220338983051,13.929664444444443,140.33898305084747,13.758946666666665C141.35593220338984,13.588228888888887,142.3728813559322,13.410297777777776,143.38983050847457,13.224986666666666C144.40677966101694,13.039675555555554,145.42372881355934,12.847180000000003,146.4406779661017,12.647080000000003C147.45762711864407,12.446980000000003,148.47457627118644,12.240933333333333,149.4915254237288,12.024386666666667C150.50847457627117,11.807839999999999,151.52542372881356,11.581553333333334,152.54237288135593,11.347800000000001C153.5593220338983,11.114046666666669,154.5762711864407,10.871611111111115,155.59322033898306,10.62186666666667C156.61016949152543,10.372122222222226,157.6271186440678,10.114473333333331,158.64406779661016,9.849333333333332C159.66101694915253,9.584193333333332,160.67796610169492,9.312051111111113,161.6949152542373,9.03102666666667C162.71186440677965,8.750002222222225,163.72881355932205,8.460011111111113,164.74576271186442,8.163186666666666C165.76271186440678,7.8663622222222225,166.77966101694915,7.5630133333333305,167.79661016949152,7.250079999999999C168.81355932203388,6.937146666666664,169.83050847457628,6.614731111111111,170.84745762711864,6.285586666666667C171.864406779661,5.956442222222223,172.8813559322034,5.613242222222224,173.89830508474577,5.275213333333335C174.91525423728814,4.937184444444446,175.93220338983053,4.5758422222222235,176.9491525423729,4.257413333333333C177.96610169491527,3.9389844444444453,178.98305084745763,3.651812222222222,180,3.3646399999999987"></path><path class="axis-ceiling" stroke-width="1" stroke="black" fill="none" d="M175,0L180,0"></path><text class="axis-ceiling-label" font-family="sans-serif" text-anchor="end" font-size="10px" x="170" y="2.5">3000000</text></g></svg>