<svg xmlns="http://www.w3.org/2000/svg" viewBox="0 0 180 60"><g transform="translate(0,20)"><path class="area" fill="rgba(0, 0, 0, 0.2)" d="M0,39.12087912087912C1.0169491525423728,39.0894819466248,2.0338983050847457,39.058084772370485,3.0508474576271185,39.058084772370485C4.067796610169491,39.058084772370485,5.084745762711864,39.058084772370485,6.101694915254237,39.058084772370485C7.11864406779661,39.058084772370485,8.135593220338983,38.942961800104655,9.152542372881356,38.86970172684458C10.169491525423728,38.79644165358451,11.186440677966102,38.69178440607012,12.203389830508474,38.61852433281005C13.220338983050846,38.545264259549974,14.23728813559322,38.50340136054422,15.254237288135592,38.430141287284144C16.271186440677965,38.35688121402407,17.28813559322034,38.17896389324961,18.305084745762713,38.17896389324961C19.322033898305087,38.17896389324961,20.338983050847457,38.26268969126112,21.35593220338983,38.30455259026688C22.372881355932204,38.34641548927264,23.389830508474574,38.39874411302983,24.406779661016948,38.430141287284144C25.423728813559322,38.46153846153846,26.440677966101696,38.492935635792776,27.45762711864407,38.492935635792776C28.47457627118644,38.492935635792776,29.491525423728813,38.24175824175824,30.508474576271183,38.24175824175824C31.525423728813557,38.24175824175824,32.54237288135593,38.35688121402407,33.559322033898304,38.430141287284144C34.57627118644068,38.50340136054422,35.59322033898305,38.68131868131868,36.610169491525426,38.68131868131868C37.6271186440678,38.68131868131868,38.644067796610166,38.4720041862899,39.66101694915254,38.430141287284144C40.67796610169491,38.38827838827839,41.69491525423729,38.36734693877551,42.71186440677966,38.36734693877551C43.728813559322035,38.36734693877551,44.7457627118644,38.430141287284144,45.762711864406775,38.430141287284144C46.77966101694915,38.430141287284144,47.79661016949152,38.11616954474098,48.813559322033896,38.11616954474098C49.83050847457627,38.11616954474098,50.847457627118644,38.38827838827839,51.86440677966102,38.492935635792776C52.88135593220339,38.597592883307165,53.898305084745765,38.74411302982732,54.91525423728814,38.74411302982732C55.93220338983051,38.74411302982732,56.94915254237288,38.70225013082156,57.96610169491525,38.61852433281005C58.983050847457626,38.53479853479853,59.99999999999999,38.17896389324961,61.01694915254237,38.17896389324961C62.03389830508474,38.17896389324961,63.05084745762712,38.492935635792776,64.0677966101695,38.492935635792776C65.08474576271186,38.492935635792776,66.10169491525424,38.4196755625327,67.11864406779661,38.36734693877551C68.13559322033899,38.315018315018314,69.15254237288136,38.283621140764,70.16949152542374,38.17896389324961C71.1864406779661,38.07430664573522,72.20338983050848,37.906855049712185,73.22033898305085,37.739403453689164C74.23728813559322,37.57195185766614,75.2542372881356,37.34170591313448,76.27118644067797,37.17425431711146C77.28813559322033,37.00680272108844,78.30508474576271,36.734693877551024,79.32203389830508,36.734693877551024C80.33898305084746,36.734693877551024,81.35593220338983,37.11145996860282,82.37288135593221,37.11145996860282C83.38983050847457,37.11145996860282,84.40677966101696,34.327577184720035,85.42372881355932,33.90894819466248C86.4406779661017,33.490319204604916,87.45762711864407,33.6996336996337,88.47457627118645,33.28100470957614C89.49152542372882,32.86237571951858,90.50847457627118,30.14128728414443,91.52542372881355,30.14128728414443C92.54237288135593,30.14128728414443,93.55932203389831,30.32967032967033,94.57627118644069,30.32967032967033C95.59322033898306,30.32967032967033,96.61016949152543,27.566718995290422,97.62711864406779,27.566718995290422C98.64406779661016,27.566718995290422,99.66101694915254,27.81789638932496,100.6779661016949,27.81789638932496C101.69491525423729,27.81789638932496,102.71186440677965,27.127158555729984,103.72881355932203,27.127158555729984C104.7457627118644,27.127158555729984,105.76271186440678,28.571428571428573,106.77966101694915,28.571428571428573C107.79661016949153,28.571428571428573,108.8135593220339,27.50392464678179,109.83050847457628,27.50392464678179C110.84745762711864,27.50392464678179,111.86440677966102,27.880690737833596,112.88135593220339,27.880690737833596C113.89830508474576,27.880690737833596,114.91525423728814,26.18524332810047,115.9322033898305,26.18524332810047C116.94915254237289,26.18524332810047,117.96610169491525,27.378335949764523,118.98305084745763,27.378335949764523C120,27.378335949764523,121.01694915254237,24.217687074829936,122.03389830508473,24.05023547880691C123.05084745762711,23.882783882783883,124.0677966101695,23.861852433281005,125.08474576271188,23.79905808477237C126.10169491525424,23.736263736263734,127.11864406779662,23.6734693877551,128.135593220339,23.6734693877551C129.15254237288136,23.6734693877551,130.16949152542372,23.987441130298272,131.1864406779661,23.987441130298272C132.20338983050846,23.987441130298272,133.22033898305085,21.93615907901622,134.23728813559322,21.601255886970172C135.25423728813558,21.266352694924123,136.27118644067798,21.433804290947148,137.28813559322035,21.0989010989011C138.3050847457627,20.76399790685505,139.3220338983051,11.90999476713764,140.33898305084747,10.235478806907379C141.35593220338984,8.560962846677134,142.3728813559322,8.529565672422814,143.38983050847457,7.723704866562011C144.40677966101694,6.917844060701201,145.42372881355934,5.818942961800108,146.4406779661017,5.400313971742543C147.45762711864407,4.981684981684982,148.47457627118644,4.99215070643642,149.4915254237288,4.772370486656201C150.50847457627117,4.55259026687598,151.52542372881356,4.542124542124542,152.54237288135593,4.081632653061225C153.5593220338983,3.6211407639979067,154.5762711864407,0,155.59322033898306,0C156.61016949152543,0,157.6271186440678,0.3767660910518048,158.64406779661016,1.1302982731554145C159.66101694915253,1.8838304552590315,160.67796610169492,8.958660387231815,161.6949152542373,9.544740973312402C162.71186440677965,10.13082155939299,163.72881355932205,10.088958660387233,164.74576271186442,10.423861852433284C165.76271186440678,10.758765044479333,166.77966101694915,11.114599686028262,167.79661016949152,11.554160125588698C168.81355932203388,11.99372056514914,169.83050847457628,13.061224489795919,170.84745762711864,13.061224489795919C171.864406779661,13.061224489795919,172.8813559322034,12.81004709576138,173.89830508474577,12.81004709576138C174.91525423728814,12.81004709576138,175.93220338983053,17.728937728937726,176.9491525423729,18.5243328100471C177.96610169491527,19.319727891156464,178.98305084745763,19.518576661433805,180,19.717425431711145L180,40C178.98305084745763,40,177.96610169491527,40,176.9491525423729,40C175.93220338983053,40,174.91525423728814,40,173.89830508474577,40C172.8813559322034,40,171.864406779661,40,170.84745762711864,40C169.83050847457628,40,168.81355932203388,40,167.79661016949152,40C166.77966101694915,40,165.76271186440678,40,164.74576271186442,40C163.72881355932205,40,162.71186440677965,40,161.6949152542373,40C160.67796610169492,40,159.66101694915253,40,158.64406779661016,40C157.6271186440678,40,156.61016949152543,40,155.59322033898306,40C154.5762711864407,40,153.5593220338983,40,152.54237288135593,40C151.52542372881356,40,150.50847457627117,40,149.4915254237288,40C148.47457627118644,40,147.45762711864407,40,146.4406779661017,40C145.42372881355934,40,144.40677966101694,40,143.38983050847457,40C142.3728813559322,40,141.35593220338984,40,140.33898305084747,40C139.3220338983051,40,138.3050847457627,40,137.28813559322035,40C136.27118644067798,40,135.25423728813558,40,134.23728813559322,40C133.22033898305085,40,132.20338983050846,40,131.1864406779661,40C130.16949152542372,40,129.15254237288136,40,128.135593220339,40C127.11864406779662,40,126.10169491525424,40,125.08474576271188,40C124.0677966101695,40,123.05084745762711,40,122.03389830508473,40C121.01694915254237,40,120,40,118.98305084745763,40C117.96610169491525,40,116.94915254237289,40,115.9322033898305,40C114.91525423728814,40,113.89830508474576,40,112.88135593220339,40C111.86440677966102,40,110.84745762711864,40,109.83050847457628,40C108.8135593220339,40,107.79661016949153,40,106.77966101694915,40C105.76271186440678,40,104.7457627118644,40,103.72881355932203,40C102.71186440677965,40,101.69491525423729,40,100.6779661016949,40C99.66101694915254,40,98.64406779661016,40,97.62711864406779,40C96.61016949152543,40,95.59322033898306,40,94.57627118644069,40C93.55932203389831,40,92.54237288135593,40,91.52542372881355,40C90.50847457627118,40,89.49152542372882,40,88.47457627118645,40C87.45762711864407,40,86.4406779661017,40,85.42372881355932,40C84.40677966101696,40,83.38983050847457,40,82.37288135593221,40C81.35593220338983,40,80.33898305084746,40,79.32203389830508,40C78.30508474576271,40,77.28813559322033,40,76.27118644067797,40C75.2542372881356,40,74.23728813559322,40,73.22033898305085,40C72.20338983050848,40,71.1864406779661,40,70.16949152542374,40C69.15254237288136,40,68.13559322033899,40,67.11864406779661,40C66.10169491525424,40,65.08474576271186,40,64.0677966101695,40C63.05084745762712,40,62.03389830508474,40,61.01694915254237,40C59.99999999999999,40,58.983050847457626,40,57.96610169491525,40C56.94915254237288,40,55.93220338983051,40,54.91525423728814,40C53.898305084745765,40,52.88135593220339,40,51.86440677966102,40C50.847457627118644,40,49.83050847457627,40,48.813559322033896,40C47.79661016949152,40,46.77966101694915,40,45.762711864406775,40C44.7457627118644,40,43.728813559322035,40,42.71186440677966,40C41.69491525423729,40,40.67796610169491,40,39.66101694915254,40C38.644067796610166,40,37.6271186440678,40,36.610169491525426,40C35.59322033898305,40,34.57627118644068,40,33.559322033898304,40C32.54237288135593,40,31.525423728813557,40,30.508474576271183,40C29.491525423728813,40,28.47457627118644,40,27.45762711864407,40C26.440677966101696,40,25.423728813559322,40,24.406779661016948,40C23.389830508474574,40,22.372881355932204,40,21.35593220338983,40C20.338983050847457,40,19.322033898305087,40,18.305084745762713,40C17.28813559322034,40,16.271186440677965,40,15.254237288135592,40C14.23728813559322,40,13.220338983050846,40,12.203389830508474,40C11.186440677966102,40,10.169491525423728,40,9.152542372881356,40C8.135593220338983,40,7.11864406779661,40,6.101694915254237,40C5.084745762711864,40,4.067796610169491,40,3.0508474576271185,40C2.0338983050847457,40,1.0169491525423728,40,0,40Z"></path><path class="line" stroke="black" fill="none" d="M0,39.12087912087912C1.0169491525423728,39.0894819466248,2.0338983050847457,39.058084772370485,3.0508474576271185,39.058084772370485C4.067796610169491,39.058084772370485,5.084745762711864,39.058084772370485,6.101694915254237,39.058084772370485C7.11864406779661,39.058084772370485,8.135593220338983,38.942961800104655,9.152542372881356,38.86970172684458C10.169491525423728,38.79644165358451,11.186440677966102,38.69178440607012,12.203389830508474,38.61852433281005C13.220338983050846,38.545264259549974,14.23728813559322,38.50340136054422,15.254237288135592,38.430141287284144C16.271186440677965,38.35688121402407,17.28813559322034,38.17896389324961,18.305084745762713,38.17896389324961C19.322033898305087,38.17896389324961,20.338983050847457,38.26268969126112,21.35593220338983,38.30455259026688C22.372881355932204,38.34641548927264,23.389830508474574,38.39874411302983,24.406779661016948,38.430141287284144C25.423728813559322,38.46153846153846,26.440677966101696,38.492935635792776,27.45762711864407,38.492935635792776C28.47457627118644,38.492935635792776,29.491525423728813,38.24175824175824,30.508474576271183,38.24175824175824C31.525423728813557,38.24175824175824,32.54237288135593,38.35688121402407,33.559322033898304,38.430141287284144C34.57627118644068,38.50340136054422,35.59322033898305,38.68131868131868,36.610169491525426,38.68131868131868C37.6271186440678,38.68131868131868,38.644067796610166,38.4720041862899,39.66101694915254,38.430141287284144C40.67796610169491,38.38827838827839,41.69491525423729,38.36734693877551,42.71186440677966,38.36734693877551C43.728813559322035,38.36734693877551,44.7457627118644,38.430141287284144,45.762711864406775,38.430141287284144C46.77966101694915,38.430141287284144,47.79661016949152,38.11616954474098,48.813559322033896,38.11616954474098C49.83050847457627,38.11616954474098,50.847457627118644,38.38827838827839,51.86440677966102,38.492935635792776C52.88135593220339,38.597592883307165,53.898305084745765,38.74411302982732,54.91525423728814,38.74411302982732C55.93220338983051,38.74411302982732,56.94915254237288,38.70225013082156,57.96610169491525,38.61852433281005C58.983050847457626,38.53479853479853,59.99999999999999,38.17896389324961,61.01694915254237,38.17896389324961C62.03389830508474,38.17896389324961,63.05084745762712,38.492935635792776,64.0677966101695,38.492935635792776C65.08474576271186,38.492935635792776,66.10169491525424,38.4196755625327,67.11864406779661,38.36734693877551C68.13559322033899,38.315018315018314,69.15254237288136,38.283621140764,70.16949152542374,38.17896389324961C71.1864406779661,38.07430664573522,72.20338983050848,37.906855049712185,73.22033898305085,37.739403453689164C74.23728813559322,37.57195185766614,75.2542372881356,37.34170591313448,76.27118644067797,37.17425431711146C77.28813559322033,37.00680272108844,78.30508474576271,36.734693877551024,79.32203389830508,36.734693877551024C80.33898305084746,36.734693877551024,81.35593220338983,37.11145996860282,82.37288135593221,37.11145996860282C83.38983050847457,37.11145996860282,84.40677966101696,34.327577184720035,85.42372881355932,33.90894819466248C86.4406779661017,33.490319204604916,87.45762711864407,33.6996336996337,88.47457627118645,33.28100470957614C89.49152542372882,32.86237571951858,90.50847457627118,30.14128728414443,91.52542372881355,30.14128728414443C92.54237288135593,30.14128728414443,93.55932203389831,30.32967032967033,94.57627118644069,30.32967032967033C95.59322033898306,30.32967032967033,96.61016949152543,27.566718995290422,97.62711864406779,27.566718995290422C98.64406779661016,27.566718995290422,99.66101694915254,27.81789638932496,100.6779661016949,27.81789638932496C101.69491525423729,27.81789638932496,102.71186440677965,27.127158555729984,103.72881355932203,27.127158555729984C104.7457627118644,27.127158555729984,105.76271186440678,28.571428571428573,106.77966101694915,28.571428571428573C107.79661016949153,28.571428571428573,108.8135593220339,27.50392464678179,109.83050847457628,27.50392464678179C110.84745762711864,27.50392464678179,111.86440677966102,27.880690737833596,112.88135593220339,27.880690737833596C113.89830508474576,27.880690737833596,114.91525423728814,26.18524332810047,115.9322033898305,26.18524332810047C116.94915254237289,26.18524332810047,117.96610169491525,27.378335949764523,118.98305084745763,27.378335949764523C120,27.378335949764523,121.01694915254237,24.217687074829936,122.03389830508473,24.05023547880691C123.05084745762711,23.882783882783883,124.0677966101695,23.861852433281005,125.08474576271188,23.79905808477237C126.10169491525424,23.736263736263734,127.11864406779662,23.6734693877551,128.135593220339,23.6734693877551C129.15254237288136,23.6734693877551,130.16949152542372,23.987441130298272,131.1864406779661,23.987441130298272C132.20338983050846,23.987441130298272,133.22033898305085,21.93615907901622,134.23728813559322,21.601255886970172C135.25423728813558,21.266352694924123,136.27118644067798,21.433804290947148,137.28813559322035,21.0989010989011C138.3050847457627,20.76399790685505,139.3220338983051,11.90999476713764,140.33898305084747,10.235478806907379C141.35593220338984,8.560962846677134,142.3728813559322,8.529565672422814,143.38983050847457,7.723704866562011C144.40677966101694,6.917844060701201,145.42372881355934,5.818942961800108,146.4406779661017,5.400313971742543C147.45762711864407,4.981684981684982,148.47457627118644,4.99215070643642,149.4915254237288,4.772370486656201C150.50847457627117,4.55259026687598,151.52542372881356,4.542124542124542,152.54237288135593,4.081632653061225C153.5593220338983,3.6211407639979067,154.5762711864407,0,155.59322033898306,0C156.61016949152543,0,157.6271186440678,0.3767660910518048,158.64406779661016,1.1302982731554145C159.66101694915253,1.8838304552590315,160.67796610169492,8.958660387231815,161.6949152542373,9.544740973312402C162.71186440677965,10.13082155939299,163.72881355932205,10.088958660387233,164.74576271186442,10.423861852433284C165.76271186440678,10.758765044479333,166.77966101694915,11.114599686028262,167.79661016949152,11.554160125588698C168.81355932203388,11.99372056514914,169.83050847457628,13.061224489795919,170.84745762711864,13.061224489795919C171.864406779661,13.061224489795919,172.8813559322034,12.81004709576138,173.89830508474577,12.81004709576138C174.91525423728814,12.81004709576138,175.93220338983053,17.728937728937726,176.9491525423729,18.5243328100471C177.96610169491527,19.319727891156464,178.98305084745763,19.518576661433805,180,19.717425431711145"></path><path class="axis-ceiling" stroke-width="1" stroke="black" fill="none" d="M175,-11.491365777080063L180,-11.491365777080063"></path><text class="axis-ceiling-label" font-family="sans-serif" text-anchor="end" font-size="10px" x="170" y="-8.991365777080063">1890</text></g></svg>