<svg xmlns="http://www.w3.org/2000/svg" viewBox="0 0 180 60"><g transform="translate(0,20)"><path class="area" fill="rgba(0, 0, 0, 0.2)" d="M0,14.933333333333332C1.0169491525423728,15.73333333333333,2.0338983050847457,16.53333333333333,3.0508474576271185,16.53333333333333C4.067796610169491,16.53333333333333,5.084745762711864,16,6.101694915254237,16C7.11864406779661,16,8.135593220338983,18.637037037037036,9.152542372881356,20.444444444444443C10.169491525423728,22.25185185185185,11.186440677966102,26.844444444444445,12.203389830508474,26.844444444444445C13.220338983050846,26.844444444444445,14.23728813559322,20.799999999999994,15.254237288135592,19.73333333333333C16.271186440677965,18.666666666666664,17.28813559322034,18.133333333333333,18.305084745762713,18.133333333333333C19.322033898305087,18.133333333333333,20.338983050847457,22.755555555555556,21.35593220338983,22.755555555555556C22.372881355932204,22.755555555555556,23.389830508474574,11.37777777777778,24.406779661016948,11.37777777777778C25.423728813559322,11.37777777777778,26.440677966101696,24.88888888888889,27.45762711864407,24.88888888888889C28.47457627118644,24.88888888888889,29.491525423728813,23.288888888888888,30.508474576271183,23.288888888888888C31.525423728813557,23.288888888888888,32.54237288135593,24.53333333333333,33.559322033898304,24.53333333333333C34.57627118644068,24.53333333333333,35.59322033898305,18.725925925925928,36.610169491525426,16.355555555555554C37.6271186440678,13.985185185185188,38.644067796610166,10.31111111111111,39.66101694915254,10.31111111111111C40.67796610169491,10.31111111111111,41.69491525423729,20.088888888888892,42.71186440677966,22.577777777777783C43.728813559322035,25.066666666666666,44.7457627118644,25.42222222222222,45.762711864406775,26.31111111111111C46.77966101694915,27.2,47.79661016949152,27.91111111111111,48.813559322033896,27.91111111111111C49.83050847457627,27.91111111111111,50.847457627118644,23.46666666666667,51.86440677966102,23.46666666666667C52.88135593220339,23.46666666666667,53.898305084745765,25.955555555555556,54.91525423728814,25.955555555555556C55.93220338983051,25.955555555555556,56.94915254237288,21.985185185185188,57.96610169491525,19.555555555555557C58.983050847457626,17.125925925925927,59.99999999999999,13.333333333333334,61.01694915254237,11.37777777777778C62.03389830508474,9.422222222222217,63.05084745762712,9.42222222222223,64.0677966101695,7.822222222222224C65.08474576271186,6.222222222222225,66.10169491525424,1.777777777777776,67.11864406779661,1.777777777777776C68.13559322033899,1.777777777777776,69.15254237288136,4.207407407407395,70.16949152542374,6.577777777777776C71.1864406779661,8.948148148148144,72.20338983050848,16,73.22033898305085,16C74.23728813559322,16,75.2542372881356,14.222222222222221,76.27118644067797,14.222222222222221C77.28813559322033,14.222222222222221,78.30508474576271,20.62222222222222,79.32203389830508,20.62222222222222C80.33898305084746,20.62222222222222,81.35593220338983,6.459259259259264,82.37288135593221,5.511111111111111C83.38983050847457,4.562962962962963,84.40677966101696,4.088888888888889,85.42372881355932,4.088888888888889C86.4406779661017,4.088888888888889,87.45762711864407,4.68148148148148,88.47457627118645,5.8666666666666645C89.49152542372882,7.051851851851837,90.50847457627118,17.955555555555556,91.52542372881355,17.955555555555556C92.54237288135593,17.955555555555556,93.55932203389831,17.77777777777778,94.57627118644069,17.77777777777778C95.59322033898306,17.77777777777778,96.61016949152543,23.644444444444446,97.62711864406779,23.644444444444446C98.64406779661016,23.644444444444446,99.66101694915254,10.844444444444443,100.6779661016949,10.844444444444443C101.69491525423729,10.844444444444443,102.71186440677965,15.318518518518522,103.72881355932203,16.888888888888893C104.7457627118644,18.45925925925926,105.76271186440678,20.266666666666666,106.77966101694915,20.266666666666666C107.79661016949153,20.266666666666666,108.8135593220339,15.466666666666669,109.83050847457628,15.466666666666669C110.84745762711864,15.466666666666669,111.86440677966102,22.577777777777776,112.88135593220339,23.288888888888888C113.89830508474576,24,114.91525423728814,24.355555555555554,115.9322033898305,24.355555555555554C116.94915254237289,24.355555555555554,117.96610169491525,22.90370370370372,118.98305084745763,21.15555555555556C120,19.407407407407412,121.01694915254237,13.866666666666667,122.03389830508473,13.866666666666667C123.05084745762711,13.866666666666667,124.0677966101695,19.08148148148148,125.08474576271188,19.555555555555557C126.10169491525424,20.02962962962963,127.11864406779662,19.999999999999996,128.135593220339,20.266666666666666C129.15254237288136,20.53333333333333,130.16949152542372,20.94814814814815,131.1864406779661,21.15555555555556C132.20338983050846,21.362962962962968,133.22033898305085,21.274074074074075,134.23728813559322,21.511111111111113C135.25423728813558,21.74814814814815,136.27118644067798,26.48888888888889,137.28813559322035,26.48888888888889C138.3050847457627,26.48888888888889,139.3220338983051,21.333333333333332,140.33898305084747,21.333333333333332C141.35593220338984,21.333333333333332,142.3728813559322,23.288888888888888,143.38983050847457,23.288888888888888C144.40677966101694,23.288888888888888,145.42372881355934,18.666666666666668,146.4406779661017,18.666666666666668C147.45762711864407,18.666666666666668,148.47457627118644,22.22222222222223,149.4915254237288,23.46666666666667C150.50847457627117,24.711111111111123,151.52542372881356,25.42222222222222,152.54237288135593,26.133333333333333C153.5593220338983,26.844444444444445,154.5762711864407,26.903703703703698,155.59322033898306,27.733333333333334C156.61016949152543,28.562962962962963,157.6271186440678,30.28148148148148,158.64406779661016,31.11111111111111C159.66101694915253,31.940740740740747,160.67796610169492,32.71111111111111,161.6949152542373,32.71111111111111C162.71186440677965,32.71111111111111,163.72881355932205,30.13333333333334,164.74576271186442,28.62222222222222C165.76271186440678,27.111111111111114,166.77966101694915,23.644444444444446,167.79661016949152,23.644444444444446C168.81355932203388,23.644444444444446,169.83050847457628,25.096296296296302,170.84745762711864,26.66666666666667C171.864406779661,28.23703703703704,172.8813559322034,33.06666666666666,173.89830508474577,33.06666666666666C174.91525423728814,33.06666666666666,175.93220338983053,30.75555555555556,176.9491525423729,30.75555555555556C177.96610169491527,30.75555555555556,178.98305084745763,31.733333333333334,180,32.71111111111111L180,40C178.98305084745763,40,177.96610169491527,40,176.9491525423729,40C175.93220338983053,40,174.91525423728814,40,173.89830508474577,40C172.8813559322034,40,171.864406779661,40,170.84745762711864,40C169.83050847457628,40,168.81355932203388,40,167.79661016949152,40C166.77966101694915,40,165.76271186440678,40,164.74576271186442,40C163.72881355932205,40,162.71186440677965,40,161.6949152542373,40C160.67796610169492,40,159.66101694915253,40,158.64406779661016,40C157.6271186440678,40,156.61016949152543,40,155.59322033898306,40C154.5762711864407,40,153.5593220338983,40,152.54237288135593,40C151.52542372881356,40,150.50847457627117,40,149.4915254237288,40C148.47457627118644,40,147.45762711864407,40,146.4406779661017,40C145.42372881355934,40,144.40677966101694,40,143.38983050847457,40C142.3728813559322,40,141.35593220338984,40,140.33898305084747,40C139.3220338983051,40,138.3050847457627,40,137.28813559322035,40C136.27118644067798,40,135.25423728813558,40,134.23728813559322,40C133.22033898305085,40,132.20338983050846,40,131.1864406779661,40C130.16949152542372,40,129.15254237288136,40,128.135593220339,40C127.11864406779662,40,126.10169491525424,40,125.08474576271188,40C124.0677966101695,40,123.05084745762711,40,122.03389830508473,40C121.01694915254237,40,120,40,118.98305084745763,40C117.96610169491525,40,116.94915254237289,40,115.9322033898305,40C114.91525423728814,40,113.89830508474576,40,112.88135593220339,40C111.86440677966102,40,110.84745762711864,40,109.83050847457628,40C108.8135593220339,40,107.79661016949153,40,106.77966101694915,40C105.76271186440678,40,104.7457627118644,40,103.72881355932203,40C102.71186440677965,40,101.69491525423729,40,100.6779661016949,40C99.66101694915254,40,98.64406779661016,40,97.62711864406779,40C96.61016949152543,40,95.59322033898306,40,94.57627118644069,40C93.55932203389831,40,92.54237288135593,40,91.52542372881355,40C90.50847457627118,40,89.49152542372882,40,88.47457627118645,40C87.45762711864407,40,86.4406779661017,40,85.42372881355932,40C84.40677966101696,40,83.38983050847457,40,82.37288135593221,40C81.35593220338983,40,80.33898305084746,40,79.32203389830508,40C78.30508474576271,40,77.28813559322033,40,76.27118644067797,40C75.2542372881356,40,74.23728813559322,40,73.22033898305085,40C72.20338983050848,40,71.1864406779661,40,70.16949152542374,40C69.15254237288136,40,68.13559322033899,40,67.11864406779661,40C66.10169491525424,40,65.08474576271186,40,64.0677966101695,40C63.05084745762712,40,62.03389830508474,40,61.01694915254237,40C59.99999999999999,40,58.983050847457626,40,57.96610169491525,40C56.94915254237288,40,55.93220338983051,40,54.91525423728814,40C53.898305084745765,40,52.88135593220339,40,51.86440677966102,40C50.847457627118644,40,49.83050847457627,40,48.813559322033896,40C47.79661016949152,40,46.77966101694915,40,45.762711864406775,40C44.7457627118644,40,43.728813559322035,40,42.71186440677966,40C41.69491525423729,40,40.67796610169491,40,39.66101694915254,40C38.644067796610166,40,37.6271186440678,40,36.610169491525426,40C35.59322033898305,40,34.57627118644068,40,33.559322033898304,40C32.54237288135593,40,31.525423728813557,40,30.508474576271183,40C29.491525423728813,40,28.47457627118644,40,27.45762711864407,40C26.440677966101696,40,25.423728813559322,40,24.406779661016948,40C23.389830508474574,40,22.372881355932204,40,21.35593220338983,40C20.338983050847457,40,19.322033898305087,40,18.305084745762713,40C17.28813559322034,40,16.271186440677965,40,15.254237288135592,40C14.23728813559322,40,13.220338983050846,40,12.203389830508474,40C11.186440677966102,40,10.169491525423728,40,9.152542372881356,40C8.135593220338983,40,7.11864406779661,40,6.101694915254237,40C5.084745762711864,40,4.067796610169491,40,3.0508474576271185,40C2.0338983050847457,40,1.0169491525423728,40,0,40Z"></path><path class="line" stroke="black" fill="none" d="M0,14.933333333333332C1.0169491525423728,15.73333333333333,2.0338983050847457,16.53333333333333,3.0508474576271185,16.53333333333333C4.067796610169491,16.53333333333333,5.084745762711864,16,6.101694915254237,16C7.11864406779661,16,8.135593220338983,18.637037037037036,9.152542372881356,20.444444444444443C10.169491525423728,22.25185185185185,11.186440677966102,26.844444444444445,12.203389830508474,26.844444444444445C13.220338983050846,26.844444444444445,14.23728813559322,20.799999999999994,15.254237288135592,19.73333333333333C16.271186440677965,18.666666666666664,17.28813559322034,18.133333333333333,18.305084745762713,18.133333333333333C19.322033898305087,18.133333333333333,20.338983050847457,22.755555555555556,21.35593220338983,22.755555555555556C22.372881355932204,22.755555555555556,23.389830508474574,11.37777777777778,24.406779661016948,11.37777777777778C25.423728813559322,11.37777777777778,26.440677966101696,24.88888888888889,27.45762711864407,24.88888888888889C28.47457627118644,24.88888888888889,29.491525423728813,23.288888888888888,30.508474576271183,23.288888888888888C31.525423728813557,23.288888888888888,32.54237288135593,24.53333333333333,33.559322033898304,24.53333333333333C34.57627118644068,24.53333333333333,35.59322033898305,18.725925925925928,36.610169491525426,16.355555555555554C37.6271186440678,13.985185185185188,38.644067796610166,10.31111111111111,39.66101694915254,10.31111111111111C40.67796610169491,10.31111111111111,41.69491525423729,20.088888888888892,42.71186440677966,22.577777777777783C43.728813559322035,25.066666666666666,44.7457627118644,25.42222222222222,45.762711864406775,26.31111111111111C46.77966101694915,27.2,47.79661016949152,27.91111111111111,48.813559322033896,27.91111111111111C49.83050847457627,27.91111111111111,50.847457627118644,23.46666666666667,51.86440677966102,23.46666666666667C52.88135593220339,23.46666666666667,53.898305084745765,25.955555555555556,54.91525423728814,25.955555555555556C55.93220338983051,25.955555555555556,56.94915254237288,21.985185185185188,57.96610169491525,19.555555555555557C58.983050847457626,17.125925925925927,59.99999999999999,13.333333333333334,61.01694915254237,11.37777777777778C62.03389830508474,9.422222222222217,63.05084745762712,9.42222222222223,64.0677966101695,7.822222222222224C65.08474576271186,6.222222222222225,66.10169491525424,1.777777777777776,67.11864406779661,1.777777777777776C68.13559322033899,1.777777777777776,69.15254237288136,4.207407407407395,70.16949152542374,6.577777777777776C71.1864406779661,8.948148148148144,72.20338983050848,16,73.22033898305085,16C74.23728813559322,16,75.2542372881356,14.222222222222221,76.27118644067797,14.222222222222221C77.28813559322033,14.222222222222221,78.30508474576271,20.62222222222222,79.32203389830508,20.62222222222222C80.33898305084746,20.62222222222222,81.35593220338983,6.459259259259264,82.37288135593221,5.511111111111111C83.38983050847457,4.562962962962963,84.40677966101696,4.088888888888889,85.42372881355932,4.088888888888889C86.4406779661017,4.088888888888889,87.45762711864407,4.68148148148148,88.47457627118645,5.8666666666666645C89.49152542372882,7.051851851851837,90.50847457627118,17.955555555555556,91.52542372881355,17.955555555555556C92.54237288135593,17.955555555555556,93.55932203389831,17.77777777777778,94.57627118644069,17.77777777777778C95.59322033898306,17.77777777777778,96.61016949152543,23.644444444444446,97.62711864406779,23.644444444444446C98.64406779661016,23.644444444444446,99.66101694915254,10.844444444444443,100.6779661016949,10.844444444444443C101.69491525423729,10.844444444444443,102.71186440677965,15.318518518518522,103.72881355932203,16.888888888888893C104.7457627118644,18.45925925925926,105.76271186440678,20.266666666666666,106.77966101694915,20.266666666666666C107.79661016949153,20.266666666666666,108.8135593220339,15.466666666666669,109.83050847457628,15.466666666666669C110.84745762711864,15.466666666666669,111.86440677966102,22.577777777777776,112.88135593220339,23.288888888888888C113.89830508474576,24,114.91525423728814,24.355555555555554,115.9322033898305,24.355555555555554C116.94915254237289,24.355555555555554,117.96610169491525,22.90370370370372,118.98305084745763,21.15555555555556C120,19.407407407407412,121.01694915254237,13.866666666666667,122.03389830508473,13.866666666666667C123.05084745762711,13.866666666666667,124.0677966101695,19.08148148148148,125.08474576271188,19.555555555555557C126.10169491525424,20.02962962962963,127.11864406779662,19.999999999999996,128.135593220339,20.266666666666666C129.15254237288136,20.53333333333333,130.16949152542372,20.94814814814815,131.1864406779661,21.15555555555556C132.20338983050846,21.362962962962968,133.22033898305085,21.274074074074075,134.23728813559322,21.511111111111113C135.25423728813558,21.74814814814815,136.27118644067798,26.48888888888889,137.28813559322035,26.48888888888889C138.3050847457627,26.48888888888889,139.3220338983051,21.333333333333332,140.33898305084747,21.333333333333332C141.35593220338984,21.333333333333332,142.3728813559322,23.288888888888888,143.38983050847457,23.288888888888888C144.40677966101694,23.288888888888888,145.42372881355934,18.666666666666668,146.4406779661017,18.666666666666668C147.45762711864407,18.666666666666668,148.47457627118644,22.22222222222223,149.4915254237288,23.46666666666667C150.50847457627117,24.711111111111123,151.52542372881356,25.42222222222222,152.54237288135593,26.133333333333333C153.5593220338983,26.844444444444445,154.5762711864407,26.903703703703698,155.59322033898306,27.733333333333334C156.61016949152543,28.562962962962963,157.6271186440678,30.28148148148148,158.64406779661016,31.11111111111111C159.66101694915253,31.940740740740747,160.67796610169492,32.71111111111111,161.6949152542373,32.71111111111111C162.71186440677965,32.71111111111111,163.72881355932205,30.13333333333334,164.74576271186442,28.62222222222222C165.76271186440678,27.111111111111114,166.77966101694915,23.644444444444446,167.79661016949152,23.644444444444446C168.81355932203388,23.644444444444446,169.83050847457628,25.096296296296302,170.84745762711864,26.66666666666667C171.864406779661,28.23703703703704,172.8813559322034,33.06666666666666,173.89830508474577,33.06666666666666C174.91525423728814,33.06666666666666,175.93220338983053,30.75555555555556,176.9491525423729,30.75555555555556C177.96610169491527,30.75555555555556,178.98305084745763,31.733333333333334,180,32.71111111111111"></path><path class="axis-ceiling" stroke-width="1" stroke="black" fill="none" d="M175,0L180,0"></path><text class="axis-ceiling-label" font-family="sans-serif" text-anchor="end" font-size="10px" x="170" y="2.5">450</text></g></svg>