<svg xmlns="http://www.w3.org/2000/svg" viewBox="0 0 180 60"><g transform="translate(0,20)"><path class="area" fill="rgba(0, 0, 0, 0.2)" d="M0,6.880000000000002C1.0169491525423728,7.0533333333333355,2.0338983050847457,7.226666666666669,3.0508474576271185,7.360000000000002C4.067796610169491,7.493333333333335,5.084745762711864,7.466666666666668,6.101694915254237,7.679999999999998C7.11864406779661,7.893333333333328,8.135593220338983,10.186666666666667,9.152542372881356,10.72C10.169491525423728,11.253333333333334,11.186440677966102,11.253333333333334,12.203389830508474,11.520000000000001C13.220338983050846,11.786666666666669,14.23728813559322,12.320000000000002,15.254237288135592,12.320000000000002C16.271186440677965,12.320000000000002,17.28813559322034,12.26666666666667,18.305084745762713,12.160000000000002C19.322033898305087,12.053333333333335,20.338983050847457,11.520000000000001,21.35593220338983,11.520000000000001C22.372881355932204,11.520000000000001,23.389830508474574,12.053333333333336,24.406779661016948,12.480000000000002C25.423728813559322,12.906666666666668,26.440677966101696,13.626666666666665,27.45762711864407,14.079999999999998C28.47457627118644,14.53333333333333,29.491525423728813,14.719999999999999,30.508474576271183,15.2C31.525423728813557,15.68,32.54237288135593,16.293333333333333,33.559322033898304,16.96C34.57627118644068,17.62666666666667,35.59322033898305,18.37333333333333,36.610169491525426,19.2C37.6271186440678,20.026666666666664,38.644067796610166,20.986666666666668,39.66101694915254,21.92C40.67796610169491,22.853333333333335,41.69491525423729,24.026666666666667,42.71186440677966,24.8C43.728813559322035,25.57333333333333,44.7457627118644,26.34666666666666,45.762711864406775,26.559999999999995C46.77966101694915,26.77333333333333,47.79661016949152,26.66666666666666,48.813559322033896,26.879999999999995C49.83050847457627,27.09333333333333,50.847457627118644,27.81333333333333,51.86440677966102,28.159999999999997C52.88135593220339,28.506666666666664,53.898305084745765,28.693333333333335,54.91525423728814,28.96C55.93220338983051,29.226666666666667,56.94915254237288,29.466666666666665,57.96610169491525,29.759999999999998C58.983050847457626,30.05333333333333,59.99999999999999,30.4,61.01694915254237,30.72C62.03389830508474,31.04,63.05084745762712,31.68,64.0677966101695,31.68C65.08474576271186,31.68,66.10169491525424,31.68,67.11864406779661,31.68C68.13559322033899,31.68,69.15254237288136,32.373333333333335,70.16949152542374,32.64C71.1864406779661,32.906666666666666,72.20338983050848,32.986666666666665,73.22033898305085,33.28C74.23728813559322,33.57333333333334,75.2542372881356,34.053333333333335,76.27118644067797,34.4C77.28813559322033,34.74666666666666,78.30508474576271,35.14666666666667,79.32203389830508,35.36C80.33898305084746,35.57333333333333,81.35593220338983,35.68,82.37288135593221,35.68C83.38983050847457,35.68,84.40677966101696,35.68,85.42372881355932,35.68C86.4406779661017,35.68,87.45762711864407,35.78666666666667,88.47457627118645,35.84C89.49152542372882,35.89333333333334,90.50847457627118,35.89333333333334,91.52542372881355,36C92.54237288135593,36.10666666666667,93.55932203389831,36.480000000000004,94.57627118644069,36.480000000000004C95.59322033898306,36.480000000000004,96.61016949152543,36.480000000000004,97.62711864406779,36.480000000000004C98.64406779661016,36.480000000000004,99.66101694915254,36.64,100.6779661016949,36.64C101.69491525423729,36.64,102.71186440677965,36.53333333333334,103.72881355932203,36.480000000000004C104.7457627118644,36.42666666666667,105.76271186440678,36.373333333333335,106.77966101694915,36.32C107.79661016949153,36.266666666666666,108.8135593220339,36.21333333333334,109.83050847457628,36.160000000000004C110.84745762711864,36.10666666666667,111.86440677966102,36.10666666666667,112.88135593220339,36C113.89830508474576,35.89333333333333,114.91525423728814,35.57333333333333,115.9322033898305,35.36C116.94915254237289,35.14666666666667,117.96610169491525,34.88,118.98305084745763,34.72C120,34.56,121.01694915254237,34.50666666666667,122.03389830508473,34.4C123.05084745762711,34.29333333333333,124.0677966101695,34.18666666666667,125.08474576271188,34.08C126.10169491525424,33.97333333333333,127.11864406779662,33.919999999999995,128.135593220339,33.76C129.15254237288136,33.6,130.16949152542372,33.28,131.1864406779661,33.120000000000005C132.20338983050846,32.96,133.22033898305085,32.90666666666667,134.23728813559322,32.800000000000004C135.25423728813558,32.693333333333335,136.27118644067798,32.56,137.28813559322035,32.480000000000004C138.3050847457627,32.400000000000006,139.3220338983051,32.42666666666667,140.33898305084747,32.32C141.35593220338984,32.21333333333333,142.3728813559322,31.626666666666672,143.38983050847457,31.520000000000003C144.40677966101694,31.413333333333334,145.42372881355934,31.36,146.4406779661017,31.36C147.45762711864407,31.36,148.47457627118644,31.70666666666667,149.4915254237288,31.840000000000003C150.50847457627117,31.97333333333334,151.52542372881356,32.080000000000005,152.54237288135593,32.160000000000004C153.5593220338983,32.24,154.5762711864407,32.32,155.59322033898306,32.32C156.61016949152543,32.32,157.6271186440678,32.32,158.64406779661016,32.32C159.66101694915253,32.32,160.67796610169492,32.32,161.6949152542373,32.32C162.71186440677965,32.32,163.72881355932205,32.56,164.74576271186442,32.64C165.76271186440678,32.72,166.77966101694915,32.800000000000004,167.79661016949152,32.800000000000004C168.81355932203388,32.800000000000004,169.83050847457628,32.74666666666667,170.84745762711864,32.64C171.864406779661,32.53333333333333,172.8813559322034,32.160000000000004,173.89830508474577,32.160000000000004C174.91525423728814,32.160000000000004,175.93220338983053,32.24,176.9491525423729,32.32C177.96610169491527,32.4,178.98305084745763,32.52,180,32.64L180,40C178.98305084745763,40,177.96610169491527,40,176.9491525423729,40C175.93220338983053,40,174.91525423728814,40,173.89830508474577,40C172.8813559322034,40,171.864406779661,40,170.84745762711864,40C169.83050847457628,40,168.81355932203388,40,167.79661016949152,40C166.77966101694915,40,165.76271186440678,40,164.74576271186442,40C163.72881355932205,40,162.71186440677965,40,161.6949152542373,40C160.67796610169492,40,159.66101694915253,40,158.64406779661016,40C157.6271186440678,40,156.61016949152543,40,155.59322033898306,40C154.5762711864407,40,153.5593220338983,40,152.54237288135593,40C151.52542372881356,40,150.50847457627117,40,149.4915254237288,40C148.47457627118644,40,147.45762711864407,40,146.4406779661017,40C145.42372881355934,40,144.40677966101694,40,143.38983050847457,40C142.3728813559322,40,141.35593220338984,40,140.33898305084747,40C139.3220338983051,40,138.3050847457627,40,137.28813559322035,40C136.27118644067798,40,135.25423728813558,40,134.23728813559322,40C133.22033898305085,40,132.20338983050846,40,131.1864406779661,40C130.16949152542372,40,129.15254237288136,40,128.135593220339,40C127.11864406779662,40,126.10169491525424,40,125.08474576271188,40C124.0677966101695,40,123.05084745762711,40,122.03389830508473,40C121.01694915254237,40,120,40,118.98305084745763,40C117.96610169491525,40,116.94915254237289,40,115.9322033898305,40C114.91525423728814,40,113.89830508474576,40,112.88135593220339,40C111.86440677966102,40,110.84745762711864,40,109.83050847457628,40C108.8135593220339,40,107.79661016949153,40,106.77966101694915,40C105.76271186440678,40,104.7457627118644,40,103.72881355932203,40C102.71186440677965,40,101.69491525423729,40,100.6779661016949,40C99.66101694915254,40,98.64406779661016,40,97.62711864406779,40C96.61016949152543,40,95.59322033898306,40,94.57627118644069,40C93.55932203389831,40,92.54237288135593,40,91.52542372881355,40C90.50847457627118,40,89.49152542372882,40,88.47457627118645,40C87.45762711864407,40,86.4406779661017,40,85.42372881355932,40C84.40677966101696,40,83.38983050847457,40,82.37288135593221,40C81.35593220338983,40,80.33898305084746,40,79.32203389830508,40C78.30508474576271,40,77.28813559322033,40,76.27118644067797,40C75.2542372881356,40,74.23728813559322,40,73.22033898305085,40C72.20338983050848,40,71.1864406779661,40,70.16949152542374,40C69.15254237288136,40,68.13559322033899,40,67.11864406779661,40C66.10169491525424,40,65.08474576271186,40,64.0677966101695,40C63.05084745762712,40,62.03389830508474,40,61.01694915254237,40C59.99999999999999,40,58.983050847457626,40,57.96610169491525,40C56.94915254237288,40,55.93220338983051,40,54.91525423728814,40C53.898305084745765,40,52.88135593220339,40,51.86440677966102,40C50.847457627118644,40,49.83050847457627,40,48.813559322033896,40C47.79661016949152,40,46.77966101694915,40,45.762711864406775,40C44.7457627118644,40,43.728813559322035,40,42.71186440677966,40C41.69491525423729,40,40.67796610169491,40,39.66101694915254,40C38.644067796610166,40,37.6271186440678,40,36.610169491525426,40C35.59322033898305,40,34.57627118644068,40,33.559322033898304,40C32.54237288135593,40,31.525423728813557,40,30.508474576271183,40C29.491525423728813,40,28.47457627118644,40,27.45762711864407,40C26.440677966101696,40,25.423728813559322,40,24.406779661016948,40C23.389830508474574,40,22.372881355932204,40,21.35593220338983,40C20.338983050847457,40,19.322033898305087,40,18.305084745762713,40C17.28813559322034,40,16.271186440677965,40,15.254237288135592,40C14.23728813559322,40,13.220338983050846,40,12.203389830508474,40C11.186440677966102,40,10.169491525423728,40,9.152542372881356,40C8.135593220338983,40,7.11864406779661,40,6.101694915254237,40C5.084745762711864,40,4.067796610169491,40,3.0508474576271185,40C2.0338983050847457,40,1.0169491525423728,40,0,40Z"></path><path class="line" stroke="black" fill="none" d="M0,6.880000000000002C1.0169491525423728,7.0533333333333355,2.0338983050847457,7.226666666666669,3.0508474576271185,7.360000000000002C4.067796610169491,7.493333333333335,5.084745762711864,7.466666666666668,6.101694915254237,7.679999999999998C7.11864406779661,7.893333333333328,8.135593220338983,10.186666666666667,9.152542372881356,10.72C10.169491525423728,11.253333333333334,11.186440677966102,11.253333333333334,12.203389830508474,11.520000000000001C13.220338983050846,11.786666666666669,14.23728813559322,12.320000000000002,15.254237288135592,12.320000000000002C16.271186440677965,12.320000000000002,17.28813559322034,12.26666666666667,18.305084745762713,12.160000000000002C19.322033898305087,12.053333333333335,20.338983050847457,11.520000000000001,21.35593220338983,11.520000000000001C22.372881355932204,11.520000000000001,23.389830508474574,12.053333333333336,24.406779661016948,12.480000000000002C25.423728813559322,12.906666666666668,26.440677966101696,13.626666666666665,27.45762711864407,14.079999999999998C28.47457627118644,14.53333333333333,29.491525423728813,14.719999999999999,30.508474576271183,15.2C31.525423728813557,15.68,32.54237288135593,16.293333333333333,33.559322033898304,16.96C34.57627118644068,17.62666666666667,35.59322033898305,18.37333333333333,36.610169491525426,19.2C37.6271186440678,20.026666666666664,38.644067796610166,20.986666666666668,39.66101694915254,21.92C40.67796610169491,22.853333333333335,41.69491525423729,24.026666666666667,42.71186440677966,24.8C43.728813559322035,25.57333333333333,44.7457627118644,26.34666666666666,45.762711864406775,26.559999999999995C46.77966101694915,26.77333333333333,47.79661016949152,26.66666666666666,48.813559322033896,26.879999999999995C49.83050847457627,27.09333333333333,50.847457627118644,27.81333333333333,51.86440677966102,28.159999999999997C52.88135593220339,28.506666666666664,53.898305084745765,28.693333333333335,54.91525423728814,28.96C55.93220338983051,29.226666666666667,56.94915254237288,29.466666666666665,57.96610169491525,29.759999999999998C58.983050847457626,30.05333333333333,59.99999999999999,30.4,61.01694915254237,30.72C62.03389830508474,31.04,63.05084745762712,31.68,64.0677966101695,31.68C65.08474576271186,31.68,66.10169491525424,31.68,67.11864406779661,31.68C68.13559322033899,31.68,69.15254237288136,32.373333333333335,70.16949152542374,32.64C71.1864406779661,32.906666666666666,72.20338983050848,32.986666666666665,73.22033898305085,33.28C74.23728813559322,33.57333333333334,75.2542372881356,34.053333333333335,76.27118644067797,34.4C77.28813559322033,34.74666666666666,78.30508474576271,35.14666666666667,79.32203389830508,35.36C80.33898305084746,35.57333333333333,81.35593220338983,35.68,82.37288135593221,35.68C83.38983050847457,35.68,84.40677966101696,35.68,85.42372881355932,35.68C86.4406779661017,35.68,87.45762711864407,35.78666666666667,88.47457627118645,35.84C89.49152542372882,35.89333333333334,90.50847457627118,35.89333333333334,91.52542372881355,36C92.54237288135593,36.10666666666667,93.55932203389831,36.480000000000004,94.57627118644069,36.480000000000004C95.59322033898306,36.480000000000004,96.61016949152543,36.480000000000004,97.62711864406779,36.480000000000004C98.64406779661016,36.480000000000004,99.66101694915254,36.64,100.6779661016949,36.64C101.69491525423729,36.64,102.71186440677965,36.53333333333334,103.72881355932203,36.480000000000004C104.7457627118644,36.42666666666667,105.76271186440678,36.373333333333335,106.77966101694915,36.32C107.79661016949153,36.266666666666666,108.8135593220339,36.21333333333334,109.83050847457628,36.160000000000004C110.84745762711864,36.10666666666667,111.86440677966102,36.10666666666667,112.88135593220339,36C113.89830508474576,35.89333333333333,114.91525423728814,35.57333333333333,115.9322033898305,35.36C116.94915254237289,35.14666666666667,117.96610169491525,34.88,118.98305084745763,34.72C120,34.56,121.01694915254237,34.50666666666667,122.03389830508473,34.4C123.05084745762711,34.29333333333333,124.0677966101695,34.18666666666667,125.08474576271188,34.08C126.10169491525424,33.97333333333333,127.11864406779662,33.919999999999995,128.135593220339,33.76C129.15254237288136,33.6,130.16949152542372,33.28,131.1864406779661,33.120000000000005C132.20338983050846,32.96,133.22033898305085,32.90666666666667,134.23728813559322,32.800000000000004C135.25423728813558,32.693333333333335,136.27118644067798,32.56,137.28813559322035,32.480000000000004C138.3050847457627,32.400000000000006,139.3220338983051,32.42666666666667,140.33898305084747,32.32C141.35593220338984,32.21333333333333,142.3728813559322,31.626666666666672,143.38983050847457,31.520000000000003C144.40677966101694,31.413333333333334,145.42372881355934,31.36,146.4406779661017,31.36C147.45762711864407,31.36,148.47457627118644,31.70666666666667,149.4915254237288,31.840000000000003C150.50847457627117,31.97333333333334,151.52542372881356,32.080000000000005,152.54237288135593,32.160000000000004C153.5593220338983,32.24,154.5762711864407,32.32,155.59322033898306,32.32C156.61016949152543,32.32,157.6271186440678,32.32,158.64406779661016,32.32C159.66101694915253,32.32,160.67796610169492,32.32,161.6949152542373,32.32C162.71186440677965,32.32,163.72881355932205,32.56,164.74576271186442,32.64C165.76271186440678,32.72,166.77966101694915,32.800000000000004,167.79661016949152,32.800000000000004C168.81355932203388,32.800000000000004,169.83050847457628,32.74666666666667,170.84745762711864,32.64C171.864406779661,32.53333333333333,172.8813559322034,32.160000000000004,173.89830508474577,32.160000000000004C174.91525423728814,32.160000000000004,175.93220338983053,32.24,176.9491525423729,32.32C177.96610169491527,32.4,178.98305084745763,32.52,180,32.64"></path><path class="axis-ceiling" stroke-width="1" stroke="black" fill="none" d="M175,0L180,0"></path><text class="axis-ceiling-label" font-family="sans-serif" text-anchor="end" font-size="10px" x="170" y="2.5">250</text></g></svg>