<svg xmlns="http://www.w3.org/2000/svg" viewBox="0 0 180 60"><g transform="translate(0,20)"><path class="area" fill="rgba(0, 0, 0, 0.2)" d="M0,37.92C1.0169491525423728,38.53,2.0338983050847457,39.14,3.0508474576271185,39.14C4.067796610169491,39.14,5.084745762711864,38.53333333333333,6.101694915254237,38.239999999999995C7.11864406779661,37.94666666666666,8.135593220338983,37.473333333333336,9.152542372881356,37.38C10.169491525423728,37.28666666666667,11.186440677966102,37.24,12.203389830508474,37.24C13.220338983050846,37.24,14.23728813559322,37.34,15.254237288135592,37.34C16.271186440677965,37.34,17.28813559322034,36.98,18.305084745762713,36.98C19.322033898305087,36.98,20.338983050847457,37.61333333333333,21.35593220338983,37.94C22.372881355932204,38.266666666666666,23.389830508474574,38.94,24.406779661016948,38.94C25.423728813559322,38.94,26.440677966101696,36.98,27.45762711864407,36.98C28.47457627118644,36.98,29.491525423728813,37.62,30.508474576271183,37.62C31.525423728813557,37.62,32.54237288135593,37.32666666666667,33.559322033898304,37.18C34.57627118644068,37.03333333333333,35.59322033898305,36.906666666666666,36.610169491525426,36.74C37.6271186440678,36.57333333333334,38.644067796610166,36.18,39.66101694915254,36.18C40.67796610169491,36.18,41.69491525423729,36.81,42.71186440677966,37.18C43.728813559322035,37.55,44.7457627118644,38.4,45.762711864406775,38.4C46.77966101694915,38.4,47.79661016949152,36.953333333333326,48.813559322033896,36.62C49.83050847457627,36.28666666666667,50.847457627118644,36.120000000000005,51.86440677966102,36.120000000000005C52.88135593220339,36.120000000000005,53.898305084745765,36.56,54.91525423728814,36.56C55.93220338983051,36.56,56.94915254237288,35.980000000000004,57.96610169491525,35.82C58.983050847457626,35.66,59.99999999999999,35.58,61.01694915254237,35.58C62.03389830508474,35.58,63.05084745762712,36.25666666666667,64.0677966101695,36.68C65.08474576271186,37.10333333333333,66.10169491525424,38.12,67.11864406779661,38.12C68.13559322033899,38.12,69.15254237288136,36.07333333333334,70.16949152542374,35.5C71.1864406779661,34.92666666666667,72.20338983050848,34.64,73.22033898305085,34.64C74.23728813559322,34.64,75.2542372881356,34.8,76.27118644067797,34.8C77.28813559322033,34.8,78.30508474576271,34.74666666666666,79.32203389830508,34.64C80.33898305084746,34.53333333333334,81.35593220338983,32.800000000000004,82.37288135593221,32.800000000000004C83.38983050847457,32.800000000000004,84.40677966101696,34.72666666666667,85.42372881355932,35.46C86.4406779661017,36.193333333333335,87.45762711864407,37.199999999999996,88.47457627118645,37.199999999999996C89.49152542372882,37.199999999999996,90.50847457627118,34.86333333333332,91.52542372881355,33.68C92.54237288135593,32.496666666666655,93.55932203389831,30.099999999999998,94.57627118644069,30.099999999999998C95.59322033898306,30.099999999999998,96.61016949152543,31.720000000000002,97.62711864406779,31.720000000000002C98.64406779661016,31.720000000000002,99.66101694915254,31.580000000000002,100.6779661016949,31.299999999999997C101.69491525423729,31.019999999999992,102.71186440677965,29.580000000000002,103.72881355932203,29.580000000000002C104.7457627118644,29.580000000000002,105.76271186440678,32.33333333333332,106.77966101694915,32.519999999999996C107.79661016949153,32.70666666666667,108.8135593220339,32.800000000000004,109.83050847457628,32.800000000000004C110.84745762711864,32.800000000000004,111.86440677966102,30.669999999999998,112.88135593220339,29.54C113.89830508474576,28.41,114.91525423728814,27.05666666666667,115.9322033898305,26.020000000000003C116.94915254237289,24.983333333333334,117.96610169491525,23.32,118.98305084745763,23.32C120,23.32,121.01694915254237,25.5,122.03389830508473,25.5C123.05084745762711,25.5,124.0677966101695,20.52,125.08474576271188,20.52C126.10169491525424,20.52,127.11864406779662,20.786666666666665,128.135593220339,21.319999999999997C129.15254237288136,21.853333333333325,130.16949152542372,30.28,131.1864406779661,30.28C132.20338983050846,30.28,133.22033898305085,25.74666666666667,134.23728813559322,23.680000000000003C135.25423728813558,21.613333333333337,136.27118644067798,17.88,137.28813559322035,17.88C138.3050847457627,17.88,139.3220338983051,20.393333333333334,140.33898305084747,21.240000000000002C141.35593220338984,22.086666666666662,142.3728813559322,22.96,143.38983050847457,22.96C144.40677966101694,22.96,145.42372881355934,19.17333333333334,146.4406779661017,18.56C147.45762711864407,17.946666666666665,148.47457627118644,17.639999999999997,149.4915254237288,17.639999999999997C150.50847457627117,17.639999999999997,151.52542372881356,22.19333333333334,152.54237288135593,23.42C153.5593220338983,24.646666666666665,154.5762711864407,25.259999999999998,155.59322033898306,25.259999999999998C156.61016949152543,25.259999999999998,157.6271186440678,20.099999999999998,158.64406779661016,20.099999999999998C159.66101694915253,20.099999999999998,160.67796610169492,23.84,161.6949152542373,23.84C162.71186440677965,23.84,163.72881355932205,13.286666666666681,164.74576271186442,11.259999999999998C165.76271186440678,9.233333333333333,166.77966101694915,8.22,167.79661016949152,8.22C168.81355932203388,8.22,169.83050847457628,8.773333333333333,170.84745762711864,9.879999999999999C171.864406779661,10.986666666666665,172.8813559322034,17.759999999999998,173.89830508474577,17.759999999999998C174.91525423728814,17.759999999999998,175.93220338983053,14,176.9491525423729,14C177.96610169491527,14,178.98305084745763,24.86,180,35.72L180,40C178.98305084745763,40,177.96610169491527,40,176.9491525423729,40C175.93220338983053,40,174.91525423728814,40,173.89830508474577,40C172.8813559322034,40,171.864406779661,40,170.84745762711864,40C169.83050847457628,40,168.81355932203388,40,167.79661016949152,40C166.77966101694915,40,165.76271186440678,40,164.74576271186442,40C163.72881355932205,40,162.71186440677965,40,161.6949152542373,40C160.67796610169492,40,159.66101694915253,40,158.64406779661016,40C157.6271186440678,40,156.61016949152543,40,155.59322033898306,40C154.5762711864407,40,153.5593220338983,40,152.54237288135593,40C151.52542372881356,40,150.50847457627117,40,149.4915254237288,40C148.47457627118644,40,147.45762711864407,40,146.4406779661017,40C145.42372881355934,40,144.40677966101694,40,143.38983050847457,40C142.3728813559322,40,141.35593220338984,40,140.33898305084747,40C139.3220338983051,40,138.3050847457627,40,137.28813559322035,40C136.27118644067798,40,135.25423728813558,40,134.23728813559322,40C133.22033898305085,40,132.20338983050846,40,131.1864406779661,40C130.16949152542372,40,129.15254237288136,40,128.135593220339,40C127.11864406779662,40,126.10169491525424,40,125.08474576271188,40C124.0677966101695,40,123.05084745762711,40,122.03389830508473,40C121.01694915254237,40,120,40,118.98305084745763,40C117.96610169491525,40,116.94915254237289,40,115.9322033898305,40C114.91525423728814,40,113.89830508474576,40,112.88135593220339,40C111.86440677966102,40,110.84745762711864,40,109.83050847457628,40C108.8135593220339,40,107.79661016949153,40,106.77966101694915,40C105.76271186440678,40,104.7457627118644,40,103.72881355932203,40C102.71186440677965,40,101.69491525423729,40,100.6779661016949,40C99.66101694915254,40,98.64406779661016,40,97.62711864406779,40C96.61016949152543,40,95.59322033898306,40,94.57627118644069,40C93.55932203389831,40,92.54237288135593,40,91.52542372881355,40C90.50847457627118,40,89.49152542372882,40,88.47457627118645,40C87.45762711864407,40,86.4406779661017,40,85.42372881355932,40C84.40677966101696,40,83.38983050847457,40,82.37288135593221,40C81.35593220338983,40,80.33898305084746,40,79.32203389830508,40C78.30508474576271,40,77.28813559322033,40,76.27118644067797,40C75.2542372881356,40,74.23728813559322,40,73.22033898305085,40C72.20338983050848,40,71.1864406779661,40,70.16949152542374,40C69.15254237288136,40,68.13559322033899,40,67.11864406779661,40C66.10169491525424,40,65.08474576271186,40,64.0677966101695,40C63.05084745762712,40,62.03389830508474,40,61.01694915254237,40C59.99999999999999,40,58.983050847457626,40,57.96610169491525,40C56.94915254237288,40,55.93220338983051,40,54.91525423728814,40C53.898305084745765,40,52.88135593220339,40,51.86440677966102,40C50.847457627118644,40,49.83050847457627,40,48.813559322033896,40C47.79661016949152,40,46.77966101694915,40,45.762711864406775,40C44.7457627118644,40,43.728813559322035,40,42.71186440677966,40C41.69491525423729,40,40.67796610169491,40,39.66101694915254,40C38.644067796610166,40,37.6271186440678,40,36.610169491525426,40C35.59322033898305,40,34.57627118644068,40,33.559322033898304,40C32.54237288135593,40,31.525423728813557,40,30.508474576271183,40C29.491525423728813,40,28.47457627118644,40,27.45762711864407,40C26.440677966101696,40,25.423728813559322,40,24.406779661016948,40C23.389830508474574,40,22.372881355932204,40,21.35593220338983,40C20.338983050847457,40,19.322033898305087,40,18.305084745762713,40C17.28813559322034,40,16.271186440677965,40,15.254237288135592,40C14.23728813559322,40,13.220338983050846,40,12.203389830508474,40C11.186440677966102,40,10.169491525423728,40,9.152542372881356,40C8.135593220338983,40,7.11864406779661,40,6.101694915254237,40C5.084745762711864,40,4.067796610169491,40,3.0508474576271185,40C2.0338983050847457,40,1.0169491525423728,40,0,40Z"></path><path class="line" stroke="black" fill="none" d="M0,37.92C1.0169491525423728,38.53,2.0338983050847457,39.14,3.0508474576271185,39.14C4.067796610169491,39.14,5.084745762711864,38.53333333333333,6.101694915254237,38.239999999999995C7.11864406779661,37.94666666666666,8.135593220338983,37.473333333333336,9.152542372881356,37.38C10.169491525423728,37.28666666666667,11.186440677966102,37.24,12.203389830508474,37.24C13.220338983050846,37.24,14.23728813559322,37.34,15.254237288135592,37.34C16.271186440677965,37.34,17.28813559322034,36.98,18.305084745762713,36.98C19.322033898305087,36.98,20.338983050847457,37.61333333333333,21.35593220338983,37.94C22.372881355932204,38.266666666666666,23.389830508474574,38.94,24.406779661016948,38.94C25.423728813559322,38.94,26.440677966101696,36.98,27.45762711864407,36.98C28.47457627118644,36.98,29.491525423728813,37.62,30.508474576271183,37.62C31.525423728813557,37.62,32.54237288135593,37.32666666666667,33.559322033898304,37.18C34.57627118644068,37.03333333333333,35.59322033898305,36.906666666666666,36.610169491525426,36.74C37.6271186440678,36.57333333333334,38.644067796610166,36.18,39.66101694915254,36.18C40.67796610169491,36.18,41.69491525423729,36.81,42.71186440677966,37.18C43.728813559322035,37.55,44.7457627118644,38.4,45.762711864406775,38.4C46.77966101694915,38.4,47.79661016949152,36.953333333333326,48.813559322033896,36.62C49.83050847457627,36.28666666666667,50.847457627118644,36.120000000000005,51.86440677966102,36.120000000000005C52.88135593220339,36.120000000000005,53.898305084745765,36.56,54.91525423728814,36.56C55.93220338983051,36.56,56.94915254237288,35.980000000000004,57.96610169491525,35.82C58.983050847457626,35.66,59.99999999999999,35.58,61.01694915254237,35.58C62.03389830508474,35.58,63.05084745762712,36.25666666666667,64.0677966101695,36.68C65.08474576271186,37.10333333333333,66.10169491525424,38.12,67.11864406779661,38.12C68.13559322033899,38.12,69.15254237288136,36.07333333333334,70.16949152542374,35.5C71.1864406779661,34.92666666666667,72.20338983050848,34.64,73.22033898305085,34.64C74.23728813559322,34.64,75.2542372881356,34.8,76.27118644067797,34.8C77.28813559322033,34.8,78.30508474576271,34.74666666666666,79.32203389830508,34.64C80.33898305084746,34.53333333333334,81.35593220338983,32.800000000000004,82.37288135593221,32.800000000000004C83.38983050847457,32.800000000000004,84.40677966101696,34.72666666666667,85.42372881355932,35.46C86.4406779661017,36.193333333333335,87.45762711864407,37.199999999999996,88.47457627118645,37.199999999999996C89.49152542372882,37.199999999999996,90.50847457627118,34.86333333333332,91.52542372881355,33.68C92.54237288135593,32.496666666666655,93.55932203389831,30.099999999999998,94.57627118644069,30.099999999999998C95.59322033898306,30.099999999999998,96.61016949152543,31.720000000000002,97.62711864406779,31.720000000000002C98.64406779661016,31.720000000000002,99.66101694915254,31.580000000000002,100.6779661016949,31.299999999999997C101.69491525423729,31.019999999999992,102.71186440677965,29.580000000000002,103.72881355932203,29.580000000000002C104.7457627118644,29.580000000000002,105.76271186440678,32.33333333333332,106.77966101694915,32.519999999999996C107.79661016949153,32.70666666666667,108.8135593220339,32.800000000000004,109.83050847457628,32.800000000000004C110.84745762711864,32.800000000000004,111.86440677966102,30.669999999999998,112.88135593220339,29.54C113.89830508474576,28.41,114.91525423728814,27.05666666666667,115.9322033898305,26.020000000000003C116.94915254237289,24.983333333333334,117.96610169491525,23.32,118.98305084745763,23.32C120,23.32,121.01694915254237,25.5,122.03389830508473,25.5C123.05084745762711,25.5,124.0677966101695,20.52,125.08474576271188,20.52C126.10169491525424,20.52,127.11864406779662,20.786666666666665,128.135593220339,21.319999999999997C129.15254237288136,21.853333333333325,130.16949152542372,30.28,131.1864406779661,30.28C132.20338983050846,30.28,133.22033898305085,25.74666666666667,134.23728813559322,23.680000000000003C135.25423728813558,21.613333333333337,136.27118644067798,17.88,137.28813559322035,17.88C138.3050847457627,17.88,139.3220338983051,20.393333333333334,140.33898305084747,21.240000000000002C141.35593220338984,22.086666666666662,142.3728813559322,22.96,143.38983050847457,22.96C144.40677966101694,22.96,145.42372881355934,19.17333333333334,146.4406779661017,18.56C147.45762711864407,17.946666666666665,148.47457627118644,17.639999999999997,149.4915254237288,17.639999999999997C150.50847457627117,17.639999999999997,151.52542372881356,22.19333333333334,152.54237288135593,23.42C153.5593220338983,24.646666666666665,154.5762711864407,25.259999999999998,155.59322033898306,25.259999999999998C156.61016949152543,25.259999999999998,157.6271186440678,20.099999999999998,158.64406779661016,20.099999999999998C159.66101694915253,20.099999999999998,160.67796610169492,23.84,161.6949152542373,23.84C162.71186440677965,23.84,163.72881355932205,13.286666666666681,164.74576271186442,11.259999999999998C165.76271186440678,9.233333333333333,166.77966101694915,8.22,167.79661016949152,8.22C168.81355932203388,8.22,169.83050847457628,8.773333333333333,170.84745762711864,9.879999999999999C171.864406779661,10.986666666666665,172.8813559322034,17.759999999999998,173.89830508474577,17.759999999999998C174.91525423728814,17.759999999999998,175.93220338983053,14,176.9491525423729,14C177.96610169491527,14,178.98305084745763,24.86,180,35.72"></path><path class="axis-ceiling" stroke-width="1" stroke="black" fill="none" d="M175,0L180,0"></path><text class="axis-ceiling-label" font-family="sans-serif" text-anchor="end" font-size="10px" x="170" y="2.5">2000</text></g></svg>