<svg xmlns="http://www.w3.org/2000/svg" viewBox="0 0 180 60"><g transform="translate(0,20)"><path class="area" fill="rgba(0, 0, 0, 0.2)" d="M0,35.46666666666667C1.0344827586206897,35.044444444444444,2.068965517241379,34.62222222222222,3.103448275862069,33.49333333333333C4.137931034482759,32.364444444444445,5.172413793103448,28.693333333333335,6.206896551724138,28.693333333333335C7.241379310344827,28.693333333333335,8.275862068965516,30.72,9.310344827586206,30.72C10.344827586206897,30.72,11.379310344827585,29.977777777777774,12.413793103448276,29.706666666666663C13.448275862068966,29.435555555555553,14.482758620689655,29.093333333333334,15.517241379310345,29.093333333333334C16.551724137931036,29.093333333333334,17.586206896551722,30.026666666666664,18.620689655172413,30.666666666666664C19.655172413793103,31.306666666666665,20.689655172413794,32.422222222222224,21.724137931034484,32.93333333333334C22.758620689655174,33.44444444444445,23.79310344827586,33.733333333333334,24.82758620689655,33.733333333333334C25.862068965517242,33.733333333333334,26.896551724137932,29.964444444444446,27.931034482758623,28.186666666666667C28.965517241379313,26.40888888888889,30,23.42222222222222,31.03448275862069,23.066666666666666C32.06896551724138,22.711111111111112,33.103448275862064,22.875555555555557,34.137931034482754,22.533333333333335C35.172413793103445,22.191111111111113,36.206896551724135,21.013333333333332,37.241379310344826,21.013333333333332C38.275862068965516,21.013333333333332,39.310344827586206,26.142222222222227,40.3448275862069,26.26666666666667C41.37931034482759,26.391111111111112,42.41379310344828,26.453333333333333,43.44827586206897,26.453333333333333C44.48275862068966,26.453333333333333,45.51724137931035,22.599999999999998,46.55172413793104,20.106666666666662C47.58620689655173,17.61333333333333,48.62068965517241,12.737777777777774,49.6551724137931,11.493333333333332C50.689655172413794,10.24888888888889,51.72413793103448,9.982222222222223,52.75862068965517,9.626666666666669C53.79310344827586,9.271111111111113,54.827586206896555,9.093333333333335,55.862068965517246,9.093333333333335C56.896551724137936,9.093333333333335,57.93103448275862,9.244444444444445,58.96551724137931,9.546666666666667C60,9.848888888888888,61.03448275862069,10.751111111111111,62.06896551724138,12.240000000000002C63.10344827586207,13.72888888888889,64.13793103448276,18.479999999999997,65.17241379310344,18.479999999999997C66.20689655172413,18.479999999999997,67.24137931034483,18,68.27586206896551,17.040000000000003C69.3103448275862,16.080000000000002,70.34482758620689,9.44,71.37931034482759,9.44C72.41379310344827,9.44,73.44827586206897,11.493333333333332,74.48275862068965,11.493333333333332C75.51724137931033,11.493333333333332,76.55172413793103,10.613333333333333,77.58620689655172,10.613333333333333C78.62068965517241,10.613333333333333,79.6551724137931,11.933333333333326,80.6896551724138,12.959999999999997C81.72413793103448,13.986666666666663,82.75862068965517,15.542222222222225,83.79310344827586,16.773333333333333C84.82758620689656,18.00444444444445,85.86206896551724,20.346666666666664,86.89655172413794,20.346666666666664C87.93103448275862,20.346666666666664,88.96551724137932,19.977777777777774,90,19.386666666666667C91.0344827586207,18.795555555555556,92.06896551724138,16.8,93.10344827586208,16.8C94.13793103448276,16.8,95.17241379310344,20.746666666666663,96.20689655172413,20.746666666666663C97.24137931034483,20.746666666666663,98.27586206896551,19.866666666666667,99.3103448275862,19.866666666666667C100.3448275862069,19.866666666666667,101.37931034482759,20.133333333333333,102.41379310344828,20.666666666666664C103.44827586206897,21.199999999999992,104.48275862068965,26.06222222222223,105.51724137931033,27.466666666666665C106.55172413793103,28.871111111111112,107.58620689655172,29.537777777777787,108.62068965517241,29.573333333333338C109.65517241379311,29.608888888888888,110.6896551724138,29.626666666666665,111.72413793103449,29.626666666666665C112.75862068965517,29.626666666666665,113.79310344827587,27.439999999999998,114.82758620689656,27.439999999999998C115.86206896551724,27.439999999999998,116.89655172413794,28.773333333333333,117.93103448275862,28.773333333333333C118.96551724137932,28.773333333333333,120,28.666666666666668,121.0344827586207,28.666666666666668C122.06896551724138,28.666666666666668,123.10344827586208,31.226666666666667,124.13793103448276,31.76C125.17241379310344,32.29333333333334,126.20689655172414,32.02666666666667,127.24137931034483,32.56C128.27586206896552,33.093333333333334,129.3103448275862,36.08,130.3448275862069,36.08C131.3793103448276,36.08,132.41379310344828,35.12444444444445,133.44827586206898,34.50666666666667C134.48275862068965,33.88888888888889,135.51724137931035,32.373333333333335,136.55172413793102,32.373333333333335C137.58620689655172,32.373333333333335,138.6206896551724,33.404444444444444,139.6551724137931,33.733333333333334C140.6896551724138,34.06222222222222,141.72413793103448,33.98222222222222,142.75862068965517,34.346666666666664C143.79310344827587,34.71111111111111,144.82758620689654,35.83111111111111,145.86206896551724,35.92C146.89655172413794,36.00888888888889,147.9310344827586,35.964444444444446,148.9655172413793,36.053333333333335C150,36.14222222222222,151.0344827586207,37.733333333333334,152.0689655172414,37.733333333333334C153.10344827586206,37.733333333333334,154.13793103448276,37.471111111111114,155.17241379310343,37.333333333333336C156.20689655172413,37.19555555555556,157.24137931034483,37.120000000000005,158.27586206896552,36.906666666666666C159.31034482758622,36.693333333333335,160.3448275862069,36.053333333333335,161.3793103448276,36.053333333333335C162.41379310344828,36.053333333333335,163.44827586206895,36.662222222222226,164.48275862068965,36.96C165.51724137931035,37.257777777777775,166.55172413793102,37.839999999999996,167.58620689655172,37.839999999999996C168.6206896551724,37.839999999999996,169.6551724137931,37.78666666666667,170.6896551724138,37.78666666666667C171.7241379310345,37.78666666666667,172.75862068965517,38.13333333333333,173.79310344827587,38.13333333333333C174.82758620689657,38.13333333333333,175.86206896551724,37.71999999999999,176.89655172413794,37.599999999999994C177.93103448275863,37.48,178.9655172413793,37.446666666666665,180,37.413333333333334L180,40C178.9655172413793,40,177.93103448275863,40,176.89655172413794,40C175.86206896551724,40,174.82758620689657,40,173.79310344827587,40C172.75862068965517,40,171.7241379310345,40,170.6896551724138,40C169.6551724137931,40,168.6206896551724,40,167.58620689655172,40C166.55172413793102,40,165.51724137931035,40,164.48275862068965,40C163.44827586206895,40,162.41379310344828,40,161.3793103448276,40C160.3448275862069,40,159.31034482758622,40,158.27586206896552,40C157.24137931034483,40,156.20689655172413,40,155.17241379310343,40C154.13793103448276,40,153.10344827586206,40,152.0689655172414,40C151.0344827586207,40,150,40,148.9655172413793,40C147.9310344827586,40,146.89655172413794,40,145.86206896551724,40C144.82758620689654,40,143.79310344827587,40,142.75862068965517,40C141.72413793103448,40,140.6896551724138,40,139.6551724137931,40C138.6206896551724,40,137.58620689655172,40,136.55172413793102,40C135.51724137931035,40,134.48275862068965,40,133.44827586206898,40C132.41379310344828,40,131.3793103448276,40,130.3448275862069,40C129.3103448275862,40,128.27586206896552,40,127.24137931034483,40C126.20689655172414,40,125.17241379310344,40,124.13793103448276,40C123.10344827586208,40,122.06896551724138,40,121.0344827586207,40C120,40,118.96551724137932,40,117.93103448275862,40C116.89655172413794,40,115.86206896551724,40,114.82758620689656,40C113.79310344827587,40,112.75862068965517,40,111.72413793103449,40C110.6896551724138,40,109.65517241379311,40,108.62068965517241,40C107.58620689655172,40,106.55172413793103,40,105.51724137931033,40C104.48275862068965,40,103.44827586206897,40,102.41379310344828,40C101.37931034482759,40,100.3448275862069,40,99.3103448275862,40C98.27586206896551,40,97.24137931034483,40,96.20689655172413,40C95.17241379310344,40,94.13793103448276,40,93.10344827586208,40C92.06896551724138,40,91.0344827586207,40,90,40C88.96551724137932,40,87.93103448275862,40,86.89655172413794,40C85.86206896551724,40,84.82758620689656,40,83.79310344827586,40C82.75862068965517,40,81.72413793103448,40,80.6896551724138,40C79.6551724137931,40,78.62068965517241,40,77.58620689655172,40C76.55172413793103,40,75.51724137931033,40,74.48275862068965,40C73.44827586206897,40,72.41379310344827,40,71.37931034482759,40C70.34482758620689,40,69.3103448275862,40,68.27586206896551,40C67.24137931034483,40,66.20689655172413,40,65.17241379310344,40C64.13793103448276,40,63.10344827586207,40,62.06896551724138,40C61.03448275862069,40,60,40,58.96551724137931,40C57.93103448275862,40,56.896551724137936,40,55.862068965517246,40C54.827586206896555,40,53.79310344827586,40,52.75862068965517,40C51.72413793103448,40,50.689655172413794,40,49.6551724137931,40C48.62068965517241,40,47.58620689655173,40,46.55172413793104,40C45.51724137931035,40,44.48275862068966,40,43.44827586206897,40C42.41379310344828,40,41.37931034482759,40,40.3448275862069,40C39.310344827586206,40,38.275862068965516,40,37.241379310344826,40C36.206896551724135,40,35.172413793103445,40,34.137931034482754,40C33.103448275862064,40,32.06896551724138,40,31.03448275862069,40C30,40,28.965517241379313,40,27.931034482758623,40C26.896551724137932,40,25.862068965517242,40,24.82758620689655,40C23.79310344827586,40,22.758620689655174,40,21.724137931034484,40C20.689655172413794,40,19.655172413793103,40,18.620689655172413,40C17.586206896551722,40,16.551724137931036,40,15.517241379310345,40C14.482758620689655,40,13.448275862068966,40,12.413793103448276,40C11.379310344827585,40,10.344827586206897,40,9.310344827586206,40C8.275862068965516,40,7.241379310344827,40,6.206896551724138,40C5.172413793103448,40,4.137931034482759,40,3.103448275862069,40C2.068965517241379,40,1.0344827586206897,40,0,40Z"></path><path class="line" stroke="black" fill="none" d="M0,35.46666666666667C1.0344827586206897,35.044444444444444,2.068965517241379,34.62222222222222,3.103448275862069,33.49333333333333C4.137931034482759,32.364444444444445,5.172413793103448,28.693333333333335,6.206896551724138,28.693333333333335C7.241379310344827,28.693333333333335,8.275862068965516,30.72,9.310344827586206,30.72C10.344827586206897,30.72,11.379310344827585,29.977777777777774,12.413793103448276,29.706666666666663C13.448275862068966,29.435555555555553,14.482758620689655,29.093333333333334,15.517241379310345,29.093333333333334C16.551724137931036,29.093333333333334,17.586206896551722,30.026666666666664,18.620689655172413,30.666666666666664C19.655172413793103,31.306666666666665,20.689655172413794,32.422222222222224,21.724137931034484,32.93333333333334C22.758620689655174,33.44444444444445,23.79310344827586,33.733333333333334,24.82758620689655,33.733333333333334C25.862068965517242,33.733333333333334,26.896551724137932,29.964444444444446,27.931034482758623,28.186666666666667C28.965517241379313,26.40888888888889,30,23.42222222222222,31.03448275862069,23.066666666666666C32.06896551724138,22.711111111111112,33.103448275862064,22.875555555555557,34.137931034482754,22.533333333333335C35.172413793103445,22.191111111111113,36.206896551724135,21.013333333333332,37.241379310344826,21.013333333333332C38.275862068965516,21.013333333333332,39.310344827586206,26.142222222222227,40.3448275862069,26.26666666666667C41.37931034482759,26.391111111111112,42.41379310344828,26.453333333333333,43.44827586206897,26.453333333333333C44.48275862068966,26.453333333333333,45.51724137931035,22.599999999999998,46.55172413793104,20.106666666666662C47.58620689655173,17.61333333333333,48.62068965517241,12.737777777777774,49.6551724137931,11.493333333333332C50.689655172413794,10.24888888888889,51.72413793103448,9.982222222222223,52.75862068965517,9.626666666666669C53.79310344827586,9.271111111111113,54.827586206896555,9.093333333333335,55.862068965517246,9.093333333333335C56.896551724137936,9.093333333333335,57.93103448275862,9.244444444444445,58.96551724137931,9.546666666666667C60,9.848888888888888,61.03448275862069,10.751111111111111,62.06896551724138,12.240000000000002C63.10344827586207,13.72888888888889,64.13793103448276,18.479999999999997,65.17241379310344,18.479999999999997C66.20689655172413,18.479999999999997,67.24137931034483,18,68.27586206896551,17.040000000000003C69.3103448275862,16.080000000000002,70.34482758620689,9.44,71.37931034482759,9.44C72.41379310344827,9.44,73.44827586206897,11.493333333333332,74.48275862068965,11.493333333333332C75.51724137931033,11.493333333333332,76.55172413793103,10.613333333333333,77.58620689655172,10.613333333333333C78.62068965517241,10.613333333333333,79.6551724137931,11.933333333333326,80.6896551724138,12.959999999999997C81.72413793103448,13.986666666666663,82.75862068965517,15.542222222222225,83.79310344827586,16.773333333333333C84.82758620689656,18.00444444444445,85.86206896551724,20.346666666666664,86.89655172413794,20.346666666666664C87.93103448275862,20.346666666666664,88.96551724137932,19.977777777777774,90,19.386666666666667C91.0344827586207,18.795555555555556,92.06896551724138,16.8,93.10344827586208,16.8C94.13793103448276,16.8,95.17241379310344,20.746666666666663,96.20689655172413,20.746666666666663C97.24137931034483,20.746666666666663,98.27586206896551,19.866666666666667,99.3103448275862,19.866666666666667C100.3448275862069,19.866666666666667,101.37931034482759,20.133333333333333,102.41379310344828,20.666666666666664C103.44827586206897,21.199999999999992,104.48275862068965,26.06222222222223,105.51724137931033,27.466666666666665C106.55172413793103,28.871111111111112,107.58620689655172,29.537777777777787,108.62068965517241,29.573333333333338C109.65517241379311,29.608888888888888,110.6896551724138,29.626666666666665,111.72413793103449,29.626666666666665C112.75862068965517,29.626666666666665,113.79310344827587,27.439999999999998,114.82758620689656,27.439999999999998C115.86206896551724,27.439999999999998,116.89655172413794,28.773333333333333,117.93103448275862,28.773333333333333C118.96551724137932,28.773333333333333,120,28.666666666666668,121.0344827586207,28.666666666666668C122.06896551724138,28.666666666666668,123.10344827586208,31.226666666666667,124.13793103448276,31.76C125.17241379310344,32.29333333333334,126.20689655172414,32.02666666666667,127.24137931034483,32.56C128.27586206896552,33.093333333333334,129.3103448275862,36.08,130.3448275862069,36.08C131.3793103448276,36.08,132.41379310344828,35.12444444444445,133.44827586206898,34.50666666666667C134.48275862068965,33.88888888888889,135.51724137931035,32.373333333333335,136.55172413793102,32.373333333333335C137.58620689655172,32.373333333333335,138.6206896551724,33.404444444444444,139.6551724137931,33.733333333333334C140.6896551724138,34.06222222222222,141.72413793103448,33.98222222222222,142.75862068965517,34.346666666666664C143.79310344827587,34.71111111111111,144.82758620689654,35.83111111111111,145.86206896551724,35.92C146.89655172413794,36.00888888888889,147.9310344827586,35.964444444444446,148.9655172413793,36.053333333333335C150,36.14222222222222,151.0344827586207,37.733333333333334,152.0689655172414,37.733333333333334C153.10344827586206,37.733333333333334,154.13793103448276,37.471111111111114,155.17241379310343,37.333333333333336C156.20689655172413,37.19555555555556,157.24137931034483,37.120000000000005,158.27586206896552,36.906666666666666C159.31034482758622,36.693333333333335,160.3448275862069,36.053333333333335,161.3793103448276,36.053333333333335C162.41379310344828,36.053333333333335,163.44827586206895,36.662222222222226,164.48275862068965,36.96C165.51724137931035,37.257777777777775,166.55172413793102,37.839999999999996,167.58620689655172,37.839999999999996C168.6206896551724,37.839999999999996,169.6551724137931,37.78666666666667,170.6896551724138,37.78666666666667C171.7241379310345,37.78666666666667,172.75862068965517,38.13333333333333,173.79310344827587,38.13333333333333C174.82758620689657,38.13333333333333,175.86206896551724,37.71999999999999,176.89655172413794,37.599999999999994C177.93103448275863,37.48,178.9655172413793,37.446666666666665,180,37.413333333333334"></path><path class="axis-ceiling" stroke-width="1" stroke="black" fill="none" d="M175,0L180,0"></path><text class="axis-ceiling-label" font-family="sans-serif" text-anchor="end" font-size="10px" x="170" y="2.5">1500</text></g></svg>