<svg xmlns="http://www.w3.org/2000/svg" viewBox="0 0 180 60"><g transform="translate(0,20)"><path class="area" fill="rgba(0, 0, 0, 0.2)" d="M0,32.900800000000004C1.0169491525423728,32.696266666666666,2.0338983050847457,32.49173333333333,3.0508474576271185,32.336C4.067796610169491,32.18026666666667,5.084745762711864,31.9664,6.101694915254237,31.9664C7.11864406779661,31.9664,8.135593220338983,32.0944,9.152542372881356,32.0944C10.169491525423728,32.0944,11.186440677966102,31.845066666666668,12.203389830508474,31.6064C13.220338983050846,31.367733333333334,14.23728813559322,30.986933333333337,15.254237288135592,30.6624C16.271186440677965,30.337866666666667,17.28813559322034,29.961866666666666,18.305084745762713,29.6592C19.322033898305087,29.35653333333333,20.338983050847457,29.106133333333336,21.35593220338983,28.846400000000003C22.372881355932204,28.58666666666667,23.389830508474574,28.338133333333335,24.406779661016948,28.1008C25.423728813559322,27.863466666666664,26.440677966101696,27.733866666666664,27.45762711864407,27.422399999999996C28.47457627118644,27.110933333333328,29.491525423728813,26.57893333333333,30.508474576271183,26.232C31.525423728813557,25.885066666666667,32.54237288135593,25.553333333333335,33.559322033898304,25.3408C34.57627118644068,25.12826666666667,35.59322033898305,25.065600000000003,36.610169491525426,24.9568C37.6271186440678,24.848000000000003,38.644067796610166,24.844266666666666,39.66101694915254,24.688C40.67796610169491,24.53173333333333,41.69491525423729,24.189600000000002,42.71186440677966,24.0192C43.728813559322035,23.8488,44.7457627118644,23.836266666666663,45.762711864406775,23.665599999999998C46.77966101694915,23.494933333333332,47.79661016949152,23.193600000000004,48.813559322033896,22.995200000000004C49.83050847457627,22.796800000000005,50.847457627118644,22.668799999999997,51.86440677966102,22.475199999999997C52.88135593220339,22.281599999999997,53.898305084745765,22.1008,54.91525423728814,21.8336C55.93220338983051,21.5664,56.94915254237288,21.179466666666666,57.96610169491525,20.872C58.983050847457626,20.564533333333333,59.99999999999999,20.258133333333333,61.01694915254237,19.9888C62.03389830508474,19.719466666666666,63.05084745762712,19.688800000000004,64.0677966101695,19.256C65.08474576271186,18.8232,66.10169491525424,17.61173333333333,67.11864406779661,17.392C68.13559322033899,17.17226666666667,69.15254237288136,17.15973333333334,70.16949152542374,17.062400000000004C71.1864406779661,16.965066666666672,72.20338983050848,16.977600000000002,73.22033898305085,16.808C74.23728813559322,16.638399999999997,75.2542372881356,16.119466666666668,76.27118644067797,15.7824C77.28813559322033,15.445333333333334,78.30508474576271,15.010666666666665,79.32203389830508,14.785599999999999C80.33898305084746,14.56053333333333,81.35593220338983,14.432,82.37288135593221,14.432C83.38983050847457,14.432,84.40677966101696,15.026133333333334,85.42372881355932,15.088C86.4406779661017,15.149866666666664,87.45762711864407,15.180799999999998,88.47457627118645,15.180799999999998C89.49152542372882,15.180799999999998,90.50847457627118,14.592,91.52542372881355,14.592C92.54237288135593,14.592,93.55932203389831,14.866933333333336,94.57627118644069,14.956800000000001C95.59322033898306,15.046666666666667,96.61016949152543,15.131199999999998,97.62711864406779,15.131199999999998C98.64406779661016,15.131199999999998,99.66101694915254,14.84053333333333,100.6779661016949,14.270399999999999C101.69491525423729,13.700266666666666,102.71186440677965,12.554133333333336,103.72881355932203,11.7104C104.7457627118644,10.866666666666669,105.76271186440678,9.845066666666664,106.77966101694915,9.207999999999998C107.79661016949153,8.570933333333329,108.8135593220339,8.191733333333335,109.83050847457628,7.888000000000002C110.84745762711864,7.58426666666667,111.86440677966102,7.641866666666668,112.88135593220339,7.385600000000001C113.89830508474576,7.129333333333334,114.91525423728814,6.770133333333333,115.9322033898305,6.3504000000000005C116.94915254237289,5.930666666666666,117.96610169491525,4.8672,118.98305084745763,4.8672C120,4.8672,121.01694915254237,4.986666666666666,122.03389830508473,5.225599999999999C123.05084745762711,5.464533333333335,124.0677966101695,6.513333333333329,125.08474576271188,7.116799999999999C126.10169491525424,7.720266666666663,127.11864406779662,8.238133333333334,128.135593220339,8.846400000000001C129.15254237288136,9.454666666666666,130.16949152542372,10.269066666666665,131.1864406779661,10.766399999999997C132.20338983050846,11.263733333333334,133.22033898305085,11.509866666666667,134.23728813559322,11.830400000000001C135.25423728813558,12.150933333333334,136.27118644067798,12.257333333333332,137.28813559322035,12.689599999999999C138.3050847457627,13.121866666666666,139.3220338983051,13.890133333333331,140.33898305084747,14.424000000000001C141.35593220338984,14.957866666666666,142.3728813559322,15.418400000000004,143.38983050847457,15.892800000000001C144.40677966101694,16.367200000000004,145.42372881355934,16.854933333333335,146.4406779661017,17.270400000000002C147.45762711864407,17.685866666666666,148.47457627118644,18.02346666666667,149.4915254237288,18.385600000000004C150.50847457627117,18.74773333333334,151.52542372881356,19.12693333333333,152.54237288135593,19.443199999999997C153.5593220338983,19.759466666666665,154.5762711864407,20.035999999999998,155.59322033898306,20.2832C156.61016949152543,20.5304,157.6271186440678,20.6456,158.64406779661016,20.9264C159.66101694915253,21.2072,160.67796610169492,21.62773333333333,161.6949152542373,21.968C162.71186440677965,22.30826666666667,163.72881355932205,22.651200000000003,164.74576271186442,22.968000000000004C165.76271186440678,23.2848,166.77966101694915,23.614666666666665,167.79661016949152,23.868799999999997C168.81355932203388,24.122933333333332,169.83050847457628,24.295199999999998,170.84745762711864,24.4928C171.864406779661,24.6904,172.8813559322034,24.881333333333334,173.89830508474577,25.0544C174.91525423728814,25.22746666666667,175.93220338983053,25.36933333333333,176.9491525423729,25.5312C177.96610169491527,25.693066666666663,178.98305084745763,25.859333333333332,180,26.0256L180,40C178.98305084745763,40,177.96610169491527,40,176.9491525423729,40C175.93220338983053,40,174.91525423728814,40,173.89830508474577,40C172.8813559322034,40,171.864406779661,40,170.84745762711864,40C169.83050847457628,40,168.81355932203388,40,167.79661016949152,40C166.77966101694915,40,165.76271186440678,40,164.74576271186442,40C163.72881355932205,40,162.71186440677965,40,161.6949152542373,40C160.67796610169492,40,159.66101694915253,40,158.64406779661016,40C157.6271186440678,40,156.61016949152543,40,155.59322033898306,40C154.5762711864407,40,153.5593220338983,40,152.54237288135593,40C151.52542372881356,40,150.50847457627117,40,149.4915254237288,40C148.47457627118644,40,147.45762711864407,40,146.4406779661017,40C145.42372881355934,40,144.40677966101694,40,143.38983050847457,40C142.3728813559322,40,141.35593220338984,40,140.33898305084747,40C139.3220338983051,40,138.3050847457627,40,137.28813559322035,40C136.27118644067798,40,135.25423728813558,40,134.23728813559322,40C133.22033898305085,40,132.20338983050846,40,131.1864406779661,40C130.16949152542372,40,129.15254237288136,40,128.135593220339,40C127.11864406779662,40,126.10169491525424,40,125.08474576271188,40C124.0677966101695,40,123.05084745762711,40,122.03389830508473,40C121.01694915254237,40,120,40,118.98305084745763,40C117.96610169491525,40,116.94915254237289,40,115.9322033898305,40C114.91525423728814,40,113.89830508474576,40,112.88135593220339,40C111.86440677966102,40,110.84745762711864,40,109.83050847457628,40C108.8135593220339,40,107.79661016949153,40,106.77966101694915,40C105.76271186440678,40,104.7457627118644,40,103.72881355932203,40C102.71186440677965,40,101.69491525423729,40,100.6779661016949,40C99.66101694915254,40,98.64406779661016,40,97.62711864406779,40C96.61016949152543,40,95.59322033898306,40,94.57627118644069,40C93.55932203389831,40,92.54237288135593,40,91.52542372881355,40C90.50847457627118,40,89.49152542372882,40,88.47457627118645,40C87.45762711864407,40,86.4406779661017,40,85.42372881355932,40C84.40677966101696,40,83.38983050847457,40,82.37288135593221,40C81.35593220338983,40,80.33898305084746,40,79.32203389830508,40C78.30508474576271,40,77.28813559322033,40,76.27118644067797,40C75.2542372881356,40,74.23728813559322,40,73.22033898305085,40C72.20338983050848,40,71.1864406779661,40,70.16949152542374,40C69.15254237288136,40,68.13559322033899,40,67.11864406779661,40C66.10169491525424,40,65.08474576271186,40,64.0677966101695,40C63.05084745762712,40,62.03389830508474,40,61.01694915254237,40C59.99999999999999,40,58.983050847457626,40,57.96610169491525,40C56.94915254237288,40,55.93220338983051,40,54.91525423728814,40C53.898305084745765,40,52.88135593220339,40,51.86440677966102,40C50.847457627118644,40,49.83050847457627,40,48.813559322033896,40C47.79661016949152,40,46.77966101694915,40,45.762711864406775,40C44.7457627118644,40,43.728813559322035,40,42.71186440677966,40C41.69491525423729,40,40.67796610169491,40,39.66101694915254,40C38.644067796610166,40,37.6271186440678,40,36.610169491525426,40C35.59322033898305,40,34.57627118644068,40,33.559322033898304,40C32.54237288135593,40,31.525423728813557,40,30.508474576271183,40C29.491525423728813,40,28.47457627118644,40,27.45762711864407,40C26.440677966101696,40,25.423728813559322,40,24.406779661016948,40C23.389830508474574,40,22.372881355932204,40,21.35593220338983,40C20.338983050847457,40,19.322033898305087,40,18.305084745762713,40C17.28813559322034,40,16.271186440677965,40,15.254237288135592,40C14.23728813559322,40,13.220338983050846,40,12.203389830508474,40C11.186440677966102,40,10.169491525423728,40,9.152542372881356,40C8.135593220338983,40,7.11864406779661,40,6.101694915254237,40C5.084745762711864,40,4.067796610169491,40,3.0508474576271185,40C2.0338983050847457,40,1.0169491525423728,40,0,40Z"></path><path class="line" stroke="black" fill="none" d="M0,32.900800000000004C1.0169491525423728,32.696266666666666,2.0338983050847457,32.49173333333333,3.0508474576271185,32.336C4.067796610169491,32.18026666666667,5.084745762711864,31.9664,6.101694915254237,31.9664C7.11864406779661,31.9664,8.135593220338983,32.0944,9.152542372881356,32.0944C10.169491525423728,32.0944,11.186440677966102,31.845066666666668,12.203389830508474,31.6064C13.220338983050846,31.367733333333334,14.23728813559322,30.986933333333337,15.254237288135592,30.6624C16.271186440677965,30.337866666666667,17.28813559322034,29.961866666666666,18.305084745762713,29.6592C19.322033898305087,29.35653333333333,20.338983050847457,29.106133333333336,21.35593220338983,28.846400000000003C22.372881355932204,28.58666666666667,23.389830508474574,28.338133333333335,24.406779661016948,28.1008C25.423728813559322,27.863466666666664,26.440677966101696,27.733866666666664,27.45762711864407,27.422399999999996C28.47457627118644,27.110933333333328,29.491525423728813,26.57893333333333,30.508474576271183,26.232C31.525423728813557,25.885066666666667,32.54237288135593,25.553333333333335,33.559322033898304,25.3408C34.57627118644068,25.12826666666667,35.59322033898305,25.065600000000003,36.610169491525426,24.9568C37.6271186440678,24.848000000000003,38.644067796610166,24.844266666666666,39.66101694915254,24.688C40.67796610169491,24.53173333333333,41.69491525423729,24.189600000000002,42.71186440677966,24.0192C43.728813559322035,23.8488,44.7457627118644,23.836266666666663,45.762711864406775,23.665599999999998C46.77966101694915,23.494933333333332,47.79661016949152,23.193600000000004,48.813559322033896,22.995200000000004C49.83050847457627,22.796800000000005,50.847457627118644,22.668799999999997,51.86440677966102,22.475199999999997C52.88135593220339,22.281599999999997,53.898305084745765,22.1008,54.91525423728814,21.8336C55.93220338983051,21.5664,56.94915254237288,21.179466666666666,57.96610169491525,20.872C58.983050847457626,20.564533333333333,59.99999999999999,20.258133333333333,61.01694915254237,19.9888C62.03389830508474,19.719466666666666,63.05084745762712,19.688800000000004,64.0677966101695,19.256C65.08474576271186,18.8232,66.10169491525424,17.61173333333333,67.11864406779661,17.392C68.13559322033899,17.17226666666667,69.15254237288136,17.15973333333334,70.16949152542374,17.062400000000004C71.1864406779661,16.965066666666672,72.20338983050848,16.977600000000002,73.22033898305085,16.808C74.23728813559322,16.638399999999997,75.2542372881356,16.119466666666668,76.27118644067797,15.7824C77.28813559322033,15.445333333333334,78.30508474576271,15.010666666666665,79.32203389830508,14.785599999999999C80.33898305084746,14.56053333333333,81.35593220338983,14.432,82.37288135593221,14.432C83.38983050847457,14.432,84.40677966101696,15.026133333333334,85.42372881355932,15.088C86.4406779661017,15.149866666666664,87.45762711864407,15.180799999999998,88.47457627118645,15.180799999999998C89.49152542372882,15.180799999999998,90.50847457627118,14.592,91.52542372881355,14.592C92.54237288135593,14.592,93.55932203389831,14.866933333333336,94.57627118644069,14.956800000000001C95.59322033898306,15.046666666666667,96.61016949152543,15.131199999999998,97.62711864406779,15.131199999999998C98.64406779661016,15.131199999999998,99.66101694915254,14.84053333333333,100.6779661016949,14.270399999999999C101.69491525423729,13.700266666666666,102.71186440677965,12.554133333333336,103.72881355932203,11.7104C104.7457627118644,10.866666666666669,105.76271186440678,9.845066666666664,106.77966101694915,9.207999999999998C107.79661016949153,8.570933333333329,108.8135593220339,8.191733333333335,109.83050847457628,7.888000000000002C110.84745762711864,7.58426666666667,111.86440677966102,7.641866666666668,112.88135593220339,7.385600000000001C113.89830508474576,7.129333333333334,114.91525423728814,6.770133333333333,115.9322033898305,6.3504000000000005C116.94915254237289,5.930666666666666,117.96610169491525,4.8672,118.98305084745763,4.8672C120,4.8672,121.01694915254237,4.986666666666666,122.03389830508473,5.225599999999999C123.05084745762711,5.464533333333335,124.0677966101695,6.513333333333329,125.08474576271188,7.116799999999999C126.10169491525424,7.720266666666663,127.11864406779662,8.238133333333334,128.135593220339,8.846400000000001C129.15254237288136,9.454666666666666,130.16949152542372,10.269066666666665,131.1864406779661,10.766399999999997C132.20338983050846,11.263733333333334,133.22033898305085,11.509866666666667,134.23728813559322,11.830400000000001C135.25423728813558,12.150933333333334,136.27118644067798,12.257333333333332,137.28813559322035,12.689599999999999C138.3050847457627,13.121866666666666,139.3220338983051,13.890133333333331,140.33898305084747,14.424000000000001C141.35593220338984,14.957866666666666,142.3728813559322,15.418400000000004,143.38983050847457,15.892800000000001C144.40677966101694,16.367200000000004,145.42372881355934,16.854933333333335,146.4406779661017,17.270400000000002C147.45762711864407,17.685866666666666,148.47457627118644,18.02346666666667,149.4915254237288,18.385600000000004C150.50847457627117,18.74773333333334,151.52542372881356,19.12693333333333,152.54237288135593,19.443199999999997C153.5593220338983,19.759466666666665,154.5762711864407,20.035999999999998,155.59322033898306,20.2832C156.61016949152543,20.5304,157.6271186440678,20.6456,158.64406779661016,20.9264C159.66101694915253,21.2072,160.67796610169492,21.62773333333333,161.6949152542373,21.968C162.71186440677965,22.30826666666667,163.72881355932205,22.651200000000003,164.74576271186442,22.968000000000004C165.76271186440678,23.2848,166.77966101694915,23.614666666666665,167.79661016949152,23.868799999999997C168.81355932203388,24.122933333333332,169.83050847457628,24.295199999999998,170.84745762711864,24.4928C171.864406779661,24.6904,172.8813559322034,24.881333333333334,173.89830508474577,25.0544C174.91525423728814,25.22746666666667,175.93220338983053,25.36933333333333,176.9491525423729,25.5312C177.96610169491527,25.693066666666663,178.98305084745763,25.859333333333332,180,26.0256"></path><path class="axis-ceiling" stroke-width="1" stroke="black" fill="none" d="M175,0L180,0"></path><text class="axis-ceiling-label" font-family="sans-serif" text-anchor="end" font-size="10px" x="170" y="2.5">25000</text></g></svg>