<svg xmlns="http://www.w3.org/2000/svg" viewBox="0 0 180 60"><g transform="translate(0,20)"><path class="area" fill="rgba(0, 0, 0, 0.2)" d="M0,27.462857142857146C1.0169491525423728,24.236000000000004,2.0338983050847457,21.00914285714286,3.0508474576271185,18.706285714285716C4.067796610169491,16.403428571428574,5.084745762711864,13.645714285714288,6.101694915254237,13.645714285714288C7.11864406779661,13.645714285714288,8.135593220338983,13.899428571428572,9.152542372881356,13.899428571428572C10.169491525423728,13.899428571428572,11.186440677966102,12.973523809523808,12.203389830508474,12.559999999999999C13.220338983050846,12.14647619047619,14.23728813559322,11.418285714285714,15.254237288135592,11.418285714285714C16.271186440677965,11.418285714285714,17.28813559322034,12.086476190476189,18.305084745762713,13.42285714285714C19.322033898305087,14.75923809523809,20.338983050847457,20.91542857142857,21.35593220338983,20.91542857142857C22.372881355932204,20.91542857142857,23.389830508474574,11.740571428571425,24.406779661016948,9.852571428571428C25.423728813559322,7.964571428571429,26.440677966101696,7.865523809523811,27.45762711864407,7.020571428571429C28.47457627118644,6.175619047619049,29.491525423728813,4.782857142857142,30.508474576271183,4.782857142857142C31.525423728813557,4.782857142857142,32.54237288135593,7.941714285714285,33.559322033898304,7.941714285714285C34.57627118644068,7.941714285714285,35.59322033898305,7.467428571428571,36.610169491525426,7.329142857142856C37.6271186440678,7.190857142857142,38.644067796610166,7.111999999999998,39.66101694915254,7.111999999999998C40.67796610169491,7.111999999999998,41.69491525423729,16.823999999999998,42.71186440677966,16.823999999999998C43.728813559322035,16.823999999999998,44.7457627118644,8.352380952380953,45.762711864406775,5.659428571428573C46.77966101694915,2.9664761904761865,47.79661016949152,0.6662857142857126,48.813559322033896,0.6662857142857126C49.83050847457627,0.6662857142857126,50.847457627118644,2.6464761904761915,51.86440677966102,2.9131428571428586C52.88135593220339,3.1798095238095256,53.898305084745765,3.046476190476192,54.91525423728814,3.313142857142859C55.93220338983051,3.579809523809525,56.94915254237288,19.52114285714286,57.96610169491525,19.52114285714286C58.983050847457626,19.52114285714286,59.99999999999999,10.298285714285713,61.01694915254237,10.298285714285713C62.03389830508474,10.298285714285713,63.05084745762712,18.154285714285713,64.0677966101695,18.154285714285713C65.08474576271186,18.154285714285713,66.10169491525424,11.223619047619039,67.11864406779661,9.389714285714286C68.13559322033899,7.555809523809523,69.15254237288136,7.2554285714285705,70.16949152542374,6.638857142857142C71.1864406779661,6.022285714285716,72.20338983050848,5.690285714285714,73.22033898305085,5.690285714285714C74.23728813559322,5.690285714285714,75.2542372881356,8.834666666666665,76.27118644067797,8.929142857142857C77.28813559322033,9.023619047619048,78.30508474576271,8.976380952380953,79.32203389830508,9.070857142857145C80.33898305084746,9.165333333333338,81.35593220338983,12.455238095238087,82.37288135593221,15.060571428571428C83.38983050847457,17.665904761904756,84.40677966101696,24.70285714285714,85.42372881355932,24.70285714285714C86.4406779661017,24.70285714285714,87.45762711864407,16.556761904761906,88.47457627118645,13.971428571428572C89.49152542372882,11.38609523809526,90.50847457627118,9.190857142857144,91.52542372881355,9.190857142857144C92.54237288135593,9.190857142857144,93.55932203389831,22.268571428571427,94.57627118644069,22.268571428571427C95.59322033898306,22.268571428571427,96.61016949152543,19.578857142857135,97.62711864406779,18.092571428571425C98.64406779661016,16.606285714285708,99.66101694915254,13.350857142857144,100.6779661016949,13.350857142857144C101.69491525423729,13.350857142857144,102.71186440677965,16.651238095238085,103.72881355932203,18.812571428571427C104.7457627118644,20.97390476190476,105.76271186440678,26.318857142857148,106.77966101694915,26.318857142857148C107.79661016949153,26.318857142857148,108.8135593220339,19.518095238095245,109.83050847457628,17.80457142857143C110.84745762711864,16.091047619047618,111.86440677966102,15.234285714285715,112.88135593220339,15.234285714285715C113.89830508474576,15.234285714285715,114.91525423728814,17.049904761904767,115.9322033898305,17.83314285714286C116.94915254237289,18.616380952380958,117.96610169491525,19.933714285714284,118.98305084745763,19.933714285714284C120,19.933714285714284,121.01694915254237,19.354285714285716,122.03389830508473,19.354285714285716C123.05084745762711,19.354285714285716,124.0677966101695,20.515238095238075,125.08474576271188,22.601142857142857C126.10169491525424,24.68704761904762,127.11864406779662,31.869714285714288,128.135593220339,31.869714285714288C129.15254237288136,31.869714285714288,130.16949152542372,24.535809523809526,131.1864406779661,22.408C132.20338983050846,20.280190476190455,133.22033898305085,19.10285714285714,134.23728813559322,19.10285714285714C135.25423728813558,19.10285714285714,136.27118644067798,20.854476190476195,137.28813559322035,21.654857142857146C138.3050847457627,22.455238095238098,139.3220338983051,23.905142857142856,140.33898305084747,23.905142857142856C141.35593220338984,23.905142857142856,142.3728813559322,23.825142857142858,143.38983050847457,23.825142857142858C144.40677966101694,23.825142857142858,145.42372881355934,24.253714285714288,146.4406779661017,25.110857142857146C147.45762711864407,25.967999999999996,148.47457627118644,33.25142857142857,149.4915254237288,33.25142857142857C150.50847457627117,33.25142857142857,151.52542372881356,26.275047619047623,152.54237288135593,24.825142857142858C153.5593220338983,23.375238095238092,154.5762711864407,22.65028571428571,155.59322033898306,22.65028571428571C156.61016949152543,22.65028571428571,157.6271186440678,24.370476190476193,158.64406779661016,25.16C159.66101694915253,25.949523809523814,160.67796610169492,26.789714285714286,161.6949152542373,27.387428571428572C162.71186440677965,27.985142857142858,163.72881355932205,28.221142857142855,164.74576271186442,28.746285714285715C165.76271186440678,29.271428571428572,166.77966101694915,29.625142857142865,167.79661016949152,30.538285714285713C168.81355932203388,31.451428571428572,169.83050847457628,33.23657142857142,170.84745762711864,34.225142857142856C171.864406779661,35.21371428571429,172.8813559322034,36.46971428571429,173.89830508474577,36.46971428571429C174.91525423728814,36.46971428571429,175.93220338983053,27.550857142857144,176.9491525423729,27.550857142857144C177.96610169491527,27.550857142857144,178.98305084745763,29.553714285714285,180,31.556571428571427L180,40C178.98305084745763,40,177.96610169491527,40,176.9491525423729,40C175.93220338983053,40,174.91525423728814,40,173.89830508474577,40C172.8813559322034,40,171.864406779661,40,170.84745762711864,40C169.83050847457628,40,168.81355932203388,40,167.79661016949152,40C166.77966101694915,40,165.76271186440678,40,164.74576271186442,40C163.72881355932205,40,162.71186440677965,40,161.6949152542373,40C160.67796610169492,40,159.66101694915253,40,158.64406779661016,40C157.6271186440678,40,156.61016949152543,40,155.59322033898306,40C154.5762711864407,40,153.5593220338983,40,152.54237288135593,40C151.52542372881356,40,150.50847457627117,40,149.4915254237288,40C148.47457627118644,40,147.45762711864407,40,146.4406779661017,40C145.42372881355934,40,144.40677966101694,40,143.38983050847457,40C142.3728813559322,40,141.35593220338984,40,140.33898305084747,40C139.3220338983051,40,138.3050847457627,40,137.28813559322035,40C136.27118644067798,40,135.25423728813558,40,134.23728813559322,40C133.22033898305085,40,132.20338983050846,40,131.1864406779661,40C130.16949152542372,40,129.15254237288136,40,128.135593220339,40C127.11864406779662,40,126.10169491525424,40,125.08474576271188,40C124.0677966101695,40,123.05084745762711,40,122.03389830508473,40C121.01694915254237,40,120,40,118.98305084745763,40C117.96610169491525,40,116.94915254237289,40,115.9322033898305,40C114.91525423728814,40,113.89830508474576,40,112.88135593220339,40C111.86440677966102,40,110.84745762711864,40,109.83050847457628,40C108.8135593220339,40,107.79661016949153,40,106.77966101694915,40C105.76271186440678,40,104.7457627118644,40,103.72881355932203,40C102.71186440677965,40,101.69491525423729,40,100.6779661016949,40C99.66101694915254,40,98.64406779661016,40,97.62711864406779,40C96.61016949152543,40,95.59322033898306,40,94.57627118644069,40C93.55932203389831,40,92.54237288135593,40,91.52542372881355,40C90.50847457627118,40,89.49152542372882,40,88.47457627118645,40C87.45762711864407,40,86.4406779661017,40,85.42372881355932,40C84.40677966101696,40,83.38983050847457,40,82.37288135593221,40C81.35593220338983,40,80.33898305084746,40,79.32203389830508,40C78.30508474576271,40,77.28813559322033,40,76.27118644067797,40C75.2542372881356,40,74.23728813559322,40,73.22033898305085,40C72.20338983050848,40,71.1864406779661,40,70.16949152542374,40C69.15254237288136,40,68.13559322033899,40,67.11864406779661,40C66.10169491525424,40,65.08474576271186,40,64.0677966101695,40C63.05084745762712,40,62.03389830508474,40,61.01694915254237,40C59.99999999999999,40,58.983050847457626,40,57.96610169491525,40C56.94915254237288,40,55.93220338983051,40,54.91525423728814,40C53.898305084745765,40,52.88135593220339,40,51.86440677966102,40C50.847457627118644,40,49.83050847457627,40,48.813559322033896,40C47.79661016949152,40,46.77966101694915,40,45.762711864406775,40C44.7457627118644,40,43.728813559322035,40,42.71186440677966,40C41.69491525423729,40,40.67796610169491,40,39.66101694915254,40C38.644067796610166,40,37.6271186440678,40,36.610169491525426,40C35.59322033898305,40,34.57627118644068,40,33.559322033898304,40C32.54237288135593,40,31.525423728813557,40,30.508474576271183,40C29.491525423728813,40,28.47457627118644,40,27.45762711864407,40C26.440677966101696,40,25.423728813559322,40,24.406779661016948,40C23.389830508474574,40,22.372881355932204,40,21.35593220338983,40C20.338983050847457,40,19.322033898305087,40,18.305084745762713,40C17.28813559322034,40,16.271186440677965,40,15.254237288135592,40C14.23728813559322,40,13.220338983050846,40,12.203389830508474,40C11.186440677966102,40,10.169491525423728,40,9.152542372881356,40C8.135593220338983,40,7.11864406779661,40,6.101694915254237,40C5.084745762711864,40,4.067796610169491,40,3.0508474576271185,40C2.0338983050847457,40,1.0169491525423728,40,0,40Z"></path><path class="line" stroke="black" fill="none" d="M0,27.462857142857146C1.0169491525423728,24.236000000000004,2.0338983050847457,21.00914285714286,3.0508474576271185,18.706285714285716C4.067796610169491,16.403428571428574,5.084745762711864,13.645714285714288,6.101694915254237,13.645714285714288C7.11864406779661,13.645714285714288,8.135593220338983,13.899428571428572,9.152542372881356,13.899428571428572C10.169491525423728,13.899428571428572,11.186440677966102,12.973523809523808,12.203389830508474,12.559999999999999C13.220338983050846,12.14647619047619,14.23728813559322,11.418285714285714,15.254237288135592,11.418285714285714C16.271186440677965,11.418285714285714,17.28813559322034,12.086476190476189,18.305084745762713,13.42285714285714C19.322033898305087,14.75923809523809,20.338983050847457,20.91542857142857,21.35593220338983,20.91542857142857C22.372881355932204,20.91542857142857,23.389830508474574,11.740571428571425,24.406779661016948,9.852571428571428C25.423728813559322,7.964571428571429,26.440677966101696,7.865523809523811,27.45762711864407,7.020571428571429C28.47457627118644,6.175619047619049,29.491525423728813,4.782857142857142,30.508474576271183,4.782857142857142C31.525423728813557,4.782857142857142,32.54237288135593,7.941714285714285,33.559322033898304,7.941714285714285C34.57627118644068,7.941714285714285,35.59322033898305,7.467428571428571,36.610169491525426,7.329142857142856C37.6271186440678,7.190857142857142,38.644067796610166,7.111999999999998,39.66101694915254,7.111999999999998C40.67796610169491,7.111999999999998,41.69491525423729,16.823999999999998,42.71186440677966,16.823999999999998C43.728813559322035,16.823999999999998,44.7457627118644,8.352380952380953,45.762711864406775,5.659428571428573C46.77966101694915,2.9664761904761865,47.79661016949152,0.6662857142857126,48.813559322033896,0.6662857142857126C49.83050847457627,0.6662857142857126,50.847457627118644,2.6464761904761915,51.86440677966102,2.9131428571428586C52.88135593220339,3.1798095238095256,53.898305084745765,3.046476190476192,54.91525423728814,3.313142857142859C55.93220338983051,3.579809523809525,56.94915254237288,19.52114285714286,57.96610169491525,19.52114285714286C58.983050847457626,19.52114285714286,59.99999999999999,10.298285714285713,61.01694915254237,10.298285714285713C62.03389830508474,10.298285714285713,63.05084745762712,18.154285714285713,64.0677966101695,18.154285714285713C65.08474576271186,18.154285714285713,66.10169491525424,11.223619047619039,67.11864406779661,9.389714285714286C68.13559322033899,7.555809523809523,69.15254237288136,7.2554285714285705,70.16949152542374,6.638857142857142C71.1864406779661,6.022285714285716,72.20338983050848,5.690285714285714,73.22033898305085,5.690285714285714C74.23728813559322,5.690285714285714,75.2542372881356,8.834666666666665,76.27118644067797,8.929142857142857C77.28813559322033,9.023619047619048,78.30508474576271,8.976380952380953,79.32203389830508,9.070857142857145C80.33898305084746,9.165333333333338,81.35593220338983,12.455238095238087,82.37288135593221,15.060571428571428C83.38983050847457,17.665904761904756,84.40677966101696,24.70285714285714,85.42372881355932,24.70285714285714C86.4406779661017,24.70285714285714,87.45762711864407,16.556761904761906,88.47457627118645,13.971428571428572C89.49152542372882,11.38609523809526,90.50847457627118,9.190857142857144,91.52542372881355,9.190857142857144C92.54237288135593,9.190857142857144,93.55932203389831,22.268571428571427,94.57627118644069,22.268571428571427C95.59322033898306,22.268571428571427,96.61016949152543,19.578857142857135,97.62711864406779,18.092571428571425C98.64406779661016,16.606285714285708,99.66101694915254,13.350857142857144,100.6779661016949,13.350857142857144C101.69491525423729,13.350857142857144,102.71186440677965,16.651238095238085,103.72881355932203,18.812571428571427C104.7457627118644,20.97390476190476,105.76271186440678,26.318857142857148,106.77966101694915,26.318857142857148C107.79661016949153,26.318857142857148,108.8135593220339,19.518095238095245,109.83050847457628,17.80457142857143C110.84745762711864,16.091047619047618,111.86440677966102,15.234285714285715,112.88135593220339,15.234285714285715C113.89830508474576,15.234285714285715,114.91525423728814,17.049904761904767,115.9322033898305,17.83314285714286C116.94915254237289,18.616380952380958,117.96610169491525,19.933714285714284,118.98305084745763,19.933714285714284C120,19.933714285714284,121.01694915254237,19.354285714285716,122.03389830508473,19.354285714285716C123.05084745762711,19.354285714285716,124.0677966101695,20.515238095238075,125.08474576271188,22.601142857142857C126.10169491525424,24.68704761904762,127.11864406779662,31.869714285714288,128.135593220339,31.869714285714288C129.15254237288136,31.869714285714288,130.16949152542372,24.535809523809526,131.1864406779661,22.408C132.20338983050846,20.280190476190455,133.22033898305085,19.10285714285714,134.23728813559322,19.10285714285714C135.25423728813558,19.10285714285714,136.27118644067798,20.854476190476195,137.28813559322035,21.654857142857146C138.3050847457627,22.455238095238098,139.3220338983051,23.905142857142856,140.33898305084747,23.905142857142856C141.35593220338984,23.905142857142856,142.3728813559322,23.825142857142858,143.38983050847457,23.825142857142858C144.40677966101694,23.825142857142858,145.42372881355934,24.253714285714288,146.4406779661017,25.110857142857146C147.45762711864407,25.967999999999996,148.47457627118644,33.25142857142857,149.4915254237288,33.25142857142857C150.50847457627117,33.25142857142857,151.52542372881356,26.275047619047623,152.54237288135593,24.825142857142858C153.5593220338983,23.375238095238092,154.5762711864407,22.65028571428571,155.59322033898306,22.65028571428571C156.61016949152543,22.65028571428571,157.6271186440678,24.370476190476193,158.64406779661016,25.16C159.66101694915253,25.949523809523814,160.67796610169492,26.789714285714286,161.6949152542373,27.387428571428572C162.71186440677965,27.985142857142858,163.72881355932205,28.221142857142855,164.74576271186442,28.746285714285715C165.76271186440678,29.271428571428572,166.77966101694915,29.625142857142865,167.79661016949152,30.538285714285713C168.81355932203388,31.451428571428572,169.83050847457628,33.23657142857142,170.84745762711864,34.225142857142856C171.864406779661,35.21371428571429,172.8813559322034,36.46971428571429,173.89830508474577,36.46971428571429C174.91525423728814,36.46971428571429,175.93220338983053,27.550857142857144,176.9491525423729,27.550857142857144C177.96610169491527,27.550857142857144,178.98305084745763,29.553714285714285,180,31.556571428571427"></path><path class="axis-ceiling" stroke-width="1" stroke="black" fill="none" d="M175,0L180,0"></path><text class="axis-ceiling-label" font-family="sans-serif" text-anchor="end" font-size="10px" x="170" y="2.5">35000</text></g></svg>