<svg xmlns="http://www.w3.org/2000/svg" viewBox="0 0 180 60"><g transform="translate(0,20)"><path class="area" fill="rgba(0, 0, 0, 0.2)" d="M0,7.200000000000002C1.0169491525423728,8.366666666666667,2.0338983050847457,9.533333333333333,3.0508474576271185,10.4C4.067796610169491,11.266666666666667,5.084745762711864,11.733333333333336,6.101694915254237,12.400000000000002C7.11864406779661,13.066666666666668,8.135593220338983,13.666666666666666,9.152542372881356,14.399999999999999C10.169491525423728,15.133333333333331,11.186440677966102,16,12.203389830508474,16.8C13.220338983050846,17.6,14.23728813559322,19.2,15.254237288135592,19.2C16.271186440677965,19.2,17.28813559322034,19.2,18.305084745762713,19.2C19.322033898305087,19.2,20.338983050847457,20.933333333333334,21.35593220338983,21.6C22.372881355932204,22.26666666666667,23.389830508474574,22.466666666666672,24.406779661016948,23.200000000000003C25.423728813559322,23.933333333333337,26.440677966101696,25.133333333333333,27.45762711864407,26C28.47457627118644,26.866666666666664,29.491525423728813,27.866666666666667,30.508474576271183,28.4C31.525423728813557,28.933333333333334,32.54237288135593,29.2,33.559322033898304,29.2C34.57627118644068,29.2,35.59322033898305,29.2,36.610169491525426,29.2C37.6271186440678,29.2,38.644067796610166,29.46666666666667,39.66101694915254,29.6C40.67796610169491,29.733333333333334,41.69491525423729,29.733333333333334,42.71186440677966,30C43.728813559322035,30.266666666666666,44.7457627118644,31.200000000000003,45.762711864406775,31.200000000000003C46.77966101694915,31.200000000000003,47.79661016949152,31.200000000000003,48.813559322033896,31.200000000000003C49.83050847457627,31.200000000000003,50.847457627118644,31.6,51.86440677966102,31.6C52.88135593220339,31.6,53.898305084745765,31.333333333333336,54.91525423728814,31.200000000000003C55.93220338983051,31.06666666666667,56.94915254237288,30.933333333333334,57.96610169491525,30.8C58.983050847457626,30.666666666666668,59.99999999999999,30.53333333333333,61.01694915254237,30.4C62.03389830508474,30.266666666666666,63.05084745762712,30.266666666666666,64.0677966101695,30C65.08474576271186,29.733333333333334,66.10169491525424,28.93333333333333,67.11864406779661,28.4C68.13559322033899,27.866666666666664,69.15254237288136,27.199999999999996,70.16949152542374,26.799999999999997C71.1864406779661,26.4,72.20338983050848,26.266666666666666,73.22033898305085,26C74.23728813559322,25.733333333333334,75.2542372881356,25.466666666666665,76.27118644067797,25.2C77.28813559322033,24.933333333333334,78.30508474576271,24.799999999999997,79.32203389830508,24.4C80.33898305084746,24,81.35593220338983,23.200000000000003,82.37288135593221,22.800000000000004C83.38983050847457,22.400000000000006,84.40677966101696,22.2,85.42372881355932,22C86.4406779661017,21.799999999999997,87.45762711864407,21.800000000000004,88.47457627118645,21.6C89.49152542372882,21.400000000000002,90.50847457627118,21.266666666666662,91.52542372881355,20.8C92.54237288135593,20.333333333333332,93.55932203389831,18.799999999999997,94.57627118644069,18.799999999999997C95.59322033898306,18.799999999999997,96.61016949152543,18.799999999999997,97.62711864406779,18.799999999999997C98.64406779661016,18.799999999999997,99.66101694915254,19.333333333333336,100.6779661016949,19.6C101.69491525423729,19.86666666666667,102.71186440677965,20.13333333333333,103.72881355932203,20.4C104.7457627118644,20.666666666666664,105.76271186440678,21.200000000000003,106.77966101694915,21.200000000000003C107.79661016949153,21.200000000000003,108.8135593220339,20.8,109.83050847457628,20.8C110.84745762711864,20.8,111.86440677966102,20.8,112.88135593220339,20.8C113.89830508474576,20.8,114.91525423728814,21.333333333333336,115.9322033898305,21.6C116.94915254237289,21.86666666666667,117.96610169491525,22.400000000000002,118.98305084745763,22.400000000000002C120,22.400000000000002,121.01694915254237,22.266666666666662,122.03389830508473,22C123.05084745762711,21.733333333333334,124.0677966101695,20.8,125.08474576271188,20.8C126.10169491525424,20.8,127.11864406779662,20.8,128.135593220339,20.8C129.15254237288136,20.8,130.16949152542372,20.8,131.1864406779661,20.8C132.20338983050846,20.8,133.22033898305085,20.53333333333333,134.23728813559322,20.4C135.25423728813558,20.266666666666666,136.27118644067798,20.133333333333333,137.28813559322035,20C138.3050847457627,19.866666666666667,139.3220338983051,19.6,140.33898305084747,19.6C141.35593220338984,19.6,142.3728813559322,19.6,143.38983050847457,19.6C144.40677966101694,19.6,145.42372881355934,19.6,146.4406779661017,19.6C147.45762711864407,19.6,148.47457627118644,20,149.4915254237288,20C150.50847457627117,20,151.52542372881356,20,152.54237288135593,20C153.5593220338983,20,154.5762711864407,20.6,155.59322033898306,20.8C156.61016949152543,21,157.6271186440678,21.200000000000003,158.64406779661016,21.200000000000003C159.66101694915253,21.200000000000003,160.67796610169492,21.200000000000003,161.6949152542373,21.200000000000003C162.71186440677965,21.200000000000003,163.72881355932205,21.200000000000003,164.74576271186442,21.200000000000003C165.76271186440678,21.200000000000003,166.77966101694915,21.6,167.79661016949152,21.6C168.81355932203388,21.6,169.83050847457628,20.8,170.84745762711864,20.8C171.864406779661,20.8,172.8813559322034,20.8,173.89830508474577,20.8C174.91525423728814,20.8,175.93220338983053,20.400000000000002,176.9491525423729,20C177.96610169491527,19.6,178.98305084745763,19,180,18.4L180,40C178.98305084745763,40,177.96610169491527,40,176.9491525423729,40C175.93220338983053,40,174.91525423728814,40,173.89830508474577,40C172.8813559322034,40,171.864406779661,40,170.84745762711864,40C169.83050847457628,40,168.81355932203388,40,167.79661016949152,40C166.77966101694915,40,165.76271186440678,40,164.74576271186442,40C163.72881355932205,40,162.71186440677965,40,161.6949152542373,40C160.67796610169492,40,159.66101694915253,40,158.64406779661016,40C157.6271186440678,40,156.61016949152543,40,155.59322033898306,40C154.5762711864407,40,153.5593220338983,40,152.54237288135593,40C151.52542372881356,40,150.50847457627117,40,149.4915254237288,40C148.47457627118644,40,147.45762711864407,40,146.4406779661017,40C145.42372881355934,40,144.40677966101694,40,143.38983050847457,40C142.3728813559322,40,141.35593220338984,40,140.33898305084747,40C139.3220338983051,40,138.3050847457627,40,137.28813559322035,40C136.27118644067798,40,135.25423728813558,40,134.23728813559322,40C133.22033898305085,40,132.20338983050846,40,131.1864406779661,40C130.16949152542372,40,129.15254237288136,40,128.135593220339,40C127.11864406779662,40,126.10169491525424,40,125.08474576271188,40C124.0677966101695,40,123.05084745762711,40,122.03389830508473,40C121.01694915254237,40,120,40,118.98305084745763,40C117.96610169491525,40,116.94915254237289,40,115.9322033898305,40C114.91525423728814,40,113.89830508474576,40,112.88135593220339,40C111.86440677966102,40,110.84745762711864,40,109.83050847457628,40C108.8135593220339,40,107.79661016949153,40,106.77966101694915,40C105.76271186440678,40,104.7457627118644,40,103.72881355932203,40C102.71186440677965,40,101.69491525423729,40,100.6779661016949,40C99.66101694915254,40,98.64406779661016,40,97.62711864406779,40C96.61016949152543,40,95.59322033898306,40,94.57627118644069,40C93.55932203389831,40,92.54237288135593,40,91.52542372881355,40C90.50847457627118,40,89.49152542372882,40,88.47457627118645,40C87.45762711864407,40,86.4406779661017,40,85.42372881355932,40C84.40677966101696,40,83.38983050847457,40,82.37288135593221,40C81.35593220338983,40,80.33898305084746,40,79.32203389830508,40C78.30508474576271,40,77.28813559322033,40,76.27118644067797,40C75.2542372881356,40,74.23728813559322,40,73.22033898305085,40C72.20338983050848,40,71.1864406779661,40,70.16949152542374,40C69.15254237288136,40,68.13559322033899,40,67.11864406779661,40C66.10169491525424,40,65.08474576271186,40,64.0677966101695,40C63.05084745762712,40,62.03389830508474,40,61.01694915254237,40C59.99999999999999,40,58.983050847457626,40,57.96610169491525,40C56.94915254237288,40,55.93220338983051,40,54.91525423728814,40C53.898305084745765,40,52.88135593220339,40,51.86440677966102,40C50.847457627118644,40,49.83050847457627,40,48.813559322033896,40C47.79661016949152,40,46.77966101694915,40,45.762711864406775,40C44.7457627118644,40,43.728813559322035,40,42.71186440677966,40C41.69491525423729,40,40.67796610169491,40,39.66101694915254,40C38.644067796610166,40,37.6271186440678,40,36.610169491525426,40C35.59322033898305,40,34.57627118644068,40,33.559322033898304,40C32.54237288135593,40,31.525423728813557,40,30.508474576271183,40C29.491525423728813,40,28.47457627118644,40,27.45762711864407,40C26.440677966101696,40,25.423728813559322,40,24.406779661016948,40C23.389830508474574,40,22.372881355932204,40,21.35593220338983,40C20.338983050847457,40,19.322033898305087,40,18.305084745762713,40C17.28813559322034,40,16.271186440677965,40,15.254237288135592,40C14.23728813559322,40,13.220338983050846,40,12.203389830508474,40C11.186440677966102,40,10.169491525423728,40,9.152542372881356,40C8.135593220338983,40,7.11864406779661,40,6.101694915254237,40C5.084745762711864,40,4.067796610169491,40,3.0508474576271185,40C2.0338983050847457,40,1.0169491525423728,40,0,40Z"></path><path class="line" stroke="black" fill="none" d="M0,7.200000000000002C1.0169491525423728,8.366666666666667,2.0338983050847457,9.533333333333333,3.0508474576271185,10.4C4.067796610169491,11.266666666666667,5.084745762711864,11.733333333333336,6.101694915254237,12.400000000000002C7.11864406779661,13.066666666666668,8.135593220338983,13.666666666666666,9.152542372881356,14.399999999999999C10.169491525423728,15.133333333333331,11.186440677966102,16,12.203389830508474,16.8C13.220338983050846,17.6,14.23728813559322,19.2,15.254237288135592,19.2C16.271186440677965,19.2,17.28813559322034,19.2,18.305084745762713,19.2C19.322033898305087,19.2,20.338983050847457,20.933333333333334,21.35593220338983,21.6C22.372881355932204,22.26666666666667,23.389830508474574,22.466666666666672,24.406779661016948,23.200000000000003C25.423728813559322,23.933333333333337,26.440677966101696,25.133333333333333,27.45762711864407,26C28.47457627118644,26.866666666666664,29.491525423728813,27.866666666666667,30.508474576271183,28.4C31.525423728813557,28.933333333333334,32.54237288135593,29.2,33.559322033898304,29.2C34.57627118644068,29.2,35.59322033898305,29.2,36.610169491525426,29.2C37.6271186440678,29.2,38.644067796610166,29.46666666666667,39.66101694915254,29.6C40.67796610169491,29.733333333333334,41.69491525423729,29.733333333333334,42.71186440677966,30C43.728813559322035,30.266666666666666,44.7457627118644,31.200000000000003,45.762711864406775,31.200000000000003C46.77966101694915,31.200000000000003,47.79661016949152,31.200000000000003,48.813559322033896,31.200000000000003C49.83050847457627,31.200000000000003,50.847457627118644,31.6,51.86440677966102,31.6C52.88135593220339,31.6,53.898305084745765,31.333333333333336,54.91525423728814,31.200000000000003C55.93220338983051,31.06666666666667,56.94915254237288,30.933333333333334,57.96610169491525,30.8C58.983050847457626,30.666666666666668,59.99999999999999,30.53333333333333,61.01694915254237,30.4C62.03389830508474,30.266666666666666,63.05084745762712,30.266666666666666,64.0677966101695,30C65.08474576271186,29.733333333333334,66.10169491525424,28.93333333333333,67.11864406779661,28.4C68.13559322033899,27.866666666666664,69.15254237288136,27.199999999999996,70.16949152542374,26.799999999999997C71.1864406779661,26.4,72.20338983050848,26.266666666666666,73.22033898305085,26C74.23728813559322,25.733333333333334,75.2542372881356,25.466666666666665,76.27118644067797,25.2C77.28813559322033,24.933333333333334,78.30508474576271,24.799999999999997,79.32203389830508,24.4C80.33898305084746,24,81.35593220338983,23.200000000000003,82.37288135593221,22.800000000000004C83.38983050847457,22.400000000000006,84.40677966101696,22.2,85.42372881355932,22C86.4406779661017,21.799999999999997,87.45762711864407,21.800000000000004,88.47457627118645,21.6C89.49152542372882,21.400000000000002,90.50847457627118,21.266666666666662,91.52542372881355,20.8C92.54237288135593,20.333333333333332,93.55932203389831,18.799999999999997,94.57627118644069,18.799999999999997C95.59322033898306,18.799999999999997,96.61016949152543,18.799999999999997,97.62711864406779,18.799999999999997C98.64406779661016,18.799999999999997,99.66101694915254,19.333333333333336,100.6779661016949,19.6C101.69491525423729,19.86666666666667,102.71186440677965,20.13333333333333,103.72881355932203,20.4C104.7457627118644,20.666666666666664,105.76271186440678,21.200000000000003,106.77966101694915,21.200000000000003C107.79661016949153,21.200000000000003,108.8135593220339,20.8,109.83050847457628,20.8C110.84745762711864,20.8,111.86440677966102,20.8,112.88135593220339,20.8C113.89830508474576,20.8,114.91525423728814,21.333333333333336,115.9322033898305,21.6C116.94915254237289,21.86666666666667,117.96610169491525,22.400000000000002,118.98305084745763,22.400000000000002C120,22.400000000000002,121.01694915254237,22.266666666666662,122.03389830508473,22C123.05084745762711,21.733333333333334,124.0677966101695,20.8,125.08474576271188,20.8C126.10169491525424,20.8,127.11864406779662,20.8,128.135593220339,20.8C129.15254237288136,20.8,130.16949152542372,20.8,131.1864406779661,20.8C132.20338983050846,20.8,133.22033898305085,20.53333333333333,134.23728813559322,20.4C135.25423728813558,20.266666666666666,136.27118644067798,20.133333333333333,137.28813559322035,20C138.3050847457627,19.866666666666667,139.3220338983051,19.6,140.33898305084747,19.6C141.35593220338984,19.6,142.3728813559322,19.6,143.38983050847457,19.6C144.40677966101694,19.6,145.42372881355934,19.6,146.4406779661017,19.6C147.45762711864407,19.6,148.47457627118644,20,149.4915254237288,20C150.50847457627117,20,151.52542372881356,20,152.54237288135593,20C153.5593220338983,20,154.5762711864407,20.6,155.59322033898306,20.8C156.61016949152543,21,157.6271186440678,21.200000000000003,158.64406779661016,21.200000000000003C159.66101694915253,21.200000000000003,160.67796610169492,21.200000000000003,161.6949152542373,21.200000000000003C162.71186440677965,21.200000000000003,163.72881355932205,21.200000000000003,164.74576271186442,21.200000000000003C165.76271186440678,21.200000000000003,166.77966101694915,21.6,167.79661016949152,21.6C168.81355932203388,21.6,169.83050847457628,20.8,170.84745762711864,20.8C171.864406779661,20.8,172.8813559322034,20.8,173.89830508474577,20.8C174.91525423728814,20.8,175.93220338983053,20.400000000000002,176.9491525423729,20C177.96610169491527,19.6,178.98305084745763,19,180,18.4"></path><path class="axis-ceiling" stroke-width="1" stroke="black" fill="none" d="M175,0L180,0"></path><text class="axis-ceiling-label" font-family="sans-serif" text-anchor="end" font-size="10px" x="170" y="2.5">100</text></g></svg>