<svg xmlns="http://www.w3.org/2000/svg" viewBox="0 0 180 60"><g transform="translate(0,20)"><path class="area" fill="rgba(0, 0, 0, 0.2)" d="M0,39.8336C1.0169491525423728,39.8154,2.0338983050847457,39.7972,3.0508474576271185,39.763999999999996C4.067796610169491,39.730799999999995,5.084745762711864,39.68946666666667,6.101694915254237,39.6344C7.11864406779661,39.57933333333333,8.135593220338983,39.514266666666664,9.152542372881356,39.4336C10.169491525423728,39.35293333333333,11.186440677966102,39.24706666666666,12.203389830508474,39.1504C13.220338983050846,39.053733333333334,14.23728813559322,38.943866666666665,15.254237288135592,38.8536C16.271186440677965,38.763333333333335,17.28813559322034,38.68586666666667,18.305084745762713,38.6088C19.322033898305087,38.531733333333335,20.338983050847457,38.502399999999994,21.35593220338983,38.3912C22.372881355932204,38.28,23.389830508474574,38.119733333333336,24.406779661016948,37.9416C25.423728813559322,37.763466666666666,26.440677966101696,37.55453333333334,27.45762711864407,37.3224C28.47457627118644,37.09026666666667,29.491525423728813,36.81653333333333,30.508474576271183,36.5488C31.525423728813557,36.28106666666667,32.54237288135593,36.0008,33.559322033898304,35.716C34.57627118644068,35.431200000000004,35.59322033898305,35.11933333333334,36.610169491525426,34.84C37.6271186440678,34.56066666666667,38.644067796610166,34.3724,39.66101694915254,34.04C40.67796610169491,33.7076,41.69491525423729,33.264399999999995,42.71186440677966,32.8456C43.728813559322035,32.4268,44.7457627118644,31.983866666666668,45.762711864406775,31.5272C46.77966101694915,31.070533333333334,47.79661016949152,30.587066666666665,48.813559322033896,30.1056C49.83050847457627,29.624133333333333,50.847457627118644,29.14613333333333,51.86440677966102,28.638399999999997C52.88135593220339,28.130666666666663,53.898305084745765,27.54973333333333,54.91525423728814,27.059199999999997C55.93220338983051,26.568666666666665,56.94915254237288,26.20093333333333,57.96610169491525,25.6952C58.983050847457626,25.189466666666668,59.99999999999999,24.609066666666664,61.01694915254237,24.0248C62.03389830508474,23.44053333333333,63.05084745762712,22.7628,64.0677966101695,22.1896C65.08474576271186,21.6164,66.10169491525424,21.183999999999997,67.11864406779661,20.5856C68.13559322033899,19.987199999999998,69.15254237288136,19.253066666666665,70.16949152542374,18.599199999999996C71.1864406779661,17.94533333333333,72.20338983050848,17.283066666666667,73.22033898305085,16.6624C74.23728813559322,16.041733333333337,75.2542372881356,15.477466666666666,76.27118644067797,14.8752C77.28813559322033,14.272933333333333,78.30508474576271,13.49013333333333,79.32203389830508,13.048799999999998C80.33898305084746,12.607466666666662,81.35593220338983,12.504666666666665,82.37288135593221,12.227199999999998C83.38983050847457,11.949733333333333,84.40677966101696,11.806266666666664,85.42372881355932,11.383999999999999C86.4406779661017,10.961733333333331,87.45762711864407,10.159333333333334,88.47457627118645,9.6936C89.49152542372882,9.22786666666667,90.50847457627118,8.952133333333332,91.52542372881355,8.5896C92.54237288135593,8.227066666666666,93.55932203389831,7.910133333333337,94.57627118644069,7.518400000000001C95.59322033898306,7.12666666666667,96.61016949152543,6.590400000000001,97.62711864406779,6.2392C98.64406779661016,5.887999999999999,99.66101694915254,5.647066666666665,100.6779661016949,5.411199999999998C101.69491525423729,5.175333333333331,102.71186440677965,5.096133333333336,103.72881355932203,4.824000000000002C104.7457627118644,4.551866666666669,105.76271186440678,3.7783999999999995,106.77966101694915,3.7783999999999995C107.79661016949153,3.7783999999999995,108.8135593220339,3.9871999999999996,109.83050847457628,3.9871999999999996C110.84745762711864,3.9871999999999996,111.86440677966102,3.5616000000000003,112.88135593220339,3.5616000000000003C113.89830508474576,3.5616000000000003,114.91525423728814,3.588266666666667,115.9322033898305,3.6416000000000004C116.94915254237289,3.694933333333334,117.96610169491525,4.8984,118.98305084745763,5.36C120,5.8215999999999966,121.01694915254237,6.092933333333335,122.03389830508473,6.411199999999999C123.05084745762711,6.729466666666669,124.0677966101695,7.0237333333333325,125.08474576271188,7.2696000000000005C126.10169491525424,7.515466666666666,127.11864406779662,7.835199999999999,128.135593220339,7.8864C129.15254237288136,7.937600000000001,130.16949152542372,7.912000000000001,131.1864406779661,7.963200000000001C132.20338983050846,8.014400000000002,133.22033898305085,8.2564,134.23728813559322,8.383199999999999C135.25423728813558,8.509999999999998,136.27118644067798,8.723999999999998,137.28813559322035,8.723999999999998C138.3050847457627,8.723999999999998,139.3220338983051,8.414400000000002,140.33898305084747,8.376000000000001C141.35593220338984,8.3376,142.3728813559322,8.3184,143.38983050847457,8.3184C144.40677966101694,8.3184,145.42372881355934,8.377600000000001,146.4406779661017,8.496000000000002C147.45762711864407,8.614400000000002,148.47457627118644,9.081733333333338,149.4915254237288,9.367200000000002C150.50847457627117,9.65266666666667,151.52542372881356,9.81,152.54237288135593,10.2088C153.5593220338983,10.6076,154.5762711864407,11.265066666666666,155.59322033898306,11.760000000000002C156.61016949152543,12.254933333333332,157.6271186440678,12.801066666666667,158.64406779661016,13.1784C159.66101694915253,13.555733333333336,160.67796610169492,13.763333333333334,161.6949152542373,14.024000000000001C162.71186440677965,14.284666666666668,163.72881355932205,14.7424,164.74576271186442,14.7424C165.76271186440678,14.7424,166.77966101694915,14.5608,167.79661016949152,14.5608C168.81355932203388,14.5608,169.83050847457628,14.626666666666667,170.84745762711864,14.6664C171.864406779661,14.706133333333332,172.8813559322034,14.799199999999999,173.89830508474577,14.799199999999999C174.91525423728814,14.799199999999999,175.93220338983053,14.571200000000001,176.9491525423729,14.571200000000001C177.96610169491527,14.571200000000001,178.98305084745763,16.386000000000003,180,18.2008L180,40C178.98305084745763,40,177.96610169491527,40,176.9491525423729,40C175.93220338983053,40,174.91525423728814,40,173.89830508474577,40C172.8813559322034,40,171.864406779661,40,170.84745762711864,40C169.83050847457628,40,168.81355932203388,40,167.79661016949152,40C166.77966101694915,40,165.76271186440678,40,164.74576271186442,40C163.72881355932205,40,162.71186440677965,40,161.6949152542373,40C160.67796610169492,40,159.66101694915253,40,158.64406779661016,40C157.6271186440678,40,156.61016949152543,40,155.59322033898306,40C154.5762711864407,40,153.5593220338983,40,152.54237288135593,40C151.52542372881356,40,150.50847457627117,40,149.4915254237288,40C148.47457627118644,40,147.45762711864407,40,146.4406779661017,40C145.42372881355934,40,144.40677966101694,40,143.38983050847457,40C142.3728813559322,40,141.35593220338984,40,140.33898305084747,40C139.3220338983051,40,138.3050847457627,40,137.28813559322035,40C136.27118644067798,40,135.25423728813558,40,134.23728813559322,40C133.22033898305085,40,132.20338983050846,40,131.1864406779661,40C130.16949152542372,40,129.15254237288136,40,128.135593220339,40C127.11864406779662,40,126.10169491525424,40,125.08474576271188,40C124.0677966101695,40,123.05084745762711,40,122.03389830508473,40C121.01694915254237,40,120,40,118.98305084745763,40C117.96610169491525,40,116.94915254237289,40,115.9322033898305,40C114.91525423728814,40,113.89830508474576,40,112.88135593220339,40C111.86440677966102,40,110.84745762711864,40,109.83050847457628,40C108.8135593220339,40,107.79661016949153,40,106.77966101694915,40C105.76271186440678,40,104.7457627118644,40,103.72881355932203,40C102.71186440677965,40,101.69491525423729,40,100.6779661016949,40C99.66101694915254,40,98.64406779661016,40,97.62711864406779,40C96.61016949152543,40,95.59322033898306,40,94.57627118644069,40C93.55932203389831,40,92.54237288135593,40,91.52542372881355,40C90.50847457627118,40,89.49152542372882,40,88.47457627118645,40C87.45762711864407,40,86.4406779661017,40,85.42372881355932,40C84.40677966101696,40,83.38983050847457,40,82.37288135593221,40C81.35593220338983,40,80.33898305084746,40,79.32203389830508,40C78.30508474576271,40,77.28813559322033,40,76.27118644067797,40C75.2542372881356,40,74.23728813559322,40,73.22033898305085,40C72.20338983050848,40,71.1864406779661,40,70.16949152542374,40C69.15254237288136,40,68.13559322033899,40,67.11864406779661,40C66.10169491525424,40,65.08474576271186,40,64.0677966101695,40C63.05084745762712,40,62.03389830508474,40,61.01694915254237,40C59.99999999999999,40,58.983050847457626,40,57.96610169491525,40C56.94915254237288,40,55.93220338983051,40,54.91525423728814,40C53.898305084745765,40,52.88135593220339,40,51.86440677966102,40C50.847457627118644,40,49.83050847457627,40,48.813559322033896,40C47.79661016949152,40,46.77966101694915,40,45.762711864406775,40C44.7457627118644,40,43.728813559322035,40,42.71186440677966,40C41.69491525423729,40,40.67796610169491,40,39.66101694915254,40C38.644067796610166,40,37.6271186440678,40,36.610169491525426,40C35.59322033898305,40,34.57627118644068,40,33.559322033898304,40C32.54237288135593,40,31.525423728813557,40,30.508474576271183,40C29.491525423728813,40,28.47457627118644,40,27.45762711864407,40C26.440677966101696,40,25.423728813559322,40,24.406779661016948,40C23.389830508474574,40,22.372881355932204,40,21.35593220338983,40C20.338983050847457,40,19.322033898305087,40,18.305084745762713,40C17.28813559322034,40,16.271186440677965,40,15.254237288135592,40C14.23728813559322,40,13.220338983050846,40,12.203389830508474,40C11.186440677966102,40,10.169491525423728,40,9.152542372881356,40C8.135593220338983,40,7.11864406779661,40,6.101694915254237,40C5.084745762711864,40,4.067796610169491,40,3.0508474576271185,40C2.0338983050847457,40,1.0169491525423728,40,0,40Z"></path><path class="line" stroke="black" fill="none" d="M0,39.8336C1.0169491525423728,39.8154,2.0338983050847457,39.7972,3.0508474576271185,39.763999999999996C4.067796610169491,39.730799999999995,5.084745762711864,39.68946666666667,6.101694915254237,39.6344C7.11864406779661,39.57933333333333,8.135593220338983,39.514266666666664,9.152542372881356,39.4336C10.169491525423728,39.35293333333333,11.186440677966102,39.24706666666666,12.203389830508474,39.1504C13.220338983050846,39.053733333333334,14.23728813559322,38.943866666666665,15.254237288135592,38.8536C16.271186440677965,38.763333333333335,17.28813559322034,38.68586666666667,18.305084745762713,38.6088C19.322033898305087,38.531733333333335,20.338983050847457,38.502399999999994,21.35593220338983,38.3912C22.372881355932204,38.28,23.389830508474574,38.119733333333336,24.406779661016948,37.9416C25.423728813559322,37.763466666666666,26.440677966101696,37.55453333333334,27.45762711864407,37.3224C28.47457627118644,37.09026666666667,29.491525423728813,36.81653333333333,30.508474576271183,36.5488C31.525423728813557,36.28106666666667,32.54237288135593,36.0008,33.559322033898304,35.716C34.57627118644068,35.431200000000004,35.59322033898305,35.11933333333334,36.610169491525426,34.84C37.6271186440678,34.56066666666667,38.644067796610166,34.3724,39.66101694915254,34.04C40.67796610169491,33.7076,41.69491525423729,33.264399999999995,42.71186440677966,32.8456C43.728813559322035,32.4268,44.7457627118644,31.983866666666668,45.762711864406775,31.5272C46.77966101694915,31.070533333333334,47.79661016949152,30.587066666666665,48.813559322033896,30.1056C49.83050847457627,29.624133333333333,50.847457627118644,29.14613333333333,51.86440677966102,28.638399999999997C52.88135593220339,28.130666666666663,53.898305084745765,27.54973333333333,54.91525423728814,27.059199999999997C55.93220338983051,26.568666666666665,56.94915254237288,26.20093333333333,57.96610169491525,25.6952C58.983050847457626,25.189466666666668,59.99999999999999,24.609066666666664,61.01694915254237,24.0248C62.03389830508474,23.44053333333333,63.05084745762712,22.7628,64.0677966101695,22.1896C65.08474576271186,21.6164,66.10169491525424,21.183999999999997,67.11864406779661,20.5856C68.13559322033899,19.987199999999998,69.15254237288136,19.253066666666665,70.16949152542374,18.599199999999996C71.1864406779661,17.94533333333333,72.20338983050848,17.283066666666667,73.22033898305085,16.6624C74.23728813559322,16.041733333333337,75.2542372881356,15.477466666666666,76.27118644067797,14.8752C77.28813559322033,14.272933333333333,78.30508474576271,13.49013333333333,79.32203389830508,13.048799999999998C80.33898305084746,12.607466666666662,81.35593220338983,12.504666666666665,82.37288135593221,12.227199999999998C83.38983050847457,11.949733333333333,84.40677966101696,11.806266666666664,85.42372881355932,11.383999999999999C86.4406779661017,10.961733333333331,87.45762711864407,10.159333333333334,88.47457627118645,9.6936C89.49152542372882,9.22786666666667,90.50847457627118,8.952133333333332,91.52542372881355,8.5896C92.54237288135593,8.227066666666666,93.55932203389831,7.910133333333337,94.57627118644069,7.518400000000001C95.59322033898306,7.12666666666667,96.61016949152543,6.590400000000001,97.62711864406779,6.2392C98.64406779661016,5.887999999999999,99.66101694915254,5.647066666666665,100.6779661016949,5.411199999999998C101.69491525423729,5.175333333333331,102.71186440677965,5.096133333333336,103.72881355932203,4.824000000000002C104.7457627118644,4.551866666666669,105.76271186440678,3.7783999999999995,106.77966101694915,3.7783999999999995C107.79661016949153,3.7783999999999995,108.8135593220339,3.9871999999999996,109.83050847457628,3.9871999999999996C110.84745762711864,3.9871999999999996,111.86440677966102,3.5616000000000003,112.88135593220339,3.5616000000000003C113.89830508474576,3.5616000000000003,114.91525423728814,3.588266666666667,115.9322033898305,3.6416000000000004C116.94915254237289,3.694933333333334,117.96610169491525,4.8984,118.98305084745763,5.36C120,5.8215999999999966,121.01694915254237,6.092933333333335,122.03389830508473,6.411199999999999C123.05084745762711,6.729466666666669,124.0677966101695,7.0237333333333325,125.08474576271188,7.2696000000000005C126.10169491525424,7.515466666666666,127.11864406779662,7.835199999999999,128.135593220339,7.8864C129.15254237288136,7.937600000000001,130.16949152542372,7.912000000000001,131.1864406779661,7.963200000000001C132.20338983050846,8.014400000000002,133.22033898305085,8.2564,134.23728813559322,8.383199999999999C135.25423728813558,8.509999999999998,136.27118644067798,8.723999999999998,137.28813559322035,8.723999999999998C138.3050847457627,8.723999999999998,139.3220338983051,8.414400000000002,140.33898305084747,8.376000000000001C141.35593220338984,8.3376,142.3728813559322,8.3184,143.38983050847457,8.3184C144.40677966101694,8.3184,145.42372881355934,8.377600000000001,146.4406779661017,8.496000000000002C147.45762711864407,8.614400000000002,148.47457627118644,9.081733333333338,149.4915254237288,9.367200000000002C150.50847457627117,9.65266666666667,151.52542372881356,9.81,152.54237288135593,10.2088C153.5593220338983,10.6076,154.5762711864407,11.265066666666666,155.59322033898306,11.760000000000002C156.61016949152543,12.254933333333332,157.6271186440678,12.801066666666667,158.64406779661016,13.1784C159.66101694915253,13.555733333333336,160.67796610169492,13.763333333333334,161.6949152542373,14.024000000000001C162.71186440677965,14.284666666666668,163.72881355932205,14.7424,164.74576271186442,14.7424C165.76271186440678,14.7424,166.77966101694915,14.5608,167.79661016949152,14.5608C168.81355932203388,14.5608,169.83050847457628,14.626666666666667,170.84745762711864,14.6664C171.864406779661,14.706133333333332,172.8813559322034,14.799199999999999,173.89830508474577,14.799199999999999C174.91525423728814,14.799199999999999,175.93220338983053,14.571200000000001,176.9491525423729,14.571200000000001C177.96610169491527,14.571200000000001,178.98305084745763,16.386000000000003,180,18.2008"></path><path class="axis-ceiling" stroke-width="1" stroke="black" fill="none" d="M175,0L180,0"></path><text class="axis-ceiling-label" font-family="sans-serif" text-anchor="end" font-size="10px" x="170" y="2.5">50000</text></g></svg>