<svg xmlns="http://www.w3.org/2000/svg" viewBox="0 0 180 60"><g transform="translate(0,20)"><path class="area" fill="rgba(0, 0, 0, 0.2)" d="M0,32.599999999999994C1.0169491525423728,32.559999999999995,2.0338983050847457,32.519999999999996,3.0508474576271185,32.519999999999996C4.067796610169491,32.519999999999996,5.084745762711864,32.57333333333333,6.101694915254237,32.68C7.11864406779661,32.78666666666667,8.135593220338983,33.20666666666666,9.152542372881356,33.36C10.169491525423728,33.513333333333335,11.186440677966102,33.53333333333333,12.203389830508474,33.6C13.220338983050846,33.66666666666667,14.23728813559322,33.66,15.254237288135592,33.76C16.271186440677965,33.86,17.28813559322034,34.07333333333334,18.305084745762713,34.2C19.322033898305087,34.32666666666667,20.338983050847457,34.42666666666666,21.35593220338983,34.519999999999996C22.372881355932204,34.61333333333333,23.389830508474574,34.76,24.406779661016948,34.76C25.423728813559322,34.76,26.440677966101696,34.76,27.45762711864407,34.76C28.47457627118644,34.76,29.491525423728813,34.88,30.508474576271183,34.88C31.525423728813557,34.88,32.54237288135593,34.84,33.559322033898304,34.84C34.57627118644068,34.84,35.59322033898305,35.14666666666667,36.610169491525426,35.2C37.6271186440678,35.25333333333334,38.644067796610166,35.28,39.66101694915254,35.28C40.67796610169491,35.28,41.69491525423729,35.053333333333335,42.71186440677966,35C43.728813559322035,34.946666666666665,44.7457627118644,34.92,45.762711864406775,34.92C46.77966101694915,34.92,47.79661016949152,35.2,48.813559322033896,35.2C49.83050847457627,35.2,50.847457627118644,35.2,51.86440677966102,35.2C52.88135593220339,35.2,53.898305084745765,35.52,54.91525423728814,35.52C55.93220338983051,35.52,56.94915254237288,35.46,57.96610169491525,35.44C58.983050847457626,35.419999999999995,59.99999999999999,35.42666666666666,61.01694915254237,35.4C62.03389830508474,35.373333333333335,63.05084745762712,35.28,64.0677966101695,35.28C65.08474576271186,35.28,66.10169491525424,35.28,67.11864406779661,35.28C68.13559322033899,35.28,69.15254237288136,34.92,70.16949152542374,34.92C71.1864406779661,34.92,72.20338983050848,35.08,73.22033898305085,35.08C74.23728813559322,35.08,75.2542372881356,34.92,76.27118644067797,34.92C77.28813559322033,34.92,78.30508474576271,35,79.32203389830508,35C80.33898305084746,35,81.35593220338983,34.96,82.37288135593221,34.96C83.38983050847457,34.96,84.40677966101696,35.28,85.42372881355932,35.28C86.4406779661017,35.28,87.45762711864407,35.266666666666666,88.47457627118645,35.24C89.49152542372882,35.21333333333334,90.50847457627118,35.18,91.52542372881355,35.12C92.54237288135593,35.059999999999995,93.55932203389831,34.96,94.57627118644069,34.88C95.59322033898306,34.800000000000004,96.61016949152543,34.76,97.62711864406779,34.64C98.64406779661016,34.519999999999996,99.66101694915254,34.31333333333333,100.6779661016949,34.16C101.69491525423729,34.00666666666666,102.71186440677965,33.92,103.72881355932203,33.72C104.7457627118644,33.52,105.76271186440678,33.18,106.77966101694915,32.96C107.79661016949153,32.74,108.8135593220339,32.506666666666675,109.83050847457628,32.400000000000006C110.84745762711864,32.29333333333334,111.86440677966102,32.34666666666667,112.88135593220339,32.24C113.89830508474576,32.13333333333333,114.91525423728814,31.613333333333333,115.9322033898305,31.48C116.94915254237289,31.346666666666668,117.96610169491525,31.333333333333336,118.98305084745763,31.28C120,31.226666666666667,121.01694915254237,31.240000000000002,122.03389830508473,31.16C123.05084745762711,31.08,124.0677966101695,30.70666666666667,125.08474576271188,30.6C126.10169491525424,30.493333333333336,127.11864406779662,30.546666666666667,128.135593220339,30.44C129.15254237288136,30.333333333333336,130.16949152542372,29.85333333333333,131.1864406779661,29.52C132.20338983050846,29.186666666666664,133.22033898305085,28.700000000000003,134.23728813559322,28.440000000000005C135.25423728813558,28.180000000000007,136.27118644067798,28.066666666666666,137.28813559322035,27.96C138.3050847457627,27.853333333333335,139.3220338983051,27.90666666666667,140.33898305084747,27.800000000000004C141.35593220338984,27.693333333333342,142.3728813559322,27.43333333333333,143.38983050847457,27.119999999999997C144.40677966101694,26.80666666666666,145.42372881355934,26.273333333333337,146.4406779661017,25.92C147.45762711864407,25.56666666666667,148.47457627118644,25.253333333333334,149.4915254237288,25C150.50847457627117,24.746666666666666,151.52542372881356,24.646666666666665,152.54237288135593,24.4C153.5593220338983,24.153333333333332,154.5762711864407,23.720000000000002,155.59322033898306,23.520000000000003C156.61016949152543,23.320000000000007,157.6271186440678,23.393333333333334,158.64406779661016,23.200000000000003C159.66101694915253,23.006666666666668,160.67796610169492,22.64666666666667,161.6949152542373,22.36C162.71186440677965,22.07333333333333,163.72881355932205,21.726666666666663,164.74576271186442,21.479999999999997C165.76271186440678,21.23333333333333,166.77966101694915,21.166666666666668,167.79661016949152,20.880000000000003C168.81355932203388,20.593333333333337,169.83050847457628,20.133333333333333,170.84745762711864,19.759999999999998C171.864406779661,19.386666666666663,172.8813559322034,18.94,173.89830508474577,18.64C174.91525423728814,18.34,175.93220338983053,17.959999999999997,176.9491525423729,17.959999999999997C177.96610169491527,17.959999999999997,178.98305084745763,19.019999999999996,180,20.08L180,40C178.98305084745763,40,177.96610169491527,40,176.9491525423729,40C175.93220338983053,40,174.91525423728814,40,173.89830508474577,40C172.8813559322034,40,171.864406779661,40,170.84745762711864,40C169.83050847457628,40,168.81355932203388,40,167.79661016949152,40C166.77966101694915,40,165.76271186440678,40,164.74576271186442,40C163.72881355932205,40,162.71186440677965,40,161.6949152542373,40C160.67796610169492,40,159.66101694915253,40,158.64406779661016,40C157.6271186440678,40,156.61016949152543,40,155.59322033898306,40C154.5762711864407,40,153.5593220338983,40,152.54237288135593,40C151.52542372881356,40,150.50847457627117,40,149.4915254237288,40C148.47457627118644,40,147.45762711864407,40,146.4406779661017,40C145.42372881355934,40,144.40677966101694,40,143.38983050847457,40C142.3728813559322,40,141.35593220338984,40,140.33898305084747,40C139.3220338983051,40,138.3050847457627,40,137.28813559322035,40C136.27118644067798,40,135.25423728813558,40,134.23728813559322,40C133.22033898305085,40,132.20338983050846,40,131.1864406779661,40C130.16949152542372,40,129.15254237288136,40,128.135593220339,40C127.11864406779662,40,126.10169491525424,40,125.08474576271188,40C124.0677966101695,40,123.05084745762711,40,122.03389830508473,40C121.01694915254237,40,120,40,118.98305084745763,40C117.96610169491525,40,116.94915254237289,40,115.9322033898305,40C114.91525423728814,40,113.89830508474576,40,112.88135593220339,40C111.86440677966102,40,110.84745762711864,40,109.83050847457628,40C108.8135593220339,40,107.79661016949153,40,106.77966101694915,40C105.76271186440678,40,104.7457627118644,40,103.72881355932203,40C102.71186440677965,40,101.69491525423729,40,100.6779661016949,40C99.66101694915254,40,98.64406779661016,40,97.62711864406779,40C96.61016949152543,40,95.59322033898306,40,94.57627118644069,40C93.55932203389831,40,92.54237288135593,40,91.52542372881355,40C90.50847457627118,40,89.49152542372882,40,88.47457627118645,40C87.45762711864407,40,86.4406779661017,40,85.42372881355932,40C84.40677966101696,40,83.38983050847457,40,82.37288135593221,40C81.35593220338983,40,80.33898305084746,40,79.32203389830508,40C78.30508474576271,40,77.28813559322033,40,76.27118644067797,40C75.2542372881356,40,74.23728813559322,40,73.22033898305085,40C72.20338983050848,40,71.1864406779661,40,70.16949152542374,40C69.15254237288136,40,68.13559322033899,40,67.11864406779661,40C66.10169491525424,40,65.08474576271186,40,64.0677966101695,40C63.05084745762712,40,62.03389830508474,40,61.01694915254237,40C59.99999999999999,40,58.983050847457626,40,57.96610169491525,40C56.94915254237288,40,55.93220338983051,40,54.91525423728814,40C53.898305084745765,40,52.88135593220339,40,51.86440677966102,40C50.847457627118644,40,49.83050847457627,40,48.813559322033896,40C47.79661016949152,40,46.77966101694915,40,45.762711864406775,40C44.7457627118644,40,43.728813559322035,40,42.71186440677966,40C41.69491525423729,40,40.67796610169491,40,39.66101694915254,40C38.644067796610166,40,37.6271186440678,40,36.610169491525426,40C35.59322033898305,40,34.57627118644068,40,33.559322033898304,40C32.54237288135593,40,31.525423728813557,40,30.508474576271183,40C29.491525423728813,40,28.47457627118644,40,27.45762711864407,40C26.440677966101696,40,25.423728813559322,40,24.406779661016948,40C23.389830508474574,40,22.372881355932204,40,21.35593220338983,40C20.338983050847457,40,19.322033898305087,40,18.305084745762713,40C17.28813559322034,40,16.271186440677965,40,15.254237288135592,40C14.23728813559322,40,13.220338983050846,40,12.203389830508474,40C11.186440677966102,40,10.169491525423728,40,9.152542372881356,40C8.135593220338983,40,7.11864406779661,40,6.101694915254237,40C5.084745762711864,40,4.067796610169491,40,3.0508474576271185,40C2.0338983050847457,40,1.0169491525423728,40,0,40Z"></path><path class="line" stroke="black" fill="none" d="M0,32.599999999999994C1.0169491525423728,32.559999999999995,2.0338983050847457,32.519999999999996,3.0508474576271185,32.519999999999996C4.067796610169491,32.519999999999996,5.084745762711864,32.57333333333333,6.101694915254237,32.68C7.11864406779661,32.78666666666667,8.135593220338983,33.20666666666666,9.152542372881356,33.36C10.169491525423728,33.513333333333335,11.186440677966102,33.53333333333333,12.203389830508474,33.6C13.220338983050846,33.66666666666667,14.23728813559322,33.66,15.254237288135592,33.76C16.271186440677965,33.86,17.28813559322034,34.07333333333334,18.305084745762713,34.2C19.322033898305087,34.32666666666667,20.338983050847457,34.42666666666666,21.35593220338983,34.519999999999996C22.372881355932204,34.61333333333333,23.389830508474574,34.76,24.406779661016948,34.76C25.423728813559322,34.76,26.440677966101696,34.76,27.45762711864407,34.76C28.47457627118644,34.76,29.491525423728813,34.88,30.508474576271183,34.88C31.525423728813557,34.88,32.54237288135593,34.84,33.559322033898304,34.84C34.57627118644068,34.84,35.59322033898305,35.14666666666667,36.610169491525426,35.2C37.6271186440678,35.25333333333334,38.644067796610166,35.28,39.66101694915254,35.28C40.67796610169491,35.28,41.69491525423729,35.053333333333335,42.71186440677966,35C43.728813559322035,34.946666666666665,44.7457627118644,34.92,45.762711864406775,34.92C46.77966101694915,34.92,47.79661016949152,35.2,48.813559322033896,35.2C49.83050847457627,35.2,50.847457627118644,35.2,51.86440677966102,35.2C52.88135593220339,35.2,53.898305084745765,35.52,54.91525423728814,35.52C55.93220338983051,35.52,56.94915254237288,35.46,57.96610169491525,35.44C58.983050847457626,35.419999999999995,59.99999999999999,35.42666666666666,61.01694915254237,35.4C62.03389830508474,35.373333333333335,63.05084745762712,35.28,64.0677966101695,35.28C65.08474576271186,35.28,66.10169491525424,35.28,67.11864406779661,35.28C68.13559322033899,35.28,69.15254237288136,34.92,70.16949152542374,34.92C71.1864406779661,34.92,72.20338983050848,35.08,73.22033898305085,35.08C74.23728813559322,35.08,75.2542372881356,34.92,76.27118644067797,34.92C77.28813559322033,34.92,78.30508474576271,35,79.32203389830508,35C80.33898305084746,35,81.35593220338983,34.96,82.37288135593221,34.96C83.38983050847457,34.96,84.40677966101696,35.28,85.42372881355932,35.28C86.4406779661017,35.28,87.45762711864407,35.266666666666666,88.47457627118645,35.24C89.49152542372882,35.21333333333334,90.50847457627118,35.18,91.52542372881355,35.12C92.54237288135593,35.059999999999995,93.55932203389831,34.96,94.57627118644069,34.88C95.59322033898306,34.800000000000004,96.61016949152543,34.76,97.62711864406779,34.64C98.64406779661016,34.519999999999996,99.66101694915254,34.31333333333333,100.6779661016949,34.16C101.69491525423729,34.00666666666666,102.71186440677965,33.92,103.72881355932203,33.72C104.7457627118644,33.52,105.76271186440678,33.18,106.77966101694915,32.96C107.79661016949153,32.74,108.8135593220339,32.506666666666675,109.83050847457628,32.400000000000006C110.84745762711864,32.29333333333334,111.86440677966102,32.34666666666667,112.88135593220339,32.24C113.89830508474576,32.13333333333333,114.91525423728814,31.613333333333333,115.9322033898305,31.48C116.94915254237289,31.346666666666668,117.96610169491525,31.333333333333336,118.98305084745763,31.28C120,31.226666666666667,121.01694915254237,31.240000000000002,122.03389830508473,31.16C123.05084745762711,31.08,124.0677966101695,30.70666666666667,125.08474576271188,30.6C126.10169491525424,30.493333333333336,127.11864406779662,30.546666666666667,128.135593220339,30.44C129.15254237288136,30.333333333333336,130.16949152542372,29.85333333333333,131.1864406779661,29.52C132.20338983050846,29.186666666666664,133.22033898305085,28.700000000000003,134.23728813559322,28.440000000000005C135.25423728813558,28.180000000000007,136.27118644067798,28.066666666666666,137.28813559322035,27.96C138.3050847457627,27.853333333333335,139.3220338983051,27.90666666666667,140.33898305084747,27.800000000000004C141.35593220338984,27.693333333333342,142.3728813559322,27.43333333333333,143.38983050847457,27.119999999999997C144.40677966101694,26.80666666666666,145.42372881355934,26.273333333333337,146.4406779661017,25.92C147.45762711864407,25.56666666666667,148.47457627118644,25.253333333333334,149.4915254237288,25C150.50847457627117,24.746666666666666,151.52542372881356,24.646666666666665,152.54237288135593,24.4C153.5593220338983,24.153333333333332,154.5762711864407,23.720000000000002,155.59322033898306,23.520000000000003C156.61016949152543,23.320000000000007,157.6271186440678,23.393333333333334,158.64406779661016,23.200000000000003C159.66101694915253,23.006666666666668,160.67796610169492,22.64666666666667,161.6949152542373,22.36C162.71186440677965,22.07333333333333,163.72881355932205,21.726666666666663,164.74576271186442,21.479999999999997C165.76271186440678,21.23333333333333,166.77966101694915,21.166666666666668,167.79661016949152,20.880000000000003C168.81355932203388,20.593333333333337,169.83050847457628,20.133333333333333,170.84745762711864,19.759999999999998C171.864406779661,19.386666666666663,172.8813559322034,18.94,173.89830508474577,18.64C174.91525423728814,18.34,175.93220338983053,17.959999999999997,176.9491525423729,17.959999999999997C177.96610169491527,17.959999999999997,178.98305084745763,19.019999999999996,180,20.08"></path><path class="axis-ceiling" stroke-width="1" stroke="black" fill="none" d="M175,0L180,0"></path><text class="axis-ceiling-label" font-family="sans-serif" text-anchor="end" font-size="10px" x="170" y="2.5">1000</text></g></svg>