<svg xmlns="http://www.w3.org/2000/svg" viewBox="0 0 180 60"><g transform="translate(0,20)"><path class="area" fill="rgba(0, 0, 0, 0.2)" d="M0,36.334C1.0169491525423728,36.161500000000004,2.0338983050847457,35.989000000000004,3.0508474576271185,35.802C4.067796610169491,35.614999999999995,5.084745762711864,35.40833333333333,6.101694915254237,35.211999999999996C7.11864406779661,35.01566666666666,8.135593220338983,34.82366666666667,9.152542372881356,34.624C10.169491525423728,34.42433333333334,11.186440677966102,34.21133333333333,12.203389830508474,34.013999999999996C13.220338983050846,33.81666666666666,14.23728813559322,33.608666666666664,15.254237288135592,33.44C16.271186440677965,33.27133333333333,17.28813559322034,33.002,18.305084745762713,33.002C19.322033898305087,33.002,20.338983050847457,33.046,21.35593220338983,33.046C22.372881355932204,33.046,23.389830508474574,32.35066666666667,24.406779661016948,31.948C25.423728813559322,31.545333333333332,26.440677966101696,31.063999999999997,27.45762711864407,30.629999999999995C28.47457627118644,30.195999999999994,29.491525423728813,29.758,30.508474576271183,29.344C31.525423728813557,28.930000000000003,32.54237288135593,28.508000000000003,33.559322033898304,28.146C34.57627118644068,27.784,35.59322033898305,27.450666666666667,36.610169491525426,27.172C37.6271186440678,26.893333333333334,38.644067796610166,26.895000000000003,39.66101694915254,26.474000000000004C40.67796610169491,26.053000000000004,41.69491525423729,25.036666666666672,42.71186440677966,24.646C43.728813559322035,24.25533333333333,44.7457627118644,24.244666666666664,45.762711864406775,24.059999999999995C46.77966101694915,23.875333333333327,47.79661016949152,23.725666666666662,48.813559322033896,23.537999999999997C49.83050847457627,23.35033333333333,50.847457627118644,23.110333333333333,51.86440677966102,22.934C52.88135593220339,22.75766666666667,53.898305084745765,22.636000000000006,54.91525423728814,22.480000000000004C55.93220338983051,22.324000000000005,56.94915254237288,21.997999999999998,57.96610169491525,21.997999999999998C58.983050847457626,21.997999999999998,59.99999999999999,21.997999999999998,61.01694915254237,21.997999999999998C62.03389830508474,21.997999999999998,63.05084745762712,21.741666666666664,64.0677966101695,21.586C65.08474576271186,21.430333333333333,66.10169491525424,21.118666666666666,67.11864406779661,21.064C68.13559322033899,21.009333333333334,69.15254237288136,20.982000000000003,70.16949152542374,20.982000000000003C71.1864406779661,20.982000000000003,72.20338983050848,20.994,73.22033898305085,20.994C74.23728813559322,20.994,75.2542372881356,20.849666666666668,76.27118644067797,20.792C77.28813559322033,20.734333333333336,78.30508474576271,20.705666666666666,79.32203389830508,20.648C80.33898305084746,20.590333333333334,81.35593220338983,20.492666666666665,82.37288135593221,20.445999999999998C83.38983050847457,20.39933333333333,84.40677966101696,20.419999999999998,85.42372881355932,20.368C86.4406779661017,20.316,87.45762711864407,19.736333333333334,88.47457627118645,19.46C89.49152542372882,19.18366666666667,90.50847457627118,18.71,91.52542372881355,18.71C92.54237288135593,18.71,93.55932203389831,19.293999999999997,94.57627118644069,19.293999999999997C95.59322033898306,19.293999999999997,96.61016949152543,19.276999999999997,97.62711864406779,19.252C98.64406779661016,19.227,99.66101694915254,19.203,100.6779661016949,19.144000000000002C101.69491525423729,19.085,102.71186440677965,18.898000000000003,103.72881355932203,18.898000000000003C104.7457627118644,18.898000000000003,105.76271186440678,19.03033333333333,106.77966101694915,19.089999999999996C107.79661016949153,19.14966666666666,108.8135593220339,19.256,109.83050847457628,19.256C110.84745762711864,19.256,111.86440677966102,18.865666666666666,112.88135593220339,18.25C113.89830508474576,17.634333333333334,114.91525423728814,16.349666666666668,115.9322033898305,15.562000000000001C116.94915254237289,14.774333333333331,117.96610169491525,14.123666666666667,118.98305084745763,13.523999999999997C120,12.924333333333335,121.01694915254237,12.285333333333332,122.03389830508473,11.964000000000002C123.05084745762711,11.642666666666669,124.0677966101695,11.736333333333336,125.08474576271188,11.482000000000001C126.10169491525424,11.227666666666668,127.11864406779662,10.722000000000001,128.135593220339,10.438C129.15254237288136,10.154000000000002,130.16949152542372,9.777999999999999,131.1864406779661,9.777999999999999C132.20338983050846,9.777999999999999,133.22033898305085,9.921333333333331,134.23728813559322,10.207999999999998C135.25423728813558,10.494666666666665,136.27118644067798,11.054666666666668,137.28813559322035,11.568000000000001C138.3050847457627,12.081333333333335,139.3220338983051,12.749333333333333,140.33898305084747,13.288000000000002C141.35593220338984,13.826666666666666,142.3728813559322,14.417000000000002,143.38983050847457,14.8C144.40677966101694,15.183000000000003,145.42372881355934,15.320666666666668,146.4406779661017,15.586000000000002C147.45762711864407,15.851333333333335,148.47457627118644,16.08633333333334,149.4915254237288,16.392000000000003C150.50847457627117,16.69766666666667,151.52542372881356,17.071,152.54237288135593,17.42C153.5593220338983,17.769000000000002,154.5762711864407,18.157999999999994,155.59322033898306,18.485999999999997C156.61016949152543,18.813999999999997,157.6271186440678,19.105666666666668,158.64406779661016,19.388C159.66101694915253,19.670333333333335,160.67796610169492,19.960333333333335,161.6949152542373,20.18C162.71186440677965,20.399666666666665,163.72881355932205,20.549666666666663,164.74576271186442,20.705999999999996C165.76271186440678,20.86233333333333,166.77966101694915,20.94866666666666,167.79661016949152,21.117999999999995C168.81355932203388,21.28733333333333,169.83050847457628,21.522333333333332,170.84745762711864,21.722C171.864406779661,21.92166666666667,172.8813559322034,22.07266666666667,173.89830508474577,22.316000000000003C174.91525423728814,22.559333333333335,175.93220338983053,22.913,176.9491525423729,23.182000000000002C177.96610169491527,23.451,178.98305084745763,23.6905,180,23.93L180,40C178.98305084745763,40,177.96610169491527,40,176.9491525423729,40C175.93220338983053,40,174.91525423728814,40,173.89830508474577,40C172.8813559322034,40,171.864406779661,40,170.84745762711864,40C169.83050847457628,40,168.81355932203388,40,167.79661016949152,40C166.77966101694915,40,165.76271186440678,40,164.74576271186442,40C163.72881355932205,40,162.71186440677965,40,161.6949152542373,40C160.67796610169492,40,159.66101694915253,40,158.64406779661016,40C157.6271186440678,40,156.61016949152543,40,155.59322033898306,40C154.5762711864407,40,153.5593220338983,40,152.54237288135593,40C151.52542372881356,40,150.50847457627117,40,149.4915254237288,40C148.47457627118644,40,147.45762711864407,40,146.4406779661017,40C145.42372881355934,40,144.40677966101694,40,143.38983050847457,40C142.3728813559322,40,141.35593220338984,40,140.33898305084747,40C139.3220338983051,40,138.3050847457627,40,137.28813559322035,40C136.27118644067798,40,135.25423728813558,40,134.23728813559322,40C133.22033898305085,40,132.20338983050846,40,131.1864406779661,40C130.16949152542372,40,129.15254237288136,40,128.135593220339,40C127.11864406779662,40,126.10169491525424,40,125.08474576271188,40C124.0677966101695,40,123.05084745762711,40,122.03389830508473,40C121.01694915254237,40,120,40,118.98305084745763,40C117.96610169491525,40,116.94915254237289,40,115.9322033898305,40C114.91525423728814,40,113.89830508474576,40,112.88135593220339,40C111.86440677966102,40,110.84745762711864,40,109.83050847457628,40C108.8135593220339,40,107.79661016949153,40,106.77966101694915,40C105.76271186440678,40,104.7457627118644,40,103.72881355932203,40C102.71186440677965,40,101.69491525423729,40,100.6779661016949,40C99.66101694915254,40,98.64406779661016,40,97.62711864406779,40C96.61016949152543,40,95.59322033898306,40,94.57627118644069,40C93.55932203389831,40,92.54237288135593,40,91.52542372881355,40C90.50847457627118,40,89.49152542372882,40,88.47457627118645,40C87.45762711864407,40,86.4406779661017,40,85.42372881355932,40C84.40677966101696,40,83.38983050847457,40,82.37288135593221,40C81.35593220338983,40,80.33898305084746,40,79.32203389830508,40C78.30508474576271,40,77.28813559322033,40,76.27118644067797,40C75.2542372881356,40,74.23728813559322,40,73.22033898305085,40C72.20338983050848,40,71.1864406779661,40,70.16949152542374,40C69.15254237288136,40,68.13559322033899,40,67.11864406779661,40C66.10169491525424,40,65.08474576271186,40,64.0677966101695,40C63.05084745762712,40,62.03389830508474,40,61.01694915254237,40C59.99999999999999,40,58.983050847457626,40,57.96610169491525,40C56.94915254237288,40,55.93220338983051,40,54.91525423728814,40C53.898305084745765,40,52.88135593220339,40,51.86440677966102,40C50.847457627118644,40,49.83050847457627,40,48.813559322033896,40C47.79661016949152,40,46.77966101694915,40,45.762711864406775,40C44.7457627118644,40,43.728813559322035,40,42.71186440677966,40C41.69491525423729,40,40.67796610169491,40,39.66101694915254,40C38.644067796610166,40,37.6271186440678,40,36.610169491525426,40C35.59322033898305,40,34.57627118644068,40,33.559322033898304,40C32.54237288135593,40,31.525423728813557,40,30.508474576271183,40C29.491525423728813,40,28.47457627118644,40,27.45762711864407,40C26.440677966101696,40,25.423728813559322,40,24.406779661016948,40C23.389830508474574,40,22.372881355932204,40,21.35593220338983,40C20.338983050847457,40,19.322033898305087,40,18.305084745762713,40C17.28813559322034,40,16.271186440677965,40,15.254237288135592,40C14.23728813559322,40,13.220338983050846,40,12.203389830508474,40C11.186440677966102,40,10.169491525423728,40,9.152542372881356,40C8.135593220338983,40,7.11864406779661,40,6.101694915254237,40C5.084745762711864,40,4.067796610169491,40,3.0508474576271185,40C2.0338983050847457,40,1.0169491525423728,40,0,40Z"></path><path class="line" stroke="black" fill="none" d="M0,36.334C1.0169491525423728,36.161500000000004,2.0338983050847457,35.989000000000004,3.0508474576271185,35.802C4.067796610169491,35.614999999999995,5.084745762711864,35.40833333333333,6.101694915254237,35.211999999999996C7.11864406779661,35.01566666666666,8.135593220338983,34.82366666666667,9.152542372881356,34.624C10.169491525423728,34.42433333333334,11.186440677966102,34.21133333333333,12.203389830508474,34.013999999999996C13.220338983050846,33.81666666666666,14.23728813559322,33.608666666666664,15.254237288135592,33.44C16.271186440677965,33.27133333333333,17.28813559322034,33.002,18.305084745762713,33.002C19.322033898305087,33.002,20.338983050847457,33.046,21.35593220338983,33.046C22.372881355932204,33.046,23.389830508474574,32.35066666666667,24.406779661016948,31.948C25.423728813559322,31.545333333333332,26.440677966101696,31.063999999999997,27.45762711864407,30.629999999999995C28.47457627118644,30.195999999999994,29.491525423728813,29.758,30.508474576271183,29.344C31.525423728813557,28.930000000000003,32.54237288135593,28.508000000000003,33.559322033898304,28.146C34.57627118644068,27.784,35.59322033898305,27.450666666666667,36.610169491525426,27.172C37.6271186440678,26.893333333333334,38.644067796610166,26.895000000000003,39.66101694915254,26.474000000000004C40.67796610169491,26.053000000000004,41.69491525423729,25.036666666666672,42.71186440677966,24.646C43.728813559322035,24.25533333333333,44.7457627118644,24.244666666666664,45.762711864406775,24.059999999999995C46.77966101694915,23.875333333333327,47.79661016949152,23.725666666666662,48.813559322033896,23.537999999999997C49.83050847457627,23.35033333333333,50.847457627118644,23.110333333333333,51.86440677966102,22.934C52.88135593220339,22.75766666666667,53.898305084745765,22.636000000000006,54.91525423728814,22.480000000000004C55.93220338983051,22.324000000000005,56.94915254237288,21.997999999999998,57.96610169491525,21.997999999999998C58.983050847457626,21.997999999999998,59.99999999999999,21.997999999999998,61.01694915254237,21.997999999999998C62.03389830508474,21.997999999999998,63.05084745762712,21.741666666666664,64.0677966101695,21.586C65.08474576271186,21.430333333333333,66.10169491525424,21.118666666666666,67.11864406779661,21.064C68.13559322033899,21.009333333333334,69.15254237288136,20.982000000000003,70.16949152542374,20.982000000000003C71.1864406779661,20.982000000000003,72.20338983050848,20.994,73.22033898305085,20.994C74.23728813559322,20.994,75.2542372881356,20.849666666666668,76.27118644067797,20.792C77.28813559322033,20.734333333333336,78.30508474576271,20.705666666666666,79.32203389830508,20.648C80.33898305084746,20.590333333333334,81.35593220338983,20.492666666666665,82.37288135593221,20.445999999999998C83.38983050847457,20.39933333333333,84.40677966101696,20.419999999999998,85.42372881355932,20.368C86.4406779661017,20.316,87.45762711864407,19.736333333333334,88.47457627118645,19.46C89.49152542372882,19.18366666666667,90.50847457627118,18.71,91.52542372881355,18.71C92.54237288135593,18.71,93.55932203389831,19.293999999999997,94.57627118644069,19.293999999999997C95.59322033898306,19.293999999999997,96.61016949152543,19.276999999999997,97.62711864406779,19.252C98.64406779661016,19.227,99.66101694915254,19.203,100.6779661016949,19.144000000000002C101.69491525423729,19.085,102.71186440677965,18.898000000000003,103.72881355932203,18.898000000000003C104.7457627118644,18.898000000000003,105.76271186440678,19.03033333333333,106.77966101694915,19.089999999999996C107.79661016949153,19.14966666666666,108.8135593220339,19.256,109.83050847457628,19.256C110.84745762711864,19.256,111.86440677966102,18.865666666666666,112.88135593220339,18.25C113.89830508474576,17.634333333333334,114.91525423728814,16.349666666666668,115.9322033898305,15.562000000000001C116.94915254237289,14.774333333333331,117.96610169491525,14.123666666666667,118.98305084745763,13.523999999999997C120,12.924333333333335,121.01694915254237,12.285333333333332,122.03389830508473,11.964000000000002C123.05084745762711,11.642666666666669,124.0677966101695,11.736333333333336,125.08474576271188,11.482000000000001C126.10169491525424,11.227666666666668,127.11864406779662,10.722000000000001,128.135593220339,10.438C129.15254237288136,10.154000000000002,130.16949152542372,9.777999999999999,131.1864406779661,9.777999999999999C132.20338983050846,9.777999999999999,133.22033898305085,9.921333333333331,134.23728813559322,10.207999999999998C135.25423728813558,10.494666666666665,136.27118644067798,11.054666666666668,137.28813559322035,11.568000000000001C138.3050847457627,12.081333333333335,139.3220338983051,12.749333333333333,140.33898305084747,13.288000000000002C141.35593220338984,13.826666666666666,142.3728813559322,14.417000000000002,143.38983050847457,14.8C144.40677966101694,15.183000000000003,145.42372881355934,15.320666666666668,146.4406779661017,15.586000000000002C147.45762711864407,15.851333333333335,148.47457627118644,16.08633333333334,149.4915254237288,16.392000000000003C150.50847457627117,16.69766666666667,151.52542372881356,17.071,152.54237288135593,17.42C153.5593220338983,17.769000000000002,154.5762711864407,18.157999999999994,155.59322033898306,18.485999999999997C156.61016949152543,18.813999999999997,157.6271186440678,19.105666666666668,158.64406779661016,19.388C159.66101694915253,19.670333333333335,160.67796610169492,19.960333333333335,161.6949152542373,20.18C162.71186440677965,20.399666666666665,163.72881355932205,20.549666666666663,164.74576271186442,20.705999999999996C165.76271186440678,20.86233333333333,166.77966101694915,20.94866666666666,167.79661016949152,21.117999999999995C168.81355932203388,21.28733333333333,169.83050847457628,21.522333333333332,170.84745762711864,21.722C171.864406779661,21.92166666666667,172.8813559322034,22.07266666666667,173.89830508474577,22.316000000000003C174.91525423728814,22.559333333333335,175.93220338983053,22.913,176.9491525423729,23.182000000000002C177.96610169491527,23.451,178.98305084745763,23.6905,180,23.93"></path><path class="axis-ceiling" stroke-width="1" stroke="black" fill="none" d="M175,0L180,0"></path><text class="axis-ceiling-label" font-family="sans-serif" text-anchor="end" font-size="10px" x="170" y="2.5">20000</text></g></svg>