<svg xmlns="http://www.w3.org/2000/svg" viewBox="0 0 180 60"><g transform="translate(0,20)"><path class="area" fill="rgba(0, 0, 0, 0.2)" d="M0,25.333333333333332C1.0169491525423728,25.691111111111113,2.0338983050847457,26.04888888888889,3.0508474576271185,26.373333333333335C4.067796610169491,26.69777777777778,5.084745762711864,26.955555555555552,6.101694915254237,27.279999999999998C7.11864406779661,27.604444444444443,8.135593220338983,28.022222222222222,9.152542372881356,28.32C10.169491525423728,28.61777777777778,11.186440677966102,28.857777777777777,12.203389830508474,29.066666666666666C13.220338983050846,29.275555555555556,14.23728813559322,29.368888888888893,15.254237288135592,29.573333333333338C16.271186440677965,29.777777777777782,17.28813559322034,29.968888888888888,18.305084745762713,30.293333333333333C19.322033898305087,30.61777777777778,20.338983050847457,31.195555555555558,21.35593220338983,31.520000000000003C22.372881355932204,31.84444444444445,23.389830508474574,32.06666666666667,24.406779661016948,32.24C25.423728813559322,32.413333333333334,26.440677966101696,32.471111111111114,27.45762711864407,32.56C28.47457627118644,32.64888888888889,29.491525423728813,32.724444444444444,30.508474576271183,32.77333333333333C31.525423728813557,32.82222222222222,32.54237288135593,32.85333333333333,33.559322033898304,32.85333333333333C34.57627118644068,32.85333333333333,35.59322033898305,32.81333333333334,36.610169491525426,32.800000000000004C37.6271186440678,32.78666666666667,38.644067796610166,32.77333333333333,39.66101694915254,32.77333333333333C40.67796610169491,32.77333333333333,41.69491525423729,32.85333333333333,42.71186440677966,32.85333333333333C43.728813559322035,32.85333333333333,44.7457627118644,32.82666666666667,45.762711864406775,32.82666666666667C46.77966101694915,32.82666666666667,47.79661016949152,33.08444444444444,48.813559322033896,33.22666666666667C49.83050847457627,33.36888888888889,50.847457627118644,33.53333333333333,51.86440677966102,33.68C52.88135593220339,33.82666666666667,53.898305084745765,33.98222222222223,54.91525423728814,34.10666666666667C55.93220338983051,34.23111111111111,56.94915254237288,34.29333333333334,57.96610169491525,34.42666666666667C58.983050847457626,34.56,59.99999999999999,34.76444444444444,61.01694915254237,34.906666666666666C62.03389830508474,35.04888888888889,63.05084745762712,35.12888888888889,64.0677966101695,35.28C65.08474576271186,35.431111111111115,66.10169491525424,35.67111111111111,67.11864406779661,35.81333333333333C68.13559322033899,35.955555555555556,69.15254237288136,36.05777777777778,70.16949152542374,36.13333333333333C71.1864406779661,36.208888888888886,72.20338983050848,36.266666666666666,73.22033898305085,36.266666666666666C74.23728813559322,36.266666666666666,75.2542372881356,36.151111111111106,76.27118644067797,36.13333333333333C77.28813559322033,36.11555555555556,78.30508474576271,36.12444444444444,79.32203389830508,36.10666666666667C80.33898305084746,36.088888888888896,81.35593220338983,36.080000000000005,82.37288135593221,36.02666666666667C83.38983050847457,35.973333333333336,84.40677966101696,35.76888888888889,85.42372881355932,35.733333333333334C86.4406779661017,35.69777777777778,87.45762711864407,35.715555555555554,88.47457627118645,35.68C89.49152542372882,35.644444444444446,90.50847457627118,35.50666666666667,91.52542372881355,35.413333333333334C92.54237288135593,35.32,93.55932203389831,35.17333333333333,94.57627118644069,35.12C95.59322033898306,35.06666666666666,96.61016949152543,35.093333333333334,97.62711864406779,35.04C98.64406779661016,34.986666666666665,99.66101694915254,34.879999999999995,100.6779661016949,34.8C101.69491525423729,34.72,102.71186440677965,34.61333333333334,103.72881355932203,34.56C104.7457627118644,34.50666666666667,105.76271186440678,34.53333333333333,106.77966101694915,34.48C107.79661016949153,34.42666666666666,108.8135593220339,34.288888888888884,109.83050847457628,34.21333333333333C110.84745762711864,34.13777777777778,111.86440677966102,34.071111111111115,112.88135593220339,34.02666666666667C113.89830508474576,33.98222222222223,114.91525423728814,34,115.9322033898305,33.946666666666665C116.94915254237289,33.89333333333333,117.96610169491525,33.65333333333333,118.98305084745763,33.65333333333333C120,33.65333333333333,121.01694915254237,33.70666666666666,122.03389830508473,33.70666666666666C123.05084745762711,33.70666666666666,124.0677966101695,33.46222222222222,125.08474576271188,33.306666666666665C126.10169491525424,33.15111111111111,127.11864406779662,33.04,128.135593220339,32.77333333333333C129.15254237288136,32.50666666666667,130.16949152542372,31.813333333333325,131.1864406779661,31.706666666666663C132.20338983050846,31.599999999999998,133.22033898305085,31.604444444444443,134.23728813559322,31.546666666666667C135.25423728813558,31.48888888888889,136.27118644067798,31.484444444444446,137.28813559322035,31.36C138.3050847457627,31.235555555555553,139.3220338983051,30.871111111111112,140.33898305084747,30.586666666666666C141.35593220338984,30.302222222222223,142.3728813559322,30,143.38983050847457,29.653333333333336C144.40677966101694,29.30666666666667,145.42372881355934,29.031111111111116,146.4406779661017,28.506666666666668C147.45762711864407,27.982222222222223,148.47457627118644,27.07111111111111,149.4915254237288,26.506666666666668C150.50847457627117,25.94222222222222,151.52542372881356,25.724444444444444,152.54237288135593,25.12C153.5593220338983,24.515555555555558,154.5762711864407,23.72444444444445,155.59322033898306,22.880000000000003C156.61016949152543,22.03555555555556,157.6271186440678,20.76,158.64406779661016,20.053333333333335C159.66101694915253,19.34666666666666,160.67796610169492,19.01777777777778,161.6949152542373,18.64C162.71186440677965,18.26222222222222,163.72881355932205,18.173333333333336,164.74576271186442,17.786666666666665C165.76271186440678,17.4,166.77966101694915,16.839999999999996,167.79661016949152,16.32C168.81355932203388,15.799999999999999,169.83050847457628,15.213333333333335,170.84745762711864,14.666666666666668C171.864406779661,14.120000000000001,172.8813559322034,13.657777777777778,173.89830508474577,13.04C174.91525423728814,12.42222222222222,175.93220338983053,10.96,176.9491525423729,10.96C177.96610169491527,10.96,178.98305084745763,12.88,180,14.8L180,40C178.98305084745763,40,177.96610169491527,40,176.9491525423729,40C175.93220338983053,40,174.91525423728814,40,173.89830508474577,40C172.8813559322034,40,171.864406779661,40,170.84745762711864,40C169.83050847457628,40,168.81355932203388,40,167.79661016949152,40C166.77966101694915,40,165.76271186440678,40,164.74576271186442,40C163.72881355932205,40,162.71186440677965,40,161.6949152542373,40C160.67796610169492,40,159.66101694915253,40,158.64406779661016,40C157.6271186440678,40,156.61016949152543,40,155.59322033898306,40C154.5762711864407,40,153.5593220338983,40,152.54237288135593,40C151.52542372881356,40,150.50847457627117,40,149.4915254237288,40C148.47457627118644,40,147.45762711864407,40,146.4406779661017,40C145.42372881355934,40,144.40677966101694,40,143.38983050847457,40C142.3728813559322,40,141.35593220338984,40,140.33898305084747,40C139.3220338983051,40,138.3050847457627,40,137.28813559322035,40C136.27118644067798,40,135.25423728813558,40,134.23728813559322,40C133.22033898305085,40,132.20338983050846,40,131.1864406779661,40C130.16949152542372,40,129.15254237288136,40,128.135593220339,40C127.11864406779662,40,126.10169491525424,40,125.08474576271188,40C124.0677966101695,40,123.05084745762711,40,122.03389830508473,40C121.01694915254237,40,120,40,118.98305084745763,40C117.96610169491525,40,116.94915254237289,40,115.9322033898305,40C114.91525423728814,40,113.89830508474576,40,112.88135593220339,40C111.86440677966102,40,110.84745762711864,40,109.83050847457628,40C108.8135593220339,40,107.79661016949153,40,106.77966101694915,40C105.76271186440678,40,104.7457627118644,40,103.72881355932203,40C102.71186440677965,40,101.69491525423729,40,100.6779661016949,40C99.66101694915254,40,98.64406779661016,40,97.62711864406779,40C96.61016949152543,40,95.59322033898306,40,94.57627118644069,40C93.55932203389831,40,92.54237288135593,40,91.52542372881355,40C90.50847457627118,40,89.49152542372882,40,88.47457627118645,40C87.45762711864407,40,86.4406779661017,40,85.42372881355932,40C84.40677966101696,40,83.38983050847457,40,82.37288135593221,40C81.35593220338983,40,80.33898305084746,40,79.32203389830508,40C78.30508474576271,40,77.28813559322033,40,76.27118644067797,40C75.2542372881356,40,74.23728813559322,40,73.22033898305085,40C72.20338983050848,40,71.1864406779661,40,70.16949152542374,40C69.15254237288136,40,68.13559322033899,40,67.11864406779661,40C66.10169491525424,40,65.08474576271186,40,64.0677966101695,40C63.05084745762712,40,62.03389830508474,40,61.01694915254237,40C59.99999999999999,40,58.983050847457626,40,57.96610169491525,40C56.94915254237288,40,55.93220338983051,40,54.91525423728814,40C53.898305084745765,40,52.88135593220339,40,51.86440677966102,40C50.847457627118644,40,49.83050847457627,40,48.813559322033896,40C47.79661016949152,40,46.77966101694915,40,45.762711864406775,40C44.7457627118644,40,43.728813559322035,40,42.71186440677966,40C41.69491525423729,40,40.67796610169491,40,39.66101694915254,40C38.644067796610166,40,37.6271186440678,40,36.610169491525426,40C35.59322033898305,40,34.57627118644068,40,33.559322033898304,40C32.54237288135593,40,31.525423728813557,40,30.508474576271183,40C29.491525423728813,40,28.47457627118644,40,27.45762711864407,40C26.440677966101696,40,25.423728813559322,40,24.406779661016948,40C23.389830508474574,40,22.372881355932204,40,21.35593220338983,40C20.338983050847457,40,19.322033898305087,40,18.305084745762713,40C17.28813559322034,40,16.271186440677965,40,15.254237288135592,40C14.23728813559322,40,13.220338983050846,40,12.203389830508474,40C11.186440677966102,40,10.169491525423728,40,9.152542372881356,40C8.135593220338983,40,7.11864406779661,40,6.101694915254237,40C5.084745762711864,40,4.067796610169491,40,3.0508474576271185,40C2.0338983050847457,40,1.0169491525423728,40,0,40Z"></path><path class="line" stroke="black" fill="none" d="M0,25.333333333333332C1.0169491525423728,25.691111111111113,2.0338983050847457,26.04888888888889,3.0508474576271185,26.373333333333335C4.067796610169491,26.69777777777778,5.084745762711864,26.955555555555552,6.101694915254237,27.279999999999998C7.11864406779661,27.604444444444443,8.135593220338983,28.022222222222222,9.152542372881356,28.32C10.169491525423728,28.61777777777778,11.186440677966102,28.857777777777777,12.203389830508474,29.066666666666666C13.220338983050846,29.275555555555556,14.23728813559322,29.368888888888893,15.254237288135592,29.573333333333338C16.271186440677965,29.777777777777782,17.28813559322034,29.968888888888888,18.305084745762713,30.293333333333333C19.322033898305087,30.61777777777778,20.338983050847457,31.195555555555558,21.35593220338983,31.520000000000003C22.372881355932204,31.84444444444445,23.389830508474574,32.06666666666667,24.406779661016948,32.24C25.423728813559322,32.413333333333334,26.440677966101696,32.471111111111114,27.45762711864407,32.56C28.47457627118644,32.64888888888889,29.491525423728813,32.724444444444444,30.508474576271183,32.77333333333333C31.525423728813557,32.82222222222222,32.54237288135593,32.85333333333333,33.559322033898304,32.85333333333333C34.57627118644068,32.85333333333333,35.59322033898305,32.81333333333334,36.610169491525426,32.800000000000004C37.6271186440678,32.78666666666667,38.644067796610166,32.77333333333333,39.66101694915254,32.77333333333333C40.67796610169491,32.77333333333333,41.69491525423729,32.85333333333333,42.71186440677966,32.85333333333333C43.728813559322035,32.85333333333333,44.7457627118644,32.82666666666667,45.762711864406775,32.82666666666667C46.77966101694915,32.82666666666667,47.79661016949152,33.08444444444444,48.813559322033896,33.22666666666667C49.83050847457627,33.36888888888889,50.847457627118644,33.53333333333333,51.86440677966102,33.68C52.88135593220339,33.82666666666667,53.898305084745765,33.98222222222223,54.91525423728814,34.10666666666667C55.93220338983051,34.23111111111111,56.94915254237288,34.29333333333334,57.96610169491525,34.42666666666667C58.983050847457626,34.56,59.99999999999999,34.76444444444444,61.01694915254237,34.906666666666666C62.03389830508474,35.04888888888889,63.05084745762712,35.12888888888889,64.0677966101695,35.28C65.08474576271186,35.431111111111115,66.10169491525424,35.67111111111111,67.11864406779661,35.81333333333333C68.13559322033899,35.955555555555556,69.15254237288136,36.05777777777778,70.16949152542374,36.13333333333333C71.1864406779661,36.208888888888886,72.20338983050848,36.266666666666666,73.22033898305085,36.266666666666666C74.23728813559322,36.266666666666666,75.2542372881356,36.151111111111106,76.27118644067797,36.13333333333333C77.28813559322033,36.11555555555556,78.30508474576271,36.12444444444444,79.32203389830508,36.10666666666667C80.33898305084746,36.088888888888896,81.35593220338983,36.080000000000005,82.37288135593221,36.02666666666667C83.38983050847457,35.973333333333336,84.40677966101696,35.76888888888889,85.42372881355932,35.733333333333334C86.4406779661017,35.69777777777778,87.45762711864407,35.715555555555554,88.47457627118645,35.68C89.49152542372882,35.644444444444446,90.50847457627118,35.50666666666667,91.52542372881355,35.413333333333334C92.54237288135593,35.32,93.55932203389831,35.17333333333333,94.57627118644069,35.12C95.59322033898306,35.06666666666666,96.61016949152543,35.093333333333334,97.62711864406779,35.04C98.64406779661016,34.986666666666665,99.66101694915254,34.879999999999995,100.6779661016949,34.8C101.69491525423729,34.72,102.71186440677965,34.61333333333334,103.72881355932203,34.56C104.7457627118644,34.50666666666667,105.76271186440678,34.53333333333333,106.77966101694915,34.48C107.79661016949153,34.42666666666666,108.8135593220339,34.288888888888884,109.83050847457628,34.21333333333333C110.84745762711864,34.13777777777778,111.86440677966102,34.071111111111115,112.88135593220339,34.02666666666667C113.89830508474576,33.98222222222223,114.91525423728814,34,115.9322033898305,33.946666666666665C116.94915254237289,33.89333333333333,117.96610169491525,33.65333333333333,118.98305084745763,33.65333333333333C120,33.65333333333333,121.01694915254237,33.70666666666666,122.03389830508473,33.70666666666666C123.05084745762711,33.70666666666666,124.0677966101695,33.46222222222222,125.08474576271188,33.306666666666665C126.10169491525424,33.15111111111111,127.11864406779662,33.04,128.135593220339,32.77333333333333C129.15254237288136,32.50666666666667,130.16949152542372,31.813333333333325,131.1864406779661,31.706666666666663C132.20338983050846,31.599999999999998,133.22033898305085,31.604444444444443,134.23728813559322,31.546666666666667C135.25423728813558,31.48888888888889,136.27118644067798,31.484444444444446,137.28813559322035,31.36C138.3050847457627,31.235555555555553,139.3220338983051,30.871111111111112,140.33898305084747,30.586666666666666C141.35593220338984,30.302222222222223,142.3728813559322,30,143.38983050847457,29.653333333333336C144.40677966101694,29.30666666666667,145.42372881355934,29.031111111111116,146.4406779661017,28.506666666666668C147.45762711864407,27.982222222222223,148.47457627118644,27.07111111111111,149.4915254237288,26.506666666666668C150.50847457627117,25.94222222222222,151.52542372881356,25.724444444444444,152.54237288135593,25.12C153.5593220338983,24.515555555555558,154.5762711864407,23.72444444444445,155.59322033898306,22.880000000000003C156.61016949152543,22.03555555555556,157.6271186440678,20.76,158.64406779661016,20.053333333333335C159.66101694915253,19.34666666666666,160.67796610169492,19.01777777777778,161.6949152542373,18.64C162.71186440677965,18.26222222222222,163.72881355932205,18.173333333333336,164.74576271186442,17.786666666666665C165.76271186440678,17.4,166.77966101694915,16.839999999999996,167.79661016949152,16.32C168.81355932203388,15.799999999999999,169.83050847457628,15.213333333333335,170.84745762711864,14.666666666666668C171.864406779661,14.120000000000001,172.8813559322034,13.657777777777778,173.89830508474577,13.04C174.91525423728814,12.42222222222222,175.93220338983053,10.96,176.9491525423729,10.96C177.96610169491527,10.96,178.98305084745763,12.88,180,14.8"></path><path class="axis-ceiling" stroke-width="1" stroke="black" fill="none" d="M175,0L180,0"></path><text class="axis-ceiling-label" font-family="sans-serif" text-anchor="end" font-size="10px" x="170" y="2.5">1500</text></g></svg>