<svg xmlns="http://www.w3.org/2000/svg" viewBox="0 0 180 60"><g transform="translate(0,20)"><path class="area" fill="rgba(0, 0, 0, 0.2)" d="M0,26.128C1.0344827586206897,27.631999999999998,2.068965517241379,29.136,3.103448275862069,30.016C4.137931034482759,30.895999999999997,5.172413793103448,31.408,6.206896551724138,31.408C7.241379310344827,31.408,8.275862068965516,28.92,9.310344827586206,27.776C10.344827586206897,26.631999999999998,11.379310344827585,24.543999999999997,12.413793103448276,24.543999999999997C13.448275862068966,24.543999999999997,14.482758620689655,25.776,15.517241379310345,25.776C16.551724137931036,25.776,17.586206896551722,24.224,18.620689655172413,24.224C19.655172413793103,24.224,20.689655172413794,24.65866666666666,21.724137931034484,25.263999999999996C22.758620689655174,25.86933333333333,23.79310344827586,27.312000000000005,24.82758620689655,27.856C25.862068965517242,28.400000000000002,26.896551724137932,28.672,27.931034482758623,28.672C28.965517241379313,28.672,30,27.874666666666666,31.03448275862069,27.04C32.06896551724138,26.205333333333332,33.103448275862064,23.664,34.137931034482754,23.664C35.172413793103445,23.664,36.206896551724135,23.808,37.241379310344826,23.808C38.275862068965516,23.808,39.310344827586206,23.247999999999998,40.3448275862069,23.247999999999998C41.37931034482759,23.247999999999998,42.41379310344828,23.98933333333333,43.44827586206897,24.128C44.48275862068966,24.26666666666667,45.51724137931035,24.197333333333333,46.55172413793104,24.336000000000002C47.58620689655173,24.47466666666667,48.62068965517241,30.032,49.6551724137931,30.032C50.689655172413794,30.032,51.72413793103448,28.54133333333333,52.75862068965517,27.328000000000003C53.79310344827586,26.11466666666667,54.827586206896555,23.637333333333334,55.862068965517246,22.752C56.896551724137936,21.866666666666667,57.93103448275862,21.424000000000003,58.96551724137931,21.424000000000003C60,21.424000000000003,61.03448275862069,21.823999999999998,62.06896551724138,21.823999999999998C63.10344827586207,21.823999999999998,64.13793103448276,21.008,65.17241379310344,21.008C66.20689655172413,21.008,67.24137931034483,23.632,68.27586206896551,24.768C69.3103448275862,25.904000000000003,70.34482758620689,27.823999999999998,71.37931034482759,27.823999999999998C72.41379310344827,27.823999999999998,73.44827586206897,25.89333333333333,74.48275862068965,24.528C75.51724137931033,23.162666666666667,76.55172413793103,21.210666666666665,77.58620689655172,19.632C78.62068965517241,18.05333333333333,79.6551724137931,15.055999999999997,80.6896551724138,15.055999999999997C81.72413793103448,15.055999999999997,82.75862068965517,16.816,83.79310344827586,16.816C84.82758620689656,16.816,85.86206896551724,13.52,86.89655172413794,13.52C87.93103448275862,13.52,88.96551724137932,17.36266666666667,90,19.232C91.0344827586207,21.101333333333336,92.06896551724138,24.736000000000004,93.10344827586208,24.736000000000004C94.13793103448276,24.736000000000004,95.17241379310344,19.91733333333333,96.20689655172413,18C97.24137931034483,16.082666666666654,98.27586206896551,14.469333333333333,99.3103448275862,13.232C100.3448275862069,11.994666666666665,101.37931034482759,10.575999999999999,102.41379310344828,10.575999999999999C103.44827586206897,10.575999999999999,104.48275862068965,14.544,105.51724137931033,14.544C106.55172413793103,14.544,107.58620689655172,11.648,108.62068965517241,11.648C109.65517241379311,11.648,110.6896551724138,13.802666666666656,111.72413793103449,15.983999999999998C112.75862068965517,18.16533333333333,113.79310344827587,24.736000000000004,114.82758620689656,24.736000000000004C115.86206896551724,24.736000000000004,116.89655172413794,16.535999999999998,117.93103448275862,14.127999999999998C118.96551724137932,11.719999999999986,120,11.312000000000001,121.0344827586207,10.288C122.06896551724138,9.264000000000005,123.10344827586208,7.984,124.13793103448276,7.984C125.17241379310344,7.984,126.20689655172414,14.399999999999999,127.24137931034483,14.399999999999999C128.27586206896552,14.399999999999999,129.3103448275862,9.322666666666667,130.3448275862069,9.152000000000001C131.3793103448276,8.981333333333334,132.41379310344828,8.896,133.44827586206898,8.896C134.48275862068965,8.896,135.51724137931035,13.66666666666667,136.55172413793102,15.2C137.58620689655172,16.733333333333356,138.6206896551724,17.424,139.6551724137931,18.096C140.6896551724138,18.767999999999994,141.72413793103448,19.232,142.75862068965517,19.232C143.79310344827587,19.232,144.82758620689654,19.152,145.86206896551724,18.992C146.89655172413794,18.832,147.9310344827586,14.471999999999987,148.9655172413793,11.936C150,9.39999999999999,151.0344827586207,3.7760000000000016,152.0689655172414,3.7760000000000016C153.10344827586206,3.7760000000000016,154.13793103448276,4.586666666666668,155.17241379310343,6.208C156.20689655172413,7.829333333333362,157.24137931034483,16.96,158.27586206896552,16.96C159.31034482758622,16.96,160.3448275862069,11.608,161.3793103448276,9.808C162.41379310344828,8.008,163.44827586206895,6.917333333333334,164.48275862068965,6.160000000000001C165.51724137931035,5.4026666666666685,166.55172413793102,5.024000000000002,167.58620689655172,5.024000000000002C168.6206896551724,5.024000000000002,169.6551724137931,7.6506666666666625,170.6896551724138,8.687999999999999C171.7241379310345,9.725333333333326,172.75862068965517,9.930666666666667,173.79310344827587,11.248000000000001C174.82758620689657,12.565333333333335,175.86206896551724,14.858666666666666,176.89655172413794,16.592C177.93103448275863,18.325333333333333,178.9655172413793,19.986666666666665,180,21.648L180,40C178.9655172413793,40,177.93103448275863,40,176.89655172413794,40C175.86206896551724,40,174.82758620689657,40,173.79310344827587,40C172.75862068965517,40,171.7241379310345,40,170.6896551724138,40C169.6551724137931,40,168.6206896551724,40,167.58620689655172,40C166.55172413793102,40,165.51724137931035,40,164.48275862068965,40C163.44827586206895,40,162.41379310344828,40,161.3793103448276,40C160.3448275862069,40,159.31034482758622,40,158.27586206896552,40C157.24137931034483,40,156.20689655172413,40,155.17241379310343,40C154.13793103448276,40,153.10344827586206,40,152.0689655172414,40C151.0344827586207,40,150,40,148.9655172413793,40C147.9310344827586,40,146.89655172413794,40,145.86206896551724,40C144.82758620689654,40,143.79310344827587,40,142.75862068965517,40C141.72413793103448,40,140.6896551724138,40,139.6551724137931,40C138.6206896551724,40,137.58620689655172,40,136.55172413793102,40C135.51724137931035,40,134.48275862068965,40,133.44827586206898,40C132.41379310344828,40,131.3793103448276,40,130.3448275862069,40C129.3103448275862,40,128.27586206896552,40,127.24137931034483,40C126.20689655172414,40,125.17241379310344,40,124.13793103448276,40C123.10344827586208,40,122.06896551724138,40,121.0344827586207,40C120,40,118.96551724137932,40,117.93103448275862,40C116.89655172413794,40,115.86206896551724,40,114.82758620689656,40C113.79310344827587,40,112.75862068965517,40,111.72413793103449,40C110.6896551724138,40,109.65517241379311,40,108.62068965517241,40C107.58620689655172,40,106.55172413793103,40,105.51724137931033,40C104.48275862068965,40,103.44827586206897,40,102.41379310344828,40C101.37931034482759,40,100.3448275862069,40,99.3103448275862,40C98.27586206896551,40,97.24137931034483,40,96.20689655172413,40C95.17241379310344,40,94.13793103448276,40,93.10344827586208,40C92.06896551724138,40,91.0344827586207,40,90,40C88.96551724137932,40,87.93103448275862,40,86.89655172413794,40C85.86206896551724,40,84.82758620689656,40,83.79310344827586,40C82.75862068965517,40,81.72413793103448,40,80.6896551724138,40C79.6551724137931,40,78.62068965517241,40,77.58620689655172,40C76.55172413793103,40,75.51724137931033,40,74.48275862068965,40C73.44827586206897,40,72.41379310344827,40,71.37931034482759,40C70.34482758620689,40,69.3103448275862,40,68.27586206896551,40C67.24137931034483,40,66.20689655172413,40,65.17241379310344,40C64.13793103448276,40,63.10344827586207,40,62.06896551724138,40C61.03448275862069,40,60,40,58.96551724137931,40C57.93103448275862,40,56.896551724137936,40,55.862068965517246,40C54.827586206896555,40,53.79310344827586,40,52.75862068965517,40C51.72413793103448,40,50.689655172413794,40,49.6551724137931,40C48.62068965517241,40,47.58620689655173,40,46.55172413793104,40C45.51724137931035,40,44.48275862068966,40,43.44827586206897,40C42.41379310344828,40,41.37931034482759,40,40.3448275862069,40C39.310344827586206,40,38.275862068965516,40,37.241379310344826,40C36.206896551724135,40,35.172413793103445,40,34.137931034482754,40C33.103448275862064,40,32.06896551724138,40,31.03448275862069,40C30,40,28.965517241379313,40,27.931034482758623,40C26.896551724137932,40,25.862068965517242,40,24.82758620689655,40C23.79310344827586,40,22.758620689655174,40,21.724137931034484,40C20.689655172413794,40,19.655172413793103,40,18.620689655172413,40C17.586206896551722,40,16.551724137931036,40,15.517241379310345,40C14.482758620689655,40,13.448275862068966,40,12.413793103448276,40C11.379310344827585,40,10.344827586206897,40,9.310344827586206,40C8.275862068965516,40,7.241379310344827,40,6.206896551724138,40C5.172413793103448,40,4.137931034482759,40,3.103448275862069,40C2.068965517241379,40,1.0344827586206897,40,0,40Z"></path><path class="line" stroke="black" fill="none" d="M0,26.128C1.0344827586206897,27.631999999999998,2.068965517241379,29.136,3.103448275862069,30.016C4.137931034482759,30.895999999999997,5.172413793103448,31.408,6.206896551724138,31.408C7.241379310344827,31.408,8.275862068965516,28.92,9.310344827586206,27.776C10.344827586206897,26.631999999999998,11.379310344827585,24.543999999999997,12.413793103448276,24.543999999999997C13.448275862068966,24.543999999999997,14.482758620689655,25.776,15.517241379310345,25.776C16.551724137931036,25.776,17.586206896551722,24.224,18.620689655172413,24.224C19.655172413793103,24.224,20.689655172413794,24.65866666666666,21.724137931034484,25.263999999999996C22.758620689655174,25.86933333333333,23.79310344827586,27.312000000000005,24.82758620689655,27.856C25.862068965517242,28.400000000000002,26.896551724137932,28.672,27.931034482758623,28.672C28.965517241379313,28.672,30,27.874666666666666,31.03448275862069,27.04C32.06896551724138,26.205333333333332,33.103448275862064,23.664,34.137931034482754,23.664C35.172413793103445,23.664,36.206896551724135,23.808,37.241379310344826,23.808C38.275862068965516,23.808,39.310344827586206,23.247999999999998,40.3448275862069,23.247999999999998C41.37931034482759,23.247999999999998,42.41379310344828,23.98933333333333,43.44827586206897,24.128C44.48275862068966,24.26666666666667,45.51724137931035,24.197333333333333,46.55172413793104,24.336000000000002C47.58620689655173,24.47466666666667,48.62068965517241,30.032,49.6551724137931,30.032C50.689655172413794,30.032,51.72413793103448,28.54133333333333,52.75862068965517,27.328000000000003C53.79310344827586,26.11466666666667,54.827586206896555,23.637333333333334,55.862068965517246,22.752C56.896551724137936,21.866666666666667,57.93103448275862,21.424000000000003,58.96551724137931,21.424000000000003C60,21.424000000000003,61.03448275862069,21.823999999999998,62.06896551724138,21.823999999999998C63.10344827586207,21.823999999999998,64.13793103448276,21.008,65.17241379310344,21.008C66.20689655172413,21.008,67.24137931034483,23.632,68.27586206896551,24.768C69.3103448275862,25.904000000000003,70.34482758620689,27.823999999999998,71.37931034482759,27.823999999999998C72.41379310344827,27.823999999999998,73.44827586206897,25.89333333333333,74.48275862068965,24.528C75.51724137931033,23.162666666666667,76.55172413793103,21.210666666666665,77.58620689655172,19.632C78.62068965517241,18.05333333333333,79.6551724137931,15.055999999999997,80.6896551724138,15.055999999999997C81.72413793103448,15.055999999999997,82.75862068965517,16.816,83.79310344827586,16.816C84.82758620689656,16.816,85.86206896551724,13.52,86.89655172413794,13.52C87.93103448275862,13.52,88.96551724137932,17.36266666666667,90,19.232C91.0344827586207,21.101333333333336,92.06896551724138,24.736000000000004,93.10344827586208,24.736000000000004C94.13793103448276,24.736000000000004,95.17241379310344,19.91733333333333,96.20689655172413,18C97.24137931034483,16.082666666666654,98.27586206896551,14.469333333333333,99.3103448275862,13.232C100.3448275862069,11.994666666666665,101.37931034482759,10.575999999999999,102.41379310344828,10.575999999999999C103.44827586206897,10.575999999999999,104.48275862068965,14.544,105.51724137931033,14.544C106.55172413793103,14.544,107.58620689655172,11.648,108.62068965517241,11.648C109.65517241379311,11.648,110.6896551724138,13.802666666666656,111.72413793103449,15.983999999999998C112.75862068965517,18.16533333333333,113.79310344827587,24.736000000000004,114.82758620689656,24.736000000000004C115.86206896551724,24.736000000000004,116.89655172413794,16.535999999999998,117.93103448275862,14.127999999999998C118.96551724137932,11.719999999999986,120,11.312000000000001,121.0344827586207,10.288C122.06896551724138,9.264000000000005,123.10344827586208,7.984,124.13793103448276,7.984C125.17241379310344,7.984,126.20689655172414,14.399999999999999,127.24137931034483,14.399999999999999C128.27586206896552,14.399999999999999,129.3103448275862,9.322666666666667,130.3448275862069,9.152000000000001C131.3793103448276,8.981333333333334,132.41379310344828,8.896,133.44827586206898,8.896C134.48275862068965,8.896,135.51724137931035,13.66666666666667,136.55172413793102,15.2C137.58620689655172,16.733333333333356,138.6206896551724,17.424,139.6551724137931,18.096C140.6896551724138,18.767999999999994,141.72413793103448,19.232,142.75862068965517,19.232C143.79310344827587,19.232,144.82758620689654,19.152,145.86206896551724,18.992C146.89655172413794,18.832,147.9310344827586,14.471999999999987,148.9655172413793,11.936C150,9.39999999999999,151.0344827586207,3.7760000000000016,152.0689655172414,3.7760000000000016C153.10344827586206,3.7760000000000016,154.13793103448276,4.586666666666668,155.17241379310343,6.208C156.20689655172413,7.829333333333362,157.24137931034483,16.96,158.27586206896552,16.96C159.31034482758622,16.96,160.3448275862069,11.608,161.3793103448276,9.808C162.41379310344828,8.008,163.44827586206895,6.917333333333334,164.48275862068965,6.160000000000001C165.51724137931035,5.4026666666666685,166.55172413793102,5.024000000000002,167.58620689655172,5.024000000000002C168.6206896551724,5.024000000000002,169.6551724137931,7.6506666666666625,170.6896551724138,8.687999999999999C171.7241379310345,9.725333333333326,172.75862068965517,9.930666666666667,173.79310344827587,11.248000000000001C174.82758620689657,12.565333333333335,175.86206896551724,14.858666666666666,176.89655172413794,16.592C177.93103448275863,18.325333333333333,178.9655172413793,19.986666666666665,180,21.648"></path><path class="axis-ceiling" stroke-width="1" stroke="black" fill="none" d="M175,0L180,0"></path><text class="axis-ceiling-label" font-family="sans-serif" text-anchor="end" font-size="10px" x="170" y="2.5">2500</text></g></svg>