<svg xmlns="http://www.w3.org/2000/svg" viewBox="0 0 180 60"><g transform="translate(0,20)"><path class="area" fill="rgba(0, 0, 0, 0.2)" d="M0,21.240000000000002C1.0344827586206897,25.650000000000002,2.068965517241379,30.060000000000002,3.103448275862069,30.060000000000002C4.137931034482759,30.060000000000002,5.172413793103448,10.819999999999999,6.206896551724138,10.819999999999999C7.241379310344827,10.819999999999999,8.275862068965516,11.633333333333336,9.310344827586206,12.480000000000002C10.344827586206897,13.326666666666668,11.379310344827585,14.963333333333333,12.413793103448276,15.899999999999999C13.448275862068966,16.836666666666666,14.482758620689655,16.633333333333333,15.517241379310345,18.1C16.551724137931036,19.56666666666667,17.586206896551722,30.04,18.620689655172413,30.04C19.655172413793103,30.04,20.689655172413794,21.7,21.724137931034484,21.7C22.758620689655174,21.7,23.79310344827586,31.879999999999995,24.82758620689655,31.879999999999995C25.862068965517242,31.879999999999995,26.896551724137932,17.62,27.931034482758623,17.62C28.965517241379313,17.62,30,27.22666666666667,31.03448275862069,27.400000000000002C32.06896551724138,27.573333333333334,33.103448275862064,27.6,34.137931034482754,27.66C35.172413793103445,27.72,36.206896551724135,27.759999999999998,37.241379310344826,27.759999999999998C38.275862068965516,27.759999999999998,39.310344827586206,9.820000000000002,40.3448275862069,9.820000000000002C41.37931034482759,9.820000000000002,42.41379310344828,10.846666666666668,43.44827586206897,12.9C44.48275862068966,14.953333333333333,45.51724137931035,23.28,46.55172413793104,23.28C47.58620689655173,23.28,48.62068965517241,7.98,49.6551724137931,7.98C50.689655172413794,7.98,51.72413793103448,11.546666666666667,52.75862068965517,12.66C53.79310344827586,13.773333333333339,54.827586206896555,13.889999999999999,55.862068965517246,14.660000000000002C56.896551724137936,15.430000000000001,57.93103448275862,17.28,58.96551724137931,17.28C60,17.28,61.03448275862069,16.419999999999998,62.06896551724138,16.419999999999998C63.10344827586207,16.419999999999998,64.13793103448276,16.799999999999997,65.17241379310344,17.56C66.20689655172413,18.32,67.24137931034483,27.720000000000002,68.27586206896551,27.720000000000002C69.3103448275862,27.720000000000002,70.34482758620689,11.946666666666669,71.37931034482759,11.840000000000002C72.41379310344827,11.733333333333334,73.44827586206897,11.680000000000001,74.48275862068965,11.680000000000001C75.51724137931033,11.680000000000001,76.55172413793103,12.723333333333334,77.58620689655172,13.439999999999998C78.62068965517241,14.156666666666665,79.6551724137931,15.31333333333333,80.6896551724138,15.979999999999999C81.72413793103448,16.646666666666665,82.75862068965517,16.466666666666665,83.79310344827586,17.44C84.82758620689656,18.41333333333334,85.86206896551724,20.203333333333322,86.89655172413794,22.199999999999996C87.93103448275862,24.19666666666666,88.96551724137932,29.42,90,29.42C91.0344827586207,29.42,92.06896551724138,13.420000000000002,93.10344827586208,13.420000000000002C94.13793103448276,13.420000000000002,95.17241379310344,17.30666666666667,96.20689655172413,18.54C97.24137931034483,19.77333333333334,98.27586206896551,20.076666666666668,99.3103448275862,20.82C100.3448275862069,21.563333333333333,101.37931034482759,22.533333333333328,102.41379310344828,23C103.44827586206897,23.46666666666667,104.48275862068965,23.233333333333334,105.51724137931033,23.700000000000003C106.55172413793103,24.166666666666675,107.58620689655172,27.09666666666667,108.62068965517241,28.680000000000003C109.65517241379311,30.263333333333335,110.6896551724138,33.199999999999996,111.72413793103449,33.199999999999996C112.75862068965517,33.199999999999996,113.79310344827587,22.14,114.82758620689656,22.14C115.86206896551724,22.14,116.89655172413794,24.73333333333333,117.93103448275862,25.08C118.96551724137932,25.426666666666666,120,25.6,121.0344827586207,25.6C122.06896551724138,25.6,123.10344827586208,24.8,124.13793103448276,24.8C125.17241379310344,24.8,126.20689655172414,25.799999999999997,127.24137931034483,26.479999999999997C128.27586206896552,27.159999999999997,129.3103448275862,27.680000000000007,130.3448275862069,28.88C131.3793103448276,30.080000000000002,132.41379310344828,33.68,133.44827586206898,33.68C134.48275862068965,33.68,135.51724137931035,23.72,136.55172413793102,23.72C137.58620689655172,23.72,138.6206896551724,27.599999999999998,139.6551724137931,27.599999999999998C140.6896551724138,27.599999999999998,141.72413793103448,27.539999999999996,142.75862068965517,27.519999999999996C143.79310344827587,27.499999999999996,144.82758620689654,27.480000000000004,145.86206896551724,27.480000000000004C146.89655172413794,27.480000000000004,147.9310344827586,27.653333333333336,148.9655172413793,28C150,28.346666666666668,151.0344827586207,29.503333333333316,152.0689655172414,30.68C153.10344827586206,31.856666666666662,154.13793103448276,35.06,155.17241379310343,35.06C156.20689655172413,35.06,157.24137931034483,26,158.27586206896552,26C159.31034482758622,26,160.3448275862069,27.630000000000003,161.3793103448276,28.1C162.41379310344828,28.57,163.44827586206895,28.629999999999995,164.48275862068965,28.819999999999997C165.51724137931035,29.009999999999998,166.55172413793102,29.03333333333333,167.58620689655172,29.24C168.6206896551724,29.446666666666665,169.6551724137931,29.810000000000002,170.6896551724138,30.060000000000002C171.7241379310345,30.310000000000002,172.75862068965517,30.28666666666667,173.79310344827587,30.74C174.82758620689657,31.193333333333328,175.86206896551724,34.76,176.89655172413794,34.76C177.93103448275863,34.76,178.9655172413793,29.919999999999998,180,25.08L180,40C178.9655172413793,40,177.93103448275863,40,176.89655172413794,40C175.86206896551724,40,174.82758620689657,40,173.79310344827587,40C172.75862068965517,40,171.7241379310345,40,170.6896551724138,40C169.6551724137931,40,168.6206896551724,40,167.58620689655172,40C166.55172413793102,40,165.51724137931035,40,164.48275862068965,40C163.44827586206895,40,162.41379310344828,40,161.3793103448276,40C160.3448275862069,40,159.31034482758622,40,158.27586206896552,40C157.24137931034483,40,156.20689655172413,40,155.17241379310343,40C154.13793103448276,40,153.10344827586206,40,152.0689655172414,40C151.0344827586207,40,150,40,148.9655172413793,40C147.9310344827586,40,146.89655172413794,40,145.86206896551724,40C144.82758620689654,40,143.79310344827587,40,142.75862068965517,40C141.72413793103448,40,140.6896551724138,40,139.6551724137931,40C138.6206896551724,40,137.58620689655172,40,136.55172413793102,40C135.51724137931035,40,134.48275862068965,40,133.44827586206898,40C132.41379310344828,40,131.3793103448276,40,130.3448275862069,40C129.3103448275862,40,128.27586206896552,40,127.24137931034483,40C126.20689655172414,40,125.17241379310344,40,124.13793103448276,40C123.10344827586208,40,122.06896551724138,40,121.0344827586207,40C120,40,118.96551724137932,40,117.93103448275862,40C116.89655172413794,40,115.86206896551724,40,114.82758620689656,40C113.79310344827587,40,112.75862068965517,40,111.72413793103449,40C110.6896551724138,40,109.65517241379311,40,108.62068965517241,40C107.58620689655172,40,106.55172413793103,40,105.51724137931033,40C104.48275862068965,40,103.44827586206897,40,102.41379310344828,40C101.37931034482759,40,100.3448275862069,40,99.3103448275862,40C98.27586206896551,40,97.24137931034483,40,96.20689655172413,40C95.17241379310344,40,94.13793103448276,40,93.10344827586208,40C92.06896551724138,40,91.0344827586207,40,90,40C88.96551724137932,40,87.93103448275862,40,86.89655172413794,40C85.86206896551724,40,84.82758620689656,40,83.79310344827586,40C82.75862068965517,40,81.72413793103448,40,80.6896551724138,40C79.6551724137931,40,78.62068965517241,40,77.58620689655172,40C76.55172413793103,40,75.51724137931033,40,74.48275862068965,40C73.44827586206897,40,72.41379310344827,40,71.37931034482759,40C70.34482758620689,40,69.3103448275862,40,68.27586206896551,40C67.24137931034483,40,66.20689655172413,40,65.17241379310344,40C64.13793103448276,40,63.10344827586207,40,62.06896551724138,40C61.03448275862069,40,60,40,58.96551724137931,40C57.93103448275862,40,56.896551724137936,40,55.862068965517246,40C54.827586206896555,40,53.79310344827586,40,52.75862068965517,40C51.72413793103448,40,50.689655172413794,40,49.6551724137931,40C48.62068965517241,40,47.58620689655173,40,46.55172413793104,40C45.51724137931035,40,44.48275862068966,40,43.44827586206897,40C42.41379310344828,40,41.37931034482759,40,40.3448275862069,40C39.310344827586206,40,38.275862068965516,40,37.241379310344826,40C36.206896551724135,40,35.172413793103445,40,34.137931034482754,40C33.103448275862064,40,32.06896551724138,40,31.03448275862069,40C30,40,28.965517241379313,40,27.931034482758623,40C26.896551724137932,40,25.862068965517242,40,24.82758620689655,40C23.79310344827586,40,22.758620689655174,40,21.724137931034484,40C20.689655172413794,40,19.655172413793103,40,18.620689655172413,40C17.586206896551722,40,16.551724137931036,40,15.517241379310345,40C14.482758620689655,40,13.448275862068966,40,12.413793103448276,40C11.379310344827585,40,10.344827586206897,40,9.310344827586206,40C8.275862068965516,40,7.241379310344827,40,6.206896551724138,40C5.172413793103448,40,4.137931034482759,40,3.103448275862069,40C2.068965517241379,40,1.0344827586206897,40,0,40Z"></path><path class="line" stroke="black" fill="none" d="M0,21.240000000000002C1.0344827586206897,25.650000000000002,2.068965517241379,30.060000000000002,3.103448275862069,30.060000000000002C4.137931034482759,30.060000000000002,5.172413793103448,10.819999999999999,6.206896551724138,10.819999999999999C7.241379310344827,10.819999999999999,8.275862068965516,11.633333333333336,9.310344827586206,12.480000000000002C10.344827586206897,13.326666666666668,11.379310344827585,14.963333333333333,12.413793103448276,15.899999999999999C13.448275862068966,16.836666666666666,14.482758620689655,16.633333333333333,15.517241379310345,18.1C16.551724137931036,19.56666666666667,17.586206896551722,30.04,18.620689655172413,30.04C19.655172413793103,30.04,20.689655172413794,21.7,21.724137931034484,21.7C22.758620689655174,21.7,23.79310344827586,31.879999999999995,24.82758620689655,31.879999999999995C25.862068965517242,31.879999999999995,26.896551724137932,17.62,27.931034482758623,17.62C28.965517241379313,17.62,30,27.22666666666667,31.03448275862069,27.400000000000002C32.06896551724138,27.573333333333334,33.103448275862064,27.6,34.137931034482754,27.66C35.172413793103445,27.72,36.206896551724135,27.759999999999998,37.241379310344826,27.759999999999998C38.275862068965516,27.759999999999998,39.310344827586206,9.820000000000002,40.3448275862069,9.820000000000002C41.37931034482759,9.820000000000002,42.41379310344828,10.846666666666668,43.44827586206897,12.9C44.48275862068966,14.953333333333333,45.51724137931035,23.28,46.55172413793104,23.28C47.58620689655173,23.28,48.62068965517241,7.98,49.6551724137931,7.98C50.689655172413794,7.98,51.72413793103448,11.546666666666667,52.75862068965517,12.66C53.79310344827586,13.773333333333339,54.827586206896555,13.889999999999999,55.862068965517246,14.660000000000002C56.896551724137936,15.430000000000001,57.93103448275862,17.28,58.96551724137931,17.28C60,17.28,61.03448275862069,16.419999999999998,62.06896551724138,16.419999999999998C63.10344827586207,16.419999999999998,64.13793103448276,16.799999999999997,65.17241379310344,17.56C66.20689655172413,18.32,67.24137931034483,27.720000000000002,68.27586206896551,27.720000000000002C69.3103448275862,27.720000000000002,70.34482758620689,11.946666666666669,71.37931034482759,11.840000000000002C72.41379310344827,11.733333333333334,73.44827586206897,11.680000000000001,74.48275862068965,11.680000000000001C75.51724137931033,11.680000000000001,76.55172413793103,12.723333333333334,77.58620689655172,13.439999999999998C78.62068965517241,14.156666666666665,79.6551724137931,15.31333333333333,80.6896551724138,15.979999999999999C81.72413793103448,16.646666666666665,82.75862068965517,16.466666666666665,83.79310344827586,17.44C84.82758620689656,18.41333333333334,85.86206896551724,20.203333333333322,86.89655172413794,22.199999999999996C87.93103448275862,24.19666666666666,88.96551724137932,29.42,90,29.42C91.0344827586207,29.42,92.06896551724138,13.420000000000002,93.10344827586208,13.420000000000002C94.13793103448276,13.420000000000002,95.17241379310344,17.30666666666667,96.20689655172413,18.54C97.24137931034483,19.77333333333334,98.27586206896551,20.076666666666668,99.3103448275862,20.82C100.3448275862069,21.563333333333333,101.37931034482759,22.533333333333328,102.41379310344828,23C103.44827586206897,23.46666666666667,104.48275862068965,23.233333333333334,105.51724137931033,23.700000000000003C106.55172413793103,24.166666666666675,107.58620689655172,27.09666666666667,108.62068965517241,28.680000000000003C109.65517241379311,30.263333333333335,110.6896551724138,33.199999999999996,111.72413793103449,33.199999999999996C112.75862068965517,33.199999999999996,113.79310344827587,22.14,114.82758620689656,22.14C115.86206896551724,22.14,116.89655172413794,24.73333333333333,117.93103448275862,25.08C118.96551724137932,25.426666666666666,120,25.6,121.0344827586207,25.6C122.06896551724138,25.6,123.10344827586208,24.8,124.13793103448276,24.8C125.17241379310344,24.8,126.20689655172414,25.799999999999997,127.24137931034483,26.479999999999997C128.27586206896552,27.159999999999997,129.3103448275862,27.680000000000007,130.3448275862069,28.88C131.3793103448276,30.080000000000002,132.41379310344828,33.68,133.44827586206898,33.68C134.48275862068965,33.68,135.51724137931035,23.72,136.55172413793102,23.72C137.58620689655172,23.72,138.6206896551724,27.599999999999998,139.6551724137931,27.599999999999998C140.6896551724138,27.599999999999998,141.72413793103448,27.539999999999996,142.75862068965517,27.519999999999996C143.79310344827587,27.499999999999996,144.82758620689654,27.480000000000004,145.86206896551724,27.480000000000004C146.89655172413794,27.480000000000004,147.9310344827586,27.653333333333336,148.9655172413793,28C150,28.346666666666668,151.0344827586207,29.503333333333316,152.0689655172414,30.68C153.10344827586206,31.856666666666662,154.13793103448276,35.06,155.17241379310343,35.06C156.20689655172413,35.06,157.24137931034483,26,158.27586206896552,26C159.31034482758622,26,160.3448275862069,27.630000000000003,161.3793103448276,28.1C162.41379310344828,28.57,163.44827586206895,28.629999999999995,164.48275862068965,28.819999999999997C165.51724137931035,29.009999999999998,166.55172413793102,29.03333333333333,167.58620689655172,29.24C168.6206896551724,29.446666666666665,169.6551724137931,29.810000000000002,170.6896551724138,30.060000000000002C171.7241379310345,30.310000000000002,172.75862068965517,30.28666666666667,173.79310344827587,30.74C174.82758620689657,31.193333333333328,175.86206896551724,34.76,176.89655172413794,34.76C177.93103448275863,34.76,178.9655172413793,29.919999999999998,180,25.08"></path><path class="axis-ceiling" stroke-width="1" stroke="black" fill="none" d="M175,0L180,0"></path><text class="axis-ceiling-label" font-family="sans-serif" text-anchor="end" font-size="10px" x="170" y="2.5">2000</text></g></svg>