<svg xmlns="http://www.w3.org/2000/svg" viewBox="0 0 180 60"><g transform="translate(0,20)"><path class="area" fill="rgba(0, 0, 0, 0.2)" d="M0,29.2C1.0169491525423728,29.333333333333332,2.0338983050847457,29.46666666666667,3.0508474576271185,29.6C4.067796610169491,29.733333333333334,5.084745762711864,29.733333333333334,6.101694915254237,30C7.11864406779661,30.266666666666666,8.135593220338983,31.200000000000003,9.152542372881356,31.200000000000003C10.169491525423728,31.200000000000003,11.186440677966102,31.200000000000003,12.203389830508474,31.200000000000003C13.220338983050846,31.200000000000003,14.23728813559322,31.6,15.254237288135592,31.6C16.271186440677965,31.6,17.28813559322034,31.333333333333336,18.305084745762713,31.200000000000003C19.322033898305087,31.06666666666667,20.338983050847457,30.933333333333334,21.35593220338983,30.8C22.372881355932204,30.666666666666668,23.389830508474574,30.53333333333333,24.406779661016948,30.4C25.423728813559322,30.266666666666666,26.440677966101696,30.266666666666666,27.45762711864407,30C28.47457627118644,29.733333333333334,29.491525423728813,28.93333333333333,30.508474576271183,28.4C31.525423728813557,27.866666666666664,32.54237288135593,27.199999999999996,33.559322033898304,26.799999999999997C34.57627118644068,26.4,35.59322033898305,26.266666666666666,36.610169491525426,26C37.6271186440678,25.733333333333334,38.644067796610166,25.466666666666665,39.66101694915254,25.2C40.67796610169491,24.933333333333334,41.69491525423729,24.799999999999997,42.71186440677966,24.4C43.728813559322035,24,44.7457627118644,23.200000000000003,45.762711864406775,22.800000000000004C46.77966101694915,22.400000000000002,47.79661016949152,22.2,48.813559322033896,22C49.83050847457627,21.8,50.847457627118644,21.8,51.86440677966102,21.6C52.88135593220339,21.400000000000002,53.898305084745765,21.26666666666667,54.91525423728814,20.8C55.93220338983051,20.333333333333332,56.94915254237288,18.799999999999997,57.96610169491525,18.799999999999997C58.983050847457626,18.799999999999997,59.99999999999999,18.799999999999997,61.01694915254237,18.799999999999997C62.03389830508474,18.799999999999997,63.05084745762712,19.333333333333332,64.0677966101695,19.6C65.08474576271186,19.866666666666667,66.10169491525424,20.133333333333333,67.11864406779661,20.4C68.13559322033899,20.666666666666668,69.15254237288136,21.200000000000003,70.16949152542374,21.200000000000003C71.1864406779661,21.200000000000003,72.20338983050848,20.8,73.22033898305085,20.8C74.23728813559322,20.8,75.2542372881356,20.8,76.27118644067797,20.8C77.28813559322033,20.8,78.30508474576271,21.333333333333336,79.32203389830508,21.6C80.33898305084746,21.86666666666667,81.35593220338983,22.400000000000002,82.37288135593221,22.400000000000002C83.38983050847457,22.400000000000002,84.40677966101696,22.266666666666666,85.42372881355932,22C86.4406779661017,21.733333333333334,87.45762711864407,20.8,88.47457627118645,20.8C89.49152542372882,20.8,90.50847457627118,20.8,91.52542372881355,20.8C92.54237288135593,20.8,93.55932203389831,20.8,94.57627118644069,20.8C95.59322033898306,20.8,96.61016949152543,20.53333333333333,97.62711864406779,20.4C98.64406779661016,20.266666666666666,99.66101694915254,20.133333333333333,100.6779661016949,20C101.69491525423729,19.866666666666667,102.71186440677965,19.6,103.72881355932203,19.6C104.7457627118644,19.6,105.76271186440678,19.6,106.77966101694915,19.6C107.79661016949153,19.6,108.8135593220339,19.6,109.83050847457628,19.6C110.84745762711864,19.6,111.86440677966102,20,112.88135593220339,20C113.89830508474576,20,114.91525423728814,20,115.9322033898305,20C116.94915254237289,20,117.96610169491525,20.6,118.98305084745763,20.8C120,21,121.01694915254237,21.200000000000003,122.03389830508473,21.200000000000003C123.05084745762711,21.200000000000003,124.0677966101695,21.200000000000003,125.08474576271188,21.200000000000003C126.10169491525424,21.200000000000003,127.11864406779662,21.200000000000003,128.135593220339,21.200000000000003C129.15254237288136,21.200000000000003,130.16949152542372,21.6,131.1864406779661,21.6C132.20338983050846,21.6,133.22033898305085,20.8,134.23728813559322,20.8C135.25423728813558,20.8,136.27118644067798,20.8,137.28813559322035,20.8C138.3050847457627,20.8,139.3220338983051,20.400000000000002,140.33898305084747,20C141.35593220338984,19.6,142.3728813559322,18.4,143.38983050847457,18.4C144.40677966101694,18.4,145.42372881355934,18.4,146.4406779661017,18.4C147.45762711864407,18.4,148.47457627118644,17.799999999999997,149.4915254237288,17.599999999999998C150.50847457627117,17.4,151.52542372881356,17.466666666666665,152.54237288135593,17.200000000000003C153.5593220338983,16.93333333333334,154.5762711864407,16.266666666666673,155.59322033898306,15.600000000000001C156.61016949152543,14.933333333333335,157.6271186440678,13.2,158.64406779661016,13.2C159.66101694915253,13.2,160.67796610169492,13.2,161.6949152542373,13.2C162.71186440677965,13.2,163.72881355932205,12.600000000000001,164.74576271186442,12.400000000000002C165.76271186440678,12.200000000000005,166.77966101694915,12.26666666666667,167.79661016949152,12.000000000000002C168.81355932203388,11.733333333333333,169.83050847457628,10.8,170.84745762711864,10.4C171.864406779661,10,172.8813559322034,9.6,173.89830508474577,9.6C174.91525423728814,9.6,175.93220338983053,9.6,176.9491525423729,9.6C177.96610169491527,9.6,178.98305084745763,11.599999999999998,180,13.599999999999998L180,40C178.98305084745763,40,177.96610169491527,40,176.9491525423729,40C175.93220338983053,40,174.91525423728814,40,173.89830508474577,40C172.8813559322034,40,171.864406779661,40,170.84745762711864,40C169.83050847457628,40,168.81355932203388,40,167.79661016949152,40C166.77966101694915,40,165.76271186440678,40,164.74576271186442,40C163.72881355932205,40,162.71186440677965,40,161.6949152542373,40C160.67796610169492,40,159.66101694915253,40,158.64406779661016,40C157.6271186440678,40,156.61016949152543,40,155.59322033898306,40C154.5762711864407,40,153.5593220338983,40,152.54237288135593,40C151.52542372881356,40,150.50847457627117,40,149.4915254237288,40C148.47457627118644,40,147.45762711864407,40,146.4406779661017,40C145.42372881355934,40,144.40677966101694,40,143.38983050847457,40C142.3728813559322,40,141.35593220338984,40,140.33898305084747,40C139.3220338983051,40,138.3050847457627,40,137.28813559322035,40C136.27118644067798,40,135.25423728813558,40,134.23728813559322,40C133.22033898305085,40,132.20338983050846,40,131.1864406779661,40C130.16949152542372,40,129.15254237288136,40,128.135593220339,40C127.11864406779662,40,126.10169491525424,40,125.08474576271188,40C124.0677966101695,40,123.05084745762711,40,122.03389830508473,40C121.01694915254237,40,120,40,118.98305084745763,40C117.96610169491525,40,116.94915254237289,40,115.9322033898305,40C114.91525423728814,40,113.89830508474576,40,112.88135593220339,40C111.86440677966102,40,110.84745762711864,40,109.83050847457628,40C108.8135593220339,40,107.79661016949153,40,106.77966101694915,40C105.76271186440678,40,104.7457627118644,40,103.72881355932203,40C102.71186440677965,40,101.69491525423729,40,100.6779661016949,40C99.66101694915254,40,98.64406779661016,40,97.62711864406779,40C96.61016949152543,40,95.59322033898306,40,94.57627118644069,40C93.55932203389831,40,92.54237288135593,40,91.52542372881355,40C90.50847457627118,40,89.49152542372882,40,88.47457627118645,40C87.45762711864407,40,86.4406779661017,40,85.42372881355932,40C84.40677966101696,40,83.38983050847457,40,82.37288135593221,40C81.35593220338983,40,80.33898305084746,40,79.32203389830508,40C78.30508474576271,40,77.28813559322033,40,76.27118644067797,40C75.2542372881356,40,74.23728813559322,40,73.22033898305085,40C72.20338983050848,40,71.1864406779661,40,70.16949152542374,40C69.15254237288136,40,68.13559322033899,40,67.11864406779661,40C66.10169491525424,40,65.08474576271186,40,64.0677966101695,40C63.05084745762712,40,62.03389830508474,40,61.01694915254237,40C59.99999999999999,40,58.983050847457626,40,57.96610169491525,40C56.94915254237288,40,55.93220338983051,40,54.91525423728814,40C53.898305084745765,40,52.88135593220339,40,51.86440677966102,40C50.847457627118644,40,49.83050847457627,40,48.813559322033896,40C47.79661016949152,40,46.77966101694915,40,45.762711864406775,40C44.7457627118644,40,43.728813559322035,40,42.71186440677966,40C41.69491525423729,40,40.67796610169491,40,39.66101694915254,40C38.644067796610166,40,37.6271186440678,40,36.610169491525426,40C35.59322033898305,40,34.57627118644068,40,33.559322033898304,40C32.54237288135593,40,31.525423728813557,40,30.508474576271183,40C29.491525423728813,40,28.47457627118644,40,27.45762711864407,40C26.440677966101696,40,25.423728813559322,40,24.406779661016948,40C23.389830508474574,40,22.372881355932204,40,21.35593220338983,40C20.338983050847457,40,19.322033898305087,40,18.305084745762713,40C17.28813559322034,40,16.271186440677965,40,15.254237288135592,40C14.23728813559322,40,13.220338983050846,40,12.203389830508474,40C11.186440677966102,40,10.169491525423728,40,9.152542372881356,40C8.135593220338983,40,7.11864406779661,40,6.101694915254237,40C5.084745762711864,40,4.067796610169491,40,3.0508474576271185,40C2.0338983050847457,40,1.0169491525423728,40,0,40Z"></path><path class="line" stroke="black" fill="none" d="M0,29.2C1.0169491525423728,29.333333333333332,2.0338983050847457,29.46666666666667,3.0508474576271185,29.6C4.067796610169491,29.733333333333334,5.084745762711864,29.733333333333334,6.101694915254237,30C7.11864406779661,30.266666666666666,8.135593220338983,31.200000000000003,9.152542372881356,31.200000000000003C10.169491525423728,31.200000000000003,11.186440677966102,31.200000000000003,12.203389830508474,31.200000000000003C13.220338983050846,31.200000000000003,14.23728813559322,31.6,15.254237288135592,31.6C16.271186440677965,31.6,17.28813559322034,31.333333333333336,18.305084745762713,31.200000000000003C19.322033898305087,31.06666666666667,20.338983050847457,30.933333333333334,21.35593220338983,30.8C22.372881355932204,30.666666666666668,23.389830508474574,30.53333333333333,24.406779661016948,30.4C25.423728813559322,30.266666666666666,26.440677966101696,30.266666666666666,27.45762711864407,30C28.47457627118644,29.733333333333334,29.491525423728813,28.93333333333333,30.508474576271183,28.4C31.525423728813557,27.866666666666664,32.54237288135593,27.199999999999996,33.559322033898304,26.799999999999997C34.57627118644068,26.4,35.59322033898305,26.266666666666666,36.610169491525426,26C37.6271186440678,25.733333333333334,38.644067796610166,25.466666666666665,39.66101694915254,25.2C40.67796610169491,24.933333333333334,41.69491525423729,24.799999999999997,42.71186440677966,24.4C43.728813559322035,24,44.7457627118644,23.200000000000003,45.762711864406775,22.800000000000004C46.77966101694915,22.400000000000002,47.79661016949152,22.2,48.813559322033896,22C49.83050847457627,21.8,50.847457627118644,21.8,51.86440677966102,21.6C52.88135593220339,21.400000000000002,53.898305084745765,21.26666666666667,54.91525423728814,20.8C55.93220338983051,20.333333333333332,56.94915254237288,18.799999999999997,57.96610169491525,18.799999999999997C58.983050847457626,18.799999999999997,59.99999999999999,18.799999999999997,61.01694915254237,18.799999999999997C62.03389830508474,18.799999999999997,63.05084745762712,19.333333333333332,64.0677966101695,19.6C65.08474576271186,19.866666666666667,66.10169491525424,20.133333333333333,67.11864406779661,20.4C68.13559322033899,20.666666666666668,69.15254237288136,21.200000000000003,70.16949152542374,21.200000000000003C71.1864406779661,21.200000000000003,72.20338983050848,20.8,73.22033898305085,20.8C74.23728813559322,20.8,75.2542372881356,20.8,76.27118644067797,20.8C77.28813559322033,20.8,78.30508474576271,21.333333333333336,79.32203389830508,21.6C80.33898305084746,21.86666666666667,81.35593220338983,22.400000000000002,82.37288135593221,22.400000000000002C83.38983050847457,22.400000000000002,84.40677966101696,22.266666666666666,85.42372881355932,22C86.4406779661017,21.733333333333334,87.45762711864407,20.8,88.47457627118645,20.8C89.49152542372882,20.8,90.50847457627118,20.8,91.52542372881355,20.8C92.54237288135593,20.8,93.55932203389831,20.8,94.57627118644069,20.8C95.59322033898306,20.8,96.61016949152543,20.53333333333333,97.62711864406779,20.4C98.64406779661016,20.266666666666666,99.66101694915254,20.133333333333333,100.6779661016949,20C101.69491525423729,19.866666666666667,102.71186440677965,19.6,103.72881355932203,19.6C104.7457627118644,19.6,105.76271186440678,19.6,106.77966101694915,19.6C107.79661016949153,19.6,108.8135593220339,19.6,109.83050847457628,19.6C110.84745762711864,19.6,111.86440677966102,20,112.88135593220339,20C113.89830508474576,20,114.91525423728814,20,115.9322033898305,20C116.94915254237289,20,117.96610169491525,20.6,118.98305084745763,20.8C120,21,121.01694915254237,21.200000000000003,122.03389830508473,21.200000000000003C123.05084745762711,21.200000000000003,124.0677966101695,21.200000000000003,125.08474576271188,21.200000000000003C126.10169491525424,21.200000000000003,127.11864406779662,21.200000000000003,128.135593220339,21.200000000000003C129.15254237288136,21.200000000000003,130.16949152542372,21.6,131.1864406779661,21.6C132.20338983050846,21.6,133.22033898305085,20.8,134.23728813559322,20.8C135.25423728813558,20.8,136.27118644067798,20.8,137.28813559322035,20.8C138.3050847457627,20.8,139.3220338983051,20.400000000000002,140.33898305084747,20C141.35593220338984,19.6,142.3728813559322,18.4,143.38983050847457,18.4C144.40677966101694,18.4,145.42372881355934,18.4,146.4406779661017,18.4C147.45762711864407,18.4,148.47457627118644,17.799999999999997,149.4915254237288,17.599999999999998C150.50847457627117,17.4,151.52542372881356,17.466666666666665,152.54237288135593,17.200000000000003C153.5593220338983,16.93333333333334,154.5762711864407,16.266666666666673,155.59322033898306,15.600000000000001C156.61016949152543,14.933333333333335,157.6271186440678,13.2,158.64406779661016,13.2C159.66101694915253,13.2,160.67796610169492,13.2,161.6949152542373,13.2C162.71186440677965,13.2,163.72881355932205,12.600000000000001,164.74576271186442,12.400000000000002C165.76271186440678,12.200000000000005,166.77966101694915,12.26666666666667,167.79661016949152,12.000000000000002C168.81355932203388,11.733333333333333,169.83050847457628,10.8,170.84745762711864,10.4C171.864406779661,10,172.8813559322034,9.6,173.89830508474577,9.6C174.91525423728814,9.6,175.93220338983053,9.6,176.9491525423729,9.6C177.96610169491527,9.6,178.98305084745763,11.599999999999998,180,13.599999999999998"></path><path class="axis-ceiling" stroke-width="1" stroke="black" fill="none" d="M175,0L180,0"></path><text class="axis-ceiling-label" font-family="sans-serif" text-anchor="end" font-size="10px" x="170" y="2.5">100</text></g></svg>