<svg xmlns="http://www.w3.org/2000/svg" viewBox="0 0 180 60"><g transform="translate(0,20)"><path class="area" fill="rgba(0, 0, 0, 0.2)" d="M0,39.92C1.0169491525423728,39.861111111111114,2.0338983050847457,39.80222222222223,3.0508474576271185,39.74666666666667C4.067796610169491,39.69111111111111,5.084745762711864,39.586666666666666,6.101694915254237,39.586666666666666C7.11864406779661,39.586666666666666,8.135593220338983,39.8,9.152542372881356,39.8C10.169491525423728,39.8,11.186440677966102,39.78666666666667,12.203389830508474,39.78666666666667C13.220338983050846,39.78666666666667,14.23728813559322,39.81111111111111,15.254237288135592,39.82666666666667C16.271186440677965,39.842222222222226,17.28813559322034,39.88,18.305084745762713,39.88C19.322033898305087,39.88,20.338983050847457,39.86666666666667,21.35593220338983,39.84C22.372881355932204,39.81333333333334,23.389830508474574,39.6,24.406779661016948,39.6C25.423728813559322,39.6,26.440677966101696,39.720000000000006,27.45762711864407,39.74666666666667C28.47457627118644,39.77333333333333,29.491525423728813,39.77111111111111,30.508474576271183,39.78666666666667C31.525423728813557,39.80222222222223,32.54237288135593,39.84,33.559322033898304,39.84C34.57627118644068,39.84,35.59322033898305,39.69333333333333,36.610169491525426,39.69333333333333C37.6271186440678,39.69333333333333,38.644067796610166,39.86666666666667,39.66101694915254,39.86666666666667C40.67796610169491,39.86666666666667,41.69491525423729,39.83555555555555,42.71186440677966,39.8C43.728813559322035,39.76444444444444,44.7457627118644,39.65333333333333,45.762711864406775,39.65333333333333C46.77966101694915,39.65333333333333,47.79661016949152,39.68000000000001,48.813559322033896,39.70666666666667C49.83050847457627,39.733333333333334,50.847457627118644,39.81333333333333,51.86440677966102,39.81333333333333C52.88135593220339,39.81333333333333,53.898305084745765,39.784444444444446,54.91525423728814,39.77333333333333C55.93220338983051,39.76222222222222,56.94915254237288,39.74666666666667,57.96610169491525,39.74666666666667C58.983050847457626,39.74666666666667,59.99999999999999,39.84,61.01694915254237,39.84C62.03389830508474,39.84,63.05084745762712,39.83111111111111,64.0677966101695,39.81333333333333C65.08474576271186,39.79555555555555,66.10169491525424,39.57333333333333,67.11864406779661,39.57333333333333C68.13559322033899,39.57333333333333,69.15254237288136,39.65333333333333,70.16949152542374,39.65333333333333C71.1864406779661,39.65333333333333,72.20338983050848,39.46888888888889,73.22033898305085,39.413333333333334C74.23728813559322,39.35777777777778,75.2542372881356,39.32,76.27118644067797,39.32C77.28813559322033,39.32,78.30508474576271,39.61333333333333,79.32203389830508,39.61333333333333C80.33898305084746,39.61333333333333,81.35593220338983,39.61333333333333,82.37288135593221,39.61333333333333C83.38983050847457,39.61333333333333,84.40677966101696,39.76,85.42372881355932,39.76C86.4406779661017,39.76,87.45762711864407,39.42666666666667,88.47457627118645,39.42666666666667C89.49152542372882,39.42666666666667,90.50847457627118,39.55555555555556,91.52542372881355,39.6C92.54237288135593,39.644444444444446,93.55932203389831,39.69333333333333,94.57627118644069,39.69333333333333C95.59322033898306,39.69333333333333,96.61016949152543,39.68888888888888,97.62711864406779,39.68C98.64406779661016,39.67111111111112,99.66101694915254,39.57333333333333,100.6779661016949,39.57333333333333C101.69491525423729,39.57333333333333,102.71186440677965,39.84,103.72881355932203,39.84C104.7457627118644,39.84,105.76271186440678,39.64222222222222,106.77966101694915,39.56C107.79661016949153,39.47777777777778,108.8135593220339,39.346666666666664,109.83050847457628,39.346666666666664C110.84745762711864,39.346666666666664,111.86440677966102,39.76,112.88135593220339,39.76C113.89830508474576,39.76,114.91525423728814,39.76,115.9322033898305,39.76C116.94915254237289,39.76,117.96610169491525,39.586666666666666,118.98305084745763,39.586666666666666C120,39.586666666666666,121.01694915254237,39.63111111111111,122.03389830508473,39.65333333333333C123.05084745762711,39.675555555555555,124.0677966101695,39.72,125.08474576271188,39.72C126.10169491525424,39.72,127.11864406779662,39.715555555555554,128.135593220339,39.70666666666667C129.15254237288136,39.69777777777779,130.16949152542372,39.33333333333333,131.1864406779661,39.33333333333333C132.20338983050846,39.33333333333333,133.22033898305085,39.77333333333333,134.23728813559322,39.77333333333333C135.25423728813558,39.77333333333333,136.27118644067798,38.973333333333336,137.28813559322035,38.973333333333336C138.3050847457627,38.973333333333336,139.3220338983051,39.56,140.33898305084747,39.56C141.35593220338984,39.56,142.3728813559322,39.52,143.38983050847457,39.44C144.40677966101694,39.35999999999999,145.42372881355934,38.96,146.4406779661017,38.96C147.45762711864407,38.96,148.47457627118644,39.22666666666667,149.4915254237288,39.22666666666667C150.50847457627117,39.22666666666667,151.52542372881356,39.00888888888889,152.54237288135593,38.57333333333334C153.5593220338983,38.137777777777785,154.5762711864407,37.3888888888889,155.59322033898306,36.480000000000004C156.61016949152543,35.571111111111115,157.6271186440678,34.10666666666667,158.64406779661016,33.120000000000005C159.66101694915253,32.13333333333333,160.67796610169492,32.26666666666667,161.6949152542373,30.560000000000002C162.71186440677965,28.853333333333335,163.72881355932205,22.720000000000002,164.74576271186442,22.720000000000002C165.76271186440678,22.720000000000002,166.77966101694915,23.215555555555564,167.79661016949152,24C168.81355932203388,24.784444444444443,169.83050847457628,26.822222222222223,170.84745762711864,27.426666666666666C171.864406779661,28.03111111111111,172.8813559322034,28.33333333333333,173.89830508474577,28.33333333333333C174.91525423728814,28.33333333333333,175.93220338983053,13.91555555555559,176.9491525423729,10.280000000000001C177.96610169491527,6.644444444444446,178.98305084745763,5.735555555555557,180,4.826666666666668L180,40C178.98305084745763,40,177.96610169491527,40,176.9491525423729,40C175.93220338983053,40,174.91525423728814,40,173.89830508474577,40C172.8813559322034,40,171.864406779661,40,170.84745762711864,40C169.83050847457628,40,168.81355932203388,40,167.79661016949152,40C166.77966101694915,40,165.76271186440678,40,164.74576271186442,40C163.72881355932205,40,162.71186440677965,40,161.6949152542373,40C160.67796610169492,40,159.66101694915253,40,158.64406779661016,40C157.6271186440678,40,156.61016949152543,40,155.59322033898306,40C154.5762711864407,40,153.5593220338983,40,152.54237288135593,40C151.52542372881356,40,150.50847457627117,40,149.4915254237288,40C148.47457627118644,40,147.45762711864407,40,146.4406779661017,40C145.42372881355934,40,144.40677966101694,40,143.38983050847457,40C142.3728813559322,40,141.35593220338984,40,140.33898305084747,40C139.3220338983051,40,138.3050847457627,40,137.28813559322035,40C136.27118644067798,40,135.25423728813558,40,134.23728813559322,40C133.22033898305085,40,132.20338983050846,40,131.1864406779661,40C130.16949152542372,40,129.15254237288136,40,128.135593220339,40C127.11864406779662,40,126.10169491525424,40,125.08474576271188,40C124.0677966101695,40,123.05084745762711,40,122.03389830508473,40C121.01694915254237,40,120,40,118.98305084745763,40C117.96610169491525,40,116.94915254237289,40,115.9322033898305,40C114.91525423728814,40,113.89830508474576,40,112.88135593220339,40C111.86440677966102,40,110.84745762711864,40,109.83050847457628,40C108.8135593220339,40,107.79661016949153,40,106.77966101694915,40C105.76271186440678,40,104.7457627118644,40,103.72881355932203,40C102.71186440677965,40,101.69491525423729,40,100.6779661016949,40C99.66101694915254,40,98.64406779661016,40,97.62711864406779,40C96.61016949152543,40,95.59322033898306,40,94.57627118644069,40C93.55932203389831,40,92.54237288135593,40,91.52542372881355,40C90.50847457627118,40,89.49152542372882,40,88.47457627118645,40C87.45762711864407,40,86.4406779661017,40,85.42372881355932,40C84.40677966101696,40,83.38983050847457,40,82.37288135593221,40C81.35593220338983,40,80.33898305084746,40,79.32203389830508,40C78.30508474576271,40,77.28813559322033,40,76.27118644067797,40C75.2542372881356,40,74.23728813559322,40,73.22033898305085,40C72.20338983050848,40,71.1864406779661,40,70.16949152542374,40C69.15254237288136,40,68.13559322033899,40,67.11864406779661,40C66.10169491525424,40,65.08474576271186,40,64.0677966101695,40C63.05084745762712,40,62.03389830508474,40,61.01694915254237,40C59.99999999999999,40,58.983050847457626,40,57.96610169491525,40C56.94915254237288,40,55.93220338983051,40,54.91525423728814,40C53.898305084745765,40,52.88135593220339,40,51.86440677966102,40C50.847457627118644,40,49.83050847457627,40,48.813559322033896,40C47.79661016949152,40,46.77966101694915,40,45.762711864406775,40C44.7457627118644,40,43.728813559322035,40,42.71186440677966,40C41.69491525423729,40,40.67796610169491,40,39.66101694915254,40C38.644067796610166,40,37.6271186440678,40,36.610169491525426,40C35.59322033898305,40,34.57627118644068,40,33.559322033898304,40C32.54237288135593,40,31.525423728813557,40,30.508474576271183,40C29.491525423728813,40,28.47457627118644,40,27.45762711864407,40C26.440677966101696,40,25.423728813559322,40,24.406779661016948,40C23.389830508474574,40,22.372881355932204,40,21.35593220338983,40C20.338983050847457,40,19.322033898305087,40,18.305084745762713,40C17.28813559322034,40,16.271186440677965,40,15.254237288135592,40C14.23728813559322,40,13.220338983050846,40,12.203389830508474,40C11.186440677966102,40,10.169491525423728,40,9.152542372881356,40C8.135593220338983,40,7.11864406779661,40,6.101694915254237,40C5.084745762711864,40,4.067796610169491,40,3.0508474576271185,40C2.0338983050847457,40,1.0169491525423728,40,0,40Z"></path><path class="line" stroke="black" fill="none" d="M0,39.92C1.0169491525423728,39.861111111111114,2.0338983050847457,39.80222222222223,3.0508474576271185,39.74666666666667C4.067796610169491,39.69111111111111,5.084745762711864,39.586666666666666,6.101694915254237,39.586666666666666C7.11864406779661,39.586666666666666,8.135593220338983,39.8,9.152542372881356,39.8C10.169491525423728,39.8,11.186440677966102,39.78666666666667,12.203389830508474,39.78666666666667C13.220338983050846,39.78666666666667,14.23728813559322,39.81111111111111,15.254237288135592,39.82666666666667C16.271186440677965,39.842222222222226,17.28813559322034,39.88,18.305084745762713,39.88C19.322033898305087,39.88,20.338983050847457,39.86666666666667,21.35593220338983,39.84C22.372881355932204,39.81333333333334,23.389830508474574,39.6,24.406779661016948,39.6C25.423728813559322,39.6,26.440677966101696,39.720000000000006,27.45762711864407,39.74666666666667C28.47457627118644,39.77333333333333,29.491525423728813,39.77111111111111,30.508474576271183,39.78666666666667C31.525423728813557,39.80222222222223,32.54237288135593,39.84,33.559322033898304,39.84C34.57627118644068,39.84,35.59322033898305,39.69333333333333,36.610169491525426,39.69333333333333C37.6271186440678,39.69333333333333,38.644067796610166,39.86666666666667,39.66101694915254,39.86666666666667C40.67796610169491,39.86666666666667,41.69491525423729,39.83555555555555,42.71186440677966,39.8C43.728813559322035,39.76444444444444,44.7457627118644,39.65333333333333,45.762711864406775,39.65333333333333C46.77966101694915,39.65333333333333,47.79661016949152,39.68000000000001,48.813559322033896,39.70666666666667C49.83050847457627,39.733333333333334,50.847457627118644,39.81333333333333,51.86440677966102,39.81333333333333C52.88135593220339,39.81333333333333,53.898305084745765,39.784444444444446,54.91525423728814,39.77333333333333C55.93220338983051,39.76222222222222,56.94915254237288,39.74666666666667,57.96610169491525,39.74666666666667C58.983050847457626,39.74666666666667,59.99999999999999,39.84,61.01694915254237,39.84C62.03389830508474,39.84,63.05084745762712,39.83111111111111,64.0677966101695,39.81333333333333C65.08474576271186,39.79555555555555,66.10169491525424,39.57333333333333,67.11864406779661,39.57333333333333C68.13559322033899,39.57333333333333,69.15254237288136,39.65333333333333,70.16949152542374,39.65333333333333C71.1864406779661,39.65333333333333,72.20338983050848,39.46888888888889,73.22033898305085,39.413333333333334C74.23728813559322,39.35777777777778,75.2542372881356,39.32,76.27118644067797,39.32C77.28813559322033,39.32,78.30508474576271,39.61333333333333,79.32203389830508,39.61333333333333C80.33898305084746,39.61333333333333,81.35593220338983,39.61333333333333,82.37288135593221,39.61333333333333C83.38983050847457,39.61333333333333,84.40677966101696,39.76,85.42372881355932,39.76C86.4406779661017,39.76,87.45762711864407,39.42666666666667,88.47457627118645,39.42666666666667C89.49152542372882,39.42666666666667,90.50847457627118,39.55555555555556,91.52542372881355,39.6C92.54237288135593,39.644444444444446,93.55932203389831,39.69333333333333,94.57627118644069,39.69333333333333C95.59322033898306,39.69333333333333,96.61016949152543,39.68888888888888,97.62711864406779,39.68C98.64406779661016,39.67111111111112,99.66101694915254,39.57333333333333,100.6779661016949,39.57333333333333C101.69491525423729,39.57333333333333,102.71186440677965,39.84,103.72881355932203,39.84C104.7457627118644,39.84,105.76271186440678,39.64222222222222,106.77966101694915,39.56C107.79661016949153,39.47777777777778,108.8135593220339,39.346666666666664,109.83050847457628,39.346666666666664C110.84745762711864,39.346666666666664,111.86440677966102,39.76,112.88135593220339,39.76C113.89830508474576,39.76,114.91525423728814,39.76,115.9322033898305,39.76C116.94915254237289,39.76,117.96610169491525,39.586666666666666,118.98305084745763,39.586666666666666C120,39.586666666666666,121.01694915254237,39.63111111111111,122.03389830508473,39.65333333333333C123.05084745762711,39.675555555555555,124.0677966101695,39.72,125.08474576271188,39.72C126.10169491525424,39.72,127.11864406779662,39.715555555555554,128.135593220339,39.70666666666667C129.15254237288136,39.69777777777779,130.16949152542372,39.33333333333333,131.1864406779661,39.33333333333333C132.20338983050846,39.33333333333333,133.22033898305085,39.77333333333333,134.23728813559322,39.77333333333333C135.25423728813558,39.77333333333333,136.27118644067798,38.973333333333336,137.28813559322035,38.973333333333336C138.3050847457627,38.973333333333336,139.3220338983051,39.56,140.33898305084747,39.56C141.35593220338984,39.56,142.3728813559322,39.52,143.38983050847457,39.44C144.40677966101694,39.35999999999999,145.42372881355934,38.96,146.4406779661017,38.96C147.45762711864407,38.96,148.47457627118644,39.22666666666667,149.4915254237288,39.22666666666667C150.50847457627117,39.22666666666667,151.52542372881356,39.00888888888889,152.54237288135593,38.57333333333334C153.5593220338983,38.137777777777785,154.5762711864407,37.3888888888889,155.59322033898306,36.480000000000004C156.61016949152543,35.571111111111115,157.6271186440678,34.10666666666667,158.64406779661016,33.120000000000005C159.66101694915253,32.13333333333333,160.67796610169492,32.26666666666667,161.6949152542373,30.560000000000002C162.71186440677965,28.853333333333335,163.72881355932205,22.720000000000002,164.74576271186442,22.720000000000002C165.76271186440678,22.720000000000002,166.77966101694915,23.215555555555564,167.79661016949152,24C168.81355932203388,24.784444444444443,169.83050847457628,26.822222222222223,170.84745762711864,27.426666666666666C171.864406779661,28.03111111111111,172.8813559322034,28.33333333333333,173.89830508474577,28.33333333333333C174.91525423728814,28.33333333333333,175.93220338983053,13.91555555555559,176.9491525423729,10.280000000000001C177.96610169491527,6.644444444444446,178.98305084745763,5.735555555555557,180,4.826666666666668"></path><path class="axis-ceiling" stroke-width="1" stroke="black" fill="none" d="M175,0L180,0"></path><text class="axis-ceiling-label" font-family="sans-serif" text-anchor="end" font-size="10px" x="170" y="2.5">3000</text></g></svg>