<svg xmlns="http://www.w3.org/2000/svg" viewBox="0 0 180 60"><g transform="translate(0,20)"><path class="area" fill="rgba(0, 0, 0, 0.2)" d="M0,38.199999999999996C1.0169491525423728,38.18666666666666,2.0338983050847457,38.17333333333333,3.0508474576271185,38.12C4.067796610169491,38.06666666666666,5.084745762711864,36.92,6.101694915254237,36.92C7.11864406779661,36.92,8.135593220338983,38.239999999999995,9.152542372881356,38.239999999999995C10.169491525423728,38.239999999999995,11.186440677966102,38.21333333333333,12.203389830508474,38.16C13.220338983050846,38.10666666666666,14.23728813559322,38.00666666666666,15.254237288135592,37.879999999999995C16.271186440677965,37.75333333333333,17.28813559322034,37.540000000000006,18.305084745762713,37.400000000000006C19.322033898305087,37.260000000000005,20.338983050847457,37.13333333333333,21.35593220338983,37.04C22.372881355932204,36.946666666666665,23.389830508474574,36.84,24.406779661016948,36.84C25.423728813559322,36.84,26.440677966101696,37.06,27.45762711864407,37.28C28.47457627118644,37.5,29.491525423728813,37.946666666666665,30.508474576271183,38.16C31.525423728813557,38.37333333333333,32.54237288135593,38.56,33.559322033898304,38.56C34.57627118644068,38.56,35.59322033898305,38.11333333333334,36.610169491525426,37.92C37.6271186440678,37.72666666666667,38.644067796610166,37.59333333333334,39.66101694915254,37.400000000000006C40.67796610169491,37.20666666666667,41.69491525423729,36.760000000000005,42.71186440677966,36.760000000000005C43.728813559322035,36.760000000000005,44.7457627118644,37.08,45.762711864406775,37.08C46.77966101694915,37.08,47.79661016949152,36.800000000000004,48.813559322033896,36.800000000000004C49.83050847457627,36.800000000000004,50.847457627118644,37.21333333333333,51.86440677966102,37.44C52.88135593220339,37.666666666666664,53.898305084745765,38.16,54.91525423728814,38.16C55.93220338983051,38.16,56.94915254237288,37.58,57.96610169491525,37.32C58.983050847457626,37.06,59.99999999999999,36.68,61.01694915254237,36.6C62.03389830508474,36.52,63.05084745762712,36.56,64.0677966101695,36.480000000000004C65.08474576271186,36.400000000000006,66.10169491525424,36.08,67.11864406779661,36.08C68.13559322033899,36.08,69.15254237288136,36.24,70.16949152542374,36.52C71.1864406779661,36.800000000000004,72.20338983050848,37.35333333333333,73.22033898305085,37.76C74.23728813559322,38.166666666666664,75.2542372881356,38.96,76.27118644067797,38.96C77.28813559322033,38.96,78.30508474576271,37.913333333333334,79.32203389830508,37.56C80.33898305084746,37.20666666666667,81.35593220338983,36.84,82.37288135593221,36.84C83.38983050847457,36.84,84.40677966101696,38.04,85.42372881355932,38.04C86.4406779661017,38.04,87.45762711864407,36.44,88.47457627118645,36.44C89.49152542372882,36.44,90.50847457627118,38.519999999999996,91.52542372881355,38.519999999999996C92.54237288135593,38.519999999999996,93.55932203389831,36.4,94.57627118644069,36.4C95.59322033898306,36.4,96.61016949152543,36.800000000000004,97.62711864406779,36.800000000000004C98.64406779661016,36.800000000000004,99.66101694915254,36.61333333333334,100.6779661016949,36.24C101.69491525423729,35.86666666666667,102.71186440677965,34.233333333333334,103.72881355932203,33.6C104.7457627118644,32.96666666666667,105.76271186440678,32.519999999999996,106.77966101694915,32.44C107.79661016949153,32.36,108.8135593220339,32.4,109.83050847457628,32.32C110.84745762711864,32.24,111.86440677966102,31.240000000000002,112.88135593220339,31.240000000000002C113.89830508474576,31.240000000000002,114.91525423728814,33.92,115.9322033898305,33.92C116.94915254237289,33.92,117.96610169491525,31.533333333333335,118.98305084745763,31.400000000000002C120,31.26666666666667,121.01694915254237,31.333333333333336,122.03389830508473,31.200000000000003C123.05084745762711,31.066666666666666,124.0677966101695,30.726666666666674,125.08474576271188,30.240000000000002C126.10169491525424,29.753333333333337,127.11864406779662,28.826666666666668,128.135593220339,28.28C129.15254237288136,27.733333333333334,130.16949152542372,27.29333333333333,131.1864406779661,26.959999999999997C132.20338983050846,26.62666666666666,133.22033898305085,26.28,134.23728813559322,26.28C135.25423728813558,26.28,136.27118644067798,28.046666666666667,137.28813559322035,28.96C138.3050847457627,29.873333333333335,139.3220338983051,31.76,140.33898305084747,31.76C141.35593220338984,31.76,142.3728813559322,31.546666666666667,143.38983050847457,31.12C144.40677966101694,30.69333333333333,145.42372881355934,24.68666666666667,146.4406779661017,22.439999999999998C147.45762711864407,20.193333333333346,148.47457627118644,17.639999999999997,149.4915254237288,17.639999999999997C150.50847457627117,17.639999999999997,151.52542372881356,18.779999999999998,152.54237288135593,19.48C153.5593220338983,20.180000000000003,154.5762711864407,20.89333333333333,155.59322033898306,21.840000000000003C156.61016949152543,22.78666666666667,157.6271186440678,23.540000000000013,158.64406779661016,25.16C159.66101694915253,26.78,160.67796610169492,31.560000000000002,161.6949152542373,31.560000000000002C162.71186440677965,31.560000000000002,163.72881355932205,19.65333333333334,164.74576271186442,18.159999999999997C165.76271186440678,16.666666666666668,166.77966101694915,15.920000000000002,167.79661016949152,15.920000000000002C168.81355932203388,15.920000000000002,169.83050847457628,17.200000000000003,170.84745762711864,17.200000000000003C171.864406779661,17.200000000000003,172.8813559322034,13.399999999999999,173.89830508474577,13.399999999999999C174.91525423728814,13.399999999999999,175.93220338983053,13.853333333333332,176.9491525423729,14.76C177.96610169491527,15.666666666666659,178.98305084745763,19.47333333333333,180,23.28L180,40C178.98305084745763,40,177.96610169491527,40,176.9491525423729,40C175.93220338983053,40,174.91525423728814,40,173.89830508474577,40C172.8813559322034,40,171.864406779661,40,170.84745762711864,40C169.83050847457628,40,168.81355932203388,40,167.79661016949152,40C166.77966101694915,40,165.76271186440678,40,164.74576271186442,40C163.72881355932205,40,162.71186440677965,40,161.6949152542373,40C160.67796610169492,40,159.66101694915253,40,158.64406779661016,40C157.6271186440678,40,156.61016949152543,40,155.59322033898306,40C154.5762711864407,40,153.5593220338983,40,152.54237288135593,40C151.52542372881356,40,150.50847457627117,40,149.4915254237288,40C148.47457627118644,40,147.45762711864407,40,146.4406779661017,40C145.42372881355934,40,144.40677966101694,40,143.38983050847457,40C142.3728813559322,40,141.35593220338984,40,140.33898305084747,40C139.3220338983051,40,138.3050847457627,40,137.28813559322035,40C136.27118644067798,40,135.25423728813558,40,134.23728813559322,40C133.22033898305085,40,132.20338983050846,40,131.1864406779661,40C130.16949152542372,40,129.15254237288136,40,128.135593220339,40C127.11864406779662,40,126.10169491525424,40,125.08474576271188,40C124.0677966101695,40,123.05084745762711,40,122.03389830508473,40C121.01694915254237,40,120,40,118.98305084745763,40C117.96610169491525,40,116.94915254237289,40,115.9322033898305,40C114.91525423728814,40,113.89830508474576,40,112.88135593220339,40C111.86440677966102,40,110.84745762711864,40,109.83050847457628,40C108.8135593220339,40,107.79661016949153,40,106.77966101694915,40C105.76271186440678,40,104.7457627118644,40,103.72881355932203,40C102.71186440677965,40,101.69491525423729,40,100.6779661016949,40C99.66101694915254,40,98.64406779661016,40,97.62711864406779,40C96.61016949152543,40,95.59322033898306,40,94.57627118644069,40C93.55932203389831,40,92.54237288135593,40,91.52542372881355,40C90.50847457627118,40,89.49152542372882,40,88.47457627118645,40C87.45762711864407,40,86.4406779661017,40,85.42372881355932,40C84.40677966101696,40,83.38983050847457,40,82.37288135593221,40C81.35593220338983,40,80.33898305084746,40,79.32203389830508,40C78.30508474576271,40,77.28813559322033,40,76.27118644067797,40C75.2542372881356,40,74.23728813559322,40,73.22033898305085,40C72.20338983050848,40,71.1864406779661,40,70.16949152542374,40C69.15254237288136,40,68.13559322033899,40,67.11864406779661,40C66.10169491525424,40,65.08474576271186,40,64.0677966101695,40C63.05084745762712,40,62.03389830508474,40,61.01694915254237,40C59.99999999999999,40,58.983050847457626,40,57.96610169491525,40C56.94915254237288,40,55.93220338983051,40,54.91525423728814,40C53.898305084745765,40,52.88135593220339,40,51.86440677966102,40C50.847457627118644,40,49.83050847457627,40,48.813559322033896,40C47.79661016949152,40,46.77966101694915,40,45.762711864406775,40C44.7457627118644,40,43.728813559322035,40,42.71186440677966,40C41.69491525423729,40,40.67796610169491,40,39.66101694915254,40C38.644067796610166,40,37.6271186440678,40,36.610169491525426,40C35.59322033898305,40,34.57627118644068,40,33.559322033898304,40C32.54237288135593,40,31.525423728813557,40,30.508474576271183,40C29.491525423728813,40,28.47457627118644,40,27.45762711864407,40C26.440677966101696,40,25.423728813559322,40,24.406779661016948,40C23.389830508474574,40,22.372881355932204,40,21.35593220338983,40C20.338983050847457,40,19.322033898305087,40,18.305084745762713,40C17.28813559322034,40,16.271186440677965,40,15.254237288135592,40C14.23728813559322,40,13.220338983050846,40,12.203389830508474,40C11.186440677966102,40,10.169491525423728,40,9.152542372881356,40C8.135593220338983,40,7.11864406779661,40,6.101694915254237,40C5.084745762711864,40,4.067796610169491,40,3.0508474576271185,40C2.0338983050847457,40,1.0169491525423728,40,0,40Z"></path><path class="line" stroke="black" fill="none" d="M0,38.199999999999996C1.0169491525423728,38.18666666666666,2.0338983050847457,38.17333333333333,3.0508474576271185,38.12C4.067796610169491,38.06666666666666,5.084745762711864,36.92,6.101694915254237,36.92C7.11864406779661,36.92,8.135593220338983,38.239999999999995,9.152542372881356,38.239999999999995C10.169491525423728,38.239999999999995,11.186440677966102,38.21333333333333,12.203389830508474,38.16C13.220338983050846,38.10666666666666,14.23728813559322,38.00666666666666,15.254237288135592,37.879999999999995C16.271186440677965,37.75333333333333,17.28813559322034,37.540000000000006,18.305084745762713,37.400000000000006C19.322033898305087,37.260000000000005,20.338983050847457,37.13333333333333,21.35593220338983,37.04C22.372881355932204,36.946666666666665,23.389830508474574,36.84,24.406779661016948,36.84C25.423728813559322,36.84,26.440677966101696,37.06,27.45762711864407,37.28C28.47457627118644,37.5,29.491525423728813,37.946666666666665,30.508474576271183,38.16C31.525423728813557,38.37333333333333,32.54237288135593,38.56,33.559322033898304,38.56C34.57627118644068,38.56,35.59322033898305,38.11333333333334,36.610169491525426,37.92C37.6271186440678,37.72666666666667,38.644067796610166,37.59333333333334,39.66101694915254,37.400000000000006C40.67796610169491,37.20666666666667,41.69491525423729,36.760000000000005,42.71186440677966,36.760000000000005C43.728813559322035,36.760000000000005,44.7457627118644,37.08,45.762711864406775,37.08C46.77966101694915,37.08,47.79661016949152,36.800000000000004,48.813559322033896,36.800000000000004C49.83050847457627,36.800000000000004,50.847457627118644,37.21333333333333,51.86440677966102,37.44C52.88135593220339,37.666666666666664,53.898305084745765,38.16,54.91525423728814,38.16C55.93220338983051,38.16,56.94915254237288,37.58,57.96610169491525,37.32C58.983050847457626,37.06,59.99999999999999,36.68,61.01694915254237,36.6C62.03389830508474,36.52,63.05084745762712,36.56,64.0677966101695,36.480000000000004C65.08474576271186,36.400000000000006,66.10169491525424,36.08,67.11864406779661,36.08C68.13559322033899,36.08,69.15254237288136,36.24,70.16949152542374,36.52C71.1864406779661,36.800000000000004,72.20338983050848,37.35333333333333,73.22033898305085,37.76C74.23728813559322,38.166666666666664,75.2542372881356,38.96,76.27118644067797,38.96C77.28813559322033,38.96,78.30508474576271,37.913333333333334,79.32203389830508,37.56C80.33898305084746,37.20666666666667,81.35593220338983,36.84,82.37288135593221,36.84C83.38983050847457,36.84,84.40677966101696,38.04,85.42372881355932,38.04C86.4406779661017,38.04,87.45762711864407,36.44,88.47457627118645,36.44C89.49152542372882,36.44,90.50847457627118,38.519999999999996,91.52542372881355,38.519999999999996C92.54237288135593,38.519999999999996,93.55932203389831,36.4,94.57627118644069,36.4C95.59322033898306,36.4,96.61016949152543,36.800000000000004,97.62711864406779,36.800000000000004C98.64406779661016,36.800000000000004,99.66101694915254,36.61333333333334,100.6779661016949,36.24C101.69491525423729,35.86666666666667,102.71186440677965,34.233333333333334,103.72881355932203,33.6C104.7457627118644,32.96666666666667,105.76271186440678,32.519999999999996,106.77966101694915,32.44C107.79661016949153,32.36,108.8135593220339,32.4,109.83050847457628,32.32C110.84745762711864,32.24,111.86440677966102,31.240000000000002,112.88135593220339,31.240000000000002C113.89830508474576,31.240000000000002,114.91525423728814,33.92,115.9322033898305,33.92C116.94915254237289,33.92,117.96610169491525,31.533333333333335,118.98305084745763,31.400000000000002C120,31.26666666666667,121.01694915254237,31.333333333333336,122.03389830508473,31.200000000000003C123.05084745762711,31.066666666666666,124.0677966101695,30.726666666666674,125.08474576271188,30.240000000000002C126.10169491525424,29.753333333333337,127.11864406779662,28.826666666666668,128.135593220339,28.28C129.15254237288136,27.733333333333334,130.16949152542372,27.29333333333333,131.1864406779661,26.959999999999997C132.20338983050846,26.62666666666666,133.22033898305085,26.28,134.23728813559322,26.28C135.25423728813558,26.28,136.27118644067798,28.046666666666667,137.28813559322035,28.96C138.3050847457627,29.873333333333335,139.3220338983051,31.76,140.33898305084747,31.76C141.35593220338984,31.76,142.3728813559322,31.546666666666667,143.38983050847457,31.12C144.40677966101694,30.69333333333333,145.42372881355934,24.68666666666667,146.4406779661017,22.439999999999998C147.45762711864407,20.193333333333346,148.47457627118644,17.639999999999997,149.4915254237288,17.639999999999997C150.50847457627117,17.639999999999997,151.52542372881356,18.779999999999998,152.54237288135593,19.48C153.5593220338983,20.180000000000003,154.5762711864407,20.89333333333333,155.59322033898306,21.840000000000003C156.61016949152543,22.78666666666667,157.6271186440678,23.540000000000013,158.64406779661016,25.16C159.66101694915253,26.78,160.67796610169492,31.560000000000002,161.6949152542373,31.560000000000002C162.71186440677965,31.560000000000002,163.72881355932205,19.65333333333334,164.74576271186442,18.159999999999997C165.76271186440678,16.666666666666668,166.77966101694915,15.920000000000002,167.79661016949152,15.920000000000002C168.81355932203388,15.920000000000002,169.83050847457628,17.200000000000003,170.84745762711864,17.200000000000003C171.864406779661,17.200000000000003,172.8813559322034,13.399999999999999,173.89830508474577,13.399999999999999C174.91525423728814,13.399999999999999,175.93220338983053,13.853333333333332,176.9491525423729,14.76C177.96610169491527,15.666666666666659,178.98305084745763,19.47333333333333,180,23.28"></path><path class="axis-ceiling" stroke-width="1" stroke="black" fill="none" d="M175,0L180,0"></path><text class="axis-ceiling-label" font-family="sans-serif" text-anchor="end" font-size="10px" x="170" y="2.5">1000</text></g></svg>