<svg xmlns="http://www.w3.org/2000/svg" viewBox="0 0 180 60"><g transform="translate(0,20)"><path class="area" fill="rgba(0, 0, 0, 0.2)" d="M0,13.496000000000002C1.0169491525423728,13.240222222222222,2.0338983050847457,12.984444444444444,3.0508474576271185,12.757333333333332C4.067796610169491,12.53022222222222,5.084745762711864,12.36,6.101694915254237,12.133333333333333C7.11864406779661,11.906666666666666,8.135593220338983,11.762222222222224,9.152542372881356,11.397333333333336C10.169491525423728,11.032444444444447,11.186440677966102,10.420000000000003,12.203389830508474,9.944000000000003C13.220338983050846,9.468000000000002,14.23728813559322,8.94888888888889,15.254237288135592,8.541333333333334C16.271186440677965,8.133777777777778,17.28813559322034,7.792888888888889,18.305084745762713,7.498666666666667C19.322033898305087,7.204444444444444,20.338983050847457,6.992444444444444,21.35593220338983,6.776C22.372881355932204,6.559555555555556,23.389830508474574,6.328444444444445,24.406779661016948,6.200000000000001C25.423728813559322,6.071555555555556,26.440677966101696,6.005333333333334,27.45762711864407,6.005333333333334C28.47457627118644,6.005333333333334,29.491525423728813,6.128888888888889,30.508474576271183,6.215999999999999C31.525423728813557,6.303111111111111,32.54237288135593,6.3933333333333335,33.559322033898304,6.5280000000000005C34.57627118644068,6.662666666666667,35.59322033898305,6.872888888888888,36.610169491525426,7.023999999999999C37.6271186440678,7.17511111111111,38.644067796610166,7.209777777777776,39.66101694915254,7.434666666666665C40.67796610169491,7.659555555555555,41.69491525423729,8.062666666666667,42.71186440677966,8.373333333333335C43.728813559322035,8.684000000000001,44.7457627118644,9.012444444444448,45.762711864406775,9.29866666666667C46.77966101694915,9.58488888888889,47.79661016949152,9.785333333333332,48.813559322033896,10.090666666666666C49.83050847457627,10.395999999999999,50.847457627118644,10.830666666666666,51.86440677966102,11.130666666666666C52.88135593220339,11.430666666666667,53.898305084745765,11.59377777777778,54.91525423728814,11.890666666666668C55.93220338983051,12.187555555555557,56.94915254237288,12.485777777777777,57.96610169491525,12.911999999999999C58.983050847457626,13.338222222222221,59.99999999999999,13.941777777777776,61.01694915254237,14.447999999999999C62.03389830508474,14.954222222222223,63.05084745762712,15.463111111111111,64.0677966101695,15.949333333333335C65.08474576271186,16.435555555555556,66.10169491525424,16.923111111111115,67.11864406779661,17.365333333333336C68.13559322033899,17.80755555555556,69.15254237288136,18.19644444444444,70.16949152542374,18.602666666666664C71.1864406779661,19.008888888888887,72.20338983050848,19.35688888888889,73.22033898305085,19.802666666666667C74.23728813559322,20.248444444444445,75.2542372881356,20.79288888888889,76.27118644067797,21.277333333333335C77.28813559322033,21.76177777777778,78.30508474576271,22.22177777777778,79.32203389830508,22.709333333333333C80.33898305084746,23.19688888888889,81.35593220338983,23.680444444444444,82.37288135593221,24.202666666666666C83.38983050847457,24.724888888888888,84.40677966101696,25.321333333333335,85.42372881355932,25.842666666666666C86.4406779661017,26.364,87.45762711864407,26.87111111111111,88.47457627118645,27.330666666666666C89.49152542372882,27.79022222222222,90.50847457627118,28.270666666666667,91.52542372881355,28.6C92.54237288135593,28.92933333333334,93.55932203389831,29.07911111111111,94.57627118644069,29.30666666666667C95.59322033898306,29.534222222222223,96.61016949152543,29.705333333333336,97.62711864406779,29.965333333333334C98.64406779661016,30.225333333333335,99.66101694915254,30.579555555555558,100.6779661016949,30.866666666666667C101.69491525423729,31.15377777777778,102.71186440677965,31.454222222222224,103.72881355932203,31.688000000000002C104.7457627118644,31.92177777777778,105.76271186440678,32.05466666666667,106.77966101694915,32.269333333333336C107.79661016949153,32.484,108.8135593220339,32.76266666666667,109.83050847457628,32.976C110.84745762711864,33.18933333333333,111.86440677966102,33.388444444444445,112.88135593220339,33.54933333333334C113.89830508474576,33.71022222222223,114.91525423728814,33.74666666666667,115.9322033898305,33.94133333333333C116.94915254237289,34.136,117.96610169491525,34.47866666666667,118.98305084745763,34.717333333333336C120,34.956,121.01694915254237,35.19733333333333,122.03389830508473,35.373333333333335C123.05084745762711,35.54933333333334,124.0677966101695,35.61822222222222,125.08474576271188,35.77333333333333C126.10169491525424,35.928444444444445,127.11864406779662,36.14977777777778,128.135593220339,36.304C129.15254237288136,36.458222222222226,130.16949152542372,36.580000000000005,131.1864406779661,36.69866666666667C132.20338983050846,36.81733333333334,133.22033898305085,36.92755555555556,134.23728813559322,37.016C135.25423728813558,37.10444444444444,136.27118644067798,37.188444444444436,137.28813559322035,37.22933333333333C138.3050847457627,37.27022222222222,139.3220338983051,37.25022222222222,140.33898305084747,37.29066666666667C141.35593220338984,37.33111111111111,142.3728813559322,37.38755555555556,143.38983050847457,37.472C144.40677966101694,37.556444444444445,145.42372881355934,37.72177777777778,146.4406779661017,37.797333333333334C147.45762711864407,37.87288888888889,148.47457627118644,37.86355555555556,149.4915254237288,37.925333333333334C150.50847457627117,37.98711111111111,151.52542372881356,38.09688888888889,152.54237288135593,38.168C153.5593220338983,38.23911111111111,154.5762711864407,38.303999999999995,155.59322033898306,38.352C156.61016949152543,38.4,157.6271186440678,38.421777777777784,158.64406779661016,38.456C159.66101694915253,38.49022222222223,160.67796610169492,38.51866666666667,161.6949152542373,38.55733333333333C162.71186440677965,38.596,163.72881355932205,38.65244444444444,164.74576271186442,38.687999999999995C165.76271186440678,38.72355555555555,166.77966101694915,38.73822222222223,167.79661016949152,38.77066666666667C168.81355932203388,38.803111111111114,169.83050847457628,38.849777777777774,170.84745762711864,38.882666666666665C171.864406779661,38.91555555555556,172.8813559322034,38.940888888888885,173.89830508474577,38.967999999999996C174.91525423728814,38.99511111111111,175.93220338983053,39.016888888888886,176.9491525423729,39.04533333333333C177.96610169491527,39.07377777777778,178.98305084745763,39.10622222222222,180,39.138666666666666L180,40C178.98305084745763,40,177.96610169491527,40,176.9491525423729,40C175.93220338983053,40,174.91525423728814,40,173.89830508474577,40C172.8813559322034,40,171.864406779661,40,170.84745762711864,40C169.83050847457628,40,168.81355932203388,40,167.79661016949152,40C166.77966101694915,40,165.76271186440678,40,164.74576271186442,40C163.72881355932205,40,162.71186440677965,40,161.6949152542373,40C160.67796610169492,40,159.66101694915253,40,158.64406779661016,40C157.6271186440678,40,156.61016949152543,40,155.59322033898306,40C154.5762711864407,40,153.5593220338983,40,152.54237288135593,40C151.52542372881356,40,150.50847457627117,40,149.4915254237288,40C148.47457627118644,40,147.45762711864407,40,146.4406779661017,40C145.42372881355934,40,144.40677966101694,40,143.38983050847457,40C142.3728813559322,40,141.35593220338984,40,140.33898305084747,40C139.3220338983051,40,138.3050847457627,40,137.28813559322035,40C136.27118644067798,40,135.25423728813558,40,134.23728813559322,40C133.22033898305085,40,132.20338983050846,40,131.1864406779661,40C130.16949152542372,40,129.15254237288136,40,128.135593220339,40C127.11864406779662,40,126.10169491525424,40,125.08474576271188,40C124.0677966101695,40,123.05084745762711,40,122.03389830508473,40C121.01694915254237,40,120,40,118.98305084745763,40C117.96610169491525,40,116.94915254237289,40,115.9322033898305,40C114.91525423728814,40,113.89830508474576,40,112.88135593220339,40C111.86440677966102,40,110.84745762711864,40,109.83050847457628,40C108.8135593220339,40,107.79661016949153,40,106.77966101694915,40C105.76271186440678,40,104.7457627118644,40,103.72881355932203,40C102.71186440677965,40,101.69491525423729,40,100.6779661016949,40C99.66101694915254,40,98.64406779661016,40,97.62711864406779,40C96.61016949152543,40,95.59322033898306,40,94.57627118644069,40C93.55932203389831,40,92.54237288135593,40,91.52542372881355,40C90.50847457627118,40,89.49152542372882,40,88.47457627118645,40C87.45762711864407,40,86.4406779661017,40,85.42372881355932,40C84.40677966101696,40,83.38983050847457,40,82.37288135593221,40C81.35593220338983,40,80.33898305084746,40,79.32203389830508,40C78.30508474576271,40,77.28813559322033,40,76.27118644067797,40C75.2542372881356,40,74.23728813559322,40,73.22033898305085,40C72.20338983050848,40,71.1864406779661,40,70.16949152542374,40C69.15254237288136,40,68.13559322033899,40,67.11864406779661,40C66.10169491525424,40,65.08474576271186,40,64.0677966101695,40C63.05084745762712,40,62.03389830508474,40,61.01694915254237,40C59.99999999999999,40,58.983050847457626,40,57.96610169491525,40C56.94915254237288,40,55.93220338983051,40,54.91525423728814,40C53.898305084745765,40,52.88135593220339,40,51.86440677966102,40C50.847457627118644,40,49.83050847457627,40,48.813559322033896,40C47.79661016949152,40,46.77966101694915,40,45.762711864406775,40C44.7457627118644,40,43.728813559322035,40,42.71186440677966,40C41.69491525423729,40,40.67796610169491,40,39.66101694915254,40C38.644067796610166,40,37.6271186440678,40,36.610169491525426,40C35.59322033898305,40,34.57627118644068,40,33.559322033898304,40C32.54237288135593,40,31.525423728813557,40,30.508474576271183,40C29.491525423728813,40,28.47457627118644,40,27.45762711864407,40C26.440677966101696,40,25.423728813559322,40,24.406779661016948,40C23.389830508474574,40,22.372881355932204,40,21.35593220338983,40C20.338983050847457,40,19.322033898305087,40,18.305084745762713,40C17.28813559322034,40,16.271186440677965,40,15.254237288135592,40C14.23728813559322,40,13.220338983050846,40,12.203389830508474,40C11.186440677966102,40,10.169491525423728,40,9.152542372881356,40C8.135593220338983,40,7.11864406779661,40,6.101694915254237,40C5.084745762711864,40,4.067796610169491,40,3.0508474576271185,40C2.0338983050847457,40,1.0169491525423728,40,0,40Z"></path><path class="line" stroke="black" fill="none" d="M0,13.496000000000002C1.0169491525423728,13.240222222222222,2.0338983050847457,12.984444444444444,3.0508474576271185,12.757333333333332C4.067796610169491,12.53022222222222,5.084745762711864,12.36,6.101694915254237,12.133333333333333C7.11864406779661,11.906666666666666,8.135593220338983,11.762222222222224,9.152542372881356,11.397333333333336C10.169491525423728,11.032444444444447,11.186440677966102,10.420000000000003,12.203389830508474,9.944000000000003C13.220338983050846,9.468000000000002,14.23728813559322,8.94888888888889,15.254237288135592,8.541333333333334C16.271186440677965,8.133777777777778,17.28813559322034,7.792888888888889,18.305084745762713,7.498666666666667C19.322033898305087,7.204444444444444,20.338983050847457,6.992444444444444,21.35593220338983,6.776C22.372881355932204,6.559555555555556,23.389830508474574,6.328444444444445,24.406779661016948,6.200000000000001C25.423728813559322,6.071555555555556,26.440677966101696,6.005333333333334,27.45762711864407,6.005333333333334C28.47457627118644,6.005333333333334,29.491525423728813,6.128888888888889,30.508474576271183,6.215999999999999C31.525423728813557,6.303111111111111,32.54237288135593,6.3933333333333335,33.559322033898304,6.5280000000000005C34.57627118644068,6.662666666666667,35.59322033898305,6.872888888888888,36.610169491525426,7.023999999999999C37.6271186440678,7.17511111111111,38.644067796610166,7.209777777777776,39.66101694915254,7.434666666666665C40.67796610169491,7.659555555555555,41.69491525423729,8.062666666666667,42.71186440677966,8.373333333333335C43.728813559322035,8.684000000000001,44.7457627118644,9.012444444444448,45.762711864406775,9.29866666666667C46.77966101694915,9.58488888888889,47.79661016949152,9.785333333333332,48.813559322033896,10.090666666666666C49.83050847457627,10.395999999999999,50.847457627118644,10.830666666666666,51.86440677966102,11.130666666666666C52.88135593220339,11.430666666666667,53.898305084745765,11.59377777777778,54.91525423728814,11.890666666666668C55.93220338983051,12.187555555555557,56.94915254237288,12.485777777777777,57.96610169491525,12.911999999999999C58.983050847457626,13.338222222222221,59.99999999999999,13.941777777777776,61.01694915254237,14.447999999999999C62.03389830508474,14.954222222222223,63.05084745762712,15.463111111111111,64.0677966101695,15.949333333333335C65.08474576271186,16.435555555555556,66.10169491525424,16.923111111111115,67.11864406779661,17.365333333333336C68.13559322033899,17.80755555555556,69.15254237288136,18.19644444444444,70.16949152542374,18.602666666666664C71.1864406779661,19.008888888888887,72.20338983050848,19.35688888888889,73.22033898305085,19.802666666666667C74.23728813559322,20.248444444444445,75.2542372881356,20.79288888888889,76.27118644067797,21.277333333333335C77.28813559322033,21.76177777777778,78.30508474576271,22.22177777777778,79.32203389830508,22.709333333333333C80.33898305084746,23.19688888888889,81.35593220338983,23.680444444444444,82.37288135593221,24.202666666666666C83.38983050847457,24.724888888888888,84.40677966101696,25.321333333333335,85.42372881355932,25.842666666666666C86.4406779661017,26.364,87.45762711864407,26.87111111111111,88.47457627118645,27.330666666666666C89.49152542372882,27.79022222222222,90.50847457627118,28.270666666666667,91.52542372881355,28.6C92.54237288135593,28.92933333333334,93.55932203389831,29.07911111111111,94.57627118644069,29.30666666666667C95.59322033898306,29.534222222222223,96.61016949152543,29.705333333333336,97.62711864406779,29.965333333333334C98.64406779661016,30.225333333333335,99.66101694915254,30.579555555555558,100.6779661016949,30.866666666666667C101.69491525423729,31.15377777777778,102.71186440677965,31.454222222222224,103.72881355932203,31.688000000000002C104.7457627118644,31.92177777777778,105.76271186440678,32.05466666666667,106.77966101694915,32.269333333333336C107.79661016949153,32.484,108.8135593220339,32.76266666666667,109.83050847457628,32.976C110.84745762711864,33.18933333333333,111.86440677966102,33.388444444444445,112.88135593220339,33.54933333333334C113.89830508474576,33.71022222222223,114.91525423728814,33.74666666666667,115.9322033898305,33.94133333333333C116.94915254237289,34.136,117.96610169491525,34.47866666666667,118.98305084745763,34.717333333333336C120,34.956,121.01694915254237,35.19733333333333,122.03389830508473,35.373333333333335C123.05084745762711,35.54933333333334,124.0677966101695,35.61822222222222,125.08474576271188,35.77333333333333C126.10169491525424,35.928444444444445,127.11864406779662,36.14977777777778,128.135593220339,36.304C129.15254237288136,36.458222222222226,130.16949152542372,36.580000000000005,131.1864406779661,36.69866666666667C132.20338983050846,36.81733333333334,133.22033898305085,36.92755555555556,134.23728813559322,37.016C135.25423728813558,37.10444444444444,136.27118644067798,37.188444444444436,137.28813559322035,37.22933333333333C138.3050847457627,37.27022222222222,139.3220338983051,37.25022222222222,140.33898305084747,37.29066666666667C141.35593220338984,37.33111111111111,142.3728813559322,37.38755555555556,143.38983050847457,37.472C144.40677966101694,37.556444444444445,145.42372881355934,37.72177777777778,146.4406779661017,37.797333333333334C147.45762711864407,37.87288888888889,148.47457627118644,37.86355555555556,149.4915254237288,37.925333333333334C150.50847457627117,37.98711111111111,151.52542372881356,38.09688888888889,152.54237288135593,38.168C153.5593220338983,38.23911111111111,154.5762711864407,38.303999999999995,155.59322033898306,38.352C156.61016949152543,38.4,157.6271186440678,38.421777777777784,158.64406779661016,38.456C159.66101694915253,38.49022222222223,160.67796610169492,38.51866666666667,161.6949152542373,38.55733333333333C162.71186440677965,38.596,163.72881355932205,38.65244444444444,164.74576271186442,38.687999999999995C165.76271186440678,38.72355555555555,166.77966101694915,38.73822222222223,167.79661016949152,38.77066666666667C168.81355932203388,38.803111111111114,169.83050847457628,38.849777777777774,170.84745762711864,38.882666666666665C171.864406779661,38.91555555555556,172.8813559322034,38.940888888888885,173.89830508474577,38.967999999999996C174.91525423728814,38.99511111111111,175.93220338983053,39.016888888888886,176.9491525423729,39.04533333333333C177.96610169491527,39.07377777777778,178.98305084745763,39.10622222222222,180,39.138666666666666"></path><path class="axis-ceiling" stroke-width="1" stroke="black" fill="none" d="M175,0L180,0"></path><text class="axis-ceiling-label" font-family="sans-serif" text-anchor="end" font-size="10px" x="170" y="2.5">15000</text></g></svg>