<svg xmlns="http://www.w3.org/2000/svg" viewBox="0 0 180 60"><g transform="translate(0,20)"><path class="area" fill="rgba(0, 0, 0, 0.2)" d="M0,37.9392C1.0169491525423728,37.9,2.0338983050847457,37.8608,3.0508474576271185,37.8176C4.067796610169491,37.7744,5.084745762711864,37.72506666666666,6.101694915254237,37.68C7.11864406779661,37.63493333333333,8.135593220338983,37.59253333333333,9.152542372881356,37.5472C10.169491525423728,37.501866666666665,11.186440677966102,37.4656,12.203389830508474,37.408C13.220338983050846,37.3504,14.23728813559322,37.27733333333333,15.254237288135592,37.2016C16.271186440677965,37.12586666666667,17.28813559322034,37.03333333333334,18.305084745762713,36.9536C19.322033898305087,36.87386666666667,20.338983050847457,36.806666666666665,21.35593220338983,36.7232C22.372881355932204,36.63973333333333,23.389830508474574,36.54773333333333,24.406779661016948,36.4528C25.423728813559322,36.357866666666666,26.440677966101696,36.25093333333333,27.45762711864407,36.1536C28.47457627118644,36.056266666666666,29.491525423728813,35.94826666666667,30.508474576271183,35.8688C31.525423728813557,35.78933333333333,32.54237288135593,35.7896,33.559322033898304,35.6768C34.57627118644068,35.564,35.59322033898305,35.361066666666666,36.610169491525426,35.192C37.6271186440678,35.022933333333334,38.644067796610166,34.85093333333333,39.66101694915254,34.6624C40.67796610169491,34.473866666666666,41.69491525423729,34.2584,42.71186440677966,34.0608C43.728813559322035,33.8632,44.7457627118644,33.67013333333333,45.762711864406775,33.4768C46.77966101694915,33.28346666666666,47.79661016949152,33.09093333333334,48.813559322033896,32.900800000000004C49.83050847457627,32.71066666666667,50.847457627118644,32.49173333333333,51.86440677966102,32.336C52.88135593220339,32.18026666666667,53.898305084745765,31.9664,54.91525423728814,31.9664C55.93220338983051,31.9664,56.94915254237288,32.0944,57.96610169491525,32.0944C58.983050847457626,32.0944,59.99999999999999,31.845066666666668,61.01694915254237,31.6064C62.03389830508474,31.367733333333334,63.05084745762712,30.986933333333337,64.0677966101695,30.6624C65.08474576271186,30.33786666666667,66.10169491525424,29.961866666666666,67.11864406779661,29.6592C68.13559322033899,29.35653333333333,69.15254237288136,29.106133333333336,70.16949152542374,28.846400000000003C71.1864406779661,28.58666666666667,72.20338983050848,28.338133333333335,73.22033898305085,28.1008C74.23728813559322,27.863466666666664,75.2542372881356,27.733866666666664,76.27118644067797,27.422399999999996C77.28813559322033,27.110933333333328,78.30508474576271,26.57893333333333,79.32203389830508,26.232C80.33898305084746,25.885066666666667,81.35593220338983,25.553333333333335,82.37288135593221,25.3408C83.38983050847457,25.12826666666667,84.40677966101696,25.0656,85.42372881355932,24.9568C86.4406779661017,24.848,87.45762711864407,24.844266666666666,88.47457627118645,24.688C89.49152542372882,24.53173333333333,90.50847457627118,24.189600000000002,91.52542372881355,24.0192C92.54237288135593,23.8488,93.55932203389831,23.836266666666667,94.57627118644069,23.665599999999998C95.59322033898306,23.494933333333332,96.61016949152543,23.193600000000004,97.62711864406779,22.995200000000004C98.64406779661016,22.796800000000005,99.66101694915254,22.668799999999997,100.6779661016949,22.475199999999997C101.69491525423729,22.281599999999997,102.71186440677965,22.1008,103.72881355932203,21.8336C104.7457627118644,21.5664,105.76271186440678,21.179466666666666,106.77966101694915,20.872C107.79661016949153,20.564533333333333,108.8135593220339,20.258133333333333,109.83050847457628,19.9888C110.84745762711864,19.71946666666667,111.86440677966102,19.6888,112.88135593220339,19.256C113.89830508474576,18.8232,114.91525423728814,17.61173333333333,115.9322033898305,17.392C116.94915254237289,17.17226666666667,117.96610169491525,17.15973333333334,118.98305084745763,17.062400000000004C120,16.965066666666672,121.01694915254237,16.977600000000002,122.03389830508473,16.808C123.05084745762711,16.638399999999994,124.0677966101695,16.119466666666668,125.08474576271188,15.7824C126.10169491525424,15.445333333333336,127.11864406779662,15.010666666666665,128.135593220339,14.785599999999999C129.15254237288136,14.560533333333334,130.16949152542372,14.432,131.1864406779661,14.432C132.20338983050846,14.432,133.22033898305085,15.026133333333334,134.23728813559322,15.088C135.25423728813558,15.149866666666664,136.27118644067798,15.180799999999998,137.28813559322035,15.180799999999998C138.3050847457627,15.180799999999998,139.3220338983051,14.592,140.33898305084747,14.592C141.35593220338984,14.592,142.3728813559322,14.866933333333336,143.38983050847457,14.956800000000001C144.40677966101694,15.046666666666669,145.42372881355934,15.131199999999998,146.4406779661017,15.131199999999998C147.45762711864407,15.131199999999998,148.47457627118644,14.840533333333326,149.4915254237288,14.270399999999999C150.50847457627117,13.700266666666666,151.52542372881356,12.554133333333333,152.54237288135593,11.7104C153.5593220338983,10.866666666666667,154.5762711864407,9.845066666666666,155.59322033898306,9.207999999999998C156.61016949152543,8.570933333333336,157.6271186440678,8.191733333333335,158.64406779661016,7.888000000000002C159.66101694915253,7.584266666666666,160.67796610169492,7.641866666666668,161.6949152542373,7.385600000000001C162.71186440677965,7.129333333333334,163.72881355932205,6.7701333333333364,164.74576271186442,6.3504000000000005C165.76271186440678,5.930666666666668,166.77966101694915,4.8672,167.79661016949152,4.8672C168.81355932203388,4.8672,169.83050847457628,4.986666666666666,170.84745762711864,5.225599999999999C171.864406779661,5.464533333333332,172.8813559322034,6.513333333333332,173.89830508474577,7.116799999999999C174.91525423728814,7.7202666666666655,175.93220338983053,8.238133333333332,176.9491525423729,8.846400000000001C177.96610169491527,9.454666666666665,178.98305084745763,10.110533333333331,180,10.766399999999997L180,40C178.98305084745763,40,177.96610169491527,40,176.9491525423729,40C175.93220338983053,40,174.91525423728814,40,173.89830508474577,40C172.8813559322034,40,171.864406779661,40,170.84745762711864,40C169.83050847457628,40,168.81355932203388,40,167.79661016949152,40C166.77966101694915,40,165.76271186440678,40,164.74576271186442,40C163.72881355932205,40,162.71186440677965,40,161.6949152542373,40C160.67796610169492,40,159.66101694915253,40,158.64406779661016,40C157.6271186440678,40,156.61016949152543,40,155.59322033898306,40C154.5762711864407,40,153.5593220338983,40,152.54237288135593,40C151.52542372881356,40,150.50847457627117,40,149.4915254237288,40C148.47457627118644,40,147.45762711864407,40,146.4406779661017,40C145.42372881355934,40,144.40677966101694,40,143.38983050847457,40C142.3728813559322,40,141.35593220338984,40,140.33898305084747,40C139.3220338983051,40,138.3050847457627,40,137.28813559322035,40C136.27118644067798,40,135.25423728813558,40,134.23728813559322,40C133.22033898305085,40,132.20338983050846,40,131.1864406779661,40C130.16949152542372,40,129.15254237288136,40,128.135593220339,40C127.11864406779662,40,126.10169491525424,40,125.08474576271188,40C124.0677966101695,40,123.05084745762711,40,122.03389830508473,40C121.01694915254237,40,120,40,118.98305084745763,40C117.96610169491525,40,116.94915254237289,40,115.9322033898305,40C114.91525423728814,40,113.89830508474576,40,112.88135593220339,40C111.86440677966102,40,110.84745762711864,40,109.83050847457628,40C108.8135593220339,40,107.79661016949153,40,106.77966101694915,40C105.76271186440678,40,104.7457627118644,40,103.72881355932203,40C102.71186440677965,40,101.69491525423729,40,100.6779661016949,40C99.66101694915254,40,98.64406779661016,40,97.62711864406779,40C96.61016949152543,40,95.59322033898306,40,94.57627118644069,40C93.55932203389831,40,92.54237288135593,40,91.52542372881355,40C90.50847457627118,40,89.49152542372882,40,88.47457627118645,40C87.45762711864407,40,86.4406779661017,40,85.42372881355932,40C84.40677966101696,40,83.38983050847457,40,82.37288135593221,40C81.35593220338983,40,80.33898305084746,40,79.32203389830508,40C78.30508474576271,40,77.28813559322033,40,76.27118644067797,40C75.2542372881356,40,74.23728813559322,40,73.22033898305085,40C72.20338983050848,40,71.1864406779661,40,70.16949152542374,40C69.15254237288136,40,68.13559322033899,40,67.11864406779661,40C66.10169491525424,40,65.08474576271186,40,64.0677966101695,40C63.05084745762712,40,62.03389830508474,40,61.01694915254237,40C59.99999999999999,40,58.983050847457626,40,57.96610169491525,40C56.94915254237288,40,55.93220338983051,40,54.91525423728814,40C53.898305084745765,40,52.88135593220339,40,51.86440677966102,40C50.847457627118644,40,49.83050847457627,40,48.813559322033896,40C47.79661016949152,40,46.77966101694915,40,45.762711864406775,40C44.7457627118644,40,43.728813559322035,40,42.71186440677966,40C41.69491525423729,40,40.67796610169491,40,39.66101694915254,40C38.644067796610166,40,37.6271186440678,40,36.610169491525426,40C35.59322033898305,40,34.57627118644068,40,33.559322033898304,40C32.54237288135593,40,31.525423728813557,40,30.508474576271183,40C29.491525423728813,40,28.47457627118644,40,27.45762711864407,40C26.440677966101696,40,25.423728813559322,40,24.406779661016948,40C23.389830508474574,40,22.372881355932204,40,21.35593220338983,40C20.338983050847457,40,19.322033898305087,40,18.305084745762713,40C17.28813559322034,40,16.271186440677965,40,15.254237288135592,40C14.23728813559322,40,13.220338983050846,40,12.203389830508474,40C11.186440677966102,40,10.169491525423728,40,9.152542372881356,40C8.135593220338983,40,7.11864406779661,40,6.101694915254237,40C5.084745762711864,40,4.067796610169491,40,3.0508474576271185,40C2.0338983050847457,40,1.0169491525423728,40,0,40Z"></path><path class="line" stroke="black" fill="none" d="M0,37.9392C1.0169491525423728,37.9,2.0338983050847457,37.8608,3.0508474576271185,37.8176C4.067796610169491,37.7744,5.084745762711864,37.72506666666666,6.101694915254237,37.68C7.11864406779661,37.63493333333333,8.135593220338983,37.59253333333333,9.152542372881356,37.5472C10.169491525423728,37.501866666666665,11.186440677966102,37.4656,12.203389830508474,37.408C13.220338983050846,37.3504,14.23728813559322,37.27733333333333,15.254237288135592,37.2016C16.271186440677965,37.12586666666667,17.28813559322034,37.03333333333334,18.305084745762713,36.9536C19.322033898305087,36.87386666666667,20.338983050847457,36.806666666666665,21.35593220338983,36.7232C22.372881355932204,36.63973333333333,23.389830508474574,36.54773333333333,24.406779661016948,36.4528C25.423728813559322,36.357866666666666,26.440677966101696,36.25093333333333,27.45762711864407,36.1536C28.47457627118644,36.056266666666666,29.491525423728813,35.94826666666667,30.508474576271183,35.8688C31.525423728813557,35.78933333333333,32.54237288135593,35.7896,33.559322033898304,35.6768C34.57627118644068,35.564,35.59322033898305,35.361066666666666,36.610169491525426,35.192C37.6271186440678,35.022933333333334,38.644067796610166,34.85093333333333,39.66101694915254,34.6624C40.67796610169491,34.473866666666666,41.69491525423729,34.2584,42.71186440677966,34.0608C43.728813559322035,33.8632,44.7457627118644,33.67013333333333,45.762711864406775,33.4768C46.77966101694915,33.28346666666666,47.79661016949152,33.09093333333334,48.813559322033896,32.900800000000004C49.83050847457627,32.71066666666667,50.847457627118644,32.49173333333333,51.86440677966102,32.336C52.88135593220339,32.18026666666667,53.898305084745765,31.9664,54.91525423728814,31.9664C55.93220338983051,31.9664,56.94915254237288,32.0944,57.96610169491525,32.0944C58.983050847457626,32.0944,59.99999999999999,31.845066666666668,61.01694915254237,31.6064C62.03389830508474,31.367733333333334,63.05084745762712,30.986933333333337,64.0677966101695,30.6624C65.08474576271186,30.33786666666667,66.10169491525424,29.961866666666666,67.11864406779661,29.6592C68.13559322033899,29.35653333333333,69.15254237288136,29.106133333333336,70.16949152542374,28.846400000000003C71.1864406779661,28.58666666666667,72.20338983050848,28.338133333333335,73.22033898305085,28.1008C74.23728813559322,27.863466666666664,75.2542372881356,27.733866666666664,76.27118644067797,27.422399999999996C77.28813559322033,27.110933333333328,78.30508474576271,26.57893333333333,79.32203389830508,26.232C80.33898305084746,25.885066666666667,81.35593220338983,25.553333333333335,82.37288135593221,25.3408C83.38983050847457,25.12826666666667,84.40677966101696,25.0656,85.42372881355932,24.9568C86.4406779661017,24.848,87.45762711864407,24.844266666666666,88.47457627118645,24.688C89.49152542372882,24.53173333333333,90.50847457627118,24.189600000000002,91.52542372881355,24.0192C92.54237288135593,23.8488,93.55932203389831,23.836266666666667,94.57627118644069,23.665599999999998C95.59322033898306,23.494933333333332,96.61016949152543,23.193600000000004,97.62711864406779,22.995200000000004C98.64406779661016,22.796800000000005,99.66101694915254,22.668799999999997,100.6779661016949,22.475199999999997C101.69491525423729,22.281599999999997,102.71186440677965,22.1008,103.72881355932203,21.8336C104.7457627118644,21.5664,105.76271186440678,21.179466666666666,106.77966101694915,20.872C107.79661016949153,20.564533333333333,108.8135593220339,20.258133333333333,109.83050847457628,19.9888C110.84745762711864,19.71946666666667,111.86440677966102,19.6888,112.88135593220339,19.256C113.89830508474576,18.8232,114.91525423728814,17.61173333333333,115.9322033898305,17.392C116.94915254237289,17.17226666666667,117.96610169491525,17.15973333333334,118.98305084745763,17.062400000000004C120,16.965066666666672,121.01694915254237,16.977600000000002,122.03389830508473,16.808C123.05084745762711,16.638399999999994,124.0677966101695,16.119466666666668,125.08474576271188,15.7824C126.10169491525424,15.445333333333336,127.11864406779662,15.010666666666665,128.135593220339,14.785599999999999C129.15254237288136,14.560533333333334,130.16949152542372,14.432,131.1864406779661,14.432C132.20338983050846,14.432,133.22033898305085,15.026133333333334,134.23728813559322,15.088C135.25423728813558,15.149866666666664,136.27118644067798,15.180799999999998,137.28813559322035,15.180799999999998C138.3050847457627,15.180799999999998,139.3220338983051,14.592,140.33898305084747,14.592C141.35593220338984,14.592,142.3728813559322,14.866933333333336,143.38983050847457,14.956800000000001C144.40677966101694,15.046666666666669,145.42372881355934,15.131199999999998,146.4406779661017,15.131199999999998C147.45762711864407,15.131199999999998,148.47457627118644,14.840533333333326,149.4915254237288,14.270399999999999C150.50847457627117,13.700266666666666,151.52542372881356,12.554133333333333,152.54237288135593,11.7104C153.5593220338983,10.866666666666667,154.5762711864407,9.845066666666666,155.59322033898306,9.207999999999998C156.61016949152543,8.570933333333336,157.6271186440678,8.191733333333335,158.64406779661016,7.888000000000002C159.66101694915253,7.584266666666666,160.67796610169492,7.641866666666668,161.6949152542373,7.385600000000001C162.71186440677965,7.129333333333334,163.72881355932205,6.7701333333333364,164.74576271186442,6.3504000000000005C165.76271186440678,5.930666666666668,166.77966101694915,4.8672,167.79661016949152,4.8672C168.81355932203388,4.8672,169.83050847457628,4.986666666666666,170.84745762711864,5.225599999999999C171.864406779661,5.464533333333332,172.8813559322034,6.513333333333332,173.89830508474577,7.116799999999999C174.91525423728814,7.7202666666666655,175.93220338983053,8.238133333333332,176.9491525423729,8.846400000000001C177.96610169491527,9.454666666666665,178.98305084745763,10.110533333333331,180,10.766399999999997"></path><path class="axis-ceiling" stroke-width="1" stroke="black" fill="none" d="M175,0L180,0"></path><text class="axis-ceiling-label" font-family="sans-serif" text-anchor="end" font-size="10px" x="170" y="2.5">25000</text></g></svg>