<svg xmlns="http://www.w3.org/2000/svg" viewBox="0 0 180 60"><g transform="translate(0,20)"><path class="area" fill="rgba(0, 0, 0, 0.2)" d="M0,37.3664C1.0344827586206897,36.9304,2.068965517241379,36.4944,3.103448275862069,36.4944C4.137931034482759,36.4944,5.172413793103448,36.946533333333335,6.206896551724138,37.2592C7.241379310344827,37.571866666666665,8.275862068965516,38.370400000000004,9.310344827586206,38.370400000000004C10.344827586206897,38.370400000000004,11.379310344827585,36.5368,12.413793103448276,36.5368C13.448275862068966,36.5368,14.482758620689655,36.6256,15.517241379310345,36.6256C16.551724137931036,36.6256,17.586206896551722,36.4648,18.620689655172413,36.4648C19.655172413793103,36.4648,20.689655172413794,36.7424,21.724137931034484,36.7424C22.758620689655174,36.7424,23.79310344827586,36.6648,24.82758620689655,36.6648C25.862068965517242,36.6648,26.896551724137932,36.94546666666667,27.931034482758623,37.2344C28.965517241379313,37.52333333333333,30,38.3984,31.03448275862069,38.3984C32.06896551724138,38.3984,33.103448275862064,36.65786666666667,34.137931034482754,36.4744C35.172413793103445,36.290933333333335,36.206896551724135,36.1992,37.241379310344826,36.1992C38.275862068965516,36.1992,39.310344827586206,36.284933333333335,40.3448275862069,36.3344C41.37931034482759,36.38386666666667,42.41379310344828,36.496,43.44827586206897,36.496C44.48275862068966,36.496,45.51724137931035,36.1536,46.55172413793104,36.1536C47.58620689655173,36.1536,48.62068965517241,36.513866666666665,49.6551724137931,36.7864C50.689655172413794,37.058933333333336,51.72413793103448,37.7888,52.75862068965517,37.7888C53.79310344827586,37.7888,54.827586206896555,35.63466666666667,55.862068965517246,35.296C56.896551724137936,34.95733333333334,57.93103448275862,34.91053333333333,58.96551724137931,34.788000000000004C60,34.66546666666667,61.03448275862069,34.5608,62.06896551724138,34.5608C63.10344827586207,34.5608,64.13793103448276,34.74,65.17241379310344,34.74C66.20689655172413,34.74,67.24137931034483,34.492000000000004,68.27586206896551,34.492000000000004C69.3103448275862,34.492000000000004,70.34482758620689,34.8412,71.37931034482759,35.1496C72.41379310344827,35.458,73.44827586206897,36.3424,74.48275862068965,36.3424C75.51724137931033,36.3424,76.55172413793103,32.40506666666666,77.58620689655172,31.7624C78.62068965517241,31.119733333333333,79.6551724137931,31.120400000000004,80.6896551724138,30.7984C81.72413793103448,30.4764,82.75862068965517,30.087199999999996,83.79310344827586,29.830399999999997C84.82758620689656,29.573599999999995,85.86206896551724,29.4508,86.89655172413794,29.2576C87.93103448275862,29.0644,88.96551724137932,28.6712,90,28.6712C91.0344827586207,28.6712,92.06896551724138,29.174933333333325,93.10344827586208,29.850399999999997C94.13793103448276,30.525866666666666,95.17241379310344,32.724000000000004,96.20689655172413,32.724000000000004C97.24137931034483,32.724000000000004,98.27586206896551,25.54693333333333,99.3103448275862,24.2008C100.3448275862069,22.85466666666667,101.37931034482759,22.616266666666675,102.41379310344828,22.181600000000003C103.44827586206897,21.746933333333335,104.48275862068965,21.7988,105.51724137931033,21.529600000000002C106.55172413793103,21.2604,107.58620689655172,20.891466666666666,108.62068965517241,20.566399999999998C109.65517241379311,20.24133333333333,110.6896551724138,19.5792,111.72413793103449,19.5792C112.75862068965517,19.5792,113.79310344827587,20.108,114.82758620689656,21.165599999999998C115.86206896551724,22.223199999999995,116.89655172413794,27.088800000000006,117.93103448275862,27.376800000000003C118.96551724137932,27.6648,120,27.808799999999998,121.0344827586207,27.808799999999998C122.06896551724138,27.808799999999998,123.10344827586208,13.322399999999996,124.13793103448276,10.877599999999997C125.17241379310344,8.432799999999999,126.20689655172414,8.0504,127.24137931034483,7.210399999999999C128.27586206896552,6.370399999999999,129.3103448275862,6.133066666666662,130.3448275862069,5.837599999999998C131.3793103448276,5.542133333333332,132.41379310344828,5.394399999999999,133.44827586206898,5.394399999999999C134.48275862068965,5.394399999999999,135.51724137931035,8.342800000000025,136.55172413793102,10.3688C137.58620689655172,12.394800000000012,138.6206896551724,17.550400000000003,139.6551724137931,17.550400000000003C140.6896551724138,17.550400000000003,141.72413793103448,4.2272,142.75862068965517,4.2272C143.79310344827587,4.2272,144.82758620689654,5.930399999999998,145.86206896551724,5.930399999999998C146.89655172413794,5.930399999999998,147.9310344827586,3.6347999999999963,148.9655172413793,2.897599999999998C150,2.160399999999993,151.0344827586207,1.5648000000000042,152.0689655172414,1.5072000000000019C153.10344827586206,1.4496000000000004,154.13793103448276,1.4207999999999998,155.17241379310343,1.4207999999999998C156.20689655172413,1.4207999999999998,157.24137931034483,5.951733333333321,158.27586206896552,8.298399999999999C159.31034482758622,10.645066666666654,160.3448275862069,15.500799999999998,161.3793103448276,15.500799999999998C162.41379310344828,15.500799999999998,163.44827586206895,7.383733333333332,164.48275862068965,4.865599999999999C165.51724137931035,2.347466666666666,166.55172413793102,0.39200000000000124,167.58620689655172,0.39200000000000124C168.6206896551724,0.39200000000000124,169.6551724137931,0.9023999999999972,170.6896551724138,1.4040000000000008C171.7241379310345,1.9055999999999997,172.75862068965517,3.394666666666666,173.79310344827587,3.4016C174.82758620689657,3.4085333333333345,175.86206896551724,3.4050666666666674,176.89655172413794,3.4120000000000017C177.93103448275863,3.418933333333336,178.9655172413793,5.361866666666668,180,7.3048L180,40C178.9655172413793,40,177.93103448275863,40,176.89655172413794,40C175.86206896551724,40,174.82758620689657,40,173.79310344827587,40C172.75862068965517,40,171.7241379310345,40,170.6896551724138,40C169.6551724137931,40,168.6206896551724,40,167.58620689655172,40C166.55172413793102,40,165.51724137931035,40,164.48275862068965,40C163.44827586206895,40,162.41379310344828,40,161.3793103448276,40C160.3448275862069,40,159.31034482758622,40,158.27586206896552,40C157.24137931034483,40,156.20689655172413,40,155.17241379310343,40C154.13793103448276,40,153.10344827586206,40,152.0689655172414,40C151.0344827586207,40,150,40,148.9655172413793,40C147.9310344827586,40,146.89655172413794,40,145.86206896551724,40C144.82758620689654,40,143.79310344827587,40,142.75862068965517,40C141.72413793103448,40,140.6896551724138,40,139.6551724137931,40C138.6206896551724,40,137.58620689655172,40,136.55172413793102,40C135.51724137931035,40,134.48275862068965,40,133.44827586206898,40C132.41379310344828,40,131.3793103448276,40,130.3448275862069,40C129.3103448275862,40,128.27586206896552,40,127.24137931034483,40C126.20689655172414,40,125.17241379310344,40,124.13793103448276,40C123.10344827586208,40,122.06896551724138,40,121.0344827586207,40C120,40,118.96551724137932,40,117.93103448275862,40C116.89655172413794,40,115.86206896551724,40,114.82758620689656,40C113.79310344827587,40,112.75862068965517,40,111.72413793103449,40C110.6896551724138,40,109.65517241379311,40,108.62068965517241,40C107.58620689655172,40,106.55172413793103,40,105.51724137931033,40C104.48275862068965,40,103.44827586206897,40,102.41379310344828,40C101.37931034482759,40,100.3448275862069,40,99.3103448275862,40C98.27586206896551,40,97.24137931034483,40,96.20689655172413,40C95.17241379310344,40,94.13793103448276,40,93.10344827586208,40C92.06896551724138,40,91.0344827586207,40,90,40C88.96551724137932,40,87.93103448275862,40,86.89655172413794,40C85.86206896551724,40,84.82758620689656,40,83.79310344827586,40C82.75862068965517,40,81.72413793103448,40,80.6896551724138,40C79.6551724137931,40,78.62068965517241,40,77.58620689655172,40C76.55172413793103,40,75.51724137931033,40,74.48275862068965,40C73.44827586206897,40,72.41379310344827,40,71.37931034482759,40C70.34482758620689,40,69.3103448275862,40,68.27586206896551,40C67.24137931034483,40,66.20689655172413,40,65.17241379310344,40C64.13793103448276,40,63.10344827586207,40,62.06896551724138,40C61.03448275862069,40,60,40,58.96551724137931,40C57.93103448275862,40,56.896551724137936,40,55.862068965517246,40C54.827586206896555,40,53.79310344827586,40,52.75862068965517,40C51.72413793103448,40,50.689655172413794,40,49.6551724137931,40C48.62068965517241,40,47.58620689655173,40,46.55172413793104,40C45.51724137931035,40,44.48275862068966,40,43.44827586206897,40C42.41379310344828,40,41.37931034482759,40,40.3448275862069,40C39.310344827586206,40,38.275862068965516,40,37.241379310344826,40C36.206896551724135,40,35.172413793103445,40,34.137931034482754,40C33.103448275862064,40,32.06896551724138,40,31.03448275862069,40C30,40,28.965517241379313,40,27.931034482758623,40C26.896551724137932,40,25.862068965517242,40,24.82758620689655,40C23.79310344827586,40,22.758620689655174,40,21.724137931034484,40C20.689655172413794,40,19.655172413793103,40,18.620689655172413,40C17.586206896551722,40,16.551724137931036,40,15.517241379310345,40C14.482758620689655,40,13.448275862068966,40,12.413793103448276,40C11.379310344827585,40,10.344827586206897,40,9.310344827586206,40C8.275862068965516,40,7.241379310344827,40,6.206896551724138,40C5.172413793103448,40,4.137931034482759,40,3.103448275862069,40C2.068965517241379,40,1.0344827586206897,40,0,40Z"></path><path class="line" stroke="black" fill="none" d="M0,37.3664C1.0344827586206897,36.9304,2.068965517241379,36.4944,3.103448275862069,36.4944C4.137931034482759,36.4944,5.172413793103448,36.946533333333335,6.206896551724138,37.2592C7.241379310344827,37.571866666666665,8.275862068965516,38.370400000000004,9.310344827586206,38.370400000000004C10.344827586206897,38.370400000000004,11.379310344827585,36.5368,12.413793103448276,36.5368C13.448275862068966,36.5368,14.482758620689655,36.6256,15.517241379310345,36.6256C16.551724137931036,36.6256,17.586206896551722,36.4648,18.620689655172413,36.4648C19.655172413793103,36.4648,20.689655172413794,36.7424,21.724137931034484,36.7424C22.758620689655174,36.7424,23.79310344827586,36.6648,24.82758620689655,36.6648C25.862068965517242,36.6648,26.896551724137932,36.94546666666667,27.931034482758623,37.2344C28.965517241379313,37.52333333333333,30,38.3984,31.03448275862069,38.3984C32.06896551724138,38.3984,33.103448275862064,36.65786666666667,34.137931034482754,36.4744C35.172413793103445,36.290933333333335,36.206896551724135,36.1992,37.241379310344826,36.1992C38.275862068965516,36.1992,39.310344827586206,36.284933333333335,40.3448275862069,36.3344C41.37931034482759,36.38386666666667,42.41379310344828,36.496,43.44827586206897,36.496C44.48275862068966,36.496,45.51724137931035,36.1536,46.55172413793104,36.1536C47.58620689655173,36.1536,48.62068965517241,36.513866666666665,49.6551724137931,36.7864C50.689655172413794,37.058933333333336,51.72413793103448,37.7888,52.75862068965517,37.7888C53.79310344827586,37.7888,54.827586206896555,35.63466666666667,55.862068965517246,35.296C56.896551724137936,34.95733333333334,57.93103448275862,34.91053333333333,58.96551724137931,34.788000000000004C60,34.66546666666667,61.03448275862069,34.5608,62.06896551724138,34.5608C63.10344827586207,34.5608,64.13793103448276,34.74,65.17241379310344,34.74C66.20689655172413,34.74,67.24137931034483,34.492000000000004,68.27586206896551,34.492000000000004C69.3103448275862,34.492000000000004,70.34482758620689,34.8412,71.37931034482759,35.1496C72.41379310344827,35.458,73.44827586206897,36.3424,74.48275862068965,36.3424C75.51724137931033,36.3424,76.55172413793103,32.40506666666666,77.58620689655172,31.7624C78.62068965517241,31.119733333333333,79.6551724137931,31.120400000000004,80.6896551724138,30.7984C81.72413793103448,30.4764,82.75862068965517,30.087199999999996,83.79310344827586,29.830399999999997C84.82758620689656,29.573599999999995,85.86206896551724,29.4508,86.89655172413794,29.2576C87.93103448275862,29.0644,88.96551724137932,28.6712,90,28.6712C91.0344827586207,28.6712,92.06896551724138,29.174933333333325,93.10344827586208,29.850399999999997C94.13793103448276,30.525866666666666,95.17241379310344,32.724000000000004,96.20689655172413,32.724000000000004C97.24137931034483,32.724000000000004,98.27586206896551,25.54693333333333,99.3103448275862,24.2008C100.3448275862069,22.85466666666667,101.37931034482759,22.616266666666675,102.41379310344828,22.181600000000003C103.44827586206897,21.746933333333335,104.48275862068965,21.7988,105.51724137931033,21.529600000000002C106.55172413793103,21.2604,107.58620689655172,20.891466666666666,108.62068965517241,20.566399999999998C109.65517241379311,20.24133333333333,110.6896551724138,19.5792,111.72413793103449,19.5792C112.75862068965517,19.5792,113.79310344827587,20.108,114.82758620689656,21.165599999999998C115.86206896551724,22.223199999999995,116.89655172413794,27.088800000000006,117.93103448275862,27.376800000000003C118.96551724137932,27.6648,120,27.808799999999998,121.0344827586207,27.808799999999998C122.06896551724138,27.808799999999998,123.10344827586208,13.322399999999996,124.13793103448276,10.877599999999997C125.17241379310344,8.432799999999999,126.20689655172414,8.0504,127.24137931034483,7.210399999999999C128.27586206896552,6.370399999999999,129.3103448275862,6.133066666666662,130.3448275862069,5.837599999999998C131.3793103448276,5.542133333333332,132.41379310344828,5.394399999999999,133.44827586206898,5.394399999999999C134.48275862068965,5.394399999999999,135.51724137931035,8.342800000000025,136.55172413793102,10.3688C137.58620689655172,12.394800000000012,138.6206896551724,17.550400000000003,139.6551724137931,17.550400000000003C140.6896551724138,17.550400000000003,141.72413793103448,4.2272,142.75862068965517,4.2272C143.79310344827587,4.2272,144.82758620689654,5.930399999999998,145.86206896551724,5.930399999999998C146.89655172413794,5.930399999999998,147.9310344827586,3.6347999999999963,148.9655172413793,2.897599999999998C150,2.160399999999993,151.0344827586207,1.5648000000000042,152.0689655172414,1.5072000000000019C153.10344827586206,1.4496000000000004,154.13793103448276,1.4207999999999998,155.17241379310343,1.4207999999999998C156.20689655172413,1.4207999999999998,157.24137931034483,5.951733333333321,158.27586206896552,8.298399999999999C159.31034482758622,10.645066666666654,160.3448275862069,15.500799999999998,161.3793103448276,15.500799999999998C162.41379310344828,15.500799999999998,163.44827586206895,7.383733333333332,164.48275862068965,4.865599999999999C165.51724137931035,2.347466666666666,166.55172413793102,0.39200000000000124,167.58620689655172,0.39200000000000124C168.6206896551724,0.39200000000000124,169.6551724137931,0.9023999999999972,170.6896551724138,1.4040000000000008C171.7241379310345,1.9055999999999997,172.75862068965517,3.394666666666666,173.79310344827587,3.4016C174.82758620689657,3.4085333333333345,175.86206896551724,3.4050666666666674,176.89655172413794,3.4120000000000017C177.93103448275863,3.418933333333336,178.9655172413793,5.361866666666668,180,7.3048"></path><path class="axis-ceiling" stroke-width="1" stroke="black" fill="none" d="M175,0L180,0"></path><text class="axis-ceiling-label" font-family="sans-serif" text-anchor="end" font-size="10px" x="170" y="2.5">50000</text></g></svg>