<svg xmlns="http://www.w3.org/2000/svg" viewBox="0 0 180 60"><g transform="translate(0,20)"><path class="area" fill="rgba(0, 0, 0, 0.2)" d="M0,15.56C1.0169491525423728,16.03666666666667,2.0338983050847457,16.51333333333334,3.0508474576271185,17.480000000000004C4.067796610169491,18.44666666666667,5.084745762711864,20.458666666666666,6.101694915254237,21.36C7.11864406779661,22.261333333333333,8.135593220338983,22.488000000000003,9.152542372881356,22.888C10.169491525423728,23.288,11.186440677966102,23.17866666666667,12.203389830508474,23.759999999999998C13.220338983050846,24.341333333333328,14.23728813559322,28.13333333333333,15.254237288135592,29.055999999999997C16.271186440677965,29.978666666666665,17.28813559322034,30.44,18.305084745762713,30.44C19.322033898305087,30.44,20.338983050847457,24.840000000000003,21.35593220338983,22.648000000000003C22.372881355932204,20.456000000000003,23.389830508474574,17.778666666666666,24.406779661016948,17.288C25.423728813559322,16.797333333333334,26.440677966101696,16.552,27.45762711864407,16.552C28.47457627118644,16.552,29.491525423728813,19.157333333333334,30.508474576271183,19.744C31.525423728813557,20.33066666666667,32.54237288135593,20.037333333333333,33.559322033898304,20.624000000000002C34.57627118644068,21.210666666666672,35.59322033898305,24.568000000000005,36.610169491525426,24.568000000000005C37.6271186440678,24.568000000000005,38.644067796610166,23.720000000000002,39.66101694915254,22.024C40.67796610169491,20.327999999999996,41.69491525423729,13.056000000000001,42.71186440677966,13.056000000000001C43.728813559322035,13.056000000000001,44.7457627118644,13.133333333333335,45.762711864406775,13.288000000000002C46.77966101694915,13.44266666666667,47.79661016949152,14.093333333333332,48.813559322033896,14.775999999999998C49.83050847457627,15.458666666666664,50.847457627118644,17.384,51.86440677966102,17.384C52.88135593220339,17.384,53.898305084745765,15.288,54.91525423728814,15.288C55.93220338983051,15.288,56.94915254237288,22.384,57.96610169491525,22.384C58.983050847457626,22.384,59.99999999999999,20.706666666666663,61.01694915254237,19.136000000000003C62.03389830508474,17.565333333333335,63.05084745762712,13.498666666666667,64.0677966101695,12.959999999999997C65.08474576271186,12.421333333333331,66.10169491525424,12.383999999999997,67.11864406779661,12.151999999999997C68.13559322033899,11.919999999999998,69.15254237288136,11.78266666666667,70.16949152542374,11.568000000000001C71.1864406779661,11.353333333333335,72.20338983050848,10.863999999999997,73.22033898305085,10.863999999999997C74.23728813559322,10.863999999999997,75.2542372881356,12.787999999999998,76.27118644067797,13.959999999999999C77.28813559322033,15.132,78.30508474576271,17.896,79.32203389830508,17.896C80.33898305084746,17.896,81.35593220338983,17.392,82.37288135593221,16.384C83.38983050847457,15.376000000000005,84.40677966101696,9.607999999999999,85.42372881355932,9.607999999999999C86.4406779661017,9.607999999999999,87.45762711864407,10.943999999999999,88.47457627118645,10.943999999999999C89.49152542372882,10.943999999999999,90.50847457627118,10.648,91.52542372881355,10.648C92.54237288135593,10.648,93.55932203389831,12.259999999999994,94.57627118644069,12.943999999999999C95.59322033898306,13.627999999999993,96.61016949152543,13.546666666666667,97.62711864406779,14.752C98.64406779661016,15.95733333333334,99.66101694915254,25.088,100.6779661016949,25.088C101.69491525423729,25.088,102.71186440677965,22.146666666666675,103.72881355932203,19.976C104.7457627118644,17.805333333333333,105.76271186440678,12.064,106.77966101694915,12.064C107.79661016949153,12.064,108.8135593220339,12.069333333333335,109.83050847457628,12.080000000000002C110.84745762711864,12.09066666666667,111.86440677966102,14.968,112.88135593220339,14.968C113.89830508474576,14.968,114.91525423728814,14.8,115.9322033898305,14.8C116.94915254237289,14.8,117.96610169491525,14.877333333333334,118.98305084745763,15.032C120,15.186666666666666,121.01694915254237,25.983999999999998,122.03389830508473,25.983999999999998C123.05084745762711,25.983999999999998,124.0677966101695,19.85466666666667,125.08474576271188,17.631999999999998C126.10169491525424,15.409333333333347,127.11864406779662,12.648000000000001,128.135593220339,12.648000000000001C129.15254237288136,12.648000000000001,130.16949152542372,12.672,131.1864406779661,12.719999999999999C132.20338983050846,12.767999999999997,133.22033898305085,14.905333333333335,134.23728813559322,16.720000000000002C135.25423728813558,18.53466666666667,136.27118644067798,23.224000000000007,137.28813559322035,23.608000000000004C138.3050847457627,23.992,139.3220338983051,23.938666666666666,140.33898305084747,24.184C141.35593220338984,24.429333333333332,142.3728813559322,25.08,143.38983050847457,25.08C144.40677966101694,25.08,145.42372881355934,21.72533333333334,146.4406779661017,21.176C147.45762711864407,20.626666666666665,148.47457627118644,20.351999999999997,149.4915254237288,20.351999999999997C150.50847457627117,20.351999999999997,151.52542372881356,26.184000000000005,152.54237288135593,26.184000000000005C153.5593220338983,26.184000000000005,154.5762711864407,25.42666666666667,155.59322033898306,23.912C156.61016949152543,22.397333333333343,157.6271186440678,17.68933333333332,158.64406779661016,14.68C159.66101694915253,11.670666666666651,160.67796610169492,5.855999999999999,161.6949152542373,5.855999999999999C162.71186440677965,5.855999999999999,163.72881355932205,14.832,164.74576271186442,14.832C165.76271186440678,14.832,166.77966101694915,14.261333333333333,167.79661016949152,13.119999999999997C168.81355932203388,11.978666666666651,169.83050847457628,3.6560000000000015,170.84745762711864,3.6560000000000015C171.864406779661,3.6560000000000015,172.8813559322034,4.174666666666669,173.89830508474577,4.904000000000002C174.91525423728814,5.633333333333335,175.93220338983053,5.946666666666667,176.9491525423729,8.032C177.96610169491527,10.117333333333313,178.98305084745763,23.782666666666657,180,37.448L180,40C178.98305084745763,40,177.96610169491527,40,176.9491525423729,40C175.93220338983053,40,174.91525423728814,40,173.89830508474577,40C172.8813559322034,40,171.864406779661,40,170.84745762711864,40C169.83050847457628,40,168.81355932203388,40,167.79661016949152,40C166.77966101694915,40,165.76271186440678,40,164.74576271186442,40C163.72881355932205,40,162.71186440677965,40,161.6949152542373,40C160.67796610169492,40,159.66101694915253,40,158.64406779661016,40C157.6271186440678,40,156.61016949152543,40,155.59322033898306,40C154.5762711864407,40,153.5593220338983,40,152.54237288135593,40C151.52542372881356,40,150.50847457627117,40,149.4915254237288,40C148.47457627118644,40,147.45762711864407,40,146.4406779661017,40C145.42372881355934,40,144.40677966101694,40,143.38983050847457,40C142.3728813559322,40,141.35593220338984,40,140.33898305084747,40C139.3220338983051,40,138.3050847457627,40,137.28813559322035,40C136.27118644067798,40,135.25423728813558,40,134.23728813559322,40C133.22033898305085,40,132.20338983050846,40,131.1864406779661,40C130.16949152542372,40,129.15254237288136,40,128.135593220339,40C127.11864406779662,40,126.10169491525424,40,125.08474576271188,40C124.0677966101695,40,123.05084745762711,40,122.03389830508473,40C121.01694915254237,40,120,40,118.98305084745763,40C117.96610169491525,40,116.94915254237289,40,115.9322033898305,40C114.91525423728814,40,113.89830508474576,40,112.88135593220339,40C111.86440677966102,40,110.84745762711864,40,109.83050847457628,40C108.8135593220339,40,107.79661016949153,40,106.77966101694915,40C105.76271186440678,40,104.7457627118644,40,103.72881355932203,40C102.71186440677965,40,101.69491525423729,40,100.6779661016949,40C99.66101694915254,40,98.64406779661016,40,97.62711864406779,40C96.61016949152543,40,95.59322033898306,40,94.57627118644069,40C93.55932203389831,40,92.54237288135593,40,91.52542372881355,40C90.50847457627118,40,89.49152542372882,40,88.47457627118645,40C87.45762711864407,40,86.4406779661017,40,85.42372881355932,40C84.40677966101696,40,83.38983050847457,40,82.37288135593221,40C81.35593220338983,40,80.33898305084746,40,79.32203389830508,40C78.30508474576271,40,77.28813559322033,40,76.27118644067797,40C75.2542372881356,40,74.23728813559322,40,73.22033898305085,40C72.20338983050848,40,71.1864406779661,40,70.16949152542374,40C69.15254237288136,40,68.13559322033899,40,67.11864406779661,40C66.10169491525424,40,65.08474576271186,40,64.0677966101695,40C63.05084745762712,40,62.03389830508474,40,61.01694915254237,40C59.99999999999999,40,58.983050847457626,40,57.96610169491525,40C56.94915254237288,40,55.93220338983051,40,54.91525423728814,40C53.898305084745765,40,52.88135593220339,40,51.86440677966102,40C50.847457627118644,40,49.83050847457627,40,48.813559322033896,40C47.79661016949152,40,46.77966101694915,40,45.762711864406775,40C44.7457627118644,40,43.728813559322035,40,42.71186440677966,40C41.69491525423729,40,40.67796610169491,40,39.66101694915254,40C38.644067796610166,40,37.6271186440678,40,36.610169491525426,40C35.59322033898305,40,34.57627118644068,40,33.559322033898304,40C32.54237288135593,40,31.525423728813557,40,30.508474576271183,40C29.491525423728813,40,28.47457627118644,40,27.45762711864407,40C26.440677966101696,40,25.423728813559322,40,24.406779661016948,40C23.389830508474574,40,22.372881355932204,40,21.35593220338983,40C20.338983050847457,40,19.322033898305087,40,18.305084745762713,40C17.28813559322034,40,16.271186440677965,40,15.254237288135592,40C14.23728813559322,40,13.220338983050846,40,12.203389830508474,40C11.186440677966102,40,10.169491525423728,40,9.152542372881356,40C8.135593220338983,40,7.11864406779661,40,6.101694915254237,40C5.084745762711864,40,4.067796610169491,40,3.0508474576271185,40C2.0338983050847457,40,1.0169491525423728,40,0,40Z"></path><path class="line" stroke="black" fill="none" d="M0,15.56C1.0169491525423728,16.03666666666667,2.0338983050847457,16.51333333333334,3.0508474576271185,17.480000000000004C4.067796610169491,18.44666666666667,5.084745762711864,20.458666666666666,6.101694915254237,21.36C7.11864406779661,22.261333333333333,8.135593220338983,22.488000000000003,9.152542372881356,22.888C10.169491525423728,23.288,11.186440677966102,23.17866666666667,12.203389830508474,23.759999999999998C13.220338983050846,24.341333333333328,14.23728813559322,28.13333333333333,15.254237288135592,29.055999999999997C16.271186440677965,29.978666666666665,17.28813559322034,30.44,18.305084745762713,30.44C19.322033898305087,30.44,20.338983050847457,24.840000000000003,21.35593220338983,22.648000000000003C22.372881355932204,20.456000000000003,23.389830508474574,17.778666666666666,24.406779661016948,17.288C25.423728813559322,16.797333333333334,26.440677966101696,16.552,27.45762711864407,16.552C28.47457627118644,16.552,29.491525423728813,19.157333333333334,30.508474576271183,19.744C31.525423728813557,20.33066666666667,32.54237288135593,20.037333333333333,33.559322033898304,20.624000000000002C34.57627118644068,21.210666666666672,35.59322033898305,24.568000000000005,36.610169491525426,24.568000000000005C37.6271186440678,24.568000000000005,38.644067796610166,23.720000000000002,39.66101694915254,22.024C40.67796610169491,20.327999999999996,41.69491525423729,13.056000000000001,42.71186440677966,13.056000000000001C43.728813559322035,13.056000000000001,44.7457627118644,13.133333333333335,45.762711864406775,13.288000000000002C46.77966101694915,13.44266666666667,47.79661016949152,14.093333333333332,48.813559322033896,14.775999999999998C49.83050847457627,15.458666666666664,50.847457627118644,17.384,51.86440677966102,17.384C52.88135593220339,17.384,53.898305084745765,15.288,54.91525423728814,15.288C55.93220338983051,15.288,56.94915254237288,22.384,57.96610169491525,22.384C58.983050847457626,22.384,59.99999999999999,20.706666666666663,61.01694915254237,19.136000000000003C62.03389830508474,17.565333333333335,63.05084745762712,13.498666666666667,64.0677966101695,12.959999999999997C65.08474576271186,12.421333333333331,66.10169491525424,12.383999999999997,67.11864406779661,12.151999999999997C68.13559322033899,11.919999999999998,69.15254237288136,11.78266666666667,70.16949152542374,11.568000000000001C71.1864406779661,11.353333333333335,72.20338983050848,10.863999999999997,73.22033898305085,10.863999999999997C74.23728813559322,10.863999999999997,75.2542372881356,12.787999999999998,76.27118644067797,13.959999999999999C77.28813559322033,15.132,78.30508474576271,17.896,79.32203389830508,17.896C80.33898305084746,17.896,81.35593220338983,17.392,82.37288135593221,16.384C83.38983050847457,15.376000000000005,84.40677966101696,9.607999999999999,85.42372881355932,9.607999999999999C86.4406779661017,9.607999999999999,87.45762711864407,10.943999999999999,88.47457627118645,10.943999999999999C89.49152542372882,10.943999999999999,90.50847457627118,10.648,91.52542372881355,10.648C92.54237288135593,10.648,93.55932203389831,12.259999999999994,94.57627118644069,12.943999999999999C95.59322033898306,13.627999999999993,96.61016949152543,13.546666666666667,97.62711864406779,14.752C98.64406779661016,15.95733333333334,99.66101694915254,25.088,100.6779661016949,25.088C101.69491525423729,25.088,102.71186440677965,22.146666666666675,103.72881355932203,19.976C104.7457627118644,17.805333333333333,105.76271186440678,12.064,106.77966101694915,12.064C107.79661016949153,12.064,108.8135593220339,12.069333333333335,109.83050847457628,12.080000000000002C110.84745762711864,12.09066666666667,111.86440677966102,14.968,112.88135593220339,14.968C113.89830508474576,14.968,114.91525423728814,14.8,115.9322033898305,14.8C116.94915254237289,14.8,117.96610169491525,14.877333333333334,118.98305084745763,15.032C120,15.186666666666666,121.01694915254237,25.983999999999998,122.03389830508473,25.983999999999998C123.05084745762711,25.983999999999998,124.0677966101695,19.85466666666667,125.08474576271188,17.631999999999998C126.10169491525424,15.409333333333347,127.11864406779662,12.648000000000001,128.135593220339,12.648000000000001C129.15254237288136,12.648000000000001,130.16949152542372,12.672,131.1864406779661,12.719999999999999C132.20338983050846,12.767999999999997,133.22033898305085,14.905333333333335,134.23728813559322,16.720000000000002C135.25423728813558,18.53466666666667,136.27118644067798,23.224000000000007,137.28813559322035,23.608000000000004C138.3050847457627,23.992,139.3220338983051,23.938666666666666,140.33898305084747,24.184C141.35593220338984,24.429333333333332,142.3728813559322,25.08,143.38983050847457,25.08C144.40677966101694,25.08,145.42372881355934,21.72533333333334,146.4406779661017,21.176C147.45762711864407,20.626666666666665,148.47457627118644,20.351999999999997,149.4915254237288,20.351999999999997C150.50847457627117,20.351999999999997,151.52542372881356,26.184000000000005,152.54237288135593,26.184000000000005C153.5593220338983,26.184000000000005,154.5762711864407,25.42666666666667,155.59322033898306,23.912C156.61016949152543,22.397333333333343,157.6271186440678,17.68933333333332,158.64406779661016,14.68C159.66101694915253,11.670666666666651,160.67796610169492,5.855999999999999,161.6949152542373,5.855999999999999C162.71186440677965,5.855999999999999,163.72881355932205,14.832,164.74576271186442,14.832C165.76271186440678,14.832,166.77966101694915,14.261333333333333,167.79661016949152,13.119999999999997C168.81355932203388,11.978666666666651,169.83050847457628,3.6560000000000015,170.84745762711864,3.6560000000000015C171.864406779661,3.6560000000000015,172.8813559322034,4.174666666666669,173.89830508474577,4.904000000000002C174.91525423728814,5.633333333333335,175.93220338983053,5.946666666666667,176.9491525423729,8.032C177.96610169491527,10.117333333333313,178.98305084745763,23.782666666666657,180,37.448"></path><path class="axis-ceiling" stroke-width="1" stroke="black" fill="none" d="M175,0L180,0"></path><text class="axis-ceiling-label" font-family="sans-serif" text-anchor="end" font-size="10px" x="170" y="2.5">5000</text></g></svg>