<svg xmlns="http://www.w3.org/2000/svg" viewBox="0 0 180 60"><g transform="translate(0,20)"><path class="area" fill="rgba(0, 0, 0, 0.2)" d="M0,9.155555555555557C1.0169491525423728,9.244444444444444,2.0338983050847457,9.333333333333332,3.0508474576271185,9.333333333333332C4.067796610169491,9.333333333333332,5.084745762711864,9.303703703703704,6.101694915254237,9.244444444444447C7.11864406779661,9.18518518518519,8.135593220338983,9.14074074074074,9.152542372881356,8.977777777777778C10.169491525423728,8.814814814814815,11.186440677966102,8.266666666666666,12.203389830508474,8.266666666666666C13.220338983050846,8.266666666666666,14.23728813559322,10.044444444444443,15.254237288135592,10.044444444444443C16.271186440677965,10.044444444444443,17.28813559322034,9.42222222222222,18.305084745762713,9.42222222222222C19.322033898305087,9.42222222222222,20.338983050847457,9.866666666666667,21.35593220338983,9.866666666666667C22.372881355932204,9.866666666666667,23.389830508474574,9.244444444444444,24.406779661016948,9.066666666666666C25.423728813559322,8.888888888888888,26.440677966101696,8.799999999999999,27.45762711864407,8.799999999999999C28.47457627118644,8.799999999999999,29.491525423728813,9.955555555555556,30.508474576271183,10.844444444444443C31.525423728813557,11.733333333333333,32.54237288135593,14.014814814814821,33.559322033898304,14.133333333333336C34.57627118644068,14.251851851851852,35.59322033898305,14.192592592592595,36.610169491525426,14.31111111111111C37.6271186440678,14.429629629629625,38.644067796610166,14.844444444444441,39.66101694915254,14.844444444444441C40.67796610169491,14.844444444444441,41.69491525423729,14.31111111111111,42.71186440677966,14.31111111111111C43.728813559322035,14.31111111111111,44.7457627118644,14.696296296296293,45.762711864406775,14.844444444444441C46.77966101694915,14.99259259259259,47.79661016949152,15.2,48.813559322033896,15.2C49.83050847457627,15.2,50.847457627118644,13.73333333333333,51.86440677966102,12.799999999999997C52.88135593220339,11.866666666666664,53.898305084745765,10.325925925925924,54.91525423728814,9.6C55.93220338983051,8.874074074074077,56.94915254237288,8.444444444444446,57.96610169491525,8.444444444444446C58.983050847457626,8.444444444444446,59.99999999999999,8.444444444444446,61.01694915254237,8.444444444444446C62.03389830508474,8.444444444444446,63.05084745762712,8.97777777777778,64.0677966101695,9.155555555555557C65.08474576271186,9.333333333333334,66.10169491525424,9.42222222222222,67.11864406779661,9.51111111111111C68.13559322033899,9.599999999999998,69.15254237288136,9.614814814814816,70.16949152542374,9.68888888888889C71.1864406779661,9.762962962962964,72.20338983050848,9.822222222222225,73.22033898305085,9.955555555555557C74.23728813559322,10.08888888888889,75.2542372881356,10.48888888888889,76.27118644067797,10.48888888888889C77.28813559322033,10.48888888888889,78.30508474576271,10.37037037037037,79.32203389830508,10.31111111111111C80.33898305084746,10.25185185185185,81.35593220338983,10.251851851851852,82.37288135593221,10.133333333333333C83.38983050847457,10.014814814814816,84.40677966101696,9.348148148148146,85.42372881355932,9.066666666666666C86.4406779661017,8.785185185185185,87.45762711864407,8.503703703703707,88.47457627118645,8.444444444444446C89.49152542372882,8.385185185185186,90.50847457627118,8.355555555555556,91.52542372881355,8.355555555555556C92.54237288135593,8.355555555555556,93.55932203389831,9.066666666666666,94.57627118644069,9.066666666666666C95.59322033898306,9.066666666666666,96.61016949152543,8.725925925925926,97.62711864406779,8.444444444444446C98.64406779661016,8.162962962962965,99.66101694915254,7.614814814814811,100.6779661016949,7.377777777777776C101.69491525423729,7.140740740740741,102.71186440677965,7.022222222222223,103.72881355932203,7.022222222222223C104.7457627118644,7.022222222222223,105.76271186440678,8.02962962962963,106.77966101694915,8.266666666666666C107.79661016949153,8.503703703703701,108.8135593220339,8.62222222222222,109.83050847457628,8.62222222222222C110.84745762711864,8.62222222222222,111.86440677966102,8.444444444444445,112.88135593220339,8.355555555555556C113.89830508474576,8.266666666666667,114.91525423728814,8.148148148148149,115.9322033898305,8.088888888888889C116.94915254237289,8.029629629629628,117.96610169491525,7.999999999999998,118.98305084745763,7.999999999999998C120,7.999999999999998,121.01694915254237,9.866666666666667,122.03389830508473,9.866666666666667C123.05084745762711,9.866666666666667,124.0677966101695,9.481481481481481,125.08474576271188,9.42222222222222C126.10169491525424,9.362962962962962,127.11864406779662,9.333333333333332,128.135593220339,9.333333333333332C129.15254237288136,9.333333333333332,130.16949152542372,9.333333333333332,131.1864406779661,9.333333333333332C132.20338983050846,9.333333333333332,133.22033898305085,8.948148148148146,134.23728813559322,8.799999999999999C135.25423728813558,8.651851851851852,136.27118644067798,8.444444444444446,137.28813559322035,8.444444444444446C138.3050847457627,8.444444444444446,139.3220338983051,8.711111111111109,140.33898305084747,8.711111111111109C141.35593220338984,8.711111111111109,142.3728813559322,8.088888888888889,143.38983050847457,8.088888888888889C144.40677966101694,8.088888888888889,145.42372881355934,8.503703703703701,146.4406779661017,8.62222222222222C147.45762711864407,8.740740740740737,148.47457627118644,8.725925925925925,149.4915254237288,8.799999999999999C150.50847457627117,8.874074074074073,151.52542372881356,8.948148148148148,152.54237288135593,9.066666666666666C153.5593220338983,9.185185185185185,154.5762711864407,9.51111111111111,155.59322033898306,9.51111111111111C156.61016949152543,9.51111111111111,157.6271186440678,8.88888888888889,158.64406779661016,8.88888888888889C159.66101694915253,8.88888888888889,160.67796610169492,10.133333333333333,161.6949152542373,10.133333333333333C162.71186440677965,10.133333333333333,163.72881355932205,9.25925925925926,164.74576271186442,8.711111111111109C165.76271186440678,8.162962962962963,166.77966101694915,7.674074074074067,167.79661016949152,6.844444444444444C168.81355932203388,6.014814814814813,169.83050847457628,4.562962962962965,170.84745762711864,3.733333333333335C171.864406779661,2.9037037037037052,172.8813559322034,2.474074074074073,173.89830508474577,1.8666666666666654C174.91525423728814,1.2592592592592577,175.93220338983053,0.08888888888888946,176.9491525423729,0.08888888888888946C177.96610169491527,0.08888888888888946,178.98305084745763,0.7111111111111112,180,1.333333333333333L180,40C178.98305084745763,40,177.96610169491527,40,176.9491525423729,40C175.93220338983053,40,174.91525423728814,40,173.89830508474577,40C172.8813559322034,40,171.864406779661,40,170.84745762711864,40C169.83050847457628,40,168.81355932203388,40,167.79661016949152,40C166.77966101694915,40,165.76271186440678,40,164.74576271186442,40C163.72881355932205,40,162.71186440677965,40,161.6949152542373,40C160.67796610169492,40,159.66101694915253,40,158.64406779661016,40C157.6271186440678,40,156.61016949152543,40,155.59322033898306,40C154.5762711864407,40,153.5593220338983,40,152.54237288135593,40C151.52542372881356,40,150.50847457627117,40,149.4915254237288,40C148.47457627118644,40,147.45762711864407,40,146.4406779661017,40C145.42372881355934,40,144.40677966101694,40,143.38983050847457,40C142.3728813559322,40,141.35593220338984,40,140.33898305084747,40C139.3220338983051,40,138.3050847457627,40,137.28813559322035,40C136.27118644067798,40,135.25423728813558,40,134.23728813559322,40C133.22033898305085,40,132.20338983050846,40,131.1864406779661,40C130.16949152542372,40,129.15254237288136,40,128.135593220339,40C127.11864406779662,40,126.10169491525424,40,125.08474576271188,40C124.0677966101695,40,123.05084745762711,40,122.03389830508473,40C121.01694915254237,40,120,40,118.98305084745763,40C117.96610169491525,40,116.94915254237289,40,115.9322033898305,40C114.91525423728814,40,113.89830508474576,40,112.88135593220339,40C111.86440677966102,40,110.84745762711864,40,109.83050847457628,40C108.8135593220339,40,107.79661016949153,40,106.77966101694915,40C105.76271186440678,40,104.7457627118644,40,103.72881355932203,40C102.71186440677965,40,101.69491525423729,40,100.6779661016949,40C99.66101694915254,40,98.64406779661016,40,97.62711864406779,40C96.61016949152543,40,95.59322033898306,40,94.57627118644069,40C93.55932203389831,40,92.54237288135593,40,91.52542372881355,40C90.50847457627118,40,89.49152542372882,40,88.47457627118645,40C87.45762711864407,40,86.4406779661017,40,85.42372881355932,40C84.40677966101696,40,83.38983050847457,40,82.37288135593221,40C81.35593220338983,40,80.33898305084746,40,79.32203389830508,40C78.30508474576271,40,77.28813559322033,40,76.27118644067797,40C75.2542372881356,40,74.23728813559322,40,73.22033898305085,40C72.20338983050848,40,71.1864406779661,40,70.16949152542374,40C69.15254237288136,40,68.13559322033899,40,67.11864406779661,40C66.10169491525424,40,65.08474576271186,40,64.0677966101695,40C63.05084745762712,40,62.03389830508474,40,61.01694915254237,40C59.99999999999999,40,58.983050847457626,40,57.96610169491525,40C56.94915254237288,40,55.93220338983051,40,54.91525423728814,40C53.898305084745765,40,52.88135593220339,40,51.86440677966102,40C50.847457627118644,40,49.83050847457627,40,48.813559322033896,40C47.79661016949152,40,46.77966101694915,40,45.762711864406775,40C44.7457627118644,40,43.728813559322035,40,42.71186440677966,40C41.69491525423729,40,40.67796610169491,40,39.66101694915254,40C38.644067796610166,40,37.6271186440678,40,36.610169491525426,40C35.59322033898305,40,34.57627118644068,40,33.559322033898304,40C32.54237288135593,40,31.525423728813557,40,30.508474576271183,40C29.491525423728813,40,28.47457627118644,40,27.45762711864407,40C26.440677966101696,40,25.423728813559322,40,24.406779661016948,40C23.389830508474574,40,22.372881355932204,40,21.35593220338983,40C20.338983050847457,40,19.322033898305087,40,18.305084745762713,40C17.28813559322034,40,16.271186440677965,40,15.254237288135592,40C14.23728813559322,40,13.220338983050846,40,12.203389830508474,40C11.186440677966102,40,10.169491525423728,40,9.152542372881356,40C8.135593220338983,40,7.11864406779661,40,6.101694915254237,40C5.084745762711864,40,4.067796610169491,40,3.0508474576271185,40C2.0338983050847457,40,1.0169491525423728,40,0,40Z"></path><path class="line" stroke="black" fill="none" d="M0,9.155555555555557C1.0169491525423728,9.244444444444444,2.0338983050847457,9.333333333333332,3.0508474576271185,9.333333333333332C4.067796610169491,9.333333333333332,5.084745762711864,9.303703703703704,6.101694915254237,9.244444444444447C7.11864406779661,9.18518518518519,8.135593220338983,9.14074074074074,9.152542372881356,8.977777777777778C10.169491525423728,8.814814814814815,11.186440677966102,8.266666666666666,12.203389830508474,8.266666666666666C13.220338983050846,8.266666666666666,14.23728813559322,10.044444444444443,15.254237288135592,10.044444444444443C16.271186440677965,10.044444444444443,17.28813559322034,9.42222222222222,18.305084745762713,9.42222222222222C19.322033898305087,9.42222222222222,20.338983050847457,9.866666666666667,21.35593220338983,9.866666666666667C22.372881355932204,9.866666666666667,23.389830508474574,9.244444444444444,24.406779661016948,9.066666666666666C25.423728813559322,8.888888888888888,26.440677966101696,8.799999999999999,27.45762711864407,8.799999999999999C28.47457627118644,8.799999999999999,29.491525423728813,9.955555555555556,30.508474576271183,10.844444444444443C31.525423728813557,11.733333333333333,32.54237288135593,14.014814814814821,33.559322033898304,14.133333333333336C34.57627118644068,14.251851851851852,35.59322033898305,14.192592592592595,36.610169491525426,14.31111111111111C37.6271186440678,14.429629629629625,38.644067796610166,14.844444444444441,39.66101694915254,14.844444444444441C40.67796610169491,14.844444444444441,41.69491525423729,14.31111111111111,42.71186440677966,14.31111111111111C43.728813559322035,14.31111111111111,44.7457627118644,14.696296296296293,45.762711864406775,14.844444444444441C46.77966101694915,14.99259259259259,47.79661016949152,15.2,48.813559322033896,15.2C49.83050847457627,15.2,50.847457627118644,13.73333333333333,51.86440677966102,12.799999999999997C52.88135593220339,11.866666666666664,53.898305084745765,10.325925925925924,54.91525423728814,9.6C55.93220338983051,8.874074074074077,56.94915254237288,8.444444444444446,57.96610169491525,8.444444444444446C58.983050847457626,8.444444444444446,59.99999999999999,8.444444444444446,61.01694915254237,8.444444444444446C62.03389830508474,8.444444444444446,63.05084745762712,8.97777777777778,64.0677966101695,9.155555555555557C65.08474576271186,9.333333333333334,66.10169491525424,9.42222222222222,67.11864406779661,9.51111111111111C68.13559322033899,9.599999999999998,69.15254237288136,9.614814814814816,70.16949152542374,9.68888888888889C71.1864406779661,9.762962962962964,72.20338983050848,9.822222222222225,73.22033898305085,9.955555555555557C74.23728813559322,10.08888888888889,75.2542372881356,10.48888888888889,76.27118644067797,10.48888888888889C77.28813559322033,10.48888888888889,78.30508474576271,10.37037037037037,79.32203389830508,10.31111111111111C80.33898305084746,10.25185185185185,81.35593220338983,10.251851851851852,82.37288135593221,10.133333333333333C83.38983050847457,10.014814814814816,84.40677966101696,9.348148148148146,85.42372881355932,9.066666666666666C86.4406779661017,8.785185185185185,87.45762711864407,8.503703703703707,88.47457627118645,8.444444444444446C89.49152542372882,8.385185185185186,90.50847457627118,8.355555555555556,91.52542372881355,8.355555555555556C92.54237288135593,8.355555555555556,93.55932203389831,9.066666666666666,94.57627118644069,9.066666666666666C95.59322033898306,9.066666666666666,96.61016949152543,8.725925925925926,97.62711864406779,8.444444444444446C98.64406779661016,8.162962962962965,99.66101694915254,7.614814814814811,100.6779661016949,7.377777777777776C101.69491525423729,7.140740740740741,102.71186440677965,7.022222222222223,103.72881355932203,7.022222222222223C104.7457627118644,7.022222222222223,105.76271186440678,8.02962962962963,106.77966101694915,8.266666666666666C107.79661016949153,8.503703703703701,108.8135593220339,8.62222222222222,109.83050847457628,8.62222222222222C110.84745762711864,8.62222222222222,111.86440677966102,8.444444444444445,112.88135593220339,8.355555555555556C113.89830508474576,8.266666666666667,114.91525423728814,8.148148148148149,115.9322033898305,8.088888888888889C116.94915254237289,8.029629629629628,117.96610169491525,7.999999999999998,118.98305084745763,7.999999999999998C120,7.999999999999998,121.01694915254237,9.866666666666667,122.03389830508473,9.866666666666667C123.05084745762711,9.866666666666667,124.0677966101695,9.481481481481481,125.08474576271188,9.42222222222222C126.10169491525424,9.362962962962962,127.11864406779662,9.333333333333332,128.135593220339,9.333333333333332C129.15254237288136,9.333333333333332,130.16949152542372,9.333333333333332,131.1864406779661,9.333333333333332C132.20338983050846,9.333333333333332,133.22033898305085,8.948148148148146,134.23728813559322,8.799999999999999C135.25423728813558,8.651851851851852,136.27118644067798,8.444444444444446,137.28813559322035,8.444444444444446C138.3050847457627,8.444444444444446,139.3220338983051,8.711111111111109,140.33898305084747,8.711111111111109C141.35593220338984,8.711111111111109,142.3728813559322,8.088888888888889,143.38983050847457,8.088888888888889C144.40677966101694,8.088888888888889,145.42372881355934,8.503703703703701,146.4406779661017,8.62222222222222C147.45762711864407,8.740740740740737,148.47457627118644,8.725925925925925,149.4915254237288,8.799999999999999C150.50847457627117,8.874074074074073,151.52542372881356,8.948148148148148,152.54237288135593,9.066666666666666C153.5593220338983,9.185185185185185,154.5762711864407,9.51111111111111,155.59322033898306,9.51111111111111C156.61016949152543,9.51111111111111,157.6271186440678,8.88888888888889,158.64406779661016,8.88888888888889C159.66101694915253,8.88888888888889,160.67796610169492,10.133333333333333,161.6949152542373,10.133333333333333C162.71186440677965,10.133333333333333,163.72881355932205,9.25925925925926,164.74576271186442,8.711111111111109C165.76271186440678,8.162962962962963,166.77966101694915,7.674074074074067,167.79661016949152,6.844444444444444C168.81355932203388,6.014814814814813,169.83050847457628,4.562962962962965,170.84745762711864,3.733333333333335C171.864406779661,2.9037037037037052,172.8813559322034,2.474074074074073,173.89830508474577,1.8666666666666654C174.91525423728814,1.2592592592592577,175.93220338983053,0.08888888888888946,176.9491525423729,0.08888888888888946C177.96610169491527,0.08888888888888946,178.98305084745763,0.7111111111111112,180,1.333333333333333"></path><path class="axis-ceiling" stroke-width="1" stroke="black" fill="none" d="M175,0L180,0"></path><text class="axis-ceiling-label" font-family="sans-serif" text-anchor="end" font-size="10px" x="170" y="2.5">450</text></g></svg>