<svg xmlns="http://www.w3.org/2000/svg" viewBox="0 0 180 60"><g transform="translate(0,20)"><path class="area" fill="rgba(0, 0, 0, 0.2)" d="M0,39.992000000000004C1.0169491525423728,39.996,2.0338983050847457,40,3.0508474576271185,40C4.067796610169491,40,5.084745762711864,39.984,6.101694915254237,39.984C7.11864406779661,39.984,8.135593220338983,39.989333333333335,9.152542372881356,39.992000000000004C10.169491525423728,39.99466666666667,11.186440677966102,40,12.203389830508474,40C13.220338983050846,40,14.23728813559322,39.992000000000004,15.254237288135592,39.992000000000004C16.271186440677965,39.992000000000004,17.28813559322034,40,18.305084745762713,40C19.322033898305087,40,20.338983050847457,40,21.35593220338983,40C22.372881355932204,40,23.389830508474574,39.99733333333334,24.406779661016948,39.992000000000004C25.423728813559322,39.98666666666667,26.440677966101696,39.97333333333333,27.45762711864407,39.967999999999996C28.47457627118644,39.962666666666664,29.491525423728813,39.965333333333334,30.508474576271183,39.96C31.525423728813557,39.95466666666667,32.54237288135593,39.936,33.559322033898304,39.936C34.57627118644068,39.936,35.59322033898305,39.967999999999996,36.610169491525426,39.967999999999996C37.6271186440678,39.967999999999996,38.644067796610166,39.88,39.66101694915254,39.88C40.67796610169491,39.88,41.69491525423729,39.976,42.71186440677966,39.976C43.728813559322035,39.976,44.7457627118644,39.96666666666666,45.762711864406775,39.952C46.77966101694915,39.93733333333333,47.79661016949152,39.913333333333334,48.813559322033896,39.888C49.83050847457627,39.86266666666666,50.847457627118644,39.81066666666666,51.86440677966102,39.8C52.88135593220339,39.78933333333333,53.898305084745765,39.794666666666664,54.91525423728814,39.784C55.93220338983051,39.77333333333333,56.94915254237288,39.504,57.96610169491525,39.488C58.983050847457626,39.472,59.99999999999999,39.48,61.01694915254237,39.464C62.03389830508474,39.448,63.05084745762712,38.88000000000001,64.0677966101695,38.864000000000004C65.08474576271186,38.848,66.10169491525424,38.856,67.11864406779661,38.839999999999996C68.13559322033899,38.82399999999999,69.15254237288136,37.867999999999995,70.16949152542374,37.528C71.1864406779661,37.188,72.20338983050848,37.285333333333334,73.22033898305085,36.800000000000004C74.23728813559322,36.314666666666675,75.2542372881356,34.550666666666665,76.27118644067797,33.592C77.28813559322033,32.63333333333333,78.30508474576271,31.808,79.32203389830508,31.048000000000002C80.33898305084746,30.288,81.35593220338983,29.556,82.37288135593221,29.032C83.38983050847457,28.508000000000003,84.40677966101696,28.101333333333333,85.42372881355932,27.904C86.4406779661017,27.706666666666663,87.45762711864407,27.607999999999997,88.47457627118645,27.607999999999997C89.49152542372882,27.607999999999997,90.50847457627118,28.464,91.52542372881355,28.464C92.54237288135593,28.464,93.55932203389831,27.825333333333347,94.57627118644069,26.92C95.59322033898306,26.01466666666667,96.61016949152543,24.26533333333333,97.62711864406779,23.032C98.64406779661016,21.798666666666662,99.66101694915254,20.65733333333333,100.6779661016949,19.52C101.69491525423729,18.382666666666662,102.71186440677965,17.003999999999998,103.72881355932203,16.208C104.7457627118644,15.412000000000003,105.76271186440678,14.744000000000002,106.77966101694915,14.744000000000002C107.79661016949153,14.744000000000002,108.8135593220339,19.210666666666665,109.83050847457628,19.392C110.84745762711864,19.573333333333334,111.86440677966102,19.664,112.88135593220339,19.664C113.89830508474576,19.664,114.91525423728814,16.975999999999992,115.9322033898305,14.775999999999998C116.94915254237289,12.575999999999995,117.96610169491525,6.479999999999997,118.98305084745763,6.463999999999999C120,6.448,121.01694915254237,6.4559999999999995,122.03389830508473,6.440000000000001C123.05084745762711,6.424000000000003,124.0677966101695,5.352000000000001,125.08474576271188,5.352000000000001C126.10169491525424,5.352000000000001,127.11864406779662,5.936000000000001,128.135593220339,7.103999999999999C129.15254237288136,8.271999999999993,130.16949152542372,15.687999999999999,131.1864406779661,15.687999999999999C132.20338983050846,15.687999999999999,133.22033898305085,13.684000000000001,134.23728813559322,12.288C135.25423728813558,10.892,136.27118644067798,8.613333333333332,137.28813559322035,7.3119999999999985C138.3050847457627,6.010666666666665,139.3220338983051,5.254666666666668,140.33898305084747,4.4799999999999995C141.35593220338984,3.7053333333333383,142.3728813559322,2.6639999999999997,143.38983050847457,2.6639999999999997C144.40677966101694,2.6639999999999997,145.42372881355934,6.4959999999999996,146.4406779661017,6.4959999999999996C147.45762711864407,6.4959999999999996,148.47457627118644,5.688,149.4915254237288,5.688C150.50847457627117,5.688,151.52542372881356,14.28,152.54237288135593,14.28C153.5593220338983,14.28,154.5762711864407,10.264000000000003,155.59322033898306,10.264000000000003C156.61016949152543,10.264000000000003,157.6271186440678,10.783999999999999,158.64406779661016,10.783999999999999C159.66101694915253,10.783999999999999,160.67796610169492,6.143999999999998,161.6949152542373,6.143999999999998C162.71186440677965,6.143999999999998,163.72881355932205,7.656000000000001,164.74576271186442,7.656000000000001C165.76271186440678,7.656000000000001,166.77966101694915,4.096000000000002,167.79661016949152,4.096000000000002C168.81355932203388,4.096000000000002,169.83050847457628,7.6999999999999975,170.84745762711864,10.503999999999998C171.864406779661,13.307999999999998,172.8813559322034,20.92,173.89830508474577,20.92C174.91525423728814,20.92,175.93220338983053,14.392,176.9491525423729,14.392C177.96610169491527,14.392,178.98305084745763,21.944,180,29.496000000000002L180,40C178.98305084745763,40,177.96610169491527,40,176.9491525423729,40C175.93220338983053,40,174.91525423728814,40,173.89830508474577,40C172.8813559322034,40,171.864406779661,40,170.84745762711864,40C169.83050847457628,40,168.81355932203388,40,167.79661016949152,40C166.77966101694915,40,165.76271186440678,40,164.74576271186442,40C163.72881355932205,40,162.71186440677965,40,161.6949152542373,40C160.67796610169492,40,159.66101694915253,40,158.64406779661016,40C157.6271186440678,40,156.61016949152543,40,155.59322033898306,40C154.5762711864407,40,153.5593220338983,40,152.54237288135593,40C151.52542372881356,40,150.50847457627117,40,149.4915254237288,40C148.47457627118644,40,147.45762711864407,40,146.4406779661017,40C145.42372881355934,40,144.40677966101694,40,143.38983050847457,40C142.3728813559322,40,141.35593220338984,40,140.33898305084747,40C139.3220338983051,40,138.3050847457627,40,137.28813559322035,40C136.27118644067798,40,135.25423728813558,40,134.23728813559322,40C133.22033898305085,40,132.20338983050846,40,131.1864406779661,40C130.16949152542372,40,129.15254237288136,40,128.135593220339,40C127.11864406779662,40,126.10169491525424,40,125.08474576271188,40C124.0677966101695,40,123.05084745762711,40,122.03389830508473,40C121.01694915254237,40,120,40,118.98305084745763,40C117.96610169491525,40,116.94915254237289,40,115.9322033898305,40C114.91525423728814,40,113.89830508474576,40,112.88135593220339,40C111.86440677966102,40,110.84745762711864,40,109.83050847457628,40C108.8135593220339,40,107.79661016949153,40,106.77966101694915,40C105.76271186440678,40,104.7457627118644,40,103.72881355932203,40C102.71186440677965,40,101.69491525423729,40,100.6779661016949,40C99.66101694915254,40,98.64406779661016,40,97.62711864406779,40C96.61016949152543,40,95.59322033898306,40,94.57627118644069,40C93.55932203389831,40,92.54237288135593,40,91.52542372881355,40C90.50847457627118,40,89.49152542372882,40,88.47457627118645,40C87.45762711864407,40,86.4406779661017,40,85.42372881355932,40C84.40677966101696,40,83.38983050847457,40,82.37288135593221,40C81.35593220338983,40,80.33898305084746,40,79.32203389830508,40C78.30508474576271,40,77.28813559322033,40,76.27118644067797,40C75.2542372881356,40,74.23728813559322,40,73.22033898305085,40C72.20338983050848,40,71.1864406779661,40,70.16949152542374,40C69.15254237288136,40,68.13559322033899,40,67.11864406779661,40C66.10169491525424,40,65.08474576271186,40,64.0677966101695,40C63.05084745762712,40,62.03389830508474,40,61.01694915254237,40C59.99999999999999,40,58.983050847457626,40,57.96610169491525,40C56.94915254237288,40,55.93220338983051,40,54.91525423728814,40C53.898305084745765,40,52.88135593220339,40,51.86440677966102,40C50.847457627118644,40,49.83050847457627,40,48.813559322033896,40C47.79661016949152,40,46.77966101694915,40,45.762711864406775,40C44.7457627118644,40,43.728813559322035,40,42.71186440677966,40C41.69491525423729,40,40.67796610169491,40,39.66101694915254,40C38.644067796610166,40,37.6271186440678,40,36.610169491525426,40C35.59322033898305,40,34.57627118644068,40,33.559322033898304,40C32.54237288135593,40,31.525423728813557,40,30.508474576271183,40C29.491525423728813,40,28.47457627118644,40,27.45762711864407,40C26.440677966101696,40,25.423728813559322,40,24.406779661016948,40C23.389830508474574,40,22.372881355932204,40,21.35593220338983,40C20.338983050847457,40,19.322033898305087,40,18.305084745762713,40C17.28813559322034,40,16.271186440677965,40,15.254237288135592,40C14.23728813559322,40,13.220338983050846,40,12.203389830508474,40C11.186440677966102,40,10.169491525423728,40,9.152542372881356,40C8.135593220338983,40,7.11864406779661,40,6.101694915254237,40C5.084745762711864,40,4.067796610169491,40,3.0508474576271185,40C2.0338983050847457,40,1.0169491525423728,40,0,40Z"></path><path class="line" stroke="black" fill="none" d="M0,39.992000000000004C1.0169491525423728,39.996,2.0338983050847457,40,3.0508474576271185,40C4.067796610169491,40,5.084745762711864,39.984,6.101694915254237,39.984C7.11864406779661,39.984,8.135593220338983,39.989333333333335,9.152542372881356,39.992000000000004C10.169491525423728,39.99466666666667,11.186440677966102,40,12.203389830508474,40C13.220338983050846,40,14.23728813559322,39.992000000000004,15.254237288135592,39.992000000000004C16.271186440677965,39.992000000000004,17.28813559322034,40,18.305084745762713,40C19.322033898305087,40,20.338983050847457,40,21.35593220338983,40C22.372881355932204,40,23.389830508474574,39.99733333333334,24.406779661016948,39.992000000000004C25.423728813559322,39.98666666666667,26.440677966101696,39.97333333333333,27.45762711864407,39.967999999999996C28.47457627118644,39.962666666666664,29.491525423728813,39.965333333333334,30.508474576271183,39.96C31.525423728813557,39.95466666666667,32.54237288135593,39.936,33.559322033898304,39.936C34.57627118644068,39.936,35.59322033898305,39.967999999999996,36.610169491525426,39.967999999999996C37.6271186440678,39.967999999999996,38.644067796610166,39.88,39.66101694915254,39.88C40.67796610169491,39.88,41.69491525423729,39.976,42.71186440677966,39.976C43.728813559322035,39.976,44.7457627118644,39.96666666666666,45.762711864406775,39.952C46.77966101694915,39.93733333333333,47.79661016949152,39.913333333333334,48.813559322033896,39.888C49.83050847457627,39.86266666666666,50.847457627118644,39.81066666666666,51.86440677966102,39.8C52.88135593220339,39.78933333333333,53.898305084745765,39.794666666666664,54.91525423728814,39.784C55.93220338983051,39.77333333333333,56.94915254237288,39.504,57.96610169491525,39.488C58.983050847457626,39.472,59.99999999999999,39.48,61.01694915254237,39.464C62.03389830508474,39.448,63.05084745762712,38.88000000000001,64.0677966101695,38.864000000000004C65.08474576271186,38.848,66.10169491525424,38.856,67.11864406779661,38.839999999999996C68.13559322033899,38.82399999999999,69.15254237288136,37.867999999999995,70.16949152542374,37.528C71.1864406779661,37.188,72.20338983050848,37.285333333333334,73.22033898305085,36.800000000000004C74.23728813559322,36.314666666666675,75.2542372881356,34.550666666666665,76.27118644067797,33.592C77.28813559322033,32.63333333333333,78.30508474576271,31.808,79.32203389830508,31.048000000000002C80.33898305084746,30.288,81.35593220338983,29.556,82.37288135593221,29.032C83.38983050847457,28.508000000000003,84.40677966101696,28.101333333333333,85.42372881355932,27.904C86.4406779661017,27.706666666666663,87.45762711864407,27.607999999999997,88.47457627118645,27.607999999999997C89.49152542372882,27.607999999999997,90.50847457627118,28.464,91.52542372881355,28.464C92.54237288135593,28.464,93.55932203389831,27.825333333333347,94.57627118644069,26.92C95.59322033898306,26.01466666666667,96.61016949152543,24.26533333333333,97.62711864406779,23.032C98.64406779661016,21.798666666666662,99.66101694915254,20.65733333333333,100.6779661016949,19.52C101.69491525423729,18.382666666666662,102.71186440677965,17.003999999999998,103.72881355932203,16.208C104.7457627118644,15.412000000000003,105.76271186440678,14.744000000000002,106.77966101694915,14.744000000000002C107.79661016949153,14.744000000000002,108.8135593220339,19.210666666666665,109.83050847457628,19.392C110.84745762711864,19.573333333333334,111.86440677966102,19.664,112.88135593220339,19.664C113.89830508474576,19.664,114.91525423728814,16.975999999999992,115.9322033898305,14.775999999999998C116.94915254237289,12.575999999999995,117.96610169491525,6.479999999999997,118.98305084745763,6.463999999999999C120,6.448,121.01694915254237,6.4559999999999995,122.03389830508473,6.440000000000001C123.05084745762711,6.424000000000003,124.0677966101695,5.352000000000001,125.08474576271188,5.352000000000001C126.10169491525424,5.352000000000001,127.11864406779662,5.936000000000001,128.135593220339,7.103999999999999C129.15254237288136,8.271999999999993,130.16949152542372,15.687999999999999,131.1864406779661,15.687999999999999C132.20338983050846,15.687999999999999,133.22033898305085,13.684000000000001,134.23728813559322,12.288C135.25423728813558,10.892,136.27118644067798,8.613333333333332,137.28813559322035,7.3119999999999985C138.3050847457627,6.010666666666665,139.3220338983051,5.254666666666668,140.33898305084747,4.4799999999999995C141.35593220338984,3.7053333333333383,142.3728813559322,2.6639999999999997,143.38983050847457,2.6639999999999997C144.40677966101694,2.6639999999999997,145.42372881355934,6.4959999999999996,146.4406779661017,6.4959999999999996C147.45762711864407,6.4959999999999996,148.47457627118644,5.688,149.4915254237288,5.688C150.50847457627117,5.688,151.52542372881356,14.28,152.54237288135593,14.28C153.5593220338983,14.28,154.5762711864407,10.264000000000003,155.59322033898306,10.264000000000003C156.61016949152543,10.264000000000003,157.6271186440678,10.783999999999999,158.64406779661016,10.783999999999999C159.66101694915253,10.783999999999999,160.67796610169492,6.143999999999998,161.6949152542373,6.143999999999998C162.71186440677965,6.143999999999998,163.72881355932205,7.656000000000001,164.74576271186442,7.656000000000001C165.76271186440678,7.656000000000001,166.77966101694915,4.096000000000002,167.79661016949152,4.096000000000002C168.81355932203388,4.096000000000002,169.83050847457628,7.6999999999999975,170.84745762711864,10.503999999999998C171.864406779661,13.307999999999998,172.8813559322034,20.92,173.89830508474577,20.92C174.91525423728814,20.92,175.93220338983053,14.392,176.9491525423729,14.392C177.96610169491527,14.392,178.98305084745763,21.944,180,29.496000000000002"></path><path class="axis-ceiling" stroke-width="1" stroke="black" fill="none" d="M175,0L180,0"></path><text class="axis-ceiling-label" font-family="sans-serif" text-anchor="end" font-size="10px" x="170" y="2.5">5000</text></g></svg>