<svg xmlns="http://www.w3.org/2000/svg" viewBox="0 0 180 60"><g transform="translate(0,20)"><path class="area" fill="rgba(0, 0, 0, 0.2)" d="M0,26.520000000000003C1.0344827586206897,29.000000000000004,2.068965517241379,31.48,3.103448275862069,31.48C4.137931034482759,31.48,5.172413793103448,27.080000000000002,6.206896551724138,27.080000000000002C7.241379310344827,27.080000000000002,8.275862068965516,27.279999999999998,9.310344827586206,27.279999999999998C10.344827586206897,27.279999999999998,11.379310344827585,23.32,12.413793103448276,23.32C13.448275862068966,23.32,14.482758620689655,25.266666666666666,15.517241379310345,25.8C16.551724137931036,26.333333333333336,17.586206896551722,26.10666666666667,18.620689655172413,26.6C19.655172413793103,27.093333333333334,20.689655172413794,27.599999999999998,21.724137931034484,28.759999999999998C22.758620689655174,29.919999999999998,23.79310344827586,33.56,24.82758620689655,33.56C25.862068965517242,33.56,26.896551724137932,27.400000000000002,27.931034482758623,27.080000000000002C28.965517241379313,26.76,30,26.92,31.03448275862069,26.6C32.06896551724138,26.28,33.103448275862064,20.6,34.137931034482754,20.6C35.172413793103445,20.6,36.206896551724135,24.52,37.241379310344826,24.52C38.275862068965516,24.52,39.310344827586206,21.639999999999997,40.3448275862069,21.639999999999997C41.37931034482759,21.639999999999997,42.41379310344828,27.226666666666667,43.44827586206897,29.2C44.48275862068966,31.173333333333332,45.51724137931035,33.48,46.55172413793104,33.48C47.58620689655173,33.48,48.62068965517241,27.373333333333335,49.6551724137931,26.12C50.689655172413794,24.866666666666667,51.72413793103448,24.24,52.75862068965517,24.24C53.79310344827586,24.24,54.827586206896555,26.240000000000002,55.862068965517246,26.240000000000002C56.896551724137936,26.240000000000002,57.93103448275862,22.759999999999998,58.96551724137931,22.759999999999998C60,22.759999999999998,61.03448275862069,22.813333333333333,62.06896551724138,22.919999999999998C63.10344827586207,23.026666666666664,64.13793103448276,25.179999999999996,65.17241379310344,26.799999999999997C66.20689655172413,28.419999999999998,67.24137931034483,32.64,68.27586206896551,32.64C69.3103448275862,32.64,70.34482758620689,32.32,71.37931034482759,32.32C72.41379310344827,32.32,73.44827586206897,34.8,74.48275862068965,34.8C75.51724137931033,34.8,76.55172413793103,28.05333333333332,77.58620689655172,26.639999999999997C78.62068965517241,25.226666666666667,79.6551724137931,25.413333333333334,80.6896551724138,24.52C81.72413793103448,23.62666666666667,82.75862068965517,21.28,83.79310344827586,21.28C84.82758620689656,21.28,85.86206896551724,26.413333333333327,86.89655172413794,28.479999999999997C87.93103448275862,30.546666666666656,88.96551724137932,33.68,90,33.68C91.0344827586207,33.68,92.06896551724138,24.8,93.10344827586208,24.8C94.13793103448276,24.8,95.17241379310344,24.84,96.20689655172413,24.84C97.24137931034483,24.84,98.27586206896551,22.759999999999998,99.3103448275862,22.759999999999998C100.3448275862069,22.759999999999998,101.37931034482759,24.68,102.41379310344828,24.68C103.44827586206897,24.68,104.48275862068965,23.56,105.51724137931033,23.56C106.55172413793103,23.56,107.58620689655172,27.65333333333333,108.62068965517241,29.439999999999998C109.65517241379311,31.226666666666667,110.6896551724138,34.28,111.72413793103449,34.28C112.75862068965517,34.28,113.79310344827587,25.72,114.82758620689656,25.72C115.86206896551724,25.72,116.89655172413794,26.479999999999997,117.93103448275862,26.479999999999997C118.96551724137932,26.479999999999997,120,22.160000000000004,121.0344827586207,22.160000000000004C122.06896551724138,22.160000000000004,123.10344827586208,24.24,124.13793103448276,24.24C125.17241379310344,24.24,126.20689655172414,20,127.24137931034483,20C128.27586206896552,20,129.3103448275862,25.346666666666675,130.3448275862069,27.68C131.3793103448276,30.013333333333346,132.41379310344828,34,133.44827586206898,34C134.48275862068965,34,135.51724137931035,29.539999999999996,136.55172413793102,27.96C137.58620689655172,26.379999999999978,138.6206896551724,26.073333333333345,139.6551724137931,24.52C140.6896551724138,22.96666666666667,141.72413793103448,18.64,142.75862068965517,18.64C143.79310344827587,18.64,144.82758620689654,22.90666666666667,145.86206896551724,23.28C146.89655172413794,23.653333333333332,147.9310344827586,23.46666666666667,148.9655172413793,23.84C150,24.213333333333335,151.0344827586207,27.206666666666653,152.0689655172414,28.759999999999998C153.10344827586206,30.313333333333315,154.13793103448276,33.16,155.17241379310343,33.16C156.20689655172413,33.16,157.24137931034483,28.793333333333333,158.27586206896552,27.279999999999998C159.31034482758622,25.766666666666676,160.3448275862069,24.08,161.3793103448276,24.08C162.41379310344828,24.08,163.44827586206895,24.439999999999998,164.48275862068965,24.439999999999998C165.51724137931035,24.439999999999998,166.55172413793102,22.04,167.58620689655172,22.04C168.6206896551724,22.04,169.6551724137931,22.573333333333334,170.6896551724138,23.64C171.7241379310345,24.70666666666666,172.75862068965517,27.25333333333333,173.79310344827587,28.56C174.82758620689657,29.866666666666667,175.86206896551724,31.48,176.89655172413794,31.48C177.93103448275863,31.48,178.9655172413793,28.8,180,26.12L180,40C178.9655172413793,40,177.93103448275863,40,176.89655172413794,40C175.86206896551724,40,174.82758620689657,40,173.79310344827587,40C172.75862068965517,40,171.7241379310345,40,170.6896551724138,40C169.6551724137931,40,168.6206896551724,40,167.58620689655172,40C166.55172413793102,40,165.51724137931035,40,164.48275862068965,40C163.44827586206895,40,162.41379310344828,40,161.3793103448276,40C160.3448275862069,40,159.31034482758622,40,158.27586206896552,40C157.24137931034483,40,156.20689655172413,40,155.17241379310343,40C154.13793103448276,40,153.10344827586206,40,152.0689655172414,40C151.0344827586207,40,150,40,148.9655172413793,40C147.9310344827586,40,146.89655172413794,40,145.86206896551724,40C144.82758620689654,40,143.79310344827587,40,142.75862068965517,40C141.72413793103448,40,140.6896551724138,40,139.6551724137931,40C138.6206896551724,40,137.58620689655172,40,136.55172413793102,40C135.51724137931035,40,134.48275862068965,40,133.44827586206898,40C132.41379310344828,40,131.3793103448276,40,130.3448275862069,40C129.3103448275862,40,128.27586206896552,40,127.24137931034483,40C126.20689655172414,40,125.17241379310344,40,124.13793103448276,40C123.10344827586208,40,122.06896551724138,40,121.0344827586207,40C120,40,118.96551724137932,40,117.93103448275862,40C116.89655172413794,40,115.86206896551724,40,114.82758620689656,40C113.79310344827587,40,112.75862068965517,40,111.72413793103449,40C110.6896551724138,40,109.65517241379311,40,108.62068965517241,40C107.58620689655172,40,106.55172413793103,40,105.51724137931033,40C104.48275862068965,40,103.44827586206897,40,102.41379310344828,40C101.37931034482759,40,100.3448275862069,40,99.3103448275862,40C98.27586206896551,40,97.24137931034483,40,96.20689655172413,40C95.17241379310344,40,94.13793103448276,40,93.10344827586208,40C92.06896551724138,40,91.0344827586207,40,90,40C88.96551724137932,40,87.93103448275862,40,86.89655172413794,40C85.86206896551724,40,84.82758620689656,40,83.79310344827586,40C82.75862068965517,40,81.72413793103448,40,80.6896551724138,40C79.6551724137931,40,78.62068965517241,40,77.58620689655172,40C76.55172413793103,40,75.51724137931033,40,74.48275862068965,40C73.44827586206897,40,72.41379310344827,40,71.37931034482759,40C70.34482758620689,40,69.3103448275862,40,68.27586206896551,40C67.24137931034483,40,66.20689655172413,40,65.17241379310344,40C64.13793103448276,40,63.10344827586207,40,62.06896551724138,40C61.03448275862069,40,60,40,58.96551724137931,40C57.93103448275862,40,56.896551724137936,40,55.862068965517246,40C54.827586206896555,40,53.79310344827586,40,52.75862068965517,40C51.72413793103448,40,50.689655172413794,40,49.6551724137931,40C48.62068965517241,40,47.58620689655173,40,46.55172413793104,40C45.51724137931035,40,44.48275862068966,40,43.44827586206897,40C42.41379310344828,40,41.37931034482759,40,40.3448275862069,40C39.310344827586206,40,38.275862068965516,40,37.241379310344826,40C36.206896551724135,40,35.172413793103445,40,34.137931034482754,40C33.103448275862064,40,32.06896551724138,40,31.03448275862069,40C30,40,28.965517241379313,40,27.931034482758623,40C26.896551724137932,40,25.862068965517242,40,24.82758620689655,40C23.79310344827586,40,22.758620689655174,40,21.724137931034484,40C20.689655172413794,40,19.655172413793103,40,18.620689655172413,40C17.586206896551722,40,16.551724137931036,40,15.517241379310345,40C14.482758620689655,40,13.448275862068966,40,12.413793103448276,40C11.379310344827585,40,10.344827586206897,40,9.310344827586206,40C8.275862068965516,40,7.241379310344827,40,6.206896551724138,40C5.172413793103448,40,4.137931034482759,40,3.103448275862069,40C2.068965517241379,40,1.0344827586206897,40,0,40Z"></path><path class="line" stroke="black" fill="none" d="M0,26.520000000000003C1.0344827586206897,29.000000000000004,2.068965517241379,31.48,3.103448275862069,31.48C4.137931034482759,31.48,5.172413793103448,27.080000000000002,6.206896551724138,27.080000000000002C7.241379310344827,27.080000000000002,8.275862068965516,27.279999999999998,9.310344827586206,27.279999999999998C10.344827586206897,27.279999999999998,11.379310344827585,23.32,12.413793103448276,23.32C13.448275862068966,23.32,14.482758620689655,25.266666666666666,15.517241379310345,25.8C16.551724137931036,26.333333333333336,17.586206896551722,26.10666666666667,18.620689655172413,26.6C19.655172413793103,27.093333333333334,20.689655172413794,27.599999999999998,21.724137931034484,28.759999999999998C22.758620689655174,29.919999999999998,23.79310344827586,33.56,24.82758620689655,33.56C25.862068965517242,33.56,26.896551724137932,27.400000000000002,27.931034482758623,27.080000000000002C28.965517241379313,26.76,30,26.92,31.03448275862069,26.6C32.06896551724138,26.28,33.103448275862064,20.6,34.137931034482754,20.6C35.172413793103445,20.6,36.206896551724135,24.52,37.241379310344826,24.52C38.275862068965516,24.52,39.310344827586206,21.639999999999997,40.3448275862069,21.639999999999997C41.37931034482759,21.639999999999997,42.41379310344828,27.226666666666667,43.44827586206897,29.2C44.48275862068966,31.173333333333332,45.51724137931035,33.48,46.55172413793104,33.48C47.58620689655173,33.48,48.62068965517241,27.373333333333335,49.6551724137931,26.12C50.689655172413794,24.866666666666667,51.72413793103448,24.24,52.75862068965517,24.24C53.79310344827586,24.24,54.827586206896555,26.240000000000002,55.862068965517246,26.240000000000002C56.896551724137936,26.240000000000002,57.93103448275862,22.759999999999998,58.96551724137931,22.759999999999998C60,22.759999999999998,61.03448275862069,22.813333333333333,62.06896551724138,22.919999999999998C63.10344827586207,23.026666666666664,64.13793103448276,25.179999999999996,65.17241379310344,26.799999999999997C66.20689655172413,28.419999999999998,67.24137931034483,32.64,68.27586206896551,32.64C69.3103448275862,32.64,70.34482758620689,32.32,71.37931034482759,32.32C72.41379310344827,32.32,73.44827586206897,34.8,74.48275862068965,34.8C75.51724137931033,34.8,76.55172413793103,28.05333333333332,77.58620689655172,26.639999999999997C78.62068965517241,25.226666666666667,79.6551724137931,25.413333333333334,80.6896551724138,24.52C81.72413793103448,23.62666666666667,82.75862068965517,21.28,83.79310344827586,21.28C84.82758620689656,21.28,85.86206896551724,26.413333333333327,86.89655172413794,28.479999999999997C87.93103448275862,30.546666666666656,88.96551724137932,33.68,90,33.68C91.0344827586207,33.68,92.06896551724138,24.8,93.10344827586208,24.8C94.13793103448276,24.8,95.17241379310344,24.84,96.20689655172413,24.84C97.24137931034483,24.84,98.27586206896551,22.759999999999998,99.3103448275862,22.759999999999998C100.3448275862069,22.759999999999998,101.37931034482759,24.68,102.41379310344828,24.68C103.44827586206897,24.68,104.48275862068965,23.56,105.51724137931033,23.56C106.55172413793103,23.56,107.58620689655172,27.65333333333333,108.62068965517241,29.439999999999998C109.65517241379311,31.226666666666667,110.6896551724138,34.28,111.72413793103449,34.28C112.75862068965517,34.28,113.79310344827587,25.72,114.82758620689656,25.72C115.86206896551724,25.72,116.89655172413794,26.479999999999997,117.93103448275862,26.479999999999997C118.96551724137932,26.479999999999997,120,22.160000000000004,121.0344827586207,22.160000000000004C122.06896551724138,22.160000000000004,123.10344827586208,24.24,124.13793103448276,24.24C125.17241379310344,24.24,126.20689655172414,20,127.24137931034483,20C128.27586206896552,20,129.3103448275862,25.346666666666675,130.3448275862069,27.68C131.3793103448276,30.013333333333346,132.41379310344828,34,133.44827586206898,34C134.48275862068965,34,135.51724137931035,29.539999999999996,136.55172413793102,27.96C137.58620689655172,26.379999999999978,138.6206896551724,26.073333333333345,139.6551724137931,24.52C140.6896551724138,22.96666666666667,141.72413793103448,18.64,142.75862068965517,18.64C143.79310344827587,18.64,144.82758620689654,22.90666666666667,145.86206896551724,23.28C146.89655172413794,23.653333333333332,147.9310344827586,23.46666666666667,148.9655172413793,23.84C150,24.213333333333335,151.0344827586207,27.206666666666653,152.0689655172414,28.759999999999998C153.10344827586206,30.313333333333315,154.13793103448276,33.16,155.17241379310343,33.16C156.20689655172413,33.16,157.24137931034483,28.793333333333333,158.27586206896552,27.279999999999998C159.31034482758622,25.766666666666676,160.3448275862069,24.08,161.3793103448276,24.08C162.41379310344828,24.08,163.44827586206895,24.439999999999998,164.48275862068965,24.439999999999998C165.51724137931035,24.439999999999998,166.55172413793102,22.04,167.58620689655172,22.04C168.6206896551724,22.04,169.6551724137931,22.573333333333334,170.6896551724138,23.64C171.7241379310345,24.70666666666666,172.75862068965517,27.25333333333333,173.79310344827587,28.56C174.82758620689657,29.866666666666667,175.86206896551724,31.48,176.89655172413794,31.48C177.93103448275863,31.48,178.9655172413793,28.8,180,26.12"></path><path class="axis-ceiling" stroke-width="1" stroke="black" fill="none" d="M175,0L180,0"></path><text class="axis-ceiling-label" font-family="sans-serif" text-anchor="end" font-size="10px" x="170" y="2.5">1000</text></g></svg>