<svg xmlns="http://www.w3.org/2000/svg" viewBox="0 0 180 60"><g transform="translate(0,20)"><path class="area" fill="rgba(0, 0, 0, 0.2)" d="M0,20.117333333333335C1.0169491525423728,20.086666666666666,2.0338983050847457,20.056,3.0508474576271185,19.93333333333333C4.067796610169491,19.81066666666666,5.084745762711864,16.704,6.101694915254237,16.704C7.11864406779661,16.704,8.135593220338983,20.026666666666667,9.152542372881356,21.018666666666668C10.169491525423728,22.01066666666667,11.186440677966102,22.656,12.203389830508474,22.656C13.220338983050846,22.656,14.23728813559322,19.575555555555557,15.254237288135592,18.389333333333333C16.271186440677965,17.20311111111111,17.28813559322034,16.58222222222222,18.305084745762713,15.538666666666664C19.322033898305087,14.49511111111111,20.338983050847457,12.163555555555556,21.35593220338983,12.128C22.372881355932204,12.092444444444444,23.389830508474574,12.110222222222221,24.406779661016948,12.074666666666666C25.423728813559322,12.03911111111111,26.440677966101696,11.573333333333334,27.45762711864407,11.573333333333334C28.47457627118644,11.573333333333334,29.491525423728813,12.967555555555556,30.508474576271183,13.919999999999998C31.525423728813557,14.872444444444444,32.54237288135593,16.27288888888889,33.559322033898304,17.288C34.57627118644068,18.30311111111111,35.59322033898305,20.010666666666665,36.610169491525426,20.010666666666665C37.6271186440678,20.010666666666665,38.644067796610166,16.439555555555554,39.66101694915254,14.877333333333333C40.67796610169491,13.315111111111108,41.69491525423729,12.08977777777778,42.71186440677966,10.637333333333334C43.728813559322035,9.184888888888892,44.7457627118644,6.162666666666667,45.762711864406775,6.162666666666667C46.77966101694915,6.162666666666667,47.79661016949152,6.243555555555556,48.813559322033896,6.405333333333334C49.83050847457627,6.567111111111112,50.847457627118644,8.579555555555554,51.86440677966102,9.535999999999998C52.88135593220339,10.492444444444441,53.898305084745765,12.143999999999998,54.91525423728814,12.143999999999998C55.93220338983051,12.143999999999998,56.94915254237288,11.017333333333333,57.96610169491525,9.837333333333333C58.983050847457626,8.657333333333334,59.99999999999999,6.1480000000000015,61.01694915254237,5.064000000000002C62.03389830508474,3.979999999999997,63.05084745762712,3.992888888888893,64.0677966101695,3.333333333333335C65.08474576271186,2.67377777777778,66.10169491525424,1.1066666666666647,67.11864406779661,1.1066666666666647C68.13559322033899,1.1066666666666647,69.15254237288136,1.5288888888888876,70.16949152542374,2.373333333333334C71.1864406779661,3.2177777777777763,72.20338983050848,6.296888888888891,73.22033898305085,8.17066666666667C74.23728813559322,10.044444444444448,75.2542372881356,13.616000000000001,76.27118644067797,13.616000000000001C77.28813559322033,13.616000000000001,78.30508474576271,12.875999999999994,79.32203389830508,12.029333333333332C80.33898305084746,11.182666666666664,81.35593220338983,9.506222222222224,82.37288135593221,8.536000000000001C83.38983050847457,7.565777777777782,84.40677966101696,6.208,85.42372881355932,6.208C86.4406779661017,6.208,87.45762711864407,7.2288888888888865,88.47457627118645,7.6693333333333324C89.49152542372882,8.109777777777774,90.50847457627118,8.06311111111111,91.52542372881355,8.850666666666665C92.54237288135593,9.638222222222232,93.55932203389831,11.702222222222204,94.57627118644069,13.712C95.59322033898306,15.721777777777769,96.61016949152543,20.90933333333333,97.62711864406779,20.90933333333333C98.64406779661016,20.90933333333333,99.66101694915254,18.220444444444443,100.6779661016949,17.349333333333334C101.69491525423729,16.478222222222218,102.71186440677965,15.682666666666666,103.72881355932203,15.682666666666666C104.7457627118644,15.682666666666666,105.76271186440678,16.545333333333335,106.77966101694915,16.96C107.79661016949153,17.37466666666667,108.8135593220339,17.86977777777778,109.83050847457628,18.17066666666667C110.84745762711864,18.471555555555558,111.86440677966102,18.36888888888889,112.88135593220339,18.76533333333333C113.89830508474576,19.161777777777772,114.91525423728814,20.62622222222223,115.9322033898305,22.381333333333334C116.94915254237289,24.136444444444447,117.96610169491525,29.296,118.98305084745763,29.296C120,29.296,121.01694915254237,28.2831111111111,122.03389830508473,27.682666666666663C123.05084745762711,27.082222222222214,124.0677966101695,25.69333333333333,125.08474576271188,25.69333333333333C126.10169491525424,25.69333333333333,127.11864406779662,26.762666666666664,128.135593220339,27.421333333333333C129.15254237288136,28.08,130.16949152542372,29.645333333333333,131.1864406779661,29.645333333333333C132.20338983050846,29.645333333333333,133.22033898305085,29.17866666666667,134.23728813559322,29.17866666666667C135.25423728813558,29.17866666666667,136.27118644067798,30.428444444444445,137.28813559322035,31.272000000000002C138.3050847457627,32.11555555555556,139.3220338983051,34.24,140.33898305084747,34.24C141.35593220338984,34.24,142.3728813559322,32.48799999999999,143.38983050847457,32.296C144.40677966101694,32.104,145.42372881355934,32.008,146.4406779661017,32.008C147.45762711864407,32.008,148.47457627118644,32.88177777777778,149.4915254237288,33.16533333333333C150.50847457627117,33.44888888888889,151.52542372881356,33.54888888888889,152.54237288135593,33.70933333333333C153.5593220338983,33.86977777777778,154.5762711864407,33.86355555555555,155.59322033898306,34.128C156.61016949152543,34.39244444444444,157.6271186440678,34.82222222222222,158.64406779661016,35.296C159.66101694915253,35.769777777777776,160.67796610169492,36.56311111111111,161.6949152542373,36.970666666666666C162.71186440677965,37.37822222222222,163.72881355932205,37.74133333333333,164.74576271186442,37.74133333333333C165.76271186440678,37.74133333333333,166.77966101694915,36.879999999999995,167.79661016949152,36.586666666666666C168.81355932203388,36.29333333333333,169.83050847457628,35.98133333333333,170.84745762711864,35.98133333333333C171.864406779661,35.98133333333333,172.8813559322034,37.42133333333334,173.89830508474577,37.42133333333334C174.91525423728814,37.42133333333334,175.93220338983053,36.882666666666665,176.9491525423729,36.882666666666665C177.96610169491527,36.882666666666665,178.98305084745763,37.20533333333333,180,37.528L180,40C178.98305084745763,40,177.96610169491527,40,176.9491525423729,40C175.93220338983053,40,174.91525423728814,40,173.89830508474577,40C172.8813559322034,40,171.864406779661,40,170.84745762711864,40C169.83050847457628,40,168.81355932203388,40,167.79661016949152,40C166.77966101694915,40,165.76271186440678,40,164.74576271186442,40C163.72881355932205,40,162.71186440677965,40,161.6949152542373,40C160.67796610169492,40,159.66101694915253,40,158.64406779661016,40C157.6271186440678,40,156.61016949152543,40,155.59322033898306,40C154.5762711864407,40,153.5593220338983,40,152.54237288135593,40C151.52542372881356,40,150.50847457627117,40,149.4915254237288,40C148.47457627118644,40,147.45762711864407,40,146.4406779661017,40C145.42372881355934,40,144.40677966101694,40,143.38983050847457,40C142.3728813559322,40,141.35593220338984,40,140.33898305084747,40C139.3220338983051,40,138.3050847457627,40,137.28813559322035,40C136.27118644067798,40,135.25423728813558,40,134.23728813559322,40C133.22033898305085,40,132.20338983050846,40,131.1864406779661,40C130.16949152542372,40,129.15254237288136,40,128.135593220339,40C127.11864406779662,40,126.10169491525424,40,125.08474576271188,40C124.0677966101695,40,123.05084745762711,40,122.03389830508473,40C121.01694915254237,40,120,40,118.98305084745763,40C117.96610169491525,40,116.94915254237289,40,115.9322033898305,40C114.91525423728814,40,113.89830508474576,40,112.88135593220339,40C111.86440677966102,40,110.84745762711864,40,109.83050847457628,40C108.8135593220339,40,107.79661016949153,40,106.77966101694915,40C105.76271186440678,40,104.7457627118644,40,103.72881355932203,40C102.71186440677965,40,101.69491525423729,40,100.6779661016949,40C99.66101694915254,40,98.64406779661016,40,97.62711864406779,40C96.61016949152543,40,95.59322033898306,40,94.57627118644069,40C93.55932203389831,40,92.54237288135593,40,91.52542372881355,40C90.50847457627118,40,89.49152542372882,40,88.47457627118645,40C87.45762711864407,40,86.4406779661017,40,85.42372881355932,40C84.40677966101696,40,83.38983050847457,40,82.37288135593221,40C81.35593220338983,40,80.33898305084746,40,79.32203389830508,40C78.30508474576271,40,77.28813559322033,40,76.27118644067797,40C75.2542372881356,40,74.23728813559322,40,73.22033898305085,40C72.20338983050848,40,71.1864406779661,40,70.16949152542374,40C69.15254237288136,40,68.13559322033899,40,67.11864406779661,40C66.10169491525424,40,65.08474576271186,40,64.0677966101695,40C63.05084745762712,40,62.03389830508474,40,61.01694915254237,40C59.99999999999999,40,58.983050847457626,40,57.96610169491525,40C56.94915254237288,40,55.93220338983051,40,54.91525423728814,40C53.898305084745765,40,52.88135593220339,40,51.86440677966102,40C50.847457627118644,40,49.83050847457627,40,48.813559322033896,40C47.79661016949152,40,46.77966101694915,40,45.762711864406775,40C44.7457627118644,40,43.728813559322035,40,42.71186440677966,40C41.69491525423729,40,40.67796610169491,40,39.66101694915254,40C38.644067796610166,40,37.6271186440678,40,36.610169491525426,40C35.59322033898305,40,34.57627118644068,40,33.559322033898304,40C32.54237288135593,40,31.525423728813557,40,30.508474576271183,40C29.491525423728813,40,28.47457627118644,40,27.45762711864407,40C26.440677966101696,40,25.423728813559322,40,24.406779661016948,40C23.389830508474574,40,22.372881355932204,40,21.35593220338983,40C20.338983050847457,40,19.322033898305087,40,18.305084745762713,40C17.28813559322034,40,16.271186440677965,40,15.254237288135592,40C14.23728813559322,40,13.220338983050846,40,12.203389830508474,40C11.186440677966102,40,10.169491525423728,40,9.152542372881356,40C8.135593220338983,40,7.11864406779661,40,6.101694915254237,40C5.084745762711864,40,4.067796610169491,40,3.0508474576271185,40C2.0338983050847457,40,1.0169491525423728,40,0,40Z"></path><path class="line" stroke="black" fill="none" d="M0,20.117333333333335C1.0169491525423728,20.086666666666666,2.0338983050847457,20.056,3.0508474576271185,19.93333333333333C4.067796610169491,19.81066666666666,5.084745762711864,16.704,6.101694915254237,16.704C7.11864406779661,16.704,8.135593220338983,20.026666666666667,9.152542372881356,21.018666666666668C10.169491525423728,22.01066666666667,11.186440677966102,22.656,12.203389830508474,22.656C13.220338983050846,22.656,14.23728813559322,19.575555555555557,15.254237288135592,18.389333333333333C16.271186440677965,17.20311111111111,17.28813559322034,16.58222222222222,18.305084745762713,15.538666666666664C19.322033898305087,14.49511111111111,20.338983050847457,12.163555555555556,21.35593220338983,12.128C22.372881355932204,12.092444444444444,23.389830508474574,12.110222222222221,24.406779661016948,12.074666666666666C25.423728813559322,12.03911111111111,26.440677966101696,11.573333333333334,27.45762711864407,11.573333333333334C28.47457627118644,11.573333333333334,29.491525423728813,12.967555555555556,30.508474576271183,13.919999999999998C31.525423728813557,14.872444444444444,32.54237288135593,16.27288888888889,33.559322033898304,17.288C34.57627118644068,18.30311111111111,35.59322033898305,20.010666666666665,36.610169491525426,20.010666666666665C37.6271186440678,20.010666666666665,38.644067796610166,16.439555555555554,39.66101694915254,14.877333333333333C40.67796610169491,13.315111111111108,41.69491525423729,12.08977777777778,42.71186440677966,10.637333333333334C43.728813559322035,9.184888888888892,44.7457627118644,6.162666666666667,45.762711864406775,6.162666666666667C46.77966101694915,6.162666666666667,47.79661016949152,6.243555555555556,48.813559322033896,6.405333333333334C49.83050847457627,6.567111111111112,50.847457627118644,8.579555555555554,51.86440677966102,9.535999999999998C52.88135593220339,10.492444444444441,53.898305084745765,12.143999999999998,54.91525423728814,12.143999999999998C55.93220338983051,12.143999999999998,56.94915254237288,11.017333333333333,57.96610169491525,9.837333333333333C58.983050847457626,8.657333333333334,59.99999999999999,6.1480000000000015,61.01694915254237,5.064000000000002C62.03389830508474,3.979999999999997,63.05084745762712,3.992888888888893,64.0677966101695,3.333333333333335C65.08474576271186,2.67377777777778,66.10169491525424,1.1066666666666647,67.11864406779661,1.1066666666666647C68.13559322033899,1.1066666666666647,69.15254237288136,1.5288888888888876,70.16949152542374,2.373333333333334C71.1864406779661,3.2177777777777763,72.20338983050848,6.296888888888891,73.22033898305085,8.17066666666667C74.23728813559322,10.044444444444448,75.2542372881356,13.616000000000001,76.27118644067797,13.616000000000001C77.28813559322033,13.616000000000001,78.30508474576271,12.875999999999994,79.32203389830508,12.029333333333332C80.33898305084746,11.182666666666664,81.35593220338983,9.506222222222224,82.37288135593221,8.536000000000001C83.38983050847457,7.565777777777782,84.40677966101696,6.208,85.42372881355932,6.208C86.4406779661017,6.208,87.45762711864407,7.2288888888888865,88.47457627118645,7.6693333333333324C89.49152542372882,8.109777777777774,90.50847457627118,8.06311111111111,91.52542372881355,8.850666666666665C92.54237288135593,9.638222222222232,93.55932203389831,11.702222222222204,94.57627118644069,13.712C95.59322033898306,15.721777777777769,96.61016949152543,20.90933333333333,97.62711864406779,20.90933333333333C98.64406779661016,20.90933333333333,99.66101694915254,18.220444444444443,100.6779661016949,17.349333333333334C101.69491525423729,16.478222222222218,102.71186440677965,15.682666666666666,103.72881355932203,15.682666666666666C104.7457627118644,15.682666666666666,105.76271186440678,16.545333333333335,106.77966101694915,16.96C107.79661016949153,17.37466666666667,108.8135593220339,17.86977777777778,109.83050847457628,18.17066666666667C110.84745762711864,18.471555555555558,111.86440677966102,18.36888888888889,112.88135593220339,18.76533333333333C113.89830508474576,19.161777777777772,114.91525423728814,20.62622222222223,115.9322033898305,22.381333333333334C116.94915254237289,24.136444444444447,117.96610169491525,29.296,118.98305084745763,29.296C120,29.296,121.01694915254237,28.2831111111111,122.03389830508473,27.682666666666663C123.05084745762711,27.082222222222214,124.0677966101695,25.69333333333333,125.08474576271188,25.69333333333333C126.10169491525424,25.69333333333333,127.11864406779662,26.762666666666664,128.135593220339,27.421333333333333C129.15254237288136,28.08,130.16949152542372,29.645333333333333,131.1864406779661,29.645333333333333C132.20338983050846,29.645333333333333,133.22033898305085,29.17866666666667,134.23728813559322,29.17866666666667C135.25423728813558,29.17866666666667,136.27118644067798,30.428444444444445,137.28813559322035,31.272000000000002C138.3050847457627,32.11555555555556,139.3220338983051,34.24,140.33898305084747,34.24C141.35593220338984,34.24,142.3728813559322,32.48799999999999,143.38983050847457,32.296C144.40677966101694,32.104,145.42372881355934,32.008,146.4406779661017,32.008C147.45762711864407,32.008,148.47457627118644,32.88177777777778,149.4915254237288,33.16533333333333C150.50847457627117,33.44888888888889,151.52542372881356,33.54888888888889,152.54237288135593,33.70933333333333C153.5593220338983,33.86977777777778,154.5762711864407,33.86355555555555,155.59322033898306,34.128C156.61016949152543,34.39244444444444,157.6271186440678,34.82222222222222,158.64406779661016,35.296C159.66101694915253,35.769777777777776,160.67796610169492,36.56311111111111,161.6949152542373,36.970666666666666C162.71186440677965,37.37822222222222,163.72881355932205,37.74133333333333,164.74576271186442,37.74133333333333C165.76271186440678,37.74133333333333,166.77966101694915,36.879999999999995,167.79661016949152,36.586666666666666C168.81355932203388,36.29333333333333,169.83050847457628,35.98133333333333,170.84745762711864,35.98133333333333C171.864406779661,35.98133333333333,172.8813559322034,37.42133333333334,173.89830508474577,37.42133333333334C174.91525423728814,37.42133333333334,175.93220338983053,36.882666666666665,176.9491525423729,36.882666666666665C177.96610169491527,36.882666666666665,178.98305084745763,37.20533333333333,180,37.528"></path><path class="axis-ceiling" stroke-width="1" stroke="black" fill="none" d="M175,0L180,0"></path><text class="axis-ceiling-label" font-family="sans-serif" text-anchor="end" font-size="10px" x="170" y="2.5">15000</text></g></svg>