<svg xmlns="http://www.w3.org/2000/svg" viewBox="0 0 180 60"><g transform="translate(0,20)"><path class="area" fill="rgba(0, 0, 0, 0.2)" d="M0,17.432C1.0169491525423728,17.3,2.0338983050847457,17.168,3.0508474576271185,17.056C4.067796610169491,16.944000000000003,5.084745762711864,16.79466666666667,6.101694915254237,16.76C7.11864406779661,16.72533333333333,8.135593220338983,16.708,9.152542372881356,16.708C10.169491525423728,16.708,11.186440677966102,16.795333333333332,12.203389830508474,16.852C13.220338983050846,16.90866666666667,14.23728813559322,16.965333333333337,15.254237288135592,17.048000000000002C16.271186440677965,17.13066666666667,17.28813559322034,17.299999999999997,18.305084745762713,17.348C19.322033898305087,17.396,20.338983050847457,17.372,21.35593220338983,17.42C22.372881355932204,17.468000000000004,23.389830508474574,17.695333333333334,24.406779661016948,17.904C25.423728813559322,18.112666666666666,26.440677966101696,18.40866666666667,27.45762711864407,18.672C28.47457627118644,18.935333333333332,29.491525423728813,19.206666666666667,30.508474576271183,19.483999999999998C31.525423728813557,19.761333333333333,32.54237288135593,20.090666666666664,33.559322033898304,20.336C34.57627118644068,20.581333333333333,35.59322033898305,20.66866666666667,36.610169491525426,20.956000000000003C37.6271186440678,21.243333333333336,38.644067796610166,21.698666666666664,39.66101694915254,22.06C40.67796610169491,22.421333333333333,41.69491525423729,22.736666666666668,42.71186440677966,23.124000000000002C43.728813559322035,23.511333333333337,44.7457627118644,23.96733333333333,45.762711864406775,24.383999999999997C46.77966101694915,24.800666666666665,47.79661016949152,25.226000000000003,48.813559322033896,25.624000000000002C49.83050847457627,26.022000000000002,50.847457627118644,26.422666666666665,51.86440677966102,26.772C52.88135593220339,27.121333333333332,53.898305084745765,27.450000000000003,54.91525423728814,27.720000000000002C55.93220338983051,27.990000000000002,56.94915254237288,28.148,57.96610169491525,28.392C58.983050847457626,28.636,59.99999999999999,28.844,61.01694915254237,29.184C62.03389830508474,29.524,63.05084745762712,30.070666666666668,64.0677966101695,30.432000000000002C65.08474576271186,30.793333333333337,66.10169491525424,31.07733333333334,67.11864406779661,31.352000000000004C68.13559322033899,31.626666666666672,69.15254237288136,31.84133333333333,70.16949152542374,32.08C71.1864406779661,32.318666666666665,72.20338983050848,32.54333333333333,73.22033898305085,32.784C74.23728813559322,33.02466666666667,75.2542372881356,33.35933333333333,76.27118644067797,33.524C77.28813559322033,33.68866666666667,78.30508474576271,33.60666666666667,79.32203389830508,33.772000000000006C80.33898305084746,33.93733333333334,81.35593220338983,34.482666666666674,82.37288135593221,34.736000000000004C83.38983050847457,34.989333333333335,84.40677966101696,35.15133333333333,85.42372881355932,35.292C86.4406779661017,35.43266666666667,87.45762711864407,35.43933333333333,88.47457627118645,35.58C89.49152542372882,35.720666666666666,90.50847457627118,35.99333333333333,91.52542372881355,36.135999999999996C92.54237288135593,36.278666666666666,93.55932203389831,36.36066666666667,94.57627118644069,36.436C95.59322033898306,36.51133333333333,96.61016949152543,36.538000000000004,97.62711864406779,36.588C98.64406779661016,36.638,99.66101694915254,36.736,100.6779661016949,36.736C101.69491525423729,36.736,102.71186440677965,36.632,103.72881355932203,36.632C104.7457627118644,36.632,105.76271186440678,36.82533333333333,106.77966101694915,36.948C107.79661016949153,37.07066666666667,108.8135593220339,37.336000000000006,109.83050847457628,37.368C110.84745762711864,37.4,111.86440677966102,37.384,112.88135593220339,37.416C113.89830508474576,37.44799999999999,114.91525423728814,37.632000000000005,115.9322033898305,37.724000000000004C116.94915254237289,37.816,117.96610169491525,37.91066666666667,118.98305084745763,37.968C120,38.025333333333336,121.01694915254237,38.024,122.03389830508473,38.068C123.05084745762711,38.111999999999995,124.0677966101695,38.175333333333334,125.08474576271188,38.232C126.10169491525424,38.288666666666664,127.11864406779662,38.36266666666667,128.135593220339,38.408C129.15254237288136,38.45333333333333,130.16949152542372,38.474,131.1864406779661,38.504C132.20338983050846,38.534,133.22033898305085,38.55733333333333,134.23728813559322,38.588C135.25423728813558,38.61866666666667,136.27118644067798,38.660666666666664,137.28813559322035,38.687999999999995C138.3050847457627,38.71533333333333,139.3220338983051,38.733333333333334,140.33898305084747,38.752C141.35593220338984,38.77066666666667,142.3728813559322,38.778,143.38983050847457,38.8C144.40677966101694,38.821999999999996,145.42372881355934,38.852666666666664,146.4406779661017,38.884C147.45762711864407,38.915333333333336,148.47457627118644,38.952666666666666,149.4915254237288,38.988C150.50847457627117,39.02333333333333,151.52542372881356,39.06,152.54237288135593,39.096000000000004C153.5593220338983,39.132000000000005,154.5762711864407,39.17466666666667,155.59322033898306,39.204C156.61016949152543,39.233333333333334,157.6271186440678,39.256,158.64406779661016,39.272C159.66101694915253,39.288,160.67796610169492,39.292,161.6949152542373,39.300000000000004C162.71186440677965,39.30800000000001,163.72881355932205,39.31,164.74576271186442,39.32C165.76271186440678,39.33,166.77966101694915,39.344,167.79661016949152,39.36C168.81355932203388,39.376,169.83050847457628,39.397333333333336,170.84745762711864,39.416000000000004C171.864406779661,39.43466666666667,172.8813559322034,39.45933333333333,173.89830508474577,39.472C174.91525423728814,39.48466666666667,175.93220338983053,39.47866666666667,176.9491525423729,39.492C177.96610169491527,39.505333333333326,178.98305084745763,39.538666666666664,180,39.571999999999996L180,40C178.98305084745763,40,177.96610169491527,40,176.9491525423729,40C175.93220338983053,40,174.91525423728814,40,173.89830508474577,40C172.8813559322034,40,171.864406779661,40,170.84745762711864,40C169.83050847457628,40,168.81355932203388,40,167.79661016949152,40C166.77966101694915,40,165.76271186440678,40,164.74576271186442,40C163.72881355932205,40,162.71186440677965,40,161.6949152542373,40C160.67796610169492,40,159.66101694915253,40,158.64406779661016,40C157.6271186440678,40,156.61016949152543,40,155.59322033898306,40C154.5762711864407,40,153.5593220338983,40,152.54237288135593,40C151.52542372881356,40,150.50847457627117,40,149.4915254237288,40C148.47457627118644,40,147.45762711864407,40,146.4406779661017,40C145.42372881355934,40,144.40677966101694,40,143.38983050847457,40C142.3728813559322,40,141.35593220338984,40,140.33898305084747,40C139.3220338983051,40,138.3050847457627,40,137.28813559322035,40C136.27118644067798,40,135.25423728813558,40,134.23728813559322,40C133.22033898305085,40,132.20338983050846,40,131.1864406779661,40C130.16949152542372,40,129.15254237288136,40,128.135593220339,40C127.11864406779662,40,126.10169491525424,40,125.08474576271188,40C124.0677966101695,40,123.05084745762711,40,122.03389830508473,40C121.01694915254237,40,120,40,118.98305084745763,40C117.96610169491525,40,116.94915254237289,40,115.9322033898305,40C114.91525423728814,40,113.89830508474576,40,112.88135593220339,40C111.86440677966102,40,110.84745762711864,40,109.83050847457628,40C108.8135593220339,40,107.79661016949153,40,106.77966101694915,40C105.76271186440678,40,104.7457627118644,40,103.72881355932203,40C102.71186440677965,40,101.69491525423729,40,100.6779661016949,40C99.66101694915254,40,98.64406779661016,40,97.62711864406779,40C96.61016949152543,40,95.59322033898306,40,94.57627118644069,40C93.55932203389831,40,92.54237288135593,40,91.52542372881355,40C90.50847457627118,40,89.49152542372882,40,88.47457627118645,40C87.45762711864407,40,86.4406779661017,40,85.42372881355932,40C84.40677966101696,40,83.38983050847457,40,82.37288135593221,40C81.35593220338983,40,80.33898305084746,40,79.32203389830508,40C78.30508474576271,40,77.28813559322033,40,76.27118644067797,40C75.2542372881356,40,74.23728813559322,40,73.22033898305085,40C72.20338983050848,40,71.1864406779661,40,70.16949152542374,40C69.15254237288136,40,68.13559322033899,40,67.11864406779661,40C66.10169491525424,40,65.08474576271186,40,64.0677966101695,40C63.05084745762712,40,62.03389830508474,40,61.01694915254237,40C59.99999999999999,40,58.983050847457626,40,57.96610169491525,40C56.94915254237288,40,55.93220338983051,40,54.91525423728814,40C53.898305084745765,40,52.88135593220339,40,51.86440677966102,40C50.847457627118644,40,49.83050847457627,40,48.813559322033896,40C47.79661016949152,40,46.77966101694915,40,45.762711864406775,40C44.7457627118644,40,43.728813559322035,40,42.71186440677966,40C41.69491525423729,40,40.67796610169491,40,39.66101694915254,40C38.644067796610166,40,37.6271186440678,40,36.610169491525426,40C35.59322033898305,40,34.57627118644068,40,33.559322033898304,40C32.54237288135593,40,31.525423728813557,40,30.508474576271183,40C29.491525423728813,40,28.47457627118644,40,27.45762711864407,40C26.440677966101696,40,25.423728813559322,40,24.406779661016948,40C23.389830508474574,40,22.372881355932204,40,21.35593220338983,40C20.338983050847457,40,19.322033898305087,40,18.305084745762713,40C17.28813559322034,40,16.271186440677965,40,15.254237288135592,40C14.23728813559322,40,13.220338983050846,40,12.203389830508474,40C11.186440677966102,40,10.169491525423728,40,9.152542372881356,40C8.135593220338983,40,7.11864406779661,40,6.101694915254237,40C5.084745762711864,40,4.067796610169491,40,3.0508474576271185,40C2.0338983050847457,40,1.0169491525423728,40,0,40Z"></path><path class="line" stroke="black" fill="none" d="M0,17.432C1.0169491525423728,17.3,2.0338983050847457,17.168,3.0508474576271185,17.056C4.067796610169491,16.944000000000003,5.084745762711864,16.79466666666667,6.101694915254237,16.76C7.11864406779661,16.72533333333333,8.135593220338983,16.708,9.152542372881356,16.708C10.169491525423728,16.708,11.186440677966102,16.795333333333332,12.203389830508474,16.852C13.220338983050846,16.90866666666667,14.23728813559322,16.965333333333337,15.254237288135592,17.048000000000002C16.271186440677965,17.13066666666667,17.28813559322034,17.299999999999997,18.305084745762713,17.348C19.322033898305087,17.396,20.338983050847457,17.372,21.35593220338983,17.42C22.372881355932204,17.468000000000004,23.389830508474574,17.695333333333334,24.406779661016948,17.904C25.423728813559322,18.112666666666666,26.440677966101696,18.40866666666667,27.45762711864407,18.672C28.47457627118644,18.935333333333332,29.491525423728813,19.206666666666667,30.508474576271183,19.483999999999998C31.525423728813557,19.761333333333333,32.54237288135593,20.090666666666664,33.559322033898304,20.336C34.57627118644068,20.581333333333333,35.59322033898305,20.66866666666667,36.610169491525426,20.956000000000003C37.6271186440678,21.243333333333336,38.644067796610166,21.698666666666664,39.66101694915254,22.06C40.67796610169491,22.421333333333333,41.69491525423729,22.736666666666668,42.71186440677966,23.124000000000002C43.728813559322035,23.511333333333337,44.7457627118644,23.96733333333333,45.762711864406775,24.383999999999997C46.77966101694915,24.800666666666665,47.79661016949152,25.226000000000003,48.813559322033896,25.624000000000002C49.83050847457627,26.022000000000002,50.847457627118644,26.422666666666665,51.86440677966102,26.772C52.88135593220339,27.121333333333332,53.898305084745765,27.450000000000003,54.91525423728814,27.720000000000002C55.93220338983051,27.990000000000002,56.94915254237288,28.148,57.96610169491525,28.392C58.983050847457626,28.636,59.99999999999999,28.844,61.01694915254237,29.184C62.03389830508474,29.524,63.05084745762712,30.070666666666668,64.0677966101695,30.432000000000002C65.08474576271186,30.793333333333337,66.10169491525424,31.07733333333334,67.11864406779661,31.352000000000004C68.13559322033899,31.626666666666672,69.15254237288136,31.84133333333333,70.16949152542374,32.08C71.1864406779661,32.318666666666665,72.20338983050848,32.54333333333333,73.22033898305085,32.784C74.23728813559322,33.02466666666667,75.2542372881356,33.35933333333333,76.27118644067797,33.524C77.28813559322033,33.68866666666667,78.30508474576271,33.60666666666667,79.32203389830508,33.772000000000006C80.33898305084746,33.93733333333334,81.35593220338983,34.482666666666674,82.37288135593221,34.736000000000004C83.38983050847457,34.989333333333335,84.40677966101696,35.15133333333333,85.42372881355932,35.292C86.4406779661017,35.43266666666667,87.45762711864407,35.43933333333333,88.47457627118645,35.58C89.49152542372882,35.720666666666666,90.50847457627118,35.99333333333333,91.52542372881355,36.135999999999996C92.54237288135593,36.278666666666666,93.55932203389831,36.36066666666667,94.57627118644069,36.436C95.59322033898306,36.51133333333333,96.61016949152543,36.538000000000004,97.62711864406779,36.588C98.64406779661016,36.638,99.66101694915254,36.736,100.6779661016949,36.736C101.69491525423729,36.736,102.71186440677965,36.632,103.72881355932203,36.632C104.7457627118644,36.632,105.76271186440678,36.82533333333333,106.77966101694915,36.948C107.79661016949153,37.07066666666667,108.8135593220339,37.336000000000006,109.83050847457628,37.368C110.84745762711864,37.4,111.86440677966102,37.384,112.88135593220339,37.416C113.89830508474576,37.44799999999999,114.91525423728814,37.632000000000005,115.9322033898305,37.724000000000004C116.94915254237289,37.816,117.96610169491525,37.91066666666667,118.98305084745763,37.968C120,38.025333333333336,121.01694915254237,38.024,122.03389830508473,38.068C123.05084745762711,38.111999999999995,124.0677966101695,38.175333333333334,125.08474576271188,38.232C126.10169491525424,38.288666666666664,127.11864406779662,38.36266666666667,128.135593220339,38.408C129.15254237288136,38.45333333333333,130.16949152542372,38.474,131.1864406779661,38.504C132.20338983050846,38.534,133.22033898305085,38.55733333333333,134.23728813559322,38.588C135.25423728813558,38.61866666666667,136.27118644067798,38.660666666666664,137.28813559322035,38.687999999999995C138.3050847457627,38.71533333333333,139.3220338983051,38.733333333333334,140.33898305084747,38.752C141.35593220338984,38.77066666666667,142.3728813559322,38.778,143.38983050847457,38.8C144.40677966101694,38.821999999999996,145.42372881355934,38.852666666666664,146.4406779661017,38.884C147.45762711864407,38.915333333333336,148.47457627118644,38.952666666666666,149.4915254237288,38.988C150.50847457627117,39.02333333333333,151.52542372881356,39.06,152.54237288135593,39.096000000000004C153.5593220338983,39.132000000000005,154.5762711864407,39.17466666666667,155.59322033898306,39.204C156.61016949152543,39.233333333333334,157.6271186440678,39.256,158.64406779661016,39.272C159.66101694915253,39.288,160.67796610169492,39.292,161.6949152542373,39.300000000000004C162.71186440677965,39.30800000000001,163.72881355932205,39.31,164.74576271186442,39.32C165.76271186440678,39.33,166.77966101694915,39.344,167.79661016949152,39.36C168.81355932203388,39.376,169.83050847457628,39.397333333333336,170.84745762711864,39.416000000000004C171.864406779661,39.43466666666667,172.8813559322034,39.45933333333333,173.89830508474577,39.472C174.91525423728814,39.48466666666667,175.93220338983053,39.47866666666667,176.9491525423729,39.492C177.96610169491527,39.505333333333326,178.98305084745763,39.538666666666664,180,39.571999999999996"></path><path class="axis-ceiling" stroke-width="1" stroke="black" fill="none" d="M175,0L180,0"></path><text class="axis-ceiling-label" font-family="sans-serif" text-anchor="end" font-size="10px" x="170" y="2.5">10000</text></g></svg>