<svg xmlns="http://www.w3.org/2000/svg" viewBox="0 0 180 60"><g transform="translate(0,20)"><path class="area" fill="rgba(0, 0, 0, 0.2)" d="M0,11.343999999999998C1.0169491525423728,11.390666666666664,2.0338983050847457,11.437333333333331,3.0508474576271185,11.591999999999999C4.067796610169491,11.746666666666666,5.084745762711864,12.138666666666666,6.101694915254237,12.271999999999998C7.11864406779661,12.405333333333331,8.135593220338983,12.346666666666664,9.152542372881356,12.471999999999998C10.169491525423728,12.597333333333331,11.186440677966102,12.789333333333333,12.203389830508474,13.024000000000001C13.220338983050846,13.258666666666668,14.23728813559322,13.578666666666665,15.254237288135592,13.879999999999999C16.271186440677965,14.181333333333333,17.28813559322034,14.452,18.305084745762713,14.832C19.322033898305087,15.212000000000002,20.338983050847457,15.706666666666667,21.35593220338983,16.16C22.372881355932204,16.613333333333333,23.389830508474574,17.094666666666665,24.406779661016948,17.552C25.423728813559322,18.009333333333334,26.440677966101696,18.506666666666668,27.45762711864407,18.904C28.47457627118644,19.301333333333332,29.491525423728813,19.590666666666667,30.508474576271183,19.936C31.525423728813557,20.281333333333333,32.54237288135593,20.555999999999997,33.559322033898304,20.976C34.57627118644068,21.396,35.59322033898305,21.949333333333332,36.610169491525426,22.456C37.6271186440678,22.962666666666667,38.644067796610166,23.59466666666667,39.66101694915254,24.016000000000002C40.67796610169491,24.437333333333335,41.69491525423729,24.672,42.71186440677966,24.984C43.728813559322035,25.296,44.7457627118644,25.621333333333332,45.762711864406775,25.887999999999998C46.77966101694915,26.154666666666664,47.79661016949152,26.41066666666667,48.813559322033896,26.584000000000003C49.83050847457627,26.757333333333335,50.847457627118644,26.796,51.86440677966102,26.928C52.88135593220339,27.060000000000002,53.898305084745765,27.236,54.91525423728814,27.376C55.93220338983051,27.516000000000002,56.94915254237288,27.63733333333333,57.96610169491525,27.767999999999997C58.983050847457626,27.898666666666664,59.99999999999999,28.016,61.01694915254237,28.159999999999997C62.03389830508474,28.304,63.05084745762712,28.503999999999998,64.0677966101695,28.631999999999998C65.08474576271186,28.759999999999998,66.10169491525424,28.83333333333334,67.11864406779661,28.928000000000004C68.13559322033899,29.022666666666673,69.15254237288136,29.109333333333332,70.16949152542374,29.2C71.1864406779661,29.290666666666667,72.20338983050848,29.38266666666667,73.22033898305085,29.472C74.23728813559322,29.561333333333334,75.2542372881356,29.61066666666667,76.27118644067797,29.736000000000004C77.28813559322033,29.861333333333338,78.30508474576271,30.042666666666673,79.32203389830508,30.224000000000004C80.33898305084746,30.405333333333335,81.35593220338983,30.68933333333333,82.37288135593221,30.823999999999998C83.38983050847457,30.958666666666662,84.40677966101696,30.95466666666667,85.42372881355932,31.032000000000004C86.4406779661017,31.10933333333334,87.45762711864407,31.256,88.47457627118645,31.288C89.49152542372882,31.32,90.50847457627118,31.323999999999998,91.52542372881355,31.336C92.54237288135593,31.348,93.55932203389831,31.346666666666664,94.57627118644069,31.36C95.59322033898306,31.37333333333333,96.61016949152543,31.416,97.62711864406779,31.416C98.64406779661016,31.416,99.66101694915254,31.365333333333332,100.6779661016949,31.343999999999998C101.69491525423729,31.322666666666663,102.71186440677965,31.288,103.72881355932203,31.288C104.7457627118644,31.288,105.76271186440678,31.432000000000002,106.77966101694915,31.432000000000002C107.79661016949153,31.432000000000002,108.8135593220339,31.378666666666668,109.83050847457628,31.36C110.84745762711864,31.34133333333333,111.86440677966102,31.333333333333332,112.88135593220339,31.32C113.89830508474576,31.30666666666667,114.91525423728814,31.30666666666667,115.9322033898305,31.28C116.94915254237289,31.253333333333334,117.96610169491525,31.028000000000002,118.98305084745763,30.872C120,30.716,121.01694915254237,30.539999999999996,122.03389830508473,30.343999999999998C123.05084745762711,30.147999999999996,124.0677966101695,29.90533333333333,125.08474576271188,29.695999999999998C126.10169491525424,29.486666666666665,127.11864406779662,29.304000000000002,128.135593220339,29.088C129.15254237288136,28.872,130.16949152542372,28.62533333333333,131.1864406779661,28.4C132.20338983050846,28.174666666666663,133.22033898305085,27.962666666666667,134.23728813559322,27.736C135.25423728813558,27.509333333333334,136.27118644067798,27.328,137.28813559322035,27.04C138.3050847457627,26.752,139.3220338983051,26.386666666666667,140.33898305084747,26.008C141.35593220338984,25.629333333333335,142.3728813559322,25.166666666666664,143.38983050847457,24.768C144.40677966101694,24.369333333333334,145.42372881355934,24.033333333333335,146.4406779661017,23.616C147.45762711864407,23.198666666666668,148.47457627118644,22.738666666666663,149.4915254237288,22.264C150.50847457627117,21.78933333333333,151.52542372881356,21.25466666666667,152.54237288135593,20.768C153.5593220338983,20.281333333333333,154.5762711864407,19.741333333333337,155.59322033898306,19.344C156.61016949152543,18.94666666666667,157.6271186440678,18.947999999999997,158.64406779661016,18.384C159.66101694915253,17.82,160.67796610169492,16.805333333333333,161.6949152542373,15.96C162.71186440677965,15.114666666666666,163.72881355932205,14.25466666666667,164.74576271186442,13.312C165.76271186440678,12.369333333333337,166.77966101694915,11.291999999999998,167.79661016949152,10.304000000000002C168.81355932203388,9.315999999999997,169.83050847457628,8.350666666666667,170.84745762711864,7.3839999999999995C171.864406779661,6.417333333333333,172.8813559322034,5.454666666666668,173.89830508474577,4.504000000000001C174.91525423728814,3.553333333333335,175.93220338983053,1.6800000000000015,176.9491525423729,1.6800000000000015C177.96610169491527,1.6800000000000015,178.98305084745763,2.7360000000000007,180,3.792L180,40C178.98305084745763,40,177.96610169491527,40,176.9491525423729,40C175.93220338983053,40,174.91525423728814,40,173.89830508474577,40C172.8813559322034,40,171.864406779661,40,170.84745762711864,40C169.83050847457628,40,168.81355932203388,40,167.79661016949152,40C166.77966101694915,40,165.76271186440678,40,164.74576271186442,40C163.72881355932205,40,162.71186440677965,40,161.6949152542373,40C160.67796610169492,40,159.66101694915253,40,158.64406779661016,40C157.6271186440678,40,156.61016949152543,40,155.59322033898306,40C154.5762711864407,40,153.5593220338983,40,152.54237288135593,40C151.52542372881356,40,150.50847457627117,40,149.4915254237288,40C148.47457627118644,40,147.45762711864407,40,146.4406779661017,40C145.42372881355934,40,144.40677966101694,40,143.38983050847457,40C142.3728813559322,40,141.35593220338984,40,140.33898305084747,40C139.3220338983051,40,138.3050847457627,40,137.28813559322035,40C136.27118644067798,40,135.25423728813558,40,134.23728813559322,40C133.22033898305085,40,132.20338983050846,40,131.1864406779661,40C130.16949152542372,40,129.15254237288136,40,128.135593220339,40C127.11864406779662,40,126.10169491525424,40,125.08474576271188,40C124.0677966101695,40,123.05084745762711,40,122.03389830508473,40C121.01694915254237,40,120,40,118.98305084745763,40C117.96610169491525,40,116.94915254237289,40,115.9322033898305,40C114.91525423728814,40,113.89830508474576,40,112.88135593220339,40C111.86440677966102,40,110.84745762711864,40,109.83050847457628,40C108.8135593220339,40,107.79661016949153,40,106.77966101694915,40C105.76271186440678,40,104.7457627118644,40,103.72881355932203,40C102.71186440677965,40,101.69491525423729,40,100.6779661016949,40C99.66101694915254,40,98.64406779661016,40,97.62711864406779,40C96.61016949152543,40,95.59322033898306,40,94.57627118644069,40C93.55932203389831,40,92.54237288135593,40,91.52542372881355,40C90.50847457627118,40,89.49152542372882,40,88.47457627118645,40C87.45762711864407,40,86.4406779661017,40,85.42372881355932,40C84.40677966101696,40,83.38983050847457,40,82.37288135593221,40C81.35593220338983,40,80.33898305084746,40,79.32203389830508,40C78.30508474576271,40,77.28813559322033,40,76.27118644067797,40C75.2542372881356,40,74.23728813559322,40,73.22033898305085,40C72.20338983050848,40,71.1864406779661,40,70.16949152542374,40C69.15254237288136,40,68.13559322033899,40,67.11864406779661,40C66.10169491525424,40,65.08474576271186,40,64.0677966101695,40C63.05084745762712,40,62.03389830508474,40,61.01694915254237,40C59.99999999999999,40,58.983050847457626,40,57.96610169491525,40C56.94915254237288,40,55.93220338983051,40,54.91525423728814,40C53.898305084745765,40,52.88135593220339,40,51.86440677966102,40C50.847457627118644,40,49.83050847457627,40,48.813559322033896,40C47.79661016949152,40,46.77966101694915,40,45.762711864406775,40C44.7457627118644,40,43.728813559322035,40,42.71186440677966,40C41.69491525423729,40,40.67796610169491,40,39.66101694915254,40C38.644067796610166,40,37.6271186440678,40,36.610169491525426,40C35.59322033898305,40,34.57627118644068,40,33.559322033898304,40C32.54237288135593,40,31.525423728813557,40,30.508474576271183,40C29.491525423728813,40,28.47457627118644,40,27.45762711864407,40C26.440677966101696,40,25.423728813559322,40,24.406779661016948,40C23.389830508474574,40,22.372881355932204,40,21.35593220338983,40C20.338983050847457,40,19.322033898305087,40,18.305084745762713,40C17.28813559322034,40,16.271186440677965,40,15.254237288135592,40C14.23728813559322,40,13.220338983050846,40,12.203389830508474,40C11.186440677966102,40,10.169491525423728,40,9.152542372881356,40C8.135593220338983,40,7.11864406779661,40,6.101694915254237,40C5.084745762711864,40,4.067796610169491,40,3.0508474576271185,40C2.0338983050847457,40,1.0169491525423728,40,0,40Z"></path><path class="line" stroke="black" fill="none" d="M0,11.343999999999998C1.0169491525423728,11.390666666666664,2.0338983050847457,11.437333333333331,3.0508474576271185,11.591999999999999C4.067796610169491,11.746666666666666,5.084745762711864,12.138666666666666,6.101694915254237,12.271999999999998C7.11864406779661,12.405333333333331,8.135593220338983,12.346666666666664,9.152542372881356,12.471999999999998C10.169491525423728,12.597333333333331,11.186440677966102,12.789333333333333,12.203389830508474,13.024000000000001C13.220338983050846,13.258666666666668,14.23728813559322,13.578666666666665,15.254237288135592,13.879999999999999C16.271186440677965,14.181333333333333,17.28813559322034,14.452,18.305084745762713,14.832C19.322033898305087,15.212000000000002,20.338983050847457,15.706666666666667,21.35593220338983,16.16C22.372881355932204,16.613333333333333,23.389830508474574,17.094666666666665,24.406779661016948,17.552C25.423728813559322,18.009333333333334,26.440677966101696,18.506666666666668,27.45762711864407,18.904C28.47457627118644,19.301333333333332,29.491525423728813,19.590666666666667,30.508474576271183,19.936C31.525423728813557,20.281333333333333,32.54237288135593,20.555999999999997,33.559322033898304,20.976C34.57627118644068,21.396,35.59322033898305,21.949333333333332,36.610169491525426,22.456C37.6271186440678,22.962666666666667,38.644067796610166,23.59466666666667,39.66101694915254,24.016000000000002C40.67796610169491,24.437333333333335,41.69491525423729,24.672,42.71186440677966,24.984C43.728813559322035,25.296,44.7457627118644,25.621333333333332,45.762711864406775,25.887999999999998C46.77966101694915,26.154666666666664,47.79661016949152,26.41066666666667,48.813559322033896,26.584000000000003C49.83050847457627,26.757333333333335,50.847457627118644,26.796,51.86440677966102,26.928C52.88135593220339,27.060000000000002,53.898305084745765,27.236,54.91525423728814,27.376C55.93220338983051,27.516000000000002,56.94915254237288,27.63733333333333,57.96610169491525,27.767999999999997C58.983050847457626,27.898666666666664,59.99999999999999,28.016,61.01694915254237,28.159999999999997C62.03389830508474,28.304,63.05084745762712,28.503999999999998,64.0677966101695,28.631999999999998C65.08474576271186,28.759999999999998,66.10169491525424,28.83333333333334,67.11864406779661,28.928000000000004C68.13559322033899,29.022666666666673,69.15254237288136,29.109333333333332,70.16949152542374,29.2C71.1864406779661,29.290666666666667,72.20338983050848,29.38266666666667,73.22033898305085,29.472C74.23728813559322,29.561333333333334,75.2542372881356,29.61066666666667,76.27118644067797,29.736000000000004C77.28813559322033,29.861333333333338,78.30508474576271,30.042666666666673,79.32203389830508,30.224000000000004C80.33898305084746,30.405333333333335,81.35593220338983,30.68933333333333,82.37288135593221,30.823999999999998C83.38983050847457,30.958666666666662,84.40677966101696,30.95466666666667,85.42372881355932,31.032000000000004C86.4406779661017,31.10933333333334,87.45762711864407,31.256,88.47457627118645,31.288C89.49152542372882,31.32,90.50847457627118,31.323999999999998,91.52542372881355,31.336C92.54237288135593,31.348,93.55932203389831,31.346666666666664,94.57627118644069,31.36C95.59322033898306,31.37333333333333,96.61016949152543,31.416,97.62711864406779,31.416C98.64406779661016,31.416,99.66101694915254,31.365333333333332,100.6779661016949,31.343999999999998C101.69491525423729,31.322666666666663,102.71186440677965,31.288,103.72881355932203,31.288C104.7457627118644,31.288,105.76271186440678,31.432000000000002,106.77966101694915,31.432000000000002C107.79661016949153,31.432000000000002,108.8135593220339,31.378666666666668,109.83050847457628,31.36C110.84745762711864,31.34133333333333,111.86440677966102,31.333333333333332,112.88135593220339,31.32C113.89830508474576,31.30666666666667,114.91525423728814,31.30666666666667,115.9322033898305,31.28C116.94915254237289,31.253333333333334,117.96610169491525,31.028000000000002,118.98305084745763,30.872C120,30.716,121.01694915254237,30.539999999999996,122.03389830508473,30.343999999999998C123.05084745762711,30.147999999999996,124.0677966101695,29.90533333333333,125.08474576271188,29.695999999999998C126.10169491525424,29.486666666666665,127.11864406779662,29.304000000000002,128.135593220339,29.088C129.15254237288136,28.872,130.16949152542372,28.62533333333333,131.1864406779661,28.4C132.20338983050846,28.174666666666663,133.22033898305085,27.962666666666667,134.23728813559322,27.736C135.25423728813558,27.509333333333334,136.27118644067798,27.328,137.28813559322035,27.04C138.3050847457627,26.752,139.3220338983051,26.386666666666667,140.33898305084747,26.008C141.35593220338984,25.629333333333335,142.3728813559322,25.166666666666664,143.38983050847457,24.768C144.40677966101694,24.369333333333334,145.42372881355934,24.033333333333335,146.4406779661017,23.616C147.45762711864407,23.198666666666668,148.47457627118644,22.738666666666663,149.4915254237288,22.264C150.50847457627117,21.78933333333333,151.52542372881356,21.25466666666667,152.54237288135593,20.768C153.5593220338983,20.281333333333333,154.5762711864407,19.741333333333337,155.59322033898306,19.344C156.61016949152543,18.94666666666667,157.6271186440678,18.947999999999997,158.64406779661016,18.384C159.66101694915253,17.82,160.67796610169492,16.805333333333333,161.6949152542373,15.96C162.71186440677965,15.114666666666666,163.72881355932205,14.25466666666667,164.74576271186442,13.312C165.76271186440678,12.369333333333337,166.77966101694915,11.291999999999998,167.79661016949152,10.304000000000002C168.81355932203388,9.315999999999997,169.83050847457628,8.350666666666667,170.84745762711864,7.3839999999999995C171.864406779661,6.417333333333333,172.8813559322034,5.454666666666668,173.89830508474577,4.504000000000001C174.91525423728814,3.553333333333335,175.93220338983053,1.6800000000000015,176.9491525423729,1.6800000000000015C177.96610169491527,1.6800000000000015,178.98305084745763,2.7360000000000007,180,3.792"></path><path class="axis-ceiling" stroke-width="1" stroke="black" fill="none" d="M175,0L180,0"></path><text class="axis-ceiling-label" font-family="sans-serif" text-anchor="end" font-size="10px" x="170" y="2.5">5000</text></g></svg>