<svg xmlns="http://www.w3.org/2000/svg" viewBox="0 0 180 60"><g transform="translate(0,20)"><path class="area" fill="rgba(0, 0, 0, 0.2)" d="M0,17.524C1.0169491525423728,18.47233333333333,2.0338983050847457,19.420666666666666,3.0508474576271185,20.003999999999998C4.067796610169491,20.58733333333333,5.084745762711864,20.343999999999998,6.101694915254237,21.024C7.11864406779661,21.704000000000004,8.135593220338983,22.516666666666666,9.152542372881356,24.192C10.169491525423728,25.867333333333335,11.186440677966102,31.076,12.203389830508474,31.076C13.220338983050846,31.076,14.23728813559322,27.307999999999996,15.254237288135592,25.827999999999996C16.271186440677965,24.347999999999995,17.28813559322034,22.195999999999998,18.305084745762713,22.195999999999998C19.322033898305087,22.195999999999998,20.338983050847457,25.26666666666667,21.35593220338983,26.348000000000003C22.372881355932204,27.429333333333336,23.389830508474574,28.42000000000001,24.406779661016948,28.684000000000005C25.423728813559322,28.948,26.440677966101696,28.816000000000003,27.45762711864407,29.08C28.47457627118644,29.343999999999994,29.491525423728813,29.702,30.508474576271183,30.82C31.525423728813557,31.938000000000002,32.54237288135593,35.788000000000004,33.559322033898304,35.788000000000004C34.57627118644068,35.788000000000004,35.59322033898305,31.628000000000004,36.610169491525426,31.356C37.6271186440678,31.084,38.644067796610166,30.948,39.66101694915254,30.948C40.67796610169491,30.948,41.69491525423729,32.29866666666666,42.71186440677966,32.772C43.728813559322035,33.24533333333333,44.7457627118644,33.649333333333324,45.762711864406775,33.788C46.77966101694915,33.92666666666667,47.79661016949152,33.85733333333333,48.813559322033896,33.996C49.83050847457627,34.134666666666675,50.847457627118644,35.40466666666667,51.86440677966102,35.996C52.88135593220339,36.58733333333333,53.898305084745765,37.192,54.91525423728814,37.544C55.93220338983051,37.895999999999994,56.94915254237288,38.108,57.96610169491525,38.108C58.983050847457626,38.108,59.99999999999999,34.876,61.01694915254237,34.836C62.03389830508474,34.796,63.05084745762712,34.775999999999996,64.0677966101695,34.775999999999996C65.08474576271186,34.775999999999996,66.10169491525424,37.676,67.11864406779661,37.676C68.13559322033899,37.676,69.15254237288136,36.108000000000004,70.16949152542374,36.108000000000004C71.1864406779661,36.108000000000004,72.20338983050848,36.656666666666666,73.22033898305085,37.068C74.23728813559322,37.47933333333333,75.2542372881356,38.576,76.27118644067797,38.576C77.28813559322033,38.576,78.30508474576271,37.577333333333335,79.32203389830508,37.364000000000004C80.33898305084746,37.15066666666667,81.35593220338983,37.044000000000004,82.37288135593221,37.044000000000004C83.38983050847457,37.044000000000004,84.40677966101696,37.553333333333335,85.42372881355932,37.716C86.4406779661017,37.87866666666667,87.45762711864407,37.92866666666667,88.47457627118645,38.02C89.49152542372882,38.111333333333334,90.50847457627118,38.13866666666667,91.52542372881355,38.264C92.54237288135593,38.38933333333334,93.55932203389831,38.60066666666667,94.57627118644069,38.772000000000006C95.59322033898306,38.943333333333335,96.61016949152543,39.292,97.62711864406779,39.292C98.64406779661016,39.292,99.66101694915254,38.652,100.6779661016949,38.5C101.69491525423729,38.348,102.71186440677965,38.272,103.72881355932203,38.272C104.7457627118644,38.272,105.76271186440678,38.339333333333336,106.77966101694915,38.396C107.79661016949153,38.452666666666666,108.8135593220339,38.519333333333336,109.83050847457628,38.612C110.84745762711864,38.70466666666667,111.86440677966102,38.849333333333334,112.88135593220339,38.952C113.89830508474576,39.05466666666666,114.91525423728814,39.11333333333334,115.9322033898305,39.228C116.94915254237289,39.342666666666666,117.96610169491525,39.64,118.98305084745763,39.64C120,39.64,121.01694915254237,39.11066666666667,122.03389830508473,39.068C123.05084745762711,39.02533333333333,124.0677966101695,39.004,125.08474576271188,39.004C126.10169491525424,39.004,127.11864406779662,39.086666666666666,128.135593220339,39.148C129.15254237288136,39.20933333333333,130.16949152542372,39.32933333333333,131.1864406779661,39.372C132.20338983050846,39.41466666666667,133.22033898305085,39.436,134.23728813559322,39.436C135.25423728813558,39.436,136.27118644067798,39.416000000000004,137.28813559322035,39.416000000000004C138.3050847457627,39.416000000000004,139.3220338983051,39.775999999999996,140.33898305084747,39.775999999999996C141.35593220338984,39.775999999999996,142.3728813559322,39.364,143.38983050847457,39.364C144.40677966101694,39.364,145.42372881355934,39.37466666666666,146.4406779661017,39.396C147.45762711864407,39.41733333333334,148.47457627118644,39.532,149.4915254237288,39.532C150.50847457627117,39.532,151.52542372881356,39.516,152.54237288135593,39.516C153.5593220338983,39.516,154.5762711864407,39.51733333333333,155.59322033898306,39.519999999999996C156.61016949152543,39.52266666666666,157.6271186440678,39.57933333333333,158.64406779661016,39.608C159.66101694915253,39.63666666666666,160.67796610169492,39.692,161.6949152542373,39.692C162.71186440677965,39.692,163.72881355932205,39.36,164.74576271186442,39.36C165.76271186440678,39.36,166.77966101694915,39.548,167.79661016949152,39.548C168.81355932203388,39.548,169.83050847457628,39.548,170.84745762711864,39.548C171.864406779661,39.548,172.8813559322034,39.548,173.89830508474577,39.548C174.91525423728814,39.548,175.93220338983053,39.56,176.9491525423729,39.576C177.96610169491527,39.592,178.98305084745763,39.618,180,39.644L180,40C178.98305084745763,40,177.96610169491527,40,176.9491525423729,40C175.93220338983053,40,174.91525423728814,40,173.89830508474577,40C172.8813559322034,40,171.864406779661,40,170.84745762711864,40C169.83050847457628,40,168.81355932203388,40,167.79661016949152,40C166.77966101694915,40,165.76271186440678,40,164.74576271186442,40C163.72881355932205,40,162.71186440677965,40,161.6949152542373,40C160.67796610169492,40,159.66101694915253,40,158.64406779661016,40C157.6271186440678,40,156.61016949152543,40,155.59322033898306,40C154.5762711864407,40,153.5593220338983,40,152.54237288135593,40C151.52542372881356,40,150.50847457627117,40,149.4915254237288,40C148.47457627118644,40,147.45762711864407,40,146.4406779661017,40C145.42372881355934,40,144.40677966101694,40,143.38983050847457,40C142.3728813559322,40,141.35593220338984,40,140.33898305084747,40C139.3220338983051,40,138.3050847457627,40,137.28813559322035,40C136.27118644067798,40,135.25423728813558,40,134.23728813559322,40C133.22033898305085,40,132.20338983050846,40,131.1864406779661,40C130.16949152542372,40,129.15254237288136,40,128.135593220339,40C127.11864406779662,40,126.10169491525424,40,125.08474576271188,40C124.0677966101695,40,123.05084745762711,40,122.03389830508473,40C121.01694915254237,40,120,40,118.98305084745763,40C117.96610169491525,40,116.94915254237289,40,115.9322033898305,40C114.91525423728814,40,113.89830508474576,40,112.88135593220339,40C111.86440677966102,40,110.84745762711864,40,109.83050847457628,40C108.8135593220339,40,107.79661016949153,40,106.77966101694915,40C105.76271186440678,40,104.7457627118644,40,103.72881355932203,40C102.71186440677965,40,101.69491525423729,40,100.6779661016949,40C99.66101694915254,40,98.64406779661016,40,97.62711864406779,40C96.61016949152543,40,95.59322033898306,40,94.57627118644069,40C93.55932203389831,40,92.54237288135593,40,91.52542372881355,40C90.50847457627118,40,89.49152542372882,40,88.47457627118645,40C87.45762711864407,40,86.4406779661017,40,85.42372881355932,40C84.40677966101696,40,83.38983050847457,40,82.37288135593221,40C81.35593220338983,40,80.33898305084746,40,79.32203389830508,40C78.30508474576271,40,77.28813559322033,40,76.27118644067797,40C75.2542372881356,40,74.23728813559322,40,73.22033898305085,40C72.20338983050848,40,71.1864406779661,40,70.16949152542374,40C69.15254237288136,40,68.13559322033899,40,67.11864406779661,40C66.10169491525424,40,65.08474576271186,40,64.0677966101695,40C63.05084745762712,40,62.03389830508474,40,61.01694915254237,40C59.99999999999999,40,58.983050847457626,40,57.96610169491525,40C56.94915254237288,40,55.93220338983051,40,54.91525423728814,40C53.898305084745765,40,52.88135593220339,40,51.86440677966102,40C50.847457627118644,40,49.83050847457627,40,48.813559322033896,40C47.79661016949152,40,46.77966101694915,40,45.762711864406775,40C44.7457627118644,40,43.728813559322035,40,42.71186440677966,40C41.69491525423729,40,40.67796610169491,40,39.66101694915254,40C38.644067796610166,40,37.6271186440678,40,36.610169491525426,40C35.59322033898305,40,34.57627118644068,40,33.559322033898304,40C32.54237288135593,40,31.525423728813557,40,30.508474576271183,40C29.491525423728813,40,28.47457627118644,40,27.45762711864407,40C26.440677966101696,40,25.423728813559322,40,24.406779661016948,40C23.389830508474574,40,22.372881355932204,40,21.35593220338983,40C20.338983050847457,40,19.322033898305087,40,18.305084745762713,40C17.28813559322034,40,16.271186440677965,40,15.254237288135592,40C14.23728813559322,40,13.220338983050846,40,12.203389830508474,40C11.186440677966102,40,10.169491525423728,40,9.152542372881356,40C8.135593220338983,40,7.11864406779661,40,6.101694915254237,40C5.084745762711864,40,4.067796610169491,40,3.0508474576271185,40C2.0338983050847457,40,1.0169491525423728,40,0,40Z"></path><path class="line" stroke="black" fill="none" d="M0,17.524C1.0169491525423728,18.47233333333333,2.0338983050847457,19.420666666666666,3.0508474576271185,20.003999999999998C4.067796610169491,20.58733333333333,5.084745762711864,20.343999999999998,6.101694915254237,21.024C7.11864406779661,21.704000000000004,8.135593220338983,22.516666666666666,9.152542372881356,24.192C10.169491525423728,25.867333333333335,11.186440677966102,31.076,12.203389830508474,31.076C13.220338983050846,31.076,14.23728813559322,27.307999999999996,15.254237288135592,25.827999999999996C16.271186440677965,24.347999999999995,17.28813559322034,22.195999999999998,18.305084745762713,22.195999999999998C19.322033898305087,22.195999999999998,20.338983050847457,25.26666666666667,21.35593220338983,26.348000000000003C22.372881355932204,27.429333333333336,23.389830508474574,28.42000000000001,24.406779661016948,28.684000000000005C25.423728813559322,28.948,26.440677966101696,28.816000000000003,27.45762711864407,29.08C28.47457627118644,29.343999999999994,29.491525423728813,29.702,30.508474576271183,30.82C31.525423728813557,31.938000000000002,32.54237288135593,35.788000000000004,33.559322033898304,35.788000000000004C34.57627118644068,35.788000000000004,35.59322033898305,31.628000000000004,36.610169491525426,31.356C37.6271186440678,31.084,38.644067796610166,30.948,39.66101694915254,30.948C40.67796610169491,30.948,41.69491525423729,32.29866666666666,42.71186440677966,32.772C43.728813559322035,33.24533333333333,44.7457627118644,33.649333333333324,45.762711864406775,33.788C46.77966101694915,33.92666666666667,47.79661016949152,33.85733333333333,48.813559322033896,33.996C49.83050847457627,34.134666666666675,50.847457627118644,35.40466666666667,51.86440677966102,35.996C52.88135593220339,36.58733333333333,53.898305084745765,37.192,54.91525423728814,37.544C55.93220338983051,37.895999999999994,56.94915254237288,38.108,57.96610169491525,38.108C58.983050847457626,38.108,59.99999999999999,34.876,61.01694915254237,34.836C62.03389830508474,34.796,63.05084745762712,34.775999999999996,64.0677966101695,34.775999999999996C65.08474576271186,34.775999999999996,66.10169491525424,37.676,67.11864406779661,37.676C68.13559322033899,37.676,69.15254237288136,36.108000000000004,70.16949152542374,36.108000000000004C71.1864406779661,36.108000000000004,72.20338983050848,36.656666666666666,73.22033898305085,37.068C74.23728813559322,37.47933333333333,75.2542372881356,38.576,76.27118644067797,38.576C77.28813559322033,38.576,78.30508474576271,37.577333333333335,79.32203389830508,37.364000000000004C80.33898305084746,37.15066666666667,81.35593220338983,37.044000000000004,82.37288135593221,37.044000000000004C83.38983050847457,37.044000000000004,84.40677966101696,37.553333333333335,85.42372881355932,37.716C86.4406779661017,37.87866666666667,87.45762711864407,37.92866666666667,88.47457627118645,38.02C89.49152542372882,38.111333333333334,90.50847457627118,38.13866666666667,91.52542372881355,38.264C92.54237288135593,38.38933333333334,93.55932203389831,38.60066666666667,94.57627118644069,38.772000000000006C95.59322033898306,38.943333333333335,96.61016949152543,39.292,97.62711864406779,39.292C98.64406779661016,39.292,99.66101694915254,38.652,100.6779661016949,38.5C101.69491525423729,38.348,102.71186440677965,38.272,103.72881355932203,38.272C104.7457627118644,38.272,105.76271186440678,38.339333333333336,106.77966101694915,38.396C107.79661016949153,38.452666666666666,108.8135593220339,38.519333333333336,109.83050847457628,38.612C110.84745762711864,38.70466666666667,111.86440677966102,38.849333333333334,112.88135593220339,38.952C113.89830508474576,39.05466666666666,114.91525423728814,39.11333333333334,115.9322033898305,39.228C116.94915254237289,39.342666666666666,117.96610169491525,39.64,118.98305084745763,39.64C120,39.64,121.01694915254237,39.11066666666667,122.03389830508473,39.068C123.05084745762711,39.02533333333333,124.0677966101695,39.004,125.08474576271188,39.004C126.10169491525424,39.004,127.11864406779662,39.086666666666666,128.135593220339,39.148C129.15254237288136,39.20933333333333,130.16949152542372,39.32933333333333,131.1864406779661,39.372C132.20338983050846,39.41466666666667,133.22033898305085,39.436,134.23728813559322,39.436C135.25423728813558,39.436,136.27118644067798,39.416000000000004,137.28813559322035,39.416000000000004C138.3050847457627,39.416000000000004,139.3220338983051,39.775999999999996,140.33898305084747,39.775999999999996C141.35593220338984,39.775999999999996,142.3728813559322,39.364,143.38983050847457,39.364C144.40677966101694,39.364,145.42372881355934,39.37466666666666,146.4406779661017,39.396C147.45762711864407,39.41733333333334,148.47457627118644,39.532,149.4915254237288,39.532C150.50847457627117,39.532,151.52542372881356,39.516,152.54237288135593,39.516C153.5593220338983,39.516,154.5762711864407,39.51733333333333,155.59322033898306,39.519999999999996C156.61016949152543,39.52266666666666,157.6271186440678,39.57933333333333,158.64406779661016,39.608C159.66101694915253,39.63666666666666,160.67796610169492,39.692,161.6949152542373,39.692C162.71186440677965,39.692,163.72881355932205,39.36,164.74576271186442,39.36C165.76271186440678,39.36,166.77966101694915,39.548,167.79661016949152,39.548C168.81355932203388,39.548,169.83050847457628,39.548,170.84745762711864,39.548C171.864406779661,39.548,172.8813559322034,39.548,173.89830508474577,39.548C174.91525423728814,39.548,175.93220338983053,39.56,176.9491525423729,39.576C177.96610169491527,39.592,178.98305084745763,39.618,180,39.644"></path><path class="axis-ceiling" stroke-width="1" stroke="black" fill="none" d="M175,0L180,0"></path><text class="axis-ceiling-label" font-family="sans-serif" text-anchor="end" font-size="10px" x="170" y="2.5">10000</text></g></svg>