<svg xmlns="http://www.w3.org/2000/svg" viewBox="0 0 180 60"><g transform="translate(0,20)"><path class="area" fill="rgba(0, 0, 0, 0.2)" d="M0,26.982666666666667C1.0344827586206897,27.471333333333334,2.068965517241379,27.960000000000004,3.103448275862069,28.288000000000004C4.137931034482759,28.616000000000003,5.172413793103448,28.801555555555556,6.206896551724138,28.950666666666667C7.241379310344827,29.099777777777778,8.275862068965516,29.028000000000002,9.310344827586206,29.18266666666667C10.344827586206897,29.337333333333337,11.379310344827585,29.67955555555556,12.413793103448276,30.673333333333336C13.448275862068966,31.66711111111111,14.482758620689655,35.678666666666665,15.517241379310345,35.678666666666665C16.551724137931036,35.678666666666665,17.586206896551722,29.037333333333333,18.620689655172413,28.914666666666665C19.655172413793103,28.791999999999998,20.689655172413794,28.730666666666664,21.724137931034484,28.730666666666664C22.758620689655174,28.730666666666664,23.79310344827586,30.042444444444445,24.82758620689655,30.513333333333335C25.862068965517242,30.984222222222225,26.896551724137932,31.30222222222222,27.931034482758623,31.555999999999997C28.965517241379313,31.809777777777775,30,31.715999999999998,31.03448275862069,32.036C32.06896551724138,32.356,33.103448275862064,33.147111111111116,34.137931034482754,34.04C35.172413793103445,34.93288888888889,36.206896551724135,37.39333333333333,37.241379310344826,37.39333333333333C38.275862068965516,37.39333333333333,39.310344827586206,32.678666666666665,40.3448275862069,32.678666666666665C41.37931034482759,32.678666666666665,42.41379310344828,32.86688888888889,43.44827586206897,33.12266666666667C44.48275862068966,33.37844444444445,45.51724137931035,34.11911111111111,46.55172413793104,34.21333333333333C47.58620689655173,34.30755555555555,48.62068965517241,34.30311111111111,49.6551724137931,34.35466666666667C50.689655172413794,34.406222222222226,51.72413793103448,34.410666666666664,52.75862068965517,34.522666666666666C53.79310344827586,34.63466666666667,54.827586206896555,35.087555555555554,55.862068965517246,35.657333333333334C56.896551724137936,36.227111111111114,57.93103448275862,37.94133333333333,58.96551724137931,37.94133333333333C60,37.94133333333333,61.03448275862069,34.36577777777777,62.06896551724138,34.28666666666666C63.10344827586207,34.20755555555555,64.13793103448276,34.168,65.17241379310344,34.168C66.20689655172413,34.168,67.24137931034483,34.92644444444445,68.27586206896551,35.15866666666667C69.3103448275862,35.390888888888895,70.34482758620689,35.516000000000005,71.37931034482759,35.56133333333334C72.41379310344827,35.60666666666667,73.44827586206897,35.584,74.48275862068965,35.629333333333335C75.51724137931033,35.67466666666667,76.55172413793103,35.79066666666667,77.58620689655172,36.11333333333334C78.62068965517241,36.43600000000001,79.6551724137931,38.19866666666667,80.6896551724138,38.19866666666667C81.72413793103448,38.19866666666667,82.75862068965517,35.18266666666667,83.79310344827586,35.14C84.82758620689656,35.09733333333333,85.86206896551724,35.076,86.89655172413794,35.076C87.93103448275862,35.076,88.96551724137932,35.574222222222225,90,35.717333333333336C91.0344827586207,35.86044444444445,92.06896551724138,35.934666666666665,93.10344827586208,35.934666666666665C94.13793103448276,35.934666666666665,95.17241379310344,35.69466666666666,96.20689655172413,35.69466666666666C97.24137931034483,35.69466666666666,98.27586206896551,35.99755555555556,99.3103448275862,36.42C100.3448275862069,36.842444444444446,101.37931034482759,38.22933333333333,102.41379310344828,38.22933333333333C103.44827586206897,38.22933333333333,104.48275862068965,35.480888888888884,105.51724137931033,35.263999999999996C106.55172413793103,35.04711111111111,107.58620689655172,34.93866666666666,108.62068965517241,34.93866666666666C109.65517241379311,34.93866666666666,110.6896551724138,35.14777777777777,111.72413793103449,35.21733333333333C112.75862068965517,35.28688888888888,113.79310344827587,35.356,114.82758620689656,35.356C115.86206896551724,35.356,116.89655172413794,35.06133333333334,117.93103448275862,35.06133333333334C118.96551724137932,35.06133333333334,120,35.49088888888888,121.0344827586207,35.934666666666665C122.06896551724138,36.37844444444444,123.10344827586208,37.724000000000004,124.13793103448276,37.724000000000004C125.17241379310344,37.724000000000004,126.20689655172414,34.05022222222223,127.24137931034483,33.60933333333334C128.27586206896552,33.16844444444445,129.3103448275862,33.087555555555554,130.3448275862069,32.948C131.3793103448276,32.80844444444445,132.41379310344828,32.754666666666665,133.44827586206898,32.73866666666667C134.48275862068965,32.72266666666667,135.51724137931035,32.730666666666664,136.55172413793102,32.714666666666666C137.58620689655172,32.69866666666667,138.6206896551724,32.18266666666666,139.6551724137931,32.18266666666666C140.6896551724138,32.18266666666666,141.72413793103448,32.37333333333333,142.75862068965517,32.754666666666665C143.79310344827587,33.136,144.82758620689654,35.852,145.86206896551724,35.852C146.89655172413794,35.852,147.9310344827586,28.88799999999999,148.9655172413793,27.408C150,25.927999999999997,151.0344827586207,25.27066666666666,152.0689655172414,25.187999999999995C153.10344827586206,25.10533333333333,154.13793103448276,25.146666666666665,155.17241379310343,25.064C156.20689655172413,24.981333333333335,157.24137931034483,24.46244444444445,158.27586206896552,24.09066666666667C159.31034482758622,23.718888888888895,160.3448275862069,23.11711111111111,161.3793103448276,22.833333333333332C162.41379310344828,22.549555555555553,163.44827586206895,22.387999999999998,164.48275862068965,22.387999999999998C165.51724137931035,22.387999999999998,166.55172413793102,29.44533333333333,167.58620689655172,29.44533333333333C168.6206896551724,29.44533333333333,169.6551724137931,17.01288888888889,170.6896551724138,13.370666666666668C171.7241379310345,9.728444444444479,172.75862068965517,8.718222222222222,173.79310344827587,7.591999999999999C174.82758620689657,6.4657777777777765,175.86206896551724,6.324444444444442,176.89655172413794,5.902666666666665C177.93103448275863,5.480888888888888,178.9655172413793,5.271111111111112,180,5.0613333333333355L180,40C178.9655172413793,40,177.93103448275863,40,176.89655172413794,40C175.86206896551724,40,174.82758620689657,40,173.79310344827587,40C172.75862068965517,40,171.7241379310345,40,170.6896551724138,40C169.6551724137931,40,168.6206896551724,40,167.58620689655172,40C166.55172413793102,40,165.51724137931035,40,164.48275862068965,40C163.44827586206895,40,162.41379310344828,40,161.3793103448276,40C160.3448275862069,40,159.31034482758622,40,158.27586206896552,40C157.24137931034483,40,156.20689655172413,40,155.17241379310343,40C154.13793103448276,40,153.10344827586206,40,152.0689655172414,40C151.0344827586207,40,150,40,148.9655172413793,40C147.9310344827586,40,146.89655172413794,40,145.86206896551724,40C144.82758620689654,40,143.79310344827587,40,142.75862068965517,40C141.72413793103448,40,140.6896551724138,40,139.6551724137931,40C138.6206896551724,40,137.58620689655172,40,136.55172413793102,40C135.51724137931035,40,134.48275862068965,40,133.44827586206898,40C132.41379310344828,40,131.3793103448276,40,130.3448275862069,40C129.3103448275862,40,128.27586206896552,40,127.24137931034483,40C126.20689655172414,40,125.17241379310344,40,124.13793103448276,40C123.10344827586208,40,122.06896551724138,40,121.0344827586207,40C120,40,118.96551724137932,40,117.93103448275862,40C116.89655172413794,40,115.86206896551724,40,114.82758620689656,40C113.79310344827587,40,112.75862068965517,40,111.72413793103449,40C110.6896551724138,40,109.65517241379311,40,108.62068965517241,40C107.58620689655172,40,106.55172413793103,40,105.51724137931033,40C104.48275862068965,40,103.44827586206897,40,102.41379310344828,40C101.37931034482759,40,100.3448275862069,40,99.3103448275862,40C98.27586206896551,40,97.24137931034483,40,96.20689655172413,40C95.17241379310344,40,94.13793103448276,40,93.10344827586208,40C92.06896551724138,40,91.0344827586207,40,90,40C88.96551724137932,40,87.93103448275862,40,86.89655172413794,40C85.86206896551724,40,84.82758620689656,40,83.79310344827586,40C82.75862068965517,40,81.72413793103448,40,80.6896551724138,40C79.6551724137931,40,78.62068965517241,40,77.58620689655172,40C76.55172413793103,40,75.51724137931033,40,74.48275862068965,40C73.44827586206897,40,72.41379310344827,40,71.37931034482759,40C70.34482758620689,40,69.3103448275862,40,68.27586206896551,40C67.24137931034483,40,66.20689655172413,40,65.17241379310344,40C64.13793103448276,40,63.10344827586207,40,62.06896551724138,40C61.03448275862069,40,60,40,58.96551724137931,40C57.93103448275862,40,56.896551724137936,40,55.862068965517246,40C54.827586206896555,40,53.79310344827586,40,52.75862068965517,40C51.72413793103448,40,50.689655172413794,40,49.6551724137931,40C48.62068965517241,40,47.58620689655173,40,46.55172413793104,40C45.51724137931035,40,44.48275862068966,40,43.44827586206897,40C42.41379310344828,40,41.37931034482759,40,40.3448275862069,40C39.310344827586206,40,38.275862068965516,40,37.241379310344826,40C36.206896551724135,40,35.172413793103445,40,34.137931034482754,40C33.103448275862064,40,32.06896551724138,40,31.03448275862069,40C30,40,28.965517241379313,40,27.931034482758623,40C26.896551724137932,40,25.862068965517242,40,24.82758620689655,40C23.79310344827586,40,22.758620689655174,40,21.724137931034484,40C20.689655172413794,40,19.655172413793103,40,18.620689655172413,40C17.586206896551722,40,16.551724137931036,40,15.517241379310345,40C14.482758620689655,40,13.448275862068966,40,12.413793103448276,40C11.379310344827585,40,10.344827586206897,40,9.310344827586206,40C8.275862068965516,40,7.241379310344827,40,6.206896551724138,40C5.172413793103448,40,4.137931034482759,40,3.103448275862069,40C2.068965517241379,40,1.0344827586206897,40,0,40Z"></path><path class="line" stroke="black" fill="none" d="M0,26.982666666666667C1.0344827586206897,27.471333333333334,2.068965517241379,27.960000000000004,3.103448275862069,28.288000000000004C4.137931034482759,28.616000000000003,5.172413793103448,28.801555555555556,6.206896551724138,28.950666666666667C7.241379310344827,29.099777777777778,8.275862068965516,29.028000000000002,9.310344827586206,29.18266666666667C10.344827586206897,29.337333333333337,11.379310344827585,29.67955555555556,12.413793103448276,30.673333333333336C13.448275862068966,31.66711111111111,14.482758620689655,35.678666666666665,15.517241379310345,35.678666666666665C16.551724137931036,35.678666666666665,17.586206896551722,29.037333333333333,18.620689655172413,28.914666666666665C19.655172413793103,28.791999999999998,20.689655172413794,28.730666666666664,21.724137931034484,28.730666666666664C22.758620689655174,28.730666666666664,23.79310344827586,30.042444444444445,24.82758620689655,30.513333333333335C25.862068965517242,30.984222222222225,26.896551724137932,31.30222222222222,27.931034482758623,31.555999999999997C28.965517241379313,31.809777777777775,30,31.715999999999998,31.03448275862069,32.036C32.06896551724138,32.356,33.103448275862064,33.147111111111116,34.137931034482754,34.04C35.172413793103445,34.93288888888889,36.206896551724135,37.39333333333333,37.241379310344826,37.39333333333333C38.275862068965516,37.39333333333333,39.310344827586206,32.678666666666665,40.3448275862069,32.678666666666665C41.37931034482759,32.678666666666665,42.41379310344828,32.86688888888889,43.44827586206897,33.12266666666667C44.48275862068966,33.37844444444445,45.51724137931035,34.11911111111111,46.55172413793104,34.21333333333333C47.58620689655173,34.30755555555555,48.62068965517241,34.30311111111111,49.6551724137931,34.35466666666667C50.689655172413794,34.406222222222226,51.72413793103448,34.410666666666664,52.75862068965517,34.522666666666666C53.79310344827586,34.63466666666667,54.827586206896555,35.087555555555554,55.862068965517246,35.657333333333334C56.896551724137936,36.227111111111114,57.93103448275862,37.94133333333333,58.96551724137931,37.94133333333333C60,37.94133333333333,61.03448275862069,34.36577777777777,62.06896551724138,34.28666666666666C63.10344827586207,34.20755555555555,64.13793103448276,34.168,65.17241379310344,34.168C66.20689655172413,34.168,67.24137931034483,34.92644444444445,68.27586206896551,35.15866666666667C69.3103448275862,35.390888888888895,70.34482758620689,35.516000000000005,71.37931034482759,35.56133333333334C72.41379310344827,35.60666666666667,73.44827586206897,35.584,74.48275862068965,35.629333333333335C75.51724137931033,35.67466666666667,76.55172413793103,35.79066666666667,77.58620689655172,36.11333333333334C78.62068965517241,36.43600000000001,79.6551724137931,38.19866666666667,80.6896551724138,38.19866666666667C81.72413793103448,38.19866666666667,82.75862068965517,35.18266666666667,83.79310344827586,35.14C84.82758620689656,35.09733333333333,85.86206896551724,35.076,86.89655172413794,35.076C87.93103448275862,35.076,88.96551724137932,35.574222222222225,90,35.717333333333336C91.0344827586207,35.86044444444445,92.06896551724138,35.934666666666665,93.10344827586208,35.934666666666665C94.13793103448276,35.934666666666665,95.17241379310344,35.69466666666666,96.20689655172413,35.69466666666666C97.24137931034483,35.69466666666666,98.27586206896551,35.99755555555556,99.3103448275862,36.42C100.3448275862069,36.842444444444446,101.37931034482759,38.22933333333333,102.41379310344828,38.22933333333333C103.44827586206897,38.22933333333333,104.48275862068965,35.480888888888884,105.51724137931033,35.263999999999996C106.55172413793103,35.04711111111111,107.58620689655172,34.93866666666666,108.62068965517241,34.93866666666666C109.65517241379311,34.93866666666666,110.6896551724138,35.14777777777777,111.72413793103449,35.21733333333333C112.75862068965517,35.28688888888888,113.79310344827587,35.356,114.82758620689656,35.356C115.86206896551724,35.356,116.89655172413794,35.06133333333334,117.93103448275862,35.06133333333334C118.96551724137932,35.06133333333334,120,35.49088888888888,121.0344827586207,35.934666666666665C122.06896551724138,36.37844444444444,123.10344827586208,37.724000000000004,124.13793103448276,37.724000000000004C125.17241379310344,37.724000000000004,126.20689655172414,34.05022222222223,127.24137931034483,33.60933333333334C128.27586206896552,33.16844444444445,129.3103448275862,33.087555555555554,130.3448275862069,32.948C131.3793103448276,32.80844444444445,132.41379310344828,32.754666666666665,133.44827586206898,32.73866666666667C134.48275862068965,32.72266666666667,135.51724137931035,32.730666666666664,136.55172413793102,32.714666666666666C137.58620689655172,32.69866666666667,138.6206896551724,32.18266666666666,139.6551724137931,32.18266666666666C140.6896551724138,32.18266666666666,141.72413793103448,32.37333333333333,142.75862068965517,32.754666666666665C143.79310344827587,33.136,144.82758620689654,35.852,145.86206896551724,35.852C146.89655172413794,35.852,147.9310344827586,28.88799999999999,148.9655172413793,27.408C150,25.927999999999997,151.0344827586207,25.27066666666666,152.0689655172414,25.187999999999995C153.10344827586206,25.10533333333333,154.13793103448276,25.146666666666665,155.17241379310343,25.064C156.20689655172413,24.981333333333335,157.24137931034483,24.46244444444445,158.27586206896552,24.09066666666667C159.31034482758622,23.718888888888895,160.3448275862069,23.11711111111111,161.3793103448276,22.833333333333332C162.41379310344828,22.549555555555553,163.44827586206895,22.387999999999998,164.48275862068965,22.387999999999998C165.51724137931035,22.387999999999998,166.55172413793102,29.44533333333333,167.58620689655172,29.44533333333333C168.6206896551724,29.44533333333333,169.6551724137931,17.01288888888889,170.6896551724138,13.370666666666668C171.7241379310345,9.728444444444479,172.75862068965517,8.718222222222222,173.79310344827587,7.591999999999999C174.82758620689657,6.4657777777777765,175.86206896551724,6.324444444444442,176.89655172413794,5.902666666666665C177.93103448275863,5.480888888888888,178.9655172413793,5.271111111111112,180,5.0613333333333355"></path><path class="axis-ceiling" stroke-width="1" stroke="black" fill="none" d="M175,0L180,0"></path><text class="axis-ceiling-label" font-family="sans-serif" text-anchor="end" font-size="10px" x="170" y="2.5">30000</text></g></svg>