<svg xmlns="http://www.w3.org/2000/svg" viewBox="0 0 180 60"><g transform="translate(0,20)"><path class="area" fill="rgba(0, 0, 0, 0.2)" d="M0,36.96C1.0169491525423728,36.93333333333334,2.0338983050847457,36.906666666666666,3.0508474576271185,36.800000000000004C4.067796610169491,36.69333333333334,5.084745762711864,35.973333333333336,6.101694915254237,35.6C7.11864406779661,35.22666666666667,8.135593220338983,34.85333333333334,9.152542372881356,34.56C10.169491525423728,34.266666666666666,11.186440677966102,34.32,12.203389830508474,33.839999999999996C13.220338983050846,33.35999999999999,14.23728813559322,31.64,15.254237288135592,30.8C16.271186440677965,29.96,17.28813559322034,29.41333333333333,18.305084745762713,28.799999999999997C19.322033898305087,28.186666666666664,20.338983050847457,27.119999999999997,21.35593220338983,27.119999999999997C22.372881355932204,27.119999999999997,23.389830508474574,28.4,24.406779661016948,28.4C25.423728813559322,28.4,26.440677966101696,28.37333333333333,27.45762711864407,28.32C28.47457627118644,28.26666666666667,29.491525423728813,22.240000000000002,30.508474576271183,22.240000000000002C31.525423728813557,22.240000000000002,32.54237288135593,26.799999999999997,33.559322033898304,26.799999999999997C34.57627118644068,26.799999999999997,35.59322033898305,26.133333333333333,36.610169491525426,24.8C37.6271186440678,23.466666666666672,38.644067796610166,18.986666666666668,39.66101694915254,17.040000000000003C40.67796610169491,15.093333333333332,41.69491525423729,15.720000000000004,42.71186440677966,13.119999999999997C43.728813559322035,10.519999999999998,44.7457627118644,1.4400000000000013,45.762711864406775,1.4400000000000013C46.77966101694915,1.4400000000000013,47.79661016949152,10.32,48.813559322033896,10.32C49.83050847457627,10.32,50.847457627118644,5.5200000000000005,51.86440677966102,5.5200000000000005C52.88135593220339,5.5200000000000005,53.898305084745765,22.32,54.91525423728814,22.32C55.93220338983051,22.32,56.94915254237288,14.733333333333336,57.96610169491525,12.480000000000002C58.983050847457626,10.226666666666668,59.99999999999999,8.959999999999999,61.01694915254237,8.799999999999999C62.03389830508474,8.639999999999999,63.05084745762712,8.719999999999999,64.0677966101695,8.559999999999999C65.08474576271186,8.399999999999999,66.10169491525424,7.5600000000000005,67.11864406779661,7.120000000000002C68.13559322033899,6.680000000000001,69.15254237288136,5.920000000000001,70.16949152542374,5.920000000000001C71.1864406779661,5.920000000000001,72.20338983050848,6.453333333333333,73.22033898305085,7.519999999999998C74.23728813559322,8.586666666666662,75.2542372881356,21.306666666666676,76.27118644067797,22.800000000000004C77.28813559322033,24.293333333333333,78.30508474576271,25.04,79.32203389830508,25.04C80.33898305084746,25.04,81.35593220338983,23.080000000000016,82.37288135593221,20.240000000000002C83.38983050847457,17.400000000000002,84.40677966101696,7.999999999999998,85.42372881355932,7.999999999999998C86.4406779661017,7.999999999999998,87.45762711864407,8.399999999999999,88.47457627118645,9.2C89.49152542372882,9.999999999999993,90.50847457627118,20.240000000000002,91.52542372881355,20.240000000000002C92.54237288135593,20.240000000000002,93.55932203389831,19.52,94.57627118644069,19.52C95.59322033898306,19.52,96.61016949152543,26.639999999999997,97.62711864406779,26.639999999999997C98.64406779661016,26.639999999999997,99.66101694915254,26.61333333333333,100.6779661016949,26.559999999999995C101.69491525423729,26.50666666666666,102.71186440677965,15.68,103.72881355932203,15.68C104.7457627118644,15.68,105.76271186440678,22.560000000000002,106.77966101694915,22.560000000000002C107.79661016949153,22.560000000000002,108.8135593220339,21.28,109.83050847457628,21.28C110.84745762711864,21.28,111.86440677966102,23.28,112.88135593220339,24.16C113.89830508474576,25.04,114.91525423728814,25.826666666666664,115.9322033898305,26.559999999999995C116.94915254237289,27.29333333333333,117.96610169491525,28.56,118.98305084745763,28.56C120,28.56,121.01694915254237,28.026666666666664,122.03389830508473,27.68C123.05084745762711,27.333333333333332,124.0677966101695,26.84,125.08474576271188,26.479999999999997C126.10169491525424,26.119999999999997,127.11864406779662,25.92,128.135593220339,25.52C129.15254237288136,25.12,130.16949152542372,24.41333333333333,131.1864406779661,24.08C132.20338983050846,23.746666666666663,133.22033898305085,23.520000000000003,134.23728813559322,23.520000000000003C135.25423728813558,23.520000000000003,136.27118644067798,23.680000000000003,137.28813559322035,24C138.3050847457627,24.319999999999997,139.3220338983051,31.866666666666674,140.33898305084747,32.400000000000006C141.35593220338984,32.93333333333333,142.3728813559322,33.199999999999996,143.38983050847457,33.199999999999996C144.40677966101694,33.199999999999996,145.42372881355934,30.32,146.4406779661017,30.32C147.45762711864407,30.32,148.47457627118644,31.44,149.4915254237288,31.6C150.50847457627117,31.76,151.52542372881356,31.680000000000003,152.54237288135593,31.840000000000003C153.5593220338983,32.00000000000001,154.5762711864407,32.64000000000001,155.59322033898306,33.040000000000006C156.61016949152543,33.440000000000005,157.6271186440678,33.440000000000005,158.64406779661016,34.24C159.66101694915253,35.040000000000006,160.67796610169492,38.32,161.6949152542373,38.32C162.71186440677965,38.32,163.72881355932205,34.4,164.74576271186442,34.4C165.76271186440678,34.4,166.77966101694915,34.8,167.79661016949152,34.8C168.81355932203388,34.8,169.83050847457628,34.61333333333334,170.84745762711864,34.56C171.864406779661,34.50666666666667,172.8813559322034,34.48,173.89830508474577,34.48C174.91525423728814,34.48,175.93220338983053,35.54666666666666,176.9491525423729,36.32C177.96610169491527,37.093333333333334,178.98305084745763,38.10666666666666,180,39.12L180,40C178.98305084745763,40,177.96610169491527,40,176.9491525423729,40C175.93220338983053,40,174.91525423728814,40,173.89830508474577,40C172.8813559322034,40,171.864406779661,40,170.84745762711864,40C169.83050847457628,40,168.81355932203388,40,167.79661016949152,40C166.77966101694915,40,165.76271186440678,40,164.74576271186442,40C163.72881355932205,40,162.71186440677965,40,161.6949152542373,40C160.67796610169492,40,159.66101694915253,40,158.64406779661016,40C157.6271186440678,40,156.61016949152543,40,155.59322033898306,40C154.5762711864407,40,153.5593220338983,40,152.54237288135593,40C151.52542372881356,40,150.50847457627117,40,149.4915254237288,40C148.47457627118644,40,147.45762711864407,40,146.4406779661017,40C145.42372881355934,40,144.40677966101694,40,143.38983050847457,40C142.3728813559322,40,141.35593220338984,40,140.33898305084747,40C139.3220338983051,40,138.3050847457627,40,137.28813559322035,40C136.27118644067798,40,135.25423728813558,40,134.23728813559322,40C133.22033898305085,40,132.20338983050846,40,131.1864406779661,40C130.16949152542372,40,129.15254237288136,40,128.135593220339,40C127.11864406779662,40,126.10169491525424,40,125.08474576271188,40C124.0677966101695,40,123.05084745762711,40,122.03389830508473,40C121.01694915254237,40,120,40,118.98305084745763,40C117.96610169491525,40,116.94915254237289,40,115.9322033898305,40C114.91525423728814,40,113.89830508474576,40,112.88135593220339,40C111.86440677966102,40,110.84745762711864,40,109.83050847457628,40C108.8135593220339,40,107.79661016949153,40,106.77966101694915,40C105.76271186440678,40,104.7457627118644,40,103.72881355932203,40C102.71186440677965,40,101.69491525423729,40,100.6779661016949,40C99.66101694915254,40,98.64406779661016,40,97.62711864406779,40C96.61016949152543,40,95.59322033898306,40,94.57627118644069,40C93.55932203389831,40,92.54237288135593,40,91.52542372881355,40C90.50847457627118,40,89.49152542372882,40,88.47457627118645,40C87.45762711864407,40,86.4406779661017,40,85.42372881355932,40C84.40677966101696,40,83.38983050847457,40,82.37288135593221,40C81.35593220338983,40,80.33898305084746,40,79.32203389830508,40C78.30508474576271,40,77.28813559322033,40,76.27118644067797,40C75.2542372881356,40,74.23728813559322,40,73.22033898305085,40C72.20338983050848,40,71.1864406779661,40,70.16949152542374,40C69.15254237288136,40,68.13559322033899,40,67.11864406779661,40C66.10169491525424,40,65.08474576271186,40,64.0677966101695,40C63.05084745762712,40,62.03389830508474,40,61.01694915254237,40C59.99999999999999,40,58.983050847457626,40,57.96610169491525,40C56.94915254237288,40,55.93220338983051,40,54.91525423728814,40C53.898305084745765,40,52.88135593220339,40,51.86440677966102,40C50.847457627118644,40,49.83050847457627,40,48.813559322033896,40C47.79661016949152,40,46.77966101694915,40,45.762711864406775,40C44.7457627118644,40,43.728813559322035,40,42.71186440677966,40C41.69491525423729,40,40.67796610169491,40,39.66101694915254,40C38.644067796610166,40,37.6271186440678,40,36.610169491525426,40C35.59322033898305,40,34.57627118644068,40,33.559322033898304,40C32.54237288135593,40,31.525423728813557,40,30.508474576271183,40C29.491525423728813,40,28.47457627118644,40,27.45762711864407,40C26.440677966101696,40,25.423728813559322,40,24.406779661016948,40C23.389830508474574,40,22.372881355932204,40,21.35593220338983,40C20.338983050847457,40,19.322033898305087,40,18.305084745762713,40C17.28813559322034,40,16.271186440677965,40,15.254237288135592,40C14.23728813559322,40,13.220338983050846,40,12.203389830508474,40C11.186440677966102,40,10.169491525423728,40,9.152542372881356,40C8.135593220338983,40,7.11864406779661,40,6.101694915254237,40C5.084745762711864,40,4.067796610169491,40,3.0508474576271185,40C2.0338983050847457,40,1.0169491525423728,40,0,40Z"></path><path class="line" stroke="black" fill="none" d="M0,36.96C1.0169491525423728,36.93333333333334,2.0338983050847457,36.906666666666666,3.0508474576271185,36.800000000000004C4.067796610169491,36.69333333333334,5.084745762711864,35.973333333333336,6.101694915254237,35.6C7.11864406779661,35.22666666666667,8.135593220338983,34.85333333333334,9.152542372881356,34.56C10.169491525423728,34.266666666666666,11.186440677966102,34.32,12.203389830508474,33.839999999999996C13.220338983050846,33.35999999999999,14.23728813559322,31.64,15.254237288135592,30.8C16.271186440677965,29.96,17.28813559322034,29.41333333333333,18.305084745762713,28.799999999999997C19.322033898305087,28.186666666666664,20.338983050847457,27.119999999999997,21.35593220338983,27.119999999999997C22.372881355932204,27.119999999999997,23.389830508474574,28.4,24.406779661016948,28.4C25.423728813559322,28.4,26.440677966101696,28.37333333333333,27.45762711864407,28.32C28.47457627118644,28.26666666666667,29.491525423728813,22.240000000000002,30.508474576271183,22.240000000000002C31.525423728813557,22.240000000000002,32.54237288135593,26.799999999999997,33.559322033898304,26.799999999999997C34.57627118644068,26.799999999999997,35.59322033898305,26.133333333333333,36.610169491525426,24.8C37.6271186440678,23.466666666666672,38.644067796610166,18.986666666666668,39.66101694915254,17.040000000000003C40.67796610169491,15.093333333333332,41.69491525423729,15.720000000000004,42.71186440677966,13.119999999999997C43.728813559322035,10.519999999999998,44.7457627118644,1.4400000000000013,45.762711864406775,1.4400000000000013C46.77966101694915,1.4400000000000013,47.79661016949152,10.32,48.813559322033896,10.32C49.83050847457627,10.32,50.847457627118644,5.5200000000000005,51.86440677966102,5.5200000000000005C52.88135593220339,5.5200000000000005,53.898305084745765,22.32,54.91525423728814,22.32C55.93220338983051,22.32,56.94915254237288,14.733333333333336,57.96610169491525,12.480000000000002C58.983050847457626,10.226666666666668,59.99999999999999,8.959999999999999,61.01694915254237,8.799999999999999C62.03389830508474,8.639999999999999,63.05084745762712,8.719999999999999,64.0677966101695,8.559999999999999C65.08474576271186,8.399999999999999,66.10169491525424,7.5600000000000005,67.11864406779661,7.120000000000002C68.13559322033899,6.680000000000001,69.15254237288136,5.920000000000001,70.16949152542374,5.920000000000001C71.1864406779661,5.920000000000001,72.20338983050848,6.453333333333333,73.22033898305085,7.519999999999998C74.23728813559322,8.586666666666662,75.2542372881356,21.306666666666676,76.27118644067797,22.800000000000004C77.28813559322033,24.293333333333333,78.30508474576271,25.04,79.32203389830508,25.04C80.33898305084746,25.04,81.35593220338983,23.080000000000016,82.37288135593221,20.240000000000002C83.38983050847457,17.400000000000002,84.40677966101696,7.999999999999998,85.42372881355932,7.999999999999998C86.4406779661017,7.999999999999998,87.45762711864407,8.399999999999999,88.47457627118645,9.2C89.49152542372882,9.999999999999993,90.50847457627118,20.240000000000002,91.52542372881355,20.240000000000002C92.54237288135593,20.240000000000002,93.55932203389831,19.52,94.57627118644069,19.52C95.59322033898306,19.52,96.61016949152543,26.639999999999997,97.62711864406779,26.639999999999997C98.64406779661016,26.639999999999997,99.66101694915254,26.61333333333333,100.6779661016949,26.559999999999995C101.69491525423729,26.50666666666666,102.71186440677965,15.68,103.72881355932203,15.68C104.7457627118644,15.68,105.76271186440678,22.560000000000002,106.77966101694915,22.560000000000002C107.79661016949153,22.560000000000002,108.8135593220339,21.28,109.83050847457628,21.28C110.84745762711864,21.28,111.86440677966102,23.28,112.88135593220339,24.16C113.89830508474576,25.04,114.91525423728814,25.826666666666664,115.9322033898305,26.559999999999995C116.94915254237289,27.29333333333333,117.96610169491525,28.56,118.98305084745763,28.56C120,28.56,121.01694915254237,28.026666666666664,122.03389830508473,27.68C123.05084745762711,27.333333333333332,124.0677966101695,26.84,125.08474576271188,26.479999999999997C126.10169491525424,26.119999999999997,127.11864406779662,25.92,128.135593220339,25.52C129.15254237288136,25.12,130.16949152542372,24.41333333333333,131.1864406779661,24.08C132.20338983050846,23.746666666666663,133.22033898305085,23.520000000000003,134.23728813559322,23.520000000000003C135.25423728813558,23.520000000000003,136.27118644067798,23.680000000000003,137.28813559322035,24C138.3050847457627,24.319999999999997,139.3220338983051,31.866666666666674,140.33898305084747,32.400000000000006C141.35593220338984,32.93333333333333,142.3728813559322,33.199999999999996,143.38983050847457,33.199999999999996C144.40677966101694,33.199999999999996,145.42372881355934,30.32,146.4406779661017,30.32C147.45762711864407,30.32,148.47457627118644,31.44,149.4915254237288,31.6C150.50847457627117,31.76,151.52542372881356,31.680000000000003,152.54237288135593,31.840000000000003C153.5593220338983,32.00000000000001,154.5762711864407,32.64000000000001,155.59322033898306,33.040000000000006C156.61016949152543,33.440000000000005,157.6271186440678,33.440000000000005,158.64406779661016,34.24C159.66101694915253,35.040000000000006,160.67796610169492,38.32,161.6949152542373,38.32C162.71186440677965,38.32,163.72881355932205,34.4,164.74576271186442,34.4C165.76271186440678,34.4,166.77966101694915,34.8,167.79661016949152,34.8C168.81355932203388,34.8,169.83050847457628,34.61333333333334,170.84745762711864,34.56C171.864406779661,34.50666666666667,172.8813559322034,34.48,173.89830508474577,34.48C174.91525423728814,34.48,175.93220338983053,35.54666666666666,176.9491525423729,36.32C177.96610169491527,37.093333333333334,178.98305084745763,38.10666666666666,180,39.12"></path><path class="axis-ceiling" stroke-width="1" stroke="black" fill="none" d="M175,0L180,0"></path><text class="axis-ceiling-label" font-family="sans-serif" text-anchor="end" font-size="10px" x="170" y="2.5">500</text></g></svg>