<svg xmlns="http://www.w3.org/2000/svg" viewBox="0 0 180 60"><g transform="translate(0,20)"><path class="area" fill="rgba(0, 0, 0, 0.2)" d="M0,29.048C1.0344827586206897,26.147999999999996,2.068965517241379,23.247999999999998,3.103448275862069,23.247999999999998C4.137931034482759,23.247999999999998,5.172413793103448,23.77333333333333,6.206896551724138,24.4C7.241379310344827,25.026666666666667,8.275862068965516,26.428,9.310344827586206,27.008000000000003C10.344827586206897,27.588000000000005,11.379310344827585,27.369333333333337,12.413793103448276,27.880000000000003C13.448275862068966,28.390666666666668,14.482758620689655,29.244000000000003,15.517241379310345,30.072000000000003C16.551724137931036,30.900000000000002,17.586206896551722,32.848,18.620689655172413,32.848C19.655172413793103,32.848,20.689655172413794,32.824,21.724137931034484,32.776C22.758620689655174,32.72800000000001,23.79310344827586,30.08,24.82758620689655,30.08C25.862068965517242,30.08,26.896551724137932,30.146666666666665,27.931034482758623,30.28C28.965517241379313,30.413333333333338,30,31.274666666666665,31.03448275862069,31.695999999999998C32.06896551724138,32.11733333333333,33.103448275862064,32.808,34.137931034482754,32.808C35.172413793103445,32.808,36.206896551724135,32.72,37.241379310344826,32.72C38.275862068965516,32.72,39.310344827586206,34.808,40.3448275862069,34.808C41.37931034482759,34.808,42.41379310344828,34.669333333333334,43.44827586206897,34.392C44.48275862068966,34.11466666666667,45.51724137931035,30.232,46.55172413793104,30.232C47.58620689655173,30.232,48.62068965517241,31.797333333333334,49.6551724137931,32.064C50.689655172413794,32.330666666666666,51.72413793103448,32.304,52.75862068965517,32.464C53.79310344827586,32.624,54.827586206896555,32.85066666666667,55.862068965517246,33.024C56.896551724137936,33.19733333333333,57.93103448275862,33.184,58.96551724137931,33.504C60,33.824,61.03448275862069,35.712,62.06896551724138,35.712C63.10344827586207,35.712,64.13793103448276,35.48533333333334,65.17241379310344,35.032000000000004C66.20689655172413,34.57866666666667,67.24137931034483,32.28,68.27586206896551,32.28C69.3103448275862,32.28,70.34482758620689,32.55733333333333,71.37931034482759,32.784C72.41379310344827,33.010666666666665,73.44827586206897,33.36,74.48275862068965,33.64C75.51724137931033,33.92,76.55172413793103,34.464,77.58620689655172,34.464C78.62068965517241,34.464,79.6551724137931,34.376,80.6896551724138,34.376C81.72413793103448,34.376,82.75862068965517,36.528,83.79310344827586,36.528C84.82758620689656,36.528,85.86206896551724,36.424,86.89655172413794,36.216C87.93103448275862,36.008,88.96551724137932,34.37599999999999,90,34.215999999999994C91.0344827586207,34.056,92.06896551724138,33.976,93.10344827586208,33.976C94.13793103448276,33.976,95.17241379310344,34.392,96.20689655172413,34.616C97.24137931034483,34.84,98.27586206896551,35.156,99.3103448275862,35.32C100.3448275862069,35.484,101.37931034482759,35.413333333333334,102.41379310344828,35.6C103.44827586206897,35.78666666666667,104.48275862068965,37.456,105.51724137931033,37.456C106.55172413793103,37.456,107.58620689655172,37.157333333333334,108.62068965517241,36.632C109.65517241379311,36.10666666666666,110.6896551724138,34.304,111.72413793103449,34.304C112.75862068965517,34.304,113.79310344827587,34.81866666666667,114.82758620689656,34.84C115.86206896551724,34.861333333333334,116.89655172413794,34.85066666666667,117.93103448275862,34.872C118.96551724137932,34.89333333333333,120,34.96,121.0344827586207,34.992000000000004C122.06896551724138,35.024,123.10344827586208,35.016000000000005,124.13793103448276,35.064C125.17241379310344,35.111999999999995,126.20689655172414,36.744,127.24137931034483,36.744C128.27586206896552,36.744,129.3103448275862,36.06399999999999,130.3448275862069,35.512C131.3793103448276,34.96,132.41379310344828,33.85866666666668,133.44827586206898,33.432C134.48275862068965,33.00533333333333,135.51724137931035,32.792,136.55172413793102,32.792C137.58620689655172,32.792,138.6206896551724,32.903999999999996,139.6551724137931,32.903999999999996C140.6896551724138,32.903999999999996,141.72413793103448,32.711999999999996,142.75862068965517,32.711999999999996C143.79310344827587,32.711999999999996,144.82758620689654,32.85066666666666,145.86206896551724,33.128C146.89655172413794,33.40533333333334,147.9310344827586,35.184000000000005,148.9655172413793,35.184000000000005C150,35.184000000000005,151.0344827586207,34.57200000000002,152.0689655172414,33.576C153.10344827586206,32.58,154.13793103448276,30.421333333333326,155.17241379310343,29.208C156.20689655172413,27.99466666666665,157.24137931034483,26.408,158.27586206896552,26.296C159.31034482758622,26.184,160.3448275862069,26.24,161.3793103448276,26.128C162.41379310344828,26.016000000000002,163.44827586206895,24.576,164.48275862068965,24.576C165.51724137931035,24.576,166.55172413793102,24.829333333333334,167.58620689655172,25.336C168.6206896551724,25.84266666666667,169.6551724137931,27.016,170.6896551724138,27.880000000000003C171.7241379310345,28.744,172.75862068965517,30.52,173.79310344827587,30.52C174.82758620689657,30.52,175.86206896551724,27.22666666666667,176.89655172413794,23.520000000000003C177.93103448275863,19.813333333333336,178.9655172413793,14.046666666666667,180,8.279999999999998L180,40C178.9655172413793,40,177.93103448275863,40,176.89655172413794,40C175.86206896551724,40,174.82758620689657,40,173.79310344827587,40C172.75862068965517,40,171.7241379310345,40,170.6896551724138,40C169.6551724137931,40,168.6206896551724,40,167.58620689655172,40C166.55172413793102,40,165.51724137931035,40,164.48275862068965,40C163.44827586206895,40,162.41379310344828,40,161.3793103448276,40C160.3448275862069,40,159.31034482758622,40,158.27586206896552,40C157.24137931034483,40,156.20689655172413,40,155.17241379310343,40C154.13793103448276,40,153.10344827586206,40,152.0689655172414,40C151.0344827586207,40,150,40,148.9655172413793,40C147.9310344827586,40,146.89655172413794,40,145.86206896551724,40C144.82758620689654,40,143.79310344827587,40,142.75862068965517,40C141.72413793103448,40,140.6896551724138,40,139.6551724137931,40C138.6206896551724,40,137.58620689655172,40,136.55172413793102,40C135.51724137931035,40,134.48275862068965,40,133.44827586206898,40C132.41379310344828,40,131.3793103448276,40,130.3448275862069,40C129.3103448275862,40,128.27586206896552,40,127.24137931034483,40C126.20689655172414,40,125.17241379310344,40,124.13793103448276,40C123.10344827586208,40,122.06896551724138,40,121.0344827586207,40C120,40,118.96551724137932,40,117.93103448275862,40C116.89655172413794,40,115.86206896551724,40,114.82758620689656,40C113.79310344827587,40,112.75862068965517,40,111.72413793103449,40C110.6896551724138,40,109.65517241379311,40,108.62068965517241,40C107.58620689655172,40,106.55172413793103,40,105.51724137931033,40C104.48275862068965,40,103.44827586206897,40,102.41379310344828,40C101.37931034482759,40,100.3448275862069,40,99.3103448275862,40C98.27586206896551,40,97.24137931034483,40,96.20689655172413,40C95.17241379310344,40,94.13793103448276,40,93.10344827586208,40C92.06896551724138,40,91.0344827586207,40,90,40C88.96551724137932,40,87.93103448275862,40,86.89655172413794,40C85.86206896551724,40,84.82758620689656,40,83.79310344827586,40C82.75862068965517,40,81.72413793103448,40,80.6896551724138,40C79.6551724137931,40,78.62068965517241,40,77.58620689655172,40C76.55172413793103,40,75.51724137931033,40,74.48275862068965,40C73.44827586206897,40,72.41379310344827,40,71.37931034482759,40C70.34482758620689,40,69.3103448275862,40,68.27586206896551,40C67.24137931034483,40,66.20689655172413,40,65.17241379310344,40C64.13793103448276,40,63.10344827586207,40,62.06896551724138,40C61.03448275862069,40,60,40,58.96551724137931,40C57.93103448275862,40,56.896551724137936,40,55.862068965517246,40C54.827586206896555,40,53.79310344827586,40,52.75862068965517,40C51.72413793103448,40,50.689655172413794,40,49.6551724137931,40C48.62068965517241,40,47.58620689655173,40,46.55172413793104,40C45.51724137931035,40,44.48275862068966,40,43.44827586206897,40C42.41379310344828,40,41.37931034482759,40,40.3448275862069,40C39.310344827586206,40,38.275862068965516,40,37.241379310344826,40C36.206896551724135,40,35.172413793103445,40,34.137931034482754,40C33.103448275862064,40,32.06896551724138,40,31.03448275862069,40C30,40,28.965517241379313,40,27.931034482758623,40C26.896551724137932,40,25.862068965517242,40,24.82758620689655,40C23.79310344827586,40,22.758620689655174,40,21.724137931034484,40C20.689655172413794,40,19.655172413793103,40,18.620689655172413,40C17.586206896551722,40,16.551724137931036,40,15.517241379310345,40C14.482758620689655,40,13.448275862068966,40,12.413793103448276,40C11.379310344827585,40,10.344827586206897,40,9.310344827586206,40C8.275862068965516,40,7.241379310344827,40,6.206896551724138,40C5.172413793103448,40,4.137931034482759,40,3.103448275862069,40C2.068965517241379,40,1.0344827586206897,40,0,40Z"></path><path class="line" stroke="black" fill="none" d="M0,29.048C1.0344827586206897,26.147999999999996,2.068965517241379,23.247999999999998,3.103448275862069,23.247999999999998C4.137931034482759,23.247999999999998,5.172413793103448,23.77333333333333,6.206896551724138,24.4C7.241379310344827,25.026666666666667,8.275862068965516,26.428,9.310344827586206,27.008000000000003C10.344827586206897,27.588000000000005,11.379310344827585,27.369333333333337,12.413793103448276,27.880000000000003C13.448275862068966,28.390666666666668,14.482758620689655,29.244000000000003,15.517241379310345,30.072000000000003C16.551724137931036,30.900000000000002,17.586206896551722,32.848,18.620689655172413,32.848C19.655172413793103,32.848,20.689655172413794,32.824,21.724137931034484,32.776C22.758620689655174,32.72800000000001,23.79310344827586,30.08,24.82758620689655,30.08C25.862068965517242,30.08,26.896551724137932,30.146666666666665,27.931034482758623,30.28C28.965517241379313,30.413333333333338,30,31.274666666666665,31.03448275862069,31.695999999999998C32.06896551724138,32.11733333333333,33.103448275862064,32.808,34.137931034482754,32.808C35.172413793103445,32.808,36.206896551724135,32.72,37.241379310344826,32.72C38.275862068965516,32.72,39.310344827586206,34.808,40.3448275862069,34.808C41.37931034482759,34.808,42.41379310344828,34.669333333333334,43.44827586206897,34.392C44.48275862068966,34.11466666666667,45.51724137931035,30.232,46.55172413793104,30.232C47.58620689655173,30.232,48.62068965517241,31.797333333333334,49.6551724137931,32.064C50.689655172413794,32.330666666666666,51.72413793103448,32.304,52.75862068965517,32.464C53.79310344827586,32.624,54.827586206896555,32.85066666666667,55.862068965517246,33.024C56.896551724137936,33.19733333333333,57.93103448275862,33.184,58.96551724137931,33.504C60,33.824,61.03448275862069,35.712,62.06896551724138,35.712C63.10344827586207,35.712,64.13793103448276,35.48533333333334,65.17241379310344,35.032000000000004C66.20689655172413,34.57866666666667,67.24137931034483,32.28,68.27586206896551,32.28C69.3103448275862,32.28,70.34482758620689,32.55733333333333,71.37931034482759,32.784C72.41379310344827,33.010666666666665,73.44827586206897,33.36,74.48275862068965,33.64C75.51724137931033,33.92,76.55172413793103,34.464,77.58620689655172,34.464C78.62068965517241,34.464,79.6551724137931,34.376,80.6896551724138,34.376C81.72413793103448,34.376,82.75862068965517,36.528,83.79310344827586,36.528C84.82758620689656,36.528,85.86206896551724,36.424,86.89655172413794,36.216C87.93103448275862,36.008,88.96551724137932,34.37599999999999,90,34.215999999999994C91.0344827586207,34.056,92.06896551724138,33.976,93.10344827586208,33.976C94.13793103448276,33.976,95.17241379310344,34.392,96.20689655172413,34.616C97.24137931034483,34.84,98.27586206896551,35.156,99.3103448275862,35.32C100.3448275862069,35.484,101.37931034482759,35.413333333333334,102.41379310344828,35.6C103.44827586206897,35.78666666666667,104.48275862068965,37.456,105.51724137931033,37.456C106.55172413793103,37.456,107.58620689655172,37.157333333333334,108.62068965517241,36.632C109.65517241379311,36.10666666666666,110.6896551724138,34.304,111.72413793103449,34.304C112.75862068965517,34.304,113.79310344827587,34.81866666666667,114.82758620689656,34.84C115.86206896551724,34.861333333333334,116.89655172413794,34.85066666666667,117.93103448275862,34.872C118.96551724137932,34.89333333333333,120,34.96,121.0344827586207,34.992000000000004C122.06896551724138,35.024,123.10344827586208,35.016000000000005,124.13793103448276,35.064C125.17241379310344,35.111999999999995,126.20689655172414,36.744,127.24137931034483,36.744C128.27586206896552,36.744,129.3103448275862,36.06399999999999,130.3448275862069,35.512C131.3793103448276,34.96,132.41379310344828,33.85866666666668,133.44827586206898,33.432C134.48275862068965,33.00533333333333,135.51724137931035,32.792,136.55172413793102,32.792C137.58620689655172,32.792,138.6206896551724,32.903999999999996,139.6551724137931,32.903999999999996C140.6896551724138,32.903999999999996,141.72413793103448,32.711999999999996,142.75862068965517,32.711999999999996C143.79310344827587,32.711999999999996,144.82758620689654,32.85066666666666,145.86206896551724,33.128C146.89655172413794,33.40533333333334,147.9310344827586,35.184000000000005,148.9655172413793,35.184000000000005C150,35.184000000000005,151.0344827586207,34.57200000000002,152.0689655172414,33.576C153.10344827586206,32.58,154.13793103448276,30.421333333333326,155.17241379310343,29.208C156.20689655172413,27.99466666666665,157.24137931034483,26.408,158.27586206896552,26.296C159.31034482758622,26.184,160.3448275862069,26.24,161.3793103448276,26.128C162.41379310344828,26.016000000000002,163.44827586206895,24.576,164.48275862068965,24.576C165.51724137931035,24.576,166.55172413793102,24.829333333333334,167.58620689655172,25.336C168.6206896551724,25.84266666666667,169.6551724137931,27.016,170.6896551724138,27.880000000000003C171.7241379310345,28.744,172.75862068965517,30.52,173.79310344827587,30.52C174.82758620689657,30.52,175.86206896551724,27.22666666666667,176.89655172413794,23.520000000000003C177.93103448275863,19.813333333333336,178.9655172413793,14.046666666666667,180,8.279999999999998"></path><path class="axis-ceiling" stroke-width="1" stroke="black" fill="none" d="M175,0L180,0"></path><text class="axis-ceiling-label" font-family="sans-serif" text-anchor="end" font-size="10px" x="170" y="2.5">10000</text></g></svg>