<svg xmlns="http://www.w3.org/2000/svg" viewBox="0 0 180 60"><g transform="translate(0,20)"><path class="area" fill="rgba(0, 0, 0, 0.2)" d="M0,36.44C1.0169491525423728,36.3,2.0338983050847457,36.160000000000004,3.0508474576271185,36.160000000000004C4.067796610169491,36.160000000000004,5.084745762711864,36.24,6.101694915254237,36.24C7.11864406779661,36.24,8.135593220338983,36.00666666666667,9.152542372881356,35.92C10.169491525423728,35.833333333333336,11.186440677966102,35.72,12.203389830508474,35.72C13.220338983050846,35.72,14.23728813559322,35.72,15.254237288135592,35.72C16.271186440677965,35.72,17.28813559322034,35.68,18.305084745762713,35.68C19.322033898305087,35.68,20.338983050847457,35.85333333333334,21.35593220338983,35.88C22.372881355932204,35.906666666666666,23.389830508474574,35.92,24.406779661016948,35.92C25.423728813559322,35.92,26.440677966101696,35.68,27.45762711864407,35.68C28.47457627118644,35.68,29.491525423728813,35.68,30.508474576271183,35.68C31.525423728813557,35.68,32.54237288135593,35.52,33.559322033898304,35.52C34.57627118644068,35.52,35.59322033898305,35.52,36.610169491525426,35.52C37.6271186440678,35.52,38.644067796610166,35.50666666666667,39.66101694915254,35.480000000000004C40.67796610169491,35.45333333333334,41.69491525423729,35.12,42.71186440677966,35.12C43.728813559322035,35.12,44.7457627118644,35.16,45.762711864406775,35.16C46.77966101694915,35.16,47.79661016949152,35.16,48.813559322033896,35.16C49.83050847457627,35.16,50.847457627118644,35.06666666666666,51.86440677966102,35C52.88135593220339,34.93333333333334,53.898305084745765,34.839999999999996,54.91525423728814,34.76C55.93220338983051,34.68,56.94915254237288,34.58,57.96610169491525,34.519999999999996C58.983050847457626,34.459999999999994,59.99999999999999,34.44,61.01694915254237,34.4C62.03389830508474,34.36,63.05084745762712,34.36,64.0677966101695,34.28C65.08474576271186,34.2,66.10169491525424,33.94,67.11864406779661,33.839999999999996C68.13559322033899,33.739999999999995,69.15254237288136,33.75333333333333,70.16949152542374,33.68C71.1864406779661,33.60666666666667,72.20338983050848,33.47333333333333,73.22033898305085,33.4C74.23728813559322,33.32666666666667,75.2542372881356,33.29333333333333,76.27118644067797,33.239999999999995C77.28813559322033,33.18666666666666,78.30508474576271,33.12,79.32203389830508,33.08C80.33898305084746,33.04,81.35593220338983,33.053333333333335,82.37288135593221,33C83.38983050847457,32.946666666666665,84.40677966101696,32.8,85.42372881355932,32.68C86.4406779661017,32.56,87.45762711864407,32.43333333333334,88.47457627118645,32.28C89.49152542372882,32.126666666666665,90.50847457627118,31.900000000000002,91.52542372881355,31.76C92.54237288135593,31.62,93.55932203389831,31.626666666666672,94.57627118644069,31.44C95.59322033898306,31.253333333333334,96.61016949152543,30.833333333333332,97.62711864406779,30.64C98.64406779661016,30.446666666666665,99.66101694915254,30.380000000000003,100.6779661016949,30.28C101.69491525423729,30.18,102.71186440677965,30.166666666666668,103.72881355932203,30.04C104.7457627118644,29.913333333333334,105.76271186440678,29.826666666666664,106.77966101694915,29.52C107.79661016949153,29.213333333333335,108.8135593220339,28.56666666666667,109.83050847457628,28.200000000000003C110.84745762711864,27.83333333333334,111.86440677966102,27.62666666666667,112.88135593220339,27.32C113.89830508474576,27.013333333333332,114.91525423728814,26.673333333333332,115.9322033898305,26.36C116.94915254237289,26.046666666666667,117.96610169491525,25.733333333333334,118.98305084745763,25.44C120,25.14666666666667,121.01694915254237,24.946666666666665,122.03389830508473,24.6C123.05084745762711,24.253333333333334,124.0677966101695,23.766666666666673,125.08474576271188,23.360000000000003C126.10169491525424,22.95333333333334,127.11864406779662,22.553333333333338,128.135593220339,22.160000000000004C129.15254237288136,21.76666666666667,130.16949152542372,21.59333333333333,131.1864406779661,21C132.20338983050846,20.406666666666666,133.22033898305085,19.27333333333333,134.23728813559322,18.599999999999998C135.25423728813558,17.926666666666666,136.27118644067798,17.666666666666668,137.28813559322035,16.96C138.3050847457627,16.253333333333334,139.3220338983051,15.326666666666672,140.33898305084747,14.36C141.35593220338984,13.393333333333336,142.3728813559322,11.639999999999995,143.38983050847457,11.16C144.40677966101694,10.680000000000001,145.42372881355934,10.840000000000005,146.4406779661017,10.440000000000001C147.45762711864407,10.040000000000001,148.47457627118644,9.42666666666666,149.4915254237288,8.759999999999998C150.50847457627117,8.093333333333328,151.52542372881356,6.840000000000002,152.54237288135593,6.440000000000001C153.5593220338983,6.040000000000001,154.5762711864407,6.060000000000002,155.59322033898306,5.840000000000001C156.61016949152543,5.620000000000001,157.6271186440678,5.333333333333333,158.64406779661016,5.12C159.66101694915253,4.906666666666665,160.67796610169492,4.826666666666666,161.6949152542373,4.56C162.71186440677965,4.293333333333333,163.72881355932205,4.020000000000002,164.74576271186442,3.5199999999999987C165.76271186440678,3.0199999999999996,166.77966101694915,1.5600000000000014,167.79661016949152,1.5600000000000014C168.81355932203388,1.5600000000000014,169.83050847457628,1.8200000000000023,170.84745762711864,2.0000000000000018C171.864406779661,2.180000000000001,172.8813559322034,2.406666666666665,173.89830508474577,2.639999999999998C174.91525423728814,2.873333333333331,175.93220338983053,2.8933333333333313,176.9491525423729,3.3999999999999986C177.96610169491527,3.906666666666661,178.98305084745763,5.233333333333332,180,6.560000000000001L180,40C178.98305084745763,40,177.96610169491527,40,176.9491525423729,40C175.93220338983053,40,174.91525423728814,40,173.89830508474577,40C172.8813559322034,40,171.864406779661,40,170.84745762711864,40C169.83050847457628,40,168.81355932203388,40,167.79661016949152,40C166.77966101694915,40,165.76271186440678,40,164.74576271186442,40C163.72881355932205,40,162.71186440677965,40,161.6949152542373,40C160.67796610169492,40,159.66101694915253,40,158.64406779661016,40C157.6271186440678,40,156.61016949152543,40,155.59322033898306,40C154.5762711864407,40,153.5593220338983,40,152.54237288135593,40C151.52542372881356,40,150.50847457627117,40,149.4915254237288,40C148.47457627118644,40,147.45762711864407,40,146.4406779661017,40C145.42372881355934,40,144.40677966101694,40,143.38983050847457,40C142.3728813559322,40,141.35593220338984,40,140.33898305084747,40C139.3220338983051,40,138.3050847457627,40,137.28813559322035,40C136.27118644067798,40,135.25423728813558,40,134.23728813559322,40C133.22033898305085,40,132.20338983050846,40,131.1864406779661,40C130.16949152542372,40,129.15254237288136,40,128.135593220339,40C127.11864406779662,40,126.10169491525424,40,125.08474576271188,40C124.0677966101695,40,123.05084745762711,40,122.03389830508473,40C121.01694915254237,40,120,40,118.98305084745763,40C117.96610169491525,40,116.94915254237289,40,115.9322033898305,40C114.91525423728814,40,113.89830508474576,40,112.88135593220339,40C111.86440677966102,40,110.84745762711864,40,109.83050847457628,40C108.8135593220339,40,107.79661016949153,40,106.77966101694915,40C105.76271186440678,40,104.7457627118644,40,103.72881355932203,40C102.71186440677965,40,101.69491525423729,40,100.6779661016949,40C99.66101694915254,40,98.64406779661016,40,97.62711864406779,40C96.61016949152543,40,95.59322033898306,40,94.57627118644069,40C93.55932203389831,40,92.54237288135593,40,91.52542372881355,40C90.50847457627118,40,89.49152542372882,40,88.47457627118645,40C87.45762711864407,40,86.4406779661017,40,85.42372881355932,40C84.40677966101696,40,83.38983050847457,40,82.37288135593221,40C81.35593220338983,40,80.33898305084746,40,79.32203389830508,40C78.30508474576271,40,77.28813559322033,40,76.27118644067797,40C75.2542372881356,40,74.23728813559322,40,73.22033898305085,40C72.20338983050848,40,71.1864406779661,40,70.16949152542374,40C69.15254237288136,40,68.13559322033899,40,67.11864406779661,40C66.10169491525424,40,65.08474576271186,40,64.0677966101695,40C63.05084745762712,40,62.03389830508474,40,61.01694915254237,40C59.99999999999999,40,58.983050847457626,40,57.96610169491525,40C56.94915254237288,40,55.93220338983051,40,54.91525423728814,40C53.898305084745765,40,52.88135593220339,40,51.86440677966102,40C50.847457627118644,40,49.83050847457627,40,48.813559322033896,40C47.79661016949152,40,46.77966101694915,40,45.762711864406775,40C44.7457627118644,40,43.728813559322035,40,42.71186440677966,40C41.69491525423729,40,40.67796610169491,40,39.66101694915254,40C38.644067796610166,40,37.6271186440678,40,36.610169491525426,40C35.59322033898305,40,34.57627118644068,40,33.559322033898304,40C32.54237288135593,40,31.525423728813557,40,30.508474576271183,40C29.491525423728813,40,28.47457627118644,40,27.45762711864407,40C26.440677966101696,40,25.423728813559322,40,24.406779661016948,40C23.389830508474574,40,22.372881355932204,40,21.35593220338983,40C20.338983050847457,40,19.322033898305087,40,18.305084745762713,40C17.28813559322034,40,16.271186440677965,40,15.254237288135592,40C14.23728813559322,40,13.220338983050846,40,12.203389830508474,40C11.186440677966102,40,10.169491525423728,40,9.152542372881356,40C8.135593220338983,40,7.11864406779661,40,6.101694915254237,40C5.084745762711864,40,4.067796610169491,40,3.0508474576271185,40C2.0338983050847457,40,1.0169491525423728,40,0,40Z"></path><path class="line" stroke="black" fill="none" d="M0,36.44C1.0169491525423728,36.3,2.0338983050847457,36.160000000000004,3.0508474576271185,36.160000000000004C4.067796610169491,36.160000000000004,5.084745762711864,36.24,6.101694915254237,36.24C7.11864406779661,36.24,8.135593220338983,36.00666666666667,9.152542372881356,35.92C10.169491525423728,35.833333333333336,11.186440677966102,35.72,12.203389830508474,35.72C13.220338983050846,35.72,14.23728813559322,35.72,15.254237288135592,35.72C16.271186440677965,35.72,17.28813559322034,35.68,18.305084745762713,35.68C19.322033898305087,35.68,20.338983050847457,35.85333333333334,21.35593220338983,35.88C22.372881355932204,35.906666666666666,23.389830508474574,35.92,24.406779661016948,35.92C25.423728813559322,35.92,26.440677966101696,35.68,27.45762711864407,35.68C28.47457627118644,35.68,29.491525423728813,35.68,30.508474576271183,35.68C31.525423728813557,35.68,32.54237288135593,35.52,33.559322033898304,35.52C34.57627118644068,35.52,35.59322033898305,35.52,36.610169491525426,35.52C37.6271186440678,35.52,38.644067796610166,35.50666666666667,39.66101694915254,35.480000000000004C40.67796610169491,35.45333333333334,41.69491525423729,35.12,42.71186440677966,35.12C43.728813559322035,35.12,44.7457627118644,35.16,45.762711864406775,35.16C46.77966101694915,35.16,47.79661016949152,35.16,48.813559322033896,35.16C49.83050847457627,35.16,50.847457627118644,35.06666666666666,51.86440677966102,35C52.88135593220339,34.93333333333334,53.898305084745765,34.839999999999996,54.91525423728814,34.76C55.93220338983051,34.68,56.94915254237288,34.58,57.96610169491525,34.519999999999996C58.983050847457626,34.459999999999994,59.99999999999999,34.44,61.01694915254237,34.4C62.03389830508474,34.36,63.05084745762712,34.36,64.0677966101695,34.28C65.08474576271186,34.2,66.10169491525424,33.94,67.11864406779661,33.839999999999996C68.13559322033899,33.739999999999995,69.15254237288136,33.75333333333333,70.16949152542374,33.68C71.1864406779661,33.60666666666667,72.20338983050848,33.47333333333333,73.22033898305085,33.4C74.23728813559322,33.32666666666667,75.2542372881356,33.29333333333333,76.27118644067797,33.239999999999995C77.28813559322033,33.18666666666666,78.30508474576271,33.12,79.32203389830508,33.08C80.33898305084746,33.04,81.35593220338983,33.053333333333335,82.37288135593221,33C83.38983050847457,32.946666666666665,84.40677966101696,32.8,85.42372881355932,32.68C86.4406779661017,32.56,87.45762711864407,32.43333333333334,88.47457627118645,32.28C89.49152542372882,32.126666666666665,90.50847457627118,31.900000000000002,91.52542372881355,31.76C92.54237288135593,31.62,93.55932203389831,31.626666666666672,94.57627118644069,31.44C95.59322033898306,31.253333333333334,96.61016949152543,30.833333333333332,97.62711864406779,30.64C98.64406779661016,30.446666666666665,99.66101694915254,30.380000000000003,100.6779661016949,30.28C101.69491525423729,30.18,102.71186440677965,30.166666666666668,103.72881355932203,30.04C104.7457627118644,29.913333333333334,105.76271186440678,29.826666666666664,106.77966101694915,29.52C107.79661016949153,29.213333333333335,108.8135593220339,28.56666666666667,109.83050847457628,28.200000000000003C110.84745762711864,27.83333333333334,111.86440677966102,27.62666666666667,112.88135593220339,27.32C113.89830508474576,27.013333333333332,114.91525423728814,26.673333333333332,115.9322033898305,26.36C116.94915254237289,26.046666666666667,117.96610169491525,25.733333333333334,118.98305084745763,25.44C120,25.14666666666667,121.01694915254237,24.946666666666665,122.03389830508473,24.6C123.05084745762711,24.253333333333334,124.0677966101695,23.766666666666673,125.08474576271188,23.360000000000003C126.10169491525424,22.95333333333334,127.11864406779662,22.553333333333338,128.135593220339,22.160000000000004C129.15254237288136,21.76666666666667,130.16949152542372,21.59333333333333,131.1864406779661,21C132.20338983050846,20.406666666666666,133.22033898305085,19.27333333333333,134.23728813559322,18.599999999999998C135.25423728813558,17.926666666666666,136.27118644067798,17.666666666666668,137.28813559322035,16.96C138.3050847457627,16.253333333333334,139.3220338983051,15.326666666666672,140.33898305084747,14.36C141.35593220338984,13.393333333333336,142.3728813559322,11.639999999999995,143.38983050847457,11.16C144.40677966101694,10.680000000000001,145.42372881355934,10.840000000000005,146.4406779661017,10.440000000000001C147.45762711864407,10.040000000000001,148.47457627118644,9.42666666666666,149.4915254237288,8.759999999999998C150.50847457627117,8.093333333333328,151.52542372881356,6.840000000000002,152.54237288135593,6.440000000000001C153.5593220338983,6.040000000000001,154.5762711864407,6.060000000000002,155.59322033898306,5.840000000000001C156.61016949152543,5.620000000000001,157.6271186440678,5.333333333333333,158.64406779661016,5.12C159.66101694915253,4.906666666666665,160.67796610169492,4.826666666666666,161.6949152542373,4.56C162.71186440677965,4.293333333333333,163.72881355932205,4.020000000000002,164.74576271186442,3.5199999999999987C165.76271186440678,3.0199999999999996,166.77966101694915,1.5600000000000014,167.79661016949152,1.5600000000000014C168.81355932203388,1.5600000000000014,169.83050847457628,1.8200000000000023,170.84745762711864,2.0000000000000018C171.864406779661,2.180000000000001,172.8813559322034,2.406666666666665,173.89830508474577,2.639999999999998C174.91525423728814,2.873333333333331,175.93220338983053,2.8933333333333313,176.9491525423729,3.3999999999999986C177.96610169491527,3.906666666666661,178.98305084745763,5.233333333333332,180,6.560000000000001"></path><path class="axis-ceiling" stroke-width="1" stroke="black" fill="none" d="M175,0L180,0"></path><text class="axis-ceiling-label" font-family="sans-serif" text-anchor="end" font-size="10px" x="170" y="2.5">1000</text></g></svg>