<svg xmlns="http://www.w3.org/2000/svg" viewBox="0 0 180 60"><g transform="translate(0,20)"><path class="area" fill="rgba(0, 0, 0, 0.2)" d="M0,27.03733333333333C1.0344827586206897,27.15622222222222,2.068965517241379,27.27511111111111,3.103448275862069,27.750666666666667C4.137931034482759,28.226222222222226,5.172413793103448,28.878888888888888,6.206896551724138,29.932C7.241379310344827,30.98511111111111,8.275862068965516,34.06933333333333,9.310344827586206,34.06933333333333C10.344827586206897,34.06933333333333,11.379310344827585,30.03599999999999,12.413793103448276,29.36933333333333C13.448275862068966,28.70266666666667,14.482758620689655,28.369333333333337,15.517241379310345,28.369333333333337C16.551724137931036,28.369333333333337,17.586206896551722,29.602000000000004,18.620689655172413,29.981333333333335C19.655172413793103,30.360666666666667,20.689655172413794,30.417555555555555,21.724137931034484,30.645333333333333C22.758620689655174,30.87311111111111,23.79310344827586,30.90266666666667,24.82758620689655,31.348000000000003C25.862068965517242,31.793333333333337,26.896551724137932,32.54888888888888,27.931034482758623,33.31733333333333C28.965517241379313,34.08577777777777,30,35.958666666666666,31.03448275862069,35.958666666666666C32.06896551724138,35.958666666666666,33.103448275862064,32.550666666666665,34.137931034482754,32.388C35.172413793103445,32.22533333333333,36.206896551724135,32.144,37.241379310344826,32.144C38.275862068965516,32.144,39.310344827586206,32.336222222222226,40.3448275862069,32.489333333333335C41.37931034482759,32.64244444444444,42.41379310344828,32.86622222222222,43.44827586206897,33.062666666666665C44.48275862068966,33.25911111111111,45.51724137931035,33.38733333333333,46.55172413793104,33.668C47.58620689655173,33.94866666666667,48.62068965517241,34.20288888888889,49.6551724137931,34.74666666666667C50.689655172413794,35.29044444444445,51.72413793103448,36.93066666666667,52.75862068965517,36.93066666666667C53.79310344827586,36.93066666666667,54.827586206896555,34.217333333333336,55.862068965517246,33.95333333333333C56.896551724137936,33.68933333333333,57.93103448275862,33.55733333333333,58.96551724137931,33.55733333333333C60,33.55733333333333,61.03448275862069,33.67111111111111,62.06896551724138,33.89866666666667C63.10344827586207,34.12622222222223,64.13793103448276,35.61066666666667,65.17241379310344,35.61066666666667C66.20689655172413,35.61066666666667,67.24137931034483,34.157333333333334,68.27586206896551,34.157333333333334C69.3103448275862,34.157333333333334,70.34482758620689,34.91088888888889,71.37931034482759,35.432C72.41379310344827,35.95311111111111,73.44827586206897,37.284,74.48275862068965,37.284C75.51724137931033,37.284,76.55172413793103,34.228,77.58620689655172,34.228C78.62068965517241,34.228,79.6551724137931,34.376,80.6896551724138,34.376C81.72413793103448,34.376,82.75862068965517,34.108000000000004,83.79310344827586,34.108000000000004C84.82758620689656,34.108000000000004,85.86206896551724,34.57066666666667,86.89655172413794,34.57066666666667C87.93103448275862,34.57066666666667,88.96551724137932,34.44133333333333,90,34.44133333333333C91.0344827586207,34.44133333333333,92.06896551724138,34.90911111111111,93.10344827586208,35.39066666666667C94.13793103448276,35.87222222222222,95.17241379310344,37.330666666666666,96.20689655172413,37.330666666666666C97.24137931034483,37.330666666666666,98.27586206896551,34.429777777777765,99.3103448275862,34.123999999999995C100.3448275862069,33.818222222222225,101.37931034482759,33.665333333333336,102.41379310344828,33.665333333333336C103.44827586206897,33.665333333333336,104.48275862068965,33.80822222222222,105.51724137931033,33.89066666666666C106.55172413793103,33.9731111111111,107.58620689655172,34.16,108.62068965517241,34.16C109.65517241379311,34.16,110.6896551724138,33.589333333333336,111.72413793103449,33.589333333333336C112.75862068965517,33.589333333333336,113.79310344827587,34.18977777777778,114.82758620689656,34.644C115.86206896551724,35.09822222222222,116.89655172413794,36.31466666666667,117.93103448275862,36.31466666666667C118.96551724137932,36.31466666666667,120,32.72444444444445,121.0344827586207,32.160000000000004C122.06896551724138,31.595555555555556,123.10344827586208,31.517555555555557,124.13793103448276,31.313333333333333C125.17241379310344,31.10911111111111,126.20689655172414,30.934666666666665,127.24137931034483,30.934666666666665C128.27586206896552,30.934666666666665,129.3103448275862,31.23333333333333,130.3448275862069,31.23333333333333C131.3793103448276,31.23333333333333,132.41379310344828,30.82,133.44827586206898,30.82C134.48275862068965,30.82,135.51724137931035,31.40200000000001,136.55172413793102,31.916000000000004C137.58620689655172,32.43000000000001,138.6206896551724,33.904,139.6551724137931,33.904C140.6896551724138,33.904,141.72413793103448,27.341777777777782,142.75862068965517,26.27066666666667C143.79310344827587,25.19955555555556,144.82758620689654,25.20066666666667,145.86206896551724,24.664C146.89655172413794,24.127333333333333,147.9310344827586,23.47866666666667,148.9655172413793,23.050666666666668C150,22.622666666666664,151.0344827586207,22.418000000000003,152.0689655172414,22.096C153.10344827586206,21.774000000000004,154.13793103448276,21.11866666666667,155.17241379310343,21.11866666666667C156.20689655172413,21.11866666666667,157.24137931034483,21.958222222222208,158.27586206896552,23.083999999999996C159.31034482758622,24.209777777777774,160.3448275862069,27.873333333333335,161.3793103448276,27.873333333333335C162.41379310344828,27.873333333333335,163.44827586206895,15.911555555555553,164.48275862068965,13.668C165.51724137931035,11.424444444444445,166.55172413793102,11.027111111111108,167.58620689655172,10.302666666666669C168.6206896551724,9.578222222222223,169.6551724137931,9.66466666666667,170.6896551724138,9.216000000000001C171.7241379310345,8.767333333333335,172.75862068965517,8.152444444444445,173.79310344827587,7.610666666666668C174.82758620689657,7.06888888888889,175.86206896551724,5.965333333333334,176.89655172413794,5.965333333333334C177.93103448275863,5.965333333333334,178.9655172413793,7.2873333333333346,180,8.609333333333336L180,40C178.9655172413793,40,177.93103448275863,40,176.89655172413794,40C175.86206896551724,40,174.82758620689657,40,173.79310344827587,40C172.75862068965517,40,171.7241379310345,40,170.6896551724138,40C169.6551724137931,40,168.6206896551724,40,167.58620689655172,40C166.55172413793102,40,165.51724137931035,40,164.48275862068965,40C163.44827586206895,40,162.41379310344828,40,161.3793103448276,40C160.3448275862069,40,159.31034482758622,40,158.27586206896552,40C157.24137931034483,40,156.20689655172413,40,155.17241379310343,40C154.13793103448276,40,153.10344827586206,40,152.0689655172414,40C151.0344827586207,40,150,40,148.9655172413793,40C147.9310344827586,40,146.89655172413794,40,145.86206896551724,40C144.82758620689654,40,143.79310344827587,40,142.75862068965517,40C141.72413793103448,40,140.6896551724138,40,139.6551724137931,40C138.6206896551724,40,137.58620689655172,40,136.55172413793102,40C135.51724137931035,40,134.48275862068965,40,133.44827586206898,40C132.41379310344828,40,131.3793103448276,40,130.3448275862069,40C129.3103448275862,40,128.27586206896552,40,127.24137931034483,40C126.20689655172414,40,125.17241379310344,40,124.13793103448276,40C123.10344827586208,40,122.06896551724138,40,121.0344827586207,40C120,40,118.96551724137932,40,117.93103448275862,40C116.89655172413794,40,115.86206896551724,40,114.82758620689656,40C113.79310344827587,40,112.75862068965517,40,111.72413793103449,40C110.6896551724138,40,109.65517241379311,40,108.62068965517241,40C107.58620689655172,40,106.55172413793103,40,105.51724137931033,40C104.48275862068965,40,103.44827586206897,40,102.41379310344828,40C101.37931034482759,40,100.3448275862069,40,99.3103448275862,40C98.27586206896551,40,97.24137931034483,40,96.20689655172413,40C95.17241379310344,40,94.13793103448276,40,93.10344827586208,40C92.06896551724138,40,91.0344827586207,40,90,40C88.96551724137932,40,87.93103448275862,40,86.89655172413794,40C85.86206896551724,40,84.82758620689656,40,83.79310344827586,40C82.75862068965517,40,81.72413793103448,40,80.6896551724138,40C79.6551724137931,40,78.62068965517241,40,77.58620689655172,40C76.55172413793103,40,75.51724137931033,40,74.48275862068965,40C73.44827586206897,40,72.41379310344827,40,71.37931034482759,40C70.34482758620689,40,69.3103448275862,40,68.27586206896551,40C67.24137931034483,40,66.20689655172413,40,65.17241379310344,40C64.13793103448276,40,63.10344827586207,40,62.06896551724138,40C61.03448275862069,40,60,40,58.96551724137931,40C57.93103448275862,40,56.896551724137936,40,55.862068965517246,40C54.827586206896555,40,53.79310344827586,40,52.75862068965517,40C51.72413793103448,40,50.689655172413794,40,49.6551724137931,40C48.62068965517241,40,47.58620689655173,40,46.55172413793104,40C45.51724137931035,40,44.48275862068966,40,43.44827586206897,40C42.41379310344828,40,41.37931034482759,40,40.3448275862069,40C39.310344827586206,40,38.275862068965516,40,37.241379310344826,40C36.206896551724135,40,35.172413793103445,40,34.137931034482754,40C33.103448275862064,40,32.06896551724138,40,31.03448275862069,40C30,40,28.965517241379313,40,27.931034482758623,40C26.896551724137932,40,25.862068965517242,40,24.82758620689655,40C23.79310344827586,40,22.758620689655174,40,21.724137931034484,40C20.689655172413794,40,19.655172413793103,40,18.620689655172413,40C17.586206896551722,40,16.551724137931036,40,15.517241379310345,40C14.482758620689655,40,13.448275862068966,40,12.413793103448276,40C11.379310344827585,40,10.344827586206897,40,9.310344827586206,40C8.275862068965516,40,7.241379310344827,40,6.206896551724138,40C5.172413793103448,40,4.137931034482759,40,3.103448275862069,40C2.068965517241379,40,1.0344827586206897,40,0,40Z"></path><path class="line" stroke="black" fill="none" d="M0,27.03733333333333C1.0344827586206897,27.15622222222222,2.068965517241379,27.27511111111111,3.103448275862069,27.750666666666667C4.137931034482759,28.226222222222226,5.172413793103448,28.878888888888888,6.206896551724138,29.932C7.241379310344827,30.98511111111111,8.275862068965516,34.06933333333333,9.310344827586206,34.06933333333333C10.344827586206897,34.06933333333333,11.379310344827585,30.03599999999999,12.413793103448276,29.36933333333333C13.448275862068966,28.70266666666667,14.482758620689655,28.369333333333337,15.517241379310345,28.369333333333337C16.551724137931036,28.369333333333337,17.586206896551722,29.602000000000004,18.620689655172413,29.981333333333335C19.655172413793103,30.360666666666667,20.689655172413794,30.417555555555555,21.724137931034484,30.645333333333333C22.758620689655174,30.87311111111111,23.79310344827586,30.90266666666667,24.82758620689655,31.348000000000003C25.862068965517242,31.793333333333337,26.896551724137932,32.54888888888888,27.931034482758623,33.31733333333333C28.965517241379313,34.08577777777777,30,35.958666666666666,31.03448275862069,35.958666666666666C32.06896551724138,35.958666666666666,33.103448275862064,32.550666666666665,34.137931034482754,32.388C35.172413793103445,32.22533333333333,36.206896551724135,32.144,37.241379310344826,32.144C38.275862068965516,32.144,39.310344827586206,32.336222222222226,40.3448275862069,32.489333333333335C41.37931034482759,32.64244444444444,42.41379310344828,32.86622222222222,43.44827586206897,33.062666666666665C44.48275862068966,33.25911111111111,45.51724137931035,33.38733333333333,46.55172413793104,33.668C47.58620689655173,33.94866666666667,48.62068965517241,34.20288888888889,49.6551724137931,34.74666666666667C50.689655172413794,35.29044444444445,51.72413793103448,36.93066666666667,52.75862068965517,36.93066666666667C53.79310344827586,36.93066666666667,54.827586206896555,34.217333333333336,55.862068965517246,33.95333333333333C56.896551724137936,33.68933333333333,57.93103448275862,33.55733333333333,58.96551724137931,33.55733333333333C60,33.55733333333333,61.03448275862069,33.67111111111111,62.06896551724138,33.89866666666667C63.10344827586207,34.12622222222223,64.13793103448276,35.61066666666667,65.17241379310344,35.61066666666667C66.20689655172413,35.61066666666667,67.24137931034483,34.157333333333334,68.27586206896551,34.157333333333334C69.3103448275862,34.157333333333334,70.34482758620689,34.91088888888889,71.37931034482759,35.432C72.41379310344827,35.95311111111111,73.44827586206897,37.284,74.48275862068965,37.284C75.51724137931033,37.284,76.55172413793103,34.228,77.58620689655172,34.228C78.62068965517241,34.228,79.6551724137931,34.376,80.6896551724138,34.376C81.72413793103448,34.376,82.75862068965517,34.108000000000004,83.79310344827586,34.108000000000004C84.82758620689656,34.108000000000004,85.86206896551724,34.57066666666667,86.89655172413794,34.57066666666667C87.93103448275862,34.57066666666667,88.96551724137932,34.44133333333333,90,34.44133333333333C91.0344827586207,34.44133333333333,92.06896551724138,34.90911111111111,93.10344827586208,35.39066666666667C94.13793103448276,35.87222222222222,95.17241379310344,37.330666666666666,96.20689655172413,37.330666666666666C97.24137931034483,37.330666666666666,98.27586206896551,34.429777777777765,99.3103448275862,34.123999999999995C100.3448275862069,33.818222222222225,101.37931034482759,33.665333333333336,102.41379310344828,33.665333333333336C103.44827586206897,33.665333333333336,104.48275862068965,33.80822222222222,105.51724137931033,33.89066666666666C106.55172413793103,33.9731111111111,107.58620689655172,34.16,108.62068965517241,34.16C109.65517241379311,34.16,110.6896551724138,33.589333333333336,111.72413793103449,33.589333333333336C112.75862068965517,33.589333333333336,113.79310344827587,34.18977777777778,114.82758620689656,34.644C115.86206896551724,35.09822222222222,116.89655172413794,36.31466666666667,117.93103448275862,36.31466666666667C118.96551724137932,36.31466666666667,120,32.72444444444445,121.0344827586207,32.160000000000004C122.06896551724138,31.595555555555556,123.10344827586208,31.517555555555557,124.13793103448276,31.313333333333333C125.17241379310344,31.10911111111111,126.20689655172414,30.934666666666665,127.24137931034483,30.934666666666665C128.27586206896552,30.934666666666665,129.3103448275862,31.23333333333333,130.3448275862069,31.23333333333333C131.3793103448276,31.23333333333333,132.41379310344828,30.82,133.44827586206898,30.82C134.48275862068965,30.82,135.51724137931035,31.40200000000001,136.55172413793102,31.916000000000004C137.58620689655172,32.43000000000001,138.6206896551724,33.904,139.6551724137931,33.904C140.6896551724138,33.904,141.72413793103448,27.341777777777782,142.75862068965517,26.27066666666667C143.79310344827587,25.19955555555556,144.82758620689654,25.20066666666667,145.86206896551724,24.664C146.89655172413794,24.127333333333333,147.9310344827586,23.47866666666667,148.9655172413793,23.050666666666668C150,22.622666666666664,151.0344827586207,22.418000000000003,152.0689655172414,22.096C153.10344827586206,21.774000000000004,154.13793103448276,21.11866666666667,155.17241379310343,21.11866666666667C156.20689655172413,21.11866666666667,157.24137931034483,21.958222222222208,158.27586206896552,23.083999999999996C159.31034482758622,24.209777777777774,160.3448275862069,27.873333333333335,161.3793103448276,27.873333333333335C162.41379310344828,27.873333333333335,163.44827586206895,15.911555555555553,164.48275862068965,13.668C165.51724137931035,11.424444444444445,166.55172413793102,11.027111111111108,167.58620689655172,10.302666666666669C168.6206896551724,9.578222222222223,169.6551724137931,9.66466666666667,170.6896551724138,9.216000000000001C171.7241379310345,8.767333333333335,172.75862068965517,8.152444444444445,173.79310344827587,7.610666666666668C174.82758620689657,7.06888888888889,175.86206896551724,5.965333333333334,176.89655172413794,5.965333333333334C177.93103448275863,5.965333333333334,178.9655172413793,7.2873333333333346,180,8.609333333333336"></path><path class="axis-ceiling" stroke-width="1" stroke="black" fill="none" d="M175,0L180,0"></path><text class="axis-ceiling-label" font-family="sans-serif" text-anchor="end" font-size="10px" x="170" y="2.5">30000</text></g></svg>