<svg xmlns="http://www.w3.org/2000/svg" viewBox="0 0 180 60"><g transform="translate(0,20)"><path class="area" fill="rgba(0, 0, 0, 0.2)" d="M0,9.066666666666666C1.0344827586206897,4.666666666666668,2.068965517241379,0.2666666666666684,3.103448275862069,0.2666666666666684C4.137931034482759,0.2666666666666684,5.172413793103448,7.555555555555555,6.206896551724138,7.555555555555555C7.241379310344827,7.555555555555555,8.275862068965516,7.200000000000002,9.310344827586206,7.200000000000002C10.344827586206897,7.200000000000002,11.379310344827585,7.585185185185186,12.413793103448276,8.355555555555556C13.448275862068966,9.125925925925925,14.482758620689655,16,15.517241379310345,16C16.551724137931036,16,17.586206896551722,8.533333333333328,18.620689655172413,6.577777777777776C19.655172413793103,4.622222222222223,20.689655172413794,3.6444444444444457,21.724137931034484,3.6444444444444457C22.758620689655174,3.6444444444444457,23.79310344827586,5.718518518518518,24.82758620689655,6.666666666666665C25.862068965517242,7.614814814814814,26.896551724137932,8.162962962962961,27.931034482758623,9.333333333333332C28.965517241379313,10.503703703703703,30,12.162962962962961,31.03448275862069,13.688888888888888C32.06896551724138,15.214814814814813,33.103448275862064,18.25185185185185,34.137931034482754,18.488888888888887C35.172413793103445,18.725925925925925,36.206896551724135,18.844444444444445,37.241379310344826,18.844444444444445C38.275862068965516,18.844444444444445,39.310344827586206,14.044444444444446,40.3448275862069,14.044444444444446C41.37931034482759,14.044444444444446,42.41379310344828,19.82222222222222,43.44827586206897,20.177777777777777C44.48275862068966,20.533333333333335,45.51724137931035,20.711111111111112,46.55172413793104,20.711111111111112C47.58620689655173,20.711111111111112,48.62068965517241,20.355555555555558,49.6551724137931,20.355555555555558C50.689655172413794,20.355555555555558,51.72413793103448,23.881481481481487,52.75862068965517,24.88888888888889C53.79310344827586,25.896296296296295,54.827586206896555,25.392592592592592,55.862068965517246,26.4C56.896551724137936,27.4074074074074,57.93103448275862,31.200000000000003,58.96551724137931,31.200000000000003C60,31.200000000000003,61.03448275862069,27.881481481481476,62.06896551724138,27.82222222222222C63.10344827586207,27.762962962962963,64.13793103448276,27.79259259259259,65.17241379310344,27.733333333333334C66.20689655172413,27.674074074074078,67.24137931034483,24.622222222222227,68.27586206896551,24.622222222222227C69.3103448275862,24.622222222222227,70.34482758620689,28.77037037037037,71.37931034482759,29.066666666666666C72.41379310344827,29.36296296296296,73.44827586206897,29.214814814814815,74.48275862068965,29.51111111111111C75.51724137931033,29.807407407407403,76.55172413793103,33.37777777777777,77.58620689655172,34.48888888888889C78.62068965517241,35.6,79.6551724137931,36.17777777777778,80.6896551724138,36.17777777777778C81.72413793103448,36.17777777777778,82.75862068965517,34.50370370370371,83.79310344827586,33.955555555555556C84.82758620689656,33.407407407407405,85.86206896551724,32.888888888888886,86.89655172413794,32.888888888888886C87.93103448275862,32.888888888888886,88.96551724137932,35.88148148148148,90,36C91.0344827586207,36.11851851851852,92.06896551724138,36.17777777777778,93.10344827586208,36.17777777777778C94.13793103448276,36.17777777777778,95.17241379310344,34.22222222222223,96.20689655172413,34.22222222222223C97.24137931034483,34.22222222222223,98.27586206896551,36.35555555555555,99.3103448275862,36.71111111111111C100.3448275862069,37.06666666666667,101.37931034482759,37.08148148148148,102.41379310344828,37.24444444444445C103.44827586206897,37.40740740740741,104.48275862068965,37.68888888888889,105.51724137931033,37.68888888888889C106.55172413793103,37.68888888888889,107.58620689655172,35.31851851851852,108.62068965517241,34.84444444444445C109.65517241379311,34.370370370370374,110.6896551724138,34.13333333333333,111.72413793103449,34.13333333333333C112.75862068965517,34.13333333333333,113.79310344827587,35.55555555555556,114.82758620689656,35.55555555555556C115.86206896551724,35.55555555555556,116.89655172413794,34.93333333333333,117.93103448275862,34.93333333333333C118.96551724137932,34.93333333333333,120,36.96296296296296,121.0344827586207,37.68888888888889C122.06896551724138,38.41481481481481,123.10344827586208,39.28888888888889,124.13793103448276,39.28888888888889C125.17241379310344,39.28888888888889,126.20689655172414,37.86666666666667,127.24137931034483,37.422222222222224C128.27586206896552,36.97777777777778,129.3103448275862,36.62222222222222,130.3448275862069,36.62222222222222C131.3793103448276,36.62222222222222,132.41379310344828,36.800000000000004,133.44827586206898,36.800000000000004C134.48275862068965,36.800000000000004,135.51724137931035,36.08888888888889,136.55172413793102,36.08888888888889C137.58620689655172,36.08888888888889,138.6206896551724,37.06666666666666,139.6551724137931,37.06666666666666C140.6896551724138,37.06666666666666,141.72413793103448,37.06666666666666,142.75862068965517,37.06666666666666C143.79310344827587,37.06666666666666,144.82758620689654,38.4,145.86206896551724,38.4C146.89655172413794,38.4,147.9310344827586,36.53333333333333,148.9655172413793,36.53333333333333C150,36.53333333333333,151.0344827586207,38.84444444444445,152.0689655172414,38.84444444444445C153.10344827586206,38.84444444444445,154.13793103448276,38.2962962962963,155.17241379310343,38.13333333333333C156.20689655172413,37.97037037037037,157.24137931034483,37.97037037037037,158.27586206896552,37.86666666666667C159.31034482758622,37.762962962962966,160.3448275862069,37.51111111111111,161.3793103448276,37.51111111111111C162.41379310344828,37.51111111111111,163.44827586206895,38.22222222222222,164.48275862068965,38.22222222222222C165.51724137931035,38.22222222222222,166.55172413793102,38.044444444444444,167.58620689655172,37.955555555555556C168.6206896551724,37.86666666666667,169.6551724137931,37.68888888888889,170.6896551724138,37.68888888888889C171.7241379310345,37.68888888888889,172.75862068965517,38.577777777777776,173.79310344827587,38.577777777777776C174.82758620689657,38.577777777777776,175.86206896551724,38.48888888888889,176.89655172413794,38.48888888888889C177.93103448275863,38.48888888888889,178.9655172413793,39.24444444444445,180,40L180,40C178.9655172413793,40,177.93103448275863,40,176.89655172413794,40C175.86206896551724,40,174.82758620689657,40,173.79310344827587,40C172.75862068965517,40,171.7241379310345,40,170.6896551724138,40C169.6551724137931,40,168.6206896551724,40,167.58620689655172,40C166.55172413793102,40,165.51724137931035,40,164.48275862068965,40C163.44827586206895,40,162.41379310344828,40,161.3793103448276,40C160.3448275862069,40,159.31034482758622,40,158.27586206896552,40C157.24137931034483,40,156.20689655172413,40,155.17241379310343,40C154.13793103448276,40,153.10344827586206,40,152.0689655172414,40C151.0344827586207,40,150,40,148.9655172413793,40C147.9310344827586,40,146.89655172413794,40,145.86206896551724,40C144.82758620689654,40,143.79310344827587,40,142.75862068965517,40C141.72413793103448,40,140.6896551724138,40,139.6551724137931,40C138.6206896551724,40,137.58620689655172,40,136.55172413793102,40C135.51724137931035,40,134.48275862068965,40,133.44827586206898,40C132.41379310344828,40,131.3793103448276,40,130.3448275862069,40C129.3103448275862,40,128.27586206896552,40,127.24137931034483,40C126.20689655172414,40,125.17241379310344,40,124.13793103448276,40C123.10344827586208,40,122.06896551724138,40,121.0344827586207,40C120,40,118.96551724137932,40,117.93103448275862,40C116.89655172413794,40,115.86206896551724,40,114.82758620689656,40C113.79310344827587,40,112.75862068965517,40,111.72413793103449,40C110.6896551724138,40,109.65517241379311,40,108.62068965517241,40C107.58620689655172,40,106.55172413793103,40,105.51724137931033,40C104.48275862068965,40,103.44827586206897,40,102.41379310344828,40C101.37931034482759,40,100.3448275862069,40,99.3103448275862,40C98.27586206896551,40,97.24137931034483,40,96.20689655172413,40C95.17241379310344,40,94.13793103448276,40,93.10344827586208,40C92.06896551724138,40,91.0344827586207,40,90,40C88.96551724137932,40,87.93103448275862,40,86.89655172413794,40C85.86206896551724,40,84.82758620689656,40,83.79310344827586,40C82.75862068965517,40,81.72413793103448,40,80.6896551724138,40C79.6551724137931,40,78.62068965517241,40,77.58620689655172,40C76.55172413793103,40,75.51724137931033,40,74.48275862068965,40C73.44827586206897,40,72.41379310344827,40,71.37931034482759,40C70.34482758620689,40,69.3103448275862,40,68.27586206896551,40C67.24137931034483,40,66.20689655172413,40,65.17241379310344,40C64.13793103448276,40,63.10344827586207,40,62.06896551724138,40C61.03448275862069,40,60,40,58.96551724137931,40C57.93103448275862,40,56.896551724137936,40,55.862068965517246,40C54.827586206896555,40,53.79310344827586,40,52.75862068965517,40C51.72413793103448,40,50.689655172413794,40,49.6551724137931,40C48.62068965517241,40,47.58620689655173,40,46.55172413793104,40C45.51724137931035,40,44.48275862068966,40,43.44827586206897,40C42.41379310344828,40,41.37931034482759,40,40.3448275862069,40C39.310344827586206,40,38.275862068965516,40,37.241379310344826,40C36.206896551724135,40,35.172413793103445,40,34.137931034482754,40C33.103448275862064,40,32.06896551724138,40,31.03448275862069,40C30,40,28.965517241379313,40,27.931034482758623,40C26.896551724137932,40,25.862068965517242,40,24.82758620689655,40C23.79310344827586,40,22.758620689655174,40,21.724137931034484,40C20.689655172413794,40,19.655172413793103,40,18.620689655172413,40C17.586206896551722,40,16.551724137931036,40,15.517241379310345,40C14.482758620689655,40,13.448275862068966,40,12.413793103448276,40C11.379310344827585,40,10.344827586206897,40,9.310344827586206,40C8.275862068965516,40,7.241379310344827,40,6.206896551724138,40C5.172413793103448,40,4.137931034482759,40,3.103448275862069,40C2.068965517241379,40,1.0344827586206897,40,0,40Z"></path><path class="line" stroke="black" fill="none" d="M0,9.066666666666666C1.0344827586206897,4.666666666666668,2.068965517241379,0.2666666666666684,3.103448275862069,0.2666666666666684C4.137931034482759,0.2666666666666684,5.172413793103448,7.555555555555555,6.206896551724138,7.555555555555555C7.241379310344827,7.555555555555555,8.275862068965516,7.200000000000002,9.310344827586206,7.200000000000002C10.344827586206897,7.200000000000002,11.379310344827585,7.585185185185186,12.413793103448276,8.355555555555556C13.448275862068966,9.125925925925925,14.482758620689655,16,15.517241379310345,16C16.551724137931036,16,17.586206896551722,8.533333333333328,18.620689655172413,6.577777777777776C19.655172413793103,4.622222222222223,20.689655172413794,3.6444444444444457,21.724137931034484,3.6444444444444457C22.758620689655174,3.6444444444444457,23.79310344827586,5.718518518518518,24.82758620689655,6.666666666666665C25.862068965517242,7.614814814814814,26.896551724137932,8.162962962962961,27.931034482758623,9.333333333333332C28.965517241379313,10.503703703703703,30,12.162962962962961,31.03448275862069,13.688888888888888C32.06896551724138,15.214814814814813,33.103448275862064,18.25185185185185,34.137931034482754,18.488888888888887C35.172413793103445,18.725925925925925,36.206896551724135,18.844444444444445,37.241379310344826,18.844444444444445C38.275862068965516,18.844444444444445,39.310344827586206,14.044444444444446,40.3448275862069,14.044444444444446C41.37931034482759,14.044444444444446,42.41379310344828,19.82222222222222,43.44827586206897,20.177777777777777C44.48275862068966,20.533333333333335,45.51724137931035,20.711111111111112,46.55172413793104,20.711111111111112C47.58620689655173,20.711111111111112,48.62068965517241,20.355555555555558,49.6551724137931,20.355555555555558C50.689655172413794,20.355555555555558,51.72413793103448,23.881481481481487,52.75862068965517,24.88888888888889C53.79310344827586,25.896296296296295,54.827586206896555,25.392592592592592,55.862068965517246,26.4C56.896551724137936,27.4074074074074,57.93103448275862,31.200000000000003,58.96551724137931,31.200000000000003C60,31.200000000000003,61.03448275862069,27.881481481481476,62.06896551724138,27.82222222222222C63.10344827586207,27.762962962962963,64.13793103448276,27.79259259259259,65.17241379310344,27.733333333333334C66.20689655172413,27.674074074074078,67.24137931034483,24.622222222222227,68.27586206896551,24.622222222222227C69.3103448275862,24.622222222222227,70.34482758620689,28.77037037037037,71.37931034482759,29.066666666666666C72.41379310344827,29.36296296296296,73.44827586206897,29.214814814814815,74.48275862068965,29.51111111111111C75.51724137931033,29.807407407407403,76.55172413793103,33.37777777777777,77.58620689655172,34.48888888888889C78.62068965517241,35.6,79.6551724137931,36.17777777777778,80.6896551724138,36.17777777777778C81.72413793103448,36.17777777777778,82.75862068965517,34.50370370370371,83.79310344827586,33.955555555555556C84.82758620689656,33.407407407407405,85.86206896551724,32.888888888888886,86.89655172413794,32.888888888888886C87.93103448275862,32.888888888888886,88.96551724137932,35.88148148148148,90,36C91.0344827586207,36.11851851851852,92.06896551724138,36.17777777777778,93.10344827586208,36.17777777777778C94.13793103448276,36.17777777777778,95.17241379310344,34.22222222222223,96.20689655172413,34.22222222222223C97.24137931034483,34.22222222222223,98.27586206896551,36.35555555555555,99.3103448275862,36.71111111111111C100.3448275862069,37.06666666666667,101.37931034482759,37.08148148148148,102.41379310344828,37.24444444444445C103.44827586206897,37.40740740740741,104.48275862068965,37.68888888888889,105.51724137931033,37.68888888888889C106.55172413793103,37.68888888888889,107.58620689655172,35.31851851851852,108.62068965517241,34.84444444444445C109.65517241379311,34.370370370370374,110.6896551724138,34.13333333333333,111.72413793103449,34.13333333333333C112.75862068965517,34.13333333333333,113.79310344827587,35.55555555555556,114.82758620689656,35.55555555555556C115.86206896551724,35.55555555555556,116.89655172413794,34.93333333333333,117.93103448275862,34.93333333333333C118.96551724137932,34.93333333333333,120,36.96296296296296,121.0344827586207,37.68888888888889C122.06896551724138,38.41481481481481,123.10344827586208,39.28888888888889,124.13793103448276,39.28888888888889C125.17241379310344,39.28888888888889,126.20689655172414,37.86666666666667,127.24137931034483,37.422222222222224C128.27586206896552,36.97777777777778,129.3103448275862,36.62222222222222,130.3448275862069,36.62222222222222C131.3793103448276,36.62222222222222,132.41379310344828,36.800000000000004,133.44827586206898,36.800000000000004C134.48275862068965,36.800000000000004,135.51724137931035,36.08888888888889,136.55172413793102,36.08888888888889C137.58620689655172,36.08888888888889,138.6206896551724,37.06666666666666,139.6551724137931,37.06666666666666C140.6896551724138,37.06666666666666,141.72413793103448,37.06666666666666,142.75862068965517,37.06666666666666C143.79310344827587,37.06666666666666,144.82758620689654,38.4,145.86206896551724,38.4C146.89655172413794,38.4,147.9310344827586,36.53333333333333,148.9655172413793,36.53333333333333C150,36.53333333333333,151.0344827586207,38.84444444444445,152.0689655172414,38.84444444444445C153.10344827586206,38.84444444444445,154.13793103448276,38.2962962962963,155.17241379310343,38.13333333333333C156.20689655172413,37.97037037037037,157.24137931034483,37.97037037037037,158.27586206896552,37.86666666666667C159.31034482758622,37.762962962962966,160.3448275862069,37.51111111111111,161.3793103448276,37.51111111111111C162.41379310344828,37.51111111111111,163.44827586206895,38.22222222222222,164.48275862068965,38.22222222222222C165.51724137931035,38.22222222222222,166.55172413793102,38.044444444444444,167.58620689655172,37.955555555555556C168.6206896551724,37.86666666666667,169.6551724137931,37.68888888888889,170.6896551724138,37.68888888888889C171.7241379310345,37.68888888888889,172.75862068965517,38.577777777777776,173.79310344827587,38.577777777777776C174.82758620689657,38.577777777777776,175.86206896551724,38.48888888888889,176.89655172413794,38.48888888888889C177.93103448275863,38.48888888888889,178.9655172413793,39.24444444444445,180,40"></path><path class="axis-ceiling" stroke-width="1" stroke="black" fill="none" d="M175,0L180,0"></path><text class="axis-ceiling-label" font-family="sans-serif" text-anchor="end" font-size="10px" x="170" y="2.5">450</text></g></svg>