<svg xmlns="http://www.w3.org/2000/svg" viewBox="0 0 180 60"><g transform="translate(0,20)"><path class="area" fill="rgba(0, 0, 0, 0.2)" d="M0,23.334000000000003C1.0169491525423728,24.027666666666672,2.0338983050847457,24.721333333333337,3.0508474576271185,25.742000000000004C4.067796610169491,26.76266666666667,5.084745762711864,29.458000000000002,6.101694915254237,29.458000000000002C7.11864406779661,29.458000000000002,8.135593220338983,22.05666666666667,9.152542372881356,21.734C10.169491525423728,21.411333333333335,11.186440677966102,21.572666666666667,12.203389830508474,21.25C13.220338983050846,20.927333333333333,14.23728813559322,19.918,15.254237288135592,19.682C16.271186440677965,19.445999999999998,17.28813559322034,19.328,18.305084745762713,19.328C19.322033898305087,19.328,20.338983050847457,19.658333333333335,21.35593220338983,20.164C22.372881355932204,20.669666666666668,23.389830508474574,20.89666666666667,24.406779661016948,22.362000000000002C25.423728813559322,23.827333333333335,26.440677966101696,29.458000000000002,27.45762711864407,29.458000000000002C28.47457627118644,29.458000000000002,29.491525423728813,19.701999999999998,30.508474576271183,18.858C31.525423728813557,18.014,32.54237288135593,17.592,33.559322033898304,17.592C34.57627118644068,17.592,35.59322033898305,18.884000000000004,36.610169491525426,19.1C37.6271186440678,19.316,38.644067796610166,19.424,39.66101694915254,19.424C40.67796610169491,19.424,41.69491525423729,18.746000000000002,42.71186440677966,18.746000000000002C43.728813559322035,18.746000000000002,44.7457627118644,19.795333333333335,45.762711864406775,21.345999999999997C46.77966101694915,22.89666666666666,47.79661016949152,28.049999999999997,48.813559322033896,28.049999999999997C49.83050847457627,28.049999999999997,50.847457627118644,21.120999999999995,51.86440677966102,18.317999999999998C52.88135593220339,15.514999999999999,53.898305084745765,11.232000000000003,54.91525423728814,11.232000000000003C55.93220338983051,11.232000000000003,56.94915254237288,12.104000000000001,57.96610169491525,13.847999999999999C58.983050847457626,15.591999999999997,59.99999999999999,23.518,61.01694915254237,23.518C62.03389830508474,23.518,63.05084745762712,18.448,64.0677966101695,18.448C65.08474576271186,18.448,66.10169491525424,19.275333333333336,67.11864406779661,20.587999999999997C68.13559322033899,21.900666666666666,69.15254237288136,26.324,70.16949152542374,26.324C71.1864406779661,26.324,72.20338983050848,21.985666666666667,73.22033898305085,19.664C74.23728813559322,17.342333333333336,75.2542372881356,14.536999999999999,76.27118644067797,12.393999999999998C77.28813559322033,10.250999999999998,78.30508474576271,8.088000000000001,79.32203389830508,6.806000000000001C80.33898305084746,5.523999999999996,81.35593220338983,5.044666666666671,82.37288135593221,4.702000000000002C83.38983050847457,4.359333333333335,84.40677966101696,4.188000000000001,85.42372881355932,4.188000000000001C86.4406779661017,4.188000000000001,87.45762711864407,6.531999999999975,88.47457627118645,9.660000000000002C89.49152542372882,12.788,90.50847457627118,22.956000000000003,91.52542372881355,22.956000000000003C92.54237288135593,22.956000000000003,93.55932203389831,14.888666666666667,94.57627118644069,12.357999999999997C95.59322033898306,9.827333333333362,96.61016949152543,7.772000000000001,97.62711864406779,7.772000000000001C98.64406779661016,7.772000000000001,99.66101694915254,8.734333333333337,100.6779661016949,9.809999999999999C101.69491525423729,10.885666666666665,102.71186440677965,13.156666666666666,103.72881355932203,14.226C104.7457627118644,15.29533333333333,105.76271186440678,15.223000000000003,106.77966101694915,16.226C107.79661016949153,17.229,108.8135593220339,18.204666666666657,109.83050847457628,20.244C110.84745762711864,22.28333333333333,111.86440677966102,28.462,112.88135593220339,28.462C113.89830508474576,28.462,114.91525423728814,20.025333333333325,115.9322033898305,18C116.94915254237289,15.974666666666666,117.96610169491525,14.962,118.98305084745763,14.962C120,14.962,121.01694915254237,16.34000000000001,122.03389830508473,17.27C123.05084745762711,18.200000000000003,124.0677966101695,19.792333333333332,125.08474576271188,20.541999999999998C126.10169491525424,21.291666666666657,127.11864406779662,21.202666666666666,128.135593220339,21.768C129.15254237288136,22.333333333333332,130.16949152542372,22.49,131.1864406779661,23.933999999999997C132.20338983050846,25.378000000000007,133.22033898305085,31.343999999999998,134.23728813559322,31.343999999999998C135.25423728813558,31.343999999999998,136.27118644067798,24.258666666666667,137.28813559322035,22.222C138.3050847457627,20.185333333333336,139.3220338983051,19.124,140.33898305084747,19.124C141.35593220338984,19.124,142.3728813559322,22.220000000000002,143.38983050847457,23.330000000000002C144.40677966101694,24.440000000000012,145.42372881355934,25.079,146.4406779661017,25.784000000000002C147.45762711864407,26.488999999999997,148.47457627118644,27.041000000000004,149.4915254237288,27.560000000000002C150.50847457627117,28.079000000000004,151.52542372881356,28.006000000000004,152.54237288135593,28.898000000000003C153.5593220338983,29.790000000000003,154.5762711864407,34.046,155.59322033898306,34.046C156.61016949152543,34.046,157.6271186440678,27.679999999999996,158.64406779661016,26.932000000000002C159.66101694915253,26.184,160.67796610169492,25.81,161.6949152542373,25.81C162.71186440677965,25.81,163.72881355932205,27.93766666666666,164.74576271186442,28.601999999999997C165.76271186440678,29.266333333333325,166.77966101694915,29.455333333333332,167.79661016949152,29.796C168.81355932203388,30.13666666666667,169.83050847457628,30.281666666666666,170.84745762711864,30.646C171.864406779661,31.010333333333335,172.8813559322034,31.21,173.89830508474577,31.982C174.91525423728814,32.754,175.93220338983053,34.474,176.9491525423729,35.278C177.96610169491527,36.081999999999994,178.98305084745763,36.443999999999996,180,36.806L180,40C178.98305084745763,40,177.96610169491527,40,176.9491525423729,40C175.93220338983053,40,174.91525423728814,40,173.89830508474577,40C172.8813559322034,40,171.864406779661,40,170.84745762711864,40C169.83050847457628,40,168.81355932203388,40,167.79661016949152,40C166.77966101694915,40,165.76271186440678,40,164.74576271186442,40C163.72881355932205,40,162.71186440677965,40,161.6949152542373,40C160.67796610169492,40,159.66101694915253,40,158.64406779661016,40C157.6271186440678,40,156.61016949152543,40,155.59322033898306,40C154.5762711864407,40,153.5593220338983,40,152.54237288135593,40C151.52542372881356,40,150.50847457627117,40,149.4915254237288,40C148.47457627118644,40,147.45762711864407,40,146.4406779661017,40C145.42372881355934,40,144.40677966101694,40,143.38983050847457,40C142.3728813559322,40,141.35593220338984,40,140.33898305084747,40C139.3220338983051,40,138.3050847457627,40,137.28813559322035,40C136.27118644067798,40,135.25423728813558,40,134.23728813559322,40C133.22033898305085,40,132.20338983050846,40,131.1864406779661,40C130.16949152542372,40,129.15254237288136,40,128.135593220339,40C127.11864406779662,40,126.10169491525424,40,125.08474576271188,40C124.0677966101695,40,123.05084745762711,40,122.03389830508473,40C121.01694915254237,40,120,40,118.98305084745763,40C117.96610169491525,40,116.94915254237289,40,115.9322033898305,40C114.91525423728814,40,113.89830508474576,40,112.88135593220339,40C111.86440677966102,40,110.84745762711864,40,109.83050847457628,40C108.8135593220339,40,107.79661016949153,40,106.77966101694915,40C105.76271186440678,40,104.7457627118644,40,103.72881355932203,40C102.71186440677965,40,101.69491525423729,40,100.6779661016949,40C99.66101694915254,40,98.64406779661016,40,97.62711864406779,40C96.61016949152543,40,95.59322033898306,40,94.57627118644069,40C93.55932203389831,40,92.54237288135593,40,91.52542372881355,40C90.50847457627118,40,89.49152542372882,40,88.47457627118645,40C87.45762711864407,40,86.4406779661017,40,85.42372881355932,40C84.40677966101696,40,83.38983050847457,40,82.37288135593221,40C81.35593220338983,40,80.33898305084746,40,79.32203389830508,40C78.30508474576271,40,77.28813559322033,40,76.27118644067797,40C75.2542372881356,40,74.23728813559322,40,73.22033898305085,40C72.20338983050848,40,71.1864406779661,40,70.16949152542374,40C69.15254237288136,40,68.13559322033899,40,67.11864406779661,40C66.10169491525424,40,65.08474576271186,40,64.0677966101695,40C63.05084745762712,40,62.03389830508474,40,61.01694915254237,40C59.99999999999999,40,58.983050847457626,40,57.96610169491525,40C56.94915254237288,40,55.93220338983051,40,54.91525423728814,40C53.898305084745765,40,52.88135593220339,40,51.86440677966102,40C50.847457627118644,40,49.83050847457627,40,48.813559322033896,40C47.79661016949152,40,46.77966101694915,40,45.762711864406775,40C44.7457627118644,40,43.728813559322035,40,42.71186440677966,40C41.69491525423729,40,40.67796610169491,40,39.66101694915254,40C38.644067796610166,40,37.6271186440678,40,36.610169491525426,40C35.59322033898305,40,34.57627118644068,40,33.559322033898304,40C32.54237288135593,40,31.525423728813557,40,30.508474576271183,40C29.491525423728813,40,28.47457627118644,40,27.45762711864407,40C26.440677966101696,40,25.423728813559322,40,24.406779661016948,40C23.389830508474574,40,22.372881355932204,40,21.35593220338983,40C20.338983050847457,40,19.322033898305087,40,18.305084745762713,40C17.28813559322034,40,16.271186440677965,40,15.254237288135592,40C14.23728813559322,40,13.220338983050846,40,12.203389830508474,40C11.186440677966102,40,10.169491525423728,40,9.152542372881356,40C8.135593220338983,40,7.11864406779661,40,6.101694915254237,40C5.084745762711864,40,4.067796610169491,40,3.0508474576271185,40C2.0338983050847457,40,1.0169491525423728,40,0,40Z"></path><path class="line" stroke="black" fill="none" d="M0,23.334000000000003C1.0169491525423728,24.027666666666672,2.0338983050847457,24.721333333333337,3.0508474576271185,25.742000000000004C4.067796610169491,26.76266666666667,5.084745762711864,29.458000000000002,6.101694915254237,29.458000000000002C7.11864406779661,29.458000000000002,8.135593220338983,22.05666666666667,9.152542372881356,21.734C10.169491525423728,21.411333333333335,11.186440677966102,21.572666666666667,12.203389830508474,21.25C13.220338983050846,20.927333333333333,14.23728813559322,19.918,15.254237288135592,19.682C16.271186440677965,19.445999999999998,17.28813559322034,19.328,18.305084745762713,19.328C19.322033898305087,19.328,20.338983050847457,19.658333333333335,21.35593220338983,20.164C22.372881355932204,20.669666666666668,23.389830508474574,20.89666666666667,24.406779661016948,22.362000000000002C25.423728813559322,23.827333333333335,26.440677966101696,29.458000000000002,27.45762711864407,29.458000000000002C28.47457627118644,29.458000000000002,29.491525423728813,19.701999999999998,30.508474576271183,18.858C31.525423728813557,18.014,32.54237288135593,17.592,33.559322033898304,17.592C34.57627118644068,17.592,35.59322033898305,18.884000000000004,36.610169491525426,19.1C37.6271186440678,19.316,38.644067796610166,19.424,39.66101694915254,19.424C40.67796610169491,19.424,41.69491525423729,18.746000000000002,42.71186440677966,18.746000000000002C43.728813559322035,18.746000000000002,44.7457627118644,19.795333333333335,45.762711864406775,21.345999999999997C46.77966101694915,22.89666666666666,47.79661016949152,28.049999999999997,48.813559322033896,28.049999999999997C49.83050847457627,28.049999999999997,50.847457627118644,21.120999999999995,51.86440677966102,18.317999999999998C52.88135593220339,15.514999999999999,53.898305084745765,11.232000000000003,54.91525423728814,11.232000000000003C55.93220338983051,11.232000000000003,56.94915254237288,12.104000000000001,57.96610169491525,13.847999999999999C58.983050847457626,15.591999999999997,59.99999999999999,23.518,61.01694915254237,23.518C62.03389830508474,23.518,63.05084745762712,18.448,64.0677966101695,18.448C65.08474576271186,18.448,66.10169491525424,19.275333333333336,67.11864406779661,20.587999999999997C68.13559322033899,21.900666666666666,69.15254237288136,26.324,70.16949152542374,26.324C71.1864406779661,26.324,72.20338983050848,21.985666666666667,73.22033898305085,19.664C74.23728813559322,17.342333333333336,75.2542372881356,14.536999999999999,76.27118644067797,12.393999999999998C77.28813559322033,10.250999999999998,78.30508474576271,8.088000000000001,79.32203389830508,6.806000000000001C80.33898305084746,5.523999999999996,81.35593220338983,5.044666666666671,82.37288135593221,4.702000000000002C83.38983050847457,4.359333333333335,84.40677966101696,4.188000000000001,85.42372881355932,4.188000000000001C86.4406779661017,4.188000000000001,87.45762711864407,6.531999999999975,88.47457627118645,9.660000000000002C89.49152542372882,12.788,90.50847457627118,22.956000000000003,91.52542372881355,22.956000000000003C92.54237288135593,22.956000000000003,93.55932203389831,14.888666666666667,94.57627118644069,12.357999999999997C95.59322033898306,9.827333333333362,96.61016949152543,7.772000000000001,97.62711864406779,7.772000000000001C98.64406779661016,7.772000000000001,99.66101694915254,8.734333333333337,100.6779661016949,9.809999999999999C101.69491525423729,10.885666666666665,102.71186440677965,13.156666666666666,103.72881355932203,14.226C104.7457627118644,15.29533333333333,105.76271186440678,15.223000000000003,106.77966101694915,16.226C107.79661016949153,17.229,108.8135593220339,18.204666666666657,109.83050847457628,20.244C110.84745762711864,22.28333333333333,111.86440677966102,28.462,112.88135593220339,28.462C113.89830508474576,28.462,114.91525423728814,20.025333333333325,115.9322033898305,18C116.94915254237289,15.974666666666666,117.96610169491525,14.962,118.98305084745763,14.962C120,14.962,121.01694915254237,16.34000000000001,122.03389830508473,17.27C123.05084745762711,18.200000000000003,124.0677966101695,19.792333333333332,125.08474576271188,20.541999999999998C126.10169491525424,21.291666666666657,127.11864406779662,21.202666666666666,128.135593220339,21.768C129.15254237288136,22.333333333333332,130.16949152542372,22.49,131.1864406779661,23.933999999999997C132.20338983050846,25.378000000000007,133.22033898305085,31.343999999999998,134.23728813559322,31.343999999999998C135.25423728813558,31.343999999999998,136.27118644067798,24.258666666666667,137.28813559322035,22.222C138.3050847457627,20.185333333333336,139.3220338983051,19.124,140.33898305084747,19.124C141.35593220338984,19.124,142.3728813559322,22.220000000000002,143.38983050847457,23.330000000000002C144.40677966101694,24.440000000000012,145.42372881355934,25.079,146.4406779661017,25.784000000000002C147.45762711864407,26.488999999999997,148.47457627118644,27.041000000000004,149.4915254237288,27.560000000000002C150.50847457627117,28.079000000000004,151.52542372881356,28.006000000000004,152.54237288135593,28.898000000000003C153.5593220338983,29.790000000000003,154.5762711864407,34.046,155.59322033898306,34.046C156.61016949152543,34.046,157.6271186440678,27.679999999999996,158.64406779661016,26.932000000000002C159.66101694915253,26.184,160.67796610169492,25.81,161.6949152542373,25.81C162.71186440677965,25.81,163.72881355932205,27.93766666666666,164.74576271186442,28.601999999999997C165.76271186440678,29.266333333333325,166.77966101694915,29.455333333333332,167.79661016949152,29.796C168.81355932203388,30.13666666666667,169.83050847457628,30.281666666666666,170.84745762711864,30.646C171.864406779661,31.010333333333335,172.8813559322034,31.21,173.89830508474577,31.982C174.91525423728814,32.754,175.93220338983053,34.474,176.9491525423729,35.278C177.96610169491527,36.081999999999994,178.98305084745763,36.443999999999996,180,36.806"></path><path class="axis-ceiling" stroke-width="1" stroke="black" fill="none" d="M175,0L180,0"></path><text class="axis-ceiling-label" font-family="sans-serif" text-anchor="end" font-size="10px" x="170" y="2.5">20000</text></g></svg>