<svg xmlns="http://www.w3.org/2000/svg" viewBox="0 0 180 60"><g transform="translate(0,20)"><path class="area" fill="rgba(0, 0, 0, 0.2)" d="M0,37.629333333333335C1.0169491525423728,37.63866666666667,2.0338983050847457,37.648,3.0508474576271185,37.648C4.067796610169491,37.648,5.084745762711864,37.61066666666667,6.101694915254237,37.61066666666667C7.11864406779661,37.61066666666667,8.135593220338983,37.61066666666667,9.152542372881356,37.61066666666667C10.169491525423728,37.61066666666667,11.186440677966102,37.61822222222222,12.203389830508474,37.629333333333335C13.220338983050846,37.64044444444445,14.23728813559322,37.67733333333333,15.254237288135592,37.67733333333333C16.271186440677965,37.67733333333333,17.28813559322034,37.672,18.305084745762713,37.672C19.322033898305087,37.672,20.338983050847457,37.69422222222222,21.35593220338983,37.704C22.372881355932204,37.71377777777778,23.389830508474574,37.71288888888889,24.406779661016948,37.730666666666664C25.423728813559322,37.74844444444444,26.440677966101696,37.792,27.45762711864407,37.81333333333333C28.47457627118644,37.834666666666664,29.491525423728813,37.84311111111111,30.508474576271183,37.858666666666664C31.525423728813557,37.87422222222222,32.54237288135593,37.89955555555556,33.559322033898304,37.906666666666666C34.57627118644068,37.913777777777774,35.59322033898305,37.910222222222224,36.610169491525426,37.91733333333333C37.6271186440678,37.92444444444444,38.644067796610166,37.967555555555556,39.66101694915254,37.99466666666667C40.67796610169491,38.02177777777778,41.69491525423729,38.08,42.71186440677966,38.08C43.728813559322035,38.08,44.7457627118644,38.06933333333333,45.762711864406775,38.06933333333333C46.77966101694915,38.06933333333333,47.79661016949152,38.086222222222226,48.813559322033896,38.096000000000004C49.83050847457627,38.10577777777778,50.847457627118644,38.11955555555556,51.86440677966102,38.128C52.88135593220339,38.13644444444444,53.898305084745765,38.138222222222225,54.91525423728814,38.14666666666667C55.93220338983051,38.15511111111111,56.94915254237288,38.178666666666665,57.96610169491525,38.178666666666665C58.983050847457626,38.178666666666665,59.99999999999999,38.16266666666667,61.01694915254237,38.138666666666666C62.03389830508474,38.114666666666665,63.05084745762712,38.06088888888889,64.0677966101695,38.034666666666666C65.08474576271186,38.00844444444444,66.10169491525424,38.016888888888886,67.11864406779661,37.98133333333333C68.13559322033899,37.94577777777778,69.15254237288136,37.85155555555556,70.16949152542374,37.768C71.1864406779661,37.684444444444445,72.20338983050848,37.58577777777778,73.22033898305085,37.480000000000004C74.23728813559322,37.37422222222223,75.2542372881356,37.24888888888889,76.27118644067797,37.13333333333333C77.28813559322033,37.01777777777777,78.30508474576271,36.91555555555555,79.32203389830508,36.78666666666666C80.33898305084746,36.657777777777774,81.35593220338983,36.49066666666666,82.37288135593221,36.36C83.38983050847457,36.22933333333334,84.40677966101696,36.111555555555555,85.42372881355932,36.00266666666667C86.4406779661017,35.89377777777778,87.45762711864407,35.855111111111114,88.47457627118645,35.70666666666667C89.49152542372882,35.55822222222223,90.50847457627118,35.32933333333333,91.52542372881355,35.112C92.54237288135593,34.894666666666666,93.55932203389831,34.652,94.57627118644069,34.40266666666667C95.59322033898306,34.153333333333336,96.61016949152543,33.87777777777778,97.62711864406779,33.616C98.64406779661016,33.35422222222222,99.66101694915254,33.09822222222222,100.6779661016949,32.832C101.69491525423729,32.565777777777775,102.71186440677965,32.281777777777776,103.72881355932203,32.01866666666667C104.7457627118644,31.755555555555556,105.76271186440678,31.47822222222222,106.77966101694915,31.253333333333334C107.79661016949153,31.028444444444442,108.8135593220339,30.66933333333333,109.83050847457628,30.66933333333333C110.84745762711864,30.66933333333333,111.86440677966102,30.728,112.88135593220339,30.728C113.89830508474576,30.728,114.91525423728814,29.800888888888892,115.9322033898305,29.264000000000003C116.94915254237289,28.727111111111114,117.96610169491525,28.085333333333338,118.98305084745763,27.506666666666668C120,26.928000000000004,121.01694915254237,26.343999999999998,122.03389830508473,25.792C123.05084745762711,25.24,124.0677966101695,24.677333333333337,125.08474576271188,24.194666666666667C126.10169491525424,23.712000000000003,127.11864406779662,23.267555555555557,128.135593220339,22.896C129.15254237288136,22.524444444444445,130.16949152542372,22.52666666666666,131.1864406779661,21.96533333333333C132.20338983050846,21.403999999999996,133.22033898305085,20.048888888888886,134.23728813559322,19.528C135.25423728813558,19.00711111111111,136.27118644067798,18.99288888888889,137.28813559322035,18.746666666666666C138.3050847457627,18.500444444444444,139.3220338983051,18.300888888888892,140.33898305084747,18.050666666666668C141.35593220338984,17.800444444444448,142.3728813559322,17.480444444444444,143.38983050847457,17.245333333333335C144.40677966101694,17.01022222222222,145.42372881355934,16.848000000000003,146.4406779661017,16.64C147.45762711864407,16.432000000000002,148.47457627118644,15.997333333333334,149.4915254237288,15.997333333333334C150.50847457627117,15.997333333333334,151.52542372881356,15.997333333333334,152.54237288135593,15.997333333333334C153.5593220338983,15.997333333333334,154.5762711864407,15.655555555555557,155.59322033898306,15.448C156.61016949152543,15.240444444444446,157.6271186440678,14.82488888888889,158.64406779661016,14.752C159.66101694915253,14.679111111111112,160.67796610169492,14.642666666666667,161.6949152542373,14.642666666666667C162.71186440677965,14.642666666666667,163.72881355932205,14.658666666666669,164.74576271186442,14.658666666666669C165.76271186440678,14.658666666666669,166.77966101694915,14.466222222222223,167.79661016949152,14.389333333333333C168.81355932203388,14.312444444444443,169.83050847457628,14.274222222222223,170.84745762711864,14.197333333333333C171.864406779661,14.120444444444443,172.8813559322034,13.990222222222219,173.89830508474577,13.927999999999997C174.91525423728814,13.865777777777776,175.93220338983053,13.893333333333333,176.9491525423729,13.824000000000002C177.96610169491527,13.754666666666672,178.98305084745763,13.184000000000003,180,12.613333333333333L180,40C178.98305084745763,40,177.96610169491527,40,176.9491525423729,40C175.93220338983053,40,174.91525423728814,40,173.89830508474577,40C172.8813559322034,40,171.864406779661,40,170.84745762711864,40C169.83050847457628,40,168.81355932203388,40,167.79661016949152,40C166.77966101694915,40,165.76271186440678,40,164.74576271186442,40C163.72881355932205,40,162.71186440677965,40,161.6949152542373,40C160.67796610169492,40,159.66101694915253,40,158.64406779661016,40C157.6271186440678,40,156.61016949152543,40,155.59322033898306,40C154.5762711864407,40,153.5593220338983,40,152.54237288135593,40C151.52542372881356,40,150.50847457627117,40,149.4915254237288,40C148.47457627118644,40,147.45762711864407,40,146.4406779661017,40C145.42372881355934,40,144.40677966101694,40,143.38983050847457,40C142.3728813559322,40,141.35593220338984,40,140.33898305084747,40C139.3220338983051,40,138.3050847457627,40,137.28813559322035,40C136.27118644067798,40,135.25423728813558,40,134.23728813559322,40C133.22033898305085,40,132.20338983050846,40,131.1864406779661,40C130.16949152542372,40,129.15254237288136,40,128.135593220339,40C127.11864406779662,40,126.10169491525424,40,125.08474576271188,40C124.0677966101695,40,123.05084745762711,40,122.03389830508473,40C121.01694915254237,40,120,40,118.98305084745763,40C117.96610169491525,40,116.94915254237289,40,115.9322033898305,40C114.91525423728814,40,113.89830508474576,40,112.88135593220339,40C111.86440677966102,40,110.84745762711864,40,109.83050847457628,40C108.8135593220339,40,107.79661016949153,40,106.77966101694915,40C105.76271186440678,40,104.7457627118644,40,103.72881355932203,40C102.71186440677965,40,101.69491525423729,40,100.6779661016949,40C99.66101694915254,40,98.64406779661016,40,97.62711864406779,40C96.61016949152543,40,95.59322033898306,40,94.57627118644069,40C93.55932203389831,40,92.54237288135593,40,91.52542372881355,40C90.50847457627118,40,89.49152542372882,40,88.47457627118645,40C87.45762711864407,40,86.4406779661017,40,85.42372881355932,40C84.40677966101696,40,83.38983050847457,40,82.37288135593221,40C81.35593220338983,40,80.33898305084746,40,79.32203389830508,40C78.30508474576271,40,77.28813559322033,40,76.27118644067797,40C75.2542372881356,40,74.23728813559322,40,73.22033898305085,40C72.20338983050848,40,71.1864406779661,40,70.16949152542374,40C69.15254237288136,40,68.13559322033899,40,67.11864406779661,40C66.10169491525424,40,65.08474576271186,40,64.0677966101695,40C63.05084745762712,40,62.03389830508474,40,61.01694915254237,40C59.99999999999999,40,58.983050847457626,40,57.96610169491525,40C56.94915254237288,40,55.93220338983051,40,54.91525423728814,40C53.898305084745765,40,52.88135593220339,40,51.86440677966102,40C50.847457627118644,40,49.83050847457627,40,48.813559322033896,40C47.79661016949152,40,46.77966101694915,40,45.762711864406775,40C44.7457627118644,40,43.728813559322035,40,42.71186440677966,40C41.69491525423729,40,40.67796610169491,40,39.66101694915254,40C38.644067796610166,40,37.6271186440678,40,36.610169491525426,40C35.59322033898305,40,34.57627118644068,40,33.559322033898304,40C32.54237288135593,40,31.525423728813557,40,30.508474576271183,40C29.491525423728813,40,28.47457627118644,40,27.45762711864407,40C26.440677966101696,40,25.423728813559322,40,24.406779661016948,40C23.389830508474574,40,22.372881355932204,40,21.35593220338983,40C20.338983050847457,40,19.322033898305087,40,18.305084745762713,40C17.28813559322034,40,16.271186440677965,40,15.254237288135592,40C14.23728813559322,40,13.220338983050846,40,12.203389830508474,40C11.186440677966102,40,10.169491525423728,40,9.152542372881356,40C8.135593220338983,40,7.11864406779661,40,6.101694915254237,40C5.084745762711864,40,4.067796610169491,40,3.0508474576271185,40C2.0338983050847457,40,1.0169491525423728,40,0,40Z"></path><path class="line" stroke="black" fill="none" d="M0,37.629333333333335C1.0169491525423728,37.63866666666667,2.0338983050847457,37.648,3.0508474576271185,37.648C4.067796610169491,37.648,5.084745762711864,37.61066666666667,6.101694915254237,37.61066666666667C7.11864406779661,37.61066666666667,8.135593220338983,37.61066666666667,9.152542372881356,37.61066666666667C10.169491525423728,37.61066666666667,11.186440677966102,37.61822222222222,12.203389830508474,37.629333333333335C13.220338983050846,37.64044444444445,14.23728813559322,37.67733333333333,15.254237288135592,37.67733333333333C16.271186440677965,37.67733333333333,17.28813559322034,37.672,18.305084745762713,37.672C19.322033898305087,37.672,20.338983050847457,37.69422222222222,21.35593220338983,37.704C22.372881355932204,37.71377777777778,23.389830508474574,37.71288888888889,24.406779661016948,37.730666666666664C25.423728813559322,37.74844444444444,26.440677966101696,37.792,27.45762711864407,37.81333333333333C28.47457627118644,37.834666666666664,29.491525423728813,37.84311111111111,30.508474576271183,37.858666666666664C31.525423728813557,37.87422222222222,32.54237288135593,37.89955555555556,33.559322033898304,37.906666666666666C34.57627118644068,37.913777777777774,35.59322033898305,37.910222222222224,36.610169491525426,37.91733333333333C37.6271186440678,37.92444444444444,38.644067796610166,37.967555555555556,39.66101694915254,37.99466666666667C40.67796610169491,38.02177777777778,41.69491525423729,38.08,42.71186440677966,38.08C43.728813559322035,38.08,44.7457627118644,38.06933333333333,45.762711864406775,38.06933333333333C46.77966101694915,38.06933333333333,47.79661016949152,38.086222222222226,48.813559322033896,38.096000000000004C49.83050847457627,38.10577777777778,50.847457627118644,38.11955555555556,51.86440677966102,38.128C52.88135593220339,38.13644444444444,53.898305084745765,38.138222222222225,54.91525423728814,38.14666666666667C55.93220338983051,38.15511111111111,56.94915254237288,38.178666666666665,57.96610169491525,38.178666666666665C58.983050847457626,38.178666666666665,59.99999999999999,38.16266666666667,61.01694915254237,38.138666666666666C62.03389830508474,38.114666666666665,63.05084745762712,38.06088888888889,64.0677966101695,38.034666666666666C65.08474576271186,38.00844444444444,66.10169491525424,38.016888888888886,67.11864406779661,37.98133333333333C68.13559322033899,37.94577777777778,69.15254237288136,37.85155555555556,70.16949152542374,37.768C71.1864406779661,37.684444444444445,72.20338983050848,37.58577777777778,73.22033898305085,37.480000000000004C74.23728813559322,37.37422222222223,75.2542372881356,37.24888888888889,76.27118644067797,37.13333333333333C77.28813559322033,37.01777777777777,78.30508474576271,36.91555555555555,79.32203389830508,36.78666666666666C80.33898305084746,36.657777777777774,81.35593220338983,36.49066666666666,82.37288135593221,36.36C83.38983050847457,36.22933333333334,84.40677966101696,36.111555555555555,85.42372881355932,36.00266666666667C86.4406779661017,35.89377777777778,87.45762711864407,35.855111111111114,88.47457627118645,35.70666666666667C89.49152542372882,35.55822222222223,90.50847457627118,35.32933333333333,91.52542372881355,35.112C92.54237288135593,34.894666666666666,93.55932203389831,34.652,94.57627118644069,34.40266666666667C95.59322033898306,34.153333333333336,96.61016949152543,33.87777777777778,97.62711864406779,33.616C98.64406779661016,33.35422222222222,99.66101694915254,33.09822222222222,100.6779661016949,32.832C101.69491525423729,32.565777777777775,102.71186440677965,32.281777777777776,103.72881355932203,32.01866666666667C104.7457627118644,31.755555555555556,105.76271186440678,31.47822222222222,106.77966101694915,31.253333333333334C107.79661016949153,31.028444444444442,108.8135593220339,30.66933333333333,109.83050847457628,30.66933333333333C110.84745762711864,30.66933333333333,111.86440677966102,30.728,112.88135593220339,30.728C113.89830508474576,30.728,114.91525423728814,29.800888888888892,115.9322033898305,29.264000000000003C116.94915254237289,28.727111111111114,117.96610169491525,28.085333333333338,118.98305084745763,27.506666666666668C120,26.928000000000004,121.01694915254237,26.343999999999998,122.03389830508473,25.792C123.05084745762711,25.24,124.0677966101695,24.677333333333337,125.08474576271188,24.194666666666667C126.10169491525424,23.712000000000003,127.11864406779662,23.267555555555557,128.135593220339,22.896C129.15254237288136,22.524444444444445,130.16949152542372,22.52666666666666,131.1864406779661,21.96533333333333C132.20338983050846,21.403999999999996,133.22033898305085,20.048888888888886,134.23728813559322,19.528C135.25423728813558,19.00711111111111,136.27118644067798,18.99288888888889,137.28813559322035,18.746666666666666C138.3050847457627,18.500444444444444,139.3220338983051,18.300888888888892,140.33898305084747,18.050666666666668C141.35593220338984,17.800444444444448,142.3728813559322,17.480444444444444,143.38983050847457,17.245333333333335C144.40677966101694,17.01022222222222,145.42372881355934,16.848000000000003,146.4406779661017,16.64C147.45762711864407,16.432000000000002,148.47457627118644,15.997333333333334,149.4915254237288,15.997333333333334C150.50847457627117,15.997333333333334,151.52542372881356,15.997333333333334,152.54237288135593,15.997333333333334C153.5593220338983,15.997333333333334,154.5762711864407,15.655555555555557,155.59322033898306,15.448C156.61016949152543,15.240444444444446,157.6271186440678,14.82488888888889,158.64406779661016,14.752C159.66101694915253,14.679111111111112,160.67796610169492,14.642666666666667,161.6949152542373,14.642666666666667C162.71186440677965,14.642666666666667,163.72881355932205,14.658666666666669,164.74576271186442,14.658666666666669C165.76271186440678,14.658666666666669,166.77966101694915,14.466222222222223,167.79661016949152,14.389333333333333C168.81355932203388,14.312444444444443,169.83050847457628,14.274222222222223,170.84745762711864,14.197333333333333C171.864406779661,14.120444444444443,172.8813559322034,13.990222222222219,173.89830508474577,13.927999999999997C174.91525423728814,13.865777777777776,175.93220338983053,13.893333333333333,176.9491525423729,13.824000000000002C177.96610169491527,13.754666666666672,178.98305084745763,13.184000000000003,180,12.613333333333333"></path><path class="axis-ceiling" stroke-width="1" stroke="black" fill="none" d="M175,0L180,0"></path><text class="axis-ceiling-label" font-family="sans-serif" text-anchor="end" font-size="10px" x="170" y="2.5">15000</text></g></svg>