<svg xmlns="http://www.w3.org/2000/svg" viewBox="0 0 180 60"><g transform="translate(0,20)"><path class="area" fill="rgba(0, 0, 0, 0.2)" d="M0,39.970666666666666C1.0169491525423728,39.97333333333333,2.0338983050847457,39.976,3.0508474576271185,39.976C4.067796610169491,39.976,5.084745762711864,39.97333333333333,6.101694915254237,39.97333333333333C7.11864406779661,39.97333333333333,8.135593220338983,39.97333333333333,9.152542372881356,39.97333333333333C10.169491525423728,39.97333333333333,11.186440677966102,39.976,12.203389830508474,39.976C13.220338983050846,39.976,14.23728813559322,39.96888888888889,15.254237288135592,39.965333333333334C16.271186440677965,39.961777777777776,17.28813559322034,39.95911111111111,18.305084745762713,39.95466666666667C19.322033898305087,39.95022222222222,20.338983050847457,39.94577777777778,21.35593220338983,39.93866666666666C22.372881355932204,39.93155555555555,23.389830508474574,39.91911111111111,24.406779661016948,39.912C25.423728813559322,39.90488888888889,26.440677966101696,39.9,27.45762711864407,39.896C28.47457627118644,39.892,29.491525423728813,39.888,30.508474576271183,39.888C31.525423728813557,39.888,32.54237288135593,39.888,33.559322033898304,39.888C34.57627118644068,39.888,35.59322033898305,39.88444444444444,36.610169491525426,39.882666666666665C37.6271186440678,39.88088888888889,38.644067796610166,39.87733333333333,39.66101694915254,39.87733333333333C40.67796610169491,39.87733333333333,41.69491525423729,39.87822222222223,42.71186440677966,39.88C43.728813559322035,39.88177777777778,44.7457627118644,39.888,45.762711864406775,39.888C46.77966101694915,39.888,47.79661016949152,39.879111111111115,48.813559322033896,39.87466666666667C49.83050847457627,39.870222222222225,50.847457627118644,39.870222222222225,51.86440677966102,39.861333333333334C52.88135593220339,39.852444444444444,53.898305084745765,39.827111111111115,54.91525423728814,39.80266666666667C55.93220338983051,39.778222222222226,56.94915254237288,39.77333333333333,57.96610169491525,39.714666666666666C58.983050847457626,39.656,59.99999999999999,39.56044444444444,61.01694915254237,39.437333333333335C62.03389830508474,39.31422222222222,63.05084745762712,39.17111111111111,64.0677966101695,38.976C65.08474576271186,38.78088888888889,66.10169491525424,38.544444444444444,67.11864406779661,38.266666666666666C68.13559322033899,37.98888888888889,69.15254237288136,37.60711111111111,70.16949152542374,37.309333333333335C71.1864406779661,37.01155555555556,72.20338983050848,36.705333333333336,73.22033898305085,36.480000000000004C74.23728813559322,36.25466666666667,75.2542372881356,36.11955555555556,76.27118644067797,35.95733333333334C77.28813559322033,35.79511111111112,78.30508474576271,35.72266666666667,79.32203389830508,35.50666666666667C80.33898305084746,35.29066666666667,81.35593220338983,34.98311111111111,82.37288135593221,34.66133333333333C83.38983050847457,34.339555555555556,84.40677966101696,33.90133333333333,85.42372881355932,33.576C86.4406779661017,33.25066666666667,87.45762711864407,33.02088888888889,88.47457627118645,32.70933333333333C89.49152542372882,32.397777777777776,90.50847457627118,32.04755555555555,91.52542372881355,31.706666666666663C92.54237288135593,31.365777777777772,93.55932203389831,30.959555555555553,94.57627118644069,30.663999999999998C95.59322033898306,30.368444444444446,96.61016949152543,30.32977777777777,97.62711864406779,29.93333333333333C98.64406779661016,29.536888888888885,99.66101694915254,28.874222222222222,100.6779661016949,28.285333333333334C101.69491525423729,27.696444444444445,102.71186440677965,26.96933333333333,103.72881355932203,26.4C104.7457627118644,25.830666666666666,105.76271186440678,25.424,106.77966101694915,24.869333333333334C107.79661016949153,24.314666666666668,108.8135593220339,23.645777777777777,109.83050847457628,23.072C110.84745762711864,22.498222222222225,111.86440677966102,21.928,112.88135593220339,21.42666666666667C113.89830508474576,20.925333333333338,114.91525423728814,20.487111111111112,115.9322033898305,20.064C116.94915254237289,19.640888888888888,117.96610169491525,19.416,118.98305084745763,18.887999999999998C120,18.36,121.01694915254237,17.484888888888886,122.03389830508473,16.896C123.05084745762711,16.30711111111111,124.0677966101695,15.898222222222225,125.08474576271188,15.354666666666667C126.10169491525424,14.811111111111114,127.11864406779662,14.144,128.135593220339,13.634666666666666C129.15254237288136,13.125333333333334,130.16949152542372,12.823999999999996,131.1864406779661,12.298666666666666C132.20338983050846,11.77333333333333,133.22033898305085,11.034222222222223,134.23728813559322,10.482666666666667C135.25423728813558,9.931111111111111,136.27118644067798,9.37777777777778,137.28813559322035,8.989333333333335C138.3050847457627,8.600888888888889,139.3220338983051,8.447555555555557,140.33898305084747,8.152C141.35593220338984,7.856444444444445,142.3728813559322,7.551555555555554,143.38983050847457,7.216C144.40677966101694,6.880444444444443,145.42372881355934,6.442222222222222,146.4406779661017,6.138666666666666C147.45762711864407,5.835111111111112,148.47457627118644,5.652444444444444,149.4915254237288,5.394666666666668C150.50847457627117,5.136888888888889,151.52542372881356,4.788444444444445,152.54237288135593,4.5920000000000005C153.5593220338983,4.395555555555556,154.5762711864407,4.216000000000002,155.59322033898306,4.216000000000002C156.61016949152543,4.216000000000002,157.6271186440678,4.762666666666666,158.64406779661016,4.762666666666666C159.66101694915253,4.762666666666666,160.67796610169492,4.7475555555555555,161.6949152542373,4.722666666666666C162.71186440677965,4.697777777777777,163.72881355932205,4.6133333333333315,164.74576271186442,4.6133333333333315C165.76271186440678,4.6133333333333315,166.77966101694915,4.767555555555555,167.79661016949152,4.893333333333332C168.81355932203388,5.01911111111111,169.83050847457628,5.215555555555555,170.84745762711864,5.367999999999999C171.864406779661,5.520444444444444,172.8813559322034,5.514666666666666,173.89830508474577,5.808C174.91525423728814,6.101333333333334,175.93220338983053,6.948444444444438,176.9491525423729,8.018666666666668C177.96610169491527,9.088888888888889,178.98305084745763,10.65911111111111,180,12.229333333333333L180,40C178.98305084745763,40,177.96610169491527,40,176.9491525423729,40C175.93220338983053,40,174.91525423728814,40,173.89830508474577,40C172.8813559322034,40,171.864406779661,40,170.84745762711864,40C169.83050847457628,40,168.81355932203388,40,167.79661016949152,40C166.77966101694915,40,165.76271186440678,40,164.74576271186442,40C163.72881355932205,40,162.71186440677965,40,161.6949152542373,40C160.67796610169492,40,159.66101694915253,40,158.64406779661016,40C157.6271186440678,40,156.61016949152543,40,155.59322033898306,40C154.5762711864407,40,153.5593220338983,40,152.54237288135593,40C151.52542372881356,40,150.50847457627117,40,149.4915254237288,40C148.47457627118644,40,147.45762711864407,40,146.4406779661017,40C145.42372881355934,40,144.40677966101694,40,143.38983050847457,40C142.3728813559322,40,141.35593220338984,40,140.33898305084747,40C139.3220338983051,40,138.3050847457627,40,137.28813559322035,40C136.27118644067798,40,135.25423728813558,40,134.23728813559322,40C133.22033898305085,40,132.20338983050846,40,131.1864406779661,40C130.16949152542372,40,129.15254237288136,40,128.135593220339,40C127.11864406779662,40,126.10169491525424,40,125.08474576271188,40C124.0677966101695,40,123.05084745762711,40,122.03389830508473,40C121.01694915254237,40,120,40,118.98305084745763,40C117.96610169491525,40,116.94915254237289,40,115.9322033898305,40C114.91525423728814,40,113.89830508474576,40,112.88135593220339,40C111.86440677966102,40,110.84745762711864,40,109.83050847457628,40C108.8135593220339,40,107.79661016949153,40,106.77966101694915,40C105.76271186440678,40,104.7457627118644,40,103.72881355932203,40C102.71186440677965,40,101.69491525423729,40,100.6779661016949,40C99.66101694915254,40,98.64406779661016,40,97.62711864406779,40C96.61016949152543,40,95.59322033898306,40,94.57627118644069,40C93.55932203389831,40,92.54237288135593,40,91.52542372881355,40C90.50847457627118,40,89.49152542372882,40,88.47457627118645,40C87.45762711864407,40,86.4406779661017,40,85.42372881355932,40C84.40677966101696,40,83.38983050847457,40,82.37288135593221,40C81.35593220338983,40,80.33898305084746,40,79.32203389830508,40C78.30508474576271,40,77.28813559322033,40,76.27118644067797,40C75.2542372881356,40,74.23728813559322,40,73.22033898305085,40C72.20338983050848,40,71.1864406779661,40,70.16949152542374,40C69.15254237288136,40,68.13559322033899,40,67.11864406779661,40C66.10169491525424,40,65.08474576271186,40,64.0677966101695,40C63.05084745762712,40,62.03389830508474,40,61.01694915254237,40C59.99999999999999,40,58.983050847457626,40,57.96610169491525,40C56.94915254237288,40,55.93220338983051,40,54.91525423728814,40C53.898305084745765,40,52.88135593220339,40,51.86440677966102,40C50.847457627118644,40,49.83050847457627,40,48.813559322033896,40C47.79661016949152,40,46.77966101694915,40,45.762711864406775,40C44.7457627118644,40,43.728813559322035,40,42.71186440677966,40C41.69491525423729,40,40.67796610169491,40,39.66101694915254,40C38.644067796610166,40,37.6271186440678,40,36.610169491525426,40C35.59322033898305,40,34.57627118644068,40,33.559322033898304,40C32.54237288135593,40,31.525423728813557,40,30.508474576271183,40C29.491525423728813,40,28.47457627118644,40,27.45762711864407,40C26.440677966101696,40,25.423728813559322,40,24.406779661016948,40C23.389830508474574,40,22.372881355932204,40,21.35593220338983,40C20.338983050847457,40,19.322033898305087,40,18.305084745762713,40C17.28813559322034,40,16.271186440677965,40,15.254237288135592,40C14.23728813559322,40,13.220338983050846,40,12.203389830508474,40C11.186440677966102,40,10.169491525423728,40,9.152542372881356,40C8.135593220338983,40,7.11864406779661,40,6.101694915254237,40C5.084745762711864,40,4.067796610169491,40,3.0508474576271185,40C2.0338983050847457,40,1.0169491525423728,40,0,40Z"></path><path class="line" stroke="black" fill="none" d="M0,39.970666666666666C1.0169491525423728,39.97333333333333,2.0338983050847457,39.976,3.0508474576271185,39.976C4.067796610169491,39.976,5.084745762711864,39.97333333333333,6.101694915254237,39.97333333333333C7.11864406779661,39.97333333333333,8.135593220338983,39.97333333333333,9.152542372881356,39.97333333333333C10.169491525423728,39.97333333333333,11.186440677966102,39.976,12.203389830508474,39.976C13.220338983050846,39.976,14.23728813559322,39.96888888888889,15.254237288135592,39.965333333333334C16.271186440677965,39.961777777777776,17.28813559322034,39.95911111111111,18.305084745762713,39.95466666666667C19.322033898305087,39.95022222222222,20.338983050847457,39.94577777777778,21.35593220338983,39.93866666666666C22.372881355932204,39.93155555555555,23.389830508474574,39.91911111111111,24.406779661016948,39.912C25.423728813559322,39.90488888888889,26.440677966101696,39.9,27.45762711864407,39.896C28.47457627118644,39.892,29.491525423728813,39.888,30.508474576271183,39.888C31.525423728813557,39.888,32.54237288135593,39.888,33.559322033898304,39.888C34.57627118644068,39.888,35.59322033898305,39.88444444444444,36.610169491525426,39.882666666666665C37.6271186440678,39.88088888888889,38.644067796610166,39.87733333333333,39.66101694915254,39.87733333333333C40.67796610169491,39.87733333333333,41.69491525423729,39.87822222222223,42.71186440677966,39.88C43.728813559322035,39.88177777777778,44.7457627118644,39.888,45.762711864406775,39.888C46.77966101694915,39.888,47.79661016949152,39.879111111111115,48.813559322033896,39.87466666666667C49.83050847457627,39.870222222222225,50.847457627118644,39.870222222222225,51.86440677966102,39.861333333333334C52.88135593220339,39.852444444444444,53.898305084745765,39.827111111111115,54.91525423728814,39.80266666666667C55.93220338983051,39.778222222222226,56.94915254237288,39.77333333333333,57.96610169491525,39.714666666666666C58.983050847457626,39.656,59.99999999999999,39.56044444444444,61.01694915254237,39.437333333333335C62.03389830508474,39.31422222222222,63.05084745762712,39.17111111111111,64.0677966101695,38.976C65.08474576271186,38.78088888888889,66.10169491525424,38.544444444444444,67.11864406779661,38.266666666666666C68.13559322033899,37.98888888888889,69.15254237288136,37.60711111111111,70.16949152542374,37.309333333333335C71.1864406779661,37.01155555555556,72.20338983050848,36.705333333333336,73.22033898305085,36.480000000000004C74.23728813559322,36.25466666666667,75.2542372881356,36.11955555555556,76.27118644067797,35.95733333333334C77.28813559322033,35.79511111111112,78.30508474576271,35.72266666666667,79.32203389830508,35.50666666666667C80.33898305084746,35.29066666666667,81.35593220338983,34.98311111111111,82.37288135593221,34.66133333333333C83.38983050847457,34.339555555555556,84.40677966101696,33.90133333333333,85.42372881355932,33.576C86.4406779661017,33.25066666666667,87.45762711864407,33.02088888888889,88.47457627118645,32.70933333333333C89.49152542372882,32.397777777777776,90.50847457627118,32.04755555555555,91.52542372881355,31.706666666666663C92.54237288135593,31.365777777777772,93.55932203389831,30.959555555555553,94.57627118644069,30.663999999999998C95.59322033898306,30.368444444444446,96.61016949152543,30.32977777777777,97.62711864406779,29.93333333333333C98.64406779661016,29.536888888888885,99.66101694915254,28.874222222222222,100.6779661016949,28.285333333333334C101.69491525423729,27.696444444444445,102.71186440677965,26.96933333333333,103.72881355932203,26.4C104.7457627118644,25.830666666666666,105.76271186440678,25.424,106.77966101694915,24.869333333333334C107.79661016949153,24.314666666666668,108.8135593220339,23.645777777777777,109.83050847457628,23.072C110.84745762711864,22.498222222222225,111.86440677966102,21.928,112.88135593220339,21.42666666666667C113.89830508474576,20.925333333333338,114.91525423728814,20.487111111111112,115.9322033898305,20.064C116.94915254237289,19.640888888888888,117.96610169491525,19.416,118.98305084745763,18.887999999999998C120,18.36,121.01694915254237,17.484888888888886,122.03389830508473,16.896C123.05084745762711,16.30711111111111,124.0677966101695,15.898222222222225,125.08474576271188,15.354666666666667C126.10169491525424,14.811111111111114,127.11864406779662,14.144,128.135593220339,13.634666666666666C129.15254237288136,13.125333333333334,130.16949152542372,12.823999999999996,131.1864406779661,12.298666666666666C132.20338983050846,11.77333333333333,133.22033898305085,11.034222222222223,134.23728813559322,10.482666666666667C135.25423728813558,9.931111111111111,136.27118644067798,9.37777777777778,137.28813559322035,8.989333333333335C138.3050847457627,8.600888888888889,139.3220338983051,8.447555555555557,140.33898305084747,8.152C141.35593220338984,7.856444444444445,142.3728813559322,7.551555555555554,143.38983050847457,7.216C144.40677966101694,6.880444444444443,145.42372881355934,6.442222222222222,146.4406779661017,6.138666666666666C147.45762711864407,5.835111111111112,148.47457627118644,5.652444444444444,149.4915254237288,5.394666666666668C150.50847457627117,5.136888888888889,151.52542372881356,4.788444444444445,152.54237288135593,4.5920000000000005C153.5593220338983,4.395555555555556,154.5762711864407,4.216000000000002,155.59322033898306,4.216000000000002C156.61016949152543,4.216000000000002,157.6271186440678,4.762666666666666,158.64406779661016,4.762666666666666C159.66101694915253,4.762666666666666,160.67796610169492,4.7475555555555555,161.6949152542373,4.722666666666666C162.71186440677965,4.697777777777777,163.72881355932205,4.6133333333333315,164.74576271186442,4.6133333333333315C165.76271186440678,4.6133333333333315,166.77966101694915,4.767555555555555,167.79661016949152,4.893333333333332C168.81355932203388,5.01911111111111,169.83050847457628,5.215555555555555,170.84745762711864,5.367999999999999C171.864406779661,5.520444444444444,172.8813559322034,5.514666666666666,173.89830508474577,5.808C174.91525423728814,6.101333333333334,175.93220338983053,6.948444444444438,176.9491525423729,8.018666666666668C177.96610169491527,9.088888888888889,178.98305084745763,10.65911111111111,180,12.229333333333333"></path><path class="axis-ceiling" stroke-width="1" stroke="black" fill="none" d="M175,0L180,0"></path><text class="axis-ceiling-label" font-family="sans-serif" text-anchor="end" font-size="10px" x="170" y="2.5">15000</text></g></svg>