<svg xmlns="http://www.w3.org/2000/svg" viewBox="0 0 180 60"><g transform="translate(0,20)"><path class="area" fill="rgba(0, 0, 0, 0.2)" d="M0,10.064000000000002C1.0169491525423728,10.388888888888891,2.0338983050847457,10.713777777777779,3.0508474576271185,10.957333333333334C4.067796610169491,11.20088888888889,5.084745762711864,11.373777777777779,6.101694915254237,11.525333333333334C7.11864406779661,11.67688888888889,8.135593220338983,11.687999999999999,9.152542372881356,11.866666666666665C10.169491525423728,12.045333333333332,11.186440677966102,12.358666666666664,12.203389830508474,12.597333333333331C13.220338983050846,12.835999999999999,14.23728813559322,13.064,15.254237288135592,13.298666666666668C16.271186440677965,13.533333333333335,17.28813559322034,13.846666666666666,18.305084745762713,14.005333333333333C19.322033898305087,14.163999999999998,20.338983050847457,14.122666666666664,21.35593220338983,14.250666666666664C22.372881355932204,14.378666666666664,23.389830508474574,14.495999999999999,24.406779661016948,14.773333333333332C25.423728813559322,15.050666666666666,26.440677966101696,15.62577777777778,27.45762711864407,15.914666666666669C28.47457627118644,16.203555555555557,29.491525423728813,16.328888888888887,30.508474576271183,16.506666666666664C31.525423728813557,16.68444444444444,32.54237288135593,16.664888888888886,33.559322033898304,16.981333333333332C34.57627118644068,17.297777777777778,35.59322033898305,19.199999999999996,36.610169491525426,19.813333333333333C37.6271186440678,20.426666666666666,38.644067796610166,20.733333333333334,39.66101694915254,20.733333333333334C40.67796610169491,20.733333333333334,41.69491525423729,20.629333333333335,42.71186440677966,20.629333333333335C43.728813559322035,20.629333333333335,44.7457627118644,20.653333333333332,45.762711864406775,20.653333333333332C46.77966101694915,20.653333333333332,47.79661016949152,20.50577777777778,48.813559322033896,20.437333333333335C49.83050847457627,20.36888888888889,50.847457627118644,20.289777777777775,51.86440677966102,20.242666666666665C52.88135593220339,20.195555555555554,53.898305084745765,20.21333333333333,54.91525423728814,20.154666666666667C55.93220338983051,20.096000000000004,56.94915254237288,18.304000000000002,57.96610169491525,18.016000000000002C58.983050847457626,17.728,59.99999999999999,17.584,61.01694915254237,17.584C62.03389830508474,17.584,63.05084745762712,17.776,64.0677966101695,17.776C65.08474576271186,17.776,66.10169491525424,17.619555555555557,67.11864406779661,17.565333333333335C68.13559322033899,17.511111111111113,69.15254237288136,17.477333333333334,70.16949152542374,17.450666666666667C71.1864406779661,17.424,72.20338983050848,17.424444444444447,73.22033898305085,17.405333333333335C74.23728813559322,17.386222222222223,75.2542372881356,17.38222222222222,76.27118644067797,17.336C77.28813559322033,17.289777777777775,78.30508474576271,17.147111111111112,79.32203389830508,17.080000000000002C80.33898305084746,17.01288888888889,81.35593220338983,16.979555555555557,82.37288135593221,16.933333333333334C83.38983050847457,16.88711111111111,84.40677966101696,16.849333333333334,85.42372881355932,16.802666666666667C86.4406779661017,16.756,87.45762711864407,16.714222222222222,88.47457627118645,16.653333333333332C89.49152542372882,16.592444444444443,90.50847457627118,16.522666666666666,91.52542372881355,16.437333333333335C92.54237288135593,16.352,93.55932203389831,16.22533333333333,94.57627118644069,16.141333333333332C95.59322033898306,16.057333333333332,96.61016949152543,16.020888888888887,97.62711864406779,15.933333333333334C98.64406779661016,15.845777777777778,99.66101694915254,15.698666666666666,100.6779661016949,15.616C101.69491525423729,15.533333333333333,102.71186440677965,15.491555555555557,103.72881355932203,15.437333333333335C104.7457627118644,15.383111111111113,105.76271186440678,15.290666666666667,106.77966101694915,15.290666666666667C107.79661016949153,15.290666666666667,108.8135593220339,15.49777777777778,109.83050847457628,15.602666666666668C110.84745762711864,15.707555555555556,111.86440677966102,15.772444444444446,112.88135593220339,15.920000000000002C113.89830508474576,16.067555555555558,114.91525423728814,16.297777777777778,115.9322033898305,16.488C116.94915254237289,16.67822222222222,117.96610169491525,16.80977777777778,118.98305084745763,17.061333333333334C120,17.31288888888889,121.01694915254237,17.694666666666667,122.03389830508473,17.99733333333333C123.05084745762711,18.299999999999997,124.0677966101695,18.631999999999998,125.08474576271188,18.877333333333333C126.10169491525424,19.122666666666664,127.11864406779662,19.31822222222222,128.135593220339,19.469333333333335C129.15254237288136,19.620444444444445,130.16949152542372,19.72177777777778,131.1864406779661,19.784000000000002C132.20338983050846,19.846222222222224,133.22033898305085,19.877333333333333,134.23728813559322,19.877333333333333C135.25423728813558,19.877333333333333,136.27118644067798,19.872,137.28813559322035,19.861333333333334C138.3050847457627,19.85066666666667,139.3220338983051,19.74666666666667,140.33898305084747,19.698666666666668C141.35593220338984,19.650666666666666,142.3728813559322,19.57333333333333,143.38983050847457,19.57333333333333C144.40677966101694,19.57333333333333,145.42372881355934,19.625777777777778,146.4406779661017,19.701333333333334C147.45762711864407,19.77688888888889,148.47457627118644,19.868888888888886,149.4915254237288,20.026666666666664C150.50847457627117,20.18444444444444,151.52542372881356,20.253777777777778,152.54237288135593,20.648C153.5593220338983,21.04222222222222,154.5762711864407,21.956000000000003,155.59322033898306,22.392000000000003C156.61016949152543,22.828,157.6271186440678,23.086222222222222,158.64406779661016,23.264C159.66101694915253,23.44177777777778,160.67796610169492,23.352888888888888,161.6949152542373,23.53066666666667C162.71186440677965,23.70844444444445,163.72881355932205,23.975111111111108,164.74576271186442,24.37333333333333C165.76271186440678,24.77155555555555,166.77966101694915,25.38666666666667,167.79661016949152,25.92C168.81355932203388,26.453333333333337,169.83050847457628,27.128,170.84745762711864,27.573333333333334C171.864406779661,28.018666666666668,172.8813559322034,28.592,173.89830508474577,28.592C174.91525423728814,28.592,175.93220338983053,27.285333333333337,176.9491525423729,26.749333333333336C177.96610169491527,26.213333333333342,178.98305084745763,25.79466666666667,180,25.376000000000005L180,40C178.98305084745763,40,177.96610169491527,40,176.9491525423729,40C175.93220338983053,40,174.91525423728814,40,173.89830508474577,40C172.8813559322034,40,171.864406779661,40,170.84745762711864,40C169.83050847457628,40,168.81355932203388,40,167.79661016949152,40C166.77966101694915,40,165.76271186440678,40,164.74576271186442,40C163.72881355932205,40,162.71186440677965,40,161.6949152542373,40C160.67796610169492,40,159.66101694915253,40,158.64406779661016,40C157.6271186440678,40,156.61016949152543,40,155.59322033898306,40C154.5762711864407,40,153.5593220338983,40,152.54237288135593,40C151.52542372881356,40,150.50847457627117,40,149.4915254237288,40C148.47457627118644,40,147.45762711864407,40,146.4406779661017,40C145.42372881355934,40,144.40677966101694,40,143.38983050847457,40C142.3728813559322,40,141.35593220338984,40,140.33898305084747,40C139.3220338983051,40,138.3050847457627,40,137.28813559322035,40C136.27118644067798,40,135.25423728813558,40,134.23728813559322,40C133.22033898305085,40,132.20338983050846,40,131.1864406779661,40C130.16949152542372,40,129.15254237288136,40,128.135593220339,40C127.11864406779662,40,126.10169491525424,40,125.08474576271188,40C124.0677966101695,40,123.05084745762711,40,122.03389830508473,40C121.01694915254237,40,120,40,118.98305084745763,40C117.96610169491525,40,116.94915254237289,40,115.9322033898305,40C114.91525423728814,40,113.89830508474576,40,112.88135593220339,40C111.86440677966102,40,110.84745762711864,40,109.83050847457628,40C108.8135593220339,40,107.79661016949153,40,106.77966101694915,40C105.76271186440678,40,104.7457627118644,40,103.72881355932203,40C102.71186440677965,40,101.69491525423729,40,100.6779661016949,40C99.66101694915254,40,98.64406779661016,40,97.62711864406779,40C96.61016949152543,40,95.59322033898306,40,94.57627118644069,40C93.55932203389831,40,92.54237288135593,40,91.52542372881355,40C90.50847457627118,40,89.49152542372882,40,88.47457627118645,40C87.45762711864407,40,86.4406779661017,40,85.42372881355932,40C84.40677966101696,40,83.38983050847457,40,82.37288135593221,40C81.35593220338983,40,80.33898305084746,40,79.32203389830508,40C78.30508474576271,40,77.28813559322033,40,76.27118644067797,40C75.2542372881356,40,74.23728813559322,40,73.22033898305085,40C72.20338983050848,40,71.1864406779661,40,70.16949152542374,40C69.15254237288136,40,68.13559322033899,40,67.11864406779661,40C66.10169491525424,40,65.08474576271186,40,64.0677966101695,40C63.05084745762712,40,62.03389830508474,40,61.01694915254237,40C59.99999999999999,40,58.983050847457626,40,57.96610169491525,40C56.94915254237288,40,55.93220338983051,40,54.91525423728814,40C53.898305084745765,40,52.88135593220339,40,51.86440677966102,40C50.847457627118644,40,49.83050847457627,40,48.813559322033896,40C47.79661016949152,40,46.77966101694915,40,45.762711864406775,40C44.7457627118644,40,43.728813559322035,40,42.71186440677966,40C41.69491525423729,40,40.67796610169491,40,39.66101694915254,40C38.644067796610166,40,37.6271186440678,40,36.610169491525426,40C35.59322033898305,40,34.57627118644068,40,33.559322033898304,40C32.54237288135593,40,31.525423728813557,40,30.508474576271183,40C29.491525423728813,40,28.47457627118644,40,27.45762711864407,40C26.440677966101696,40,25.423728813559322,40,24.406779661016948,40C23.389830508474574,40,22.372881355932204,40,21.35593220338983,40C20.338983050847457,40,19.322033898305087,40,18.305084745762713,40C17.28813559322034,40,16.271186440677965,40,15.254237288135592,40C14.23728813559322,40,13.220338983050846,40,12.203389830508474,40C11.186440677966102,40,10.169491525423728,40,9.152542372881356,40C8.135593220338983,40,7.11864406779661,40,6.101694915254237,40C5.084745762711864,40,4.067796610169491,40,3.0508474576271185,40C2.0338983050847457,40,1.0169491525423728,40,0,40Z"></path><path class="line" stroke="black" fill="none" d="M0,10.064000000000002C1.0169491525423728,10.388888888888891,2.0338983050847457,10.713777777777779,3.0508474576271185,10.957333333333334C4.067796610169491,11.20088888888889,5.084745762711864,11.373777777777779,6.101694915254237,11.525333333333334C7.11864406779661,11.67688888888889,8.135593220338983,11.687999999999999,9.152542372881356,11.866666666666665C10.169491525423728,12.045333333333332,11.186440677966102,12.358666666666664,12.203389830508474,12.597333333333331C13.220338983050846,12.835999999999999,14.23728813559322,13.064,15.254237288135592,13.298666666666668C16.271186440677965,13.533333333333335,17.28813559322034,13.846666666666666,18.305084745762713,14.005333333333333C19.322033898305087,14.163999999999998,20.338983050847457,14.122666666666664,21.35593220338983,14.250666666666664C22.372881355932204,14.378666666666664,23.389830508474574,14.495999999999999,24.406779661016948,14.773333333333332C25.423728813559322,15.050666666666666,26.440677966101696,15.62577777777778,27.45762711864407,15.914666666666669C28.47457627118644,16.203555555555557,29.491525423728813,16.328888888888887,30.508474576271183,16.506666666666664C31.525423728813557,16.68444444444444,32.54237288135593,16.664888888888886,33.559322033898304,16.981333333333332C34.57627118644068,17.297777777777778,35.59322033898305,19.199999999999996,36.610169491525426,19.813333333333333C37.6271186440678,20.426666666666666,38.644067796610166,20.733333333333334,39.66101694915254,20.733333333333334C40.67796610169491,20.733333333333334,41.69491525423729,20.629333333333335,42.71186440677966,20.629333333333335C43.728813559322035,20.629333333333335,44.7457627118644,20.653333333333332,45.762711864406775,20.653333333333332C46.77966101694915,20.653333333333332,47.79661016949152,20.50577777777778,48.813559322033896,20.437333333333335C49.83050847457627,20.36888888888889,50.847457627118644,20.289777777777775,51.86440677966102,20.242666666666665C52.88135593220339,20.195555555555554,53.898305084745765,20.21333333333333,54.91525423728814,20.154666666666667C55.93220338983051,20.096000000000004,56.94915254237288,18.304000000000002,57.96610169491525,18.016000000000002C58.983050847457626,17.728,59.99999999999999,17.584,61.01694915254237,17.584C62.03389830508474,17.584,63.05084745762712,17.776,64.0677966101695,17.776C65.08474576271186,17.776,66.10169491525424,17.619555555555557,67.11864406779661,17.565333333333335C68.13559322033899,17.511111111111113,69.15254237288136,17.477333333333334,70.16949152542374,17.450666666666667C71.1864406779661,17.424,72.20338983050848,17.424444444444447,73.22033898305085,17.405333333333335C74.23728813559322,17.386222222222223,75.2542372881356,17.38222222222222,76.27118644067797,17.336C77.28813559322033,17.289777777777775,78.30508474576271,17.147111111111112,79.32203389830508,17.080000000000002C80.33898305084746,17.01288888888889,81.35593220338983,16.979555555555557,82.37288135593221,16.933333333333334C83.38983050847457,16.88711111111111,84.40677966101696,16.849333333333334,85.42372881355932,16.802666666666667C86.4406779661017,16.756,87.45762711864407,16.714222222222222,88.47457627118645,16.653333333333332C89.49152542372882,16.592444444444443,90.50847457627118,16.522666666666666,91.52542372881355,16.437333333333335C92.54237288135593,16.352,93.55932203389831,16.22533333333333,94.57627118644069,16.141333333333332C95.59322033898306,16.057333333333332,96.61016949152543,16.020888888888887,97.62711864406779,15.933333333333334C98.64406779661016,15.845777777777778,99.66101694915254,15.698666666666666,100.6779661016949,15.616C101.69491525423729,15.533333333333333,102.71186440677965,15.491555555555557,103.72881355932203,15.437333333333335C104.7457627118644,15.383111111111113,105.76271186440678,15.290666666666667,106.77966101694915,15.290666666666667C107.79661016949153,15.290666666666667,108.8135593220339,15.49777777777778,109.83050847457628,15.602666666666668C110.84745762711864,15.707555555555556,111.86440677966102,15.772444444444446,112.88135593220339,15.920000000000002C113.89830508474576,16.067555555555558,114.91525423728814,16.297777777777778,115.9322033898305,16.488C116.94915254237289,16.67822222222222,117.96610169491525,16.80977777777778,118.98305084745763,17.061333333333334C120,17.31288888888889,121.01694915254237,17.694666666666667,122.03389830508473,17.99733333333333C123.05084745762711,18.299999999999997,124.0677966101695,18.631999999999998,125.08474576271188,18.877333333333333C126.10169491525424,19.122666666666664,127.11864406779662,19.31822222222222,128.135593220339,19.469333333333335C129.15254237288136,19.620444444444445,130.16949152542372,19.72177777777778,131.1864406779661,19.784000000000002C132.20338983050846,19.846222222222224,133.22033898305085,19.877333333333333,134.23728813559322,19.877333333333333C135.25423728813558,19.877333333333333,136.27118644067798,19.872,137.28813559322035,19.861333333333334C138.3050847457627,19.85066666666667,139.3220338983051,19.74666666666667,140.33898305084747,19.698666666666668C141.35593220338984,19.650666666666666,142.3728813559322,19.57333333333333,143.38983050847457,19.57333333333333C144.40677966101694,19.57333333333333,145.42372881355934,19.625777777777778,146.4406779661017,19.701333333333334C147.45762711864407,19.77688888888889,148.47457627118644,19.868888888888886,149.4915254237288,20.026666666666664C150.50847457627117,20.18444444444444,151.52542372881356,20.253777777777778,152.54237288135593,20.648C153.5593220338983,21.04222222222222,154.5762711864407,21.956000000000003,155.59322033898306,22.392000000000003C156.61016949152543,22.828,157.6271186440678,23.086222222222222,158.64406779661016,23.264C159.66101694915253,23.44177777777778,160.67796610169492,23.352888888888888,161.6949152542373,23.53066666666667C162.71186440677965,23.70844444444445,163.72881355932205,23.975111111111108,164.74576271186442,24.37333333333333C165.76271186440678,24.77155555555555,166.77966101694915,25.38666666666667,167.79661016949152,25.92C168.81355932203388,26.453333333333337,169.83050847457628,27.128,170.84745762711864,27.573333333333334C171.864406779661,28.018666666666668,172.8813559322034,28.592,173.89830508474577,28.592C174.91525423728814,28.592,175.93220338983053,27.285333333333337,176.9491525423729,26.749333333333336C177.96610169491527,26.213333333333342,178.98305084745763,25.79466666666667,180,25.376000000000005"></path><path class="axis-ceiling" stroke-width="1" stroke="black" fill="none" d="M175,0L180,0"></path><text class="axis-ceiling-label" font-family="sans-serif" text-anchor="end" font-size="10px" x="170" y="2.5">15000</text></g></svg>