<svg xmlns="http://www.w3.org/2000/svg" viewBox="0 0 180 60"><g transform="translate(0,20)"><path class="area" fill="rgba(0, 0, 0, 0.2)" d="M0,34.96C1.0344827586206897,34.96,2.068965517241379,34.96,3.103448275862069,34.96C4.137931034482759,34.96,5.172413793103448,34.906666666666666,6.206896551724138,34.8C7.241379310344827,34.69333333333333,8.275862068965516,34.32,9.310344827586206,34.32C10.344827586206897,34.32,11.379310344827585,35.76,12.413793103448276,35.76C13.448275862068966,35.76,14.482758620689655,35.36,15.517241379310345,35.36C16.551724137931036,35.36,17.586206896551722,36.4,18.620689655172413,36.4C19.655172413793103,36.4,20.689655172413794,36,21.724137931034484,35.68C22.758620689655174,35.36,23.79310344827586,34.69333333333333,24.82758620689655,34.48C25.862068965517242,34.266666666666666,26.896551724137932,34.37333333333333,27.931034482758623,34.16C28.965517241379313,33.946666666666665,30,32.32,31.03448275862069,32.32C32.06896551724138,32.32,33.103448275862064,33.16,34.137931034482754,33.76C35.172413793103445,34.36,36.206896551724135,35.92,37.241379310344826,35.92C38.275862068965516,35.92,39.310344827586206,35.2,40.3448275862069,35.2C41.37931034482759,35.2,42.41379310344828,35.76,43.44827586206897,36C44.48275862068966,36.24,45.51724137931035,36.64,46.55172413793104,36.64C47.58620689655173,36.64,48.62068965517241,33.519999999999996,49.6551724137931,33.519999999999996C50.689655172413794,33.519999999999996,51.72413793103448,34.64,52.75862068965517,34.64C53.79310344827586,34.64,54.827586206896555,34.48,55.862068965517246,34.48C56.896551724137936,34.48,57.93103448275862,35.04,58.96551724137931,35.04C60,35.04,61.03448275862069,34.08,62.06896551724138,34.08C63.10344827586207,34.08,64.13793103448276,36.32,65.17241379310344,36.32C66.20689655172413,36.32,67.24137931034483,35.92,68.27586206896551,35.52C69.3103448275862,35.120000000000005,70.34482758620689,33.92,71.37931034482759,33.92C72.41379310344827,33.92,73.44827586206897,35.44,74.48275862068965,35.44C75.51724137931033,35.44,76.55172413793103,35.44,77.58620689655172,35.44C78.62068965517241,35.44,79.6551724137931,34.72,80.6896551724138,34.72C81.72413793103448,34.72,82.75862068965517,35.76,83.79310344827586,35.76C84.82758620689656,35.76,85.86206896551724,34.32,86.89655172413794,34.32C87.93103448275862,34.32,88.96551724137932,34.96,90,34.96C91.0344827586207,34.96,92.06896551724138,34.45333333333333,93.10344827586208,34.24C94.13793103448276,34.02666666666667,95.17241379310344,33.82666666666667,96.20689655172413,33.68C97.24137931034483,33.53333333333333,98.27586206896551,33.57333333333333,99.3103448275862,33.36C100.3448275862069,33.14666666666667,101.37931034482759,30.72,102.41379310344828,30.72C103.44827586206897,30.72,104.48275862068965,33.89333333333333,105.51724137931033,34.48C106.55172413793103,35.06666666666666,107.58620689655172,35.36,108.62068965517241,35.36C109.65517241379311,35.36,110.6896551724138,35.306666666666665,111.72413793103449,35.2C112.75862068965517,35.09333333333334,113.79310344827587,34.38666666666666,114.82758620689656,33.839999999999996C115.86206896551724,33.29333333333333,116.89655172413794,31.92,117.93103448275862,31.92C118.96551724137932,31.92,120,32.160000000000004,121.0344827586207,32.160000000000004C122.06896551724138,32.160000000000004,123.10344827586208,31.28,124.13793103448276,31.28C125.17241379310344,31.28,126.20689655172414,31.74666666666667,127.24137931034483,32.160000000000004C128.27586206896552,32.57333333333334,129.3103448275862,33.76,130.3448275862069,33.76C131.3793103448276,33.76,132.41379310344828,32.13333333333334,133.44827586206898,31.520000000000003C134.48275862068965,30.906666666666677,135.51724137931035,30.706666666666656,136.55172413793102,30.08C137.58620689655172,29.453333333333326,138.6206896551724,28.026666666666667,139.6551724137931,27.759999999999998C140.6896551724138,27.493333333333332,141.72413793103448,27.453333333333333,142.75862068965517,27.36C143.79310344827587,27.266666666666666,144.82758620689654,27.199999999999996,145.86206896551724,27.199999999999996C146.89655172413794,27.199999999999996,147.9310344827586,31.200000000000003,148.9655172413793,31.200000000000003C150,31.200000000000003,151.0344827586207,28.88,152.0689655172414,28.88C153.10344827586206,28.88,154.13793103448276,30.32,155.17241379310343,30.32C156.20689655172413,30.32,157.24137931034483,23.280000000000012,158.27586206896552,22.480000000000004C159.31034482758622,21.680000000000003,160.3448275862069,21.28,161.3793103448276,21.28C162.41379310344828,21.28,163.44827586206895,24.666666666666664,164.48275862068965,25.04C165.51724137931035,25.413333333333334,166.55172413793102,25.6,167.58620689655172,25.6C168.6206896551724,25.6,169.6551724137931,13.919999999999998,170.6896551724138,13.919999999999998C171.7241379310345,13.919999999999998,172.75862068965517,30.880000000000003,173.79310344827587,30.880000000000003C174.82758620689657,30.880000000000003,175.86206896551724,21.36,176.89655172413794,21.36C177.93103448275863,21.36,178.9655172413793,23.439999999999998,180,25.52L180,40C178.9655172413793,40,177.93103448275863,40,176.89655172413794,40C175.86206896551724,40,174.82758620689657,40,173.79310344827587,40C172.75862068965517,40,171.7241379310345,40,170.6896551724138,40C169.6551724137931,40,168.6206896551724,40,167.58620689655172,40C166.55172413793102,40,165.51724137931035,40,164.48275862068965,40C163.44827586206895,40,162.41379310344828,40,161.3793103448276,40C160.3448275862069,40,159.31034482758622,40,158.27586206896552,40C157.24137931034483,40,156.20689655172413,40,155.17241379310343,40C154.13793103448276,40,153.10344827586206,40,152.0689655172414,40C151.0344827586207,40,150,40,148.9655172413793,40C147.9310344827586,40,146.89655172413794,40,145.86206896551724,40C144.82758620689654,40,143.79310344827587,40,142.75862068965517,40C141.72413793103448,40,140.6896551724138,40,139.6551724137931,40C138.6206896551724,40,137.58620689655172,40,136.55172413793102,40C135.51724137931035,40,134.48275862068965,40,133.44827586206898,40C132.41379310344828,40,131.3793103448276,40,130.3448275862069,40C129.3103448275862,40,128.27586206896552,40,127.24137931034483,40C126.20689655172414,40,125.17241379310344,40,124.13793103448276,40C123.10344827586208,40,122.06896551724138,40,121.0344827586207,40C120,40,118.96551724137932,40,117.93103448275862,40C116.89655172413794,40,115.86206896551724,40,114.82758620689656,40C113.79310344827587,40,112.75862068965517,40,111.72413793103449,40C110.6896551724138,40,109.65517241379311,40,108.62068965517241,40C107.58620689655172,40,106.55172413793103,40,105.51724137931033,40C104.48275862068965,40,103.44827586206897,40,102.41379310344828,40C101.37931034482759,40,100.3448275862069,40,99.3103448275862,40C98.27586206896551,40,97.24137931034483,40,96.20689655172413,40C95.17241379310344,40,94.13793103448276,40,93.10344827586208,40C92.06896551724138,40,91.0344827586207,40,90,40C88.96551724137932,40,87.93103448275862,40,86.89655172413794,40C85.86206896551724,40,84.82758620689656,40,83.79310344827586,40C82.75862068965517,40,81.72413793103448,40,80.6896551724138,40C79.6551724137931,40,78.62068965517241,40,77.58620689655172,40C76.55172413793103,40,75.51724137931033,40,74.48275862068965,40C73.44827586206897,40,72.41379310344827,40,71.37931034482759,40C70.34482758620689,40,69.3103448275862,40,68.27586206896551,40C67.24137931034483,40,66.20689655172413,40,65.17241379310344,40C64.13793103448276,40,63.10344827586207,40,62.06896551724138,40C61.03448275862069,40,60,40,58.96551724137931,40C57.93103448275862,40,56.896551724137936,40,55.862068965517246,40C54.827586206896555,40,53.79310344827586,40,52.75862068965517,40C51.72413793103448,40,50.689655172413794,40,49.6551724137931,40C48.62068965517241,40,47.58620689655173,40,46.55172413793104,40C45.51724137931035,40,44.48275862068966,40,43.44827586206897,40C42.41379310344828,40,41.37931034482759,40,40.3448275862069,40C39.310344827586206,40,38.275862068965516,40,37.241379310344826,40C36.206896551724135,40,35.172413793103445,40,34.137931034482754,40C33.103448275862064,40,32.06896551724138,40,31.03448275862069,40C30,40,28.965517241379313,40,27.931034482758623,40C26.896551724137932,40,25.862068965517242,40,24.82758620689655,40C23.79310344827586,40,22.758620689655174,40,21.724137931034484,40C20.689655172413794,40,19.655172413793103,40,18.620689655172413,40C17.586206896551722,40,16.551724137931036,40,15.517241379310345,40C14.482758620689655,40,13.448275862068966,40,12.413793103448276,40C11.379310344827585,40,10.344827586206897,40,9.310344827586206,40C8.275862068965516,40,7.241379310344827,40,6.206896551724138,40C5.172413793103448,40,4.137931034482759,40,3.103448275862069,40C2.068965517241379,40,1.0344827586206897,40,0,40Z"></path><path class="line" stroke="black" fill="none" d="M0,34.96C1.0344827586206897,34.96,2.068965517241379,34.96,3.103448275862069,34.96C4.137931034482759,34.96,5.172413793103448,34.906666666666666,6.206896551724138,34.8C7.241379310344827,34.69333333333333,8.275862068965516,34.32,9.310344827586206,34.32C10.344827586206897,34.32,11.379310344827585,35.76,12.413793103448276,35.76C13.448275862068966,35.76,14.482758620689655,35.36,15.517241379310345,35.36C16.551724137931036,35.36,17.586206896551722,36.4,18.620689655172413,36.4C19.655172413793103,36.4,20.689655172413794,36,21.724137931034484,35.68C22.758620689655174,35.36,23.79310344827586,34.69333333333333,24.82758620689655,34.48C25.862068965517242,34.266666666666666,26.896551724137932,34.37333333333333,27.931034482758623,34.16C28.965517241379313,33.946666666666665,30,32.32,31.03448275862069,32.32C32.06896551724138,32.32,33.103448275862064,33.16,34.137931034482754,33.76C35.172413793103445,34.36,36.206896551724135,35.92,37.241379310344826,35.92C38.275862068965516,35.92,39.310344827586206,35.2,40.3448275862069,35.2C41.37931034482759,35.2,42.41379310344828,35.76,43.44827586206897,36C44.48275862068966,36.24,45.51724137931035,36.64,46.55172413793104,36.64C47.58620689655173,36.64,48.62068965517241,33.519999999999996,49.6551724137931,33.519999999999996C50.689655172413794,33.519999999999996,51.72413793103448,34.64,52.75862068965517,34.64C53.79310344827586,34.64,54.827586206896555,34.48,55.862068965517246,34.48C56.896551724137936,34.48,57.93103448275862,35.04,58.96551724137931,35.04C60,35.04,61.03448275862069,34.08,62.06896551724138,34.08C63.10344827586207,34.08,64.13793103448276,36.32,65.17241379310344,36.32C66.20689655172413,36.32,67.24137931034483,35.92,68.27586206896551,35.52C69.3103448275862,35.120000000000005,70.34482758620689,33.92,71.37931034482759,33.92C72.41379310344827,33.92,73.44827586206897,35.44,74.48275862068965,35.44C75.51724137931033,35.44,76.55172413793103,35.44,77.58620689655172,35.44C78.62068965517241,35.44,79.6551724137931,34.72,80.6896551724138,34.72C81.72413793103448,34.72,82.75862068965517,35.76,83.79310344827586,35.76C84.82758620689656,35.76,85.86206896551724,34.32,86.89655172413794,34.32C87.93103448275862,34.32,88.96551724137932,34.96,90,34.96C91.0344827586207,34.96,92.06896551724138,34.45333333333333,93.10344827586208,34.24C94.13793103448276,34.02666666666667,95.17241379310344,33.82666666666667,96.20689655172413,33.68C97.24137931034483,33.53333333333333,98.27586206896551,33.57333333333333,99.3103448275862,33.36C100.3448275862069,33.14666666666667,101.37931034482759,30.72,102.41379310344828,30.72C103.44827586206897,30.72,104.48275862068965,33.89333333333333,105.51724137931033,34.48C106.55172413793103,35.06666666666666,107.58620689655172,35.36,108.62068965517241,35.36C109.65517241379311,35.36,110.6896551724138,35.306666666666665,111.72413793103449,35.2C112.75862068965517,35.09333333333334,113.79310344827587,34.38666666666666,114.82758620689656,33.839999999999996C115.86206896551724,33.29333333333333,116.89655172413794,31.92,117.93103448275862,31.92C118.96551724137932,31.92,120,32.160000000000004,121.0344827586207,32.160000000000004C122.06896551724138,32.160000000000004,123.10344827586208,31.28,124.13793103448276,31.28C125.17241379310344,31.28,126.20689655172414,31.74666666666667,127.24137931034483,32.160000000000004C128.27586206896552,32.57333333333334,129.3103448275862,33.76,130.3448275862069,33.76C131.3793103448276,33.76,132.41379310344828,32.13333333333334,133.44827586206898,31.520000000000003C134.48275862068965,30.906666666666677,135.51724137931035,30.706666666666656,136.55172413793102,30.08C137.58620689655172,29.453333333333326,138.6206896551724,28.026666666666667,139.6551724137931,27.759999999999998C140.6896551724138,27.493333333333332,141.72413793103448,27.453333333333333,142.75862068965517,27.36C143.79310344827587,27.266666666666666,144.82758620689654,27.199999999999996,145.86206896551724,27.199999999999996C146.89655172413794,27.199999999999996,147.9310344827586,31.200000000000003,148.9655172413793,31.200000000000003C150,31.200000000000003,151.0344827586207,28.88,152.0689655172414,28.88C153.10344827586206,28.88,154.13793103448276,30.32,155.17241379310343,30.32C156.20689655172413,30.32,157.24137931034483,23.280000000000012,158.27586206896552,22.480000000000004C159.31034482758622,21.680000000000003,160.3448275862069,21.28,161.3793103448276,21.28C162.41379310344828,21.28,163.44827586206895,24.666666666666664,164.48275862068965,25.04C165.51724137931035,25.413333333333334,166.55172413793102,25.6,167.58620689655172,25.6C168.6206896551724,25.6,169.6551724137931,13.919999999999998,170.6896551724138,13.919999999999998C171.7241379310345,13.919999999999998,172.75862068965517,30.880000000000003,173.79310344827587,30.880000000000003C174.82758620689657,30.880000000000003,175.86206896551724,21.36,176.89655172413794,21.36C177.93103448275863,21.36,178.9655172413793,23.439999999999998,180,25.52"></path><path class="axis-ceiling" stroke-width="1" stroke="black" fill="none" d="M175,0L180,0"></path><text class="axis-ceiling-label" font-family="sans-serif" text-anchor="end" font-size="10px" x="170" y="2.5">1000</text></g></svg>