<svg xmlns="http://www.w3.org/2000/svg" viewBox="0 0 180 60"><g transform="translate(0,20)"><path class="area" fill="rgba(0, 0, 0, 0.2)" d="M0,38.48888888888889C1.0169491525423728,38.407407407407405,2.0338983050847457,38.32592592592592,3.0508474576271185,38.22222222222222C4.067796610169491,38.11851851851852,5.084745762711864,37.955555555555556,6.101694915254237,37.86666666666667C7.11864406779661,37.77777777777778,8.135593220338983,37.68888888888889,9.152542372881356,37.68888888888889C10.169491525423728,37.68888888888889,11.186440677966102,37.68888888888889,12.203389830508474,37.68888888888889C13.220338983050846,37.68888888888889,14.23728813559322,37.68888888888889,15.254237288135592,37.68888888888889C16.271186440677965,37.68888888888889,17.28813559322034,37.65925925925925,18.305084745762713,37.599999999999994C19.322033898305087,37.54074074074074,20.338983050847457,37.333333333333336,21.35593220338983,37.333333333333336C22.372881355932204,37.333333333333336,23.389830508474574,37.599999999999994,24.406779661016948,37.599999999999994C25.423728813559322,37.599999999999994,26.440677966101696,37.51111111111111,27.45762711864407,37.51111111111111C28.47457627118644,37.51111111111111,29.491525423728813,37.51111111111111,30.508474576271183,37.51111111111111C31.525423728813557,37.51111111111111,32.54237288135593,37.37777777777778,33.559322033898304,37.333333333333336C34.57627118644068,37.28888888888889,35.59322033898305,37.303703703703704,36.610169491525426,37.24444444444445C37.6271186440678,37.18518518518519,38.644067796610166,36.977777777777774,39.66101694915254,36.977777777777774C40.67796610169491,36.977777777777774,41.69491525423729,37.24444444444445,42.71186440677966,37.24444444444445C43.728813559322035,37.24444444444445,44.7457627118644,37.03703703703703,45.762711864406775,36.977777777777774C46.77966101694915,36.91851851851852,47.79661016949152,36.94814814814815,48.813559322033896,36.88888888888889C49.83050847457627,36.829629629629636,50.847457627118644,36.44444444444444,51.86440677966102,36.44444444444444C52.88135593220339,36.44444444444444,53.898305084745765,36.53333333333333,54.91525423728814,36.53333333333333C55.93220338983051,36.53333333333333,56.94915254237288,36.13333333333333,57.96610169491525,36C58.983050847457626,35.86666666666667,59.99999999999999,35.837037037037035,61.01694915254237,35.733333333333334C62.03389830508474,35.62962962962963,63.05084745762712,35.43703703703704,64.0677966101695,35.37777777777778C65.08474576271186,35.31851851851852,66.10169491525424,35.34814814814815,67.11864406779661,35.28888888888889C68.13559322033899,35.229629629629635,69.15254237288136,35.02222222222222,70.16949152542374,35.02222222222222C71.1864406779661,35.02222222222222,72.20338983050848,35.644444444444446,73.22033898305085,35.644444444444446C74.23728813559322,35.644444444444446,75.2542372881356,35.46666666666667,76.27118644067797,35.46666666666667C77.28813559322033,35.46666666666667,78.30508474576271,35.91111111111111,79.32203389830508,35.91111111111111C80.33898305084746,35.91111111111111,81.35593220338983,35.91111111111111,82.37288135593221,35.91111111111111C83.38983050847457,35.91111111111111,84.40677966101696,35.733333333333334,85.42372881355932,35.733333333333334C86.4406779661017,35.733333333333334,87.45762711864407,35.733333333333334,88.47457627118645,35.733333333333334C89.49152542372882,35.733333333333334,90.50847457627118,35.91111111111111,91.52542372881355,35.91111111111111C92.54237288135593,35.91111111111111,93.55932203389831,35.80740740740741,94.57627118644069,35.733333333333334C95.59322033898306,35.65925925925926,96.61016949152543,35.525925925925925,97.62711864406779,35.46666666666667C98.64406779661016,35.40740740740741,99.66101694915254,35.422222222222224,100.6779661016949,35.37777777777778C101.69491525423729,35.333333333333336,102.71186440677965,35.31851851851852,103.72881355932203,35.2C104.7457627118644,35.08148148148148,105.76271186440678,34.903703703703705,106.77966101694915,34.66666666666667C107.79661016949153,34.42962962962963,108.8135593220339,33.98518518518519,109.83050847457628,33.77777777777778C110.84745762711864,33.57037037037037,111.86440677966102,33.62962962962963,112.88135593220339,33.422222222222224C113.89830508474576,33.214814814814815,114.91525423728814,32.53333333333333,115.9322033898305,32.53333333333333C116.94915254237289,32.53333333333333,117.96610169491525,32.62222222222222,118.98305084745763,32.62222222222222C120,32.62222222222222,121.01694915254237,32.08888888888889,122.03389830508473,31.91111111111111C123.05084745762711,31.73333333333333,124.0677966101695,31.688888888888886,125.08474576271188,31.555555555555554C126.10169491525424,31.42222222222222,127.11864406779662,31.274074074074072,128.135593220339,31.11111111111111C129.15254237288136,30.94814814814815,130.16949152542372,30.785185185185185,131.1864406779661,30.57777777777778C132.20338983050846,30.37037037037037,133.22033898305085,30.177777777777774,134.23728813559322,29.866666666666664C135.25423728813558,29.555555555555554,136.27118644067798,29.096296296296302,137.28813559322035,28.711111111111116C138.3050847457627,28.32592592592593,139.3220338983051,27.83703703703704,140.33898305084747,27.555555555555557C141.35593220338984,27.274074074074075,142.3728813559322,27.37777777777778,143.38983050847457,27.022222222222222C144.40677966101694,26.66666666666666,145.42372881355934,25.807407407407407,146.4406779661017,25.333333333333332C147.45762711864407,24.85925925925926,148.47457627118644,24.829629629629622,149.4915254237288,24.177777777777777C150.50847457627117,23.525925925925925,151.52542372881356,22.23703703703704,152.54237288135593,21.422222222222224C153.5593220338983,20.607407407407408,154.5762711864407,20.074074074074076,155.59322033898306,19.288888888888888C156.61016949152543,18.503703703703707,157.6271186440678,17.555555555555554,158.64406779661016,16.711111111111112C159.66101694915253,15.866666666666664,160.67796610169492,15.14074074074074,161.6949152542373,14.222222222222221C162.71186440677965,13.303703703703702,163.72881355932205,12.207407407407413,164.74576271186442,11.200000000000001C165.76271186440678,10.192592592592598,166.77966101694915,9.18518518518518,167.79661016949152,8.177777777777777C168.81355932203388,7.170370370370366,169.83050847457628,5.837037037037039,170.84745762711864,5.155555555555558C171.864406779661,4.4740740740740765,172.8813559322034,4.503703703703704,173.89830508474577,4.088888888888889C174.91525423728814,3.674074074074073,175.93220338983053,2.666666666666666,176.9491525423729,2.666666666666666C177.96610169491527,2.666666666666666,178.98305084745763,5.2,180,7.733333333333334L180,40C178.98305084745763,40,177.96610169491527,40,176.9491525423729,40C175.93220338983053,40,174.91525423728814,40,173.89830508474577,40C172.8813559322034,40,171.864406779661,40,170.84745762711864,40C169.83050847457628,40,168.81355932203388,40,167.79661016949152,40C166.77966101694915,40,165.76271186440678,40,164.74576271186442,40C163.72881355932205,40,162.71186440677965,40,161.6949152542373,40C160.67796610169492,40,159.66101694915253,40,158.64406779661016,40C157.6271186440678,40,156.61016949152543,40,155.59322033898306,40C154.5762711864407,40,153.5593220338983,40,152.54237288135593,40C151.52542372881356,40,150.50847457627117,40,149.4915254237288,40C148.47457627118644,40,147.45762711864407,40,146.4406779661017,40C145.42372881355934,40,144.40677966101694,40,143.38983050847457,40C142.3728813559322,40,141.35593220338984,40,140.33898305084747,40C139.3220338983051,40,138.3050847457627,40,137.28813559322035,40C136.27118644067798,40,135.25423728813558,40,134.23728813559322,40C133.22033898305085,40,132.20338983050846,40,131.1864406779661,40C130.16949152542372,40,129.15254237288136,40,128.135593220339,40C127.11864406779662,40,126.10169491525424,40,125.08474576271188,40C124.0677966101695,40,123.05084745762711,40,122.03389830508473,40C121.01694915254237,40,120,40,118.98305084745763,40C117.96610169491525,40,116.94915254237289,40,115.9322033898305,40C114.91525423728814,40,113.89830508474576,40,112.88135593220339,40C111.86440677966102,40,110.84745762711864,40,109.83050847457628,40C108.8135593220339,40,107.79661016949153,40,106.77966101694915,40C105.76271186440678,40,104.7457627118644,40,103.72881355932203,40C102.71186440677965,40,101.69491525423729,40,100.6779661016949,40C99.66101694915254,40,98.64406779661016,40,97.62711864406779,40C96.61016949152543,40,95.59322033898306,40,94.57627118644069,40C93.55932203389831,40,92.54237288135593,40,91.52542372881355,40C90.50847457627118,40,89.49152542372882,40,88.47457627118645,40C87.45762711864407,40,86.4406779661017,40,85.42372881355932,40C84.40677966101696,40,83.38983050847457,40,82.37288135593221,40C81.35593220338983,40,80.33898305084746,40,79.32203389830508,40C78.30508474576271,40,77.28813559322033,40,76.27118644067797,40C75.2542372881356,40,74.23728813559322,40,73.22033898305085,40C72.20338983050848,40,71.1864406779661,40,70.16949152542374,40C69.15254237288136,40,68.13559322033899,40,67.11864406779661,40C66.10169491525424,40,65.08474576271186,40,64.0677966101695,40C63.05084745762712,40,62.03389830508474,40,61.01694915254237,40C59.99999999999999,40,58.983050847457626,40,57.96610169491525,40C56.94915254237288,40,55.93220338983051,40,54.91525423728814,40C53.898305084745765,40,52.88135593220339,40,51.86440677966102,40C50.847457627118644,40,49.83050847457627,40,48.813559322033896,40C47.79661016949152,40,46.77966101694915,40,45.762711864406775,40C44.7457627118644,40,43.728813559322035,40,42.71186440677966,40C41.69491525423729,40,40.67796610169491,40,39.66101694915254,40C38.644067796610166,40,37.6271186440678,40,36.610169491525426,40C35.59322033898305,40,34.57627118644068,40,33.559322033898304,40C32.54237288135593,40,31.525423728813557,40,30.508474576271183,40C29.491525423728813,40,28.47457627118644,40,27.45762711864407,40C26.440677966101696,40,25.423728813559322,40,24.406779661016948,40C23.389830508474574,40,22.372881355932204,40,21.35593220338983,40C20.338983050847457,40,19.322033898305087,40,18.305084745762713,40C17.28813559322034,40,16.271186440677965,40,15.254237288135592,40C14.23728813559322,40,13.220338983050846,40,12.203389830508474,40C11.186440677966102,40,10.169491525423728,40,9.152542372881356,40C8.135593220338983,40,7.11864406779661,40,6.101694915254237,40C5.084745762711864,40,4.067796610169491,40,3.0508474576271185,40C2.0338983050847457,40,1.0169491525423728,40,0,40Z"></path><path class="line" stroke="black" fill="none" d="M0,38.48888888888889C1.0169491525423728,38.407407407407405,2.0338983050847457,38.32592592592592,3.0508474576271185,38.22222222222222C4.067796610169491,38.11851851851852,5.084745762711864,37.955555555555556,6.101694915254237,37.86666666666667C7.11864406779661,37.77777777777778,8.135593220338983,37.68888888888889,9.152542372881356,37.68888888888889C10.169491525423728,37.68888888888889,11.186440677966102,37.68888888888889,12.203389830508474,37.68888888888889C13.220338983050846,37.68888888888889,14.23728813559322,37.68888888888889,15.254237288135592,37.68888888888889C16.271186440677965,37.68888888888889,17.28813559322034,37.65925925925925,18.305084745762713,37.599999999999994C19.322033898305087,37.54074074074074,20.338983050847457,37.333333333333336,21.35593220338983,37.333333333333336C22.372881355932204,37.333333333333336,23.389830508474574,37.599999999999994,24.406779661016948,37.599999999999994C25.423728813559322,37.599999999999994,26.440677966101696,37.51111111111111,27.45762711864407,37.51111111111111C28.47457627118644,37.51111111111111,29.491525423728813,37.51111111111111,30.508474576271183,37.51111111111111C31.525423728813557,37.51111111111111,32.54237288135593,37.37777777777778,33.559322033898304,37.333333333333336C34.57627118644068,37.28888888888889,35.59322033898305,37.303703703703704,36.610169491525426,37.24444444444445C37.6271186440678,37.18518518518519,38.644067796610166,36.977777777777774,39.66101694915254,36.977777777777774C40.67796610169491,36.977777777777774,41.69491525423729,37.24444444444445,42.71186440677966,37.24444444444445C43.728813559322035,37.24444444444445,44.7457627118644,37.03703703703703,45.762711864406775,36.977777777777774C46.77966101694915,36.91851851851852,47.79661016949152,36.94814814814815,48.813559322033896,36.88888888888889C49.83050847457627,36.829629629629636,50.847457627118644,36.44444444444444,51.86440677966102,36.44444444444444C52.88135593220339,36.44444444444444,53.898305084745765,36.53333333333333,54.91525423728814,36.53333333333333C55.93220338983051,36.53333333333333,56.94915254237288,36.13333333333333,57.96610169491525,36C58.983050847457626,35.86666666666667,59.99999999999999,35.837037037037035,61.01694915254237,35.733333333333334C62.03389830508474,35.62962962962963,63.05084745762712,35.43703703703704,64.0677966101695,35.37777777777778C65.08474576271186,35.31851851851852,66.10169491525424,35.34814814814815,67.11864406779661,35.28888888888889C68.13559322033899,35.229629629629635,69.15254237288136,35.02222222222222,70.16949152542374,35.02222222222222C71.1864406779661,35.02222222222222,72.20338983050848,35.644444444444446,73.22033898305085,35.644444444444446C74.23728813559322,35.644444444444446,75.2542372881356,35.46666666666667,76.27118644067797,35.46666666666667C77.28813559322033,35.46666666666667,78.30508474576271,35.91111111111111,79.32203389830508,35.91111111111111C80.33898305084746,35.91111111111111,81.35593220338983,35.91111111111111,82.37288135593221,35.91111111111111C83.38983050847457,35.91111111111111,84.40677966101696,35.733333333333334,85.42372881355932,35.733333333333334C86.4406779661017,35.733333333333334,87.45762711864407,35.733333333333334,88.47457627118645,35.733333333333334C89.49152542372882,35.733333333333334,90.50847457627118,35.91111111111111,91.52542372881355,35.91111111111111C92.54237288135593,35.91111111111111,93.55932203389831,35.80740740740741,94.57627118644069,35.733333333333334C95.59322033898306,35.65925925925926,96.61016949152543,35.525925925925925,97.62711864406779,35.46666666666667C98.64406779661016,35.40740740740741,99.66101694915254,35.422222222222224,100.6779661016949,35.37777777777778C101.69491525423729,35.333333333333336,102.71186440677965,35.31851851851852,103.72881355932203,35.2C104.7457627118644,35.08148148148148,105.76271186440678,34.903703703703705,106.77966101694915,34.66666666666667C107.79661016949153,34.42962962962963,108.8135593220339,33.98518518518519,109.83050847457628,33.77777777777778C110.84745762711864,33.57037037037037,111.86440677966102,33.62962962962963,112.88135593220339,33.422222222222224C113.89830508474576,33.214814814814815,114.91525423728814,32.53333333333333,115.9322033898305,32.53333333333333C116.94915254237289,32.53333333333333,117.96610169491525,32.62222222222222,118.98305084745763,32.62222222222222C120,32.62222222222222,121.01694915254237,32.08888888888889,122.03389830508473,31.91111111111111C123.05084745762711,31.73333333333333,124.0677966101695,31.688888888888886,125.08474576271188,31.555555555555554C126.10169491525424,31.42222222222222,127.11864406779662,31.274074074074072,128.135593220339,31.11111111111111C129.15254237288136,30.94814814814815,130.16949152542372,30.785185185185185,131.1864406779661,30.57777777777778C132.20338983050846,30.37037037037037,133.22033898305085,30.177777777777774,134.23728813559322,29.866666666666664C135.25423728813558,29.555555555555554,136.27118644067798,29.096296296296302,137.28813559322035,28.711111111111116C138.3050847457627,28.32592592592593,139.3220338983051,27.83703703703704,140.33898305084747,27.555555555555557C141.35593220338984,27.274074074074075,142.3728813559322,27.37777777777778,143.38983050847457,27.022222222222222C144.40677966101694,26.66666666666666,145.42372881355934,25.807407407407407,146.4406779661017,25.333333333333332C147.45762711864407,24.85925925925926,148.47457627118644,24.829629629629622,149.4915254237288,24.177777777777777C150.50847457627117,23.525925925925925,151.52542372881356,22.23703703703704,152.54237288135593,21.422222222222224C153.5593220338983,20.607407407407408,154.5762711864407,20.074074074074076,155.59322033898306,19.288888888888888C156.61016949152543,18.503703703703707,157.6271186440678,17.555555555555554,158.64406779661016,16.711111111111112C159.66101694915253,15.866666666666664,160.67796610169492,15.14074074074074,161.6949152542373,14.222222222222221C162.71186440677965,13.303703703703702,163.72881355932205,12.207407407407413,164.74576271186442,11.200000000000001C165.76271186440678,10.192592592592598,166.77966101694915,9.18518518518518,167.79661016949152,8.177777777777777C168.81355932203388,7.170370370370366,169.83050847457628,5.837037037037039,170.84745762711864,5.155555555555558C171.864406779661,4.4740740740740765,172.8813559322034,4.503703703703704,173.89830508474577,4.088888888888889C174.91525423728814,3.674074074074073,175.93220338983053,2.666666666666666,176.9491525423729,2.666666666666666C177.96610169491527,2.666666666666666,178.98305084745763,5.2,180,7.733333333333334"></path><path class="axis-ceiling" stroke-width="1" stroke="black" fill="none" d="M175,0L180,0"></path><text class="axis-ceiling-label" font-family="sans-serif" text-anchor="end" font-size="10px" x="170" y="2.5">450</text></g></svg>