<svg xmlns="http://www.w3.org/2000/svg" viewBox="0 0 180 60"><g transform="translate(0,20)"><path class="area" fill="rgba(0, 0, 0, 0.2)" d="M0,15.493333333333332C1.0169491525423728,14.45111111111111,2.0338983050847457,13.408888888888889,3.0508474576271185,12.266666666666666C4.067796610169491,11.124444444444443,5.084745762711864,9.697777777777777,6.101694915254237,8.639999999999999C7.11864406779661,7.582222222222221,8.135593220338983,6.586666666666668,9.152542372881356,5.920000000000001C10.169491525423728,5.253333333333335,11.186440677966102,4.64,12.203389830508474,4.64C13.220338983050846,4.64,14.23728813559322,5.226666666666668,15.254237288135592,5.226666666666668C16.271186440677965,5.226666666666668,17.28813559322034,5.04,18.305084745762713,5.04C19.322033898305087,5.04,20.338983050847457,5.057777777777777,21.35593220338983,5.093333333333332C22.372881355932204,5.128888888888887,23.389830508474574,5.502222222222224,24.406779661016948,5.706666666666669C25.423728813559322,5.911111111111114,26.440677966101696,6.182222222222224,27.45762711864407,6.320000000000001C28.47457627118644,6.457777777777778,29.491525423728813,6.448888888888889,30.508474576271183,6.533333333333333C31.525423728813557,6.6177777777777775,32.54237288135593,6.826666666666665,33.559322033898304,6.826666666666665C34.57627118644068,6.826666666666665,35.59322033898305,5.6711111111111085,36.610169491525426,5.653333333333332C37.6271186440678,5.635555555555556,38.644067796610166,5.626666666666669,39.66101694915254,5.626666666666669C40.67796610169491,5.626666666666669,41.69491525423729,6.191111111111111,42.71186440677966,6.373333333333333C43.728813559322035,6.5555555555555545,44.7457627118644,6.528888888888891,45.762711864406775,6.7200000000000015C46.77966101694915,6.911111111111112,47.79661016949152,7.195555555555553,48.813559322033896,7.519999999999998C49.83050847457627,7.844444444444442,50.847457627118644,8.257777777777779,51.86440677966102,8.666666666666668C52.88135593220339,9.075555555555557,53.898305084745765,9.542222222222222,54.91525423728814,9.973333333333333C55.93220338983051,10.404444444444444,56.94915254237288,10.826666666666666,57.96610169491525,11.253333333333334C58.983050847457626,11.680000000000001,59.99999999999999,12.200000000000003,61.01694915254237,12.533333333333335C62.03389830508474,12.866666666666669,63.05084745762712,12.848888888888888,64.0677966101695,13.253333333333334C65.08474576271186,13.657777777777778,66.10169491525424,14.395555555555557,67.11864406779661,14.96C68.13559322033899,15.524444444444446,69.15254237288136,16.08888888888889,70.16949152542374,16.64C71.1864406779661,17.19111111111111,72.20338983050848,17.875555555555554,73.22033898305085,18.266666666666666C74.23728813559322,18.657777777777778,75.2542372881356,18.715555555555557,76.27118644067797,18.986666666666668C77.28813559322033,19.25777777777778,78.30508474576271,19.488888888888887,79.32203389830508,19.89333333333333C80.33898305084746,20.297777777777775,81.35593220338983,20.848888888888887,82.37288135593221,21.413333333333334C83.38983050847457,21.977777777777778,84.40677966101696,22.73777777777778,85.42372881355932,23.28C86.4406779661017,23.822222222222226,87.45762711864407,24.253333333333334,88.47457627118645,24.666666666666668C89.49152542372882,25.08,90.50847457627118,25.39555555555556,91.52542372881355,25.76C92.54237288135593,26.12444444444445,93.55932203389831,26.555555555555554,94.57627118644069,26.85333333333333C95.59322033898306,27.151111111111106,96.61016949152543,27.25777777777778,97.62711864406779,27.546666666666667C98.64406779661016,27.835555555555555,99.66101694915254,28.26222222222222,100.6779661016949,28.586666666666666C101.69491525423729,28.91111111111111,102.71186440677965,29.186666666666667,103.72881355932203,29.493333333333336C104.7457627118644,29.8,105.76271186440678,30.106666666666662,106.77966101694915,30.426666666666662C107.79661016949153,30.746666666666663,108.8135593220339,31.142222222222223,109.83050847457628,31.413333333333334C110.84745762711864,31.684444444444445,111.86440677966102,31.964444444444446,112.88135593220339,32.053333333333335C113.89830508474576,32.14222222222222,114.91525423728814,32.10666666666667,115.9322033898305,32.18666666666667C116.94915254237289,32.266666666666666,117.96610169491525,32.40888888888889,118.98305084745763,32.53333333333333C120,32.657777777777774,121.01694915254237,32.844444444444456,122.03389830508473,32.93333333333334C123.05084745762711,33.02222222222222,124.0677966101695,32.99999999999999,125.08474576271188,33.06666666666666C126.10169491525424,33.133333333333326,127.11864406779662,33.29777777777778,128.135593220339,33.333333333333336C129.15254237288136,33.36888888888889,130.16949152542372,33.351111111111116,131.1864406779661,33.38666666666667C132.20338983050846,33.422222222222224,133.22033898305085,33.61777777777778,134.23728813559322,33.733333333333334C135.25423728813558,33.84888888888889,136.27118644067798,34,137.28813559322035,34.08C138.3050847457627,34.16,139.3220338983051,34.151111111111106,140.33898305084747,34.21333333333333C141.35593220338984,34.275555555555556,142.3728813559322,34.29333333333333,143.38983050847457,34.45333333333333C144.40677966101694,34.61333333333334,145.42372881355934,35.09333333333333,146.4406779661017,35.25333333333333C147.45762711864407,35.413333333333334,148.47457627118644,35.422222222222224,149.4915254237288,35.49333333333333C150.50847457627117,35.56444444444445,151.52542372881356,35.60444444444444,152.54237288135593,35.68C153.5593220338983,35.75555555555556,154.5762711864407,35.88444444444445,155.59322033898306,35.94666666666667C156.61016949152543,36.0088888888889,157.6271186440678,36.053333333333335,158.64406779661016,36.053333333333335C159.66101694915253,36.053333333333335,160.67796610169492,36.053333333333335,161.6949152542373,36.053333333333335C162.71186440677965,36.053333333333335,163.72881355932205,36.035555555555554,164.74576271186442,36C165.76271186440678,35.964444444444446,166.77966101694915,35.70666666666667,167.79661016949152,35.70666666666667C168.81355932203388,35.70666666666667,169.83050847457628,35.76,170.84745762711864,35.76C171.864406779661,35.76,172.8813559322034,35.653333333333336,173.89830508474577,35.653333333333336C174.91525423728814,35.653333333333336,175.93220338983053,35.68,176.9491525423729,35.68C177.96610169491527,35.68,178.98305084745763,35.61333333333333,180,35.54666666666667L180,40C178.98305084745763,40,177.96610169491527,40,176.9491525423729,40C175.93220338983053,40,174.91525423728814,40,173.89830508474577,40C172.8813559322034,40,171.864406779661,40,170.84745762711864,40C169.83050847457628,40,168.81355932203388,40,167.79661016949152,40C166.77966101694915,40,165.76271186440678,40,164.74576271186442,40C163.72881355932205,40,162.71186440677965,40,161.6949152542373,40C160.67796610169492,40,159.66101694915253,40,158.64406779661016,40C157.6271186440678,40,156.61016949152543,40,155.59322033898306,40C154.5762711864407,40,153.5593220338983,40,152.54237288135593,40C151.52542372881356,40,150.50847457627117,40,149.4915254237288,40C148.47457627118644,40,147.45762711864407,40,146.4406779661017,40C145.42372881355934,40,144.40677966101694,40,143.38983050847457,40C142.3728813559322,40,141.35593220338984,40,140.33898305084747,40C139.3220338983051,40,138.3050847457627,40,137.28813559322035,40C136.27118644067798,40,135.25423728813558,40,134.23728813559322,40C133.22033898305085,40,132.20338983050846,40,131.1864406779661,40C130.16949152542372,40,129.15254237288136,40,128.135593220339,40C127.11864406779662,40,126.10169491525424,40,125.08474576271188,40C124.0677966101695,40,123.05084745762711,40,122.03389830508473,40C121.01694915254237,40,120,40,118.98305084745763,40C117.96610169491525,40,116.94915254237289,40,115.9322033898305,40C114.91525423728814,40,113.89830508474576,40,112.88135593220339,40C111.86440677966102,40,110.84745762711864,40,109.83050847457628,40C108.8135593220339,40,107.79661016949153,40,106.77966101694915,40C105.76271186440678,40,104.7457627118644,40,103.72881355932203,40C102.71186440677965,40,101.69491525423729,40,100.6779661016949,40C99.66101694915254,40,98.64406779661016,40,97.62711864406779,40C96.61016949152543,40,95.59322033898306,40,94.57627118644069,40C93.55932203389831,40,92.54237288135593,40,91.52542372881355,40C90.50847457627118,40,89.49152542372882,40,88.47457627118645,40C87.45762711864407,40,86.4406779661017,40,85.42372881355932,40C84.40677966101696,40,83.38983050847457,40,82.37288135593221,40C81.35593220338983,40,80.33898305084746,40,79.32203389830508,40C78.30508474576271,40,77.28813559322033,40,76.27118644067797,40C75.2542372881356,40,74.23728813559322,40,73.22033898305085,40C72.20338983050848,40,71.1864406779661,40,70.16949152542374,40C69.15254237288136,40,68.13559322033899,40,67.11864406779661,40C66.10169491525424,40,65.08474576271186,40,64.0677966101695,40C63.05084745762712,40,62.03389830508474,40,61.01694915254237,40C59.99999999999999,40,58.983050847457626,40,57.96610169491525,40C56.94915254237288,40,55.93220338983051,40,54.91525423728814,40C53.898305084745765,40,52.88135593220339,40,51.86440677966102,40C50.847457627118644,40,49.83050847457627,40,48.813559322033896,40C47.79661016949152,40,46.77966101694915,40,45.762711864406775,40C44.7457627118644,40,43.728813559322035,40,42.71186440677966,40C41.69491525423729,40,40.67796610169491,40,39.66101694915254,40C38.644067796610166,40,37.6271186440678,40,36.610169491525426,40C35.59322033898305,40,34.57627118644068,40,33.559322033898304,40C32.54237288135593,40,31.525423728813557,40,30.508474576271183,40C29.491525423728813,40,28.47457627118644,40,27.45762711864407,40C26.440677966101696,40,25.423728813559322,40,24.406779661016948,40C23.389830508474574,40,22.372881355932204,40,21.35593220338983,40C20.338983050847457,40,19.322033898305087,40,18.305084745762713,40C17.28813559322034,40,16.271186440677965,40,15.254237288135592,40C14.23728813559322,40,13.220338983050846,40,12.203389830508474,40C11.186440677966102,40,10.169491525423728,40,9.152542372881356,40C8.135593220338983,40,7.11864406779661,40,6.101694915254237,40C5.084745762711864,40,4.067796610169491,40,3.0508474576271185,40C2.0338983050847457,40,1.0169491525423728,40,0,40Z"></path><path class="line" stroke="black" fill="none" d="M0,15.493333333333332C1.0169491525423728,14.45111111111111,2.0338983050847457,13.408888888888889,3.0508474576271185,12.266666666666666C4.067796610169491,11.124444444444443,5.084745762711864,9.697777777777777,6.101694915254237,8.639999999999999C7.11864406779661,7.582222222222221,8.135593220338983,6.586666666666668,9.152542372881356,5.920000000000001C10.169491525423728,5.253333333333335,11.186440677966102,4.64,12.203389830508474,4.64C13.220338983050846,4.64,14.23728813559322,5.226666666666668,15.254237288135592,5.226666666666668C16.271186440677965,5.226666666666668,17.28813559322034,5.04,18.305084745762713,5.04C19.322033898305087,5.04,20.338983050847457,5.057777777777777,21.35593220338983,5.093333333333332C22.372881355932204,5.128888888888887,23.389830508474574,5.502222222222224,24.406779661016948,5.706666666666669C25.423728813559322,5.911111111111114,26.440677966101696,6.182222222222224,27.45762711864407,6.320000000000001C28.47457627118644,6.457777777777778,29.491525423728813,6.448888888888889,30.508474576271183,6.533333333333333C31.525423728813557,6.6177777777777775,32.54237288135593,6.826666666666665,33.559322033898304,6.826666666666665C34.57627118644068,6.826666666666665,35.59322033898305,5.6711111111111085,36.610169491525426,5.653333333333332C37.6271186440678,5.635555555555556,38.644067796610166,5.626666666666669,39.66101694915254,5.626666666666669C40.67796610169491,5.626666666666669,41.69491525423729,6.191111111111111,42.71186440677966,6.373333333333333C43.728813559322035,6.5555555555555545,44.7457627118644,6.528888888888891,45.762711864406775,6.7200000000000015C46.77966101694915,6.911111111111112,47.79661016949152,7.195555555555553,48.813559322033896,7.519999999999998C49.83050847457627,7.844444444444442,50.847457627118644,8.257777777777779,51.86440677966102,8.666666666666668C52.88135593220339,9.075555555555557,53.898305084745765,9.542222222222222,54.91525423728814,9.973333333333333C55.93220338983051,10.404444444444444,56.94915254237288,10.826666666666666,57.96610169491525,11.253333333333334C58.983050847457626,11.680000000000001,59.99999999999999,12.200000000000003,61.01694915254237,12.533333333333335C62.03389830508474,12.866666666666669,63.05084745762712,12.848888888888888,64.0677966101695,13.253333333333334C65.08474576271186,13.657777777777778,66.10169491525424,14.395555555555557,67.11864406779661,14.96C68.13559322033899,15.524444444444446,69.15254237288136,16.08888888888889,70.16949152542374,16.64C71.1864406779661,17.19111111111111,72.20338983050848,17.875555555555554,73.22033898305085,18.266666666666666C74.23728813559322,18.657777777777778,75.2542372881356,18.715555555555557,76.27118644067797,18.986666666666668C77.28813559322033,19.25777777777778,78.30508474576271,19.488888888888887,79.32203389830508,19.89333333333333C80.33898305084746,20.297777777777775,81.35593220338983,20.848888888888887,82.37288135593221,21.413333333333334C83.38983050847457,21.977777777777778,84.40677966101696,22.73777777777778,85.42372881355932,23.28C86.4406779661017,23.822222222222226,87.45762711864407,24.253333333333334,88.47457627118645,24.666666666666668C89.49152542372882,25.08,90.50847457627118,25.39555555555556,91.52542372881355,25.76C92.54237288135593,26.12444444444445,93.55932203389831,26.555555555555554,94.57627118644069,26.85333333333333C95.59322033898306,27.151111111111106,96.61016949152543,27.25777777777778,97.62711864406779,27.546666666666667C98.64406779661016,27.835555555555555,99.66101694915254,28.26222222222222,100.6779661016949,28.586666666666666C101.69491525423729,28.91111111111111,102.71186440677965,29.186666666666667,103.72881355932203,29.493333333333336C104.7457627118644,29.8,105.76271186440678,30.106666666666662,106.77966101694915,30.426666666666662C107.79661016949153,30.746666666666663,108.8135593220339,31.142222222222223,109.83050847457628,31.413333333333334C110.84745762711864,31.684444444444445,111.86440677966102,31.964444444444446,112.88135593220339,32.053333333333335C113.89830508474576,32.14222222222222,114.91525423728814,32.10666666666667,115.9322033898305,32.18666666666667C116.94915254237289,32.266666666666666,117.96610169491525,32.40888888888889,118.98305084745763,32.53333333333333C120,32.657777777777774,121.01694915254237,32.844444444444456,122.03389830508473,32.93333333333334C123.05084745762711,33.02222222222222,124.0677966101695,32.99999999999999,125.08474576271188,33.06666666666666C126.10169491525424,33.133333333333326,127.11864406779662,33.29777777777778,128.135593220339,33.333333333333336C129.15254237288136,33.36888888888889,130.16949152542372,33.351111111111116,131.1864406779661,33.38666666666667C132.20338983050846,33.422222222222224,133.22033898305085,33.61777777777778,134.23728813559322,33.733333333333334C135.25423728813558,33.84888888888889,136.27118644067798,34,137.28813559322035,34.08C138.3050847457627,34.16,139.3220338983051,34.151111111111106,140.33898305084747,34.21333333333333C141.35593220338984,34.275555555555556,142.3728813559322,34.29333333333333,143.38983050847457,34.45333333333333C144.40677966101694,34.61333333333334,145.42372881355934,35.09333333333333,146.4406779661017,35.25333333333333C147.45762711864407,35.413333333333334,148.47457627118644,35.422222222222224,149.4915254237288,35.49333333333333C150.50847457627117,35.56444444444445,151.52542372881356,35.60444444444444,152.54237288135593,35.68C153.5593220338983,35.75555555555556,154.5762711864407,35.88444444444445,155.59322033898306,35.94666666666667C156.61016949152543,36.0088888888889,157.6271186440678,36.053333333333335,158.64406779661016,36.053333333333335C159.66101694915253,36.053333333333335,160.67796610169492,36.053333333333335,161.6949152542373,36.053333333333335C162.71186440677965,36.053333333333335,163.72881355932205,36.035555555555554,164.74576271186442,36C165.76271186440678,35.964444444444446,166.77966101694915,35.70666666666667,167.79661016949152,35.70666666666667C168.81355932203388,35.70666666666667,169.83050847457628,35.76,170.84745762711864,35.76C171.864406779661,35.76,172.8813559322034,35.653333333333336,173.89830508474577,35.653333333333336C174.91525423728814,35.653333333333336,175.93220338983053,35.68,176.9491525423729,35.68C177.96610169491527,35.68,178.98305084745763,35.61333333333333,180,35.54666666666667"></path><path class="axis-ceiling" stroke-width="1" stroke="black" fill="none" d="M175,0L180,0"></path><text class="axis-ceiling-label" font-family="sans-serif" text-anchor="end" font-size="10px" x="170" y="2.5">1500</text></g></svg>