<svg xmlns="http://www.w3.org/2000/svg" viewBox="0 0 180 60"><g transform="translate(0,20)"><path class="area" fill="rgba(0, 0, 0, 0.2)" d="M0,35.4C1.0169491525423728,35.42,2.0338983050847457,35.44,3.0508474576271185,35.52C4.067796610169491,35.60000000000001,5.084745762711864,35.919999999999995,6.101694915254237,36C7.11864406779661,36.080000000000005,8.135593220338983,36.080000000000005,9.152542372881356,36.120000000000005C10.169491525423728,36.160000000000004,11.186440677966102,36.160000000000004,12.203389830508474,36.24C13.220338983050846,36.32,14.23728813559322,36.64,15.254237288135592,36.64C16.271186440677965,36.64,17.28813559322034,36.52,18.305084745762713,36.52C19.322033898305087,36.52,20.338983050847457,36.52,21.35593220338983,36.52C22.372881355932204,36.52,23.389830508474574,36.84,24.406779661016948,36.84C25.423728813559322,36.84,26.440677966101696,36.84,27.45762711864407,36.84C28.47457627118644,36.84,29.491525423728813,36.68,30.508474576271183,36.68C31.525423728813557,36.68,32.54237288135593,36.72,33.559322033898304,36.72C34.57627118644068,36.72,35.59322033898305,36.53333333333333,36.610169491525426,36.44C37.6271186440678,36.346666666666664,38.644067796610166,36.160000000000004,39.66101694915254,36.160000000000004C40.67796610169491,36.160000000000004,41.69491525423729,36.24,42.71186440677966,36.24C43.728813559322035,36.24,44.7457627118644,36.00666666666667,45.762711864406775,35.92C46.77966101694915,35.833333333333336,47.79661016949152,35.72,48.813559322033896,35.72C49.83050847457627,35.72,50.847457627118644,35.72,51.86440677966102,35.72C52.88135593220339,35.72,53.898305084745765,35.68,54.91525423728814,35.68C55.93220338983051,35.68,56.94915254237288,35.85333333333334,57.96610169491525,35.88C58.983050847457626,35.906666666666666,59.99999999999999,35.92,61.01694915254237,35.92C62.03389830508474,35.92,63.05084745762712,35.68,64.0677966101695,35.68C65.08474576271186,35.68,66.10169491525424,35.68,67.11864406779661,35.68C68.13559322033899,35.68,69.15254237288136,35.52,70.16949152542374,35.52C71.1864406779661,35.52,72.20338983050848,35.52,73.22033898305085,35.52C74.23728813559322,35.52,75.2542372881356,35.50666666666667,76.27118644067797,35.480000000000004C77.28813559322033,35.45333333333334,78.30508474576271,35.12,79.32203389830508,35.12C80.33898305084746,35.12,81.35593220338983,35.16,82.37288135593221,35.16C83.38983050847457,35.16,84.40677966101696,35.16,85.42372881355932,35.16C86.4406779661017,35.16,87.45762711864407,35.06666666666667,88.47457627118645,35C89.49152542372882,34.93333333333334,90.50847457627118,34.839999999999996,91.52542372881355,34.76C92.54237288135593,34.68,93.55932203389831,34.58,94.57627118644069,34.519999999999996C95.59322033898306,34.459999999999994,96.61016949152543,34.44,97.62711864406779,34.4C98.64406779661016,34.36,99.66101694915254,34.36,100.6779661016949,34.28C101.69491525423729,34.2,102.71186440677965,33.94,103.72881355932203,33.839999999999996C104.7457627118644,33.739999999999995,105.76271186440678,33.75333333333333,106.77966101694915,33.68C107.79661016949153,33.60666666666667,108.8135593220339,33.473333333333336,109.83050847457628,33.4C110.84745762711864,33.32666666666667,111.86440677966102,33.29333333333333,112.88135593220339,33.239999999999995C113.89830508474576,33.18666666666666,114.91525423728814,33.12,115.9322033898305,33.08C116.94915254237289,33.04,117.96610169491525,33.053333333333335,118.98305084745763,33C120,32.946666666666665,121.01694915254237,32.8,122.03389830508473,32.68C123.05084745762711,32.56,124.0677966101695,32.43333333333334,125.08474576271188,32.28C126.10169491525424,32.126666666666665,127.11864406779662,31.900000000000002,128.135593220339,31.76C129.15254237288136,31.62,130.16949152542372,31.626666666666665,131.1864406779661,31.44C132.20338983050846,31.253333333333334,133.22033898305085,30.833333333333336,134.23728813559322,30.64C135.25423728813558,30.446666666666665,136.27118644067798,30.380000000000003,137.28813559322035,30.28C138.3050847457627,30.18,139.3220338983051,30.166666666666668,140.33898305084747,30.04C141.35593220338984,29.913333333333334,142.3728813559322,29.826666666666664,143.38983050847457,29.52C144.40677966101694,29.213333333333335,145.42372881355934,28.56666666666667,146.4406779661017,28.200000000000003C147.45762711864407,27.83333333333334,148.47457627118644,27.626666666666665,149.4915254237288,27.32C150.50847457627117,27.013333333333332,151.52542372881356,26.673333333333332,152.54237288135593,26.36C153.5593220338983,26.046666666666667,154.5762711864407,25.733333333333334,155.59322033898306,25.44C156.61016949152543,25.14666666666667,157.6271186440678,24.946666666666665,158.64406779661016,24.6C159.66101694915253,24.253333333333334,160.67796610169492,23.76666666666667,161.6949152542373,23.360000000000003C162.71186440677965,22.953333333333337,163.72881355932205,22.553333333333338,164.74576271186442,22.160000000000004C165.76271186440678,21.766666666666673,166.77966101694915,21.59333333333333,167.79661016949152,21C168.81355932203388,20.406666666666666,169.83050847457628,19.27333333333333,170.84745762711864,18.599999999999998C171.864406779661,17.926666666666666,172.8813559322034,17.666666666666668,173.89830508474577,16.96C174.91525423728814,16.253333333333334,175.93220338983053,15.326666666666672,176.9491525423729,14.36C177.96610169491527,13.393333333333336,178.98305084745763,12.276666666666667,180,11.16L180,40C178.98305084745763,40,177.96610169491527,40,176.9491525423729,40C175.93220338983053,40,174.91525423728814,40,173.89830508474577,40C172.8813559322034,40,171.864406779661,40,170.84745762711864,40C169.83050847457628,40,168.81355932203388,40,167.79661016949152,40C166.77966101694915,40,165.76271186440678,40,164.74576271186442,40C163.72881355932205,40,162.71186440677965,40,161.6949152542373,40C160.67796610169492,40,159.66101694915253,40,158.64406779661016,40C157.6271186440678,40,156.61016949152543,40,155.59322033898306,40C154.5762711864407,40,153.5593220338983,40,152.54237288135593,40C151.52542372881356,40,150.50847457627117,40,149.4915254237288,40C148.47457627118644,40,147.45762711864407,40,146.4406779661017,40C145.42372881355934,40,144.40677966101694,40,143.38983050847457,40C142.3728813559322,40,141.35593220338984,40,140.33898305084747,40C139.3220338983051,40,138.3050847457627,40,137.28813559322035,40C136.27118644067798,40,135.25423728813558,40,134.23728813559322,40C133.22033898305085,40,132.20338983050846,40,131.1864406779661,40C130.16949152542372,40,129.15254237288136,40,128.135593220339,40C127.11864406779662,40,126.10169491525424,40,125.08474576271188,40C124.0677966101695,40,123.05084745762711,40,122.03389830508473,40C121.01694915254237,40,120,40,118.98305084745763,40C117.96610169491525,40,116.94915254237289,40,115.9322033898305,40C114.91525423728814,40,113.89830508474576,40,112.88135593220339,40C111.86440677966102,40,110.84745762711864,40,109.83050847457628,40C108.8135593220339,40,107.79661016949153,40,106.77966101694915,40C105.76271186440678,40,104.7457627118644,40,103.72881355932203,40C102.71186440677965,40,101.69491525423729,40,100.6779661016949,40C99.66101694915254,40,98.64406779661016,40,97.62711864406779,40C96.61016949152543,40,95.59322033898306,40,94.57627118644069,40C93.55932203389831,40,92.54237288135593,40,91.52542372881355,40C90.50847457627118,40,89.49152542372882,40,88.47457627118645,40C87.45762711864407,40,86.4406779661017,40,85.42372881355932,40C84.40677966101696,40,83.38983050847457,40,82.37288135593221,40C81.35593220338983,40,80.33898305084746,40,79.32203389830508,40C78.30508474576271,40,77.28813559322033,40,76.27118644067797,40C75.2542372881356,40,74.23728813559322,40,73.22033898305085,40C72.20338983050848,40,71.1864406779661,40,70.16949152542374,40C69.15254237288136,40,68.13559322033899,40,67.11864406779661,40C66.10169491525424,40,65.08474576271186,40,64.0677966101695,40C63.05084745762712,40,62.03389830508474,40,61.01694915254237,40C59.99999999999999,40,58.983050847457626,40,57.96610169491525,40C56.94915254237288,40,55.93220338983051,40,54.91525423728814,40C53.898305084745765,40,52.88135593220339,40,51.86440677966102,40C50.847457627118644,40,49.83050847457627,40,48.813559322033896,40C47.79661016949152,40,46.77966101694915,40,45.762711864406775,40C44.7457627118644,40,43.728813559322035,40,42.71186440677966,40C41.69491525423729,40,40.67796610169491,40,39.66101694915254,40C38.644067796610166,40,37.6271186440678,40,36.610169491525426,40C35.59322033898305,40,34.57627118644068,40,33.559322033898304,40C32.54237288135593,40,31.525423728813557,40,30.508474576271183,40C29.491525423728813,40,28.47457627118644,40,27.45762711864407,40C26.440677966101696,40,25.423728813559322,40,24.406779661016948,40C23.389830508474574,40,22.372881355932204,40,21.35593220338983,40C20.338983050847457,40,19.322033898305087,40,18.305084745762713,40C17.28813559322034,40,16.271186440677965,40,15.254237288135592,40C14.23728813559322,40,13.220338983050846,40,12.203389830508474,40C11.186440677966102,40,10.169491525423728,40,9.152542372881356,40C8.135593220338983,40,7.11864406779661,40,6.101694915254237,40C5.084745762711864,40,4.067796610169491,40,3.0508474576271185,40C2.0338983050847457,40,1.0169491525423728,40,0,40Z"></path><path class="line" stroke="black" fill="none" d="M0,35.4C1.0169491525423728,35.42,2.0338983050847457,35.44,3.0508474576271185,35.52C4.067796610169491,35.60000000000001,5.084745762711864,35.919999999999995,6.101694915254237,36C7.11864406779661,36.080000000000005,8.135593220338983,36.080000000000005,9.152542372881356,36.120000000000005C10.169491525423728,36.160000000000004,11.186440677966102,36.160000000000004,12.203389830508474,36.24C13.220338983050846,36.32,14.23728813559322,36.64,15.254237288135592,36.64C16.271186440677965,36.64,17.28813559322034,36.52,18.305084745762713,36.52C19.322033898305087,36.52,20.338983050847457,36.52,21.35593220338983,36.52C22.372881355932204,36.52,23.389830508474574,36.84,24.406779661016948,36.84C25.423728813559322,36.84,26.440677966101696,36.84,27.45762711864407,36.84C28.47457627118644,36.84,29.491525423728813,36.68,30.508474576271183,36.68C31.525423728813557,36.68,32.54237288135593,36.72,33.559322033898304,36.72C34.57627118644068,36.72,35.59322033898305,36.53333333333333,36.610169491525426,36.44C37.6271186440678,36.346666666666664,38.644067796610166,36.160000000000004,39.66101694915254,36.160000000000004C40.67796610169491,36.160000000000004,41.69491525423729,36.24,42.71186440677966,36.24C43.728813559322035,36.24,44.7457627118644,36.00666666666667,45.762711864406775,35.92C46.77966101694915,35.833333333333336,47.79661016949152,35.72,48.813559322033896,35.72C49.83050847457627,35.72,50.847457627118644,35.72,51.86440677966102,35.72C52.88135593220339,35.72,53.898305084745765,35.68,54.91525423728814,35.68C55.93220338983051,35.68,56.94915254237288,35.85333333333334,57.96610169491525,35.88C58.983050847457626,35.906666666666666,59.99999999999999,35.92,61.01694915254237,35.92C62.03389830508474,35.92,63.05084745762712,35.68,64.0677966101695,35.68C65.08474576271186,35.68,66.10169491525424,35.68,67.11864406779661,35.68C68.13559322033899,35.68,69.15254237288136,35.52,70.16949152542374,35.52C71.1864406779661,35.52,72.20338983050848,35.52,73.22033898305085,35.52C74.23728813559322,35.52,75.2542372881356,35.50666666666667,76.27118644067797,35.480000000000004C77.28813559322033,35.45333333333334,78.30508474576271,35.12,79.32203389830508,35.12C80.33898305084746,35.12,81.35593220338983,35.16,82.37288135593221,35.16C83.38983050847457,35.16,84.40677966101696,35.16,85.42372881355932,35.16C86.4406779661017,35.16,87.45762711864407,35.06666666666667,88.47457627118645,35C89.49152542372882,34.93333333333334,90.50847457627118,34.839999999999996,91.52542372881355,34.76C92.54237288135593,34.68,93.55932203389831,34.58,94.57627118644069,34.519999999999996C95.59322033898306,34.459999999999994,96.61016949152543,34.44,97.62711864406779,34.4C98.64406779661016,34.36,99.66101694915254,34.36,100.6779661016949,34.28C101.69491525423729,34.2,102.71186440677965,33.94,103.72881355932203,33.839999999999996C104.7457627118644,33.739999999999995,105.76271186440678,33.75333333333333,106.77966101694915,33.68C107.79661016949153,33.60666666666667,108.8135593220339,33.473333333333336,109.83050847457628,33.4C110.84745762711864,33.32666666666667,111.86440677966102,33.29333333333333,112.88135593220339,33.239999999999995C113.89830508474576,33.18666666666666,114.91525423728814,33.12,115.9322033898305,33.08C116.94915254237289,33.04,117.96610169491525,33.053333333333335,118.98305084745763,33C120,32.946666666666665,121.01694915254237,32.8,122.03389830508473,32.68C123.05084745762711,32.56,124.0677966101695,32.43333333333334,125.08474576271188,32.28C126.10169491525424,32.126666666666665,127.11864406779662,31.900000000000002,128.135593220339,31.76C129.15254237288136,31.62,130.16949152542372,31.626666666666665,131.1864406779661,31.44C132.20338983050846,31.253333333333334,133.22033898305085,30.833333333333336,134.23728813559322,30.64C135.25423728813558,30.446666666666665,136.27118644067798,30.380000000000003,137.28813559322035,30.28C138.3050847457627,30.18,139.3220338983051,30.166666666666668,140.33898305084747,30.04C141.35593220338984,29.913333333333334,142.3728813559322,29.826666666666664,143.38983050847457,29.52C144.40677966101694,29.213333333333335,145.42372881355934,28.56666666666667,146.4406779661017,28.200000000000003C147.45762711864407,27.83333333333334,148.47457627118644,27.626666666666665,149.4915254237288,27.32C150.50847457627117,27.013333333333332,151.52542372881356,26.673333333333332,152.54237288135593,26.36C153.5593220338983,26.046666666666667,154.5762711864407,25.733333333333334,155.59322033898306,25.44C156.61016949152543,25.14666666666667,157.6271186440678,24.946666666666665,158.64406779661016,24.6C159.66101694915253,24.253333333333334,160.67796610169492,23.76666666666667,161.6949152542373,23.360000000000003C162.71186440677965,22.953333333333337,163.72881355932205,22.553333333333338,164.74576271186442,22.160000000000004C165.76271186440678,21.766666666666673,166.77966101694915,21.59333333333333,167.79661016949152,21C168.81355932203388,20.406666666666666,169.83050847457628,19.27333333333333,170.84745762711864,18.599999999999998C171.864406779661,17.926666666666666,172.8813559322034,17.666666666666668,173.89830508474577,16.96C174.91525423728814,16.253333333333334,175.93220338983053,15.326666666666672,176.9491525423729,14.36C177.96610169491527,13.393333333333336,178.98305084745763,12.276666666666667,180,11.16"></path><path class="axis-ceiling" stroke-width="1" stroke="black" fill="none" d="M175,0L180,0"></path><text class="axis-ceiling-label" font-family="sans-serif" text-anchor="end" font-size="10px" x="170" y="2.5">1000</text></g></svg>