<svg xmlns="http://www.w3.org/2000/svg" viewBox="0 0 180 60"><g transform="translate(0,20)"><path class="area" fill="rgba(0, 0, 0, 0.2)" d="M0,22.96C1.0169491525423728,23.06,2.0338983050847457,23.159999999999997,3.0508474576271185,23.159999999999997C4.067796610169491,23.159999999999997,5.084745762711864,21.28,6.101694915254237,21.28C7.11864406779661,21.28,8.135593220338983,22.53333333333333,9.152542372881356,23.919999999999998C10.169491525423728,25.306666666666665,11.186440677966102,29.6,12.203389830508474,29.6C13.220338983050846,29.6,14.23728813559322,24.813333333333333,15.254237288135592,23C16.271186440677965,21.186666666666664,17.28813559322034,19.68,18.305084745762713,18.72C19.322033898305087,17.76,20.338983050847457,17.240000000000002,21.35593220338983,17.240000000000002C22.372881355932204,17.240000000000002,23.389830508474574,17.39333333333333,24.406779661016948,17.599999999999998C25.423728813559322,17.806666666666665,26.440677966101696,18.199999999999996,27.45762711864407,18.479999999999997C28.47457627118644,18.759999999999998,29.491525423728813,18.746666666666666,30.508474576271183,19.28C31.525423728813557,19.81333333333334,32.54237288135593,26.6,33.559322033898304,26.6C34.57627118644068,26.6,35.59322033898305,24.746666666666673,36.610169491525426,23.200000000000003C37.6271186440678,21.653333333333336,38.644067796610166,17.32,39.66101694915254,17.32C40.67796610169491,17.32,41.69491525423729,17.586666666666666,42.71186440677966,18.119999999999997C43.728813559322035,18.65333333333333,44.7457627118644,20.053333333333338,45.762711864406775,21.200000000000003C46.77966101694915,22.34666666666667,47.79661016949152,25,48.813559322033896,25C49.83050847457627,25,50.847457627118644,22.96,51.86440677966102,22.96C52.88135593220339,22.96,53.898305084745765,27.800000000000004,54.91525423728814,27.800000000000004C55.93220338983051,27.800000000000004,56.94915254237288,24.60666666666667,57.96610169491525,23.360000000000003C58.983050847457626,22.113333333333337,59.99999999999999,20.32,61.01694915254237,20.32C62.03389830508474,20.32,63.05084745762712,20.32,64.0677966101695,20.32C65.08474576271186,20.32,66.10169491525424,21.24,67.11864406779661,21.879999999999995C68.13559322033899,22.519999999999996,69.15254237288136,24.16,70.16949152542374,24.16C71.1864406779661,24.16,72.20338983050848,23.24,73.22033898305085,23.24C74.23728813559322,23.24,75.2542372881356,31.840000000000003,76.27118644067797,31.840000000000003C77.28813559322033,31.840000000000003,78.30508474576271,29.099999999999994,79.32203389830508,27.759999999999998C80.33898305084746,26.419999999999995,81.35593220338983,23.799999999999997,82.37288135593221,23.799999999999997C83.38983050847457,23.799999999999997,84.40677966101696,24.133333333333333,85.42372881355932,24.8C86.4406779661017,25.466666666666672,87.45762711864407,28.680000000000003,88.47457627118645,28.680000000000003C89.49152542372882,28.680000000000003,90.50847457627118,24.32,91.52542372881355,24.32C92.54237288135593,24.32,93.55932203389831,24.426666666666666,94.57627118644069,24.64C95.59322033898306,24.85333333333333,96.61016949152543,30.4,97.62711864406779,30.4C98.64406779661016,30.4,99.66101694915254,28.95333333333333,100.6779661016949,28.08C101.69491525423729,27.206666666666663,102.71186440677965,25.213333333333335,103.72881355932203,25.16C104.7457627118644,25.106666666666666,105.76271186440678,25.099999999999998,106.77966101694915,25.08C107.79661016949153,25.06,108.8135593220339,25.04,109.83050847457628,25.04C110.84745762711864,25.04,111.86440677966102,25.12,112.88135593220339,25.12C113.89830508474576,25.12,114.91525423728814,24.759999999999998,115.9322033898305,24.759999999999998C116.94915254237289,24.759999999999998,117.96610169491525,32.64,118.98305084745763,32.64C120,32.64,121.01694915254237,29.92666666666666,122.03389830508473,28.440000000000005C123.05084745762711,26.95333333333333,124.0677966101695,23.72,125.08474576271188,23.72C126.10169491525424,23.72,127.11864406779662,24.85333333333333,128.135593220339,25.44C129.15254237288136,26.026666666666667,130.16949152542372,26.720000000000002,131.1864406779661,27.240000000000002C132.20338983050846,27.760000000000005,133.22033898305085,28.56,134.23728813559322,28.56C135.25423728813558,28.56,136.27118644067798,27.400000000000002,137.28813559322035,27.400000000000002C138.3050847457627,27.400000000000002,139.3220338983051,33.16,140.33898305084747,33.16C141.35593220338984,33.16,142.3728813559322,30.019999999999996,143.38983050847457,28.680000000000003C144.40677966101694,27.339999999999996,145.42372881355934,25.12,146.4406779661017,25.12C147.45762711864407,25.12,148.47457627118644,26.46,149.4915254237288,27C150.50847457627117,27.540000000000003,151.52542372881356,27.70666666666667,152.54237288135593,28.360000000000003C153.5593220338983,29.013333333333335,154.5762711864407,30.166666666666664,155.59322033898306,30.92C156.61016949152543,31.673333333333332,157.6271186440678,31.993333333333343,158.64406779661016,32.88C159.66101694915253,33.76666666666667,160.67796610169492,36.02666666666667,161.6949152542373,36.24C162.71186440677965,36.45333333333333,163.72881355932205,36.56,164.74576271186442,36.56C165.76271186440678,36.56,166.77966101694915,32.526666666666664,167.79661016949152,31.16C168.81355932203388,29.793333333333322,169.83050847457628,28.360000000000003,170.84745762711864,28.360000000000003C171.864406779661,28.360000000000003,172.8813559322034,29.76666666666667,173.89830508474577,30.240000000000002C174.91525423728814,30.713333333333335,175.93220338983053,31.200000000000003,176.9491525423729,31.200000000000003C177.96610169491527,31.200000000000003,178.98305084745763,29.28,180,27.36L180,40C178.98305084745763,40,177.96610169491527,40,176.9491525423729,40C175.93220338983053,40,174.91525423728814,40,173.89830508474577,40C172.8813559322034,40,171.864406779661,40,170.84745762711864,40C169.83050847457628,40,168.81355932203388,40,167.79661016949152,40C166.77966101694915,40,165.76271186440678,40,164.74576271186442,40C163.72881355932205,40,162.71186440677965,40,161.6949152542373,40C160.67796610169492,40,159.66101694915253,40,158.64406779661016,40C157.6271186440678,40,156.61016949152543,40,155.59322033898306,40C154.5762711864407,40,153.5593220338983,40,152.54237288135593,40C151.52542372881356,40,150.50847457627117,40,149.4915254237288,40C148.47457627118644,40,147.45762711864407,40,146.4406779661017,40C145.42372881355934,40,144.40677966101694,40,143.38983050847457,40C142.3728813559322,40,141.35593220338984,40,140.33898305084747,40C139.3220338983051,40,138.3050847457627,40,137.28813559322035,40C136.27118644067798,40,135.25423728813558,40,134.23728813559322,40C133.22033898305085,40,132.20338983050846,40,131.1864406779661,40C130.16949152542372,40,129.15254237288136,40,128.135593220339,40C127.11864406779662,40,126.10169491525424,40,125.08474576271188,40C124.0677966101695,40,123.05084745762711,40,122.03389830508473,40C121.01694915254237,40,120,40,118.98305084745763,40C117.96610169491525,40,116.94915254237289,40,115.9322033898305,40C114.91525423728814,40,113.89830508474576,40,112.88135593220339,40C111.86440677966102,40,110.84745762711864,40,109.83050847457628,40C108.8135593220339,40,107.79661016949153,40,106.77966101694915,40C105.76271186440678,40,104.7457627118644,40,103.72881355932203,40C102.71186440677965,40,101.69491525423729,40,100.6779661016949,40C99.66101694915254,40,98.64406779661016,40,97.62711864406779,40C96.61016949152543,40,95.59322033898306,40,94.57627118644069,40C93.55932203389831,40,92.54237288135593,40,91.52542372881355,40C90.50847457627118,40,89.49152542372882,40,88.47457627118645,40C87.45762711864407,40,86.4406779661017,40,85.42372881355932,40C84.40677966101696,40,83.38983050847457,40,82.37288135593221,40C81.35593220338983,40,80.33898305084746,40,79.32203389830508,40C78.30508474576271,40,77.28813559322033,40,76.27118644067797,40C75.2542372881356,40,74.23728813559322,40,73.22033898305085,40C72.20338983050848,40,71.1864406779661,40,70.16949152542374,40C69.15254237288136,40,68.13559322033899,40,67.11864406779661,40C66.10169491525424,40,65.08474576271186,40,64.0677966101695,40C63.05084745762712,40,62.03389830508474,40,61.01694915254237,40C59.99999999999999,40,58.983050847457626,40,57.96610169491525,40C56.94915254237288,40,55.93220338983051,40,54.91525423728814,40C53.898305084745765,40,52.88135593220339,40,51.86440677966102,40C50.847457627118644,40,49.83050847457627,40,48.813559322033896,40C47.79661016949152,40,46.77966101694915,40,45.762711864406775,40C44.7457627118644,40,43.728813559322035,40,42.71186440677966,40C41.69491525423729,40,40.67796610169491,40,39.66101694915254,40C38.644067796610166,40,37.6271186440678,40,36.610169491525426,40C35.59322033898305,40,34.57627118644068,40,33.559322033898304,40C32.54237288135593,40,31.525423728813557,40,30.508474576271183,40C29.491525423728813,40,28.47457627118644,40,27.45762711864407,40C26.440677966101696,40,25.423728813559322,40,24.406779661016948,40C23.389830508474574,40,22.372881355932204,40,21.35593220338983,40C20.338983050847457,40,19.322033898305087,40,18.305084745762713,40C17.28813559322034,40,16.271186440677965,40,15.254237288135592,40C14.23728813559322,40,13.220338983050846,40,12.203389830508474,40C11.186440677966102,40,10.169491525423728,40,9.152542372881356,40C8.135593220338983,40,7.11864406779661,40,6.101694915254237,40C5.084745762711864,40,4.067796610169491,40,3.0508474576271185,40C2.0338983050847457,40,1.0169491525423728,40,0,40Z"></path><path class="line" stroke="black" fill="none" d="M0,22.96C1.0169491525423728,23.06,2.0338983050847457,23.159999999999997,3.0508474576271185,23.159999999999997C4.067796610169491,23.159999999999997,5.084745762711864,21.28,6.101694915254237,21.28C7.11864406779661,21.28,8.135593220338983,22.53333333333333,9.152542372881356,23.919999999999998C10.169491525423728,25.306666666666665,11.186440677966102,29.6,12.203389830508474,29.6C13.220338983050846,29.6,14.23728813559322,24.813333333333333,15.254237288135592,23C16.271186440677965,21.186666666666664,17.28813559322034,19.68,18.305084745762713,18.72C19.322033898305087,17.76,20.338983050847457,17.240000000000002,21.35593220338983,17.240000000000002C22.372881355932204,17.240000000000002,23.389830508474574,17.39333333333333,24.406779661016948,17.599999999999998C25.423728813559322,17.806666666666665,26.440677966101696,18.199999999999996,27.45762711864407,18.479999999999997C28.47457627118644,18.759999999999998,29.491525423728813,18.746666666666666,30.508474576271183,19.28C31.525423728813557,19.81333333333334,32.54237288135593,26.6,33.559322033898304,26.6C34.57627118644068,26.6,35.59322033898305,24.746666666666673,36.610169491525426,23.200000000000003C37.6271186440678,21.653333333333336,38.644067796610166,17.32,39.66101694915254,17.32C40.67796610169491,17.32,41.69491525423729,17.586666666666666,42.71186440677966,18.119999999999997C43.728813559322035,18.65333333333333,44.7457627118644,20.053333333333338,45.762711864406775,21.200000000000003C46.77966101694915,22.34666666666667,47.79661016949152,25,48.813559322033896,25C49.83050847457627,25,50.847457627118644,22.96,51.86440677966102,22.96C52.88135593220339,22.96,53.898305084745765,27.800000000000004,54.91525423728814,27.800000000000004C55.93220338983051,27.800000000000004,56.94915254237288,24.60666666666667,57.96610169491525,23.360000000000003C58.983050847457626,22.113333333333337,59.99999999999999,20.32,61.01694915254237,20.32C62.03389830508474,20.32,63.05084745762712,20.32,64.0677966101695,20.32C65.08474576271186,20.32,66.10169491525424,21.24,67.11864406779661,21.879999999999995C68.13559322033899,22.519999999999996,69.15254237288136,24.16,70.16949152542374,24.16C71.1864406779661,24.16,72.20338983050848,23.24,73.22033898305085,23.24C74.23728813559322,23.24,75.2542372881356,31.840000000000003,76.27118644067797,31.840000000000003C77.28813559322033,31.840000000000003,78.30508474576271,29.099999999999994,79.32203389830508,27.759999999999998C80.33898305084746,26.419999999999995,81.35593220338983,23.799999999999997,82.37288135593221,23.799999999999997C83.38983050847457,23.799999999999997,84.40677966101696,24.133333333333333,85.42372881355932,24.8C86.4406779661017,25.466666666666672,87.45762711864407,28.680000000000003,88.47457627118645,28.680000000000003C89.49152542372882,28.680000000000003,90.50847457627118,24.32,91.52542372881355,24.32C92.54237288135593,24.32,93.55932203389831,24.426666666666666,94.57627118644069,24.64C95.59322033898306,24.85333333333333,96.61016949152543,30.4,97.62711864406779,30.4C98.64406779661016,30.4,99.66101694915254,28.95333333333333,100.6779661016949,28.08C101.69491525423729,27.206666666666663,102.71186440677965,25.213333333333335,103.72881355932203,25.16C104.7457627118644,25.106666666666666,105.76271186440678,25.099999999999998,106.77966101694915,25.08C107.79661016949153,25.06,108.8135593220339,25.04,109.83050847457628,25.04C110.84745762711864,25.04,111.86440677966102,25.12,112.88135593220339,25.12C113.89830508474576,25.12,114.91525423728814,24.759999999999998,115.9322033898305,24.759999999999998C116.94915254237289,24.759999999999998,117.96610169491525,32.64,118.98305084745763,32.64C120,32.64,121.01694915254237,29.92666666666666,122.03389830508473,28.440000000000005C123.05084745762711,26.95333333333333,124.0677966101695,23.72,125.08474576271188,23.72C126.10169491525424,23.72,127.11864406779662,24.85333333333333,128.135593220339,25.44C129.15254237288136,26.026666666666667,130.16949152542372,26.720000000000002,131.1864406779661,27.240000000000002C132.20338983050846,27.760000000000005,133.22033898305085,28.56,134.23728813559322,28.56C135.25423728813558,28.56,136.27118644067798,27.400000000000002,137.28813559322035,27.400000000000002C138.3050847457627,27.400000000000002,139.3220338983051,33.16,140.33898305084747,33.16C141.35593220338984,33.16,142.3728813559322,30.019999999999996,143.38983050847457,28.680000000000003C144.40677966101694,27.339999999999996,145.42372881355934,25.12,146.4406779661017,25.12C147.45762711864407,25.12,148.47457627118644,26.46,149.4915254237288,27C150.50847457627117,27.540000000000003,151.52542372881356,27.70666666666667,152.54237288135593,28.360000000000003C153.5593220338983,29.013333333333335,154.5762711864407,30.166666666666664,155.59322033898306,30.92C156.61016949152543,31.673333333333332,157.6271186440678,31.993333333333343,158.64406779661016,32.88C159.66101694915253,33.76666666666667,160.67796610169492,36.02666666666667,161.6949152542373,36.24C162.71186440677965,36.45333333333333,163.72881355932205,36.56,164.74576271186442,36.56C165.76271186440678,36.56,166.77966101694915,32.526666666666664,167.79661016949152,31.16C168.81355932203388,29.793333333333322,169.83050847457628,28.360000000000003,170.84745762711864,28.360000000000003C171.864406779661,28.360000000000003,172.8813559322034,29.76666666666667,173.89830508474577,30.240000000000002C174.91525423728814,30.713333333333335,175.93220338983053,31.200000000000003,176.9491525423729,31.200000000000003C177.96610169491527,31.200000000000003,178.98305084745763,29.28,180,27.36"></path><path class="axis-ceiling" stroke-width="1" stroke="black" fill="none" d="M175,0L180,0"></path><text class="axis-ceiling-label" font-family="sans-serif" text-anchor="end" font-size="10px" x="170" y="2.5">1000</text></g></svg>