<svg xmlns="http://www.w3.org/2000/svg" viewBox="0 0 180 60"><g transform="translate(0,20)"><path class="area" fill="rgba(0, 0, 0, 0.2)" d="M0,4.3999999999999995C1.0169491525423728,4.226666666666666,2.0338983050847457,4.053333333333332,3.0508474576271185,3.679999999999999C4.067796610169491,3.3066666666666658,5.084745762711864,2.320000000000002,6.101694915254237,2.160000000000002C7.11864406779661,2.0000000000000018,8.135593220338983,1.9200000000000017,9.152542372881356,1.9200000000000017C10.169491525423728,1.9200000000000017,11.186440677966102,2.080000000000002,12.203389830508474,2.080000000000002C13.220338983050846,2.080000000000002,14.23728813559322,1.4933333333333345,15.254237288135592,1.2800000000000011C16.271186440677965,1.0666666666666673,17.28813559322034,0.8000000000000007,18.305084745762713,0.8000000000000007C19.322033898305087,0.8000000000000007,20.338983050847457,0.9466666666666675,21.35593220338983,1.040000000000001C22.372881355932204,1.1333333333333344,23.389830508474574,1.1733333333333344,24.406779661016948,1.3600000000000012C25.423728813559322,1.5466666666666682,26.440677966101696,2.160000000000002,27.45762711864407,2.160000000000002C28.47457627118644,2.160000000000002,29.491525423728813,1.9200000000000017,30.508474576271183,1.9200000000000017C31.525423728813557,1.9200000000000017,32.54237288135593,1.9733333333333352,33.559322033898304,2.080000000000002C34.57627118644068,2.1866666666666688,35.59322033898305,2.8666666666666654,36.610169491525426,3.1999999999999984C37.6271186440678,3.5333333333333306,38.644067796610166,3.693333333333333,39.66101694915254,4.079999999999999C40.67796610169491,4.466666666666667,41.69491525423729,4.853333333333333,42.71186440677966,5.5200000000000005C43.728813559322035,6.1866666666666665,44.7457627118644,7.3199999999999985,45.762711864406775,8.079999999999998C46.77966101694915,8.84,47.79661016949152,9.586666666666666,48.813559322033896,10.08C49.83050847457627,10.573333333333334,50.847457627118644,10.68,51.86440677966102,11.040000000000001C52.88135593220339,11.400000000000002,53.898305084745765,11.48,54.91525423728814,12.240000000000002C55.93220338983051,13.000000000000002,56.94915254237288,14.426666666666668,57.96610169491525,15.600000000000001C58.983050847457626,16.773333333333333,59.99999999999999,18.400000000000002,61.01694915254237,19.28C62.03389830508474,20.160000000000004,63.05084745762712,20.880000000000003,64.0677966101695,20.880000000000003C65.08474576271186,20.880000000000003,66.10169491525424,20.666666666666668,67.11864406779661,20.240000000000002C68.13559322033899,19.813333333333333,69.15254237288136,18.29333333333333,70.16949152542374,17.919999999999998C71.1864406779661,17.546666666666667,72.20338983050848,17.613333333333337,73.22033898305085,17.360000000000003C74.23728813559322,17.10666666666667,75.2542372881356,16.680000000000003,76.27118644067797,16.400000000000002C77.28813559322033,16.12,78.30508474576271,16.16,79.32203389830508,15.68C80.33898305084746,15.199999999999996,81.35593220338983,14.039999999999997,82.37288135593221,13.439999999999998C83.38983050847457,12.84,84.40677966101696,12.186666666666667,85.42372881355932,12.080000000000002C86.4406779661017,11.973333333333334,87.45762711864407,11.920000000000002,88.47457627118645,11.920000000000002C89.49152542372882,11.920000000000002,90.50847457627118,13.506666666666668,91.52542372881355,14.079999999999998C92.54237288135593,14.653333333333338,93.55932203389831,14.93333333333333,94.57627118644069,15.36C95.59322033898306,15.786666666666664,96.61016949152543,16.22666666666667,97.62711864406779,16.64C98.64406779661016,17.053333333333335,99.66101694915254,17.49333333333333,100.6779661016949,17.839999999999996C101.69491525423729,18.186666666666664,102.71186440677965,18.346666666666664,103.72881355932203,18.72C104.7457627118644,19.093333333333334,105.76271186440678,19.746666666666666,106.77966101694915,20.08C107.79661016949153,20.413333333333334,108.8135593220339,20.56,109.83050847457628,20.72C110.84745762711864,20.88,111.86440677966102,21.04,112.88135593220339,21.04C113.89830508474576,21.04,114.91525423728814,21.04,115.9322033898305,21.04C116.94915254237289,21.04,117.96610169491525,21.12,118.98305084745763,21.12C120,21.12,121.01694915254237,20.64,122.03389830508473,20.64C123.05084745762711,20.64,124.0677966101695,20.666666666666668,125.08474576271188,20.72C126.10169491525424,20.77333333333333,127.11864406779662,20.8,128.135593220339,20.96C129.15254237288136,21.12,130.16949152542372,21.54666666666667,131.1864406779661,21.92C132.20338983050846,22.293333333333337,133.22033898305085,22.880000000000003,134.23728813559322,23.200000000000003C135.25423728813558,23.520000000000003,136.27118644067798,23.573333333333334,137.28813559322035,23.84C138.3050847457627,24.106666666666666,139.3220338983051,24.41333333333333,140.33898305084747,24.8C141.35593220338984,25.186666666666667,142.3728813559322,25.653333333333336,143.38983050847457,26.16C144.40677966101694,26.666666666666668,145.42372881355934,27.359999999999996,146.4406779661017,27.839999999999996C147.45762711864407,28.319999999999993,148.47457627118644,28.746666666666666,149.4915254237288,29.04C150.50847457627117,29.333333333333336,151.52542372881356,29.413333333333334,152.54237288135593,29.6C153.5593220338983,29.78666666666667,154.5762711864407,30.05333333333333,155.59322033898306,30.16C156.61016949152543,30.266666666666666,157.6271186440678,30.240000000000002,158.64406779661016,30.32C159.66101694915253,30.400000000000002,160.67796610169492,30.52,161.6949152542373,30.64C162.71186440677965,30.76,163.72881355932205,30.919999999999998,164.74576271186442,31.04C165.76271186440678,31.159999999999997,166.77966101694915,31.36,167.79661016949152,31.36C168.81355932203388,31.36,169.83050847457628,30.96,170.84745762711864,30.96C171.864406779661,30.96,172.8813559322034,31.04,173.89830508474577,31.04C174.91525423728814,31.04,175.93220338983053,30.64,176.9491525423729,30.64C177.96610169491527,30.64,178.98305084745763,30.64,180,30.64L180,40C178.98305084745763,40,177.96610169491527,40,176.9491525423729,40C175.93220338983053,40,174.91525423728814,40,173.89830508474577,40C172.8813559322034,40,171.864406779661,40,170.84745762711864,40C169.83050847457628,40,168.81355932203388,40,167.79661016949152,40C166.77966101694915,40,165.76271186440678,40,164.74576271186442,40C163.72881355932205,40,162.71186440677965,40,161.6949152542373,40C160.67796610169492,40,159.66101694915253,40,158.64406779661016,40C157.6271186440678,40,156.61016949152543,40,155.59322033898306,40C154.5762711864407,40,153.5593220338983,40,152.54237288135593,40C151.52542372881356,40,150.50847457627117,40,149.4915254237288,40C148.47457627118644,40,147.45762711864407,40,146.4406779661017,40C145.42372881355934,40,144.40677966101694,40,143.38983050847457,40C142.3728813559322,40,141.35593220338984,40,140.33898305084747,40C139.3220338983051,40,138.3050847457627,40,137.28813559322035,40C136.27118644067798,40,135.25423728813558,40,134.23728813559322,40C133.22033898305085,40,132.20338983050846,40,131.1864406779661,40C130.16949152542372,40,129.15254237288136,40,128.135593220339,40C127.11864406779662,40,126.10169491525424,40,125.08474576271188,40C124.0677966101695,40,123.05084745762711,40,122.03389830508473,40C121.01694915254237,40,120,40,118.98305084745763,40C117.96610169491525,40,116.94915254237289,40,115.9322033898305,40C114.91525423728814,40,113.89830508474576,40,112.88135593220339,40C111.86440677966102,40,110.84745762711864,40,109.83050847457628,40C108.8135593220339,40,107.79661016949153,40,106.77966101694915,40C105.76271186440678,40,104.7457627118644,40,103.72881355932203,40C102.71186440677965,40,101.69491525423729,40,100.6779661016949,40C99.66101694915254,40,98.64406779661016,40,97.62711864406779,40C96.61016949152543,40,95.59322033898306,40,94.57627118644069,40C93.55932203389831,40,92.54237288135593,40,91.52542372881355,40C90.50847457627118,40,89.49152542372882,40,88.47457627118645,40C87.45762711864407,40,86.4406779661017,40,85.42372881355932,40C84.40677966101696,40,83.38983050847457,40,82.37288135593221,40C81.35593220338983,40,80.33898305084746,40,79.32203389830508,40C78.30508474576271,40,77.28813559322033,40,76.27118644067797,40C75.2542372881356,40,74.23728813559322,40,73.22033898305085,40C72.20338983050848,40,71.1864406779661,40,70.16949152542374,40C69.15254237288136,40,68.13559322033899,40,67.11864406779661,40C66.10169491525424,40,65.08474576271186,40,64.0677966101695,40C63.05084745762712,40,62.03389830508474,40,61.01694915254237,40C59.99999999999999,40,58.983050847457626,40,57.96610169491525,40C56.94915254237288,40,55.93220338983051,40,54.91525423728814,40C53.898305084745765,40,52.88135593220339,40,51.86440677966102,40C50.847457627118644,40,49.83050847457627,40,48.813559322033896,40C47.79661016949152,40,46.77966101694915,40,45.762711864406775,40C44.7457627118644,40,43.728813559322035,40,42.71186440677966,40C41.69491525423729,40,40.67796610169491,40,39.66101694915254,40C38.644067796610166,40,37.6271186440678,40,36.610169491525426,40C35.59322033898305,40,34.57627118644068,40,33.559322033898304,40C32.54237288135593,40,31.525423728813557,40,30.508474576271183,40C29.491525423728813,40,28.47457627118644,40,27.45762711864407,40C26.440677966101696,40,25.423728813559322,40,24.406779661016948,40C23.389830508474574,40,22.372881355932204,40,21.35593220338983,40C20.338983050847457,40,19.322033898305087,40,18.305084745762713,40C17.28813559322034,40,16.271186440677965,40,15.254237288135592,40C14.23728813559322,40,13.220338983050846,40,12.203389830508474,40C11.186440677966102,40,10.169491525423728,40,9.152542372881356,40C8.135593220338983,40,7.11864406779661,40,6.101694915254237,40C5.084745762711864,40,4.067796610169491,40,3.0508474576271185,40C2.0338983050847457,40,1.0169491525423728,40,0,40Z"></path><path class="line" stroke="black" fill="none" d="M0,4.3999999999999995C1.0169491525423728,4.226666666666666,2.0338983050847457,4.053333333333332,3.0508474576271185,3.679999999999999C4.067796610169491,3.3066666666666658,5.084745762711864,2.320000000000002,6.101694915254237,2.160000000000002C7.11864406779661,2.0000000000000018,8.135593220338983,1.9200000000000017,9.152542372881356,1.9200000000000017C10.169491525423728,1.9200000000000017,11.186440677966102,2.080000000000002,12.203389830508474,2.080000000000002C13.220338983050846,2.080000000000002,14.23728813559322,1.4933333333333345,15.254237288135592,1.2800000000000011C16.271186440677965,1.0666666666666673,17.28813559322034,0.8000000000000007,18.305084745762713,0.8000000000000007C19.322033898305087,0.8000000000000007,20.338983050847457,0.9466666666666675,21.35593220338983,1.040000000000001C22.372881355932204,1.1333333333333344,23.389830508474574,1.1733333333333344,24.406779661016948,1.3600000000000012C25.423728813559322,1.5466666666666682,26.440677966101696,2.160000000000002,27.45762711864407,2.160000000000002C28.47457627118644,2.160000000000002,29.491525423728813,1.9200000000000017,30.508474576271183,1.9200000000000017C31.525423728813557,1.9200000000000017,32.54237288135593,1.9733333333333352,33.559322033898304,2.080000000000002C34.57627118644068,2.1866666666666688,35.59322033898305,2.8666666666666654,36.610169491525426,3.1999999999999984C37.6271186440678,3.5333333333333306,38.644067796610166,3.693333333333333,39.66101694915254,4.079999999999999C40.67796610169491,4.466666666666667,41.69491525423729,4.853333333333333,42.71186440677966,5.5200000000000005C43.728813559322035,6.1866666666666665,44.7457627118644,7.3199999999999985,45.762711864406775,8.079999999999998C46.77966101694915,8.84,47.79661016949152,9.586666666666666,48.813559322033896,10.08C49.83050847457627,10.573333333333334,50.847457627118644,10.68,51.86440677966102,11.040000000000001C52.88135593220339,11.400000000000002,53.898305084745765,11.48,54.91525423728814,12.240000000000002C55.93220338983051,13.000000000000002,56.94915254237288,14.426666666666668,57.96610169491525,15.600000000000001C58.983050847457626,16.773333333333333,59.99999999999999,18.400000000000002,61.01694915254237,19.28C62.03389830508474,20.160000000000004,63.05084745762712,20.880000000000003,64.0677966101695,20.880000000000003C65.08474576271186,20.880000000000003,66.10169491525424,20.666666666666668,67.11864406779661,20.240000000000002C68.13559322033899,19.813333333333333,69.15254237288136,18.29333333333333,70.16949152542374,17.919999999999998C71.1864406779661,17.546666666666667,72.20338983050848,17.613333333333337,73.22033898305085,17.360000000000003C74.23728813559322,17.10666666666667,75.2542372881356,16.680000000000003,76.27118644067797,16.400000000000002C77.28813559322033,16.12,78.30508474576271,16.16,79.32203389830508,15.68C80.33898305084746,15.199999999999996,81.35593220338983,14.039999999999997,82.37288135593221,13.439999999999998C83.38983050847457,12.84,84.40677966101696,12.186666666666667,85.42372881355932,12.080000000000002C86.4406779661017,11.973333333333334,87.45762711864407,11.920000000000002,88.47457627118645,11.920000000000002C89.49152542372882,11.920000000000002,90.50847457627118,13.506666666666668,91.52542372881355,14.079999999999998C92.54237288135593,14.653333333333338,93.55932203389831,14.93333333333333,94.57627118644069,15.36C95.59322033898306,15.786666666666664,96.61016949152543,16.22666666666667,97.62711864406779,16.64C98.64406779661016,17.053333333333335,99.66101694915254,17.49333333333333,100.6779661016949,17.839999999999996C101.69491525423729,18.186666666666664,102.71186440677965,18.346666666666664,103.72881355932203,18.72C104.7457627118644,19.093333333333334,105.76271186440678,19.746666666666666,106.77966101694915,20.08C107.79661016949153,20.413333333333334,108.8135593220339,20.56,109.83050847457628,20.72C110.84745762711864,20.88,111.86440677966102,21.04,112.88135593220339,21.04C113.89830508474576,21.04,114.91525423728814,21.04,115.9322033898305,21.04C116.94915254237289,21.04,117.96610169491525,21.12,118.98305084745763,21.12C120,21.12,121.01694915254237,20.64,122.03389830508473,20.64C123.05084745762711,20.64,124.0677966101695,20.666666666666668,125.08474576271188,20.72C126.10169491525424,20.77333333333333,127.11864406779662,20.8,128.135593220339,20.96C129.15254237288136,21.12,130.16949152542372,21.54666666666667,131.1864406779661,21.92C132.20338983050846,22.293333333333337,133.22033898305085,22.880000000000003,134.23728813559322,23.200000000000003C135.25423728813558,23.520000000000003,136.27118644067798,23.573333333333334,137.28813559322035,23.84C138.3050847457627,24.106666666666666,139.3220338983051,24.41333333333333,140.33898305084747,24.8C141.35593220338984,25.186666666666667,142.3728813559322,25.653333333333336,143.38983050847457,26.16C144.40677966101694,26.666666666666668,145.42372881355934,27.359999999999996,146.4406779661017,27.839999999999996C147.45762711864407,28.319999999999993,148.47457627118644,28.746666666666666,149.4915254237288,29.04C150.50847457627117,29.333333333333336,151.52542372881356,29.413333333333334,152.54237288135593,29.6C153.5593220338983,29.78666666666667,154.5762711864407,30.05333333333333,155.59322033898306,30.16C156.61016949152543,30.266666666666666,157.6271186440678,30.240000000000002,158.64406779661016,30.32C159.66101694915253,30.400000000000002,160.67796610169492,30.52,161.6949152542373,30.64C162.71186440677965,30.76,163.72881355932205,30.919999999999998,164.74576271186442,31.04C165.76271186440678,31.159999999999997,166.77966101694915,31.36,167.79661016949152,31.36C168.81355932203388,31.36,169.83050847457628,30.96,170.84745762711864,30.96C171.864406779661,30.96,172.8813559322034,31.04,173.89830508474577,31.04C174.91525423728814,31.04,175.93220338983053,30.64,176.9491525423729,30.64C177.96610169491527,30.64,178.98305084745763,30.64,180,30.64"></path><path class="axis-ceiling" stroke-width="1" stroke="black" fill="none" d="M175,0L180,0"></path><text class="axis-ceiling-label" font-family="sans-serif" text-anchor="end" font-size="10px" x="170" y="2.5">500</text></g></svg>