<svg xmlns="http://www.w3.org/2000/svg" viewBox="0 0 180 60"><g transform="translate(0,20)"><path class="area" fill="rgba(0, 0, 0, 0.2)" d="M0,6.080000000000001C1.0344827586206897,10.773333333333333,2.068965517241379,15.466666666666667,3.103448275862069,19.04C4.137931034482759,22.61333333333333,5.172413793103448,27.519999999999996,6.206896551724138,27.519999999999996C7.241379310344827,27.519999999999996,8.275862068965516,26.48,9.310344827586206,24.48C10.344827586206897,22.48,11.379310344827585,15.52,12.413793103448276,15.52C13.448275862068966,15.52,14.482758620689655,24.96,15.517241379310345,24.96C16.551724137931036,24.96,17.586206896551722,23.200000000000003,18.620689655172413,23.200000000000003C19.655172413793103,23.200000000000003,20.689655172413794,26.85333333333333,21.724137931034484,28.32C22.758620689655174,29.786666666666665,23.79310344827586,31.25333333333333,24.82758620689655,32C25.862068965517242,32.74666666666667,26.896551724137932,33.120000000000005,27.931034482758623,33.120000000000005C28.965517241379313,33.120000000000005,30,30.133333333333336,31.03448275862069,29.28C32.06896551724138,28.42666666666667,33.103448275862064,28,34.137931034482754,28C35.172413793103445,28,36.206896551724135,28.37333333333333,37.241379310344826,29.119999999999997C38.275862068965516,29.866666666666664,39.310344827586206,36,40.3448275862069,36C41.37931034482759,36,42.41379310344828,34.08,43.44827586206897,34.08C44.48275862068966,34.08,45.51724137931035,35.093333333333334,46.55172413793104,35.52C47.58620689655173,35.94666666666667,48.62068965517241,36.64,49.6551724137931,36.64C50.689655172413794,36.64,51.72413793103448,36.42666666666667,52.75862068965517,36C53.79310344827586,35.57333333333333,54.827586206896555,31.840000000000003,55.862068965517246,31.840000000000003C56.896551724137936,31.840000000000003,57.93103448275862,33.733333333333334,58.96551724137931,34.4C60,35.06666666666666,61.03448275862069,35.49333333333333,62.06896551724138,35.84C63.10344827586207,36.18666666666667,64.13793103448276,36.29333333333334,65.17241379310344,36.480000000000004C66.20689655172413,36.66666666666667,67.24137931034483,36.74666666666667,68.27586206896551,36.96C69.3103448275862,37.17333333333333,70.34482758620689,37.76,71.37931034482759,37.76C72.41379310344827,37.76,73.44827586206897,37.28,74.48275862068965,37.28C75.51724137931033,37.28,76.55172413793103,37.760000000000005,77.58620689655172,37.92C78.62068965517241,38.08,79.6551724137931,38.239999999999995,80.6896551724138,38.239999999999995C81.72413793103448,38.239999999999995,82.75862068965517,37.38666666666666,83.79310344827586,37.28C84.82758620689656,37.17333333333334,85.86206896551724,37.120000000000005,86.89655172413794,37.120000000000005C87.93103448275862,37.120000000000005,88.96551724137932,38.720000000000006,90,39.04C91.0344827586207,39.36,92.06896551724138,39.519999999999996,93.10344827586208,39.519999999999996C94.13793103448276,39.519999999999996,95.17241379310344,39.04,96.20689655172413,38.72C97.24137931034483,38.4,98.27586206896551,37.599999999999994,99.3103448275862,37.599999999999994C100.3448275862069,37.599999999999994,101.37931034482759,37.599999999999994,102.41379310344828,37.599999999999994C103.44827586206897,37.599999999999994,104.48275862068965,38.08,105.51724137931033,38.08C106.55172413793103,38.08,107.58620689655172,37.92,108.62068965517241,37.92C109.65517241379311,37.92,110.6896551724138,37.973333333333336,111.72413793103449,38.08C112.75862068965517,38.18666666666666,113.79310344827587,39.519999999999996,114.82758620689656,39.519999999999996C115.86206896551724,39.519999999999996,116.89655172413794,38.879999999999995,117.93103448275862,38.879999999999995C118.96551724137932,38.879999999999995,120,38.879999999999995,121.0344827586207,38.879999999999995C122.06896551724138,38.879999999999995,123.10344827586208,39.04,124.13793103448276,39.04C125.17241379310344,39.04,126.20689655172414,38.4,127.24137931034483,38.4C128.27586206896552,38.4,129.3103448275862,38.82666666666667,130.3448275862069,39.04C131.3793103448276,39.25333333333333,132.41379310344828,39.68,133.44827586206898,39.68C134.48275862068965,39.68,135.51724137931035,39.626666666666665,136.55172413793102,39.519999999999996C137.58620689655172,39.41333333333333,138.6206896551724,38.08,139.6551724137931,37.76C140.6896551724138,37.44,141.72413793103448,37.28,142.75862068965517,37.28C143.79310344827587,37.28,144.82758620689654,38.72,145.86206896551724,38.72C146.89655172413794,38.72,147.9310344827586,38.61333333333334,148.9655172413793,38.56C150,38.50666666666667,151.0344827586207,38.4,152.0689655172414,38.4C153.10344827586206,38.4,154.13793103448276,38.72,155.17241379310343,38.72C156.20689655172413,38.72,157.24137931034483,38.37333333333333,158.27586206896552,38.239999999999995C159.31034482758622,38.10666666666666,160.3448275862069,38.053333333333335,161.3793103448276,37.92C162.41379310344828,37.78666666666667,163.44827586206895,37.44,164.48275862068965,37.44C165.51724137931035,37.44,166.55172413793102,39.84,167.58620689655172,39.84C168.6206896551724,39.84,169.6551724137931,38.08,170.6896551724138,38.08C171.7241379310345,38.08,172.75862068965517,39.519999999999996,173.79310344827587,39.519999999999996C174.82758620689657,39.519999999999996,175.86206896551724,38.879999999999995,176.89655172413794,38.879999999999995C177.93103448275863,38.879999999999995,178.9655172413793,39.44,180,40L180,40C178.9655172413793,40,177.93103448275863,40,176.89655172413794,40C175.86206896551724,40,174.82758620689657,40,173.79310344827587,40C172.75862068965517,40,171.7241379310345,40,170.6896551724138,40C169.6551724137931,40,168.6206896551724,40,167.58620689655172,40C166.55172413793102,40,165.51724137931035,40,164.48275862068965,40C163.44827586206895,40,162.41379310344828,40,161.3793103448276,40C160.3448275862069,40,159.31034482758622,40,158.27586206896552,40C157.24137931034483,40,156.20689655172413,40,155.17241379310343,40C154.13793103448276,40,153.10344827586206,40,152.0689655172414,40C151.0344827586207,40,150,40,148.9655172413793,40C147.9310344827586,40,146.89655172413794,40,145.86206896551724,40C144.82758620689654,40,143.79310344827587,40,142.75862068965517,40C141.72413793103448,40,140.6896551724138,40,139.6551724137931,40C138.6206896551724,40,137.58620689655172,40,136.55172413793102,40C135.51724137931035,40,134.48275862068965,40,133.44827586206898,40C132.41379310344828,40,131.3793103448276,40,130.3448275862069,40C129.3103448275862,40,128.27586206896552,40,127.24137931034483,40C126.20689655172414,40,125.17241379310344,40,124.13793103448276,40C123.10344827586208,40,122.06896551724138,40,121.0344827586207,40C120,40,118.96551724137932,40,117.93103448275862,40C116.89655172413794,40,115.86206896551724,40,114.82758620689656,40C113.79310344827587,40,112.75862068965517,40,111.72413793103449,40C110.6896551724138,40,109.65517241379311,40,108.62068965517241,40C107.58620689655172,40,106.55172413793103,40,105.51724137931033,40C104.48275862068965,40,103.44827586206897,40,102.41379310344828,40C101.37931034482759,40,100.3448275862069,40,99.3103448275862,40C98.27586206896551,40,97.24137931034483,40,96.20689655172413,40C95.17241379310344,40,94.13793103448276,40,93.10344827586208,40C92.06896551724138,40,91.0344827586207,40,90,40C88.96551724137932,40,87.93103448275862,40,86.89655172413794,40C85.86206896551724,40,84.82758620689656,40,83.79310344827586,40C82.75862068965517,40,81.72413793103448,40,80.6896551724138,40C79.6551724137931,40,78.62068965517241,40,77.58620689655172,40C76.55172413793103,40,75.51724137931033,40,74.48275862068965,40C73.44827586206897,40,72.41379310344827,40,71.37931034482759,40C70.34482758620689,40,69.3103448275862,40,68.27586206896551,40C67.24137931034483,40,66.20689655172413,40,65.17241379310344,40C64.13793103448276,40,63.10344827586207,40,62.06896551724138,40C61.03448275862069,40,60,40,58.96551724137931,40C57.93103448275862,40,56.896551724137936,40,55.862068965517246,40C54.827586206896555,40,53.79310344827586,40,52.75862068965517,40C51.72413793103448,40,50.689655172413794,40,49.6551724137931,40C48.62068965517241,40,47.58620689655173,40,46.55172413793104,40C45.51724137931035,40,44.48275862068966,40,43.44827586206897,40C42.41379310344828,40,41.37931034482759,40,40.3448275862069,40C39.310344827586206,40,38.275862068965516,40,37.241379310344826,40C36.206896551724135,40,35.172413793103445,40,34.137931034482754,40C33.103448275862064,40,32.06896551724138,40,31.03448275862069,40C30,40,28.965517241379313,40,27.931034482758623,40C26.896551724137932,40,25.862068965517242,40,24.82758620689655,40C23.79310344827586,40,22.758620689655174,40,21.724137931034484,40C20.689655172413794,40,19.655172413793103,40,18.620689655172413,40C17.586206896551722,40,16.551724137931036,40,15.517241379310345,40C14.482758620689655,40,13.448275862068966,40,12.413793103448276,40C11.379310344827585,40,10.344827586206897,40,9.310344827586206,40C8.275862068965516,40,7.241379310344827,40,6.206896551724138,40C5.172413793103448,40,4.137931034482759,40,3.103448275862069,40C2.068965517241379,40,1.0344827586206897,40,0,40Z"></path><path class="line" stroke="black" fill="none" d="M0,6.080000000000001C1.0344827586206897,10.773333333333333,2.068965517241379,15.466666666666667,3.103448275862069,19.04C4.137931034482759,22.61333333333333,5.172413793103448,27.519999999999996,6.206896551724138,27.519999999999996C7.241379310344827,27.519999999999996,8.275862068965516,26.48,9.310344827586206,24.48C10.344827586206897,22.48,11.379310344827585,15.52,12.413793103448276,15.52C13.448275862068966,15.52,14.482758620689655,24.96,15.517241379310345,24.96C16.551724137931036,24.96,17.586206896551722,23.200000000000003,18.620689655172413,23.200000000000003C19.655172413793103,23.200000000000003,20.689655172413794,26.85333333333333,21.724137931034484,28.32C22.758620689655174,29.786666666666665,23.79310344827586,31.25333333333333,24.82758620689655,32C25.862068965517242,32.74666666666667,26.896551724137932,33.120000000000005,27.931034482758623,33.120000000000005C28.965517241379313,33.120000000000005,30,30.133333333333336,31.03448275862069,29.28C32.06896551724138,28.42666666666667,33.103448275862064,28,34.137931034482754,28C35.172413793103445,28,36.206896551724135,28.37333333333333,37.241379310344826,29.119999999999997C38.275862068965516,29.866666666666664,39.310344827586206,36,40.3448275862069,36C41.37931034482759,36,42.41379310344828,34.08,43.44827586206897,34.08C44.48275862068966,34.08,45.51724137931035,35.093333333333334,46.55172413793104,35.52C47.58620689655173,35.94666666666667,48.62068965517241,36.64,49.6551724137931,36.64C50.689655172413794,36.64,51.72413793103448,36.42666666666667,52.75862068965517,36C53.79310344827586,35.57333333333333,54.827586206896555,31.840000000000003,55.862068965517246,31.840000000000003C56.896551724137936,31.840000000000003,57.93103448275862,33.733333333333334,58.96551724137931,34.4C60,35.06666666666666,61.03448275862069,35.49333333333333,62.06896551724138,35.84C63.10344827586207,36.18666666666667,64.13793103448276,36.29333333333334,65.17241379310344,36.480000000000004C66.20689655172413,36.66666666666667,67.24137931034483,36.74666666666667,68.27586206896551,36.96C69.3103448275862,37.17333333333333,70.34482758620689,37.76,71.37931034482759,37.76C72.41379310344827,37.76,73.44827586206897,37.28,74.48275862068965,37.28C75.51724137931033,37.28,76.55172413793103,37.760000000000005,77.58620689655172,37.92C78.62068965517241,38.08,79.6551724137931,38.239999999999995,80.6896551724138,38.239999999999995C81.72413793103448,38.239999999999995,82.75862068965517,37.38666666666666,83.79310344827586,37.28C84.82758620689656,37.17333333333334,85.86206896551724,37.120000000000005,86.89655172413794,37.120000000000005C87.93103448275862,37.120000000000005,88.96551724137932,38.720000000000006,90,39.04C91.0344827586207,39.36,92.06896551724138,39.519999999999996,93.10344827586208,39.519999999999996C94.13793103448276,39.519999999999996,95.17241379310344,39.04,96.20689655172413,38.72C97.24137931034483,38.4,98.27586206896551,37.599999999999994,99.3103448275862,37.599999999999994C100.3448275862069,37.599999999999994,101.37931034482759,37.599999999999994,102.41379310344828,37.599999999999994C103.44827586206897,37.599999999999994,104.48275862068965,38.08,105.51724137931033,38.08C106.55172413793103,38.08,107.58620689655172,37.92,108.62068965517241,37.92C109.65517241379311,37.92,110.6896551724138,37.973333333333336,111.72413793103449,38.08C112.75862068965517,38.18666666666666,113.79310344827587,39.519999999999996,114.82758620689656,39.519999999999996C115.86206896551724,39.519999999999996,116.89655172413794,38.879999999999995,117.93103448275862,38.879999999999995C118.96551724137932,38.879999999999995,120,38.879999999999995,121.0344827586207,38.879999999999995C122.06896551724138,38.879999999999995,123.10344827586208,39.04,124.13793103448276,39.04C125.17241379310344,39.04,126.20689655172414,38.4,127.24137931034483,38.4C128.27586206896552,38.4,129.3103448275862,38.82666666666667,130.3448275862069,39.04C131.3793103448276,39.25333333333333,132.41379310344828,39.68,133.44827586206898,39.68C134.48275862068965,39.68,135.51724137931035,39.626666666666665,136.55172413793102,39.519999999999996C137.58620689655172,39.41333333333333,138.6206896551724,38.08,139.6551724137931,37.76C140.6896551724138,37.44,141.72413793103448,37.28,142.75862068965517,37.28C143.79310344827587,37.28,144.82758620689654,38.72,145.86206896551724,38.72C146.89655172413794,38.72,147.9310344827586,38.61333333333334,148.9655172413793,38.56C150,38.50666666666667,151.0344827586207,38.4,152.0689655172414,38.4C153.10344827586206,38.4,154.13793103448276,38.72,155.17241379310343,38.72C156.20689655172413,38.72,157.24137931034483,38.37333333333333,158.27586206896552,38.239999999999995C159.31034482758622,38.10666666666666,160.3448275862069,38.053333333333335,161.3793103448276,37.92C162.41379310344828,37.78666666666667,163.44827586206895,37.44,164.48275862068965,37.44C165.51724137931035,37.44,166.55172413793102,39.84,167.58620689655172,39.84C168.6206896551724,39.84,169.6551724137931,38.08,170.6896551724138,38.08C171.7241379310345,38.08,172.75862068965517,39.519999999999996,173.79310344827587,39.519999999999996C174.82758620689657,39.519999999999996,175.86206896551724,38.879999999999995,176.89655172413794,38.879999999999995C177.93103448275863,38.879999999999995,178.9655172413793,39.44,180,40"></path><path class="axis-ceiling" stroke-width="1" stroke="black" fill="none" d="M175,0L180,0"></path><text class="axis-ceiling-label" font-family="sans-serif" text-anchor="end" font-size="10px" x="170" y="2.5">250</text></g></svg>