<svg xmlns="http://www.w3.org/2000/svg" viewBox="0 0 180 60"><g transform="translate(0,20)"><path class="area" fill="rgba(0, 0, 0, 0.2)" d="M0,40C1.0169491525423728,39.6,2.0338983050847457,39.2,3.0508474576271185,39.2C4.067796610169491,39.2,5.084745762711864,40,6.101694915254237,40C7.11864406779661,40,8.135593220338983,39.6,9.152542372881356,39.6C10.169491525423728,39.6,11.186440677966102,39.6,12.203389830508474,39.6C13.220338983050846,39.6,14.23728813559322,40,15.254237288135592,40C16.271186440677965,40,17.28813559322034,40,18.305084745762713,40C19.322033898305087,40,20.338983050847457,39.86666666666667,21.35593220338983,39.6C22.372881355932204,39.333333333333336,23.389830508474574,37.599999999999994,24.406779661016948,37.599999999999994C25.423728813559322,37.599999999999994,26.440677966101696,38.53333333333333,27.45762711864407,38.8C28.47457627118644,39.06666666666666,29.491525423728813,39,30.508474576271183,39.2C31.525423728813557,39.400000000000006,32.54237288135593,40,33.559322033898304,40C34.57627118644068,40,35.59322033898305,39.2,36.610169491525426,39.2C37.6271186440678,39.2,38.644067796610166,40,39.66101694915254,40C40.67796610169491,40,41.69491525423729,39.6,42.71186440677966,39.6C43.728813559322035,39.6,44.7457627118644,39.6,45.762711864406775,39.6C46.77966101694915,39.6,47.79661016949152,39.2,48.813559322033896,39.2C49.83050847457627,39.2,50.847457627118644,39.6,51.86440677966102,39.6C52.88135593220339,39.6,53.898305084745765,39.333333333333336,54.91525423728814,38.8C55.93220338983051,38.266666666666666,56.94915254237288,36,57.96610169491525,36C58.983050847457626,36,59.99999999999999,38.8,61.01694915254237,38.8C62.03389830508474,38.8,63.05084745762712,34.4,64.0677966101695,34.4C65.08474576271186,34.4,66.10169491525424,34.66666666666667,67.11864406779661,35.2C68.13559322033899,35.733333333333334,69.15254237288136,37.599999999999994,70.16949152542374,37.599999999999994C71.1864406779661,37.599999999999994,72.20338983050848,33.6,73.22033898305085,33.6C74.23728813559322,33.6,75.2542372881356,34.6,76.27118644067797,35.2C77.28813559322033,35.800000000000004,78.30508474576271,37.199999999999996,79.32203389830508,37.199999999999996C80.33898305084746,37.199999999999996,81.35593220338983,34.8,82.37288135593221,34.8C83.38983050847457,34.8,84.40677966101696,36,85.42372881355932,36C86.4406779661017,36,87.45762711864407,34.13333333333333,88.47457627118645,33.199999999999996C89.49152542372882,32.266666666666666,90.50847457627118,30.4,91.52542372881355,30.4C92.54237288135593,30.4,93.55932203389831,32.800000000000004,94.57627118644069,32.800000000000004C95.59322033898306,32.800000000000004,96.61016949152543,29.2,97.62711864406779,29.2C98.64406779661016,29.2,99.66101694915254,30.86666666666667,100.6779661016949,31.6C101.69491525423729,32.333333333333336,102.71186440677965,33.6,103.72881355932203,33.6C104.7457627118644,33.6,105.76271186440678,31.333333333333325,106.77966101694915,29.2C107.79661016949153,27.066666666666663,108.8135593220339,20.8,109.83050847457628,20.8C110.84745762711864,20.8,111.86440677966102,31.200000000000003,112.88135593220339,31.200000000000003C113.89830508474576,31.200000000000003,114.91525423728814,22.400000000000002,115.9322033898305,22.400000000000002C116.94915254237289,22.400000000000002,117.96610169491525,25.133333333333333,118.98305084745763,26C120,26.86666666666666,121.01694915254237,27.000000000000004,122.03389830508473,27.599999999999998C123.05084745762711,28.200000000000003,124.0677966101695,29.6,125.08474576271188,29.6C126.10169491525424,29.6,127.11864406779662,23.200000000000003,128.135593220339,23.200000000000003C129.15254237288136,23.200000000000003,130.16949152542372,24.8,131.1864406779661,24.8C132.20338983050846,24.8,133.22033898305085,20.93333333333333,134.23728813559322,20.4C135.25423728813558,19.866666666666667,136.27118644067798,19.6,137.28813559322035,19.6C138.3050847457627,19.6,139.3220338983051,19.866666666666667,140.33898305084747,20.4C141.35593220338984,20.933333333333326,142.3728813559322,23.53333333333334,143.38983050847457,24.8C144.40677966101694,26.066666666666677,145.42372881355934,28,146.4406779661017,28C147.45762711864407,28,148.47457627118644,23.33333333333333,149.4915254237288,21.200000000000003C150.50847457627117,19.06666666666666,151.52542372881356,15.733333333333333,152.54237288135593,15.2C153.5593220338983,14.666666666666666,154.5762711864407,14.399999999999999,155.59322033898306,14.399999999999999C156.61016949152543,14.399999999999999,157.6271186440678,20.06666666666667,158.64406779661016,22C159.66101694915253,23.933333333333348,160.67796610169492,25.46666666666667,161.6949152542373,26C162.71186440677965,26.53333333333333,163.72881355932205,26.266666666666666,164.74576271186442,26.799999999999997C165.76271186440678,27.333333333333325,166.77966101694915,30.8,167.79661016949152,30.8C168.81355932203388,30.8,169.83050847457628,18,170.84745762711864,18C171.864406779661,18,172.8813559322034,18.799999999999997,173.89830508474577,18.799999999999997C174.91525423728814,18.799999999999997,175.93220338983053,17.200000000000003,176.9491525423729,17.200000000000003C177.96610169491527,17.200000000000003,178.98305084745763,17.200000000000003,180,17.200000000000003L180,40C178.98305084745763,40,177.96610169491527,40,176.9491525423729,40C175.93220338983053,40,174.91525423728814,40,173.89830508474577,40C172.8813559322034,40,171.864406779661,40,170.84745762711864,40C169.83050847457628,40,168.81355932203388,40,167.79661016949152,40C166.77966101694915,40,165.76271186440678,40,164.74576271186442,40C163.72881355932205,40,162.71186440677965,40,161.6949152542373,40C160.67796610169492,40,159.66101694915253,40,158.64406779661016,40C157.6271186440678,40,156.61016949152543,40,155.59322033898306,40C154.5762711864407,40,153.5593220338983,40,152.54237288135593,40C151.52542372881356,40,150.50847457627117,40,149.4915254237288,40C148.47457627118644,40,147.45762711864407,40,146.4406779661017,40C145.42372881355934,40,144.40677966101694,40,143.38983050847457,40C142.3728813559322,40,141.35593220338984,40,140.33898305084747,40C139.3220338983051,40,138.3050847457627,40,137.28813559322035,40C136.27118644067798,40,135.25423728813558,40,134.23728813559322,40C133.22033898305085,40,132.20338983050846,40,131.1864406779661,40C130.16949152542372,40,129.15254237288136,40,128.135593220339,40C127.11864406779662,40,126.10169491525424,40,125.08474576271188,40C124.0677966101695,40,123.05084745762711,40,122.03389830508473,40C121.01694915254237,40,120,40,118.98305084745763,40C117.96610169491525,40,116.94915254237289,40,115.9322033898305,40C114.91525423728814,40,113.89830508474576,40,112.88135593220339,40C111.86440677966102,40,110.84745762711864,40,109.83050847457628,40C108.8135593220339,40,107.79661016949153,40,106.77966101694915,40C105.76271186440678,40,104.7457627118644,40,103.72881355932203,40C102.71186440677965,40,101.69491525423729,40,100.6779661016949,40C99.66101694915254,40,98.64406779661016,40,97.62711864406779,40C96.61016949152543,40,95.59322033898306,40,94.57627118644069,40C93.55932203389831,40,92.54237288135593,40,91.52542372881355,40C90.50847457627118,40,89.49152542372882,40,88.47457627118645,40C87.45762711864407,40,86.4406779661017,40,85.42372881355932,40C84.40677966101696,40,83.38983050847457,40,82.37288135593221,40C81.35593220338983,40,80.33898305084746,40,79.32203389830508,40C78.30508474576271,40,77.28813559322033,40,76.27118644067797,40C75.2542372881356,40,74.23728813559322,40,73.22033898305085,40C72.20338983050848,40,71.1864406779661,40,70.16949152542374,40C69.15254237288136,40,68.13559322033899,40,67.11864406779661,40C66.10169491525424,40,65.08474576271186,40,64.0677966101695,40C63.05084745762712,40,62.03389830508474,40,61.01694915254237,40C59.99999999999999,40,58.983050847457626,40,57.96610169491525,40C56.94915254237288,40,55.93220338983051,40,54.91525423728814,40C53.898305084745765,40,52.88135593220339,40,51.86440677966102,40C50.847457627118644,40,49.83050847457627,40,48.813559322033896,40C47.79661016949152,40,46.77966101694915,40,45.762711864406775,40C44.7457627118644,40,43.728813559322035,40,42.71186440677966,40C41.69491525423729,40,40.67796610169491,40,39.66101694915254,40C38.644067796610166,40,37.6271186440678,40,36.610169491525426,40C35.59322033898305,40,34.57627118644068,40,33.559322033898304,40C32.54237288135593,40,31.525423728813557,40,30.508474576271183,40C29.491525423728813,40,28.47457627118644,40,27.45762711864407,40C26.440677966101696,40,25.423728813559322,40,24.406779661016948,40C23.389830508474574,40,22.372881355932204,40,21.35593220338983,40C20.338983050847457,40,19.322033898305087,40,18.305084745762713,40C17.28813559322034,40,16.271186440677965,40,15.254237288135592,40C14.23728813559322,40,13.220338983050846,40,12.203389830508474,40C11.186440677966102,40,10.169491525423728,40,9.152542372881356,40C8.135593220338983,40,7.11864406779661,40,6.101694915254237,40C5.084745762711864,40,4.067796610169491,40,3.0508474576271185,40C2.0338983050847457,40,1.0169491525423728,40,0,40Z"></path><path class="line" stroke="black" fill="none" d="M0,40C1.0169491525423728,39.6,2.0338983050847457,39.2,3.0508474576271185,39.2C4.067796610169491,39.2,5.084745762711864,40,6.101694915254237,40C7.11864406779661,40,8.135593220338983,39.6,9.152542372881356,39.6C10.169491525423728,39.6,11.186440677966102,39.6,12.203389830508474,39.6C13.220338983050846,39.6,14.23728813559322,40,15.254237288135592,40C16.271186440677965,40,17.28813559322034,40,18.305084745762713,40C19.322033898305087,40,20.338983050847457,39.86666666666667,21.35593220338983,39.6C22.372881355932204,39.333333333333336,23.389830508474574,37.599999999999994,24.406779661016948,37.599999999999994C25.423728813559322,37.599999999999994,26.440677966101696,38.53333333333333,27.45762711864407,38.8C28.47457627118644,39.06666666666666,29.491525423728813,39,30.508474576271183,39.2C31.525423728813557,39.400000000000006,32.54237288135593,40,33.559322033898304,40C34.57627118644068,40,35.59322033898305,39.2,36.610169491525426,39.2C37.6271186440678,39.2,38.644067796610166,40,39.66101694915254,40C40.67796610169491,40,41.69491525423729,39.6,42.71186440677966,39.6C43.728813559322035,39.6,44.7457627118644,39.6,45.762711864406775,39.6C46.77966101694915,39.6,47.79661016949152,39.2,48.813559322033896,39.2C49.83050847457627,39.2,50.847457627118644,39.6,51.86440677966102,39.6C52.88135593220339,39.6,53.898305084745765,39.333333333333336,54.91525423728814,38.8C55.93220338983051,38.266666666666666,56.94915254237288,36,57.96610169491525,36C58.983050847457626,36,59.99999999999999,38.8,61.01694915254237,38.8C62.03389830508474,38.8,63.05084745762712,34.4,64.0677966101695,34.4C65.08474576271186,34.4,66.10169491525424,34.66666666666667,67.11864406779661,35.2C68.13559322033899,35.733333333333334,69.15254237288136,37.599999999999994,70.16949152542374,37.599999999999994C71.1864406779661,37.599999999999994,72.20338983050848,33.6,73.22033898305085,33.6C74.23728813559322,33.6,75.2542372881356,34.6,76.27118644067797,35.2C77.28813559322033,35.800000000000004,78.30508474576271,37.199999999999996,79.32203389830508,37.199999999999996C80.33898305084746,37.199999999999996,81.35593220338983,34.8,82.37288135593221,34.8C83.38983050847457,34.8,84.40677966101696,36,85.42372881355932,36C86.4406779661017,36,87.45762711864407,34.13333333333333,88.47457627118645,33.199999999999996C89.49152542372882,32.266666666666666,90.50847457627118,30.4,91.52542372881355,30.4C92.54237288135593,30.4,93.55932203389831,32.800000000000004,94.57627118644069,32.800000000000004C95.59322033898306,32.800000000000004,96.61016949152543,29.2,97.62711864406779,29.2C98.64406779661016,29.2,99.66101694915254,30.86666666666667,100.6779661016949,31.6C101.69491525423729,32.333333333333336,102.71186440677965,33.6,103.72881355932203,33.6C104.7457627118644,33.6,105.76271186440678,31.333333333333325,106.77966101694915,29.2C107.79661016949153,27.066666666666663,108.8135593220339,20.8,109.83050847457628,20.8C110.84745762711864,20.8,111.86440677966102,31.200000000000003,112.88135593220339,31.200000000000003C113.89830508474576,31.200000000000003,114.91525423728814,22.400000000000002,115.9322033898305,22.400000000000002C116.94915254237289,22.400000000000002,117.96610169491525,25.133333333333333,118.98305084745763,26C120,26.86666666666666,121.01694915254237,27.000000000000004,122.03389830508473,27.599999999999998C123.05084745762711,28.200000000000003,124.0677966101695,29.6,125.08474576271188,29.6C126.10169491525424,29.6,127.11864406779662,23.200000000000003,128.135593220339,23.200000000000003C129.15254237288136,23.200000000000003,130.16949152542372,24.8,131.1864406779661,24.8C132.20338983050846,24.8,133.22033898305085,20.93333333333333,134.23728813559322,20.4C135.25423728813558,19.866666666666667,136.27118644067798,19.6,137.28813559322035,19.6C138.3050847457627,19.6,139.3220338983051,19.866666666666667,140.33898305084747,20.4C141.35593220338984,20.933333333333326,142.3728813559322,23.53333333333334,143.38983050847457,24.8C144.40677966101694,26.066666666666677,145.42372881355934,28,146.4406779661017,28C147.45762711864407,28,148.47457627118644,23.33333333333333,149.4915254237288,21.200000000000003C150.50847457627117,19.06666666666666,151.52542372881356,15.733333333333333,152.54237288135593,15.2C153.5593220338983,14.666666666666666,154.5762711864407,14.399999999999999,155.59322033898306,14.399999999999999C156.61016949152543,14.399999999999999,157.6271186440678,20.06666666666667,158.64406779661016,22C159.66101694915253,23.933333333333348,160.67796610169492,25.46666666666667,161.6949152542373,26C162.71186440677965,26.53333333333333,163.72881355932205,26.266666666666666,164.74576271186442,26.799999999999997C165.76271186440678,27.333333333333325,166.77966101694915,30.8,167.79661016949152,30.8C168.81355932203388,30.8,169.83050847457628,18,170.84745762711864,18C171.864406779661,18,172.8813559322034,18.799999999999997,173.89830508474577,18.799999999999997C174.91525423728814,18.799999999999997,175.93220338983053,17.200000000000003,176.9491525423729,17.200000000000003C177.96610169491527,17.200000000000003,178.98305084745763,17.200000000000003,180,17.200000000000003"></path><path class="axis-ceiling" stroke-width="1" stroke="black" fill="none" d="M175,0L180,0"></path><text class="axis-ceiling-label" font-family="sans-serif" text-anchor="end" font-size="10px" x="170" y="2.5">100</text></g></svg>