<svg xmlns="http://www.w3.org/2000/svg" viewBox="0 0 180 60"><g transform="translate(0,20)"><path class="area" fill="rgba(0, 0, 0, 0.2)" d="M0,25.546666666666667C1.0169491525423728,24.82,2.0338983050847457,24.09333333333333,3.0508474576271185,21.208888888888886C4.067796610169491,18.324444444444442,5.084745762711864,11.248888888888887,6.101694915254237,8.239999999999998C7.11864406779661,5.23111111111111,8.135593220338983,3.155555555555556,9.152542372881356,3.155555555555556C10.169491525423728,3.155555555555556,11.186440677966102,3.202962962962963,12.203389830508474,3.2977777777777773C13.220338983050846,3.3925925925925915,14.23728813559322,3.8607407407407406,15.254237288135592,4.986666666666668C16.271186440677965,6.112592592592597,17.28813559322034,8.977777777777774,18.305084745762713,10.853333333333332C19.322033898305087,12.728888888888886,20.338983050847457,16.240000000000002,21.35593220338983,16.240000000000002C22.372881355932204,16.240000000000002,23.389830508474574,8.736296296296295,24.406779661016948,6.186666666666665C25.423728813559322,3.6370370370370324,26.440677966101696,0.9422222222222221,27.45762711864407,0.9422222222222221C28.47457627118644,0.9422222222222221,29.491525423728813,2.465185185185189,30.508474576271183,4.168888888888889C31.525423728813557,5.872592592592593,32.54237288135593,11.164444444444444,33.559322033898304,11.164444444444444C34.57627118644068,11.164444444444444,35.59322033898305,7.093333333333334,36.610169491525426,7.093333333333334C37.6271186440678,7.093333333333334,38.644067796610166,12.718518518518517,39.66101694915254,14.373333333333331C40.67796610169491,16.02814814814815,41.69491525423729,17.022222222222222,42.71186440677966,17.022222222222222C43.728813559322035,17.022222222222222,44.7457627118644,12.287407407407407,45.762711864406775,10.41777777777778C46.77966101694915,8.548148148148146,47.79661016949152,5.804444444444443,48.813559322033896,5.804444444444443C49.83050847457627,5.804444444444443,50.847457627118644,8.177777777777777,51.86440677966102,8.177777777777777C52.88135593220339,8.177777777777777,53.898305084745765,7.4577777777777765,54.91525423728814,7.4577777777777765C55.93220338983051,7.4577777777777765,56.94915254237288,8.355555555555556,57.96610169491525,8.355555555555556C58.983050847457626,8.355555555555556,59.99999999999999,7.902222222222224,61.01694915254237,7.902222222222224C62.03389830508474,7.902222222222224,63.05084745762712,17.413333333333334,64.0677966101695,17.413333333333334C65.08474576271186,17.413333333333334,66.10169491525424,15.14962962962962,67.11864406779661,13.191111111111109C68.13559322033899,11.232592592592589,69.15254237288136,5.662222222222222,70.16949152542374,5.662222222222222C71.1864406779661,5.662222222222222,72.20338983050848,11.591111111111108,73.22033898305085,13.119999999999997C74.23728813559322,14.648888888888887,75.2542372881356,14.737777777777776,76.27118644067797,15.413333333333332C77.28813559322033,16.08888888888889,78.30508474576271,15.999999999999998,79.32203389830508,17.173333333333332C80.33898305084746,18.34666666666667,81.35593220338983,26.568888888888893,82.37288135593221,26.568888888888893C83.38983050847457,26.568888888888893,84.40677966101696,25.65925925925925,85.42372881355932,23.857777777777777C86.4406779661017,22.056296296296296,87.45762711864407,17.300740740740757,88.47457627118645,15.760000000000002C89.49152542372882,14.219259259259259,90.50847457627118,13.448888888888888,91.52542372881355,13.448888888888888C92.54237288135593,13.448888888888888,93.55932203389831,18.862222222222222,94.57627118644069,18.862222222222222C95.59322033898306,18.862222222222222,96.61016949152543,17.902222222222225,97.62711864406779,17.902222222222225C98.64406779661016,17.902222222222225,99.66101694915254,18.462222222222223,100.6779661016949,19.58222222222222C101.69491525423729,20.702222222222222,102.71186440677965,25.84,103.72881355932203,25.84C104.7457627118644,25.84,105.76271186440678,25.374814814814815,106.77966101694915,24.444444444444446C107.79661016949153,23.514074074074074,108.8135593220339,20.70518518518519,109.83050847457628,20.053333333333335C110.84745762711864,19.401481481481483,111.86440677966102,19.075555555555557,112.88135593220339,19.075555555555557C113.89830508474576,19.075555555555557,114.91525423728814,19.659259259259258,115.9322033898305,20.826666666666664C116.94915254237289,21.994074074074074,117.96610169491525,27.28592592592592,118.98305084745763,28.09777777777778C120,28.90962962962963,121.01694915254237,28.880000000000003,122.03389830508473,29.315555555555555C123.05084745762711,29.751111111111115,124.0677966101695,30.56888888888889,125.08474576271188,30.711111111111112C126.10169491525424,30.85333333333333,127.11864406779662,30.924444444444443,128.135593220339,30.924444444444443C129.15254237288136,30.924444444444443,130.16949152542372,28.73777777777778,131.1864406779661,28.73777777777778C132.20338983050846,28.73777777777778,133.22033898305085,31.635555555555555,134.23728813559322,31.635555555555555C135.25423728813558,31.635555555555555,136.27118644067798,31.401481481481483,137.28813559322035,30.933333333333334C138.3050847457627,30.465185185185184,139.3220338983051,28.906666666666677,140.33898305084747,27.573333333333334C141.35593220338984,26.240000000000006,142.3728813559322,22.93333333333333,143.38983050847457,22.93333333333333C144.40677966101694,22.93333333333333,145.42372881355934,24.77925925925926,146.4406779661017,25.44C147.45762711864407,26.100740740740736,148.47457627118644,26.897777777777776,149.4915254237288,26.897777777777776C150.50847457627117,26.897777777777776,151.52542372881356,23.022222222222226,152.54237288135593,23.022222222222226C153.5593220338983,23.022222222222226,154.5762711864407,23.72148148148148,155.59322033898306,24.23111111111111C156.61016949152543,24.74074074074074,157.6271186440678,25.583703703703705,158.64406779661016,26.080000000000002C159.66101694915253,26.576296296296302,160.67796610169492,27.208888888888893,161.6949152542373,27.208888888888893C162.71186440677965,27.208888888888893,163.72881355932205,25.48444444444445,164.74576271186442,25.48444444444445C165.76271186440678,25.48444444444445,166.77966101694915,31.53777777777778,167.79661016949152,31.53777777777778C168.81355932203388,31.53777777777778,169.83050847457628,31.044444444444448,170.84745762711864,30.195555555555558C171.864406779661,29.346666666666668,172.8813559322034,26.509629629629625,173.89830508474577,26.444444444444443C174.91525423728814,26.37925925925926,175.93220338983053,26.34666666666667,176.9491525423729,26.34666666666667C177.96610169491527,26.34666666666667,178.98305084745763,27.13777777777778,180,27.928888888888892L180,40C178.98305084745763,40,177.96610169491527,40,176.9491525423729,40C175.93220338983053,40,174.91525423728814,40,173.89830508474577,40C172.8813559322034,40,171.864406779661,40,170.84745762711864,40C169.83050847457628,40,168.81355932203388,40,167.79661016949152,40C166.77966101694915,40,165.76271186440678,40,164.74576271186442,40C163.72881355932205,40,162.71186440677965,40,161.6949152542373,40C160.67796610169492,40,159.66101694915253,40,158.64406779661016,40C157.6271186440678,40,156.61016949152543,40,155.59322033898306,40C154.5762711864407,40,153.5593220338983,40,152.54237288135593,40C151.52542372881356,40,150.50847457627117,40,149.4915254237288,40C148.47457627118644,40,147.45762711864407,40,146.4406779661017,40C145.42372881355934,40,144.40677966101694,40,143.38983050847457,40C142.3728813559322,40,141.35593220338984,40,140.33898305084747,40C139.3220338983051,40,138.3050847457627,40,137.28813559322035,40C136.27118644067798,40,135.25423728813558,40,134.23728813559322,40C133.22033898305085,40,132.20338983050846,40,131.1864406779661,40C130.16949152542372,40,129.15254237288136,40,128.135593220339,40C127.11864406779662,40,126.10169491525424,40,125.08474576271188,40C124.0677966101695,40,123.05084745762711,40,122.03389830508473,40C121.01694915254237,40,120,40,118.98305084745763,40C117.96610169491525,40,116.94915254237289,40,115.9322033898305,40C114.91525423728814,40,113.89830508474576,40,112.88135593220339,40C111.86440677966102,40,110.84745762711864,40,109.83050847457628,40C108.8135593220339,40,107.79661016949153,40,106.77966101694915,40C105.76271186440678,40,104.7457627118644,40,103.72881355932203,40C102.71186440677965,40,101.69491525423729,40,100.6779661016949,40C99.66101694915254,40,98.64406779661016,40,97.62711864406779,40C96.61016949152543,40,95.59322033898306,40,94.57627118644069,40C93.55932203389831,40,92.54237288135593,40,91.52542372881355,40C90.50847457627118,40,89.49152542372882,40,88.47457627118645,40C87.45762711864407,40,86.4406779661017,40,85.42372881355932,40C84.40677966101696,40,83.38983050847457,40,82.37288135593221,40C81.35593220338983,40,80.33898305084746,40,79.32203389830508,40C78.30508474576271,40,77.28813559322033,40,76.27118644067797,40C75.2542372881356,40,74.23728813559322,40,73.22033898305085,40C72.20338983050848,40,71.1864406779661,40,70.16949152542374,40C69.15254237288136,40,68.13559322033899,40,67.11864406779661,40C66.10169491525424,40,65.08474576271186,40,64.0677966101695,40C63.05084745762712,40,62.03389830508474,40,61.01694915254237,40C59.99999999999999,40,58.983050847457626,40,57.96610169491525,40C56.94915254237288,40,55.93220338983051,40,54.91525423728814,40C53.898305084745765,40,52.88135593220339,40,51.86440677966102,40C50.847457627118644,40,49.83050847457627,40,48.813559322033896,40C47.79661016949152,40,46.77966101694915,40,45.762711864406775,40C44.7457627118644,40,43.728813559322035,40,42.71186440677966,40C41.69491525423729,40,40.67796610169491,40,39.66101694915254,40C38.644067796610166,40,37.6271186440678,40,36.610169491525426,40C35.59322033898305,40,34.57627118644068,40,33.559322033898304,40C32.54237288135593,40,31.525423728813557,40,30.508474576271183,40C29.491525423728813,40,28.47457627118644,40,27.45762711864407,40C26.440677966101696,40,25.423728813559322,40,24.406779661016948,40C23.389830508474574,40,22.372881355932204,40,21.35593220338983,40C20.338983050847457,40,19.322033898305087,40,18.305084745762713,40C17.28813559322034,40,16.271186440677965,40,15.254237288135592,40C14.23728813559322,40,13.220338983050846,40,12.203389830508474,40C11.186440677966102,40,10.169491525423728,40,9.152542372881356,40C8.135593220338983,40,7.11864406779661,40,6.101694915254237,40C5.084745762711864,40,4.067796610169491,40,3.0508474576271185,40C2.0338983050847457,40,1.0169491525423728,40,0,40Z"></path><path class="line" stroke="black" fill="none" d="M0,25.546666666666667C1.0169491525423728,24.82,2.0338983050847457,24.09333333333333,3.0508474576271185,21.208888888888886C4.067796610169491,18.324444444444442,5.084745762711864,11.248888888888887,6.101694915254237,8.239999999999998C7.11864406779661,5.23111111111111,8.135593220338983,3.155555555555556,9.152542372881356,3.155555555555556C10.169491525423728,3.155555555555556,11.186440677966102,3.202962962962963,12.203389830508474,3.2977777777777773C13.220338983050846,3.3925925925925915,14.23728813559322,3.8607407407407406,15.254237288135592,4.986666666666668C16.271186440677965,6.112592592592597,17.28813559322034,8.977777777777774,18.305084745762713,10.853333333333332C19.322033898305087,12.728888888888886,20.338983050847457,16.240000000000002,21.35593220338983,16.240000000000002C22.372881355932204,16.240000000000002,23.389830508474574,8.736296296296295,24.406779661016948,6.186666666666665C25.423728813559322,3.6370370370370324,26.440677966101696,0.9422222222222221,27.45762711864407,0.9422222222222221C28.47457627118644,0.9422222222222221,29.491525423728813,2.465185185185189,30.508474576271183,4.168888888888889C31.525423728813557,5.872592592592593,32.54237288135593,11.164444444444444,33.559322033898304,11.164444444444444C34.57627118644068,11.164444444444444,35.59322033898305,7.093333333333334,36.610169491525426,7.093333333333334C37.6271186440678,7.093333333333334,38.644067796610166,12.718518518518517,39.66101694915254,14.373333333333331C40.67796610169491,16.02814814814815,41.69491525423729,17.022222222222222,42.71186440677966,17.022222222222222C43.728813559322035,17.022222222222222,44.7457627118644,12.287407407407407,45.762711864406775,10.41777777777778C46.77966101694915,8.548148148148146,47.79661016949152,5.804444444444443,48.813559322033896,5.804444444444443C49.83050847457627,5.804444444444443,50.847457627118644,8.177777777777777,51.86440677966102,8.177777777777777C52.88135593220339,8.177777777777777,53.898305084745765,7.4577777777777765,54.91525423728814,7.4577777777777765C55.93220338983051,7.4577777777777765,56.94915254237288,8.355555555555556,57.96610169491525,8.355555555555556C58.983050847457626,8.355555555555556,59.99999999999999,7.902222222222224,61.01694915254237,7.902222222222224C62.03389830508474,7.902222222222224,63.05084745762712,17.413333333333334,64.0677966101695,17.413333333333334C65.08474576271186,17.413333333333334,66.10169491525424,15.14962962962962,67.11864406779661,13.191111111111109C68.13559322033899,11.232592592592589,69.15254237288136,5.662222222222222,70.16949152542374,5.662222222222222C71.1864406779661,5.662222222222222,72.20338983050848,11.591111111111108,73.22033898305085,13.119999999999997C74.23728813559322,14.648888888888887,75.2542372881356,14.737777777777776,76.27118644067797,15.413333333333332C77.28813559322033,16.08888888888889,78.30508474576271,15.999999999999998,79.32203389830508,17.173333333333332C80.33898305084746,18.34666666666667,81.35593220338983,26.568888888888893,82.37288135593221,26.568888888888893C83.38983050847457,26.568888888888893,84.40677966101696,25.65925925925925,85.42372881355932,23.857777777777777C86.4406779661017,22.056296296296296,87.45762711864407,17.300740740740757,88.47457627118645,15.760000000000002C89.49152542372882,14.219259259259259,90.50847457627118,13.448888888888888,91.52542372881355,13.448888888888888C92.54237288135593,13.448888888888888,93.55932203389831,18.862222222222222,94.57627118644069,18.862222222222222C95.59322033898306,18.862222222222222,96.61016949152543,17.902222222222225,97.62711864406779,17.902222222222225C98.64406779661016,17.902222222222225,99.66101694915254,18.462222222222223,100.6779661016949,19.58222222222222C101.69491525423729,20.702222222222222,102.71186440677965,25.84,103.72881355932203,25.84C104.7457627118644,25.84,105.76271186440678,25.374814814814815,106.77966101694915,24.444444444444446C107.79661016949153,23.514074074074074,108.8135593220339,20.70518518518519,109.83050847457628,20.053333333333335C110.84745762711864,19.401481481481483,111.86440677966102,19.075555555555557,112.88135593220339,19.075555555555557C113.89830508474576,19.075555555555557,114.91525423728814,19.659259259259258,115.9322033898305,20.826666666666664C116.94915254237289,21.994074074074074,117.96610169491525,27.28592592592592,118.98305084745763,28.09777777777778C120,28.90962962962963,121.01694915254237,28.880000000000003,122.03389830508473,29.315555555555555C123.05084745762711,29.751111111111115,124.0677966101695,30.56888888888889,125.08474576271188,30.711111111111112C126.10169491525424,30.85333333333333,127.11864406779662,30.924444444444443,128.135593220339,30.924444444444443C129.15254237288136,30.924444444444443,130.16949152542372,28.73777777777778,131.1864406779661,28.73777777777778C132.20338983050846,28.73777777777778,133.22033898305085,31.635555555555555,134.23728813559322,31.635555555555555C135.25423728813558,31.635555555555555,136.27118644067798,31.401481481481483,137.28813559322035,30.933333333333334C138.3050847457627,30.465185185185184,139.3220338983051,28.906666666666677,140.33898305084747,27.573333333333334C141.35593220338984,26.240000000000006,142.3728813559322,22.93333333333333,143.38983050847457,22.93333333333333C144.40677966101694,22.93333333333333,145.42372881355934,24.77925925925926,146.4406779661017,25.44C147.45762711864407,26.100740740740736,148.47457627118644,26.897777777777776,149.4915254237288,26.897777777777776C150.50847457627117,26.897777777777776,151.52542372881356,23.022222222222226,152.54237288135593,23.022222222222226C153.5593220338983,23.022222222222226,154.5762711864407,23.72148148148148,155.59322033898306,24.23111111111111C156.61016949152543,24.74074074074074,157.6271186440678,25.583703703703705,158.64406779661016,26.080000000000002C159.66101694915253,26.576296296296302,160.67796610169492,27.208888888888893,161.6949152542373,27.208888888888893C162.71186440677965,27.208888888888893,163.72881355932205,25.48444444444445,164.74576271186442,25.48444444444445C165.76271186440678,25.48444444444445,166.77966101694915,31.53777777777778,167.79661016949152,31.53777777777778C168.81355932203388,31.53777777777778,169.83050847457628,31.044444444444448,170.84745762711864,30.195555555555558C171.864406779661,29.346666666666668,172.8813559322034,26.509629629629625,173.89830508474577,26.444444444444443C174.91525423728814,26.37925925925926,175.93220338983053,26.34666666666667,176.9491525423729,26.34666666666667C177.96610169491527,26.34666666666667,178.98305084745763,27.13777777777778,180,27.928888888888892"></path><path class="axis-ceiling" stroke-width="1" stroke="black" fill="none" d="M175,0L180,0"></path><text class="axis-ceiling-label" font-family="sans-serif" text-anchor="end" font-size="10px" x="170" y="2.5">4500</text></g></svg>