<svg xmlns="http://www.w3.org/2000/svg" viewBox="0 0 180 60"><g transform="translate(0,20)"><path class="area" fill="rgba(0, 0, 0, 0.2)" d="M0,29.714285714285715C1.0344827586206897,20,2.068965517241379,10.285714285714285,3.103448275862069,10.285714285714285C4.137931034482759,10.285714285714285,5.172413793103448,13.714285714285714,6.206896551724138,14.857142857142858C7.241379310344827,16,8.275862068965516,15.809523809523814,9.310344827586206,17.142857142857146C10.344827586206897,18.476190476190478,11.379310344827585,22.857142857142854,12.413793103448276,22.857142857142854C13.448275862068966,22.857142857142854,14.482758620689655,19.42857142857143,15.517241379310345,19.42857142857143C16.551724137931036,19.42857142857143,17.586206896551722,34.28571428571429,18.620689655172413,34.28571428571429C19.655172413793103,34.28571428571429,20.689655172413794,25.142857142857142,21.724137931034484,25.142857142857142C22.758620689655174,25.142857142857142,23.79310344827586,27.809523809523814,24.82758620689655,28.571428571428573C25.862068965517242,29.333333333333336,26.896551724137932,29.714285714285715,27.931034482758623,29.714285714285715C28.965517241379313,29.714285714285715,30,24,31.03448275862069,24C32.06896551724138,24,33.103448275862064,29.714285714285715,34.137931034482754,29.714285714285715C35.172413793103445,29.714285714285715,36.206896551724135,26.285714285714285,37.241379310344826,26.285714285714285C38.275862068965516,26.285714285714285,39.310344827586206,26.857142857142858,40.3448275862069,27.42857142857143C41.37931034482759,28.000000000000004,42.41379310344828,28.952380952380953,43.44827586206897,29.714285714285715C44.48275862068966,30.476190476190478,45.51724137931035,32,46.55172413793104,32C47.58620689655173,32,48.62068965517241,21.714285714285715,49.6551724137931,21.714285714285715C50.689655172413794,21.714285714285715,51.72413793103448,34.28571428571429,52.75862068965517,34.28571428571429C53.79310344827586,34.28571428571429,54.827586206896555,32.76190476190477,55.862068965517246,30.857142857142858C56.896551724137936,28.952380952380953,57.93103448275862,22.857142857142854,58.96551724137931,22.857142857142854C60,22.857142857142854,61.03448275862069,30.857142857142858,62.06896551724138,30.857142857142858C63.10344827586207,30.857142857142858,64.13793103448276,24,65.17241379310344,24C66.20689655172413,24,67.24137931034483,25.142857142857142,68.27586206896551,25.142857142857142C69.3103448275862,25.142857142857142,70.34482758620689,25.142857142857142,71.37931034482759,25.142857142857142C72.41379310344827,25.142857142857142,73.44827586206897,30.857142857142858,74.48275862068965,30.857142857142858C75.51724137931033,30.857142857142858,76.55172413793103,28.190476190476183,77.58620689655172,26.285714285714285C78.62068965517241,24.380952380952376,79.6551724137931,19.42857142857143,80.6896551724138,19.42857142857143C81.72413793103448,19.42857142857143,82.75862068965517,32.76190476190478,83.79310344827586,34.28571428571429C84.82758620689656,35.80952380952381,85.86206896551724,36.57142857142857,86.89655172413794,36.57142857142857C87.93103448275862,36.57142857142857,88.96551724137932,30.09523809523809,90,27.42857142857143C91.0344827586207,24.761904761904756,92.06896551724138,23.428571428571445,93.10344827586208,20.57142857142857C94.13793103448276,17.71428571428572,95.17241379310344,10.285714285714285,96.20689655172413,10.285714285714285C97.24137931034483,10.285714285714285,98.27586206896551,20.57142857142857,99.3103448275862,24C100.3448275862069,27.42857142857143,101.37931034482759,30.857142857142858,102.41379310344828,30.857142857142858C103.44827586206897,30.857142857142858,104.48275862068965,25.142857142857142,105.51724137931033,25.142857142857142C106.55172413793103,25.142857142857142,107.58620689655172,25.142857142857142,108.62068965517241,25.142857142857142C109.65517241379311,25.142857142857142,110.6896551724138,3.4285714285714297,111.72413793103449,3.4285714285714297C112.75862068965517,3.4285714285714297,113.79310344827587,30.857142857142858,114.82758620689656,30.857142857142858C115.86206896551724,30.857142857142858,116.89655172413794,25.142857142857142,117.93103448275862,25.142857142857142C118.96551724137932,25.142857142857142,120,26.66666666666666,121.0344827586207,28.571428571428573C122.06896551724138,30.476190476190474,123.10344827586208,36.57142857142857,124.13793103448276,36.57142857142857C125.17241379310344,36.57142857142857,126.20689655172414,34.28571428571429,127.24137931034483,34.28571428571429C128.27586206896552,34.28571428571429,129.3103448275862,36.57142857142857,130.3448275862069,36.57142857142857C131.3793103448276,36.57142857142857,132.41379310344828,27.42857142857143,133.44827586206898,27.42857142857143C134.48275862068965,27.42857142857143,135.51724137931035,33.14285714285714,136.55172413793102,33.14285714285714C137.58620689655172,33.14285714285714,138.6206896551724,27.42857142857143,139.6551724137931,27.42857142857143C140.6896551724138,27.42857142857143,141.72413793103448,30.857142857142858,142.75862068965517,32C143.79310344827587,33.142857142857146,144.82758620689654,34.28571428571429,145.86206896551724,34.28571428571429C146.89655172413794,34.28571428571429,147.9310344827586,32,148.9655172413793,32C150,32,151.0344827586207,33.14285714285714,152.0689655172414,33.14285714285714C153.10344827586206,33.14285714285714,154.13793103448276,32,155.17241379310343,32C156.20689655172413,32,157.24137931034483,32,158.27586206896552,32C159.31034482758622,32,160.3448275862069,32,161.3793103448276,32C162.41379310344828,32,163.44827586206895,34.28571428571429,164.48275862068965,34.28571428571429C165.51724137931035,34.28571428571429,166.55172413793102,33.14285714285714,167.58620689655172,33.14285714285714C168.6206896551724,33.14285714285714,169.6551724137931,36.57142857142857,170.6896551724138,36.57142857142857C171.7241379310345,36.57142857142857,172.75862068965517,35.047619047619044,173.79310344827587,33.14285714285714C174.82758620689657,31.238095238095234,175.86206896551724,27.238095238095237,176.89655172413794,25.142857142857142C177.93103448275863,23.047619047619047,178.9655172413793,21.809523809523807,180,20.57142857142857L180,40C178.9655172413793,40,177.93103448275863,40,176.89655172413794,40C175.86206896551724,40,174.82758620689657,40,173.79310344827587,40C172.75862068965517,40,171.7241379310345,40,170.6896551724138,40C169.6551724137931,40,168.6206896551724,40,167.58620689655172,40C166.55172413793102,40,165.51724137931035,40,164.48275862068965,40C163.44827586206895,40,162.41379310344828,40,161.3793103448276,40C160.3448275862069,40,159.31034482758622,40,158.27586206896552,40C157.24137931034483,40,156.20689655172413,40,155.17241379310343,40C154.13793103448276,40,153.10344827586206,40,152.0689655172414,40C151.0344827586207,40,150,40,148.9655172413793,40C147.9310344827586,40,146.89655172413794,40,145.86206896551724,40C144.82758620689654,40,143.79310344827587,40,142.75862068965517,40C141.72413793103448,40,140.6896551724138,40,139.6551724137931,40C138.6206896551724,40,137.58620689655172,40,136.55172413793102,40C135.51724137931035,40,134.48275862068965,40,133.44827586206898,40C132.41379310344828,40,131.3793103448276,40,130.3448275862069,40C129.3103448275862,40,128.27586206896552,40,127.24137931034483,40C126.20689655172414,40,125.17241379310344,40,124.13793103448276,40C123.10344827586208,40,122.06896551724138,40,121.0344827586207,40C120,40,118.96551724137932,40,117.93103448275862,40C116.89655172413794,40,115.86206896551724,40,114.82758620689656,40C113.79310344827587,40,112.75862068965517,40,111.72413793103449,40C110.6896551724138,40,109.65517241379311,40,108.62068965517241,40C107.58620689655172,40,106.55172413793103,40,105.51724137931033,40C104.48275862068965,40,103.44827586206897,40,102.41379310344828,40C101.37931034482759,40,100.3448275862069,40,99.3103448275862,40C98.27586206896551,40,97.24137931034483,40,96.20689655172413,40C95.17241379310344,40,94.13793103448276,40,93.10344827586208,40C92.06896551724138,40,91.0344827586207,40,90,40C88.96551724137932,40,87.93103448275862,40,86.89655172413794,40C85.86206896551724,40,84.82758620689656,40,83.79310344827586,40C82.75862068965517,40,81.72413793103448,40,80.6896551724138,40C79.6551724137931,40,78.62068965517241,40,77.58620689655172,40C76.55172413793103,40,75.51724137931033,40,74.48275862068965,40C73.44827586206897,40,72.41379310344827,40,71.37931034482759,40C70.34482758620689,40,69.3103448275862,40,68.27586206896551,40C67.24137931034483,40,66.20689655172413,40,65.17241379310344,40C64.13793103448276,40,63.10344827586207,40,62.06896551724138,40C61.03448275862069,40,60,40,58.96551724137931,40C57.93103448275862,40,56.896551724137936,40,55.862068965517246,40C54.827586206896555,40,53.79310344827586,40,52.75862068965517,40C51.72413793103448,40,50.689655172413794,40,49.6551724137931,40C48.62068965517241,40,47.58620689655173,40,46.55172413793104,40C45.51724137931035,40,44.48275862068966,40,43.44827586206897,40C42.41379310344828,40,41.37931034482759,40,40.3448275862069,40C39.310344827586206,40,38.275862068965516,40,37.241379310344826,40C36.206896551724135,40,35.172413793103445,40,34.137931034482754,40C33.103448275862064,40,32.06896551724138,40,31.03448275862069,40C30,40,28.965517241379313,40,27.931034482758623,40C26.896551724137932,40,25.862068965517242,40,24.82758620689655,40C23.79310344827586,40,22.758620689655174,40,21.724137931034484,40C20.689655172413794,40,19.655172413793103,40,18.620689655172413,40C17.586206896551722,40,16.551724137931036,40,15.517241379310345,40C14.482758620689655,40,13.448275862068966,40,12.413793103448276,40C11.379310344827585,40,10.344827586206897,40,9.310344827586206,40C8.275862068965516,40,7.241379310344827,40,6.206896551724138,40C5.172413793103448,40,4.137931034482759,40,3.103448275862069,40C2.068965517241379,40,1.0344827586206897,40,0,40Z"></path><path class="line" stroke="black" fill="none" d="M0,29.714285714285715C1.0344827586206897,20,2.068965517241379,10.285714285714285,3.103448275862069,10.285714285714285C4.137931034482759,10.285714285714285,5.172413793103448,13.714285714285714,6.206896551724138,14.857142857142858C7.241379310344827,16,8.275862068965516,15.809523809523814,9.310344827586206,17.142857142857146C10.344827586206897,18.476190476190478,11.379310344827585,22.857142857142854,12.413793103448276,22.857142857142854C13.448275862068966,22.857142857142854,14.482758620689655,19.42857142857143,15.517241379310345,19.42857142857143C16.551724137931036,19.42857142857143,17.586206896551722,34.28571428571429,18.620689655172413,34.28571428571429C19.655172413793103,34.28571428571429,20.689655172413794,25.142857142857142,21.724137931034484,25.142857142857142C22.758620689655174,25.142857142857142,23.79310344827586,27.809523809523814,24.82758620689655,28.571428571428573C25.862068965517242,29.333333333333336,26.896551724137932,29.714285714285715,27.931034482758623,29.714285714285715C28.965517241379313,29.714285714285715,30,24,31.03448275862069,24C32.06896551724138,24,33.103448275862064,29.714285714285715,34.137931034482754,29.714285714285715C35.172413793103445,29.714285714285715,36.206896551724135,26.285714285714285,37.241379310344826,26.285714285714285C38.275862068965516,26.285714285714285,39.310344827586206,26.857142857142858,40.3448275862069,27.42857142857143C41.37931034482759,28.000000000000004,42.41379310344828,28.952380952380953,43.44827586206897,29.714285714285715C44.48275862068966,30.476190476190478,45.51724137931035,32,46.55172413793104,32C47.58620689655173,32,48.62068965517241,21.714285714285715,49.6551724137931,21.714285714285715C50.689655172413794,21.714285714285715,51.72413793103448,34.28571428571429,52.75862068965517,34.28571428571429C53.79310344827586,34.28571428571429,54.827586206896555,32.76190476190477,55.862068965517246,30.857142857142858C56.896551724137936,28.952380952380953,57.93103448275862,22.857142857142854,58.96551724137931,22.857142857142854C60,22.857142857142854,61.03448275862069,30.857142857142858,62.06896551724138,30.857142857142858C63.10344827586207,30.857142857142858,64.13793103448276,24,65.17241379310344,24C66.20689655172413,24,67.24137931034483,25.142857142857142,68.27586206896551,25.142857142857142C69.3103448275862,25.142857142857142,70.34482758620689,25.142857142857142,71.37931034482759,25.142857142857142C72.41379310344827,25.142857142857142,73.44827586206897,30.857142857142858,74.48275862068965,30.857142857142858C75.51724137931033,30.857142857142858,76.55172413793103,28.190476190476183,77.58620689655172,26.285714285714285C78.62068965517241,24.380952380952376,79.6551724137931,19.42857142857143,80.6896551724138,19.42857142857143C81.72413793103448,19.42857142857143,82.75862068965517,32.76190476190478,83.79310344827586,34.28571428571429C84.82758620689656,35.80952380952381,85.86206896551724,36.57142857142857,86.89655172413794,36.57142857142857C87.93103448275862,36.57142857142857,88.96551724137932,30.09523809523809,90,27.42857142857143C91.0344827586207,24.761904761904756,92.06896551724138,23.428571428571445,93.10344827586208,20.57142857142857C94.13793103448276,17.71428571428572,95.17241379310344,10.285714285714285,96.20689655172413,10.285714285714285C97.24137931034483,10.285714285714285,98.27586206896551,20.57142857142857,99.3103448275862,24C100.3448275862069,27.42857142857143,101.37931034482759,30.857142857142858,102.41379310344828,30.857142857142858C103.44827586206897,30.857142857142858,104.48275862068965,25.142857142857142,105.51724137931033,25.142857142857142C106.55172413793103,25.142857142857142,107.58620689655172,25.142857142857142,108.62068965517241,25.142857142857142C109.65517241379311,25.142857142857142,110.6896551724138,3.4285714285714297,111.72413793103449,3.4285714285714297C112.75862068965517,3.4285714285714297,113.79310344827587,30.857142857142858,114.82758620689656,30.857142857142858C115.86206896551724,30.857142857142858,116.89655172413794,25.142857142857142,117.93103448275862,25.142857142857142C118.96551724137932,25.142857142857142,120,26.66666666666666,121.0344827586207,28.571428571428573C122.06896551724138,30.476190476190474,123.10344827586208,36.57142857142857,124.13793103448276,36.57142857142857C125.17241379310344,36.57142857142857,126.20689655172414,34.28571428571429,127.24137931034483,34.28571428571429C128.27586206896552,34.28571428571429,129.3103448275862,36.57142857142857,130.3448275862069,36.57142857142857C131.3793103448276,36.57142857142857,132.41379310344828,27.42857142857143,133.44827586206898,27.42857142857143C134.48275862068965,27.42857142857143,135.51724137931035,33.14285714285714,136.55172413793102,33.14285714285714C137.58620689655172,33.14285714285714,138.6206896551724,27.42857142857143,139.6551724137931,27.42857142857143C140.6896551724138,27.42857142857143,141.72413793103448,30.857142857142858,142.75862068965517,32C143.79310344827587,33.142857142857146,144.82758620689654,34.28571428571429,145.86206896551724,34.28571428571429C146.89655172413794,34.28571428571429,147.9310344827586,32,148.9655172413793,32C150,32,151.0344827586207,33.14285714285714,152.0689655172414,33.14285714285714C153.10344827586206,33.14285714285714,154.13793103448276,32,155.17241379310343,32C156.20689655172413,32,157.24137931034483,32,158.27586206896552,32C159.31034482758622,32,160.3448275862069,32,161.3793103448276,32C162.41379310344828,32,163.44827586206895,34.28571428571429,164.48275862068965,34.28571428571429C165.51724137931035,34.28571428571429,166.55172413793102,33.14285714285714,167.58620689655172,33.14285714285714C168.6206896551724,33.14285714285714,169.6551724137931,36.57142857142857,170.6896551724138,36.57142857142857C171.7241379310345,36.57142857142857,172.75862068965517,35.047619047619044,173.79310344827587,33.14285714285714C174.82758620689657,31.238095238095234,175.86206896551724,27.238095238095237,176.89655172413794,25.142857142857142C177.93103448275863,23.047619047619047,178.9655172413793,21.809523809523807,180,20.57142857142857"></path><path class="axis-ceiling" stroke-width="1" stroke="black" fill="none" d="M175,0L180,0"></path><text class="axis-ceiling-label" font-family="sans-serif" text-anchor="end" font-size="10px" x="170" y="2.5">35</text></g></svg>