<svg xmlns="http://www.w3.org/2000/svg" viewBox="0 0 180 60"><g transform="translate(0,20)"><path class="area" fill="rgba(0, 0, 0, 0.2)" d="M0,39.36C1.0169491525423728,39.36,2.0338983050847457,39.36,3.0508474576271185,39.36C4.067796610169491,39.36,5.084745762711864,39.36,6.101694915254237,39.36C7.11864406779661,39.36,8.135593220338983,39.36,9.152542372881356,39.36C10.169491525423728,39.36,11.186440677966102,39.36,12.203389830508474,39.36C13.220338983050846,39.36,14.23728813559322,39.25333333333334,15.254237288135592,39.2C16.271186440677965,39.14666666666667,17.28813559322034,39.093333333333334,18.305084745762713,39.04C19.322033898305087,38.986666666666665,20.338983050847457,38.879999999999995,21.35593220338983,38.879999999999995C22.372881355932204,38.879999999999995,23.389830508474574,38.879999999999995,24.406779661016948,38.879999999999995C25.423728813559322,38.879999999999995,26.440677966101696,38.72,27.45762711864407,38.72C28.47457627118644,38.72,29.491525423728813,38.72,30.508474576271183,38.72C31.525423728813557,38.72,32.54237288135593,38.56,33.559322033898304,38.56C34.57627118644068,38.56,35.59322033898305,38.56,36.610169491525426,38.56C37.6271186440678,38.56,38.644067796610166,38.56,39.66101694915254,38.56C40.67796610169491,38.56,41.69491525423729,38.72,42.71186440677966,38.72C43.728813559322035,38.72,44.7457627118644,38.56,45.762711864406775,38.56C46.77966101694915,38.56,47.79661016949152,38.56,48.813559322033896,38.56C49.83050847457627,38.56,50.847457627118644,38.4,51.86440677966102,38.4C52.88135593220339,38.4,53.898305084745765,38.4,54.91525423728814,38.4C55.93220338983051,38.4,56.94915254237288,38.29333333333333,57.96610169491525,38.239999999999995C58.983050847457626,38.18666666666666,59.99999999999999,38.08,61.01694915254237,38.08C62.03389830508474,38.08,63.05084745762712,38.08,64.0677966101695,38.08C65.08474576271186,38.08,66.10169491525424,38,67.11864406779661,37.92C68.13559322033899,37.84,69.15254237288136,37.73333333333333,70.16949152542374,37.599999999999994C71.1864406779661,37.46666666666666,72.20338983050848,37.333333333333336,73.22033898305085,37.120000000000005C74.23728813559322,36.90666666666667,75.2542372881356,36.50666666666667,76.27118644067797,36.32C77.28813559322033,36.13333333333333,78.30508474576271,36.21333333333333,79.32203389830508,36C80.33898305084746,35.78666666666667,81.35593220338983,35.333333333333336,82.37288135593221,35.04C83.38983050847457,34.74666666666667,84.40677966101696,34.50666666666667,85.42372881355932,34.24C86.4406779661017,33.973333333333336,87.45762711864407,33.68,88.47457627118645,33.44C89.49152542372882,33.2,90.50847457627118,33.093333333333334,91.52542372881355,32.800000000000004C92.54237288135593,32.50666666666667,93.55932203389831,32.053333333333335,94.57627118644069,31.68C95.59322033898306,31.30666666666667,96.61016949152543,30.933333333333334,97.62711864406779,30.560000000000002C98.64406779661016,30.186666666666667,99.66101694915254,29.73333333333333,100.6779661016949,29.439999999999998C101.69491525423729,29.14666666666666,102.71186440677965,29.173333333333332,103.72881355932203,28.799999999999997C104.7457627118644,28.426666666666662,105.76271186440678,27.65333333333333,106.77966101694915,27.199999999999996C107.79661016949153,26.746666666666663,108.8135593220339,26.293333333333337,109.83050847457628,26.080000000000002C110.84745762711864,25.866666666666667,111.86440677966102,25.866666666666667,112.88135593220339,25.76C113.89830508474576,25.653333333333336,114.91525423728814,25.653333333333336,115.9322033898305,25.44C116.94915254237289,25.226666666666667,117.96610169491525,24.693333333333335,118.98305084745763,24.16C120,23.62666666666667,121.01694915254237,22.826666666666664,122.03389830508473,22.240000000000002C123.05084745762711,21.65333333333333,124.0677966101695,21.120000000000005,125.08474576271188,20.64C126.10169491525424,20.160000000000004,127.11864406779662,19.68,128.135593220339,19.36C129.15254237288136,19.04,130.16949152542372,19.013333333333332,131.1864406779661,18.72C132.20338983050846,18.426666666666666,133.22033898305085,18.106666666666666,134.23728813559322,17.599999999999998C135.25423728813558,17.09333333333333,136.27118644067798,16.186666666666667,137.28813559322035,15.68C138.3050847457627,15.173333333333334,139.3220338983051,15.013333333333335,140.33898305084747,14.559999999999999C141.35593220338984,14.106666666666666,142.3728813559322,13.413333333333329,143.38983050847457,12.959999999999997C144.40677966101694,12.506666666666662,145.42372881355934,12.240000000000004,146.4406779661017,11.840000000000002C147.45762711864407,11.440000000000003,148.47457627118644,10.906666666666666,149.4915254237288,10.56C150.50847457627117,10.213333333333331,151.52542372881356,10.106666666666667,152.54237288135593,9.76C153.5593220338983,9.413333333333332,154.5762711864407,8.906666666666666,155.59322033898306,8.479999999999999C156.61016949152543,8.053333333333335,157.6271186440678,7.413333333333333,158.64406779661016,7.200000000000002C159.66101694915253,6.986666666666668,160.67796610169492,6.880000000000002,161.6949152542373,6.880000000000002C162.71186440677965,6.880000000000002,163.72881355932205,7.360000000000002,164.74576271186442,7.360000000000002C165.76271186440678,7.360000000000002,166.77966101694915,7.200000000000002,167.79661016949152,7.200000000000002C168.81355932203388,7.200000000000002,169.83050847457628,8.319999999999999,170.84745762711864,8.319999999999999C171.864406779661,8.319999999999999,172.8813559322034,8.159999999999998,173.89830508474577,8.159999999999998C174.91525423728814,8.159999999999998,175.93220338983053,9.013333333333328,176.9491525423729,9.6C177.96610169491527,10.186666666666666,178.98305084745763,10.933333333333334,180,11.680000000000001L180,40C178.98305084745763,40,177.96610169491527,40,176.9491525423729,40C175.93220338983053,40,174.91525423728814,40,173.89830508474577,40C172.8813559322034,40,171.864406779661,40,170.84745762711864,40C169.83050847457628,40,168.81355932203388,40,167.79661016949152,40C166.77966101694915,40,165.76271186440678,40,164.74576271186442,40C163.72881355932205,40,162.71186440677965,40,161.6949152542373,40C160.67796610169492,40,159.66101694915253,40,158.64406779661016,40C157.6271186440678,40,156.61016949152543,40,155.59322033898306,40C154.5762711864407,40,153.5593220338983,40,152.54237288135593,40C151.52542372881356,40,150.50847457627117,40,149.4915254237288,40C148.47457627118644,40,147.45762711864407,40,146.4406779661017,40C145.42372881355934,40,144.40677966101694,40,143.38983050847457,40C142.3728813559322,40,141.35593220338984,40,140.33898305084747,40C139.3220338983051,40,138.3050847457627,40,137.28813559322035,40C136.27118644067798,40,135.25423728813558,40,134.23728813559322,40C133.22033898305085,40,132.20338983050846,40,131.1864406779661,40C130.16949152542372,40,129.15254237288136,40,128.135593220339,40C127.11864406779662,40,126.10169491525424,40,125.08474576271188,40C124.0677966101695,40,123.05084745762711,40,122.03389830508473,40C121.01694915254237,40,120,40,118.98305084745763,40C117.96610169491525,40,116.94915254237289,40,115.9322033898305,40C114.91525423728814,40,113.89830508474576,40,112.88135593220339,40C111.86440677966102,40,110.84745762711864,40,109.83050847457628,40C108.8135593220339,40,107.79661016949153,40,106.77966101694915,40C105.76271186440678,40,104.7457627118644,40,103.72881355932203,40C102.71186440677965,40,101.69491525423729,40,100.6779661016949,40C99.66101694915254,40,98.64406779661016,40,97.62711864406779,40C96.61016949152543,40,95.59322033898306,40,94.57627118644069,40C93.55932203389831,40,92.54237288135593,40,91.52542372881355,40C90.50847457627118,40,89.49152542372882,40,88.47457627118645,40C87.45762711864407,40,86.4406779661017,40,85.42372881355932,40C84.40677966101696,40,83.38983050847457,40,82.37288135593221,40C81.35593220338983,40,80.33898305084746,40,79.32203389830508,40C78.30508474576271,40,77.28813559322033,40,76.27118644067797,40C75.2542372881356,40,74.23728813559322,40,73.22033898305085,40C72.20338983050848,40,71.1864406779661,40,70.16949152542374,40C69.15254237288136,40,68.13559322033899,40,67.11864406779661,40C66.10169491525424,40,65.08474576271186,40,64.0677966101695,40C63.05084745762712,40,62.03389830508474,40,61.01694915254237,40C59.99999999999999,40,58.983050847457626,40,57.96610169491525,40C56.94915254237288,40,55.93220338983051,40,54.91525423728814,40C53.898305084745765,40,52.88135593220339,40,51.86440677966102,40C50.847457627118644,40,49.83050847457627,40,48.813559322033896,40C47.79661016949152,40,46.77966101694915,40,45.762711864406775,40C44.7457627118644,40,43.728813559322035,40,42.71186440677966,40C41.69491525423729,40,40.67796610169491,40,39.66101694915254,40C38.644067796610166,40,37.6271186440678,40,36.610169491525426,40C35.59322033898305,40,34.57627118644068,40,33.559322033898304,40C32.54237288135593,40,31.525423728813557,40,30.508474576271183,40C29.491525423728813,40,28.47457627118644,40,27.45762711864407,40C26.440677966101696,40,25.423728813559322,40,24.406779661016948,40C23.389830508474574,40,22.372881355932204,40,21.35593220338983,40C20.338983050847457,40,19.322033898305087,40,18.305084745762713,40C17.28813559322034,40,16.271186440677965,40,15.254237288135592,40C14.23728813559322,40,13.220338983050846,40,12.203389830508474,40C11.186440677966102,40,10.169491525423728,40,9.152542372881356,40C8.135593220338983,40,7.11864406779661,40,6.101694915254237,40C5.084745762711864,40,4.067796610169491,40,3.0508474576271185,40C2.0338983050847457,40,1.0169491525423728,40,0,40Z"></path><path class="line" stroke="black" fill="none" d="M0,39.36C1.0169491525423728,39.36,2.0338983050847457,39.36,3.0508474576271185,39.36C4.067796610169491,39.36,5.084745762711864,39.36,6.101694915254237,39.36C7.11864406779661,39.36,8.135593220338983,39.36,9.152542372881356,39.36C10.169491525423728,39.36,11.186440677966102,39.36,12.203389830508474,39.36C13.220338983050846,39.36,14.23728813559322,39.25333333333334,15.254237288135592,39.2C16.271186440677965,39.14666666666667,17.28813559322034,39.093333333333334,18.305084745762713,39.04C19.322033898305087,38.986666666666665,20.338983050847457,38.879999999999995,21.35593220338983,38.879999999999995C22.372881355932204,38.879999999999995,23.389830508474574,38.879999999999995,24.406779661016948,38.879999999999995C25.423728813559322,38.879999999999995,26.440677966101696,38.72,27.45762711864407,38.72C28.47457627118644,38.72,29.491525423728813,38.72,30.508474576271183,38.72C31.525423728813557,38.72,32.54237288135593,38.56,33.559322033898304,38.56C34.57627118644068,38.56,35.59322033898305,38.56,36.610169491525426,38.56C37.6271186440678,38.56,38.644067796610166,38.56,39.66101694915254,38.56C40.67796610169491,38.56,41.69491525423729,38.72,42.71186440677966,38.72C43.728813559322035,38.72,44.7457627118644,38.56,45.762711864406775,38.56C46.77966101694915,38.56,47.79661016949152,38.56,48.813559322033896,38.56C49.83050847457627,38.56,50.847457627118644,38.4,51.86440677966102,38.4C52.88135593220339,38.4,53.898305084745765,38.4,54.91525423728814,38.4C55.93220338983051,38.4,56.94915254237288,38.29333333333333,57.96610169491525,38.239999999999995C58.983050847457626,38.18666666666666,59.99999999999999,38.08,61.01694915254237,38.08C62.03389830508474,38.08,63.05084745762712,38.08,64.0677966101695,38.08C65.08474576271186,38.08,66.10169491525424,38,67.11864406779661,37.92C68.13559322033899,37.84,69.15254237288136,37.73333333333333,70.16949152542374,37.599999999999994C71.1864406779661,37.46666666666666,72.20338983050848,37.333333333333336,73.22033898305085,37.120000000000005C74.23728813559322,36.90666666666667,75.2542372881356,36.50666666666667,76.27118644067797,36.32C77.28813559322033,36.13333333333333,78.30508474576271,36.21333333333333,79.32203389830508,36C80.33898305084746,35.78666666666667,81.35593220338983,35.333333333333336,82.37288135593221,35.04C83.38983050847457,34.74666666666667,84.40677966101696,34.50666666666667,85.42372881355932,34.24C86.4406779661017,33.973333333333336,87.45762711864407,33.68,88.47457627118645,33.44C89.49152542372882,33.2,90.50847457627118,33.093333333333334,91.52542372881355,32.800000000000004C92.54237288135593,32.50666666666667,93.55932203389831,32.053333333333335,94.57627118644069,31.68C95.59322033898306,31.30666666666667,96.61016949152543,30.933333333333334,97.62711864406779,30.560000000000002C98.64406779661016,30.186666666666667,99.66101694915254,29.73333333333333,100.6779661016949,29.439999999999998C101.69491525423729,29.14666666666666,102.71186440677965,29.173333333333332,103.72881355932203,28.799999999999997C104.7457627118644,28.426666666666662,105.76271186440678,27.65333333333333,106.77966101694915,27.199999999999996C107.79661016949153,26.746666666666663,108.8135593220339,26.293333333333337,109.83050847457628,26.080000000000002C110.84745762711864,25.866666666666667,111.86440677966102,25.866666666666667,112.88135593220339,25.76C113.89830508474576,25.653333333333336,114.91525423728814,25.653333333333336,115.9322033898305,25.44C116.94915254237289,25.226666666666667,117.96610169491525,24.693333333333335,118.98305084745763,24.16C120,23.62666666666667,121.01694915254237,22.826666666666664,122.03389830508473,22.240000000000002C123.05084745762711,21.65333333333333,124.0677966101695,21.120000000000005,125.08474576271188,20.64C126.10169491525424,20.160000000000004,127.11864406779662,19.68,128.135593220339,19.36C129.15254237288136,19.04,130.16949152542372,19.013333333333332,131.1864406779661,18.72C132.20338983050846,18.426666666666666,133.22033898305085,18.106666666666666,134.23728813559322,17.599999999999998C135.25423728813558,17.09333333333333,136.27118644067798,16.186666666666667,137.28813559322035,15.68C138.3050847457627,15.173333333333334,139.3220338983051,15.013333333333335,140.33898305084747,14.559999999999999C141.35593220338984,14.106666666666666,142.3728813559322,13.413333333333329,143.38983050847457,12.959999999999997C144.40677966101694,12.506666666666662,145.42372881355934,12.240000000000004,146.4406779661017,11.840000000000002C147.45762711864407,11.440000000000003,148.47457627118644,10.906666666666666,149.4915254237288,10.56C150.50847457627117,10.213333333333331,151.52542372881356,10.106666666666667,152.54237288135593,9.76C153.5593220338983,9.413333333333332,154.5762711864407,8.906666666666666,155.59322033898306,8.479999999999999C156.61016949152543,8.053333333333335,157.6271186440678,7.413333333333333,158.64406779661016,7.200000000000002C159.66101694915253,6.986666666666668,160.67796610169492,6.880000000000002,161.6949152542373,6.880000000000002C162.71186440677965,6.880000000000002,163.72881355932205,7.360000000000002,164.74576271186442,7.360000000000002C165.76271186440678,7.360000000000002,166.77966101694915,7.200000000000002,167.79661016949152,7.200000000000002C168.81355932203388,7.200000000000002,169.83050847457628,8.319999999999999,170.84745762711864,8.319999999999999C171.864406779661,8.319999999999999,172.8813559322034,8.159999999999998,173.89830508474577,8.159999999999998C174.91525423728814,8.159999999999998,175.93220338983053,9.013333333333328,176.9491525423729,9.6C177.96610169491527,10.186666666666666,178.98305084745763,10.933333333333334,180,11.680000000000001"></path><path class="axis-ceiling" stroke-width="1" stroke="black" fill="none" d="M175,0L180,0"></path><text class="axis-ceiling-label" font-family="sans-serif" text-anchor="end" font-size="10px" x="170" y="2.5">250</text></g></svg>