<svg xmlns="http://www.w3.org/2000/svg" viewBox="0 0 180 60"><g transform="translate(0,20)"><path class="area" fill="rgba(0, 0, 0, 0.2)" d="M0,7.200000000000002C1.0169491525423728,7.066666666666668,2.0338983050847457,6.933333333333335,3.0508474576271185,6.400000000000001C4.067796610169491,5.866666666666667,5.084745762711864,2.400000000000002,6.101694915254237,2.400000000000002C7.11864406779661,2.400000000000002,8.135593220338983,5.6000000000000005,9.152542372881356,5.6000000000000005C10.169491525423728,5.6000000000000005,11.186440677966102,0.8000000000000007,12.203389830508474,0.8000000000000007C13.220338983050846,0.8000000000000007,14.23728813559322,6.4,15.254237288135592,8.799999999999999C16.271186440677965,11.200000000000001,17.28813559322034,14.133333333333331,18.305084745762713,15.2C19.322033898305087,16.266666666666666,20.338983050847457,16.8,21.35593220338983,16.8C22.372881355932204,16.8,23.389830508474574,14.666666666666664,24.406779661016948,13.599999999999998C25.423728813559322,12.533333333333331,26.440677966101696,11.466666666666667,27.45762711864407,10.4C28.47457627118644,9.333333333333336,29.491525423728813,7.200000000000002,30.508474576271183,7.200000000000002C31.525423728813557,7.200000000000002,32.54237288135593,9.33333333333333,33.559322033898304,12.799999999999997C34.57627118644068,16.266666666666666,35.59322033898305,28,36.610169491525426,28C37.6271186440678,28,38.644067796610166,28,39.66101694915254,28C40.67796610169491,28,41.69491525423729,27.466666666666665,42.71186440677966,26.4C43.728813559322035,25.333333333333332,44.7457627118644,16,45.762711864406775,16C46.77966101694915,16,47.79661016949152,25.06666666666666,48.813559322033896,27.199999999999996C49.83050847457627,29.333333333333332,50.847457627118644,30.4,51.86440677966102,30.4C52.88135593220339,30.4,53.898305084745765,29.6,54.91525423728814,29.6C55.93220338983051,29.6,56.94915254237288,34.4,57.96610169491525,34.4C58.983050847457626,34.4,59.99999999999999,32.13333333333333,61.01694915254237,31.200000000000003C62.03389830508474,30.266666666666666,63.05084745762712,29.866666666666667,64.0677966101695,28.799999999999997C65.08474576271186,27.73333333333333,66.10169491525424,25.733333333333334,67.11864406779661,24.8C68.13559322033899,23.866666666666664,69.15254237288136,23.200000000000003,70.16949152542374,23.200000000000003C71.1864406779661,23.200000000000003,72.20338983050848,36.800000000000004,73.22033898305085,36.800000000000004C74.23728813559322,36.800000000000004,75.2542372881356,31.200000000000003,76.27118644067797,31.200000000000003C77.28813559322033,31.200000000000003,78.30508474576271,31.46666666666667,79.32203389830508,32C80.33898305084746,32.53333333333333,81.35593220338983,39.2,82.37288135593221,39.2C83.38983050847457,39.2,84.40677966101696,29.6,85.42372881355932,29.6C86.4406779661017,29.6,87.45762711864407,31.866666666666667,88.47457627118645,32.800000000000004C89.49152542372882,33.733333333333334,90.50847457627118,35.2,91.52542372881355,35.2C92.54237288135593,35.2,93.55932203389831,31.200000000000003,94.57627118644069,31.200000000000003C95.59322033898306,31.200000000000003,96.61016949152543,38.4,97.62711864406779,38.4C98.64406779661016,38.4,99.66101694915254,36.800000000000004,100.6779661016949,36.800000000000004C101.69491525423729,36.800000000000004,102.71186440677965,39.2,103.72881355932203,39.2C104.7457627118644,39.2,105.76271186440678,32.800000000000004,106.77966101694915,32.800000000000004C107.79661016949153,32.800000000000004,108.8135593220339,36.800000000000004,109.83050847457628,36.800000000000004C110.84745762711864,36.800000000000004,111.86440677966102,36.800000000000004,112.88135593220339,36.800000000000004C113.89830508474576,36.800000000000004,114.91525423728814,36.800000000000004,115.9322033898305,36.800000000000004C116.94915254237289,36.800000000000004,117.96610169491525,36.800000000000004,118.98305084745763,36.800000000000004C120,36.800000000000004,121.01694915254237,36.800000000000004,122.03389830508473,36.800000000000004C123.05084745762711,36.800000000000004,124.0677966101695,40,125.08474576271188,40C126.10169491525424,40,127.11864406779662,32.800000000000004,128.135593220339,32.800000000000004C129.15254237288136,32.800000000000004,130.16949152542372,33.6,131.1864406779661,33.6C132.20338983050846,33.6,133.22033898305085,31.200000000000003,134.23728813559322,31.200000000000003C135.25423728813558,31.200000000000003,136.27118644067798,33.6,137.28813559322035,33.6C138.3050847457627,33.6,139.3220338983051,28.799999999999997,140.33898305084747,28.799999999999997C141.35593220338984,28.799999999999997,142.3728813559322,36,143.38983050847457,36C144.40677966101694,36,145.42372881355934,36,146.4406779661017,36C147.45762711864407,36,148.47457627118644,33.6,149.4915254237288,32.800000000000004C150.50847457627117,32,151.52542372881356,31.200000000000003,152.54237288135593,31.200000000000003C153.5593220338983,31.200000000000003,154.5762711864407,31.200000000000003,155.59322033898306,31.200000000000003C156.61016949152543,31.200000000000003,157.6271186440678,31.200000000000003,158.64406779661016,31.200000000000003C159.66101694915253,31.200000000000003,160.67796610169492,32.26666666666667,161.6949152542373,32.800000000000004C162.71186440677965,33.333333333333336,163.72881355932205,34.4,164.74576271186442,34.4C165.76271186440678,34.4,166.77966101694915,31.200000000000003,167.79661016949152,31.200000000000003C168.81355932203388,31.200000000000003,169.83050847457628,32,170.84745762711864,32C171.864406779661,32,172.8813559322034,31.2,173.89830508474577,29.6C174.91525423728814,28.000000000000004,175.93220338983053,22.400000000000002,176.9491525423729,22.400000000000002C177.96610169491527,22.400000000000002,178.98305084745763,25.599999999999998,180,28.799999999999997L180,40C178.98305084745763,40,177.96610169491527,40,176.9491525423729,40C175.93220338983053,40,174.91525423728814,40,173.89830508474577,40C172.8813559322034,40,171.864406779661,40,170.84745762711864,40C169.83050847457628,40,168.81355932203388,40,167.79661016949152,40C166.77966101694915,40,165.76271186440678,40,164.74576271186442,40C163.72881355932205,40,162.71186440677965,40,161.6949152542373,40C160.67796610169492,40,159.66101694915253,40,158.64406779661016,40C157.6271186440678,40,156.61016949152543,40,155.59322033898306,40C154.5762711864407,40,153.5593220338983,40,152.54237288135593,40C151.52542372881356,40,150.50847457627117,40,149.4915254237288,40C148.47457627118644,40,147.45762711864407,40,146.4406779661017,40C145.42372881355934,40,144.40677966101694,40,143.38983050847457,40C142.3728813559322,40,141.35593220338984,40,140.33898305084747,40C139.3220338983051,40,138.3050847457627,40,137.28813559322035,40C136.27118644067798,40,135.25423728813558,40,134.23728813559322,40C133.22033898305085,40,132.20338983050846,40,131.1864406779661,40C130.16949152542372,40,129.15254237288136,40,128.135593220339,40C127.11864406779662,40,126.10169491525424,40,125.08474576271188,40C124.0677966101695,40,123.05084745762711,40,122.03389830508473,40C121.01694915254237,40,120,40,118.98305084745763,40C117.96610169491525,40,116.94915254237289,40,115.9322033898305,40C114.91525423728814,40,113.89830508474576,40,112.88135593220339,40C111.86440677966102,40,110.84745762711864,40,109.83050847457628,40C108.8135593220339,40,107.79661016949153,40,106.77966101694915,40C105.76271186440678,40,104.7457627118644,40,103.72881355932203,40C102.71186440677965,40,101.69491525423729,40,100.6779661016949,40C99.66101694915254,40,98.64406779661016,40,97.62711864406779,40C96.61016949152543,40,95.59322033898306,40,94.57627118644069,40C93.55932203389831,40,92.54237288135593,40,91.52542372881355,40C90.50847457627118,40,89.49152542372882,40,88.47457627118645,40C87.45762711864407,40,86.4406779661017,40,85.42372881355932,40C84.40677966101696,40,83.38983050847457,40,82.37288135593221,40C81.35593220338983,40,80.33898305084746,40,79.32203389830508,40C78.30508474576271,40,77.28813559322033,40,76.27118644067797,40C75.2542372881356,40,74.23728813559322,40,73.22033898305085,40C72.20338983050848,40,71.1864406779661,40,70.16949152542374,40C69.15254237288136,40,68.13559322033899,40,67.11864406779661,40C66.10169491525424,40,65.08474576271186,40,64.0677966101695,40C63.05084745762712,40,62.03389830508474,40,61.01694915254237,40C59.99999999999999,40,58.983050847457626,40,57.96610169491525,40C56.94915254237288,40,55.93220338983051,40,54.91525423728814,40C53.898305084745765,40,52.88135593220339,40,51.86440677966102,40C50.847457627118644,40,49.83050847457627,40,48.813559322033896,40C47.79661016949152,40,46.77966101694915,40,45.762711864406775,40C44.7457627118644,40,43.728813559322035,40,42.71186440677966,40C41.69491525423729,40,40.67796610169491,40,39.66101694915254,40C38.644067796610166,40,37.6271186440678,40,36.610169491525426,40C35.59322033898305,40,34.57627118644068,40,33.559322033898304,40C32.54237288135593,40,31.525423728813557,40,30.508474576271183,40C29.491525423728813,40,28.47457627118644,40,27.45762711864407,40C26.440677966101696,40,25.423728813559322,40,24.406779661016948,40C23.389830508474574,40,22.372881355932204,40,21.35593220338983,40C20.338983050847457,40,19.322033898305087,40,18.305084745762713,40C17.28813559322034,40,16.271186440677965,40,15.254237288135592,40C14.23728813559322,40,13.220338983050846,40,12.203389830508474,40C11.186440677966102,40,10.169491525423728,40,9.152542372881356,40C8.135593220338983,40,7.11864406779661,40,6.101694915254237,40C5.084745762711864,40,4.067796610169491,40,3.0508474576271185,40C2.0338983050847457,40,1.0169491525423728,40,0,40Z"></path><path class="line" stroke="black" fill="none" d="M0,7.200000000000002C1.0169491525423728,7.066666666666668,2.0338983050847457,6.933333333333335,3.0508474576271185,6.400000000000001C4.067796610169491,5.866666666666667,5.084745762711864,2.400000000000002,6.101694915254237,2.400000000000002C7.11864406779661,2.400000000000002,8.135593220338983,5.6000000000000005,9.152542372881356,5.6000000000000005C10.169491525423728,5.6000000000000005,11.186440677966102,0.8000000000000007,12.203389830508474,0.8000000000000007C13.220338983050846,0.8000000000000007,14.23728813559322,6.4,15.254237288135592,8.799999999999999C16.271186440677965,11.200000000000001,17.28813559322034,14.133333333333331,18.305084745762713,15.2C19.322033898305087,16.266666666666666,20.338983050847457,16.8,21.35593220338983,16.8C22.372881355932204,16.8,23.389830508474574,14.666666666666664,24.406779661016948,13.599999999999998C25.423728813559322,12.533333333333331,26.440677966101696,11.466666666666667,27.45762711864407,10.4C28.47457627118644,9.333333333333336,29.491525423728813,7.200000000000002,30.508474576271183,7.200000000000002C31.525423728813557,7.200000000000002,32.54237288135593,9.33333333333333,33.559322033898304,12.799999999999997C34.57627118644068,16.266666666666666,35.59322033898305,28,36.610169491525426,28C37.6271186440678,28,38.644067796610166,28,39.66101694915254,28C40.67796610169491,28,41.69491525423729,27.466666666666665,42.71186440677966,26.4C43.728813559322035,25.333333333333332,44.7457627118644,16,45.762711864406775,16C46.77966101694915,16,47.79661016949152,25.06666666666666,48.813559322033896,27.199999999999996C49.83050847457627,29.333333333333332,50.847457627118644,30.4,51.86440677966102,30.4C52.88135593220339,30.4,53.898305084745765,29.6,54.91525423728814,29.6C55.93220338983051,29.6,56.94915254237288,34.4,57.96610169491525,34.4C58.983050847457626,34.4,59.99999999999999,32.13333333333333,61.01694915254237,31.200000000000003C62.03389830508474,30.266666666666666,63.05084745762712,29.866666666666667,64.0677966101695,28.799999999999997C65.08474576271186,27.73333333333333,66.10169491525424,25.733333333333334,67.11864406779661,24.8C68.13559322033899,23.866666666666664,69.15254237288136,23.200000000000003,70.16949152542374,23.200000000000003C71.1864406779661,23.200000000000003,72.20338983050848,36.800000000000004,73.22033898305085,36.800000000000004C74.23728813559322,36.800000000000004,75.2542372881356,31.200000000000003,76.27118644067797,31.200000000000003C77.28813559322033,31.200000000000003,78.30508474576271,31.46666666666667,79.32203389830508,32C80.33898305084746,32.53333333333333,81.35593220338983,39.2,82.37288135593221,39.2C83.38983050847457,39.2,84.40677966101696,29.6,85.42372881355932,29.6C86.4406779661017,29.6,87.45762711864407,31.866666666666667,88.47457627118645,32.800000000000004C89.49152542372882,33.733333333333334,90.50847457627118,35.2,91.52542372881355,35.2C92.54237288135593,35.2,93.55932203389831,31.200000000000003,94.57627118644069,31.200000000000003C95.59322033898306,31.200000000000003,96.61016949152543,38.4,97.62711864406779,38.4C98.64406779661016,38.4,99.66101694915254,36.800000000000004,100.6779661016949,36.800000000000004C101.69491525423729,36.800000000000004,102.71186440677965,39.2,103.72881355932203,39.2C104.7457627118644,39.2,105.76271186440678,32.800000000000004,106.77966101694915,32.800000000000004C107.79661016949153,32.800000000000004,108.8135593220339,36.800000000000004,109.83050847457628,36.800000000000004C110.84745762711864,36.800000000000004,111.86440677966102,36.800000000000004,112.88135593220339,36.800000000000004C113.89830508474576,36.800000000000004,114.91525423728814,36.800000000000004,115.9322033898305,36.800000000000004C116.94915254237289,36.800000000000004,117.96610169491525,36.800000000000004,118.98305084745763,36.800000000000004C120,36.800000000000004,121.01694915254237,36.800000000000004,122.03389830508473,36.800000000000004C123.05084745762711,36.800000000000004,124.0677966101695,40,125.08474576271188,40C126.10169491525424,40,127.11864406779662,32.800000000000004,128.135593220339,32.800000000000004C129.15254237288136,32.800000000000004,130.16949152542372,33.6,131.1864406779661,33.6C132.20338983050846,33.6,133.22033898305085,31.200000000000003,134.23728813559322,31.200000000000003C135.25423728813558,31.200000000000003,136.27118644067798,33.6,137.28813559322035,33.6C138.3050847457627,33.6,139.3220338983051,28.799999999999997,140.33898305084747,28.799999999999997C141.35593220338984,28.799999999999997,142.3728813559322,36,143.38983050847457,36C144.40677966101694,36,145.42372881355934,36,146.4406779661017,36C147.45762711864407,36,148.47457627118644,33.6,149.4915254237288,32.800000000000004C150.50847457627117,32,151.52542372881356,31.200000000000003,152.54237288135593,31.200000000000003C153.5593220338983,31.200000000000003,154.5762711864407,31.200000000000003,155.59322033898306,31.200000000000003C156.61016949152543,31.200000000000003,157.6271186440678,31.200000000000003,158.64406779661016,31.200000000000003C159.66101694915253,31.200000000000003,160.67796610169492,32.26666666666667,161.6949152542373,32.800000000000004C162.71186440677965,33.333333333333336,163.72881355932205,34.4,164.74576271186442,34.4C165.76271186440678,34.4,166.77966101694915,31.200000000000003,167.79661016949152,31.200000000000003C168.81355932203388,31.200000000000003,169.83050847457628,32,170.84745762711864,32C171.864406779661,32,172.8813559322034,31.2,173.89830508474577,29.6C174.91525423728814,28.000000000000004,175.93220338983053,22.400000000000002,176.9491525423729,22.400000000000002C177.96610169491527,22.400000000000002,178.98305084745763,25.599999999999998,180,28.799999999999997"></path><path class="axis-ceiling" stroke-width="1" stroke="black" fill="none" d="M175,0L180,0"></path><text class="axis-ceiling-label" font-family="sans-serif" text-anchor="end" font-size="10px" x="170" y="2.5">50</text></g></svg>