<svg xmlns="http://www.w3.org/2000/svg" viewBox="0 0 480 160"><g transform="translate(10,10)"><rect class="bar" x="0.15328223925359907" width="13.174941686104631" y="126.54427645788337" height="13.45572354211663" fill="rgb(164,173,192)"></rect><rect class="bar" x="15.481506164611814" width="13.174941686104631" y="124.93160547156228" height="15.068394528437722" fill="rgb(164,173,192)"></rect><rect class="bar" x="30.809730089970028" width="13.174941686104631" y="118.43052555795536" height="21.569474442044637" fill="rgb(164,173,192)"></rect><rect class="bar" x="46.13795401532824" width="13.174941686104631" y="119.79121670266379" height="20.20878329733621" fill="rgb(164,173,192)"></rect><rect class="bar" x="61.46617794068646" width="13.174941686104631" y="119.69042476601872" height="20.309575233981278" fill="rgb(164,173,192)"></rect><rect class="bar" x="76.79440186604467" width="13.174941686104631" y="115.70914326853853" height="24.290856731461474" fill="rgb(164,173,192)"></rect><rect class="bar" x="92.12262579140288" width="13.174941686104631" y="125.58675305975522" height="14.413246940244775" fill="rgb(164,173,192)"></rect><rect class="bar" x="107.4508497167611" width="13.174941686104631" y="131.1807055435565" height="8.819294456443487" fill="rgb(164,173,192)"></rect><rect class="bar" x="122.77907364211931" width="13.174941686104631" y="122.41180705543557" height="17.588192944564426" fill="rgb(164,173,192)"></rect><rect class="bar" x="138.10729756747753" width="13.174941686104631" y="121.7062634989201" height="18.293736501079906" fill="rgb(164,173,192)"></rect><rect class="bar" x="153.43552149283573" width="13.174941686104631" y="121.80705543556516" height="18.19294456443484" fill="rgb(164,173,192)"></rect><rect class="bar" x="168.76374541819396" width="13.174941686104631" y="121.55507559395248" height="18.44492440604752" fill="rgb(164,173,192)"></rect><rect class="bar" x="184.09196934355217" width="13.174941686104631" y="119.99280057595392" height="20.007199424046078" fill="rgb(164,173,192)"></rect><rect class="bar" x="199.4201932689104" width="13.174941686104631" y="132.08783297336214" height="7.91216702663786" fill="rgb(164,173,192)"></rect><rect class="bar" x="214.7484171942686" width="13.174941686104631" y="133.54931605471563" height="6.450683945284368" fill="rgb(164,173,192)"></rect><rect class="bar" x="230.07664111962683" width="13.174941686104631" y="125.78833693304534" height="14.211663066954657" fill="rgb(164,173,192)"></rect><rect class="bar" x="245.40486504498503" width="13.174941686104631" y="130.17278617710582" height="9.82721382289418" fill="rgb(164,173,192)"></rect><rect class="bar" x="260.73308897034326" width="13.174941686104631" y="129.31605471562276" height="10.683945284377245" fill="rgb(164,173,192)"></rect><rect class="bar" x="276.06131289570146" width="13.174941686104631" y="131.28149748020158" height="8.71850251979842" fill="rgb(164,173,192)"></rect><rect class="bar" x="291.38953682105966" width="13.174941686104631" y="130.5759539236861" height="9.424046076313914" fill="rgb(164,173,192)"></rect><rect class="bar" x="306.71776074641787" width="13.174941686104631" y="133.70050395968323" height="6.299496040316768" fill="rgb(164,173,192)"></rect><rect class="bar" x="322.0459846717761" width="13.174941686104631" y="136.47228221742262" height="3.5277177825773833" fill="rgb(164,173,192)"></rect><rect class="bar" x="337.3742085971343" width="13.174941686104631" y="130.52555795536358" height="9.474442044636419" fill="rgb(164,173,192)"></rect><rect class="bar" x="352.70243252249253" width="13.174941686104631" y="131.07991360691145" height="8.920086393088553" fill="rgb(164,173,192)"></rect><rect class="bar" x="368.03065644785073" width="13.174941686104631" y="132.3398128149748" height="7.660187185025194" fill="rgb(164,173,192)"></rect><rect class="bar" x="383.35888037320893" width="13.174941686104631" y="132.28941684665227" height="7.710583153347727" fill="rgb(164,173,192)"></rect><rect class="bar" x="398.6871042985672" width="13.174941686104631" y="131.1807055435565" height="8.819294456443487" fill="rgb(164,173,192)"></rect><rect class="bar" x="414.0153282239254" width="13.174941686104631" y="133.90208783297336" height="6.097912167026635" fill="rgb(164,173,192)"></rect><rect class="bar" x="429.3435521492836" width="13.174941686104631" y="136.52267818574515" height="3.47732181425485" fill="rgb(164,173,192)"></rect><rect class="bar" x="444.6717760746418" width="13.174941686104631" y="129.8200143988481" height="10.179985601151913" fill="rgb(164,173,192)"></rect></g></svg>