<svg xmlns="http://www.w3.org/2000/svg" viewBox="0 0 180 60"><g transform="translate(0,20)"><path class="area" fill="rgba(0, 0, 0, 0.2)" d="M0,30.4C1.0344827586206897,31.54666666666667,2.068965517241379,32.69333333333334,3.103448275862069,32.800000000000004C4.137931034482759,32.906666666666666,5.172413793103448,32.96,6.206896551724138,32.96C7.241379310344827,32.96,8.275862068965516,32.13333333333333,9.310344827586206,31.200000000000003C10.344827586206897,30.26666666666667,11.379310344827585,28.64,12.413793103448276,27.36C13.448275862068966,26.08,14.482758620689655,23.520000000000003,15.517241379310345,23.520000000000003C16.551724137931036,23.520000000000003,17.586206896551722,27.36,18.620689655172413,27.36C19.655172413793103,27.36,20.689655172413794,26.773333333333337,21.724137931034484,25.76C22.758620689655174,24.74666666666667,23.79310344827586,21.28,24.82758620689655,21.28C25.862068965517242,21.28,26.896551724137932,24.533333333333335,27.931034482758623,25.76C28.965517241379313,26.986666666666668,30,28.64,31.03448275862069,28.64C32.06896551724138,28.64,33.103448275862064,27.68,34.137931034482754,25.76C35.172413793103445,23.839999999999996,36.206896551724135,14.293333333333331,37.241379310344826,14.079999999999998C38.275862068965516,13.866666666666665,39.310344827586206,13.759999999999998,40.3448275862069,13.759999999999998C41.37931034482759,13.759999999999998,42.41379310344828,15.2,43.44827586206897,15.2C44.48275862068966,15.2,45.51724137931035,11.360000000000001,46.55172413793104,11.360000000000001C47.58620689655173,11.360000000000001,48.62068965517241,21.76,49.6551724137931,21.76C50.689655172413794,21.76,51.72413793103448,21.44,52.75862068965517,20.8C53.79310344827586,20.159999999999997,54.827586206896555,14.160000000000004,55.862068965517246,11.840000000000002C56.896551724137936,9.52000000000001,57.93103448275862,8.373333333333335,58.96551724137931,6.880000000000002C60,5.386666666666666,61.03448275862069,2.879999999999998,62.06896551724138,2.879999999999998C63.10344827586207,2.879999999999998,64.13793103448276,6.400000000000001,65.17241379310344,6.400000000000001C66.20689655172413,6.400000000000001,67.24137931034483,3.1999999999999984,68.27586206896551,3.1999999999999984C69.3103448275862,3.1999999999999984,70.34482758620689,15.68,71.37931034482759,15.68C72.41379310344827,15.68,73.44827586206897,14.613333333333333,74.48275862068965,12.480000000000002C75.51724137931033,10.346666666666671,76.55172413793103,2.400000000000002,77.58620689655172,2.400000000000002C78.62068965517241,2.400000000000002,79.6551724137931,4.266666666666667,80.6896551724138,4.8C81.72413793103448,5.33333333333333,82.75862068965517,5.493333333333334,83.79310344827586,5.6000000000000005C84.82758620689656,5.706666666666667,85.86206896551724,5.653333333333334,86.89655172413794,5.760000000000001C87.93103448275862,5.866666666666667,88.96551724137932,10.10666666666667,90,11.520000000000001C91.0344827586207,12.93333333333334,92.06896551724138,12.50666666666665,93.10344827586208,14.239999999999998C94.13793103448276,15.973333333333331,95.17241379310344,21.92,96.20689655172413,21.92C97.24137931034483,21.92,98.27586206896551,19.626666666666665,99.3103448275862,17.759999999999998C100.3448275862069,15.89333333333333,101.37931034482759,13.253333333333348,102.41379310344828,10.72C103.44827586206897,8.186666666666676,104.48275862068965,2.559999999999998,105.51724137931033,2.559999999999998C106.55172413793103,2.559999999999998,107.58620689655172,14.293333333333331,108.62068965517241,17.919999999999998C109.65517241379311,21.546666666666667,110.6896551724138,22.479999999999997,111.72413793103449,24.32C112.75862068965517,26.159999999999997,113.79310344827587,28.96,114.82758620689656,28.96C115.86206896551724,28.96,116.89655172413794,26.66666666666666,117.93103448275862,26.559999999999995C118.96551724137932,26.45333333333333,120,26.4,121.0344827586207,26.4C122.06896551724138,26.4,123.10344827586208,27.999999999999996,124.13793103448276,28.479999999999997C125.17241379310344,28.959999999999997,126.20689655172414,28.906666666666666,127.24137931034483,29.28C128.27586206896552,29.653333333333336,129.3103448275862,30.72,130.3448275862069,30.72C131.3793103448276,30.72,132.41379310344828,29.759999999999998,133.44827586206898,29.759999999999998C134.48275862068965,29.759999999999998,135.51724137931035,36.160000000000004,136.55172413793102,36.160000000000004C137.58620689655172,36.160000000000004,138.6206896551724,35.52000000000001,139.6551724137931,34.88C140.6896551724138,34.24,141.72413793103448,32.32,142.75862068965517,32.32C143.79310344827587,32.32,144.82758620689654,32.96,145.86206896551724,32.96C146.89655172413794,32.96,147.9310344827586,32.96,148.9655172413793,32.96C150,32.96,151.0344827586207,31.840000000000003,152.0689655172414,31.840000000000003C153.10344827586206,31.840000000000003,154.13793103448276,34.42666666666667,155.17241379310343,35.2C156.20689655172413,35.97333333333335,157.24137931034483,36,158.27586206896552,36.480000000000004C159.31034482758622,36.96,160.3448275862069,38.08,161.3793103448276,38.08C162.41379310344828,38.08,163.44827586206895,38.08,164.48275862068965,38.08C165.51724137931035,38.08,166.55172413793102,37.14666666666666,167.58620689655172,36.32C168.6206896551724,35.49333333333333,169.6551724137931,33.120000000000005,170.6896551724138,33.120000000000005C171.7241379310345,33.120000000000005,172.75862068965517,38.08,173.79310344827587,38.08C174.82758620689657,38.08,175.86206896551724,35.68,176.89655172413794,35.68C177.93103448275863,35.68,178.9655172413793,36.959999999999994,180,38.239999999999995L180,40C178.9655172413793,40,177.93103448275863,40,176.89655172413794,40C175.86206896551724,40,174.82758620689657,40,173.79310344827587,40C172.75862068965517,40,171.7241379310345,40,170.6896551724138,40C169.6551724137931,40,168.6206896551724,40,167.58620689655172,40C166.55172413793102,40,165.51724137931035,40,164.48275862068965,40C163.44827586206895,40,162.41379310344828,40,161.3793103448276,40C160.3448275862069,40,159.31034482758622,40,158.27586206896552,40C157.24137931034483,40,156.20689655172413,40,155.17241379310343,40C154.13793103448276,40,153.10344827586206,40,152.0689655172414,40C151.0344827586207,40,150,40,148.9655172413793,40C147.9310344827586,40,146.89655172413794,40,145.86206896551724,40C144.82758620689654,40,143.79310344827587,40,142.75862068965517,40C141.72413793103448,40,140.6896551724138,40,139.6551724137931,40C138.6206896551724,40,137.58620689655172,40,136.55172413793102,40C135.51724137931035,40,134.48275862068965,40,133.44827586206898,40C132.41379310344828,40,131.3793103448276,40,130.3448275862069,40C129.3103448275862,40,128.27586206896552,40,127.24137931034483,40C126.20689655172414,40,125.17241379310344,40,124.13793103448276,40C123.10344827586208,40,122.06896551724138,40,121.0344827586207,40C120,40,118.96551724137932,40,117.93103448275862,40C116.89655172413794,40,115.86206896551724,40,114.82758620689656,40C113.79310344827587,40,112.75862068965517,40,111.72413793103449,40C110.6896551724138,40,109.65517241379311,40,108.62068965517241,40C107.58620689655172,40,106.55172413793103,40,105.51724137931033,40C104.48275862068965,40,103.44827586206897,40,102.41379310344828,40C101.37931034482759,40,100.3448275862069,40,99.3103448275862,40C98.27586206896551,40,97.24137931034483,40,96.20689655172413,40C95.17241379310344,40,94.13793103448276,40,93.10344827586208,40C92.06896551724138,40,91.0344827586207,40,90,40C88.96551724137932,40,87.93103448275862,40,86.89655172413794,40C85.86206896551724,40,84.82758620689656,40,83.79310344827586,40C82.75862068965517,40,81.72413793103448,40,80.6896551724138,40C79.6551724137931,40,78.62068965517241,40,77.58620689655172,40C76.55172413793103,40,75.51724137931033,40,74.48275862068965,40C73.44827586206897,40,72.41379310344827,40,71.37931034482759,40C70.34482758620689,40,69.3103448275862,40,68.27586206896551,40C67.24137931034483,40,66.20689655172413,40,65.17241379310344,40C64.13793103448276,40,63.10344827586207,40,62.06896551724138,40C61.03448275862069,40,60,40,58.96551724137931,40C57.93103448275862,40,56.896551724137936,40,55.862068965517246,40C54.827586206896555,40,53.79310344827586,40,52.75862068965517,40C51.72413793103448,40,50.689655172413794,40,49.6551724137931,40C48.62068965517241,40,47.58620689655173,40,46.55172413793104,40C45.51724137931035,40,44.48275862068966,40,43.44827586206897,40C42.41379310344828,40,41.37931034482759,40,40.3448275862069,40C39.310344827586206,40,38.275862068965516,40,37.241379310344826,40C36.206896551724135,40,35.172413793103445,40,34.137931034482754,40C33.103448275862064,40,32.06896551724138,40,31.03448275862069,40C30,40,28.965517241379313,40,27.931034482758623,40C26.896551724137932,40,25.862068965517242,40,24.82758620689655,40C23.79310344827586,40,22.758620689655174,40,21.724137931034484,40C20.689655172413794,40,19.655172413793103,40,18.620689655172413,40C17.586206896551722,40,16.551724137931036,40,15.517241379310345,40C14.482758620689655,40,13.448275862068966,40,12.413793103448276,40C11.379310344827585,40,10.344827586206897,40,9.310344827586206,40C8.275862068965516,40,7.241379310344827,40,6.206896551724138,40C5.172413793103448,40,4.137931034482759,40,3.103448275862069,40C2.068965517241379,40,1.0344827586206897,40,0,40Z"></path><path class="line" stroke="black" fill="none" d="M0,30.4C1.0344827586206897,31.54666666666667,2.068965517241379,32.69333333333334,3.103448275862069,32.800000000000004C4.137931034482759,32.906666666666666,5.172413793103448,32.96,6.206896551724138,32.96C7.241379310344827,32.96,8.275862068965516,32.13333333333333,9.310344827586206,31.200000000000003C10.344827586206897,30.26666666666667,11.379310344827585,28.64,12.413793103448276,27.36C13.448275862068966,26.08,14.482758620689655,23.520000000000003,15.517241379310345,23.520000000000003C16.551724137931036,23.520000000000003,17.586206896551722,27.36,18.620689655172413,27.36C19.655172413793103,27.36,20.689655172413794,26.773333333333337,21.724137931034484,25.76C22.758620689655174,24.74666666666667,23.79310344827586,21.28,24.82758620689655,21.28C25.862068965517242,21.28,26.896551724137932,24.533333333333335,27.931034482758623,25.76C28.965517241379313,26.986666666666668,30,28.64,31.03448275862069,28.64C32.06896551724138,28.64,33.103448275862064,27.68,34.137931034482754,25.76C35.172413793103445,23.839999999999996,36.206896551724135,14.293333333333331,37.241379310344826,14.079999999999998C38.275862068965516,13.866666666666665,39.310344827586206,13.759999999999998,40.3448275862069,13.759999999999998C41.37931034482759,13.759999999999998,42.41379310344828,15.2,43.44827586206897,15.2C44.48275862068966,15.2,45.51724137931035,11.360000000000001,46.55172413793104,11.360000000000001C47.58620689655173,11.360000000000001,48.62068965517241,21.76,49.6551724137931,21.76C50.689655172413794,21.76,51.72413793103448,21.44,52.75862068965517,20.8C53.79310344827586,20.159999999999997,54.827586206896555,14.160000000000004,55.862068965517246,11.840000000000002C56.896551724137936,9.52000000000001,57.93103448275862,8.373333333333335,58.96551724137931,6.880000000000002C60,5.386666666666666,61.03448275862069,2.879999999999998,62.06896551724138,2.879999999999998C63.10344827586207,2.879999999999998,64.13793103448276,6.400000000000001,65.17241379310344,6.400000000000001C66.20689655172413,6.400000000000001,67.24137931034483,3.1999999999999984,68.27586206896551,3.1999999999999984C69.3103448275862,3.1999999999999984,70.34482758620689,15.68,71.37931034482759,15.68C72.41379310344827,15.68,73.44827586206897,14.613333333333333,74.48275862068965,12.480000000000002C75.51724137931033,10.346666666666671,76.55172413793103,2.400000000000002,77.58620689655172,2.400000000000002C78.62068965517241,2.400000000000002,79.6551724137931,4.266666666666667,80.6896551724138,4.8C81.72413793103448,5.33333333333333,82.75862068965517,5.493333333333334,83.79310344827586,5.6000000000000005C84.82758620689656,5.706666666666667,85.86206896551724,5.653333333333334,86.89655172413794,5.760000000000001C87.93103448275862,5.866666666666667,88.96551724137932,10.10666666666667,90,11.520000000000001C91.0344827586207,12.93333333333334,92.06896551724138,12.50666666666665,93.10344827586208,14.239999999999998C94.13793103448276,15.973333333333331,95.17241379310344,21.92,96.20689655172413,21.92C97.24137931034483,21.92,98.27586206896551,19.626666666666665,99.3103448275862,17.759999999999998C100.3448275862069,15.89333333333333,101.37931034482759,13.253333333333348,102.41379310344828,10.72C103.44827586206897,8.186666666666676,104.48275862068965,2.559999999999998,105.51724137931033,2.559999999999998C106.55172413793103,2.559999999999998,107.58620689655172,14.293333333333331,108.62068965517241,17.919999999999998C109.65517241379311,21.546666666666667,110.6896551724138,22.479999999999997,111.72413793103449,24.32C112.75862068965517,26.159999999999997,113.79310344827587,28.96,114.82758620689656,28.96C115.86206896551724,28.96,116.89655172413794,26.66666666666666,117.93103448275862,26.559999999999995C118.96551724137932,26.45333333333333,120,26.4,121.0344827586207,26.4C122.06896551724138,26.4,123.10344827586208,27.999999999999996,124.13793103448276,28.479999999999997C125.17241379310344,28.959999999999997,126.20689655172414,28.906666666666666,127.24137931034483,29.28C128.27586206896552,29.653333333333336,129.3103448275862,30.72,130.3448275862069,30.72C131.3793103448276,30.72,132.41379310344828,29.759999999999998,133.44827586206898,29.759999999999998C134.48275862068965,29.759999999999998,135.51724137931035,36.160000000000004,136.55172413793102,36.160000000000004C137.58620689655172,36.160000000000004,138.6206896551724,35.52000000000001,139.6551724137931,34.88C140.6896551724138,34.24,141.72413793103448,32.32,142.75862068965517,32.32C143.79310344827587,32.32,144.82758620689654,32.96,145.86206896551724,32.96C146.89655172413794,32.96,147.9310344827586,32.96,148.9655172413793,32.96C150,32.96,151.0344827586207,31.840000000000003,152.0689655172414,31.840000000000003C153.10344827586206,31.840000000000003,154.13793103448276,34.42666666666667,155.17241379310343,35.2C156.20689655172413,35.97333333333335,157.24137931034483,36,158.27586206896552,36.480000000000004C159.31034482758622,36.96,160.3448275862069,38.08,161.3793103448276,38.08C162.41379310344828,38.08,163.44827586206895,38.08,164.48275862068965,38.08C165.51724137931035,38.08,166.55172413793102,37.14666666666666,167.58620689655172,36.32C168.6206896551724,35.49333333333333,169.6551724137931,33.120000000000005,170.6896551724138,33.120000000000005C171.7241379310345,33.120000000000005,172.75862068965517,38.08,173.79310344827587,38.08C174.82758620689657,38.08,175.86206896551724,35.68,176.89655172413794,35.68C177.93103448275863,35.68,178.9655172413793,36.959999999999994,180,38.239999999999995"></path><path class="axis-ceiling" stroke-width="1" stroke="black" fill="none" d="M175,0L180,0"></path><text class="axis-ceiling-label" font-family="sans-serif" text-anchor="end" font-size="10px" x="170" y="2.5">250</text></g></svg>