<svg xmlns="http://www.w3.org/2000/svg" viewBox="0 0 180 60"><g transform="translate(0,20)"><path class="area" fill="rgba(0, 0, 0, 0.2)" d="M0,35.85142857142857C1.0344827586206897,35.693333333333335,2.068965517241379,35.53523809523809,3.103448275862069,35.47428571428571C4.137931034482759,35.413333333333334,5.172413793103448,35.38285714285714,6.206896551724138,35.38285714285714C7.241379310344827,35.38285714285714,8.275862068965516,36.19428571428571,9.310344827586206,36.19428571428571C10.344827586206897,36.19428571428571,11.379310344827585,36.10666666666667,12.413793103448276,35.97714285714286C13.448275862068966,35.84761904761905,14.482758620689655,35.79047619047619,15.517241379310345,35.417142857142856C16.551724137931036,35.04380952380952,17.586206896551722,30.765714285714285,18.620689655172413,30.765714285714285C19.655172413793103,30.765714285714285,20.689655172413794,31.474285714285717,21.724137931034484,31.542857142857144C22.758620689655174,31.611428571428572,23.79310344827586,31.645714285714284,24.82758620689655,31.645714285714284C25.862068965517242,31.645714285714284,26.896551724137932,27.931428571428572,27.931034482758623,27.931428571428572C28.965517241379313,27.931428571428572,30,28.18285714285714,31.03448275862069,28.685714285714283C32.06896551724138,29.18857142857142,33.103448275862064,31.53142857142857,34.137931034482754,31.53142857142857C35.172413793103445,31.53142857142857,36.206896551724135,29.154285714285717,37.241379310344826,28.674285714285716C38.275862068965516,28.194285714285716,39.310344827586206,27.954285714285714,40.3448275862069,27.954285714285714C41.37931034482759,27.954285714285714,42.41379310344828,29.988571428571433,43.44827586206897,29.988571428571433C44.48275862068966,29.988571428571433,45.51724137931035,24.388571428571424,46.55172413793104,24.388571428571424C47.58620689655173,24.388571428571424,48.62068965517241,25.017142857142858,49.6551724137931,25.017142857142858C50.689655172413794,25.017142857142858,51.72413793103448,19.885714285714286,52.75862068965517,19.885714285714286C53.79310344827586,19.885714285714286,54.827586206896555,25.794285714285714,55.862068965517246,25.794285714285714C56.896551724137936,25.794285714285714,57.93103448275862,22.78857142857143,58.96551724137931,22.78857142857143C60,22.78857142857143,61.03448275862069,25.25714285714286,62.06896551724138,25.25714285714286C63.10344827586207,25.25714285714286,64.13793103448276,22.71809523809524,65.17241379310344,20.994285714285716C66.20689655172413,19.27047619047619,67.24137931034483,14.982857142857142,68.27586206896551,14.914285714285715C69.3103448275862,14.845714285714287,70.34482758620689,14.88,71.37931034482759,14.811428571428573C72.41379310344827,14.742857142857146,73.44827586206897,13.691428571428572,74.48275862068965,13.691428571428572C75.51724137931033,13.691428571428572,76.55172413793103,15.074285714285715,77.58620689655172,15.074285714285715C78.62068965517241,15.074285714285715,79.6551724137931,9.851428571428574,80.6896551724138,9.851428571428574C81.72413793103448,9.851428571428574,82.75862068965517,15.657142857142858,83.79310344827586,15.657142857142858C84.82758620689656,15.657142857142858,85.86206896551724,5.748571428571427,86.89655172413794,5.748571428571427C87.93103448275862,5.748571428571427,88.96551724137932,14.422857142857142,90,14.422857142857142C91.0344827586207,14.422857142857142,92.06896551724138,10.09904761904762,93.10344827586208,8.845714285714287C94.13793103448276,7.5923809523809656,95.17241379310344,6.902857142857144,96.20689655172413,6.902857142857144C97.24137931034483,6.902857142857144,98.27586206896551,8.466666666666669,99.3103448275862,9.657142857142858C100.3448275862069,10.847619047619048,101.37931034482759,12.84571428571428,102.41379310344828,14.045714285714283C103.44827586206897,15.245714285714275,104.48275862068965,16.857142857142854,105.51724137931033,16.857142857142854C106.55172413793103,16.857142857142854,107.58620689655172,16.08190476190476,108.62068965517241,15.028571428571427C109.65517241379311,13.975238095238094,110.6896551724138,11.921904761904765,111.72413793103449,10.537142857142857C112.75862068965517,9.152380952380957,113.79310344827587,6.7200000000000015,114.82758620689656,6.7200000000000015C115.86206896551724,6.7200000000000015,116.89655172413794,16.354285714285712,117.93103448275862,16.354285714285712C118.96551724137932,16.354285714285712,120,9.52,121.0344827586207,9.52C122.06896551724138,9.52,123.10344827586208,13.65904761904762,124.13793103448276,15.257142857142858C125.17241379310344,16.855238095238096,126.20689655172414,18.23809523809524,127.24137931034483,19.10857142857143C128.27586206896552,19.97904761904762,129.3103448275862,20.48,130.3448275862069,20.48C131.3793103448276,20.48,132.41379310344828,16.66095238095238,133.44827586206898,15.451428571428568C134.48275862068965,14.241904761904777,135.51724137931035,14.708571428571426,136.55172413793102,13.22285714285714C137.58620689655172,11.737142857142828,138.6206896551724,2.5028571428571444,139.6551724137931,2.5028571428571444C140.6896551724138,2.5028571428571444,141.72413793103448,5.714285714285713,142.75862068965517,7.177142857142855C143.79310344827587,8.639999999999997,144.82758620689654,9.792380952380952,145.86206896551724,11.280000000000001C146.89655172413794,12.76761904761905,147.9310344827586,16.102857142857143,148.9655172413793,16.102857142857143C150,16.102857142857143,151.0344827586207,11.321904761904772,152.0689655172414,9.554285714285715C153.10344827586206,7.786666666666691,154.13793103448276,5.497142857142858,155.17241379310343,5.497142857142858C156.20689655172413,5.497142857142858,157.24137931034483,11.108571428571427,158.27586206896552,11.108571428571427C159.31034482758622,11.108571428571427,160.3448275862069,8.651428571428571,161.3793103448276,8.651428571428571C162.41379310344828,8.651428571428571,163.44827586206895,10.224761904761902,164.48275862068965,11.714285714285712C165.51724137931035,13.203809523809522,166.55172413793102,15.59238095238096,167.58620689655172,17.588571428571427C168.6206896551724,19.584761904761912,169.6551724137931,23.691428571428574,170.6896551724138,23.691428571428574C171.7241379310345,23.691428571428574,172.75862068965517,16.937142857142856,173.79310344827587,16.86857142857143C174.82758620689657,16.8,175.86206896551724,16.765714285714285,176.89655172413794,16.765714285714285C177.93103448275863,16.765714285714285,178.9655172413793,17.462857142857143,180,18.159999999999997L180,40C178.9655172413793,40,177.93103448275863,40,176.89655172413794,40C175.86206896551724,40,174.82758620689657,40,173.79310344827587,40C172.75862068965517,40,171.7241379310345,40,170.6896551724138,40C169.6551724137931,40,168.6206896551724,40,167.58620689655172,40C166.55172413793102,40,165.51724137931035,40,164.48275862068965,40C163.44827586206895,40,162.41379310344828,40,161.3793103448276,40C160.3448275862069,40,159.31034482758622,40,158.27586206896552,40C157.24137931034483,40,156.20689655172413,40,155.17241379310343,40C154.13793103448276,40,153.10344827586206,40,152.0689655172414,40C151.0344827586207,40,150,40,148.9655172413793,40C147.9310344827586,40,146.89655172413794,40,145.86206896551724,40C144.82758620689654,40,143.79310344827587,40,142.75862068965517,40C141.72413793103448,40,140.6896551724138,40,139.6551724137931,40C138.6206896551724,40,137.58620689655172,40,136.55172413793102,40C135.51724137931035,40,134.48275862068965,40,133.44827586206898,40C132.41379310344828,40,131.3793103448276,40,130.3448275862069,40C129.3103448275862,40,128.27586206896552,40,127.24137931034483,40C126.20689655172414,40,125.17241379310344,40,124.13793103448276,40C123.10344827586208,40,122.06896551724138,40,121.0344827586207,40C120,40,118.96551724137932,40,117.93103448275862,40C116.89655172413794,40,115.86206896551724,40,114.82758620689656,40C113.79310344827587,40,112.75862068965517,40,111.72413793103449,40C110.6896551724138,40,109.65517241379311,40,108.62068965517241,40C107.58620689655172,40,106.55172413793103,40,105.51724137931033,40C104.48275862068965,40,103.44827586206897,40,102.41379310344828,40C101.37931034482759,40,100.3448275862069,40,99.3103448275862,40C98.27586206896551,40,97.24137931034483,40,96.20689655172413,40C95.17241379310344,40,94.13793103448276,40,93.10344827586208,40C92.06896551724138,40,91.0344827586207,40,90,40C88.96551724137932,40,87.93103448275862,40,86.89655172413794,40C85.86206896551724,40,84.82758620689656,40,83.79310344827586,40C82.75862068965517,40,81.72413793103448,40,80.6896551724138,40C79.6551724137931,40,78.62068965517241,40,77.58620689655172,40C76.55172413793103,40,75.51724137931033,40,74.48275862068965,40C73.44827586206897,40,72.41379310344827,40,71.37931034482759,40C70.34482758620689,40,69.3103448275862,40,68.27586206896551,40C67.24137931034483,40,66.20689655172413,40,65.17241379310344,40C64.13793103448276,40,63.10344827586207,40,62.06896551724138,40C61.03448275862069,40,60,40,58.96551724137931,40C57.93103448275862,40,56.896551724137936,40,55.862068965517246,40C54.827586206896555,40,53.79310344827586,40,52.75862068965517,40C51.72413793103448,40,50.689655172413794,40,49.6551724137931,40C48.62068965517241,40,47.58620689655173,40,46.55172413793104,40C45.51724137931035,40,44.48275862068966,40,43.44827586206897,40C42.41379310344828,40,41.37931034482759,40,40.3448275862069,40C39.310344827586206,40,38.275862068965516,40,37.241379310344826,40C36.206896551724135,40,35.172413793103445,40,34.137931034482754,40C33.103448275862064,40,32.06896551724138,40,31.03448275862069,40C30,40,28.965517241379313,40,27.931034482758623,40C26.896551724137932,40,25.862068965517242,40,24.82758620689655,40C23.79310344827586,40,22.758620689655174,40,21.724137931034484,40C20.689655172413794,40,19.655172413793103,40,18.620689655172413,40C17.586206896551722,40,16.551724137931036,40,15.517241379310345,40C14.482758620689655,40,13.448275862068966,40,12.413793103448276,40C11.379310344827585,40,10.344827586206897,40,9.310344827586206,40C8.275862068965516,40,7.241379310344827,40,6.206896551724138,40C5.172413793103448,40,4.137931034482759,40,3.103448275862069,40C2.068965517241379,40,1.0344827586206897,40,0,40Z"></path><path class="line" stroke="black" fill="none" d="M0,35.85142857142857C1.0344827586206897,35.693333333333335,2.068965517241379,35.53523809523809,3.103448275862069,35.47428571428571C4.137931034482759,35.413333333333334,5.172413793103448,35.38285714285714,6.206896551724138,35.38285714285714C7.241379310344827,35.38285714285714,8.275862068965516,36.19428571428571,9.310344827586206,36.19428571428571C10.344827586206897,36.19428571428571,11.379310344827585,36.10666666666667,12.413793103448276,35.97714285714286C13.448275862068966,35.84761904761905,14.482758620689655,35.79047619047619,15.517241379310345,35.417142857142856C16.551724137931036,35.04380952380952,17.586206896551722,30.765714285714285,18.620689655172413,30.765714285714285C19.655172413793103,30.765714285714285,20.689655172413794,31.474285714285717,21.724137931034484,31.542857142857144C22.758620689655174,31.611428571428572,23.79310344827586,31.645714285714284,24.82758620689655,31.645714285714284C25.862068965517242,31.645714285714284,26.896551724137932,27.931428571428572,27.931034482758623,27.931428571428572C28.965517241379313,27.931428571428572,30,28.18285714285714,31.03448275862069,28.685714285714283C32.06896551724138,29.18857142857142,33.103448275862064,31.53142857142857,34.137931034482754,31.53142857142857C35.172413793103445,31.53142857142857,36.206896551724135,29.154285714285717,37.241379310344826,28.674285714285716C38.275862068965516,28.194285714285716,39.310344827586206,27.954285714285714,40.3448275862069,27.954285714285714C41.37931034482759,27.954285714285714,42.41379310344828,29.988571428571433,43.44827586206897,29.988571428571433C44.48275862068966,29.988571428571433,45.51724137931035,24.388571428571424,46.55172413793104,24.388571428571424C47.58620689655173,24.388571428571424,48.62068965517241,25.017142857142858,49.6551724137931,25.017142857142858C50.689655172413794,25.017142857142858,51.72413793103448,19.885714285714286,52.75862068965517,19.885714285714286C53.79310344827586,19.885714285714286,54.827586206896555,25.794285714285714,55.862068965517246,25.794285714285714C56.896551724137936,25.794285714285714,57.93103448275862,22.78857142857143,58.96551724137931,22.78857142857143C60,22.78857142857143,61.03448275862069,25.25714285714286,62.06896551724138,25.25714285714286C63.10344827586207,25.25714285714286,64.13793103448276,22.71809523809524,65.17241379310344,20.994285714285716C66.20689655172413,19.27047619047619,67.24137931034483,14.982857142857142,68.27586206896551,14.914285714285715C69.3103448275862,14.845714285714287,70.34482758620689,14.88,71.37931034482759,14.811428571428573C72.41379310344827,14.742857142857146,73.44827586206897,13.691428571428572,74.48275862068965,13.691428571428572C75.51724137931033,13.691428571428572,76.55172413793103,15.074285714285715,77.58620689655172,15.074285714285715C78.62068965517241,15.074285714285715,79.6551724137931,9.851428571428574,80.6896551724138,9.851428571428574C81.72413793103448,9.851428571428574,82.75862068965517,15.657142857142858,83.79310344827586,15.657142857142858C84.82758620689656,15.657142857142858,85.86206896551724,5.748571428571427,86.89655172413794,5.748571428571427C87.93103448275862,5.748571428571427,88.96551724137932,14.422857142857142,90,14.422857142857142C91.0344827586207,14.422857142857142,92.06896551724138,10.09904761904762,93.10344827586208,8.845714285714287C94.13793103448276,7.5923809523809656,95.17241379310344,6.902857142857144,96.20689655172413,6.902857142857144C97.24137931034483,6.902857142857144,98.27586206896551,8.466666666666669,99.3103448275862,9.657142857142858C100.3448275862069,10.847619047619048,101.37931034482759,12.84571428571428,102.41379310344828,14.045714285714283C103.44827586206897,15.245714285714275,104.48275862068965,16.857142857142854,105.51724137931033,16.857142857142854C106.55172413793103,16.857142857142854,107.58620689655172,16.08190476190476,108.62068965517241,15.028571428571427C109.65517241379311,13.975238095238094,110.6896551724138,11.921904761904765,111.72413793103449,10.537142857142857C112.75862068965517,9.152380952380957,113.79310344827587,6.7200000000000015,114.82758620689656,6.7200000000000015C115.86206896551724,6.7200000000000015,116.89655172413794,16.354285714285712,117.93103448275862,16.354285714285712C118.96551724137932,16.354285714285712,120,9.52,121.0344827586207,9.52C122.06896551724138,9.52,123.10344827586208,13.65904761904762,124.13793103448276,15.257142857142858C125.17241379310344,16.855238095238096,126.20689655172414,18.23809523809524,127.24137931034483,19.10857142857143C128.27586206896552,19.97904761904762,129.3103448275862,20.48,130.3448275862069,20.48C131.3793103448276,20.48,132.41379310344828,16.66095238095238,133.44827586206898,15.451428571428568C134.48275862068965,14.241904761904777,135.51724137931035,14.708571428571426,136.55172413793102,13.22285714285714C137.58620689655172,11.737142857142828,138.6206896551724,2.5028571428571444,139.6551724137931,2.5028571428571444C140.6896551724138,2.5028571428571444,141.72413793103448,5.714285714285713,142.75862068965517,7.177142857142855C143.79310344827587,8.639999999999997,144.82758620689654,9.792380952380952,145.86206896551724,11.280000000000001C146.89655172413794,12.76761904761905,147.9310344827586,16.102857142857143,148.9655172413793,16.102857142857143C150,16.102857142857143,151.0344827586207,11.321904761904772,152.0689655172414,9.554285714285715C153.10344827586206,7.786666666666691,154.13793103448276,5.497142857142858,155.17241379310343,5.497142857142858C156.20689655172413,5.497142857142858,157.24137931034483,11.108571428571427,158.27586206896552,11.108571428571427C159.31034482758622,11.108571428571427,160.3448275862069,8.651428571428571,161.3793103448276,8.651428571428571C162.41379310344828,8.651428571428571,163.44827586206895,10.224761904761902,164.48275862068965,11.714285714285712C165.51724137931035,13.203809523809522,166.55172413793102,15.59238095238096,167.58620689655172,17.588571428571427C168.6206896551724,19.584761904761912,169.6551724137931,23.691428571428574,170.6896551724138,23.691428571428574C171.7241379310345,23.691428571428574,172.75862068965517,16.937142857142856,173.79310344827587,16.86857142857143C174.82758620689657,16.8,175.86206896551724,16.765714285714285,176.89655172413794,16.765714285714285C177.93103448275863,16.765714285714285,178.9655172413793,17.462857142857143,180,18.159999999999997"></path><path class="axis-ceiling" stroke-width="1" stroke="black" fill="none" d="M175,0L180,0"></path><text class="axis-ceiling-label" font-family="sans-serif" text-anchor="end" font-size="10px" x="170" y="2.5">3500</text></g></svg>