<svg xmlns="http://www.w3.org/2000/svg" viewBox="0 0 180 60"><g transform="translate(0,20)"><path class="area" fill="rgba(0, 0, 0, 0.2)" d="M0,38.57142857142857C1.0344827586206897,38.478095238095236,2.068965517241379,38.3847619047619,3.103448275862069,38.011428571428574C4.137931034482759,37.63809523809525,5.172413793103448,36.10285714285714,6.206896551724138,35.85142857142857C7.241379310344827,35.6,8.275862068965516,35.53523809523809,9.310344827586206,35.47428571428571C10.344827586206897,35.413333333333334,11.379310344827585,35.38285714285714,12.413793103448276,35.38285714285714C13.448275862068966,35.38285714285714,14.482758620689655,36.19428571428571,15.517241379310345,36.19428571428571C16.551724137931036,36.19428571428571,17.586206896551722,36.10666666666667,18.620689655172413,35.97714285714286C19.655172413793103,35.84761904761905,20.689655172413794,35.79047619047619,21.724137931034484,35.417142857142856C22.758620689655174,35.04380952380952,23.79310344827586,30.765714285714285,24.82758620689655,30.765714285714285C25.862068965517242,30.765714285714285,26.896551724137932,31.474285714285717,27.931034482758623,31.542857142857144C28.965517241379313,31.611428571428572,30,31.645714285714284,31.03448275862069,31.645714285714284C32.06896551724138,31.645714285714284,33.103448275862064,27.931428571428572,34.137931034482754,27.931428571428572C35.172413793103445,27.931428571428572,36.206896551724135,28.18285714285714,37.241379310344826,28.685714285714283C38.275862068965516,29.188571428571425,39.310344827586206,31.53142857142857,40.3448275862069,31.53142857142857C41.37931034482759,31.53142857142857,42.41379310344828,29.154285714285717,43.44827586206897,28.674285714285716C44.48275862068966,28.194285714285716,45.51724137931035,27.954285714285714,46.55172413793104,27.954285714285714C47.58620689655173,27.954285714285714,48.62068965517241,29.988571428571433,49.6551724137931,29.988571428571433C50.689655172413794,29.988571428571433,51.72413793103448,24.388571428571424,52.75862068965517,24.388571428571424C53.79310344827586,24.388571428571424,54.827586206896555,25.017142857142858,55.862068965517246,25.017142857142858C56.896551724137936,25.017142857142858,57.93103448275862,19.885714285714286,58.96551724137931,19.885714285714286C60,19.885714285714286,61.03448275862069,25.794285714285714,62.06896551724138,25.794285714285714C63.10344827586207,25.794285714285714,64.13793103448276,22.78857142857143,65.17241379310344,22.78857142857143C66.20689655172413,22.78857142857143,67.24137931034483,25.25714285714286,68.27586206896551,25.25714285714286C69.3103448275862,25.25714285714286,70.34482758620689,22.718095238095245,71.37931034482759,20.994285714285716C72.41379310344827,19.270476190476195,73.44827586206897,14.982857142857142,74.48275862068965,14.914285714285715C75.51724137931033,14.845714285714287,76.55172413793103,14.88,77.58620689655172,14.811428571428573C78.62068965517241,14.742857142857146,79.6551724137931,13.691428571428572,80.6896551724138,13.691428571428572C81.72413793103448,13.691428571428572,82.75862068965517,15.074285714285715,83.79310344827586,15.074285714285715C84.82758620689656,15.074285714285715,85.86206896551724,9.851428571428574,86.89655172413794,9.851428571428574C87.93103448275862,9.851428571428574,88.96551724137932,15.657142857142858,90,15.657142857142858C91.0344827586207,15.657142857142858,92.06896551724138,5.748571428571427,93.10344827586208,5.748571428571427C94.13793103448276,5.748571428571427,95.17241379310344,14.422857142857142,96.20689655172413,14.422857142857142C97.24137931034483,14.422857142857142,98.27586206896551,10.09904761904762,99.3103448275862,8.845714285714287C100.3448275862069,7.592380952380954,101.37931034482759,6.902857142857144,102.41379310344828,6.902857142857144C103.44827586206897,6.902857142857144,104.48275862068965,8.466666666666676,105.51724137931033,9.657142857142858C106.55172413793103,10.847619047619052,107.58620689655172,12.845714285714283,108.62068965517241,14.045714285714283C109.65517241379311,15.245714285714282,110.6896551724138,16.857142857142854,111.72413793103449,16.857142857142854C112.75862068965517,16.857142857142854,113.79310344827587,16.08190476190476,114.82758620689656,15.028571428571427C115.86206896551724,13.975238095238094,116.89655172413794,11.92190476190476,117.93103448275862,10.537142857142857C118.96551724137932,9.15238095238095,120,6.7200000000000015,121.0344827586207,6.7200000000000015C122.06896551724138,6.7200000000000015,123.10344827586208,16.354285714285712,124.13793103448276,16.354285714285712C125.17241379310344,16.354285714285712,126.20689655172414,9.52,127.24137931034483,9.52C128.27586206896552,9.52,129.3103448275862,13.659047619047623,130.3448275862069,15.257142857142858C131.3793103448276,16.855238095238107,132.41379310344828,18.23809523809524,133.44827586206898,19.10857142857143C134.48275862068965,19.979047619047606,135.51724137931035,20.48,136.55172413793102,20.48C137.58620689655172,20.48,138.6206896551724,16.66095238095238,139.6551724137931,15.451428571428568C140.6896551724138,14.241904761904769,141.72413793103448,14.708571428571426,142.75862068965517,13.22285714285714C143.79310344827587,11.737142857142855,144.82758620689654,2.5028571428571444,145.86206896551724,2.5028571428571444C146.89655172413794,2.5028571428571444,147.9310344827586,5.714285714285718,148.9655172413793,7.177142857142855C150,8.640000000000006,151.0344827586207,9.792380952380938,152.0689655172414,11.280000000000001C153.10344827586206,12.767619047619037,154.13793103448276,16.102857142857143,155.17241379310343,16.102857142857143C156.20689655172413,16.102857142857143,157.24137931034483,11.321904761904767,158.27586206896552,9.554285714285715C159.31034482758622,7.7866666666666795,160.3448275862069,5.497142857142858,161.3793103448276,5.497142857142858C162.41379310344828,5.497142857142858,163.44827586206895,11.108571428571427,164.48275862068965,11.108571428571427C165.51724137931035,11.108571428571427,166.55172413793102,8.651428571428571,167.58620689655172,8.651428571428571C168.6206896551724,8.651428571428571,169.6551724137931,10.224761904761891,170.6896551724138,11.714285714285712C171.7241379310345,13.203809523809518,172.75862068965517,15.59238095238095,173.79310344827587,17.588571428571427C174.82758620689657,19.584761904761905,175.86206896551724,23.691428571428574,176.89655172413794,23.691428571428574C177.93103448275863,23.691428571428574,178.9655172413793,20.28,180,16.86857142857143L180,40C178.9655172413793,40,177.93103448275863,40,176.89655172413794,40C175.86206896551724,40,174.82758620689657,40,173.79310344827587,40C172.75862068965517,40,171.7241379310345,40,170.6896551724138,40C169.6551724137931,40,168.6206896551724,40,167.58620689655172,40C166.55172413793102,40,165.51724137931035,40,164.48275862068965,40C163.44827586206895,40,162.41379310344828,40,161.3793103448276,40C160.3448275862069,40,159.31034482758622,40,158.27586206896552,40C157.24137931034483,40,156.20689655172413,40,155.17241379310343,40C154.13793103448276,40,153.10344827586206,40,152.0689655172414,40C151.0344827586207,40,150,40,148.9655172413793,40C147.9310344827586,40,146.89655172413794,40,145.86206896551724,40C144.82758620689654,40,143.79310344827587,40,142.75862068965517,40C141.72413793103448,40,140.6896551724138,40,139.6551724137931,40C138.6206896551724,40,137.58620689655172,40,136.55172413793102,40C135.51724137931035,40,134.48275862068965,40,133.44827586206898,40C132.41379310344828,40,131.3793103448276,40,130.3448275862069,40C129.3103448275862,40,128.27586206896552,40,127.24137931034483,40C126.20689655172414,40,125.17241379310344,40,124.13793103448276,40C123.10344827586208,40,122.06896551724138,40,121.0344827586207,40C120,40,118.96551724137932,40,117.93103448275862,40C116.89655172413794,40,115.86206896551724,40,114.82758620689656,40C113.79310344827587,40,112.75862068965517,40,111.72413793103449,40C110.6896551724138,40,109.65517241379311,40,108.62068965517241,40C107.58620689655172,40,106.55172413793103,40,105.51724137931033,40C104.48275862068965,40,103.44827586206897,40,102.41379310344828,40C101.37931034482759,40,100.3448275862069,40,99.3103448275862,40C98.27586206896551,40,97.24137931034483,40,96.20689655172413,40C95.17241379310344,40,94.13793103448276,40,93.10344827586208,40C92.06896551724138,40,91.0344827586207,40,90,40C88.96551724137932,40,87.93103448275862,40,86.89655172413794,40C85.86206896551724,40,84.82758620689656,40,83.79310344827586,40C82.75862068965517,40,81.72413793103448,40,80.6896551724138,40C79.6551724137931,40,78.62068965517241,40,77.58620689655172,40C76.55172413793103,40,75.51724137931033,40,74.48275862068965,40C73.44827586206897,40,72.41379310344827,40,71.37931034482759,40C70.34482758620689,40,69.3103448275862,40,68.27586206896551,40C67.24137931034483,40,66.20689655172413,40,65.17241379310344,40C64.13793103448276,40,63.10344827586207,40,62.06896551724138,40C61.03448275862069,40,60,40,58.96551724137931,40C57.93103448275862,40,56.896551724137936,40,55.862068965517246,40C54.827586206896555,40,53.79310344827586,40,52.75862068965517,40C51.72413793103448,40,50.689655172413794,40,49.6551724137931,40C48.62068965517241,40,47.58620689655173,40,46.55172413793104,40C45.51724137931035,40,44.48275862068966,40,43.44827586206897,40C42.41379310344828,40,41.37931034482759,40,40.3448275862069,40C39.310344827586206,40,38.275862068965516,40,37.241379310344826,40C36.206896551724135,40,35.172413793103445,40,34.137931034482754,40C33.103448275862064,40,32.06896551724138,40,31.03448275862069,40C30,40,28.965517241379313,40,27.931034482758623,40C26.896551724137932,40,25.862068965517242,40,24.82758620689655,40C23.79310344827586,40,22.758620689655174,40,21.724137931034484,40C20.689655172413794,40,19.655172413793103,40,18.620689655172413,40C17.586206896551722,40,16.551724137931036,40,15.517241379310345,40C14.482758620689655,40,13.448275862068966,40,12.413793103448276,40C11.379310344827585,40,10.344827586206897,40,9.310344827586206,40C8.275862068965516,40,7.241379310344827,40,6.206896551724138,40C5.172413793103448,40,4.137931034482759,40,3.103448275862069,40C2.068965517241379,40,1.0344827586206897,40,0,40Z"></path><path class="line" stroke="black" fill="none" d="M0,38.57142857142857C1.0344827586206897,38.478095238095236,2.068965517241379,38.3847619047619,3.103448275862069,38.011428571428574C4.137931034482759,37.63809523809525,5.172413793103448,36.10285714285714,6.206896551724138,35.85142857142857C7.241379310344827,35.6,8.275862068965516,35.53523809523809,9.310344827586206,35.47428571428571C10.344827586206897,35.413333333333334,11.379310344827585,35.38285714285714,12.413793103448276,35.38285714285714C13.448275862068966,35.38285714285714,14.482758620689655,36.19428571428571,15.517241379310345,36.19428571428571C16.551724137931036,36.19428571428571,17.586206896551722,36.10666666666667,18.620689655172413,35.97714285714286C19.655172413793103,35.84761904761905,20.689655172413794,35.79047619047619,21.724137931034484,35.417142857142856C22.758620689655174,35.04380952380952,23.79310344827586,30.765714285714285,24.82758620689655,30.765714285714285C25.862068965517242,30.765714285714285,26.896551724137932,31.474285714285717,27.931034482758623,31.542857142857144C28.965517241379313,31.611428571428572,30,31.645714285714284,31.03448275862069,31.645714285714284C32.06896551724138,31.645714285714284,33.103448275862064,27.931428571428572,34.137931034482754,27.931428571428572C35.172413793103445,27.931428571428572,36.206896551724135,28.18285714285714,37.241379310344826,28.685714285714283C38.275862068965516,29.188571428571425,39.310344827586206,31.53142857142857,40.3448275862069,31.53142857142857C41.37931034482759,31.53142857142857,42.41379310344828,29.154285714285717,43.44827586206897,28.674285714285716C44.48275862068966,28.194285714285716,45.51724137931035,27.954285714285714,46.55172413793104,27.954285714285714C47.58620689655173,27.954285714285714,48.62068965517241,29.988571428571433,49.6551724137931,29.988571428571433C50.689655172413794,29.988571428571433,51.72413793103448,24.388571428571424,52.75862068965517,24.388571428571424C53.79310344827586,24.388571428571424,54.827586206896555,25.017142857142858,55.862068965517246,25.017142857142858C56.896551724137936,25.017142857142858,57.93103448275862,19.885714285714286,58.96551724137931,19.885714285714286C60,19.885714285714286,61.03448275862069,25.794285714285714,62.06896551724138,25.794285714285714C63.10344827586207,25.794285714285714,64.13793103448276,22.78857142857143,65.17241379310344,22.78857142857143C66.20689655172413,22.78857142857143,67.24137931034483,25.25714285714286,68.27586206896551,25.25714285714286C69.3103448275862,25.25714285714286,70.34482758620689,22.718095238095245,71.37931034482759,20.994285714285716C72.41379310344827,19.270476190476195,73.44827586206897,14.982857142857142,74.48275862068965,14.914285714285715C75.51724137931033,14.845714285714287,76.55172413793103,14.88,77.58620689655172,14.811428571428573C78.62068965517241,14.742857142857146,79.6551724137931,13.691428571428572,80.6896551724138,13.691428571428572C81.72413793103448,13.691428571428572,82.75862068965517,15.074285714285715,83.79310344827586,15.074285714285715C84.82758620689656,15.074285714285715,85.86206896551724,9.851428571428574,86.89655172413794,9.851428571428574C87.93103448275862,9.851428571428574,88.96551724137932,15.657142857142858,90,15.657142857142858C91.0344827586207,15.657142857142858,92.06896551724138,5.748571428571427,93.10344827586208,5.748571428571427C94.13793103448276,5.748571428571427,95.17241379310344,14.422857142857142,96.20689655172413,14.422857142857142C97.24137931034483,14.422857142857142,98.27586206896551,10.09904761904762,99.3103448275862,8.845714285714287C100.3448275862069,7.592380952380954,101.37931034482759,6.902857142857144,102.41379310344828,6.902857142857144C103.44827586206897,6.902857142857144,104.48275862068965,8.466666666666676,105.51724137931033,9.657142857142858C106.55172413793103,10.847619047619052,107.58620689655172,12.845714285714283,108.62068965517241,14.045714285714283C109.65517241379311,15.245714285714282,110.6896551724138,16.857142857142854,111.72413793103449,16.857142857142854C112.75862068965517,16.857142857142854,113.79310344827587,16.08190476190476,114.82758620689656,15.028571428571427C115.86206896551724,13.975238095238094,116.89655172413794,11.92190476190476,117.93103448275862,10.537142857142857C118.96551724137932,9.15238095238095,120,6.7200000000000015,121.0344827586207,6.7200000000000015C122.06896551724138,6.7200000000000015,123.10344827586208,16.354285714285712,124.13793103448276,16.354285714285712C125.17241379310344,16.354285714285712,126.20689655172414,9.52,127.24137931034483,9.52C128.27586206896552,9.52,129.3103448275862,13.659047619047623,130.3448275862069,15.257142857142858C131.3793103448276,16.855238095238107,132.41379310344828,18.23809523809524,133.44827586206898,19.10857142857143C134.48275862068965,19.979047619047606,135.51724137931035,20.48,136.55172413793102,20.48C137.58620689655172,20.48,138.6206896551724,16.66095238095238,139.6551724137931,15.451428571428568C140.6896551724138,14.241904761904769,141.72413793103448,14.708571428571426,142.75862068965517,13.22285714285714C143.79310344827587,11.737142857142855,144.82758620689654,2.5028571428571444,145.86206896551724,2.5028571428571444C146.89655172413794,2.5028571428571444,147.9310344827586,5.714285714285718,148.9655172413793,7.177142857142855C150,8.640000000000006,151.0344827586207,9.792380952380938,152.0689655172414,11.280000000000001C153.10344827586206,12.767619047619037,154.13793103448276,16.102857142857143,155.17241379310343,16.102857142857143C156.20689655172413,16.102857142857143,157.24137931034483,11.321904761904767,158.27586206896552,9.554285714285715C159.31034482758622,7.7866666666666795,160.3448275862069,5.497142857142858,161.3793103448276,5.497142857142858C162.41379310344828,5.497142857142858,163.44827586206895,11.108571428571427,164.48275862068965,11.108571428571427C165.51724137931035,11.108571428571427,166.55172413793102,8.651428571428571,167.58620689655172,8.651428571428571C168.6206896551724,8.651428571428571,169.6551724137931,10.224761904761891,170.6896551724138,11.714285714285712C171.7241379310345,13.203809523809518,172.75862068965517,15.59238095238095,173.79310344827587,17.588571428571427C174.82758620689657,19.584761904761905,175.86206896551724,23.691428571428574,176.89655172413794,23.691428571428574C177.93103448275863,23.691428571428574,178.9655172413793,20.28,180,16.86857142857143"></path><path class="axis-ceiling" stroke-width="1" stroke="black" fill="none" d="M175,0L180,0"></path><text class="axis-ceiling-label" font-family="sans-serif" text-anchor="end" font-size="10px" x="170" y="2.5">3500</text></g></svg>