<svg xmlns="http://www.w3.org/2000/svg" viewBox="0 0 180 60"><g transform="translate(0,20)"><path class="area" fill="rgba(0, 0, 0, 0.2)" d="M0,13.413333333333334C1.0169491525423728,13.377777777777776,2.0338983050847457,13.34222222222222,3.0508474576271185,13.279999999999998C4.067796610169491,13.217777777777775,5.084745762711864,13.057777777777774,6.101694915254237,13.04C7.11864406779661,13.022222222222224,8.135593220338983,13.013333333333335,9.152542372881356,13.013333333333335C10.169491525423728,13.013333333333335,11.186440677966102,13.533333333333333,12.203389830508474,13.706666666666667C13.220338983050846,13.88,14.23728813559322,13.911111111111113,15.254237288135592,14.053333333333335C16.271186440677965,14.195555555555556,17.28813559322034,14.488888888888885,18.305084745762713,14.559999999999999C19.322033898305087,14.631111111111112,20.338983050847457,14.595555555555555,21.35593220338983,14.666666666666668C22.372881355932204,14.737777777777781,23.389830508474574,14.888888888888888,24.406779661016948,15.013333333333332C25.423728813559322,15.137777777777776,26.440677966101696,15.31111111111111,27.45762711864407,15.413333333333332C28.47457627118644,15.515555555555554,29.491525423728813,15.524444444444446,30.508474576271183,15.626666666666669C31.525423728813557,15.728888888888891,32.54237288135593,15.804444444444442,33.559322033898304,16.026666666666664C34.57627118644068,16.248888888888885,35.59322033898305,16.72,36.610169491525426,16.96C37.6271186440678,17.2,38.644067796610166,17.297777777777775,39.66101694915254,17.466666666666665C40.67796610169491,17.635555555555555,41.69491525423729,17.86666666666667,42.71186440677966,17.973333333333336C43.728813559322035,18.080000000000002,44.7457627118644,18.06222222222222,45.762711864406775,18.133333333333333C46.77966101694915,18.204444444444444,47.79661016949152,18.319999999999997,48.813559322033896,18.4C49.83050847457627,18.48,50.847457627118644,18.493333333333336,51.86440677966102,18.613333333333337C52.88135593220339,18.733333333333338,53.898305084745765,19.119999999999997,54.91525423728814,19.119999999999997C55.93220338983051,19.119999999999997,56.94915254237288,18.96,57.96610169491525,18.96C58.983050847457626,18.96,59.99999999999999,19.39555555555556,61.01694915254237,19.46666666666667C62.03389830508474,19.537777777777777,63.05084745762712,19.502222222222223,64.0677966101695,19.57333333333333C65.08474576271186,19.64444444444444,66.10169491525424,20.02666666666667,67.11864406779661,20.293333333333337C68.13559322033899,20.560000000000002,69.15254237288136,20.888888888888886,70.16949152542374,21.173333333333332C71.1864406779661,21.457777777777775,72.20338983050848,21.8,73.22033898305085,22C74.23728813559322,22.2,75.2542372881356,22.124444444444446,76.27118644067797,22.373333333333335C77.28813559322033,22.622222222222224,78.30508474576271,23.40888888888889,79.32203389830508,23.759999999999998C80.33898305084746,24.11111111111111,81.35593220338983,24.391111111111115,82.37288135593221,24.48C83.38983050847457,24.568888888888885,84.40677966101696,24.546666666666663,85.42372881355932,24.61333333333333C86.4406779661017,24.679999999999996,87.45762711864407,24.70222222222222,88.47457627118645,24.88C89.49152542372882,25.057777777777776,90.50847457627118,25.466666666666672,91.52542372881355,25.866666666666667C92.54237288135593,26.26666666666667,93.55932203389831,26.84444444444444,94.57627118644069,27.279999999999998C95.59322033898306,27.71555555555555,96.61016949152543,28.479999999999997,97.62711864406779,28.479999999999997C98.64406779661016,28.479999999999997,99.66101694915254,27.604444444444443,100.6779661016949,27.093333333333334C101.69491525423729,26.58222222222222,102.71186440677965,25.862222222222222,103.72881355932203,25.413333333333334C104.7457627118644,24.964444444444446,105.76271186440678,24.875555555555554,106.77966101694915,24.4C107.79661016949153,23.924444444444443,108.8135593220339,23.271111111111114,109.83050847457628,22.560000000000002C110.84745762711864,21.848888888888894,111.86440677966102,21.097777777777782,112.88135593220339,20.133333333333336C113.89830508474576,19.16888888888889,114.91525423728814,17.78222222222222,115.9322033898305,16.773333333333333C116.94915254237289,15.764444444444441,117.96610169491525,14.719999999999999,118.98305084745763,14.079999999999998C120,13.440000000000003,121.01694915254237,12.933333333333334,122.03389830508473,12.933333333333334C123.05084745762711,12.933333333333334,124.0677966101695,13.093333333333332,125.08474576271188,13.2C126.10169491525424,13.306666666666665,127.11864406779662,13.466666666666667,128.135593220339,13.573333333333334C129.15254237288136,13.68,130.16949152542372,13.84,131.1864406779661,13.84C132.20338983050846,13.84,133.22033898305085,13.68,134.23728813559322,13.68C135.25423728813558,13.68,136.27118644067798,14.066666666666668,137.28813559322035,14.186666666666667C138.3050847457627,14.306666666666667,139.3220338983051,14.324444444444442,140.33898305084747,14.399999999999999C141.35593220338984,14.475555555555554,142.3728813559322,14.64,143.38983050847457,14.64C144.40677966101694,14.64,145.42372881355934,14.586666666666668,146.4406779661017,14.586666666666668C147.45762711864407,14.586666666666668,148.47457627118644,14.622222222222222,149.4915254237288,14.693333333333332C150.50847457627117,14.764444444444441,151.52542372881356,15.293333333333335,152.54237288135593,15.706666666666669C153.5593220338983,16.12,154.5762711864407,16.72,155.59322033898306,17.173333333333332C156.61016949152543,17.62666666666666,157.6271186440678,17.982222222222223,158.64406779661016,18.426666666666666C159.66101694915253,18.871111111111112,160.67796610169492,19.36888888888889,161.6949152542373,19.84C162.71186440677965,20.31111111111111,163.72881355932205,20.813333333333333,164.74576271186442,21.253333333333334C165.76271186440678,21.69333333333333,166.77966101694915,22.151111111111117,167.79661016949152,22.480000000000004C168.81355932203388,22.808888888888895,169.83050847457628,22.982222222222223,170.84745762711864,23.226666666666667C171.864406779661,23.47111111111111,172.8813559322034,23.688888888888886,173.89830508474577,23.946666666666665C174.91525423728814,24.204444444444444,175.93220338983053,24.506666666666664,176.9491525423729,24.773333333333333C177.96610169491527,25.04,178.98305084745763,25.293333333333333,180,25.546666666666667L180,40C178.98305084745763,40,177.96610169491527,40,176.9491525423729,40C175.93220338983053,40,174.91525423728814,40,173.89830508474577,40C172.8813559322034,40,171.864406779661,40,170.84745762711864,40C169.83050847457628,40,168.81355932203388,40,167.79661016949152,40C166.77966101694915,40,165.76271186440678,40,164.74576271186442,40C163.72881355932205,40,162.71186440677965,40,161.6949152542373,40C160.67796610169492,40,159.66101694915253,40,158.64406779661016,40C157.6271186440678,40,156.61016949152543,40,155.59322033898306,40C154.5762711864407,40,153.5593220338983,40,152.54237288135593,40C151.52542372881356,40,150.50847457627117,40,149.4915254237288,40C148.47457627118644,40,147.45762711864407,40,146.4406779661017,40C145.42372881355934,40,144.40677966101694,40,143.38983050847457,40C142.3728813559322,40,141.35593220338984,40,140.33898305084747,40C139.3220338983051,40,138.3050847457627,40,137.28813559322035,40C136.27118644067798,40,135.25423728813558,40,134.23728813559322,40C133.22033898305085,40,132.20338983050846,40,131.1864406779661,40C130.16949152542372,40,129.15254237288136,40,128.135593220339,40C127.11864406779662,40,126.10169491525424,40,125.08474576271188,40C124.0677966101695,40,123.05084745762711,40,122.03389830508473,40C121.01694915254237,40,120,40,118.98305084745763,40C117.96610169491525,40,116.94915254237289,40,115.9322033898305,40C114.91525423728814,40,113.89830508474576,40,112.88135593220339,40C111.86440677966102,40,110.84745762711864,40,109.83050847457628,40C108.8135593220339,40,107.79661016949153,40,106.77966101694915,40C105.76271186440678,40,104.7457627118644,40,103.72881355932203,40C102.71186440677965,40,101.69491525423729,40,100.6779661016949,40C99.66101694915254,40,98.64406779661016,40,97.62711864406779,40C96.61016949152543,40,95.59322033898306,40,94.57627118644069,40C93.55932203389831,40,92.54237288135593,40,91.52542372881355,40C90.50847457627118,40,89.49152542372882,40,88.47457627118645,40C87.45762711864407,40,86.4406779661017,40,85.42372881355932,40C84.40677966101696,40,83.38983050847457,40,82.37288135593221,40C81.35593220338983,40,80.33898305084746,40,79.32203389830508,40C78.30508474576271,40,77.28813559322033,40,76.27118644067797,40C75.2542372881356,40,74.23728813559322,40,73.22033898305085,40C72.20338983050848,40,71.1864406779661,40,70.16949152542374,40C69.15254237288136,40,68.13559322033899,40,67.11864406779661,40C66.10169491525424,40,65.08474576271186,40,64.0677966101695,40C63.05084745762712,40,62.03389830508474,40,61.01694915254237,40C59.99999999999999,40,58.983050847457626,40,57.96610169491525,40C56.94915254237288,40,55.93220338983051,40,54.91525423728814,40C53.898305084745765,40,52.88135593220339,40,51.86440677966102,40C50.847457627118644,40,49.83050847457627,40,48.813559322033896,40C47.79661016949152,40,46.77966101694915,40,45.762711864406775,40C44.7457627118644,40,43.728813559322035,40,42.71186440677966,40C41.69491525423729,40,40.67796610169491,40,39.66101694915254,40C38.644067796610166,40,37.6271186440678,40,36.610169491525426,40C35.59322033898305,40,34.57627118644068,40,33.559322033898304,40C32.54237288135593,40,31.525423728813557,40,30.508474576271183,40C29.491525423728813,40,28.47457627118644,40,27.45762711864407,40C26.440677966101696,40,25.423728813559322,40,24.406779661016948,40C23.389830508474574,40,22.372881355932204,40,21.35593220338983,40C20.338983050847457,40,19.322033898305087,40,18.305084745762713,40C17.28813559322034,40,16.271186440677965,40,15.254237288135592,40C14.23728813559322,40,13.220338983050846,40,12.203389830508474,40C11.186440677966102,40,10.169491525423728,40,9.152542372881356,40C8.135593220338983,40,7.11864406779661,40,6.101694915254237,40C5.084745762711864,40,4.067796610169491,40,3.0508474576271185,40C2.0338983050847457,40,1.0169491525423728,40,0,40Z"></path><path class="line" stroke="black" fill="none" d="M0,13.413333333333334C1.0169491525423728,13.377777777777776,2.0338983050847457,13.34222222222222,3.0508474576271185,13.279999999999998C4.067796610169491,13.217777777777775,5.084745762711864,13.057777777777774,6.101694915254237,13.04C7.11864406779661,13.022222222222224,8.135593220338983,13.013333333333335,9.152542372881356,13.013333333333335C10.169491525423728,13.013333333333335,11.186440677966102,13.533333333333333,12.203389830508474,13.706666666666667C13.220338983050846,13.88,14.23728813559322,13.911111111111113,15.254237288135592,14.053333333333335C16.271186440677965,14.195555555555556,17.28813559322034,14.488888888888885,18.305084745762713,14.559999999999999C19.322033898305087,14.631111111111112,20.338983050847457,14.595555555555555,21.35593220338983,14.666666666666668C22.372881355932204,14.737777777777781,23.389830508474574,14.888888888888888,24.406779661016948,15.013333333333332C25.423728813559322,15.137777777777776,26.440677966101696,15.31111111111111,27.45762711864407,15.413333333333332C28.47457627118644,15.515555555555554,29.491525423728813,15.524444444444446,30.508474576271183,15.626666666666669C31.525423728813557,15.728888888888891,32.54237288135593,15.804444444444442,33.559322033898304,16.026666666666664C34.57627118644068,16.248888888888885,35.59322033898305,16.72,36.610169491525426,16.96C37.6271186440678,17.2,38.644067796610166,17.297777777777775,39.66101694915254,17.466666666666665C40.67796610169491,17.635555555555555,41.69491525423729,17.86666666666667,42.71186440677966,17.973333333333336C43.728813559322035,18.080000000000002,44.7457627118644,18.06222222222222,45.762711864406775,18.133333333333333C46.77966101694915,18.204444444444444,47.79661016949152,18.319999999999997,48.813559322033896,18.4C49.83050847457627,18.48,50.847457627118644,18.493333333333336,51.86440677966102,18.613333333333337C52.88135593220339,18.733333333333338,53.898305084745765,19.119999999999997,54.91525423728814,19.119999999999997C55.93220338983051,19.119999999999997,56.94915254237288,18.96,57.96610169491525,18.96C58.983050847457626,18.96,59.99999999999999,19.39555555555556,61.01694915254237,19.46666666666667C62.03389830508474,19.537777777777777,63.05084745762712,19.502222222222223,64.0677966101695,19.57333333333333C65.08474576271186,19.64444444444444,66.10169491525424,20.02666666666667,67.11864406779661,20.293333333333337C68.13559322033899,20.560000000000002,69.15254237288136,20.888888888888886,70.16949152542374,21.173333333333332C71.1864406779661,21.457777777777775,72.20338983050848,21.8,73.22033898305085,22C74.23728813559322,22.2,75.2542372881356,22.124444444444446,76.27118644067797,22.373333333333335C77.28813559322033,22.622222222222224,78.30508474576271,23.40888888888889,79.32203389830508,23.759999999999998C80.33898305084746,24.11111111111111,81.35593220338983,24.391111111111115,82.37288135593221,24.48C83.38983050847457,24.568888888888885,84.40677966101696,24.546666666666663,85.42372881355932,24.61333333333333C86.4406779661017,24.679999999999996,87.45762711864407,24.70222222222222,88.47457627118645,24.88C89.49152542372882,25.057777777777776,90.50847457627118,25.466666666666672,91.52542372881355,25.866666666666667C92.54237288135593,26.26666666666667,93.55932203389831,26.84444444444444,94.57627118644069,27.279999999999998C95.59322033898306,27.71555555555555,96.61016949152543,28.479999999999997,97.62711864406779,28.479999999999997C98.64406779661016,28.479999999999997,99.66101694915254,27.604444444444443,100.6779661016949,27.093333333333334C101.69491525423729,26.58222222222222,102.71186440677965,25.862222222222222,103.72881355932203,25.413333333333334C104.7457627118644,24.964444444444446,105.76271186440678,24.875555555555554,106.77966101694915,24.4C107.79661016949153,23.924444444444443,108.8135593220339,23.271111111111114,109.83050847457628,22.560000000000002C110.84745762711864,21.848888888888894,111.86440677966102,21.097777777777782,112.88135593220339,20.133333333333336C113.89830508474576,19.16888888888889,114.91525423728814,17.78222222222222,115.9322033898305,16.773333333333333C116.94915254237289,15.764444444444441,117.96610169491525,14.719999999999999,118.98305084745763,14.079999999999998C120,13.440000000000003,121.01694915254237,12.933333333333334,122.03389830508473,12.933333333333334C123.05084745762711,12.933333333333334,124.0677966101695,13.093333333333332,125.08474576271188,13.2C126.10169491525424,13.306666666666665,127.11864406779662,13.466666666666667,128.135593220339,13.573333333333334C129.15254237288136,13.68,130.16949152542372,13.84,131.1864406779661,13.84C132.20338983050846,13.84,133.22033898305085,13.68,134.23728813559322,13.68C135.25423728813558,13.68,136.27118644067798,14.066666666666668,137.28813559322035,14.186666666666667C138.3050847457627,14.306666666666667,139.3220338983051,14.324444444444442,140.33898305084747,14.399999999999999C141.35593220338984,14.475555555555554,142.3728813559322,14.64,143.38983050847457,14.64C144.40677966101694,14.64,145.42372881355934,14.586666666666668,146.4406779661017,14.586666666666668C147.45762711864407,14.586666666666668,148.47457627118644,14.622222222222222,149.4915254237288,14.693333333333332C150.50847457627117,14.764444444444441,151.52542372881356,15.293333333333335,152.54237288135593,15.706666666666669C153.5593220338983,16.12,154.5762711864407,16.72,155.59322033898306,17.173333333333332C156.61016949152543,17.62666666666666,157.6271186440678,17.982222222222223,158.64406779661016,18.426666666666666C159.66101694915253,18.871111111111112,160.67796610169492,19.36888888888889,161.6949152542373,19.84C162.71186440677965,20.31111111111111,163.72881355932205,20.813333333333333,164.74576271186442,21.253333333333334C165.76271186440678,21.69333333333333,166.77966101694915,22.151111111111117,167.79661016949152,22.480000000000004C168.81355932203388,22.808888888888895,169.83050847457628,22.982222222222223,170.84745762711864,23.226666666666667C171.864406779661,23.47111111111111,172.8813559322034,23.688888888888886,173.89830508474577,23.946666666666665C174.91525423728814,24.204444444444444,175.93220338983053,24.506666666666664,176.9491525423729,24.773333333333333C177.96610169491527,25.04,178.98305084745763,25.293333333333333,180,25.546666666666667"></path><path class="axis-ceiling" stroke-width="1" stroke="black" fill="none" d="M175,0L180,0"></path><text class="axis-ceiling-label" font-family="sans-serif" text-anchor="end" font-size="10px" x="170" y="2.5">1500</text></g></svg>