<svg xmlns="http://www.w3.org/2000/svg" viewBox="0 0 180 60"><g transform="translate(0,20)"><path class="area" fill="rgba(0, 0, 0, 0.2)" d="M0,26.21333333333333C1.0344827586206897,22.066666666666666,2.068965517241379,17.92,3.103448275862069,14.906666666666668C4.137931034482759,11.893333333333334,5.172413793103448,8.133333333333335,6.206896551724138,8.133333333333335C7.241379310344827,8.133333333333335,8.275862068965516,10.871111111111112,9.310344827586206,11.600000000000001C10.344827586206897,12.32888888888889,11.379310344827585,12.400000000000002,12.413793103448276,12.693333333333335C13.448275862068966,12.986666666666668,14.482758620689655,12.982222222222221,15.517241379310345,13.36C16.551724137931036,13.737777777777778,17.586206896551722,13.893333333333333,18.620689655172413,14.96C19.655172413793103,16.02666666666667,20.689655172413794,26.879999999999995,21.724137931034484,26.879999999999995C22.758620689655174,26.879999999999995,23.79310344827586,20.093333333333334,24.82758620689655,17.44C25.862068965517242,14.786666666666667,26.896551724137932,10.96,27.931034482758623,10.96C28.965517241379313,10.96,30,12.31111111111111,31.03448275862069,13.066666666666666C32.06896551724138,13.822222222222221,33.103448275862064,14.36888888888889,34.137931034482754,15.493333333333332C35.172413793103445,16.61777777777778,36.206896551724135,19.813333333333333,37.241379310344826,19.813333333333333C38.275862068965516,19.813333333333333,39.310344827586206,18.56,40.3448275862069,18.56C41.37931034482759,18.56,42.41379310344828,30.346666666666664,43.44827586206897,30.346666666666664C44.48275862068966,30.346666666666664,45.51724137931035,21.528888888888893,46.55172413793104,18.613333333333337C47.58620689655173,15.697777777777787,48.62068965517241,12.853333333333335,49.6551724137931,12.853333333333335C50.689655172413794,12.853333333333335,51.72413793103448,13.417777777777781,52.75862068965517,14.453333333333331C53.79310344827586,15.488888888888887,54.827586206896555,19.066666666666666,55.862068965517246,19.066666666666666C56.896551724137936,19.066666666666666,57.93103448275862,18.799999999999997,58.96551724137931,18.799999999999997C60,18.799999999999997,61.03448275862069,20.079999999999995,62.06896551724138,22.106666666666666C63.10344827586207,24.133333333333333,64.13793103448276,30.96,65.17241379310344,30.96C66.20689655172413,30.96,67.24137931034483,25.63555555555555,68.27586206896551,23.65333333333333C69.3103448275862,21.6711111111111,70.34482758620689,19.066666666666666,71.37931034482759,19.066666666666666C72.41379310344827,19.066666666666666,73.44827586206897,19.928888888888885,74.48275862068965,20.346666666666664C75.51724137931033,20.764444444444443,76.55172413793103,20.755555555555553,77.58620689655172,21.573333333333334C78.62068965517241,22.39111111111112,79.6551724137931,28.533333333333335,80.6896551724138,28.533333333333335C81.72413793103448,28.533333333333335,82.75862068965517,27.199999999999996,83.79310344827586,27.199999999999996C84.82758620689656,27.199999999999996,85.86206896551724,31.92,86.89655172413794,31.92C87.93103448275862,31.92,88.96551724137932,25.493333333333332,90,25.493333333333332C91.0344827586207,25.493333333333332,92.06896551724138,25.608888888888888,93.10344827586208,25.84C94.13793103448276,26.071111111111108,95.17241379310344,30.32,96.20689655172413,30.32C97.24137931034483,30.32,98.27586206896551,30.22222222222222,99.3103448275862,30.026666666666667C100.3448275862069,29.831111111111113,101.37931034482759,21.013333333333357,102.41379310344828,18.773333333333333C103.44827586206897,16.53333333333333,104.48275862068965,15.413333333333332,105.51724137931033,15.413333333333332C106.55172413793103,15.413333333333332,107.58620689655172,24.85333333333333,108.62068965517241,24.85333333333333C109.65517241379311,24.85333333333333,110.6896551724138,15.12000000000001,111.72413793103449,12.613333333333333C112.75862068965517,10.10666666666667,113.79310344827587,9.808888888888891,114.82758620689656,8.853333333333335C115.86206896551724,7.89777777777778,116.89655172413794,6.880000000000002,117.93103448275862,6.880000000000002C118.96551724137932,6.880000000000002,120,11.093333333333334,121.0344827586207,11.093333333333334C122.06896551724138,11.093333333333334,123.10344827586208,10.8,124.13793103448276,10.8C125.17241379310344,10.8,126.20689655172414,14.399999999999999,127.24137931034483,17.173333333333332C128.27586206896552,19.946666666666665,129.3103448275862,27.439999999999998,130.3448275862069,27.439999999999998C131.3793103448276,27.439999999999998,132.41379310344828,17.782222222222234,133.44827586206898,14.506666666666668C134.48275862068965,11.231111111111161,135.51724137931035,7.786666666666666,136.55172413793102,7.786666666666666C137.58620689655172,7.786666666666666,138.6206896551724,9.608888888888886,139.6551724137931,10.4C140.6896551724138,11.191111111111107,141.72413793103448,12.533333333333335,142.75862068965517,12.533333333333335C143.79310344827587,12.533333333333335,144.82758620689654,12.533333333333335,145.86206896551724,12.533333333333335C146.89655172413794,12.533333333333335,147.9310344827586,14.204444444444466,148.9655172413793,16.826666666666664C150,19.448888888888888,151.0344827586207,28.266666666666666,152.0689655172414,28.266666666666666C153.10344827586206,28.266666666666666,154.13793103448276,23.155555555555548,155.17241379310343,21.466666666666665C156.20689655172413,19.77777777777775,157.24137931034483,18.133333333333333,158.27586206896552,18.133333333333333C159.31034482758622,18.133333333333333,160.3448275862069,18.47111111111111,161.3793103448276,19.14666666666667C162.41379310344828,19.822222222222226,163.44827586206895,22.302222222222223,164.48275862068965,22.373333333333335C165.51724137931035,22.444444444444446,166.55172413793102,22.408888888888892,167.58620689655172,22.480000000000004C168.6206896551724,22.55111111111112,169.6551724137931,23.49777777777776,170.6896551724138,25.333333333333332C171.7241379310345,27.168888888888887,172.75862068965517,33.49333333333333,173.79310344827587,33.49333333333333C174.82758620689657,33.49333333333333,175.86206896551724,28.124444444444443,176.89655172413794,26.53333333333333C177.93103448275863,24.94222222222222,178.9655172413793,24.444444444444443,180,23.946666666666665L180,40C178.9655172413793,40,177.93103448275863,40,176.89655172413794,40C175.86206896551724,40,174.82758620689657,40,173.79310344827587,40C172.75862068965517,40,171.7241379310345,40,170.6896551724138,40C169.6551724137931,40,168.6206896551724,40,167.58620689655172,40C166.55172413793102,40,165.51724137931035,40,164.48275862068965,40C163.44827586206895,40,162.41379310344828,40,161.3793103448276,40C160.3448275862069,40,159.31034482758622,40,158.27586206896552,40C157.24137931034483,40,156.20689655172413,40,155.17241379310343,40C154.13793103448276,40,153.10344827586206,40,152.0689655172414,40C151.0344827586207,40,150,40,148.9655172413793,40C147.9310344827586,40,146.89655172413794,40,145.86206896551724,40C144.82758620689654,40,143.79310344827587,40,142.75862068965517,40C141.72413793103448,40,140.6896551724138,40,139.6551724137931,40C138.6206896551724,40,137.58620689655172,40,136.55172413793102,40C135.51724137931035,40,134.48275862068965,40,133.44827586206898,40C132.41379310344828,40,131.3793103448276,40,130.3448275862069,40C129.3103448275862,40,128.27586206896552,40,127.24137931034483,40C126.20689655172414,40,125.17241379310344,40,124.13793103448276,40C123.10344827586208,40,122.06896551724138,40,121.0344827586207,40C120,40,118.96551724137932,40,117.93103448275862,40C116.89655172413794,40,115.86206896551724,40,114.82758620689656,40C113.79310344827587,40,112.75862068965517,40,111.72413793103449,40C110.6896551724138,40,109.65517241379311,40,108.62068965517241,40C107.58620689655172,40,106.55172413793103,40,105.51724137931033,40C104.48275862068965,40,103.44827586206897,40,102.41379310344828,40C101.37931034482759,40,100.3448275862069,40,99.3103448275862,40C98.27586206896551,40,97.24137931034483,40,96.20689655172413,40C95.17241379310344,40,94.13793103448276,40,93.10344827586208,40C92.06896551724138,40,91.0344827586207,40,90,40C88.96551724137932,40,87.93103448275862,40,86.89655172413794,40C85.86206896551724,40,84.82758620689656,40,83.79310344827586,40C82.75862068965517,40,81.72413793103448,40,80.6896551724138,40C79.6551724137931,40,78.62068965517241,40,77.58620689655172,40C76.55172413793103,40,75.51724137931033,40,74.48275862068965,40C73.44827586206897,40,72.41379310344827,40,71.37931034482759,40C70.34482758620689,40,69.3103448275862,40,68.27586206896551,40C67.24137931034483,40,66.20689655172413,40,65.17241379310344,40C64.13793103448276,40,63.10344827586207,40,62.06896551724138,40C61.03448275862069,40,60,40,58.96551724137931,40C57.93103448275862,40,56.896551724137936,40,55.862068965517246,40C54.827586206896555,40,53.79310344827586,40,52.75862068965517,40C51.72413793103448,40,50.689655172413794,40,49.6551724137931,40C48.62068965517241,40,47.58620689655173,40,46.55172413793104,40C45.51724137931035,40,44.48275862068966,40,43.44827586206897,40C42.41379310344828,40,41.37931034482759,40,40.3448275862069,40C39.310344827586206,40,38.275862068965516,40,37.241379310344826,40C36.206896551724135,40,35.172413793103445,40,34.137931034482754,40C33.103448275862064,40,32.06896551724138,40,31.03448275862069,40C30,40,28.965517241379313,40,27.931034482758623,40C26.896551724137932,40,25.862068965517242,40,24.82758620689655,40C23.79310344827586,40,22.758620689655174,40,21.724137931034484,40C20.689655172413794,40,19.655172413793103,40,18.620689655172413,40C17.586206896551722,40,16.551724137931036,40,15.517241379310345,40C14.482758620689655,40,13.448275862068966,40,12.413793103448276,40C11.379310344827585,40,10.344827586206897,40,9.310344827586206,40C8.275862068965516,40,7.241379310344827,40,6.206896551724138,40C5.172413793103448,40,4.137931034482759,40,3.103448275862069,40C2.068965517241379,40,1.0344827586206897,40,0,40Z"></path><path class="line" stroke="black" fill="none" d="M0,26.21333333333333C1.0344827586206897,22.066666666666666,2.068965517241379,17.92,3.103448275862069,14.906666666666668C4.137931034482759,11.893333333333334,5.172413793103448,8.133333333333335,6.206896551724138,8.133333333333335C7.241379310344827,8.133333333333335,8.275862068965516,10.871111111111112,9.310344827586206,11.600000000000001C10.344827586206897,12.32888888888889,11.379310344827585,12.400000000000002,12.413793103448276,12.693333333333335C13.448275862068966,12.986666666666668,14.482758620689655,12.982222222222221,15.517241379310345,13.36C16.551724137931036,13.737777777777778,17.586206896551722,13.893333333333333,18.620689655172413,14.96C19.655172413793103,16.02666666666667,20.689655172413794,26.879999999999995,21.724137931034484,26.879999999999995C22.758620689655174,26.879999999999995,23.79310344827586,20.093333333333334,24.82758620689655,17.44C25.862068965517242,14.786666666666667,26.896551724137932,10.96,27.931034482758623,10.96C28.965517241379313,10.96,30,12.31111111111111,31.03448275862069,13.066666666666666C32.06896551724138,13.822222222222221,33.103448275862064,14.36888888888889,34.137931034482754,15.493333333333332C35.172413793103445,16.61777777777778,36.206896551724135,19.813333333333333,37.241379310344826,19.813333333333333C38.275862068965516,19.813333333333333,39.310344827586206,18.56,40.3448275862069,18.56C41.37931034482759,18.56,42.41379310344828,30.346666666666664,43.44827586206897,30.346666666666664C44.48275862068966,30.346666666666664,45.51724137931035,21.528888888888893,46.55172413793104,18.613333333333337C47.58620689655173,15.697777777777787,48.62068965517241,12.853333333333335,49.6551724137931,12.853333333333335C50.689655172413794,12.853333333333335,51.72413793103448,13.417777777777781,52.75862068965517,14.453333333333331C53.79310344827586,15.488888888888887,54.827586206896555,19.066666666666666,55.862068965517246,19.066666666666666C56.896551724137936,19.066666666666666,57.93103448275862,18.799999999999997,58.96551724137931,18.799999999999997C60,18.799999999999997,61.03448275862069,20.079999999999995,62.06896551724138,22.106666666666666C63.10344827586207,24.133333333333333,64.13793103448276,30.96,65.17241379310344,30.96C66.20689655172413,30.96,67.24137931034483,25.63555555555555,68.27586206896551,23.65333333333333C69.3103448275862,21.6711111111111,70.34482758620689,19.066666666666666,71.37931034482759,19.066666666666666C72.41379310344827,19.066666666666666,73.44827586206897,19.928888888888885,74.48275862068965,20.346666666666664C75.51724137931033,20.764444444444443,76.55172413793103,20.755555555555553,77.58620689655172,21.573333333333334C78.62068965517241,22.39111111111112,79.6551724137931,28.533333333333335,80.6896551724138,28.533333333333335C81.72413793103448,28.533333333333335,82.75862068965517,27.199999999999996,83.79310344827586,27.199999999999996C84.82758620689656,27.199999999999996,85.86206896551724,31.92,86.89655172413794,31.92C87.93103448275862,31.92,88.96551724137932,25.493333333333332,90,25.493333333333332C91.0344827586207,25.493333333333332,92.06896551724138,25.608888888888888,93.10344827586208,25.84C94.13793103448276,26.071111111111108,95.17241379310344,30.32,96.20689655172413,30.32C97.24137931034483,30.32,98.27586206896551,30.22222222222222,99.3103448275862,30.026666666666667C100.3448275862069,29.831111111111113,101.37931034482759,21.013333333333357,102.41379310344828,18.773333333333333C103.44827586206897,16.53333333333333,104.48275862068965,15.413333333333332,105.51724137931033,15.413333333333332C106.55172413793103,15.413333333333332,107.58620689655172,24.85333333333333,108.62068965517241,24.85333333333333C109.65517241379311,24.85333333333333,110.6896551724138,15.12000000000001,111.72413793103449,12.613333333333333C112.75862068965517,10.10666666666667,113.79310344827587,9.808888888888891,114.82758620689656,8.853333333333335C115.86206896551724,7.89777777777778,116.89655172413794,6.880000000000002,117.93103448275862,6.880000000000002C118.96551724137932,6.880000000000002,120,11.093333333333334,121.0344827586207,11.093333333333334C122.06896551724138,11.093333333333334,123.10344827586208,10.8,124.13793103448276,10.8C125.17241379310344,10.8,126.20689655172414,14.399999999999999,127.24137931034483,17.173333333333332C128.27586206896552,19.946666666666665,129.3103448275862,27.439999999999998,130.3448275862069,27.439999999999998C131.3793103448276,27.439999999999998,132.41379310344828,17.782222222222234,133.44827586206898,14.506666666666668C134.48275862068965,11.231111111111161,135.51724137931035,7.786666666666666,136.55172413793102,7.786666666666666C137.58620689655172,7.786666666666666,138.6206896551724,9.608888888888886,139.6551724137931,10.4C140.6896551724138,11.191111111111107,141.72413793103448,12.533333333333335,142.75862068965517,12.533333333333335C143.79310344827587,12.533333333333335,144.82758620689654,12.533333333333335,145.86206896551724,12.533333333333335C146.89655172413794,12.533333333333335,147.9310344827586,14.204444444444466,148.9655172413793,16.826666666666664C150,19.448888888888888,151.0344827586207,28.266666666666666,152.0689655172414,28.266666666666666C153.10344827586206,28.266666666666666,154.13793103448276,23.155555555555548,155.17241379310343,21.466666666666665C156.20689655172413,19.77777777777775,157.24137931034483,18.133333333333333,158.27586206896552,18.133333333333333C159.31034482758622,18.133333333333333,160.3448275862069,18.47111111111111,161.3793103448276,19.14666666666667C162.41379310344828,19.822222222222226,163.44827586206895,22.302222222222223,164.48275862068965,22.373333333333335C165.51724137931035,22.444444444444446,166.55172413793102,22.408888888888892,167.58620689655172,22.480000000000004C168.6206896551724,22.55111111111112,169.6551724137931,23.49777777777776,170.6896551724138,25.333333333333332C171.7241379310345,27.168888888888887,172.75862068965517,33.49333333333333,173.79310344827587,33.49333333333333C174.82758620689657,33.49333333333333,175.86206896551724,28.124444444444443,176.89655172413794,26.53333333333333C177.93103448275863,24.94222222222222,178.9655172413793,24.444444444444443,180,23.946666666666665"></path><path class="axis-ceiling" stroke-width="1" stroke="black" fill="none" d="M175,0L180,0"></path><text class="axis-ceiling-label" font-family="sans-serif" text-anchor="end" font-size="10px" x="170" y="2.5">1500</text></g></svg>