<svg xmlns="http://www.w3.org/2000/svg" viewBox="0 0 180 60"><g transform="translate(0,20)"><path class="area" fill="rgba(0, 0, 0, 0.2)" d="M0,18.96C1.0169491525423728,18.086666666666666,2.0338983050847457,17.21333333333333,3.0508474576271185,16.666666666666664C4.067796610169491,16.119999999999997,5.084745762711864,15.786666666666667,6.101694915254237,15.68C7.11864406779661,15.573333333333332,8.135593220338983,15.626666666666667,9.152542372881356,15.52C10.169491525423728,15.413333333333332,11.186440677966102,14.666666666666666,12.203389830508474,14.559999999999999C13.220338983050846,14.453333333333331,14.23728813559322,14.506666666666666,15.254237288135592,14.399999999999999C16.271186440677965,14.293333333333331,17.28813559322034,13.635555555555555,18.305084745762713,13.546666666666667C19.322033898305087,13.457777777777778,20.338983050847457,13.457777777777778,21.35593220338983,13.413333333333334C22.372881355932204,13.36888888888889,23.389830508474574,13.34222222222222,24.406779661016948,13.279999999999998C25.423728813559322,13.217777777777775,26.440677966101696,13.057777777777774,27.45762711864407,13.04C28.47457627118644,13.022222222222224,29.491525423728813,13.013333333333335,30.508474576271183,13.013333333333335C31.525423728813557,13.013333333333335,32.54237288135593,13.533333333333333,33.559322033898304,13.706666666666667C34.57627118644068,13.88,35.59322033898305,13.911111111111113,36.610169491525426,14.053333333333335C37.6271186440678,14.195555555555556,38.644067796610166,14.488888888888885,39.66101694915254,14.559999999999999C40.67796610169491,14.631111111111112,41.69491525423729,14.595555555555555,42.71186440677966,14.666666666666668C43.728813559322035,14.737777777777781,44.7457627118644,14.888888888888888,45.762711864406775,15.013333333333332C46.77966101694915,15.137777777777776,47.79661016949152,15.31111111111111,48.813559322033896,15.413333333333332C49.83050847457627,15.515555555555554,50.847457627118644,15.524444444444446,51.86440677966102,15.626666666666669C52.88135593220339,15.728888888888891,53.898305084745765,15.80444444444444,54.91525423728814,16.026666666666664C55.93220338983051,16.248888888888885,56.94915254237288,16.72,57.96610169491525,16.96C58.983050847457626,17.200000000000003,59.99999999999999,17.297777777777775,61.01694915254237,17.466666666666665C62.03389830508474,17.635555555555555,63.05084745762712,17.86666666666667,64.0677966101695,17.973333333333336C65.08474576271186,18.080000000000002,66.10169491525424,18.06222222222222,67.11864406779661,18.133333333333333C68.13559322033899,18.204444444444444,69.15254237288136,18.319999999999997,70.16949152542374,18.4C71.1864406779661,18.48,72.20338983050848,18.493333333333336,73.22033898305085,18.613333333333337C74.23728813559322,18.733333333333338,75.2542372881356,19.119999999999997,76.27118644067797,19.119999999999997C77.28813559322033,19.119999999999997,78.30508474576271,18.96,79.32203389830508,18.96C80.33898305084746,18.96,81.35593220338983,19.39555555555556,82.37288135593221,19.46666666666667C83.38983050847457,19.537777777777777,84.40677966101696,19.502222222222223,85.42372881355932,19.57333333333333C86.4406779661017,19.64444444444444,87.45762711864407,20.026666666666667,88.47457627118645,20.293333333333337C89.49152542372882,20.560000000000002,90.50847457627118,20.88888888888889,91.52542372881355,21.173333333333332C92.54237288135593,21.45777777777778,93.55932203389831,21.8,94.57627118644069,22C95.59322033898306,22.2,96.61016949152543,22.124444444444446,97.62711864406779,22.373333333333335C98.64406779661016,22.622222222222227,99.66101694915254,23.40888888888889,100.6779661016949,23.759999999999998C101.69491525423729,24.11111111111111,102.71186440677965,24.391111111111115,103.72881355932203,24.48C104.7457627118644,24.568888888888885,105.76271186440678,24.546666666666663,106.77966101694915,24.61333333333333C107.79661016949153,24.679999999999996,108.8135593220339,24.70222222222222,109.83050847457628,24.88C110.84745762711864,25.057777777777776,111.86440677966102,25.46666666666667,112.88135593220339,25.866666666666667C113.89830508474576,26.266666666666666,114.91525423728814,26.844444444444445,115.9322033898305,27.279999999999998C116.94915254237289,27.715555555555554,117.96610169491525,28.479999999999997,118.98305084745763,28.479999999999997C120,28.479999999999997,121.01694915254237,27.60444444444444,122.03389830508473,27.093333333333334C123.05084745762711,26.58222222222222,124.0677966101695,25.862222222222226,125.08474576271188,25.413333333333334C126.10169491525424,24.96444444444445,127.11864406779662,24.875555555555554,128.135593220339,24.4C129.15254237288136,23.924444444444443,130.16949152542372,23.271111111111107,131.1864406779661,22.560000000000002C132.20338983050846,21.84888888888889,133.22033898305085,21.097777777777782,134.23728813559322,20.133333333333336C135.25423728813558,19.16888888888889,136.27118644067798,17.782222222222224,137.28813559322035,16.773333333333333C138.3050847457627,15.764444444444443,139.3220338983051,14.719999999999999,140.33898305084747,14.079999999999998C141.35593220338984,13.440000000000003,142.3728813559322,12.933333333333334,143.38983050847457,12.933333333333334C144.40677966101694,12.933333333333334,145.42372881355934,13.093333333333332,146.4406779661017,13.2C147.45762711864407,13.306666666666665,148.47457627118644,13.466666666666669,149.4915254237288,13.573333333333334C150.50847457627117,13.680000000000001,151.52542372881356,13.84,152.54237288135593,13.84C153.5593220338983,13.84,154.5762711864407,13.68,155.59322033898306,13.68C156.61016949152543,13.68,157.6271186440678,14.066666666666668,158.64406779661016,14.186666666666667C159.66101694915253,14.306666666666668,160.67796610169492,14.324444444444444,161.6949152542373,14.399999999999999C162.71186440677965,14.475555555555554,163.72881355932205,14.64,164.74576271186442,14.64C165.76271186440678,14.64,166.77966101694915,14.586666666666668,167.79661016949152,14.586666666666668C168.81355932203388,14.586666666666668,169.83050847457628,14.622222222222222,170.84745762711864,14.693333333333332C171.864406779661,14.764444444444441,172.8813559322034,15.293333333333335,173.89830508474577,15.706666666666669C174.91525423728814,16.12,175.93220338983053,16.72,176.9491525423729,17.173333333333332C177.96610169491527,17.62666666666666,178.98305084745763,18.026666666666664,180,18.426666666666666L180,40C178.98305084745763,40,177.96610169491527,40,176.9491525423729,40C175.93220338983053,40,174.91525423728814,40,173.89830508474577,40C172.8813559322034,40,171.864406779661,40,170.84745762711864,40C169.83050847457628,40,168.81355932203388,40,167.79661016949152,40C166.77966101694915,40,165.76271186440678,40,164.74576271186442,40C163.72881355932205,40,162.71186440677965,40,161.6949152542373,40C160.67796610169492,40,159.66101694915253,40,158.64406779661016,40C157.6271186440678,40,156.61016949152543,40,155.59322033898306,40C154.5762711864407,40,153.5593220338983,40,152.54237288135593,40C151.52542372881356,40,150.50847457627117,40,149.4915254237288,40C148.47457627118644,40,147.45762711864407,40,146.4406779661017,40C145.42372881355934,40,144.40677966101694,40,143.38983050847457,40C142.3728813559322,40,141.35593220338984,40,140.33898305084747,40C139.3220338983051,40,138.3050847457627,40,137.28813559322035,40C136.27118644067798,40,135.25423728813558,40,134.23728813559322,40C133.22033898305085,40,132.20338983050846,40,131.1864406779661,40C130.16949152542372,40,129.15254237288136,40,128.135593220339,40C127.11864406779662,40,126.10169491525424,40,125.08474576271188,40C124.0677966101695,40,123.05084745762711,40,122.03389830508473,40C121.01694915254237,40,120,40,118.98305084745763,40C117.96610169491525,40,116.94915254237289,40,115.9322033898305,40C114.91525423728814,40,113.89830508474576,40,112.88135593220339,40C111.86440677966102,40,110.84745762711864,40,109.83050847457628,40C108.8135593220339,40,107.79661016949153,40,106.77966101694915,40C105.76271186440678,40,104.7457627118644,40,103.72881355932203,40C102.71186440677965,40,101.69491525423729,40,100.6779661016949,40C99.66101694915254,40,98.64406779661016,40,97.62711864406779,40C96.61016949152543,40,95.59322033898306,40,94.57627118644069,40C93.55932203389831,40,92.54237288135593,40,91.52542372881355,40C90.50847457627118,40,89.49152542372882,40,88.47457627118645,40C87.45762711864407,40,86.4406779661017,40,85.42372881355932,40C84.40677966101696,40,83.38983050847457,40,82.37288135593221,40C81.35593220338983,40,80.33898305084746,40,79.32203389830508,40C78.30508474576271,40,77.28813559322033,40,76.27118644067797,40C75.2542372881356,40,74.23728813559322,40,73.22033898305085,40C72.20338983050848,40,71.1864406779661,40,70.16949152542374,40C69.15254237288136,40,68.13559322033899,40,67.11864406779661,40C66.10169491525424,40,65.08474576271186,40,64.0677966101695,40C63.05084745762712,40,62.03389830508474,40,61.01694915254237,40C59.99999999999999,40,58.983050847457626,40,57.96610169491525,40C56.94915254237288,40,55.93220338983051,40,54.91525423728814,40C53.898305084745765,40,52.88135593220339,40,51.86440677966102,40C50.847457627118644,40,49.83050847457627,40,48.813559322033896,40C47.79661016949152,40,46.77966101694915,40,45.762711864406775,40C44.7457627118644,40,43.728813559322035,40,42.71186440677966,40C41.69491525423729,40,40.67796610169491,40,39.66101694915254,40C38.644067796610166,40,37.6271186440678,40,36.610169491525426,40C35.59322033898305,40,34.57627118644068,40,33.559322033898304,40C32.54237288135593,40,31.525423728813557,40,30.508474576271183,40C29.491525423728813,40,28.47457627118644,40,27.45762711864407,40C26.440677966101696,40,25.423728813559322,40,24.406779661016948,40C23.389830508474574,40,22.372881355932204,40,21.35593220338983,40C20.338983050847457,40,19.322033898305087,40,18.305084745762713,40C17.28813559322034,40,16.271186440677965,40,15.254237288135592,40C14.23728813559322,40,13.220338983050846,40,12.203389830508474,40C11.186440677966102,40,10.169491525423728,40,9.152542372881356,40C8.135593220338983,40,7.11864406779661,40,6.101694915254237,40C5.084745762711864,40,4.067796610169491,40,3.0508474576271185,40C2.0338983050847457,40,1.0169491525423728,40,0,40Z"></path><path class="line" stroke="black" fill="none" d="M0,18.96C1.0169491525423728,18.086666666666666,2.0338983050847457,17.21333333333333,3.0508474576271185,16.666666666666664C4.067796610169491,16.119999999999997,5.084745762711864,15.786666666666667,6.101694915254237,15.68C7.11864406779661,15.573333333333332,8.135593220338983,15.626666666666667,9.152542372881356,15.52C10.169491525423728,15.413333333333332,11.186440677966102,14.666666666666666,12.203389830508474,14.559999999999999C13.220338983050846,14.453333333333331,14.23728813559322,14.506666666666666,15.254237288135592,14.399999999999999C16.271186440677965,14.293333333333331,17.28813559322034,13.635555555555555,18.305084745762713,13.546666666666667C19.322033898305087,13.457777777777778,20.338983050847457,13.457777777777778,21.35593220338983,13.413333333333334C22.372881355932204,13.36888888888889,23.389830508474574,13.34222222222222,24.406779661016948,13.279999999999998C25.423728813559322,13.217777777777775,26.440677966101696,13.057777777777774,27.45762711864407,13.04C28.47457627118644,13.022222222222224,29.491525423728813,13.013333333333335,30.508474576271183,13.013333333333335C31.525423728813557,13.013333333333335,32.54237288135593,13.533333333333333,33.559322033898304,13.706666666666667C34.57627118644068,13.88,35.59322033898305,13.911111111111113,36.610169491525426,14.053333333333335C37.6271186440678,14.195555555555556,38.644067796610166,14.488888888888885,39.66101694915254,14.559999999999999C40.67796610169491,14.631111111111112,41.69491525423729,14.595555555555555,42.71186440677966,14.666666666666668C43.728813559322035,14.737777777777781,44.7457627118644,14.888888888888888,45.762711864406775,15.013333333333332C46.77966101694915,15.137777777777776,47.79661016949152,15.31111111111111,48.813559322033896,15.413333333333332C49.83050847457627,15.515555555555554,50.847457627118644,15.524444444444446,51.86440677966102,15.626666666666669C52.88135593220339,15.728888888888891,53.898305084745765,15.80444444444444,54.91525423728814,16.026666666666664C55.93220338983051,16.248888888888885,56.94915254237288,16.72,57.96610169491525,16.96C58.983050847457626,17.200000000000003,59.99999999999999,17.297777777777775,61.01694915254237,17.466666666666665C62.03389830508474,17.635555555555555,63.05084745762712,17.86666666666667,64.0677966101695,17.973333333333336C65.08474576271186,18.080000000000002,66.10169491525424,18.06222222222222,67.11864406779661,18.133333333333333C68.13559322033899,18.204444444444444,69.15254237288136,18.319999999999997,70.16949152542374,18.4C71.1864406779661,18.48,72.20338983050848,18.493333333333336,73.22033898305085,18.613333333333337C74.23728813559322,18.733333333333338,75.2542372881356,19.119999999999997,76.27118644067797,19.119999999999997C77.28813559322033,19.119999999999997,78.30508474576271,18.96,79.32203389830508,18.96C80.33898305084746,18.96,81.35593220338983,19.39555555555556,82.37288135593221,19.46666666666667C83.38983050847457,19.537777777777777,84.40677966101696,19.502222222222223,85.42372881355932,19.57333333333333C86.4406779661017,19.64444444444444,87.45762711864407,20.026666666666667,88.47457627118645,20.293333333333337C89.49152542372882,20.560000000000002,90.50847457627118,20.88888888888889,91.52542372881355,21.173333333333332C92.54237288135593,21.45777777777778,93.55932203389831,21.8,94.57627118644069,22C95.59322033898306,22.2,96.61016949152543,22.124444444444446,97.62711864406779,22.373333333333335C98.64406779661016,22.622222222222227,99.66101694915254,23.40888888888889,100.6779661016949,23.759999999999998C101.69491525423729,24.11111111111111,102.71186440677965,24.391111111111115,103.72881355932203,24.48C104.7457627118644,24.568888888888885,105.76271186440678,24.546666666666663,106.77966101694915,24.61333333333333C107.79661016949153,24.679999999999996,108.8135593220339,24.70222222222222,109.83050847457628,24.88C110.84745762711864,25.057777777777776,111.86440677966102,25.46666666666667,112.88135593220339,25.866666666666667C113.89830508474576,26.266666666666666,114.91525423728814,26.844444444444445,115.9322033898305,27.279999999999998C116.94915254237289,27.715555555555554,117.96610169491525,28.479999999999997,118.98305084745763,28.479999999999997C120,28.479999999999997,121.01694915254237,27.60444444444444,122.03389830508473,27.093333333333334C123.05084745762711,26.58222222222222,124.0677966101695,25.862222222222226,125.08474576271188,25.413333333333334C126.10169491525424,24.96444444444445,127.11864406779662,24.875555555555554,128.135593220339,24.4C129.15254237288136,23.924444444444443,130.16949152542372,23.271111111111107,131.1864406779661,22.560000000000002C132.20338983050846,21.84888888888889,133.22033898305085,21.097777777777782,134.23728813559322,20.133333333333336C135.25423728813558,19.16888888888889,136.27118644067798,17.782222222222224,137.28813559322035,16.773333333333333C138.3050847457627,15.764444444444443,139.3220338983051,14.719999999999999,140.33898305084747,14.079999999999998C141.35593220338984,13.440000000000003,142.3728813559322,12.933333333333334,143.38983050847457,12.933333333333334C144.40677966101694,12.933333333333334,145.42372881355934,13.093333333333332,146.4406779661017,13.2C147.45762711864407,13.306666666666665,148.47457627118644,13.466666666666669,149.4915254237288,13.573333333333334C150.50847457627117,13.680000000000001,151.52542372881356,13.84,152.54237288135593,13.84C153.5593220338983,13.84,154.5762711864407,13.68,155.59322033898306,13.68C156.61016949152543,13.68,157.6271186440678,14.066666666666668,158.64406779661016,14.186666666666667C159.66101694915253,14.306666666666668,160.67796610169492,14.324444444444444,161.6949152542373,14.399999999999999C162.71186440677965,14.475555555555554,163.72881355932205,14.64,164.74576271186442,14.64C165.76271186440678,14.64,166.77966101694915,14.586666666666668,167.79661016949152,14.586666666666668C168.81355932203388,14.586666666666668,169.83050847457628,14.622222222222222,170.84745762711864,14.693333333333332C171.864406779661,14.764444444444441,172.8813559322034,15.293333333333335,173.89830508474577,15.706666666666669C174.91525423728814,16.12,175.93220338983053,16.72,176.9491525423729,17.173333333333332C177.96610169491527,17.62666666666666,178.98305084745763,18.026666666666664,180,18.426666666666666"></path><path class="axis-ceiling" stroke-width="1" stroke="black" fill="none" d="M175,0L180,0"></path><text class="axis-ceiling-label" font-family="sans-serif" text-anchor="end" font-size="10px" x="170" y="2.5">1500</text></g></svg>