<svg xmlns="http://www.w3.org/2000/svg" viewBox="0 0 180 60"><g transform="translate(0,20)"><path class="area" fill="rgba(0, 0, 0, 0.2)" d="M0,22.719542857142862C1.0169491525423728,22.948780952380954,2.0338983050847457,23.178019047619042,3.0508474576271185,23.26342857142857C4.067796610169491,23.348838095238097,5.084745762711864,23.39093333333334,6.101694915254237,23.39154285714286C7.11864406779661,23.39215238095238,8.135593220338983,23.39184761904762,9.152542372881356,23.39245714285714C10.169491525423728,23.39306666666666,11.186440677966102,23.606723809523807,12.203389830508474,23.691085714285713C13.220338983050846,23.77544761904762,14.23728813559322,23.760266666666666,15.254237288135592,23.89862857142857C16.271186440677965,24.036990476190475,17.28813559322034,25.727885714285712,18.305084745762713,25.727885714285712C19.322033898305087,25.727885714285712,20.338983050847457,25.702285714285715,21.35593220338983,25.702285714285715C22.372881355932204,25.702285714285715,23.389830508474574,25.842533333333336,24.406779661016948,25.917942857142858C25.423728813559322,25.99335238095238,26.440677966101696,26.060666666666666,27.45762711864407,26.154742857142857C28.47457627118644,26.248819047619047,29.491525423728813,26.4824,30.508474576271183,26.4824C31.525423728813557,26.4824,32.54237288135593,26.467580952380953,33.559322033898304,26.437942857142858C34.57627118644068,26.408304761904763,35.59322033898305,26.355619047619047,36.610169491525426,26.19097142857143C37.6271186440678,26.026323809523813,38.644067796610166,24.9576,39.66101694915254,24.9576C40.67796610169491,24.9576,41.69491525423729,25.21152380952381,42.71186440677966,25.28617142857143C43.728813559322035,25.360819047619046,44.7457627118644,25.389942857142856,45.762711864406775,25.405485714285714C46.77966101694915,25.42102857142857,47.79661016949152,25.428800000000003,48.813559322033896,25.428800000000003C49.83050847457627,25.428800000000003,50.847457627118644,25.005752380952384,51.86440677966102,24.9384C52.88135593220339,24.87104761904762,53.898305084745765,24.837371428571426,54.91525423728814,24.837371428571426C55.93220338983051,24.837371428571426,56.94915254237288,25.25245714285714,57.96610169491525,25.25245714285714C58.983050847457626,25.25245714285714,59.99999999999999,25.176647619047618,61.01694915254237,25.02502857142857C62.03389830508474,24.873409523809524,63.05084745762712,24.037371428571426,64.0677966101695,24.037371428571426C65.08474576271186,24.037371428571426,66.10169491525424,24.362399999999997,67.11864406779661,24.362399999999997C68.13559322033899,24.362399999999997,69.15254237288136,24.277028571428573,70.16949152542374,24.277028571428573C71.1864406779661,24.277028571428573,72.20338983050848,24.36866666666667,73.22033898305085,24.39794285714286C74.23728813559322,24.427219047619047,75.2542372881356,24.452685714285714,76.27118644067797,24.452685714285714C77.28813559322033,24.452685714285714,78.30508474576271,24.163542857142858,79.32203389830508,24.163542857142858C80.33898305084746,24.163542857142858,81.35593220338983,24.60872380952381,82.37288135593221,24.77702857142857C83.38983050847457,24.94533333333333,84.40677966101696,25.17337142857143,85.42372881355932,25.17337142857143C86.4406779661017,25.17337142857143,87.45762711864407,24.7644,88.47457627118645,24.597371428571428C89.49152542372882,24.430342857142858,90.50847457627118,24.1712,91.52542372881355,24.1712C92.54237288135593,24.1712,93.55932203389831,24.22605714285714,94.57627118644069,24.22605714285714C95.59322033898306,24.22605714285714,96.61016949152543,24.13245714285714,97.62711864406779,24.13245714285714C98.64406779661016,24.13245714285714,99.66101694915254,24.257714285714282,100.6779661016949,24.257714285714282C101.69491525423729,24.257714285714282,102.71186440677965,22.974361904761906,103.72881355932203,22.937942857142858C104.7457627118644,22.90152380952381,105.76271186440678,22.919733333333333,106.77966101694915,22.883314285714285C107.79661016949153,22.846895238095236,108.8135593220339,22.334171428571427,109.83050847457628,22.334171428571427C110.84745762711864,22.334171428571427,111.86440677966102,22.886971428571428,112.88135593220339,22.886971428571428C113.89830508474576,22.886971428571428,114.91525423728814,22.782742857142857,115.9322033898305,22.782742857142857C116.94915254237289,22.782742857142857,117.96610169491525,22.870514285714286,118.98305084745763,22.870514285714286C120,22.870514285714286,121.01694915254237,22.79222857142857,122.03389830508473,22.79222857142857C123.05084745762711,22.79222857142857,124.0677966101695,23.518628571428568,125.08474576271188,23.518628571428568C126.10169491525424,23.518628571428568,127.11864406779662,4.62038095238095,128.135593220339,4.406971428571427C129.15254237288136,4.193561904761904,130.16949152542372,4.086857142857143,131.1864406779661,4.086857142857143C132.20338983050846,4.086857142857143,133.22033898305085,4.110971428571428,134.23728813559322,4.1591999999999985C135.25423728813558,4.207428571428569,136.27118644067798,5.420533333333333,137.28813559322035,5.771085714285715C138.3050847457627,6.121638095238097,139.3220338983051,6.208533333333334,140.33898305084747,6.296914285714288C141.35593220338984,6.385295238095241,142.3728813559322,6.4294857142857165,143.38983050847457,6.4294857142857165C144.40677966101694,6.4294857142857165,145.42372881355934,6.414628571428573,146.4406779661017,6.414628571428573C147.45762711864407,6.414628571428573,148.47457627118644,25.849904761904778,149.4915254237288,27.204800000000002C150.50847457627117,28.559695238095237,151.52542372881356,28.643657142857144,152.54237288135593,29.237142857142857C153.5593220338983,29.83062857142857,154.5762711864407,30.765714285714285,155.59322033898306,30.765714285714285C156.61016949152543,30.765714285714285,157.6271186440678,28.78834285714285,158.64406779661016,28.55588571428571C159.66101694915253,28.32342857142857,160.67796610169492,28.297276190476186,161.6949152542373,28.207199999999997C162.71186440677965,28.117123809523807,163.72881355932205,28.10912380952381,164.74576271186442,28.015428571428572C165.76271186440678,27.921733333333336,166.77966101694915,27.891961904761907,167.79661016949152,27.645028571428576C168.81355932203388,27.39809523809524,169.83050847457628,26.76407619047619,170.84745762711864,26.310971428571428C171.864406779661,25.857866666666666,172.8813559322034,25.420723809523807,173.89830508474577,24.926399999999997C174.91525423728814,24.432076190476188,175.93220338983053,23.34502857142857,176.9491525423729,23.34502857142857C177.96610169491527,23.34502857142857,178.98305084745763,23.907314285714286,180,24.4696L180,40C178.98305084745763,40,177.96610169491527,40,176.9491525423729,40C175.93220338983053,40,174.91525423728814,40,173.89830508474577,40C172.8813559322034,40,171.864406779661,40,170.84745762711864,40C169.83050847457628,40,168.81355932203388,40,167.79661016949152,40C166.77966101694915,40,165.76271186440678,40,164.74576271186442,40C163.72881355932205,40,162.71186440677965,40,161.6949152542373,40C160.67796610169492,40,159.66101694915253,40,158.64406779661016,40C157.6271186440678,40,156.61016949152543,40,155.59322033898306,40C154.5762711864407,40,153.5593220338983,40,152.54237288135593,40C151.52542372881356,40,150.50847457627117,40,149.4915254237288,40C148.47457627118644,40,147.45762711864407,40,146.4406779661017,40C145.42372881355934,40,144.40677966101694,40,143.38983050847457,40C142.3728813559322,40,141.35593220338984,40,140.33898305084747,40C139.3220338983051,40,138.3050847457627,40,137.28813559322035,40C136.27118644067798,40,135.25423728813558,40,134.23728813559322,40C133.22033898305085,40,132.20338983050846,40,131.1864406779661,40C130.16949152542372,40,129.15254237288136,40,128.135593220339,40C127.11864406779662,40,126.10169491525424,40,125.08474576271188,40C124.0677966101695,40,123.05084745762711,40,122.03389830508473,40C121.01694915254237,40,120,40,118.98305084745763,40C117.96610169491525,40,116.94915254237289,40,115.9322033898305,40C114.91525423728814,40,113.89830508474576,40,112.88135593220339,40C111.86440677966102,40,110.84745762711864,40,109.83050847457628,40C108.8135593220339,40,107.79661016949153,40,106.77966101694915,40C105.76271186440678,40,104.7457627118644,40,103.72881355932203,40C102.71186440677965,40,101.69491525423729,40,100.6779661016949,40C99.66101694915254,40,98.64406779661016,40,97.62711864406779,40C96.61016949152543,40,95.59322033898306,40,94.57627118644069,40C93.55932203389831,40,92.54237288135593,40,91.52542372881355,40C90.50847457627118,40,89.49152542372882,40,88.47457627118645,40C87.45762711864407,40,86.4406779661017,40,85.42372881355932,40C84.40677966101696,40,83.38983050847457,40,82.37288135593221,40C81.35593220338983,40,80.33898305084746,40,79.32203389830508,40C78.30508474576271,40,77.28813559322033,40,76.27118644067797,40C75.2542372881356,40,74.23728813559322,40,73.22033898305085,40C72.20338983050848,40,71.1864406779661,40,70.16949152542374,40C69.15254237288136,40,68.13559322033899,40,67.11864406779661,40C66.10169491525424,40,65.08474576271186,40,64.0677966101695,40C63.05084745762712,40,62.03389830508474,40,61.01694915254237,40C59.99999999999999,40,58.983050847457626,40,57.96610169491525,40C56.94915254237288,40,55.93220338983051,40,54.91525423728814,40C53.898305084745765,40,52.88135593220339,40,51.86440677966102,40C50.847457627118644,40,49.83050847457627,40,48.813559322033896,40C47.79661016949152,40,46.77966101694915,40,45.762711864406775,40C44.7457627118644,40,43.728813559322035,40,42.71186440677966,40C41.69491525423729,40,40.67796610169491,40,39.66101694915254,40C38.644067796610166,40,37.6271186440678,40,36.610169491525426,40C35.59322033898305,40,34.57627118644068,40,33.559322033898304,40C32.54237288135593,40,31.525423728813557,40,30.508474576271183,40C29.491525423728813,40,28.47457627118644,40,27.45762711864407,40C26.440677966101696,40,25.423728813559322,40,24.406779661016948,40C23.389830508474574,40,22.372881355932204,40,21.35593220338983,40C20.338983050847457,40,19.322033898305087,40,18.305084745762713,40C17.28813559322034,40,16.271186440677965,40,15.254237288135592,40C14.23728813559322,40,13.220338983050846,40,12.203389830508474,40C11.186440677966102,40,10.169491525423728,40,9.152542372881356,40C8.135593220338983,40,7.11864406779661,40,6.101694915254237,40C5.084745762711864,40,4.067796610169491,40,3.0508474576271185,40C2.0338983050847457,40,1.0169491525423728,40,0,40Z"></path><path class="line" stroke="black" fill="none" d="M0,22.719542857142862C1.0169491525423728,22.948780952380954,2.0338983050847457,23.178019047619042,3.0508474576271185,23.26342857142857C4.067796610169491,23.348838095238097,5.084745762711864,23.39093333333334,6.101694915254237,23.39154285714286C7.11864406779661,23.39215238095238,8.135593220338983,23.39184761904762,9.152542372881356,23.39245714285714C10.169491525423728,23.39306666666666,11.186440677966102,23.606723809523807,12.203389830508474,23.691085714285713C13.220338983050846,23.77544761904762,14.23728813559322,23.760266666666666,15.254237288135592,23.89862857142857C16.271186440677965,24.036990476190475,17.28813559322034,25.727885714285712,18.305084745762713,25.727885714285712C19.322033898305087,25.727885714285712,20.338983050847457,25.702285714285715,21.35593220338983,25.702285714285715C22.372881355932204,25.702285714285715,23.389830508474574,25.842533333333336,24.406779661016948,25.917942857142858C25.423728813559322,25.99335238095238,26.440677966101696,26.060666666666666,27.45762711864407,26.154742857142857C28.47457627118644,26.248819047619047,29.491525423728813,26.4824,30.508474576271183,26.4824C31.525423728813557,26.4824,32.54237288135593,26.467580952380953,33.559322033898304,26.437942857142858C34.57627118644068,26.408304761904763,35.59322033898305,26.355619047619047,36.610169491525426,26.19097142857143C37.6271186440678,26.026323809523813,38.644067796610166,24.9576,39.66101694915254,24.9576C40.67796610169491,24.9576,41.69491525423729,25.21152380952381,42.71186440677966,25.28617142857143C43.728813559322035,25.360819047619046,44.7457627118644,25.389942857142856,45.762711864406775,25.405485714285714C46.77966101694915,25.42102857142857,47.79661016949152,25.428800000000003,48.813559322033896,25.428800000000003C49.83050847457627,25.428800000000003,50.847457627118644,25.005752380952384,51.86440677966102,24.9384C52.88135593220339,24.87104761904762,53.898305084745765,24.837371428571426,54.91525423728814,24.837371428571426C55.93220338983051,24.837371428571426,56.94915254237288,25.25245714285714,57.96610169491525,25.25245714285714C58.983050847457626,25.25245714285714,59.99999999999999,25.176647619047618,61.01694915254237,25.02502857142857C62.03389830508474,24.873409523809524,63.05084745762712,24.037371428571426,64.0677966101695,24.037371428571426C65.08474576271186,24.037371428571426,66.10169491525424,24.362399999999997,67.11864406779661,24.362399999999997C68.13559322033899,24.362399999999997,69.15254237288136,24.277028571428573,70.16949152542374,24.277028571428573C71.1864406779661,24.277028571428573,72.20338983050848,24.36866666666667,73.22033898305085,24.39794285714286C74.23728813559322,24.427219047619047,75.2542372881356,24.452685714285714,76.27118644067797,24.452685714285714C77.28813559322033,24.452685714285714,78.30508474576271,24.163542857142858,79.32203389830508,24.163542857142858C80.33898305084746,24.163542857142858,81.35593220338983,24.60872380952381,82.37288135593221,24.77702857142857C83.38983050847457,24.94533333333333,84.40677966101696,25.17337142857143,85.42372881355932,25.17337142857143C86.4406779661017,25.17337142857143,87.45762711864407,24.7644,88.47457627118645,24.597371428571428C89.49152542372882,24.430342857142858,90.50847457627118,24.1712,91.52542372881355,24.1712C92.54237288135593,24.1712,93.55932203389831,24.22605714285714,94.57627118644069,24.22605714285714C95.59322033898306,24.22605714285714,96.61016949152543,24.13245714285714,97.62711864406779,24.13245714285714C98.64406779661016,24.13245714285714,99.66101694915254,24.257714285714282,100.6779661016949,24.257714285714282C101.69491525423729,24.257714285714282,102.71186440677965,22.974361904761906,103.72881355932203,22.937942857142858C104.7457627118644,22.90152380952381,105.76271186440678,22.919733333333333,106.77966101694915,22.883314285714285C107.79661016949153,22.846895238095236,108.8135593220339,22.334171428571427,109.83050847457628,22.334171428571427C110.84745762711864,22.334171428571427,111.86440677966102,22.886971428571428,112.88135593220339,22.886971428571428C113.89830508474576,22.886971428571428,114.91525423728814,22.782742857142857,115.9322033898305,22.782742857142857C116.94915254237289,22.782742857142857,117.96610169491525,22.870514285714286,118.98305084745763,22.870514285714286C120,22.870514285714286,121.01694915254237,22.79222857142857,122.03389830508473,22.79222857142857C123.05084745762711,22.79222857142857,124.0677966101695,23.518628571428568,125.08474576271188,23.518628571428568C126.10169491525424,23.518628571428568,127.11864406779662,4.62038095238095,128.135593220339,4.406971428571427C129.15254237288136,4.193561904761904,130.16949152542372,4.086857142857143,131.1864406779661,4.086857142857143C132.20338983050846,4.086857142857143,133.22033898305085,4.110971428571428,134.23728813559322,4.1591999999999985C135.25423728813558,4.207428571428569,136.27118644067798,5.420533333333333,137.28813559322035,5.771085714285715C138.3050847457627,6.121638095238097,139.3220338983051,6.208533333333334,140.33898305084747,6.296914285714288C141.35593220338984,6.385295238095241,142.3728813559322,6.4294857142857165,143.38983050847457,6.4294857142857165C144.40677966101694,6.4294857142857165,145.42372881355934,6.414628571428573,146.4406779661017,6.414628571428573C147.45762711864407,6.414628571428573,148.47457627118644,25.849904761904778,149.4915254237288,27.204800000000002C150.50847457627117,28.559695238095237,151.52542372881356,28.643657142857144,152.54237288135593,29.237142857142857C153.5593220338983,29.83062857142857,154.5762711864407,30.765714285714285,155.59322033898306,30.765714285714285C156.61016949152543,30.765714285714285,157.6271186440678,28.78834285714285,158.64406779661016,28.55588571428571C159.66101694915253,28.32342857142857,160.67796610169492,28.297276190476186,161.6949152542373,28.207199999999997C162.71186440677965,28.117123809523807,163.72881355932205,28.10912380952381,164.74576271186442,28.015428571428572C165.76271186440678,27.921733333333336,166.77966101694915,27.891961904761907,167.79661016949152,27.645028571428576C168.81355932203388,27.39809523809524,169.83050847457628,26.76407619047619,170.84745762711864,26.310971428571428C171.864406779661,25.857866666666666,172.8813559322034,25.420723809523807,173.89830508474577,24.926399999999997C174.91525423728814,24.432076190476188,175.93220338983053,23.34502857142857,176.9491525423729,23.34502857142857C177.96610169491527,23.34502857142857,178.98305084745763,23.907314285714286,180,24.4696"></path><path class="axis-ceiling" stroke-width="1" stroke="black" fill="none" d="M175,0L180,0"></path><text class="axis-ceiling-label" font-family="sans-serif" text-anchor="end" font-size="10px" x="170" y="2.5">350000</text></g></svg>