<svg xmlns="http://www.w3.org/2000/svg" viewBox="0 0 180 60"><g transform="translate(0,20)"><path class="area" fill="rgba(0, 0, 0, 0.2)" d="M0,12.699413333333332C1.0169491525423728,12.643619111111112,2.0338983050847457,12.58782488888889,3.0508474576271185,12.531408000000003C4.067796610169491,12.474991111111114,5.084745762711864,12.414942888888891,6.101694915254237,12.360912000000003C7.11864406779661,12.306881111111114,8.135593220338983,12.263004000000002,9.152542372881356,12.207222666666668C10.169491525423728,12.151441333333334,11.186440677966102,12.085974222222223,12.203389830508474,12.026224000000001C13.220338983050846,11.966473777777779,14.23728813559322,11.908206666666665,15.254237288135592,11.848721333333332C16.271186440677965,11.789235999999999,17.28813559322034,11.72984888888889,18.305084745762713,11.669312000000001C19.322033898305087,11.608775111111113,20.338983050847457,11.545272222222223,21.35593220338983,11.485500000000002C22.372881355932204,11.42572777777778,23.389830508474574,11.36906977777778,24.406779661016948,11.310678666666668C25.423728813559322,11.252287555555556,26.440677966101696,11.192912666666668,27.45762711864407,11.135153333333335C28.47457627118644,11.077394000000002,29.491525423728813,11.021977999999999,30.508474576271183,10.964122666666665C31.525423728813557,10.90626733333333,32.54237288135593,10.846438666666666,33.559322033898304,10.788021333333333C34.57627118644068,10.729604,35.59322033898305,10.67171288888889,36.610169491525426,10.613618666666667C37.6271186440678,10.555524444444446,38.644067796610166,10.496605111111108,39.66101694915254,10.439455999999998C40.67796610169491,10.382306888888888,41.69491525423729,10.327005333333334,42.71186440677966,10.270724000000001C43.728813559322035,10.214442666666669,44.7457627118644,10.15759688888889,45.762711864406775,10.101768C46.77966101694915,10.04593911111111,47.79661016949152,9.991051777777779,48.813559322033896,9.935750666666667C49.83050847457627,9.880449555555556,50.847457627118644,9.823467777777779,51.86440677966102,9.769961333333335C52.88135593220339,9.71645488888889,53.898305084745765,9.66615377777778,54.91525423728814,9.614712C55.93220338983051,9.563270222222222,56.94915254237288,9.511760444444443,57.96610169491525,9.461310666666666C58.983050847457626,9.41086088888889,59.99999999999999,9.361479111111114,61.01694915254237,9.312013333333336C62.03389830508474,9.262547555555559,63.05084745762712,9.213146666666667,64.0677966101695,9.164515999999999C65.08474576271186,9.115885333333331,66.10169491525424,9.067471999999999,67.11864406779661,9.020229333333333C68.13559322033899,8.972986666666667,69.15254237288136,8.926693333333334,70.16949152542374,8.881060000000002C71.1864406779661,8.835426666666669,72.20338983050848,8.79204466666667,73.22033898305085,8.746429333333335C74.23728813559322,8.700814000000001,75.2542372881356,8.653119111111112,76.27118644067797,8.607368000000001C77.28813559322033,8.56161688888889,78.30508474576271,8.516924222222224,79.32203389830508,8.471922666666668C80.33898305084746,8.426921111111112,81.35593220338983,8.379234222222223,82.37288135593221,8.337358666666667C83.38983050847457,8.29548311111111,84.40677966101696,8.259146222222222,85.42372881355932,8.220669333333333C86.4406779661017,8.182192444444444,87.45762711864407,8.144123555555556,88.47457627118645,8.106497333333333C89.49152542372882,8.068871111111111,90.50847457627118,8.030551777777776,91.52542372881355,7.9949119999999985C92.54237288135593,7.9592722222222205,93.55932203389831,7.925687555555556,94.57627118644069,7.892658666666668C95.59322033898306,7.859629777777779,96.61016949152543,7.828589555555556,97.62711864406779,7.796738666666667C98.64406779661016,7.764887777777778,99.66101694915254,7.732906666666667,100.6779661016949,7.701553333333333C101.69491525423729,7.6701999999999995,102.71186440677965,7.641346888888889,103.72881355932203,7.608618666666667C104.7457627118644,7.575890444444444,105.76271186440678,7.539398888888887,106.77966101694915,7.505183999999998C107.79661016949153,7.470969111111109,108.8135593220339,7.437016666666666,109.83050847457628,7.403329333333333C110.84745762711864,7.369642,111.86440677966102,7.337128000000001,112.88135593220339,7.303060000000001C113.89830508474576,7.268992000000002,114.91525423728814,7.231936666666668,115.9322033898305,7.198921333333335C116.94915254237289,7.165906000000001,117.96610169491525,7.136252222222223,118.98305084745763,7.104968C120,7.073683777777778,121.01694915254237,7.042311333333333,122.03389830508473,7.011216C123.05084745762711,6.980120666666667,124.0677966101695,6.948853555555558,125.08474576271188,6.918396000000002C126.10169491525424,6.887938444444447,127.11864406779662,6.857937777777778,128.135593220339,6.828470666666666C129.15254237288136,6.799003555555554,130.16949152542372,6.770016222222222,131.1864406779661,6.741593333333333C132.20338983050846,6.713170444444445,133.22033898305085,6.6855491111111105,134.23728813559322,6.657933333333332C135.25423728813558,6.630317555555554,136.27118644067798,6.60279111111111,137.28813559322035,6.575898666666666C138.3050847457627,6.549006222222222,139.3220338983051,6.522846444444446,140.33898305084747,6.496578666666668C141.35593220338984,6.470310888888891,142.3728813559322,6.444429333333335,143.38983050847457,6.418292000000001C144.40677966101694,6.392154666666667,145.42372881355934,6.365730666666666,146.4406779661017,6.339754666666666C147.45762711864407,6.313778666666666,148.47457627118644,6.288069999999999,149.4915254237288,6.262436C150.50847457627117,6.236802000000001,151.52542372881356,6.211119555555557,152.54237288135593,6.185950666666669C153.5593220338983,6.16078177777778,154.5762711864407,6.136738444444444,155.59322033898306,6.111422666666666C156.61016949152543,6.086106888888888,157.6271186440678,6.059753555555554,158.64406779661016,6.034055999999999C159.66101694915253,6.008358444444443,160.67796610169492,5.982636444444442,161.6949152542373,5.957237333333332C162.71186440677965,5.931838222222221,163.72881355932205,5.906699555555557,164.74576271186442,5.8816613333333345C165.76271186440678,5.856623111111112,166.77966101694915,5.831702666666665,167.79661016949152,5.807007999999998C168.81355932203388,5.782313333333331,169.83050847457628,5.7578035555555545,170.84745762711864,5.733493333333333C171.864406779661,5.709183111111111,172.8813559322034,5.685573777777776,173.89830508474577,5.661146666666665C174.91525423728814,5.636719555555555,175.93220338983053,5.6092260000000005,176.9491525423729,5.586930666666667C177.96610169491527,5.564635333333334,178.98305084745763,5.546005000000001,180,5.527374666666667L180,40C178.98305084745763,40,177.96610169491527,40,176.9491525423729,40C175.93220338983053,40,174.91525423728814,40,173.89830508474577,40C172.8813559322034,40,171.864406779661,40,170.84745762711864,40C169.83050847457628,40,168.81355932203388,40,167.79661016949152,40C166.77966101694915,40,165.76271186440678,40,164.74576271186442,40C163.72881355932205,40,162.71186440677965,40,161.6949152542373,40C160.67796610169492,40,159.66101694915253,40,158.64406779661016,40C157.6271186440678,40,156.61016949152543,40,155.59322033898306,40C154.5762711864407,40,153.5593220338983,40,152.54237288135593,40C151.52542372881356,40,150.50847457627117,40,149.4915254237288,40C148.47457627118644,40,147.45762711864407,40,146.4406779661017,40C145.42372881355934,40,144.40677966101694,40,143.38983050847457,40C142.3728813559322,40,141.35593220338984,40,140.33898305084747,40C139.3220338983051,40,138.3050847457627,40,137.28813559322035,40C136.27118644067798,40,135.25423728813558,40,134.23728813559322,40C133.22033898305085,40,132.20338983050846,40,131.1864406779661,40C130.16949152542372,40,129.15254237288136,40,128.135593220339,40C127.11864406779662,40,126.10169491525424,40,125.08474576271188,40C124.0677966101695,40,123.05084745762711,40,122.03389830508473,40C121.01694915254237,40,120,40,118.98305084745763,40C117.96610169491525,40,116.94915254237289,40,115.9322033898305,40C114.91525423728814,40,113.89830508474576,40,112.88135593220339,40C111.86440677966102,40,110.84745762711864,40,109.83050847457628,40C108.8135593220339,40,107.79661016949153,40,106.77966101694915,40C105.76271186440678,40,104.7457627118644,40,103.72881355932203,40C102.71186440677965,40,101.69491525423729,40,100.6779661016949,40C99.66101694915254,40,98.64406779661016,40,97.62711864406779,40C96.61016949152543,40,95.59322033898306,40,94.57627118644069,40C93.55932203389831,40,92.54237288135593,40,91.52542372881355,40C90.50847457627118,40,89.49152542372882,40,88.47457627118645,40C87.45762711864407,40,86.4406779661017,40,85.42372881355932,40C84.40677966101696,40,83.38983050847457,40,82.37288135593221,40C81.35593220338983,40,80.33898305084746,40,79.32203389830508,40C78.30508474576271,40,77.28813559322033,40,76.27118644067797,40C75.2542372881356,40,74.23728813559322,40,73.22033898305085,40C72.20338983050848,40,71.1864406779661,40,70.16949152542374,40C69.15254237288136,40,68.13559322033899,40,67.11864406779661,40C66.10169491525424,40,65.08474576271186,40,64.0677966101695,40C63.05084745762712,40,62.03389830508474,40,61.01694915254237,40C59.99999999999999,40,58.983050847457626,40,57.96610169491525,40C56.94915254237288,40,55.93220338983051,40,54.91525423728814,40C53.898305084745765,40,52.88135593220339,40,51.86440677966102,40C50.847457627118644,40,49.83050847457627,40,48.813559322033896,40C47.79661016949152,40,46.77966101694915,40,45.762711864406775,40C44.7457627118644,40,43.728813559322035,40,42.71186440677966,40C41.69491525423729,40,40.67796610169491,40,39.66101694915254,40C38.644067796610166,40,37.6271186440678,40,36.610169491525426,40C35.59322033898305,40,34.57627118644068,40,33.559322033898304,40C32.54237288135593,40,31.525423728813557,40,30.508474576271183,40C29.491525423728813,40,28.47457627118644,40,27.45762711864407,40C26.440677966101696,40,25.423728813559322,40,24.406779661016948,40C23.389830508474574,40,22.372881355932204,40,21.35593220338983,40C20.338983050847457,40,19.322033898305087,40,18.305084745762713,40C17.28813559322034,40,16.271186440677965,40,15.254237288135592,40C14.23728813559322,40,13.220338983050846,40,12.203389830508474,40C11.186440677966102,40,10.169491525423728,40,9.152542372881356,40C8.135593220338983,40,7.11864406779661,40,6.101694915254237,40C5.084745762711864,40,4.067796610169491,40,3.0508474576271185,40C2.0338983050847457,40,1.0169491525423728,40,0,40Z"></path><path class="line" stroke="black" fill="none" d="M0,12.699413333333332C1.0169491525423728,12.643619111111112,2.0338983050847457,12.58782488888889,3.0508474576271185,12.531408000000003C4.067796610169491,12.474991111111114,5.084745762711864,12.414942888888891,6.101694915254237,12.360912000000003C7.11864406779661,12.306881111111114,8.135593220338983,12.263004000000002,9.152542372881356,12.207222666666668C10.169491525423728,12.151441333333334,11.186440677966102,12.085974222222223,12.203389830508474,12.026224000000001C13.220338983050846,11.966473777777779,14.23728813559322,11.908206666666665,15.254237288135592,11.848721333333332C16.271186440677965,11.789235999999999,17.28813559322034,11.72984888888889,18.305084745762713,11.669312000000001C19.322033898305087,11.608775111111113,20.338983050847457,11.545272222222223,21.35593220338983,11.485500000000002C22.372881355932204,11.42572777777778,23.389830508474574,11.36906977777778,24.406779661016948,11.310678666666668C25.423728813559322,11.252287555555556,26.440677966101696,11.192912666666668,27.45762711864407,11.135153333333335C28.47457627118644,11.077394000000002,29.491525423728813,11.021977999999999,30.508474576271183,10.964122666666665C31.525423728813557,10.90626733333333,32.54237288135593,10.846438666666666,33.559322033898304,10.788021333333333C34.57627118644068,10.729604,35.59322033898305,10.67171288888889,36.610169491525426,10.613618666666667C37.6271186440678,10.555524444444446,38.644067796610166,10.496605111111108,39.66101694915254,10.439455999999998C40.67796610169491,10.382306888888888,41.69491525423729,10.327005333333334,42.71186440677966,10.270724000000001C43.728813559322035,10.214442666666669,44.7457627118644,10.15759688888889,45.762711864406775,10.101768C46.77966101694915,10.04593911111111,47.79661016949152,9.991051777777779,48.813559322033896,9.935750666666667C49.83050847457627,9.880449555555556,50.847457627118644,9.823467777777779,51.86440677966102,9.769961333333335C52.88135593220339,9.71645488888889,53.898305084745765,9.66615377777778,54.91525423728814,9.614712C55.93220338983051,9.563270222222222,56.94915254237288,9.511760444444443,57.96610169491525,9.461310666666666C58.983050847457626,9.41086088888889,59.99999999999999,9.361479111111114,61.01694915254237,9.312013333333336C62.03389830508474,9.262547555555559,63.05084745762712,9.213146666666667,64.0677966101695,9.164515999999999C65.08474576271186,9.115885333333331,66.10169491525424,9.067471999999999,67.11864406779661,9.020229333333333C68.13559322033899,8.972986666666667,69.15254237288136,8.926693333333334,70.16949152542374,8.881060000000002C71.1864406779661,8.835426666666669,72.20338983050848,8.79204466666667,73.22033898305085,8.746429333333335C74.23728813559322,8.700814000000001,75.2542372881356,8.653119111111112,76.27118644067797,8.607368000000001C77.28813559322033,8.56161688888889,78.30508474576271,8.516924222222224,79.32203389830508,8.471922666666668C80.33898305084746,8.426921111111112,81.35593220338983,8.379234222222223,82.37288135593221,8.337358666666667C83.38983050847457,8.29548311111111,84.40677966101696,8.259146222222222,85.42372881355932,8.220669333333333C86.4406779661017,8.182192444444444,87.45762711864407,8.144123555555556,88.47457627118645,8.106497333333333C89.49152542372882,8.068871111111111,90.50847457627118,8.030551777777776,91.52542372881355,7.9949119999999985C92.54237288135593,7.9592722222222205,93.55932203389831,7.925687555555556,94.57627118644069,7.892658666666668C95.59322033898306,7.859629777777779,96.61016949152543,7.828589555555556,97.62711864406779,7.796738666666667C98.64406779661016,7.764887777777778,99.66101694915254,7.732906666666667,100.6779661016949,7.701553333333333C101.69491525423729,7.6701999999999995,102.71186440677965,7.641346888888889,103.72881355932203,7.608618666666667C104.7457627118644,7.575890444444444,105.76271186440678,7.539398888888887,106.77966101694915,7.505183999999998C107.79661016949153,7.470969111111109,108.8135593220339,7.437016666666666,109.83050847457628,7.403329333333333C110.84745762711864,7.369642,111.86440677966102,7.337128000000001,112.88135593220339,7.303060000000001C113.89830508474576,7.268992000000002,114.91525423728814,7.231936666666668,115.9322033898305,7.198921333333335C116.94915254237289,7.165906000000001,117.96610169491525,7.136252222222223,118.98305084745763,7.104968C120,7.073683777777778,121.01694915254237,7.042311333333333,122.03389830508473,7.011216C123.05084745762711,6.980120666666667,124.0677966101695,6.948853555555558,125.08474576271188,6.918396000000002C126.10169491525424,6.887938444444447,127.11864406779662,6.857937777777778,128.135593220339,6.828470666666666C129.15254237288136,6.799003555555554,130.16949152542372,6.770016222222222,131.1864406779661,6.741593333333333C132.20338983050846,6.713170444444445,133.22033898305085,6.6855491111111105,134.23728813559322,6.657933333333332C135.25423728813558,6.630317555555554,136.27118644067798,6.60279111111111,137.28813559322035,6.575898666666666C138.3050847457627,6.549006222222222,139.3220338983051,6.522846444444446,140.33898305084747,6.496578666666668C141.35593220338984,6.470310888888891,142.3728813559322,6.444429333333335,143.38983050847457,6.418292000000001C144.40677966101694,6.392154666666667,145.42372881355934,6.365730666666666,146.4406779661017,6.339754666666666C147.45762711864407,6.313778666666666,148.47457627118644,6.288069999999999,149.4915254237288,6.262436C150.50847457627117,6.236802000000001,151.52542372881356,6.211119555555557,152.54237288135593,6.185950666666669C153.5593220338983,6.16078177777778,154.5762711864407,6.136738444444444,155.59322033898306,6.111422666666666C156.61016949152543,6.086106888888888,157.6271186440678,6.059753555555554,158.64406779661016,6.034055999999999C159.66101694915253,6.008358444444443,160.67796610169492,5.982636444444442,161.6949152542373,5.957237333333332C162.71186440677965,5.931838222222221,163.72881355932205,5.906699555555557,164.74576271186442,5.8816613333333345C165.76271186440678,5.856623111111112,166.77966101694915,5.831702666666665,167.79661016949152,5.807007999999998C168.81355932203388,5.782313333333331,169.83050847457628,5.7578035555555545,170.84745762711864,5.733493333333333C171.864406779661,5.709183111111111,172.8813559322034,5.685573777777776,173.89830508474577,5.661146666666665C174.91525423728814,5.636719555555555,175.93220338983053,5.6092260000000005,176.9491525423729,5.586930666666667C177.96610169491527,5.564635333333334,178.98305084745763,5.546005000000001,180,5.527374666666667"></path><path class="axis-ceiling" stroke-width="1" stroke="black" fill="none" d="M175,0L180,0"></path><text class="axis-ceiling-label" font-family="sans-serif" text-anchor="end" font-size="10px" x="170" y="2.5">30000000</text></g></svg>