<svg xmlns="http://www.w3.org/2000/svg" viewBox="0 0 180 60"><g transform="translate(0,20)"><path class="area" fill="rgba(0, 0, 0, 0.2)" d="M0,10.19745C1.0169491525423728,10.140675333333332,2.0338983050847457,10.083900666666665,3.0508474576271185,10.034391999999999C4.067796610169491,9.984883333333332,5.084745762711864,9.945128333333331,6.101694915254237,9.900398C7.11864406779661,9.855667666666665,8.135593220338983,9.810682000000002,9.152542372881356,9.766010000000001C10.169491525423728,9.721338000000001,11.186440677966102,9.676859000000002,12.203389830508474,9.632366000000001C13.220338983050846,9.587873,14.23728813559322,9.542798999999999,15.254237288135592,9.499051999999999C16.271186440677965,9.455305,17.28813559322034,9.412901666666668,18.305084745762713,9.369884000000003C19.322033898305087,9.326866333333337,20.338983050847457,9.284077333333334,21.35593220338983,9.240946000000001C22.372881355932204,9.197814666666668,23.389830508474574,9.154192,24.406779661016948,9.111096C25.423728813559322,9.068,26.440677966101696,9.023825333333333,27.45762711864407,8.98237C28.47457627118644,8.940914666666666,29.491525423728813,8.901976666666666,30.508474576271183,8.862364C31.525423728813557,8.822751333333333,32.54237288135593,8.784213333333335,33.559322033898304,8.744694000000003C34.57627118644068,8.70517466666667,35.59322033898305,8.664552,36.610169491525426,8.625248000000001C37.6271186440678,8.585944000000001,38.644067796610166,8.547243333333334,39.66101694915254,8.508870000000002C40.67796610169491,8.470496666666667,41.69491525423729,8.432777333333334,42.71186440677966,8.395008C43.728813559322035,8.357238666666667,44.7457627118644,8.319354,45.762711864406775,8.282254C46.77966101694915,8.245154,47.79661016949152,8.210007666666668,48.813559322033896,8.172408C49.83050847457627,8.134808333333334,50.847457627118644,8.095263666666668,51.86440677966102,8.056656000000002C52.88135593220339,8.018048333333336,53.898305084745765,7.978924333333335,54.91525423728814,7.940762000000001C55.93220338983051,7.902599666666668,56.94915254237288,7.866036,57.96610169491525,7.827682C58.983050847457626,7.789328,59.99999999999999,7.7501203333333315,61.01694915254237,7.7106379999999985C62.03389830508474,7.671155666666666,63.05084745762712,7.631009333333335,64.0677966101695,7.590788000000002C65.08474576271186,7.550566666666668,66.10169491525424,7.510638666666667,67.11864406779661,7.46931C68.13559322033899,7.427981333333333,69.15254237288136,7.383957000000001,70.16949152542374,7.342816000000001C71.1864406779661,7.301675000000001,72.20338983050848,7.262365666666667,73.22033898305085,7.2224639999999996C74.23728813559322,7.182562333333332,75.2542372881356,7.142915666666665,76.27118644067797,7.103405999999999C77.28813559322033,7.063896333333332,78.30508474576271,7.024553333333332,79.32203389830508,6.9854059999999984C80.33898305084746,6.946258666666665,81.35593220338983,6.907128000000001,82.37288135593221,6.868522000000001C83.38983050847457,6.829916000000002,84.40677966101696,6.791981333333334,85.42372881355932,6.753770000000001C86.4406779661017,6.715558666666667,87.45762711864407,6.676641000000001,88.47457627118645,6.639254000000001C89.49152542372882,6.601867000000001,90.50847457627118,6.566241000000002,91.52542372881355,6.529448000000002C92.54237288135593,6.492655000000002,93.55932203389831,6.455770000000001,94.57627118644069,6.418496C95.59322033898306,6.381222,96.61016949152543,6.343820999999999,97.62711864406779,6.305803999999999C98.64406779661016,6.267786999999999,99.66101694915254,6.229152000000002,100.6779661016949,6.190394000000001C101.69491525423729,6.151636000000001,102.71186440677965,6.1147106666666655,103.72881355932203,6.073255999999998C104.7457627118644,6.031801333333331,105.76271186440678,5.985486666666666,106.77966101694915,5.941665999999999C107.79661016949153,5.897845333333332,108.8135593220339,5.854485333333331,109.83050847457628,5.810331999999998C110.84745762711864,5.766178666666665,111.86440677966102,5.721573666666668,112.88135593220339,5.676746000000001C113.89830508474576,5.631918333333335,114.91525423728814,5.586520333333334,115.9322033898305,5.541366000000001C116.94915254237289,5.496211666666667,117.96610169491525,5.451100333333335,118.98305084745763,5.405820000000001C120,5.360539666666668,121.01694915254237,5.315412999999999,122.03389830508473,5.269683999999999C123.05084745762711,5.223954999999998,124.0677966101695,5.1758153333333325,125.08474576271188,5.1314459999999995C126.10169491525424,5.0870766666666665,127.11864406779662,5.046441333333333,128.135593220339,5.003468C129.15254237288136,4.9604946666666665,130.16949152542372,4.915530000000001,131.1864406779661,4.873606000000001C132.20338983050846,4.831682000000002,133.22033898305085,4.791223666666668,134.23728813559322,4.751924000000001C135.25423728813558,4.712624333333333,136.27118644067798,4.6752379999999985,137.28813559322035,4.637807999999999C138.3050847457627,4.600377999999999,139.3220338983051,4.563642666666668,140.33898305084747,4.527344000000002C141.35593220338984,4.491045333333336,142.3728813559322,4.456879666666669,143.38983050847457,4.420016000000002C144.40677966101694,4.383152333333334,145.42372881355934,4.345288333333332,146.4406779661017,4.306161999999998C147.45762711864407,4.267035666666664,148.47457627118644,4.226267999999998,149.4915254237288,4.185257999999998C150.50847457627117,4.144247999999998,151.52542372881356,4.104174999999999,152.54237288135593,4.060101999999999C153.5593220338983,4.016028999999999,154.5762711864407,3.9690486666666644,155.59322033898306,3.920819999999998C156.61016949152543,3.8725913333333324,157.6271186440678,3.8233806666666683,158.64406779661016,3.770730000000002C159.66101694915253,3.7180793333333355,160.67796610169492,3.6610946666666675,161.6949152542373,3.6049160000000002C162.71186440677965,3.548737333333333,163.72881355932205,3.4912396666666665,164.74576271186442,3.4336579999999994C165.76271186440678,3.376076333333333,166.77966101694915,3.3170373333333316,167.79661016949152,3.2594259999999986C168.81355932203388,3.201814666666665,169.83050847457628,3.145796,170.84745762711864,3.0879900000000005C171.864406779661,3.030184000000001,172.8813559322034,2.972272666666668,173.89830508474577,2.9125900000000016C174.91525423728814,2.8529073333333352,175.93220338983053,2.791903666666669,176.9491525423729,2.7298940000000016C177.96610169491527,2.667884333333335,178.98305084745763,2.6042081666666674,180,2.540532L180,40C178.98305084745763,40,177.96610169491527,40,176.9491525423729,40C175.93220338983053,40,174.91525423728814,40,173.89830508474577,40C172.8813559322034,40,171.864406779661,40,170.84745762711864,40C169.83050847457628,40,168.81355932203388,40,167.79661016949152,40C166.77966101694915,40,165.76271186440678,40,164.74576271186442,40C163.72881355932205,40,162.71186440677965,40,161.6949152542373,40C160.67796610169492,40,159.66101694915253,40,158.64406779661016,40C157.6271186440678,40,156.61016949152543,40,155.59322033898306,40C154.5762711864407,40,153.5593220338983,40,152.54237288135593,40C151.52542372881356,40,150.50847457627117,40,149.4915254237288,40C148.47457627118644,40,147.45762711864407,40,146.4406779661017,40C145.42372881355934,40,144.40677966101694,40,143.38983050847457,40C142.3728813559322,40,141.35593220338984,40,140.33898305084747,40C139.3220338983051,40,138.3050847457627,40,137.28813559322035,40C136.27118644067798,40,135.25423728813558,40,134.23728813559322,40C133.22033898305085,40,132.20338983050846,40,131.1864406779661,40C130.16949152542372,40,129.15254237288136,40,128.135593220339,40C127.11864406779662,40,126.10169491525424,40,125.08474576271188,40C124.0677966101695,40,123.05084745762711,40,122.03389830508473,40C121.01694915254237,40,120,40,118.98305084745763,40C117.96610169491525,40,116.94915254237289,40,115.9322033898305,40C114.91525423728814,40,113.89830508474576,40,112.88135593220339,40C111.86440677966102,40,110.84745762711864,40,109.83050847457628,40C108.8135593220339,40,107.79661016949153,40,106.77966101694915,40C105.76271186440678,40,104.7457627118644,40,103.72881355932203,40C102.71186440677965,40,101.69491525423729,40,100.6779661016949,40C99.66101694915254,40,98.64406779661016,40,97.62711864406779,40C96.61016949152543,40,95.59322033898306,40,94.57627118644069,40C93.55932203389831,40,92.54237288135593,40,91.52542372881355,40C90.50847457627118,40,89.49152542372882,40,88.47457627118645,40C87.45762711864407,40,86.4406779661017,40,85.42372881355932,40C84.40677966101696,40,83.38983050847457,40,82.37288135593221,40C81.35593220338983,40,80.33898305084746,40,79.32203389830508,40C78.30508474576271,40,77.28813559322033,40,76.27118644067797,40C75.2542372881356,40,74.23728813559322,40,73.22033898305085,40C72.20338983050848,40,71.1864406779661,40,70.16949152542374,40C69.15254237288136,40,68.13559322033899,40,67.11864406779661,40C66.10169491525424,40,65.08474576271186,40,64.0677966101695,40C63.05084745762712,40,62.03389830508474,40,61.01694915254237,40C59.99999999999999,40,58.983050847457626,40,57.96610169491525,40C56.94915254237288,40,55.93220338983051,40,54.91525423728814,40C53.898305084745765,40,52.88135593220339,40,51.86440677966102,40C50.847457627118644,40,49.83050847457627,40,48.813559322033896,40C47.79661016949152,40,46.77966101694915,40,45.762711864406775,40C44.7457627118644,40,43.728813559322035,40,42.71186440677966,40C41.69491525423729,40,40.67796610169491,40,39.66101694915254,40C38.644067796610166,40,37.6271186440678,40,36.610169491525426,40C35.59322033898305,40,34.57627118644068,40,33.559322033898304,40C32.54237288135593,40,31.525423728813557,40,30.508474576271183,40C29.491525423728813,40,28.47457627118644,40,27.45762711864407,40C26.440677966101696,40,25.423728813559322,40,24.406779661016948,40C23.389830508474574,40,22.372881355932204,40,21.35593220338983,40C20.338983050847457,40,19.322033898305087,40,18.305084745762713,40C17.28813559322034,40,16.271186440677965,40,15.254237288135592,40C14.23728813559322,40,13.220338983050846,40,12.203389830508474,40C11.186440677966102,40,10.169491525423728,40,9.152542372881356,40C8.135593220338983,40,7.11864406779661,40,6.101694915254237,40C5.084745762711864,40,4.067796610169491,40,3.0508474576271185,40C2.0338983050847457,40,1.0169491525423728,40,0,40Z"></path><path class="line" stroke="black" fill="none" d="M0,10.19745C1.0169491525423728,10.140675333333332,2.0338983050847457,10.083900666666665,3.0508474576271185,10.034391999999999C4.067796610169491,9.984883333333332,5.084745762711864,9.945128333333331,6.101694915254237,9.900398C7.11864406779661,9.855667666666665,8.135593220338983,9.810682000000002,9.152542372881356,9.766010000000001C10.169491525423728,9.721338000000001,11.186440677966102,9.676859000000002,12.203389830508474,9.632366000000001C13.220338983050846,9.587873,14.23728813559322,9.542798999999999,15.254237288135592,9.499051999999999C16.271186440677965,9.455305,17.28813559322034,9.412901666666668,18.305084745762713,9.369884000000003C19.322033898305087,9.326866333333337,20.338983050847457,9.284077333333334,21.35593220338983,9.240946000000001C22.372881355932204,9.197814666666668,23.389830508474574,9.154192,24.406779661016948,9.111096C25.423728813559322,9.068,26.440677966101696,9.023825333333333,27.45762711864407,8.98237C28.47457627118644,8.940914666666666,29.491525423728813,8.901976666666666,30.508474576271183,8.862364C31.525423728813557,8.822751333333333,32.54237288135593,8.784213333333335,33.559322033898304,8.744694000000003C34.57627118644068,8.70517466666667,35.59322033898305,8.664552,36.610169491525426,8.625248000000001C37.6271186440678,8.585944000000001,38.644067796610166,8.547243333333334,39.66101694915254,8.508870000000002C40.67796610169491,8.470496666666667,41.69491525423729,8.432777333333334,42.71186440677966,8.395008C43.728813559322035,8.357238666666667,44.7457627118644,8.319354,45.762711864406775,8.282254C46.77966101694915,8.245154,47.79661016949152,8.210007666666668,48.813559322033896,8.172408C49.83050847457627,8.134808333333334,50.847457627118644,8.095263666666668,51.86440677966102,8.056656000000002C52.88135593220339,8.018048333333336,53.898305084745765,7.978924333333335,54.91525423728814,7.940762000000001C55.93220338983051,7.902599666666668,56.94915254237288,7.866036,57.96610169491525,7.827682C58.983050847457626,7.789328,59.99999999999999,7.7501203333333315,61.01694915254237,7.7106379999999985C62.03389830508474,7.671155666666666,63.05084745762712,7.631009333333335,64.0677966101695,7.590788000000002C65.08474576271186,7.550566666666668,66.10169491525424,7.510638666666667,67.11864406779661,7.46931C68.13559322033899,7.427981333333333,69.15254237288136,7.383957000000001,70.16949152542374,7.342816000000001C71.1864406779661,7.301675000000001,72.20338983050848,7.262365666666667,73.22033898305085,7.2224639999999996C74.23728813559322,7.182562333333332,75.2542372881356,7.142915666666665,76.27118644067797,7.103405999999999C77.28813559322033,7.063896333333332,78.30508474576271,7.024553333333332,79.32203389830508,6.9854059999999984C80.33898305084746,6.946258666666665,81.35593220338983,6.907128000000001,82.37288135593221,6.868522000000001C83.38983050847457,6.829916000000002,84.40677966101696,6.791981333333334,85.42372881355932,6.753770000000001C86.4406779661017,6.715558666666667,87.45762711864407,6.676641000000001,88.47457627118645,6.639254000000001C89.49152542372882,6.601867000000001,90.50847457627118,6.566241000000002,91.52542372881355,6.529448000000002C92.54237288135593,6.492655000000002,93.55932203389831,6.455770000000001,94.57627118644069,6.418496C95.59322033898306,6.381222,96.61016949152543,6.343820999999999,97.62711864406779,6.305803999999999C98.64406779661016,6.267786999999999,99.66101694915254,6.229152000000002,100.6779661016949,6.190394000000001C101.69491525423729,6.151636000000001,102.71186440677965,6.1147106666666655,103.72881355932203,6.073255999999998C104.7457627118644,6.031801333333331,105.76271186440678,5.985486666666666,106.77966101694915,5.941665999999999C107.79661016949153,5.897845333333332,108.8135593220339,5.854485333333331,109.83050847457628,5.810331999999998C110.84745762711864,5.766178666666665,111.86440677966102,5.721573666666668,112.88135593220339,5.676746000000001C113.89830508474576,5.631918333333335,114.91525423728814,5.586520333333334,115.9322033898305,5.541366000000001C116.94915254237289,5.496211666666667,117.96610169491525,5.451100333333335,118.98305084745763,5.405820000000001C120,5.360539666666668,121.01694915254237,5.315412999999999,122.03389830508473,5.269683999999999C123.05084745762711,5.223954999999998,124.0677966101695,5.1758153333333325,125.08474576271188,5.1314459999999995C126.10169491525424,5.0870766666666665,127.11864406779662,5.046441333333333,128.135593220339,5.003468C129.15254237288136,4.9604946666666665,130.16949152542372,4.915530000000001,131.1864406779661,4.873606000000001C132.20338983050846,4.831682000000002,133.22033898305085,4.791223666666668,134.23728813559322,4.751924000000001C135.25423728813558,4.712624333333333,136.27118644067798,4.6752379999999985,137.28813559322035,4.637807999999999C138.3050847457627,4.600377999999999,139.3220338983051,4.563642666666668,140.33898305084747,4.527344000000002C141.35593220338984,4.491045333333336,142.3728813559322,4.456879666666669,143.38983050847457,4.420016000000002C144.40677966101694,4.383152333333334,145.42372881355934,4.345288333333332,146.4406779661017,4.306161999999998C147.45762711864407,4.267035666666664,148.47457627118644,4.226267999999998,149.4915254237288,4.185257999999998C150.50847457627117,4.144247999999998,151.52542372881356,4.104174999999999,152.54237288135593,4.060101999999999C153.5593220338983,4.016028999999999,154.5762711864407,3.9690486666666644,155.59322033898306,3.920819999999998C156.61016949152543,3.8725913333333324,157.6271186440678,3.8233806666666683,158.64406779661016,3.770730000000002C159.66101694915253,3.7180793333333355,160.67796610169492,3.6610946666666675,161.6949152542373,3.6049160000000002C162.71186440677965,3.548737333333333,163.72881355932205,3.4912396666666665,164.74576271186442,3.4336579999999994C165.76271186440678,3.376076333333333,166.77966101694915,3.3170373333333316,167.79661016949152,3.2594259999999986C168.81355932203388,3.201814666666665,169.83050847457628,3.145796,170.84745762711864,3.0879900000000005C171.864406779661,3.030184000000001,172.8813559322034,2.972272666666668,173.89830508474577,2.9125900000000016C174.91525423728814,2.8529073333333352,175.93220338983053,2.791903666666669,176.9491525423729,2.7298940000000016C177.96610169491527,2.667884333333335,178.98305084745763,2.6042081666666674,180,2.540532"></path><path class="axis-ceiling" stroke-width="1" stroke="black" fill="none" d="M175,0L180,0"></path><text class="axis-ceiling-label" font-family="sans-serif" text-anchor="end" font-size="10px" x="170" y="2.5">20000000</text></g></svg>