<svg xmlns="http://www.w3.org/2000/svg" viewBox="0 0 180 60"><g transform="translate(0,20)"><path class="area" fill="rgba(0, 0, 0, 0.2)" d="M0,32.876C1.0169491525423728,34.5844,2.0338983050847457,36.2928,3.0508474576271185,36.36C4.067796610169491,36.4272,5.084745762711864,36.3936,6.101694915254237,36.4608C7.11864406779661,36.528,8.135593220338983,38.0704,9.152542372881356,38.0704C10.169491525423728,38.0704,11.186440677966102,32.9144,12.203389830508474,32.9144C13.220338983050846,32.9144,14.23728813559322,34.7664,15.254237288135592,34.7664C16.271186440677965,34.7664,17.28813559322034,33.0332,18.305084745762713,33.0332C19.322033898305087,33.0332,20.338983050847457,35.51946666666667,21.35593220338983,36.2096C22.372881355932204,36.89973333333333,23.389830508474574,37.2448,24.406779661016948,37.2448C25.423728813559322,37.2448,26.440677966101696,35.6468,27.45762711864407,35.6468C28.47457627118644,35.6468,29.491525423728813,37.9128,30.508474576271183,37.9128C31.525423728813557,37.9128,32.54237288135593,29.708800000000004,33.559322033898304,29.708800000000004C34.57627118644068,29.708800000000004,35.59322033898305,32.3532,36.610169491525426,32.3532C37.6271186440678,32.3532,38.644067796610166,32.163866666666664,39.66101694915254,32.0488C40.67796610169491,31.933733333333333,41.69491525423729,31.6628,42.71186440677966,31.6628C43.728813559322035,31.6628,44.7457627118644,31.951066666666666,45.762711864406775,32.5276C46.77966101694915,33.10413333333334,47.79661016949152,35.3376,48.813559322033896,35.3376C49.83050847457627,35.3376,50.847457627118644,35.196933333333334,51.86440677966102,34.9156C52.88135593220339,34.63426666666666,53.898305084745765,28.7924,54.91525423728814,28.7924C55.93220338983051,28.7924,56.94915254237288,31.9176,57.96610169491525,31.9176C58.983050847457626,31.9176,59.99999999999999,23.440399999999997,61.01694915254237,23.440399999999997C62.03389830508474,23.440399999999997,63.05084745762712,30.7296,64.0677966101695,30.7296C65.08474576271186,30.7296,66.10169491525424,30.3256,67.11864406779661,30.3256C68.13559322033899,30.3256,69.15254237288136,33.857600000000005,70.16949152542374,33.928000000000004C71.1864406779661,33.998400000000004,72.20338983050848,33.9632,73.22033898305085,34.0336C74.23728813559322,34.104,75.2542372881356,36.7848,76.27118644067797,36.7848C77.28813559322033,36.7848,78.30508474576271,26.4284,79.32203389830508,26.4284C80.33898305084746,26.4284,81.35593220338983,28.355866666666667,82.37288135593221,29.1368C83.38983050847457,29.91773333333333,84.40677966101696,31.114,85.42372881355932,31.114C86.4406779661017,31.114,87.45762711864407,17.403200000000002,88.47457627118645,17.403200000000002C89.49152542372882,17.403200000000002,90.50847457627118,33.585333333333345,91.52542372881355,34.6864C92.54237288135593,35.78746666666667,93.55932203389831,36.338,94.57627118644069,36.338C95.59322033898306,36.338,96.61016949152543,28.9292,97.62711864406779,28.9292C98.64406779661016,28.9292,99.66101694915254,31.186,100.6779661016949,31.186C101.69491525423729,31.186,102.71186440677965,30.710933333333337,103.72881355932203,30.703200000000002C104.7457627118644,30.69546666666667,105.76271186440678,30.699333333333335,106.77966101694915,30.6916C107.79661016949153,30.683866666666667,108.8135593220339,30.625999999999998,109.83050847457628,30.625999999999998C110.84745762711864,30.625999999999998,111.86440677966102,33.447333333333326,112.88135593220339,34.0196C113.89830508474576,34.59186666666667,114.91525423728814,34.878,115.9322033898305,34.878C116.94915254237289,34.878,117.96610169491525,30.5024,118.98305084745763,30.5024C120,30.5024,121.01694915254237,32.338,122.03389830508473,32.338C123.05084745762711,32.338,124.0677966101695,32.022133333333336,125.08474576271188,31.7532C126.10169491525424,31.484266666666667,127.11864406779662,30.7244,128.135593220339,30.7244C129.15254237288136,30.7244,130.16949152542372,31.34486666666667,131.1864406779661,31.9052C132.20338983050846,32.46553333333333,133.22033898305085,33.505399999999995,134.23728813559322,34.0864C135.25423728813558,34.6674,136.27118644067798,35.3912,137.28813559322035,35.3912C138.3050847457627,35.3912,139.3220338983051,30.462799999999998,140.33898305084747,30.462799999999998C141.35593220338984,30.462799999999998,142.3728813559322,32.2052,143.38983050847457,32.2052C144.40677966101694,32.2052,145.42372881355934,29.6964,146.4406779661017,29.6964C147.45762711864407,29.6964,148.47457627118644,29.893066666666666,149.4915254237288,30.2864C150.50847457627117,30.67973333333334,151.52542372881356,32.502199999999995,152.54237288135593,33.224399999999996C153.5593220338983,33.9466,154.5762711864407,33.86806666666666,155.59322033898306,34.6196C156.61016949152543,35.37113333333333,157.6271186440678,37.733599999999996,158.64406779661016,37.733599999999996C159.66101694915253,37.733599999999996,160.67796610169492,29.7648,161.6949152542373,29.7648C162.71186440677965,29.7648,163.72881355932205,33.7704,164.74576271186442,33.7704C165.76271186440678,33.7704,166.77966101694915,30.2528,167.79661016949152,30.2528C168.81355932203388,30.2528,169.83050847457628,30.352533333333334,170.84745762711864,30.552C171.864406779661,30.751466666666666,172.8813559322034,32.0312,173.89830508474577,32.7908C174.91525423728814,33.550399999999996,175.93220338983053,34.047733333333326,176.9491525423729,35.1096C177.96610169491527,36.17146666666667,178.98305084745763,37.66673333333333,180,39.162L180,40C178.98305084745763,40,177.96610169491527,40,176.9491525423729,40C175.93220338983053,40,174.91525423728814,40,173.89830508474577,40C172.8813559322034,40,171.864406779661,40,170.84745762711864,40C169.83050847457628,40,168.81355932203388,40,167.79661016949152,40C166.77966101694915,40,165.76271186440678,40,164.74576271186442,40C163.72881355932205,40,162.71186440677965,40,161.6949152542373,40C160.67796610169492,40,159.66101694915253,40,158.64406779661016,40C157.6271186440678,40,156.61016949152543,40,155.59322033898306,40C154.5762711864407,40,153.5593220338983,40,152.54237288135593,40C151.52542372881356,40,150.50847457627117,40,149.4915254237288,40C148.47457627118644,40,147.45762711864407,40,146.4406779661017,40C145.42372881355934,40,144.40677966101694,40,143.38983050847457,40C142.3728813559322,40,141.35593220338984,40,140.33898305084747,40C139.3220338983051,40,138.3050847457627,40,137.28813559322035,40C136.27118644067798,40,135.25423728813558,40,134.23728813559322,40C133.22033898305085,40,132.20338983050846,40,131.1864406779661,40C130.16949152542372,40,129.15254237288136,40,128.135593220339,40C127.11864406779662,40,126.10169491525424,40,125.08474576271188,40C124.0677966101695,40,123.05084745762711,40,122.03389830508473,40C121.01694915254237,40,120,40,118.98305084745763,40C117.96610169491525,40,116.94915254237289,40,115.9322033898305,40C114.91525423728814,40,113.89830508474576,40,112.88135593220339,40C111.86440677966102,40,110.84745762711864,40,109.83050847457628,40C108.8135593220339,40,107.79661016949153,40,106.77966101694915,40C105.76271186440678,40,104.7457627118644,40,103.72881355932203,40C102.71186440677965,40,101.69491525423729,40,100.6779661016949,40C99.66101694915254,40,98.64406779661016,40,97.62711864406779,40C96.61016949152543,40,95.59322033898306,40,94.57627118644069,40C93.55932203389831,40,92.54237288135593,40,91.52542372881355,40C90.50847457627118,40,89.49152542372882,40,88.47457627118645,40C87.45762711864407,40,86.4406779661017,40,85.42372881355932,40C84.40677966101696,40,83.38983050847457,40,82.37288135593221,40C81.35593220338983,40,80.33898305084746,40,79.32203389830508,40C78.30508474576271,40,77.28813559322033,40,76.27118644067797,40C75.2542372881356,40,74.23728813559322,40,73.22033898305085,40C72.20338983050848,40,71.1864406779661,40,70.16949152542374,40C69.15254237288136,40,68.13559322033899,40,67.11864406779661,40C66.10169491525424,40,65.08474576271186,40,64.0677966101695,40C63.05084745762712,40,62.03389830508474,40,61.01694915254237,40C59.99999999999999,40,58.983050847457626,40,57.96610169491525,40C56.94915254237288,40,55.93220338983051,40,54.91525423728814,40C53.898305084745765,40,52.88135593220339,40,51.86440677966102,40C50.847457627118644,40,49.83050847457627,40,48.813559322033896,40C47.79661016949152,40,46.77966101694915,40,45.762711864406775,40C44.7457627118644,40,43.728813559322035,40,42.71186440677966,40C41.69491525423729,40,40.67796610169491,40,39.66101694915254,40C38.644067796610166,40,37.6271186440678,40,36.610169491525426,40C35.59322033898305,40,34.57627118644068,40,33.559322033898304,40C32.54237288135593,40,31.525423728813557,40,30.508474576271183,40C29.491525423728813,40,28.47457627118644,40,27.45762711864407,40C26.440677966101696,40,25.423728813559322,40,24.406779661016948,40C23.389830508474574,40,22.372881355932204,40,21.35593220338983,40C20.338983050847457,40,19.322033898305087,40,18.305084745762713,40C17.28813559322034,40,16.271186440677965,40,15.254237288135592,40C14.23728813559322,40,13.220338983050846,40,12.203389830508474,40C11.186440677966102,40,10.169491525423728,40,9.152542372881356,40C8.135593220338983,40,7.11864406779661,40,6.101694915254237,40C5.084745762711864,40,4.067796610169491,40,3.0508474576271185,40C2.0338983050847457,40,1.0169491525423728,40,0,40Z"></path><path class="line" stroke="black" fill="none" d="M0,32.876C1.0169491525423728,34.5844,2.0338983050847457,36.2928,3.0508474576271185,36.36C4.067796610169491,36.4272,5.084745762711864,36.3936,6.101694915254237,36.4608C7.11864406779661,36.528,8.135593220338983,38.0704,9.152542372881356,38.0704C10.169491525423728,38.0704,11.186440677966102,32.9144,12.203389830508474,32.9144C13.220338983050846,32.9144,14.23728813559322,34.7664,15.254237288135592,34.7664C16.271186440677965,34.7664,17.28813559322034,33.0332,18.305084745762713,33.0332C19.322033898305087,33.0332,20.338983050847457,35.51946666666667,21.35593220338983,36.2096C22.372881355932204,36.89973333333333,23.389830508474574,37.2448,24.406779661016948,37.2448C25.423728813559322,37.2448,26.440677966101696,35.6468,27.45762711864407,35.6468C28.47457627118644,35.6468,29.491525423728813,37.9128,30.508474576271183,37.9128C31.525423728813557,37.9128,32.54237288135593,29.708800000000004,33.559322033898304,29.708800000000004C34.57627118644068,29.708800000000004,35.59322033898305,32.3532,36.610169491525426,32.3532C37.6271186440678,32.3532,38.644067796610166,32.163866666666664,39.66101694915254,32.0488C40.67796610169491,31.933733333333333,41.69491525423729,31.6628,42.71186440677966,31.6628C43.728813559322035,31.6628,44.7457627118644,31.951066666666666,45.762711864406775,32.5276C46.77966101694915,33.10413333333334,47.79661016949152,35.3376,48.813559322033896,35.3376C49.83050847457627,35.3376,50.847457627118644,35.196933333333334,51.86440677966102,34.9156C52.88135593220339,34.63426666666666,53.898305084745765,28.7924,54.91525423728814,28.7924C55.93220338983051,28.7924,56.94915254237288,31.9176,57.96610169491525,31.9176C58.983050847457626,31.9176,59.99999999999999,23.440399999999997,61.01694915254237,23.440399999999997C62.03389830508474,23.440399999999997,63.05084745762712,30.7296,64.0677966101695,30.7296C65.08474576271186,30.7296,66.10169491525424,30.3256,67.11864406779661,30.3256C68.13559322033899,30.3256,69.15254237288136,33.857600000000005,70.16949152542374,33.928000000000004C71.1864406779661,33.998400000000004,72.20338983050848,33.9632,73.22033898305085,34.0336C74.23728813559322,34.104,75.2542372881356,36.7848,76.27118644067797,36.7848C77.28813559322033,36.7848,78.30508474576271,26.4284,79.32203389830508,26.4284C80.33898305084746,26.4284,81.35593220338983,28.355866666666667,82.37288135593221,29.1368C83.38983050847457,29.91773333333333,84.40677966101696,31.114,85.42372881355932,31.114C86.4406779661017,31.114,87.45762711864407,17.403200000000002,88.47457627118645,17.403200000000002C89.49152542372882,17.403200000000002,90.50847457627118,33.585333333333345,91.52542372881355,34.6864C92.54237288135593,35.78746666666667,93.55932203389831,36.338,94.57627118644069,36.338C95.59322033898306,36.338,96.61016949152543,28.9292,97.62711864406779,28.9292C98.64406779661016,28.9292,99.66101694915254,31.186,100.6779661016949,31.186C101.69491525423729,31.186,102.71186440677965,30.710933333333337,103.72881355932203,30.703200000000002C104.7457627118644,30.69546666666667,105.76271186440678,30.699333333333335,106.77966101694915,30.6916C107.79661016949153,30.683866666666667,108.8135593220339,30.625999999999998,109.83050847457628,30.625999999999998C110.84745762711864,30.625999999999998,111.86440677966102,33.447333333333326,112.88135593220339,34.0196C113.89830508474576,34.59186666666667,114.91525423728814,34.878,115.9322033898305,34.878C116.94915254237289,34.878,117.96610169491525,30.5024,118.98305084745763,30.5024C120,30.5024,121.01694915254237,32.338,122.03389830508473,32.338C123.05084745762711,32.338,124.0677966101695,32.022133333333336,125.08474576271188,31.7532C126.10169491525424,31.484266666666667,127.11864406779662,30.7244,128.135593220339,30.7244C129.15254237288136,30.7244,130.16949152542372,31.34486666666667,131.1864406779661,31.9052C132.20338983050846,32.46553333333333,133.22033898305085,33.505399999999995,134.23728813559322,34.0864C135.25423728813558,34.6674,136.27118644067798,35.3912,137.28813559322035,35.3912C138.3050847457627,35.3912,139.3220338983051,30.462799999999998,140.33898305084747,30.462799999999998C141.35593220338984,30.462799999999998,142.3728813559322,32.2052,143.38983050847457,32.2052C144.40677966101694,32.2052,145.42372881355934,29.6964,146.4406779661017,29.6964C147.45762711864407,29.6964,148.47457627118644,29.893066666666666,149.4915254237288,30.2864C150.50847457627117,30.67973333333334,151.52542372881356,32.502199999999995,152.54237288135593,33.224399999999996C153.5593220338983,33.9466,154.5762711864407,33.86806666666666,155.59322033898306,34.6196C156.61016949152543,35.37113333333333,157.6271186440678,37.733599999999996,158.64406779661016,37.733599999999996C159.66101694915253,37.733599999999996,160.67796610169492,29.7648,161.6949152542373,29.7648C162.71186440677965,29.7648,163.72881355932205,33.7704,164.74576271186442,33.7704C165.76271186440678,33.7704,166.77966101694915,30.2528,167.79661016949152,30.2528C168.81355932203388,30.2528,169.83050847457628,30.352533333333334,170.84745762711864,30.552C171.864406779661,30.751466666666666,172.8813559322034,32.0312,173.89830508474577,32.7908C174.91525423728814,33.550399999999996,175.93220338983053,34.047733333333326,176.9491525423729,35.1096C177.96610169491527,36.17146666666667,178.98305084745763,37.66673333333333,180,39.162"></path><path class="axis-ceiling" stroke-width="1" stroke="black" fill="none" d="M175,0L180,0"></path><text class="axis-ceiling-label" font-family="sans-serif" text-anchor="end" font-size="10px" x="170" y="2.5">100000</text></g></svg>