<svg xmlns="http://www.w3.org/2000/svg" viewBox="0 0 180 60"><g transform="translate(0,20)"><path class="area" fill="rgba(0, 0, 0, 0.2)" d="M0,14.5792C1.0169491525423728,20.585866666666664,2.0338983050847457,26.59253333333333,3.0508474576271185,26.59253333333333C4.067796610169491,26.59253333333333,5.084745762711864,3.195999999999999,6.101694915254237,3.195999999999999C7.11864406779661,3.195999999999999,8.135593220338983,19.724088888888886,9.152542372881356,24.53733333333333C10.169491525423728,29.350577777777772,11.186440677966102,32.075466666666664,12.203389830508474,32.075466666666664C13.220338983050846,32.075466666666664,14.23728813559322,17.7584,15.254237288135592,17.7584C16.271186440677965,17.7584,17.28813559322034,18.6656,18.305084745762713,18.6656C19.322033898305087,18.6656,20.338983050847457,16.796266666666668,21.35593220338983,16.796266666666668C22.372881355932204,16.796266666666668,23.389830508474574,21.1768,24.406779661016948,21.1768C25.423728813559322,21.1768,26.440677966101696,17.457066666666666,27.45762711864407,17.457066666666666C28.47457627118644,17.457066666666666,29.491525423728813,22.162222222222226,30.508474576271183,24.816266666666667C31.525423728813557,27.470311111111116,32.54237288135593,33.38133333333333,33.559322033898304,33.38133333333333C34.57627118644068,33.38133333333333,35.59322033898305,21.8112,36.610169491525426,21.8112C37.6271186440678,21.8112,38.644067796610166,22.93333333333333,39.66101694915254,22.93333333333333C40.67796610169491,22.93333333333333,41.69491525423729,21.301066666666664,42.71186440677966,21.301066666666664C43.728813559322035,21.301066666666664,44.7457627118644,23.45066666666667,45.762711864406775,23.45066666666667C46.77966101694915,23.45066666666667,47.79661016949152,21.2584,48.813559322033896,21.2584C49.83050847457627,21.2584,50.847457627118644,24.30031111111111,51.86440677966102,26.2624C52.88135593220339,28.22448888888889,53.898305084745765,33.03093333333334,54.91525423728814,33.03093333333334C55.93220338983051,33.03093333333334,56.94915254237288,23.51653333333333,57.96610169491525,23.51653333333333C58.983050847457626,23.51653333333333,59.99999999999999,24.099733333333333,61.01694915254237,24.099733333333333C62.03389830508474,24.099733333333333,63.05084745762712,24.08097777777778,64.0677966101695,24.043466666666667C65.08474576271186,24.005955555555555,66.10169491525424,19.474666666666668,67.11864406779661,19.474666666666668C68.13559322033899,19.474666666666668,69.15254237288136,20.604488888888884,70.16949152542374,22.02586666666667C71.1864406779661,23.447244444444447,72.20338983050848,25.953555555555553,73.22033898305085,28.00293333333333C74.23728813559322,30.05231111111111,75.2542372881356,34.32213333333333,76.27118644067797,34.32213333333333C77.28813559322033,34.32213333333333,78.30508474576271,25.1096,79.32203389830508,25.1096C80.33898305084746,25.1096,81.35593220338983,25.736533333333334,82.37288135593221,25.736533333333334C83.38983050847457,25.736533333333334,84.40677966101696,21.425333333333334,85.42372881355932,21.425333333333334C86.4406779661017,21.425333333333334,87.45762711864407,24.75493333333332,88.47457627118645,26.489599999999996C89.49152542372882,28.224266666666654,90.50847457627118,31.833333333333336,91.52542372881355,31.833333333333336C92.54237288135593,31.833333333333336,93.55932203389831,27.7904,94.57627118644069,27.7904C95.59322033898306,27.7904,96.61016949152543,34.087466666666664,97.62711864406779,34.087466666666664C98.64406779661016,34.087466666666664,99.66101694915254,23.2504,100.6779661016949,23.2504C101.69491525423729,23.2504,102.71186440677965,25.218133333333334,103.72881355932203,25.218133333333334C104.7457627118644,25.218133333333334,105.76271186440678,24.341066666666666,106.77966101694915,24.341066666666666C107.79661016949153,24.341066666666666,108.8135593220339,24.3824,109.83050847457628,24.3824C110.84745762711864,24.3824,111.86440677966102,22.498399999999997,112.88135593220339,22.498399999999997C113.89830508474576,22.498399999999997,114.91525423728814,25.864000000000004,115.9322033898305,27.906399999999998C116.94915254237289,29.948800000000002,117.96610169491525,34.7528,118.98305084745763,34.7528C120,34.7528,121.01694915254237,26.695377777777768,122.03389830508473,25.6808C123.05084745762711,24.66622222222222,124.0677966101695,24.15893333333333,125.08474576271188,24.15893333333333C126.10169491525424,24.15893333333333,127.11864406779662,33.3536,128.135593220339,33.3536C129.15254237288136,33.3536,130.16949152542372,23.54311111111112,131.1864406779661,23.48746666666667C132.20338983050846,23.43182222222222,133.22033898305085,23.403999999999996,134.23728813559322,23.403999999999996C135.25423728813558,23.403999999999996,136.27118644067798,28.04751111111111,137.28813559322035,29.9144C138.3050847457627,31.78128888888889,139.3220338983051,34.605333333333334,140.33898305084747,34.605333333333334C141.35593220338984,34.605333333333334,142.3728813559322,24.80293333333333,143.38983050847457,24.80293333333333C144.40677966101694,24.80293333333333,145.42372881355934,25.929333333333332,146.4406779661017,25.929333333333332C147.45762711864407,25.929333333333332,148.47457627118644,21.676533333333335,149.4915254237288,21.676533333333335C150.50847457627117,21.676533333333335,151.52542372881356,25.52906666666667,152.54237288135593,25.52906666666667C153.5593220338983,25.52906666666667,154.5762711864407,21.322666666666667,155.59322033898306,21.322666666666667C156.61016949152543,21.322666666666667,157.6271186440678,27.54466666666667,158.64406779661016,29.653333333333336C159.66101694915253,31.762000000000018,160.67796610169492,33.974666666666664,161.6949152542373,33.974666666666664C162.71186440677965,33.974666666666664,163.72881355932205,25.904533333333333,164.74576271186442,25.904533333333333C165.76271186440678,25.904533333333333,166.77966101694915,26.47893333333333,167.79661016949152,26.47893333333333C168.81355932203388,26.47893333333333,169.83050847457628,24.302133333333337,170.84745762711864,24.302133333333337C171.864406779661,24.302133333333337,172.8813559322034,25.727733333333333,173.89830508474577,25.727733333333333C174.91525423728814,25.727733333333333,175.93220338983053,23.498933333333333,176.9491525423729,23.498933333333333C177.96610169491527,23.498933333333333,178.98305084745763,27.001199999999997,180,30.503466666666665L180,40C178.98305084745763,40,177.96610169491527,40,176.9491525423729,40C175.93220338983053,40,174.91525423728814,40,173.89830508474577,40C172.8813559322034,40,171.864406779661,40,170.84745762711864,40C169.83050847457628,40,168.81355932203388,40,167.79661016949152,40C166.77966101694915,40,165.76271186440678,40,164.74576271186442,40C163.72881355932205,40,162.71186440677965,40,161.6949152542373,40C160.67796610169492,40,159.66101694915253,40,158.64406779661016,40C157.6271186440678,40,156.61016949152543,40,155.59322033898306,40C154.5762711864407,40,153.5593220338983,40,152.54237288135593,40C151.52542372881356,40,150.50847457627117,40,149.4915254237288,40C148.47457627118644,40,147.45762711864407,40,146.4406779661017,40C145.42372881355934,40,144.40677966101694,40,143.38983050847457,40C142.3728813559322,40,141.35593220338984,40,140.33898305084747,40C139.3220338983051,40,138.3050847457627,40,137.28813559322035,40C136.27118644067798,40,135.25423728813558,40,134.23728813559322,40C133.22033898305085,40,132.20338983050846,40,131.1864406779661,40C130.16949152542372,40,129.15254237288136,40,128.135593220339,40C127.11864406779662,40,126.10169491525424,40,125.08474576271188,40C124.0677966101695,40,123.05084745762711,40,122.03389830508473,40C121.01694915254237,40,120,40,118.98305084745763,40C117.96610169491525,40,116.94915254237289,40,115.9322033898305,40C114.91525423728814,40,113.89830508474576,40,112.88135593220339,40C111.86440677966102,40,110.84745762711864,40,109.83050847457628,40C108.8135593220339,40,107.79661016949153,40,106.77966101694915,40C105.76271186440678,40,104.7457627118644,40,103.72881355932203,40C102.71186440677965,40,101.69491525423729,40,100.6779661016949,40C99.66101694915254,40,98.64406779661016,40,97.62711864406779,40C96.61016949152543,40,95.59322033898306,40,94.57627118644069,40C93.55932203389831,40,92.54237288135593,40,91.52542372881355,40C90.50847457627118,40,89.49152542372882,40,88.47457627118645,40C87.45762711864407,40,86.4406779661017,40,85.42372881355932,40C84.40677966101696,40,83.38983050847457,40,82.37288135593221,40C81.35593220338983,40,80.33898305084746,40,79.32203389830508,40C78.30508474576271,40,77.28813559322033,40,76.27118644067797,40C75.2542372881356,40,74.23728813559322,40,73.22033898305085,40C72.20338983050848,40,71.1864406779661,40,70.16949152542374,40C69.15254237288136,40,68.13559322033899,40,67.11864406779661,40C66.10169491525424,40,65.08474576271186,40,64.0677966101695,40C63.05084745762712,40,62.03389830508474,40,61.01694915254237,40C59.99999999999999,40,58.983050847457626,40,57.96610169491525,40C56.94915254237288,40,55.93220338983051,40,54.91525423728814,40C53.898305084745765,40,52.88135593220339,40,51.86440677966102,40C50.847457627118644,40,49.83050847457627,40,48.813559322033896,40C47.79661016949152,40,46.77966101694915,40,45.762711864406775,40C44.7457627118644,40,43.728813559322035,40,42.71186440677966,40C41.69491525423729,40,40.67796610169491,40,39.66101694915254,40C38.644067796610166,40,37.6271186440678,40,36.610169491525426,40C35.59322033898305,40,34.57627118644068,40,33.559322033898304,40C32.54237288135593,40,31.525423728813557,40,30.508474576271183,40C29.491525423728813,40,28.47457627118644,40,27.45762711864407,40C26.440677966101696,40,25.423728813559322,40,24.406779661016948,40C23.389830508474574,40,22.372881355932204,40,21.35593220338983,40C20.338983050847457,40,19.322033898305087,40,18.305084745762713,40C17.28813559322034,40,16.271186440677965,40,15.254237288135592,40C14.23728813559322,40,13.220338983050846,40,12.203389830508474,40C11.186440677966102,40,10.169491525423728,40,9.152542372881356,40C8.135593220338983,40,7.11864406779661,40,6.101694915254237,40C5.084745762711864,40,4.067796610169491,40,3.0508474576271185,40C2.0338983050847457,40,1.0169491525423728,40,0,40Z"></path><path class="line" stroke="black" fill="none" d="M0,14.5792C1.0169491525423728,20.585866666666664,2.0338983050847457,26.59253333333333,3.0508474576271185,26.59253333333333C4.067796610169491,26.59253333333333,5.084745762711864,3.195999999999999,6.101694915254237,3.195999999999999C7.11864406779661,3.195999999999999,8.135593220338983,19.724088888888886,9.152542372881356,24.53733333333333C10.169491525423728,29.350577777777772,11.186440677966102,32.075466666666664,12.203389830508474,32.075466666666664C13.220338983050846,32.075466666666664,14.23728813559322,17.7584,15.254237288135592,17.7584C16.271186440677965,17.7584,17.28813559322034,18.6656,18.305084745762713,18.6656C19.322033898305087,18.6656,20.338983050847457,16.796266666666668,21.35593220338983,16.796266666666668C22.372881355932204,16.796266666666668,23.389830508474574,21.1768,24.406779661016948,21.1768C25.423728813559322,21.1768,26.440677966101696,17.457066666666666,27.45762711864407,17.457066666666666C28.47457627118644,17.457066666666666,29.491525423728813,22.162222222222226,30.508474576271183,24.816266666666667C31.525423728813557,27.470311111111116,32.54237288135593,33.38133333333333,33.559322033898304,33.38133333333333C34.57627118644068,33.38133333333333,35.59322033898305,21.8112,36.610169491525426,21.8112C37.6271186440678,21.8112,38.644067796610166,22.93333333333333,39.66101694915254,22.93333333333333C40.67796610169491,22.93333333333333,41.69491525423729,21.301066666666664,42.71186440677966,21.301066666666664C43.728813559322035,21.301066666666664,44.7457627118644,23.45066666666667,45.762711864406775,23.45066666666667C46.77966101694915,23.45066666666667,47.79661016949152,21.2584,48.813559322033896,21.2584C49.83050847457627,21.2584,50.847457627118644,24.30031111111111,51.86440677966102,26.2624C52.88135593220339,28.22448888888889,53.898305084745765,33.03093333333334,54.91525423728814,33.03093333333334C55.93220338983051,33.03093333333334,56.94915254237288,23.51653333333333,57.96610169491525,23.51653333333333C58.983050847457626,23.51653333333333,59.99999999999999,24.099733333333333,61.01694915254237,24.099733333333333C62.03389830508474,24.099733333333333,63.05084745762712,24.08097777777778,64.0677966101695,24.043466666666667C65.08474576271186,24.005955555555555,66.10169491525424,19.474666666666668,67.11864406779661,19.474666666666668C68.13559322033899,19.474666666666668,69.15254237288136,20.604488888888884,70.16949152542374,22.02586666666667C71.1864406779661,23.447244444444447,72.20338983050848,25.953555555555553,73.22033898305085,28.00293333333333C74.23728813559322,30.05231111111111,75.2542372881356,34.32213333333333,76.27118644067797,34.32213333333333C77.28813559322033,34.32213333333333,78.30508474576271,25.1096,79.32203389830508,25.1096C80.33898305084746,25.1096,81.35593220338983,25.736533333333334,82.37288135593221,25.736533333333334C83.38983050847457,25.736533333333334,84.40677966101696,21.425333333333334,85.42372881355932,21.425333333333334C86.4406779661017,21.425333333333334,87.45762711864407,24.75493333333332,88.47457627118645,26.489599999999996C89.49152542372882,28.224266666666654,90.50847457627118,31.833333333333336,91.52542372881355,31.833333333333336C92.54237288135593,31.833333333333336,93.55932203389831,27.7904,94.57627118644069,27.7904C95.59322033898306,27.7904,96.61016949152543,34.087466666666664,97.62711864406779,34.087466666666664C98.64406779661016,34.087466666666664,99.66101694915254,23.2504,100.6779661016949,23.2504C101.69491525423729,23.2504,102.71186440677965,25.218133333333334,103.72881355932203,25.218133333333334C104.7457627118644,25.218133333333334,105.76271186440678,24.341066666666666,106.77966101694915,24.341066666666666C107.79661016949153,24.341066666666666,108.8135593220339,24.3824,109.83050847457628,24.3824C110.84745762711864,24.3824,111.86440677966102,22.498399999999997,112.88135593220339,22.498399999999997C113.89830508474576,22.498399999999997,114.91525423728814,25.864000000000004,115.9322033898305,27.906399999999998C116.94915254237289,29.948800000000002,117.96610169491525,34.7528,118.98305084745763,34.7528C120,34.7528,121.01694915254237,26.695377777777768,122.03389830508473,25.6808C123.05084745762711,24.66622222222222,124.0677966101695,24.15893333333333,125.08474576271188,24.15893333333333C126.10169491525424,24.15893333333333,127.11864406779662,33.3536,128.135593220339,33.3536C129.15254237288136,33.3536,130.16949152542372,23.54311111111112,131.1864406779661,23.48746666666667C132.20338983050846,23.43182222222222,133.22033898305085,23.403999999999996,134.23728813559322,23.403999999999996C135.25423728813558,23.403999999999996,136.27118644067798,28.04751111111111,137.28813559322035,29.9144C138.3050847457627,31.78128888888889,139.3220338983051,34.605333333333334,140.33898305084747,34.605333333333334C141.35593220338984,34.605333333333334,142.3728813559322,24.80293333333333,143.38983050847457,24.80293333333333C144.40677966101694,24.80293333333333,145.42372881355934,25.929333333333332,146.4406779661017,25.929333333333332C147.45762711864407,25.929333333333332,148.47457627118644,21.676533333333335,149.4915254237288,21.676533333333335C150.50847457627117,21.676533333333335,151.52542372881356,25.52906666666667,152.54237288135593,25.52906666666667C153.5593220338983,25.52906666666667,154.5762711864407,21.322666666666667,155.59322033898306,21.322666666666667C156.61016949152543,21.322666666666667,157.6271186440678,27.54466666666667,158.64406779661016,29.653333333333336C159.66101694915253,31.762000000000018,160.67796610169492,33.974666666666664,161.6949152542373,33.974666666666664C162.71186440677965,33.974666666666664,163.72881355932205,25.904533333333333,164.74576271186442,25.904533333333333C165.76271186440678,25.904533333333333,166.77966101694915,26.47893333333333,167.79661016949152,26.47893333333333C168.81355932203388,26.47893333333333,169.83050847457628,24.302133333333337,170.84745762711864,24.302133333333337C171.864406779661,24.302133333333337,172.8813559322034,25.727733333333333,173.89830508474577,25.727733333333333C174.91525423728814,25.727733333333333,175.93220338983053,23.498933333333333,176.9491525423729,23.498933333333333C177.96610169491527,23.498933333333333,178.98305084745763,27.001199999999997,180,30.503466666666665"></path><path class="axis-ceiling" stroke-width="1" stroke="black" fill="none" d="M175,0L180,0"></path><text class="axis-ceiling-label" font-family="sans-serif" text-anchor="end" font-size="10px" x="170" y="2.5">150000</text></g></svg>