<svg xmlns="http://www.w3.org/2000/svg" viewBox="0 0 180 60"><g transform="translate(0,20)"><path class="area" fill="rgba(0, 0, 0, 0.2)" d="M0,32.8744C1.0169491525423728,32.92486666666667,2.0338983050847457,32.97533333333333,3.0508474576271185,32.97533333333333C4.067796610169491,32.97533333333333,5.084745762711864,32.751333333333335,6.101694915254237,32.751333333333335C7.11864406779661,32.751333333333335,8.135593220338983,32.9764,9.152542372881356,32.9764C10.169491525423728,32.9764,11.186440677966102,31.0528,12.203389830508474,31.0528C13.220338983050846,31.0528,14.23728813559322,33.77402222222222,15.254237288135592,34.78666666666667C16.271186440677965,35.799311111111116,17.28813559322034,37.12866666666667,18.305084745762713,37.12866666666667C19.322033898305087,37.12866666666667,20.338983050847457,32.0448,21.35593220338983,32.0448C22.372881355932204,32.0448,23.389830508474574,33.08066666666667,24.406779661016948,33.08066666666667C25.423728813559322,33.08066666666667,26.440677966101696,33.07906666666667,27.45762711864407,33.07586666666666C28.47457627118644,33.072666666666656,29.491525423728813,32.97906666666666,30.508474576271183,32.785466666666665C31.525423728813557,32.59186666666667,32.54237288135593,31.50133333333333,33.559322033898304,31.50133333333333C34.57627118644068,31.50133333333333,35.59322033898305,34.53102222222222,36.610169491525426,35.50813333333333C37.6271186440678,36.48524444444444,38.644067796610166,37.364000000000004,39.66101694915254,37.364000000000004C40.67796610169491,37.364000000000004,41.69491525423729,33.58697777777778,42.71186440677966,33.262C43.728813559322035,32.93702222222222,44.7457627118644,32.86955555555555,45.762711864406775,32.77453333333333C46.77966101694915,32.67951111111111,47.79661016949152,32.632,48.813559322033896,32.632C49.83050847457627,32.632,50.847457627118644,33.2008,51.86440677966102,33.2008C52.88135593220339,33.2008,53.898305084745765,32.730266666666665,54.91525423728814,32.730266666666665C55.93220338983051,32.730266666666665,56.94915254237288,33.9806,57.96610169491525,34.7128C58.983050847457626,35.445,59.99999999999999,37.12346666666667,61.01694915254237,37.12346666666667C62.03389830508474,37.12346666666667,63.05084745762712,33.25453333333334,64.0677966101695,32.614000000000004C65.08474576271186,31.973466666666667,66.10169491525424,31.6532,67.11864406779661,31.6532C68.13559322033899,31.6532,69.15254237288136,33.883688888888884,70.16949152542374,34.6412C71.1864406779661,35.398711111111105,72.20338983050848,36.19826666666667,73.22033898305085,36.19826666666667C74.23728813559322,36.19826666666667,75.2542372881356,35.495333333333335,76.27118644067797,35.495333333333335C77.28813559322033,35.495333333333335,78.30508474576271,38.791466666666665,79.32203389830508,38.791466666666665C80.33898305084746,38.791466666666665,81.35593220338983,38.1836,82.37288135593221,38.1836C83.38983050847457,38.1836,84.40677966101696,38.88053333333333,85.42372881355932,38.88053333333333C86.4406779661017,38.88053333333333,87.45762711864407,28.065866666666665,88.47457627118645,28.065866666666665C89.49152542372882,28.065866666666665,90.50847457627118,28.116133333333334,91.52542372881355,28.21666666666667C92.54237288135593,28.317200000000007,93.55932203389831,30.798000000000002,94.57627118644069,30.798000000000002C95.59322033898306,30.798000000000002,96.61016949152543,26.55773333333333,97.62711864406779,26.55773333333333C98.64406779661016,26.55773333333333,99.66101694915254,30.662133333333333,100.6779661016949,32.076C101.69491525423729,33.48986666666667,102.71186440677965,34.99631111111111,103.72881355932203,35.040933333333335C104.7457627118644,35.08555555555556,105.76271186440678,35.107866666666666,106.77966101694915,35.107866666666666C107.79661016949153,35.107866666666666,108.8135593220339,26.38702222222223,109.83050847457628,24.8624C110.84745762711864,23.337777777777777,111.86440677966102,23.408488888888886,112.88135593220339,22.575466666666664C113.89830508474576,21.74244444444444,114.91525423728814,19.864266666666666,115.9322033898305,19.864266666666666C116.94915254237289,19.864266666666666,117.96610169491525,20.49544444444443,118.98305084745763,21.7048C120,22.914155555555553,121.01694915254237,25.51760000000001,122.03389830508473,27.1204C123.05084745762711,28.723200000000013,124.0677966101695,31.321599999999997,125.08474576271188,31.321599999999997C126.10169491525424,31.321599999999997,127.11864406779662,13.826800000000002,128.135593220339,13.826800000000002C129.15254237288136,13.826800000000002,130.16949152542372,20.309600000000003,131.1864406779661,20.309600000000003C132.20338983050846,20.309600000000003,133.22033898305085,10.202133333333334,134.23728813559322,10.202133333333334C135.25423728813558,10.202133333333334,136.27118644067798,14.202266666666667,137.28813559322035,14.202266666666667C138.3050847457627,14.202266666666667,139.3220338983051,8.540933333333331,140.33898305084747,8.540933333333331C141.35593220338984,8.540933333333331,142.3728813559322,14.489377777777793,143.38983050847457,17.813866666666666C144.40677966101694,21.13835555555557,145.42372881355934,28.487866666666662,146.4406779661017,28.487866666666662C147.45762711864407,28.487866666666662,148.47457627118644,6.762666666666668,149.4915254237288,6.762666666666668C150.50847457627117,6.762666666666668,151.52542372881356,9.951866666666668,152.54237288135593,9.951866666666668C153.5593220338983,9.951866666666668,154.5762711864407,1.2589333333333341,155.59322033898306,1.2589333333333341C156.61016949152543,1.2589333333333341,157.6271186440678,11.027866666666668,158.64406779661016,11.027866666666668C159.66101694915253,11.027866666666668,160.67796610169492,3.1589333333333336,161.6949152542373,3.1589333333333336C162.71186440677965,3.1589333333333336,163.72881355932205,12.937088888888884,164.74576271186442,16.377066666666668C165.76271186440678,19.81704444444442,166.77966101694915,23.7988,167.79661016949152,23.7988C168.81355932203388,23.7988,169.83050847457628,6.446044444444445,170.84745762711864,6.244000000000001C171.864406779661,6.041955555555556,172.8813559322034,6.142977777777778,173.89830508474577,5.940933333333334C174.91525423728814,5.738888888888889,175.93220338983053,4.526355555555555,176.9491525423729,4.416133333333332C177.96610169491527,4.30591111111111,178.98305084745763,4.278355555555555,180,4.250799999999999L180,40C178.98305084745763,40,177.96610169491527,40,176.9491525423729,40C175.93220338983053,40,174.91525423728814,40,173.89830508474577,40C172.8813559322034,40,171.864406779661,40,170.84745762711864,40C169.83050847457628,40,168.81355932203388,40,167.79661016949152,40C166.77966101694915,40,165.76271186440678,40,164.74576271186442,40C163.72881355932205,40,162.71186440677965,40,161.6949152542373,40C160.67796610169492,40,159.66101694915253,40,158.64406779661016,40C157.6271186440678,40,156.61016949152543,40,155.59322033898306,40C154.5762711864407,40,153.5593220338983,40,152.54237288135593,40C151.52542372881356,40,150.50847457627117,40,149.4915254237288,40C148.47457627118644,40,147.45762711864407,40,146.4406779661017,40C145.42372881355934,40,144.40677966101694,40,143.38983050847457,40C142.3728813559322,40,141.35593220338984,40,140.33898305084747,40C139.3220338983051,40,138.3050847457627,40,137.28813559322035,40C136.27118644067798,40,135.25423728813558,40,134.23728813559322,40C133.22033898305085,40,132.20338983050846,40,131.1864406779661,40C130.16949152542372,40,129.15254237288136,40,128.135593220339,40C127.11864406779662,40,126.10169491525424,40,125.08474576271188,40C124.0677966101695,40,123.05084745762711,40,122.03389830508473,40C121.01694915254237,40,120,40,118.98305084745763,40C117.96610169491525,40,116.94915254237289,40,115.9322033898305,40C114.91525423728814,40,113.89830508474576,40,112.88135593220339,40C111.86440677966102,40,110.84745762711864,40,109.83050847457628,40C108.8135593220339,40,107.79661016949153,40,106.77966101694915,40C105.76271186440678,40,104.7457627118644,40,103.72881355932203,40C102.71186440677965,40,101.69491525423729,40,100.6779661016949,40C99.66101694915254,40,98.64406779661016,40,97.62711864406779,40C96.61016949152543,40,95.59322033898306,40,94.57627118644069,40C93.55932203389831,40,92.54237288135593,40,91.52542372881355,40C90.50847457627118,40,89.49152542372882,40,88.47457627118645,40C87.45762711864407,40,86.4406779661017,40,85.42372881355932,40C84.40677966101696,40,83.38983050847457,40,82.37288135593221,40C81.35593220338983,40,80.33898305084746,40,79.32203389830508,40C78.30508474576271,40,77.28813559322033,40,76.27118644067797,40C75.2542372881356,40,74.23728813559322,40,73.22033898305085,40C72.20338983050848,40,71.1864406779661,40,70.16949152542374,40C69.15254237288136,40,68.13559322033899,40,67.11864406779661,40C66.10169491525424,40,65.08474576271186,40,64.0677966101695,40C63.05084745762712,40,62.03389830508474,40,61.01694915254237,40C59.99999999999999,40,58.983050847457626,40,57.96610169491525,40C56.94915254237288,40,55.93220338983051,40,54.91525423728814,40C53.898305084745765,40,52.88135593220339,40,51.86440677966102,40C50.847457627118644,40,49.83050847457627,40,48.813559322033896,40C47.79661016949152,40,46.77966101694915,40,45.762711864406775,40C44.7457627118644,40,43.728813559322035,40,42.71186440677966,40C41.69491525423729,40,40.67796610169491,40,39.66101694915254,40C38.644067796610166,40,37.6271186440678,40,36.610169491525426,40C35.59322033898305,40,34.57627118644068,40,33.559322033898304,40C32.54237288135593,40,31.525423728813557,40,30.508474576271183,40C29.491525423728813,40,28.47457627118644,40,27.45762711864407,40C26.440677966101696,40,25.423728813559322,40,24.406779661016948,40C23.389830508474574,40,22.372881355932204,40,21.35593220338983,40C20.338983050847457,40,19.322033898305087,40,18.305084745762713,40C17.28813559322034,40,16.271186440677965,40,15.254237288135592,40C14.23728813559322,40,13.220338983050846,40,12.203389830508474,40C11.186440677966102,40,10.169491525423728,40,9.152542372881356,40C8.135593220338983,40,7.11864406779661,40,6.101694915254237,40C5.084745762711864,40,4.067796610169491,40,3.0508474576271185,40C2.0338983050847457,40,1.0169491525423728,40,0,40Z"></path><path class="line" stroke="black" fill="none" d="M0,32.8744C1.0169491525423728,32.92486666666667,2.0338983050847457,32.97533333333333,3.0508474576271185,32.97533333333333C4.067796610169491,32.97533333333333,5.084745762711864,32.751333333333335,6.101694915254237,32.751333333333335C7.11864406779661,32.751333333333335,8.135593220338983,32.9764,9.152542372881356,32.9764C10.169491525423728,32.9764,11.186440677966102,31.0528,12.203389830508474,31.0528C13.220338983050846,31.0528,14.23728813559322,33.77402222222222,15.254237288135592,34.78666666666667C16.271186440677965,35.799311111111116,17.28813559322034,37.12866666666667,18.305084745762713,37.12866666666667C19.322033898305087,37.12866666666667,20.338983050847457,32.0448,21.35593220338983,32.0448C22.372881355932204,32.0448,23.389830508474574,33.08066666666667,24.406779661016948,33.08066666666667C25.423728813559322,33.08066666666667,26.440677966101696,33.07906666666667,27.45762711864407,33.07586666666666C28.47457627118644,33.072666666666656,29.491525423728813,32.97906666666666,30.508474576271183,32.785466666666665C31.525423728813557,32.59186666666667,32.54237288135593,31.50133333333333,33.559322033898304,31.50133333333333C34.57627118644068,31.50133333333333,35.59322033898305,34.53102222222222,36.610169491525426,35.50813333333333C37.6271186440678,36.48524444444444,38.644067796610166,37.364000000000004,39.66101694915254,37.364000000000004C40.67796610169491,37.364000000000004,41.69491525423729,33.58697777777778,42.71186440677966,33.262C43.728813559322035,32.93702222222222,44.7457627118644,32.86955555555555,45.762711864406775,32.77453333333333C46.77966101694915,32.67951111111111,47.79661016949152,32.632,48.813559322033896,32.632C49.83050847457627,32.632,50.847457627118644,33.2008,51.86440677966102,33.2008C52.88135593220339,33.2008,53.898305084745765,32.730266666666665,54.91525423728814,32.730266666666665C55.93220338983051,32.730266666666665,56.94915254237288,33.9806,57.96610169491525,34.7128C58.983050847457626,35.445,59.99999999999999,37.12346666666667,61.01694915254237,37.12346666666667C62.03389830508474,37.12346666666667,63.05084745762712,33.25453333333334,64.0677966101695,32.614000000000004C65.08474576271186,31.973466666666667,66.10169491525424,31.6532,67.11864406779661,31.6532C68.13559322033899,31.6532,69.15254237288136,33.883688888888884,70.16949152542374,34.6412C71.1864406779661,35.398711111111105,72.20338983050848,36.19826666666667,73.22033898305085,36.19826666666667C74.23728813559322,36.19826666666667,75.2542372881356,35.495333333333335,76.27118644067797,35.495333333333335C77.28813559322033,35.495333333333335,78.30508474576271,38.791466666666665,79.32203389830508,38.791466666666665C80.33898305084746,38.791466666666665,81.35593220338983,38.1836,82.37288135593221,38.1836C83.38983050847457,38.1836,84.40677966101696,38.88053333333333,85.42372881355932,38.88053333333333C86.4406779661017,38.88053333333333,87.45762711864407,28.065866666666665,88.47457627118645,28.065866666666665C89.49152542372882,28.065866666666665,90.50847457627118,28.116133333333334,91.52542372881355,28.21666666666667C92.54237288135593,28.317200000000007,93.55932203389831,30.798000000000002,94.57627118644069,30.798000000000002C95.59322033898306,30.798000000000002,96.61016949152543,26.55773333333333,97.62711864406779,26.55773333333333C98.64406779661016,26.55773333333333,99.66101694915254,30.662133333333333,100.6779661016949,32.076C101.69491525423729,33.48986666666667,102.71186440677965,34.99631111111111,103.72881355932203,35.040933333333335C104.7457627118644,35.08555555555556,105.76271186440678,35.107866666666666,106.77966101694915,35.107866666666666C107.79661016949153,35.107866666666666,108.8135593220339,26.38702222222223,109.83050847457628,24.8624C110.84745762711864,23.337777777777777,111.86440677966102,23.408488888888886,112.88135593220339,22.575466666666664C113.89830508474576,21.74244444444444,114.91525423728814,19.864266666666666,115.9322033898305,19.864266666666666C116.94915254237289,19.864266666666666,117.96610169491525,20.49544444444443,118.98305084745763,21.7048C120,22.914155555555553,121.01694915254237,25.51760000000001,122.03389830508473,27.1204C123.05084745762711,28.723200000000013,124.0677966101695,31.321599999999997,125.08474576271188,31.321599999999997C126.10169491525424,31.321599999999997,127.11864406779662,13.826800000000002,128.135593220339,13.826800000000002C129.15254237288136,13.826800000000002,130.16949152542372,20.309600000000003,131.1864406779661,20.309600000000003C132.20338983050846,20.309600000000003,133.22033898305085,10.202133333333334,134.23728813559322,10.202133333333334C135.25423728813558,10.202133333333334,136.27118644067798,14.202266666666667,137.28813559322035,14.202266666666667C138.3050847457627,14.202266666666667,139.3220338983051,8.540933333333331,140.33898305084747,8.540933333333331C141.35593220338984,8.540933333333331,142.3728813559322,14.489377777777793,143.38983050847457,17.813866666666666C144.40677966101694,21.13835555555557,145.42372881355934,28.487866666666662,146.4406779661017,28.487866666666662C147.45762711864407,28.487866666666662,148.47457627118644,6.762666666666668,149.4915254237288,6.762666666666668C150.50847457627117,6.762666666666668,151.52542372881356,9.951866666666668,152.54237288135593,9.951866666666668C153.5593220338983,9.951866666666668,154.5762711864407,1.2589333333333341,155.59322033898306,1.2589333333333341C156.61016949152543,1.2589333333333341,157.6271186440678,11.027866666666668,158.64406779661016,11.027866666666668C159.66101694915253,11.027866666666668,160.67796610169492,3.1589333333333336,161.6949152542373,3.1589333333333336C162.71186440677965,3.1589333333333336,163.72881355932205,12.937088888888884,164.74576271186442,16.377066666666668C165.76271186440678,19.81704444444442,166.77966101694915,23.7988,167.79661016949152,23.7988C168.81355932203388,23.7988,169.83050847457628,6.446044444444445,170.84745762711864,6.244000000000001C171.864406779661,6.041955555555556,172.8813559322034,6.142977777777778,173.89830508474577,5.940933333333334C174.91525423728814,5.738888888888889,175.93220338983053,4.526355555555555,176.9491525423729,4.416133333333332C177.96610169491527,4.30591111111111,178.98305084745763,4.278355555555555,180,4.250799999999999"></path><path class="axis-ceiling" stroke-width="1" stroke="black" fill="none" d="M175,0L180,0"></path><text class="axis-ceiling-label" font-family="sans-serif" text-anchor="end" font-size="10px" x="170" y="2.5">300000</text></g></svg>