<svg xmlns="http://www.w3.org/2000/svg" viewBox="0 0 180 60"><g transform="translate(0,20)"><path class="area" fill="rgba(0, 0, 0, 0.2)" d="M0,17.106742857142855C1.0169491525423728,15.598857142857144,2.0338983050847457,14.09097142857143,3.0508474576271185,14.09097142857143C4.067796610169491,14.09097142857143,5.084745762711864,14.895885714285715,6.101694915254237,14.895885714285715C7.11864406779661,14.895885714285715,8.135593220338983,14.85184761904762,9.152542372881356,14.763771428571427C10.169491525423728,14.675695238095235,11.186440677966102,14.026,12.203389830508474,13.671542857142857C13.220338983050846,13.317085714285714,14.23728813559322,13.326704761904761,15.254237288135592,12.63702857142857C16.271186440677965,11.947352380952378,17.28813559322034,10.049085714285715,18.305084745762713,9.257942857142858C19.322033898305087,8.466800000000003,20.338983050847457,7.890171428571429,21.35593220338983,7.890171428571429C22.372881355932204,7.890171428571429,23.389830508474574,8.38,24.406779661016948,8.38C25.423728813559322,8.38,26.440677966101696,8.027790476190475,27.45762711864407,7.766285714285712C28.47457627118644,7.50478095238095,29.491525423728813,7.019428571428571,30.508474576271183,6.8109714285714285C31.525423728813557,6.602514285714285,32.54237288135593,6.498285714285714,33.559322033898304,6.498285714285714C34.57627118644068,6.498285714285714,35.59322033898305,6.878514285714288,36.610169491525426,6.878514285714288C37.6271186440678,6.878514285714288,38.644067796610166,6.62222857142857,39.66101694915254,6.49542857142857C40.67796610169491,6.3686285714285695,41.69491525423729,6.314933333333334,42.71186440677966,6.117714285714286C43.728813559322035,5.9204952380952385,44.7457627118644,5.3121142857142845,45.762711864406775,5.3121142857142845C46.77966101694915,5.3121142857142845,47.79661016949152,6.071695238095238,48.813559322033896,6.283657142857142C49.83050847457627,6.495619047619046,50.847457627118644,6.498819047619046,51.86440677966102,6.601599999999999C52.88135593220339,6.704380952380951,53.898305084745765,6.868876190476192,54.91525423728814,6.900342857142858C55.93220338983051,6.931809523809524,56.94915254237288,6.916076190476191,57.96610169491525,6.947542857142857C58.983050847457626,6.979009523809522,59.99999999999999,7.046552380952383,61.01694915254237,7.0915428571428585C62.03389830508474,7.136533333333335,63.05084745762712,7.217485714285714,64.0677966101695,7.217485714285714C65.08474576271186,7.217485714285714,66.10169491525424,5.91382857142857,67.11864406779661,5.91382857142857C68.13559322033899,5.91382857142857,69.15254237288136,7.401942857142858,70.16949152542374,7.401942857142858C71.1864406779661,7.401942857142858,72.20338983050848,7.327314285714284,73.22033898305085,7.327314285714284C74.23728813559322,7.327314285714284,75.2542372881356,8.22937142857143,76.27118644067797,8.22937142857143C77.28813559322033,8.22937142857143,78.30508474576271,8.176685714285714,79.32203389830508,8.176685714285714C80.33898305084746,8.176685714285714,81.35593220338983,8.317085714285712,82.37288135593221,8.422171428571428C83.38983050847457,8.527257142857142,84.40677966101696,8.667885714285717,85.42372881355932,8.807200000000002C86.4406779661017,8.946514285714287,87.45762711864407,9.25805714285714,88.47457627118645,9.25805714285714C89.49152542372882,9.25805714285714,90.50847457627118,8.54074285714286,91.52542372881355,8.316685714285716C92.54237288135593,8.092628571428572,93.55932203389831,8.013371428571428,94.57627118644069,7.913714285714284C95.59322033898306,7.814057142857141,96.61016949152543,7.722399999999998,97.62711864406779,7.718742857142855C98.64406779661016,7.7150857142857125,99.66101694915254,7.716914285714284,100.6779661016949,7.713257142857142C101.69491525423729,7.709599999999999,102.71186440677965,6.9466285714285725,103.72881355932203,6.9466285714285725C104.7457627118644,6.9466285714285725,105.76271186440678,7.303600000000001,106.77966101694915,7.687885714285714C107.79661016949153,8.072171428571428,108.8135593220339,9.252342857142857,109.83050847457628,9.252342857142857C110.84745762711864,9.252342857142857,111.86440677966102,9.131714285714287,112.88135593220339,8.9312C113.89830508474576,8.730685714285714,114.91525423728814,8.049257142857144,115.9322033898305,8.049257142857144C116.94915254237289,8.049257142857144,117.96610169491525,8.294590476190477,118.98305084745763,8.3672C120,8.439809523809524,121.01694915254237,8.408628571428572,122.03389830508473,8.484914285714286C123.05084745762711,8.5612,124.0677966101695,8.824914285714286,125.08474576271188,8.824914285714286C126.10169491525424,8.824914285714286,127.11864406779662,5.912685714285715,128.135593220339,5.912685714285715C129.15254237288136,5.912685714285715,130.16949152542372,6.525599999999998,131.1864406779661,6.525599999999998C132.20338983050846,6.525599999999998,133.22033898305085,6.0210285714285705,134.23728813559322,6.0210285714285705C135.25423728813558,6.0210285714285705,136.27118644067798,8.31504761904762,137.28813559322035,8.6176C138.3050847457627,8.920152380952379,139.3220338983051,9.003161904761901,140.33898305084747,9.07142857142857C141.35593220338984,9.139695238095237,142.3728813559322,9.105561904761903,143.38983050847457,9.17382857142857C144.40677966101694,9.242095238095239,145.42372881355934,9.611352380952376,146.4406779661017,10.381942857142858C147.45762711864407,11.152533333333334,148.47457627118644,13.027200000000002,149.4915254237288,13.79737142857143C150.50847457627117,14.567542857142866,151.52542372881356,14.484209523809524,152.54237288135593,15.002971428571428C153.5593220338983,15.521733333333332,154.5762711864407,16.818209523809525,155.59322033898306,16.90994285714286C156.61016949152543,17.001676190476193,157.6271186440678,16.9968,158.64406779661016,17.047542857142858C159.66101694915253,17.098285714285716,160.67796610169492,17.11140952380952,161.6949152542373,17.214399999999998C162.71186440677965,17.317390476190475,163.72881355932205,17.665485714285715,164.74576271186442,17.665485714285715C165.76271186440678,17.665485714285715,166.77966101694915,17.53847619047619,167.79661016949152,17.427542857142857C168.81355932203388,17.31660952380952,169.83050847457628,16.999885714285714,170.84745762711864,16.999885714285714C171.864406779661,16.999885714285714,172.8813559322034,18.30377142857143,173.89830508474577,18.30377142857143C174.91525423728814,18.30377142857143,175.93220338983053,18.242857142857144,176.9491525423729,18.242857142857144C177.96610169491527,18.242857142857144,178.98305084745763,18.936114285714286,180,19.629371428571428L180,40C178.98305084745763,40,177.96610169491527,40,176.9491525423729,40C175.93220338983053,40,174.91525423728814,40,173.89830508474577,40C172.8813559322034,40,171.864406779661,40,170.84745762711864,40C169.83050847457628,40,168.81355932203388,40,167.79661016949152,40C166.77966101694915,40,165.76271186440678,40,164.74576271186442,40C163.72881355932205,40,162.71186440677965,40,161.6949152542373,40C160.67796610169492,40,159.66101694915253,40,158.64406779661016,40C157.6271186440678,40,156.61016949152543,40,155.59322033898306,40C154.5762711864407,40,153.5593220338983,40,152.54237288135593,40C151.52542372881356,40,150.50847457627117,40,149.4915254237288,40C148.47457627118644,40,147.45762711864407,40,146.4406779661017,40C145.42372881355934,40,144.40677966101694,40,143.38983050847457,40C142.3728813559322,40,141.35593220338984,40,140.33898305084747,40C139.3220338983051,40,138.3050847457627,40,137.28813559322035,40C136.27118644067798,40,135.25423728813558,40,134.23728813559322,40C133.22033898305085,40,132.20338983050846,40,131.1864406779661,40C130.16949152542372,40,129.15254237288136,40,128.135593220339,40C127.11864406779662,40,126.10169491525424,40,125.08474576271188,40C124.0677966101695,40,123.05084745762711,40,122.03389830508473,40C121.01694915254237,40,120,40,118.98305084745763,40C117.96610169491525,40,116.94915254237289,40,115.9322033898305,40C114.91525423728814,40,113.89830508474576,40,112.88135593220339,40C111.86440677966102,40,110.84745762711864,40,109.83050847457628,40C108.8135593220339,40,107.79661016949153,40,106.77966101694915,40C105.76271186440678,40,104.7457627118644,40,103.72881355932203,40C102.71186440677965,40,101.69491525423729,40,100.6779661016949,40C99.66101694915254,40,98.64406779661016,40,97.62711864406779,40C96.61016949152543,40,95.59322033898306,40,94.57627118644069,40C93.55932203389831,40,92.54237288135593,40,91.52542372881355,40C90.50847457627118,40,89.49152542372882,40,88.47457627118645,40C87.45762711864407,40,86.4406779661017,40,85.42372881355932,40C84.40677966101696,40,83.38983050847457,40,82.37288135593221,40C81.35593220338983,40,80.33898305084746,40,79.32203389830508,40C78.30508474576271,40,77.28813559322033,40,76.27118644067797,40C75.2542372881356,40,74.23728813559322,40,73.22033898305085,40C72.20338983050848,40,71.1864406779661,40,70.16949152542374,40C69.15254237288136,40,68.13559322033899,40,67.11864406779661,40C66.10169491525424,40,65.08474576271186,40,64.0677966101695,40C63.05084745762712,40,62.03389830508474,40,61.01694915254237,40C59.99999999999999,40,58.983050847457626,40,57.96610169491525,40C56.94915254237288,40,55.93220338983051,40,54.91525423728814,40C53.898305084745765,40,52.88135593220339,40,51.86440677966102,40C50.847457627118644,40,49.83050847457627,40,48.813559322033896,40C47.79661016949152,40,46.77966101694915,40,45.762711864406775,40C44.7457627118644,40,43.728813559322035,40,42.71186440677966,40C41.69491525423729,40,40.67796610169491,40,39.66101694915254,40C38.644067796610166,40,37.6271186440678,40,36.610169491525426,40C35.59322033898305,40,34.57627118644068,40,33.559322033898304,40C32.54237288135593,40,31.525423728813557,40,30.508474576271183,40C29.491525423728813,40,28.47457627118644,40,27.45762711864407,40C26.440677966101696,40,25.423728813559322,40,24.406779661016948,40C23.389830508474574,40,22.372881355932204,40,21.35593220338983,40C20.338983050847457,40,19.322033898305087,40,18.305084745762713,40C17.28813559322034,40,16.271186440677965,40,15.254237288135592,40C14.23728813559322,40,13.220338983050846,40,12.203389830508474,40C11.186440677966102,40,10.169491525423728,40,9.152542372881356,40C8.135593220338983,40,7.11864406779661,40,6.101694915254237,40C5.084745762711864,40,4.067796610169491,40,3.0508474576271185,40C2.0338983050847457,40,1.0169491525423728,40,0,40Z"></path><path class="line" stroke="black" fill="none" d="M0,17.106742857142855C1.0169491525423728,15.598857142857144,2.0338983050847457,14.09097142857143,3.0508474576271185,14.09097142857143C4.067796610169491,14.09097142857143,5.084745762711864,14.895885714285715,6.101694915254237,14.895885714285715C7.11864406779661,14.895885714285715,8.135593220338983,14.85184761904762,9.152542372881356,14.763771428571427C10.169491525423728,14.675695238095235,11.186440677966102,14.026,12.203389830508474,13.671542857142857C13.220338983050846,13.317085714285714,14.23728813559322,13.326704761904761,15.254237288135592,12.63702857142857C16.271186440677965,11.947352380952378,17.28813559322034,10.049085714285715,18.305084745762713,9.257942857142858C19.322033898305087,8.466800000000003,20.338983050847457,7.890171428571429,21.35593220338983,7.890171428571429C22.372881355932204,7.890171428571429,23.389830508474574,8.38,24.406779661016948,8.38C25.423728813559322,8.38,26.440677966101696,8.027790476190475,27.45762711864407,7.766285714285712C28.47457627118644,7.50478095238095,29.491525423728813,7.019428571428571,30.508474576271183,6.8109714285714285C31.525423728813557,6.602514285714285,32.54237288135593,6.498285714285714,33.559322033898304,6.498285714285714C34.57627118644068,6.498285714285714,35.59322033898305,6.878514285714288,36.610169491525426,6.878514285714288C37.6271186440678,6.878514285714288,38.644067796610166,6.62222857142857,39.66101694915254,6.49542857142857C40.67796610169491,6.3686285714285695,41.69491525423729,6.314933333333334,42.71186440677966,6.117714285714286C43.728813559322035,5.9204952380952385,44.7457627118644,5.3121142857142845,45.762711864406775,5.3121142857142845C46.77966101694915,5.3121142857142845,47.79661016949152,6.071695238095238,48.813559322033896,6.283657142857142C49.83050847457627,6.495619047619046,50.847457627118644,6.498819047619046,51.86440677966102,6.601599999999999C52.88135593220339,6.704380952380951,53.898305084745765,6.868876190476192,54.91525423728814,6.900342857142858C55.93220338983051,6.931809523809524,56.94915254237288,6.916076190476191,57.96610169491525,6.947542857142857C58.983050847457626,6.979009523809522,59.99999999999999,7.046552380952383,61.01694915254237,7.0915428571428585C62.03389830508474,7.136533333333335,63.05084745762712,7.217485714285714,64.0677966101695,7.217485714285714C65.08474576271186,7.217485714285714,66.10169491525424,5.91382857142857,67.11864406779661,5.91382857142857C68.13559322033899,5.91382857142857,69.15254237288136,7.401942857142858,70.16949152542374,7.401942857142858C71.1864406779661,7.401942857142858,72.20338983050848,7.327314285714284,73.22033898305085,7.327314285714284C74.23728813559322,7.327314285714284,75.2542372881356,8.22937142857143,76.27118644067797,8.22937142857143C77.28813559322033,8.22937142857143,78.30508474576271,8.176685714285714,79.32203389830508,8.176685714285714C80.33898305084746,8.176685714285714,81.35593220338983,8.317085714285712,82.37288135593221,8.422171428571428C83.38983050847457,8.527257142857142,84.40677966101696,8.667885714285717,85.42372881355932,8.807200000000002C86.4406779661017,8.946514285714287,87.45762711864407,9.25805714285714,88.47457627118645,9.25805714285714C89.49152542372882,9.25805714285714,90.50847457627118,8.54074285714286,91.52542372881355,8.316685714285716C92.54237288135593,8.092628571428572,93.55932203389831,8.013371428571428,94.57627118644069,7.913714285714284C95.59322033898306,7.814057142857141,96.61016949152543,7.722399999999998,97.62711864406779,7.718742857142855C98.64406779661016,7.7150857142857125,99.66101694915254,7.716914285714284,100.6779661016949,7.713257142857142C101.69491525423729,7.709599999999999,102.71186440677965,6.9466285714285725,103.72881355932203,6.9466285714285725C104.7457627118644,6.9466285714285725,105.76271186440678,7.303600000000001,106.77966101694915,7.687885714285714C107.79661016949153,8.072171428571428,108.8135593220339,9.252342857142857,109.83050847457628,9.252342857142857C110.84745762711864,9.252342857142857,111.86440677966102,9.131714285714287,112.88135593220339,8.9312C113.89830508474576,8.730685714285714,114.91525423728814,8.049257142857144,115.9322033898305,8.049257142857144C116.94915254237289,8.049257142857144,117.96610169491525,8.294590476190477,118.98305084745763,8.3672C120,8.439809523809524,121.01694915254237,8.408628571428572,122.03389830508473,8.484914285714286C123.05084745762711,8.5612,124.0677966101695,8.824914285714286,125.08474576271188,8.824914285714286C126.10169491525424,8.824914285714286,127.11864406779662,5.912685714285715,128.135593220339,5.912685714285715C129.15254237288136,5.912685714285715,130.16949152542372,6.525599999999998,131.1864406779661,6.525599999999998C132.20338983050846,6.525599999999998,133.22033898305085,6.0210285714285705,134.23728813559322,6.0210285714285705C135.25423728813558,6.0210285714285705,136.27118644067798,8.31504761904762,137.28813559322035,8.6176C138.3050847457627,8.920152380952379,139.3220338983051,9.003161904761901,140.33898305084747,9.07142857142857C141.35593220338984,9.139695238095237,142.3728813559322,9.105561904761903,143.38983050847457,9.17382857142857C144.40677966101694,9.242095238095239,145.42372881355934,9.611352380952376,146.4406779661017,10.381942857142858C147.45762711864407,11.152533333333334,148.47457627118644,13.027200000000002,149.4915254237288,13.79737142857143C150.50847457627117,14.567542857142866,151.52542372881356,14.484209523809524,152.54237288135593,15.002971428571428C153.5593220338983,15.521733333333332,154.5762711864407,16.818209523809525,155.59322033898306,16.90994285714286C156.61016949152543,17.001676190476193,157.6271186440678,16.9968,158.64406779661016,17.047542857142858C159.66101694915253,17.098285714285716,160.67796610169492,17.11140952380952,161.6949152542373,17.214399999999998C162.71186440677965,17.317390476190475,163.72881355932205,17.665485714285715,164.74576271186442,17.665485714285715C165.76271186440678,17.665485714285715,166.77966101694915,17.53847619047619,167.79661016949152,17.427542857142857C168.81355932203388,17.31660952380952,169.83050847457628,16.999885714285714,170.84745762711864,16.999885714285714C171.864406779661,16.999885714285714,172.8813559322034,18.30377142857143,173.89830508474577,18.30377142857143C174.91525423728814,18.30377142857143,175.93220338983053,18.242857142857144,176.9491525423729,18.242857142857144C177.96610169491527,18.242857142857144,178.98305084745763,18.936114285714286,180,19.629371428571428"></path><path class="axis-ceiling" stroke-width="1" stroke="black" fill="none" d="M175,0L180,0"></path><text class="axis-ceiling-label" font-family="sans-serif" text-anchor="end" font-size="10px" x="170" y="2.5">350000</text></g></svg>