<svg xmlns="http://www.w3.org/2000/svg" viewBox="0 0 180 60"><g transform="translate(0,20)"><path class="area" fill="rgba(0, 0, 0, 0.2)" d="M0,11.568261999999997C1.0169491525423728,11.553764916666665,2.0338983050847457,11.539267833333332,3.0508474576271185,11.529162C4.067796610169491,11.519056166666667,5.084745762711864,11.521160166666666,6.101694915254237,11.507627C7.11864406779661,11.494093833333332,8.135593220338983,11.466556166666665,9.152542372881356,11.447962999999998C10.169491525423728,11.429369833333332,11.186440677966102,11.413372333333335,12.203389830508474,11.396068000000001C13.220338983050846,11.378763666666668,14.23728813559322,11.361810333333333,15.254237288135592,11.344137C16.271186440677965,11.326463666666665,17.28813559322034,11.3096695,18.305084745762713,11.290028C19.322033898305087,11.2703865,20.338983050847457,11.24252616666667,21.35593220338983,11.226288000000002C22.372881355932204,11.210049833333334,23.389830508474574,11.201508833333332,24.406779661016948,11.192598999999998C25.423728813559322,11.183689166666664,26.440677966101696,11.184546500000002,27.45762711864407,11.172829000000002C28.47457627118644,11.161111500000002,29.491525423728813,11.139748333333333,30.508474576271183,11.122294C31.525423728813557,11.104839666666665,32.54237288135593,11.08634483333333,33.559322033898304,11.068102999999997C34.57627118644068,11.049861166666664,35.59322033898305,11.030552,36.610169491525426,11.012843C37.6271186440678,10.995134,38.644067796610166,10.979435166666665,39.66101694915254,10.961848999999999C40.67796610169491,10.944262833333331,41.69491525423729,10.923022166666666,42.71186440677966,10.907326C43.728813559322035,10.891629833333333,44.7457627118644,10.877876666666669,45.762711864406775,10.867672000000002C46.77966101694915,10.857467333333336,47.79661016949152,10.858926166666667,48.813559322033896,10.846098C49.83050847457627,10.833269833333333,50.847457627118644,10.810369,51.86440677966102,10.790703C52.88135593220339,10.771037000000002,53.898305084745765,10.745234000000002,54.91525423728814,10.728102000000002C55.93220338983051,10.710970000000001,56.94915254237288,10.699361666666666,57.96610169491525,10.687911C58.983050847457626,10.676460333333333,59.99999999999999,10.669781000000002,61.01694915254237,10.659398000000003C62.03389830508474,10.649015000000004,63.05084745762712,10.631655666666667,64.0677966101695,10.625613000000001C65.08474576271186,10.619570333333336,66.10169491525424,10.620330166666669,67.11864406779661,10.616549000000003C68.13559322033899,10.612767833333336,69.15254237288136,10.606595833333333,70.16949152542374,10.602926C71.1864406779661,10.599256166666667,72.20338983050848,10.600127333333333,73.22033898305085,10.594529999999999C74.23728813559322,10.588932666666665,75.2542372881356,10.534670833333333,76.27118644067797,10.505024C77.28813559322033,10.475377166666668,78.30508474576271,10.442880666666664,79.32203389830508,10.416648999999998C80.33898305084746,10.390417333333332,81.35593220338983,10.375939333333335,82.37288135593221,10.347634000000001C83.38983050847457,10.319328666666669,84.40677966101696,10.273524833333333,85.42372881355932,10.246817C86.4406779661017,10.220109166666667,87.45762711864407,10.203490833333335,88.47457627118645,10.187387000000001C89.49152542372882,10.171283166666667,90.50847457627118,10.162507999999999,91.52542372881355,10.150193999999999C92.54237288135593,10.13788,93.55932203389831,10.137963666666666,94.57627118644069,10.113503000000001C95.59322033898306,10.089042333333337,96.61016949152543,10.040673666666665,97.62711864406779,9.999970999999999C98.64406779661016,9.959268333333332,99.66101694915254,9.916237333333333,100.6779661016949,9.869287C101.69491525423729,9.822336666666667,102.71186440677965,9.766307666666666,103.72881355932203,9.718269C104.7457627118644,9.670230333333333,105.76271186440678,9.620023499999999,106.77966101694915,9.581055C107.79661016949153,9.5420865,108.8135593220339,9.5114055,109.83050847457628,9.484458C110.84745762711864,9.4575105,111.86440677966102,9.462762,112.88135593220339,9.419369999999997C113.89830508474576,9.375977999999995,114.91525423728814,9.280400499999997,115.9322033898305,9.223070999999997C116.94915254237289,9.165741499999998,117.96610169491525,9.137253333333332,118.98305084745763,9.075392999999998C120,9.013532666666665,121.01694915254237,8.921403499999998,122.03389830508473,8.851909C123.05084745762711,8.7824145,124.0677966101695,8.729997000000003,125.08474576271188,8.658426000000002C126.10169491525424,8.586855000000002,127.11864406779662,8.4895395,128.135593220339,8.422483C129.15254237288136,8.3554265,130.16949152542372,8.298209833333335,131.1864406779661,8.256087C132.20338983050846,8.213964166666667,133.22033898305085,8.225682833333334,134.23728813559322,8.169746C135.25423728813558,8.113809166666666,136.27118644067798,7.999572833333333,137.28813559322035,7.920465999999999C138.3050847457627,7.841359166666666,139.3220338983051,7.7810915000000005,140.33898305084747,7.695105C141.35593220338984,7.6091185,142.3728813559322,7.489188499999999,143.38983050847457,7.404546999999999C144.40677966101694,7.319905499999998,145.42372881355934,7.2695225,146.4406779661017,7.187256C147.45762711864407,7.1049895,148.47457627118644,6.986528000000002,149.4915254237288,6.910948000000001C150.50847457627117,6.835368000000001,151.52542372881356,6.783556166666665,152.54237288135593,6.733775999999998C153.5593220338983,6.683995833333331,154.5762711864407,6.674713499999998,155.59322033898306,6.612266999999998C156.61016949152543,6.549820499999999,157.6271186440678,6.443865833333333,158.64406779661016,6.359097C159.66101694915253,6.274328166666667,160.67796610169492,6.190707666666667,161.6949152542373,6.103654000000001C162.71186440677965,6.016600333333334,163.72881355932205,5.925941333333332,164.74576271186442,5.8367749999999985C165.76271186440678,5.7476086666666655,166.77966101694915,5.653232333333333,167.79661016949152,5.568656000000001C168.81355932203388,5.484079666666667,169.83050847457628,5.397682833333331,170.84745762711864,5.329316999999998C171.864406779661,5.260951166666665,172.8813559322034,5.2016895000000005,173.89830508474577,5.158461000000001C174.91525423728814,5.115232500000001,175.93220338983053,5.1289560000000005,176.9491525423729,5.069946000000001C177.96610169491527,5.010936000000001,178.98305084745763,4.8803550000000016,180,4.749774000000002L180,40C178.98305084745763,40,177.96610169491527,40,176.9491525423729,40C175.93220338983053,40,174.91525423728814,40,173.89830508474577,40C172.8813559322034,40,171.864406779661,40,170.84745762711864,40C169.83050847457628,40,168.81355932203388,40,167.79661016949152,40C166.77966101694915,40,165.76271186440678,40,164.74576271186442,40C163.72881355932205,40,162.71186440677965,40,161.6949152542373,40C160.67796610169492,40,159.66101694915253,40,158.64406779661016,40C157.6271186440678,40,156.61016949152543,40,155.59322033898306,40C154.5762711864407,40,153.5593220338983,40,152.54237288135593,40C151.52542372881356,40,150.50847457627117,40,149.4915254237288,40C148.47457627118644,40,147.45762711864407,40,146.4406779661017,40C145.42372881355934,40,144.40677966101694,40,143.38983050847457,40C142.3728813559322,40,141.35593220338984,40,140.33898305084747,40C139.3220338983051,40,138.3050847457627,40,137.28813559322035,40C136.27118644067798,40,135.25423728813558,40,134.23728813559322,40C133.22033898305085,40,132.20338983050846,40,131.1864406779661,40C130.16949152542372,40,129.15254237288136,40,128.135593220339,40C127.11864406779662,40,126.10169491525424,40,125.08474576271188,40C124.0677966101695,40,123.05084745762711,40,122.03389830508473,40C121.01694915254237,40,120,40,118.98305084745763,40C117.96610169491525,40,116.94915254237289,40,115.9322033898305,40C114.91525423728814,40,113.89830508474576,40,112.88135593220339,40C111.86440677966102,40,110.84745762711864,40,109.83050847457628,40C108.8135593220339,40,107.79661016949153,40,106.77966101694915,40C105.76271186440678,40,104.7457627118644,40,103.72881355932203,40C102.71186440677965,40,101.69491525423729,40,100.6779661016949,40C99.66101694915254,40,98.64406779661016,40,97.62711864406779,40C96.61016949152543,40,95.59322033898306,40,94.57627118644069,40C93.55932203389831,40,92.54237288135593,40,91.52542372881355,40C90.50847457627118,40,89.49152542372882,40,88.47457627118645,40C87.45762711864407,40,86.4406779661017,40,85.42372881355932,40C84.40677966101696,40,83.38983050847457,40,82.37288135593221,40C81.35593220338983,40,80.33898305084746,40,79.32203389830508,40C78.30508474576271,40,77.28813559322033,40,76.27118644067797,40C75.2542372881356,40,74.23728813559322,40,73.22033898305085,40C72.20338983050848,40,71.1864406779661,40,70.16949152542374,40C69.15254237288136,40,68.13559322033899,40,67.11864406779661,40C66.10169491525424,40,65.08474576271186,40,64.0677966101695,40C63.05084745762712,40,62.03389830508474,40,61.01694915254237,40C59.99999999999999,40,58.983050847457626,40,57.96610169491525,40C56.94915254237288,40,55.93220338983051,40,54.91525423728814,40C53.898305084745765,40,52.88135593220339,40,51.86440677966102,40C50.847457627118644,40,49.83050847457627,40,48.813559322033896,40C47.79661016949152,40,46.77966101694915,40,45.762711864406775,40C44.7457627118644,40,43.728813559322035,40,42.71186440677966,40C41.69491525423729,40,40.67796610169491,40,39.66101694915254,40C38.644067796610166,40,37.6271186440678,40,36.610169491525426,40C35.59322033898305,40,34.57627118644068,40,33.559322033898304,40C32.54237288135593,40,31.525423728813557,40,30.508474576271183,40C29.491525423728813,40,28.47457627118644,40,27.45762711864407,40C26.440677966101696,40,25.423728813559322,40,24.406779661016948,40C23.389830508474574,40,22.372881355932204,40,21.35593220338983,40C20.338983050847457,40,19.322033898305087,40,18.305084745762713,40C17.28813559322034,40,16.271186440677965,40,15.254237288135592,40C14.23728813559322,40,13.220338983050846,40,12.203389830508474,40C11.186440677966102,40,10.169491525423728,40,9.152542372881356,40C8.135593220338983,40,7.11864406779661,40,6.101694915254237,40C5.084745762711864,40,4.067796610169491,40,3.0508474576271185,40C2.0338983050847457,40,1.0169491525423728,40,0,40Z"></path><path class="line" stroke="black" fill="none" d="M0,11.568261999999997C1.0169491525423728,11.553764916666665,2.0338983050847457,11.539267833333332,3.0508474576271185,11.529162C4.067796610169491,11.519056166666667,5.084745762711864,11.521160166666666,6.101694915254237,11.507627C7.11864406779661,11.494093833333332,8.135593220338983,11.466556166666665,9.152542372881356,11.447962999999998C10.169491525423728,11.429369833333332,11.186440677966102,11.413372333333335,12.203389830508474,11.396068000000001C13.220338983050846,11.378763666666668,14.23728813559322,11.361810333333333,15.254237288135592,11.344137C16.271186440677965,11.326463666666665,17.28813559322034,11.3096695,18.305084745762713,11.290028C19.322033898305087,11.2703865,20.338983050847457,11.24252616666667,21.35593220338983,11.226288000000002C22.372881355932204,11.210049833333334,23.389830508474574,11.201508833333332,24.406779661016948,11.192598999999998C25.423728813559322,11.183689166666664,26.440677966101696,11.184546500000002,27.45762711864407,11.172829000000002C28.47457627118644,11.161111500000002,29.491525423728813,11.139748333333333,30.508474576271183,11.122294C31.525423728813557,11.104839666666665,32.54237288135593,11.08634483333333,33.559322033898304,11.068102999999997C34.57627118644068,11.049861166666664,35.59322033898305,11.030552,36.610169491525426,11.012843C37.6271186440678,10.995134,38.644067796610166,10.979435166666665,39.66101694915254,10.961848999999999C40.67796610169491,10.944262833333331,41.69491525423729,10.923022166666666,42.71186440677966,10.907326C43.728813559322035,10.891629833333333,44.7457627118644,10.877876666666669,45.762711864406775,10.867672000000002C46.77966101694915,10.857467333333336,47.79661016949152,10.858926166666667,48.813559322033896,10.846098C49.83050847457627,10.833269833333333,50.847457627118644,10.810369,51.86440677966102,10.790703C52.88135593220339,10.771037000000002,53.898305084745765,10.745234000000002,54.91525423728814,10.728102000000002C55.93220338983051,10.710970000000001,56.94915254237288,10.699361666666666,57.96610169491525,10.687911C58.983050847457626,10.676460333333333,59.99999999999999,10.669781000000002,61.01694915254237,10.659398000000003C62.03389830508474,10.649015000000004,63.05084745762712,10.631655666666667,64.0677966101695,10.625613000000001C65.08474576271186,10.619570333333336,66.10169491525424,10.620330166666669,67.11864406779661,10.616549000000003C68.13559322033899,10.612767833333336,69.15254237288136,10.606595833333333,70.16949152542374,10.602926C71.1864406779661,10.599256166666667,72.20338983050848,10.600127333333333,73.22033898305085,10.594529999999999C74.23728813559322,10.588932666666665,75.2542372881356,10.534670833333333,76.27118644067797,10.505024C77.28813559322033,10.475377166666668,78.30508474576271,10.442880666666664,79.32203389830508,10.416648999999998C80.33898305084746,10.390417333333332,81.35593220338983,10.375939333333335,82.37288135593221,10.347634000000001C83.38983050847457,10.319328666666669,84.40677966101696,10.273524833333333,85.42372881355932,10.246817C86.4406779661017,10.220109166666667,87.45762711864407,10.203490833333335,88.47457627118645,10.187387000000001C89.49152542372882,10.171283166666667,90.50847457627118,10.162507999999999,91.52542372881355,10.150193999999999C92.54237288135593,10.13788,93.55932203389831,10.137963666666666,94.57627118644069,10.113503000000001C95.59322033898306,10.089042333333337,96.61016949152543,10.040673666666665,97.62711864406779,9.999970999999999C98.64406779661016,9.959268333333332,99.66101694915254,9.916237333333333,100.6779661016949,9.869287C101.69491525423729,9.822336666666667,102.71186440677965,9.766307666666666,103.72881355932203,9.718269C104.7457627118644,9.670230333333333,105.76271186440678,9.620023499999999,106.77966101694915,9.581055C107.79661016949153,9.5420865,108.8135593220339,9.5114055,109.83050847457628,9.484458C110.84745762711864,9.4575105,111.86440677966102,9.462762,112.88135593220339,9.419369999999997C113.89830508474576,9.375977999999995,114.91525423728814,9.280400499999997,115.9322033898305,9.223070999999997C116.94915254237289,9.165741499999998,117.96610169491525,9.137253333333332,118.98305084745763,9.075392999999998C120,9.013532666666665,121.01694915254237,8.921403499999998,122.03389830508473,8.851909C123.05084745762711,8.7824145,124.0677966101695,8.729997000000003,125.08474576271188,8.658426000000002C126.10169491525424,8.586855000000002,127.11864406779662,8.4895395,128.135593220339,8.422483C129.15254237288136,8.3554265,130.16949152542372,8.298209833333335,131.1864406779661,8.256087C132.20338983050846,8.213964166666667,133.22033898305085,8.225682833333334,134.23728813559322,8.169746C135.25423728813558,8.113809166666666,136.27118644067798,7.999572833333333,137.28813559322035,7.920465999999999C138.3050847457627,7.841359166666666,139.3220338983051,7.7810915000000005,140.33898305084747,7.695105C141.35593220338984,7.6091185,142.3728813559322,7.489188499999999,143.38983050847457,7.404546999999999C144.40677966101694,7.319905499999998,145.42372881355934,7.2695225,146.4406779661017,7.187256C147.45762711864407,7.1049895,148.47457627118644,6.986528000000002,149.4915254237288,6.910948000000001C150.50847457627117,6.835368000000001,151.52542372881356,6.783556166666665,152.54237288135593,6.733775999999998C153.5593220338983,6.683995833333331,154.5762711864407,6.674713499999998,155.59322033898306,6.612266999999998C156.61016949152543,6.549820499999999,157.6271186440678,6.443865833333333,158.64406779661016,6.359097C159.66101694915253,6.274328166666667,160.67796610169492,6.190707666666667,161.6949152542373,6.103654000000001C162.71186440677965,6.016600333333334,163.72881355932205,5.925941333333332,164.74576271186442,5.8367749999999985C165.76271186440678,5.7476086666666655,166.77966101694915,5.653232333333333,167.79661016949152,5.568656000000001C168.81355932203388,5.484079666666667,169.83050847457628,5.397682833333331,170.84745762711864,5.329316999999998C171.864406779661,5.260951166666665,172.8813559322034,5.2016895000000005,173.89830508474577,5.158461000000001C174.91525423728814,5.115232500000001,175.93220338983053,5.1289560000000005,176.9491525423729,5.069946000000001C177.96610169491527,5.010936000000001,178.98305084745763,4.8803550000000016,180,4.749774000000002"></path><path class="axis-ceiling" stroke-width="1" stroke="black" fill="none" d="M175,0L180,0"></path><text class="axis-ceiling-label" font-family="sans-serif" text-anchor="end" font-size="10px" x="170" y="2.5">40000000</text></g></svg>