<svg xmlns="http://www.w3.org/2000/svg" viewBox="0 0 180 60"><g transform="translate(0,20)"><path class="area" fill="rgba(0, 0, 0, 0.2)" d="M0,28.920714242184165C1.0169491525423728,27.523919800109695,2.0338983050847457,26.127125358035226,3.0508474576271185,26.127125358035226C4.067796610169491,26.127125358035226,5.084745762711864,28.93777804863185,6.101694915254237,28.93777804863185C7.11864406779661,28.93777804863185,8.135593220338983,19.24066061307819,9.152542372881356,19.24066061307819C10.169491525423728,19.24066061307819,11.186440677966102,31.426656103357914,12.203389830508474,31.426656103357914C13.220338983050846,31.426656103357914,14.23728813559322,25.48763889735308,15.254237288135592,25.18861600341276C16.271186440677965,24.889593109472443,17.28813559322034,24.740081662502284,18.305084745762713,24.740081662502284C19.322033898305087,24.740081662502284,20.338983050847457,25.04479249192516,21.35593220338983,25.654214150770915C22.372881355932204,26.26363580961667,23.389830508474574,28.34298250959839,24.406779661016948,28.48924370772137C25.423728813559322,28.635504905844353,26.440677966101696,28.708635504905846,27.45762711864407,28.708635504905846C28.47457627118644,28.708635504905846,29.491525423728813,20.603327442257296,30.508474576271183,20.603327442257296C31.525423728813557,20.603327442257296,32.54237288135593,22.874845105328376,33.559322033898304,24.30861112803949C34.57627118644068,25.742377150750606,35.59322033898305,29.20592357852398,36.610169491525426,29.20592357852398C37.6271186440678,29.20592357852398,38.644067796610166,17.17837771954415,39.66101694915254,17.17837771954415C40.67796610169491,17.17837771954415,41.69491525423729,19.54334003697158,42.71186440677966,20.834907672618684C43.728813559322035,22.126475308265785,44.7457627118644,24.56375566254291,45.762711864406775,24.927783533426776C46.77966101694915,25.291811404310643,47.79661016949152,25.473825339752576,48.813559322033896,25.473825339752576C49.83050847457627,25.473825339752576,50.847457627118644,6.9327807910293116,51.86440677966102,6.9327807910293116C52.88135593220339,6.9327807910293116,53.898305084745765,11.589574826822677,54.91525423728814,14.128831738679995C55.93220338983051,16.668088650537307,56.94915254237288,22.1683222621732,57.96610169491525,22.1683222621732C58.983050847457626,22.1683222621732,59.99999999999999,19.836674995429334,61.01694915254237,18.52398074227558C62.03389830508474,17.21128648912182,63.05084745762712,14.292156743250658,64.0677966101695,14.292156743250658C65.08474576271186,14.292156743250658,66.10169491525424,21.24118877851586,67.11864406779661,23.14095922969102C68.13559322033899,25.04072968086619,69.15254237288136,25.990614906453775,70.16949152542374,25.990614906453775C71.1864406779661,25.990614906453775,72.20338983050848,2.764336644524348,73.22033898305085,2.764336644524348C74.23728813559322,2.764336644524348,75.2542372881356,17.790237065025288,76.27118644067797,17.790237065025288C77.28813559322033,17.790237065025288,78.30508474576271,13.446279480772745,79.32203389830508,13.446279480772745C80.33898305084746,13.446279480772745,81.35593220338983,14.776443821480079,82.37288135593221,15.391553415808396C83.38983050847457,16.00666301013671,84.40677966101696,15.973347959453143,85.42372881355932,17.136937046742638C86.4406779661017,18.30052613403214,87.45762711864407,25.576208178438662,88.47457627118645,25.576208178438662C89.49152542372882,25.576208178438662,90.50847457627118,22.255266418835166,91.52542372881355,19.681881894082515C92.54237288135593,17.10849736932983,93.55932203389831,10.135901029922604,94.57627118644069,10.135901029922604C95.59322033898306,10.135901029922604,96.61016949152543,13.507627927763219,97.62711864406779,14.494484733987445C98.64406779661016,15.481341540211677,99.66101694915254,16.057041867267966,100.6779661016949,16.057041867267966C101.69491525423729,16.057041867267966,102.71186440677965,15.704389867349223,103.72881355932203,15.518313120848317C104.7457627118644,15.332236374347413,105.76271186440678,14.94058138826254,106.77966101694915,14.94058138826254C107.79661016949153,14.94058138826254,108.8135593220339,25.258496353627066,109.83050847457628,25.261746602474247C110.84745762711864,25.264996851321428,111.86440677966102,25.266621975745018,112.88135593220339,25.266621975745018C113.89830508474576,25.266621975745018,114.91525423728814,5.189834846730452,115.9322033898305,5.189834846730452C116.94915254237289,5.189834846730452,117.96610169491525,16.716029821033167,118.98305084745763,20.169419221159117C120,23.622808621285035,121.01694915254237,25.910171247486137,122.03389830508473,25.910171247486137C123.05084745762711,25.910171247486137,124.0677966101695,8.39051739898836,125.08474576271188,8.39051739898836C126.10169491525424,8.39051739898836,127.11864406779662,9.336339813516972,128.135593220339,11.227984642574196C129.15254237288136,13.119629471631411,130.16949152542372,24.376053791618425,131.1864406779661,25.008227192394415C132.20338983050846,25.640400593170412,133.22033898305085,25.95648729355841,134.23728813559322,25.95648729355841C135.25423728813558,25.95648729355841,136.27118644067798,25.435228634692344,137.28813559322035,24.927783533426776C138.3050847457627,24.42033843216121,139.3220338983051,22.911816685965015,140.33898305084747,22.911816685965015C141.35593220338984,22.911816685965015,142.3728813559322,26.522030592967276,143.38983050847457,26.522030592967276C144.40677966101694,26.522030592967276,145.42372881355934,0,146.4406779661017,0C147.45762711864407,0,148.47457627118644,5.725719625408836,149.4915254237288,8.990188311292581C150.50847457627117,12.254656997176358,151.52542372881356,14.418510167184674,152.54237288135593,19.58681211530258C153.5593220338983,24.755114063420482,154.5762711864407,40,155.59322033898306,40C156.61016949152543,40,157.6271186440678,15.937595222134195,158.64406779661016,15.937595222134195C159.66101694915253,15.937595222134195,160.67796610169492,16.542141507709186,161.6949152542373,16.542141507709186C162.71186440677965,16.542141507709186,163.72881355932205,15.315985130111525,164.74576271186442,15.315985130111525C165.76271186440678,15.315985130111525,166.77966101694915,17.729294899140715,167.79661016949152,17.729294899140715C168.81355932203388,17.729294899140715,169.83050847457628,6.086903528551404,170.84745762711864,6.086903528551404C171.864406779661,6.086903528551404,172.8813559322034,19.25528673289049,173.89830508474577,19.25528673289049C174.91525423728814,19.25528673289049,175.93220338983053,15.318422816746908,176.9491525423729,15.318422816746908C177.96610169491527,15.318422816746908,178.98305084745763,22.264610884270827,180,29.210798951794747L180,40C178.98305084745763,40,177.96610169491527,40,176.9491525423729,40C175.93220338983053,40,174.91525423728814,40,173.89830508474577,40C172.8813559322034,40,171.864406779661,40,170.84745762711864,40C169.83050847457628,40,168.81355932203388,40,167.79661016949152,40C166.77966101694915,40,165.76271186440678,40,164.74576271186442,40C163.72881355932205,40,162.71186440677965,40,161.6949152542373,40C160.67796610169492,40,159.66101694915253,40,158.64406779661016,40C157.6271186440678,40,156.61016949152543,40,155.59322033898306,40C154.5762711864407,40,153.5593220338983,40,152.54237288135593,40C151.52542372881356,40,150.50847457627117,40,149.4915254237288,40C148.47457627118644,40,147.45762711864407,40,146.4406779661017,40C145.42372881355934,40,144.40677966101694,40,143.38983050847457,40C142.3728813559322,40,141.35593220338984,40,140.33898305084747,40C139.3220338983051,40,138.3050847457627,40,137.28813559322035,40C136.27118644067798,40,135.25423728813558,40,134.23728813559322,40C133.22033898305085,40,132.20338983050846,40,131.1864406779661,40C130.16949152542372,40,129.15254237288136,40,128.135593220339,40C127.11864406779662,40,126.10169491525424,40,125.08474576271188,40C124.0677966101695,40,123.05084745762711,40,122.03389830508473,40C121.01694915254237,40,120,40,118.98305084745763,40C117.96610169491525,40,116.94915254237289,40,115.9322033898305,40C114.91525423728814,40,113.89830508474576,40,112.88135593220339,40C111.86440677966102,40,110.84745762711864,40,109.83050847457628,40C108.8135593220339,40,107.79661016949153,40,106.77966101694915,40C105.76271186440678,40,104.7457627118644,40,103.72881355932203,40C102.71186440677965,40,101.69491525423729,40,100.6779661016949,40C99.66101694915254,40,98.64406779661016,40,97.62711864406779,40C96.61016949152543,40,95.59322033898306,40,94.57627118644069,40C93.55932203389831,40,92.54237288135593,40,91.52542372881355,40C90.50847457627118,40,89.49152542372882,40,88.47457627118645,40C87.45762711864407,40,86.4406779661017,40,85.42372881355932,40C84.40677966101696,40,83.38983050847457,40,82.37288135593221,40C81.35593220338983,40,80.33898305084746,40,79.32203389830508,40C78.30508474576271,40,77.28813559322033,40,76.27118644067797,40C75.2542372881356,40,74.23728813559322,40,73.22033898305085,40C72.20338983050848,40,71.1864406779661,40,70.16949152542374,40C69.15254237288136,40,68.13559322033899,40,67.11864406779661,40C66.10169491525424,40,65.08474576271186,40,64.0677966101695,40C63.05084745762712,40,62.03389830508474,40,61.01694915254237,40C59.99999999999999,40,58.983050847457626,40,57.96610169491525,40C56.94915254237288,40,55.93220338983051,40,54.91525423728814,40C53.898305084745765,40,52.88135593220339,40,51.86440677966102,40C50.847457627118644,40,49.83050847457627,40,48.813559322033896,40C47.79661016949152,40,46.77966101694915,40,45.762711864406775,40C44.7457627118644,40,43.728813559322035,40,42.71186440677966,40C41.69491525423729,40,40.67796610169491,40,39.66101694915254,40C38.644067796610166,40,37.6271186440678,40,36.610169491525426,40C35.59322033898305,40,34.57627118644068,40,33.559322033898304,40C32.54237288135593,40,31.525423728813557,40,30.508474576271183,40C29.491525423728813,40,28.47457627118644,40,27.45762711864407,40C26.440677966101696,40,25.423728813559322,40,24.406779661016948,40C23.389830508474574,40,22.372881355932204,40,21.35593220338983,40C20.338983050847457,40,19.322033898305087,40,18.305084745762713,40C17.28813559322034,40,16.271186440677965,40,15.254237288135592,40C14.23728813559322,40,13.220338983050846,40,12.203389830508474,40C11.186440677966102,40,10.169491525423728,40,9.152542372881356,40C8.135593220338983,40,7.11864406779661,40,6.101694915254237,40C5.084745762711864,40,4.067796610169491,40,3.0508474576271185,40C2.0338983050847457,40,1.0169491525423728,40,0,40Z"></path><path class="line" stroke="black" fill="none" d="M0,28.920714242184165C1.0169491525423728,27.523919800109695,2.0338983050847457,26.127125358035226,3.0508474576271185,26.127125358035226C4.067796610169491,26.127125358035226,5.084745762711864,28.93777804863185,6.101694915254237,28.93777804863185C7.11864406779661,28.93777804863185,8.135593220338983,19.24066061307819,9.152542372881356,19.24066061307819C10.169491525423728,19.24066061307819,11.186440677966102,31.426656103357914,12.203389830508474,31.426656103357914C13.220338983050846,31.426656103357914,14.23728813559322,25.48763889735308,15.254237288135592,25.18861600341276C16.271186440677965,24.889593109472443,17.28813559322034,24.740081662502284,18.305084745762713,24.740081662502284C19.322033898305087,24.740081662502284,20.338983050847457,25.04479249192516,21.35593220338983,25.654214150770915C22.372881355932204,26.26363580961667,23.389830508474574,28.34298250959839,24.406779661016948,28.48924370772137C25.423728813559322,28.635504905844353,26.440677966101696,28.708635504905846,27.45762711864407,28.708635504905846C28.47457627118644,28.708635504905846,29.491525423728813,20.603327442257296,30.508474576271183,20.603327442257296C31.525423728813557,20.603327442257296,32.54237288135593,22.874845105328376,33.559322033898304,24.30861112803949C34.57627118644068,25.742377150750606,35.59322033898305,29.20592357852398,36.610169491525426,29.20592357852398C37.6271186440678,29.20592357852398,38.644067796610166,17.17837771954415,39.66101694915254,17.17837771954415C40.67796610169491,17.17837771954415,41.69491525423729,19.54334003697158,42.71186440677966,20.834907672618684C43.728813559322035,22.126475308265785,44.7457627118644,24.56375566254291,45.762711864406775,24.927783533426776C46.77966101694915,25.291811404310643,47.79661016949152,25.473825339752576,48.813559322033896,25.473825339752576C49.83050847457627,25.473825339752576,50.847457627118644,6.9327807910293116,51.86440677966102,6.9327807910293116C52.88135593220339,6.9327807910293116,53.898305084745765,11.589574826822677,54.91525423728814,14.128831738679995C55.93220338983051,16.668088650537307,56.94915254237288,22.1683222621732,57.96610169491525,22.1683222621732C58.983050847457626,22.1683222621732,59.99999999999999,19.836674995429334,61.01694915254237,18.52398074227558C62.03389830508474,17.21128648912182,63.05084745762712,14.292156743250658,64.0677966101695,14.292156743250658C65.08474576271186,14.292156743250658,66.10169491525424,21.24118877851586,67.11864406779661,23.14095922969102C68.13559322033899,25.04072968086619,69.15254237288136,25.990614906453775,70.16949152542374,25.990614906453775C71.1864406779661,25.990614906453775,72.20338983050848,2.764336644524348,73.22033898305085,2.764336644524348C74.23728813559322,2.764336644524348,75.2542372881356,17.790237065025288,76.27118644067797,17.790237065025288C77.28813559322033,17.790237065025288,78.30508474576271,13.446279480772745,79.32203389830508,13.446279480772745C80.33898305084746,13.446279480772745,81.35593220338983,14.776443821480079,82.37288135593221,15.391553415808396C83.38983050847457,16.00666301013671,84.40677966101696,15.973347959453143,85.42372881355932,17.136937046742638C86.4406779661017,18.30052613403214,87.45762711864407,25.576208178438662,88.47457627118645,25.576208178438662C89.49152542372882,25.576208178438662,90.50847457627118,22.255266418835166,91.52542372881355,19.681881894082515C92.54237288135593,17.10849736932983,93.55932203389831,10.135901029922604,94.57627118644069,10.135901029922604C95.59322033898306,10.135901029922604,96.61016949152543,13.507627927763219,97.62711864406779,14.494484733987445C98.64406779661016,15.481341540211677,99.66101694915254,16.057041867267966,100.6779661016949,16.057041867267966C101.69491525423729,16.057041867267966,102.71186440677965,15.704389867349223,103.72881355932203,15.518313120848317C104.7457627118644,15.332236374347413,105.76271186440678,14.94058138826254,106.77966101694915,14.94058138826254C107.79661016949153,14.94058138826254,108.8135593220339,25.258496353627066,109.83050847457628,25.261746602474247C110.84745762711864,25.264996851321428,111.86440677966102,25.266621975745018,112.88135593220339,25.266621975745018C113.89830508474576,25.266621975745018,114.91525423728814,5.189834846730452,115.9322033898305,5.189834846730452C116.94915254237289,5.189834846730452,117.96610169491525,16.716029821033167,118.98305084745763,20.169419221159117C120,23.622808621285035,121.01694915254237,25.910171247486137,122.03389830508473,25.910171247486137C123.05084745762711,25.910171247486137,124.0677966101695,8.39051739898836,125.08474576271188,8.39051739898836C126.10169491525424,8.39051739898836,127.11864406779662,9.336339813516972,128.135593220339,11.227984642574196C129.15254237288136,13.119629471631411,130.16949152542372,24.376053791618425,131.1864406779661,25.008227192394415C132.20338983050846,25.640400593170412,133.22033898305085,25.95648729355841,134.23728813559322,25.95648729355841C135.25423728813558,25.95648729355841,136.27118644067798,25.435228634692344,137.28813559322035,24.927783533426776C138.3050847457627,24.42033843216121,139.3220338983051,22.911816685965015,140.33898305084747,22.911816685965015C141.35593220338984,22.911816685965015,142.3728813559322,26.522030592967276,143.38983050847457,26.522030592967276C144.40677966101694,26.522030592967276,145.42372881355934,0,146.4406779661017,0C147.45762711864407,0,148.47457627118644,5.725719625408836,149.4915254237288,8.990188311292581C150.50847457627117,12.254656997176358,151.52542372881356,14.418510167184674,152.54237288135593,19.58681211530258C153.5593220338983,24.755114063420482,154.5762711864407,40,155.59322033898306,40C156.61016949152543,40,157.6271186440678,15.937595222134195,158.64406779661016,15.937595222134195C159.66101694915253,15.937595222134195,160.67796610169492,16.542141507709186,161.6949152542373,16.542141507709186C162.71186440677965,16.542141507709186,163.72881355932205,15.315985130111525,164.74576271186442,15.315985130111525C165.76271186440678,15.315985130111525,166.77966101694915,17.729294899140715,167.79661016949152,17.729294899140715C168.81355932203388,17.729294899140715,169.83050847457628,6.086903528551404,170.84745762711864,6.086903528551404C171.864406779661,6.086903528551404,172.8813559322034,19.25528673289049,173.89830508474577,19.25528673289049C174.91525423728814,19.25528673289049,175.93220338983053,15.318422816746908,176.9491525423729,15.318422816746908C177.96610169491527,15.318422816746908,178.98305084745763,22.264610884270827,180,29.210798951794747"></path><path class="axis-ceiling" stroke-width="1" stroke="black" fill="none" d="M175,-8.743981961118896L180,-8.743981961118896"></path><text class="axis-ceiling-label" font-family="sans-serif" text-anchor="end" font-size="10px" x="170" y="-6.243981961118896">15570</text></g></svg>