<svg xmlns="http://www.w3.org/2000/svg" viewBox="0 0 180 60"><g transform="translate(0,20)"><path class="area" fill="rgba(0, 0, 0, 0.2)" d="M0,28.632640000000002C1.0169491525423728,28.347120000000004,2.0338983050847457,28.061600000000002,3.0508474576271185,28.061600000000002C4.067796610169491,28.061600000000002,5.084745762711864,33.15984,6.101694915254237,33.15984C7.11864406779661,33.15984,8.135593220338983,31.303520000000002,9.152542372881356,31.303520000000002C10.169491525423728,31.303520000000002,11.186440677966102,33.37376,12.203389830508474,34.26976C13.220338983050846,35.16576,14.23728813559322,36.679520000000004,15.254237288135592,36.679520000000004C16.271186440677965,36.679520000000004,17.28813559322034,24.1352,18.305084745762713,24.1352C19.322033898305087,24.1352,20.338983050847457,24.42645333333333,21.35593220338983,24.683999999999997C22.372881355932204,24.941546666666664,23.389830508474574,25.680480000000003,24.406779661016948,25.680480000000003C25.423728813559322,25.680480000000003,26.440677966101696,25.25104,27.45762711864407,25.2504C28.47457627118644,25.24976,29.491525423728813,25.24944,30.508474576271183,25.24944C31.525423728813557,25.24944,32.54237288135593,25.321493333333333,33.559322033898304,25.4656C34.57627118644068,25.609706666666664,35.59322033898305,33.63056,36.610169491525426,33.63056C37.6271186440678,33.63056,38.644067796610166,22.469920000000002,39.66101694915254,22.469920000000002C40.67796610169491,22.469920000000002,41.69491525423729,26.24928,42.71186440677966,26.24928C43.728813559322035,26.24928,44.7457627118644,24.307466666666667,45.762711864406775,23.460160000000002C46.77966101694915,22.612853333333334,47.79661016949152,21.165440000000004,48.813559322033896,21.165440000000004C49.83050847457627,21.165440000000004,50.847457627118644,21.282613333333337,51.86440677966102,21.516960000000005C52.88135593220339,21.75130666666667,53.898305084745765,26.18437333333333,54.91525423728814,28.078399999999995C55.93220338983051,29.972426666666657,56.94915254237288,31.747999999999994,57.96610169491525,32.881119999999996C58.983050847457626,34.01424,59.99999999999999,34.877120000000005,61.01694915254237,34.877120000000005C62.03389830508474,34.877120000000005,63.05084745762712,19.494613333333334,64.0677966101695,19.28064C65.08474576271186,19.066666666666666,66.10169491525424,18.95968,67.11864406779661,18.95968C68.13559322033899,18.95968,69.15254237288136,21.867200000000004,70.16949152542374,21.867200000000004C71.1864406779661,21.867200000000004,72.20338983050848,18.025280000000002,73.22033898305085,18.025280000000002C74.23728813559322,18.025280000000002,75.2542372881356,24.627893333333336,76.27118644067797,26.551840000000002C77.28813559322033,28.475786666666668,78.30508474576271,29.56896,79.32203389830508,29.56896C80.33898305084746,29.56896,81.35593220338983,24.174186666666674,82.37288135593221,22.79744C83.38983050847457,21.420693333333336,84.40677966101696,21.450106666666667,85.42372881355932,20.73232C86.4406779661017,20.014533333333333,87.45762711864407,19.985120000000002,88.47457627118645,18.49072C89.49152542372882,16.99632000000001,90.50847457627118,2.2217600000000015,91.52542372881355,2.2217600000000015C92.54237288135593,2.2217600000000015,93.55932203389831,34.66192,94.57627118644069,34.66192C95.59322033898306,34.66192,96.61016949152543,21.15424,97.62711864406779,21.15424C98.64406779661016,21.15424,99.66101694915254,30.5648,100.6779661016949,30.5648C101.69491525423729,30.5648,102.71186440677965,20.899146666666667,103.72881355932203,18.08752C104.7457627118644,15.275893333333347,105.76271186440678,13.69504,106.77966101694915,13.69504C107.79661016949153,13.69504,108.8135593220339,16.3984,109.83050847457628,16.3984C110.84745762711864,16.3984,111.86440677966102,16.378453333333333,112.88135593220339,16.33856C113.89830508474576,16.29866666666667,114.91525423728814,11.723040000000001,115.9322033898305,11.723040000000001C116.94915254237289,11.723040000000001,117.96610169491525,21.21661333333333,118.98305084745763,24.09008C120,26.96354666666664,121.01694915254237,28.963840000000005,122.03389830508473,28.963840000000005C123.05084745762711,28.963840000000005,124.0677966101695,14.388640000000002,125.08474576271188,14.388640000000002C126.10169491525424,14.388640000000002,127.11864406779662,21.24736,128.135593220339,21.24736C129.15254237288136,21.24736,130.16949152542372,15.807039999999999,131.1864406779661,15.807039999999999C132.20338983050846,15.807039999999999,133.22033898305085,20.11424,134.23728813559322,20.11424C135.25423728813558,20.11424,136.27118644067798,7.463359999999999,137.28813559322035,7.463359999999999C138.3050847457627,7.463359999999999,139.3220338983051,23.084746666666643,140.33898305084747,25.51728C141.35593220338984,27.949813333333335,142.3728813559322,29.16608,143.38983050847457,29.16608C144.40677966101694,29.16608,145.42372881355934,18.94976,146.4406779661017,18.94976C147.45762711864407,18.94976,148.47457627118644,21.058719999999997,149.4915254237288,21.058719999999997C150.50847457627117,21.058719999999997,151.52542372881356,18.276159999999997,152.54237288135593,18.276159999999997C153.5593220338983,18.276159999999997,154.5762711864407,20.3056,155.59322033898306,20.3056C156.61016949152543,20.3056,157.6271186440678,16.3176,158.64406779661016,16.3176C159.66101694915253,16.3176,160.67796610169492,24.352079999999997,161.6949152542373,27.06816C162.71186440677965,29.78424,163.72881355932205,32.61408,164.74576271186442,32.61408C165.76271186440678,32.61408,166.77966101694915,20.46272,167.79661016949152,20.46272C168.81355932203388,20.46272,169.83050847457628,23.754400000000004,170.84745762711864,23.754400000000004C171.864406779661,23.754400000000004,172.8813559322034,22.57568,173.89830508474577,22.57568C174.91525423728814,22.57568,175.93220338983053,24.1168,176.9491525423729,24.1168C177.96610169491527,24.1168,178.98305084745763,18.357200000000002,180,12.5976L180,40C178.98305084745763,40,177.96610169491527,40,176.9491525423729,40C175.93220338983053,40,174.91525423728814,40,173.89830508474577,40C172.8813559322034,40,171.864406779661,40,170.84745762711864,40C169.83050847457628,40,168.81355932203388,40,167.79661016949152,40C166.77966101694915,40,165.76271186440678,40,164.74576271186442,40C163.72881355932205,40,162.71186440677965,40,161.6949152542373,40C160.67796610169492,40,159.66101694915253,40,158.64406779661016,40C157.6271186440678,40,156.61016949152543,40,155.59322033898306,40C154.5762711864407,40,153.5593220338983,40,152.54237288135593,40C151.52542372881356,40,150.50847457627117,40,149.4915254237288,40C148.47457627118644,40,147.45762711864407,40,146.4406779661017,40C145.42372881355934,40,144.40677966101694,40,143.38983050847457,40C142.3728813559322,40,141.35593220338984,40,140.33898305084747,40C139.3220338983051,40,138.3050847457627,40,137.28813559322035,40C136.27118644067798,40,135.25423728813558,40,134.23728813559322,40C133.22033898305085,40,132.20338983050846,40,131.1864406779661,40C130.16949152542372,40,129.15254237288136,40,128.135593220339,40C127.11864406779662,40,126.10169491525424,40,125.08474576271188,40C124.0677966101695,40,123.05084745762711,40,122.03389830508473,40C121.01694915254237,40,120,40,118.98305084745763,40C117.96610169491525,40,116.94915254237289,40,115.9322033898305,40C114.91525423728814,40,113.89830508474576,40,112.88135593220339,40C111.86440677966102,40,110.84745762711864,40,109.83050847457628,40C108.8135593220339,40,107.79661016949153,40,106.77966101694915,40C105.76271186440678,40,104.7457627118644,40,103.72881355932203,40C102.71186440677965,40,101.69491525423729,40,100.6779661016949,40C99.66101694915254,40,98.64406779661016,40,97.62711864406779,40C96.61016949152543,40,95.59322033898306,40,94.57627118644069,40C93.55932203389831,40,92.54237288135593,40,91.52542372881355,40C90.50847457627118,40,89.49152542372882,40,88.47457627118645,40C87.45762711864407,40,86.4406779661017,40,85.42372881355932,40C84.40677966101696,40,83.38983050847457,40,82.37288135593221,40C81.35593220338983,40,80.33898305084746,40,79.32203389830508,40C78.30508474576271,40,77.28813559322033,40,76.27118644067797,40C75.2542372881356,40,74.23728813559322,40,73.22033898305085,40C72.20338983050848,40,71.1864406779661,40,70.16949152542374,40C69.15254237288136,40,68.13559322033899,40,67.11864406779661,40C66.10169491525424,40,65.08474576271186,40,64.0677966101695,40C63.05084745762712,40,62.03389830508474,40,61.01694915254237,40C59.99999999999999,40,58.983050847457626,40,57.96610169491525,40C56.94915254237288,40,55.93220338983051,40,54.91525423728814,40C53.898305084745765,40,52.88135593220339,40,51.86440677966102,40C50.847457627118644,40,49.83050847457627,40,48.813559322033896,40C47.79661016949152,40,46.77966101694915,40,45.762711864406775,40C44.7457627118644,40,43.728813559322035,40,42.71186440677966,40C41.69491525423729,40,40.67796610169491,40,39.66101694915254,40C38.644067796610166,40,37.6271186440678,40,36.610169491525426,40C35.59322033898305,40,34.57627118644068,40,33.559322033898304,40C32.54237288135593,40,31.525423728813557,40,30.508474576271183,40C29.491525423728813,40,28.47457627118644,40,27.45762711864407,40C26.440677966101696,40,25.423728813559322,40,24.406779661016948,40C23.389830508474574,40,22.372881355932204,40,21.35593220338983,40C20.338983050847457,40,19.322033898305087,40,18.305084745762713,40C17.28813559322034,40,16.271186440677965,40,15.254237288135592,40C14.23728813559322,40,13.220338983050846,40,12.203389830508474,40C11.186440677966102,40,10.169491525423728,40,9.152542372881356,40C8.135593220338983,40,7.11864406779661,40,6.101694915254237,40C5.084745762711864,40,4.067796610169491,40,3.0508474576271185,40C2.0338983050847457,40,1.0169491525423728,40,0,40Z"></path><path class="line" stroke="black" fill="none" d="M0,28.632640000000002C1.0169491525423728,28.347120000000004,2.0338983050847457,28.061600000000002,3.0508474576271185,28.061600000000002C4.067796610169491,28.061600000000002,5.084745762711864,33.15984,6.101694915254237,33.15984C7.11864406779661,33.15984,8.135593220338983,31.303520000000002,9.152542372881356,31.303520000000002C10.169491525423728,31.303520000000002,11.186440677966102,33.37376,12.203389830508474,34.26976C13.220338983050846,35.16576,14.23728813559322,36.679520000000004,15.254237288135592,36.679520000000004C16.271186440677965,36.679520000000004,17.28813559322034,24.1352,18.305084745762713,24.1352C19.322033898305087,24.1352,20.338983050847457,24.42645333333333,21.35593220338983,24.683999999999997C22.372881355932204,24.941546666666664,23.389830508474574,25.680480000000003,24.406779661016948,25.680480000000003C25.423728813559322,25.680480000000003,26.440677966101696,25.25104,27.45762711864407,25.2504C28.47457627118644,25.24976,29.491525423728813,25.24944,30.508474576271183,25.24944C31.525423728813557,25.24944,32.54237288135593,25.321493333333333,33.559322033898304,25.4656C34.57627118644068,25.609706666666664,35.59322033898305,33.63056,36.610169491525426,33.63056C37.6271186440678,33.63056,38.644067796610166,22.469920000000002,39.66101694915254,22.469920000000002C40.67796610169491,22.469920000000002,41.69491525423729,26.24928,42.71186440677966,26.24928C43.728813559322035,26.24928,44.7457627118644,24.307466666666667,45.762711864406775,23.460160000000002C46.77966101694915,22.612853333333334,47.79661016949152,21.165440000000004,48.813559322033896,21.165440000000004C49.83050847457627,21.165440000000004,50.847457627118644,21.282613333333337,51.86440677966102,21.516960000000005C52.88135593220339,21.75130666666667,53.898305084745765,26.18437333333333,54.91525423728814,28.078399999999995C55.93220338983051,29.972426666666657,56.94915254237288,31.747999999999994,57.96610169491525,32.881119999999996C58.983050847457626,34.01424,59.99999999999999,34.877120000000005,61.01694915254237,34.877120000000005C62.03389830508474,34.877120000000005,63.05084745762712,19.494613333333334,64.0677966101695,19.28064C65.08474576271186,19.066666666666666,66.10169491525424,18.95968,67.11864406779661,18.95968C68.13559322033899,18.95968,69.15254237288136,21.867200000000004,70.16949152542374,21.867200000000004C71.1864406779661,21.867200000000004,72.20338983050848,18.025280000000002,73.22033898305085,18.025280000000002C74.23728813559322,18.025280000000002,75.2542372881356,24.627893333333336,76.27118644067797,26.551840000000002C77.28813559322033,28.475786666666668,78.30508474576271,29.56896,79.32203389830508,29.56896C80.33898305084746,29.56896,81.35593220338983,24.174186666666674,82.37288135593221,22.79744C83.38983050847457,21.420693333333336,84.40677966101696,21.450106666666667,85.42372881355932,20.73232C86.4406779661017,20.014533333333333,87.45762711864407,19.985120000000002,88.47457627118645,18.49072C89.49152542372882,16.99632000000001,90.50847457627118,2.2217600000000015,91.52542372881355,2.2217600000000015C92.54237288135593,2.2217600000000015,93.55932203389831,34.66192,94.57627118644069,34.66192C95.59322033898306,34.66192,96.61016949152543,21.15424,97.62711864406779,21.15424C98.64406779661016,21.15424,99.66101694915254,30.5648,100.6779661016949,30.5648C101.69491525423729,30.5648,102.71186440677965,20.899146666666667,103.72881355932203,18.08752C104.7457627118644,15.275893333333347,105.76271186440678,13.69504,106.77966101694915,13.69504C107.79661016949153,13.69504,108.8135593220339,16.3984,109.83050847457628,16.3984C110.84745762711864,16.3984,111.86440677966102,16.378453333333333,112.88135593220339,16.33856C113.89830508474576,16.29866666666667,114.91525423728814,11.723040000000001,115.9322033898305,11.723040000000001C116.94915254237289,11.723040000000001,117.96610169491525,21.21661333333333,118.98305084745763,24.09008C120,26.96354666666664,121.01694915254237,28.963840000000005,122.03389830508473,28.963840000000005C123.05084745762711,28.963840000000005,124.0677966101695,14.388640000000002,125.08474576271188,14.388640000000002C126.10169491525424,14.388640000000002,127.11864406779662,21.24736,128.135593220339,21.24736C129.15254237288136,21.24736,130.16949152542372,15.807039999999999,131.1864406779661,15.807039999999999C132.20338983050846,15.807039999999999,133.22033898305085,20.11424,134.23728813559322,20.11424C135.25423728813558,20.11424,136.27118644067798,7.463359999999999,137.28813559322035,7.463359999999999C138.3050847457627,7.463359999999999,139.3220338983051,23.084746666666643,140.33898305084747,25.51728C141.35593220338984,27.949813333333335,142.3728813559322,29.16608,143.38983050847457,29.16608C144.40677966101694,29.16608,145.42372881355934,18.94976,146.4406779661017,18.94976C147.45762711864407,18.94976,148.47457627118644,21.058719999999997,149.4915254237288,21.058719999999997C150.50847457627117,21.058719999999997,151.52542372881356,18.276159999999997,152.54237288135593,18.276159999999997C153.5593220338983,18.276159999999997,154.5762711864407,20.3056,155.59322033898306,20.3056C156.61016949152543,20.3056,157.6271186440678,16.3176,158.64406779661016,16.3176C159.66101694915253,16.3176,160.67796610169492,24.352079999999997,161.6949152542373,27.06816C162.71186440677965,29.78424,163.72881355932205,32.61408,164.74576271186442,32.61408C165.76271186440678,32.61408,166.77966101694915,20.46272,167.79661016949152,20.46272C168.81355932203388,20.46272,169.83050847457628,23.754400000000004,170.84745762711864,23.754400000000004C171.864406779661,23.754400000000004,172.8813559322034,22.57568,173.89830508474577,22.57568C174.91525423728814,22.57568,175.93220338983053,24.1168,176.9491525423729,24.1168C177.96610169491527,24.1168,178.98305084745763,18.357200000000002,180,12.5976"></path><path class="axis-ceiling" stroke-width="1" stroke="black" fill="none" d="M175,0L180,0"></path><text class="axis-ceiling-label" font-family="sans-serif" text-anchor="end" font-size="10px" x="170" y="2.5">250000</text></g></svg>