<svg xmlns="http://www.w3.org/2000/svg" viewBox="0 0 180 60"><g transform="translate(0,20)"><path class="area" fill="rgba(0, 0, 0, 0.2)" d="M0,18.18801142857143C1.0169491525423728,18.133826666666664,2.0338983050847457,18.0796419047619,3.0508474576271185,17.984434285714283C4.067796610169491,17.889226666666666,5.084745762711864,17.737310476190476,6.101694915254237,17.616765714285716C7.11864406779661,17.496220952380956,8.135593220338983,17.379495238095238,9.152542372881356,17.261165714285713C10.169491525423728,17.14283619047619,11.186440677966102,17.02333714285714,12.203389830508474,16.90678857142857C13.220338983050846,16.79024,14.23728813559322,16.677830476190476,15.254237288135592,16.561874285714286C16.271186440677965,16.445918095238095,17.28813559322034,16.328041904761907,18.305084745762713,16.21105142857143C19.322033898305087,16.094060952380953,20.338983050847457,15.977472380952381,21.35593220338983,15.859931428571429C22.372881355932204,15.742390476190476,23.389830508474574,15.601224761904765,24.406779661016948,15.505805714285717C25.423728813559322,15.41038666666667,26.440677966101696,15.360731428571428,27.45762711864407,15.287417142857143C28.47457627118644,15.214102857142857,29.491525423728813,15.140638095238094,30.508474576271183,15.065919999999998C31.525423728813557,14.991201904761903,32.54237288135593,14.913912380952379,33.559322033898304,14.83910857142857C34.57627118644068,14.76430476190476,35.59322033898305,14.690266666666668,36.610169491525426,14.617097142857144C37.6271186440678,14.54392761904762,38.644067796610166,14.472449523809525,39.66101694915254,14.400091428571429C40.67796610169491,14.327733333333333,41.69491525423729,14.255649523809524,42.71186440677966,14.182948571428572C43.728813559322035,14.11024761904762,44.7457627118644,14.036744761904764,45.762711864406775,13.963885714285716C46.77966101694915,13.891026666666669,47.79661016949152,13.818685714285717,48.813559322033896,13.745794285714288C49.83050847457627,13.672902857142859,50.847457627118644,13.599468571428572,51.86440677966102,13.526537142857142C52.88135593220339,13.453605714285713,53.898305084745765,13.381321904761903,54.91525423728814,13.308205714285712C55.93220338983051,13.235089523809522,56.94915254237288,13.161198095238097,57.96610169491525,13.087840000000002C58.983050847457626,13.014481904761906,59.99999999999999,12.941453333333333,61.01694915254237,12.868057142857143C62.03389830508474,12.794660952380953,63.05084745762712,12.720828571428571,64.0677966101695,12.647462857142857C65.08474576271186,12.574097142857143,66.10169491525424,12.499906666666666,67.11864406779661,12.427862857142857C68.13559322033899,12.355819047619047,69.15254237288136,12.286144761904762,70.16949152542374,12.2152C71.1864406779661,12.144255238095237,72.20338983050848,12.074040000000002,73.22033898305085,12.002194285714287C74.23728813559322,11.930348571428572,75.2542372881356,11.85752380952381,76.27118644067797,11.784125714285715C77.28813559322033,11.710727619047619,78.30508474576271,11.636906666666667,79.32203389830508,11.561805714285715C80.33898305084746,11.486704761904763,81.35593220338983,11.409746666666667,82.37288135593221,11.33352C83.38983050847457,11.257293333333333,84.40677966101696,11.180906666666665,85.42372881355932,11.104445714285713C86.4406779661017,11.027984761904762,87.45762711864407,10.95415619047619,88.47457627118645,10.874754285714285C89.49152542372882,10.795352380952382,90.50847457627118,10.71056761904762,91.52542372881355,10.628034285714287C92.54237288135593,10.545500952380953,93.55932203389831,10.461700952380955,94.57627118644069,10.379554285714288C95.59322033898306,10.297407619047622,96.61016949152543,10.216419047619048,97.62711864406779,10.135154285714286C98.64406779661016,10.053889523809524,99.66101694915254,9.972718095238095,100.6779661016949,9.891965714285714C101.69491525423729,9.811213333333333,102.71186440677965,9.731422857142856,103.72881355932203,9.65064C104.7457627118644,9.569857142857142,105.76271186440678,9.488441904761906,106.77966101694915,9.407268571428574C107.79661016949153,9.32609523809524,108.8135593220339,9.239718095238096,109.83050847457628,9.1636C110.84745762711864,9.087481904761905,111.86440677966102,9.021158095238095,112.88135593220339,8.95056C113.89830508474576,8.879961904761904,114.91525423728814,8.812386666666665,115.9322033898305,8.740011428571428C116.94915254237289,8.66763619047619,117.96610169491525,8.591740952380954,118.98305084745763,8.516308571428572C120,8.440876190476192,121.01694915254237,8.363727619047616,122.03389830508473,8.28741714285714C123.05084745762711,8.211106666666664,124.0677966101695,8.134866666666667,125.08474576271188,8.058445714285716C126.10169491525424,7.982024761904764,127.11864406779662,7.906055238095239,128.135593220339,7.8288914285714295C129.15254237288136,7.75172761904762,130.16949152542372,7.678030476190477,131.1864406779661,7.595462857142858C132.20338983050846,7.512895238095239,133.22033898305085,7.423960000000001,134.23728813559322,7.333485714285715C135.25423728813558,7.243011428571428,136.27118644067798,7.146335238095238,137.28813559322035,7.052617142857143C138.3050847457627,6.958899047619047,139.3220338983051,6.8643352380952365,140.33898305084747,6.771177142857141C141.35593220338984,6.678019047619046,142.3728813559322,6.587205714285714,143.38983050847457,6.4936685714285725C144.40677966101694,6.40013142857143,145.42372881355934,6.304805714285717,146.4406779661017,6.2099542857142875C147.45762711864407,6.115102857142859,148.47457627118644,6.020908571428571,149.4915254237288,5.924559999999999C150.50847457627117,5.828211428571426,151.52542372881356,5.730169523809521,152.54237288135593,5.631862857142855C153.5593220338983,5.533556190476189,154.5762711864407,5.4340647619047635,155.59322033898306,5.334720000000002C156.61016949152543,5.235375238095241,157.6271186440678,5.137626666666669,158.64406779661016,5.035794285714288C159.66101694915253,4.933961904761906,160.67796610169492,4.83269523809524,161.6949152542373,4.723725714285716C162.71186440677965,4.614756190476192,163.72881355932205,4.498036190476192,164.74576271186442,4.381977142857143C165.76271186440678,4.265918095238096,166.77966101694915,4.148712380952379,167.79661016949152,4.027371428571427C168.81355932203388,3.9060304761904736,169.83050847457628,3.772939047619045,170.84745762711864,3.6539314285714264C171.864406779661,3.5349238095238076,172.8813559322034,3.4312723809523793,173.89830508474577,3.313325714285713C174.91525423728814,3.195379047619047,175.93220338983053,3.0703961904761914,176.9491525423729,2.946251428571429C177.96610169491527,2.8221066666666683,178.98305084745763,2.695281904761906,180,2.5684571428571434L180,40C178.98305084745763,40,177.96610169491527,40,176.9491525423729,40C175.93220338983053,40,174.91525423728814,40,173.89830508474577,40C172.8813559322034,40,171.864406779661,40,170.84745762711864,40C169.83050847457628,40,168.81355932203388,40,167.79661016949152,40C166.77966101694915,40,165.76271186440678,40,164.74576271186442,40C163.72881355932205,40,162.71186440677965,40,161.6949152542373,40C160.67796610169492,40,159.66101694915253,40,158.64406779661016,40C157.6271186440678,40,156.61016949152543,40,155.59322033898306,40C154.5762711864407,40,153.5593220338983,40,152.54237288135593,40C151.52542372881356,40,150.50847457627117,40,149.4915254237288,40C148.47457627118644,40,147.45762711864407,40,146.4406779661017,40C145.42372881355934,40,144.40677966101694,40,143.38983050847457,40C142.3728813559322,40,141.35593220338984,40,140.33898305084747,40C139.3220338983051,40,138.3050847457627,40,137.28813559322035,40C136.27118644067798,40,135.25423728813558,40,134.23728813559322,40C133.22033898305085,40,132.20338983050846,40,131.1864406779661,40C130.16949152542372,40,129.15254237288136,40,128.135593220339,40C127.11864406779662,40,126.10169491525424,40,125.08474576271188,40C124.0677966101695,40,123.05084745762711,40,122.03389830508473,40C121.01694915254237,40,120,40,118.98305084745763,40C117.96610169491525,40,116.94915254237289,40,115.9322033898305,40C114.91525423728814,40,113.89830508474576,40,112.88135593220339,40C111.86440677966102,40,110.84745762711864,40,109.83050847457628,40C108.8135593220339,40,107.79661016949153,40,106.77966101694915,40C105.76271186440678,40,104.7457627118644,40,103.72881355932203,40C102.71186440677965,40,101.69491525423729,40,100.6779661016949,40C99.66101694915254,40,98.64406779661016,40,97.62711864406779,40C96.61016949152543,40,95.59322033898306,40,94.57627118644069,40C93.55932203389831,40,92.54237288135593,40,91.52542372881355,40C90.50847457627118,40,89.49152542372882,40,88.47457627118645,40C87.45762711864407,40,86.4406779661017,40,85.42372881355932,40C84.40677966101696,40,83.38983050847457,40,82.37288135593221,40C81.35593220338983,40,80.33898305084746,40,79.32203389830508,40C78.30508474576271,40,77.28813559322033,40,76.27118644067797,40C75.2542372881356,40,74.23728813559322,40,73.22033898305085,40C72.20338983050848,40,71.1864406779661,40,70.16949152542374,40C69.15254237288136,40,68.13559322033899,40,67.11864406779661,40C66.10169491525424,40,65.08474576271186,40,64.0677966101695,40C63.05084745762712,40,62.03389830508474,40,61.01694915254237,40C59.99999999999999,40,58.983050847457626,40,57.96610169491525,40C56.94915254237288,40,55.93220338983051,40,54.91525423728814,40C53.898305084745765,40,52.88135593220339,40,51.86440677966102,40C50.847457627118644,40,49.83050847457627,40,48.813559322033896,40C47.79661016949152,40,46.77966101694915,40,45.762711864406775,40C44.7457627118644,40,43.728813559322035,40,42.71186440677966,40C41.69491525423729,40,40.67796610169491,40,39.66101694915254,40C38.644067796610166,40,37.6271186440678,40,36.610169491525426,40C35.59322033898305,40,34.57627118644068,40,33.559322033898304,40C32.54237288135593,40,31.525423728813557,40,30.508474576271183,40C29.491525423728813,40,28.47457627118644,40,27.45762711864407,40C26.440677966101696,40,25.423728813559322,40,24.406779661016948,40C23.389830508474574,40,22.372881355932204,40,21.35593220338983,40C20.338983050847457,40,19.322033898305087,40,18.305084745762713,40C17.28813559322034,40,16.271186440677965,40,15.254237288135592,40C14.23728813559322,40,13.220338983050846,40,12.203389830508474,40C11.186440677966102,40,10.169491525423728,40,9.152542372881356,40C8.135593220338983,40,7.11864406779661,40,6.101694915254237,40C5.084745762711864,40,4.067796610169491,40,3.0508474576271185,40C2.0338983050847457,40,1.0169491525423728,40,0,40Z"></path><path class="line" stroke="black" fill="none" d="M0,18.18801142857143C1.0169491525423728,18.133826666666664,2.0338983050847457,18.0796419047619,3.0508474576271185,17.984434285714283C4.067796610169491,17.889226666666666,5.084745762711864,17.737310476190476,6.101694915254237,17.616765714285716C7.11864406779661,17.496220952380956,8.135593220338983,17.379495238095238,9.152542372881356,17.261165714285713C10.169491525423728,17.14283619047619,11.186440677966102,17.02333714285714,12.203389830508474,16.90678857142857C13.220338983050846,16.79024,14.23728813559322,16.677830476190476,15.254237288135592,16.561874285714286C16.271186440677965,16.445918095238095,17.28813559322034,16.328041904761907,18.305084745762713,16.21105142857143C19.322033898305087,16.094060952380953,20.338983050847457,15.977472380952381,21.35593220338983,15.859931428571429C22.372881355932204,15.742390476190476,23.389830508474574,15.601224761904765,24.406779661016948,15.505805714285717C25.423728813559322,15.41038666666667,26.440677966101696,15.360731428571428,27.45762711864407,15.287417142857143C28.47457627118644,15.214102857142857,29.491525423728813,15.140638095238094,30.508474576271183,15.065919999999998C31.525423728813557,14.991201904761903,32.54237288135593,14.913912380952379,33.559322033898304,14.83910857142857C34.57627118644068,14.76430476190476,35.59322033898305,14.690266666666668,36.610169491525426,14.617097142857144C37.6271186440678,14.54392761904762,38.644067796610166,14.472449523809525,39.66101694915254,14.400091428571429C40.67796610169491,14.327733333333333,41.69491525423729,14.255649523809524,42.71186440677966,14.182948571428572C43.728813559322035,14.11024761904762,44.7457627118644,14.036744761904764,45.762711864406775,13.963885714285716C46.77966101694915,13.891026666666669,47.79661016949152,13.818685714285717,48.813559322033896,13.745794285714288C49.83050847457627,13.672902857142859,50.847457627118644,13.599468571428572,51.86440677966102,13.526537142857142C52.88135593220339,13.453605714285713,53.898305084745765,13.381321904761903,54.91525423728814,13.308205714285712C55.93220338983051,13.235089523809522,56.94915254237288,13.161198095238097,57.96610169491525,13.087840000000002C58.983050847457626,13.014481904761906,59.99999999999999,12.941453333333333,61.01694915254237,12.868057142857143C62.03389830508474,12.794660952380953,63.05084745762712,12.720828571428571,64.0677966101695,12.647462857142857C65.08474576271186,12.574097142857143,66.10169491525424,12.499906666666666,67.11864406779661,12.427862857142857C68.13559322033899,12.355819047619047,69.15254237288136,12.286144761904762,70.16949152542374,12.2152C71.1864406779661,12.144255238095237,72.20338983050848,12.074040000000002,73.22033898305085,12.002194285714287C74.23728813559322,11.930348571428572,75.2542372881356,11.85752380952381,76.27118644067797,11.784125714285715C77.28813559322033,11.710727619047619,78.30508474576271,11.636906666666667,79.32203389830508,11.561805714285715C80.33898305084746,11.486704761904763,81.35593220338983,11.409746666666667,82.37288135593221,11.33352C83.38983050847457,11.257293333333333,84.40677966101696,11.180906666666665,85.42372881355932,11.104445714285713C86.4406779661017,11.027984761904762,87.45762711864407,10.95415619047619,88.47457627118645,10.874754285714285C89.49152542372882,10.795352380952382,90.50847457627118,10.71056761904762,91.52542372881355,10.628034285714287C92.54237288135593,10.545500952380953,93.55932203389831,10.461700952380955,94.57627118644069,10.379554285714288C95.59322033898306,10.297407619047622,96.61016949152543,10.216419047619048,97.62711864406779,10.135154285714286C98.64406779661016,10.053889523809524,99.66101694915254,9.972718095238095,100.6779661016949,9.891965714285714C101.69491525423729,9.811213333333333,102.71186440677965,9.731422857142856,103.72881355932203,9.65064C104.7457627118644,9.569857142857142,105.76271186440678,9.488441904761906,106.77966101694915,9.407268571428574C107.79661016949153,9.32609523809524,108.8135593220339,9.239718095238096,109.83050847457628,9.1636C110.84745762711864,9.087481904761905,111.86440677966102,9.021158095238095,112.88135593220339,8.95056C113.89830508474576,8.879961904761904,114.91525423728814,8.812386666666665,115.9322033898305,8.740011428571428C116.94915254237289,8.66763619047619,117.96610169491525,8.591740952380954,118.98305084745763,8.516308571428572C120,8.440876190476192,121.01694915254237,8.363727619047616,122.03389830508473,8.28741714285714C123.05084745762711,8.211106666666664,124.0677966101695,8.134866666666667,125.08474576271188,8.058445714285716C126.10169491525424,7.982024761904764,127.11864406779662,7.906055238095239,128.135593220339,7.8288914285714295C129.15254237288136,7.75172761904762,130.16949152542372,7.678030476190477,131.1864406779661,7.595462857142858C132.20338983050846,7.512895238095239,133.22033898305085,7.423960000000001,134.23728813559322,7.333485714285715C135.25423728813558,7.243011428571428,136.27118644067798,7.146335238095238,137.28813559322035,7.052617142857143C138.3050847457627,6.958899047619047,139.3220338983051,6.8643352380952365,140.33898305084747,6.771177142857141C141.35593220338984,6.678019047619046,142.3728813559322,6.587205714285714,143.38983050847457,6.4936685714285725C144.40677966101694,6.40013142857143,145.42372881355934,6.304805714285717,146.4406779661017,6.2099542857142875C147.45762711864407,6.115102857142859,148.47457627118644,6.020908571428571,149.4915254237288,5.924559999999999C150.50847457627117,5.828211428571426,151.52542372881356,5.730169523809521,152.54237288135593,5.631862857142855C153.5593220338983,5.533556190476189,154.5762711864407,5.4340647619047635,155.59322033898306,5.334720000000002C156.61016949152543,5.235375238095241,157.6271186440678,5.137626666666669,158.64406779661016,5.035794285714288C159.66101694915253,4.933961904761906,160.67796610169492,4.83269523809524,161.6949152542373,4.723725714285716C162.71186440677965,4.614756190476192,163.72881355932205,4.498036190476192,164.74576271186442,4.381977142857143C165.76271186440678,4.265918095238096,166.77966101694915,4.148712380952379,167.79661016949152,4.027371428571427C168.81355932203388,3.9060304761904736,169.83050847457628,3.772939047619045,170.84745762711864,3.6539314285714264C171.864406779661,3.5349238095238076,172.8813559322034,3.4312723809523793,173.89830508474577,3.313325714285713C174.91525423728814,3.195379047619047,175.93220338983053,3.0703961904761914,176.9491525423729,2.946251428571429C177.96610169491527,2.8221066666666683,178.98305084745763,2.695281904761906,180,2.5684571428571434"></path><path class="axis-ceiling" stroke-width="1" stroke="black" fill="none" d="M175,0L180,0"></path><text class="axis-ceiling-label" font-family="sans-serif" text-anchor="end" font-size="10px" x="170" y="2.5">3500000</text></g></svg>