<svg xmlns="http://www.w3.org/2000/svg" viewBox="0 0 180 60"><g transform="translate(0,20)"><path class="area" fill="rgba(0, 0, 0, 0.2)" d="M0,22.937942857142858C1.0169491525423728,22.928838095238095,2.0338983050847457,22.919733333333333,3.0508474576271185,22.883314285714285C4.067796610169491,22.846895238095236,5.084745762711864,22.334171428571427,6.101694915254237,22.334171428571427C7.11864406779661,22.334171428571427,8.135593220338983,22.886971428571428,9.152542372881356,22.886971428571428C10.169491525423728,22.886971428571428,11.186440677966102,22.782742857142857,12.203389830508474,22.782742857142857C13.220338983050846,22.782742857142857,14.23728813559322,22.870514285714286,15.254237288135592,22.870514285714286C16.271186440677965,22.870514285714286,17.28813559322034,22.79222857142857,18.305084745762713,22.79222857142857C19.322033898305087,22.79222857142857,20.338983050847457,23.518628571428568,21.35593220338983,23.518628571428568C22.372881355932204,23.518628571428568,23.389830508474574,4.620380952380949,24.406779661016948,4.406971428571427C25.423728813559322,4.193561904761904,26.440677966101696,4.086857142857143,27.45762711864407,4.086857142857143C28.47457627118644,4.086857142857143,29.491525423728813,4.110971428571428,30.508474576271183,4.1591999999999985C31.525423728813557,4.207428571428569,32.54237288135593,5.420533333333333,33.559322033898304,5.771085714285715C34.57627118644068,6.121638095238097,35.59322033898305,6.208533333333335,36.610169491525426,6.296914285714288C37.6271186440678,6.385295238095241,38.644067796610166,6.4294857142857165,39.66101694915254,6.4294857142857165C40.67796610169491,6.4294857142857165,41.69491525423729,6.414628571428573,42.71186440677966,6.414628571428573C43.728813559322035,6.414628571428573,44.7457627118644,25.84990476190477,45.762711864406775,27.204800000000002C46.77966101694915,28.559695238095237,47.79661016949152,28.643657142857144,48.813559322033896,29.237142857142857C49.83050847457627,29.83062857142857,50.847457627118644,30.765714285714285,51.86440677966102,30.765714285714285C52.88135593220339,30.765714285714285,53.898305084745765,28.788342857142855,54.91525423728814,28.55588571428571C55.93220338983051,28.32342857142857,56.94915254237288,28.297276190476186,57.96610169491525,28.207199999999997C58.983050847457626,28.117123809523807,59.99999999999999,28.10912380952381,61.01694915254237,28.015428571428572C62.03389830508474,27.921733333333336,63.05084745762712,27.891961904761907,64.0677966101695,27.645028571428576C65.08474576271186,27.398095238095244,66.10169491525424,26.76407619047619,67.11864406779661,26.310971428571428C68.13559322033899,25.857866666666663,69.15254237288136,25.420723809523807,70.16949152542374,24.926399999999997C71.1864406779661,24.432076190476188,72.20338983050848,23.34502857142857,73.22033898305085,23.34502857142857C74.23728813559322,23.34502857142857,75.2542372881356,24.4696,76.27118644067797,24.4696C77.28813559322033,24.4696,78.30508474576271,24.279161904761903,79.32203389830508,24.210971428571426C80.33898305084746,24.14278095238095,81.35593220338983,24.060457142857143,82.37288135593221,24.060457142857143C83.38983050847457,24.060457142857143,84.40677966101696,24.402171428571428,85.42372881355932,24.402171428571428C86.4406779661017,24.402171428571428,87.45762711864407,24.28735238095238,88.47457627118645,24.26685714285714C89.49152542372882,24.2463619047619,90.50847457627118,24.256609523809523,91.52542372881355,24.236114285714283C92.54237288135593,24.215619047619043,93.55932203389831,24.16095238095238,94.57627118644069,24.119314285714285C95.59322033898306,24.07767619047619,96.61016949152543,23.986285714285714,97.62711864406779,23.986285714285714C98.64406779661016,23.986285714285714,99.66101694915254,24.276952380952384,100.6779661016949,24.388800000000003C101.69491525423729,24.500647619047623,102.71186440677965,24.65737142857143,103.72881355932203,24.65737142857143C104.7457627118644,24.65737142857143,105.76271186440678,24.02297142857143,106.77966101694915,24.02297142857143C107.79661016949153,24.02297142857143,108.8135593220339,24.402038095238094,109.83050847457628,24.526514285714285C110.84745762711864,24.650990476190476,111.86440677966102,24.677904761904763,112.88135593220339,24.769828571428572C113.89830508474576,24.86175238095238,114.91525423728814,25.078057142857144,115.9322033898305,25.078057142857144C116.94915254237289,25.078057142857144,117.96610169491525,25.014838095238094,118.98305084745763,24.958971428571427C120,24.90310476190476,121.01694915254237,24.74285714285714,122.03389830508473,24.74285714285714C123.05084745762711,24.74285714285714,124.0677966101695,24.784647619047618,125.08474576271188,24.868228571428574C126.10169491525424,24.95180952380953,127.11864406779662,25.656457142857143,128.135593220339,25.656457142857143C129.15254237288136,25.656457142857143,130.16949152542372,25.46182857142857,131.1864406779661,25.46182857142857C132.20338983050846,25.46182857142857,133.22033898305085,25.561428571428568,134.23728813559322,25.637371428571427C135.25423728813558,25.713314285714286,136.27118644067798,25.917485714285714,137.28813559322035,25.917485714285714C138.3050847457627,25.917485714285714,139.3220338983051,24.913828571428567,140.33898305084747,24.913828571428567C141.35593220338984,24.913828571428567,142.3728813559322,25.18388571428572,143.38983050847457,25.291428571428575C144.40677966101694,25.398971428571436,145.42372881355934,25.431180952380952,146.4406779661017,25.559085714285715C147.45762711864407,25.686990476190477,148.47457627118644,25.850190476190477,149.4915254237288,26.058857142857143C150.50847457627117,26.26752380952381,151.52542372881356,26.81108571428571,152.54237288135593,26.81108571428571C153.5593220338983,26.81108571428571,154.5762711864407,26.669885714285712,155.59322033898306,26.621942857142855C156.61016949152543,26.573999999999998,157.6271186440678,26.52342857142857,158.64406779661016,26.52342857142857C159.66101694915253,26.52342857142857,160.67796610169492,28.159200000000006,161.6949152542373,28.316228571428574C162.71186440677965,28.473257142857143,163.72881355932205,28.524419047619045,164.74576271186442,28.551771428571428C165.76271186440678,28.57912380952381,166.77966101694915,28.5928,167.79661016949152,28.5928C168.81355932203388,28.5928,169.83050847457628,14.944838095238092,170.84745762711864,14.753142857142855C171.864406779661,14.561447619047618,172.8813559322034,14.465599999999998,173.89830508474577,14.465599999999998C174.91525423728814,14.465599999999998,175.93220338983053,14.766571428571428,176.9491525423729,14.917714285714286C177.96610169491527,15.068857142857143,178.98305084745763,15.22065714285714,180,15.37245714285714L180,40C178.98305084745763,40,177.96610169491527,40,176.9491525423729,40C175.93220338983053,40,174.91525423728814,40,173.89830508474577,40C172.8813559322034,40,171.864406779661,40,170.84745762711864,40C169.83050847457628,40,168.81355932203388,40,167.79661016949152,40C166.77966101694915,40,165.76271186440678,40,164.74576271186442,40C163.72881355932205,40,162.71186440677965,40,161.6949152542373,40C160.67796610169492,40,159.66101694915253,40,158.64406779661016,40C157.6271186440678,40,156.61016949152543,40,155.59322033898306,40C154.5762711864407,40,153.5593220338983,40,152.54237288135593,40C151.52542372881356,40,150.50847457627117,40,149.4915254237288,40C148.47457627118644,40,147.45762711864407,40,146.4406779661017,40C145.42372881355934,40,144.40677966101694,40,143.38983050847457,40C142.3728813559322,40,141.35593220338984,40,140.33898305084747,40C139.3220338983051,40,138.3050847457627,40,137.28813559322035,40C136.27118644067798,40,135.25423728813558,40,134.23728813559322,40C133.22033898305085,40,132.20338983050846,40,131.1864406779661,40C130.16949152542372,40,129.15254237288136,40,128.135593220339,40C127.11864406779662,40,126.10169491525424,40,125.08474576271188,40C124.0677966101695,40,123.05084745762711,40,122.03389830508473,40C121.01694915254237,40,120,40,118.98305084745763,40C117.96610169491525,40,116.94915254237289,40,115.9322033898305,40C114.91525423728814,40,113.89830508474576,40,112.88135593220339,40C111.86440677966102,40,110.84745762711864,40,109.83050847457628,40C108.8135593220339,40,107.79661016949153,40,106.77966101694915,40C105.76271186440678,40,104.7457627118644,40,103.72881355932203,40C102.71186440677965,40,101.69491525423729,40,100.6779661016949,40C99.66101694915254,40,98.64406779661016,40,97.62711864406779,40C96.61016949152543,40,95.59322033898306,40,94.57627118644069,40C93.55932203389831,40,92.54237288135593,40,91.52542372881355,40C90.50847457627118,40,89.49152542372882,40,88.47457627118645,40C87.45762711864407,40,86.4406779661017,40,85.42372881355932,40C84.40677966101696,40,83.38983050847457,40,82.37288135593221,40C81.35593220338983,40,80.33898305084746,40,79.32203389830508,40C78.30508474576271,40,77.28813559322033,40,76.27118644067797,40C75.2542372881356,40,74.23728813559322,40,73.22033898305085,40C72.20338983050848,40,71.1864406779661,40,70.16949152542374,40C69.15254237288136,40,68.13559322033899,40,67.11864406779661,40C66.10169491525424,40,65.08474576271186,40,64.0677966101695,40C63.05084745762712,40,62.03389830508474,40,61.01694915254237,40C59.99999999999999,40,58.983050847457626,40,57.96610169491525,40C56.94915254237288,40,55.93220338983051,40,54.91525423728814,40C53.898305084745765,40,52.88135593220339,40,51.86440677966102,40C50.847457627118644,40,49.83050847457627,40,48.813559322033896,40C47.79661016949152,40,46.77966101694915,40,45.762711864406775,40C44.7457627118644,40,43.728813559322035,40,42.71186440677966,40C41.69491525423729,40,40.67796610169491,40,39.66101694915254,40C38.644067796610166,40,37.6271186440678,40,36.610169491525426,40C35.59322033898305,40,34.57627118644068,40,33.559322033898304,40C32.54237288135593,40,31.525423728813557,40,30.508474576271183,40C29.491525423728813,40,28.47457627118644,40,27.45762711864407,40C26.440677966101696,40,25.423728813559322,40,24.406779661016948,40C23.389830508474574,40,22.372881355932204,40,21.35593220338983,40C20.338983050847457,40,19.322033898305087,40,18.305084745762713,40C17.28813559322034,40,16.271186440677965,40,15.254237288135592,40C14.23728813559322,40,13.220338983050846,40,12.203389830508474,40C11.186440677966102,40,10.169491525423728,40,9.152542372881356,40C8.135593220338983,40,7.11864406779661,40,6.101694915254237,40C5.084745762711864,40,4.067796610169491,40,3.0508474576271185,40C2.0338983050847457,40,1.0169491525423728,40,0,40Z"></path><path class="line" stroke="black" fill="none" d="M0,22.937942857142858C1.0169491525423728,22.928838095238095,2.0338983050847457,22.919733333333333,3.0508474576271185,22.883314285714285C4.067796610169491,22.846895238095236,5.084745762711864,22.334171428571427,6.101694915254237,22.334171428571427C7.11864406779661,22.334171428571427,8.135593220338983,22.886971428571428,9.152542372881356,22.886971428571428C10.169491525423728,22.886971428571428,11.186440677966102,22.782742857142857,12.203389830508474,22.782742857142857C13.220338983050846,22.782742857142857,14.23728813559322,22.870514285714286,15.254237288135592,22.870514285714286C16.271186440677965,22.870514285714286,17.28813559322034,22.79222857142857,18.305084745762713,22.79222857142857C19.322033898305087,22.79222857142857,20.338983050847457,23.518628571428568,21.35593220338983,23.518628571428568C22.372881355932204,23.518628571428568,23.389830508474574,4.620380952380949,24.406779661016948,4.406971428571427C25.423728813559322,4.193561904761904,26.440677966101696,4.086857142857143,27.45762711864407,4.086857142857143C28.47457627118644,4.086857142857143,29.491525423728813,4.110971428571428,30.508474576271183,4.1591999999999985C31.525423728813557,4.207428571428569,32.54237288135593,5.420533333333333,33.559322033898304,5.771085714285715C34.57627118644068,6.121638095238097,35.59322033898305,6.208533333333335,36.610169491525426,6.296914285714288C37.6271186440678,6.385295238095241,38.644067796610166,6.4294857142857165,39.66101694915254,6.4294857142857165C40.67796610169491,6.4294857142857165,41.69491525423729,6.414628571428573,42.71186440677966,6.414628571428573C43.728813559322035,6.414628571428573,44.7457627118644,25.84990476190477,45.762711864406775,27.204800000000002C46.77966101694915,28.559695238095237,47.79661016949152,28.643657142857144,48.813559322033896,29.237142857142857C49.83050847457627,29.83062857142857,50.847457627118644,30.765714285714285,51.86440677966102,30.765714285714285C52.88135593220339,30.765714285714285,53.898305084745765,28.788342857142855,54.91525423728814,28.55588571428571C55.93220338983051,28.32342857142857,56.94915254237288,28.297276190476186,57.96610169491525,28.207199999999997C58.983050847457626,28.117123809523807,59.99999999999999,28.10912380952381,61.01694915254237,28.015428571428572C62.03389830508474,27.921733333333336,63.05084745762712,27.891961904761907,64.0677966101695,27.645028571428576C65.08474576271186,27.398095238095244,66.10169491525424,26.76407619047619,67.11864406779661,26.310971428571428C68.13559322033899,25.857866666666663,69.15254237288136,25.420723809523807,70.16949152542374,24.926399999999997C71.1864406779661,24.432076190476188,72.20338983050848,23.34502857142857,73.22033898305085,23.34502857142857C74.23728813559322,23.34502857142857,75.2542372881356,24.4696,76.27118644067797,24.4696C77.28813559322033,24.4696,78.30508474576271,24.279161904761903,79.32203389830508,24.210971428571426C80.33898305084746,24.14278095238095,81.35593220338983,24.060457142857143,82.37288135593221,24.060457142857143C83.38983050847457,24.060457142857143,84.40677966101696,24.402171428571428,85.42372881355932,24.402171428571428C86.4406779661017,24.402171428571428,87.45762711864407,24.28735238095238,88.47457627118645,24.26685714285714C89.49152542372882,24.2463619047619,90.50847457627118,24.256609523809523,91.52542372881355,24.236114285714283C92.54237288135593,24.215619047619043,93.55932203389831,24.16095238095238,94.57627118644069,24.119314285714285C95.59322033898306,24.07767619047619,96.61016949152543,23.986285714285714,97.62711864406779,23.986285714285714C98.64406779661016,23.986285714285714,99.66101694915254,24.276952380952384,100.6779661016949,24.388800000000003C101.69491525423729,24.500647619047623,102.71186440677965,24.65737142857143,103.72881355932203,24.65737142857143C104.7457627118644,24.65737142857143,105.76271186440678,24.02297142857143,106.77966101694915,24.02297142857143C107.79661016949153,24.02297142857143,108.8135593220339,24.402038095238094,109.83050847457628,24.526514285714285C110.84745762711864,24.650990476190476,111.86440677966102,24.677904761904763,112.88135593220339,24.769828571428572C113.89830508474576,24.86175238095238,114.91525423728814,25.078057142857144,115.9322033898305,25.078057142857144C116.94915254237289,25.078057142857144,117.96610169491525,25.014838095238094,118.98305084745763,24.958971428571427C120,24.90310476190476,121.01694915254237,24.74285714285714,122.03389830508473,24.74285714285714C123.05084745762711,24.74285714285714,124.0677966101695,24.784647619047618,125.08474576271188,24.868228571428574C126.10169491525424,24.95180952380953,127.11864406779662,25.656457142857143,128.135593220339,25.656457142857143C129.15254237288136,25.656457142857143,130.16949152542372,25.46182857142857,131.1864406779661,25.46182857142857C132.20338983050846,25.46182857142857,133.22033898305085,25.561428571428568,134.23728813559322,25.637371428571427C135.25423728813558,25.713314285714286,136.27118644067798,25.917485714285714,137.28813559322035,25.917485714285714C138.3050847457627,25.917485714285714,139.3220338983051,24.913828571428567,140.33898305084747,24.913828571428567C141.35593220338984,24.913828571428567,142.3728813559322,25.18388571428572,143.38983050847457,25.291428571428575C144.40677966101694,25.398971428571436,145.42372881355934,25.431180952380952,146.4406779661017,25.559085714285715C147.45762711864407,25.686990476190477,148.47457627118644,25.850190476190477,149.4915254237288,26.058857142857143C150.50847457627117,26.26752380952381,151.52542372881356,26.81108571428571,152.54237288135593,26.81108571428571C153.5593220338983,26.81108571428571,154.5762711864407,26.669885714285712,155.59322033898306,26.621942857142855C156.61016949152543,26.573999999999998,157.6271186440678,26.52342857142857,158.64406779661016,26.52342857142857C159.66101694915253,26.52342857142857,160.67796610169492,28.159200000000006,161.6949152542373,28.316228571428574C162.71186440677965,28.473257142857143,163.72881355932205,28.524419047619045,164.74576271186442,28.551771428571428C165.76271186440678,28.57912380952381,166.77966101694915,28.5928,167.79661016949152,28.5928C168.81355932203388,28.5928,169.83050847457628,14.944838095238092,170.84745762711864,14.753142857142855C171.864406779661,14.561447619047618,172.8813559322034,14.465599999999998,173.89830508474577,14.465599999999998C174.91525423728814,14.465599999999998,175.93220338983053,14.766571428571428,176.9491525423729,14.917714285714286C177.96610169491527,15.068857142857143,178.98305084745763,15.22065714285714,180,15.37245714285714"></path><path class="axis-ceiling" stroke-width="1" stroke="black" fill="none" d="M175,0L180,0"></path><text class="axis-ceiling-label" font-family="sans-serif" text-anchor="end" font-size="10px" x="170" y="2.5">350000</text></g></svg>