<svg xmlns="http://www.w3.org/2000/svg" viewBox="0 0 180 60"><g transform="translate(0,20)"><path class="area" fill="rgba(0, 0, 0, 0.2)" d="M0,22.279407999999997C1.0169491525423728,21.89832,2.0338983050847457,21.517232,3.0508474576271185,21.375536C4.067796610169491,21.23384,5.084745762711864,21.222829333333337,6.101694915254237,21.162992000000003C7.11864406779661,21.10315466666667,8.135593220338983,21.114165333333336,9.152542372881356,21.016512C10.169491525423728,20.91885866666666,11.186440677966102,20.706245333333335,12.203389830508474,20.573680000000003C13.220338983050846,20.44111466666667,14.23728813559322,20.341858666666667,15.254237288135592,20.22112C16.271186440677965,20.10038133333333,17.28813559322034,19.973282666666666,18.305084745762713,19.849248C19.322033898305087,19.725213333333333,20.338983050847457,19.601461333333333,21.35593220338983,19.476912C22.372881355932204,19.352362666666664,23.389830508474574,19.20431466666667,24.406779661016948,19.101952C25.423728813559322,18.999589333333333,26.440677966101696,18.936752,27.45762711864407,18.862735999999998C28.47457627118644,18.788719999999998,29.491525423728813,18.75532,30.508474576271183,18.657856000000002C31.525423728813557,18.560392000000004,32.54237288135593,18.392349333333335,33.559322033898304,18.277952000000003C34.57627118644068,18.16355466666667,35.59322033898305,18.077530666666664,36.610169491525426,17.971472C37.6271186440678,17.865413333333333,38.644067796610166,17.758416,39.66101694915254,17.6416C40.67796610169491,17.524784,41.69491525423729,17.38637866666667,42.71186440677966,17.270576000000002C43.728813559322035,17.154773333333335,44.7457627118644,17.040173333333335,45.762711864406775,16.946784C46.77966101694915,16.853394666666667,47.79661016949152,16.780389333333332,48.813559322033896,16.71024C49.83050847457627,16.640090666666666,50.847457627118644,16.62019466666667,51.86440677966102,16.525888000000002C52.88135593220339,16.431581333333334,53.898305084745765,16.259946666666668,54.91525423728814,16.1444C55.93220338983051,16.028853333333334,56.94915254237288,15.953264,57.96610169491525,15.832608C58.983050847457626,15.711952,59.99999999999999,15.553911999999999,61.01694915254237,15.420463999999999C62.03389830508474,15.287015999999998,63.05084745762712,15.141848,64.0677966101695,15.03192C65.08474576271186,14.921992,66.10169491525424,14.841935999999999,67.11864406779661,14.760895999999999C68.13559322033899,14.679856,69.15254237288136,14.596658666666666,70.16949152542374,14.54568C71.1864406779661,14.494701333333335,72.20338983050848,14.515461333333334,73.22033898305085,14.455024000000002C74.23728813559322,14.394586666666669,75.2542372881356,14.155381333333334,76.27118644067797,14.045616C77.28813559322033,13.935850666666667,78.30508474576271,13.902944,79.32203389830508,13.796432C80.33898305084746,13.689919999999999,81.35593220338983,13.534512,82.37288135593221,13.406544C83.38983050847457,13.278576000000001,84.40677966101696,13.139672000000001,85.42372881355932,13.028624C86.4406779661017,12.917576,87.45762711864407,12.82092,88.47457627118645,12.740255999999999C89.49152542372882,12.659592,90.50847457627118,12.566986666666669,91.52542372881355,12.544640000000001C92.54237288135593,12.522293333333334,93.55932203389831,12.533466666666667,94.57627118644069,12.51112C95.59322033898306,12.488773333333333,96.61016949152543,12.204152,97.62711864406779,12.075024C98.64406779661016,11.945896000000001,99.66101694915254,11.845768,100.6779661016949,11.736352C101.69491525423729,11.626936,102.71186440677965,11.538629333333336,103.72881355932203,11.418528000000002C104.7457627118644,11.29842666666667,105.76271186440678,11.135488000000002,106.77966101694915,11.015744000000002C107.79661016949153,10.896,108.8135593220339,10.782704,109.83050847457628,10.700064000000001C110.84745762711864,10.617424000000002,111.86440677966102,10.571677333333335,112.88135593220339,10.519904000000002C113.89830508474576,10.468130666666669,114.91525423728814,10.423381333333332,115.9322033898305,10.389423999999998C116.94915254237289,10.355466666666665,117.96610169491525,10.340245333333334,118.98305084745763,10.31616C120,10.292074666666666,121.01694915254237,10.292410666666667,122.03389830508473,10.244912C123.05084745762711,10.197413333333332,124.0677966101695,9.920208,125.08474576271188,9.789504C126.10169491525424,9.658800000000001,127.11864406779662,9.595810666666667,128.135593220339,9.460688C129.15254237288136,9.325565333333333,130.16949152542372,9.092213333333335,131.1864406779661,8.978768000000002C132.20338983050846,8.865322666666668,133.22033898305085,8.831072000000002,134.23728813559322,8.780016000000002C135.25423728813558,8.72896,136.27118644067798,8.744154666666667,137.28813559322035,8.672431999999999C138.3050847457627,8.60070933333333,139.3220338983051,8.555333333333332,140.33898305084747,8.321136C141.35593220338984,8.086938666666668,142.3728813559322,6.866431999999999,143.38983050847457,6.641696000000001C144.40677966101694,6.416960000000002,145.42372881355934,6.4135733333333365,146.4406779661017,6.304592000000002C147.45762711864407,6.19561066666667,148.47457627118644,6.1054640000000004,149.4915254237288,5.987808000000001C150.50847457627117,5.870152000000001,151.52542372881356,5.706306666666669,152.54237288135593,5.598656000000002C153.5593220338983,5.491005333333335,154.5762711864407,5.403106666666667,155.59322033898306,5.3419039999999995C156.61016949152543,5.280701333333333,157.6271186440678,5.3050826666666655,158.64406779661016,5.231439999999998C159.66101694915253,5.15779733333333,160.67796610169492,4.972352000000001,161.6949152542373,4.850704000000001C162.71186440677965,4.729056000000002,163.72881355932205,4.621013333333336,164.74576271186442,4.501552000000002C165.76271186440678,4.382090666666669,166.77966101694915,4.256682666666667,167.79661016949152,4.133936C168.81355932203388,4.011189333333332,169.83050847457628,3.8835813333333316,170.84745762711864,3.765071999999998C171.864406779661,3.646562666666665,172.8813559322034,3.5145119999999994,173.89830508474577,3.4228799999999993C174.91525423728814,3.331247999999999,175.93220338983053,3.215279999999998,176.9491525423729,3.215279999999998C177.96610169491527,3.215279999999998,178.98305084745763,3.215279999999998,180,3.215279999999998L180,40C178.98305084745763,40,177.96610169491527,40,176.9491525423729,40C175.93220338983053,40,174.91525423728814,40,173.89830508474577,40C172.8813559322034,40,171.864406779661,40,170.84745762711864,40C169.83050847457628,40,168.81355932203388,40,167.79661016949152,40C166.77966101694915,40,165.76271186440678,40,164.74576271186442,40C163.72881355932205,40,162.71186440677965,40,161.6949152542373,40C160.67796610169492,40,159.66101694915253,40,158.64406779661016,40C157.6271186440678,40,156.61016949152543,40,155.59322033898306,40C154.5762711864407,40,153.5593220338983,40,152.54237288135593,40C151.52542372881356,40,150.50847457627117,40,149.4915254237288,40C148.47457627118644,40,147.45762711864407,40,146.4406779661017,40C145.42372881355934,40,144.40677966101694,40,143.38983050847457,40C142.3728813559322,40,141.35593220338984,40,140.33898305084747,40C139.3220338983051,40,138.3050847457627,40,137.28813559322035,40C136.27118644067798,40,135.25423728813558,40,134.23728813559322,40C133.22033898305085,40,132.20338983050846,40,131.1864406779661,40C130.16949152542372,40,129.15254237288136,40,128.135593220339,40C127.11864406779662,40,126.10169491525424,40,125.08474576271188,40C124.0677966101695,40,123.05084745762711,40,122.03389830508473,40C121.01694915254237,40,120,40,118.98305084745763,40C117.96610169491525,40,116.94915254237289,40,115.9322033898305,40C114.91525423728814,40,113.89830508474576,40,112.88135593220339,40C111.86440677966102,40,110.84745762711864,40,109.83050847457628,40C108.8135593220339,40,107.79661016949153,40,106.77966101694915,40C105.76271186440678,40,104.7457627118644,40,103.72881355932203,40C102.71186440677965,40,101.69491525423729,40,100.6779661016949,40C99.66101694915254,40,98.64406779661016,40,97.62711864406779,40C96.61016949152543,40,95.59322033898306,40,94.57627118644069,40C93.55932203389831,40,92.54237288135593,40,91.52542372881355,40C90.50847457627118,40,89.49152542372882,40,88.47457627118645,40C87.45762711864407,40,86.4406779661017,40,85.42372881355932,40C84.40677966101696,40,83.38983050847457,40,82.37288135593221,40C81.35593220338983,40,80.33898305084746,40,79.32203389830508,40C78.30508474576271,40,77.28813559322033,40,76.27118644067797,40C75.2542372881356,40,74.23728813559322,40,73.22033898305085,40C72.20338983050848,40,71.1864406779661,40,70.16949152542374,40C69.15254237288136,40,68.13559322033899,40,67.11864406779661,40C66.10169491525424,40,65.08474576271186,40,64.0677966101695,40C63.05084745762712,40,62.03389830508474,40,61.01694915254237,40C59.99999999999999,40,58.983050847457626,40,57.96610169491525,40C56.94915254237288,40,55.93220338983051,40,54.91525423728814,40C53.898305084745765,40,52.88135593220339,40,51.86440677966102,40C50.847457627118644,40,49.83050847457627,40,48.813559322033896,40C47.79661016949152,40,46.77966101694915,40,45.762711864406775,40C44.7457627118644,40,43.728813559322035,40,42.71186440677966,40C41.69491525423729,40,40.67796610169491,40,39.66101694915254,40C38.644067796610166,40,37.6271186440678,40,36.610169491525426,40C35.59322033898305,40,34.57627118644068,40,33.559322033898304,40C32.54237288135593,40,31.525423728813557,40,30.508474576271183,40C29.491525423728813,40,28.47457627118644,40,27.45762711864407,40C26.440677966101696,40,25.423728813559322,40,24.406779661016948,40C23.389830508474574,40,22.372881355932204,40,21.35593220338983,40C20.338983050847457,40,19.322033898305087,40,18.305084745762713,40C17.28813559322034,40,16.271186440677965,40,15.254237288135592,40C14.23728813559322,40,13.220338983050846,40,12.203389830508474,40C11.186440677966102,40,10.169491525423728,40,9.152542372881356,40C8.135593220338983,40,7.11864406779661,40,6.101694915254237,40C5.084745762711864,40,4.067796610169491,40,3.0508474576271185,40C2.0338983050847457,40,1.0169491525423728,40,0,40Z"></path><path class="line" stroke="black" fill="none" d="M0,22.279407999999997C1.0169491525423728,21.89832,2.0338983050847457,21.517232,3.0508474576271185,21.375536C4.067796610169491,21.23384,5.084745762711864,21.222829333333337,6.101694915254237,21.162992000000003C7.11864406779661,21.10315466666667,8.135593220338983,21.114165333333336,9.152542372881356,21.016512C10.169491525423728,20.91885866666666,11.186440677966102,20.706245333333335,12.203389830508474,20.573680000000003C13.220338983050846,20.44111466666667,14.23728813559322,20.341858666666667,15.254237288135592,20.22112C16.271186440677965,20.10038133333333,17.28813559322034,19.973282666666666,18.305084745762713,19.849248C19.322033898305087,19.725213333333333,20.338983050847457,19.601461333333333,21.35593220338983,19.476912C22.372881355932204,19.352362666666664,23.389830508474574,19.20431466666667,24.406779661016948,19.101952C25.423728813559322,18.999589333333333,26.440677966101696,18.936752,27.45762711864407,18.862735999999998C28.47457627118644,18.788719999999998,29.491525423728813,18.75532,30.508474576271183,18.657856000000002C31.525423728813557,18.560392000000004,32.54237288135593,18.392349333333335,33.559322033898304,18.277952000000003C34.57627118644068,18.16355466666667,35.59322033898305,18.077530666666664,36.610169491525426,17.971472C37.6271186440678,17.865413333333333,38.644067796610166,17.758416,39.66101694915254,17.6416C40.67796610169491,17.524784,41.69491525423729,17.38637866666667,42.71186440677966,17.270576000000002C43.728813559322035,17.154773333333335,44.7457627118644,17.040173333333335,45.762711864406775,16.946784C46.77966101694915,16.853394666666667,47.79661016949152,16.780389333333332,48.813559322033896,16.71024C49.83050847457627,16.640090666666666,50.847457627118644,16.62019466666667,51.86440677966102,16.525888000000002C52.88135593220339,16.431581333333334,53.898305084745765,16.259946666666668,54.91525423728814,16.1444C55.93220338983051,16.028853333333334,56.94915254237288,15.953264,57.96610169491525,15.832608C58.983050847457626,15.711952,59.99999999999999,15.553911999999999,61.01694915254237,15.420463999999999C62.03389830508474,15.287015999999998,63.05084745762712,15.141848,64.0677966101695,15.03192C65.08474576271186,14.921992,66.10169491525424,14.841935999999999,67.11864406779661,14.760895999999999C68.13559322033899,14.679856,69.15254237288136,14.596658666666666,70.16949152542374,14.54568C71.1864406779661,14.494701333333335,72.20338983050848,14.515461333333334,73.22033898305085,14.455024000000002C74.23728813559322,14.394586666666669,75.2542372881356,14.155381333333334,76.27118644067797,14.045616C77.28813559322033,13.935850666666667,78.30508474576271,13.902944,79.32203389830508,13.796432C80.33898305084746,13.689919999999999,81.35593220338983,13.534512,82.37288135593221,13.406544C83.38983050847457,13.278576000000001,84.40677966101696,13.139672000000001,85.42372881355932,13.028624C86.4406779661017,12.917576,87.45762711864407,12.82092,88.47457627118645,12.740255999999999C89.49152542372882,12.659592,90.50847457627118,12.566986666666669,91.52542372881355,12.544640000000001C92.54237288135593,12.522293333333334,93.55932203389831,12.533466666666667,94.57627118644069,12.51112C95.59322033898306,12.488773333333333,96.61016949152543,12.204152,97.62711864406779,12.075024C98.64406779661016,11.945896000000001,99.66101694915254,11.845768,100.6779661016949,11.736352C101.69491525423729,11.626936,102.71186440677965,11.538629333333336,103.72881355932203,11.418528000000002C104.7457627118644,11.29842666666667,105.76271186440678,11.135488000000002,106.77966101694915,11.015744000000002C107.79661016949153,10.896,108.8135593220339,10.782704,109.83050847457628,10.700064000000001C110.84745762711864,10.617424000000002,111.86440677966102,10.571677333333335,112.88135593220339,10.519904000000002C113.89830508474576,10.468130666666669,114.91525423728814,10.423381333333332,115.9322033898305,10.389423999999998C116.94915254237289,10.355466666666665,117.96610169491525,10.340245333333334,118.98305084745763,10.31616C120,10.292074666666666,121.01694915254237,10.292410666666667,122.03389830508473,10.244912C123.05084745762711,10.197413333333332,124.0677966101695,9.920208,125.08474576271188,9.789504C126.10169491525424,9.658800000000001,127.11864406779662,9.595810666666667,128.135593220339,9.460688C129.15254237288136,9.325565333333333,130.16949152542372,9.092213333333335,131.1864406779661,8.978768000000002C132.20338983050846,8.865322666666668,133.22033898305085,8.831072000000002,134.23728813559322,8.780016000000002C135.25423728813558,8.72896,136.27118644067798,8.744154666666667,137.28813559322035,8.672431999999999C138.3050847457627,8.60070933333333,139.3220338983051,8.555333333333332,140.33898305084747,8.321136C141.35593220338984,8.086938666666668,142.3728813559322,6.866431999999999,143.38983050847457,6.641696000000001C144.40677966101694,6.416960000000002,145.42372881355934,6.4135733333333365,146.4406779661017,6.304592000000002C147.45762711864407,6.19561066666667,148.47457627118644,6.1054640000000004,149.4915254237288,5.987808000000001C150.50847457627117,5.870152000000001,151.52542372881356,5.706306666666669,152.54237288135593,5.598656000000002C153.5593220338983,5.491005333333335,154.5762711864407,5.403106666666667,155.59322033898306,5.3419039999999995C156.61016949152543,5.280701333333333,157.6271186440678,5.3050826666666655,158.64406779661016,5.231439999999998C159.66101694915253,5.15779733333333,160.67796610169492,4.972352000000001,161.6949152542373,4.850704000000001C162.71186440677965,4.729056000000002,163.72881355932205,4.621013333333336,164.74576271186442,4.501552000000002C165.76271186440678,4.382090666666669,166.77966101694915,4.256682666666667,167.79661016949152,4.133936C168.81355932203388,4.011189333333332,169.83050847457628,3.8835813333333316,170.84745762711864,3.765071999999998C171.864406779661,3.646562666666665,172.8813559322034,3.5145119999999994,173.89830508474577,3.4228799999999993C174.91525423728814,3.331247999999999,175.93220338983053,3.215279999999998,176.9491525423729,3.215279999999998C177.96610169491527,3.215279999999998,178.98305084745763,3.215279999999998,180,3.215279999999998"></path><path class="axis-ceiling" stroke-width="1" stroke="black" fill="none" d="M175,0L180,0"></path><text class="axis-ceiling-label" font-family="sans-serif" text-anchor="end" font-size="10px" x="170" y="2.5">2500000</text></g></svg>