<svg xmlns="http://www.w3.org/2000/svg" viewBox="0 0 180 60"><g transform="translate(0,20)"><path class="area" fill="rgba(0, 0, 0, 0.2)" d="M0,37.76C1.0344827586206897,37.946666666666665,2.068965517241379,38.13333333333333,3.103448275862069,38.13333333333333C4.137931034482759,38.13333333333333,5.172413793103448,37.519999999999996,6.206896551724138,37.519999999999996C7.241379310344827,37.519999999999996,8.275862068965516,38.693333333333335,9.310344827586206,38.693333333333335C10.344827586206897,38.693333333333335,11.379310344827585,37.413333333333334,12.413793103448276,37.413333333333334C13.448275862068966,37.413333333333334,14.482758620689655,37.48444444444444,15.517241379310345,37.54666666666667C16.551724137931036,37.60888888888889,17.586206896551722,37.693333333333335,18.620689655172413,37.78666666666667C19.655172413793103,37.88,20.689655172413794,38.10666666666667,21.724137931034484,38.10666666666667C22.758620689655174,38.10666666666667,23.79310344827586,38.08,24.82758620689655,38.08C25.862068965517242,38.08,26.896551724137932,38.14666666666667,27.931034482758623,38.266666666666666C28.965517241379313,38.38666666666666,30,38.8,31.03448275862069,38.8C32.06896551724138,38.8,33.103448275862064,38.50222222222222,34.137931034482754,38.4C35.172413793103445,38.297777777777775,36.206896551724135,38.32888888888889,37.241379310344826,38.18666666666667C38.275862068965516,38.044444444444444,39.310344827586206,37.49333333333333,40.3448275862069,37.49333333333333C41.37931034482759,37.49333333333333,42.41379310344828,37.83111111111111,43.44827586206897,37.92C44.48275862068966,38.00888888888889,45.51724137931035,38.004444444444445,46.55172413793104,38.053333333333335C47.58620689655173,38.102222222222224,48.62068965517241,38.160000000000004,49.6551724137931,38.21333333333334C50.689655172413794,38.26666666666667,51.72413793103448,38.373333333333335,52.75862068965517,38.373333333333335C53.79310344827586,38.373333333333335,54.827586206896555,37.093333333333334,55.862068965517246,37.093333333333334C56.896551724137936,37.093333333333334,57.93103448275862,37.093333333333334,58.96551724137931,37.093333333333334C60,37.093333333333334,61.03448275862069,36.32,62.06896551724138,36.32C63.10344827586207,36.32,64.13793103448276,36.42666666666666,65.17241379310344,36.42666666666666C66.20689655172413,36.42666666666666,67.24137931034483,36.20444444444444,68.27586206896551,36.18666666666667C69.3103448275862,36.168888888888894,70.34482758620689,36.160000000000004,71.37931034482759,36.160000000000004C72.41379310344827,36.160000000000004,73.44827586206897,36.586666666666666,74.48275862068965,36.586666666666666C75.51724137931033,36.586666666666666,76.55172413793103,34.53333333333333,77.58620689655172,33.86666666666667C78.62068965517241,33.199999999999996,79.6551724137931,32.973333333333336,80.6896551724138,32.586666666666666C81.72413793103448,32.2,82.75862068965517,31.546666666666667,83.79310344827586,31.546666666666667C84.82758620689656,31.546666666666667,85.86206896551724,32.053333333333335,86.89655172413794,32.053333333333335C87.93103448275862,32.053333333333335,88.96551724137932,31.368888888888883,90,31.066666666666663C91.0344827586207,30.76444444444444,92.06896551724138,30.240000000000002,93.10344827586208,30.240000000000002C94.13793103448276,30.240000000000002,95.17241379310344,31.671111111111117,96.20689655172413,32.373333333333335C97.24137931034483,33.07555555555556,98.27586206896551,34.45333333333333,99.3103448275862,34.45333333333333C100.3448275862069,34.45333333333333,101.37931034482759,33.66222222222222,102.41379310344828,32.08C103.44827586206897,30.497777777777788,104.48275862068965,20.293333333333337,105.51724137931033,20.293333333333337C106.55172413793103,20.293333333333337,107.58620689655172,24.133333333333333,108.62068965517241,24.133333333333333C109.65517241379311,24.133333333333333,110.6896551724138,24.106666666666666,111.72413793103449,24.05333333333333C112.75862068965517,23.999999999999996,113.79310344827587,23.41333333333333,114.82758620689656,23.41333333333333C115.86206896551724,23.41333333333333,116.89655172413794,25.857777777777773,117.93103448275862,26.479999999999997C118.96551724137932,27.10222222222222,120,27.413333333333334,121.0344827586207,27.413333333333334C122.06896551724138,27.413333333333334,123.10344827586208,15.173333333333332,124.13793103448276,15.173333333333332C125.17241379310344,15.173333333333332,126.20689655172414,19.29777777777777,127.24137931034483,20.186666666666664C128.27586206896552,21.075555555555557,129.3103448275862,21.235555555555564,130.3448275862069,21.520000000000003C131.3793103448276,21.804444444444446,132.41379310344828,21.662222222222223,133.44827586206898,21.946666666666665C134.48275862068965,22.2311111111111,135.51724137931035,22.435555555555553,136.55172413793102,23.41333333333333C137.58620689655172,24.391111111111126,138.6206896551724,28.72,139.6551724137931,28.72C140.6896551724138,28.72,141.72413793103448,28.355555555555554,142.75862068965517,27.626666666666665C143.79310344827587,26.897777777777776,144.82758620689654,15.546666666666669,145.86206896551724,15.546666666666669C146.89655172413794,15.546666666666669,147.9310344827586,18.33777777777778,148.9655172413793,18.746666666666666C150,19.155555555555555,151.0344827586207,19.36,152.0689655172414,19.36C153.10344827586206,19.36,154.13793103448276,18.613333333333333,155.17241379310343,17.12C156.20689655172413,15.62666666666664,157.24137931034483,10.186666666666667,158.27586206896552,10.186666666666667C159.31034482758622,10.186666666666667,160.3448275862069,18.408888888888885,161.3793103448276,20.666666666666664C162.41379310344828,22.924444444444443,163.44827586206895,24.05333333333333,164.48275862068965,24.05333333333333C165.51724137931035,24.05333333333333,166.55172413793102,1.2266666666666648,167.58620689655172,1.2266666666666648C168.6206896551724,1.2266666666666648,169.6551724137931,2.30222222222222,170.6896551724138,4.453333333333331C171.7241379310345,6.604444444444423,172.75862068965517,11.404444444444445,173.79310344827587,14.64C174.82758620689657,17.875555555555557,175.86206896551724,23.866666666666667,176.89655172413794,23.866666666666667C177.93103448275863,23.866666666666667,178.9655172413793,14.719999999999999,180,5.573333333333332L180,40C178.9655172413793,40,177.93103448275863,40,176.89655172413794,40C175.86206896551724,40,174.82758620689657,40,173.79310344827587,40C172.75862068965517,40,171.7241379310345,40,170.6896551724138,40C169.6551724137931,40,168.6206896551724,40,167.58620689655172,40C166.55172413793102,40,165.51724137931035,40,164.48275862068965,40C163.44827586206895,40,162.41379310344828,40,161.3793103448276,40C160.3448275862069,40,159.31034482758622,40,158.27586206896552,40C157.24137931034483,40,156.20689655172413,40,155.17241379310343,40C154.13793103448276,40,153.10344827586206,40,152.0689655172414,40C151.0344827586207,40,150,40,148.9655172413793,40C147.9310344827586,40,146.89655172413794,40,145.86206896551724,40C144.82758620689654,40,143.79310344827587,40,142.75862068965517,40C141.72413793103448,40,140.6896551724138,40,139.6551724137931,40C138.6206896551724,40,137.58620689655172,40,136.55172413793102,40C135.51724137931035,40,134.48275862068965,40,133.44827586206898,40C132.41379310344828,40,131.3793103448276,40,130.3448275862069,40C129.3103448275862,40,128.27586206896552,40,127.24137931034483,40C126.20689655172414,40,125.17241379310344,40,124.13793103448276,40C123.10344827586208,40,122.06896551724138,40,121.0344827586207,40C120,40,118.96551724137932,40,117.93103448275862,40C116.89655172413794,40,115.86206896551724,40,114.82758620689656,40C113.79310344827587,40,112.75862068965517,40,111.72413793103449,40C110.6896551724138,40,109.65517241379311,40,108.62068965517241,40C107.58620689655172,40,106.55172413793103,40,105.51724137931033,40C104.48275862068965,40,103.44827586206897,40,102.41379310344828,40C101.37931034482759,40,100.3448275862069,40,99.3103448275862,40C98.27586206896551,40,97.24137931034483,40,96.20689655172413,40C95.17241379310344,40,94.13793103448276,40,93.10344827586208,40C92.06896551724138,40,91.0344827586207,40,90,40C88.96551724137932,40,87.93103448275862,40,86.89655172413794,40C85.86206896551724,40,84.82758620689656,40,83.79310344827586,40C82.75862068965517,40,81.72413793103448,40,80.6896551724138,40C79.6551724137931,40,78.62068965517241,40,77.58620689655172,40C76.55172413793103,40,75.51724137931033,40,74.48275862068965,40C73.44827586206897,40,72.41379310344827,40,71.37931034482759,40C70.34482758620689,40,69.3103448275862,40,68.27586206896551,40C67.24137931034483,40,66.20689655172413,40,65.17241379310344,40C64.13793103448276,40,63.10344827586207,40,62.06896551724138,40C61.03448275862069,40,60,40,58.96551724137931,40C57.93103448275862,40,56.896551724137936,40,55.862068965517246,40C54.827586206896555,40,53.79310344827586,40,52.75862068965517,40C51.72413793103448,40,50.689655172413794,40,49.6551724137931,40C48.62068965517241,40,47.58620689655173,40,46.55172413793104,40C45.51724137931035,40,44.48275862068966,40,43.44827586206897,40C42.41379310344828,40,41.37931034482759,40,40.3448275862069,40C39.310344827586206,40,38.275862068965516,40,37.241379310344826,40C36.206896551724135,40,35.172413793103445,40,34.137931034482754,40C33.103448275862064,40,32.06896551724138,40,31.03448275862069,40C30,40,28.965517241379313,40,27.931034482758623,40C26.896551724137932,40,25.862068965517242,40,24.82758620689655,40C23.79310344827586,40,22.758620689655174,40,21.724137931034484,40C20.689655172413794,40,19.655172413793103,40,18.620689655172413,40C17.586206896551722,40,16.551724137931036,40,15.517241379310345,40C14.482758620689655,40,13.448275862068966,40,12.413793103448276,40C11.379310344827585,40,10.344827586206897,40,9.310344827586206,40C8.275862068965516,40,7.241379310344827,40,6.206896551724138,40C5.172413793103448,40,4.137931034482759,40,3.103448275862069,40C2.068965517241379,40,1.0344827586206897,40,0,40Z"></path><path class="line" stroke="black" fill="none" d="M0,37.76C1.0344827586206897,37.946666666666665,2.068965517241379,38.13333333333333,3.103448275862069,38.13333333333333C4.137931034482759,38.13333333333333,5.172413793103448,37.519999999999996,6.206896551724138,37.519999999999996C7.241379310344827,37.519999999999996,8.275862068965516,38.693333333333335,9.310344827586206,38.693333333333335C10.344827586206897,38.693333333333335,11.379310344827585,37.413333333333334,12.413793103448276,37.413333333333334C13.448275862068966,37.413333333333334,14.482758620689655,37.48444444444444,15.517241379310345,37.54666666666667C16.551724137931036,37.60888888888889,17.586206896551722,37.693333333333335,18.620689655172413,37.78666666666667C19.655172413793103,37.88,20.689655172413794,38.10666666666667,21.724137931034484,38.10666666666667C22.758620689655174,38.10666666666667,23.79310344827586,38.08,24.82758620689655,38.08C25.862068965517242,38.08,26.896551724137932,38.14666666666667,27.931034482758623,38.266666666666666C28.965517241379313,38.38666666666666,30,38.8,31.03448275862069,38.8C32.06896551724138,38.8,33.103448275862064,38.50222222222222,34.137931034482754,38.4C35.172413793103445,38.297777777777775,36.206896551724135,38.32888888888889,37.241379310344826,38.18666666666667C38.275862068965516,38.044444444444444,39.310344827586206,37.49333333333333,40.3448275862069,37.49333333333333C41.37931034482759,37.49333333333333,42.41379310344828,37.83111111111111,43.44827586206897,37.92C44.48275862068966,38.00888888888889,45.51724137931035,38.004444444444445,46.55172413793104,38.053333333333335C47.58620689655173,38.102222222222224,48.62068965517241,38.160000000000004,49.6551724137931,38.21333333333334C50.689655172413794,38.26666666666667,51.72413793103448,38.373333333333335,52.75862068965517,38.373333333333335C53.79310344827586,38.373333333333335,54.827586206896555,37.093333333333334,55.862068965517246,37.093333333333334C56.896551724137936,37.093333333333334,57.93103448275862,37.093333333333334,58.96551724137931,37.093333333333334C60,37.093333333333334,61.03448275862069,36.32,62.06896551724138,36.32C63.10344827586207,36.32,64.13793103448276,36.42666666666666,65.17241379310344,36.42666666666666C66.20689655172413,36.42666666666666,67.24137931034483,36.20444444444444,68.27586206896551,36.18666666666667C69.3103448275862,36.168888888888894,70.34482758620689,36.160000000000004,71.37931034482759,36.160000000000004C72.41379310344827,36.160000000000004,73.44827586206897,36.586666666666666,74.48275862068965,36.586666666666666C75.51724137931033,36.586666666666666,76.55172413793103,34.53333333333333,77.58620689655172,33.86666666666667C78.62068965517241,33.199999999999996,79.6551724137931,32.973333333333336,80.6896551724138,32.586666666666666C81.72413793103448,32.2,82.75862068965517,31.546666666666667,83.79310344827586,31.546666666666667C84.82758620689656,31.546666666666667,85.86206896551724,32.053333333333335,86.89655172413794,32.053333333333335C87.93103448275862,32.053333333333335,88.96551724137932,31.368888888888883,90,31.066666666666663C91.0344827586207,30.76444444444444,92.06896551724138,30.240000000000002,93.10344827586208,30.240000000000002C94.13793103448276,30.240000000000002,95.17241379310344,31.671111111111117,96.20689655172413,32.373333333333335C97.24137931034483,33.07555555555556,98.27586206896551,34.45333333333333,99.3103448275862,34.45333333333333C100.3448275862069,34.45333333333333,101.37931034482759,33.66222222222222,102.41379310344828,32.08C103.44827586206897,30.497777777777788,104.48275862068965,20.293333333333337,105.51724137931033,20.293333333333337C106.55172413793103,20.293333333333337,107.58620689655172,24.133333333333333,108.62068965517241,24.133333333333333C109.65517241379311,24.133333333333333,110.6896551724138,24.106666666666666,111.72413793103449,24.05333333333333C112.75862068965517,23.999999999999996,113.79310344827587,23.41333333333333,114.82758620689656,23.41333333333333C115.86206896551724,23.41333333333333,116.89655172413794,25.857777777777773,117.93103448275862,26.479999999999997C118.96551724137932,27.10222222222222,120,27.413333333333334,121.0344827586207,27.413333333333334C122.06896551724138,27.413333333333334,123.10344827586208,15.173333333333332,124.13793103448276,15.173333333333332C125.17241379310344,15.173333333333332,126.20689655172414,19.29777777777777,127.24137931034483,20.186666666666664C128.27586206896552,21.075555555555557,129.3103448275862,21.235555555555564,130.3448275862069,21.520000000000003C131.3793103448276,21.804444444444446,132.41379310344828,21.662222222222223,133.44827586206898,21.946666666666665C134.48275862068965,22.2311111111111,135.51724137931035,22.435555555555553,136.55172413793102,23.41333333333333C137.58620689655172,24.391111111111126,138.6206896551724,28.72,139.6551724137931,28.72C140.6896551724138,28.72,141.72413793103448,28.355555555555554,142.75862068965517,27.626666666666665C143.79310344827587,26.897777777777776,144.82758620689654,15.546666666666669,145.86206896551724,15.546666666666669C146.89655172413794,15.546666666666669,147.9310344827586,18.33777777777778,148.9655172413793,18.746666666666666C150,19.155555555555555,151.0344827586207,19.36,152.0689655172414,19.36C153.10344827586206,19.36,154.13793103448276,18.613333333333333,155.17241379310343,17.12C156.20689655172413,15.62666666666664,157.24137931034483,10.186666666666667,158.27586206896552,10.186666666666667C159.31034482758622,10.186666666666667,160.3448275862069,18.408888888888885,161.3793103448276,20.666666666666664C162.41379310344828,22.924444444444443,163.44827586206895,24.05333333333333,164.48275862068965,24.05333333333333C165.51724137931035,24.05333333333333,166.55172413793102,1.2266666666666648,167.58620689655172,1.2266666666666648C168.6206896551724,1.2266666666666648,169.6551724137931,2.30222222222222,170.6896551724138,4.453333333333331C171.7241379310345,6.604444444444423,172.75862068965517,11.404444444444445,173.79310344827587,14.64C174.82758620689657,17.875555555555557,175.86206896551724,23.866666666666667,176.89655172413794,23.866666666666667C177.93103448275863,23.866666666666667,178.9655172413793,14.719999999999999,180,5.573333333333332"></path><path class="axis-ceiling" stroke-width="1" stroke="black" fill="none" d="M175,0L180,0"></path><text class="axis-ceiling-label" font-family="sans-serif" text-anchor="end" font-size="10px" x="170" y="2.5">1500</text></g></svg>