<svg xmlns="http://www.w3.org/2000/svg" viewBox="0 0 180 60"><g transform="translate(0,20)"><path class="area" fill="rgba(0, 0, 0, 0.2)" d="M0,1.6000000000000014C1.0169491525423728,2.7333333333333334,2.0338983050847457,3.8666666666666663,3.0508474576271185,4.8C4.067796610169491,5.733333333333333,5.084745762711864,6.6222222222222245,6.101694915254237,7.200000000000002C7.11864406779661,7.7777777777777795,8.135593220338983,7.822222222222221,9.152542372881356,8.266666666666666C10.169491525423728,8.71111111111111,11.186440677966102,9.377777777777778,12.203389830508474,9.866666666666667C13.220338983050846,10.355555555555556,14.23728813559322,10.711111111111112,15.254237288135592,11.200000000000001C16.271186440677965,11.68888888888889,17.28813559322034,12.799999999999997,18.305084745762713,12.799999999999997C19.322033898305087,12.799999999999997,20.338983050847457,11.466666666666665,21.35593220338983,11.466666666666665C22.372881355932204,11.466666666666665,23.389830508474574,11.77777777777778,24.406779661016948,12.000000000000002C25.423728813559322,12.222222222222223,26.440677966101696,12.355555555555553,27.45762711864407,12.799999999999997C28.47457627118644,13.244444444444442,29.491525423728813,14.177777777777779,30.508474576271183,14.666666666666668C31.525423728813557,15.155555555555559,32.54237288135593,15.555555555555554,33.559322033898304,15.733333333333333C34.57627118644068,15.911111111111111,35.59322033898305,16,36.610169491525426,16C37.6271186440678,16,38.644067796610166,15.733333333333333,39.66101694915254,15.733333333333333C40.67796610169491,15.733333333333333,41.69491525423729,16.888888888888886,42.71186440677966,17.066666666666666C43.728813559322035,17.244444444444447,44.7457627118644,17.333333333333336,45.762711864406775,17.333333333333336C46.77966101694915,17.333333333333336,47.79661016949152,16.71111111111111,48.813559322033896,16.53333333333333C49.83050847457627,16.355555555555554,50.847457627118644,16.444444444444443,51.86440677966102,16.266666666666666C52.88135593220339,16.08888888888889,53.898305084745765,15.511111111111111,54.91525423728814,15.2C55.93220338983051,14.88888888888889,56.94915254237288,14.666666666666666,57.96610169491525,14.399999999999999C58.983050847457626,14.133333333333331,59.99999999999999,13.999999999999996,61.01694915254237,13.599999999999998C62.03389830508474,13.199999999999998,63.05084745762712,12.75555555555556,64.0677966101695,12.000000000000002C65.08474576271186,11.244444444444447,66.10169491525424,9.244444444444444,67.11864406779661,9.066666666666666C68.13559322033899,8.888888888888888,69.15254237288136,8.799999999999999,70.16949152542374,8.799999999999999C71.1864406779661,8.799999999999999,72.20338983050848,9.555555555555555,73.22033898305085,9.866666666666667C74.23728813559322,10.177777777777779,75.2542372881356,10.311111111111112,76.27118644067797,10.666666666666668C77.28813559322033,11.022222222222224,78.30508474576271,11.555555555555559,79.32203389830508,12.000000000000002C80.33898305084746,12.444444444444448,81.35593220338983,12.8,82.37288135593221,13.333333333333336C83.38983050847457,13.866666666666667,84.40677966101696,14.533333333333335,85.42372881355932,15.2C86.4406779661017,15.866666666666667,87.45762711864407,16.8,88.47457627118645,17.333333333333336C89.49152542372882,17.866666666666664,90.50847457627118,18.22222222222222,91.52542372881355,18.4C92.54237288135593,18.57777777777778,93.55932203389831,18.666666666666668,94.57627118644069,18.666666666666668C95.59322033898306,18.666666666666668,96.61016949152543,18.666666666666668,97.62711864406779,18.666666666666668C98.64406779661016,18.666666666666668,99.66101694915254,18.666666666666668,100.6779661016949,18.666666666666668C101.69491525423729,18.666666666666668,102.71186440677965,18.57777777777778,103.72881355932203,18.4C104.7457627118644,18.22222222222222,105.76271186440678,17.599999999999998,106.77966101694915,17.599999999999998C107.79661016949153,17.599999999999998,108.8135593220339,18.13333333333333,109.83050847457628,18.4C110.84745762711864,18.666666666666664,111.86440677966102,18.933333333333334,112.88135593220339,19.2C113.89830508474576,19.466666666666665,114.91525423728814,19.555555555555557,115.9322033898305,20C116.94915254237289,20.444444444444446,117.96610169491525,21.377777777777776,118.98305084745763,21.866666666666667C120,22.35555555555555,121.01694915254237,22.75555555555555,122.03389830508473,22.93333333333333C123.05084745762711,23.11111111111111,124.0677966101695,23.022222222222222,125.08474576271188,23.200000000000003C126.10169491525424,23.377777777777784,127.11864406779662,24.444444444444446,128.135593220339,24.8C129.15254237288136,25.155555555555555,130.16949152542372,25.022222222222222,131.1864406779661,25.333333333333332C132.20338983050846,25.644444444444446,133.22033898305085,26.66666666666667,134.23728813559322,26.66666666666667C135.25423728813558,26.66666666666667,136.27118644067798,26.66666666666667,137.28813559322035,26.66666666666667C138.3050847457627,26.66666666666667,139.3220338983051,28,140.33898305084747,28C141.35593220338984,28,142.3728813559322,25.688888888888886,143.38983050847457,24.8C144.40677966101694,23.911111111111104,145.42372881355934,23.688888888888894,146.4406779661017,22.666666666666664C147.45762711864407,21.644444444444446,148.47457627118644,19.999999999999993,149.4915254237288,18.666666666666668C150.50847457627117,17.33333333333333,151.52542372881356,15.866666666666669,152.54237288135593,14.666666666666668C153.5593220338983,13.466666666666667,154.5762711864407,12.444444444444446,155.59322033898306,11.466666666666665C156.61016949152543,10.488888888888892,157.6271186440678,10.088888888888878,158.64406779661016,8.799999999999999C159.66101694915253,7.511111111111108,160.67796610169492,3.911111111111114,161.6949152542373,3.733333333333335C162.71186440677965,3.5555555555555562,163.72881355932205,3.466666666666667,164.74576271186442,3.466666666666667C165.76271186440678,3.466666666666667,166.77966101694915,4.266666666666665,167.79661016949152,4.533333333333331C168.81355932203388,4.800000000000001,169.83050847457628,4.88888888888889,170.84745762711864,5.066666666666668C171.864406779661,5.244444444444446,172.8813559322034,5.6000000000000005,173.89830508474577,5.6000000000000005C174.91525423728814,5.6000000000000005,175.93220338983053,3.733333333333335,176.9491525423729,3.733333333333335C177.96610169491527,3.733333333333335,178.98305084745763,6.1333333333333355,180,8.533333333333335L180,40C178.98305084745763,40,177.96610169491527,40,176.9491525423729,40C175.93220338983053,40,174.91525423728814,40,173.89830508474577,40C172.8813559322034,40,171.864406779661,40,170.84745762711864,40C169.83050847457628,40,168.81355932203388,40,167.79661016949152,40C166.77966101694915,40,165.76271186440678,40,164.74576271186442,40C163.72881355932205,40,162.71186440677965,40,161.6949152542373,40C160.67796610169492,40,159.66101694915253,40,158.64406779661016,40C157.6271186440678,40,156.61016949152543,40,155.59322033898306,40C154.5762711864407,40,153.5593220338983,40,152.54237288135593,40C151.52542372881356,40,150.50847457627117,40,149.4915254237288,40C148.47457627118644,40,147.45762711864407,40,146.4406779661017,40C145.42372881355934,40,144.40677966101694,40,143.38983050847457,40C142.3728813559322,40,141.35593220338984,40,140.33898305084747,40C139.3220338983051,40,138.3050847457627,40,137.28813559322035,40C136.27118644067798,40,135.25423728813558,40,134.23728813559322,40C133.22033898305085,40,132.20338983050846,40,131.1864406779661,40C130.16949152542372,40,129.15254237288136,40,128.135593220339,40C127.11864406779662,40,126.10169491525424,40,125.08474576271188,40C124.0677966101695,40,123.05084745762711,40,122.03389830508473,40C121.01694915254237,40,120,40,118.98305084745763,40C117.96610169491525,40,116.94915254237289,40,115.9322033898305,40C114.91525423728814,40,113.89830508474576,40,112.88135593220339,40C111.86440677966102,40,110.84745762711864,40,109.83050847457628,40C108.8135593220339,40,107.79661016949153,40,106.77966101694915,40C105.76271186440678,40,104.7457627118644,40,103.72881355932203,40C102.71186440677965,40,101.69491525423729,40,100.6779661016949,40C99.66101694915254,40,98.64406779661016,40,97.62711864406779,40C96.61016949152543,40,95.59322033898306,40,94.57627118644069,40C93.55932203389831,40,92.54237288135593,40,91.52542372881355,40C90.50847457627118,40,89.49152542372882,40,88.47457627118645,40C87.45762711864407,40,86.4406779661017,40,85.42372881355932,40C84.40677966101696,40,83.38983050847457,40,82.37288135593221,40C81.35593220338983,40,80.33898305084746,40,79.32203389830508,40C78.30508474576271,40,77.28813559322033,40,76.27118644067797,40C75.2542372881356,40,74.23728813559322,40,73.22033898305085,40C72.20338983050848,40,71.1864406779661,40,70.16949152542374,40C69.15254237288136,40,68.13559322033899,40,67.11864406779661,40C66.10169491525424,40,65.08474576271186,40,64.0677966101695,40C63.05084745762712,40,62.03389830508474,40,61.01694915254237,40C59.99999999999999,40,58.983050847457626,40,57.96610169491525,40C56.94915254237288,40,55.93220338983051,40,54.91525423728814,40C53.898305084745765,40,52.88135593220339,40,51.86440677966102,40C50.847457627118644,40,49.83050847457627,40,48.813559322033896,40C47.79661016949152,40,46.77966101694915,40,45.762711864406775,40C44.7457627118644,40,43.728813559322035,40,42.71186440677966,40C41.69491525423729,40,40.67796610169491,40,39.66101694915254,40C38.644067796610166,40,37.6271186440678,40,36.610169491525426,40C35.59322033898305,40,34.57627118644068,40,33.559322033898304,40C32.54237288135593,40,31.525423728813557,40,30.508474576271183,40C29.491525423728813,40,28.47457627118644,40,27.45762711864407,40C26.440677966101696,40,25.423728813559322,40,24.406779661016948,40C23.389830508474574,40,22.372881355932204,40,21.35593220338983,40C20.338983050847457,40,19.322033898305087,40,18.305084745762713,40C17.28813559322034,40,16.271186440677965,40,15.254237288135592,40C14.23728813559322,40,13.220338983050846,40,12.203389830508474,40C11.186440677966102,40,10.169491525423728,40,9.152542372881356,40C8.135593220338983,40,7.11864406779661,40,6.101694915254237,40C5.084745762711864,40,4.067796610169491,40,3.0508474576271185,40C2.0338983050847457,40,1.0169491525423728,40,0,40Z"></path><path class="line" stroke="black" fill="none" d="M0,1.6000000000000014C1.0169491525423728,2.7333333333333334,2.0338983050847457,3.8666666666666663,3.0508474576271185,4.8C4.067796610169491,5.733333333333333,5.084745762711864,6.6222222222222245,6.101694915254237,7.200000000000002C7.11864406779661,7.7777777777777795,8.135593220338983,7.822222222222221,9.152542372881356,8.266666666666666C10.169491525423728,8.71111111111111,11.186440677966102,9.377777777777778,12.203389830508474,9.866666666666667C13.220338983050846,10.355555555555556,14.23728813559322,10.711111111111112,15.254237288135592,11.200000000000001C16.271186440677965,11.68888888888889,17.28813559322034,12.799999999999997,18.305084745762713,12.799999999999997C19.322033898305087,12.799999999999997,20.338983050847457,11.466666666666665,21.35593220338983,11.466666666666665C22.372881355932204,11.466666666666665,23.389830508474574,11.77777777777778,24.406779661016948,12.000000000000002C25.423728813559322,12.222222222222223,26.440677966101696,12.355555555555553,27.45762711864407,12.799999999999997C28.47457627118644,13.244444444444442,29.491525423728813,14.177777777777779,30.508474576271183,14.666666666666668C31.525423728813557,15.155555555555559,32.54237288135593,15.555555555555554,33.559322033898304,15.733333333333333C34.57627118644068,15.911111111111111,35.59322033898305,16,36.610169491525426,16C37.6271186440678,16,38.644067796610166,15.733333333333333,39.66101694915254,15.733333333333333C40.67796610169491,15.733333333333333,41.69491525423729,16.888888888888886,42.71186440677966,17.066666666666666C43.728813559322035,17.244444444444447,44.7457627118644,17.333333333333336,45.762711864406775,17.333333333333336C46.77966101694915,17.333333333333336,47.79661016949152,16.71111111111111,48.813559322033896,16.53333333333333C49.83050847457627,16.355555555555554,50.847457627118644,16.444444444444443,51.86440677966102,16.266666666666666C52.88135593220339,16.08888888888889,53.898305084745765,15.511111111111111,54.91525423728814,15.2C55.93220338983051,14.88888888888889,56.94915254237288,14.666666666666666,57.96610169491525,14.399999999999999C58.983050847457626,14.133333333333331,59.99999999999999,13.999999999999996,61.01694915254237,13.599999999999998C62.03389830508474,13.199999999999998,63.05084745762712,12.75555555555556,64.0677966101695,12.000000000000002C65.08474576271186,11.244444444444447,66.10169491525424,9.244444444444444,67.11864406779661,9.066666666666666C68.13559322033899,8.888888888888888,69.15254237288136,8.799999999999999,70.16949152542374,8.799999999999999C71.1864406779661,8.799999999999999,72.20338983050848,9.555555555555555,73.22033898305085,9.866666666666667C74.23728813559322,10.177777777777779,75.2542372881356,10.311111111111112,76.27118644067797,10.666666666666668C77.28813559322033,11.022222222222224,78.30508474576271,11.555555555555559,79.32203389830508,12.000000000000002C80.33898305084746,12.444444444444448,81.35593220338983,12.8,82.37288135593221,13.333333333333336C83.38983050847457,13.866666666666667,84.40677966101696,14.533333333333335,85.42372881355932,15.2C86.4406779661017,15.866666666666667,87.45762711864407,16.8,88.47457627118645,17.333333333333336C89.49152542372882,17.866666666666664,90.50847457627118,18.22222222222222,91.52542372881355,18.4C92.54237288135593,18.57777777777778,93.55932203389831,18.666666666666668,94.57627118644069,18.666666666666668C95.59322033898306,18.666666666666668,96.61016949152543,18.666666666666668,97.62711864406779,18.666666666666668C98.64406779661016,18.666666666666668,99.66101694915254,18.666666666666668,100.6779661016949,18.666666666666668C101.69491525423729,18.666666666666668,102.71186440677965,18.57777777777778,103.72881355932203,18.4C104.7457627118644,18.22222222222222,105.76271186440678,17.599999999999998,106.77966101694915,17.599999999999998C107.79661016949153,17.599999999999998,108.8135593220339,18.13333333333333,109.83050847457628,18.4C110.84745762711864,18.666666666666664,111.86440677966102,18.933333333333334,112.88135593220339,19.2C113.89830508474576,19.466666666666665,114.91525423728814,19.555555555555557,115.9322033898305,20C116.94915254237289,20.444444444444446,117.96610169491525,21.377777777777776,118.98305084745763,21.866666666666667C120,22.35555555555555,121.01694915254237,22.75555555555555,122.03389830508473,22.93333333333333C123.05084745762711,23.11111111111111,124.0677966101695,23.022222222222222,125.08474576271188,23.200000000000003C126.10169491525424,23.377777777777784,127.11864406779662,24.444444444444446,128.135593220339,24.8C129.15254237288136,25.155555555555555,130.16949152542372,25.022222222222222,131.1864406779661,25.333333333333332C132.20338983050846,25.644444444444446,133.22033898305085,26.66666666666667,134.23728813559322,26.66666666666667C135.25423728813558,26.66666666666667,136.27118644067798,26.66666666666667,137.28813559322035,26.66666666666667C138.3050847457627,26.66666666666667,139.3220338983051,28,140.33898305084747,28C141.35593220338984,28,142.3728813559322,25.688888888888886,143.38983050847457,24.8C144.40677966101694,23.911111111111104,145.42372881355934,23.688888888888894,146.4406779661017,22.666666666666664C147.45762711864407,21.644444444444446,148.47457627118644,19.999999999999993,149.4915254237288,18.666666666666668C150.50847457627117,17.33333333333333,151.52542372881356,15.866666666666669,152.54237288135593,14.666666666666668C153.5593220338983,13.466666666666667,154.5762711864407,12.444444444444446,155.59322033898306,11.466666666666665C156.61016949152543,10.488888888888892,157.6271186440678,10.088888888888878,158.64406779661016,8.799999999999999C159.66101694915253,7.511111111111108,160.67796610169492,3.911111111111114,161.6949152542373,3.733333333333335C162.71186440677965,3.5555555555555562,163.72881355932205,3.466666666666667,164.74576271186442,3.466666666666667C165.76271186440678,3.466666666666667,166.77966101694915,4.266666666666665,167.79661016949152,4.533333333333331C168.81355932203388,4.800000000000001,169.83050847457628,4.88888888888889,170.84745762711864,5.066666666666668C171.864406779661,5.244444444444446,172.8813559322034,5.6000000000000005,173.89830508474577,5.6000000000000005C174.91525423728814,5.6000000000000005,175.93220338983053,3.733333333333335,176.9491525423729,3.733333333333335C177.96610169491527,3.733333333333335,178.98305084745763,6.1333333333333355,180,8.533333333333335"></path><path class="axis-ceiling" stroke-width="1" stroke="black" fill="none" d="M175,0L180,0"></path><text class="axis-ceiling-label" font-family="sans-serif" text-anchor="end" font-size="10px" x="170" y="2.5">150</text></g></svg>