<svg xmlns="http://www.w3.org/2000/svg" viewBox="0 0 180 60"><g transform="translate(0,20)"><path class="area" fill="rgba(0, 0, 0, 0.2)" d="M0,5.840000000000001C1.0169491525423728,6.4399999999999995,2.0338983050847457,7.039999999999999,3.0508474576271185,9.12C4.067796610169491,11.2,5.084745762711864,15.966666666666667,6.101694915254237,18.32C7.11864406779661,20.673333333333332,8.135593220338983,23.24,9.152542372881356,23.24C10.169491525423728,23.24,11.186440677966102,11.626666666666669,12.203389830508474,10.72C13.220338983050846,9.813333333333333,14.23728813559322,10.099999999999998,15.254237288135592,9.36C16.271186440677965,8.62,17.28813559322034,6.280000000000001,18.305084745762713,6.280000000000001C19.322033898305087,6.280000000000001,20.338983050847457,12.786666666666664,21.35593220338983,14.04C22.372881355932204,15.293333333333335,23.389830508474574,15.160000000000002,24.406779661016948,15.920000000000002C25.423728813559322,16.680000000000003,26.440677966101696,16.853333333333328,27.45762711864407,18.599999999999998C28.47457627118644,20.346666666666664,29.491525423728813,26.4,30.508474576271183,26.4C31.525423728813557,26.4,32.54237288135593,21.006666666666668,33.559322033898304,18.32C34.57627118644068,15.633333333333335,35.59322033898305,10.280000000000001,36.610169491525426,10.280000000000001C37.6271186440678,10.280000000000001,38.644067796610166,11.779999999999998,39.66101694915254,12.639999999999997C40.67796610169491,13.499999999999998,41.69491525423729,14.473333333333333,42.71186440677966,15.440000000000001C43.728813559322035,16.406666666666666,44.7457627118644,17.333333333333332,45.762711864406775,18.439999999999998C46.77966101694915,19.546666666666667,47.79661016949152,20.220000000000002,48.813559322033896,22.080000000000002C49.83050847457627,23.94,50.847457627118644,29.6,51.86440677966102,29.6C52.88135593220339,29.6,53.898305084745765,21.58666666666667,54.91525423728814,21.16C55.93220338983051,20.733333333333334,56.94915254237288,20.766666666666666,57.96610169491525,20.52C58.983050847457626,20.273333333333333,59.99999999999999,19.68,61.01694915254237,19.68C62.03389830508474,19.68,63.05084745762712,20.64,64.0677966101695,21.12C65.08474576271186,21.6,66.10169491525424,21.753333333333337,67.11864406779661,22.560000000000002C68.13559322033899,23.36666666666667,69.15254237288136,24.619999999999997,70.16949152542374,25.96C71.1864406779661,27.299999999999997,72.20338983050848,30.6,73.22033898305085,30.6C74.23728813559322,30.6,75.2542372881356,26.60666666666667,76.27118644067797,25.240000000000002C77.28813559322033,23.873333333333335,78.30508474576271,22.400000000000002,79.32203389830508,22.400000000000002C80.33898305084746,22.400000000000002,81.35593220338983,22.413333333333334,82.37288135593221,22.439999999999998C83.38983050847457,22.46666666666666,84.40677966101696,22.599999999999998,85.42372881355932,22.599999999999998C86.4406779661017,22.599999999999998,87.45762711864407,21.319999999999997,88.47457627118645,21.319999999999997C89.49152542372882,21.319999999999997,90.50847457627118,26.12,91.52542372881355,27.839999999999996C92.54237288135593,29.560000000000016,93.55932203389831,31.64,94.57627118644069,31.64C95.59322033898306,31.64,96.61016949152543,28.466666666666665,97.62711864406779,26.520000000000003C98.64406779661016,24.573333333333334,99.66101694915254,19.96,100.6779661016949,19.96C101.69491525423729,19.96,102.71186440677965,21.92,103.72881355932203,21.92C104.7457627118644,21.92,105.76271186440678,21.879999999999995,106.77966101694915,21.879999999999995C107.79661016949153,21.879999999999995,108.8135593220339,24.16,109.83050847457628,24.48C110.84745762711864,24.8,111.86440677966102,24.64,112.88135593220339,24.96C113.89830508474576,25.28,114.91525423728814,30.560000000000002,115.9322033898305,30.560000000000002C116.94915254237289,30.560000000000002,117.96610169491525,25.153333333333343,118.98305084745763,22.599999999999998C120,20.046666666666678,121.01694915254237,15.24,122.03389830508473,15.24C123.05084745762711,15.24,124.0677966101695,16.98666666666667,125.08474576271188,17.200000000000003C126.10169491525424,17.41333333333333,127.11864406779662,17.30666666666667,128.135593220339,17.519999999999996C129.15254237288136,17.733333333333324,130.16949152542372,17.89333333333333,131.1864406779661,18.64C132.20338983050846,19.386666666666677,133.22033898305085,23.113333333333333,134.23728813559322,24.56C135.25423728813558,26.006666666666664,136.27118644067798,27.32,137.28813559322035,27.32C138.3050847457627,27.32,139.3220338983051,23.606666666666683,140.33898305084747,20.96C141.35593220338984,18.31333333333334,142.3728813559322,11.440000000000001,143.38983050847457,11.440000000000001C144.40677966101694,11.440000000000001,145.42372881355934,12.733333333333329,146.4406779661017,13.079999999999998C147.45762711864407,13.426666666666664,148.47457627118644,13.599999999999998,149.4915254237288,13.599999999999998C150.50847457627117,13.599999999999998,151.52542372881356,11.360000000000001,152.54237288135593,11.360000000000001C153.5593220338983,11.360000000000001,154.5762711864407,16.786666666666658,155.59322033898306,19.28C156.61016949152543,21.77333333333332,157.6271186440678,26.319999999999997,158.64406779661016,26.319999999999997C159.66101694915253,26.319999999999997,160.67796610169492,20.133333333333333,161.6949152542373,16.28C162.71186440677965,12.426666666666668,163.72881355932205,3.1999999999999984,164.74576271186442,3.1999999999999984C165.76271186440678,3.1999999999999984,166.77966101694915,3.5199999999999987,167.79661016949152,4.159999999999999C168.81355932203388,4.800000000000006,169.83050847457628,7.120000000000002,170.84745762711864,7.120000000000002C171.864406779661,7.120000000000002,172.8813559322034,2.0000000000000018,173.89830508474577,2.0000000000000018C174.91525423728814,2.0000000000000018,175.93220338983053,12.453333333333335,176.9491525423729,15.440000000000001C177.96610169491527,18.42666666666664,178.98305084745763,19.17333333333332,180,19.92L180,40C178.98305084745763,40,177.96610169491527,40,176.9491525423729,40C175.93220338983053,40,174.91525423728814,40,173.89830508474577,40C172.8813559322034,40,171.864406779661,40,170.84745762711864,40C169.83050847457628,40,168.81355932203388,40,167.79661016949152,40C166.77966101694915,40,165.76271186440678,40,164.74576271186442,40C163.72881355932205,40,162.71186440677965,40,161.6949152542373,40C160.67796610169492,40,159.66101694915253,40,158.64406779661016,40C157.6271186440678,40,156.61016949152543,40,155.59322033898306,40C154.5762711864407,40,153.5593220338983,40,152.54237288135593,40C151.52542372881356,40,150.50847457627117,40,149.4915254237288,40C148.47457627118644,40,147.45762711864407,40,146.4406779661017,40C145.42372881355934,40,144.40677966101694,40,143.38983050847457,40C142.3728813559322,40,141.35593220338984,40,140.33898305084747,40C139.3220338983051,40,138.3050847457627,40,137.28813559322035,40C136.27118644067798,40,135.25423728813558,40,134.23728813559322,40C133.22033898305085,40,132.20338983050846,40,131.1864406779661,40C130.16949152542372,40,129.15254237288136,40,128.135593220339,40C127.11864406779662,40,126.10169491525424,40,125.08474576271188,40C124.0677966101695,40,123.05084745762711,40,122.03389830508473,40C121.01694915254237,40,120,40,118.98305084745763,40C117.96610169491525,40,116.94915254237289,40,115.9322033898305,40C114.91525423728814,40,113.89830508474576,40,112.88135593220339,40C111.86440677966102,40,110.84745762711864,40,109.83050847457628,40C108.8135593220339,40,107.79661016949153,40,106.77966101694915,40C105.76271186440678,40,104.7457627118644,40,103.72881355932203,40C102.71186440677965,40,101.69491525423729,40,100.6779661016949,40C99.66101694915254,40,98.64406779661016,40,97.62711864406779,40C96.61016949152543,40,95.59322033898306,40,94.57627118644069,40C93.55932203389831,40,92.54237288135593,40,91.52542372881355,40C90.50847457627118,40,89.49152542372882,40,88.47457627118645,40C87.45762711864407,40,86.4406779661017,40,85.42372881355932,40C84.40677966101696,40,83.38983050847457,40,82.37288135593221,40C81.35593220338983,40,80.33898305084746,40,79.32203389830508,40C78.30508474576271,40,77.28813559322033,40,76.27118644067797,40C75.2542372881356,40,74.23728813559322,40,73.22033898305085,40C72.20338983050848,40,71.1864406779661,40,70.16949152542374,40C69.15254237288136,40,68.13559322033899,40,67.11864406779661,40C66.10169491525424,40,65.08474576271186,40,64.0677966101695,40C63.05084745762712,40,62.03389830508474,40,61.01694915254237,40C59.99999999999999,40,58.983050847457626,40,57.96610169491525,40C56.94915254237288,40,55.93220338983051,40,54.91525423728814,40C53.898305084745765,40,52.88135593220339,40,51.86440677966102,40C50.847457627118644,40,49.83050847457627,40,48.813559322033896,40C47.79661016949152,40,46.77966101694915,40,45.762711864406775,40C44.7457627118644,40,43.728813559322035,40,42.71186440677966,40C41.69491525423729,40,40.67796610169491,40,39.66101694915254,40C38.644067796610166,40,37.6271186440678,40,36.610169491525426,40C35.59322033898305,40,34.57627118644068,40,33.559322033898304,40C32.54237288135593,40,31.525423728813557,40,30.508474576271183,40C29.491525423728813,40,28.47457627118644,40,27.45762711864407,40C26.440677966101696,40,25.423728813559322,40,24.406779661016948,40C23.389830508474574,40,22.372881355932204,40,21.35593220338983,40C20.338983050847457,40,19.322033898305087,40,18.305084745762713,40C17.28813559322034,40,16.271186440677965,40,15.254237288135592,40C14.23728813559322,40,13.220338983050846,40,12.203389830508474,40C11.186440677966102,40,10.169491525423728,40,9.152542372881356,40C8.135593220338983,40,7.11864406779661,40,6.101694915254237,40C5.084745762711864,40,4.067796610169491,40,3.0508474576271185,40C2.0338983050847457,40,1.0169491525423728,40,0,40Z"></path><path class="line" stroke="black" fill="none" d="M0,5.840000000000001C1.0169491525423728,6.4399999999999995,2.0338983050847457,7.039999999999999,3.0508474576271185,9.12C4.067796610169491,11.2,5.084745762711864,15.966666666666667,6.101694915254237,18.32C7.11864406779661,20.673333333333332,8.135593220338983,23.24,9.152542372881356,23.24C10.169491525423728,23.24,11.186440677966102,11.626666666666669,12.203389830508474,10.72C13.220338983050846,9.813333333333333,14.23728813559322,10.099999999999998,15.254237288135592,9.36C16.271186440677965,8.62,17.28813559322034,6.280000000000001,18.305084745762713,6.280000000000001C19.322033898305087,6.280000000000001,20.338983050847457,12.786666666666664,21.35593220338983,14.04C22.372881355932204,15.293333333333335,23.389830508474574,15.160000000000002,24.406779661016948,15.920000000000002C25.423728813559322,16.680000000000003,26.440677966101696,16.853333333333328,27.45762711864407,18.599999999999998C28.47457627118644,20.346666666666664,29.491525423728813,26.4,30.508474576271183,26.4C31.525423728813557,26.4,32.54237288135593,21.006666666666668,33.559322033898304,18.32C34.57627118644068,15.633333333333335,35.59322033898305,10.280000000000001,36.610169491525426,10.280000000000001C37.6271186440678,10.280000000000001,38.644067796610166,11.779999999999998,39.66101694915254,12.639999999999997C40.67796610169491,13.499999999999998,41.69491525423729,14.473333333333333,42.71186440677966,15.440000000000001C43.728813559322035,16.406666666666666,44.7457627118644,17.333333333333332,45.762711864406775,18.439999999999998C46.77966101694915,19.546666666666667,47.79661016949152,20.220000000000002,48.813559322033896,22.080000000000002C49.83050847457627,23.94,50.847457627118644,29.6,51.86440677966102,29.6C52.88135593220339,29.6,53.898305084745765,21.58666666666667,54.91525423728814,21.16C55.93220338983051,20.733333333333334,56.94915254237288,20.766666666666666,57.96610169491525,20.52C58.983050847457626,20.273333333333333,59.99999999999999,19.68,61.01694915254237,19.68C62.03389830508474,19.68,63.05084745762712,20.64,64.0677966101695,21.12C65.08474576271186,21.6,66.10169491525424,21.753333333333337,67.11864406779661,22.560000000000002C68.13559322033899,23.36666666666667,69.15254237288136,24.619999999999997,70.16949152542374,25.96C71.1864406779661,27.299999999999997,72.20338983050848,30.6,73.22033898305085,30.6C74.23728813559322,30.6,75.2542372881356,26.60666666666667,76.27118644067797,25.240000000000002C77.28813559322033,23.873333333333335,78.30508474576271,22.400000000000002,79.32203389830508,22.400000000000002C80.33898305084746,22.400000000000002,81.35593220338983,22.413333333333334,82.37288135593221,22.439999999999998C83.38983050847457,22.46666666666666,84.40677966101696,22.599999999999998,85.42372881355932,22.599999999999998C86.4406779661017,22.599999999999998,87.45762711864407,21.319999999999997,88.47457627118645,21.319999999999997C89.49152542372882,21.319999999999997,90.50847457627118,26.12,91.52542372881355,27.839999999999996C92.54237288135593,29.560000000000016,93.55932203389831,31.64,94.57627118644069,31.64C95.59322033898306,31.64,96.61016949152543,28.466666666666665,97.62711864406779,26.520000000000003C98.64406779661016,24.573333333333334,99.66101694915254,19.96,100.6779661016949,19.96C101.69491525423729,19.96,102.71186440677965,21.92,103.72881355932203,21.92C104.7457627118644,21.92,105.76271186440678,21.879999999999995,106.77966101694915,21.879999999999995C107.79661016949153,21.879999999999995,108.8135593220339,24.16,109.83050847457628,24.48C110.84745762711864,24.8,111.86440677966102,24.64,112.88135593220339,24.96C113.89830508474576,25.28,114.91525423728814,30.560000000000002,115.9322033898305,30.560000000000002C116.94915254237289,30.560000000000002,117.96610169491525,25.153333333333343,118.98305084745763,22.599999999999998C120,20.046666666666678,121.01694915254237,15.24,122.03389830508473,15.24C123.05084745762711,15.24,124.0677966101695,16.98666666666667,125.08474576271188,17.200000000000003C126.10169491525424,17.41333333333333,127.11864406779662,17.30666666666667,128.135593220339,17.519999999999996C129.15254237288136,17.733333333333324,130.16949152542372,17.89333333333333,131.1864406779661,18.64C132.20338983050846,19.386666666666677,133.22033898305085,23.113333333333333,134.23728813559322,24.56C135.25423728813558,26.006666666666664,136.27118644067798,27.32,137.28813559322035,27.32C138.3050847457627,27.32,139.3220338983051,23.606666666666683,140.33898305084747,20.96C141.35593220338984,18.31333333333334,142.3728813559322,11.440000000000001,143.38983050847457,11.440000000000001C144.40677966101694,11.440000000000001,145.42372881355934,12.733333333333329,146.4406779661017,13.079999999999998C147.45762711864407,13.426666666666664,148.47457627118644,13.599999999999998,149.4915254237288,13.599999999999998C150.50847457627117,13.599999999999998,151.52542372881356,11.360000000000001,152.54237288135593,11.360000000000001C153.5593220338983,11.360000000000001,154.5762711864407,16.786666666666658,155.59322033898306,19.28C156.61016949152543,21.77333333333332,157.6271186440678,26.319999999999997,158.64406779661016,26.319999999999997C159.66101694915253,26.319999999999997,160.67796610169492,20.133333333333333,161.6949152542373,16.28C162.71186440677965,12.426666666666668,163.72881355932205,3.1999999999999984,164.74576271186442,3.1999999999999984C165.76271186440678,3.1999999999999984,166.77966101694915,3.5199999999999987,167.79661016949152,4.159999999999999C168.81355932203388,4.800000000000006,169.83050847457628,7.120000000000002,170.84745762711864,7.120000000000002C171.864406779661,7.120000000000002,172.8813559322034,2.0000000000000018,173.89830508474577,2.0000000000000018C174.91525423728814,2.0000000000000018,175.93220338983053,12.453333333333335,176.9491525423729,15.440000000000001C177.96610169491527,18.42666666666664,178.98305084745763,19.17333333333332,180,19.92"></path><path class="axis-ceiling" stroke-width="1" stroke="black" fill="none" d="M175,0L180,0"></path><text class="axis-ceiling-label" font-family="sans-serif" text-anchor="end" font-size="10px" x="170" y="2.5">1000</text></g></svg>