<svg xmlns="http://www.w3.org/2000/svg" viewBox="0 0 180 60"><g transform="translate(0,20)"><path class="area" fill="rgba(0, 0, 0, 0.2)" d="M0,32.111999999999995C1.0169491525423728,31.784,2.0338983050847457,31.456,3.0508474576271185,31.456C4.067796610169491,31.456,5.084745762711864,31.648,6.101694915254237,31.648C7.11864406779661,31.648,8.135593220338983,31.375999999999998,9.152542372881356,31.375999999999998C10.169491525423728,31.375999999999998,11.186440677966102,33.144,12.203389830508474,33.744C13.220338983050846,34.344,14.23728813559322,34.42933333333333,15.254237288135592,34.976C16.271186440677965,35.522666666666666,17.28813559322034,37.024,18.305084745762713,37.024C19.322033898305087,37.024,20.338983050847457,34.37066666666667,21.35593220338983,33.584C22.372881355932204,32.797333333333334,23.389830508474574,32.754666666666665,24.406779661016948,32.304C25.423728813559322,31.853333333333335,26.440677966101696,30.880000000000003,27.45762711864407,30.880000000000003C28.47457627118644,30.880000000000003,29.491525423728813,30.928,30.508474576271183,31.024C31.525423728813557,31.12,32.54237288135593,32.64533333333333,33.559322033898304,33.312C34.57627118644068,33.97866666666666,35.59322033898305,35.024,36.610169491525426,35.024C37.6271186440678,35.024,38.644067796610166,34.552,39.66101694915254,34.048C40.67796610169491,33.544000000000004,41.69491525423729,32.352000000000004,42.71186440677966,32C43.728813559322035,31.648,44.7457627118644,31.471999999999998,45.762711864406775,31.471999999999998C46.77966101694915,31.471999999999998,47.79661016949152,32.816,48.813559322033896,32.816C49.83050847457627,32.816,50.847457627118644,30.656,51.86440677966102,30.656C52.88135593220339,30.656,53.898305084745765,34.46933333333333,54.91525423728814,34.768C55.93220338983051,35.06666666666667,56.94915254237288,35.216,57.96610169491525,35.216C58.983050847457626,35.216,59.99999999999999,34.93333333333333,61.01694915254237,34.367999999999995C62.03389830508474,33.80266666666665,63.05084745762712,31.168,64.0677966101695,30.848C65.08474576271186,30.528,66.10169491525424,30.368,67.11864406779661,30.368C68.13559322033899,30.368,69.15254237288136,30.48,70.16949152542374,30.48C71.1864406779661,30.48,72.20338983050848,30.064,73.22033898305085,30.064C74.23728813559322,30.064,75.2542372881356,31.477333333333334,76.27118644067797,32.32C77.28813559322033,33.16266666666667,78.30508474576271,35.12,79.32203389830508,35.12C80.33898305084746,35.12,81.35593220338983,33.63466666666667,82.37288135593221,32.64C83.38983050847457,31.645333333333337,84.40677966101696,30.117333333333335,85.42372881355932,29.152C86.4406779661017,28.186666666666664,87.45762711864407,26.848,88.47457627118645,26.848C89.49152542372882,26.848,90.50847457627118,29.375999999999998,91.52542372881355,29.375999999999998C92.54237288135593,29.375999999999998,93.55932203389831,28.224,94.57627118644069,28.224C95.59322033898306,28.224,96.61016949152543,30.18666666666667,97.62711864406779,31.104000000000003C98.64406779661016,32.02133333333334,99.66101694915254,33.727999999999994,100.6779661016949,33.727999999999994C101.69491525423729,33.727999999999994,102.71186440677965,31.941333333333333,103.72881355932203,30.991999999999997C104.7457627118644,30.042666666666666,105.76271186440678,28.898666666666664,106.77966101694915,28.032C107.79661016949153,27.165333333333333,108.8135593220339,25.792,109.83050847457628,25.792C110.84745762711864,25.792,111.86440677966102,25.855999999999998,112.88135593220339,25.855999999999998C113.89830508474576,25.855999999999998,114.91525423728814,24.816000000000003,115.9322033898305,24.816000000000003C116.94915254237289,24.816000000000003,117.96610169491525,27.423999999999996,118.98305084745763,28.672C120,29.919999999999995,121.01694915254237,32.304,122.03389830508473,32.304C123.05084745762711,32.304,124.0677966101695,27.242666666666672,125.08474576271188,26.304C126.10169491525424,25.365333333333332,127.11864406779662,25.834666666666667,128.135593220339,24.896C129.15254237288136,23.95733333333334,130.16949152542372,18.607999999999997,131.1864406779661,18.607999999999997C132.20338983050846,18.607999999999997,133.22033898305085,27.472,134.23728813559322,27.472C135.25423728813558,27.472,136.27118644067798,26.997333333333334,137.28813559322035,26.976C138.3050847457627,26.954666666666665,139.3220338983051,26.965333333333334,140.33898305084747,26.944C141.35593220338984,26.922666666666665,142.3728813559322,26.581333333333333,143.38983050847457,25.855999999999998C144.40677966101694,25.130666666666656,145.42372881355934,21.43733333333334,146.4406779661017,19.552C147.45762711864407,17.66666666666668,148.47457627118644,17.661333333333307,149.4915254237288,14.544C150.50847457627117,11.426666666666666,151.52542372881356,0.8479999999999999,152.54237288135593,0.8479999999999999C153.5593220338983,0.8479999999999999,154.5762711864407,1.2506666666666635,155.59322033898306,1.7280000000000006C156.61016949152543,2.2053333333333334,157.6271186440678,2.389333333333334,158.64406779661016,3.7119999999999997C159.66101694915253,5.034666666666678,160.67796610169492,13.298666666666666,161.6949152542373,16.096C162.71186440677965,18.893333333333334,163.72881355932205,19.09866666666666,164.74576271186442,20.496C165.76271186440678,21.893333333333324,166.77966101694915,24.48,167.79661016949152,24.48C168.81355932203388,24.48,169.83050847457628,17.808,170.84745762711864,17.072C171.864406779661,16.336,172.8813559322034,16.704,173.89830508474577,15.968C174.91525423728814,15.232000000000001,175.93220338983053,7.984,176.9491525423729,7.984C177.96610169491527,7.984,178.98305084745763,9.52,180,11.056L180,40C178.98305084745763,40,177.96610169491527,40,176.9491525423729,40C175.93220338983053,40,174.91525423728814,40,173.89830508474577,40C172.8813559322034,40,171.864406779661,40,170.84745762711864,40C169.83050847457628,40,168.81355932203388,40,167.79661016949152,40C166.77966101694915,40,165.76271186440678,40,164.74576271186442,40C163.72881355932205,40,162.71186440677965,40,161.6949152542373,40C160.67796610169492,40,159.66101694915253,40,158.64406779661016,40C157.6271186440678,40,156.61016949152543,40,155.59322033898306,40C154.5762711864407,40,153.5593220338983,40,152.54237288135593,40C151.52542372881356,40,150.50847457627117,40,149.4915254237288,40C148.47457627118644,40,147.45762711864407,40,146.4406779661017,40C145.42372881355934,40,144.40677966101694,40,143.38983050847457,40C142.3728813559322,40,141.35593220338984,40,140.33898305084747,40C139.3220338983051,40,138.3050847457627,40,137.28813559322035,40C136.27118644067798,40,135.25423728813558,40,134.23728813559322,40C133.22033898305085,40,132.20338983050846,40,131.1864406779661,40C130.16949152542372,40,129.15254237288136,40,128.135593220339,40C127.11864406779662,40,126.10169491525424,40,125.08474576271188,40C124.0677966101695,40,123.05084745762711,40,122.03389830508473,40C121.01694915254237,40,120,40,118.98305084745763,40C117.96610169491525,40,116.94915254237289,40,115.9322033898305,40C114.91525423728814,40,113.89830508474576,40,112.88135593220339,40C111.86440677966102,40,110.84745762711864,40,109.83050847457628,40C108.8135593220339,40,107.79661016949153,40,106.77966101694915,40C105.76271186440678,40,104.7457627118644,40,103.72881355932203,40C102.71186440677965,40,101.69491525423729,40,100.6779661016949,40C99.66101694915254,40,98.64406779661016,40,97.62711864406779,40C96.61016949152543,40,95.59322033898306,40,94.57627118644069,40C93.55932203389831,40,92.54237288135593,40,91.52542372881355,40C90.50847457627118,40,89.49152542372882,40,88.47457627118645,40C87.45762711864407,40,86.4406779661017,40,85.42372881355932,40C84.40677966101696,40,83.38983050847457,40,82.37288135593221,40C81.35593220338983,40,80.33898305084746,40,79.32203389830508,40C78.30508474576271,40,77.28813559322033,40,76.27118644067797,40C75.2542372881356,40,74.23728813559322,40,73.22033898305085,40C72.20338983050848,40,71.1864406779661,40,70.16949152542374,40C69.15254237288136,40,68.13559322033899,40,67.11864406779661,40C66.10169491525424,40,65.08474576271186,40,64.0677966101695,40C63.05084745762712,40,62.03389830508474,40,61.01694915254237,40C59.99999999999999,40,58.983050847457626,40,57.96610169491525,40C56.94915254237288,40,55.93220338983051,40,54.91525423728814,40C53.898305084745765,40,52.88135593220339,40,51.86440677966102,40C50.847457627118644,40,49.83050847457627,40,48.813559322033896,40C47.79661016949152,40,46.77966101694915,40,45.762711864406775,40C44.7457627118644,40,43.728813559322035,40,42.71186440677966,40C41.69491525423729,40,40.67796610169491,40,39.66101694915254,40C38.644067796610166,40,37.6271186440678,40,36.610169491525426,40C35.59322033898305,40,34.57627118644068,40,33.559322033898304,40C32.54237288135593,40,31.525423728813557,40,30.508474576271183,40C29.491525423728813,40,28.47457627118644,40,27.45762711864407,40C26.440677966101696,40,25.423728813559322,40,24.406779661016948,40C23.389830508474574,40,22.372881355932204,40,21.35593220338983,40C20.338983050847457,40,19.322033898305087,40,18.305084745762713,40C17.28813559322034,40,16.271186440677965,40,15.254237288135592,40C14.23728813559322,40,13.220338983050846,40,12.203389830508474,40C11.186440677966102,40,10.169491525423728,40,9.152542372881356,40C8.135593220338983,40,7.11864406779661,40,6.101694915254237,40C5.084745762711864,40,4.067796610169491,40,3.0508474576271185,40C2.0338983050847457,40,1.0169491525423728,40,0,40Z"></path><path class="line" stroke="black" fill="none" d="M0,32.111999999999995C1.0169491525423728,31.784,2.0338983050847457,31.456,3.0508474576271185,31.456C4.067796610169491,31.456,5.084745762711864,31.648,6.101694915254237,31.648C7.11864406779661,31.648,8.135593220338983,31.375999999999998,9.152542372881356,31.375999999999998C10.169491525423728,31.375999999999998,11.186440677966102,33.144,12.203389830508474,33.744C13.220338983050846,34.344,14.23728813559322,34.42933333333333,15.254237288135592,34.976C16.271186440677965,35.522666666666666,17.28813559322034,37.024,18.305084745762713,37.024C19.322033898305087,37.024,20.338983050847457,34.37066666666667,21.35593220338983,33.584C22.372881355932204,32.797333333333334,23.389830508474574,32.754666666666665,24.406779661016948,32.304C25.423728813559322,31.853333333333335,26.440677966101696,30.880000000000003,27.45762711864407,30.880000000000003C28.47457627118644,30.880000000000003,29.491525423728813,30.928,30.508474576271183,31.024C31.525423728813557,31.12,32.54237288135593,32.64533333333333,33.559322033898304,33.312C34.57627118644068,33.97866666666666,35.59322033898305,35.024,36.610169491525426,35.024C37.6271186440678,35.024,38.644067796610166,34.552,39.66101694915254,34.048C40.67796610169491,33.544000000000004,41.69491525423729,32.352000000000004,42.71186440677966,32C43.728813559322035,31.648,44.7457627118644,31.471999999999998,45.762711864406775,31.471999999999998C46.77966101694915,31.471999999999998,47.79661016949152,32.816,48.813559322033896,32.816C49.83050847457627,32.816,50.847457627118644,30.656,51.86440677966102,30.656C52.88135593220339,30.656,53.898305084745765,34.46933333333333,54.91525423728814,34.768C55.93220338983051,35.06666666666667,56.94915254237288,35.216,57.96610169491525,35.216C58.983050847457626,35.216,59.99999999999999,34.93333333333333,61.01694915254237,34.367999999999995C62.03389830508474,33.80266666666665,63.05084745762712,31.168,64.0677966101695,30.848C65.08474576271186,30.528,66.10169491525424,30.368,67.11864406779661,30.368C68.13559322033899,30.368,69.15254237288136,30.48,70.16949152542374,30.48C71.1864406779661,30.48,72.20338983050848,30.064,73.22033898305085,30.064C74.23728813559322,30.064,75.2542372881356,31.477333333333334,76.27118644067797,32.32C77.28813559322033,33.16266666666667,78.30508474576271,35.12,79.32203389830508,35.12C80.33898305084746,35.12,81.35593220338983,33.63466666666667,82.37288135593221,32.64C83.38983050847457,31.645333333333337,84.40677966101696,30.117333333333335,85.42372881355932,29.152C86.4406779661017,28.186666666666664,87.45762711864407,26.848,88.47457627118645,26.848C89.49152542372882,26.848,90.50847457627118,29.375999999999998,91.52542372881355,29.375999999999998C92.54237288135593,29.375999999999998,93.55932203389831,28.224,94.57627118644069,28.224C95.59322033898306,28.224,96.61016949152543,30.18666666666667,97.62711864406779,31.104000000000003C98.64406779661016,32.02133333333334,99.66101694915254,33.727999999999994,100.6779661016949,33.727999999999994C101.69491525423729,33.727999999999994,102.71186440677965,31.941333333333333,103.72881355932203,30.991999999999997C104.7457627118644,30.042666666666666,105.76271186440678,28.898666666666664,106.77966101694915,28.032C107.79661016949153,27.165333333333333,108.8135593220339,25.792,109.83050847457628,25.792C110.84745762711864,25.792,111.86440677966102,25.855999999999998,112.88135593220339,25.855999999999998C113.89830508474576,25.855999999999998,114.91525423728814,24.816000000000003,115.9322033898305,24.816000000000003C116.94915254237289,24.816000000000003,117.96610169491525,27.423999999999996,118.98305084745763,28.672C120,29.919999999999995,121.01694915254237,32.304,122.03389830508473,32.304C123.05084745762711,32.304,124.0677966101695,27.242666666666672,125.08474576271188,26.304C126.10169491525424,25.365333333333332,127.11864406779662,25.834666666666667,128.135593220339,24.896C129.15254237288136,23.95733333333334,130.16949152542372,18.607999999999997,131.1864406779661,18.607999999999997C132.20338983050846,18.607999999999997,133.22033898305085,27.472,134.23728813559322,27.472C135.25423728813558,27.472,136.27118644067798,26.997333333333334,137.28813559322035,26.976C138.3050847457627,26.954666666666665,139.3220338983051,26.965333333333334,140.33898305084747,26.944C141.35593220338984,26.922666666666665,142.3728813559322,26.581333333333333,143.38983050847457,25.855999999999998C144.40677966101694,25.130666666666656,145.42372881355934,21.43733333333334,146.4406779661017,19.552C147.45762711864407,17.66666666666668,148.47457627118644,17.661333333333307,149.4915254237288,14.544C150.50847457627117,11.426666666666666,151.52542372881356,0.8479999999999999,152.54237288135593,0.8479999999999999C153.5593220338983,0.8479999999999999,154.5762711864407,1.2506666666666635,155.59322033898306,1.7280000000000006C156.61016949152543,2.2053333333333334,157.6271186440678,2.389333333333334,158.64406779661016,3.7119999999999997C159.66101694915253,5.034666666666678,160.67796610169492,13.298666666666666,161.6949152542373,16.096C162.71186440677965,18.893333333333334,163.72881355932205,19.09866666666666,164.74576271186442,20.496C165.76271186440678,21.893333333333324,166.77966101694915,24.48,167.79661016949152,24.48C168.81355932203388,24.48,169.83050847457628,17.808,170.84745762711864,17.072C171.864406779661,16.336,172.8813559322034,16.704,173.89830508474577,15.968C174.91525423728814,15.232000000000001,175.93220338983053,7.984,176.9491525423729,7.984C177.96610169491527,7.984,178.98305084745763,9.52,180,11.056"></path><path class="axis-ceiling" stroke-width="1" stroke="black" fill="none" d="M175,0L180,0"></path><text class="axis-ceiling-label" font-family="sans-serif" text-anchor="end" font-size="10px" x="170" y="2.5">2500</text></g></svg>