<svg xmlns="http://www.w3.org/2000/svg" viewBox="0 0 180 60"><g transform="translate(0,20)"><path class="area" fill="rgba(0, 0, 0, 0.2)" d="M0,4.19C1.0169491525423728,5.301666666666668,2.0338983050847457,6.413333333333334,3.0508474576271185,9.190000000000001C4.067796610169491,11.966666666666669,5.084745762711864,20.85,6.101694915254237,20.85C7.11864406779661,20.85,8.135593220338983,12.636666666666672,9.152542372881356,10.910000000000002C10.169491525423728,9.183333333333334,11.186440677966102,8.319999999999999,12.203389830508474,8.319999999999999C13.220338983050846,8.319999999999999,14.23728813559322,8.549999999999999,15.254237288135592,9.009999999999998C16.271186440677965,9.469999999999999,17.28813559322034,13.429999999999998,18.305084745762713,14.61C19.322033898305087,15.79,20.338983050847457,15.236666666666665,21.35593220338983,16.38C22.372881355932204,17.523333333333333,23.389830508474574,19.146666666666672,24.406779661016948,21.470000000000002C25.423728813559322,23.793333333333337,26.440677966101696,30.32,27.45762711864407,30.32C28.47457627118644,30.32,29.491525423728813,25.076666666666664,30.508474576271183,23.71C31.525423728813557,22.343333333333334,32.54237288135593,21.66,33.559322033898304,21.66C34.57627118644068,21.66,35.59322033898305,22.263333333333332,36.610169491525426,23.25C37.6271186440678,24.236666666666665,38.644067796610166,27.58,39.66101694915254,27.58C40.67796610169491,27.58,41.69491525423729,27.270000000000003,42.71186440677966,27.270000000000003C43.728813559322035,27.270000000000003,44.7457627118644,28.226666666666667,45.762711864406775,29.33C46.77966101694915,30.43333333333333,47.79661016949152,33.89,48.813559322033896,33.89C49.83050847457627,33.89,50.847457627118644,30.28,51.86440677966102,29.96C52.88135593220339,29.64,53.898305084745765,29.48,54.91525423728814,29.48C55.93220338983051,29.48,56.94915254237288,31.363333333333337,57.96610169491525,31.69C58.983050847457626,32.016666666666666,59.99999999999999,32.18,61.01694915254237,32.18C62.03389830508474,32.18,63.05084745762712,31.38,64.0677966101695,31.38C65.08474576271186,31.38,66.10169491525424,33.41666666666667,67.11864406779661,34.35C68.13559322033899,35.28333333333334,69.15254237288136,36.65333333333333,70.16949152542374,36.98C71.1864406779661,37.306666666666665,72.20338983050848,37.47,73.22033898305085,37.47C74.23728813559322,37.47,75.2542372881356,34.63,76.27118644067797,34.63C77.28813559322033,34.63,78.30508474576271,34.65,79.32203389830508,34.69C80.33898305084746,34.73,81.35593220338983,37.65,82.37288135593221,37.65C83.38983050847457,37.65,84.40677966101696,36.18,85.42372881355932,36.18C86.4406779661017,36.18,87.45762711864407,36.629999999999995,88.47457627118645,37.01C89.49152542372882,37.39,90.50847457627118,38.46,91.52542372881355,38.46C92.54237288135593,38.46,93.55932203389831,37.64666666666666,94.57627118644069,37.519999999999996C95.59322033898306,37.39333333333333,96.61016949152543,37.33,97.62711864406779,37.33C98.64406779661016,37.33,99.66101694915254,37.708333333333336,100.6779661016949,37.82C101.69491525423729,37.931666666666665,102.71186440677965,37.973333333333336,103.72881355932203,38C104.7457627118644,38.026666666666664,105.76271186440678,38.013333333333335,106.77966101694915,38.04C107.79661016949153,38.06666666666666,108.8135593220339,38.208333333333336,109.83050847457628,38.39C110.84745762711864,38.571666666666665,111.86440677966102,39.129999999999995,112.88135593220339,39.129999999999995C113.89830508474576,39.129999999999995,114.91525423728814,38.59333333333334,115.9322033898305,38.56C116.94915254237289,38.526666666666664,117.96610169491525,38.51,118.98305084745763,38.51C120,38.51,121.01694915254237,38.55166666666667,122.03389830508473,38.57C123.05084745762711,38.58833333333334,124.0677966101695,38.586666666666666,125.08474576271188,38.620000000000005C126.10169491525424,38.65333333333334,127.11864406779662,39.05,128.135593220339,39.18C129.15254237288136,39.309999999999995,130.16949152542372,39.345,131.1864406779661,39.4C132.20338983050846,39.455,133.22033898305085,39.51,134.23728813559322,39.51C135.25423728813558,39.51,136.27118644067798,39.230000000000004,137.28813559322035,39.230000000000004C138.3050847457627,39.230000000000004,139.3220338983051,39.255,140.33898305084747,39.28C141.35593220338984,39.305,142.3728813559322,39.355000000000004,143.38983050847457,39.38C144.40677966101694,39.405,145.42372881355934,39.43,146.4406779661017,39.43C147.45762711864407,39.43,148.47457627118644,39.34,149.4915254237288,39.34C150.50847457627117,39.34,151.52542372881356,39.538333333333334,152.54237288135593,39.6C153.5593220338983,39.66166666666667,154.5762711864407,39.71,155.59322033898306,39.71C156.61016949152543,39.71,157.6271186440678,39.66,158.64406779661016,39.64C159.66101694915253,39.62,160.67796610169492,39.59,161.6949152542373,39.59C162.71186440677965,39.59,163.72881355932205,39.615,164.74576271186442,39.64C165.76271186440678,39.665,166.77966101694915,39.74,167.79661016949152,39.74C168.81355932203388,39.74,169.83050847457628,39.68,170.84745762711864,39.68C171.864406779661,39.68,172.8813559322034,39.796666666666674,173.89830508474577,39.81C174.91525423728814,39.82333333333333,175.93220338983053,39.83,176.9491525423729,39.83C177.96610169491527,39.83,178.98305084745763,39.769999999999996,180,39.71L180,40C178.98305084745763,40,177.96610169491527,40,176.9491525423729,40C175.93220338983053,40,174.91525423728814,40,173.89830508474577,40C172.8813559322034,40,171.864406779661,40,170.84745762711864,40C169.83050847457628,40,168.81355932203388,40,167.79661016949152,40C166.77966101694915,40,165.76271186440678,40,164.74576271186442,40C163.72881355932205,40,162.71186440677965,40,161.6949152542373,40C160.67796610169492,40,159.66101694915253,40,158.64406779661016,40C157.6271186440678,40,156.61016949152543,40,155.59322033898306,40C154.5762711864407,40,153.5593220338983,40,152.54237288135593,40C151.52542372881356,40,150.50847457627117,40,149.4915254237288,40C148.47457627118644,40,147.45762711864407,40,146.4406779661017,40C145.42372881355934,40,144.40677966101694,40,143.38983050847457,40C142.3728813559322,40,141.35593220338984,40,140.33898305084747,40C139.3220338983051,40,138.3050847457627,40,137.28813559322035,40C136.27118644067798,40,135.25423728813558,40,134.23728813559322,40C133.22033898305085,40,132.20338983050846,40,131.1864406779661,40C130.16949152542372,40,129.15254237288136,40,128.135593220339,40C127.11864406779662,40,126.10169491525424,40,125.08474576271188,40C124.0677966101695,40,123.05084745762711,40,122.03389830508473,40C121.01694915254237,40,120,40,118.98305084745763,40C117.96610169491525,40,116.94915254237289,40,115.9322033898305,40C114.91525423728814,40,113.89830508474576,40,112.88135593220339,40C111.86440677966102,40,110.84745762711864,40,109.83050847457628,40C108.8135593220339,40,107.79661016949153,40,106.77966101694915,40C105.76271186440678,40,104.7457627118644,40,103.72881355932203,40C102.71186440677965,40,101.69491525423729,40,100.6779661016949,40C99.66101694915254,40,98.64406779661016,40,97.62711864406779,40C96.61016949152543,40,95.59322033898306,40,94.57627118644069,40C93.55932203389831,40,92.54237288135593,40,91.52542372881355,40C90.50847457627118,40,89.49152542372882,40,88.47457627118645,40C87.45762711864407,40,86.4406779661017,40,85.42372881355932,40C84.40677966101696,40,83.38983050847457,40,82.37288135593221,40C81.35593220338983,40,80.33898305084746,40,79.32203389830508,40C78.30508474576271,40,77.28813559322033,40,76.27118644067797,40C75.2542372881356,40,74.23728813559322,40,73.22033898305085,40C72.20338983050848,40,71.1864406779661,40,70.16949152542374,40C69.15254237288136,40,68.13559322033899,40,67.11864406779661,40C66.10169491525424,40,65.08474576271186,40,64.0677966101695,40C63.05084745762712,40,62.03389830508474,40,61.01694915254237,40C59.99999999999999,40,58.983050847457626,40,57.96610169491525,40C56.94915254237288,40,55.93220338983051,40,54.91525423728814,40C53.898305084745765,40,52.88135593220339,40,51.86440677966102,40C50.847457627118644,40,49.83050847457627,40,48.813559322033896,40C47.79661016949152,40,46.77966101694915,40,45.762711864406775,40C44.7457627118644,40,43.728813559322035,40,42.71186440677966,40C41.69491525423729,40,40.67796610169491,40,39.66101694915254,40C38.644067796610166,40,37.6271186440678,40,36.610169491525426,40C35.59322033898305,40,34.57627118644068,40,33.559322033898304,40C32.54237288135593,40,31.525423728813557,40,30.508474576271183,40C29.491525423728813,40,28.47457627118644,40,27.45762711864407,40C26.440677966101696,40,25.423728813559322,40,24.406779661016948,40C23.389830508474574,40,22.372881355932204,40,21.35593220338983,40C20.338983050847457,40,19.322033898305087,40,18.305084745762713,40C17.28813559322034,40,16.271186440677965,40,15.254237288135592,40C14.23728813559322,40,13.220338983050846,40,12.203389830508474,40C11.186440677966102,40,10.169491525423728,40,9.152542372881356,40C8.135593220338983,40,7.11864406779661,40,6.101694915254237,40C5.084745762711864,40,4.067796610169491,40,3.0508474576271185,40C2.0338983050847457,40,1.0169491525423728,40,0,40Z"></path><path class="line" stroke="black" fill="none" d="M0,4.19C1.0169491525423728,5.301666666666668,2.0338983050847457,6.413333333333334,3.0508474576271185,9.190000000000001C4.067796610169491,11.966666666666669,5.084745762711864,20.85,6.101694915254237,20.85C7.11864406779661,20.85,8.135593220338983,12.636666666666672,9.152542372881356,10.910000000000002C10.169491525423728,9.183333333333334,11.186440677966102,8.319999999999999,12.203389830508474,8.319999999999999C13.220338983050846,8.319999999999999,14.23728813559322,8.549999999999999,15.254237288135592,9.009999999999998C16.271186440677965,9.469999999999999,17.28813559322034,13.429999999999998,18.305084745762713,14.61C19.322033898305087,15.79,20.338983050847457,15.236666666666665,21.35593220338983,16.38C22.372881355932204,17.523333333333333,23.389830508474574,19.146666666666672,24.406779661016948,21.470000000000002C25.423728813559322,23.793333333333337,26.440677966101696,30.32,27.45762711864407,30.32C28.47457627118644,30.32,29.491525423728813,25.076666666666664,30.508474576271183,23.71C31.525423728813557,22.343333333333334,32.54237288135593,21.66,33.559322033898304,21.66C34.57627118644068,21.66,35.59322033898305,22.263333333333332,36.610169491525426,23.25C37.6271186440678,24.236666666666665,38.644067796610166,27.58,39.66101694915254,27.58C40.67796610169491,27.58,41.69491525423729,27.270000000000003,42.71186440677966,27.270000000000003C43.728813559322035,27.270000000000003,44.7457627118644,28.226666666666667,45.762711864406775,29.33C46.77966101694915,30.43333333333333,47.79661016949152,33.89,48.813559322033896,33.89C49.83050847457627,33.89,50.847457627118644,30.28,51.86440677966102,29.96C52.88135593220339,29.64,53.898305084745765,29.48,54.91525423728814,29.48C55.93220338983051,29.48,56.94915254237288,31.363333333333337,57.96610169491525,31.69C58.983050847457626,32.016666666666666,59.99999999999999,32.18,61.01694915254237,32.18C62.03389830508474,32.18,63.05084745762712,31.38,64.0677966101695,31.38C65.08474576271186,31.38,66.10169491525424,33.41666666666667,67.11864406779661,34.35C68.13559322033899,35.28333333333334,69.15254237288136,36.65333333333333,70.16949152542374,36.98C71.1864406779661,37.306666666666665,72.20338983050848,37.47,73.22033898305085,37.47C74.23728813559322,37.47,75.2542372881356,34.63,76.27118644067797,34.63C77.28813559322033,34.63,78.30508474576271,34.65,79.32203389830508,34.69C80.33898305084746,34.73,81.35593220338983,37.65,82.37288135593221,37.65C83.38983050847457,37.65,84.40677966101696,36.18,85.42372881355932,36.18C86.4406779661017,36.18,87.45762711864407,36.629999999999995,88.47457627118645,37.01C89.49152542372882,37.39,90.50847457627118,38.46,91.52542372881355,38.46C92.54237288135593,38.46,93.55932203389831,37.64666666666666,94.57627118644069,37.519999999999996C95.59322033898306,37.39333333333333,96.61016949152543,37.33,97.62711864406779,37.33C98.64406779661016,37.33,99.66101694915254,37.708333333333336,100.6779661016949,37.82C101.69491525423729,37.931666666666665,102.71186440677965,37.973333333333336,103.72881355932203,38C104.7457627118644,38.026666666666664,105.76271186440678,38.013333333333335,106.77966101694915,38.04C107.79661016949153,38.06666666666666,108.8135593220339,38.208333333333336,109.83050847457628,38.39C110.84745762711864,38.571666666666665,111.86440677966102,39.129999999999995,112.88135593220339,39.129999999999995C113.89830508474576,39.129999999999995,114.91525423728814,38.59333333333334,115.9322033898305,38.56C116.94915254237289,38.526666666666664,117.96610169491525,38.51,118.98305084745763,38.51C120,38.51,121.01694915254237,38.55166666666667,122.03389830508473,38.57C123.05084745762711,38.58833333333334,124.0677966101695,38.586666666666666,125.08474576271188,38.620000000000005C126.10169491525424,38.65333333333334,127.11864406779662,39.05,128.135593220339,39.18C129.15254237288136,39.309999999999995,130.16949152542372,39.345,131.1864406779661,39.4C132.20338983050846,39.455,133.22033898305085,39.51,134.23728813559322,39.51C135.25423728813558,39.51,136.27118644067798,39.230000000000004,137.28813559322035,39.230000000000004C138.3050847457627,39.230000000000004,139.3220338983051,39.255,140.33898305084747,39.28C141.35593220338984,39.305,142.3728813559322,39.355000000000004,143.38983050847457,39.38C144.40677966101694,39.405,145.42372881355934,39.43,146.4406779661017,39.43C147.45762711864407,39.43,148.47457627118644,39.34,149.4915254237288,39.34C150.50847457627117,39.34,151.52542372881356,39.538333333333334,152.54237288135593,39.6C153.5593220338983,39.66166666666667,154.5762711864407,39.71,155.59322033898306,39.71C156.61016949152543,39.71,157.6271186440678,39.66,158.64406779661016,39.64C159.66101694915253,39.62,160.67796610169492,39.59,161.6949152542373,39.59C162.71186440677965,39.59,163.72881355932205,39.615,164.74576271186442,39.64C165.76271186440678,39.665,166.77966101694915,39.74,167.79661016949152,39.74C168.81355932203388,39.74,169.83050847457628,39.68,170.84745762711864,39.68C171.864406779661,39.68,172.8813559322034,39.796666666666674,173.89830508474577,39.81C174.91525423728814,39.82333333333333,175.93220338983053,39.83,176.9491525423729,39.83C177.96610169491527,39.83,178.98305084745763,39.769999999999996,180,39.71"></path><path class="axis-ceiling" stroke-width="1" stroke="black" fill="none" d="M175,0L180,0"></path><text class="axis-ceiling-label" font-family="sans-serif" text-anchor="end" font-size="10px" x="170" y="2.5">4000</text></g></svg>