<svg xmlns="http://www.w3.org/2000/svg" viewBox="0 0 180 60"><g transform="translate(0,20)"><path class="area" fill="rgba(0, 0, 0, 0.2)" d="M0,3.7862857142857154C1.0169491525423728,3.506285714285715,2.0338983050847457,3.226285714285715,3.0508474576271185,3.226285714285715C4.067796610169491,3.226285714285715,5.084745762711864,3.264000000000001,6.101694915254237,3.296000000000001C7.11864406779661,3.328000000000001,8.135593220338983,3.418285714285716,9.152542372881356,3.418285714285716C10.169491525423728,3.418285714285716,11.186440677966102,1.8022857142857163,12.203389830508474,1.8022857142857163C13.220338983050846,1.8022857142857163,14.23728813559322,2.628571428571429,15.254237288135592,2.628571428571429C16.271186440677965,2.628571428571429,17.28813559322034,2.473142857142858,18.305084745762713,2.473142857142858C19.322033898305087,2.473142857142858,20.338983050847457,2.6708571428571437,21.35593220338983,2.8811428571428577C22.372881355932204,3.0914285714285716,23.389830508474574,3.4817142857142853,24.406779661016948,3.734857142857142C25.423728813559322,3.987999999999999,26.440677966101696,4.242285714285713,27.45762711864407,4.3999999999999995C28.47457627118644,4.557714285714285,29.491525423728813,4.506476190476193,30.508474576271183,4.681142857142859C31.525423728813557,4.855809523809526,32.54237288135593,5.208761904761905,33.559322033898304,5.4479999999999995C34.57627118644068,5.687238095238094,35.59322033898305,5.670857142857142,36.610169491525426,6.116571428571427C37.6271186440678,6.562285714285711,38.644067796610166,8.283619047619046,39.66101694915254,8.952C40.67796610169491,9.620380952380954,41.69491525423729,9.833904761904762,42.71186440677966,10.126857142857144C43.728813559322035,10.419809523809525,44.7457627118644,10.709714285714288,45.762711864406775,10.709714285714288C46.77966101694915,10.709714285714288,47.79661016949152,9.852571428571428,48.813559322033896,9.852571428571428C49.83050847457627,9.852571428571428,50.847457627118644,10.484190476190477,51.86440677966102,10.768C52.88135593220339,11.051809523809524,53.898305084745765,11.32095238095238,54.91525423728814,11.555428571428571C55.93220338983051,11.789904761904761,56.94915254237288,12.174857142857146,57.96610169491525,12.174857142857146C58.983050847457626,12.174857142857146,59.99999999999999,11.151238095238096,61.01694915254237,10.987428571428573C62.03389830508474,10.823619047619049,63.05084745762712,10.83809523809524,64.0677966101695,10.741714285714288C65.08474576271186,10.645333333333335,66.10169491525424,10.409142857142859,67.11864406779661,10.409142857142859C68.13559322033899,10.409142857142859,69.15254237288136,11.533714285714282,70.16949152542374,11.72342857142857C71.1864406779661,11.913142857142857,72.20338983050848,11.85257142857143,73.22033898305085,12.008000000000001C74.23728813559322,12.163428571428572,75.2542372881356,12.430285714285715,76.27118644067797,12.656C77.28813559322033,12.881714285714287,78.30508474576271,12.992761904761906,79.32203389830508,13.362285714285713C80.33898305084746,13.731809523809522,81.35593220338983,14.399619047619046,82.37288135593221,14.873142857142856C83.38983050847457,15.346666666666664,84.40677966101696,15.738285714285714,85.42372881355932,16.20342857142857C86.4406779661017,16.66857142857143,87.45762711864407,17.278857142857145,88.47457627118645,17.664C89.49152542372882,18.049142857142854,90.50847457627118,18.167238095238098,91.52542372881355,18.514285714285712C92.54237288135593,18.861333333333334,93.55932203389831,19.268380952380948,94.57627118644069,19.746285714285715C95.59322033898306,20.224190476190476,96.61016949152543,20.872952380952384,97.62711864406779,21.38171428571429C98.64406779661016,21.890476190476196,99.66101694915254,22.399238095238097,100.6779661016949,22.798857142857145C101.69491525423729,23.198476190476192,102.71186440677965,23.491619047619047,103.72881355932203,23.77942857142857C104.7457627118644,24.067238095238093,105.76271186440678,24.232761904761908,106.77966101694915,24.525714285714287C107.79661016949153,24.81866666666667,108.8135593220339,25.29828571428571,109.83050847457628,25.537142857142854C110.84745762711864,25.775999999999996,111.86440677966102,25.759809523809523,112.88135593220339,25.95885714285714C113.89830508474576,26.15790476190476,114.91525423728814,26.552,115.9322033898305,26.73142857142857C116.94915254237289,26.910857142857143,117.96610169491525,26.88095238095238,118.98305084745763,27.03542857142857C120,27.189904761904764,121.01694915254237,27.468190476190475,122.03389830508473,27.658285714285714C123.05084745762711,27.848380952380953,124.0677966101695,28.019809523809524,125.08474576271188,28.176000000000002C126.10169491525424,28.332190476190476,127.11864406779662,28.47409523809524,128.135593220339,28.595428571428574C129.15254237288136,28.716761904761906,130.16949152542372,28.808,131.1864406779661,28.904C132.20338983050846,29,133.22033898305085,29.109714285714286,134.23728813559322,29.17142857142857C135.25423728813558,29.233142857142855,136.27118644067798,29.205714285714286,137.28813559322035,29.274285714285714C138.3050847457627,29.34285714285714,139.3220338983051,29.629523809523807,140.33898305084747,29.759999999999998C141.35593220338984,29.89047619047619,142.3728813559322,29.991619047619047,143.38983050847457,30.057142857142857C144.40677966101694,30.122666666666667,145.42372881355934,30.089904761904762,146.4406779661017,30.155428571428573C147.45762711864407,30.220952380952383,148.47457627118644,30.476571428571432,149.4915254237288,30.476571428571432C150.50847457627117,30.476571428571432,151.52542372881356,30.424,152.54237288135593,30.424C153.5593220338983,30.424,154.5762711864407,30.51009523809524,155.59322033898306,30.682285714285715C156.61016949152543,30.85447619047619,157.6271186440678,31.27466666666667,158.64406779661016,31.50857142857143C159.66101694915253,31.742476190476193,160.67796610169492,32.08571428571429,161.6949152542373,32.08571428571429C162.71186440677965,32.08571428571429,163.72881355932205,32.08114285714286,164.74576271186442,32.08114285714286C165.76271186440678,32.08114285714286,166.77966101694915,32.141714285714286,167.79661016949152,32.25714285714286C168.81355932203388,32.37257142857143,169.83050847457628,32.620761904761906,170.84745762711864,32.773714285714284C171.864406779661,32.92666666666666,172.8813559322034,33.17485714285714,173.89830508474577,33.17485714285714C174.91525423728814,33.17485714285714,175.93220338983053,32.808,176.9491525423729,32.808C177.96610169491527,32.808,178.98305084745763,33.117714285714285,180,33.42742857142857L180,40C178.98305084745763,40,177.96610169491527,40,176.9491525423729,40C175.93220338983053,40,174.91525423728814,40,173.89830508474577,40C172.8813559322034,40,171.864406779661,40,170.84745762711864,40C169.83050847457628,40,168.81355932203388,40,167.79661016949152,40C166.77966101694915,40,165.76271186440678,40,164.74576271186442,40C163.72881355932205,40,162.71186440677965,40,161.6949152542373,40C160.67796610169492,40,159.66101694915253,40,158.64406779661016,40C157.6271186440678,40,156.61016949152543,40,155.59322033898306,40C154.5762711864407,40,153.5593220338983,40,152.54237288135593,40C151.52542372881356,40,150.50847457627117,40,149.4915254237288,40C148.47457627118644,40,147.45762711864407,40,146.4406779661017,40C145.42372881355934,40,144.40677966101694,40,143.38983050847457,40C142.3728813559322,40,141.35593220338984,40,140.33898305084747,40C139.3220338983051,40,138.3050847457627,40,137.28813559322035,40C136.27118644067798,40,135.25423728813558,40,134.23728813559322,40C133.22033898305085,40,132.20338983050846,40,131.1864406779661,40C130.16949152542372,40,129.15254237288136,40,128.135593220339,40C127.11864406779662,40,126.10169491525424,40,125.08474576271188,40C124.0677966101695,40,123.05084745762711,40,122.03389830508473,40C121.01694915254237,40,120,40,118.98305084745763,40C117.96610169491525,40,116.94915254237289,40,115.9322033898305,40C114.91525423728814,40,113.89830508474576,40,112.88135593220339,40C111.86440677966102,40,110.84745762711864,40,109.83050847457628,40C108.8135593220339,40,107.79661016949153,40,106.77966101694915,40C105.76271186440678,40,104.7457627118644,40,103.72881355932203,40C102.71186440677965,40,101.69491525423729,40,100.6779661016949,40C99.66101694915254,40,98.64406779661016,40,97.62711864406779,40C96.61016949152543,40,95.59322033898306,40,94.57627118644069,40C93.55932203389831,40,92.54237288135593,40,91.52542372881355,40C90.50847457627118,40,89.49152542372882,40,88.47457627118645,40C87.45762711864407,40,86.4406779661017,40,85.42372881355932,40C84.40677966101696,40,83.38983050847457,40,82.37288135593221,40C81.35593220338983,40,80.33898305084746,40,79.32203389830508,40C78.30508474576271,40,77.28813559322033,40,76.27118644067797,40C75.2542372881356,40,74.23728813559322,40,73.22033898305085,40C72.20338983050848,40,71.1864406779661,40,70.16949152542374,40C69.15254237288136,40,68.13559322033899,40,67.11864406779661,40C66.10169491525424,40,65.08474576271186,40,64.0677966101695,40C63.05084745762712,40,62.03389830508474,40,61.01694915254237,40C59.99999999999999,40,58.983050847457626,40,57.96610169491525,40C56.94915254237288,40,55.93220338983051,40,54.91525423728814,40C53.898305084745765,40,52.88135593220339,40,51.86440677966102,40C50.847457627118644,40,49.83050847457627,40,48.813559322033896,40C47.79661016949152,40,46.77966101694915,40,45.762711864406775,40C44.7457627118644,40,43.728813559322035,40,42.71186440677966,40C41.69491525423729,40,40.67796610169491,40,39.66101694915254,40C38.644067796610166,40,37.6271186440678,40,36.610169491525426,40C35.59322033898305,40,34.57627118644068,40,33.559322033898304,40C32.54237288135593,40,31.525423728813557,40,30.508474576271183,40C29.491525423728813,40,28.47457627118644,40,27.45762711864407,40C26.440677966101696,40,25.423728813559322,40,24.406779661016948,40C23.389830508474574,40,22.372881355932204,40,21.35593220338983,40C20.338983050847457,40,19.322033898305087,40,18.305084745762713,40C17.28813559322034,40,16.271186440677965,40,15.254237288135592,40C14.23728813559322,40,13.220338983050846,40,12.203389830508474,40C11.186440677966102,40,10.169491525423728,40,9.152542372881356,40C8.135593220338983,40,7.11864406779661,40,6.101694915254237,40C5.084745762711864,40,4.067796610169491,40,3.0508474576271185,40C2.0338983050847457,40,1.0169491525423728,40,0,40Z"></path><path class="line" stroke="black" fill="none" d="M0,3.7862857142857154C1.0169491525423728,3.506285714285715,2.0338983050847457,3.226285714285715,3.0508474576271185,3.226285714285715C4.067796610169491,3.226285714285715,5.084745762711864,3.264000000000001,6.101694915254237,3.296000000000001C7.11864406779661,3.328000000000001,8.135593220338983,3.418285714285716,9.152542372881356,3.418285714285716C10.169491525423728,3.418285714285716,11.186440677966102,1.8022857142857163,12.203389830508474,1.8022857142857163C13.220338983050846,1.8022857142857163,14.23728813559322,2.628571428571429,15.254237288135592,2.628571428571429C16.271186440677965,2.628571428571429,17.28813559322034,2.473142857142858,18.305084745762713,2.473142857142858C19.322033898305087,2.473142857142858,20.338983050847457,2.6708571428571437,21.35593220338983,2.8811428571428577C22.372881355932204,3.0914285714285716,23.389830508474574,3.4817142857142853,24.406779661016948,3.734857142857142C25.423728813559322,3.987999999999999,26.440677966101696,4.242285714285713,27.45762711864407,4.3999999999999995C28.47457627118644,4.557714285714285,29.491525423728813,4.506476190476193,30.508474576271183,4.681142857142859C31.525423728813557,4.855809523809526,32.54237288135593,5.208761904761905,33.559322033898304,5.4479999999999995C34.57627118644068,5.687238095238094,35.59322033898305,5.670857142857142,36.610169491525426,6.116571428571427C37.6271186440678,6.562285714285711,38.644067796610166,8.283619047619046,39.66101694915254,8.952C40.67796610169491,9.620380952380954,41.69491525423729,9.833904761904762,42.71186440677966,10.126857142857144C43.728813559322035,10.419809523809525,44.7457627118644,10.709714285714288,45.762711864406775,10.709714285714288C46.77966101694915,10.709714285714288,47.79661016949152,9.852571428571428,48.813559322033896,9.852571428571428C49.83050847457627,9.852571428571428,50.847457627118644,10.484190476190477,51.86440677966102,10.768C52.88135593220339,11.051809523809524,53.898305084745765,11.32095238095238,54.91525423728814,11.555428571428571C55.93220338983051,11.789904761904761,56.94915254237288,12.174857142857146,57.96610169491525,12.174857142857146C58.983050847457626,12.174857142857146,59.99999999999999,11.151238095238096,61.01694915254237,10.987428571428573C62.03389830508474,10.823619047619049,63.05084745762712,10.83809523809524,64.0677966101695,10.741714285714288C65.08474576271186,10.645333333333335,66.10169491525424,10.409142857142859,67.11864406779661,10.409142857142859C68.13559322033899,10.409142857142859,69.15254237288136,11.533714285714282,70.16949152542374,11.72342857142857C71.1864406779661,11.913142857142857,72.20338983050848,11.85257142857143,73.22033898305085,12.008000000000001C74.23728813559322,12.163428571428572,75.2542372881356,12.430285714285715,76.27118644067797,12.656C77.28813559322033,12.881714285714287,78.30508474576271,12.992761904761906,79.32203389830508,13.362285714285713C80.33898305084746,13.731809523809522,81.35593220338983,14.399619047619046,82.37288135593221,14.873142857142856C83.38983050847457,15.346666666666664,84.40677966101696,15.738285714285714,85.42372881355932,16.20342857142857C86.4406779661017,16.66857142857143,87.45762711864407,17.278857142857145,88.47457627118645,17.664C89.49152542372882,18.049142857142854,90.50847457627118,18.167238095238098,91.52542372881355,18.514285714285712C92.54237288135593,18.861333333333334,93.55932203389831,19.268380952380948,94.57627118644069,19.746285714285715C95.59322033898306,20.224190476190476,96.61016949152543,20.872952380952384,97.62711864406779,21.38171428571429C98.64406779661016,21.890476190476196,99.66101694915254,22.399238095238097,100.6779661016949,22.798857142857145C101.69491525423729,23.198476190476192,102.71186440677965,23.491619047619047,103.72881355932203,23.77942857142857C104.7457627118644,24.067238095238093,105.76271186440678,24.232761904761908,106.77966101694915,24.525714285714287C107.79661016949153,24.81866666666667,108.8135593220339,25.29828571428571,109.83050847457628,25.537142857142854C110.84745762711864,25.775999999999996,111.86440677966102,25.759809523809523,112.88135593220339,25.95885714285714C113.89830508474576,26.15790476190476,114.91525423728814,26.552,115.9322033898305,26.73142857142857C116.94915254237289,26.910857142857143,117.96610169491525,26.88095238095238,118.98305084745763,27.03542857142857C120,27.189904761904764,121.01694915254237,27.468190476190475,122.03389830508473,27.658285714285714C123.05084745762711,27.848380952380953,124.0677966101695,28.019809523809524,125.08474576271188,28.176000000000002C126.10169491525424,28.332190476190476,127.11864406779662,28.47409523809524,128.135593220339,28.595428571428574C129.15254237288136,28.716761904761906,130.16949152542372,28.808,131.1864406779661,28.904C132.20338983050846,29,133.22033898305085,29.109714285714286,134.23728813559322,29.17142857142857C135.25423728813558,29.233142857142855,136.27118644067798,29.205714285714286,137.28813559322035,29.274285714285714C138.3050847457627,29.34285714285714,139.3220338983051,29.629523809523807,140.33898305084747,29.759999999999998C141.35593220338984,29.89047619047619,142.3728813559322,29.991619047619047,143.38983050847457,30.057142857142857C144.40677966101694,30.122666666666667,145.42372881355934,30.089904761904762,146.4406779661017,30.155428571428573C147.45762711864407,30.220952380952383,148.47457627118644,30.476571428571432,149.4915254237288,30.476571428571432C150.50847457627117,30.476571428571432,151.52542372881356,30.424,152.54237288135593,30.424C153.5593220338983,30.424,154.5762711864407,30.51009523809524,155.59322033898306,30.682285714285715C156.61016949152543,30.85447619047619,157.6271186440678,31.27466666666667,158.64406779661016,31.50857142857143C159.66101694915253,31.742476190476193,160.67796610169492,32.08571428571429,161.6949152542373,32.08571428571429C162.71186440677965,32.08571428571429,163.72881355932205,32.08114285714286,164.74576271186442,32.08114285714286C165.76271186440678,32.08114285714286,166.77966101694915,32.141714285714286,167.79661016949152,32.25714285714286C168.81355932203388,32.37257142857143,169.83050847457628,32.620761904761906,170.84745762711864,32.773714285714284C171.864406779661,32.92666666666666,172.8813559322034,33.17485714285714,173.89830508474577,33.17485714285714C174.91525423728814,33.17485714285714,175.93220338983053,32.808,176.9491525423729,32.808C177.96610169491527,32.808,178.98305084745763,33.117714285714285,180,33.42742857142857"></path><path class="axis-ceiling" stroke-width="1" stroke="black" fill="none" d="M175,0L180,0"></path><text class="axis-ceiling-label" font-family="sans-serif" text-anchor="end" font-size="10px" x="170" y="2.5">35000</text></g></svg>