<svg xmlns="http://www.w3.org/2000/svg" viewBox="0 0 180 60"><g transform="translate(0,20)"><path class="area" fill="rgba(0, 0, 0, 0.2)" d="M0,23.440000000000005C1.0169491525423728,23.840000000000003,2.0338983050847457,24.24,3.0508474576271185,24.24C4.067796610169491,24.24,5.084745762711864,18.168888888888887,6.101694915254237,15.813333333333333C7.11864406779661,13.457777777777777,8.135593220338983,10.10666666666667,9.152542372881356,10.10666666666667C10.169491525423728,10.10666666666667,11.186440677966102,10.89777777777778,12.203389830508474,12.480000000000002C13.220338983050846,14.062222222222225,14.23728813559322,24.72,15.254237288135592,24.72C16.271186440677965,24.72,17.28813559322034,16.115555555555556,18.305084745762713,15.333333333333332C19.322033898305087,14.55111111111111,20.338983050847457,14.537777777777778,21.35593220338983,14.16C22.372881355932204,13.782222222222222,23.389830508474574,13.066666666666666,24.406779661016948,13.066666666666666C25.423728813559322,13.066666666666666,26.440677966101696,16.16888888888889,27.45762711864407,17.226666666666667C28.47457627118644,18.284444444444443,29.491525423728813,18.026666666666667,30.508474576271183,19.41333333333333C31.525423728813557,20.799999999999997,32.54237288135593,23.977777777777778,33.559322033898304,25.546666666666667C34.57627118644068,27.115555555555556,35.59322033898305,28.826666666666668,36.610169491525426,28.826666666666668C37.6271186440678,28.826666666666668,38.644067796610166,21.084444444444447,39.66101694915254,20.48C40.67796610169491,19.875555555555554,41.69491525423729,20.066666666666666,42.71186440677966,19.57333333333333C43.728813559322035,19.08,44.7457627118644,17.519999999999996,45.762711864406775,17.519999999999996C46.77966101694915,17.519999999999996,47.79661016949152,21.85777777777778,48.813559322033896,22.693333333333335C49.83050847457627,23.52888888888889,50.847457627118644,23.439999999999998,51.86440677966102,23.946666666666665C52.88135593220339,24.453333333333333,53.898305084745765,24.568888888888885,54.91525423728814,25.733333333333334C55.93220338983051,26.89777777777778,56.94915254237288,30.933333333333334,57.96610169491525,30.933333333333334C58.983050847457626,30.933333333333334,59.99999999999999,27.337777777777774,61.01694915254237,25.546666666666667C62.03389830508474,23.755555555555553,63.05084745762712,20.186666666666664,64.0677966101695,20.186666666666664C65.08474576271186,20.186666666666664,66.10169491525424,21.18666666666667,67.11864406779661,21.76C68.13559322033899,22.333333333333336,69.15254237288136,22.98222222222222,70.16949152542374,23.626666666666665C71.1864406779661,24.271111111111107,72.20338983050848,24.88888888888889,73.22033898305085,25.62666666666667C74.23728813559322,26.364444444444448,75.2542372881356,26.813333333333336,76.27118644067797,28.053333333333335C77.28813559322033,29.293333333333333,78.30508474576271,33.06666666666666,79.32203389830508,33.06666666666666C80.33898305084746,33.06666666666666,81.35593220338983,27.72444444444444,82.37288135593221,27.439999999999998C83.38983050847457,27.155555555555555,84.40677966101696,27.17777777777778,85.42372881355932,27.013333333333335C86.4406779661017,26.84888888888889,87.45762711864407,26.453333333333333,88.47457627118645,26.453333333333333C89.49152542372882,26.453333333333333,90.50847457627118,27.093333333333337,91.52542372881355,27.413333333333334C92.54237288135593,27.733333333333338,93.55932203389831,27.83555555555555,94.57627118644069,28.373333333333335C95.59322033898306,28.91111111111111,96.61016949152543,29.74666666666667,97.62711864406779,30.64C98.64406779661016,31.533333333333335,99.66101694915254,33.733333333333334,100.6779661016949,33.733333333333334C101.69491525423729,33.733333333333334,102.71186440677965,31.07111111111111,103.72881355932203,30.16C104.7457627118644,29.248888888888892,105.76271186440678,28.266666666666666,106.77966101694915,28.266666666666666C107.79661016949153,28.266666666666666,108.8135593220339,28.275555555555556,109.83050847457628,28.293333333333337C110.84745762711864,28.311111111111117,111.86440677966102,28.4,112.88135593220339,28.4C113.89830508474576,28.4,114.91525423728814,27.546666666666667,115.9322033898305,27.546666666666667C116.94915254237289,27.546666666666667,117.96610169491525,30.746666666666666,118.98305084745763,31.893333333333334C120,33.03999999999999,121.01694915254237,34.42666666666667,122.03389830508473,34.42666666666667C123.05084745762711,34.42666666666667,124.0677966101695,32.31111111111112,125.08474576271188,31.013333333333332C126.10169491525424,29.715555555555557,127.11864406779662,26.639999999999997,128.135593220339,26.639999999999997C129.15254237288136,26.639999999999997,130.16949152542372,27.946666666666665,131.1864406779661,27.946666666666665C132.20338983050846,27.946666666666665,133.22033898305085,27.919999999999998,134.23728813559322,27.919999999999998C135.25423728813558,27.919999999999998,136.27118644067798,29.44,137.28813559322035,29.653333333333336C138.3050847457627,29.86666666666667,139.3220338983051,29.76,140.33898305084747,29.973333333333336C141.35593220338984,30.186666666666667,142.3728813559322,33.70666666666666,143.38983050847457,33.70666666666666C144.40677966101694,33.70666666666666,145.42372881355934,30.102222222222228,146.4406779661017,28.4C147.45762711864407,26.697777777777784,148.47457627118644,23.493333333333332,149.4915254237288,23.493333333333332C150.50847457627117,23.493333333333332,151.52542372881356,24.65777777777778,152.54237288135593,24.8C153.5593220338983,24.94222222222222,154.5762711864407,24.871111111111112,155.59322033898306,25.013333333333332C156.61016949152543,25.15555555555555,157.6271186440678,25.26222222222222,158.64406779661016,25.76C159.66101694915253,26.257777777777786,160.67796610169492,28.742222222222217,161.6949152542373,29.706666666666663C162.71186440677965,30.67111111111111,163.72881355932205,31.546666666666667,164.74576271186442,31.546666666666667C165.76271186440678,31.546666666666667,166.77966101694915,29.071111111111097,167.79661016949152,27.306666666666665C168.81355932203388,25.542222222222215,169.83050847457628,20.96,170.84745762711864,20.96C171.864406779661,20.96,172.8813559322034,21.822222222222223,173.89830508474577,22.053333333333335C174.91525423728814,22.284444444444446,175.93220338983053,22.400000000000002,176.9491525423729,22.400000000000002C177.96610169491527,22.400000000000002,178.98305084745763,21.653333333333336,180,20.906666666666666L180,40C178.98305084745763,40,177.96610169491527,40,176.9491525423729,40C175.93220338983053,40,174.91525423728814,40,173.89830508474577,40C172.8813559322034,40,171.864406779661,40,170.84745762711864,40C169.83050847457628,40,168.81355932203388,40,167.79661016949152,40C166.77966101694915,40,165.76271186440678,40,164.74576271186442,40C163.72881355932205,40,162.71186440677965,40,161.6949152542373,40C160.67796610169492,40,159.66101694915253,40,158.64406779661016,40C157.6271186440678,40,156.61016949152543,40,155.59322033898306,40C154.5762711864407,40,153.5593220338983,40,152.54237288135593,40C151.52542372881356,40,150.50847457627117,40,149.4915254237288,40C148.47457627118644,40,147.45762711864407,40,146.4406779661017,40C145.42372881355934,40,144.40677966101694,40,143.38983050847457,40C142.3728813559322,40,141.35593220338984,40,140.33898305084747,40C139.3220338983051,40,138.3050847457627,40,137.28813559322035,40C136.27118644067798,40,135.25423728813558,40,134.23728813559322,40C133.22033898305085,40,132.20338983050846,40,131.1864406779661,40C130.16949152542372,40,129.15254237288136,40,128.135593220339,40C127.11864406779662,40,126.10169491525424,40,125.08474576271188,40C124.0677966101695,40,123.05084745762711,40,122.03389830508473,40C121.01694915254237,40,120,40,118.98305084745763,40C117.96610169491525,40,116.94915254237289,40,115.9322033898305,40C114.91525423728814,40,113.89830508474576,40,112.88135593220339,40C111.86440677966102,40,110.84745762711864,40,109.83050847457628,40C108.8135593220339,40,107.79661016949153,40,106.77966101694915,40C105.76271186440678,40,104.7457627118644,40,103.72881355932203,40C102.71186440677965,40,101.69491525423729,40,100.6779661016949,40C99.66101694915254,40,98.64406779661016,40,97.62711864406779,40C96.61016949152543,40,95.59322033898306,40,94.57627118644069,40C93.55932203389831,40,92.54237288135593,40,91.52542372881355,40C90.50847457627118,40,89.49152542372882,40,88.47457627118645,40C87.45762711864407,40,86.4406779661017,40,85.42372881355932,40C84.40677966101696,40,83.38983050847457,40,82.37288135593221,40C81.35593220338983,40,80.33898305084746,40,79.32203389830508,40C78.30508474576271,40,77.28813559322033,40,76.27118644067797,40C75.2542372881356,40,74.23728813559322,40,73.22033898305085,40C72.20338983050848,40,71.1864406779661,40,70.16949152542374,40C69.15254237288136,40,68.13559322033899,40,67.11864406779661,40C66.10169491525424,40,65.08474576271186,40,64.0677966101695,40C63.05084745762712,40,62.03389830508474,40,61.01694915254237,40C59.99999999999999,40,58.983050847457626,40,57.96610169491525,40C56.94915254237288,40,55.93220338983051,40,54.91525423728814,40C53.898305084745765,40,52.88135593220339,40,51.86440677966102,40C50.847457627118644,40,49.83050847457627,40,48.813559322033896,40C47.79661016949152,40,46.77966101694915,40,45.762711864406775,40C44.7457627118644,40,43.728813559322035,40,42.71186440677966,40C41.69491525423729,40,40.67796610169491,40,39.66101694915254,40C38.644067796610166,40,37.6271186440678,40,36.610169491525426,40C35.59322033898305,40,34.57627118644068,40,33.559322033898304,40C32.54237288135593,40,31.525423728813557,40,30.508474576271183,40C29.491525423728813,40,28.47457627118644,40,27.45762711864407,40C26.440677966101696,40,25.423728813559322,40,24.406779661016948,40C23.389830508474574,40,22.372881355932204,40,21.35593220338983,40C20.338983050847457,40,19.322033898305087,40,18.305084745762713,40C17.28813559322034,40,16.271186440677965,40,15.254237288135592,40C14.23728813559322,40,13.220338983050846,40,12.203389830508474,40C11.186440677966102,40,10.169491525423728,40,9.152542372881356,40C8.135593220338983,40,7.11864406779661,40,6.101694915254237,40C5.084745762711864,40,4.067796610169491,40,3.0508474576271185,40C2.0338983050847457,40,1.0169491525423728,40,0,40Z"></path><path class="line" stroke="black" fill="none" d="M0,23.440000000000005C1.0169491525423728,23.840000000000003,2.0338983050847457,24.24,3.0508474576271185,24.24C4.067796610169491,24.24,5.084745762711864,18.168888888888887,6.101694915254237,15.813333333333333C7.11864406779661,13.457777777777777,8.135593220338983,10.10666666666667,9.152542372881356,10.10666666666667C10.169491525423728,10.10666666666667,11.186440677966102,10.89777777777778,12.203389830508474,12.480000000000002C13.220338983050846,14.062222222222225,14.23728813559322,24.72,15.254237288135592,24.72C16.271186440677965,24.72,17.28813559322034,16.115555555555556,18.305084745762713,15.333333333333332C19.322033898305087,14.55111111111111,20.338983050847457,14.537777777777778,21.35593220338983,14.16C22.372881355932204,13.782222222222222,23.389830508474574,13.066666666666666,24.406779661016948,13.066666666666666C25.423728813559322,13.066666666666666,26.440677966101696,16.16888888888889,27.45762711864407,17.226666666666667C28.47457627118644,18.284444444444443,29.491525423728813,18.026666666666667,30.508474576271183,19.41333333333333C31.525423728813557,20.799999999999997,32.54237288135593,23.977777777777778,33.559322033898304,25.546666666666667C34.57627118644068,27.115555555555556,35.59322033898305,28.826666666666668,36.610169491525426,28.826666666666668C37.6271186440678,28.826666666666668,38.644067796610166,21.084444444444447,39.66101694915254,20.48C40.67796610169491,19.875555555555554,41.69491525423729,20.066666666666666,42.71186440677966,19.57333333333333C43.728813559322035,19.08,44.7457627118644,17.519999999999996,45.762711864406775,17.519999999999996C46.77966101694915,17.519999999999996,47.79661016949152,21.85777777777778,48.813559322033896,22.693333333333335C49.83050847457627,23.52888888888889,50.847457627118644,23.439999999999998,51.86440677966102,23.946666666666665C52.88135593220339,24.453333333333333,53.898305084745765,24.568888888888885,54.91525423728814,25.733333333333334C55.93220338983051,26.89777777777778,56.94915254237288,30.933333333333334,57.96610169491525,30.933333333333334C58.983050847457626,30.933333333333334,59.99999999999999,27.337777777777774,61.01694915254237,25.546666666666667C62.03389830508474,23.755555555555553,63.05084745762712,20.186666666666664,64.0677966101695,20.186666666666664C65.08474576271186,20.186666666666664,66.10169491525424,21.18666666666667,67.11864406779661,21.76C68.13559322033899,22.333333333333336,69.15254237288136,22.98222222222222,70.16949152542374,23.626666666666665C71.1864406779661,24.271111111111107,72.20338983050848,24.88888888888889,73.22033898305085,25.62666666666667C74.23728813559322,26.364444444444448,75.2542372881356,26.813333333333336,76.27118644067797,28.053333333333335C77.28813559322033,29.293333333333333,78.30508474576271,33.06666666666666,79.32203389830508,33.06666666666666C80.33898305084746,33.06666666666666,81.35593220338983,27.72444444444444,82.37288135593221,27.439999999999998C83.38983050847457,27.155555555555555,84.40677966101696,27.17777777777778,85.42372881355932,27.013333333333335C86.4406779661017,26.84888888888889,87.45762711864407,26.453333333333333,88.47457627118645,26.453333333333333C89.49152542372882,26.453333333333333,90.50847457627118,27.093333333333337,91.52542372881355,27.413333333333334C92.54237288135593,27.733333333333338,93.55932203389831,27.83555555555555,94.57627118644069,28.373333333333335C95.59322033898306,28.91111111111111,96.61016949152543,29.74666666666667,97.62711864406779,30.64C98.64406779661016,31.533333333333335,99.66101694915254,33.733333333333334,100.6779661016949,33.733333333333334C101.69491525423729,33.733333333333334,102.71186440677965,31.07111111111111,103.72881355932203,30.16C104.7457627118644,29.248888888888892,105.76271186440678,28.266666666666666,106.77966101694915,28.266666666666666C107.79661016949153,28.266666666666666,108.8135593220339,28.275555555555556,109.83050847457628,28.293333333333337C110.84745762711864,28.311111111111117,111.86440677966102,28.4,112.88135593220339,28.4C113.89830508474576,28.4,114.91525423728814,27.546666666666667,115.9322033898305,27.546666666666667C116.94915254237289,27.546666666666667,117.96610169491525,30.746666666666666,118.98305084745763,31.893333333333334C120,33.03999999999999,121.01694915254237,34.42666666666667,122.03389830508473,34.42666666666667C123.05084745762711,34.42666666666667,124.0677966101695,32.31111111111112,125.08474576271188,31.013333333333332C126.10169491525424,29.715555555555557,127.11864406779662,26.639999999999997,128.135593220339,26.639999999999997C129.15254237288136,26.639999999999997,130.16949152542372,27.946666666666665,131.1864406779661,27.946666666666665C132.20338983050846,27.946666666666665,133.22033898305085,27.919999999999998,134.23728813559322,27.919999999999998C135.25423728813558,27.919999999999998,136.27118644067798,29.44,137.28813559322035,29.653333333333336C138.3050847457627,29.86666666666667,139.3220338983051,29.76,140.33898305084747,29.973333333333336C141.35593220338984,30.186666666666667,142.3728813559322,33.70666666666666,143.38983050847457,33.70666666666666C144.40677966101694,33.70666666666666,145.42372881355934,30.102222222222228,146.4406779661017,28.4C147.45762711864407,26.697777777777784,148.47457627118644,23.493333333333332,149.4915254237288,23.493333333333332C150.50847457627117,23.493333333333332,151.52542372881356,24.65777777777778,152.54237288135593,24.8C153.5593220338983,24.94222222222222,154.5762711864407,24.871111111111112,155.59322033898306,25.013333333333332C156.61016949152543,25.15555555555555,157.6271186440678,25.26222222222222,158.64406779661016,25.76C159.66101694915253,26.257777777777786,160.67796610169492,28.742222222222217,161.6949152542373,29.706666666666663C162.71186440677965,30.67111111111111,163.72881355932205,31.546666666666667,164.74576271186442,31.546666666666667C165.76271186440678,31.546666666666667,166.77966101694915,29.071111111111097,167.79661016949152,27.306666666666665C168.81355932203388,25.542222222222215,169.83050847457628,20.96,170.84745762711864,20.96C171.864406779661,20.96,172.8813559322034,21.822222222222223,173.89830508474577,22.053333333333335C174.91525423728814,22.284444444444446,175.93220338983053,22.400000000000002,176.9491525423729,22.400000000000002C177.96610169491527,22.400000000000002,178.98305084745763,21.653333333333336,180,20.906666666666666"></path><path class="axis-ceiling" stroke-width="1" stroke="black" fill="none" d="M175,0L180,0"></path><text class="axis-ceiling-label" font-family="sans-serif" text-anchor="end" font-size="10px" x="170" y="2.5">1500</text></g></svg>