<svg xmlns="http://www.w3.org/2000/svg" viewBox="0 0 180 60"><g transform="translate(0,20)"><path class="area" fill="rgba(0, 0, 0, 0.2)" d="M0,3.426C1.0169491525423728,2.822,2.0338983050847457,2.218,3.0508474576271185,2.218C4.067796610169491,2.218,5.084745762711864,2.3719999999999994,6.101694915254237,2.679999999999998C7.11864406779661,2.987999999999997,8.135593220338983,16.47,9.152542372881356,16.47C10.169491525423728,16.47,11.186440677966102,13.852000000000002,12.203389830508474,13.852000000000002C13.220338983050846,13.852000000000002,14.23728813559322,19.331999999999997,15.254237288135592,19.331999999999997C16.271186440677965,19.331999999999997,17.28813559322034,11.282333333333332,18.305084745762713,8.95C19.322033898305087,6.617666666666668,20.338983050847457,6.048666666666664,21.35593220338983,5.337999999999998C22.372881355932204,4.627333333333333,23.389830508474574,4.272,24.406779661016948,4.272C25.423728813559322,4.272,26.440677966101696,6.292666666666664,27.45762711864407,7.742C28.47457627118644,9.191333333333333,29.491525423728813,12.193333333333339,30.508474576271183,12.968000000000002C31.525423728813557,13.742666666666667,32.54237288135593,13.355333333333334,33.559322033898304,14.129999999999999C34.57627118644068,14.904666666666664,35.59322033898305,22.39,36.610169491525426,22.39C37.6271186440678,22.39,38.644067796610166,19.034666666666663,39.66101694915254,17.113999999999997C40.67796610169491,15.193333333333328,41.69491525423729,10.865999999999998,42.71186440677966,10.865999999999998C43.728813559322035,10.865999999999998,44.7457627118644,19.662000000000003,45.762711864406775,19.662000000000003C46.77966101694915,19.662000000000003,47.79661016949152,18.214333333333332,48.813559322033896,17.75C49.83050847457627,17.285666666666668,50.847457627118644,16.876,51.86440677966102,16.876C52.88135593220339,16.876,53.898305084745765,18.714666666666666,54.91525423728814,19.358C55.93220338983051,20.00133333333333,56.94915254237288,20.735999999999997,57.96610169491525,20.735999999999997C58.983050847457626,20.735999999999997,59.99999999999999,17.394333333333332,61.01694915254237,16.374C62.03389830508474,15.353666666666662,63.05084745762712,14.613999999999997,64.0677966101695,14.613999999999997C65.08474576271186,14.613999999999997,66.10169491525424,14.908666666666663,67.11864406779661,15.497999999999998C68.13559322033899,16.087333333333333,69.15254237288136,18.965999999999998,70.16949152542374,18.965999999999998C71.1864406779661,18.965999999999998,72.20338983050848,18.387999999999998,73.22033898305085,18.387999999999998C74.23728813559322,18.387999999999998,75.2542372881356,19.61133333333333,76.27118644067797,21.421999999999997C77.28813559322033,23.232666666666663,78.30508474576271,29.252000000000002,79.32203389830508,29.252000000000002C80.33898305084746,29.252000000000002,81.35593220338983,23.966333333333335,82.37288135593221,22.15C83.38983050847457,20.333666666666673,84.40677966101696,18.354,85.42372881355932,18.354C86.4406779661017,18.354,87.45762711864407,19.05366666666666,88.47457627118645,19.84C89.49152542372882,20.62633333333333,90.50847457627118,23.072,91.52542372881355,23.072C92.54237288135593,23.072,93.55932203389831,21.672000000000004,94.57627118644069,21.672000000000004C95.59322033898306,21.672000000000004,96.61016949152543,22.36066666666667,97.62711864406779,23.738C98.64406779661016,25.115333333333336,99.66101694915254,30.328,100.6779661016949,30.328C101.69491525423729,30.328,102.71186440677965,26.123000000000005,103.72881355932203,24.328000000000003C104.7457627118644,22.53300000000001,105.76271186440678,19.558,106.77966101694915,19.558C107.79661016949153,19.558,108.8135593220339,22.279333333333337,109.83050847457628,23.078000000000003C110.84745762711864,23.876666666666665,111.86440677966102,24.011000000000003,112.88135593220339,24.35C113.89830508474576,24.689,114.91525423728814,24.671000000000003,115.9322033898305,25.112000000000002C116.94915254237289,25.553,117.96610169491525,25.79966666666666,118.98305084745763,26.996000000000002C120,28.192333333333334,121.01694915254237,31.860666666666674,122.03389830508473,32.29C123.05084745762711,32.71933333333333,124.0677966101695,32.934,125.08474576271188,32.934C126.10169491525424,32.934,127.11864406779662,28.92066666666667,128.135593220339,27.14C129.15254237288136,25.35933333333334,130.16949152542372,22.25,131.1864406779661,22.25C132.20338983050846,22.25,133.22033898305085,25.422000000000004,134.23728813559322,25.422000000000004C135.25423728813558,25.422000000000004,136.27118644067798,25.305000000000003,137.28813559322035,25.12C138.3050847457627,24.935,139.3220338983051,24.312,140.33898305084747,24.312C141.35593220338984,24.312,142.3728813559322,30.912,143.38983050847457,30.912C144.40677966101694,30.912,145.42372881355934,25.96666666666667,146.4406779661017,24.308C147.45762711864407,22.649333333333345,148.47457627118644,20.96,149.4915254237288,20.96C150.50847457627117,20.96,151.52542372881356,23.22266666666667,152.54237288135593,23.548000000000002C153.5593220338983,23.873333333333335,154.5762711864407,23.759,155.59322033898306,24.036C156.61016949152543,24.313000000000002,157.6271186440678,25.21,158.64406779661016,25.21C159.66101694915253,25.21,160.67796610169492,24.201999999999998,161.6949152542373,24.201999999999998C162.71186440677965,24.201999999999998,163.72881355932205,31.232,164.74576271186442,31.232C165.76271186440678,31.232,166.77966101694915,27.48666666666666,167.79661016949152,26.064C168.81355932203388,24.641333333333325,169.83050847457628,22.83066666666667,170.84745762711864,22.696C171.864406779661,22.561333333333334,172.8813559322034,22.494,173.89830508474577,22.494C174.91525423728814,22.494,175.93220338983053,23.76266666666667,176.9491525423729,23.776000000000003C177.96610169491527,23.789333333333335,178.98305084745763,23.792666666666666,180,23.796L180,40C178.98305084745763,40,177.96610169491527,40,176.9491525423729,40C175.93220338983053,40,174.91525423728814,40,173.89830508474577,40C172.8813559322034,40,171.864406779661,40,170.84745762711864,40C169.83050847457628,40,168.81355932203388,40,167.79661016949152,40C166.77966101694915,40,165.76271186440678,40,164.74576271186442,40C163.72881355932205,40,162.71186440677965,40,161.6949152542373,40C160.67796610169492,40,159.66101694915253,40,158.64406779661016,40C157.6271186440678,40,156.61016949152543,40,155.59322033898306,40C154.5762711864407,40,153.5593220338983,40,152.54237288135593,40C151.52542372881356,40,150.50847457627117,40,149.4915254237288,40C148.47457627118644,40,147.45762711864407,40,146.4406779661017,40C145.42372881355934,40,144.40677966101694,40,143.38983050847457,40C142.3728813559322,40,141.35593220338984,40,140.33898305084747,40C139.3220338983051,40,138.3050847457627,40,137.28813559322035,40C136.27118644067798,40,135.25423728813558,40,134.23728813559322,40C133.22033898305085,40,132.20338983050846,40,131.1864406779661,40C130.16949152542372,40,129.15254237288136,40,128.135593220339,40C127.11864406779662,40,126.10169491525424,40,125.08474576271188,40C124.0677966101695,40,123.05084745762711,40,122.03389830508473,40C121.01694915254237,40,120,40,118.98305084745763,40C117.96610169491525,40,116.94915254237289,40,115.9322033898305,40C114.91525423728814,40,113.89830508474576,40,112.88135593220339,40C111.86440677966102,40,110.84745762711864,40,109.83050847457628,40C108.8135593220339,40,107.79661016949153,40,106.77966101694915,40C105.76271186440678,40,104.7457627118644,40,103.72881355932203,40C102.71186440677965,40,101.69491525423729,40,100.6779661016949,40C99.66101694915254,40,98.64406779661016,40,97.62711864406779,40C96.61016949152543,40,95.59322033898306,40,94.57627118644069,40C93.55932203389831,40,92.54237288135593,40,91.52542372881355,40C90.50847457627118,40,89.49152542372882,40,88.47457627118645,40C87.45762711864407,40,86.4406779661017,40,85.42372881355932,40C84.40677966101696,40,83.38983050847457,40,82.37288135593221,40C81.35593220338983,40,80.33898305084746,40,79.32203389830508,40C78.30508474576271,40,77.28813559322033,40,76.27118644067797,40C75.2542372881356,40,74.23728813559322,40,73.22033898305085,40C72.20338983050848,40,71.1864406779661,40,70.16949152542374,40C69.15254237288136,40,68.13559322033899,40,67.11864406779661,40C66.10169491525424,40,65.08474576271186,40,64.0677966101695,40C63.05084745762712,40,62.03389830508474,40,61.01694915254237,40C59.99999999999999,40,58.983050847457626,40,57.96610169491525,40C56.94915254237288,40,55.93220338983051,40,54.91525423728814,40C53.898305084745765,40,52.88135593220339,40,51.86440677966102,40C50.847457627118644,40,49.83050847457627,40,48.813559322033896,40C47.79661016949152,40,46.77966101694915,40,45.762711864406775,40C44.7457627118644,40,43.728813559322035,40,42.71186440677966,40C41.69491525423729,40,40.67796610169491,40,39.66101694915254,40C38.644067796610166,40,37.6271186440678,40,36.610169491525426,40C35.59322033898305,40,34.57627118644068,40,33.559322033898304,40C32.54237288135593,40,31.525423728813557,40,30.508474576271183,40C29.491525423728813,40,28.47457627118644,40,27.45762711864407,40C26.440677966101696,40,25.423728813559322,40,24.406779661016948,40C23.389830508474574,40,22.372881355932204,40,21.35593220338983,40C20.338983050847457,40,19.322033898305087,40,18.305084745762713,40C17.28813559322034,40,16.271186440677965,40,15.254237288135592,40C14.23728813559322,40,13.220338983050846,40,12.203389830508474,40C11.186440677966102,40,10.169491525423728,40,9.152542372881356,40C8.135593220338983,40,7.11864406779661,40,6.101694915254237,40C5.084745762711864,40,4.067796610169491,40,3.0508474576271185,40C2.0338983050847457,40,1.0169491525423728,40,0,40Z"></path><path class="line" stroke="black" fill="none" d="M0,3.426C1.0169491525423728,2.822,2.0338983050847457,2.218,3.0508474576271185,2.218C4.067796610169491,2.218,5.084745762711864,2.3719999999999994,6.101694915254237,2.679999999999998C7.11864406779661,2.987999999999997,8.135593220338983,16.47,9.152542372881356,16.47C10.169491525423728,16.47,11.186440677966102,13.852000000000002,12.203389830508474,13.852000000000002C13.220338983050846,13.852000000000002,14.23728813559322,19.331999999999997,15.254237288135592,19.331999999999997C16.271186440677965,19.331999999999997,17.28813559322034,11.282333333333332,18.305084745762713,8.95C19.322033898305087,6.617666666666668,20.338983050847457,6.048666666666664,21.35593220338983,5.337999999999998C22.372881355932204,4.627333333333333,23.389830508474574,4.272,24.406779661016948,4.272C25.423728813559322,4.272,26.440677966101696,6.292666666666664,27.45762711864407,7.742C28.47457627118644,9.191333333333333,29.491525423728813,12.193333333333339,30.508474576271183,12.968000000000002C31.525423728813557,13.742666666666667,32.54237288135593,13.355333333333334,33.559322033898304,14.129999999999999C34.57627118644068,14.904666666666664,35.59322033898305,22.39,36.610169491525426,22.39C37.6271186440678,22.39,38.644067796610166,19.034666666666663,39.66101694915254,17.113999999999997C40.67796610169491,15.193333333333328,41.69491525423729,10.865999999999998,42.71186440677966,10.865999999999998C43.728813559322035,10.865999999999998,44.7457627118644,19.662000000000003,45.762711864406775,19.662000000000003C46.77966101694915,19.662000000000003,47.79661016949152,18.214333333333332,48.813559322033896,17.75C49.83050847457627,17.285666666666668,50.847457627118644,16.876,51.86440677966102,16.876C52.88135593220339,16.876,53.898305084745765,18.714666666666666,54.91525423728814,19.358C55.93220338983051,20.00133333333333,56.94915254237288,20.735999999999997,57.96610169491525,20.735999999999997C58.983050847457626,20.735999999999997,59.99999999999999,17.394333333333332,61.01694915254237,16.374C62.03389830508474,15.353666666666662,63.05084745762712,14.613999999999997,64.0677966101695,14.613999999999997C65.08474576271186,14.613999999999997,66.10169491525424,14.908666666666663,67.11864406779661,15.497999999999998C68.13559322033899,16.087333333333333,69.15254237288136,18.965999999999998,70.16949152542374,18.965999999999998C71.1864406779661,18.965999999999998,72.20338983050848,18.387999999999998,73.22033898305085,18.387999999999998C74.23728813559322,18.387999999999998,75.2542372881356,19.61133333333333,76.27118644067797,21.421999999999997C77.28813559322033,23.232666666666663,78.30508474576271,29.252000000000002,79.32203389830508,29.252000000000002C80.33898305084746,29.252000000000002,81.35593220338983,23.966333333333335,82.37288135593221,22.15C83.38983050847457,20.333666666666673,84.40677966101696,18.354,85.42372881355932,18.354C86.4406779661017,18.354,87.45762711864407,19.05366666666666,88.47457627118645,19.84C89.49152542372882,20.62633333333333,90.50847457627118,23.072,91.52542372881355,23.072C92.54237288135593,23.072,93.55932203389831,21.672000000000004,94.57627118644069,21.672000000000004C95.59322033898306,21.672000000000004,96.61016949152543,22.36066666666667,97.62711864406779,23.738C98.64406779661016,25.115333333333336,99.66101694915254,30.328,100.6779661016949,30.328C101.69491525423729,30.328,102.71186440677965,26.123000000000005,103.72881355932203,24.328000000000003C104.7457627118644,22.53300000000001,105.76271186440678,19.558,106.77966101694915,19.558C107.79661016949153,19.558,108.8135593220339,22.279333333333337,109.83050847457628,23.078000000000003C110.84745762711864,23.876666666666665,111.86440677966102,24.011000000000003,112.88135593220339,24.35C113.89830508474576,24.689,114.91525423728814,24.671000000000003,115.9322033898305,25.112000000000002C116.94915254237289,25.553,117.96610169491525,25.79966666666666,118.98305084745763,26.996000000000002C120,28.192333333333334,121.01694915254237,31.860666666666674,122.03389830508473,32.29C123.05084745762711,32.71933333333333,124.0677966101695,32.934,125.08474576271188,32.934C126.10169491525424,32.934,127.11864406779662,28.92066666666667,128.135593220339,27.14C129.15254237288136,25.35933333333334,130.16949152542372,22.25,131.1864406779661,22.25C132.20338983050846,22.25,133.22033898305085,25.422000000000004,134.23728813559322,25.422000000000004C135.25423728813558,25.422000000000004,136.27118644067798,25.305000000000003,137.28813559322035,25.12C138.3050847457627,24.935,139.3220338983051,24.312,140.33898305084747,24.312C141.35593220338984,24.312,142.3728813559322,30.912,143.38983050847457,30.912C144.40677966101694,30.912,145.42372881355934,25.96666666666667,146.4406779661017,24.308C147.45762711864407,22.649333333333345,148.47457627118644,20.96,149.4915254237288,20.96C150.50847457627117,20.96,151.52542372881356,23.22266666666667,152.54237288135593,23.548000000000002C153.5593220338983,23.873333333333335,154.5762711864407,23.759,155.59322033898306,24.036C156.61016949152543,24.313000000000002,157.6271186440678,25.21,158.64406779661016,25.21C159.66101694915253,25.21,160.67796610169492,24.201999999999998,161.6949152542373,24.201999999999998C162.71186440677965,24.201999999999998,163.72881355932205,31.232,164.74576271186442,31.232C165.76271186440678,31.232,166.77966101694915,27.48666666666666,167.79661016949152,26.064C168.81355932203388,24.641333333333325,169.83050847457628,22.83066666666667,170.84745762711864,22.696C171.864406779661,22.561333333333334,172.8813559322034,22.494,173.89830508474577,22.494C174.91525423728814,22.494,175.93220338983053,23.76266666666667,176.9491525423729,23.776000000000003C177.96610169491527,23.789333333333335,178.98305084745763,23.792666666666666,180,23.796"></path><path class="axis-ceiling" stroke-width="1" stroke="black" fill="none" d="M175,0L180,0"></path><text class="axis-ceiling-label" font-family="sans-serif" text-anchor="end" font-size="10px" x="170" y="2.5">20000</text></g></svg>