<svg xmlns="http://www.w3.org/2000/svg" viewBox="0 0 180 60"><g transform="translate(0,20)"><path class="area" fill="rgba(0, 0, 0, 0.2)" d="M0,8.639999999999999C1.0344827586206897,12.879999999999999,2.068965517241379,17.12,3.103448275862069,17.12C4.137931034482759,17.12,5.172413793103448,12.000000000000002,6.206896551724138,12.000000000000002C7.241379310344827,12.000000000000002,8.275862068965516,24.48,9.310344827586206,24.48C10.344827586206897,24.48,11.379310344827585,17.759999999999998,12.413793103448276,17.759999999999998C13.448275862068966,17.759999999999998,14.482758620689655,17.759999999999998,15.517241379310345,17.759999999999998C16.551724137931036,17.759999999999998,17.586206896551722,25.6,18.620689655172413,25.6C19.655172413793103,25.6,20.689655172413794,20.96,21.724137931034484,20.96C22.758620689655174,20.96,23.79310344827586,22.640000000000004,24.82758620689655,23.520000000000003C25.862068965517242,24.400000000000002,26.896551724137932,25.14666666666667,27.931034482758623,26.240000000000002C28.965517241379313,27.333333333333336,30,30.08,31.03448275862069,30.08C32.06896551724138,30.08,33.103448275862064,28.24,34.137931034482754,27.68C35.172413793103445,27.119999999999997,36.206896551724135,26.72,37.241379310344826,26.72C38.275862068965516,26.72,39.310344827586206,28.400000000000002,40.3448275862069,28.96C41.37931034482759,29.52,42.41379310344828,30.08,43.44827586206897,30.08C44.48275862068966,30.08,45.51724137931035,29.46666666666667,46.55172413793104,29.28C47.58620689655173,29.093333333333334,48.62068965517241,29.093333333333334,49.6551724137931,28.96C50.689655172413794,28.826666666666668,51.72413793103448,28.8,52.75862068965517,28.479999999999997C53.79310344827586,28.159999999999993,54.827586206896555,26.453333333333337,55.862068965517246,25.44C56.896551724137936,24.42666666666667,57.93103448275862,23.653333333333332,58.96551724137931,22.400000000000002C60,21.14666666666667,61.03448275862069,17.919999999999998,62.06896551724138,17.919999999999998C63.10344827586207,17.919999999999998,64.13793103448276,22.66666666666667,65.17241379310344,23.200000000000003C66.20689655172413,23.733333333333334,67.24137931034483,24,68.27586206896551,24C69.3103448275862,24,70.34482758620689,17.599999999999998,71.37931034482759,17.599999999999998C72.41379310344827,17.599999999999998,73.44827586206897,21.44,74.48275862068965,21.44C75.51724137931033,21.44,76.55172413793103,14.053333333333333,77.58620689655172,11.520000000000001C78.62068965517241,8.986666666666657,79.6551724137931,6.240000000000001,80.6896551724138,6.240000000000001C81.72413793103448,6.240000000000001,82.75862068965517,19.52,83.79310344827586,19.52C84.82758620689656,19.52,85.86206896551724,11.200000000000001,86.89655172413794,11.200000000000001C87.93103448275862,11.200000000000001,88.96551724137932,14.16,90,15.2C91.0344827586207,16.240000000000002,92.06896551724138,15.946666666666665,93.10344827586208,17.44C94.13793103448276,18.933333333333323,95.17241379310344,24.48,96.20689655172413,24.48C97.24137931034483,24.48,98.27586206896551,21.6,99.3103448275862,21.6C100.3448275862069,21.6,101.37931034482759,23.040000000000003,102.41379310344828,23.040000000000003C103.44827586206897,23.040000000000003,104.48275862068965,16.8,105.51724137931033,16.8C106.55172413793103,16.8,107.58620689655172,18.186666666666667,108.62068965517241,19.68C109.65517241379311,21.173333333333332,110.6896551724138,24.479999999999997,111.72413793103449,25.76C112.75862068965517,27.04,113.79310344827587,26.8,114.82758620689656,27.68C115.86206896551724,28.56,116.89655172413794,31.04,117.93103448275862,31.04C118.96551724137932,31.04,120,28.10666666666667,121.0344827586207,28C122.06896551724138,27.89333333333333,123.10344827586208,27.946666666666665,124.13793103448276,27.839999999999996C125.17241379310344,27.733333333333327,126.20689655172414,24.48,127.24137931034483,24.48C128.27586206896552,24.48,129.3103448275862,30.4,130.3448275862069,30.4C131.3793103448276,30.4,132.41379310344828,28.613333333333337,133.44827586206898,28C134.48275862068965,27.386666666666677,135.51724137931035,27.17333333333333,136.55172413793102,26.72C137.58620689655172,26.266666666666662,138.6206896551724,25.28,139.6551724137931,25.28C140.6896551724138,25.28,141.72413793103448,25.92,142.75862068965517,25.92C143.79310344827587,25.92,144.82758620689654,22.880000000000003,145.86206896551724,22.880000000000003C146.89655172413794,22.880000000000003,147.9310344827586,28.159999999999997,148.9655172413793,28.159999999999997C150,28.159999999999997,151.0344827586207,27.36,152.0689655172414,27.36C153.10344827586206,27.36,154.13793103448276,31.200000000000003,155.17241379310343,31.200000000000003C156.20689655172413,31.200000000000003,157.24137931034483,28,158.27586206896552,28C159.31034482758622,28,160.3448275862069,32.480000000000004,161.3793103448276,32.480000000000004C162.41379310344828,32.480000000000004,163.44827586206895,28.106666666666666,164.48275862068965,27.68C165.51724137931035,27.253333333333334,166.55172413793102,27.466666666666665,167.58620689655172,27.04C168.6206896551724,26.61333333333333,169.6551724137931,17.919999999999998,170.6896551724138,17.919999999999998C171.7241379310345,17.919999999999998,172.75862068965517,21.733333333333334,173.79310344827587,23.360000000000003C174.82758620689657,24.98666666666667,175.86206896551724,26.933333333333334,176.89655172413794,27.68C177.93103448275863,28.426666666666666,178.9655172413793,28.61333333333333,180,28.799999999999997L180,40C178.9655172413793,40,177.93103448275863,40,176.89655172413794,40C175.86206896551724,40,174.82758620689657,40,173.79310344827587,40C172.75862068965517,40,171.7241379310345,40,170.6896551724138,40C169.6551724137931,40,168.6206896551724,40,167.58620689655172,40C166.55172413793102,40,165.51724137931035,40,164.48275862068965,40C163.44827586206895,40,162.41379310344828,40,161.3793103448276,40C160.3448275862069,40,159.31034482758622,40,158.27586206896552,40C157.24137931034483,40,156.20689655172413,40,155.17241379310343,40C154.13793103448276,40,153.10344827586206,40,152.0689655172414,40C151.0344827586207,40,150,40,148.9655172413793,40C147.9310344827586,40,146.89655172413794,40,145.86206896551724,40C144.82758620689654,40,143.79310344827587,40,142.75862068965517,40C141.72413793103448,40,140.6896551724138,40,139.6551724137931,40C138.6206896551724,40,137.58620689655172,40,136.55172413793102,40C135.51724137931035,40,134.48275862068965,40,133.44827586206898,40C132.41379310344828,40,131.3793103448276,40,130.3448275862069,40C129.3103448275862,40,128.27586206896552,40,127.24137931034483,40C126.20689655172414,40,125.17241379310344,40,124.13793103448276,40C123.10344827586208,40,122.06896551724138,40,121.0344827586207,40C120,40,118.96551724137932,40,117.93103448275862,40C116.89655172413794,40,115.86206896551724,40,114.82758620689656,40C113.79310344827587,40,112.75862068965517,40,111.72413793103449,40C110.6896551724138,40,109.65517241379311,40,108.62068965517241,40C107.58620689655172,40,106.55172413793103,40,105.51724137931033,40C104.48275862068965,40,103.44827586206897,40,102.41379310344828,40C101.37931034482759,40,100.3448275862069,40,99.3103448275862,40C98.27586206896551,40,97.24137931034483,40,96.20689655172413,40C95.17241379310344,40,94.13793103448276,40,93.10344827586208,40C92.06896551724138,40,91.0344827586207,40,90,40C88.96551724137932,40,87.93103448275862,40,86.89655172413794,40C85.86206896551724,40,84.82758620689656,40,83.79310344827586,40C82.75862068965517,40,81.72413793103448,40,80.6896551724138,40C79.6551724137931,40,78.62068965517241,40,77.58620689655172,40C76.55172413793103,40,75.51724137931033,40,74.48275862068965,40C73.44827586206897,40,72.41379310344827,40,71.37931034482759,40C70.34482758620689,40,69.3103448275862,40,68.27586206896551,40C67.24137931034483,40,66.20689655172413,40,65.17241379310344,40C64.13793103448276,40,63.10344827586207,40,62.06896551724138,40C61.03448275862069,40,60,40,58.96551724137931,40C57.93103448275862,40,56.896551724137936,40,55.862068965517246,40C54.827586206896555,40,53.79310344827586,40,52.75862068965517,40C51.72413793103448,40,50.689655172413794,40,49.6551724137931,40C48.62068965517241,40,47.58620689655173,40,46.55172413793104,40C45.51724137931035,40,44.48275862068966,40,43.44827586206897,40C42.41379310344828,40,41.37931034482759,40,40.3448275862069,40C39.310344827586206,40,38.275862068965516,40,37.241379310344826,40C36.206896551724135,40,35.172413793103445,40,34.137931034482754,40C33.103448275862064,40,32.06896551724138,40,31.03448275862069,40C30,40,28.965517241379313,40,27.931034482758623,40C26.896551724137932,40,25.862068965517242,40,24.82758620689655,40C23.79310344827586,40,22.758620689655174,40,21.724137931034484,40C20.689655172413794,40,19.655172413793103,40,18.620689655172413,40C17.586206896551722,40,16.551724137931036,40,15.517241379310345,40C14.482758620689655,40,13.448275862068966,40,12.413793103448276,40C11.379310344827585,40,10.344827586206897,40,9.310344827586206,40C8.275862068965516,40,7.241379310344827,40,6.206896551724138,40C5.172413793103448,40,4.137931034482759,40,3.103448275862069,40C2.068965517241379,40,1.0344827586206897,40,0,40Z"></path><path class="line" stroke="black" fill="none" d="M0,8.639999999999999C1.0344827586206897,12.879999999999999,2.068965517241379,17.12,3.103448275862069,17.12C4.137931034482759,17.12,5.172413793103448,12.000000000000002,6.206896551724138,12.000000000000002C7.241379310344827,12.000000000000002,8.275862068965516,24.48,9.310344827586206,24.48C10.344827586206897,24.48,11.379310344827585,17.759999999999998,12.413793103448276,17.759999999999998C13.448275862068966,17.759999999999998,14.482758620689655,17.759999999999998,15.517241379310345,17.759999999999998C16.551724137931036,17.759999999999998,17.586206896551722,25.6,18.620689655172413,25.6C19.655172413793103,25.6,20.689655172413794,20.96,21.724137931034484,20.96C22.758620689655174,20.96,23.79310344827586,22.640000000000004,24.82758620689655,23.520000000000003C25.862068965517242,24.400000000000002,26.896551724137932,25.14666666666667,27.931034482758623,26.240000000000002C28.965517241379313,27.333333333333336,30,30.08,31.03448275862069,30.08C32.06896551724138,30.08,33.103448275862064,28.24,34.137931034482754,27.68C35.172413793103445,27.119999999999997,36.206896551724135,26.72,37.241379310344826,26.72C38.275862068965516,26.72,39.310344827586206,28.400000000000002,40.3448275862069,28.96C41.37931034482759,29.52,42.41379310344828,30.08,43.44827586206897,30.08C44.48275862068966,30.08,45.51724137931035,29.46666666666667,46.55172413793104,29.28C47.58620689655173,29.093333333333334,48.62068965517241,29.093333333333334,49.6551724137931,28.96C50.689655172413794,28.826666666666668,51.72413793103448,28.8,52.75862068965517,28.479999999999997C53.79310344827586,28.159999999999993,54.827586206896555,26.453333333333337,55.862068965517246,25.44C56.896551724137936,24.42666666666667,57.93103448275862,23.653333333333332,58.96551724137931,22.400000000000002C60,21.14666666666667,61.03448275862069,17.919999999999998,62.06896551724138,17.919999999999998C63.10344827586207,17.919999999999998,64.13793103448276,22.66666666666667,65.17241379310344,23.200000000000003C66.20689655172413,23.733333333333334,67.24137931034483,24,68.27586206896551,24C69.3103448275862,24,70.34482758620689,17.599999999999998,71.37931034482759,17.599999999999998C72.41379310344827,17.599999999999998,73.44827586206897,21.44,74.48275862068965,21.44C75.51724137931033,21.44,76.55172413793103,14.053333333333333,77.58620689655172,11.520000000000001C78.62068965517241,8.986666666666657,79.6551724137931,6.240000000000001,80.6896551724138,6.240000000000001C81.72413793103448,6.240000000000001,82.75862068965517,19.52,83.79310344827586,19.52C84.82758620689656,19.52,85.86206896551724,11.200000000000001,86.89655172413794,11.200000000000001C87.93103448275862,11.200000000000001,88.96551724137932,14.16,90,15.2C91.0344827586207,16.240000000000002,92.06896551724138,15.946666666666665,93.10344827586208,17.44C94.13793103448276,18.933333333333323,95.17241379310344,24.48,96.20689655172413,24.48C97.24137931034483,24.48,98.27586206896551,21.6,99.3103448275862,21.6C100.3448275862069,21.6,101.37931034482759,23.040000000000003,102.41379310344828,23.040000000000003C103.44827586206897,23.040000000000003,104.48275862068965,16.8,105.51724137931033,16.8C106.55172413793103,16.8,107.58620689655172,18.186666666666667,108.62068965517241,19.68C109.65517241379311,21.173333333333332,110.6896551724138,24.479999999999997,111.72413793103449,25.76C112.75862068965517,27.04,113.79310344827587,26.8,114.82758620689656,27.68C115.86206896551724,28.56,116.89655172413794,31.04,117.93103448275862,31.04C118.96551724137932,31.04,120,28.10666666666667,121.0344827586207,28C122.06896551724138,27.89333333333333,123.10344827586208,27.946666666666665,124.13793103448276,27.839999999999996C125.17241379310344,27.733333333333327,126.20689655172414,24.48,127.24137931034483,24.48C128.27586206896552,24.48,129.3103448275862,30.4,130.3448275862069,30.4C131.3793103448276,30.4,132.41379310344828,28.613333333333337,133.44827586206898,28C134.48275862068965,27.386666666666677,135.51724137931035,27.17333333333333,136.55172413793102,26.72C137.58620689655172,26.266666666666662,138.6206896551724,25.28,139.6551724137931,25.28C140.6896551724138,25.28,141.72413793103448,25.92,142.75862068965517,25.92C143.79310344827587,25.92,144.82758620689654,22.880000000000003,145.86206896551724,22.880000000000003C146.89655172413794,22.880000000000003,147.9310344827586,28.159999999999997,148.9655172413793,28.159999999999997C150,28.159999999999997,151.0344827586207,27.36,152.0689655172414,27.36C153.10344827586206,27.36,154.13793103448276,31.200000000000003,155.17241379310343,31.200000000000003C156.20689655172413,31.200000000000003,157.24137931034483,28,158.27586206896552,28C159.31034482758622,28,160.3448275862069,32.480000000000004,161.3793103448276,32.480000000000004C162.41379310344828,32.480000000000004,163.44827586206895,28.106666666666666,164.48275862068965,27.68C165.51724137931035,27.253333333333334,166.55172413793102,27.466666666666665,167.58620689655172,27.04C168.6206896551724,26.61333333333333,169.6551724137931,17.919999999999998,170.6896551724138,17.919999999999998C171.7241379310345,17.919999999999998,172.75862068965517,21.733333333333334,173.79310344827587,23.360000000000003C174.82758620689657,24.98666666666667,175.86206896551724,26.933333333333334,176.89655172413794,27.68C177.93103448275863,28.426666666666666,178.9655172413793,28.61333333333333,180,28.799999999999997"></path><path class="axis-ceiling" stroke-width="1" stroke="black" fill="none" d="M175,0L180,0"></path><text class="axis-ceiling-label" font-family="sans-serif" text-anchor="end" font-size="10px" x="170" y="2.5">250</text></g></svg>