<svg xmlns="http://www.w3.org/2000/svg" viewBox="0 0 180 60"><g transform="translate(0,20)"><path class="area" fill="rgba(0, 0, 0, 0.2)" d="M0,5.12C1.0169491525423728,6.479999999999999,2.0338983050847457,7.839999999999998,3.0508474576271185,7.839999999999998C4.067796610169491,7.839999999999998,5.084745762711864,0.16000000000000014,6.101694915254237,0.16000000000000014C7.11864406779661,0.16000000000000014,8.135593220338983,2.7199999999999993,9.152542372881356,5.2C10.169491525423728,7.68,11.186440677966102,14.986666666666665,12.203389830508474,15.04C13.220338983050846,15.093333333333334,14.23728813559322,15.066666666666666,15.254237288135592,15.120000000000001C16.271186440677965,15.173333333333336,17.28813559322034,18.64,18.305084745762713,18.64C19.322033898305087,18.64,20.338983050847457,15.746666666666666,21.35593220338983,13.919999999999998C22.372881355932204,12.09333333333333,23.389830508474574,7.679999999999998,24.406779661016948,7.679999999999998C25.423728813559322,7.679999999999998,26.440677966101696,21.92,27.45762711864407,21.92C28.47457627118644,21.92,29.491525423728813,14.879999999999999,30.508474576271183,14.879999999999999C31.525423728813557,14.879999999999999,32.54237288135593,18.159999999999997,33.559322033898304,18.159999999999997C34.57627118644068,18.159999999999997,35.59322033898305,16.48,36.610169491525426,16.48C37.6271186440678,16.48,38.644067796610166,24.08,39.66101694915254,24.08C40.67796610169491,24.08,41.69491525423729,16.8,42.71186440677966,16.8C43.728813559322035,16.8,44.7457627118644,17.37333333333333,45.762711864406775,18.159999999999997C46.77966101694915,18.946666666666665,47.79661016949152,21.520000000000003,48.813559322033896,21.520000000000003C49.83050847457627,21.520000000000003,50.847457627118644,21.493333333333336,51.86440677966102,21.44C52.88135593220339,21.386666666666667,53.898305084745765,18,54.91525423728814,18C55.93220338983051,18,56.94915254237288,20.946666666666665,57.96610169491525,22.32C58.983050847457626,23.693333333333335,59.99999999999999,26.240000000000002,61.01694915254237,26.240000000000002C62.03389830508474,26.240000000000002,63.05084745762712,23.81333333333333,64.0677966101695,23.759999999999998C65.08474576271186,23.706666666666667,66.10169491525424,23.733333333333334,67.11864406779661,23.680000000000003C68.13559322033899,23.626666666666672,69.15254237288136,22.480000000000004,70.16949152542374,22.480000000000004C71.1864406779661,22.480000000000004,72.20338983050848,23.32,73.22033898305085,24.08C74.23728813559322,24.839999999999996,75.2542372881356,27.04,76.27118644067797,27.04C77.28813559322033,27.04,78.30508474576271,24.16,79.32203389830508,24.16C80.33898305084746,24.16,81.35593220338983,27.36,82.37288135593221,27.36C83.38983050847457,27.36,84.40677966101696,24.08,85.42372881355932,24.08C86.4406779661017,24.08,87.45762711864407,26,88.47457627118645,26C89.49152542372882,26,90.50847457627118,25.92,91.52542372881355,25.92C92.54237288135593,25.92,93.55932203389831,25.92,94.57627118644069,25.92C95.59322033898306,25.92,96.61016949152543,26.373333333333335,97.62711864406779,27.04C98.64406779661016,27.706666666666667,99.66101694915254,29.440000000000005,100.6779661016949,29.92C101.69491525423729,30.400000000000002,102.71186440677965,30.16,103.72881355932203,30.64C104.7457627118644,31.119999999999997,105.76271186440678,33.76,106.77966101694915,33.76C107.79661016949153,33.76,108.8135593220339,29.119999999999997,109.83050847457628,27.519999999999996C110.84745762711864,25.92,111.86440677966102,24.16,112.88135593220339,24.16C113.89830508474576,24.16,114.91525423728814,28.159999999999997,115.9322033898305,28.159999999999997C116.94915254237289,28.159999999999997,117.96610169491525,27.68,118.98305084745763,27.68C120,27.68,121.01694915254237,28.200000000000006,122.03389830508473,28.64C123.05084745762711,29.080000000000002,124.0677966101695,30.32,125.08474576271188,30.32C126.10169491525424,30.32,127.11864406779662,21.44,128.135593220339,21.44C129.15254237288136,21.44,130.16949152542372,21.680000000000003,131.1864406779661,22.160000000000004C132.20338983050846,22.64000000000001,133.22033898305085,24.72,134.23728813559322,24.72C135.25423728813558,24.72,136.27118644067798,22.546666666666667,137.28813559322035,21.44C138.3050847457627,20.333333333333336,139.3220338983051,18.08,140.33898305084747,18.08C141.35593220338984,18.08,142.3728813559322,18.453333333333333,143.38983050847457,19.2C144.40677966101694,19.946666666666673,145.42372881355934,28.72,146.4406779661017,28.72C147.45762711864407,28.72,148.47457627118644,25.479999999999986,149.4915254237288,23.040000000000003C150.50847457627117,20.599999999999994,151.52542372881356,14.079999999999998,152.54237288135593,14.079999999999998C153.5593220338983,14.079999999999998,154.5762711864407,16.026666666666667,155.59322033898306,16.720000000000002C156.61016949152543,17.41333333333333,157.6271186440678,17.58666666666667,158.64406779661016,18.24C159.66101694915253,18.893333333333334,160.67796610169492,20.64,161.6949152542373,20.64C162.71186440677965,20.64,163.72881355932205,13.759999999999998,164.74576271186442,13.759999999999998C165.76271186440678,13.759999999999998,166.77966101694915,27.199999999999996,167.79661016949152,27.199999999999996C168.81355932203388,27.199999999999996,169.83050847457628,9.28,170.84745762711864,9.28C171.864406779661,9.28,172.8813559322034,10.186666666666667,173.89830508474577,10.88C174.91525423728814,11.573333333333334,175.93220338983053,13.173333333333327,176.9491525423729,13.439999999999998C177.96610169491527,13.706666666666665,178.98305084745763,13.773333333333333,180,13.84L180,40C178.98305084745763,40,177.96610169491527,40,176.9491525423729,40C175.93220338983053,40,174.91525423728814,40,173.89830508474577,40C172.8813559322034,40,171.864406779661,40,170.84745762711864,40C169.83050847457628,40,168.81355932203388,40,167.79661016949152,40C166.77966101694915,40,165.76271186440678,40,164.74576271186442,40C163.72881355932205,40,162.71186440677965,40,161.6949152542373,40C160.67796610169492,40,159.66101694915253,40,158.64406779661016,40C157.6271186440678,40,156.61016949152543,40,155.59322033898306,40C154.5762711864407,40,153.5593220338983,40,152.54237288135593,40C151.52542372881356,40,150.50847457627117,40,149.4915254237288,40C148.47457627118644,40,147.45762711864407,40,146.4406779661017,40C145.42372881355934,40,144.40677966101694,40,143.38983050847457,40C142.3728813559322,40,141.35593220338984,40,140.33898305084747,40C139.3220338983051,40,138.3050847457627,40,137.28813559322035,40C136.27118644067798,40,135.25423728813558,40,134.23728813559322,40C133.22033898305085,40,132.20338983050846,40,131.1864406779661,40C130.16949152542372,40,129.15254237288136,40,128.135593220339,40C127.11864406779662,40,126.10169491525424,40,125.08474576271188,40C124.0677966101695,40,123.05084745762711,40,122.03389830508473,40C121.01694915254237,40,120,40,118.98305084745763,40C117.96610169491525,40,116.94915254237289,40,115.9322033898305,40C114.91525423728814,40,113.89830508474576,40,112.88135593220339,40C111.86440677966102,40,110.84745762711864,40,109.83050847457628,40C108.8135593220339,40,107.79661016949153,40,106.77966101694915,40C105.76271186440678,40,104.7457627118644,40,103.72881355932203,40C102.71186440677965,40,101.69491525423729,40,100.6779661016949,40C99.66101694915254,40,98.64406779661016,40,97.62711864406779,40C96.61016949152543,40,95.59322033898306,40,94.57627118644069,40C93.55932203389831,40,92.54237288135593,40,91.52542372881355,40C90.50847457627118,40,89.49152542372882,40,88.47457627118645,40C87.45762711864407,40,86.4406779661017,40,85.42372881355932,40C84.40677966101696,40,83.38983050847457,40,82.37288135593221,40C81.35593220338983,40,80.33898305084746,40,79.32203389830508,40C78.30508474576271,40,77.28813559322033,40,76.27118644067797,40C75.2542372881356,40,74.23728813559322,40,73.22033898305085,40C72.20338983050848,40,71.1864406779661,40,70.16949152542374,40C69.15254237288136,40,68.13559322033899,40,67.11864406779661,40C66.10169491525424,40,65.08474576271186,40,64.0677966101695,40C63.05084745762712,40,62.03389830508474,40,61.01694915254237,40C59.99999999999999,40,58.983050847457626,40,57.96610169491525,40C56.94915254237288,40,55.93220338983051,40,54.91525423728814,40C53.898305084745765,40,52.88135593220339,40,51.86440677966102,40C50.847457627118644,40,49.83050847457627,40,48.813559322033896,40C47.79661016949152,40,46.77966101694915,40,45.762711864406775,40C44.7457627118644,40,43.728813559322035,40,42.71186440677966,40C41.69491525423729,40,40.67796610169491,40,39.66101694915254,40C38.644067796610166,40,37.6271186440678,40,36.610169491525426,40C35.59322033898305,40,34.57627118644068,40,33.559322033898304,40C32.54237288135593,40,31.525423728813557,40,30.508474576271183,40C29.491525423728813,40,28.47457627118644,40,27.45762711864407,40C26.440677966101696,40,25.423728813559322,40,24.406779661016948,40C23.389830508474574,40,22.372881355932204,40,21.35593220338983,40C20.338983050847457,40,19.322033898305087,40,18.305084745762713,40C17.28813559322034,40,16.271186440677965,40,15.254237288135592,40C14.23728813559322,40,13.220338983050846,40,12.203389830508474,40C11.186440677966102,40,10.169491525423728,40,9.152542372881356,40C8.135593220338983,40,7.11864406779661,40,6.101694915254237,40C5.084745762711864,40,4.067796610169491,40,3.0508474576271185,40C2.0338983050847457,40,1.0169491525423728,40,0,40Z"></path><path class="line" stroke="black" fill="none" d="M0,5.12C1.0169491525423728,6.479999999999999,2.0338983050847457,7.839999999999998,3.0508474576271185,7.839999999999998C4.067796610169491,7.839999999999998,5.084745762711864,0.16000000000000014,6.101694915254237,0.16000000000000014C7.11864406779661,0.16000000000000014,8.135593220338983,2.7199999999999993,9.152542372881356,5.2C10.169491525423728,7.68,11.186440677966102,14.986666666666665,12.203389830508474,15.04C13.220338983050846,15.093333333333334,14.23728813559322,15.066666666666666,15.254237288135592,15.120000000000001C16.271186440677965,15.173333333333336,17.28813559322034,18.64,18.305084745762713,18.64C19.322033898305087,18.64,20.338983050847457,15.746666666666666,21.35593220338983,13.919999999999998C22.372881355932204,12.09333333333333,23.389830508474574,7.679999999999998,24.406779661016948,7.679999999999998C25.423728813559322,7.679999999999998,26.440677966101696,21.92,27.45762711864407,21.92C28.47457627118644,21.92,29.491525423728813,14.879999999999999,30.508474576271183,14.879999999999999C31.525423728813557,14.879999999999999,32.54237288135593,18.159999999999997,33.559322033898304,18.159999999999997C34.57627118644068,18.159999999999997,35.59322033898305,16.48,36.610169491525426,16.48C37.6271186440678,16.48,38.644067796610166,24.08,39.66101694915254,24.08C40.67796610169491,24.08,41.69491525423729,16.8,42.71186440677966,16.8C43.728813559322035,16.8,44.7457627118644,17.37333333333333,45.762711864406775,18.159999999999997C46.77966101694915,18.946666666666665,47.79661016949152,21.520000000000003,48.813559322033896,21.520000000000003C49.83050847457627,21.520000000000003,50.847457627118644,21.493333333333336,51.86440677966102,21.44C52.88135593220339,21.386666666666667,53.898305084745765,18,54.91525423728814,18C55.93220338983051,18,56.94915254237288,20.946666666666665,57.96610169491525,22.32C58.983050847457626,23.693333333333335,59.99999999999999,26.240000000000002,61.01694915254237,26.240000000000002C62.03389830508474,26.240000000000002,63.05084745762712,23.81333333333333,64.0677966101695,23.759999999999998C65.08474576271186,23.706666666666667,66.10169491525424,23.733333333333334,67.11864406779661,23.680000000000003C68.13559322033899,23.626666666666672,69.15254237288136,22.480000000000004,70.16949152542374,22.480000000000004C71.1864406779661,22.480000000000004,72.20338983050848,23.32,73.22033898305085,24.08C74.23728813559322,24.839999999999996,75.2542372881356,27.04,76.27118644067797,27.04C77.28813559322033,27.04,78.30508474576271,24.16,79.32203389830508,24.16C80.33898305084746,24.16,81.35593220338983,27.36,82.37288135593221,27.36C83.38983050847457,27.36,84.40677966101696,24.08,85.42372881355932,24.08C86.4406779661017,24.08,87.45762711864407,26,88.47457627118645,26C89.49152542372882,26,90.50847457627118,25.92,91.52542372881355,25.92C92.54237288135593,25.92,93.55932203389831,25.92,94.57627118644069,25.92C95.59322033898306,25.92,96.61016949152543,26.373333333333335,97.62711864406779,27.04C98.64406779661016,27.706666666666667,99.66101694915254,29.440000000000005,100.6779661016949,29.92C101.69491525423729,30.400000000000002,102.71186440677965,30.16,103.72881355932203,30.64C104.7457627118644,31.119999999999997,105.76271186440678,33.76,106.77966101694915,33.76C107.79661016949153,33.76,108.8135593220339,29.119999999999997,109.83050847457628,27.519999999999996C110.84745762711864,25.92,111.86440677966102,24.16,112.88135593220339,24.16C113.89830508474576,24.16,114.91525423728814,28.159999999999997,115.9322033898305,28.159999999999997C116.94915254237289,28.159999999999997,117.96610169491525,27.68,118.98305084745763,27.68C120,27.68,121.01694915254237,28.200000000000006,122.03389830508473,28.64C123.05084745762711,29.080000000000002,124.0677966101695,30.32,125.08474576271188,30.32C126.10169491525424,30.32,127.11864406779662,21.44,128.135593220339,21.44C129.15254237288136,21.44,130.16949152542372,21.680000000000003,131.1864406779661,22.160000000000004C132.20338983050846,22.64000000000001,133.22033898305085,24.72,134.23728813559322,24.72C135.25423728813558,24.72,136.27118644067798,22.546666666666667,137.28813559322035,21.44C138.3050847457627,20.333333333333336,139.3220338983051,18.08,140.33898305084747,18.08C141.35593220338984,18.08,142.3728813559322,18.453333333333333,143.38983050847457,19.2C144.40677966101694,19.946666666666673,145.42372881355934,28.72,146.4406779661017,28.72C147.45762711864407,28.72,148.47457627118644,25.479999999999986,149.4915254237288,23.040000000000003C150.50847457627117,20.599999999999994,151.52542372881356,14.079999999999998,152.54237288135593,14.079999999999998C153.5593220338983,14.079999999999998,154.5762711864407,16.026666666666667,155.59322033898306,16.720000000000002C156.61016949152543,17.41333333333333,157.6271186440678,17.58666666666667,158.64406779661016,18.24C159.66101694915253,18.893333333333334,160.67796610169492,20.64,161.6949152542373,20.64C162.71186440677965,20.64,163.72881355932205,13.759999999999998,164.74576271186442,13.759999999999998C165.76271186440678,13.759999999999998,166.77966101694915,27.199999999999996,167.79661016949152,27.199999999999996C168.81355932203388,27.199999999999996,169.83050847457628,9.28,170.84745762711864,9.28C171.864406779661,9.28,172.8813559322034,10.186666666666667,173.89830508474577,10.88C174.91525423728814,11.573333333333334,175.93220338983053,13.173333333333327,176.9491525423729,13.439999999999998C177.96610169491527,13.706666666666665,178.98305084745763,13.773333333333333,180,13.84"></path><path class="axis-ceiling" stroke-width="1" stroke="black" fill="none" d="M175,0L180,0"></path><text class="axis-ceiling-label" font-family="sans-serif" text-anchor="end" font-size="10px" x="170" y="2.5">500</text></g></svg>