<svg xmlns="http://www.w3.org/2000/svg" viewBox="0 0 180 60"><g transform="translate(0,20)"><path class="area" fill="rgba(0, 0, 0, 0.2)" d="M0,32C1.0344827586206897,31.2,2.068965517241379,30.4,3.103448275862069,30.4C4.137931034482759,30.4,5.172413793103448,36.800000000000004,6.206896551724138,36.800000000000004C7.241379310344827,36.800000000000004,8.275862068965516,36.800000000000004,9.310344827586206,36.800000000000004C10.344827586206897,36.800000000000004,11.379310344827585,38.4,12.413793103448276,38.4C13.448275862068966,38.4,14.482758620689655,32,15.517241379310345,32C16.551724137931036,32,17.586206896551722,33.6,18.620689655172413,33.6C19.655172413793103,33.6,20.689655172413794,32,21.724137931034484,32C22.758620689655174,32,23.79310344827586,33.86666666666667,24.82758620689655,35.2C25.862068965517242,36.53333333333334,26.896551724137932,40,27.931034482758623,40C28.965517241379313,40,30,39.199999999999996,31.03448275862069,38.4C32.06896551724138,37.6,33.103448275862064,35.2,34.137931034482754,35.2C35.172413793103445,35.2,36.206896551724135,36.800000000000004,37.241379310344826,36.800000000000004C38.275862068965516,36.800000000000004,39.310344827586206,36.800000000000004,40.3448275862069,36.800000000000004C41.37931034482759,36.800000000000004,42.41379310344828,36.800000000000004,43.44827586206897,36.800000000000004C44.48275862068966,36.800000000000004,45.51724137931035,30.666666666666664,46.55172413793104,28.799999999999997C47.58620689655173,26.933333333333334,48.62068965517241,27.200000000000003,49.6551724137931,25.6C50.689655172413794,24,51.72413793103448,19.2,52.75862068965517,19.2C53.79310344827586,19.2,54.827586206896555,22.400000000000002,55.862068965517246,22.400000000000002C56.896551724137936,22.400000000000002,57.93103448275862,20.8,58.96551724137931,20.8C60,20.8,61.03448275862069,25.6,62.06896551724138,25.6C63.10344827586207,25.6,64.13793103448276,13.866666666666662,65.17241379310344,12.799999999999997C66.20689655172413,11.733333333333333,67.24137931034483,12.266666666666662,68.27586206896551,11.200000000000001C69.3103448275862,10.133333333333335,70.34482758620689,6.400000000000001,71.37931034482759,6.400000000000001C72.41379310344827,6.400000000000001,73.44827586206897,13.33333333333333,74.48275862068965,14.399999999999999C75.51724137931033,15.466666666666667,76.55172413793103,16,77.58620689655172,16C78.62068965517241,16,79.6551724137931,16,80.6896551724138,16C81.72413793103448,16,82.75862068965517,16.53333333333333,83.79310344827586,17.599999999999998C84.82758620689656,18.666666666666668,85.86206896551724,25.6,86.89655172413794,25.6C87.93103448275862,25.6,88.96551724137932,23.999999999999986,90,20.8C91.0344827586207,17.6,92.06896551724138,6.400000000000001,93.10344827586208,6.400000000000001C94.13793103448276,6.400000000000001,95.17241379310344,11.73333333333334,96.20689655172413,12.799999999999997C97.24137931034483,13.866666666666665,98.27586206896551,13.333333333333332,99.3103448275862,14.399999999999999C100.3448275862069,15.466666666666665,101.37931034482759,19.2,102.41379310344828,19.2C103.44827586206897,19.2,104.48275862068965,7.999999999999998,105.51724137931033,7.999999999999998C106.55172413793103,7.999999999999998,107.58620689655172,9.6,108.62068965517241,9.6C109.65517241379311,9.6,110.6896551724138,1.6000000000000014,111.72413793103449,1.6000000000000014C112.75862068965517,1.6000000000000014,113.79310344827587,6.133333333333333,114.82758620689656,7.999999999999998C115.86206896551724,9.866666666666664,116.89655172413794,10.133333333333342,117.93103448275862,12.799999999999997C118.96551724137932,15.466666666666665,120,24,121.0344827586207,24C122.06896551724138,24,123.10344827586208,12.799999999999997,124.13793103448276,12.799999999999997C125.17241379310344,12.799999999999997,126.20689655172414,25.6,127.24137931034483,25.6C128.27586206896552,25.6,129.3103448275862,25.066666666666656,130.3448275862069,24C131.3793103448276,22.933333333333334,132.41379310344828,19.2,133.44827586206898,19.2C134.48275862068965,19.2,135.51724137931035,27.199999999999996,136.55172413793102,27.199999999999996C137.58620689655172,27.199999999999996,138.6206896551724,16,139.6551724137931,16C140.6896551724138,16,141.72413793103448,28.799999999999997,142.75862068965517,28.799999999999997C143.79310344827587,28.799999999999997,144.82758620689654,25.6,145.86206896551724,25.6C146.89655172413794,25.6,147.9310344827586,36.800000000000004,148.9655172413793,36.800000000000004C150,36.800000000000004,151.0344827586207,33.60000000000005,152.0689655172414,30.4C153.10344827586206,27.200000000000006,154.13793103448276,17.599999999999998,155.17241379310343,17.599999999999998C156.20689655172413,17.599999999999998,157.24137931034483,30.4,158.27586206896552,30.4C159.31034482758622,30.4,160.3448275862069,29.333333333333332,161.3793103448276,28.799999999999997C162.41379310344828,28.266666666666662,163.44827586206895,27.199999999999996,164.48275862068965,27.199999999999996C165.51724137931035,27.199999999999996,166.55172413793102,36.800000000000004,167.58620689655172,36.800000000000004C168.6206896551724,36.800000000000004,169.6551724137931,35.2,170.6896551724138,35.2C171.7241379310345,35.2,172.75862068965517,36.800000000000004,173.79310344827587,36.800000000000004C174.82758620689657,36.800000000000004,175.86206896551724,34.4,176.89655172413794,32C177.93103448275863,29.6,178.9655172413793,26,180,22.400000000000002L180,40C178.9655172413793,40,177.93103448275863,40,176.89655172413794,40C175.86206896551724,40,174.82758620689657,40,173.79310344827587,40C172.75862068965517,40,171.7241379310345,40,170.6896551724138,40C169.6551724137931,40,168.6206896551724,40,167.58620689655172,40C166.55172413793102,40,165.51724137931035,40,164.48275862068965,40C163.44827586206895,40,162.41379310344828,40,161.3793103448276,40C160.3448275862069,40,159.31034482758622,40,158.27586206896552,40C157.24137931034483,40,156.20689655172413,40,155.17241379310343,40C154.13793103448276,40,153.10344827586206,40,152.0689655172414,40C151.0344827586207,40,150,40,148.9655172413793,40C147.9310344827586,40,146.89655172413794,40,145.86206896551724,40C144.82758620689654,40,143.79310344827587,40,142.75862068965517,40C141.72413793103448,40,140.6896551724138,40,139.6551724137931,40C138.6206896551724,40,137.58620689655172,40,136.55172413793102,40C135.51724137931035,40,134.48275862068965,40,133.44827586206898,40C132.41379310344828,40,131.3793103448276,40,130.3448275862069,40C129.3103448275862,40,128.27586206896552,40,127.24137931034483,40C126.20689655172414,40,125.17241379310344,40,124.13793103448276,40C123.10344827586208,40,122.06896551724138,40,121.0344827586207,40C120,40,118.96551724137932,40,117.93103448275862,40C116.89655172413794,40,115.86206896551724,40,114.82758620689656,40C113.79310344827587,40,112.75862068965517,40,111.72413793103449,40C110.6896551724138,40,109.65517241379311,40,108.62068965517241,40C107.58620689655172,40,106.55172413793103,40,105.51724137931033,40C104.48275862068965,40,103.44827586206897,40,102.41379310344828,40C101.37931034482759,40,100.3448275862069,40,99.3103448275862,40C98.27586206896551,40,97.24137931034483,40,96.20689655172413,40C95.17241379310344,40,94.13793103448276,40,93.10344827586208,40C92.06896551724138,40,91.0344827586207,40,90,40C88.96551724137932,40,87.93103448275862,40,86.89655172413794,40C85.86206896551724,40,84.82758620689656,40,83.79310344827586,40C82.75862068965517,40,81.72413793103448,40,80.6896551724138,40C79.6551724137931,40,78.62068965517241,40,77.58620689655172,40C76.55172413793103,40,75.51724137931033,40,74.48275862068965,40C73.44827586206897,40,72.41379310344827,40,71.37931034482759,40C70.34482758620689,40,69.3103448275862,40,68.27586206896551,40C67.24137931034483,40,66.20689655172413,40,65.17241379310344,40C64.13793103448276,40,63.10344827586207,40,62.06896551724138,40C61.03448275862069,40,60,40,58.96551724137931,40C57.93103448275862,40,56.896551724137936,40,55.862068965517246,40C54.827586206896555,40,53.79310344827586,40,52.75862068965517,40C51.72413793103448,40,50.689655172413794,40,49.6551724137931,40C48.62068965517241,40,47.58620689655173,40,46.55172413793104,40C45.51724137931035,40,44.48275862068966,40,43.44827586206897,40C42.41379310344828,40,41.37931034482759,40,40.3448275862069,40C39.310344827586206,40,38.275862068965516,40,37.241379310344826,40C36.206896551724135,40,35.172413793103445,40,34.137931034482754,40C33.103448275862064,40,32.06896551724138,40,31.03448275862069,40C30,40,28.965517241379313,40,27.931034482758623,40C26.896551724137932,40,25.862068965517242,40,24.82758620689655,40C23.79310344827586,40,22.758620689655174,40,21.724137931034484,40C20.689655172413794,40,19.655172413793103,40,18.620689655172413,40C17.586206896551722,40,16.551724137931036,40,15.517241379310345,40C14.482758620689655,40,13.448275862068966,40,12.413793103448276,40C11.379310344827585,40,10.344827586206897,40,9.310344827586206,40C8.275862068965516,40,7.241379310344827,40,6.206896551724138,40C5.172413793103448,40,4.137931034482759,40,3.103448275862069,40C2.068965517241379,40,1.0344827586206897,40,0,40Z"></path><path class="line" stroke="black" fill="none" d="M0,32C1.0344827586206897,31.2,2.068965517241379,30.4,3.103448275862069,30.4C4.137931034482759,30.4,5.172413793103448,36.800000000000004,6.206896551724138,36.800000000000004C7.241379310344827,36.800000000000004,8.275862068965516,36.800000000000004,9.310344827586206,36.800000000000004C10.344827586206897,36.800000000000004,11.379310344827585,38.4,12.413793103448276,38.4C13.448275862068966,38.4,14.482758620689655,32,15.517241379310345,32C16.551724137931036,32,17.586206896551722,33.6,18.620689655172413,33.6C19.655172413793103,33.6,20.689655172413794,32,21.724137931034484,32C22.758620689655174,32,23.79310344827586,33.86666666666667,24.82758620689655,35.2C25.862068965517242,36.53333333333334,26.896551724137932,40,27.931034482758623,40C28.965517241379313,40,30,39.199999999999996,31.03448275862069,38.4C32.06896551724138,37.6,33.103448275862064,35.2,34.137931034482754,35.2C35.172413793103445,35.2,36.206896551724135,36.800000000000004,37.241379310344826,36.800000000000004C38.275862068965516,36.800000000000004,39.310344827586206,36.800000000000004,40.3448275862069,36.800000000000004C41.37931034482759,36.800000000000004,42.41379310344828,36.800000000000004,43.44827586206897,36.800000000000004C44.48275862068966,36.800000000000004,45.51724137931035,30.666666666666664,46.55172413793104,28.799999999999997C47.58620689655173,26.933333333333334,48.62068965517241,27.200000000000003,49.6551724137931,25.6C50.689655172413794,24,51.72413793103448,19.2,52.75862068965517,19.2C53.79310344827586,19.2,54.827586206896555,22.400000000000002,55.862068965517246,22.400000000000002C56.896551724137936,22.400000000000002,57.93103448275862,20.8,58.96551724137931,20.8C60,20.8,61.03448275862069,25.6,62.06896551724138,25.6C63.10344827586207,25.6,64.13793103448276,13.866666666666662,65.17241379310344,12.799999999999997C66.20689655172413,11.733333333333333,67.24137931034483,12.266666666666662,68.27586206896551,11.200000000000001C69.3103448275862,10.133333333333335,70.34482758620689,6.400000000000001,71.37931034482759,6.400000000000001C72.41379310344827,6.400000000000001,73.44827586206897,13.33333333333333,74.48275862068965,14.399999999999999C75.51724137931033,15.466666666666667,76.55172413793103,16,77.58620689655172,16C78.62068965517241,16,79.6551724137931,16,80.6896551724138,16C81.72413793103448,16,82.75862068965517,16.53333333333333,83.79310344827586,17.599999999999998C84.82758620689656,18.666666666666668,85.86206896551724,25.6,86.89655172413794,25.6C87.93103448275862,25.6,88.96551724137932,23.999999999999986,90,20.8C91.0344827586207,17.6,92.06896551724138,6.400000000000001,93.10344827586208,6.400000000000001C94.13793103448276,6.400000000000001,95.17241379310344,11.73333333333334,96.20689655172413,12.799999999999997C97.24137931034483,13.866666666666665,98.27586206896551,13.333333333333332,99.3103448275862,14.399999999999999C100.3448275862069,15.466666666666665,101.37931034482759,19.2,102.41379310344828,19.2C103.44827586206897,19.2,104.48275862068965,7.999999999999998,105.51724137931033,7.999999999999998C106.55172413793103,7.999999999999998,107.58620689655172,9.6,108.62068965517241,9.6C109.65517241379311,9.6,110.6896551724138,1.6000000000000014,111.72413793103449,1.6000000000000014C112.75862068965517,1.6000000000000014,113.79310344827587,6.133333333333333,114.82758620689656,7.999999999999998C115.86206896551724,9.866666666666664,116.89655172413794,10.133333333333342,117.93103448275862,12.799999999999997C118.96551724137932,15.466666666666665,120,24,121.0344827586207,24C122.06896551724138,24,123.10344827586208,12.799999999999997,124.13793103448276,12.799999999999997C125.17241379310344,12.799999999999997,126.20689655172414,25.6,127.24137931034483,25.6C128.27586206896552,25.6,129.3103448275862,25.066666666666656,130.3448275862069,24C131.3793103448276,22.933333333333334,132.41379310344828,19.2,133.44827586206898,19.2C134.48275862068965,19.2,135.51724137931035,27.199999999999996,136.55172413793102,27.199999999999996C137.58620689655172,27.199999999999996,138.6206896551724,16,139.6551724137931,16C140.6896551724138,16,141.72413793103448,28.799999999999997,142.75862068965517,28.799999999999997C143.79310344827587,28.799999999999997,144.82758620689654,25.6,145.86206896551724,25.6C146.89655172413794,25.6,147.9310344827586,36.800000000000004,148.9655172413793,36.800000000000004C150,36.800000000000004,151.0344827586207,33.60000000000005,152.0689655172414,30.4C153.10344827586206,27.200000000000006,154.13793103448276,17.599999999999998,155.17241379310343,17.599999999999998C156.20689655172413,17.599999999999998,157.24137931034483,30.4,158.27586206896552,30.4C159.31034482758622,30.4,160.3448275862069,29.333333333333332,161.3793103448276,28.799999999999997C162.41379310344828,28.266666666666662,163.44827586206895,27.199999999999996,164.48275862068965,27.199999999999996C165.51724137931035,27.199999999999996,166.55172413793102,36.800000000000004,167.58620689655172,36.800000000000004C168.6206896551724,36.800000000000004,169.6551724137931,35.2,170.6896551724138,35.2C171.7241379310345,35.2,172.75862068965517,36.800000000000004,173.79310344827587,36.800000000000004C174.82758620689657,36.800000000000004,175.86206896551724,34.4,176.89655172413794,32C177.93103448275863,29.6,178.9655172413793,26,180,22.400000000000002"></path><path class="axis-ceiling" stroke-width="1" stroke="black" fill="none" d="M175,0L180,0"></path><text class="axis-ceiling-label" font-family="sans-serif" text-anchor="end" font-size="10px" x="170" y="2.5">25</text></g></svg>