<svg xmlns="http://www.w3.org/2000/svg" viewBox="0 0 180 60"><g transform="translate(0,20)"><path class="area" fill="rgba(0, 0, 0, 0.2)" d="M0,38.94C1.0344827586206897,38.79,2.068965517241379,38.64,3.103448275862069,38.64C4.137931034482759,38.64,5.172413793103448,38.776666666666664,6.206896551724138,38.82C7.241379310344827,38.86333333333333,8.275862068965516,38.876666666666665,9.310344827586206,38.9C10.344827586206897,38.92333333333333,11.379310344827585,38.96,12.413793103448276,38.96C13.448275862068966,38.96,14.482758620689655,38.64666666666666,15.517241379310345,38.48C16.551724137931036,38.31333333333333,17.586206896551722,37.96,18.620689655172413,37.96C19.655172413793103,37.96,20.689655172413794,38.14333333333333,21.724137931034484,38.239999999999995C22.758620689655174,38.33666666666666,23.79310344827586,38.54,24.82758620689655,38.54C25.862068965517242,38.54,26.896551724137932,38.3,27.931034482758623,38.3C28.965517241379313,38.3,30,38.3,31.03448275862069,38.3C32.06896551724138,38.3,33.103448275862064,38.6,34.137931034482754,38.6C35.172413793103445,38.6,36.206896551724135,36.64,37.241379310344826,36.64C38.275862068965516,36.64,39.310344827586206,37.120000000000005,40.3448275862069,37.120000000000005C41.37931034482759,37.120000000000005,42.41379310344828,35.92,43.44827586206897,35.92C44.48275862068966,35.92,45.51724137931035,36.24,46.55172413793104,36.24C47.58620689655173,36.24,48.62068965517241,36.233333333333334,49.6551724137931,36.22C50.689655172413794,36.20666666666666,51.72413793103448,35.62,52.75862068965517,35.62C53.79310344827586,35.62,54.827586206896555,37.400000000000006,55.862068965517246,37.400000000000006C56.896551724137936,37.400000000000006,57.93103448275862,34.7,58.96551724137931,34.42C60,34.14,61.03448275862069,34.11666666666667,62.06896551724138,34C63.10344827586207,33.88333333333333,64.13793103448276,33.906666666666666,65.17241379310344,33.72C66.20689655172413,33.53333333333333,67.24137931034483,31.560000000000002,68.27586206896551,31.560000000000002C69.3103448275862,31.560000000000002,70.34482758620689,31.959999999999997,71.37931034482759,31.959999999999997C72.41379310344827,31.959999999999997,73.44827586206897,31.720000000000002,74.48275862068965,31.720000000000002C75.51724137931033,31.720000000000002,76.55172413793103,32.78,77.58620689655172,32.78C78.62068965517241,32.78,79.6551724137931,28.1,80.6896551724138,27.82C81.72413793103448,27.540000000000003,82.75862068965517,27.400000000000002,83.79310344827586,27.400000000000002C84.82758620689656,27.400000000000002,85.86206896551724,28.5,86.89655172413794,28.5C87.93103448275862,28.5,88.96551724137932,27.52,90,27.36C91.0344827586207,27.2,92.06896551724138,27.279999999999998,93.10344827586208,27.119999999999997C94.13793103448276,26.959999999999997,95.17241379310344,24.18,96.20689655172413,24.18C97.24137931034483,24.18,98.27586206896551,30.233333333333334,99.3103448275862,31.02C100.3448275862069,31.806666666666665,101.37931034482759,32.199999999999996,102.41379310344828,32.199999999999996C103.44827586206897,32.199999999999996,104.48275862068965,28.393333333333306,105.51724137931033,25.08C106.55172413793103,21.76666666666666,107.58620689655172,12.320000000000002,108.62068965517241,12.320000000000002C109.65517241379311,12.320000000000002,110.6896551724138,14.489999999999991,111.72413793103449,16.299999999999997C112.75862068965517,18.109999999999996,113.79310344827587,23.18,114.82758620689656,23.18C115.86206896551724,23.18,116.89655172413794,15.32,117.93103448275862,15.32C118.96551724137932,15.32,120,28.520000000000003,121.0344827586207,28.520000000000003C122.06896551724138,28.520000000000003,123.10344827586208,17.9,124.13793103448276,16.939999999999998C125.17241379310344,15.979999999999999,126.20689655172414,16.089999999999996,127.24137931034483,15.499999999999998C128.27586206896552,14.909999999999998,129.3103448275862,14.026666666666664,130.3448275862069,13.399999999999999C131.3793103448276,12.773333333333328,132.41379310344828,11.739999999999998,133.44827586206898,11.739999999999998C134.48275862068965,11.739999999999998,135.51724137931035,16.099999999999998,136.55172413793102,16.099999999999998C137.58620689655172,16.099999999999998,138.6206896551724,14.04,139.6551724137931,14.04C140.6896551724138,14.04,141.72413793103448,23.22,142.75862068965517,23.22C143.79310344827587,23.22,144.82758620689654,14.606666666666666,145.86206896551724,11.86C146.89655172413794,9.113333333333333,147.9310344827586,6.739999999999999,148.9655172413793,6.739999999999999C150,6.739999999999999,151.0344827586207,8.189999999999996,152.0689655172414,8.82C153.10344827586206,9.449999999999994,154.13793103448276,9.730000000000011,155.17241379310343,10.52C156.20689655172413,11.310000000000002,157.24137931034483,13.559999999999999,158.27586206896552,13.559999999999999C159.31034482758622,13.559999999999999,160.3448275862069,7.646666666666666,161.3793103448276,7.1C162.41379310344828,6.553333333333334,163.44827586206895,6.826666666666667,164.48275862068965,6.280000000000001C165.51724137931035,5.733333333333335,166.55172413793102,0.5399999999999983,167.58620689655172,0.5399999999999983C168.6206896551724,0.5399999999999983,169.6551724137931,5.5600000000000005,170.6896551724138,5.5600000000000005C171.7241379310345,5.5600000000000005,172.75862068965517,1.2733333333333308,173.79310344827587,1.1799999999999988C174.82758620689657,1.086666666666667,175.86206896551724,1.040000000000001,176.89655172413794,1.040000000000001C177.93103448275863,1.040000000000001,178.9655172413793,6.8999999999999995,180,12.759999999999998L180,40C178.9655172413793,40,177.93103448275863,40,176.89655172413794,40C175.86206896551724,40,174.82758620689657,40,173.79310344827587,40C172.75862068965517,40,171.7241379310345,40,170.6896551724138,40C169.6551724137931,40,168.6206896551724,40,167.58620689655172,40C166.55172413793102,40,165.51724137931035,40,164.48275862068965,40C163.44827586206895,40,162.41379310344828,40,161.3793103448276,40C160.3448275862069,40,159.31034482758622,40,158.27586206896552,40C157.24137931034483,40,156.20689655172413,40,155.17241379310343,40C154.13793103448276,40,153.10344827586206,40,152.0689655172414,40C151.0344827586207,40,150,40,148.9655172413793,40C147.9310344827586,40,146.89655172413794,40,145.86206896551724,40C144.82758620689654,40,143.79310344827587,40,142.75862068965517,40C141.72413793103448,40,140.6896551724138,40,139.6551724137931,40C138.6206896551724,40,137.58620689655172,40,136.55172413793102,40C135.51724137931035,40,134.48275862068965,40,133.44827586206898,40C132.41379310344828,40,131.3793103448276,40,130.3448275862069,40C129.3103448275862,40,128.27586206896552,40,127.24137931034483,40C126.20689655172414,40,125.17241379310344,40,124.13793103448276,40C123.10344827586208,40,122.06896551724138,40,121.0344827586207,40C120,40,118.96551724137932,40,117.93103448275862,40C116.89655172413794,40,115.86206896551724,40,114.82758620689656,40C113.79310344827587,40,112.75862068965517,40,111.72413793103449,40C110.6896551724138,40,109.65517241379311,40,108.62068965517241,40C107.58620689655172,40,106.55172413793103,40,105.51724137931033,40C104.48275862068965,40,103.44827586206897,40,102.41379310344828,40C101.37931034482759,40,100.3448275862069,40,99.3103448275862,40C98.27586206896551,40,97.24137931034483,40,96.20689655172413,40C95.17241379310344,40,94.13793103448276,40,93.10344827586208,40C92.06896551724138,40,91.0344827586207,40,90,40C88.96551724137932,40,87.93103448275862,40,86.89655172413794,40C85.86206896551724,40,84.82758620689656,40,83.79310344827586,40C82.75862068965517,40,81.72413793103448,40,80.6896551724138,40C79.6551724137931,40,78.62068965517241,40,77.58620689655172,40C76.55172413793103,40,75.51724137931033,40,74.48275862068965,40C73.44827586206897,40,72.41379310344827,40,71.37931034482759,40C70.34482758620689,40,69.3103448275862,40,68.27586206896551,40C67.24137931034483,40,66.20689655172413,40,65.17241379310344,40C64.13793103448276,40,63.10344827586207,40,62.06896551724138,40C61.03448275862069,40,60,40,58.96551724137931,40C57.93103448275862,40,56.896551724137936,40,55.862068965517246,40C54.827586206896555,40,53.79310344827586,40,52.75862068965517,40C51.72413793103448,40,50.689655172413794,40,49.6551724137931,40C48.62068965517241,40,47.58620689655173,40,46.55172413793104,40C45.51724137931035,40,44.48275862068966,40,43.44827586206897,40C42.41379310344828,40,41.37931034482759,40,40.3448275862069,40C39.310344827586206,40,38.275862068965516,40,37.241379310344826,40C36.206896551724135,40,35.172413793103445,40,34.137931034482754,40C33.103448275862064,40,32.06896551724138,40,31.03448275862069,40C30,40,28.965517241379313,40,27.931034482758623,40C26.896551724137932,40,25.862068965517242,40,24.82758620689655,40C23.79310344827586,40,22.758620689655174,40,21.724137931034484,40C20.689655172413794,40,19.655172413793103,40,18.620689655172413,40C17.586206896551722,40,16.551724137931036,40,15.517241379310345,40C14.482758620689655,40,13.448275862068966,40,12.413793103448276,40C11.379310344827585,40,10.344827586206897,40,9.310344827586206,40C8.275862068965516,40,7.241379310344827,40,6.206896551724138,40C5.172413793103448,40,4.137931034482759,40,3.103448275862069,40C2.068965517241379,40,1.0344827586206897,40,0,40Z"></path><path class="line" stroke="black" fill="none" d="M0,38.94C1.0344827586206897,38.79,2.068965517241379,38.64,3.103448275862069,38.64C4.137931034482759,38.64,5.172413793103448,38.776666666666664,6.206896551724138,38.82C7.241379310344827,38.86333333333333,8.275862068965516,38.876666666666665,9.310344827586206,38.9C10.344827586206897,38.92333333333333,11.379310344827585,38.96,12.413793103448276,38.96C13.448275862068966,38.96,14.482758620689655,38.64666666666666,15.517241379310345,38.48C16.551724137931036,38.31333333333333,17.586206896551722,37.96,18.620689655172413,37.96C19.655172413793103,37.96,20.689655172413794,38.14333333333333,21.724137931034484,38.239999999999995C22.758620689655174,38.33666666666666,23.79310344827586,38.54,24.82758620689655,38.54C25.862068965517242,38.54,26.896551724137932,38.3,27.931034482758623,38.3C28.965517241379313,38.3,30,38.3,31.03448275862069,38.3C32.06896551724138,38.3,33.103448275862064,38.6,34.137931034482754,38.6C35.172413793103445,38.6,36.206896551724135,36.64,37.241379310344826,36.64C38.275862068965516,36.64,39.310344827586206,37.120000000000005,40.3448275862069,37.120000000000005C41.37931034482759,37.120000000000005,42.41379310344828,35.92,43.44827586206897,35.92C44.48275862068966,35.92,45.51724137931035,36.24,46.55172413793104,36.24C47.58620689655173,36.24,48.62068965517241,36.233333333333334,49.6551724137931,36.22C50.689655172413794,36.20666666666666,51.72413793103448,35.62,52.75862068965517,35.62C53.79310344827586,35.62,54.827586206896555,37.400000000000006,55.862068965517246,37.400000000000006C56.896551724137936,37.400000000000006,57.93103448275862,34.7,58.96551724137931,34.42C60,34.14,61.03448275862069,34.11666666666667,62.06896551724138,34C63.10344827586207,33.88333333333333,64.13793103448276,33.906666666666666,65.17241379310344,33.72C66.20689655172413,33.53333333333333,67.24137931034483,31.560000000000002,68.27586206896551,31.560000000000002C69.3103448275862,31.560000000000002,70.34482758620689,31.959999999999997,71.37931034482759,31.959999999999997C72.41379310344827,31.959999999999997,73.44827586206897,31.720000000000002,74.48275862068965,31.720000000000002C75.51724137931033,31.720000000000002,76.55172413793103,32.78,77.58620689655172,32.78C78.62068965517241,32.78,79.6551724137931,28.1,80.6896551724138,27.82C81.72413793103448,27.540000000000003,82.75862068965517,27.400000000000002,83.79310344827586,27.400000000000002C84.82758620689656,27.400000000000002,85.86206896551724,28.5,86.89655172413794,28.5C87.93103448275862,28.5,88.96551724137932,27.52,90,27.36C91.0344827586207,27.2,92.06896551724138,27.279999999999998,93.10344827586208,27.119999999999997C94.13793103448276,26.959999999999997,95.17241379310344,24.18,96.20689655172413,24.18C97.24137931034483,24.18,98.27586206896551,30.233333333333334,99.3103448275862,31.02C100.3448275862069,31.806666666666665,101.37931034482759,32.199999999999996,102.41379310344828,32.199999999999996C103.44827586206897,32.199999999999996,104.48275862068965,28.393333333333306,105.51724137931033,25.08C106.55172413793103,21.76666666666666,107.58620689655172,12.320000000000002,108.62068965517241,12.320000000000002C109.65517241379311,12.320000000000002,110.6896551724138,14.489999999999991,111.72413793103449,16.299999999999997C112.75862068965517,18.109999999999996,113.79310344827587,23.18,114.82758620689656,23.18C115.86206896551724,23.18,116.89655172413794,15.32,117.93103448275862,15.32C118.96551724137932,15.32,120,28.520000000000003,121.0344827586207,28.520000000000003C122.06896551724138,28.520000000000003,123.10344827586208,17.9,124.13793103448276,16.939999999999998C125.17241379310344,15.979999999999999,126.20689655172414,16.089999999999996,127.24137931034483,15.499999999999998C128.27586206896552,14.909999999999998,129.3103448275862,14.026666666666664,130.3448275862069,13.399999999999999C131.3793103448276,12.773333333333328,132.41379310344828,11.739999999999998,133.44827586206898,11.739999999999998C134.48275862068965,11.739999999999998,135.51724137931035,16.099999999999998,136.55172413793102,16.099999999999998C137.58620689655172,16.099999999999998,138.6206896551724,14.04,139.6551724137931,14.04C140.6896551724138,14.04,141.72413793103448,23.22,142.75862068965517,23.22C143.79310344827587,23.22,144.82758620689654,14.606666666666666,145.86206896551724,11.86C146.89655172413794,9.113333333333333,147.9310344827586,6.739999999999999,148.9655172413793,6.739999999999999C150,6.739999999999999,151.0344827586207,8.189999999999996,152.0689655172414,8.82C153.10344827586206,9.449999999999994,154.13793103448276,9.730000000000011,155.17241379310343,10.52C156.20689655172413,11.310000000000002,157.24137931034483,13.559999999999999,158.27586206896552,13.559999999999999C159.31034482758622,13.559999999999999,160.3448275862069,7.646666666666666,161.3793103448276,7.1C162.41379310344828,6.553333333333334,163.44827586206895,6.826666666666667,164.48275862068965,6.280000000000001C165.51724137931035,5.733333333333335,166.55172413793102,0.5399999999999983,167.58620689655172,0.5399999999999983C168.6206896551724,0.5399999999999983,169.6551724137931,5.5600000000000005,170.6896551724138,5.5600000000000005C171.7241379310345,5.5600000000000005,172.75862068965517,1.2733333333333308,173.79310344827587,1.1799999999999988C174.82758620689657,1.086666666666667,175.86206896551724,1.040000000000001,176.89655172413794,1.040000000000001C177.93103448275863,1.040000000000001,178.9655172413793,6.8999999999999995,180,12.759999999999998"></path><path class="axis-ceiling" stroke-width="1" stroke="black" fill="none" d="M175,0L180,0"></path><text class="axis-ceiling-label" font-family="sans-serif" text-anchor="end" font-size="10px" x="170" y="2.5">2000</text></g></svg>