<svg xmlns="http://www.w3.org/2000/svg" viewBox="0 0 180 60"><g transform="translate(0,20)"><path class="area" fill="rgba(0, 0, 0, 0.2)" d="M0,32.800000000000004C1.0344827586206897,34.13333333333334,2.068965517241379,35.46666666666667,3.103448275862069,35.46666666666667C4.137931034482759,35.46666666666667,5.172413793103448,35.02222222222222,6.206896551724138,34.4C7.241379310344827,33.77777777777778,8.275862068965516,31.733333333333334,9.310344827586206,31.733333333333334C10.344827586206897,31.733333333333334,11.379310344827585,33.111111111111114,12.413793103448276,33.6C13.448275862068966,34.08888888888889,14.482758620689655,34.66666666666667,15.517241379310345,34.66666666666667C16.551724137931036,34.66666666666667,17.586206896551722,32.666666666666664,18.620689655172413,31.466666666666665C19.655172413793103,30.266666666666662,20.689655172413794,28.577777777777776,21.724137931034484,27.466666666666665C22.758620689655174,26.355555555555554,23.79310344827586,25.422222222222224,24.82758620689655,24.8C25.862068965517242,24.177777777777777,26.896551724137932,24.266666666666666,27.931034482758623,23.73333333333333C28.965517241379313,23.2,30,21.6,31.03448275862069,21.6C32.06896551724138,21.6,33.103448275862064,29.866666666666664,34.137931034482754,29.866666666666664C35.172413793103445,29.866666666666664,36.206896551724135,29.066666666666663,37.241379310344826,27.466666666666665C38.275862068965516,25.866666666666667,39.310344827586206,22.577777777777776,40.3448275862069,20C41.37931034482759,17.422222222222224,42.41379310344828,13.955555555555557,43.44827586206897,12.000000000000002C44.48275862068966,10.044444444444446,45.51724137931035,8.266666666666666,46.55172413793104,8.266666666666666C47.58620689655173,8.266666666666666,48.62068965517241,13.51111111111111,49.6551724137931,14.933333333333332C50.689655172413794,16.355555555555554,51.72413793103448,15.73333333333334,52.75862068965517,17.066666666666666C53.79310344827586,18.4,54.827586206896555,21.599999999999994,55.862068965517246,22.93333333333333C56.896551724137936,24.26666666666666,57.93103448275862,25.06666666666667,58.96551724137931,25.06666666666667C60,25.06666666666667,61.03448275862069,18.666666666666668,62.06896551724138,18.666666666666668C63.10344827586207,18.666666666666668,64.13793103448276,23.73333333333333,65.17241379310344,23.73333333333333C66.20689655172413,23.73333333333333,67.24137931034483,19.73333333333333,68.27586206896551,19.73333333333333C69.3103448275862,19.73333333333333,70.34482758620689,20.266666666666666,71.37931034482759,20.266666666666666C72.41379310344827,20.266666666666666,73.44827586206897,18.4,74.48275862068965,18.4C75.51724137931033,18.4,76.55172413793103,24.177777777777777,77.58620689655172,25.866666666666667C78.62068965517241,27.555555555555564,79.6551724137931,28.533333333333335,80.6896551724138,28.533333333333335C81.72413793103448,28.533333333333335,82.75862068965517,22.57777777777777,83.79310344827586,21.333333333333332C84.82758620689656,20.08888888888889,85.86206896551724,19.46666666666667,86.89655172413794,19.46666666666667C87.93103448275862,19.46666666666667,88.96551724137932,25.244444444444447,90,25.6C91.0344827586207,25.955555555555556,92.06896551724138,26.133333333333333,93.10344827586208,26.133333333333333C94.13793103448276,26.133333333333333,95.17241379310344,22.400000000000002,96.20689655172413,22.400000000000002C97.24137931034483,22.400000000000002,98.27586206896551,26.84444444444444,99.3103448275862,28.799999999999997C100.3448275862069,30.755555555555553,101.37931034482759,34.13333333333333,102.41379310344828,34.13333333333333C103.44827586206897,34.13333333333333,104.48275862068965,31.733333333333334,105.51724137931033,31.733333333333334C106.55172413793103,31.733333333333334,107.58620689655172,31.91111111111111,108.62068965517241,32C109.65517241379311,32.08888888888889,110.6896551724138,32.08888888888889,111.72413793103449,32.266666666666666C112.75862068965517,32.44444444444444,113.79310344827587,33.6,114.82758620689656,33.6C115.86206896551724,33.6,116.89655172413794,33.333333333333336,117.93103448275862,33.333333333333336C118.96551724137932,33.333333333333336,120,37.333333333333336,121.0344827586207,37.333333333333336C122.06896551724138,37.333333333333336,123.10344827586208,37.333333333333336,124.13793103448276,37.333333333333336C125.17241379310344,37.333333333333336,126.20689655172414,38.666666666666664,127.24137931034483,38.666666666666664C128.27586206896552,38.666666666666664,129.3103448275862,36.577777777777776,130.3448275862069,35.733333333333334C131.3793103448276,34.888888888888886,132.41379310344828,33.6,133.44827586206898,33.6C134.48275862068965,33.6,135.51724137931035,38.13333333333333,136.55172413793102,38.13333333333333C137.58620689655172,38.13333333333333,138.6206896551724,36.53333333333333,139.6551724137931,36.53333333333333C140.6896551724138,36.53333333333333,141.72413793103448,36.8,142.75862068965517,37.06666666666666C143.79310344827587,37.33333333333333,144.82758620689654,38.13333333333333,145.86206896551724,38.13333333333333C146.89655172413794,38.13333333333333,147.9310344827586,37.06666666666666,148.9655172413793,37.06666666666666C150,37.06666666666666,151.0344827586207,37.86666666666667,152.0689655172414,37.86666666666667C153.10344827586206,37.86666666666667,154.13793103448276,37.599999999999994,155.17241379310343,37.599999999999994C156.20689655172413,37.599999999999994,157.24137931034483,37.599999999999994,158.27586206896552,37.599999999999994C159.31034482758622,37.599999999999994,160.3448275862069,37.599999999999994,161.3793103448276,37.599999999999994C162.41379310344828,37.599999999999994,163.44827586206895,38.62222222222223,164.48275862068965,38.93333333333334C165.51724137931035,39.24444444444445,166.55172413793102,39.46666666666667,167.58620689655172,39.46666666666667C168.6206896551724,39.46666666666667,169.6551724137931,37.599999999999994,170.6896551724138,37.599999999999994C171.7241379310345,37.599999999999994,172.75862068965517,38.13333333333333,173.79310344827587,38.13333333333333C174.82758620689657,38.13333333333333,175.86206896551724,37.06666666666666,176.89655172413794,37.06666666666666C177.93103448275863,37.06666666666666,178.9655172413793,38,180,38.93333333333334L180,40C178.9655172413793,40,177.93103448275863,40,176.89655172413794,40C175.86206896551724,40,174.82758620689657,40,173.79310344827587,40C172.75862068965517,40,171.7241379310345,40,170.6896551724138,40C169.6551724137931,40,168.6206896551724,40,167.58620689655172,40C166.55172413793102,40,165.51724137931035,40,164.48275862068965,40C163.44827586206895,40,162.41379310344828,40,161.3793103448276,40C160.3448275862069,40,159.31034482758622,40,158.27586206896552,40C157.24137931034483,40,156.20689655172413,40,155.17241379310343,40C154.13793103448276,40,153.10344827586206,40,152.0689655172414,40C151.0344827586207,40,150,40,148.9655172413793,40C147.9310344827586,40,146.89655172413794,40,145.86206896551724,40C144.82758620689654,40,143.79310344827587,40,142.75862068965517,40C141.72413793103448,40,140.6896551724138,40,139.6551724137931,40C138.6206896551724,40,137.58620689655172,40,136.55172413793102,40C135.51724137931035,40,134.48275862068965,40,133.44827586206898,40C132.41379310344828,40,131.3793103448276,40,130.3448275862069,40C129.3103448275862,40,128.27586206896552,40,127.24137931034483,40C126.20689655172414,40,125.17241379310344,40,124.13793103448276,40C123.10344827586208,40,122.06896551724138,40,121.0344827586207,40C120,40,118.96551724137932,40,117.93103448275862,40C116.89655172413794,40,115.86206896551724,40,114.82758620689656,40C113.79310344827587,40,112.75862068965517,40,111.72413793103449,40C110.6896551724138,40,109.65517241379311,40,108.62068965517241,40C107.58620689655172,40,106.55172413793103,40,105.51724137931033,40C104.48275862068965,40,103.44827586206897,40,102.41379310344828,40C101.37931034482759,40,100.3448275862069,40,99.3103448275862,40C98.27586206896551,40,97.24137931034483,40,96.20689655172413,40C95.17241379310344,40,94.13793103448276,40,93.10344827586208,40C92.06896551724138,40,91.0344827586207,40,90,40C88.96551724137932,40,87.93103448275862,40,86.89655172413794,40C85.86206896551724,40,84.82758620689656,40,83.79310344827586,40C82.75862068965517,40,81.72413793103448,40,80.6896551724138,40C79.6551724137931,40,78.62068965517241,40,77.58620689655172,40C76.55172413793103,40,75.51724137931033,40,74.48275862068965,40C73.44827586206897,40,72.41379310344827,40,71.37931034482759,40C70.34482758620689,40,69.3103448275862,40,68.27586206896551,40C67.24137931034483,40,66.20689655172413,40,65.17241379310344,40C64.13793103448276,40,63.10344827586207,40,62.06896551724138,40C61.03448275862069,40,60,40,58.96551724137931,40C57.93103448275862,40,56.896551724137936,40,55.862068965517246,40C54.827586206896555,40,53.79310344827586,40,52.75862068965517,40C51.72413793103448,40,50.689655172413794,40,49.6551724137931,40C48.62068965517241,40,47.58620689655173,40,46.55172413793104,40C45.51724137931035,40,44.48275862068966,40,43.44827586206897,40C42.41379310344828,40,41.37931034482759,40,40.3448275862069,40C39.310344827586206,40,38.275862068965516,40,37.241379310344826,40C36.206896551724135,40,35.172413793103445,40,34.137931034482754,40C33.103448275862064,40,32.06896551724138,40,31.03448275862069,40C30,40,28.965517241379313,40,27.931034482758623,40C26.896551724137932,40,25.862068965517242,40,24.82758620689655,40C23.79310344827586,40,22.758620689655174,40,21.724137931034484,40C20.689655172413794,40,19.655172413793103,40,18.620689655172413,40C17.586206896551722,40,16.551724137931036,40,15.517241379310345,40C14.482758620689655,40,13.448275862068966,40,12.413793103448276,40C11.379310344827585,40,10.344827586206897,40,9.310344827586206,40C8.275862068965516,40,7.241379310344827,40,6.206896551724138,40C5.172413793103448,40,4.137931034482759,40,3.103448275862069,40C2.068965517241379,40,1.0344827586206897,40,0,40Z"></path><path class="line" stroke="black" fill="none" d="M0,32.800000000000004C1.0344827586206897,34.13333333333334,2.068965517241379,35.46666666666667,3.103448275862069,35.46666666666667C4.137931034482759,35.46666666666667,5.172413793103448,35.02222222222222,6.206896551724138,34.4C7.241379310344827,33.77777777777778,8.275862068965516,31.733333333333334,9.310344827586206,31.733333333333334C10.344827586206897,31.733333333333334,11.379310344827585,33.111111111111114,12.413793103448276,33.6C13.448275862068966,34.08888888888889,14.482758620689655,34.66666666666667,15.517241379310345,34.66666666666667C16.551724137931036,34.66666666666667,17.586206896551722,32.666666666666664,18.620689655172413,31.466666666666665C19.655172413793103,30.266666666666662,20.689655172413794,28.577777777777776,21.724137931034484,27.466666666666665C22.758620689655174,26.355555555555554,23.79310344827586,25.422222222222224,24.82758620689655,24.8C25.862068965517242,24.177777777777777,26.896551724137932,24.266666666666666,27.931034482758623,23.73333333333333C28.965517241379313,23.2,30,21.6,31.03448275862069,21.6C32.06896551724138,21.6,33.103448275862064,29.866666666666664,34.137931034482754,29.866666666666664C35.172413793103445,29.866666666666664,36.206896551724135,29.066666666666663,37.241379310344826,27.466666666666665C38.275862068965516,25.866666666666667,39.310344827586206,22.577777777777776,40.3448275862069,20C41.37931034482759,17.422222222222224,42.41379310344828,13.955555555555557,43.44827586206897,12.000000000000002C44.48275862068966,10.044444444444446,45.51724137931035,8.266666666666666,46.55172413793104,8.266666666666666C47.58620689655173,8.266666666666666,48.62068965517241,13.51111111111111,49.6551724137931,14.933333333333332C50.689655172413794,16.355555555555554,51.72413793103448,15.73333333333334,52.75862068965517,17.066666666666666C53.79310344827586,18.4,54.827586206896555,21.599999999999994,55.862068965517246,22.93333333333333C56.896551724137936,24.26666666666666,57.93103448275862,25.06666666666667,58.96551724137931,25.06666666666667C60,25.06666666666667,61.03448275862069,18.666666666666668,62.06896551724138,18.666666666666668C63.10344827586207,18.666666666666668,64.13793103448276,23.73333333333333,65.17241379310344,23.73333333333333C66.20689655172413,23.73333333333333,67.24137931034483,19.73333333333333,68.27586206896551,19.73333333333333C69.3103448275862,19.73333333333333,70.34482758620689,20.266666666666666,71.37931034482759,20.266666666666666C72.41379310344827,20.266666666666666,73.44827586206897,18.4,74.48275862068965,18.4C75.51724137931033,18.4,76.55172413793103,24.177777777777777,77.58620689655172,25.866666666666667C78.62068965517241,27.555555555555564,79.6551724137931,28.533333333333335,80.6896551724138,28.533333333333335C81.72413793103448,28.533333333333335,82.75862068965517,22.57777777777777,83.79310344827586,21.333333333333332C84.82758620689656,20.08888888888889,85.86206896551724,19.46666666666667,86.89655172413794,19.46666666666667C87.93103448275862,19.46666666666667,88.96551724137932,25.244444444444447,90,25.6C91.0344827586207,25.955555555555556,92.06896551724138,26.133333333333333,93.10344827586208,26.133333333333333C94.13793103448276,26.133333333333333,95.17241379310344,22.400000000000002,96.20689655172413,22.400000000000002C97.24137931034483,22.400000000000002,98.27586206896551,26.84444444444444,99.3103448275862,28.799999999999997C100.3448275862069,30.755555555555553,101.37931034482759,34.13333333333333,102.41379310344828,34.13333333333333C103.44827586206897,34.13333333333333,104.48275862068965,31.733333333333334,105.51724137931033,31.733333333333334C106.55172413793103,31.733333333333334,107.58620689655172,31.91111111111111,108.62068965517241,32C109.65517241379311,32.08888888888889,110.6896551724138,32.08888888888889,111.72413793103449,32.266666666666666C112.75862068965517,32.44444444444444,113.79310344827587,33.6,114.82758620689656,33.6C115.86206896551724,33.6,116.89655172413794,33.333333333333336,117.93103448275862,33.333333333333336C118.96551724137932,33.333333333333336,120,37.333333333333336,121.0344827586207,37.333333333333336C122.06896551724138,37.333333333333336,123.10344827586208,37.333333333333336,124.13793103448276,37.333333333333336C125.17241379310344,37.333333333333336,126.20689655172414,38.666666666666664,127.24137931034483,38.666666666666664C128.27586206896552,38.666666666666664,129.3103448275862,36.577777777777776,130.3448275862069,35.733333333333334C131.3793103448276,34.888888888888886,132.41379310344828,33.6,133.44827586206898,33.6C134.48275862068965,33.6,135.51724137931035,38.13333333333333,136.55172413793102,38.13333333333333C137.58620689655172,38.13333333333333,138.6206896551724,36.53333333333333,139.6551724137931,36.53333333333333C140.6896551724138,36.53333333333333,141.72413793103448,36.8,142.75862068965517,37.06666666666666C143.79310344827587,37.33333333333333,144.82758620689654,38.13333333333333,145.86206896551724,38.13333333333333C146.89655172413794,38.13333333333333,147.9310344827586,37.06666666666666,148.9655172413793,37.06666666666666C150,37.06666666666666,151.0344827586207,37.86666666666667,152.0689655172414,37.86666666666667C153.10344827586206,37.86666666666667,154.13793103448276,37.599999999999994,155.17241379310343,37.599999999999994C156.20689655172413,37.599999999999994,157.24137931034483,37.599999999999994,158.27586206896552,37.599999999999994C159.31034482758622,37.599999999999994,160.3448275862069,37.599999999999994,161.3793103448276,37.599999999999994C162.41379310344828,37.599999999999994,163.44827586206895,38.62222222222223,164.48275862068965,38.93333333333334C165.51724137931035,39.24444444444445,166.55172413793102,39.46666666666667,167.58620689655172,39.46666666666667C168.6206896551724,39.46666666666667,169.6551724137931,37.599999999999994,170.6896551724138,37.599999999999994C171.7241379310345,37.599999999999994,172.75862068965517,38.13333333333333,173.79310344827587,38.13333333333333C174.82758620689657,38.13333333333333,175.86206896551724,37.06666666666666,176.89655172413794,37.06666666666666C177.93103448275863,37.06666666666666,178.9655172413793,38,180,38.93333333333334"></path><path class="axis-ceiling" stroke-width="1" stroke="black" fill="none" d="M175,0L180,0"></path><text class="axis-ceiling-label" font-family="sans-serif" text-anchor="end" font-size="10px" x="170" y="2.5">150</text></g></svg>