<svg xmlns="http://www.w3.org/2000/svg" viewBox="0 0 180 60"><g transform="translate(0,20)"><path class="area" fill="rgba(0, 0, 0, 0.2)" d="M0,21.200000000000003C1.0169491525423728,22.458333333333336,2.0338983050847457,23.716666666666665,3.0508474576271185,25.18C4.067796610169491,26.643333333333334,5.084745762711864,29.980000000000004,6.101694915254237,29.980000000000004C7.11864406779661,29.980000000000004,8.135593220338983,22.503333333333337,9.152542372881356,19.860000000000003C10.169491525423728,17.21666666666667,11.186440677966102,14.12,12.203389830508474,14.12C13.220338983050846,14.12,14.23728813559322,20.70666666666667,15.254237288135592,20.880000000000003C16.271186440677965,21.053333333333335,17.28813559322034,21.14,18.305084745762713,21.14C19.322033898305087,21.14,20.338983050847457,19.119999999999997,21.35593220338983,19.119999999999997C22.372881355932204,19.119999999999997,23.389830508474574,20.69,24.406779661016948,22.42C25.423728813559322,24.150000000000002,26.440677966101696,29.5,27.45762711864407,29.5C28.47457627118644,29.5,29.491525423728813,21.936666666666667,30.508474576271183,18.900000000000002C31.525423728813557,15.863333333333332,32.54237288135593,13.033333333333335,33.559322033898304,11.280000000000001C34.57627118644068,9.526666666666667,35.59322033898305,8.38,36.610169491525426,8.38C37.6271186440678,8.38,38.644067796610166,10.45666666666667,39.66101694915254,11.920000000000002C40.67796610169491,13.383333333333336,41.69491525423729,17.160000000000004,42.71186440677966,17.160000000000004C43.728813559322035,17.160000000000004,44.7457627118644,14.820000000000002,45.762711864406775,14.820000000000002C46.77966101694915,14.820000000000002,47.79661016949152,27.02,48.813559322033896,27.02C49.83050847457627,27.02,50.847457627118644,20.966666666666665,51.86440677966102,17.9C52.88135593220339,14.833333333333332,53.898305084745765,8.620000000000001,54.91525423728814,8.620000000000001C55.93220338983051,8.620000000000001,56.94915254237288,10.023333333333333,57.96610169491525,12.82C58.983050847457626,15.616666666666667,59.99999999999999,25.4,61.01694915254237,25.4C62.03389830508474,25.4,63.05084745762712,16.5,64.0677966101695,16.5C65.08474576271186,16.5,66.10169491525424,17.246666666666673,67.11864406779661,18.56C68.13559322033899,19.87333333333333,69.15254237288136,24.379999999999995,70.16949152542374,24.379999999999995C71.1864406779661,24.379999999999995,72.20338983050848,22.03333333333333,73.22033898305085,19.32C74.23728813559322,16.60666666666667,75.2542372881356,8.993333333333334,76.27118644067797,8.100000000000001C77.28813559322033,7.206666666666668,78.30508474576271,6.760000000000002,79.32203389830508,6.760000000000002C80.33898305084746,6.760000000000002,81.35593220338983,8.910000000000002,82.37288135593221,9.660000000000002C83.38983050847457,10.409999999999998,84.40677966101696,10.620000000000001,85.42372881355932,11.259999999999998C86.4406779661017,11.899999999999999,87.45762711864407,12.006666666666666,88.47457627118645,13.5C89.49152542372882,14.993333333333322,90.50847457627118,27.02,91.52542372881355,27.02C92.54237288135593,27.02,93.55932203389831,18.543333333333333,94.57627118644069,16.02C95.59322033898306,13.4966666666667,96.61016949152543,11.880000000000003,97.62711864406779,11.880000000000003C98.64406779661016,11.880000000000003,99.66101694915254,14.160000000000004,100.6779661016949,15.48C101.69491525423729,16.800000000000004,102.71186440677965,19.8,103.72881355932203,19.8C104.7457627118644,19.8,105.76271186440678,19.52,106.77966101694915,19.52C107.79661016949153,19.52,108.8135593220339,21.46999999999999,109.83050847457628,23.94C110.84745762711864,26.41,111.86440677966102,34.34,112.88135593220339,34.34C113.89830508474576,34.34,114.91525423728814,18.3,115.9322033898305,18.3C116.94915254237289,18.3,117.96610169491525,19.813333333333325,118.98305084745763,21C120,22.186666666666664,121.01694915254237,24.296666666666667,122.03389830508473,25.419999999999998C123.05084745762711,26.543333333333344,124.0677966101695,27.620000000000005,125.08474576271188,27.740000000000002C126.10169491525424,27.86,127.11864406779662,27.8,128.135593220339,27.919999999999998C129.15254237288136,28.039999999999996,130.16949152542372,29.24000000000001,131.1864406779661,30.46C132.20338983050846,31.680000000000003,133.22033898305085,35.24,134.23728813559322,35.24C135.25423728813558,35.24,136.27118644067798,26.259999999999998,137.28813559322035,26.259999999999998C138.3050847457627,26.259999999999998,139.3220338983051,28.386666666666663,140.33898305084747,28.96C141.35593220338984,29.533333333333335,142.3728813559322,29.450000000000003,143.38983050847457,29.82C144.40677966101694,30.19,145.42372881355934,31.02,146.4406779661017,31.18C147.45762711864407,31.34,148.47457627118644,31.259999999999998,149.4915254237288,31.419999999999998C150.50847457627117,31.58,151.52542372881356,31.963333333333335,152.54237288135593,32.88C153.5593220338983,33.79666666666667,154.5762711864407,36.92,155.59322033898306,36.92C156.61016949152543,36.92,157.6271186440678,27.7,158.64406779661016,27.7C159.66101694915253,27.7,160.67796610169492,29.806666666666665,161.6949152542373,30.64C162.71186440677965,31.473333333333336,163.72881355932205,32.190000000000005,164.74576271186442,32.7C165.76271186440678,33.21,166.77966101694915,33.39666666666667,167.79661016949152,33.7C168.81355932203388,34.00333333333334,169.83050847457628,34.24333333333333,170.84745762711864,34.519999999999996C171.864406779661,34.79666666666666,172.8813559322034,34.81,173.89830508474577,35.36C174.91525423728814,35.91,175.93220338983053,37.79333333333334,176.9491525423729,37.82C177.96610169491527,37.846666666666664,178.98305084745763,37.85333333333333,180,37.86L180,40C178.98305084745763,40,177.96610169491527,40,176.9491525423729,40C175.93220338983053,40,174.91525423728814,40,173.89830508474577,40C172.8813559322034,40,171.864406779661,40,170.84745762711864,40C169.83050847457628,40,168.81355932203388,40,167.79661016949152,40C166.77966101694915,40,165.76271186440678,40,164.74576271186442,40C163.72881355932205,40,162.71186440677965,40,161.6949152542373,40C160.67796610169492,40,159.66101694915253,40,158.64406779661016,40C157.6271186440678,40,156.61016949152543,40,155.59322033898306,40C154.5762711864407,40,153.5593220338983,40,152.54237288135593,40C151.52542372881356,40,150.50847457627117,40,149.4915254237288,40C148.47457627118644,40,147.45762711864407,40,146.4406779661017,40C145.42372881355934,40,144.40677966101694,40,143.38983050847457,40C142.3728813559322,40,141.35593220338984,40,140.33898305084747,40C139.3220338983051,40,138.3050847457627,40,137.28813559322035,40C136.27118644067798,40,135.25423728813558,40,134.23728813559322,40C133.22033898305085,40,132.20338983050846,40,131.1864406779661,40C130.16949152542372,40,129.15254237288136,40,128.135593220339,40C127.11864406779662,40,126.10169491525424,40,125.08474576271188,40C124.0677966101695,40,123.05084745762711,40,122.03389830508473,40C121.01694915254237,40,120,40,118.98305084745763,40C117.96610169491525,40,116.94915254237289,40,115.9322033898305,40C114.91525423728814,40,113.89830508474576,40,112.88135593220339,40C111.86440677966102,40,110.84745762711864,40,109.83050847457628,40C108.8135593220339,40,107.79661016949153,40,106.77966101694915,40C105.76271186440678,40,104.7457627118644,40,103.72881355932203,40C102.71186440677965,40,101.69491525423729,40,100.6779661016949,40C99.66101694915254,40,98.64406779661016,40,97.62711864406779,40C96.61016949152543,40,95.59322033898306,40,94.57627118644069,40C93.55932203389831,40,92.54237288135593,40,91.52542372881355,40C90.50847457627118,40,89.49152542372882,40,88.47457627118645,40C87.45762711864407,40,86.4406779661017,40,85.42372881355932,40C84.40677966101696,40,83.38983050847457,40,82.37288135593221,40C81.35593220338983,40,80.33898305084746,40,79.32203389830508,40C78.30508474576271,40,77.28813559322033,40,76.27118644067797,40C75.2542372881356,40,74.23728813559322,40,73.22033898305085,40C72.20338983050848,40,71.1864406779661,40,70.16949152542374,40C69.15254237288136,40,68.13559322033899,40,67.11864406779661,40C66.10169491525424,40,65.08474576271186,40,64.0677966101695,40C63.05084745762712,40,62.03389830508474,40,61.01694915254237,40C59.99999999999999,40,58.983050847457626,40,57.96610169491525,40C56.94915254237288,40,55.93220338983051,40,54.91525423728814,40C53.898305084745765,40,52.88135593220339,40,51.86440677966102,40C50.847457627118644,40,49.83050847457627,40,48.813559322033896,40C47.79661016949152,40,46.77966101694915,40,45.762711864406775,40C44.7457627118644,40,43.728813559322035,40,42.71186440677966,40C41.69491525423729,40,40.67796610169491,40,39.66101694915254,40C38.644067796610166,40,37.6271186440678,40,36.610169491525426,40C35.59322033898305,40,34.57627118644068,40,33.559322033898304,40C32.54237288135593,40,31.525423728813557,40,30.508474576271183,40C29.491525423728813,40,28.47457627118644,40,27.45762711864407,40C26.440677966101696,40,25.423728813559322,40,24.406779661016948,40C23.389830508474574,40,22.372881355932204,40,21.35593220338983,40C20.338983050847457,40,19.322033898305087,40,18.305084745762713,40C17.28813559322034,40,16.271186440677965,40,15.254237288135592,40C14.23728813559322,40,13.220338983050846,40,12.203389830508474,40C11.186440677966102,40,10.169491525423728,40,9.152542372881356,40C8.135593220338983,40,7.11864406779661,40,6.101694915254237,40C5.084745762711864,40,4.067796610169491,40,3.0508474576271185,40C2.0338983050847457,40,1.0169491525423728,40,0,40Z"></path><path class="line" stroke="black" fill="none" d="M0,21.200000000000003C1.0169491525423728,22.458333333333336,2.0338983050847457,23.716666666666665,3.0508474576271185,25.18C4.067796610169491,26.643333333333334,5.084745762711864,29.980000000000004,6.101694915254237,29.980000000000004C7.11864406779661,29.980000000000004,8.135593220338983,22.503333333333337,9.152542372881356,19.860000000000003C10.169491525423728,17.21666666666667,11.186440677966102,14.12,12.203389830508474,14.12C13.220338983050846,14.12,14.23728813559322,20.70666666666667,15.254237288135592,20.880000000000003C16.271186440677965,21.053333333333335,17.28813559322034,21.14,18.305084745762713,21.14C19.322033898305087,21.14,20.338983050847457,19.119999999999997,21.35593220338983,19.119999999999997C22.372881355932204,19.119999999999997,23.389830508474574,20.69,24.406779661016948,22.42C25.423728813559322,24.150000000000002,26.440677966101696,29.5,27.45762711864407,29.5C28.47457627118644,29.5,29.491525423728813,21.936666666666667,30.508474576271183,18.900000000000002C31.525423728813557,15.863333333333332,32.54237288135593,13.033333333333335,33.559322033898304,11.280000000000001C34.57627118644068,9.526666666666667,35.59322033898305,8.38,36.610169491525426,8.38C37.6271186440678,8.38,38.644067796610166,10.45666666666667,39.66101694915254,11.920000000000002C40.67796610169491,13.383333333333336,41.69491525423729,17.160000000000004,42.71186440677966,17.160000000000004C43.728813559322035,17.160000000000004,44.7457627118644,14.820000000000002,45.762711864406775,14.820000000000002C46.77966101694915,14.820000000000002,47.79661016949152,27.02,48.813559322033896,27.02C49.83050847457627,27.02,50.847457627118644,20.966666666666665,51.86440677966102,17.9C52.88135593220339,14.833333333333332,53.898305084745765,8.620000000000001,54.91525423728814,8.620000000000001C55.93220338983051,8.620000000000001,56.94915254237288,10.023333333333333,57.96610169491525,12.82C58.983050847457626,15.616666666666667,59.99999999999999,25.4,61.01694915254237,25.4C62.03389830508474,25.4,63.05084745762712,16.5,64.0677966101695,16.5C65.08474576271186,16.5,66.10169491525424,17.246666666666673,67.11864406779661,18.56C68.13559322033899,19.87333333333333,69.15254237288136,24.379999999999995,70.16949152542374,24.379999999999995C71.1864406779661,24.379999999999995,72.20338983050848,22.03333333333333,73.22033898305085,19.32C74.23728813559322,16.60666666666667,75.2542372881356,8.993333333333334,76.27118644067797,8.100000000000001C77.28813559322033,7.206666666666668,78.30508474576271,6.760000000000002,79.32203389830508,6.760000000000002C80.33898305084746,6.760000000000002,81.35593220338983,8.910000000000002,82.37288135593221,9.660000000000002C83.38983050847457,10.409999999999998,84.40677966101696,10.620000000000001,85.42372881355932,11.259999999999998C86.4406779661017,11.899999999999999,87.45762711864407,12.006666666666666,88.47457627118645,13.5C89.49152542372882,14.993333333333322,90.50847457627118,27.02,91.52542372881355,27.02C92.54237288135593,27.02,93.55932203389831,18.543333333333333,94.57627118644069,16.02C95.59322033898306,13.4966666666667,96.61016949152543,11.880000000000003,97.62711864406779,11.880000000000003C98.64406779661016,11.880000000000003,99.66101694915254,14.160000000000004,100.6779661016949,15.48C101.69491525423729,16.800000000000004,102.71186440677965,19.8,103.72881355932203,19.8C104.7457627118644,19.8,105.76271186440678,19.52,106.77966101694915,19.52C107.79661016949153,19.52,108.8135593220339,21.46999999999999,109.83050847457628,23.94C110.84745762711864,26.41,111.86440677966102,34.34,112.88135593220339,34.34C113.89830508474576,34.34,114.91525423728814,18.3,115.9322033898305,18.3C116.94915254237289,18.3,117.96610169491525,19.813333333333325,118.98305084745763,21C120,22.186666666666664,121.01694915254237,24.296666666666667,122.03389830508473,25.419999999999998C123.05084745762711,26.543333333333344,124.0677966101695,27.620000000000005,125.08474576271188,27.740000000000002C126.10169491525424,27.86,127.11864406779662,27.8,128.135593220339,27.919999999999998C129.15254237288136,28.039999999999996,130.16949152542372,29.24000000000001,131.1864406779661,30.46C132.20338983050846,31.680000000000003,133.22033898305085,35.24,134.23728813559322,35.24C135.25423728813558,35.24,136.27118644067798,26.259999999999998,137.28813559322035,26.259999999999998C138.3050847457627,26.259999999999998,139.3220338983051,28.386666666666663,140.33898305084747,28.96C141.35593220338984,29.533333333333335,142.3728813559322,29.450000000000003,143.38983050847457,29.82C144.40677966101694,30.19,145.42372881355934,31.02,146.4406779661017,31.18C147.45762711864407,31.34,148.47457627118644,31.259999999999998,149.4915254237288,31.419999999999998C150.50847457627117,31.58,151.52542372881356,31.963333333333335,152.54237288135593,32.88C153.5593220338983,33.79666666666667,154.5762711864407,36.92,155.59322033898306,36.92C156.61016949152543,36.92,157.6271186440678,27.7,158.64406779661016,27.7C159.66101694915253,27.7,160.67796610169492,29.806666666666665,161.6949152542373,30.64C162.71186440677965,31.473333333333336,163.72881355932205,32.190000000000005,164.74576271186442,32.7C165.76271186440678,33.21,166.77966101694915,33.39666666666667,167.79661016949152,33.7C168.81355932203388,34.00333333333334,169.83050847457628,34.24333333333333,170.84745762711864,34.519999999999996C171.864406779661,34.79666666666666,172.8813559322034,34.81,173.89830508474577,35.36C174.91525423728814,35.91,175.93220338983053,37.79333333333334,176.9491525423729,37.82C177.96610169491527,37.846666666666664,178.98305084745763,37.85333333333333,180,37.86"></path><path class="axis-ceiling" stroke-width="1" stroke="black" fill="none" d="M175,0L180,0"></path><text class="axis-ceiling-label" font-family="sans-serif" text-anchor="end" font-size="10px" x="170" y="2.5">2000</text></g></svg>