<svg xmlns="http://www.w3.org/2000/svg" viewBox="0 0 180 60"><g transform="translate(0,20)"><path class="area" fill="rgba(0, 0, 0, 0.2)" d="M0,38.857142857142854C1.0169491525423728,39.42857142857143,2.0338983050847457,40,3.0508474576271185,40C4.067796610169491,40,5.084745762711864,40,6.101694915254237,40C7.11864406779661,40,8.135593220338983,40,9.152542372881356,40C10.169491525423728,40,11.186440677966102,40,12.203389830508474,40C13.220338983050846,40,14.23728813559322,40,15.254237288135592,40C16.271186440677965,40,17.28813559322034,40,18.305084745762713,40C19.322033898305087,40,20.338983050847457,40,21.35593220338983,40C22.372881355932204,40,23.389830508474574,40,24.406779661016948,40C25.423728813559322,40,26.440677966101696,40,27.45762711864407,40C28.47457627118644,40,29.491525423728813,40,30.508474576271183,40C31.525423728813557,40,32.54237288135593,40,33.559322033898304,40C34.57627118644068,40,35.59322033898305,40,36.610169491525426,40C37.6271186440678,40,38.644067796610166,40,39.66101694915254,40C40.67796610169491,40,41.69491525423729,38.857142857142854,42.71186440677966,38.857142857142854C43.728813559322035,38.857142857142854,44.7457627118644,38.857142857142854,45.762711864406775,38.857142857142854C46.77966101694915,38.857142857142854,47.79661016949152,38.857142857142854,48.813559322033896,38.857142857142854C49.83050847457627,38.857142857142854,50.847457627118644,38.857142857142854,51.86440677966102,38.857142857142854C52.88135593220339,38.857142857142854,53.898305084745765,38.857142857142854,54.91525423728814,38.857142857142854C55.93220338983051,38.857142857142854,56.94915254237288,37.714285714285715,57.96610169491525,37.714285714285715C58.983050847457626,37.714285714285715,59.99999999999999,37.714285714285715,61.01694915254237,37.714285714285715C62.03389830508474,37.714285714285715,63.05084745762712,37.14285714285714,64.0677966101695,36.57142857142857C65.08474576271186,36,66.10169491525424,35.23809523809524,67.11864406779661,34.28571428571429C68.13559322033899,33.333333333333336,69.15254237288136,32.38095238095239,70.16949152542374,30.857142857142858C71.1864406779661,29.333333333333336,72.20338983050848,26.476190476190474,73.22033898305085,25.142857142857142C74.23728813559322,23.80952380952381,75.2542372881356,23.809523809523807,76.27118644067797,22.857142857142854C77.28813559322033,21.9047619047619,78.30508474576271,20.38095238095238,79.32203389830508,19.42857142857143C80.33898305084746,18.476190476190474,81.35593220338983,18.476190476190485,82.37288135593221,17.142857142857146C83.38983050847457,15.809523809523812,84.40677966101696,12.952380952380949,85.42372881355932,11.428571428571427C86.4406779661017,9.904761904761896,87.45762711864407,9.142857142857146,88.47457627118645,7.999999999999998C89.49152542372882,6.857142857142861,90.50847457627118,5.333333333333324,91.52542372881355,4.571428571428573C92.54237288135593,3.809523809523811,93.55932203389831,3.4285714285714297,94.57627118644069,3.4285714285714297C95.59322033898306,3.4285714285714297,96.61016949152543,3.4285714285714297,97.62711864406779,3.4285714285714297C98.64406779661016,3.4285714285714297,99.66101694915254,2.857142857142856,100.6779661016949,2.2857142857142865C101.69491525423729,1.7142857142857144,102.71186440677965,0,103.72881355932203,0C104.7457627118644,0,105.76271186440678,3.4285714285714315,106.77966101694915,4.571428571428573C107.79661016949153,5.71428571428572,108.8135593220339,5.714285714285708,109.83050847457628,6.857142857142855C110.84745762711864,7.9999999999999964,111.86440677966102,10.666666666666664,112.88135593220339,11.428571428571427C113.89830508474576,12.19047619047619,114.91525423728814,12.19047619047619,115.9322033898305,12.571428571428571C116.94915254237289,12.952380952380954,117.96610169491525,13.714285714285715,118.98305084745763,13.714285714285715C120,13.714285714285715,121.01694915254237,13.714285714285715,122.03389830508473,13.714285714285715C123.05084745762711,13.714285714285715,124.0677966101695,14.857142857142858,125.08474576271188,14.857142857142858C126.10169491525424,14.857142857142858,127.11864406779662,14.857142857142858,128.135593220339,14.857142857142858C129.15254237288136,14.857142857142858,130.16949152542372,14.857142857142858,131.1864406779661,14.857142857142858C132.20338983050846,14.857142857142858,133.22033898305085,11.428571428571427,134.23728813559322,11.428571428571427C135.25423728813558,11.428571428571427,136.27118644067798,13.714285714285715,137.28813559322035,13.714285714285715C138.3050847457627,13.714285714285715,139.3220338983051,12.571428571428571,140.33898305084747,12.571428571428571C141.35593220338984,12.571428571428571,142.3728813559322,13.142857142857148,143.38983050847457,13.714285714285715C144.40677966101694,14.285714285714288,145.42372881355934,16,146.4406779661017,16C147.45762711864407,16,148.47457627118644,14.857142857142858,149.4915254237288,14.857142857142858C150.50847457627117,14.857142857142858,151.52542372881356,14.857142857142858,152.54237288135593,14.857142857142858C153.5593220338983,14.857142857142858,154.5762711864407,18.28571428571429,155.59322033898306,18.28571428571429C156.61016949152543,18.28571428571429,157.6271186440678,18.28571428571429,158.64406779661016,18.28571428571429C159.66101694915253,18.28571428571429,160.67796610169492,20.57142857142857,161.6949152542373,20.57142857142857C162.71186440677965,20.57142857142857,163.72881355932205,20.57142857142857,164.74576271186442,20.57142857142857C165.76271186440678,20.57142857142857,166.77966101694915,20.57142857142857,167.79661016949152,20.57142857142857C168.81355932203388,20.57142857142857,169.83050847457628,24,170.84745762711864,24C171.864406779661,24,172.8813559322034,24,173.89830508474577,24C174.91525423728814,24,175.93220338983053,24,176.9491525423729,24C177.96610169491527,24,178.98305084745763,24.57142857142857,180,25.142857142857142L180,40C178.98305084745763,40,177.96610169491527,40,176.9491525423729,40C175.93220338983053,40,174.91525423728814,40,173.89830508474577,40C172.8813559322034,40,171.864406779661,40,170.84745762711864,40C169.83050847457628,40,168.81355932203388,40,167.79661016949152,40C166.77966101694915,40,165.76271186440678,40,164.74576271186442,40C163.72881355932205,40,162.71186440677965,40,161.6949152542373,40C160.67796610169492,40,159.66101694915253,40,158.64406779661016,40C157.6271186440678,40,156.61016949152543,40,155.59322033898306,40C154.5762711864407,40,153.5593220338983,40,152.54237288135593,40C151.52542372881356,40,150.50847457627117,40,149.4915254237288,40C148.47457627118644,40,147.45762711864407,40,146.4406779661017,40C145.42372881355934,40,144.40677966101694,40,143.38983050847457,40C142.3728813559322,40,141.35593220338984,40,140.33898305084747,40C139.3220338983051,40,138.3050847457627,40,137.28813559322035,40C136.27118644067798,40,135.25423728813558,40,134.23728813559322,40C133.22033898305085,40,132.20338983050846,40,131.1864406779661,40C130.16949152542372,40,129.15254237288136,40,128.135593220339,40C127.11864406779662,40,126.10169491525424,40,125.08474576271188,40C124.0677966101695,40,123.05084745762711,40,122.03389830508473,40C121.01694915254237,40,120,40,118.98305084745763,40C117.96610169491525,40,116.94915254237289,40,115.9322033898305,40C114.91525423728814,40,113.89830508474576,40,112.88135593220339,40C111.86440677966102,40,110.84745762711864,40,109.83050847457628,40C108.8135593220339,40,107.79661016949153,40,106.77966101694915,40C105.76271186440678,40,104.7457627118644,40,103.72881355932203,40C102.71186440677965,40,101.69491525423729,40,100.6779661016949,40C99.66101694915254,40,98.64406779661016,40,97.62711864406779,40C96.61016949152543,40,95.59322033898306,40,94.57627118644069,40C93.55932203389831,40,92.54237288135593,40,91.52542372881355,40C90.50847457627118,40,89.49152542372882,40,88.47457627118645,40C87.45762711864407,40,86.4406779661017,40,85.42372881355932,40C84.40677966101696,40,83.38983050847457,40,82.37288135593221,40C81.35593220338983,40,80.33898305084746,40,79.32203389830508,40C78.30508474576271,40,77.28813559322033,40,76.27118644067797,40C75.2542372881356,40,74.23728813559322,40,73.22033898305085,40C72.20338983050848,40,71.1864406779661,40,70.16949152542374,40C69.15254237288136,40,68.13559322033899,40,67.11864406779661,40C66.10169491525424,40,65.08474576271186,40,64.0677966101695,40C63.05084745762712,40,62.03389830508474,40,61.01694915254237,40C59.99999999999999,40,58.983050847457626,40,57.96610169491525,40C56.94915254237288,40,55.93220338983051,40,54.91525423728814,40C53.898305084745765,40,52.88135593220339,40,51.86440677966102,40C50.847457627118644,40,49.83050847457627,40,48.813559322033896,40C47.79661016949152,40,46.77966101694915,40,45.762711864406775,40C44.7457627118644,40,43.728813559322035,40,42.71186440677966,40C41.69491525423729,40,40.67796610169491,40,39.66101694915254,40C38.644067796610166,40,37.6271186440678,40,36.610169491525426,40C35.59322033898305,40,34.57627118644068,40,33.559322033898304,40C32.54237288135593,40,31.525423728813557,40,30.508474576271183,40C29.491525423728813,40,28.47457627118644,40,27.45762711864407,40C26.440677966101696,40,25.423728813559322,40,24.406779661016948,40C23.389830508474574,40,22.372881355932204,40,21.35593220338983,40C20.338983050847457,40,19.322033898305087,40,18.305084745762713,40C17.28813559322034,40,16.271186440677965,40,15.254237288135592,40C14.23728813559322,40,13.220338983050846,40,12.203389830508474,40C11.186440677966102,40,10.169491525423728,40,9.152542372881356,40C8.135593220338983,40,7.11864406779661,40,6.101694915254237,40C5.084745762711864,40,4.067796610169491,40,3.0508474576271185,40C2.0338983050847457,40,1.0169491525423728,40,0,40Z"></path><path class="line" stroke="black" fill="none" d="M0,38.857142857142854C1.0169491525423728,39.42857142857143,2.0338983050847457,40,3.0508474576271185,40C4.067796610169491,40,5.084745762711864,40,6.101694915254237,40C7.11864406779661,40,8.135593220338983,40,9.152542372881356,40C10.169491525423728,40,11.186440677966102,40,12.203389830508474,40C13.220338983050846,40,14.23728813559322,40,15.254237288135592,40C16.271186440677965,40,17.28813559322034,40,18.305084745762713,40C19.322033898305087,40,20.338983050847457,40,21.35593220338983,40C22.372881355932204,40,23.389830508474574,40,24.406779661016948,40C25.423728813559322,40,26.440677966101696,40,27.45762711864407,40C28.47457627118644,40,29.491525423728813,40,30.508474576271183,40C31.525423728813557,40,32.54237288135593,40,33.559322033898304,40C34.57627118644068,40,35.59322033898305,40,36.610169491525426,40C37.6271186440678,40,38.644067796610166,40,39.66101694915254,40C40.67796610169491,40,41.69491525423729,38.857142857142854,42.71186440677966,38.857142857142854C43.728813559322035,38.857142857142854,44.7457627118644,38.857142857142854,45.762711864406775,38.857142857142854C46.77966101694915,38.857142857142854,47.79661016949152,38.857142857142854,48.813559322033896,38.857142857142854C49.83050847457627,38.857142857142854,50.847457627118644,38.857142857142854,51.86440677966102,38.857142857142854C52.88135593220339,38.857142857142854,53.898305084745765,38.857142857142854,54.91525423728814,38.857142857142854C55.93220338983051,38.857142857142854,56.94915254237288,37.714285714285715,57.96610169491525,37.714285714285715C58.983050847457626,37.714285714285715,59.99999999999999,37.714285714285715,61.01694915254237,37.714285714285715C62.03389830508474,37.714285714285715,63.05084745762712,37.14285714285714,64.0677966101695,36.57142857142857C65.08474576271186,36,66.10169491525424,35.23809523809524,67.11864406779661,34.28571428571429C68.13559322033899,33.333333333333336,69.15254237288136,32.38095238095239,70.16949152542374,30.857142857142858C71.1864406779661,29.333333333333336,72.20338983050848,26.476190476190474,73.22033898305085,25.142857142857142C74.23728813559322,23.80952380952381,75.2542372881356,23.809523809523807,76.27118644067797,22.857142857142854C77.28813559322033,21.9047619047619,78.30508474576271,20.38095238095238,79.32203389830508,19.42857142857143C80.33898305084746,18.476190476190474,81.35593220338983,18.476190476190485,82.37288135593221,17.142857142857146C83.38983050847457,15.809523809523812,84.40677966101696,12.952380952380949,85.42372881355932,11.428571428571427C86.4406779661017,9.904761904761896,87.45762711864407,9.142857142857146,88.47457627118645,7.999999999999998C89.49152542372882,6.857142857142861,90.50847457627118,5.333333333333324,91.52542372881355,4.571428571428573C92.54237288135593,3.809523809523811,93.55932203389831,3.4285714285714297,94.57627118644069,3.4285714285714297C95.59322033898306,3.4285714285714297,96.61016949152543,3.4285714285714297,97.62711864406779,3.4285714285714297C98.64406779661016,3.4285714285714297,99.66101694915254,2.857142857142856,100.6779661016949,2.2857142857142865C101.69491525423729,1.7142857142857144,102.71186440677965,0,103.72881355932203,0C104.7457627118644,0,105.76271186440678,3.4285714285714315,106.77966101694915,4.571428571428573C107.79661016949153,5.71428571428572,108.8135593220339,5.714285714285708,109.83050847457628,6.857142857142855C110.84745762711864,7.9999999999999964,111.86440677966102,10.666666666666664,112.88135593220339,11.428571428571427C113.89830508474576,12.19047619047619,114.91525423728814,12.19047619047619,115.9322033898305,12.571428571428571C116.94915254237289,12.952380952380954,117.96610169491525,13.714285714285715,118.98305084745763,13.714285714285715C120,13.714285714285715,121.01694915254237,13.714285714285715,122.03389830508473,13.714285714285715C123.05084745762711,13.714285714285715,124.0677966101695,14.857142857142858,125.08474576271188,14.857142857142858C126.10169491525424,14.857142857142858,127.11864406779662,14.857142857142858,128.135593220339,14.857142857142858C129.15254237288136,14.857142857142858,130.16949152542372,14.857142857142858,131.1864406779661,14.857142857142858C132.20338983050846,14.857142857142858,133.22033898305085,11.428571428571427,134.23728813559322,11.428571428571427C135.25423728813558,11.428571428571427,136.27118644067798,13.714285714285715,137.28813559322035,13.714285714285715C138.3050847457627,13.714285714285715,139.3220338983051,12.571428571428571,140.33898305084747,12.571428571428571C141.35593220338984,12.571428571428571,142.3728813559322,13.142857142857148,143.38983050847457,13.714285714285715C144.40677966101694,14.285714285714288,145.42372881355934,16,146.4406779661017,16C147.45762711864407,16,148.47457627118644,14.857142857142858,149.4915254237288,14.857142857142858C150.50847457627117,14.857142857142858,151.52542372881356,14.857142857142858,152.54237288135593,14.857142857142858C153.5593220338983,14.857142857142858,154.5762711864407,18.28571428571429,155.59322033898306,18.28571428571429C156.61016949152543,18.28571428571429,157.6271186440678,18.28571428571429,158.64406779661016,18.28571428571429C159.66101694915253,18.28571428571429,160.67796610169492,20.57142857142857,161.6949152542373,20.57142857142857C162.71186440677965,20.57142857142857,163.72881355932205,20.57142857142857,164.74576271186442,20.57142857142857C165.76271186440678,20.57142857142857,166.77966101694915,20.57142857142857,167.79661016949152,20.57142857142857C168.81355932203388,20.57142857142857,169.83050847457628,24,170.84745762711864,24C171.864406779661,24,172.8813559322034,24,173.89830508474577,24C174.91525423728814,24,175.93220338983053,24,176.9491525423729,24C177.96610169491527,24,178.98305084745763,24.57142857142857,180,25.142857142857142"></path><path class="axis-ceiling" stroke-width="1" stroke="black" fill="none" d="M175,0L180,0"></path><text class="axis-ceiling-label" font-family="sans-serif" text-anchor="end" font-size="10px" x="170" y="2.5">35</text></g></svg>