<svg xmlns="http://www.w3.org/2000/svg" viewBox="0 0 180 60"><g transform="translate(0,20)"><path class="area" fill="rgba(0, 0, 0, 0.2)" d="M0,26.057142857142857C1.0344827586206897,28.914285714285715,2.068965517241379,31.771428571428572,3.103448275862069,31.771428571428572C4.137931034482759,31.771428571428572,5.172413793103448,14.171428571428573,6.206896551724138,14.171428571428573C7.241379310344827,14.171428571428573,8.275862068965516,16.8,9.310344827586206,16.8C10.344827586206897,16.8,11.379310344827585,14.62857142857143,12.413793103448276,14.62857142857143C13.448275862068966,14.62857142857143,14.482758620689655,15.504761904761907,15.517241379310345,15.885714285714286C16.551724137931036,16.266666666666666,17.586206896551722,16.228571428571428,18.620689655172413,16.91428571428571C19.655172413793103,17.599999999999994,20.689655172413794,25.142857142857142,21.724137931034484,25.142857142857142C22.758620689655174,25.142857142857142,23.79310344827586,3.7714285714285722,24.82758620689655,3.7714285714285722C25.862068965517242,3.7714285714285722,26.896551724137932,4.342857142857143,27.931034482758623,5.485714285714285C28.965517241379313,6.6285714285714255,30,10.857142857142858,31.03448275862069,10.857142857142858C32.06896551724138,10.857142857142858,33.103448275862064,5.6000000000000005,34.137931034482754,5.6000000000000005C35.172413793103445,5.6000000000000005,36.206896551724135,6.62857142857143,37.241379310344826,8.685714285714287C38.275862068965516,10.742857142857144,39.310344827586206,20.03809523809524,40.3448275862069,21.485714285714288C41.37931034482759,22.933333333333334,42.41379310344828,23.65714285714286,43.44827586206897,23.65714285714286C44.48275862068966,23.65714285714286,45.51724137931035,17.847619047619048,46.55172413793104,15.771428571428569C47.58620689655173,13.695238095238096,48.62068965517241,11.504761904761907,49.6551724137931,11.200000000000001C50.689655172413794,10.895238095238096,51.72413793103448,10.742857142857144,52.75862068965517,10.742857142857144C53.79310344827586,10.742857142857144,54.827586206896555,14.514285714285716,55.862068965517246,14.514285714285716C56.896551724137936,14.514285714285716,57.93103448275862,9.942857142857143,58.96551724137931,9.942857142857143C60,9.942857142857143,61.03448275862069,15.257142857142853,62.06896551724138,17.599999999999998C63.10344827586207,19.942857142857136,64.13793103448276,24,65.17241379310344,24C66.20689655172413,24,67.24137931034483,7.314285714285713,68.27586206896551,7.314285714285713C69.3103448275862,7.314285714285713,70.34482758620689,11.923809523809524,71.37931034482759,13.485714285714288C72.41379310344827,15.047619047619044,73.44827586206897,15.371428571428574,74.48275862068965,16.685714285714287C75.51724137931033,18,76.55172413793103,20.83809523809524,77.58620689655172,21.37142857142857C78.62068965517241,21.904761904761905,79.6551724137931,21.638095238095236,80.6896551724138,22.17142857142857C81.72413793103448,22.704761904761902,82.75862068965517,23.047619047619058,83.79310344827586,24.68571428571429C84.82758620689656,26.32380952380953,85.86206896551724,32,86.89655172413794,32C87.93103448275862,32,88.96551724137932,22.01904761904761,90,21.257142857142853C91.0344827586207,20.495238095238093,92.06896551724138,20.114285714285714,93.10344827586208,20.114285714285714C94.13793103448276,20.114285714285714,95.17241379310344,23.771428571428572,96.20689655172413,23.771428571428572C97.24137931034483,23.771428571428572,98.27586206896551,23.695238095238096,99.3103448275862,23.54285714285714C100.3448275862069,23.390476190476186,101.37931034482759,0.685714285714285,102.41379310344828,0.685714285714285C103.44827586206897,0.685714285714285,104.48275862068965,20.990476190476222,105.51724137931033,24.114285714285714C106.55172413793103,27.238095238095237,107.58620689655172,28.799999999999997,108.62068965517241,28.799999999999997C109.65517241379311,28.799999999999997,110.6896551724138,18.857142857142858,111.72413793103449,18.857142857142858C112.75862068965517,18.857142857142858,113.79310344827587,20.83809523809524,114.82758620689656,21.714285714285715C115.86206896551724,22.590476190476192,116.89655172413794,23.23809523809524,117.93103448275862,24.114285714285714C118.96551724137932,24.99047619047619,120,25.447619047619042,121.0344827586207,26.97142857142857C122.06896551724138,28.495238095238093,123.10344827586208,33.25714285714285,124.13793103448276,33.25714285714285C125.17241379310344,33.25714285714285,126.20689655172414,25.942857142857143,127.24137931034483,25.942857142857143C128.27586206896552,25.942857142857143,129.3103448275862,31.771428571428572,130.3448275862069,31.771428571428572C131.3793103448276,31.771428571428572,132.41379310344828,20.914285714285718,133.44827586206898,20.914285714285718C134.48275862068965,20.914285714285718,135.51724137931035,27.54285714285715,136.55172413793102,28C137.58620689655172,28.457142857142856,138.6206896551724,28.514285714285712,139.6551724137931,28.685714285714283C140.6896551724138,28.857142857142854,141.72413793103448,29.028571428571432,142.75862068965517,29.028571428571432C143.79310344827587,29.028571428571432,144.82758620689654,20.914285714285718,145.86206896551724,20.914285714285718C146.89655172413794,20.914285714285718,147.9310344827586,21.714285714285722,148.9655172413793,22.74285714285714C150,23.77142857142857,151.0344827586207,27.085714285714285,152.0689655172414,27.085714285714285C153.10344827586206,27.085714285714285,154.13793103448276,23.08571428571428,155.17241379310343,22.62857142857143C156.20689655172413,22.17142857142857,157.24137931034483,21.942857142857143,158.27586206896552,21.942857142857143C159.31034482758622,21.942857142857143,160.3448275862069,24.68571428571429,161.3793103448276,24.68571428571429C162.41379310344828,24.68571428571429,163.44827586206895,23.200000000000003,164.48275862068965,23.200000000000003C165.51724137931035,23.200000000000003,166.55172413793102,24.171428571428574,167.58620689655172,24.91428571428571C168.6206896551724,25.657142857142855,169.6551724137931,26.590476190476185,170.6896551724138,27.65714285714286C171.7241379310345,28.72380952380952,172.75862068965517,31.314285714285717,173.79310344827587,31.314285714285717C174.82758620689657,31.314285714285717,175.86206896551724,22.285714285714285,176.89655172413794,22.285714285714285C177.93103448275863,22.285714285714285,178.9655172413793,23.42857142857143,180,24.571428571428573L180,40C178.9655172413793,40,177.93103448275863,40,176.89655172413794,40C175.86206896551724,40,174.82758620689657,40,173.79310344827587,40C172.75862068965517,40,171.7241379310345,40,170.6896551724138,40C169.6551724137931,40,168.6206896551724,40,167.58620689655172,40C166.55172413793102,40,165.51724137931035,40,164.48275862068965,40C163.44827586206895,40,162.41379310344828,40,161.3793103448276,40C160.3448275862069,40,159.31034482758622,40,158.27586206896552,40C157.24137931034483,40,156.20689655172413,40,155.17241379310343,40C154.13793103448276,40,153.10344827586206,40,152.0689655172414,40C151.0344827586207,40,150,40,148.9655172413793,40C147.9310344827586,40,146.89655172413794,40,145.86206896551724,40C144.82758620689654,40,143.79310344827587,40,142.75862068965517,40C141.72413793103448,40,140.6896551724138,40,139.6551724137931,40C138.6206896551724,40,137.58620689655172,40,136.55172413793102,40C135.51724137931035,40,134.48275862068965,40,133.44827586206898,40C132.41379310344828,40,131.3793103448276,40,130.3448275862069,40C129.3103448275862,40,128.27586206896552,40,127.24137931034483,40C126.20689655172414,40,125.17241379310344,40,124.13793103448276,40C123.10344827586208,40,122.06896551724138,40,121.0344827586207,40C120,40,118.96551724137932,40,117.93103448275862,40C116.89655172413794,40,115.86206896551724,40,114.82758620689656,40C113.79310344827587,40,112.75862068965517,40,111.72413793103449,40C110.6896551724138,40,109.65517241379311,40,108.62068965517241,40C107.58620689655172,40,106.55172413793103,40,105.51724137931033,40C104.48275862068965,40,103.44827586206897,40,102.41379310344828,40C101.37931034482759,40,100.3448275862069,40,99.3103448275862,40C98.27586206896551,40,97.24137931034483,40,96.20689655172413,40C95.17241379310344,40,94.13793103448276,40,93.10344827586208,40C92.06896551724138,40,91.0344827586207,40,90,40C88.96551724137932,40,87.93103448275862,40,86.89655172413794,40C85.86206896551724,40,84.82758620689656,40,83.79310344827586,40C82.75862068965517,40,81.72413793103448,40,80.6896551724138,40C79.6551724137931,40,78.62068965517241,40,77.58620689655172,40C76.55172413793103,40,75.51724137931033,40,74.48275862068965,40C73.44827586206897,40,72.41379310344827,40,71.37931034482759,40C70.34482758620689,40,69.3103448275862,40,68.27586206896551,40C67.24137931034483,40,66.20689655172413,40,65.17241379310344,40C64.13793103448276,40,63.10344827586207,40,62.06896551724138,40C61.03448275862069,40,60,40,58.96551724137931,40C57.93103448275862,40,56.896551724137936,40,55.862068965517246,40C54.827586206896555,40,53.79310344827586,40,52.75862068965517,40C51.72413793103448,40,50.689655172413794,40,49.6551724137931,40C48.62068965517241,40,47.58620689655173,40,46.55172413793104,40C45.51724137931035,40,44.48275862068966,40,43.44827586206897,40C42.41379310344828,40,41.37931034482759,40,40.3448275862069,40C39.310344827586206,40,38.275862068965516,40,37.241379310344826,40C36.206896551724135,40,35.172413793103445,40,34.137931034482754,40C33.103448275862064,40,32.06896551724138,40,31.03448275862069,40C30,40,28.965517241379313,40,27.931034482758623,40C26.896551724137932,40,25.862068965517242,40,24.82758620689655,40C23.79310344827586,40,22.758620689655174,40,21.724137931034484,40C20.689655172413794,40,19.655172413793103,40,18.620689655172413,40C17.586206896551722,40,16.551724137931036,40,15.517241379310345,40C14.482758620689655,40,13.448275862068966,40,12.413793103448276,40C11.379310344827585,40,10.344827586206897,40,9.310344827586206,40C8.275862068965516,40,7.241379310344827,40,6.206896551724138,40C5.172413793103448,40,4.137931034482759,40,3.103448275862069,40C2.068965517241379,40,1.0344827586206897,40,0,40Z"></path><path class="line" stroke="black" fill="none" d="M0,26.057142857142857C1.0344827586206897,28.914285714285715,2.068965517241379,31.771428571428572,3.103448275862069,31.771428571428572C4.137931034482759,31.771428571428572,5.172413793103448,14.171428571428573,6.206896551724138,14.171428571428573C7.241379310344827,14.171428571428573,8.275862068965516,16.8,9.310344827586206,16.8C10.344827586206897,16.8,11.379310344827585,14.62857142857143,12.413793103448276,14.62857142857143C13.448275862068966,14.62857142857143,14.482758620689655,15.504761904761907,15.517241379310345,15.885714285714286C16.551724137931036,16.266666666666666,17.586206896551722,16.228571428571428,18.620689655172413,16.91428571428571C19.655172413793103,17.599999999999994,20.689655172413794,25.142857142857142,21.724137931034484,25.142857142857142C22.758620689655174,25.142857142857142,23.79310344827586,3.7714285714285722,24.82758620689655,3.7714285714285722C25.862068965517242,3.7714285714285722,26.896551724137932,4.342857142857143,27.931034482758623,5.485714285714285C28.965517241379313,6.6285714285714255,30,10.857142857142858,31.03448275862069,10.857142857142858C32.06896551724138,10.857142857142858,33.103448275862064,5.6000000000000005,34.137931034482754,5.6000000000000005C35.172413793103445,5.6000000000000005,36.206896551724135,6.62857142857143,37.241379310344826,8.685714285714287C38.275862068965516,10.742857142857144,39.310344827586206,20.03809523809524,40.3448275862069,21.485714285714288C41.37931034482759,22.933333333333334,42.41379310344828,23.65714285714286,43.44827586206897,23.65714285714286C44.48275862068966,23.65714285714286,45.51724137931035,17.847619047619048,46.55172413793104,15.771428571428569C47.58620689655173,13.695238095238096,48.62068965517241,11.504761904761907,49.6551724137931,11.200000000000001C50.689655172413794,10.895238095238096,51.72413793103448,10.742857142857144,52.75862068965517,10.742857142857144C53.79310344827586,10.742857142857144,54.827586206896555,14.514285714285716,55.862068965517246,14.514285714285716C56.896551724137936,14.514285714285716,57.93103448275862,9.942857142857143,58.96551724137931,9.942857142857143C60,9.942857142857143,61.03448275862069,15.257142857142853,62.06896551724138,17.599999999999998C63.10344827586207,19.942857142857136,64.13793103448276,24,65.17241379310344,24C66.20689655172413,24,67.24137931034483,7.314285714285713,68.27586206896551,7.314285714285713C69.3103448275862,7.314285714285713,70.34482758620689,11.923809523809524,71.37931034482759,13.485714285714288C72.41379310344827,15.047619047619044,73.44827586206897,15.371428571428574,74.48275862068965,16.685714285714287C75.51724137931033,18,76.55172413793103,20.83809523809524,77.58620689655172,21.37142857142857C78.62068965517241,21.904761904761905,79.6551724137931,21.638095238095236,80.6896551724138,22.17142857142857C81.72413793103448,22.704761904761902,82.75862068965517,23.047619047619058,83.79310344827586,24.68571428571429C84.82758620689656,26.32380952380953,85.86206896551724,32,86.89655172413794,32C87.93103448275862,32,88.96551724137932,22.01904761904761,90,21.257142857142853C91.0344827586207,20.495238095238093,92.06896551724138,20.114285714285714,93.10344827586208,20.114285714285714C94.13793103448276,20.114285714285714,95.17241379310344,23.771428571428572,96.20689655172413,23.771428571428572C97.24137931034483,23.771428571428572,98.27586206896551,23.695238095238096,99.3103448275862,23.54285714285714C100.3448275862069,23.390476190476186,101.37931034482759,0.685714285714285,102.41379310344828,0.685714285714285C103.44827586206897,0.685714285714285,104.48275862068965,20.990476190476222,105.51724137931033,24.114285714285714C106.55172413793103,27.238095238095237,107.58620689655172,28.799999999999997,108.62068965517241,28.799999999999997C109.65517241379311,28.799999999999997,110.6896551724138,18.857142857142858,111.72413793103449,18.857142857142858C112.75862068965517,18.857142857142858,113.79310344827587,20.83809523809524,114.82758620689656,21.714285714285715C115.86206896551724,22.590476190476192,116.89655172413794,23.23809523809524,117.93103448275862,24.114285714285714C118.96551724137932,24.99047619047619,120,25.447619047619042,121.0344827586207,26.97142857142857C122.06896551724138,28.495238095238093,123.10344827586208,33.25714285714285,124.13793103448276,33.25714285714285C125.17241379310344,33.25714285714285,126.20689655172414,25.942857142857143,127.24137931034483,25.942857142857143C128.27586206896552,25.942857142857143,129.3103448275862,31.771428571428572,130.3448275862069,31.771428571428572C131.3793103448276,31.771428571428572,132.41379310344828,20.914285714285718,133.44827586206898,20.914285714285718C134.48275862068965,20.914285714285718,135.51724137931035,27.54285714285715,136.55172413793102,28C137.58620689655172,28.457142857142856,138.6206896551724,28.514285714285712,139.6551724137931,28.685714285714283C140.6896551724138,28.857142857142854,141.72413793103448,29.028571428571432,142.75862068965517,29.028571428571432C143.79310344827587,29.028571428571432,144.82758620689654,20.914285714285718,145.86206896551724,20.914285714285718C146.89655172413794,20.914285714285718,147.9310344827586,21.714285714285722,148.9655172413793,22.74285714285714C150,23.77142857142857,151.0344827586207,27.085714285714285,152.0689655172414,27.085714285714285C153.10344827586206,27.085714285714285,154.13793103448276,23.08571428571428,155.17241379310343,22.62857142857143C156.20689655172413,22.17142857142857,157.24137931034483,21.942857142857143,158.27586206896552,21.942857142857143C159.31034482758622,21.942857142857143,160.3448275862069,24.68571428571429,161.3793103448276,24.68571428571429C162.41379310344828,24.68571428571429,163.44827586206895,23.200000000000003,164.48275862068965,23.200000000000003C165.51724137931035,23.200000000000003,166.55172413793102,24.171428571428574,167.58620689655172,24.91428571428571C168.6206896551724,25.657142857142855,169.6551724137931,26.590476190476185,170.6896551724138,27.65714285714286C171.7241379310345,28.72380952380952,172.75862068965517,31.314285714285717,173.79310344827587,31.314285714285717C174.82758620689657,31.314285714285717,175.86206896551724,22.285714285714285,176.89655172413794,22.285714285714285C177.93103448275863,22.285714285714285,178.9655172413793,23.42857142857143,180,24.571428571428573"></path><path class="axis-ceiling" stroke-width="1" stroke="black" fill="none" d="M175,0L180,0"></path><text class="axis-ceiling-label" font-family="sans-serif" text-anchor="end" font-size="10px" x="170" y="2.5">350</text></g></svg>