<svg xmlns="http://www.w3.org/2000/svg" viewBox="0 0 180 60"><g transform="translate(0,20)"><path class="area" fill="rgba(0, 0, 0, 0.2)" d="M0,27.800000000000004C1.0344827586206897,27.833333333333336,2.068965517241379,27.86666666666667,3.103448275862069,28C4.137931034482759,28.13333333333333,5.172413793103448,28.38,6.206896551724138,29.139999999999997C7.241379310344827,29.899999999999995,8.275862068965516,32.9,9.310344827586206,32.9C10.344827586206897,32.9,11.379310344827585,28.153333333333332,12.413793103448276,26.5C13.448275862068966,24.846666666666668,14.482758620689655,23.816666666666666,15.517241379310345,22.98C16.551724137931036,22.143333333333334,17.586206896551722,21.479999999999997,18.620689655172413,21.479999999999997C19.655172413793103,21.479999999999997,20.689655172413794,23.22,21.724137931034484,23.66C22.758620689655174,24.1,23.79310344827586,24.026666666666667,24.82758620689655,24.32C25.862068965517242,24.613333333333333,26.896551724137932,24.686666666666667,27.931034482758623,25.419999999999998C28.965517241379313,26.15333333333333,30,29.22,31.03448275862069,29.22C32.06896551724138,29.22,33.103448275862064,23.096666666666668,34.137931034482754,21.16C35.172413793103445,19.22333333333333,36.206896551724135,17.599999999999998,37.241379310344826,17.599999999999998C38.275862068965516,17.599999999999998,39.310344827586206,17.599999999999998,40.3448275862069,17.599999999999998C41.37931034482759,17.599999999999998,42.41379310344828,21.22,43.44827586206897,21.22C44.48275862068966,21.22,45.51724137931035,19,46.55172413793104,19C47.58620689655173,19,48.62068965517241,19.993333333333336,49.6551724137931,21.240000000000002C50.689655172413794,22.486666666666668,51.72413793103448,26.479999999999997,52.75862068965517,26.479999999999997C53.79310344827586,26.479999999999997,54.827586206896555,21.090000000000003,55.862068965517246,18.72C56.896551724137936,16.350000000000005,57.93103448275862,13.259999999999996,58.96551724137931,12.26C60,11.260000000000002,61.03448275862069,10.760000000000002,62.06896551724138,10.760000000000002C63.10344827586207,10.760000000000002,64.13793103448276,18.740000000000002,65.17241379310344,18.740000000000002C66.20689655172413,18.740000000000002,67.24137931034483,18.693333333333335,68.27586206896551,18.66C69.3103448275862,18.626666666666665,70.34482758620689,18.54,71.37931034482759,18.54C72.41379310344827,18.54,73.44827586206897,20.019999999999996,74.48275862068965,20.019999999999996C75.51724137931033,20.019999999999996,76.55172413793103,19.43333333333333,77.58620689655172,18.26C78.62068965517241,17.086666666666666,79.6551724137931,10.010000000000002,80.6896551724138,7.14C81.72413793103448,4.27000000000001,82.75862068965517,1.4399999999999995,83.79310344827586,1.040000000000001C84.82758620689656,0.6400000000000006,85.86206896551724,0.6100000000000012,86.89655172413794,0.4400000000000004C87.93103448275862,0.2700000000000004,88.96551724137932,0.019999999999997797,90,0.019999999999997797C91.0344827586207,0.019999999999997797,92.06896551724138,1.319999999999998,93.10344827586208,3.919999999999999C94.13793103448276,6.5199999999999765,95.17241379310344,17.839999999999996,96.20689655172413,17.839999999999996C97.24137931034483,17.839999999999996,98.27586206896551,13.776666666666666,99.3103448275862,11.459999999999999C100.3448275862069,9.143333333333333,101.37931034482759,5.206666666666679,102.41379310344828,3.9400000000000013C103.44827586206897,2.673333333333335,104.48275862068965,2.040000000000002,105.51724137931033,2.040000000000002C106.55172413793103,2.040000000000002,107.58620689655172,12.000000000000002,108.62068965517241,12.000000000000002C109.65517241379311,12.000000000000002,110.6896551724138,7.799999999999998,111.72413793103449,7.799999999999998C112.75862068965517,7.799999999999998,113.79310344827587,10.363333333333333,114.82758620689656,13.2C115.86206896551724,16.036666666666665,116.89655172413794,24.82,117.93103448275862,24.82C118.96551724137932,24.82,120,16.59666666666667,121.0344827586207,13.52C122.06896551724138,10.443333333333344,123.10344827586208,6.98666666666667,124.13793103448276,6.360000000000001C125.17241379310344,5.7333333333333325,126.20689655172414,5.419999999999998,127.24137931034483,5.419999999999998C128.27586206896552,5.419999999999998,129.3103448275862,11.373333333333347,130.3448275862069,12.879999999999999C131.3793103448276,14.386666666666665,132.41379310344828,14.24333333333332,133.44827586206898,15.139999999999997C134.48275862068965,16.036666666666658,135.51724137931035,16.393333333333366,136.55172413793102,18.26C137.58620689655172,20.126666666666672,138.6206896551724,26.34,139.6551724137931,26.34C140.6896551724138,26.34,141.72413793103448,20.223333333333333,142.75862068965517,18.14C143.79310344827587,16.05666666666667,144.82758620689654,13.84,145.86206896551724,13.84C146.89655172413794,13.84,147.9310344827586,14.273333333333332,148.9655172413793,15.139999999999997C150,16.00666666666667,151.0344827586207,17.98999999999999,152.0689655172414,19.08C153.10344827586206,20.169999999999984,154.13793103448276,20.930000000000003,155.17241379310343,21.68C156.20689655172413,22.43000000000001,157.24137931034483,22.313333333333333,158.27586206896552,23.580000000000002C159.31034482758622,24.846666666666657,160.3448275862069,30.36,161.3793103448276,30.36C162.41379310344828,30.36,163.44827586206895,25.146666666666665,164.48275862068965,22.759999999999998C165.51724137931035,20.37333333333333,166.55172413793102,16.04,167.58620689655172,16.04C168.6206896551724,16.04,169.6551724137931,21.406666666666663,170.6896551724138,23.28C171.7241379310345,25.15333333333332,172.75862068965517,26.799999999999997,173.79310344827587,27.279999999999998C174.82758620689657,27.759999999999998,175.86206896551724,27.52,176.89655172413794,28C177.93103448275863,28.48,178.9655172413793,30.040000000000003,180,31.6L180,40C178.9655172413793,40,177.93103448275863,40,176.89655172413794,40C175.86206896551724,40,174.82758620689657,40,173.79310344827587,40C172.75862068965517,40,171.7241379310345,40,170.6896551724138,40C169.6551724137931,40,168.6206896551724,40,167.58620689655172,40C166.55172413793102,40,165.51724137931035,40,164.48275862068965,40C163.44827586206895,40,162.41379310344828,40,161.3793103448276,40C160.3448275862069,40,159.31034482758622,40,158.27586206896552,40C157.24137931034483,40,156.20689655172413,40,155.17241379310343,40C154.13793103448276,40,153.10344827586206,40,152.0689655172414,40C151.0344827586207,40,150,40,148.9655172413793,40C147.9310344827586,40,146.89655172413794,40,145.86206896551724,40C144.82758620689654,40,143.79310344827587,40,142.75862068965517,40C141.72413793103448,40,140.6896551724138,40,139.6551724137931,40C138.6206896551724,40,137.58620689655172,40,136.55172413793102,40C135.51724137931035,40,134.48275862068965,40,133.44827586206898,40C132.41379310344828,40,131.3793103448276,40,130.3448275862069,40C129.3103448275862,40,128.27586206896552,40,127.24137931034483,40C126.20689655172414,40,125.17241379310344,40,124.13793103448276,40C123.10344827586208,40,122.06896551724138,40,121.0344827586207,40C120,40,118.96551724137932,40,117.93103448275862,40C116.89655172413794,40,115.86206896551724,40,114.82758620689656,40C113.79310344827587,40,112.75862068965517,40,111.72413793103449,40C110.6896551724138,40,109.65517241379311,40,108.62068965517241,40C107.58620689655172,40,106.55172413793103,40,105.51724137931033,40C104.48275862068965,40,103.44827586206897,40,102.41379310344828,40C101.37931034482759,40,100.3448275862069,40,99.3103448275862,40C98.27586206896551,40,97.24137931034483,40,96.20689655172413,40C95.17241379310344,40,94.13793103448276,40,93.10344827586208,40C92.06896551724138,40,91.0344827586207,40,90,40C88.96551724137932,40,87.93103448275862,40,86.89655172413794,40C85.86206896551724,40,84.82758620689656,40,83.79310344827586,40C82.75862068965517,40,81.72413793103448,40,80.6896551724138,40C79.6551724137931,40,78.62068965517241,40,77.58620689655172,40C76.55172413793103,40,75.51724137931033,40,74.48275862068965,40C73.44827586206897,40,72.41379310344827,40,71.37931034482759,40C70.34482758620689,40,69.3103448275862,40,68.27586206896551,40C67.24137931034483,40,66.20689655172413,40,65.17241379310344,40C64.13793103448276,40,63.10344827586207,40,62.06896551724138,40C61.03448275862069,40,60,40,58.96551724137931,40C57.93103448275862,40,56.896551724137936,40,55.862068965517246,40C54.827586206896555,40,53.79310344827586,40,52.75862068965517,40C51.72413793103448,40,50.689655172413794,40,49.6551724137931,40C48.62068965517241,40,47.58620689655173,40,46.55172413793104,40C45.51724137931035,40,44.48275862068966,40,43.44827586206897,40C42.41379310344828,40,41.37931034482759,40,40.3448275862069,40C39.310344827586206,40,38.275862068965516,40,37.241379310344826,40C36.206896551724135,40,35.172413793103445,40,34.137931034482754,40C33.103448275862064,40,32.06896551724138,40,31.03448275862069,40C30,40,28.965517241379313,40,27.931034482758623,40C26.896551724137932,40,25.862068965517242,40,24.82758620689655,40C23.79310344827586,40,22.758620689655174,40,21.724137931034484,40C20.689655172413794,40,19.655172413793103,40,18.620689655172413,40C17.586206896551722,40,16.551724137931036,40,15.517241379310345,40C14.482758620689655,40,13.448275862068966,40,12.413793103448276,40C11.379310344827585,40,10.344827586206897,40,9.310344827586206,40C8.275862068965516,40,7.241379310344827,40,6.206896551724138,40C5.172413793103448,40,4.137931034482759,40,3.103448275862069,40C2.068965517241379,40,1.0344827586206897,40,0,40Z"></path><path class="line" stroke="black" fill="none" d="M0,27.800000000000004C1.0344827586206897,27.833333333333336,2.068965517241379,27.86666666666667,3.103448275862069,28C4.137931034482759,28.13333333333333,5.172413793103448,28.38,6.206896551724138,29.139999999999997C7.241379310344827,29.899999999999995,8.275862068965516,32.9,9.310344827586206,32.9C10.344827586206897,32.9,11.379310344827585,28.153333333333332,12.413793103448276,26.5C13.448275862068966,24.846666666666668,14.482758620689655,23.816666666666666,15.517241379310345,22.98C16.551724137931036,22.143333333333334,17.586206896551722,21.479999999999997,18.620689655172413,21.479999999999997C19.655172413793103,21.479999999999997,20.689655172413794,23.22,21.724137931034484,23.66C22.758620689655174,24.1,23.79310344827586,24.026666666666667,24.82758620689655,24.32C25.862068965517242,24.613333333333333,26.896551724137932,24.686666666666667,27.931034482758623,25.419999999999998C28.965517241379313,26.15333333333333,30,29.22,31.03448275862069,29.22C32.06896551724138,29.22,33.103448275862064,23.096666666666668,34.137931034482754,21.16C35.172413793103445,19.22333333333333,36.206896551724135,17.599999999999998,37.241379310344826,17.599999999999998C38.275862068965516,17.599999999999998,39.310344827586206,17.599999999999998,40.3448275862069,17.599999999999998C41.37931034482759,17.599999999999998,42.41379310344828,21.22,43.44827586206897,21.22C44.48275862068966,21.22,45.51724137931035,19,46.55172413793104,19C47.58620689655173,19,48.62068965517241,19.993333333333336,49.6551724137931,21.240000000000002C50.689655172413794,22.486666666666668,51.72413793103448,26.479999999999997,52.75862068965517,26.479999999999997C53.79310344827586,26.479999999999997,54.827586206896555,21.090000000000003,55.862068965517246,18.72C56.896551724137936,16.350000000000005,57.93103448275862,13.259999999999996,58.96551724137931,12.26C60,11.260000000000002,61.03448275862069,10.760000000000002,62.06896551724138,10.760000000000002C63.10344827586207,10.760000000000002,64.13793103448276,18.740000000000002,65.17241379310344,18.740000000000002C66.20689655172413,18.740000000000002,67.24137931034483,18.693333333333335,68.27586206896551,18.66C69.3103448275862,18.626666666666665,70.34482758620689,18.54,71.37931034482759,18.54C72.41379310344827,18.54,73.44827586206897,20.019999999999996,74.48275862068965,20.019999999999996C75.51724137931033,20.019999999999996,76.55172413793103,19.43333333333333,77.58620689655172,18.26C78.62068965517241,17.086666666666666,79.6551724137931,10.010000000000002,80.6896551724138,7.14C81.72413793103448,4.27000000000001,82.75862068965517,1.4399999999999995,83.79310344827586,1.040000000000001C84.82758620689656,0.6400000000000006,85.86206896551724,0.6100000000000012,86.89655172413794,0.4400000000000004C87.93103448275862,0.2700000000000004,88.96551724137932,0.019999999999997797,90,0.019999999999997797C91.0344827586207,0.019999999999997797,92.06896551724138,1.319999999999998,93.10344827586208,3.919999999999999C94.13793103448276,6.5199999999999765,95.17241379310344,17.839999999999996,96.20689655172413,17.839999999999996C97.24137931034483,17.839999999999996,98.27586206896551,13.776666666666666,99.3103448275862,11.459999999999999C100.3448275862069,9.143333333333333,101.37931034482759,5.206666666666679,102.41379310344828,3.9400000000000013C103.44827586206897,2.673333333333335,104.48275862068965,2.040000000000002,105.51724137931033,2.040000000000002C106.55172413793103,2.040000000000002,107.58620689655172,12.000000000000002,108.62068965517241,12.000000000000002C109.65517241379311,12.000000000000002,110.6896551724138,7.799999999999998,111.72413793103449,7.799999999999998C112.75862068965517,7.799999999999998,113.79310344827587,10.363333333333333,114.82758620689656,13.2C115.86206896551724,16.036666666666665,116.89655172413794,24.82,117.93103448275862,24.82C118.96551724137932,24.82,120,16.59666666666667,121.0344827586207,13.52C122.06896551724138,10.443333333333344,123.10344827586208,6.98666666666667,124.13793103448276,6.360000000000001C125.17241379310344,5.7333333333333325,126.20689655172414,5.419999999999998,127.24137931034483,5.419999999999998C128.27586206896552,5.419999999999998,129.3103448275862,11.373333333333347,130.3448275862069,12.879999999999999C131.3793103448276,14.386666666666665,132.41379310344828,14.24333333333332,133.44827586206898,15.139999999999997C134.48275862068965,16.036666666666658,135.51724137931035,16.393333333333366,136.55172413793102,18.26C137.58620689655172,20.126666666666672,138.6206896551724,26.34,139.6551724137931,26.34C140.6896551724138,26.34,141.72413793103448,20.223333333333333,142.75862068965517,18.14C143.79310344827587,16.05666666666667,144.82758620689654,13.84,145.86206896551724,13.84C146.89655172413794,13.84,147.9310344827586,14.273333333333332,148.9655172413793,15.139999999999997C150,16.00666666666667,151.0344827586207,17.98999999999999,152.0689655172414,19.08C153.10344827586206,20.169999999999984,154.13793103448276,20.930000000000003,155.17241379310343,21.68C156.20689655172413,22.43000000000001,157.24137931034483,22.313333333333333,158.27586206896552,23.580000000000002C159.31034482758622,24.846666666666657,160.3448275862069,30.36,161.3793103448276,30.36C162.41379310344828,30.36,163.44827586206895,25.146666666666665,164.48275862068965,22.759999999999998C165.51724137931035,20.37333333333333,166.55172413793102,16.04,167.58620689655172,16.04C168.6206896551724,16.04,169.6551724137931,21.406666666666663,170.6896551724138,23.28C171.7241379310345,25.15333333333332,172.75862068965517,26.799999999999997,173.79310344827587,27.279999999999998C174.82758620689657,27.759999999999998,175.86206896551724,27.52,176.89655172413794,28C177.93103448275863,28.48,178.9655172413793,30.040000000000003,180,31.6"></path><path class="axis-ceiling" stroke-width="1" stroke="black" fill="none" d="M175,0L180,0"></path><text class="axis-ceiling-label" font-family="sans-serif" text-anchor="end" font-size="10px" x="170" y="2.5">2000</text></g></svg>